<?xml version="1.0" encoding="UTF-8"?>
<!-- Created with Inkscape (http://www.inkscape.org/) -->
<svg width="452.94138mm" height="218.28125mm" version="1.1" viewBox="0 0 452.94138 218.28126" xmlns="http://www.w3.org/2000/svg" xmlns:cc="http://creativecommons.org/ns#" xmlns:dc="http://purl.org/dc/elements/1.1/" xmlns:rdf="http://www.w3.org/1999/02/22-rdf-syntax-ns#">
 <metadata>
  <rdf:RDF>
   <cc:Work rdf:about="">
    <dc:format>image/svg+xml</dc:format>
    <dc:type rdf:resource="http://purl.org/dc/dcmitype/StillImage"/>
    <dc:title/>
   </cc:Work>
  </rdf:RDF>
 </metadata>
 <g fill="#f9eab0">
  <polygon transform="matrix(3.4969519,0,0,3.4969519,454.53799,432.75581)" points=""/>
  <polygon transform="matrix(3.4969519,0,0,3.4969519,1042.6954,575.90132)" points=""/>
  <polygon transform="matrix(3.4969519,0,0,3.4969519,455.26903,655.71169)" points=""/>
  <polygon transform="matrix(3.4969519,0,0,3.4969519,1043.4265,798.8572)" points=""/>
  <g transform="translate(-12.79578,310.10624)">
   <polygon transform="matrix(3.4969519,0,0,3.4969519,454.53799,432.75581)" points=""/>
   <polygon transform="matrix(3.4969519,0,0,3.4969519,1042.6954,575.90132)" points=""/>
   <polygon transform="matrix(3.4969519,0,0,3.4969519,290.18775,626.41733)" points=""/>
  </g>
  <polygon transform="matrix(3.4969519,0,0,3.4969519,479.13668,390.12445)" points=""/>
  <polygon transform="matrix(9.1061708,0,0,9.0930789,1307.0572,1362.1078)" points=""/>
  <g transform="translate(-2.9234564,305.16572)">
   <polygon transform="matrix(3.4969519,0,0,3.4969519,454.53799,116.97428)" points=""/>
   <polygon transform="matrix(9.1061708,0,0,9.0930789,1282.4585,1088.9576)" points=""/>
   <polygon transform="matrix(3.4969519,0,0,3.4969519,828.57006,-535.68054)" points=""/>
   <polygon transform="matrix(3.4969519,0,0,3.4969519,-1847.954,290.9635)" points=""/>
  </g>
 </g>
 <g transform="translate(-667.77311,288.24452)" letter-spacing="0px" word-spacing="0px">
  <text x="-1222.3983" y="-173.37076" font-family="sans-serif" font-size="10.58333302px" stroke-width=".26458332" style="line-height:1.25" xml:space="preserve"><tspan x="-1222.3983" y="-164.00699" stroke-width=".26458332"/></text>
  <text x="-2245.1282" y="-126.3082" font-family="'SC Gum Kids'" font-size="266.9718323px" stroke-width=".80091542" style="font-feature-settings:normal;font-variant-caps:normal;font-variant-ligatures:normal;font-variant-numeric:normal;line-height:1.25" xml:space="preserve"><tspan x="-2245.1282" y="114.67583" font-family="'SC Gum Kids'" font-size="266.9718323px" stroke-width=".80091542" style="font-feature-settings:normal;font-variant-caps:normal;font-variant-ligatures:normal;font-variant-numeric:normal"/></text>
  <text x="912.07428" y="386.35889" font-family="sans-serif" font-size="10.58333302px" stroke-width=".26458332" style="line-height:1.25" xml:space="preserve"><tspan x="912.07428" y="395.72266" stroke-width=".26458332"/></text>
 </g>
 <polygon transform="matrix(3.4969519,0,0,3.4969519,-1847.7462,630.71882)" points="" fill="#f9eab0"/>
 <g transform="translate(-2.9234564,305.16572)" letter-spacing="0px" word-spacing="0px">
  <text x="-1884.1167" y="-155.70239" font-family="sans-serif" font-size="10.58333302px" stroke-width=".26458332" style="line-height:1.25" xml:space="preserve"><tspan x="-1884.1167" y="-146.33862" stroke-width=".26458332"/></text>
  <text x="-2906.8464" y="-108.63977" font-family="'SC Gum Kids'" font-size="266.9718323px" stroke-width=".80091542" style="font-feature-settings:normal;font-variant-caps:normal;font-variant-ligatures:normal;font-variant-numeric:normal;line-height:1.25" xml:space="preserve"><tspan x="-2906.8464" y="132.34424" font-family="'SC Gum Kids'" font-size="266.9718323px" stroke-width=".80091542" style="font-feature-settings:normal;font-variant-caps:normal;font-variant-ligatures:normal;font-variant-numeric:normal"/></text>
  <text x="250.35588" y="404.02722" font-family="sans-serif" font-size="10.58333302px" stroke-width=".26458332" style="line-height:1.25" xml:space="preserve"><tspan x="250.35588" y="413.39099" stroke-width=".26458332"/></text>
 </g>
 <polygon transform="matrix(3.4969519,0,0,3.4969519,-1998.4308,601.98732)" points="" fill="#f9eab0"/>
 <g transform="translate(-2.9234564,305.16572)" letter-spacing="0px" word-spacing="0px">
  <text x="-2034.8013" y="-184.43384" font-family="sans-serif" font-size="10.58333302px" stroke-width=".26458332" style="line-height:1.25" xml:space="preserve"><tspan x="-2034.8013" y="-175.07007" stroke-width=".26458332"/></text>
  <text x="-3057.531" y="-137.37134" font-family="'SC Gum Kids'" font-size="266.9718323px" stroke-width=".80091542" style="font-feature-settings:normal;font-variant-caps:normal;font-variant-ligatures:normal;font-variant-numeric:normal;line-height:1.25" xml:space="preserve"><tspan x="-3057.531" y="103.61267" font-family="'SC Gum Kids'" font-size="266.9718323px" stroke-width=".80091542" style="font-feature-settings:normal;font-variant-caps:normal;font-variant-ligatures:normal;font-variant-numeric:normal"/></text>
  <text x="99.671333" y="375.29578" font-family="sans-serif" font-size="10.58333302px" stroke-width=".26458332" style="line-height:1.25" xml:space="preserve"><tspan x="99.671333" y="384.65955" stroke-width=".26458332"/></text>
 </g>
 <polygon transform="matrix(3.4969519,0,0,3.4969519,-1998.1868,656.22472)" points="" fill="#f9eab0"/>
 <g transform="translate(-14.821697,-77.54353)" letter-spacing="0px" word-spacing="0px">
  <text x="-2022.6592" y="252.51283" font-family="sans-serif" font-size="10.58333302px" stroke-width=".26458332" style="line-height:1.25" xml:space="preserve"><tspan x="-2022.6592" y="261.87659" stroke-width=".26458332"/></text>
  <text x="-3045.3889" y="299.57538" font-family="'SC Gum Kids'" font-size="266.9718323px" stroke-width=".80091542" style="font-feature-settings:normal;font-variant-caps:normal;font-variant-ligatures:normal;font-variant-numeric:normal;line-height:1.25" xml:space="preserve"><tspan x="-3045.3889" y="540.55945" font-family="'SC Gum Kids'" font-size="266.9718323px" stroke-width=".80091542" style="font-feature-settings:normal;font-variant-caps:normal;font-variant-ligatures:normal;font-variant-numeric:normal"/></text>
  <text x="111.81351" y="812.24249" font-family="sans-serif" font-size="10.58333302px" stroke-width=".26458332" style="line-height:1.25" xml:space="preserve"><tspan x="111.81351" y="821.60626" stroke-width=".26458332"/></text>
 </g>
 <polygon transform="matrix(3.4969519,0,0,3.4969519,-2149.3361,604.22462)" points="" fill="#f9eab0"/>
 <g transform="translate(-2.9234564,305.16572)" letter-spacing="0px" word-spacing="0px">
  <text x="-2185.7068" y="-182.19659" font-family="sans-serif" font-size="10.58333302px" stroke-width=".26458332" style="line-height:1.25" xml:space="preserve"><tspan x="-2185.7068" y="-172.83282" stroke-width=".26458332"/></text>
  <text x="-3208.4365" y="-135.13403" font-family="'SC Gum Kids'" font-size="266.9718323px" stroke-width=".80091542" style="font-feature-settings:normal;font-variant-caps:normal;font-variant-ligatures:normal;font-variant-numeric:normal;line-height:1.25" xml:space="preserve"><tspan x="-3208.4365" y="105.84998" font-family="'SC Gum Kids'" font-size="266.9718323px" stroke-width=".80091542" style="font-feature-settings:normal;font-variant-caps:normal;font-variant-ligatures:normal;font-variant-numeric:normal"/></text>
  <text x="-51.233967" y="377.53308" font-family="sans-serif" font-size="10.58333302px" stroke-width=".26458332" style="line-height:1.25" xml:space="preserve"><tspan x="-51.233967" y="386.89685" stroke-width=".26458332"/></text>
 </g>
 <polygon transform="matrix(3.4969519,0,0,3.4969519,-2144.4712,667.52692)" points="" fill="#f9eab0"/>
 <g transform="translate(-2.9234564,305.16572)" letter-spacing="0px" word-spacing="0px">
  <text x="-2180.8418" y="-118.89429" font-family="sans-serif" font-size="10.58333302px" stroke-width=".26458332" style="line-height:1.25" xml:space="preserve"><tspan x="-2180.8418" y="-109.53052" stroke-width=".26458332"/></text>
  <text x="-3203.5715" y="-71.831665" font-family="'SC Gum Kids'" font-size="266.9718323px" stroke-width=".80091542" style="font-feature-settings:normal;font-variant-caps:normal;font-variant-ligatures:normal;font-variant-numeric:normal;line-height:1.25" xml:space="preserve"><tspan x="-3203.5715" y="169.15234" font-family="'SC Gum Kids'" font-size="266.9718323px" stroke-width=".80091542" style="font-feature-settings:normal;font-variant-caps:normal;font-variant-ligatures:normal;font-variant-numeric:normal"/></text>
  <text x="-46.369076" y="440.83533" font-family="sans-serif" font-size="10.58333302px" stroke-width=".26458332" style="line-height:1.25" xml:space="preserve"><tspan x="-46.369076" y="450.1991" stroke-width=".26458332"/></text>
 </g>
 <polygon transform="matrix(3.4969519,0,0,3.4969519,-1850.8775,1602.8115)" points="" fill="#f9eab0"/>
 <g transform="translate(-2.9234564,305.16572)" letter-spacing="0px" word-spacing="0px">
  <text x="-1887.2479" y="816.39038" font-family="sans-serif" font-size="10.58333302px" stroke-width=".26458332" style="line-height:1.25" xml:space="preserve"><tspan x="-1887.2479" y="825.75415" stroke-width=".26458332"/></text>
  <text x="-2909.9778" y="863.45288" font-family="'SC Gum Kids'" font-size="266.9718323px" stroke-width=".80091542" style="font-feature-settings:normal;font-variant-caps:normal;font-variant-ligatures:normal;font-variant-numeric:normal;line-height:1.25" xml:space="preserve"><tspan x="-2909.9778" y="1104.437" font-family="'SC Gum Kids'" font-size="266.9718323px" stroke-width=".80091542" style="font-feature-settings:normal;font-variant-caps:normal;font-variant-ligatures:normal;font-variant-numeric:normal"/></text>
  <text x="247.22462" y="1376.1199" font-family="sans-serif" font-size="10.58333302px" stroke-width=".26458332" style="line-height:1.25" xml:space="preserve"><tspan x="247.22462" y="1385.4836" stroke-width=".26458332"/></text>
 </g>
 <polygon transform="matrix(3.4969519,0,0,3.4969519,-1847.7462,1637.4011)" points="" fill="#f9eab0"/>
 <g transform="translate(-2.9234564,305.16572)" letter-spacing="0px" word-spacing="0px">
  <text x="-1884.1167" y="850.97998" font-family="sans-serif" font-size="10.58333302px" stroke-width=".26458332" style="line-height:1.25" xml:space="preserve"><tspan x="-1884.1167" y="860.34375" stroke-width=".26458332"/></text>
  <text x="-2906.8464" y="898.04248" font-family="'SC Gum Kids'" font-size="266.9718323px" stroke-width=".80091542" style="font-feature-settings:normal;font-variant-caps:normal;font-variant-ligatures:normal;font-variant-numeric:normal;line-height:1.25" xml:space="preserve"><tspan x="-2906.8464" y="1139.0266" font-family="'SC Gum Kids'" font-size="266.9718323px" stroke-width=".80091542" style="font-feature-settings:normal;font-variant-caps:normal;font-variant-ligatures:normal;font-variant-numeric:normal"/></text>
  <text x="250.35588" y="1410.7095" font-family="sans-serif" font-size="10.58333302px" stroke-width=".26458332" style="line-height:1.25" xml:space="preserve"><tspan x="250.35588" y="1420.0732" stroke-width=".26458332"/></text>
 </g>
 <polygon transform="matrix(3.4969519,0,0,3.4969519,-1998.4308,1608.6696)" points="" fill="#f9eab0"/>
 <g transform="translate(-2.9234564,305.16572)" letter-spacing="0px" word-spacing="0px">
  <text x="-2034.8013" y="822.24841" font-family="sans-serif" font-size="10.58333302px" stroke-width=".26458332" style="line-height:1.25" xml:space="preserve"><tspan x="-2034.8013" y="831.61218" stroke-width=".26458332"/></text>
  <text x="-3057.531" y="869.31104" font-family="'SC Gum Kids'" font-size="266.9718323px" stroke-width=".80091542" style="font-feature-settings:normal;font-variant-caps:normal;font-variant-ligatures:normal;font-variant-numeric:normal;line-height:1.25" xml:space="preserve"><tspan x="-3057.531" y="1110.2949" font-family="'SC Gum Kids'" font-size="266.9718323px" stroke-width=".80091542" style="font-feature-settings:normal;font-variant-caps:normal;font-variant-ligatures:normal;font-variant-numeric:normal"/></text>
  <text x="99.671333" y="1381.978" font-family="sans-serif" font-size="10.58333302px" stroke-width=".26458332" style="line-height:1.25" xml:space="preserve"><tspan x="99.671333" y="1391.3418" stroke-width=".26458332"/></text>
 </g>
 <polygon transform="matrix(3.4969519,0,0,3.4969519,-1998.1868,1662.9071)" points="" fill="#f9eab0"/>
 <g transform="translate(-14.821697,929.13882)" letter-spacing="0px" word-spacing="0px">
  <text x="-2022.6592" y="252.51283" font-family="sans-serif" font-size="10.58333302px" stroke-width=".26458332" style="line-height:1.25" xml:space="preserve"><tspan x="-2022.6592" y="261.87659" stroke-width=".26458332"/></text>
  <text x="-3045.3889" y="299.57538" font-family="'SC Gum Kids'" font-size="266.9718323px" stroke-width=".80091542" style="font-feature-settings:normal;font-variant-caps:normal;font-variant-ligatures:normal;font-variant-numeric:normal;line-height:1.25" xml:space="preserve"><tspan x="-3045.3889" y="540.55945" font-family="'SC Gum Kids'" font-size="266.9718323px" stroke-width=".80091542" style="font-feature-settings:normal;font-variant-caps:normal;font-variant-ligatures:normal;font-variant-numeric:normal"/></text>
  <text x="111.81351" y="812.24249" font-family="sans-serif" font-size="10.58333302px" stroke-width=".26458332" style="line-height:1.25" xml:space="preserve"><tspan x="111.81351" y="821.60626" stroke-width=".26458332"/></text>
 </g>
 <polygon transform="matrix(3.4969519,0,0,3.4969519,-2149.3361,1610.9069)" points="" fill="#f9eab0"/>
 <g transform="translate(-2.9234564,305.16572)" letter-spacing="0px" word-spacing="0px">
  <text x="-2185.7068" y="824.48572" font-family="sans-serif" font-size="10.58333302px" stroke-width=".26458332" style="line-height:1.25" xml:space="preserve"><tspan x="-2185.7068" y="833.84949" stroke-width=".26458332"/></text>
  <text x="-3208.4365" y="871.54834" font-family="'SC Gum Kids'" font-size="266.9718323px" stroke-width=".80091542" style="font-feature-settings:normal;font-variant-caps:normal;font-variant-ligatures:normal;font-variant-numeric:normal;line-height:1.25" xml:space="preserve"><tspan x="-3208.4365" y="1112.5322" font-family="'SC Gum Kids'" font-size="266.9718323px" stroke-width=".80091542" style="font-feature-settings:normal;font-variant-caps:normal;font-variant-ligatures:normal;font-variant-numeric:normal"/></text>
  <text x="-51.233967" y="1384.2153" font-family="sans-serif" font-size="10.58333302px" stroke-width=".26458332" style="line-height:1.25" xml:space="preserve"><tspan x="-51.233967" y="1393.5791" stroke-width=".26458332"/></text>
 </g>
 <polygon transform="matrix(3.4969519,0,0,3.4969519,-2144.4712,1674.2092)" points="" fill="#f9eab0"/>
 <g transform="translate(630.34455,942.29642)" letter-spacing="0px" word-spacing="0px">
  <text x="-2814.1099" y="250.65732" font-family="sans-serif" font-size="10.58333302px" stroke-width=".26458332" style="line-height:1.25" xml:space="preserve"><tspan x="-2814.1099" y="260.02109" stroke-width=".26458332"/></text>
  <text x="-3836.8396" y="297.71988" font-family="'SC Gum Kids'" font-size="266.9718323px" stroke-width=".80091542" style="font-feature-settings:normal;font-variant-caps:normal;font-variant-ligatures:normal;font-variant-numeric:normal;line-height:1.25" xml:space="preserve"><tspan x="-3836.8396" y="538.70392" font-family="'SC Gum Kids'" font-size="266.9718323px" stroke-width=".80091542" style="font-feature-settings:normal;font-variant-caps:normal;font-variant-ligatures:normal;font-variant-numeric:normal"/></text>
  <text x="-679.63708" y="810.38696" font-family="sans-serif" font-size="10.58333302px" stroke-width=".26458332" style="line-height:1.25" xml:space="preserve"><tspan x="-679.63708" y="819.75073" stroke-width=".26458332"/></text>
 </g>
 <g transform="translate(-26.658261,303.22367)" fill="#f9eab0">
  <polygon transform="matrix(3.4969519,0,0,3.4969519,454.53799,116.97428)" points=""/>
  <polygon transform="matrix(9.1061708,0,0,9.0930789,1282.4585,1088.9576)" points=""/>
  <polygon transform="matrix(3.4969519,0,0,3.4969519,828.57006,-535.68054)" points=""/>
  <polygon transform="matrix(3.4969519,0,0,3.4969519,-1847.954,290.9635)" points=""/>
 </g>
 <g transform="translate(-691.50791,286.30247)" letter-spacing="0px" word-spacing="0px">
  <text x="-1222.3983" y="-173.37076" font-family="sans-serif" font-size="10.58333302px" stroke-width=".26458332" style="line-height:1.25" xml:space="preserve"><tspan x="-1222.3983" y="-164.00699" stroke-width=".26458332"/></text>
  <text x="-2245.1282" y="-126.3082" font-family="'SC Gum Kids'" font-size="266.9718323px" stroke-width=".80091542" style="font-feature-settings:normal;font-variant-caps:normal;font-variant-ligatures:normal;font-variant-numeric:normal;line-height:1.25" xml:space="preserve"><tspan x="-2245.1282" y="114.67583" font-family="'SC Gum Kids'" font-size="266.9718323px" stroke-width=".80091542" style="font-feature-settings:normal;font-variant-caps:normal;font-variant-ligatures:normal;font-variant-numeric:normal"/></text>
  <text x="912.07428" y="386.35889" font-family="sans-serif" font-size="10.58333302px" stroke-width=".26458332" style="line-height:1.25" xml:space="preserve"><tspan x="912.07428" y="395.72266" stroke-width=".26458332"/></text>
 </g>
 <polygon transform="matrix(3.4969519,0,0,3.4969519,-1871.481,628.77677)" points="" fill="#f9eab0"/>
 <g transform="translate(-26.658261,303.22367)" letter-spacing="0px" word-spacing="0px">
  <text x="-1884.1167" y="-155.70239" font-family="sans-serif" font-size="10.58333302px" stroke-width=".26458332" style="line-height:1.25" xml:space="preserve"><tspan x="-1884.1167" y="-146.33862" stroke-width=".26458332"/></text>
  <text x="-2906.8464" y="-108.63977" font-family="'SC Gum Kids'" font-size="266.9718323px" stroke-width=".80091542" style="font-feature-settings:normal;font-variant-caps:normal;font-variant-ligatures:normal;font-variant-numeric:normal;line-height:1.25" xml:space="preserve"><tspan x="-2906.8464" y="132.34424" font-family="'SC Gum Kids'" font-size="266.9718323px" stroke-width=".80091542" style="font-feature-settings:normal;font-variant-caps:normal;font-variant-ligatures:normal;font-variant-numeric:normal"/></text>
  <text x="250.35588" y="404.02722" font-family="sans-serif" font-size="10.58333302px" stroke-width=".26458332" style="line-height:1.25" xml:space="preserve"><tspan x="250.35588" y="413.39099" stroke-width=".26458332"/></text>
 </g>
 <polygon transform="matrix(3.4969519,0,0,3.4969519,-2022.1656,600.04527)" points="" fill="#f9eab0"/>
 <g transform="translate(-26.658261,303.22367)" letter-spacing="0px" word-spacing="0px">
  <text x="-2034.8013" y="-184.43384" font-family="sans-serif" font-size="10.58333302px" stroke-width=".26458332" style="line-height:1.25" xml:space="preserve"><tspan x="-2034.8013" y="-175.07007" stroke-width=".26458332"/></text>
  <text x="-3057.531" y="-137.37134" font-family="'SC Gum Kids'" font-size="266.9718323px" stroke-width=".80091542" style="font-feature-settings:normal;font-variant-caps:normal;font-variant-ligatures:normal;font-variant-numeric:normal;line-height:1.25" xml:space="preserve"><tspan x="-3057.531" y="103.61267" font-family="'SC Gum Kids'" font-size="266.9718323px" stroke-width=".80091542" style="font-feature-settings:normal;font-variant-caps:normal;font-variant-ligatures:normal;font-variant-numeric:normal"/></text>
  <text x="99.671333" y="375.29578" font-family="sans-serif" font-size="10.58333302px" stroke-width=".26458332" style="line-height:1.25" xml:space="preserve"><tspan x="99.671333" y="384.65955" stroke-width=".26458332"/></text>
 </g>
 <polygon transform="matrix(3.4969519,0,0,3.4969519,-2021.9216,654.28267)" points="" fill="#f9eab0"/>
 <g transform="translate(-38.556502,-79.48558)" letter-spacing="0px" word-spacing="0px">
  <text x="-2022.6592" y="252.51283" font-family="sans-serif" font-size="10.58333302px" stroke-width=".26458332" style="line-height:1.25" xml:space="preserve"><tspan x="-2022.6592" y="261.87659" stroke-width=".26458332"/></text>
  <text x="-3045.3889" y="299.57538" font-family="'SC Gum Kids'" font-size="266.9718323px" stroke-width=".80091542" style="font-feature-settings:normal;font-variant-caps:normal;font-variant-ligatures:normal;font-variant-numeric:normal;line-height:1.25" xml:space="preserve"><tspan x="-3045.3889" y="540.55945" font-family="'SC Gum Kids'" font-size="266.9718323px" stroke-width=".80091542" style="font-feature-settings:normal;font-variant-caps:normal;font-variant-ligatures:normal;font-variant-numeric:normal"/></text>
  <text x="111.81351" y="812.24249" font-family="sans-serif" font-size="10.58333302px" stroke-width=".26458332" style="line-height:1.25" xml:space="preserve"><tspan x="111.81351" y="821.60626" stroke-width=".26458332"/></text>
 </g>
 <polygon transform="matrix(3.4969519,0,0,3.4969519,-2173.0709,602.28257)" points="" fill="#f9eab0"/>
 <g transform="translate(-26.658261,303.22367)" letter-spacing="0px" word-spacing="0px">
  <text x="-2185.7068" y="-182.19659" font-family="sans-serif" font-size="10.58333302px" stroke-width=".26458332" style="line-height:1.25" xml:space="preserve"><tspan x="-2185.7068" y="-172.83282" stroke-width=".26458332"/></text>
  <text x="-3208.4365" y="-135.13403" font-family="'SC Gum Kids'" font-size="266.9718323px" stroke-width=".80091542" style="font-feature-settings:normal;font-variant-caps:normal;font-variant-ligatures:normal;font-variant-numeric:normal;line-height:1.25" xml:space="preserve"><tspan x="-3208.4365" y="105.84998" font-family="'SC Gum Kids'" font-size="266.9718323px" stroke-width=".80091542" style="font-feature-settings:normal;font-variant-caps:normal;font-variant-ligatures:normal;font-variant-numeric:normal"/></text>
  <text x="-51.233967" y="377.53308" font-family="sans-serif" font-size="10.58333302px" stroke-width=".26458332" style="line-height:1.25" xml:space="preserve"><tspan x="-51.233967" y="386.89685" stroke-width=".26458332"/></text>
 </g>
 <polygon transform="matrix(3.4969519,0,0,3.4969519,-2168.206,665.58487)" points="" fill="#f9eab0"/>
 <g transform="translate(-26.658261,303.22367)" letter-spacing="0px" word-spacing="0px">
  <text x="-2180.8418" y="-118.89429" font-family="sans-serif" font-size="10.58333302px" stroke-width=".26458332" style="line-height:1.25" xml:space="preserve"><tspan x="-2180.8418" y="-109.53052" stroke-width=".26458332"/></text>
  <text x="-3203.5715" y="-71.831665" font-family="'SC Gum Kids'" font-size="266.9718323px" stroke-width=".80091542" style="font-feature-settings:normal;font-variant-caps:normal;font-variant-ligatures:normal;font-variant-numeric:normal;line-height:1.25" xml:space="preserve"><tspan x="-3203.5715" y="169.15234" font-family="'SC Gum Kids'" font-size="266.9718323px" stroke-width=".80091542" style="font-feature-settings:normal;font-variant-caps:normal;font-variant-ligatures:normal;font-variant-numeric:normal"/></text>
  <text x="-46.369076" y="440.83533" font-family="sans-serif" font-size="10.58333302px" stroke-width=".26458332" style="line-height:1.25" xml:space="preserve"><tspan x="-46.369076" y="450.1991" stroke-width=".26458332"/></text>
 </g>
 <polygon transform="matrix(3.4969519,0,0,3.4969519,-1874.6123,1600.8695)" points="" fill="#f9eab0"/>
 <g transform="translate(-26.658261,303.22367)" letter-spacing="0px" word-spacing="0px">
  <text x="-1887.2479" y="816.39038" font-family="sans-serif" font-size="10.58333302px" stroke-width=".26458332" style="line-height:1.25" xml:space="preserve"><tspan x="-1887.2479" y="825.75415" stroke-width=".26458332"/></text>
  <text x="-2909.9778" y="863.45288" font-family="'SC Gum Kids'" font-size="266.9718323px" stroke-width=".80091542" style="font-feature-settings:normal;font-variant-caps:normal;font-variant-ligatures:normal;font-variant-numeric:normal;line-height:1.25" xml:space="preserve"><tspan x="-2909.9778" y="1104.437" font-family="'SC Gum Kids'" font-size="266.9718323px" stroke-width=".80091542" style="font-feature-settings:normal;font-variant-caps:normal;font-variant-ligatures:normal;font-variant-numeric:normal"/></text>
  <text x="247.22462" y="1376.1199" font-family="sans-serif" font-size="10.58333302px" stroke-width=".26458332" style="line-height:1.25" xml:space="preserve"><tspan x="247.22462" y="1385.4836" stroke-width=".26458332"/></text>
 </g>
 <polygon transform="matrix(3.4969519,0,0,3.4969519,-1871.481,1635.4591)" points="" fill="#f9eab0"/>
 <g transform="translate(-26.658261,303.22367)" letter-spacing="0px" word-spacing="0px">
  <text x="-1884.1167" y="850.97998" font-family="sans-serif" font-size="10.58333302px" stroke-width=".26458332" style="line-height:1.25" xml:space="preserve"><tspan x="-1884.1167" y="860.34375" stroke-width=".26458332"/></text>
  <text x="-2906.8464" y="898.04248" font-family="'SC Gum Kids'" font-size="266.9718323px" stroke-width=".80091542" style="font-feature-settings:normal;font-variant-caps:normal;font-variant-ligatures:normal;font-variant-numeric:normal;line-height:1.25" xml:space="preserve"><tspan x="-2906.8464" y="1139.0266" font-family="'SC Gum Kids'" font-size="266.9718323px" stroke-width=".80091542" style="font-feature-settings:normal;font-variant-caps:normal;font-variant-ligatures:normal;font-variant-numeric:normal"/></text>
  <text x="250.35588" y="1410.7095" font-family="sans-serif" font-size="10.58333302px" stroke-width=".26458332" style="line-height:1.25" xml:space="preserve"><tspan x="250.35588" y="1420.0732" stroke-width=".26458332"/></text>
 </g>
 <polygon transform="matrix(3.4969519,0,0,3.4969519,-2022.1656,1606.7276)" points="" fill="#f9eab0"/>
 <g transform="translate(-26.658261,303.22367)" letter-spacing="0px" word-spacing="0px">
  <text x="-2034.8013" y="822.24841" font-family="sans-serif" font-size="10.58333302px" stroke-width=".26458332" style="line-height:1.25" xml:space="preserve"><tspan x="-2034.8013" y="831.61218" stroke-width=".26458332"/></text>
  <text x="-3057.531" y="869.31104" font-family="'SC Gum Kids'" font-size="266.9718323px" stroke-width=".80091542" style="font-feature-settings:normal;font-variant-caps:normal;font-variant-ligatures:normal;font-variant-numeric:normal;line-height:1.25" xml:space="preserve"><tspan x="-3057.531" y="1110.2949" font-family="'SC Gum Kids'" font-size="266.9718323px" stroke-width=".80091542" style="font-feature-settings:normal;font-variant-caps:normal;font-variant-ligatures:normal;font-variant-numeric:normal"/></text>
  <text x="99.671333" y="1381.978" font-family="sans-serif" font-size="10.58333302px" stroke-width=".26458332" style="line-height:1.25" xml:space="preserve"><tspan x="99.671333" y="1391.3418" stroke-width=".26458332"/></text>
 </g>
 <polygon transform="matrix(3.4969519,0,0,3.4969519,-2021.9216,1660.9651)" points="" fill="#f9eab0"/>
 <g transform="translate(-38.556502,927.19677)" letter-spacing="0px" word-spacing="0px">
  <text x="-2022.6592" y="252.51283" font-family="sans-serif" font-size="10.58333302px" stroke-width=".26458332" style="line-height:1.25" xml:space="preserve"><tspan x="-2022.6592" y="261.87659" stroke-width=".26458332"/></text>
  <text x="-3045.3889" y="299.57538" font-family="'SC Gum Kids'" font-size="266.9718323px" stroke-width=".80091542" style="font-feature-settings:normal;font-variant-caps:normal;font-variant-ligatures:normal;font-variant-numeric:normal;line-height:1.25" xml:space="preserve"><tspan x="-3045.3889" y="540.55945" font-family="'SC Gum Kids'" font-size="266.9718323px" stroke-width=".80091542" style="font-feature-settings:normal;font-variant-caps:normal;font-variant-ligatures:normal;font-variant-numeric:normal"/></text>
  <text x="111.81351" y="812.24249" font-family="sans-serif" font-size="10.58333302px" stroke-width=".26458332" style="line-height:1.25" xml:space="preserve"><tspan x="111.81351" y="821.60626" stroke-width=".26458332"/></text>
 </g>
 <polygon transform="matrix(3.4969519,0,0,3.4969519,-2173.0709,1608.9649)" points="" fill="#f9eab0"/>
 <g transform="translate(-26.658261,303.22367)" letter-spacing="0px" word-spacing="0px">
  <text x="-2185.7068" y="824.48572" font-family="sans-serif" font-size="10.58333302px" stroke-width=".26458332" style="line-height:1.25" xml:space="preserve"><tspan x="-2185.7068" y="833.84949" stroke-width=".26458332"/></text>
  <text x="-3208.4365" y="871.54834" font-family="'SC Gum Kids'" font-size="266.9718323px" stroke-width=".80091542" style="font-feature-settings:normal;font-variant-caps:normal;font-variant-ligatures:normal;font-variant-numeric:normal;line-height:1.25" xml:space="preserve"><tspan x="-3208.4365" y="1112.5322" font-family="'SC Gum Kids'" font-size="266.9718323px" stroke-width=".80091542" style="font-feature-settings:normal;font-variant-caps:normal;font-variant-ligatures:normal;font-variant-numeric:normal"/></text>
  <text x="-51.233967" y="1384.2153" font-family="sans-serif" font-size="10.58333302px" stroke-width=".26458332" style="line-height:1.25" xml:space="preserve"><tspan x="-51.233967" y="1393.5791" stroke-width=".26458332"/></text>
 </g>
 <polygon transform="matrix(3.4969519,0,0,3.4969519,-2168.206,1672.2672)" points="" fill="#f9eab0"/>
 <g transform="translate(606.60975,940.35437)" letter-spacing="0px" word-spacing="0px">
  <text x="-2814.1099" y="250.65732" font-family="sans-serif" font-size="10.58333302px" stroke-width=".26458332" style="line-height:1.25" xml:space="preserve"><tspan x="-2814.1099" y="260.02109" stroke-width=".26458332"/></text>
  <text x="-3836.8396" y="297.71988" font-family="'SC Gum Kids'" font-size="266.9718323px" stroke-width=".80091542" style="font-feature-settings:normal;font-variant-caps:normal;font-variant-ligatures:normal;font-variant-numeric:normal;line-height:1.25" xml:space="preserve"><tspan x="-3836.8396" y="538.70392" font-family="'SC Gum Kids'" font-size="266.9718323px" stroke-width=".80091542" style="font-feature-settings:normal;font-variant-caps:normal;font-variant-ligatures:normal;font-variant-numeric:normal"/></text>
  <text x="-679.63708" y="810.38696" font-family="sans-serif" font-size="10.58333302px" stroke-width=".26458332" style="line-height:1.25" xml:space="preserve"><tspan x="-679.63708" y="819.75073" stroke-width=".26458332"/></text>
 </g>
 <polygon transform="matrix(3.4969519,0,0,3.4969519,408.54304,723.08837)" points="" fill="#f9eab0"/>
 <polygon transform="matrix(3.4969519,0,0,3.4969519,996.70046,866.23388)" points="" fill="#f9eab0"/>
 <rect x="5.1217259e-5" y="-3.5888672e-7" width="452.94128" height="218.28127" opacity="0" stroke-width=".35775721"/>
 <path d="m443.26684 71.73891h-81.33692c-4.78279 0-8.6332 3.92436-8.6332 8.79901v75.63361c0 4.87466 3.85041 8.79901 8.6332 8.79901h81.33692c4.78279 0 8.6332-3.92435 8.6332-8.79901l-16.63339-37.81681 16.63339-37.8168c1.95647-4.44815-3.85041-8.79901-8.6332-8.79901z" fill="#fff" stroke="#ef5350" stroke-linecap="round" stroke-linejoin="round" stroke-width="1.3104434"/>
 <path d="m361.2116 71.55981c0.66677 0.0315 1.31076 0.26187 1.90041 0.73642 0 0 21.47401 14.96078 27.30036 20.24193 1.04754 0.94953 1.9879 1.73092 2.83236 2.40976h-39.90146v-13.80588c0-4.13507 4.26777-9.75218 7.86833-9.58223zm33.05077 116.27493c-1.30156 0.8041-2.72443 0.95334-4.0518 0z" fill="#ef5350"/>
 <path d="m9.674543 71.73891h81.336926c4.78279 0 8.633196 3.92436 8.633196 8.79901v75.63361c0 4.87466-3.850406 8.79901-8.633196 8.79901h-81.336926c-4.78279 0-8.6331959-3.92435-8.6331959-8.79901l16.6333829-37.81681-16.6333829-37.8168c-1.95647452-4.44815 3.8504059-8.79901 8.6331959-8.79901z" fill="#fff" stroke="#ef5350" stroke-linecap="round" stroke-linejoin="round" stroke-width="1.3104434"/>
 <path d="m91.729785 71.55981c-0.666771 0.0315-1.310758 0.26187-1.900407 0.73642 0 0-21.474014 14.96078-27.300364 20.24193-1.047537 0.94953-1.987893 1.73092-2.832357 2.40976h39.901467v-13.80588c0-4.13507-4.267775-9.75218-7.868339-9.58223zm-33.050768 116.27493c1.301555 0.8041 2.724424 0.95333 4.051803 0z" fill="#ef5350"/>
 <g stroke="#ef5350" stroke-linecap="round" stroke-linejoin="round">
  <rect x="54.161125" y="94.947906" width="343.80542" height="92.886826" ry="8.7664652" fill="#fff" stroke-width="1.3104434"/>
  <g transform="matrix(.71974789 0 0 .71974789 181.03411 -27.19562)" fill="#ef5350" stroke-width="7.9375">
   <path d="m-33.222956 318.55025v18.84114"/>
   <path d="m-23.802386 327.97082h-18.84114"/>
  </g>
  <g transform="matrix(.71974789 0 0 .71974789 319.73159 -27.19562)" fill="#ef5350" stroke-width="7.9375">
   <path d="m-33.222956 318.55025v18.84114"/>
   <path d="m-23.802386 327.97082h-18.84114"/>
  </g>
 </g>
 <g fill="#fff" stroke-width=".26458332" style="font-feature-settings:normal;font-variant-caps:normal;font-variant-ligatures:normal;font-variant-numeric:normal" aria-label="exercise">
  <path d="m179.24391 211.12304q-0.18603-1.67431 0.28939-3.32796 0.47542-1.67432 1.46761-2.97656 1.01286-1.32292 2.43913-2.1084 1.42627-0.80615 3.14193-0.76481 0.7028-0.0207 1.6123 0.31006 0.90951 0.33072 1.67432 0.93017 0.76481 0.57878 1.21956 1.36426 0.47542 0.76481 0.31006 1.63297 0.0207 0.43409-0.43408 0.72347-0.45476 0.26872-1.21957 0.43409-0.74414 0.16536-1.757 0.24804-0.99218 0.062-2.10839 0.10336-1.09554 0.0413-2.23243 0.0827-1.13688 0.0207-2.14974 0.10335-0.57877 1.59164-0.3514 2.62516 0.24805 1.01286 1.01286 1.5503 0.78548 0.53743 1.92237 0.64079 1.15755 0.0827 2.39778-0.16537 1.24024-0.24805 2.43913-0.78548 1.19889-0.55811 2.06706-1.32292 0.12402 0 0.31006 0.0827 0.2067 0.0827 0.39274 0.22738 0.18603 0.12402 0.31006 0.28939 0.14469 0.14469 0.14469 0.26872-0.51676 0.88883-1.57096 1.59163t-2.37712 1.13688-2.76986 0.53744q-1.42627 0.10335-2.68717-0.20671-1.26091-0.31006-2.21175-1.09554-0.95085-0.78548-1.28158-2.12907zm9.88054-5.51904q-0.10336-0.78548-0.62012-1.17822-0.51677-0.39275-1.21956-0.4961-0.7028-0.12402-1.48829 0.0207-0.78548 0.1447-1.46761 0.43408-0.66146 0.28939-1.11621 0.68213-0.43408 0.39274-0.45475 0.78549z" style="font-feature-settings:normal;font-variant-caps:normal;font-variant-ligatures:normal;font-variant-numeric:normal"/>
  <path d="m192.72113 203.64029q0-0.12402 0.10335-0.37207 0.10335-0.26871 0.28939-0.51676 0.2067-0.24805 0.49609-0.39274 0.28939-0.16537 0.68213-0.10335l4.25814 5.1263q0.3514-0.45475 0.78548-1.09554 0.43408-0.66146 0.93018-1.38493 0.49609-0.72347 1.01285-1.44694 0.51677-0.72347 1.0542-1.34359 0.31006 0 0.53744 0.12402 0.24805 0.12403 0.41341 0.31006 0.16536 0.16537 0.24805 0.37207 0.10335 0.20671 0.10335 0.39274l-3.38997 5.29167 4.46484 4.67155q0.14469 0.26872 0.062 0.57878-0.0827 0.31006-0.31006 0.5581-0.2067 0.22738-0.51676 0.33073t-0.64079-0.0413l-4.46484-4.65088q-0.37207 0.41341-0.90951 1.0542-0.53743 0.64079-1.13688 1.30225-0.57878 0.66146-1.13688 1.24023-0.55811 0.57878-0.95085 0.86817-0.24805 0.12402-0.5581 0.12402-0.28939 0-0.55811-0.12402-0.24805-0.10336-0.41341-0.31006-0.16537-0.20671-0.16537-0.47543 0.062-0.062 0.3514-0.3514 0.28939-0.31005 0.68213-0.74414 0.41341-0.43408 0.88884-0.97151 0.47542-0.53744 0.9095-1.0542 0.43409-0.53744 0.80616-1.03353 0.37207-0.4961 0.5581-0.8475-1.2609-1.40559-2.25309-2.52181-0.41341-0.47542-0.82682-0.93017-0.39275-0.45475-0.7028-0.80615-0.31006-0.37207-0.51677-0.59945-0.18603-0.22738-0.18603-0.22738z" style="font-feature-settings:normal;font-variant-caps:normal;font-variant-ligatures:normal;font-variant-numeric:normal"/>
  <path d="m205.33018 211.12304q-0.18604-1.67431 0.28939-3.32796 0.47542-1.67432 1.46761-2.97656 1.01285-1.32292 2.43912-2.1084 1.42627-0.80615 3.14193-0.76481 0.7028-0.0207 1.61231 0.31006 0.9095 0.33072 1.67431 0.93017 0.76481 0.57878 1.21957 1.36426 0.47542 0.76481 0.31005 1.63297 0.0207 0.43409-0.43408 0.72347-0.45475 0.26872-1.21956 0.43409-0.74414 0.16536-1.757 0.24804-0.99219 0.062-2.1084 0.10336-1.09554 0.0413-2.23242 0.0827-1.13688 0.0207-2.14974 0.10335-0.57878 1.59164-0.3514 2.62516 0.24805 1.01286 1.01286 1.5503 0.78548 0.53743 1.92236 0.64079 1.15755 0.0827 2.39779-0.16537 1.24023-0.24805 2.43913-0.78548 1.19889-0.55811 2.06705-1.32292 0.12403 0 0.31006 0.0827 0.20671 0.0827 0.39274 0.22738 0.18604 0.12402 0.31006 0.28939 0.1447 0.14469 0.1447 0.26872-0.51677 0.88883-1.57097 1.59163t-2.37711 1.13688q-1.32292 0.43408-2.76986 0.53744-1.42627 0.10335-2.68718-0.20671-1.2609-0.31006-2.21175-1.09554-0.95084-0.78548-1.28157-2.12907zm9.88053-5.51904q-0.10335-0.78548-0.62012-1.17822-0.51676-0.39275-1.21956-0.4961-0.7028-0.12402-1.48828 0.0207-0.78548 0.1447-1.46761 0.43408-0.66146 0.28939-1.11621 0.68213-0.43408 0.39274-0.45476 0.78549z" style="font-feature-settings:normal;font-variant-caps:normal;font-variant-ligatures:normal;font-variant-numeric:normal"/>
  <path d="m219.03477 202.21402q0.0413-0.39274 0.33073-0.47542 0.28938-0.10335 0.62011-0.062 0.53744 0.062 0.80616 0.5581 0.26871 0.47543 0.37207 1.07487 0.10335 0.59945 0.10335 1.17823 0 0.5581 0.0207 0.80615 0.57878-0.49609 1.28158-1.13688 0.72347-0.64079 1.73632-1.15755 1.03353-0.53744 2.4598-0.80616 1.44694-0.28938 3.47266-0.0413 0.49609 0.12403 0.72347 0.47543 0.24805 0.3514 0.24805 0.74414 0.0207 0.37207-0.20671 0.7028-0.20671 0.31005-0.59945 0.3514-0.49609-0.37207-1.32291-0.43409-0.82683-0.062-1.81901 0.1447-0.97152 0.2067-1.98438 0.66146-1.01286 0.45475-1.88102 1.13688-0.8475 0.68213-1.46761 1.57096-0.59945 0.88884-0.74414 1.94304v4.52685q-0.0413 0.10335-0.33073 0.31006-0.28939 0.18603-0.66146 0.26872-0.3514 0.10335-0.72347 0-0.3514-0.10336-0.53744-0.57878 0-0.14469 0-0.9095 0-0.78549 0-1.88103 0.0207-1.11621 0.0413-2.41845 0.0207-1.32292 0.0207-2.58383 0.0207-1.2609 0.0207-2.3151 0.0207-1.0542 0.0207-1.65365z" style="font-feature-settings:normal;font-variant-caps:normal;font-variant-ligatures:normal;font-variant-numeric:normal"/>
  <path d="m229.51475 210.44091q-0.10336-1.07487 0.49609-2.33577 0.62012-1.28158 1.65365-2.4598 1.0542-1.19889 2.39778-2.12907 1.36426-0.95085 2.74919-1.36426 1.4056-0.43408 2.68717-0.16536 1.30225 0.26872 2.2531 1.48828 0 0.26872-0.1447 0.47542-0.12402 0.20671-0.33073 0.39274-0.18603 0.18604-0.41341 0.33073-0.22737 0.1447-0.41341 0.28939-0.3514-0.74414-0.93017-1.03353-0.57878-0.28939-1.28158-0.22737-0.7028 0.0413-1.48828 0.39274-0.78548 0.33073-1.55029 0.86816-0.76482 0.51676-1.44694 1.17822-0.68213 0.64079-1.1989 1.34359-0.49609 0.68213-0.76481 1.36426-0.26872 0.66146-0.2067 1.19889 0 0.90951 0.35139 1.46761 0.3514 0.55811 0.90951 0.86817 0.57878 0.31006 1.30225 0.41341 0.74414 0.10335 1.50895 0.10335 1.57096-0.0413 2.8112-0.37207 1.2609-0.3514 2.17041-0.72347 0.9095-0.39274 1.50895-0.68213t0.86816-0.22737q0.16537 0 0.33073 0.0207 0.18604 0.0207 0.31006 0.12402 0.14469 0.0827 0.18604 0.26872 0.062 0.16536 0 0.47542-0.062 0.39274-0.53744 0.76481-0.47542 0.3514-1.21956 0.66146t-1.65365 0.57878q-0.9095 0.24804-1.81901 0.43408-0.9095 0.16536-1.73633 0.24804-0.80615 0.0827-1.34359 0.0414-0.9095 0-1.9637-0.20671t-1.9637-0.68213q-0.88884-0.47542-1.48829-1.24023-0.59944-0.78549-0.59944-1.94304z" style="font-feature-settings:normal;font-variant-caps:normal;font-variant-ligatures:normal;font-variant-numeric:normal"/>
  <path d="m247.35345 202.37939q0.18604 2.54248 0.33073 5.41569 0.1447 2.85254 0.24805 5.76709-0.10335 0.41341-0.43408 0.59945-0.31006 0.18603-0.68213 0.2067-0.37207 0-0.7028-0.12402-0.31006-0.12403-0.39274-0.33073v-11.53418zm-2.39778-3.514q0-0.47542 0.26871-0.68213 0.26872-0.2067 0.64079-0.22737 0.37207-0.0414 0.74414 0.062 0.37207 0.10335 0.53744 0.24804 0.18603 0.68213-0.062 0.99219-0.24804 0.31006-0.66145 0.3514-0.39274 0.0207-0.82683-0.18603-0.43408-0.20671-0.64078-0.55811z" style="font-feature-settings:normal;font-variant-caps:normal;font-variant-ligatures:normal;font-variant-numeric:normal"/>
  <path d="m249.91661 213.06608q1.86035-0.1447 3.3693-0.51677 1.52962-0.37207 2.56315-0.84749 1.0542-0.4961 1.57096-1.03353 0.51677-0.55811 0.37207-1.09554-0.16536-0.57878-1.65364-0.4961-1.46761 0.0827-4.36149 0.66146-0.8475-0.062-1.48828-0.39274-0.62012-0.33073-0.99219-0.78548-0.37207-0.47542-0.47542-0.99219-0.10336-0.51676 0.062-0.9095 0-0.68213 0.39274-1.32292 0.41341-0.66146 1.09554-1.19889 0.7028-0.55811 1.6123-0.99219 0.93018-0.45475 1.98438-0.7028 1.0542-0.26872 2.17041-0.33073 1.11621-0.062 2.21175 0.1447 0.53743 0.24804 0.86816 0.57877 0.3514 0.31006 0.47543 0.64079 0.12402 0.31006 0 0.59945-0.12403 0.28938-0.51677 0.49609-0.84749-0.37207-1.79834-0.53744-0.93017-0.18603-1.86035-0.14469-0.93017 0.0413-1.79834 0.28939-0.84749 0.22737-1.50895 0.66146-0.64079 0.41341-1.0542 1.03353-0.41341 0.62011-0.43408 1.40559 0 0.43409 0.33073 0.57878 0.3514 0.12402 0.80615 0.12402 0.47542-0.0207 0.97152-0.10335 0.51676-0.10335 0.82682-0.10335 2.04639-0.28939 3.3693-0.16537 1.34359 0.12403 2.04639 0.53744t0.82682 1.03353q0.12403 0.62011-0.24804 1.34358-0.3514 0.7028-1.15756 1.42627-0.80615 0.72347-1.9637 1.32292t-2.62516 1.01286q-1.44694 0.39274-3.10059 0.47542-0.39274 0.1447-0.66146-0.0413-0.24804-0.18603-0.37207-0.49609-0.12402-0.31006-0.10335-0.64079 0.0413-0.3514 0.24805-0.51676z" style="font-feature-settings:normal;font-variant-caps:normal;font-variant-ligatures:normal;font-variant-numeric:normal"/>
  <path d="m260.85134 211.12304q-0.18603-1.67431 0.28939-3.32796 0.47542-1.67432 1.46761-2.97656 1.01286-1.32292 2.43913-2.1084 1.42627-0.80615 3.14193-0.76481 0.70279-0.0207 1.6123 0.31006 0.90951 0.33072 1.67432 0.93017 0.76481 0.57878 1.21956 1.36426 0.47542 0.76481 0.31006 1.63297 0.0207 0.43409-0.43408 0.72347-0.45476 0.26872-1.21957 0.43409-0.74414 0.16536-1.757 0.24804-0.99218 0.062-2.10839 0.10336-1.09554 0.0413-2.23243 0.0827-1.13688 0.0207-2.14974 0.10335-0.57877 1.59164-0.3514 2.62516 0.24805 1.01286 1.01286 1.5503 0.78548 0.53743 1.92237 0.64079 1.15755 0.0827 2.39778-0.16537 1.24024-0.24805 2.43913-0.78548 1.19889-0.55811 2.06706-1.32292 0.12402 0 0.31006 0.0827 0.2067 0.0827 0.39274 0.22738 0.18603 0.12402 0.31006 0.28939 0.14469 0.14469 0.14469 0.26872-0.51676 0.88883-1.57096 1.59163t-2.37712 1.13688-2.76986 0.53744q-1.42627 0.10335-2.68717-0.20671-1.26091-0.31006-2.21175-1.09554-0.95085-0.78548-1.28158-2.12907zm9.88054-5.51904q-0.10336-0.78548-0.62012-1.17822-0.51677-0.39275-1.21957-0.4961-0.70279-0.12402-1.48828 0.0207-0.78548 0.1447-1.46761 0.43408-0.66146 0.28939-1.11621 0.68213-0.43408 0.39274-0.45475 0.78549z" style="font-feature-settings:normal;font-variant-caps:normal;font-variant-ligatures:normal;font-variant-numeric:normal"/>
 </g>
 <g transform="translate(511.50517,8.45048)" fill="#fff" stroke-width=".26458335" style="font-feature-settings:normal;font-variant-caps:normal;font-variant-ligatures:normal;font-variant-numeric:normal" aria-label="1,111">
  <path d="m-188.38013 29.803647q0.42719 0 0.82682 0.661458l-0.38585 11.740886 0.27561 6.724826q-0.44097 1.653646-0.93707 1.653646-1.04731-0.413411-1.04731-0.771701 0-4.657769 0.27561-16.20573v-2.645833q0-1.102431 0.4961-1.102431z" style="font-feature-settings:normal;font-variant-caps:normal;font-variant-ligatures:normal;font-variant-numeric:normal"/>
  <path d="m-184.34248 47.070466h0.0551q0.68902 0 0.99219 1.81901l0.0551 0.992188q0 2.480469-1.04731 2.480469h-0.0551q-0.71658 0-0.82682-0.440973 0.49609-1.694987 0.49609-1.984375v-0.275607l-0.22048-1.819011q0.0689-0.771701 0.55121-0.771701z" style="font-feature-settings:normal;font-variant-caps:normal;font-variant-ligatures:normal;font-variant-numeric:normal"/>
  <path d="m-179.61581 29.803647q0.42719 0 0.82683 0.661458l-0.38585 11.740886 0.2756 6.724826q-0.44097 1.653646-0.93706 1.653646-1.04731-0.413411-1.04731-0.771701 0-4.657769 0.27561-16.20573v-2.645833q0-1.102431 0.49609-1.102431z" style="font-feature-settings:normal;font-variant-caps:normal;font-variant-ligatures:normal;font-variant-numeric:normal"/>
  <path d="m-175.42657 29.803647q0.42719 0 0.82682 0.661458l-0.38585 11.740886 0.27561 6.724826q-0.44097 1.653646-0.93707 1.653646-1.04731-0.413411-1.04731-0.771701 0-4.657769 0.27561-16.20573v-2.645833q0-1.102431 0.4961-1.102431z" style="font-feature-settings:normal;font-variant-caps:normal;font-variant-ligatures:normal;font-variant-numeric:normal"/>
  <path d="m-171.23733 29.803647q0.42719 0 0.82682 0.661458l-0.38585 11.740886 0.27561 6.724826q-0.44098 1.653646-0.93707 1.653646-1.04731-0.413411-1.04731-0.771701 0-4.657769 0.27561-16.20573v-2.645833q0-1.102431 0.49609-1.102431z" style="font-feature-settings:normal;font-variant-caps:normal;font-variant-ligatures:normal;font-variant-numeric:normal"/>
 </g>
 <g transform="translate(-385.43044,-170.31018)" fill="#ef5350" stroke-width=".26458335">
  <g style="font-feature-settings:normal;font-variant-caps:normal;font-variant-ligatures:normal;font-variant-numeric:normal" aria-label="Expanded to">
   <path d="m510.31184 306.86283 17.65611 0.22393-0.34451-6.08059-10.66257-0.10336v-2.35989l9.40511 0.17226v-5.49493l-9.40511-0.18948v-2.22209l10.31806-0.10335v-6.08059l-17.19103-0.12058z" style="font-feature-settings:normal;font-variant-caps:normal;font-variant-ligatures:normal;font-variant-numeric:normal"/>
   <path d="m542.48903 290.08521-3.68625 4.4614-4.13412-5.23654-6.32175 0.25838 7.0969 9.07783-6.99355 8.66441 6.90742 0.0861 3.56567-4.37527 3.15227 3.96186 6.52845-0.0172-6.3562-8.0443 7.20025-8.85389z" style="font-feature-settings:normal;font-variant-caps:normal;font-variant-ligatures:normal;font-variant-numeric:normal"/>
   <path d="m560.48965 300.38605q-1.17133 0-1.73977-0.29283-0.48232-0.25838-0.44786-0.70625 0.0344-0.39618 0.44786-0.77514 0.43064-0.36174 0.99908-0.49954 0.89572-0.20671 1.67087 0.10335 0.68902 0.27561 0.91295 0.79237 0.24115 0.53399-0.18948 0.91295-0.49954 0.44787-1.65365 0.46509zm0.41341-9.85297q-2.7044 0-4.78868 1.65364l0.0172-1.77422-6.18395 0.27561v22.68595h5.92556l0.0861-7.87204q2.08428 1.36081 5.2021 1.41249 4.42694 0.10335 6.82128-2.44602 2.13596-2.25654 1.94648-5.63273-0.17225-3.34175-2.48047-5.70164-2.54937-2.60104-6.54568-2.60104z" style="font-feature-settings:normal;font-variant-caps:normal;font-variant-ligatures:normal;font-variant-numeric:normal"/>
   <path d="m577.73235 302.78039q-0.58566-0.0861-0.96462-0.34451-0.36174-0.25838-0.39619-0.55121-0.0172-0.31006 0.32728-0.48232 0.39619-0.18948 1.15411-0.1378 0.53399 0.0517 0.84405 0.31006 0.27561 0.25838 0.25838 0.56844-0.0172 0.32728-0.32728 0.49954-0.32729 0.2067-0.89573 0.1378zm4.73701-12.04061q-4.51308-0.79237-7.73424-0.32728-1.61919 0.24116-2.32544 0.63734l0.99908 5.01262q1.92925-0.53399 4.06521-0.48232 4.27192 0.10336 5.271 3.10059-1.6192-0.96463-3.70348-1.46417-4.20302-0.99908-6.61458 1.34359-1.42972 1.39526-1.77423 3.15226-0.34451 1.73978 0.48232 3.16949 0.87849 1.53307 2.7733 2.20486 2.11873 0.7407 5.09874 0.24116 2.42879-0.43064 3.87573-2.37712l-0.29283 2.06706h5.87389q1.05075-3.61735 0.82682-7.45863-0.18948-3.35897-1.58474-5.51216-1.72255-2.68717-5.23655-3.30729z" style="font-feature-settings:normal;font-variant-caps:normal;font-variant-ligatures:normal;font-variant-numeric:normal"/>
   <path d="m601.10733 288.98278q-3.20394-0.32728-5.42603 1.15411l0.0345-1.17133-5.4088-0.15503-0.43064 18.55184h6.47678l0.0861-6.51123q-0.22394-5.61551 2.61827-5.73609 2.10151-0.0861 2.42879 5.77054 0.17226 2.7733-0.25838 5.71886l6.73516 0.15503q0.49954-4.37527-0.10335-8.62997-0.51677-3.87573-1.92926-6.14949-1.77422-2.84221-4.82313-2.99724z" style="font-feature-settings:normal;font-variant-caps:normal;font-variant-ligatures:normal;font-variant-numeric:normal"/>
   <path d="m618.74621 300.38605q-0.80959 0.18948-1.46416-0.12058-0.55122-0.27561-0.70625-0.75792-0.12057-0.51676 0.31006-0.8785 0.51677-0.39618 1.60197-0.43064 0.49954 0 0.9474 0.25839 0.44787 0.2756 0.58567 0.65457 0.15503 0.39618-0.1378 0.74069-0.31006 0.37896-1.13689 0.53399zm-6.80406-7.18302q-1.757 1.34358-2.60105 3.84128-0.48231 2.37711 0.32729 4.77146 1.17133 2.53214 3.08336 3.97908 2.17041 1.6192 5.08151 1.36081 2.34267-0.18948 3.56568-1.11965 1.22301-0.93018 1.56752-1.51584v2.68717l6.3562 0.34451-0.15503-23.03046-6.97632-0.36174v8.73332q-1.36081-0.86128-3.32452-1.25746-3.92741-0.77515-6.92464 1.56752z" style="font-feature-settings:normal;font-variant-caps:normal;font-variant-ligatures:normal;font-variant-numeric:normal"/>
   <path d="m639.5546 294.01262q1.51584-0.2756 2.20486 0.48232 0.34451 0.39618 0.37896 0.82682l-4.65088 0.44786q-0.0689-0.32728 0.1378-0.72347 0.43064-0.75792 1.92926-1.03353zm-0.70625 7.25193q-0.89572-0.49954-1.22301-1.37804-0.17225-0.43064-0.15503-0.77514l11.5583-1.37804q-0.39619-2.32544-1.98093-4.51308-3.20394-4.3925-9.26731-3.82405-3.46232 0.32728-5.4777 2.79052-1.8259 2.20486-1.99816 5.42603-0.18948 3.11781 1.22301 5.70163 1.51585 2.7733 4.23747 3.6518 4.71978 1.5503 9.07783-0.68902 2.18763-1.11965 3.41064-2.53214l-3.70348-3.85851q-0.80959 0.68902-1.92925 1.20579-2.22209 1.05075-3.77238 0.17225z" style="font-feature-settings:normal;font-variant-caps:normal;font-variant-ligatures:normal;font-variant-numeric:normal"/>
   <path d="m659.32945 300.38605q-0.8096 0.18948-1.46416-0.12058-0.55122-0.27561-0.70625-0.75792-0.12058-0.51676 0.31006-0.8785 0.51676-0.39618 1.60197-0.43064 0.49954 0 0.9474 0.25839 0.44786 0.2756 0.58567 0.65457 0.15503 0.39618-0.13781 0.74069-0.31006 0.37896-1.13688 0.53399zm-6.80406-7.18302q-1.757 1.34358-2.60105 3.84128-0.48231 2.37711 0.32728 4.77146 1.17134 2.53214 3.08336 3.97908 2.17041 1.6192 5.08152 1.36081 2.34267-0.18948 3.56567-1.11965 1.22301-0.93018 1.56752-1.51584v2.68717l6.3562 0.34451-0.15502-23.03046-6.97632-0.36174v8.73332q-1.36082-0.86128-3.32452-1.25746-3.92741-0.77515-6.92464 1.56752z" style="font-feature-settings:normal;font-variant-caps:normal;font-variant-ligatures:normal;font-variant-numeric:normal"/>
   <path d="m684.90928 283.16057-0.17225 5.56383-4.63366-0.25838-0.31006 5.52938 4.75424 0.22393-0.22393 13.09136 5.85666 0.31006 0.17225-13.16026 4.49585 0.0344 0.12058-5.56383-4.47862-0.0861 0.12057-5.35712z" style="font-feature-settings:normal;font-variant-caps:normal;font-variant-ligatures:normal;font-variant-numeric:normal"/>
   <path d="m704.09846 300.38605q-1.0163-0.0172-1.53306-0.31006-0.49954-0.27561-0.49954-0.77514 0-0.51677 0.46508-0.84405 0.51677-0.37896 1.41249-0.37896 0.94741 0 1.49862 0.32728 0.55122 0.31006 0.55122 0.8096 0 0.48231-0.55122 0.82682-0.53399 0.36174-1.34359 0.34451zm-0.12057-10.28361q-4.3236 0-6.54569 2.91111-1.86035 2.42879-1.86035 6.18394 0 4.16857 1.94648 6.1495 2.15319 2.18763 7.14857 2.25654 3.54845 0.0517 5.92557-2.61828 2.30821-2.60104 2.30821-6.30452 0-3.73793-2.32544-6.09782-2.44601-2.48047-6.59735-2.48047z" style="font-feature-settings:normal;font-variant-caps:normal;font-variant-ligatures:normal;font-variant-numeric:normal"/>
  </g>
  <g style="font-feature-settings:normal;font-variant-caps:normal;font-variant-ligatures:normal;font-variant-numeric:normal" aria-label="standard form">
   <path d="m498.18349 332.43926q1.58474 0.68902 2.8422 1.22301 3.47955 1.73978 4.16856 1.11966 0.24116-0.36174 0.0689-0.62012t-1.70533-0.86127q-1.51584-0.62012-3.47954-1.24024-1.96371-0.62011-2.66995-2.04983-0.67179-1.37804-0.10335-2.91111 0.62011-1.65364 2.37711-2.61827 2.03261-1.10243 5.02984-0.91295 2.53215 0.15503 5.04707 1.15411 1.18855 0.65457 1.86035 1.29191l-2.17041 3.41064q-0.99908-0.65456-1.94648-0.9474-3.10059-1.13688-3.27284 0.0689-0.0172 0.32728 0.55121 0.68901 0.58567 0.34451 2.48047 0.86128 1.91203 0.49954 3.10059 1.06798 1.77422 0.8785 2.15318 2.80775 0.39619 1.96371-1.22301 4.03076-1.68809 1.98093-5.83943 1.99816-3.61735 0.0344-9.7324-2.7044z" style="font-feature-settings:normal;font-variant-caps:normal;font-variant-ligatures:normal;font-variant-numeric:normal"/>
   <path d="m518.57845 315.73055-0.17225 5.56383-4.63366-0.25838-0.31005 5.52938 4.75423 0.22393-0.22393 13.09136 5.85666 0.31006 0.17225-13.16027 4.49585 0.0344 0.12058-5.56383-4.47862-0.0861 0.12058-5.35713z" style="font-feature-settings:normal;font-variant-caps:normal;font-variant-ligatures:normal;font-variant-numeric:normal"/>
   <path d="m536.6652 335.35037q-0.58566-0.0861-0.96462-0.34451-0.36174-0.25838-0.39619-0.55122-0.0172-0.31005 0.32728-0.48231 0.39619-0.18948 1.15411-0.1378 0.53399 0.0517 0.84405 0.31006 0.27561 0.25838 0.25838 0.56844-0.0172 0.32728-0.32728 0.49953-0.32729 0.20671-0.89573 0.13781zm4.73701-12.04061q-4.51308-0.79237-7.73424-0.32728-1.61919 0.24115-2.32544 0.63734l0.99908 5.01261q1.92925-0.53399 4.06521-0.48231 4.27192 0.10335 5.271 3.10059-1.6192-0.96463-3.70348-1.46417-4.20302-0.99908-6.61458 1.34359-1.42972 1.39526-1.77423 3.15226-0.34451 1.73977 0.48232 3.16949 0.87849 1.53306 2.7733 2.20486 2.11873 0.74069 5.09874 0.24115 2.42879-0.43063 3.87573-2.37711l-0.29283 2.06706h5.87389q1.05075-3.61735 0.82682-7.45864-0.18948-3.35896-1.58475-5.51215-1.72254-2.68717-5.23654-3.30729z" style="font-feature-settings:normal;font-variant-caps:normal;font-variant-ligatures:normal;font-variant-numeric:normal"/>
   <path d="m560.04018 321.55276q-3.20394-0.32728-5.42603 1.15411l0.0344-1.17133-5.4088-0.15503-0.43064 18.55184h6.47678l0.0861-6.51123q-0.22393-5.61551 2.61827-5.73609 2.10151-0.0861 2.4288 5.77054 0.17225 2.7733-0.25839 5.71885l6.73517 0.15503q0.49953-4.37527-0.10336-8.62996-0.51676-3.87573-1.92925-6.1495-1.77422-2.8422-4.82313-2.99723z" style="font-feature-settings:normal;font-variant-caps:normal;font-variant-ligatures:normal;font-variant-numeric:normal"/>
   <path d="m577.67906 332.95603q-0.8096 0.18948-1.46417-0.12058-0.55121-0.27561-0.70624-0.75792-0.12058-0.51677 0.31006-0.8785 0.51676-0.39619 1.60197-0.43064 0.49954 0 0.9474 0.25838 0.44786 0.27561 0.58567 0.65457 0.15503 0.39619-0.13781 0.7407-0.31006 0.37896-1.13688 0.53399zm-6.80406-7.18303q-1.757 1.34359-2.60105 3.84128-0.48231 2.37712 0.32728 4.77146 1.17134 2.53215 3.08336 3.97909 2.17041 1.61919 5.08152 1.36081 2.34267-0.18948 3.56567-1.11966 1.22301-0.93017 1.56752-1.51584v2.68718l6.3562 0.34451-0.15503-23.03047-6.97631-0.36173v8.73331q-1.36082-0.86127-3.32452-1.25746-3.92741-0.77514-6.92464 1.56752z" style="font-feature-settings:normal;font-variant-caps:normal;font-variant-ligatures:normal;font-variant-numeric:normal"/>
   <path d="m596.47206 335.35037q-0.58566-0.0861-0.96463-0.34451-0.36173-0.25838-0.39618-0.55122-0.0172-0.31005 0.32728-0.48231 0.39619-0.18948 1.15411-0.1378 0.53399 0.0517 0.84405 0.31006 0.27561 0.25838 0.25838 0.56844-0.0172 0.32728-0.32728 0.49953-0.32729 0.20671-0.89573 0.13781zm4.73701-12.04061q-4.51308-0.79237-7.73424-0.32728-1.6192 0.24115-2.32544 0.63734l0.99908 5.01261q1.92925-0.53399 4.06521-0.48231 4.27192 0.10335 5.271 3.10059-1.6192-0.96463-3.70348-1.46417-4.20302-0.99908-6.61459 1.34359-1.42971 1.39526-1.77422 3.15226-0.34451 1.73977 0.48231 3.16949 0.8785 1.53306 2.77331 2.20486 2.11873 0.74069 5.09874 0.24115 2.42879-0.43063 3.87573-2.37711l-0.29283 2.06706h5.87388q1.05076-3.61735 0.82683-7.45864-0.18948-3.35896-1.58475-5.51215-1.72254-2.68717-5.23654-3.30729z" style="font-feature-settings:normal;font-variant-caps:normal;font-variant-ligatures:normal;font-variant-numeric:normal"/>
   <path d="m614.30043 321.70779-5.51215 0.1378 0.43064 17.67334 5.66718 0.13781-0.22393-7.28638q0.75792-3.66903 4.09966-4.54752 1.67087-0.44787 3.18672-0.15503l0.0172-6.0117q-4.84036 0.12058-7.59643 2.22209z" style="font-feature-settings:normal;font-variant-caps:normal;font-variant-ligatures:normal;font-variant-numeric:normal"/>
   <path d="m632.52498 332.95603q-0.80959 0.18948-1.46416-0.12058-0.55122-0.27561-0.70625-0.75792-0.12057-0.51677 0.31006-0.8785 0.51677-0.39619 1.60197-0.43064 0.49954 0 0.9474 0.25838 0.44787 0.27561 0.58567 0.65457 0.15503 0.39619-0.1378 0.7407-0.31006 0.37896-1.13689 0.53399zm-6.80406-7.18303q-1.757 1.34359-2.60105 3.84128-0.48231 2.37712 0.32729 4.77146 1.17133 2.53215 3.08336 3.97909 2.17041 1.61919 5.08151 1.36081 2.34267-0.18948 3.56568-1.11966 1.22301-0.93017 1.56752-1.51584v2.68718l6.3562 0.34451-0.15503-23.03047-6.97632-0.36173v8.73331q-1.36081-0.86127-3.32452-1.25746-3.92741-0.77514-6.92464 1.56752z" style="font-feature-settings:normal;font-variant-caps:normal;font-variant-ligatures:normal;font-variant-numeric:normal"/>
   <path d="m662.91073 322.98248q0.34451-1.05076 0.91295-0.63735 0.27561 0.20671 0.48231 0.63735l4.49585-3.65181q-0.2756-0.74069-1.27468-1.46416-1.96371-1.42972-5.46048-1.34359-4.92648 0.12058-5.6844 8.66442l-3.56568-0.0172 0.10335 5.82221 3.39342-0.10335q0.24116 4.99539 1.11966 9.35343l6.02892-0.84404q-0.32729-4.42695-0.55122-8.7161l2.79053-0.0861 0.0517-5.37435-2.99724-0.0172q0-1.77422 0.15503-2.22208z" style="font-feature-settings:normal;font-variant-caps:normal;font-variant-ligatures:normal;font-variant-numeric:normal"/>
   <path d="m676.94949 332.95603q-1.0163-0.0172-1.53307-0.31006-0.49953-0.27561-0.49953-0.77515 0-0.51676 0.46508-0.84405 0.51677-0.37896 1.41249-0.37896 0.9474 0 1.49862 0.32729 0.55121 0.31006 0.55121 0.80959 0 0.48232-0.55121 0.82683-0.53399 0.36173-1.34359 0.34451zm-0.12058-10.28361q-4.32359 0-6.54568 2.9111-1.86035 2.4288-1.86035 6.18395 0 4.16857 1.94648 6.1495 2.15318 2.18763 7.14857 2.25653 3.54845 0.0517 5.92557-2.61827 2.30821-2.60105 2.30821-6.30452 0-3.73793-2.32544-6.09782-2.44602-2.48047-6.59736-2.48047z" style="font-feature-settings:normal;font-variant-caps:normal;font-variant-ligatures:normal;font-variant-numeric:normal"/>
   <path d="m691.81508 321.70779-5.51215 0.1378 0.43064 17.67334 5.66718 0.13781-0.22393-7.28638q0.75792-3.66903 4.09966-4.54752 1.67087-0.44787 3.18671-0.15503l0.0172-6.0117q-4.84036 0.12058-7.59644 2.22209z" style="font-feature-settings:normal;font-variant-caps:normal;font-variant-ligatures:normal;font-variant-numeric:normal"/>
   <path d="m721.73574 321.77669q-3.68625-0.0517-5.52938 2.80776-1.05075 1.60196-1.30913 3.60012 0.17225-1.67087-0.56845-3.13504-0.67179-2.58382-3.13503-3.27284-1.99816-0.56844-4.5303 1.79145l0.0344-2.06706-6.40788-0.0344 0.18948 18.41404 6.2873-0.17226 0.25838-5.09874q0.6718-6.09782 2.53215-5.99446 1.98093 0.0861 1.79145 5.49492-0.0861 2.7044-0.56844 5.4088l6.40787 0.0172q0.15503-2.87665 0.63735-5.63273 0.46508-5.39158 2.11873-4.92649 1.67087 0.44786 1.58474 5.59828-0.22393 2.68718-0.77514 5.25377l5.99446-0.31006q0.68902-4.40972 0.46509-8.81944-0.2067-3.85851-1.25746-6.08059-1.30913-2.79053-4.22024-2.84221z" style="font-feature-settings:normal;font-variant-caps:normal;font-variant-ligatures:normal;font-variant-numeric:normal"/>
  </g>
 </g>
 <g transform="translate(354.07426,49.806568)" fill="#fff">
  <g stroke-width=".26458335">
   <g transform="translate(3.7736453e-6)" style="font-feature-settings:normal;font-variant-caps:normal;font-variant-ligatures:normal;font-variant-numeric:normal" aria-label="1000">
    <path d="m-241.09886-10.594705q0.42719 0 0.82682 0.6614583l-0.38585 11.7408858 0.2756 6.7248267q-0.44097 1.6536462-0.93706 1.6536462-1.04731-0.4134118-1.04731-0.7717017 0-4.6577693 0.27561-16.2057298v-2.6458335q0-1.102431 0.49609-1.102431z" style="font-feature-settings:normal;font-variant-caps:normal;font-variant-ligatures:normal;font-variant-numeric:normal"/>
    <path d="m-233.34051-11.352626h0.55122q2.86632 0 4.3546 5.1814237 0.16536 1.0610894 0.16536 1.9292535 0 2.9352215-2.37022 11.3550352-0.27561 0.2067057-0.27561 0.5512153-0.34451 0.4960937-0.71658 1.4882813-1.14377 1.653646-2.86632 1.653646-1.07487 0-2.59071-1.9292537-1.37804-1.5847439-1.37804-6.3940974 0-3.5691191 0.93706-7.276042 0.67524-2.7698568 0.88195-3.1419272 0.1378-0.068902 0.44097-1.3229167 1.21267-1.984375 1.81901-1.984375zm-3.47266 15.1584206q0 2.3564454 1.65365 4.6302085 0.44097 0.3858507 0.82682 0.3858507h0.27561q0.79926 0 2.43913-4.6991104 1.63986-4.71289081 1.63986-7.0417755l0.11025-1.5434028q0-2.7560765-2.09462-4.575087-1.03353-0.4960937-1.59853-0.4960937-0.82682 0-2.42534 5.2365453-0.27561 0.7303603-0.66146 4.85069463z" style="font-feature-settings:normal;font-variant-caps:normal;font-variant-ligatures:normal;font-variant-numeric:normal"/>
    <path d="m-221.70987-11.352626h0.55122q2.86632 0 4.3546 5.1814237 0.16536 1.0610894 0.16536 1.9292535 0 2.9352215-2.37022 11.3550352-0.27561 0.2067057-0.27561 0.5512153-0.34451 0.4960937-0.71658 1.4882813-1.14377 1.653646-2.86632 1.653646-1.07487 0-2.59071-1.9292537-1.37804-1.5847439-1.37804-6.3940974 0-3.5691191 0.93707-7.276042 0.67524-2.7698568 0.88194-3.1419272 0.13781-0.068902 0.44097-1.3229167 1.21268-1.984375 1.81901-1.984375zm-3.47265 15.1584206q0 2.3564454 1.65364 4.6302085 0.44098 0.3858507 0.82683 0.3858507h0.2756q0.79927 0 2.43913-4.6991104 1.63987-4.71289081 1.63987-7.0417755l0.11024-1.5434028q0-2.7560765-2.09462-4.575087-1.03353-0.4960937-1.59852-0.4960937-0.82683 0-2.42535 5.2365453-0.27561 0.7303603-0.66146 4.85069463z" style="font-feature-settings:normal;font-variant-caps:normal;font-variant-ligatures:normal;font-variant-numeric:normal"/>
    <path d="m-210.07922-11.352626h0.55121q2.86632 0 4.3546 5.1814237 0.16537 1.0610894 0.16537 1.9292535 0 2.9352215-2.37023 11.3550352-0.27561 0.2067057-0.27561 0.5512153-0.34451 0.4960937-0.71658 1.4882813-1.14377 1.653646-2.86632 1.653646-1.07487 0-2.59071-1.9292537-1.37804-1.5847439-1.37804-6.3940974 0-3.5691191 0.93707-7.276042 0.67524-2.7698568 0.88194-3.1419272 0.13781-0.068902 0.44098-1.3229167 1.21267-1.984375 1.81901-1.984375zm-3.47266 15.1584206q0 2.3564454 1.65365 4.6302085 0.44097 0.3858507 0.82682 0.3858507h0.27561q0.79926 0 2.43912-4.6991104 1.63987-4.71289081 1.63987-7.0417755l0.11024-1.5434028q0-2.7560765-2.09462-4.575087-1.03352-0.4960937-1.59852-0.4960937-0.82682 0-2.42535 5.2365453-0.27561 0.7303603-0.66146 4.85069463z" style="font-feature-settings:normal;font-variant-caps:normal;font-variant-ligatures:normal;font-variant-numeric:normal"/>
   </g>
   <g transform="translate(.54237363)" style="font-feature-settings:normal;font-variant-caps:normal;font-variant-ligatures:normal;font-variant-numeric:normal" aria-label="10">
    <path d="m-113.23784-10.594705q0.42719 0 0.82682 0.6614583l-0.38585 11.7408858 0.27561 6.7248267q-0.44097 1.6536462-0.93707 1.6536462-1.04731-0.4134118-1.04731-0.7717017 0-4.6577693 0.27561-16.2057298v-2.6458335q0-1.102431 0.49609-1.102431z" style="font-feature-settings:normal;font-variant-caps:normal;font-variant-ligatures:normal;font-variant-numeric:normal"/>
    <path d="m-105.47949-11.352626h0.55122q2.86632 0 4.3546 5.1814237 0.16536 1.0610894 0.16536 1.9292535 0 2.9352215-2.37022 11.3550352-0.27561 0.2067057-0.27561 0.5512153-0.34451 0.4960937-0.71658 1.4882813-1.14377 1.653646-2.86632 1.653646-1.07487 0-2.59071-1.9292537-1.37804-1.5847439-1.37804-6.3940974 0-3.5691191 0.93707-7.276042 0.67524-2.7698568 0.88194-3.1419272 0.13781-0.068902 0.44097-1.3229167 1.21268-1.984375 1.81901-1.984375zm-3.47265 15.1584206q0 2.3564454 1.65364 4.6302085 0.44097 0.3858507 0.82683 0.3858507h0.2756q0.79927 0 2.43913-4.6991104 1.63987-4.71289081 1.63987-7.0417755l0.11024-1.5434028q0-2.7560765-2.09462-4.575087-1.03353-0.4960937-1.59852-0.4960937-0.82683 0-2.42535 5.2365453-0.27561 0.7303603-0.66146 4.85069463z" style="font-feature-settings:normal;font-variant-caps:normal;font-variant-ligatures:normal;font-variant-numeric:normal"/>
   </g>
   <g transform="translate(.27118349)" style="font-feature-settings:normal;font-variant-caps:normal;font-variant-ligatures:normal;font-variant-numeric:normal" aria-label="100">
    <path d="m-171.35302-10.594705q0.4272 0 0.82683 0.6614583l-0.38585 11.7408858 0.2756 6.7248267q-0.44097 1.6536462-0.93706 1.6536462-1.04731-0.4134118-1.04731-0.7717017 0-4.6577693 0.27561-16.2057298v-2.6458335q0-1.102431 0.49609-1.102431z" style="font-feature-settings:normal;font-variant-caps:normal;font-variant-ligatures:normal;font-variant-numeric:normal"/>
    <path d="m-163.59466-11.352626h0.55122q2.86631 0 4.3546 5.1814237 0.16536 1.0610894 0.16536 1.9292535 0 2.9352215-2.37023 11.3550352-0.2756 0.2067057-0.2756 0.5512153-0.34451 0.4960937-0.71658 1.4882813-1.14377 1.653646-2.86632 1.653646-1.07487 0-2.59071-1.9292537-1.37804-1.5847439-1.37804-6.3940974 0-3.5691191 0.93706-7.276042 0.67524-2.7698568 0.88195-3.1419272 0.1378-0.068902 0.44097-1.3229167 1.21267-1.984375 1.81901-1.984375zm-3.47266 15.1584206q0 2.3564454 1.65365 4.6302085 0.44097 0.3858507 0.82682 0.3858507h0.27561q0.79926 0 2.43913-4.6991104 1.63986-4.71289081 1.63986-7.0417755l0.11025-1.5434028q0-2.7560765-2.09462-4.575087-1.03353-0.4960937-1.59853-0.4960937-0.82682 0-2.42534 5.2365453-0.27561 0.7303603-0.66146 4.85069463z" style="font-feature-settings:normal;font-variant-caps:normal;font-variant-ligatures:normal;font-variant-numeric:normal"/>
    <path d="m-151.96402-11.352626h0.55122q2.86632 0 4.3546 5.1814237 0.16536 1.0610894 0.16536 1.9292535 0 2.9352215-2.37022 11.3550352-0.27561 0.2067057-0.27561 0.5512153-0.34451 0.4960937-0.71658 1.4882813-1.14377 1.653646-2.86632 1.653646-1.07487 0-2.59071-1.9292537-1.37804-1.5847439-1.37804-6.3940974 0-3.5691191 0.93707-7.276042 0.67524-2.7698568 0.88194-3.1419272 0.13781-0.068902 0.44097-1.3229167 1.21268-1.984375 1.81901-1.984375zm-3.47265 15.1584206q0 2.3564454 1.65364 4.6302085 0.44097 0.3858507 0.82683 0.3858507h0.2756q0.79927 0 2.43913-4.6991104 1.63987-4.71289081 1.63987-7.0417755l0.11024-1.5434028q0-2.7560765-2.09462-4.575087-1.03353-0.4960937-1.59852-0.4960937-0.82683 0-2.42535 5.2365453-0.27561 0.7303603-0.66146 4.85069463z" style="font-feature-settings:normal;font-variant-caps:normal;font-variant-ligatures:normal;font-variant-numeric:normal"/>
   </g>
  </g>
  <g transform="translate(.81353557)" style="font-feature-settings:normal;font-variant-caps:normal;font-variant-ligatures:normal;font-variant-numeric:normal" aria-label="1">
   <path d="m-66.753276-10.663607q0.427192 0 0.826823 0.661458l-0.385851 11.7408861 0.275608 6.7248267q-0.440973 1.6536462-0.937066 1.6536462-1.047309-0.4134118-1.047309-0.7717018 0-4.6577692 0.275607-16.2057297v-2.6458335q0-1.102431 0.496094-1.102431z" fill="#fff" stroke-width=".26458335" style="font-feature-settings:normal;font-variant-caps:normal;font-variant-ligatures:normal;font-variant-numeric:normal"/>
  </g>
 </g>
 <g transform="translate(354.07426,49.806568)" fill="#00c853">
  <g transform="matrix(.03000113 0 0 .03000113 -196.3501 -7.9444576)">
   <g fill="#00c853">
    <g fill="#00c853">
     <path d="m477.549 182.379h-148.531v-148.532c0-18.69-15.154-33.844-33.844-33.844h-78.954c-18.69 0-33.844 15.153-33.844 33.844v148.526h-148.532c-18.691 0-33.844 15.153-33.844 33.843v78.966c0 18.691 15.153 33.844 33.844 33.844h148.532v148.527c0 18.689 15.153 33.842 33.844 33.842h78.96c18.691 0 33.844-15.152 33.844-33.842v-148.527h148.533c18.689 0 33.842-15.152 33.842-33.844v-78.966c-6e-3 -18.69-15.153-33.837-33.85-33.837z" fill="#00c853"/>
    </g>
   </g>
  </g>
  <g transform="matrix(.03000113 0 0 .03000113 -91.208009 -7.9444576)">
   <g fill="#00c853">
    <g fill="#00c853">
     <path d="m477.549 182.379h-148.531v-148.532c0-18.69-15.154-33.844-33.844-33.844h-78.954c-18.69 0-33.844 15.153-33.844 33.844v148.526h-148.532c-18.691 0-33.844 15.153-33.844 33.843v78.966c0 18.691 15.153 33.844 33.844 33.844h148.532v148.527c0 18.689 15.153 33.842 33.844 33.842h78.96c18.691 0 33.844-15.152 33.844-33.842v-148.527h148.533c18.689 0 33.842-15.152 33.842-33.844v-78.966c-6e-3 -18.69-15.153-33.837-33.85-33.837z" fill="#00c853"/>
    </g>
   </g>
  </g>
  <g transform="matrix(.03000113 0 0 .03000113 -137.96374 -7.9444576)">
   <g fill="#00c853">
    <g fill="#00c853">
     <path d="m477.549 182.379h-148.531v-148.532c0-18.69-15.154-33.844-33.844-33.844h-78.954c-18.69 0-33.844 15.153-33.844 33.844v148.526h-148.532c-18.691 0-33.844 15.153-33.844 33.843v78.966c0 18.691 15.153 33.844 33.844 33.844h148.532v148.527c0 18.689 15.153 33.842 33.844 33.842h78.96c18.691 0 33.844-15.152 33.844-33.842v-148.527h148.533c18.689 0 33.842-15.152 33.842-33.844v-78.966c-6e-3 -18.69-15.153-33.837-33.85-33.837z" fill="#00c853"/>
    </g>
   </g>
  </g>
 </g>
 <g transform="translate(366.53639,-54.985502)" fill="#2196f3">
  <rect x="-68.917122" y="99.185165" width="15.580043" height="4.4915442" ry="1.3334285"/>
  <rect x="-68.917122" y="105.36104" width="15.580043" height="4.4915442" ry="1.3334285"/>
 </g>
 <g fill="#86ffb8">
  <rect x="165.25003" y="42.70322" width="1.590927" height="3.957916" ry=".7954635"/>
  <rect x="270.38055" y="42.752254" width="1.590927" height="3.957916" ry=".7954635"/>
  <rect x="223.74849" y="42.70322" width="1.590927" height="3.957916" ry=".7954635"/>
 </g>
 <rect transform="rotate(90)" x="44.916443" y="-312.1376" width="1.983205" height="4.7424722" ry=".95314389" fill="#c1e2fc"/>
 <rect transform="rotate(90)" x="51.094822" y="-312.1376" width="1.983205" height="4.7424722" ry=".95314389" fill="#c1e2fc"/>
</svg>
