<?xml version="1.0" encoding="UTF-8" standalone="no"?>
<!-- Created with Inkscape (http://www.inkscape.org/) -->

<svg
   xmlns:dc="http://purl.org/dc/elements/1.1/"
   xmlns:cc="http://creativecommons.org/ns#"
   xmlns:rdf="http://www.w3.org/1999/02/22-rdf-syntax-ns#"
   xmlns:svg="http://www.w3.org/2000/svg"
   xmlns="http://www.w3.org/2000/svg"
   xmlns:sodipodi="http://sodipodi.sourceforge.net/DTD/sodipodi-0.dtd"
   xmlns:inkscape="http://www.inkscape.org/namespaces/inkscape"
   width="452.94138mm"
   height="218.28125mm"
   version="1.1"
   viewBox="0 0 452.94138 218.28126"
   id="svg6743"
   sodipodi:docname="NotacionDesEstandar.svg"
   inkscape:version="0.92.2 5c3e80d, 2017-08-06">
  <sodipodi:namedview
     pagecolor="#ffffff"
     bordercolor="#666666"
     borderopacity="1"
     objecttolerance="10"
     gridtolerance="10"
     guidetolerance="10"
     inkscape:pageopacity="0"
     inkscape:pageshadow="2"
     inkscape:window-width="1920"
     inkscape:window-height="1035"
     id="namedview6745"
     showgrid="false"
     fit-margin-top="0"
     fit-margin-left="0"
     fit-margin-right="0"
     fit-margin-bottom="0"
     inkscape:zoom="0.39953034"
     inkscape:cx="555.3609"
     inkscape:cy="314.07546"
     inkscape:window-x="0"
     inkscape:window-y="0"
     inkscape:window-maximized="0"
     inkscape:current-layer="svg6743" />
  <defs
     id="defs6435">
    <pattern
       id="pattern2268"
       width="707.99999"
       height="249.99998"
       patternTransform="matrix(.26458334 0 0 .26458334 253.21913 717.17254)"
       patternUnits="userSpaceOnUse">
      <path
         d="m0 0v32.734374l13.640579-32.734374zm29.974601 0 13.584 16.111332l12.413971-16.111332zm45.615193 0 7.876989 28.083968-21.093808-15.392579-24.515602 51.880855-5.132788-37.6289-32.724585 13.294942v44.57227l46.978506 44.187474 18.814488-77.539045 38.199196 50.742195-7.457086-102.20118zm42.236406 0 25.50388 33.214828 36.8183-33.214828zm100.07607 0 95.89651 61.152339-118.58588-42.75976-54.7324 78.107413-22.2364-46.749996 1.711 113.455064-47.890698-78.107411-22.234318 78.677741-37.6289-45.61134-12.201184 9.03908v80.64647l82.326197-45.78516 25.085893 68.98631 74.68751-155.646455 112.31637 104.333965 51.88089-91.790999 41.6191 20.525409 18.81453-96.921905 116.8769 66.134777 6.27148-59.292963 72.40622 17.103496 20.17776-35.496075h-119.92576l7.38667 40.626935-15.39258-18.24412-1.14059 16.533203-45.6113-26.794922 30.78709 7.412107-1.70899-15.3945448 22.23439 9.6933538 0.2657-13.832012h-176.99799l40.47069 36.636699-68.4141 86.089851-73.54688-47.890621 67.8438 17.103534 61.57421-51.882821-62.14261-17.673827 29.07621-1.140623-5.40042-21.242192zm416.95509 0 10.75782 112.4629-93.50192-57.582044 18.81441 75.257804-152.22458-48.462882-8.55081 90.652342-46.75188-35.34962-72.4063 91.22071-85.51952-72.40626s-63.25531 67.36747-91.2031 94.20703h74.832c-2.0516-14.3913-7.70498-39.45902-6.43359-37.76368 1.71039 2.28053 39.33789 18.24416 39.33789 18.24416l2.85162-21.09377 37.84569 40.61329h89.83589c4.58861-27.93947 13.14059-80.52344 13.14059-80.52344l7.41211 37.62891 21.0938-19.38475-34.94728 62.27928h44.5059l37.19327-62.27928 54.1621 41.61914 3.99031-89.50976s47.89089 87.22953 49.03121 84.3789c1.14017-2.85067 54.73247-69.55468 54.73247-69.55468l17.1035 64.99411 75.82813-26.79685-24.26763 57.14842h36.48053v-137.95506l-23.04492 54.01172 0.5703-36.48828-45.61142 43.89842 48.46103-90.080085-18.2442 1.710954 37.86921-59.509757v-25.587892zm73.14263 64.787111-6.51171 35.703119 6.51171-6.511712zm-641.06641 130.915989-45.841776 54.29688h76.068282c-8.989303-18.76664-30.226506-54.29688-30.226506-54.29688zm515.96681 27.93555-19.5391 26.36133h22.34377zm-132.2696 3.42187-31.50391 22.93946h53.43561zm205.81637 5.13086-26.82607 17.8086h28.44529zm-137.97067 2.84961-6.21672 14.95899h17.72262z"
         fill="#00e760"
         id="path6432" />
    </pattern>
  </defs>
  <metadata
     id="metadata6437">
    <rdf:RDF>
      <cc:Work
         rdf:about="">
        <dc:format>image/svg+xml</dc:format>
        <dc:type
           rdf:resource="http://purl.org/dc/dcmitype/StillImage" />
        <dc:title></dc:title>
      </cc:Work>
    </rdf:RDF>
  </metadata>
  <polygon
     transform="matrix(3.4969519,0,0,3.4969519,454.53799,432.75581)"
     points=""
     id="polygon6439"
     style="fill:#f9eab0" />
  <polygon
     transform="matrix(3.4969519,0,0,3.4969519,1042.6954,575.90132)"
     points=""
     id="polygon6441"
     style="fill:#f9eab0" />
  <g
     id="g13368">
    <rect
       y="-3.5888672e-07"
       x="5.1217259e-05"
       height="218.28127"
       width="452.94128"
       id="rect7290"
       style="opacity:0;fill:#2196f3;fill-opacity:1;stroke:none;stroke-width:0.35775721;stroke-linecap:round;stroke-miterlimit:4;stroke-dasharray:none;stroke-opacity:1" />
    <path
       style="fill:#ffffff;stroke:#ef5350;stroke-width:1.32291675;stroke-linecap:round;stroke-opacity:1"
       inkscape:connector-curvature="0"
       d="M 111.13504,69.18302 21.686278,45.2153 l 6.25914,42.76465 -26.80291,33.90571 89.44876,23.96772 z"
       id="path6443" />
    <path
       style="fill:#ffffff;stroke:#ef5350;stroke-width:1.32291675;stroke-linecap:round;stroke-opacity:1"
       inkscape:connector-curvature="0"
       d="m 341.80635,69.18302 89.44876,-23.96772 -6.25914,42.76465 26.80291,33.90571 -89.44876,23.96772 z"
       id="path6445" />
    <path
       style="fill:#ef5350;fill-opacity:1;stroke:#00c853;stroke-width:1.32291675;stroke-linecap:round"
       inkscape:connector-curvature="0"
       d="m 391.83528,79.18435 -50.02892,-10.00133 20.54376,76.67037 29.48516,12.70596 z"
       id="path6447" />
    <path
       style="fill:#ef5350;fill-opacity:1;stroke:#ef5350;stroke-width:1.32291675;stroke-linecap:round;stroke-opacity:1"
       inkscape:connector-curvature="0"
       d="m 391.83528,79.18435 -50.02892,-10.00133 20.54376,76.67037 29.48516,12.70596 z"
       id="path6449" />
    <path
       style="fill:#ef5350;fill-opacity:1;stroke:#00c853;stroke-width:1.32291675;stroke-linecap:round"
       inkscape:connector-curvature="0"
       d="M 61.106108,79.18435 111.13503,69.18302 90.591268,145.85339 61.106108,158.55935 Z"
       id="path6451" />
    <path
       style="fill:#ef5350;fill-opacity:1;stroke:#ef5350;stroke-width:1.32291675;stroke-linecap:round;stroke-opacity:1"
       inkscape:connector-curvature="0"
       d="M 61.106108,79.18435 111.13503,69.18302 90.591268,145.85339 61.106108,158.55935 Z"
       id="path6453" />
    <path
       style="fill:#ffffff;stroke:#ef5350;stroke-width:1.32291675;stroke-linecap:round;stroke-opacity:1"
       inkscape:connector-curvature="0"
       d="m 61.106108,79.18435 c 0,0 94.177372,18.67002 165.364592,18.67002 71.18722,0 165.36458,-18.67002 165.36458,-18.67002 v 79.375 c 0,0 -92.48624,18.67002 -165.36458,18.67002 -72.87834,0 -165.364592,-18.67002 -165.364592,-18.67002 z"
       id="path6455" />
    <g
       transform="translate(-60.855622,-393.535)"
       id="g6477"
       aria-label="Ejercicio"
       style="fill:#ffffff;stroke-width:0.26458335">
      <path
         id="path6459"
         style="font-variant-ligatures:normal;font-variant-caps:normal;font-variant-numeric:normal;font-feature-settings:normal"
         d="m 247.25634,585.53019 h 2.13596 q 2.41157,0 2.82498,0.89573 0.20671,0.25838 0.20671,0.62011 h 0.0689 q 0,0.89573 -2.34267,0.89573 -3.03168,0.17225 -3.03168,0.48231 -0.75792,3.03169 -0.75792,7.1658 0,1.10243 0.89572,1.10243 h 0.62012 l 2.61827,-0.0689 q 1.01631,0 1.72255,0.96463 v 0.2067 q 0,0.60289 -4.75423,1.44694 -1.10243,0.46509 -1.10243,0.75792 v 2.75608 l 0.0689,0.75792 -0.1378,0.41341 q 0.24115,0 0.41341,3.4451 0.25838,1.24023 1.24023,1.24023 l 4.27192,0.34451 q 0.46509,0.29283 0.96463,0.89573 -0.7407,1.03352 -2.75608,1.03352 l -0.0689,0.0689 q -5.09874,-0.13781 -5.09874,-0.82683 -0.34451,-0.1378 -0.55122,-0.89572 l 0.0689,-2.82498 v -0.34451 l -0.20671,-9.64627 V 593.385 q 0,-6.66626 1.65365,-7.57921 0.39618,-0.27561 1.03352,-0.27561 z"
         inkscape:connector-curvature="0" />
      <path
         id="path6461"
         style="font-variant-ligatures:normal;font-variant-caps:normal;font-variant-numeric:normal;font-feature-settings:normal"
         d="m 263.29326,583.53204 q 1.03353,0 1.03353,1.17133 l 0.0689,0.82682 q -0.43063,0 -0.49953,10.30084 -0.0517,10.30083 -1.49862,12.36789 -1.22301,2.75608 -2.96278,2.75608 h -0.27561 q -2.72163,0 -4.47862,-1.99816 l -0.55122,-2.20486 v -0.27561 q 0.55122,-1.72255 1.24023,-1.72255 h 0.20671 q 0.39619,0 0.75792,2.34267 0.49954,1.17133 2.48047,1.17133 h 0.68902 q 0.18948,-0.0344 0.75792,-1.17133 0.53399,-0.25838 0.96463,-1.79145 0.1378,0 0.1378,-0.20671 0.34451,-3.03168 0.44786,-12.05783 0.10336,-9.02615 0.86128,-9.02615 0.34451,-0.48231 0.62011,-0.48231 z"
         inkscape:connector-curvature="0" />
      <path
         id="path6463"
         style="font-variant-ligatures:normal;font-variant-caps:normal;font-variant-numeric:normal;font-feature-settings:normal"
         d="m 269.97675,584.58279 q 1.51584,0 3.5829,1.65365 0.34451,0.62011 0.34451,1.24023 0,3.08336 -1.99816,4.27192 -2.29099,0.68902 -3.7896,0.68902 -0.34451,0.36173 -0.34451,1.10243 v 1.17133 q 0,3.73793 0.96462,8.40603 0,2.51492 1.92926,4.89204 0.60289,0.48231 0.89572,0.48231 h 0.48232 q 0.68902,-0.25838 1.72254,-0.89572 l 0.41342,-0.0689 q 0.49953,0 0.75792,0.82682 0,1.55029 -2.41157,3.10059 l -1.10243,0.2067 q -0.98185,0 -3.4451,-2.68717 -1.30913,-2.04984 -1.30913,-4.96094 -0.89573,-4.37527 -1.03353,-11.16211 0,-2.75608 1.92925,-6.89019 1.6192,-1.37804 2.41157,-1.37804 z m -1.58475,5.51215 0.34451,0.20671 q 2.17041,0 2.89388,-1.17133 0.20671,-0.36174 0.20671,-0.68902 v -0.27561 q 0,-1.03353 -1.30914,-1.03353 -1.8259,0 -2.13596,2.89388 z"
         inkscape:connector-curvature="0" />
      <path
         id="path6465"
         style="font-variant-ligatures:normal;font-variant-caps:normal;font-variant-numeric:normal;font-feature-settings:normal"
         d="m 283.22314,589.00974 q 1.65365,0.56844 2.27376,1.79145 l 0.0689,0.34451 q -0.24116,1.30913 -1.10243,1.30913 -0.51677,0 -1.79145,-1.17133 h -0.55122 q -1.56752,0 -3.04891,1.60197 -1.48139,1.60197 -0.43064,9.74962 1.06798,8.14765 -0.15503,7.51031 l -1.24023,0.0344 q -0.67179,-0.32728 -0.82682,-8.21655 -0.13781,-7.9065 -0.46509,-12.23009 0,-1.10243 1.44694,-1.10243 0.89572,0 0.89572,0.82682 l -0.0689,1.03353 q 0.13781,0.31006 0.27561,0.34451 h 0.27561 q 1.58474,-1.8259 4.44417,-1.8259 z"
         inkscape:connector-curvature="0" />
      <path
         id="path6467"
         style="font-variant-ligatures:normal;font-variant-caps:normal;font-variant-numeric:normal;font-feature-settings:normal"
         d="m 294.09242,584.77227 q 3.16949,0 3.16949,1.58474 v 0.0689 q 0,0.68902 -1.10243,0.96462 l -2.68718,-0.1378 q -1.27468,0 -1.99815,1.72255 -0.72347,0.43063 -1.86036,4.20301 -0.68902,2.5666 -0.68902,4.75424 v 0.55121 q 0,1.99816 1.10244,6.20117 0,1.6192 2.48046,3.5829 0.63735,0.34451 1.03353,0.34451 h 0.55122 q 0.36173,0 1.37804,-0.62012 l 0.34451,-0.0689 q 0.89572,0.34451 0.89572,1.30914 v 0.0689 q -0.72347,1.92925 -3.514,1.92925 -0.96462,0 -3.44509,-2.06705 -0.89573,-0.96463 -1.10243,-1.86035 -1.92926,-5.80499 -1.92926,-8.81945 0,-4.30637 1.79145,-9.30176 1.25746,-2.46324 2.48047,-3.51399 1.37804,-0.89573 3.10059,-0.89573 z"
         inkscape:connector-curvature="0" />
      <path
         id="path6469"
         style="font-variant-ligatures:normal;font-variant-caps:normal;font-variant-numeric:normal;font-feature-settings:normal"
         d="m 300.06966,584.03157 q 0.75792,0 1.17133,1.37804 -0.34451,1.24024 -1.37804,1.24024 h -0.2067 q -0.75792,0 -0.96463,-1.17133 0,-0.89573 1.30914,-1.44695 z m 0.24116,5.09875 q 0.75792,0 0.75792,3.16948 l 0.0689,3.3762 q -0.17226,14.64165 -0.48231,14.64165 -0.75792,0.82683 -1.37804,0.82683 -0.75792,0 -1.03353,-1.92926 l 0.0689,-0.0689 v -0.0689 l 0.68902,-6.27007 0.1378,-6.75239 -0.2067,-5.13319 q 0.24115,-1.79145 1.37804,-1.79145 z"
         inkscape:connector-curvature="0" />
      <path
         id="path6471"
         style="font-variant-ligatures:normal;font-variant-caps:normal;font-variant-numeric:normal;font-feature-settings:normal"
         d="m 310.14656,584.77227 q 3.16949,0 3.16949,1.58474 v 0.0689 q 0,0.68902 -1.10243,0.96462 l -2.68717,-0.1378 q -1.27469,0 -1.99816,1.72255 -0.72347,0.43063 -1.86035,4.20301 -0.68902,2.5666 -0.68902,4.75424 v 0.55121 q 0,1.99816 1.10243,6.20117 0,1.6192 2.48047,3.5829 0.63734,0.34451 1.03353,0.34451 h 0.55121 q 0.36174,0 1.37804,-0.62012 l 0.34451,-0.0689 q 0.89573,0.34451 0.89573,1.30914 v 0.0689 q -0.72347,1.92925 -3.514,1.92925 -0.96463,0 -3.4451,-2.06705 -0.89572,-0.96463 -1.10243,-1.86035 -1.92925,-5.80499 -1.92925,-8.81945 0,-4.30637 1.79145,-9.30176 1.25746,-2.46324 2.48047,-3.51399 1.37804,-0.89573 3.10058,-0.89573 z"
         inkscape:connector-curvature="0" />
      <path
         id="path6473"
         style="font-variant-ligatures:normal;font-variant-caps:normal;font-variant-numeric:normal;font-feature-settings:normal"
         d="m 316.12381,584.03157 q 0.75792,0 1.17133,1.37804 -0.34451,1.24024 -1.37804,1.24024 h -0.20671 q -0.75792,0 -0.96462,-1.17133 0,-0.89573 1.30913,-1.44695 z m 0.24115,5.09875 q 0.75792,0 0.75792,3.16948 l 0.0689,3.3762 q -0.17226,14.64165 -0.48232,14.64165 -0.75792,0.82683 -1.37804,0.82683 -0.75792,0 -1.03353,-1.92926 l 0.0689,-0.0689 v -0.0689 l 0.68902,-6.27007 0.1378,-6.75239 -0.20671,-5.13319 q 0.24116,-1.79145 1.37804,-1.79145 z"
         inkscape:connector-curvature="0" />
      <path
         id="path6475"
         style="font-variant-ligatures:normal;font-variant-caps:normal;font-variant-numeric:normal;font-feature-settings:normal"
         d="m 325.44278,588.52742 q 2.89389,0.56845 2.89389,1.92926 3.01445,4.49585 0.82682,14.81391 -1.37804,3.60012 -2.48047,4.61643 -1.53307,1.92925 -3.03168,1.92925 -2.32544,0 -3.5829,-3.03168 l -1.17134,-5.78776 v -1.03353 q 0,-3.47955 1.17134,-8.47494 0.18948,-0.27561 0.34451,-1.24023 1.61919,-3.5829 3.10058,-3.5829 z m -1.30913,2.54938 h -0.13781 q -0.80959,0 -1.10243,1.30913 -1.44694,2.65273 -1.44694,5.51215 -0.2067,0.51677 -0.2067,1.79145 v 2.34267 q 0,3.04891 1.10243,6.27007 0.51676,1.03353 1.03353,1.03353 0.82682,0 2.34266,-1.99815 0.44786,0 1.44694,-2.13596 0.41341,-1.49862 0.82683,-5.71886 0,-4.15134 -1.10244,-6.68349 -0.55121,-1.49861 -0.89572,-1.79145 z"
         inkscape:connector-curvature="0" />
    </g>
    <path
       id="path6479"
       d="m 291.52802,212.40854 c -1.29147,1.29147 -5.11475,-2.6319 -6.91868,-2.34619 -1.80393,0.28572 -4.22769,5.19852 -5.85504,4.36935 -1.62734,-0.82918 0.92255,-5.67772 0.0934,-7.30506 -0.82918,-1.62735 -6.25052,-2.41434 -5.96481,-4.21827 0.28572,-1.80393 5.68491,-0.87712 6.97638,-2.16859 1.29147,-1.29147 0.36466,-6.69067 2.16859,-6.97638 1.80393,-0.28572 2.59092,5.13563 4.21827,5.9648 1.62735,0.82918 6.47589,-1.72072 7.30506,-0.0934 0.82918,1.62735 -4.08363,4.05111 -4.36934,5.85504 -0.28572,1.80393 3.63766,5.6272 2.34619,6.91867 z"
       inkscape:connector-curvature="0"
       style="fill:#ef5350;fill-opacity:1" />
    <path
       id="path6481"
       d="m 161.41336,212.40854 c 1.29147,1.29147 5.11475,-2.6319 6.91868,-2.34619 1.80393,0.28572 4.22769,5.19852 5.85503,4.36935 1.62735,-0.82918 -0.92254,-5.67772 -0.0934,-7.30506 0.82918,-1.62735 6.25052,-2.41434 5.96481,-4.21827 -0.28572,-1.80393 -5.68492,-0.87712 -6.97639,-2.16859 -1.29147,-1.29147 -0.36465,-6.69067 -2.16858,-6.97638 -1.80393,-0.28572 -2.59092,5.13563 -4.21827,5.9648 -1.62735,0.82918 -6.47589,-1.72072 -7.30507,-0.0934 -0.82917,1.62735 4.08364,4.05111 4.36935,5.85504 0.28572,1.80393 -3.63766,5.6272 -2.34619,6.91867 z"
       inkscape:connector-curvature="0"
       style="fill:#ef5350;fill-opacity:1" />
    <g
       aria-label="a estándar"
       transform="matrix(1.3144805,-0.18812069,0.18812069,1.3144805,46.84912,-39.740668)"
       style="font-style:normal;font-variant:normal;font-weight:normal;font-stretch:normal;font-size:21.16666794px;line-height:1.25;font-family:'SC Gum Kids';-inkscape-font-specification:'SC Gum Kids, Normal';font-variant-ligatures:normal;font-variant-caps:normal;font-variant-numeric:normal;font-feature-settings:normal;text-align:start;letter-spacing:0px;word-spacing:0px;writing-mode:lr-tb;text-anchor:start;fill:#ef5350;fill-opacity:1;stroke:none;stroke-width:0.26458335"
       id="text5164">
      <path
         inkscape:connector-curvature="0"
         d="m 66.088925,157.06704 q -0.331955,-0.12632 -0.520496,-0.32679 -0.17845,-0.19823 -0.160698,-0.37425 0.03007,-0.18388 0.254219,-0.24016 0.256651,-0.0597 0.693984,0.0688 0.306142,0.0994 0.454318,0.29099 0.127992,0.18708 0.07773,0.36649 -0.05249,0.18951 -0.256451,0.25026 -0.218516,0.0787 -0.54261,-0.0353 z m 4.334958,-6.44032 q -2.541331,-1.04885 -4.488694,-1.19366 -0.979843,-0.0685 -1.444919,0.0721 l -0.06405,3.06606 q 1.199425,-0.0629 2.444079,0.24406 2.489308,0.61395 2.686342,2.4993 -0.823641,-0.77488 -1.980002,-1.33755 -2.332906,-1.12978 -4.049197,-0.0697 -1.018345,0.6322 -1.447784,1.61691 -0.427208,0.97461 -0.128026,1.91932 0.316067,1.01195 1.339107,1.65098 1.145304,0.7084 2.955849,0.80179 1.478691,0.0623 2.578534,-0.89055 l -0.439331,1.17305 3.441207,0.76093 q 1.08419,-1.9831 1.450616,-4.26252 0.324128,-1.99239 -0.214353,-3.43458 -0.661044,-1.79742 -2.639381,-2.61594 z"
         style="font-style:normal;font-variant:normal;font-weight:normal;font-stretch:normal;font-size:21.16666794px;font-family:'SC Gum Kids';-inkscape-font-specification:'SC Gum Kids, Normal';font-variant-ligatures:normal;font-variant-caps:normal;font-variant-numeric:normal;font-feature-settings:normal;text-align:start;writing-mode:lr-tb;text-anchor:start;fill:#ef5350;fill-opacity:1;stroke-width:0.26458335"
         id="path5262" />
      <path
         inkscape:connector-curvature="0"
         d="m 84.787043,155.47884 q 0.924413,0.003 1.248357,0.52484 0.160096,0.2713 0.133495,0.52914 l -2.792922,-0.24257 q -0.005,-0.20061 0.160144,-0.41184 0.336677,-0.40027 1.250926,-0.39957 z m -1.20695,4.20183 q -0.474061,-0.39235 -0.571435,-0.94635 -0.05471,-0.27285 -0.007,-0.47424 l 6.969809,0.44644 q 0.01965,-1.41523 -0.676996,-2.87867 -1.411738,-2.94081 -5.051199,-3.26615 -2.078508,-0.18418 -3.536049,1.04956 -1.317586,1.10195 -1.770234,2.98373 -0.451549,1.81893 0.100288,3.49736 0.59217,1.80149 2.102256,2.61641 2.615835,1.42902 5.431196,0.58268 1.412762,-0.42223 2.288284,-1.12236 l -1.764665,-2.68017 q -0.552763,0.31831 -1.269697,0.5012 -1.42558,0.37783 -2.244556,-0.30944 z"
         style="font-style:normal;font-variant:normal;font-weight:normal;font-stretch:normal;font-size:21.16666794px;font-family:'SC Gum Kids';-inkscape-font-specification:'SC Gum Kids, Normal';font-variant-ligatures:normal;font-variant-caps:normal;font-variant-numeric:normal;font-feature-settings:normal;text-align:start;writing-mode:lr-tb;text-anchor:start;fill:#ef5350;fill-opacity:1;stroke-width:0.26458335"
         id="path5264" />
      <path
         inkscape:connector-curvature="0"
         d="m 91.456654,160.24832 q 0.869641,0.56457 1.560943,1.00502 1.886973,1.37389 2.356088,1.0751 0.178509,-0.1902 0.102141,-0.36016 -0.07637,-0.16995 -0.923952,-0.67844 -0.835684,-0.51698 -1.936406,-1.07828 -1.100723,-0.56129 -1.377185,-1.47726 -0.261189,-0.88198 0.226914,-1.73298 0.530615,-0.91723 1.665835,-1.31421 1.311956,-0.45126 3.066918,-0.0425 1.48314,0.34232 2.872561,1.18243 0.638594,0.50498 0.973079,0.94862 l -1.62192,1.80359 q -0.526463,-0.48623 -1.058141,-0.75328 -1.722372,-0.97961 -1.943631,-0.28309 -0.04258,0.19197 0.258016,0.46229 0.312496,0.26183 1.382671,0.75515 1.082072,0.48483 1.72919,0.93884 0.963022,0.69545 0.99637,1.87466 0.04013,1.20129 -1.122631,2.26431 -1.195016,1.00523 -3.653414,0.60462 -2.144096,-0.33758 -5.491847,-2.56352 z"
         style="font-style:normal;font-variant:normal;font-weight:normal;font-stretch:normal;font-size:21.16666794px;font-family:'SC Gum Kids';-inkscape-font-specification:'SC Gum Kids, Normal';font-variant-ligatures:normal;font-variant-caps:normal;font-variant-numeric:normal;font-feature-settings:normal;text-align:start;writing-mode:lr-tb;text-anchor:start;fill:#ef5350;fill-opacity:1;stroke-width:0.26458335"
         id="path5266" />
      <path
         inkscape:connector-curvature="0"
         d="m 105.00079,152.29749 -0.60628,3.28441 -2.7249,-0.57309 -0.68489,3.25149 2.79954,0.56358 -1.31896,7.74445 3.4456,0.71455 1.29456,-7.79 2.66345,0.42778 0.57563,-3.2891 -2.64855,-0.45687 0.55689,-3.16648 z"
         style="font-style:normal;font-variant:normal;font-weight:normal;font-stretch:normal;font-size:21.16666794px;font-family:'SC Gum Kids';-inkscape-font-specification:'SC Gum Kids, Normal';font-variant-ligatures:normal;font-variant-caps:normal;font-variant-numeric:normal;font-feature-settings:normal;text-align:start;writing-mode:lr-tb;text-anchor:start;fill:#ef5350;fill-opacity:1;stroke-width:0.26458335"
         id="path5268" />
      <path
         inkscape:connector-curvature="0"
         d="m 113.92366,165.51087 q -0.341,-0.0994 -0.54497,-0.2841 -0.19374,-0.18332 -0.19013,-0.36019 0.0153,-0.1857 0.23419,-0.25974 0.25105,-0.08 0.69726,0.013 0.31312,0.0746 0.47614,0.25371 0.14255,0.17623 0.10681,0.35909 -0.0372,0.1931 -0.2356,0.26998 -0.21152,0.0959 -0.5437,0.008 z m 3.80576,-6.76652 q -2.61711,-0.84215 -4.56981,-0.83069 -0.98219,0.0102 -1.43452,0.18752 l 0.18148,3.06135 q 1.19055,-0.15868 2.45577,0.0477 2.53045,0.4128 2.87771,2.27634 -0.883,-0.70649 -2.08068,-1.17483 -2.41582,-0.9395 -4.04179,0.25447 -0.9645,0.71166 -1.31377,1.72757 -0.34786,1.00567 0.0259,1.92341 0.39603,0.98341 1.46692,1.53854 1.19831,0.61449 3.01052,0.56271 1.47894,-0.0562 2.49901,-1.09401 l -0.34406,1.20444 3.49106,0.48315 q 0.92204,-2.06349 1.10491,-4.36492 0.16367,-2.01194 -0.48848,-3.40642 -0.80274,-1.73876 -2.84022,-2.39636 z m 0.67991,-5.28974 -3.72174,2.91764 0.80443,1.12341 4.20391,-1.95361 z"
         style="font-style:normal;font-variant:normal;font-weight:normal;font-stretch:normal;font-size:21.16666794px;font-family:'SC Gum Kids';-inkscape-font-specification:'SC Gum Kids, Normal';font-variant-ligatures:normal;font-variant-caps:normal;font-variant-numeric:normal;font-feature-settings:normal;text-align:start;writing-mode:lr-tb;text-anchor:start;fill:#ef5350;fill-opacity:1;stroke-width:0.26458335"
         id="path5270" />
      <path
         inkscape:connector-curvature="0"
         d="m 128.8075,159.11164 q -1.88377,-0.43064 -3.31596,0.28798 l 0.1067,-0.69496 -3.20937,-0.4903 -1.62151,11.01539 3.85673,0.47658 0.5304,-3.87091 q 0.27985,-3.36035 1.98117,-3.22302 1.25773,0.10335 1.02167,3.6149 -0.10149,1.6641 -0.57466,3.3864 l 3.99919,0.5879 q 0.6194,-2.56859 0.57346,-5.14649 -0.0225,-2.34592 -0.69632,-3.80381 -0.84737,-1.823 -2.6515,-2.13966 z"
         style="font-style:normal;font-variant:normal;font-weight:normal;font-stretch:normal;font-size:21.16666794px;font-family:'SC Gum Kids';-inkscape-font-specification:'SC Gum Kids, Normal';font-variant-ligatures:normal;font-variant-caps:normal;font-variant-numeric:normal;font-feature-settings:normal;text-align:start;writing-mode:lr-tb;text-anchor:start;fill:#ef5350;fill-opacity:1;stroke-width:0.26458335"
         id="path5272" />
      <path
         inkscape:connector-curvature="0"
         d="m 138.42226,167.10867 q -0.49519,0.0606 -0.86556,-0.16675 -0.31094,-0.2001 -0.37218,-0.49784 -0.0384,-0.31606 0.24185,-0.50394 0.3339,-0.20285 0.98345,-0.15312 0.29798,0.0324 0.54839,0.21549 0.2493,0.1934 0.30695,0.42838 0.0668,0.24636 -0.13017,0.43289 -0.2095,0.20597 -0.71273,0.24489 z m -3.59335,-4.72532 q -1.13507,0.68765 -1.80031,2.12284 -0.44165,1.3867 -0.11381,2.86734 0.53469,1.58628 1.58149,2.57321 1.18976,1.10641 2.94295,1.14083 1.40966,0.0387 2.19943,-0.43692 0.78976,-0.47563 1.03319,-0.80267 l -0.17404,1.60289 3.76912,0.61717 1.39916,-13.74757 -4.1379,-0.66762 -0.56564,5.20937 q -0.75593,-0.60188 -1.90161,-0.96539 -2.29247,-0.71674 -4.23203,0.48652 z"
         style="font-style:normal;font-variant:normal;font-weight:normal;font-stretch:normal;font-size:21.16666794px;font-family:'SC Gum Kids';-inkscape-font-specification:'SC Gum Kids, Normal';font-variant-ligatures:normal;font-variant-caps:normal;font-variant-numeric:normal;font-feature-settings:normal;text-align:start;writing-mode:lr-tb;text-anchor:start;fill:#ef5350;fill-opacity:1;stroke-width:0.26458335"
         id="path5274" />
      <path
         inkscape:connector-curvature="0"
         d="m 149.44905,169.67961 q -0.34504,-0.0842 -0.55696,-0.2598 -0.20164,-0.1746 -0.20583,-0.35146 0.007,-0.18619 0.22251,-0.26981 0.24729,-0.091 0.69716,-0.0177 0.31611,0.0608 0.48687,0.23246 0.15018,0.16978 0.12253,0.35404 -0.0286,0.19455 -0.22347,0.2801 -0.20708,0.10516 -0.54281,0.0322 z m 3.50376,-6.92772 q -2.65168,-0.72596 -4.60198,-0.62842 -0.98078,0.0534 -1.42486,0.25057 l 0.31626,3.05038 q 1.1824,-0.21101 2.45549,-0.0606 2.54619,0.30086 2.97526,2.14728 -0.91329,-0.66689 -2.13044,-1.08197 -2.4549,-0.83208 -4.02665,0.4324 -0.93219,0.75348 -1.23634,1.7838 -0.30318,1.02003 0.11072,1.9204 0.43899,0.965 1.53332,1.47238 1.22423,0.56107 3.0324,0.42945 1.47503,-0.12131 2.44835,-1.20311 l -0.29063,1.21843 3.50897,0.32878 q 0.83017,-2.10213 0.91141,-4.40938 0.0748,-2.0172 -0.63817,-3.38157 -0.87861,-1.70169 -2.94311,-2.26883 z"
         style="font-style:normal;font-variant:normal;font-weight:normal;font-stretch:normal;font-size:21.16666794px;font-family:'SC Gum Kids';-inkscape-font-specification:'SC Gum Kids, Normal';font-variant-ligatures:normal;font-variant-caps:normal;font-variant-numeric:normal;font-feature-settings:normal;text-align:start;writing-mode:lr-tb;text-anchor:start;fill:#ef5350;fill-opacity:1;stroke-width:0.26458335"
         id="path5276" />
      <path
         inkscape:connector-curvature="0"
         d="m 160.73801,162.4643 -3.30305,-0.18668 -0.60524,10.58988 3.38231,0.35906 0.22179,-4.36827 q 0.63235,-2.15711 2.67364,-2.51933 1.02106,-0.18626 1.91325,0.0629 l 0.30378,-3.59421 q -2.90048,-0.16419 -4.65123,0.95799 z"
         style="font-style:normal;font-variant:normal;font-weight:normal;font-stretch:normal;font-size:21.16666794px;font-family:'SC Gum Kids';-inkscape-font-specification:'SC Gum Kids, Normal';font-variant-ligatures:normal;font-variant-caps:normal;font-variant-numeric:normal;font-feature-settings:normal;text-align:start;writing-mode:lr-tb;text-anchor:start;fill:#ef5350;fill-opacity:1;stroke-width:0.26458335"
         id="path5278" />
    </g>
    <g
       transform="translate(354.14382,44.464016)"
       id="g10554">
      <g
         aria-label="1000"
         style="font-style:normal;font-variant:normal;font-weight:normal;font-stretch:normal;font-size:28.22222328px;line-height:1.25;font-family:'king cooL KC';-inkscape-font-specification:'king cooL KC, Normal';font-variant-ligatures:normal;font-variant-caps:normal;font-variant-numeric:normal;font-feature-settings:normal;text-align:start;letter-spacing:0px;word-spacing:0px;writing-mode:lr-tb;text-anchor:start;fill:#ffffff;fill-opacity:1;stroke:none;stroke-width:0.26458335"
         id="text5283"
         transform="translate(3.7736453e-6)">
        <path
           inkscape:connector-curvature="0"
           d="m -241.09886,-10.594705 q 0.42719,0 0.82682,0.6614583 l -0.38585,11.7408858 0.2756,6.7248267 q -0.44097,1.6536462 -0.93706,1.6536462 -1.04731,-0.4134118 -1.04731,-0.7717017 0,-4.6577693 0.27561,-16.2057298 V -9.437153 q 0,-1.102431 0.49609,-1.102431 z"
           style="font-style:normal;font-variant:normal;font-weight:normal;font-stretch:normal;font-size:28.22222328px;font-family:'king cooL KC';-inkscape-font-specification:'king cooL KC, Normal';font-variant-ligatures:normal;font-variant-caps:normal;font-variant-numeric:normal;font-feature-settings:normal;text-align:start;writing-mode:lr-tb;text-anchor:start;fill:#ffffff;stroke-width:0.26458335"
           id="path10315" />
        <path
           inkscape:connector-curvature="0"
           d="m -233.34051,-11.352626 h 0.55122 q 2.86632,0 4.3546,5.1814237 0.16536,1.0610894 0.16536,1.9292535 0,2.9352215 -2.37022,11.3550352 -0.27561,0.2067057 -0.27561,0.5512153 -0.34451,0.4960937 -0.71658,1.4882813 -1.14377,1.653646 -2.86632,1.653646 -1.07487,0 -2.59071,-1.9292537 -1.37804,-1.5847439 -1.37804,-6.3940974 0,-3.5691191 0.93706,-7.276042 0.67524,-2.7698568 0.88195,-3.1419272 0.1378,-0.068902 0.44097,-1.3229167 1.21267,-1.984375 1.81901,-1.984375 z m -3.47266,15.1584206 q 0,2.3564454 1.65365,4.6302085 0.44097,0.3858507 0.82682,0.3858507 h 0.27561 q 0.79926,0 2.43913,-4.6991104 1.63986,-4.71289081 1.63986,-7.0417755 l 0.11025,-1.5434028 q 0,-2.7560765 -2.09462,-4.575087 -1.03353,-0.4960937 -1.59853,-0.4960937 -0.82682,0 -2.42534,5.2365453 -0.27561,0.7303603 -0.66146,4.85069463 z"
           style="font-style:normal;font-variant:normal;font-weight:normal;font-stretch:normal;font-size:28.22222328px;font-family:'king cooL KC';-inkscape-font-specification:'king cooL KC, Normal';font-variant-ligatures:normal;font-variant-caps:normal;font-variant-numeric:normal;font-feature-settings:normal;text-align:start;writing-mode:lr-tb;text-anchor:start;fill:#ffffff;stroke-width:0.26458335"
           id="path10317" />
        <path
           inkscape:connector-curvature="0"
           d="m -221.70987,-11.352626 h 0.55122 q 2.86632,0 4.3546,5.1814237 0.16536,1.0610894 0.16536,1.9292535 0,2.9352215 -2.37022,11.3550352 -0.27561,0.2067057 -0.27561,0.5512153 -0.34451,0.4960937 -0.71658,1.4882813 -1.14377,1.653646 -2.86632,1.653646 -1.07487,0 -2.59071,-1.9292537 -1.37804,-1.5847439 -1.37804,-6.3940974 0,-3.5691191 0.93707,-7.276042 0.67524,-2.7698568 0.88194,-3.1419272 0.13781,-0.068902 0.44097,-1.3229167 1.21268,-1.984375 1.81901,-1.984375 z m -3.47265,15.1584206 q 0,2.3564454 1.65364,4.6302085 0.44098,0.3858507 0.82683,0.3858507 h 0.2756 q 0.79927,0 2.43913,-4.6991104 1.63987,-4.71289081 1.63987,-7.0417755 l 0.11024,-1.5434028 q 0,-2.7560765 -2.09462,-4.575087 -1.03353,-0.4960937 -1.59852,-0.4960937 -0.82683,0 -2.42535,5.2365453 -0.27561,0.7303603 -0.66146,4.85069463 z"
           style="font-style:normal;font-variant:normal;font-weight:normal;font-stretch:normal;font-size:28.22222328px;font-family:'king cooL KC';-inkscape-font-specification:'king cooL KC, Normal';font-variant-ligatures:normal;font-variant-caps:normal;font-variant-numeric:normal;font-feature-settings:normal;text-align:start;writing-mode:lr-tb;text-anchor:start;fill:#ffffff;stroke-width:0.26458335"
           id="path10319" />
        <path
           inkscape:connector-curvature="0"
           d="m -210.07922,-11.352626 h 0.55121 q 2.86632,0 4.3546,5.1814237 0.16537,1.0610894 0.16537,1.9292535 0,2.9352215 -2.37023,11.3550352 -0.27561,0.2067057 -0.27561,0.5512153 -0.34451,0.4960937 -0.71658,1.4882813 -1.14377,1.653646 -2.86632,1.653646 -1.07487,0 -2.59071,-1.9292537 -1.37804,-1.5847439 -1.37804,-6.3940974 0,-3.5691191 0.93707,-7.276042 0.67524,-2.7698568 0.88194,-3.1419272 0.13781,-0.068902 0.44098,-1.3229167 1.21267,-1.984375 1.81901,-1.984375 z m -3.47266,15.1584206 q 0,2.3564454 1.65365,4.6302085 0.44097,0.3858507 0.82682,0.3858507 h 0.27561 q 0.79926,0 2.43912,-4.6991104 1.63987,-4.71289081 1.63987,-7.0417755 l 0.11024,-1.5434028 q 0,-2.7560765 -2.09462,-4.575087 -1.03352,-0.4960937 -1.59852,-0.4960937 -0.82682,0 -2.42535,5.2365453 -0.27561,0.7303603 -0.66146,4.85069463 z"
           style="font-style:normal;font-variant:normal;font-weight:normal;font-stretch:normal;font-size:28.22222328px;font-family:'king cooL KC';-inkscape-font-specification:'king cooL KC, Normal';font-variant-ligatures:normal;font-variant-caps:normal;font-variant-numeric:normal;font-feature-settings:normal;text-align:start;writing-mode:lr-tb;text-anchor:start;fill:#ffffff;stroke-width:0.26458335"
           id="path10321" />
      </g>
      <g
         aria-label="10"
         style="font-style:normal;font-variant:normal;font-weight:normal;font-stretch:normal;font-size:28.22222328px;line-height:1.25;font-family:'king cooL KC';-inkscape-font-specification:'king cooL KC, Normal';font-variant-ligatures:normal;font-variant-caps:normal;font-variant-numeric:normal;font-feature-settings:normal;text-align:start;letter-spacing:0px;word-spacing:0px;writing-mode:lr-tb;text-anchor:start;fill:#ffffff;fill-opacity:1;stroke:none;stroke-width:0.26458335"
         id="text5287"
         transform="translate(0.54237363)">
        <path
           inkscape:connector-curvature="0"
           d="m -113.23784,-10.594705 q 0.42719,0 0.82682,0.6614583 l -0.38585,11.7408858 0.27561,6.7248267 q -0.44097,1.6536462 -0.93707,1.6536462 -1.04731,-0.4134118 -1.04731,-0.7717017 0,-4.6577693 0.27561,-16.2057298 V -9.437153 q 0,-1.102431 0.49609,-1.102431 z"
           style="font-style:normal;font-variant:normal;font-weight:normal;font-stretch:normal;font-size:28.22222328px;font-family:'king cooL KC';-inkscape-font-specification:'king cooL KC, Normal';font-variant-ligatures:normal;font-variant-caps:normal;font-variant-numeric:normal;font-feature-settings:normal;text-align:start;writing-mode:lr-tb;text-anchor:start;fill:#ffffff;stroke-width:0.26458335"
           id="path10303" />
        <path
           inkscape:connector-curvature="0"
           d="m -105.47949,-11.352626 h 0.55122 q 2.86632,0 4.3546,5.1814237 0.16536,1.0610894 0.16536,1.9292535 0,2.9352215 -2.37022,11.3550352 -0.27561,0.2067057 -0.27561,0.5512153 -0.34451,0.4960937 -0.71658,1.4882813 -1.14377,1.653646 -2.86632,1.653646 -1.07487,0 -2.59071,-1.9292537 -1.37804,-1.5847439 -1.37804,-6.3940974 0,-3.5691191 0.93707,-7.276042 0.67524,-2.7698568 0.88194,-3.1419272 0.13781,-0.068902 0.44097,-1.3229167 1.21268,-1.984375 1.81901,-1.984375 z m -3.47265,15.1584206 q 0,2.3564454 1.65364,4.6302085 0.44097,0.3858507 0.82683,0.3858507 h 0.2756 q 0.79927,0 2.43913,-4.6991104 1.63987,-4.71289081 1.63987,-7.0417755 l 0.11024,-1.5434028 q 0,-2.7560765 -2.09462,-4.575087 -1.03353,-0.4960937 -1.59852,-0.4960937 -0.82683,0 -2.42535,5.2365453 -0.27561,0.7303603 -0.66146,4.85069463 z"
           style="font-style:normal;font-variant:normal;font-weight:normal;font-stretch:normal;font-size:28.22222328px;font-family:'king cooL KC';-inkscape-font-specification:'king cooL KC, Normal';font-variant-ligatures:normal;font-variant-caps:normal;font-variant-numeric:normal;font-feature-settings:normal;text-align:start;writing-mode:lr-tb;text-anchor:start;fill:#ffffff;stroke-width:0.26458335"
           id="path10305" />
      </g>
      <g
         aria-label="100"
         style="font-style:normal;font-variant:normal;font-weight:normal;font-stretch:normal;font-size:28.22222328px;line-height:1.25;font-family:'king cooL KC';-inkscape-font-specification:'king cooL KC, Normal';font-variant-ligatures:normal;font-variant-caps:normal;font-variant-numeric:normal;font-feature-settings:normal;text-align:start;letter-spacing:0px;word-spacing:0px;writing-mode:lr-tb;text-anchor:start;fill:#ffffff;fill-opacity:1;stroke:none;stroke-width:0.26458335"
         id="text5291"
         transform="translate(0.27118349)">
        <path
           inkscape:connector-curvature="0"
           d="m -171.35302,-10.594705 q 0.4272,0 0.82683,0.6614583 l -0.38585,11.7408858 0.2756,6.7248267 q -0.44097,1.6536462 -0.93706,1.6536462 -1.04731,-0.4134118 -1.04731,-0.7717017 0,-4.6577693 0.27561,-16.2057298 V -9.437153 q 0,-1.102431 0.49609,-1.102431 z"
           style="font-style:normal;font-variant:normal;font-weight:normal;font-stretch:normal;font-size:28.22222328px;font-family:'king cooL KC';-inkscape-font-specification:'king cooL KC, Normal';font-variant-ligatures:normal;font-variant-caps:normal;font-variant-numeric:normal;font-feature-settings:normal;text-align:start;writing-mode:lr-tb;text-anchor:start;fill:#ffffff;stroke-width:0.26458335"
           id="path10308" />
        <path
           inkscape:connector-curvature="0"
           d="m -163.59466,-11.352626 h 0.55122 q 2.86631,0 4.3546,5.1814237 0.16536,1.0610894 0.16536,1.9292535 0,2.9352215 -2.37023,11.3550352 -0.2756,0.2067057 -0.2756,0.5512153 -0.34451,0.4960937 -0.71658,1.4882813 -1.14377,1.653646 -2.86632,1.653646 -1.07487,0 -2.59071,-1.9292537 -1.37804,-1.5847439 -1.37804,-6.3940974 0,-3.5691191 0.93706,-7.276042 0.67524,-2.7698568 0.88195,-3.1419272 0.1378,-0.068902 0.44097,-1.3229167 1.21267,-1.984375 1.81901,-1.984375 z m -3.47266,15.1584206 q 0,2.3564454 1.65365,4.6302085 0.44097,0.3858507 0.82682,0.3858507 h 0.27561 q 0.79926,0 2.43913,-4.6991104 1.63986,-4.71289081 1.63986,-7.0417755 l 0.11025,-1.5434028 q 0,-2.7560765 -2.09462,-4.575087 -1.03353,-0.4960937 -1.59853,-0.4960937 -0.82682,0 -2.42534,5.2365453 -0.27561,0.7303603 -0.66146,4.85069463 z"
           style="font-style:normal;font-variant:normal;font-weight:normal;font-stretch:normal;font-size:28.22222328px;font-family:'king cooL KC';-inkscape-font-specification:'king cooL KC, Normal';font-variant-ligatures:normal;font-variant-caps:normal;font-variant-numeric:normal;font-feature-settings:normal;text-align:start;writing-mode:lr-tb;text-anchor:start;fill:#ffffff;stroke-width:0.26458335"
           id="path10310" />
        <path
           inkscape:connector-curvature="0"
           d="m -151.96402,-11.352626 h 0.55122 q 2.86632,0 4.3546,5.1814237 0.16536,1.0610894 0.16536,1.9292535 0,2.9352215 -2.37022,11.3550352 -0.27561,0.2067057 -0.27561,0.5512153 -0.34451,0.4960937 -0.71658,1.4882813 -1.14377,1.653646 -2.86632,1.653646 -1.07487,0 -2.59071,-1.9292537 -1.37804,-1.5847439 -1.37804,-6.3940974 0,-3.5691191 0.93707,-7.276042 0.67524,-2.7698568 0.88194,-3.1419272 0.13781,-0.068902 0.44097,-1.3229167 1.21268,-1.984375 1.81901,-1.984375 z m -3.47265,15.1584206 q 0,2.3564454 1.65364,4.6302085 0.44097,0.3858507 0.82683,0.3858507 h 0.2756 q 0.79927,0 2.43913,-4.6991104 1.63987,-4.71289081 1.63987,-7.0417755 l 0.11024,-1.5434028 q 0,-2.7560765 -2.09462,-4.575087 -1.03353,-0.4960937 -1.59852,-0.4960937 -0.82683,0 -2.42535,5.2365453 -0.27561,0.7303603 -0.66146,4.85069463 z"
           style="font-style:normal;font-variant:normal;font-weight:normal;font-stretch:normal;font-size:28.22222328px;font-family:'king cooL KC';-inkscape-font-specification:'king cooL KC, Normal';font-variant-ligatures:normal;font-variant-caps:normal;font-variant-numeric:normal;font-feature-settings:normal;text-align:start;writing-mode:lr-tb;text-anchor:start;fill:#ffffff;stroke-width:0.26458335"
           id="path10312" />
      </g>
      <g
         aria-label="1"
         style="font-style:normal;font-variant:normal;font-weight:normal;font-stretch:normal;font-size:28.22222328px;line-height:1.25;font-family:'king cooL KC';-inkscape-font-specification:'king cooL KC, Normal';font-variant-ligatures:normal;font-variant-caps:normal;font-variant-numeric:normal;font-feature-settings:normal;text-align:start;letter-spacing:0px;word-spacing:0px;writing-mode:lr-tb;text-anchor:start;fill:#ffffff;fill-opacity:1;stroke:none;stroke-width:0.26458335"
         id="text5295"
         transform="translate(0.81353557)">
        <path
           inkscape:connector-curvature="0"
           d="m -66.753276,-10.663607 q 0.427192,0 0.826823,0.661458 l -0.385851,11.7408861 0.275608,6.7248267 q -0.440973,1.6536462 -0.937066,1.6536462 -1.047309,-0.4134118 -1.047309,-0.7717018 0,-4.6577692 0.275607,-16.2057297 V -9.506055 q 0,-1.102431 0.496094,-1.102431 z"
           style="font-style:normal;font-variant:normal;font-weight:normal;font-stretch:normal;font-size:28.22222328px;font-family:'king cooL KC';-inkscape-font-specification:'king cooL KC, Normal';font-variant-ligatures:normal;font-variant-caps:normal;font-variant-numeric:normal;font-feature-settings:normal;text-align:start;writing-mode:lr-tb;text-anchor:start;fill:#ffffff;stroke-width:0.26458335"
           id="path10300" />
      </g>
      <g
         id="g5545"
         transform="matrix(0.03000113,0,0,0.03000113,-196.3501,-7.9444576)"
         style="fill:#ef5350;fill-opacity:1">
        <g
           id="g5488"
           style="fill:#ef5350;fill-opacity:1">
          <g
             id="g5486"
             style="fill:#ef5350;fill-opacity:1">
            <path
               id="path5484"
               d="M 477.549,182.379 H 329.018 V 33.847 c 0,-18.69 -15.154,-33.844 -33.844,-33.844 H 216.22 c -18.69,0 -33.844,15.153 -33.844,33.844 V 182.373 H 33.844 C 15.153,182.373 0,197.526 0,216.216 v 78.966 c 0,18.691 15.153,33.844 33.844,33.844 h 148.532 v 148.527 c 0,18.689 15.153,33.842 33.844,33.842 h 78.96 c 18.691,0 33.844,-15.152 33.844,-33.842 V 329.026 h 148.533 c 18.689,0 33.842,-15.152 33.842,-33.844 v -78.966 c -0.006,-18.69 -15.153,-33.837 -33.85,-33.837 z"
               inkscape:connector-curvature="0"
               style="fill:#ef5350;fill-opacity:1" />
          </g>
        </g>
        <g
           id="g5490"
           style="fill:#ef5350;fill-opacity:1" />
        <g
           id="g5492"
           style="fill:#ef5350;fill-opacity:1" />
        <g
           id="g5494"
           style="fill:#ef5350;fill-opacity:1" />
        <g
           id="g5496"
           style="fill:#ef5350;fill-opacity:1" />
        <g
           id="g5498"
           style="fill:#ef5350;fill-opacity:1" />
        <g
           id="g5500"
           style="fill:#ef5350;fill-opacity:1" />
        <g
           id="g5502"
           style="fill:#ef5350;fill-opacity:1" />
        <g
           id="g5504"
           style="fill:#ef5350;fill-opacity:1" />
        <g
           id="g5506"
           style="fill:#ef5350;fill-opacity:1" />
        <g
           id="g5508"
           style="fill:#ef5350;fill-opacity:1" />
        <g
           id="g5510"
           style="fill:#ef5350;fill-opacity:1" />
        <g
           id="g5512"
           style="fill:#ef5350;fill-opacity:1" />
        <g
           id="g5514"
           style="fill:#ef5350;fill-opacity:1" />
        <g
           id="g5516"
           style="fill:#ef5350;fill-opacity:1" />
        <g
           id="g5518"
           style="fill:#ef5350;fill-opacity:1" />
      </g>
      <g
         style="fill:#ef5350;fill-opacity:1"
         transform="matrix(0.03000113,0,0,0.03000113,-91.208009,-7.9444576)"
         id="g5583">
        <g
           style="fill:#ef5350;fill-opacity:1"
           id="g5551">
          <g
             style="fill:#ef5350;fill-opacity:1"
             id="g5549">
            <path
               style="fill:#ef5350;fill-opacity:1"
               inkscape:connector-curvature="0"
               d="M 477.549,182.379 H 329.018 V 33.847 c 0,-18.69 -15.154,-33.844 -33.844,-33.844 H 216.22 c -18.69,0 -33.844,15.153 -33.844,33.844 V 182.373 H 33.844 C 15.153,182.373 0,197.526 0,216.216 v 78.966 c 0,18.691 15.153,33.844 33.844,33.844 h 148.532 v 148.527 c 0,18.689 15.153,33.842 33.844,33.842 h 78.96 c 18.691,0 33.844,-15.152 33.844,-33.842 V 329.026 h 148.533 c 18.689,0 33.842,-15.152 33.842,-33.844 v -78.966 c -0.006,-18.69 -15.153,-33.837 -33.85,-33.837 z"
               id="path5547" />
          </g>
        </g>
        <g
           style="fill:#ef5350;fill-opacity:1"
           id="g5553" />
        <g
           style="fill:#ef5350;fill-opacity:1"
           id="g5555" />
        <g
           style="fill:#ef5350;fill-opacity:1"
           id="g5557" />
        <g
           style="fill:#ef5350;fill-opacity:1"
           id="g5559" />
        <g
           style="fill:#ef5350;fill-opacity:1"
           id="g5561" />
        <g
           style="fill:#ef5350;fill-opacity:1"
           id="g5563" />
        <g
           style="fill:#ef5350;fill-opacity:1"
           id="g5565" />
        <g
           style="fill:#ef5350;fill-opacity:1"
           id="g5567" />
        <g
           style="fill:#ef5350;fill-opacity:1"
           id="g5569" />
        <g
           style="fill:#ef5350;fill-opacity:1"
           id="g5571" />
        <g
           style="fill:#ef5350;fill-opacity:1"
           id="g5573" />
        <g
           style="fill:#ef5350;fill-opacity:1"
           id="g5575" />
        <g
           style="fill:#ef5350;fill-opacity:1"
           id="g5577" />
        <g
           style="fill:#ef5350;fill-opacity:1"
           id="g5579" />
        <g
           style="fill:#ef5350;fill-opacity:1"
           id="g5581" />
      </g>
      <g
         id="g5621"
         transform="matrix(0.03000113,0,0,0.03000113,-137.96374,-7.9444576)"
         style="fill:#ef5350;fill-opacity:1">
        <g
           id="g5589"
           style="fill:#ef5350;fill-opacity:1">
          <g
             id="g5587"
             style="fill:#ef5350;fill-opacity:1">
            <path
               id="path5585"
               d="M 477.549,182.379 H 329.018 V 33.847 c 0,-18.69 -15.154,-33.844 -33.844,-33.844 H 216.22 c -18.69,0 -33.844,15.153 -33.844,33.844 V 182.373 H 33.844 C 15.153,182.373 0,197.526 0,216.216 v 78.966 c 0,18.691 15.153,33.844 33.844,33.844 h 148.532 v 148.527 c 0,18.689 15.153,33.842 33.844,33.842 h 78.96 c 18.691,0 33.844,-15.152 33.844,-33.842 V 329.026 h 148.533 c 18.689,0 33.842,-15.152 33.842,-33.844 v -78.966 c -0.006,-18.69 -15.153,-33.837 -33.85,-33.837 z"
               inkscape:connector-curvature="0"
               style="fill:#ef5350;fill-opacity:1" />
          </g>
        </g>
        <g
           id="g5591"
           style="fill:#ef5350;fill-opacity:1" />
        <g
           id="g5593"
           style="fill:#ef5350;fill-opacity:1" />
        <g
           id="g5595"
           style="fill:#ef5350;fill-opacity:1" />
        <g
           id="g5597"
           style="fill:#ef5350;fill-opacity:1" />
        <g
           id="g5599"
           style="fill:#ef5350;fill-opacity:1" />
        <g
           id="g5601"
           style="fill:#ef5350;fill-opacity:1" />
        <g
           id="g5603"
           style="fill:#ef5350;fill-opacity:1" />
        <g
           id="g5605"
           style="fill:#ef5350;fill-opacity:1" />
        <g
           id="g5607"
           style="fill:#ef5350;fill-opacity:1" />
        <g
           id="g5609"
           style="fill:#ef5350;fill-opacity:1" />
        <g
           id="g5611"
           style="fill:#ef5350;fill-opacity:1" />
        <g
           id="g5613"
           style="fill:#ef5350;fill-opacity:1" />
        <g
           id="g5615"
           style="fill:#ef5350;fill-opacity:1" />
        <g
           id="g5617"
           style="fill:#ef5350;fill-opacity:1" />
        <g
           id="g5619"
           style="fill:#ef5350;fill-opacity:1" />
      </g>
      <g
         id="g10283"
         transform="translate(12.462132,-104.79207)">
        <rect
           ry="1.3334285"
           y="99.185165"
           x="-68.917122"
           height="4.4915442"
           width="15.580043"
           id="rect10277"
           style="opacity:1;fill:#ef5350;fill-opacity:1;stroke:none;stroke-width:0.26458335;stroke-linecap:round;stroke-miterlimit:4;stroke-dasharray:none;stroke-opacity:1" />
        <rect
           style="opacity:1;fill:#ef5350;fill-opacity:1;stroke:none;stroke-width:0.26458335;stroke-linecap:round;stroke-miterlimit:4;stroke-dasharray:none;stroke-opacity:1"
           id="rect10279"
           width="15.580043"
           height="4.4915442"
           x="-68.917122"
           y="105.36104"
           ry="1.3334285" />
      </g>
      <g
         aria-label="1,111"
         style="font-style:normal;font-variant:normal;font-weight:normal;font-stretch:normal;font-size:28.22222328px;line-height:1.25;font-family:'king cooL KC';-inkscape-font-specification:'king cooL KC, Normal';font-variant-ligatures:normal;font-variant-caps:normal;font-variant-numeric:normal;font-feature-settings:normal;text-align:start;letter-spacing:0px;word-spacing:0px;writing-mode:lr-tb;text-anchor:start;fill:#ffffff;fill-opacity:1;stroke:none;stroke-width:0.26458335"
         id="text10287"
         transform="translate(157.43091,-41.356088)">
        <path
           d="m -188.38013,29.803647 q 0.42719,0 0.82682,0.661458 l -0.38585,11.740886 0.27561,6.724826 q -0.44097,1.653646 -0.93707,1.653646 -1.04731,-0.413411 -1.04731,-0.771701 0,-4.657769 0.27561,-16.20573 v -2.645833 q 0,-1.102431 0.4961,-1.102431 z"
           style="font-style:normal;font-variant:normal;font-weight:normal;font-stretch:normal;font-size:28.22222328px;font-family:'king cooL KC';-inkscape-font-specification:'king cooL KC, Normal';font-variant-ligatures:normal;font-variant-caps:normal;font-variant-numeric:normal;font-feature-settings:normal;text-align:start;writing-mode:lr-tb;text-anchor:start;fill:#ffffff;stroke-width:0.26458335"
           id="path10289"
           inkscape:connector-curvature="0" />
        <path
           d="m -184.34248,47.070466 h 0.0551 q 0.68902,0 0.99219,1.81901 l 0.0551,0.992188 q 0,2.480469 -1.04731,2.480469 h -0.0551 q -0.71658,0 -0.82682,-0.440973 0.49609,-1.694987 0.49609,-1.984375 v -0.275607 l -0.22048,-1.819011 q 0.0689,-0.771701 0.55121,-0.771701 z"
           style="font-style:normal;font-variant:normal;font-weight:normal;font-stretch:normal;font-size:28.22222328px;font-family:'king cooL KC';-inkscape-font-specification:'king cooL KC, Normal';font-variant-ligatures:normal;font-variant-caps:normal;font-variant-numeric:normal;font-feature-settings:normal;text-align:start;writing-mode:lr-tb;text-anchor:start;fill:#ffffff;stroke-width:0.26458335"
           id="path10291"
           inkscape:connector-curvature="0" />
        <path
           d="m -179.61581,29.803647 q 0.42719,0 0.82683,0.661458 l -0.38585,11.740886 0.2756,6.724826 q -0.44097,1.653646 -0.93706,1.653646 -1.04731,-0.413411 -1.04731,-0.771701 0,-4.657769 0.27561,-16.20573 v -2.645833 q 0,-1.102431 0.49609,-1.102431 z"
           style="font-style:normal;font-variant:normal;font-weight:normal;font-stretch:normal;font-size:28.22222328px;font-family:'king cooL KC';-inkscape-font-specification:'king cooL KC, Normal';font-variant-ligatures:normal;font-variant-caps:normal;font-variant-numeric:normal;font-feature-settings:normal;text-align:start;writing-mode:lr-tb;text-anchor:start;fill:#ffffff;stroke-width:0.26458335"
           id="path10293"
           inkscape:connector-curvature="0" />
        <path
           d="m -175.42657,29.803647 q 0.42719,0 0.82682,0.661458 l -0.38585,11.740886 0.27561,6.724826 q -0.44097,1.653646 -0.93707,1.653646 -1.04731,-0.413411 -1.04731,-0.771701 0,-4.657769 0.27561,-16.20573 v -2.645833 q 0,-1.102431 0.4961,-1.102431 z"
           style="font-style:normal;font-variant:normal;font-weight:normal;font-stretch:normal;font-size:28.22222328px;font-family:'king cooL KC';-inkscape-font-specification:'king cooL KC, Normal';font-variant-ligatures:normal;font-variant-caps:normal;font-variant-numeric:normal;font-feature-settings:normal;text-align:start;writing-mode:lr-tb;text-anchor:start;fill:#ffffff;stroke-width:0.26458335"
           id="path10295"
           inkscape:connector-curvature="0" />
        <path
           d="m -171.23733,29.803647 q 0.42719,0 0.82682,0.661458 l -0.38585,11.740886 0.27561,6.724826 q -0.44098,1.653646 -0.93707,1.653646 -1.04731,-0.413411 -1.04731,-0.771701 0,-4.657769 0.27561,-16.20573 v -2.645833 q 0,-1.102431 0.49609,-1.102431 z"
           style="font-style:normal;font-variant:normal;font-weight:normal;font-stretch:normal;font-size:28.22222328px;font-family:'king cooL KC';-inkscape-font-specification:'king cooL KC, Normal';font-variant-ligatures:normal;font-variant-caps:normal;font-variant-numeric:normal;font-feature-settings:normal;text-align:start;writing-mode:lr-tb;text-anchor:start;fill:#ffffff;stroke-width:0.26458335"
           id="path10297"
           inkscape:connector-curvature="0" />
      </g>
    </g>
    <g
       id="g13233">
      <path
         inkscape:connector-curvature="0"
         d="m 132.61893,124.58542 q -0.80576,-0.081 -1.19667,-0.34769 -0.37837,-0.2519 -0.34529,-0.64852 0.0343,-0.4103 0.42515,-0.63935 0.43539,-0.26666 1.14657,-0.20734 0.7522,0.0628 1.16818,0.35909 0.41712,0.28268 0.38403,0.6793 -0.0319,0.38294 -0.49239,0.61997 -0.44792,0.25184 -1.08957,0.18458 z m 0.5852,-8.17284 q -3.43279,-0.28629 -5.38982,1.87789 -1.63788,1.80521 -1.88653,4.78667 -0.27602,3.30972 1.13825,5.0114 1.5647,1.87949 5.52632,2.26495 2.81393,0.276 4.87808,-1.68645 2.00487,-1.91231 2.25011,-4.85276 0.2475,-2.96779 -1.44257,-4.99545 -1.77781,-2.13138 -5.07384,-2.40625 z"
         style="font-style:normal;font-variant:normal;font-weight:normal;font-stretch:normal;font-size:21.16666794px;line-height:1.25;font-family:'SC Gum Kids';-inkscape-font-specification:'SC Gum Kids, Normal';font-variant-ligatures:normal;font-variant-caps:normal;font-variant-numeric:normal;font-feature-settings:normal;text-align:start;letter-spacing:0px;word-spacing:0px;writing-mode:lr-tb;text-anchor:start;fill:#ef5350;fill-opacity:1;stroke:none;stroke-width:0.35133323"
         id="path5223" />
      <path
         inkscape:connector-curvature="0"
         d="m 145.13515,111.79463 -0.44686,4.41239 -3.66832,-0.46349 -0.55446,4.37733 3.76607,0.44282 -0.90729,10.39222 4.63745,0.57269 0.87006,-10.44984 3.57126,0.27784 0.40579,-4.41527 -3.5547,-0.31795 0.39428,-4.25099 z"
         style="font-style:normal;font-variant:normal;font-weight:normal;font-stretch:normal;font-size:21.16666794px;line-height:1.25;font-family:'SC Gum Kids';-inkscape-font-specification:'SC Gum Kids, Normal';font-variant-ligatures:normal;font-variant-caps:normal;font-variant-numeric:normal;font-feature-settings:normal;text-align:start;letter-spacing:0px;word-spacing:0px;writing-mode:lr-tb;text-anchor:start;fill:#ef5350;fill-opacity:1;stroke:none;stroke-width:0.35133323"
         id="path5225" />
      <path
         inkscape:connector-curvature="0"
         d="m 158.37999,128.32017 q -0.46199,-0.0949 -0.75181,-0.31747 -0.27611,-0.22181 -0.29033,-0.4563 3.3e-4,-0.24741 0.28206,-0.36892 0.32367,-0.13294 0.92423,-0.0577 0.42243,0.0651 0.65743,0.28463 0.20761,0.21793 0.17995,0.46379 -0.0284,0.25957 -0.28282,0.38263 -0.26965,0.14976 -0.71871,0.0693 z m 4.31012,-9.36445 q -3.55425,-0.83347 -6.13747,-0.60854 -1.29885,0.11895 -1.87846,0.40228 l 0.56905,4.03227 q 1.55866,-0.3379 3.25537,-0.20077 3.39345,0.27454 4.05324,2.70366 -1.24456,-0.8402 -2.88002,-1.33139 -3.29832,-0.98395 -5.32207,0.77096 -1.20008,1.0455 -1.55323,2.42759 -0.35237,1.3684 0.24097,2.54289 0.62978,1.25903 2.10677,1.87872 1.652,0.68458 4.04494,0.42138 1.95137,-0.23319 3.18997,-1.71641 l -0.32599,1.63106 4.67239,0.26445 q 0.99868,-2.83012 0.99348,-5.89575 5.1e-4,-2.68042 -1.01242,-4.45599 -1.24922,-2.21506 -4.01653,-2.86654 z"
         style="font-style:normal;font-variant:normal;font-weight:normal;font-stretch:normal;font-size:21.16666794px;line-height:1.25;font-family:'SC Gum Kids';-inkscape-font-specification:'SC Gum Kids, Normal';font-variant-ligatures:normal;font-variant-caps:normal;font-variant-numeric:normal;font-feature-settings:normal;text-align:start;letter-spacing:0px;word-spacing:0px;writing-mode:lr-tb;text-anchor:start;fill:#ef5350;fill-opacity:1;stroke:none;stroke-width:0.35133323"
         id="path5227" />
      <path
         inkscape:connector-curvature="0"
         d="m 177.75108,124.53674 q -0.47236,-0.51485 -1.1467,-0.80487 -1.33499,-0.57946 -2.2758,0.5339 -0.53625,0.65002 -0.3881,1.35696 0.10943,0.65034 0.73491,1.11684 0.63985,0.45339 1.47682,0.47567 0.92042,-0.002 1.74164,-0.57063 l 3.31213,2.83497 q -1.03606,1.41148 -2.84673,2.30884 -3.63444,1.7804 -7.52172,-0.77713 -2.0435,-1.35174 -2.34225,-4.30424 -0.27606,-2.84164 1.18764,-5.25123 1.56909,-2.62485 4.33494,-3.05524 3.2213,-0.47947 7.09676,2.35228 z"
         style="font-style:normal;font-variant:normal;font-weight:normal;font-stretch:normal;font-size:21.16666794px;line-height:1.25;font-family:'SC Gum Kids';-inkscape-font-specification:'SC Gum Kids, Normal';font-variant-ligatures:normal;font-variant-caps:normal;font-variant-numeric:normal;font-feature-settings:normal;text-align:start;letter-spacing:0px;word-spacing:0px;writing-mode:lr-tb;text-anchor:start;fill:#ef5350;fill-opacity:1;stroke:none;stroke-width:0.35133323"
         id="path5229" />
      <path
         inkscape:connector-curvature="0"
         d="m 184.7494,118.5867 q 1.37299,0.006 2.12714,-0.76494 0.69692,-0.70398 0.67723,-1.73455 -0.0201,-1.01686 -0.70855,-1.76818 -0.74091,-0.82178 -1.9744,-0.8914 -1.10958,-0.0791 -1.87838,0.71851 -0.69786,0.7314 -0.80255,1.78519 -0.0919,1.08168 0.51465,1.81647 0.69928,0.8341 2.04486,0.8389 z m 2.05481,0.94908 -4.33471,-0.13444 -0.51622,13.49461 4.45393,0.26211 z"
         style="font-style:normal;font-variant:normal;font-weight:normal;font-stretch:normal;font-size:21.16666794px;line-height:1.25;font-family:'SC Gum Kids';-inkscape-font-specification:'SC Gum Kids, Normal';font-variant-ligatures:normal;font-variant-caps:normal;font-variant-numeric:normal;font-feature-settings:normal;text-align:start;letter-spacing:0px;word-spacing:0px;writing-mode:lr-tb;text-anchor:start;fill:#ef5350;fill-opacity:1;stroke:none;stroke-width:0.35133323"
         id="path5231" />
      <path
         inkscape:connector-curvature="0"
         d="m 194.25979,128.46696 q -0.89142,-0.0362 -1.33239,-0.51411 -0.4283,-0.43639 -0.4089,-1.20469 0.0197,-0.78201 0.44447,-1.29298 0.46729,-0.56479 1.2493,-0.54506 0.8369,0.0212 1.31799,0.54122 0.46807,0.49229 0.44903,1.24688 -0.0191,0.75457 -0.51238,1.2638 -0.49403,0.53666 -1.20712,0.50494 z m 0.0974,-8.75621 q -3.44361,-0.0869 -5.27196,2.18704 -1.53053,1.89708 -1.606,4.88794 -0.0838,3.32015 1.42671,4.93702 1.67098,1.78567 5.64827,1.94095 2.8252,0.11247 4.77217,-1.96629 1.89071,-2.02526 1.96514,-4.97497 0.0751,-2.97715 -1.72959,-4.90347 -1.89833,-2.02479 -5.20474,-2.10822 z m 2.31635,-6.38014 -4.47674,4.40365 1.22862,1.36266 5.25642,-3.20334 z"
         style="font-style:normal;font-variant:normal;font-weight:normal;font-stretch:normal;font-size:21.16666794px;line-height:1.25;font-family:'SC Gum Kids';-inkscape-font-specification:'SC Gum Kids, Normal';font-variant-ligatures:normal;font-variant-caps:normal;font-variant-numeric:normal;font-feature-settings:normal;text-align:start;letter-spacing:0px;word-spacing:0px;writing-mode:lr-tb;text-anchor:start;fill:#ef5350;fill-opacity:1;stroke:none;stroke-width:0.35133323"
         id="path5233" />
      <path
         inkscape:connector-curvature="0"
         d="m 210.54626,119.1126 q -2.54928,-0.29182 -4.33391,0.8668 l 0.0388,-0.93283 -4.3075,-0.17597 -0.52304,14.77542 5.15982,0.0628 0.13178,-5.18643 q -0.12392,-4.47585 2.14154,-4.54434 1.67504,-0.0483 1.87895,4.62074 0.1103,2.21106 -0.26132,4.55351 l 5.36417,0.18885 q 0.44041,-3.48078 10e-4,-6.87619 -0.3741,-3.09268 -1.47731,-4.91781 -1.3859,-2.28149 -3.81336,-2.43458 z"
         style="font-style:normal;font-variant:normal;font-weight:normal;font-stretch:normal;font-size:21.16666794px;line-height:1.25;font-family:'SC Gum Kids';-inkscape-font-specification:'SC Gum Kids, Normal';font-variant-ligatures:normal;font-variant-caps:normal;font-variant-numeric:normal;font-feature-settings:normal;text-align:start;letter-spacing:0px;word-spacing:0px;writing-mode:lr-tb;text-anchor:start;fill:#ef5350;fill-opacity:1;stroke:none;stroke-width:0.35133323"
         id="path5235" />
      <path
         inkscape:connector-curvature="0"
         d="m 231.34906,128.22645 q -0.64376,0.15625 -1.1673,-0.0864 -0.44097,-0.21594 -0.56767,-0.59918 -0.0995,-0.4109 0.24122,-0.70194 0.40909,-0.31905 1.27344,-0.35367 0.39798,-0.003 0.75649,0.19959 0.35864,0.21662 0.47093,0.51763 0.12608,0.31462 -0.10489,0.59101 -0.24452,0.30397 -0.90222,0.43294 z m -5.46824,-5.67772 q -1.39092,1.08204 -2.04687,3.07751 -0.36854,1.89703 0.29234,3.79924 0.94993,2.00962 2.48278,3.14975 1.73988,1.27568 4.05743,1.05058 1.86513,-0.16647 2.83336,-0.91558 0.96822,-0.74916 1.23882,-1.21803 l 0.0178,2.14086 5.06623,0.23248 -0.27569,-18.34729 -5.5604,-0.24208 0.0577,6.9578 q -1.08985,-0.67718 -2.65695,-0.97984 -3.13407,-0.5916 -5.50647,1.2946 z"
         style="font-style:normal;font-variant:normal;font-weight:normal;font-stretch:normal;font-size:21.16666794px;line-height:1.25;font-family:'SC Gum Kids';-inkscape-font-specification:'SC Gum Kids, Normal';font-variant-ligatures:normal;font-variant-caps:normal;font-variant-numeric:normal;font-feature-settings:normal;text-align:start;letter-spacing:0px;word-spacing:0px;writing-mode:lr-tb;text-anchor:start;fill:#ef5350;fill-opacity:1;stroke:none;stroke-width:0.35133323"
         id="path5237" />
      <path
         inkscape:connector-curvature="0"
         d="m 247.73299,122.89767 q 1.2024,-0.24694 1.76493,0.34431 0.28158,0.30934 0.31681,0.65171 l -3.69642,0.44085 q -0.0607,-0.25945 0.0967,-0.57875 0.32931,-0.61149 1.518,-0.85812 z m -0.4314,5.78907 q -0.72249,-0.3817 -0.99907,-1.07552 -0.14504,-0.33989 -0.13744,-0.61462 l 9.18147,-1.30664 q -0.35762,-1.84509 -1.65946,-3.55893 -2.63142,-3.44078 -7.45073,-2.87835 -2.75189,0.32329 -4.31264,2.32176 -1.41449,1.78923 -1.49344,4.35807 -0.0945,2.48681 1.07725,4.51933 1.25755,2.18158 3.44126,2.83211 3.78742,1.14949 7.2182,-0.71298 1.72224,-0.93137 2.67085,-2.07857 l -3.01966,-3.0064 q -0.63241,0.56346 -1.51488,0.99531 -1.75093,0.87714 -3.00166,0.20548 z"
         style="font-style:normal;font-variant:normal;font-weight:normal;font-stretch:normal;font-size:21.16666794px;line-height:1.25;font-family:'SC Gum Kids';-inkscape-font-specification:'SC Gum Kids, Normal';font-variant-ligatures:normal;font-variant-caps:normal;font-variant-numeric:normal;font-feature-settings:normal;text-align:start;letter-spacing:0px;word-spacing:0px;writing-mode:lr-tb;text-anchor:start;fill:#ef5350;fill-opacity:1;stroke:none;stroke-width:0.35133323"
         id="path5239" />
      <path
         inkscape:connector-curvature="0"
         d="m 257.71346,127.3051 q 1.28146,0.50336 2.29792,0.89263 2.82013,1.28591 3.35102,0.77249 0.18169,-0.2949 0.0372,-0.49571 -0.14447,-0.20082 -1.38239,-0.63708 -1.22462,-0.45048 -2.80586,-0.88815 -1.58123,-0.43769 -2.18436,-1.55588 -0.57424,-1.07805 -0.16539,-2.31492 0.44653,-1.33435 1.81793,-2.15255 1.58691,-0.9358 3.97876,-0.8705 2.02055,0.0511 4.05149,0.77483 0.96502,0.48725 1.51812,0.97553 l -1.63074,2.77756 q -0.81418,-0.49265 -1.57686,-0.69877 -2.50118,-0.81669 -2.60391,0.14835 -0.004,0.26107 0.45855,0.53286 0.47615,0.25758 1.99957,0.61495 1.53664,0.34315 2.49921,0.76183 1.43774,0.64882 1.79455,2.17409 0.37151,1.55222 -0.8587,3.24427 -1.28753,1.62543 -4.59239,1.75766 -2.8792,0.13067 -7.82626,-1.87544 z"
         style="font-style:normal;font-variant:normal;font-weight:normal;font-stretch:normal;font-size:21.16666794px;line-height:1.25;font-family:'SC Gum Kids';-inkscape-font-specification:'SC Gum Kids, Normal';font-variant-ligatures:normal;font-variant-caps:normal;font-variant-numeric:normal;font-feature-settings:normal;text-align:start;letter-spacing:0px;word-spacing:0px;writing-mode:lr-tb;text-anchor:start;fill:#ef5350;fill-opacity:1;stroke:none;stroke-width:0.35133323"
         id="path5241" />
      <path
         inkscape:connector-curvature="0"
         d="m 275.54697,128.91162 q -0.46943,-0.0456 -0.78111,-0.23637 -0.29797,-0.19144 -0.33685,-0.42312 -0.0254,-0.24609 0.24155,-0.39662 0.30785,-0.1663 0.91301,-0.15481 0.42695,0.0203 0.6838,0.21368 0.22944,0.19482 0.22787,0.44222 -9e-4,0.26111 -0.24088,0.41033 -0.25235,0.17731 -0.70739,0.14471 z m 3.29805,-9.76693 q -3.62235,-0.45383 -6.16742,0.0424 -1.27905,0.2553 -1.82555,0.59822 l 0.99132,3.94973 q 1.51431,-0.50048 3.21606,-0.54298 3.40347,-0.085 4.31586,2.26092 -1.32627,-0.70421 -3.00442,-1.0201 -3.38372,-0.63045 -5.21102,1.32817 -1.08308,1.16629 -1.28844,2.57792 -0.20601,1.39794 0.50792,2.50328 0.75911,1.18555 2.29322,1.64595 1.71502,0.50644 4.06683,-0.008 1.91588,-0.43779 2.99108,-2.04338 l -0.15208,1.65635 4.6742,-0.23002 q 0.69451,-2.9197 0.36591,-5.96767 -0.28225,-2.66553 -1.47693,-4.32432 -1.47596,-2.07089 -4.29654,-2.42676 z"
         style="font-style:normal;font-variant:normal;font-weight:normal;font-stretch:normal;font-size:21.16666794px;line-height:1.25;font-family:'SC Gum Kids';-inkscape-font-specification:'SC Gum Kids, Normal';font-variant-ligatures:normal;font-variant-caps:normal;font-variant-numeric:normal;font-feature-settings:normal;text-align:start;letter-spacing:0px;word-spacing:0px;writing-mode:lr-tb;text-anchor:start;fill:#ef5350;fill-opacity:1;stroke:none;stroke-width:0.35133323"
         id="path5243" />
      <path
         inkscape:connector-curvature="0"
         d="m 289.02319,117.29702 -4.37669,0.37864 1.20509,14.03331 4.51341,-0.16708 -0.53371,-5.78341 q 0.42363,-2.95471 3.0382,-3.81642 1.30687,-0.4377 2.5266,-0.27876 l -0.27975,-4.78151 q -3.8433,0.33207 -5.93243,2.13784 z"
         style="font-style:normal;font-variant:normal;font-weight:normal;font-stretch:normal;font-size:21.16666794px;line-height:1.25;font-family:'SC Gum Kids';-inkscape-font-specification:'SC Gum Kids, Normal';font-variant-ligatures:normal;font-variant-caps:normal;font-variant-numeric:normal;font-feature-settings:normal;text-align:start;letter-spacing:0px;word-spacing:0px;writing-mode:lr-tb;text-anchor:start;fill:#ef5350;fill-opacity:1;stroke:none;stroke-width:0.35133323"
         id="path5245" />
      <path
         inkscape:connector-curvature="0"
         d="m 299.99889,116.57653 -4.3726,0.42326 1.34818,14.02028 4.51148,-0.21313 -0.59269,-5.77765 q 0.39347,-2.95887 2.99912,-3.84722 1.30232,-0.45101 2.52362,-0.30458 l -0.32852,-4.7784 q -3.8397,0.37136 -5.91032,2.19825 z"
         style="font-style:normal;font-variant:normal;font-weight:normal;font-stretch:normal;font-size:21.16666794px;line-height:1.25;font-family:'SC Gum Kids';-inkscape-font-specification:'SC Gum Kids, Normal';font-variant-ligatures:normal;font-variant-caps:normal;font-variant-numeric:normal;font-feature-settings:normal;text-align:start;letter-spacing:0px;word-spacing:0px;writing-mode:lr-tb;text-anchor:start;fill:#ef5350;fill-opacity:1;stroke:none;stroke-width:0.35133323"
         id="path5247" />
      <path
         inkscape:connector-curvature="0"
         d="m 313.94438,124.49059 q -0.80806,0.0536 -1.23774,-0.14471 -0.41485,-0.18576 -0.44792,-0.58238 -0.0348,-0.41026 0.31341,-0.70093 0.38521,-0.33509 1.09639,-0.39437 0.75221,-0.0627 1.21152,0.16067 0.45816,0.20969 0.49123,0.60632 0.0317,0.38295 -0.38293,0.69295 -0.40003,0.32255 -1.04396,0.36245 z m -0.77635,-8.1569 q -3.43281,0.28609 -5.00441,2.74456 -1.31632,2.0515 -1.06779,5.03299 0.27591,3.30971 1.95245,4.75369 1.85434,1.59441 5.82511,1.31851 2.82078,-0.19366 4.53143,-2.47101 1.6605,-2.21792 1.41539,-5.15837 -0.24745,-2.96781 -2.24991,-4.68758 -2.10622,-1.80754 -5.40227,-1.53279 z"
         style="font-style:normal;font-variant:normal;font-weight:normal;font-stretch:normal;font-size:21.16666794px;line-height:1.25;font-family:'SC Gum Kids';-inkscape-font-specification:'SC Gum Kids, Normal';font-variant-ligatures:normal;font-variant-caps:normal;font-variant-numeric:normal;font-feature-settings:normal;text-align:start;letter-spacing:0px;word-spacing:0px;writing-mode:lr-tb;text-anchor:start;fill:#ef5350;fill-opacity:1;stroke:none;stroke-width:0.35133323"
         id="path5249" />
      <path
         inkscape:connector-curvature="0"
         d="m 319.98973,111.02222 1.68144,18.10632 5.61638,-0.52156 -1.4583,-18.37514 z"
         style="font-style:normal;font-variant:normal;font-weight:normal;font-stretch:normal;font-size:21.16666794px;line-height:1.25;font-family:'SC Gum Kids';-inkscape-font-specification:'SC Gum Kids, Normal';font-variant-ligatures:normal;font-variant-caps:normal;font-variant-numeric:normal;font-feature-settings:normal;text-align:start;letter-spacing:0px;word-spacing:0px;writing-mode:lr-tb;text-anchor:start;fill:#ef5350;fill-opacity:1;stroke:none;stroke-width:0.35133323"
         id="path5251" />
      <path
         inkscape:connector-curvature="0"
         d="m 326.00941,110.46272 1.78587,18.09633 5.61327,-0.55396 -1.56429,-18.36643 z"
         style="font-style:normal;font-variant:normal;font-weight:normal;font-stretch:normal;font-size:21.16666794px;line-height:1.25;font-family:'SC Gum Kids';-inkscape-font-specification:'SC Gum Kids, Normal';font-variant-ligatures:normal;font-variant-caps:normal;font-variant-numeric:normal;font-feature-settings:normal;text-align:start;letter-spacing:0px;word-spacing:0px;writing-mode:lr-tb;text-anchor:start;fill:#ef5350;fill-opacity:1;stroke:none;stroke-width:0.35133323"
         id="path5253" />
      <path
         inkscape:connector-curvature="0"
         d="m 339.42833,123.98069 q -0.4713,-0.0176 -0.79376,-0.18953 -0.30884,-0.17338 -0.36142,-0.40234 -0.0404,-0.24408 0.21754,-0.41029 0.29743,-0.1843 0.90219,-0.20885 0.42739,-0.005 0.69529,0.17265 0.2406,0.18084 0.25376,0.4279 0.0144,0.26072 -0.21606,0.42393 -0.24136,0.19198 -0.69754,0.18653 z m 2.71155,-9.94575 q -3.64295,-0.23765 -6.15402,0.40884 -1.2616,0.3309 -1.78674,0.70571 l 1.22438,3.8838 q 1.48188,-0.58962 3.17809,-0.73324 3.39239,-0.2873 4.44265,2.00035 -1.36578,-0.62413 -3.05976,-0.8397 -3.41521,-0.42815 -5.12283,1.63566 -1.01182,1.22861 -1.13288,2.64997 -0.12254,1.4077 0.65585,2.46863 0.82825,1.13833 2.38703,1.50671 1.74208,0.40358 4.05916,-0.24958 1.88645,-0.55092 2.86429,-2.21759 l -0.0533,1.66247 4.65228,-0.50751 q 0.51969,-2.9558 0.0104,-5.97885 -0.44029,-2.64403 -1.73141,-4.22885 -1.59647,-1.97949 -4.43322,-2.16703 z"
         style="font-style:normal;font-variant:normal;font-weight:normal;font-stretch:normal;font-size:21.16666794px;line-height:1.25;font-family:'SC Gum Kids';-inkscape-font-specification:'SC Gum Kids, Normal';font-variant-ligatures:normal;font-variant-caps:normal;font-variant-numeric:normal;font-feature-settings:normal;text-align:start;letter-spacing:0px;word-spacing:0px;writing-mode:lr-tb;text-anchor:start;fill:#ef5350;fill-opacity:1;stroke:none;stroke-width:0.35133323"
         id="path5255" />
      <path
         inkscape:connector-curvature="0"
         d="m 356.60095,120.06882 q -0.62134,0.22974 -1.16945,0.0493 -0.46299,-0.16346 -0.63318,-0.52946 -0.14635,-0.39665 0.15839,-0.72514 0.36942,-0.36425 1.22396,-0.49865 0.39492,-0.0494 0.77451,0.11074 0.38129,0.17366 0.52766,0.45966 0.16168,0.2979 -0.0358,0.59918 -0.2077,0.33022 -0.84607,0.53442 z m -6.08842,-5.00693 q -1.25639,1.23571 -1.67706,3.29369 -0.14658,1.92693 0.72989,3.7399 1.17606,1.88621 2.83055,2.84134 1.87577,1.0658 4.15172,0.57408 1.83337,-0.38112 2.7084,-1.23725 0.87504,-0.85614 1.08958,-1.35318 l 0.26539,2.12443 5.05911,-0.35525 -2.39661,-18.19216 -5.55108,0.40283 0.86234,6.90441 q -1.16088,-0.54655 -2.75247,-0.66587 -3.18147,-0.22501 -5.31971,1.923 z"
         style="font-style:normal;font-variant:normal;font-weight:normal;font-stretch:normal;font-size:21.16666794px;line-height:1.25;font-family:'SC Gum Kids';-inkscape-font-specification:'SC Gum Kids, Normal';font-variant-ligatures:normal;font-variant-caps:normal;font-variant-numeric:normal;font-feature-settings:normal;text-align:start;letter-spacing:0px;word-spacing:0px;writing-mode:lr-tb;text-anchor:start;fill:#ef5350;fill-opacity:1;stroke:none;stroke-width:0.35133323"
         id="path5257" />
      <path
         inkscape:connector-curvature="0"
         d="m 371.62904,120.01314 q -0.47163,-0.003 -0.79934,-0.16446 -0.31412,-0.16361 -0.37388,-0.39079 -0.0481,-0.24269 0.20454,-0.41692 0.29147,-0.19357 0.89516,-0.23712 0.42703,-0.0186 0.70038,0.15071 0.24618,0.17318 0.26708,0.41969 0.0223,0.26016 -0.20262,0.43052 -0.23521,0.19948 -0.69132,0.20837 z m 2.39749,-10.02609 q -3.6486,-0.12299 -6.1381,0.6023 -1.25058,0.37042 -1.76366,0.76155 l 1.34588,3.84337 q 1.46262,-0.63592 3.15347,-0.83279 3.38168,-0.39374 4.50333,1.85967 -1.38473,-0.58086 -3.08463,-0.74307 -3.42699,-0.32056 -5.06887,1.79592 -0.9727,1.2598 -1.049,2.68427 -0.0782,1.41087 0.73313,2.4468 0.86364,1.11172 2.43322,1.4309 1.75392,0.34862 4.04932,-0.37708 1.8682,-0.60996 2.79315,-2.30656 l -10e-4,1.66332 4.63401,-0.65352 q 0.4265,-2.97069 -0.17754,-5.97623 -0.52319,-2.62887 -1.86351,-4.17232 -1.65791,-1.92831 -4.49916,-2.02658 z"
         style="font-style:normal;font-variant:normal;font-weight:normal;font-stretch:normal;font-size:21.16666794px;line-height:1.25;font-family:'SC Gum Kids';-inkscape-font-specification:'SC Gum Kids, Normal';font-variant-ligatures:normal;font-variant-caps:normal;font-variant-numeric:normal;font-feature-settings:normal;text-align:start;letter-spacing:0px;word-spacing:0px;writing-mode:lr-tb;text-anchor:start;fill:#ef5350;fill-opacity:1;stroke:none;stroke-width:0.35133323"
         id="path5259" />
      <g
         aria-label="N"
         style="font-style:normal;font-variant:normal;font-weight:normal;font-stretch:normal;font-size:28.22222328px;line-height:1.25;font-family:'SC Gum Kids';-inkscape-font-specification:'SC Gum Kids, Normal';font-variant-ligatures:normal;font-variant-caps:normal;font-variant-numeric:normal;font-feature-settings:normal;text-align:start;letter-spacing:0px;word-spacing:0px;writing-mode:lr-tb;text-anchor:start;fill:#ef5350;fill-opacity:1;stroke:none;stroke-width:0.26458335"
         id="text13207"
         transform="rotate(10.907434,1231.8581,-28.546698)">
        <path
           d="m 167.25348,317.90923 -0.26183,11.12077 -6.22873,-10.94163 h -4.90582 l -0.0827,17.80426 5.51215,0.0827 0.0965,-8.98481 5.60862,8.80567 5.59483,0.0965 0.17915,-17.88694 z"
           style="font-style:normal;font-variant:normal;font-weight:normal;font-stretch:normal;font-size:28.22222328px;font-family:'SC Gum Kids';-inkscape-font-specification:'SC Gum Kids, Normal';font-variant-ligatures:normal;font-variant-caps:normal;font-variant-numeric:normal;font-feature-settings:normal;text-align:start;writing-mode:lr-tb;text-anchor:start;fill:#ef5350;fill-opacity:1;stroke-width:0.26458335"
           id="path13209"
           inkscape:connector-curvature="0" />
      </g>
    </g>
  </g>
</svg>
