<?xml version="1.0" encoding="UTF-8" standalone="no"?>
<!-- Created with Inkscape (http://www.inkscape.org/) -->

<svg
   xmlns:dc="http://purl.org/dc/elements/1.1/"
   xmlns:cc="http://creativecommons.org/ns#"
   xmlns:rdf="http://www.w3.org/1999/02/22-rdf-syntax-ns#"
   xmlns:svg="http://www.w3.org/2000/svg"
   xmlns="http://www.w3.org/2000/svg"
   xmlns:sodipodi="http://sodipodi.sourceforge.net/DTD/sodipodi-0.dtd"
   xmlns:inkscape="http://www.inkscape.org/namespaces/inkscape"
   width="151.5968mm"
   height="126.90543mm"
   version="1.1"
   viewBox="0 0 151.5968 126.90542"
   id="svg25084"
   sodipodi:docname="math.svg"
   inkscape:version="0.92.2 5c3e80d, 2017-08-06">
  <defs
     id="defs25088" />
  <sodipodi:namedview
     pagecolor="#ffffff"
     bordercolor="#666666"
     borderopacity="1"
     objecttolerance="10"
     gridtolerance="10"
     guidetolerance="10"
     inkscape:pageopacity="0"
     inkscape:pageshadow="2"
     inkscape:window-width="1920"
     inkscape:window-height="1029"
     id="namedview25086"
     showgrid="false"
     inkscape:zoom="0.44589975"
     inkscape:cx="326.02393"
     inkscape:cy="467.3055"
     inkscape:window-x="0"
     inkscape:window-y="0"
     inkscape:window-maximized="0"
     inkscape:current-layer="svg25084"
     fit-margin-top="0"
     fit-margin-left="0"
     fit-margin-right="0"
     fit-margin-bottom="0" />
  <metadata
     id="metadata24982">
    <rdf:RDF>
      <cc:Work
         rdf:about="">
        <dc:format>image/svg+xml</dc:format>
        <dc:type
           rdf:resource="http://purl.org/dc/dcmitype/StillImage" />
        <dc:title></dc:title>
      </cc:Work>
    </rdf:RDF>
  </metadata>
  <g
     id="g6783"
     transform="translate(-306.67327,27.961082)">
    <rect
       style="opacity:1;fill:#00c853;fill-opacity:1;stroke:none;stroke-width:6.88025284;stroke-linecap:round;stroke-miterlimit:4;stroke-dasharray:none;stroke-opacity:1"
       id="rect28642"
       width="106.50855"
       height="8.5999832"
       x="325.35971"
       y="-3.5684872"
       ry="4.2999916" />
    <rect
       ry="4.2999916"
       y="23.898029"
       x="325.35971"
       height="8.5999832"
       width="109.39217"
       id="rect28644"
       style="opacity:1;fill:#00c853;fill-opacity:1;stroke:none;stroke-width:6.97276926;stroke-linecap:round;stroke-miterlimit:4;stroke-dasharray:none;stroke-opacity:1" />
    <rect
       style="opacity:1;fill:#00c853;fill-opacity:1;stroke:none;stroke-width:6.97276926;stroke-linecap:round;stroke-miterlimit:4;stroke-dasharray:none;stroke-opacity:1"
       id="rect28646"
       width="109.39217"
       height="8.5999832"
       x="325.35971"
       y="51.364544"
       ry="4.2999916" />
    <rect
       transform="rotate(90)"
       ry="4.2999916"
       y="-330.43787"
       x="-27.961082"
       height="8.5999832"
       width="112.85252"
       id="rect28634"
       style="opacity:1;fill:#00ba4e;fill-opacity:1;stroke:none;stroke-width:7.08219337;stroke-linecap:round;stroke-miterlimit:4;stroke-dasharray:none;stroke-opacity:1" />
    <rect
       ry="4.2999916"
       y="-3.5684872"
       x="425.42145"
       height="8.5999832"
       width="6.4468064"
       id="rect28857"
       style="opacity:1;fill:#00af49;fill-opacity:1;stroke:none;stroke-width:1.69271743;stroke-linecap:round;stroke-miterlimit:4;stroke-dasharray:none;stroke-opacity:1" />
    <rect
       style="opacity:1;fill:#00af49;fill-opacity:1;stroke:none;stroke-width:1.69271743;stroke-linecap:round;stroke-miterlimit:4;stroke-dasharray:none;stroke-opacity:1"
       id="rect28859"
       width="6.4468064"
       height="8.5999832"
       x="425.42145"
       y="-3.5684872"
       ry="0" />
    <rect
       ry="0"
       y="23.898029"
       x="425.42145"
       height="8.5999832"
       width="6.4468064"
       id="rect28861"
       style="opacity:1;fill:#00af49;fill-opacity:1;stroke:none;stroke-width:1.69271743;stroke-linecap:round;stroke-miterlimit:4;stroke-dasharray:none;stroke-opacity:1" />
    <rect
       style="opacity:1;fill:#00af49;fill-opacity:1;stroke:none;stroke-width:1.69271743;stroke-linecap:round;stroke-miterlimit:4;stroke-dasharray:none;stroke-opacity:1"
       id="rect28863"
       width="6.4468064"
       height="8.5999832"
       x="425.42145"
       y="51.364544"
       ry="0" />
    <rect
       style="opacity:1;fill:#00c853;fill-opacity:1;stroke:none;stroke-width:7.08219337;stroke-linecap:round;stroke-miterlimit:4;stroke-dasharray:none;stroke-opacity:1"
       id="rect28636"
       width="112.85252"
       height="8.5999832"
       x="-27.961082"
       y="-437.27612"
       ry="4.2999916"
       transform="rotate(90)" />
    <rect
       style="fill:#84ffb7;stroke-width:0.64108461"
       id="rect25064"
       ry="1.0541233"
       height="58.880318"
       width="2.2247715"
       y="-22.468277"
       x="433.62668" />
    <rect
       ry="0"
       y="-3.5684872"
       x="404.371"
       height="8.5999832"
       width="6.4468064"
       id="rect28906"
       style="opacity:1;fill:#00ba4e;fill-opacity:1;stroke:none;stroke-width:1.69271743;stroke-linecap:round;stroke-miterlimit:4;stroke-dasharray:none;stroke-opacity:1" />
    <g
       id="g28868">
      <rect
         style="fill:#9c27b0;fill-opacity:1;stroke-width:0.64985311"
         id="rect28802"
         ry="7.1145468"
         height="29.075363"
         width="14.229094"
         y="-13.806177"
         x="407.37878" />
      <rect
         style="fill:#e9bcf0;fill-opacity:1;stroke-width:0.81026125"
         id="rect28804"
         ry="1.3833935"
         height="10.472371"
         width="2.7667871"
         y="-9.1871796"
         x="416.42792" />
      <path
         style="fill:#872299;fill-opacity:1;stroke-width:2.45613766"
         d="m 1566.5898,-52.181641 c -14.8968,0 -26.8906,11.993773 -26.8906,26.890625 v 56.111328 c 0,14.896853 11.9938,26.890626 26.8906,26.890626 1.8684,0 3.6902,-0.189457 5.4493,-0.548829 -12.2673,-2.505233 -21.4414,-13.312659 -21.4414,-26.341797 v -56.111328 c 0,-13.029137 9.1741,-23.836563 21.4414,-26.341796 -1.7591,-0.359372 -3.5809,-0.548829 -5.4493,-0.548829 z"
         transform="scale(0.26458333)"
         id="rect28840"
         inkscape:connector-curvature="0" />
    </g>
    <g
       id="g28878">
      <rect
         x="352.11255"
         y="-13.806177"
         width="14.229094"
         height="29.075363"
         ry="7.1145468"
         id="rect28796"
         style="fill:#9c27b0;fill-opacity:1;stroke-width:0.64985311" />
      <rect
         x="361.16168"
         y="-9.1871796"
         width="2.7667871"
         height="10.472371"
         ry="1.3833935"
         id="rect28798"
         style="fill:#e9bcf0;fill-opacity:1;stroke-width:0.81026125" />
      <path
         id="path28845"
         d="m 359.12797,-13.806392 c -3.94145,0 -7.11481,3.173352 -7.11481,7.1148108 v 14.846122 c 0,3.9414592 3.17336,7.1148112 7.11481,7.1148112 0.49435,0 0.97636,-0.05013 1.44179,-0.145211 -3.24572,-0.662843 -5.67303,-3.522308 -5.67303,-6.9696002 v -14.846122 c 0,-3.4472928 2.42731,-6.3067568 5.67303,-6.9695998 -0.46543,-0.09508 -0.94744,-0.145211 -1.44179,-0.145211 z"
         style="fill:#872299;fill-opacity:1;stroke-width:0.64985305"
         inkscape:connector-curvature="0" />
    </g>
    <rect
       style="opacity:1;fill:#00ba4e;fill-opacity:1;stroke:none;stroke-width:1.69271743;stroke-linecap:round;stroke-miterlimit:4;stroke-dasharray:none;stroke-opacity:1"
       id="rect28908"
       width="6.4468064"
       height="8.5999832"
       x="334.39404"
       y="-3.5684872"
       ry="0" />
    <g
       id="g28873">
      <rect
         style="fill:#9c27b0;fill-opacity:1;stroke-width:0.64985311"
         id="rect28761"
         ry="7.1145468"
         height="29.075363"
         width="14.229094"
         y="-13.806177"
         x="337.88345" />
      <rect
         style="fill:#e9bcf0;fill-opacity:1;stroke-width:0.81026125"
         id="rect28763"
         ry="1.3833935"
         height="10.472371"
         width="2.7667871"
         y="-9.1871796"
         x="346.93259" />
      <path
         inkscape:connector-curvature="0"
         style="fill:#872299;fill-opacity:1;stroke-width:0.64985305"
         d="m 344.99826,-13.806392 c -3.94145,0 -7.11481,3.173352 -7.11481,7.1148108 v 14.846122 c 0,3.9414592 3.17336,7.1148112 7.11481,7.1148112 0.49435,0 0.97636,-0.05013 1.44179,-0.145211 -3.24572,-0.662843 -5.67303,-3.522308 -5.67303,-6.9696002 v -14.846122 c 0,-3.4472928 2.42731,-6.3067568 5.67303,-6.9695998 -0.46543,-0.09508 -0.94744,-0.145211 -1.44179,-0.145211 z"
         id="path28847" />
    </g>
    <g
       id="g28956">
      <rect
         ry="0"
         y="23.825939"
         x="365.92371"
         height="8.5999832"
         width="6.4468064"
         id="rect28912"
         style="opacity:1;fill:#00ba4e;fill-opacity:1;stroke:none;stroke-width:1.69271743;stroke-linecap:round;stroke-miterlimit:4;stroke-dasharray:none;stroke-opacity:1" />
      <g
         id="g28885">
        <g
           transform="translate(38.640559,-100.22382)"
           id="g28811">
          <g
             id="g28779">
            <rect
               style="fill:#ef5365;fill-opacity:1;stroke-width:0.64985311"
               id="rect28765"
               ry="7.1145468"
               height="29.075363"
               width="14.229094"
               y="113.88416"
               x="330.38602" />
            <rect
               style="fill:#f8b9c0;fill-opacity:1;stroke-width:0.81026125"
               id="rect28767"
               ry="1.3833935"
               height="10.472371"
               width="2.7667871"
               y="119.13408"
               x="339.43515" />
          </g>
        </g>
        <path
           inkscape:connector-curvature="0"
           style="fill:#ec374c;fill-opacity:1;stroke-width:0.64985305"
           d="m 376.14139,13.660152 c -3.94145,0 -7.11481,3.173352 -7.11481,7.114811 v 14.846122 c 0,3.941459 3.17336,7.114811 7.11481,7.114811 0.49435,0 0.97636,-0.05013 1.44179,-0.145211 -3.24572,-0.662843 -5.67303,-3.522308 -5.67303,-6.9696 V 20.774963 c 0,-3.447293 2.42731,-6.306757 5.67303,-6.9696 -0.46543,-0.09508 -0.94744,-0.145211 -1.44179,-0.145211 z"
           id="path28849" />
      </g>
    </g>
    <g
       id="g28965">
      <rect
         style="opacity:1;fill:#00ba4e;fill-opacity:1;stroke:none;stroke-width:1.69271743;stroke-linecap:round;stroke-miterlimit:4;stroke-dasharray:none;stroke-opacity:1"
         id="rect28910"
         width="6.4468064"
         height="8.5999832"
         x="384.09055"
         y="23.825939"
         ry="0" />
      <g
         id="g28892">
        <g
           id="g28819"
           transform="translate(56.906727,-100.22382)">
          <g
             id="g28817">
            <rect
               x="330.38602"
               y="113.88416"
               width="14.229094"
               height="29.075363"
               ry="7.1145468"
               id="rect28813"
               style="fill:#ef5365;fill-opacity:1;stroke-width:0.64985311" />
            <rect
               x="339.43515"
               y="119.13408"
               width="2.7667871"
               height="10.472371"
               ry="1.3833935"
               id="rect28815"
               style="fill:#f8b9c0;fill-opacity:1;stroke-width:0.81026125" />
          </g>
        </g>
        <path
           id="path28851"
           d="m 394.30822,13.660152 c -3.94145,0 -7.11481,3.173352 -7.11481,7.114811 v 14.846122 c 0,3.941459 3.17336,7.114811 7.11481,7.114811 0.49435,0 0.97636,-0.05013 1.44179,-0.145211 -3.24572,-0.662843 -5.67303,-3.522308 -5.67303,-6.9696 V 20.774963 c 0,-3.447293 2.42731,-6.306757 5.67303,-6.9696 -0.46543,-0.09508 -0.94744,-0.145211 -1.44179,-0.145211 z"
           style="fill:#ec374c;fill-opacity:1;stroke-width:0.64985305"
           inkscape:connector-curvature="0" />
      </g>
    </g>
    <g
       id="g28932">
      <rect
         style="opacity:1;fill:#00ba4e;fill-opacity:1;stroke:none;stroke-width:1.69271743;stroke-linecap:round;stroke-miterlimit:4;stroke-dasharray:none;stroke-opacity:1"
         id="rect28914"
         width="6.4468064"
         height="8.5999832"
         x="335.74075"
         y="51.364544"
         ry="0" />
      <g
         id="g28904">
        <g
           transform="translate(-13.841394,-72.180588)"
           id="g28783">
          <rect
             style="fill:#f57c00;fill-opacity:1;stroke-width:0.64985311"
             id="rect28769"
             ry="7.1145468"
             height="29.075363"
             width="14.229094"
             y="113.30744"
             x="352.30154" />
          <rect
             style="fill:#ffce9d;fill-opacity:1;stroke-width:0.81026125"
             id="rect28771"
             ry="1.3833935"
             height="10.472371"
             width="2.7667871"
             y="119.13408"
             x="361.06232" />
        </g>
        <path
           id="path28853"
           d="m 345.57496,41.126663 c -3.94145,0 -7.11481,3.173352 -7.11481,7.114811 v 14.846122 c 0,3.941459 3.17336,7.114811 7.11481,7.114811 0.49435,0 0.97636,-0.05013 1.44179,-0.145211 -3.24572,-0.662843 -5.67303,-3.522308 -5.67303,-6.9696 V 48.241474 c 0,-3.447293 2.42731,-6.306757 5.67303,-6.9696 -0.46543,-0.09508 -0.94744,-0.145211 -1.44179,-0.145211 z"
           style="fill:#db6f00;fill-opacity:1;stroke-width:0.64985305"
           inkscape:connector-curvature="0" />
      </g>
    </g>
    <g
       id="g28940">
      <rect
         ry="0"
         y="51.364544"
         x="406.77301"
         height="8.5999832"
         width="6.4468064"
         id="rect28916"
         style="opacity:1;fill:#00ba4e;fill-opacity:1;stroke:none;stroke-width:1.69271743;stroke-linecap:round;stroke-miterlimit:4;stroke-dasharray:none;stroke-opacity:1" />
      <g
         id="g28898">
        <g
           id="g28825"
           transform="translate(57.672477,-72.180588)">
          <rect
             x="352.30154"
             y="113.30744"
             width="14.229094"
             height="29.075363"
             ry="7.1145468"
             id="rect28821"
             style="fill:#f57c00;fill-opacity:1;stroke-width:0.64985311" />
          <rect
             x="361.06232"
             y="119.13408"
             width="2.7667871"
             height="10.472371"
             ry="1.3833935"
             id="rect28823"
             style="fill:#ffce9d;fill-opacity:1;stroke-width:0.81026125" />
        </g>
        <path
           inkscape:connector-curvature="0"
           style="fill:#db6f00;fill-opacity:1;stroke-width:0.64985305"
           d="m 417.08883,41.126663 c -3.94145,0 -7.11481,3.173352 -7.11481,7.114811 v 14.846122 c 0,3.941459 3.17336,7.114811 7.11481,7.114811 0.49435,0 0.97636,-0.05013 1.44179,-0.145211 -3.24572,-0.662843 -5.67303,-3.522308 -5.67303,-6.9696 V 48.241474 c 0,-3.447293 2.42731,-6.306757 5.67303,-6.9696 -0.46543,-0.09508 -0.94744,-0.145211 -1.44179,-0.145211 z"
           id="path28855" />
      </g>
    </g>
    <rect
       ry="5.8296566"
       y="80.344971"
       x="312.5029"
       height="18.599375"
       width="145.76718"
       id="rect28632"
       style="opacity:1;fill:#2196f3;fill-opacity:1;stroke:none;stroke-width:5.17666435;stroke-linecap:round;stroke-miterlimit:4;stroke-dasharray:none;stroke-opacity:1" />
    <path
       id="rect28827"
       transform="scale(0.26458333)"
       d="m 1177.8633,303.66602 c -10.406,0 -18.7832,9.82672 -18.7832,22.0332 v 26.23047 c 0,12.20647 8.3772,22.0332 18.7832,22.0332 h 35.1484 c -10.406,0 -18.7832,-9.82673 -18.7832,-22.0332 v -26.23047 c 0,-12.20648 8.3772,-22.0332 18.7832,-22.0332 z"
       style="opacity:1;fill:#0c83e1;fill-opacity:1;stroke:none;stroke-width:9.69181633;stroke-linecap:round;stroke-miterlimit:4;stroke-dasharray:none;stroke-opacity:1"
       inkscape:connector-curvature="0" />
    <rect
       ry="3.1368799"
       y="83.001595"
       x="408.56366"
       height="6.2737598"
       width="45.300987"
       id="rect28924"
       style="opacity:1;fill:#66b7f7;fill-opacity:1;stroke:none;stroke-width:11.09447575;stroke-linecap:round;stroke-miterlimit:4;stroke-dasharray:none;stroke-opacity:1" />
    <rect
       x="326.20526"
       y="-22.468277"
       width="2.2247715"
       height="40.233582"
       ry="0.72029424"
       id="rect6715"
       style="fill:#00d65a;fill-opacity:1;stroke-width:0.52993745" />
  </g>
</svg>
