<?xml version="1.0" encoding="UTF-8"?>
<!-- Created with Inkscape (http://www.inkscape.org/) -->
<svg width="452.94138mm" height="218.28125mm" version="1.1" viewBox="0 0 452.94138 218.28125" xmlns="http://www.w3.org/2000/svg" xmlns:cc="http://creativecommons.org/ns#" xmlns:dc="http://purl.org/dc/elements/1.1/" xmlns:rdf="http://www.w3.org/1999/02/22-rdf-syntax-ns#" xmlns:xlink="http://www.w3.org/1999/xlink">
 <metadata>
  <rdf:RDF>
   <cc:Work rdf:about="">
    <dc:format>image/svg+xml</dc:format>
    <dc:type rdf:resource="http://purl.org/dc/dcmitype/StillImage"/>
    <dc:title/>
   </cc:Work>
  </rdf:RDF>
 </metadata>
 <g fill="#f9eab0">
  <polygon transform="matrix(3.4969519,0,0,3.4969519,454.53799,116.97428)" points=""/>
  <polygon transform="matrix(9.1061708,0,0,9.0930789,1282.4585,1088.9576)" points=""/>
  <polygon transform="matrix(3.4969519,0,0,3.4969519,828.57006,-535.68054)" points=""/>
  <polygon transform="matrix(3.4969519,0,0,3.4969519,-1847.954,290.9635)" points=""/>
 </g>
 <g transform="translate(-664.84965,-16.9212)" letter-spacing="0px" word-spacing="0px">
  <text x="-1222.3983" y="-173.37076" font-family="sans-serif" font-size="10.58333302px" stroke-width=".26458332" style="line-height:1.25" xml:space="preserve"><tspan x="-1222.3983" y="-164.00699" stroke-width=".26458332"/></text>
  <text x="-2245.1282" y="-126.3082" font-family="'SC Gum Kids'" font-size="266.9718323px" stroke-width=".80091542" style="font-feature-settings:normal;font-variant-caps:normal;font-variant-ligatures:normal;font-variant-numeric:normal;line-height:1.25" xml:space="preserve"><tspan x="-2245.1282" y="114.67583" font-family="'SC Gum Kids'" font-size="266.9718323px" stroke-width=".80091542" style="font-feature-settings:normal;font-variant-caps:normal;font-variant-ligatures:normal;font-variant-numeric:normal"/></text>
  <text x="912.07428" y="386.35889" font-family="sans-serif" font-size="10.58333302px" stroke-width=".26458332" style="line-height:1.25" xml:space="preserve"><tspan x="912.07428" y="395.72266" stroke-width=".26458332"/></text>
 </g>
 <polygon transform="matrix(3.4969519,0,0,3.4969519,-1844.8227,325.5531)" points="" fill="#f9eab0"/>
 <g fill="#000000" letter-spacing="0px" word-spacing="0px">
  <text x="-1884.1167" y="-155.70239" font-family="sans-serif" font-size="10.58333302px" stroke-width=".26458332" style="line-height:1.25" xml:space="preserve"><tspan x="-1884.1167" y="-146.33862" stroke-width=".26458332"/></text>
  <text x="-2906.8464" y="-108.63977" font-family="'SC Gum Kids'" font-size="266.9718323px" stroke-width=".80091542" style="font-feature-settings:normal;font-variant-caps:normal;font-variant-ligatures:normal;font-variant-numeric:normal;line-height:1.25" xml:space="preserve"><tspan x="-2906.8464" y="132.34424" font-family="'SC Gum Kids'" font-size="266.9718323px" stroke-width=".80091542" style="font-feature-settings:normal;font-variant-caps:normal;font-variant-ligatures:normal;font-variant-numeric:normal"/></text>
  <text x="250.35588" y="404.02722" font-family="sans-serif" font-size="10.58333302px" stroke-width=".26458332" style="line-height:1.25" xml:space="preserve"><tspan x="250.35588" y="413.39099" stroke-width=".26458332"/></text>
 </g>
 <polygon transform="matrix(3.4969519,0,0,3.4969519,-1995.5073,296.8216)" points="" fill="#f9eab0"/>
 <g fill="#000000" letter-spacing="0px" word-spacing="0px">
  <text x="-2034.8013" y="-184.43384" font-family="sans-serif" font-size="10.58333302px" stroke-width=".26458332" style="line-height:1.25" xml:space="preserve"><tspan x="-2034.8013" y="-175.07007" stroke-width=".26458332"/></text>
  <text x="-3057.531" y="-137.37134" font-family="'SC Gum Kids'" font-size="266.9718323px" stroke-width=".80091542" style="font-feature-settings:normal;font-variant-caps:normal;font-variant-ligatures:normal;font-variant-numeric:normal;line-height:1.25" xml:space="preserve"><tspan x="-3057.531" y="103.61267" font-family="'SC Gum Kids'" font-size="266.9718323px" stroke-width=".80091542" style="font-feature-settings:normal;font-variant-caps:normal;font-variant-ligatures:normal;font-variant-numeric:normal"/></text>
  <text x="99.671333" y="375.29578" font-family="sans-serif" font-size="10.58333302px" stroke-width=".26458332" style="line-height:1.25" xml:space="preserve"><tspan x="99.671333" y="384.65955" stroke-width=".26458332"/></text>
 </g>
 <polygon transform="matrix(3.4969519,0,0,3.4969519,-1995.2633,351.059)" points="" fill="#f9eab0"/>
 <g transform="translate(-11.898241,-382.70925)" letter-spacing="0px" word-spacing="0px">
  <text x="-2022.6592" y="252.51283" font-family="sans-serif" font-size="10.58333302px" stroke-width=".26458332" style="line-height:1.25" xml:space="preserve"><tspan x="-2022.6592" y="261.87659" stroke-width=".26458332"/></text>
  <text x="-3045.3889" y="299.57538" font-family="'SC Gum Kids'" font-size="266.9718323px" stroke-width=".80091542" style="font-feature-settings:normal;font-variant-caps:normal;font-variant-ligatures:normal;font-variant-numeric:normal;line-height:1.25" xml:space="preserve"><tspan x="-3045.3889" y="540.55945" font-family="'SC Gum Kids'" font-size="266.9718323px" stroke-width=".80091542" style="font-feature-settings:normal;font-variant-caps:normal;font-variant-ligatures:normal;font-variant-numeric:normal"/></text>
  <text x="111.81351" y="812.24249" font-family="sans-serif" font-size="10.58333302px" stroke-width=".26458332" style="line-height:1.25" xml:space="preserve"><tspan x="111.81351" y="821.60626" stroke-width=".26458332"/></text>
 </g>
 <polygon transform="matrix(3.4969519,0,0,3.4969519,-2146.4126,299.0589)" points="" fill="#f9eab0"/>
 <g fill="#000000" letter-spacing="0px" word-spacing="0px">
  <text x="-2185.7068" y="-182.19659" font-family="sans-serif" font-size="10.58333302px" stroke-width=".26458332" style="line-height:1.25" xml:space="preserve"><tspan x="-2185.7068" y="-172.83282" stroke-width=".26458332"/></text>
  <text x="-3208.4365" y="-135.13403" font-family="'SC Gum Kids'" font-size="266.9718323px" stroke-width=".80091542" style="font-feature-settings:normal;font-variant-caps:normal;font-variant-ligatures:normal;font-variant-numeric:normal;line-height:1.25" xml:space="preserve"><tspan x="-3208.4365" y="105.84998" font-family="'SC Gum Kids'" font-size="266.9718323px" stroke-width=".80091542" style="font-feature-settings:normal;font-variant-caps:normal;font-variant-ligatures:normal;font-variant-numeric:normal"/></text>
  <text x="-51.233967" y="377.53308" font-family="sans-serif" font-size="10.58333302px" stroke-width=".26458332" style="line-height:1.25" xml:space="preserve"><tspan x="-51.233967" y="386.89685" stroke-width=".26458332"/></text>
 </g>
 <polygon transform="matrix(3.4969519,0,0,3.4969519,-2141.5477,362.3612)" points="" fill="#f9eab0"/>
 <g fill="#000000" letter-spacing="0px" word-spacing="0px">
  <text x="-2180.8418" y="-118.89429" font-family="sans-serif" font-size="10.58333302px" stroke-width=".26458332" style="line-height:1.25" xml:space="preserve"><tspan x="-2180.8418" y="-109.53052" stroke-width=".26458332"/></text>
  <text x="-3203.5715" y="-71.831665" font-family="'SC Gum Kids'" font-size="266.9718323px" stroke-width=".80091542" style="font-feature-settings:normal;font-variant-caps:normal;font-variant-ligatures:normal;font-variant-numeric:normal;line-height:1.25" xml:space="preserve"><tspan x="-3203.5715" y="169.15234" font-family="'SC Gum Kids'" font-size="266.9718323px" stroke-width=".80091542" style="font-feature-settings:normal;font-variant-caps:normal;font-variant-ligatures:normal;font-variant-numeric:normal"/></text>
  <text x="-46.369076" y="440.83533" font-family="sans-serif" font-size="10.58333302px" stroke-width=".26458332" style="line-height:1.25" xml:space="preserve"><tspan x="-46.369076" y="450.1991" stroke-width=".26458332"/></text>
 </g>
 <polygon transform="matrix(3.4969519,0,0,3.4969519,-1847.954,1297.6458)" points="" fill="#f9eab0"/>
 <g fill="#000000" letter-spacing="0px" word-spacing="0px">
  <text x="-1887.2479" y="816.39038" font-family="sans-serif" font-size="10.58333302px" stroke-width=".26458332" style="line-height:1.25" xml:space="preserve"><tspan x="-1887.2479" y="825.75415" stroke-width=".26458332"/></text>
  <text x="-2909.9778" y="863.45288" font-family="'SC Gum Kids'" font-size="266.9718323px" stroke-width=".80091542" style="font-feature-settings:normal;font-variant-caps:normal;font-variant-ligatures:normal;font-variant-numeric:normal;line-height:1.25" xml:space="preserve"><tspan x="-2909.9778" y="1104.437" font-family="'SC Gum Kids'" font-size="266.9718323px" stroke-width=".80091542" style="font-feature-settings:normal;font-variant-caps:normal;font-variant-ligatures:normal;font-variant-numeric:normal"/></text>
  <text x="247.22462" y="1376.1199" font-family="sans-serif" font-size="10.58333302px" stroke-width=".26458332" style="line-height:1.25" xml:space="preserve"><tspan x="247.22462" y="1385.4836" stroke-width=".26458332"/></text>
 </g>
 <polygon transform="matrix(3.4969519,0,0,3.4969519,-1844.8227,1332.2354)" points="" fill="#f9eab0"/>
 <g fill="#000000" letter-spacing="0px" word-spacing="0px">
  <text x="-1884.1167" y="850.97998" font-family="sans-serif" font-size="10.58333302px" stroke-width=".26458332" style="line-height:1.25" xml:space="preserve"><tspan x="-1884.1167" y="860.34375" stroke-width=".26458332"/></text>
  <text x="-2906.8464" y="898.04248" font-family="'SC Gum Kids'" font-size="266.9718323px" stroke-width=".80091542" style="font-feature-settings:normal;font-variant-caps:normal;font-variant-ligatures:normal;font-variant-numeric:normal;line-height:1.25" xml:space="preserve"><tspan x="-2906.8464" y="1139.0266" font-family="'SC Gum Kids'" font-size="266.9718323px" stroke-width=".80091542" style="font-feature-settings:normal;font-variant-caps:normal;font-variant-ligatures:normal;font-variant-numeric:normal"/></text>
  <text x="250.35588" y="1410.7095" font-family="sans-serif" font-size="10.58333302px" stroke-width=".26458332" style="line-height:1.25" xml:space="preserve"><tspan x="250.35588" y="1420.0732" stroke-width=".26458332"/></text>
 </g>
 <polygon transform="matrix(3.4969519,0,0,3.4969519,-1995.5073,1303.5039)" points="" fill="#f9eab0"/>
 <g fill="#000000" letter-spacing="0px" word-spacing="0px">
  <text x="-2034.8013" y="822.24841" font-family="sans-serif" font-size="10.58333302px" stroke-width=".26458332" style="line-height:1.25" xml:space="preserve"><tspan x="-2034.8013" y="831.61218" stroke-width=".26458332"/></text>
  <text x="-3057.531" y="869.31104" font-family="'SC Gum Kids'" font-size="266.9718323px" stroke-width=".80091542" style="font-feature-settings:normal;font-variant-caps:normal;font-variant-ligatures:normal;font-variant-numeric:normal;line-height:1.25" xml:space="preserve"><tspan x="-3057.531" y="1110.2949" font-family="'SC Gum Kids'" font-size="266.9718323px" stroke-width=".80091542" style="font-feature-settings:normal;font-variant-caps:normal;font-variant-ligatures:normal;font-variant-numeric:normal"/></text>
  <text x="99.671333" y="1381.978" font-family="sans-serif" font-size="10.58333302px" stroke-width=".26458332" style="line-height:1.25" xml:space="preserve"><tspan x="99.671333" y="1391.3418" stroke-width=".26458332"/></text>
 </g>
 <polygon transform="matrix(3.4969519,0,0,3.4969519,-1995.2633,1357.7414)" points="" fill="#f9eab0"/>
 <g transform="translate(-11.898241,623.9731)" letter-spacing="0px" word-spacing="0px">
  <text x="-2022.6592" y="252.51283" font-family="sans-serif" font-size="10.58333302px" stroke-width=".26458332" style="line-height:1.25" xml:space="preserve"><tspan x="-2022.6592" y="261.87659" stroke-width=".26458332"/></text>
  <text x="-3045.3889" y="299.57538" font-family="'SC Gum Kids'" font-size="266.9718323px" stroke-width=".80091542" style="font-feature-settings:normal;font-variant-caps:normal;font-variant-ligatures:normal;font-variant-numeric:normal;line-height:1.25" xml:space="preserve"><tspan x="-3045.3889" y="540.55945" font-family="'SC Gum Kids'" font-size="266.9718323px" stroke-width=".80091542" style="font-feature-settings:normal;font-variant-caps:normal;font-variant-ligatures:normal;font-variant-numeric:normal"/></text>
  <text x="111.81351" y="812.24249" font-family="sans-serif" font-size="10.58333302px" stroke-width=".26458332" style="line-height:1.25" xml:space="preserve"><tspan x="111.81351" y="821.60626" stroke-width=".26458332"/></text>
 </g>
 <polygon transform="matrix(3.4969519,0,0,3.4969519,-2146.4126,1305.7412)" points="" fill="#f9eab0"/>
 <g fill="#000000" letter-spacing="0px" word-spacing="0px">
  <text x="-2185.7068" y="824.48572" font-family="sans-serif" font-size="10.58333302px" stroke-width=".26458332" style="line-height:1.25" xml:space="preserve"><tspan x="-2185.7068" y="833.84949" stroke-width=".26458332"/></text>
  <text x="-3208.4365" y="871.54834" font-family="'SC Gum Kids'" font-size="266.9718323px" stroke-width=".80091542" style="font-feature-settings:normal;font-variant-caps:normal;font-variant-ligatures:normal;font-variant-numeric:normal;line-height:1.25" xml:space="preserve"><tspan x="-3208.4365" y="1112.5322" font-family="'SC Gum Kids'" font-size="266.9718323px" stroke-width=".80091542" style="font-feature-settings:normal;font-variant-caps:normal;font-variant-ligatures:normal;font-variant-numeric:normal"/></text>
  <text x="-51.233967" y="1384.2153" font-family="sans-serif" font-size="10.58333302px" stroke-width=".26458332" style="line-height:1.25" xml:space="preserve"><tspan x="-51.233967" y="1393.5791" stroke-width=".26458332"/></text>
 </g>
 <polygon transform="matrix(3.4969519,0,0,3.4969519,-2141.5477,1369.0435)" points="" fill="#f9eab0"/>
 <g transform="translate(633.26801,637.1307)" letter-spacing="0px" word-spacing="0px">
  <text x="-2814.1099" y="250.65732" font-family="sans-serif" font-size="10.58333302px" stroke-width=".26458332" style="line-height:1.25" xml:space="preserve"><tspan x="-2814.1099" y="260.02109" stroke-width=".26458332"/></text>
  <text x="-3836.8396" y="297.71988" font-family="'SC Gum Kids'" font-size="266.9718323px" stroke-width=".80091542" style="font-feature-settings:normal;font-variant-caps:normal;font-variant-ligatures:normal;font-variant-numeric:normal;line-height:1.25" xml:space="preserve"><tspan x="-3836.8396" y="538.70392" font-family="'SC Gum Kids'" font-size="266.9718323px" stroke-width=".80091542" style="font-feature-settings:normal;font-variant-caps:normal;font-variant-ligatures:normal;font-variant-numeric:normal"/></text>
  <text x="-679.63708" y="810.38696" font-family="sans-serif" font-size="10.58333302px" stroke-width=".26458332" style="line-height:1.25" xml:space="preserve"><tspan x="-679.63708" y="819.75073" stroke-width=".26458332"/></text>
 </g>
 <rect x="5.1217259e-5" y="4.280472e-9" width="452.94128" height="218.28125" opacity="0" stroke-width=".4087455"/>
 <g stroke="#f57c00" stroke-linecap="round" stroke-width="1.32291675">
  <path d="m111.13504 68.89296-89.448762-23.96772 6.25914 42.76465-26.80291 33.90571 89.44876 23.96772z" fill="#fff"/>
  <path d="m341.80635 68.89296 89.44876-23.96772-6.25914 42.76465 26.80291 33.90571-89.44876 23.96772z" fill="#fff"/>
  <path d="m391.83528 78.89429-50.02892-10.00133 20.54376 76.67037 29.48516 12.70596z" fill="#f57c00"/>
  <path d="m61.106108 78.89429 50.028922-10.00133-20.543762 76.67037-29.48516 12.70596z" fill="#f57c00"/>
  <path d="m61.106108 78.89429s94.177372 18.67002 165.364592 18.67002 165.36458-18.67002 165.36458-18.67002v79.375s-92.48624 18.67002-165.36458 18.67002-165.364592-18.67002-165.364592-18.67002z" fill="#fff"/>
 </g>
 <g fill="#fff" stroke-width=".26458335" aria-label="Ejercicio">
  <path d="m186.40072 191.70512h2.13596q2.41157 0 2.82498 0.89572 0.20671 0.25839 0.20671 0.62012h0.0689q0 0.89573-2.34267 0.89573-3.03168 0.17225-3.03168 0.48231-0.75792 3.03168-0.75792 7.1658 0 1.10243 0.89572 1.10243h0.62012l2.61827-0.0689q1.01631 0 1.72255 0.96462v0.20671q0 0.60289-4.75423 1.44694-1.10243 0.46509-1.10243 0.75792v2.75608l0.0689 0.75792-0.1378 0.41341q0.24115 0 0.41341 3.44509 0.25838 1.24024 1.24023 1.24024l4.27192 0.34451q0.46509 0.29283 0.96463 0.89572-0.7407 1.03353-2.75608 1.03353l-0.0689 0.0689q-5.09874-0.1378-5.09874-0.82682-0.34451-0.1378-0.55122-0.89572l0.0689-2.82498v-0.34451l-0.2067-9.64627v-3.03168q0-6.66626 1.65364-7.57921 0.39619-0.27561 1.03353-0.27561z" style="font-feature-settings:normal;font-variant-caps:normal;font-variant-ligatures:normal;font-variant-numeric:normal"/>
  <path d="m202.43764 189.70696q1.03353 0 1.03353 1.17134l0.0689 0.82682q-0.43063 0-0.49954 10.30083-0.0517 10.30084-1.49861 12.3679-1.22301 2.75607-2.96278 2.75607h-0.27561q-2.72163 0-4.47863-1.99815l-0.55121-2.20486v-0.27561q0.55121-1.72255 1.24023-1.72255h0.20671q0.39618 0 0.75792 2.34267 0.49954 1.17133 2.48047 1.17133h0.68902q0.18948-0.0344 0.75792-1.17133 0.53399-0.25839 0.96463-1.79145 0.1378 0 0.1378-0.20671 0.34451-3.03168 0.44786-12.05783t0.86128-9.02615q0.34451-0.48232 0.62011-0.48232z" style="font-feature-settings:normal;font-variant-caps:normal;font-variant-ligatures:normal;font-variant-numeric:normal"/>
  <path d="m209.12113 190.75772q1.51584 0 3.5829 1.65364 0.34451 0.62012 0.34451 1.24024 0 3.08336-1.99816 4.27192-2.29099 0.68901-3.7896 0.68901-0.34451 0.36174-0.34451 1.10244v1.17133q0 3.73793 0.96462 8.40603 0 2.51492 1.92926 4.89204 0.60289 0.48231 0.89572 0.48231h0.48231q0.68902-0.25838 1.72255-0.89572l0.41341-0.0689q0.49954 0 0.75792 0.82683 0 1.55029-2.41156 3.10058l-1.10243 0.20671q-0.98185 0-3.4451-2.68718-1.30913-2.04983-1.30913-4.96093-0.89573-4.37528-1.03353-11.16211 0-2.75608 1.92925-6.89019 1.6192-1.37804 2.41157-1.37804zm-1.58475 5.51215 0.34451 0.20671q2.17041 0 2.89388-1.17134 0.20671-0.36173 0.20671-0.68902v-0.2756q0-1.03353-1.30914-1.03353-1.8259 0-2.13596 2.89388z" style="font-feature-settings:normal;font-variant-caps:normal;font-variant-ligatures:normal;font-variant-numeric:normal"/>
  <path d="m222.36752 195.18466q1.65365 0.56845 2.27376 1.79145l0.0689 0.34451q-0.24115 1.30914-1.10243 1.30914-0.51676 0-1.79145-1.17133h-0.55121q-1.56752 0-3.04891 1.60197t-0.43064 9.74962q1.06798 8.14765-0.15503 7.51031l-1.24023 0.0344q-0.67179-0.32729-0.82682-8.21656-0.13781-7.90649-0.46509-12.23009 0-1.10243 1.44694-1.10243 0.89572 0 0.89572 0.82683l-0.0689 1.03353q0.1378 0.31005 0.27561 0.34451h0.27561q1.58474-1.82591 4.44417-1.82591z" style="font-feature-settings:normal;font-variant-caps:normal;font-variant-ligatures:normal;font-variant-numeric:normal"/>
  <path d="m233.2368 190.9472q3.16948 0 3.16948 1.58474v0.0689q0 0.68902-1.10243 0.96463l-2.68717-0.1378q-1.27469 0-1.99816 1.72254-0.72347 0.43064-1.86035 4.20302-0.68902 2.5666-0.68902 4.75423v0.55122q0 1.99815 1.10243 6.20117 0 1.61919 2.48047 3.5829 0.63735 0.34451 1.03353 0.34451h0.55122q0.36173 0 1.37803-0.62012l0.34451-0.0689q0.89573 0.34451 0.89573 1.30914v0.0689q-0.72347 1.92925-3.514 1.92925-0.96462 0-3.44509-2.06706-0.89573-0.96462-1.10243-1.86035-1.92926-5.80498-1.92926-8.81944 0-4.30637 1.79145-9.30176 1.25746-2.46324 2.48047-3.514 1.37804-0.89572 3.10059-0.89572z" style="font-feature-settings:normal;font-variant-caps:normal;font-variant-ligatures:normal;font-variant-numeric:normal"/>
  <path d="m239.21404 190.2065q0.75792 0 1.17133 1.37804-0.34451 1.24023-1.37804 1.24023h-0.2067q-0.75792 0-0.96463-1.17133 0-0.89572 1.30914-1.44694zm0.24116 5.09874q0.75792 0 0.75792 3.16949l0.0689 3.37619q-0.17226 14.64166-0.48232 14.64166-0.75792 0.82682-1.37803 0.82682-0.75792 0-1.03353-1.92925l0.0689-0.0689v-0.0689l0.68902-6.27008 0.1378-6.75238-0.2067-5.1332q0.24115-1.79145 1.37804-1.79145z" style="font-feature-settings:normal;font-variant-caps:normal;font-variant-ligatures:normal;font-variant-numeric:normal"/>
  <path d="m249.29094 190.9472q3.16949 0 3.16949 1.58474v0.0689q0 0.68902-1.10243 0.96463l-2.68717-0.1378q-1.27469 0-1.99816 1.72254-0.72347 0.43064-1.86035 4.20302-0.68902 2.5666-0.68902 4.75423v0.55122q0 1.99815 1.10243 6.20117 0 1.61919 2.48047 3.5829 0.63734 0.34451 1.03353 0.34451h0.55121q0.36174 0 1.37804-0.62012l0.34451-0.0689q0.89573 0.34451 0.89573 1.30914v0.0689q-0.72347 1.92925-3.514 1.92925-0.96463 0-3.4451-2.06706-0.89572-0.96462-1.10243-1.86035-1.92925-5.80498-1.92925-8.81944 0-4.30637 1.79145-9.30176 1.25746-2.46324 2.48047-3.514 1.37803-0.89572 3.10058-0.89572z" style="font-feature-settings:normal;font-variant-caps:normal;font-variant-ligatures:normal;font-variant-numeric:normal"/>
  <path d="m255.26818 190.2065q0.75793 0 1.17134 1.37804-0.34451 1.24023-1.37804 1.24023h-0.20671q-0.75792 0-0.96462-1.17133 0-0.89572 1.30913-1.44694zm0.24116 5.09874q0.75792 0 0.75792 3.16949l0.0689 3.37619q-0.17225 14.64166-0.48231 14.64166-0.75792 0.82682-1.37804 0.82682-0.75792 0-1.03353-1.92925l0.0689-0.0689v-0.0689l0.68901-6.27008 0.13781-6.75238-0.20671-5.1332q0.24116-1.79145 1.37804-1.79145z" style="font-feature-settings:normal;font-variant-caps:normal;font-variant-ligatures:normal;font-variant-numeric:normal"/>
  <path d="m264.58716 194.70235q2.89388 0.56844 2.89388 1.92925 3.01446 4.49585 0.82683 14.81392-1.37804 3.60012-2.48047 4.61642-1.53307 1.92926-3.03169 1.92926-2.32544 0-3.5829-3.03169l-1.17133-5.78776v-1.03353q0-3.47954 1.17133-8.47493 0.18948-0.27561 0.34451-1.24024 1.6192-3.58289 3.10059-3.58289zm-1.30913 2.54937h-0.13781q-0.80959 0-1.10243 1.30914-1.44694 2.65272-1.44694 5.51215-0.2067 0.51677-0.2067 1.79145v2.34267q0 3.04891 1.10243 6.27007 0.51676 1.03353 1.03353 1.03353 0.82682 0 2.34266-1.99816 0.44786 0 1.44694-2.13596 0.41341-1.49861 0.82682-5.71885 0-4.15134-1.10243-6.68349-0.55121-1.49862-0.89572-1.79145z" style="font-feature-settings:normal;font-variant-caps:normal;font-variant-ligatures:normal;font-variant-numeric:normal"/>
 </g>
 <path d="m291.52802 212.11847c-1.29147 1.29147-5.11475-2.63191-6.91868-2.34619-1.80393 0.28571-4.22769 5.19852-5.85504 4.36934-1.62734-0.82917 0.92255-5.67771 0.0934-7.30506-0.82918-1.62735-6.25052-2.41434-5.96481-4.21827 0.28572-1.80393 5.68491-0.87711 6.97638-2.16858s0.36466-6.69067 2.16859-6.97639c1.80393-0.28571 2.59092 5.13563 4.21827 5.96481 1.62735 0.82917 6.47589-1.72072 7.30506-0.0934 0.82918 1.62734-4.08363 4.0511-4.36934 5.85503-0.28572 1.80393 3.63766 5.62721 2.34619 6.91868z" fill="#f57c00"/>
 <path d="m161.41336 212.11847c1.29147 1.29147 5.11475-2.63191 6.91868-2.34619 1.80393 0.28571 4.22769 5.19852 5.85503 4.36934 1.62735-0.82917-0.92254-5.67771-0.0934-7.30506 0.82918-1.62735 6.25052-2.41434 5.96481-4.21827-0.28572-1.80393-5.68492-0.87711-6.97639-2.16858s-0.36465-6.69067-2.16858-6.97639c-1.80393-0.28571-2.59092 5.13563-4.21827 5.96481-1.62735 0.82917-6.47589-1.72072-7.30507-0.0934-0.82917 1.62734 4.08364 4.0511 4.36935 5.85503 0.28572 1.80393-3.63766 5.62721-2.34619 6.91868z" fill="#f57c00"/>
 <g transform="translate(0,-6.5758721)" fill="#f57c00" stroke-width=".26458332">
  <g transform="rotate(-3.0830339,-543.3451,-655.76585)" style="font-feature-settings:normal;font-variant-caps:normal;font-variant-ligatures:normal;font-variant-numeric:normal" aria-label="Sumas y restas ">
   <path d="m63.735053 152.31168q3.110126 1.30486 6.330436 2.21089 6.444511 1.79527 6.986429-0.23633 0.270959-1.0158-1.582128-1.86997-0.556168-0.27046-4.249959-1.49849-3.004595-0.99746-4.441818-1.96737-2.03327-1.37339-2.04924-3.28682-0.0018-3.04185 0.879342-4.78258 0.860486-1.72784 2.721661-2.35714 3.323266-1.13897 11.670244 1.22132 4.064419 1.15484 5.798832 1.91076l-1.373293 5.46373q-3.097239-1.28418-6.33165-2.28189-6.418481-1.98375-6.887415-0.5718-0.440479 1.36551 2.427196 2.41962 0.895662 0.33151 2.494875 0.75546 1.783793 0.46677 2.145171 0.58594 3.835815 1.22561 5.004454 4.57344 0.545655 1.6119 0.193928 3.28091-0.38286 1.80325-1.755745 3.37689-2.884156 3.36274-11.531003 1.30424-4.321477-1.03764-8.065102-2.73698z" style="font-feature-settings:normal;font-variant-caps:normal;font-variant-ligatures:normal;font-variant-numeric:normal"/>
   <path d="m94.954824 149.31775q-0.02076 2.50051-0.418784 4.86179-0.799149 4.7395-2.366631 4.11929-1.567481-0.62021-1.064864-4.88871 0.266697-2.12267 0.941726-4.27553l-5.969531-1.44504q-1.47569 3.84487-1.545118 7.94763-0.172743 8.19932 6.790792 9.4764 6.963535 1.27707 9.265456-6.88202 1.13091-4.06571 0.89256-8.40005z" style="font-feature-settings:normal;font-variant-caps:normal;font-variant-ligatures:normal;font-variant-numeric:normal"/>
   <path d="m123.88247 151.95276q-3.64131-0.57616-5.8729 1.99161-1.2682 1.43599-1.80853 3.37697 0.40847-1.6293-0.11615-3.18403-0.29694-2.65316-2.63694-3.68598-1.89683-0.84723-4.73927 1.12796l0.3285-2.04107-6.33765-0.94674-2.43504 18.25331 6.24774 0.72496 0.98193-5.00996q1.53342-5.93998 3.36008-5.57272 1.94847 0.36738 0.99058 5.69405-0.47042 2.66457-1.33298 5.2727l6.3401 0.92969q0.56315-2.82525 1.43308-5.48454 1.22823-5.27037 2.79878-4.57451 1.59005 0.68127 0.77126 5.76692-0.60436 2.62788-1.5155 5.08981l5.97751 0.54685q1.31005-4.26663 1.71645-8.66329 0.34494-3.84862-0.37862-6.1977-0.89836-2.94854-3.77243-3.41429z" style="font-feature-settings:normal;font-variant-caps:normal;font-variant-ligatures:normal;font-variant-numeric:normal"/>
   <path d="m135.07594 166.92681q-0.57302-0.14858-0.92201-0.44619-0.33187-0.29577-0.33465-0.59061 0.0162-0.31011 0.37723-0.44434 0.41426-0.1458 1.16223-0.013 0.52535 0.10877 0.80584 0.39898 0.24624 0.28651 0.19579 0.59292-0.0523 0.32353-0.37908 0.46147-0.34761 0.17033-0.90535 0.0407zm6.00369-11.46173q-4.40177-1.27285-7.65426-1.15666-1.63574 0.0657-2.38047 0.38371l0.45453 5.09096q1.97547-0.32354 4.09351-0.0426 4.23606 0.5619 4.90721 3.64915-1.50614-1.13307-3.52466-1.85374-4.07129-1.44502-6.72067 0.62488-1.5714 1.23351-2.10275 2.9433-0.52951 1.69267 0.13886 3.20297 0.70864 1.61861 2.52026 2.49016 2.02685 0.96413 5.04328 0.78778 2.46101-0.1671 4.10878-1.94679l-0.51331 2.02361 5.83987 0.63133q1.43346-3.48347 1.62368-7.32656 0.17264-3.35988-0.98312-5.65055-1.42375-2.85675-4.85074-3.85096z" style="font-feature-settings:normal;font-variant-caps:normal;font-variant-ligatures:normal;font-variant-numeric:normal"/>
   <path d="m149.9081 165.5161q1.52294 0.81659 2.7324 1.45184 3.32525 2.01911 4.06278 1.45755 0.26999-0.34075 0.11949-0.61238-0.15049-0.27164-1.62899-0.99815-1.45992-0.74227-3.36619-1.52124-1.90627-0.77898-2.49296-2.26177-0.55659-1.42846 0.13559-2.90978 0.75356-1.59726 2.58371-2.41464 2.11612-0.93213 5.08774-0.49763 2.51092 0.36204 4.93549 1.56388 1.13092 0.74978 1.74821 1.44004l-2.44264 3.22128q-0.94207-0.73425-1.86228-1.10374-2.99698-1.38718-3.26748-0.19958-0.044 0.32478 0.49289 0.73188 0.55546 0.39135 2.40153 1.06168 1.86465 0.65457 3.00262 1.31851 1.69626 1.02096 1.91582 2.97478 0.23391 1.98957-1.54925 3.91696-1.84478 1.83591-5.98356 1.51284-3.60801-0.26215-9.478-3.49297z" style="font-feature-settings:normal;font-variant-caps:normal;font-variant-ligatures:normal;font-variant-numeric:normal"/>
   <path d="m185.40115 157.31709q0.58702 4.1137 0.14651 7.69739-1.0377 6.07383-4.05519 4.19362-1.46463-0.77426-1.40179-6.27209 0.21566-2.81806 0.7183-5.50222l-6.44959-0.36521q-0.78306 3.53346-0.67074 7.47017 0.24185 7.87421 4.77043 9.8928 2.41639 1.07663 5.21917 0.49838 1.3924-0.28092 2.31168-0.77325 0.23982 2.28717-0.55974 4.30244-1.58269 4.04854-6.77639 2.62017l-1.40063 6.09165q0.94938 0.35399 2.39005 0.52362 2.87977 0.37369 5.2314-0.51843 7.52658-2.80988 7.07578-17.0221-0.26916-8.03065 0.9413-12.23423z" style="font-feature-settings:normal;font-variant-caps:normal;font-variant-ligatures:normal;font-variant-numeric:normal"/>
   <path d="m207.84873 157.76495-5.51351 0.0634 0.19204 17.67754 5.6648 0.21429-0.12555-7.28874q0.80737-3.65846 4.16067-4.49177 1.67677-0.42527 3.18852-0.112l0.0984-6.01091q-4.84155 0.0552-7.62574 2.11935z" style="font-feature-settings:normal;font-variant-caps:normal;font-variant-ligatures:normal;font-variant-numeric:normal"/>
   <path d="m225.25983 162.70898q1.51393-0.28591 2.20809 0.4673 0.3472 0.39384 0.38458 0.82423l-4.64772 0.4795q-0.0711-0.32681 0.13288-0.72439 0.42547-0.76084 1.92217-1.04664zm-0.65688 7.25657q-0.8991-0.49343-1.23236-1.36969-0.17518-0.42945-0.1603-0.77407l11.54865-1.45665q-0.412-2.32269-2.01159-4.49949-3.23375-4.3706-9.29311-3.76091-3.46002 0.35083-5.45859 2.82773-1.81086 2.21723-1.96119 5.4395-0.16826 3.11902 1.26178 5.69318 1.53467 2.76292 4.26221 3.62288 4.73022 1.51814 9.07293-0.75077 2.17997-1.13452 3.39334-2.55529l-3.72965-3.83322q-0.80489 0.69451-1.921 1.21888-2.21489 1.06585-3.77112 0.19792z" style="font-feature-settings:normal;font-variant-caps:normal;font-variant-ligatures:normal;font-variant-numeric:normal"/>
   <path d="m237.62673 168.41086q1.60403 0.64286 2.87642 1.14022 3.52845 1.63833 4.19923 0.99852 0.23058-0.36856 0.0509-0.62185-0.17966-0.25329-1.72954-0.81155-1.53316-0.57598-3.51399-1.13899t-2.72816-1.97168q-0.71141-1.35802-0.18758-2.9069 0.57199-1.6709 2.30033-2.68599 1.99984-1.1608 5.0013-1.05816 2.53557 0.0817 5.07836 1.00752 1.20701 0.61989 1.89697 1.23752l-2.07077 3.47204q-1.01761-0.62537-1.97309-0.89066-3.1322-1.04665-3.26948 0.16362-8e-3 0.32764 0.57093 0.67277 0.5954 0.32741 2.50436 0.78911 1.92569 0.44398 3.1302 0.97778 1.79892 0.82677 2.23356 2.74425 0.45287 1.95141-1.10581 4.06447-1.63005 2.02897-5.77915 2.16636-3.61484 0.13914-9.8066-2.42155z" style="font-feature-settings:normal;font-variant-caps:normal;font-variant-ligatures:normal;font-variant-numeric:normal"/>
   <path d="m257.04591 151.01728 0.10007 5.56559-4.64074-0.0314-0.0392 5.53792 4.75949-9e-3 0.41662 13.08665 5.86481 0.0233-0.4716-13.15294 4.49216-0.18548-0.15169-5.56307-4.47747 0.13302-0.14158-5.35661z" style="font-feature-settings:normal;font-variant-caps:normal;font-variant-ligatures:normal;font-variant-numeric:normal"/>
   <path d="m275.97337 169.59313q-0.59025-0.045-0.98632-0.27634-0.37889-0.23251-0.43369-0.52222-0.0388-0.3081 0.29282-0.50398 0.38199-0.21667 1.14167-0.21803 0.53629 0.0143 0.86363 0.25039 0.29297 0.23852 0.29743 0.54902 6e-3 0.32769-0.29162 0.52117-0.31206 0.22904-0.88392 0.19999zm3.88502-12.34189q-4.55737-0.47543-7.73822 0.21336-1.59841 0.35359-2.27528 0.79811l1.34652 4.93065q1.88728-0.66735 4.02163-0.76489 4.26872-0.19508 5.47456 2.72511-1.68257-0.84925-3.79664-1.20209-4.2625-0.70327-6.50467 1.802-1.32884 1.49166-1.54987 3.26842-0.22223 1.75958 0.70237 3.12809 0.98336 1.46801 2.92043 2.00591 2.16527 0.591 5.10314-0.11532 2.39281-0.59912 3.70036-2.64185l-0.14784 2.08246 5.85956-0.40999q0.7957-3.68187 0.3042-7.49816-0.42347-3.33755-1.96563-5.38809-1.90591-2.56039-5.45462-2.93372z" style="font-feature-settings:normal;font-variant-caps:normal;font-variant-ligatures:normal;font-variant-numeric:normal"/>
   <path d="m290.35544 165.59825q1.64103 0.54145 2.942 0.9584 3.62385 1.41482 4.25338 0.73438 0.20712-0.38224 0.012-0.62382-0.19512-0.24157-1.77683-0.70197-1.56613-0.47913-3.57825-0.91737t-2.84595-1.7975q-0.79481-1.31094-0.36871-2.88951 0.46654-1.70335 2.12813-2.82437 1.92346-1.28341 4.92548-1.36837 2.53572-0.0768 5.13136 0.68848 1.24335 0.54332 1.97053 1.11666l-1.84995 3.59456q-1.05466-0.56061-2.02484-0.76572-3.19144-0.84905-3.25288 0.36743 0.0127 0.32749 0.61182 0.63581 0.61467 0.2896 2.54874 0.63121 1.94965 0.32288 3.18515 0.78043 1.84702 0.71284 2.40054 2.59943 0.57382 1.91933-0.84988 4.12559-1.50019 2.12678-5.63262 2.52296-3.59909 0.36458-9.93866-1.80452z" style="font-feature-settings:normal;font-variant-caps:normal;font-variant-ligatures:normal;font-variant-numeric:normal"/>
  </g>
  <g transform="rotate(-4.6226767,194.9612,-624.40102)" style="font-feature-settings:normal;font-variant-caps:normal;font-variant-ligatures:normal;font-variant-numeric:normal" aria-label="de decimales">
   <path d="m72.395681 154.19685q-0.831475 9.6e-4 -1.398683-0.44945-0.47436-0.39343-0.515981-0.89833-2.56e-4 -0.53064 0.50119-0.78531 0.593142-0.26868 1.65789-0.0562 0.486526 0.11327 0.864132 0.46648 0.373699 0.36999 0.42198 0.77032 0.06115 0.42102-0.302174 0.69016-0.387915 0.29878-1.228354 0.26228zm-4.998002-8.5388q-2.015902 0.91017-3.40434 3.1514-1.008784 2.20583-0.763216 4.72138 0.566632 2.7318 2.100745 4.57462 1.746704 2.06918 4.640568 2.47765 2.324607 0.34667 3.726684-0.28194 1.402077-0.62862 1.870418-1.12091l-0.609343 2.61718 6.112505 1.77686 5.071393-22.46569-6.712564-1.93426-1.980365 8.50582q-1.130062-1.14741-2.952775-1.97857-3.64933-1.64553-7.09971-0.0435z" style="font-feature-settings:normal;font-variant-caps:normal;font-variant-ligatures:normal;font-variant-numeric:normal"/>
   <path d="m93.627001 152.05131q1.540692 2e-3 2.081972 0.87146 0.267538 0.45174 0.223882 0.88154l-4.655502-0.39693q-0.0088-0.33434 0.265824-0.68683 0.560075-0.66799 2.083824-0.66924zm-2.000537 7.00622q-0.791133-0.65266-0.954878-1.57574-0.0919-0.45461-0.01292-0.79039l11.617514 0.72576q0.029-2.35877-1.1359-4.79601-2.360622-4.89762-8.427238-5.43029-3.46466-0.30151-5.890648 1.75856-2.193079 1.84004-2.942545 4.97753-0.747799 3.03273 0.176339 5.82866 0.991683 3.00093 3.510633 4.35514 4.363475 2.37483 9.053513 0.95687 2.353491-0.70744 3.810856-1.87661l-2.948154-4.46231q-0.920434 0.53197-2.114841 0.83867-2.374972 0.63346-3.741735-0.50984z" style="font-feature-settings:normal;font-variant-caps:normal;font-variant-ligatures:normal;font-variant-numeric:normal"/>
   <path d="m120.33299 162.7061q-0.82753 0.0809-1.4354-0.31296-0.50997-0.34602-0.59991-0.84459-0.0512-0.52816 0.4234-0.82983 0.56458-0.32444 1.64482-0.21522 0.49516 0.066 0.90496 0.38129 0.40753 0.33236 0.49405 0.72621 0.10133 0.41319-0.23445 0.71599-0.35741 0.33468-1.19747 0.37911zm-5.79541-8.01899q-1.91911 1.09968-3.08575 3.46396-0.79214 2.29256-0.30598 4.77288 0.82653 2.6647 2.53063 4.35157 1.93746 1.89174 4.85719 2.02023 2.34716 0.12169 3.68234-0.63875t1.75405-1.29546l-0.35503 2.66362 6.25497 1.18125 2.88905-22.84906-6.86737-1.28026-1.15382 8.65677q-1.2351-1.03351-3.12925-1.68567-3.79057-1.28723-7.07103 0.63892z" style="font-feature-settings:normal;font-variant-caps:normal;font-variant-ligatures:normal;font-variant-numeric:normal"/>
   <path d="m141.45736 158.78977q1.53614-0.11842 2.14365 0.70628 0.30198 0.42949 0.29201 0.86138l-4.67229-0.0323q-0.0349-0.33263 0.21141-0.70549 0.50622-0.70966 2.02522-0.82985zm-1.44755 7.141q-0.83966-0.58892-1.07496-1.4964-0.1271-0.44605-0.0746-0.78697l11.63871-0.18328q-0.15518-2.35384-1.50679-4.69271-2.73571-4.69842-8.82539-4.75592-3.47763-0.0302-5.73541 2.213-2.04276 2.00561-2.54504 5.19203-0.50879 3.08184 0.63077 5.79711 1.2229 2.91436 3.83987 4.06782 4.53553 2.02699 9.10058 0.24726 2.29109-0.88898 3.65274-2.16835l-3.28747-4.21857q-0.8761 0.6022-2.04292 1.0012-2.31828 0.8169-3.77012-0.21622z" style="font-feature-settings:normal;font-variant-caps:normal;font-variant-ligatures:normal;font-variant-numeric:normal"/>
   <path d="m162.68343 163.5037q-0.56995-0.66652-1.40313-1.05987-1.64918-0.78536-2.87809 0.57001-0.70113 0.79186-0.54628 1.68513 0.10869 0.82055 0.87291 1.43313 0.78274 0.59675 1.83165 0.66139 1.15462 0.0383 2.20968-0.63949l4.03042 3.70124q-1.36146 1.72514-3.67203 2.77142-4.63696 2.07404-9.40099-1.30438-2.50411-1.78514-2.74946-5.50178-0.22173-3.57657 1.71983-6.53496 2.08323-3.22378 5.57152-3.64247 4.0617-0.46029 8.79891 3.2616z" style="font-feature-settings:normal;font-variant-caps:normal;font-variant-ligatures:normal;font-variant-numeric:normal"/>
   <path d="m171.59566 156.29354q1.72245 0.0548 2.69536-0.886 0.89881-0.85909 0.90982-2.15279 0.01-1.2765-0.8277-2.24303-0.90109-1.05673-2.44629-1.18685-1.38941-0.13774-2.38164 0.83637-0.90094 0.89347-1.06881 2.21199-0.1528 1.35396 0.58275 2.2969 0.84844 1.07074 2.53651 1.12341zm2.5452 1.26201-5.43393-0.31894-1.11547 16.91327 5.57909 0.48324z" style="font-feature-settings:normal;font-variant-caps:normal;font-variant-ligatures:normal;font-variant-numeric:normal"/>
   <path d="m196.6162 157.62735q-3.68133-0.19735-5.63604 2.58699-1.11326 1.55919-1.45042 3.54557 0.23816-1.66276-0.44408-3.15506-0.56913-2.60835-3.00322-3.3942-1.97412-0.64698-4.59757 1.61098l0.11613-2.06408-6.40151-0.28771-0.53852 18.40713 6.28919 0.0764 0.45972-5.08454q0.9123-6.0665 2.76711-5.88969 1.97598 0.16436 1.57285 5.56144-0.19296 2.69888-0.78179 5.38211l6.40219 0.27049q0.26861-2.86827 0.85949-5.60313 0.67784-5.36898 2.31181-4.83889 1.65186 0.51356 1.36222 5.65654-0.32997 2.67623-0.98221 5.21903l6.00204-0.0729q0.86278-4.37904 0.81333-8.79417-0.054-3.86366-1.01612-6.12555-1.19782-2.84009-4.1046-3.00679z" style="font-feature-settings:normal;font-variant-caps:normal;font-variant-ligatures:normal;font-variant-numeric:normal"/>
   <path d="m209.32073 171.43138q-0.58476-0.0921-0.96107-0.35429-0.35909-0.26205-0.39056-0.55522-0.0141-0.31021 0.33216-0.47896 0.3981-0.18544 1.15545-0.12607 0.53344 0.0571 0.84086 0.31862 0.27296 0.26117 0.25259 0.57104-0.0206 0.32709-0.33235 0.49619-0.32936 0.20337-0.89708 0.12869zm4.85914-11.99184q-4.50479-0.8382-7.73052-0.40587-1.62156 0.22468-2.33179 0.61367l0.94808 5.02251q1.93458-0.51435 4.0699-0.44097 4.27065 0.14676 5.23922 3.154-1.60931-0.98104-3.68841-1.50173-4.19265-1.04175-6.6279 1.27629-1.44382 1.38066-1.80617 3.13406-0.36217 1.73619 0.45008 3.17423 0.86287 1.54192 2.75075 2.23293 2.11109 0.76219 5.09603 0.29297 2.43304-0.40593 3.89969-2.3376l-0.31383 2.06397 5.87359 0.0597q1.08746-3.60649 0.90258-7.44984-0.15533-3.36073-1.52864-5.52798-1.69515-2.70454-5.20266-3.36034z" style="font-feature-settings:normal;font-variant-caps:normal;font-variant-ligatures:normal;font-variant-numeric:normal"/>
   <path d="m221.272 152.91615 0.14803 22.82328 7.07953-0.0459 0.16-23.13534z" style="font-feature-settings:normal;font-variant-caps:normal;font-variant-ligatures:normal;font-variant-numeric:normal"/>
   <path d="m238.27661 162.51687q1.50918-0.31 2.21525 0.43206 0.35343 0.38826 0.39766 0.818l-4.63949 0.55347q-0.0763-0.32563 0.12132-0.72642 0.4133-0.76751 1.90526-1.07711zm-0.54121 7.2661q-0.90685-0.47904-1.25402-1.34988-0.182-0.42661-0.17261-0.77142l11.52398-1.64042q-0.44894-2.31584-2.08301-4.46688-3.30296-4.31853-9.35184-3.61241-3.45398 0.40591-5.41285 2.91433-1.77531 2.2458-1.87429 5.47004-0.11856 3.12132 1.3523 5.67236 1.57849 2.73813 4.31938 3.55453 4.75381 1.44261 9.05982-0.89519 2.16162-1.1691 3.3522-2.60903l-3.79023-3.77332q-0.79372 0.70725-1.90134 1.24933-2.19763 1.10099-3.76749 0.25796z" style="font-feature-settings:normal;font-variant-caps:normal;font-variant-ligatures:normal;font-variant-numeric:normal"/>
   <path d="m250.73529 168.02184q1.61392 0.61758 2.89397 1.0949 3.55375 1.5827 4.21439 0.93245 0.22477-0.37214 0.0411-0.62258-0.18362-0.25043-1.74207-0.78428-1.54201-0.55183-3.53145-1.08366-1.98943-0.53183-2.75879-1.92859-0.73265-1.34668-0.23322-2.90359 0.54568-1.67969 2.25786-2.72179 1.98137-1.19207 4.98407-1.13659 2.53654 0.0418 5.09356 0.92764 1.21659 0.60085 1.91617 1.20757l-2.01599 3.50414q-1.0273-0.60931-1.98683-0.85956-3.14825-0.99733-3.2665 0.21494-3e-3 0.32773 0.58143 0.66373 0.60046 0.31802 2.51644 0.74968 1.93242 0.41368 3.14517 0.92849 1.81168 0.79842 2.27639 2.70883 0.48346 1.94406-1.04184 4.08134-1.59798 2.05432-5.74441 2.25686-3.61221 0.1959-9.84343-2.26722z" style="font-feature-settings:normal;font-variant-caps:normal;font-variant-ligatures:normal;font-variant-numeric:normal"/>
  </g>
 </g>
 <g>
  <g fill="#fff" stroke="#f57c00" stroke-width="1.73088253">
   <g style="font-feature-settings:normal;font-variant-caps:normal;font-variant-ligatures:normal;font-variant-numeric:normal" aria-label="2.5">
    <path d="m306.5343 17.173984q-6.7838-4.124368-12.62102-0.06761-2.92988 2.141066-5.16109 5.29632l4.55258 5.769608q0.58597-0.946576 1.64524-1.757927 2.3439-2.343904 4.71034-1.848078 1.32972 0.292988 1.0818 1.803003-0.20283 1.284639-1.51001 3.358092-2.45659 3.853918-5.99498 6.197821-1.53256 1.307177-2.83973 2.298828l-0.5409 7.978286 18.32301 0.383138 0.0225-7.640223-9.26293 0.428213q4.39482-4.056755 7.52754-8.834712 2.74958-4.169443 3.0651-7.324698 0.42821-3.944068-2.99749-6.040058z" style="font-feature-settings:normal;font-variant-caps:normal;font-variant-ligatures:normal;font-variant-numeric:normal"/>
    <path d="m313.76885 46.405162q-1.51002 0.135225-2.41152-0.946576-0.81135-0.946577-0.85642-2.434054-0.0451-1.442402 0.67612-2.456591 0.78882-1.104339 2.1636-1.036726 2.56928 0.112688 3.76377 1.171952 1.01419 0.901501 0.81135 2.253753-0.22537 1.262101-1.37479 2.253753-1.19448 1.059264-2.77211 1.194489z" style="font-feature-settings:normal;font-variant-caps:normal;font-variant-ligatures:normal;font-variant-numeric:normal"/>
    <path d="m324.38403 23.033742 11.8322 0.495826 0.69866-6.648572-18.27793-0.698664 0.29298 13.928195q2.79466-0.585976 5.20617-0.360601 4.82303 0.473288 4.93572 4.575119 0.13523 4.124368-4.05675 4.687807-2.09599 0.292988-4.23706-0.247913l-0.40567 6.806334q4.46243 0.540901 8.87978-0.585975 8.81218-2.208679 8.38396-10.434877-0.38313-8.226199-6.89648-9.871439-3.22287-1.036727-6.40066-0.202838z" style="font-feature-settings:normal;font-variant-caps:normal;font-variant-ligatures:normal;font-variant-numeric:normal"/>
   </g>
   <g style="font-feature-settings:normal;font-variant-caps:normal;font-variant-ligatures:normal;font-variant-numeric:normal" aria-label="3.4">
    <path d="m186.69236 16.111835 0.20284 6.873947 8.67695-0.202838-7.30216 5.29632q2.00584-0.292988 3.94407 0.225375 3.92153 1.036727 3.80884 5.11602-0.13522 4.10183-3.94407 4.034218-1.91569-0.04508-3.80884-0.901501l-1.78046 7.347235q3.2454 1.036726 7.07678 1.104339 7.59515 0.157763 10.3898-4.620194 3.83138-6.580959-0.0676-11.133541-1.96076-2.27629-4.48497-3.470779l7.79799-9.578451z" style="font-feature-settings:normal;font-variant-caps:normal;font-variant-ligatures:normal;font-variant-numeric:normal"/>
    <path d="m211.70902 45.636001q-1.51001 0.135225-2.41151-0.946577-0.81135-0.946576-0.85643-2.434053-0.0451-1.442402 0.67613-2.456591 0.78881-1.104339 2.1636-1.036726 2.56928 0.112687 3.76377 1.171951 1.01419 0.901502 0.81135 2.253753-0.22538 1.262102-1.37479 2.253754-1.19449 1.059264-2.77212 1.194489z" style="font-feature-settings:normal;font-variant-caps:normal;font-variant-ligatures:normal;font-variant-numeric:normal"/>
    <path d="m229.24322 25.757898h-4.71034l0.20284-10.096814-7.77545 0.225375v16.362248l11.85474 0.428213-0.85643 13.139381 8.15859 0.202838 0.65359-30.358055h-7.3247z" style="font-feature-settings:normal;font-variant-caps:normal;font-variant-ligatures:normal;font-variant-numeric:normal"/>
   </g>
   <g style="font-feature-settings:normal;font-variant-caps:normal;font-variant-ligatures:normal;font-variant-numeric:normal" aria-label="6.7">
    <path d="m94.481552 36.827811q-0.788814 0.06761-1.217027-0.405675-0.383138-0.405676-0.383138-1.059264 0-0.653589 0.315525-1.171952 0.338063-0.540901 0.878964-0.631051 1.284639-0.225375 1.91569 0.225376 0.563438 0.383138 0.495826 1.104339-0.06761 0.676126-0.608513 1.239564-0.585976 0.608513-1.397327 0.698663zm-0.540901-10.299652q-0.270451-0.946576 0.27045-1.735389 1.126877-1.600165 5.273783-0.878964l1.194486-7.009172q-1.036724-0.518364-2.884801-0.653589-3.718693-0.225375-7.775449 1.757928-2.118528 1.036726-4.034218 4.935719-1.960765 4.034218-2.321365 8.406499-0.383138 5.02587 1.690314 8.383962 2.434054 3.966605 7.955749 4.845569 4.777957 0.766276 8.00082-1.893153 2.90735-2.388978 3.24541-6.287971 0.33806-3.92153-2.23122-6.693647-2.907339-3.132716-8.383959-3.177792z" style="font-feature-settings:normal;font-variant-caps:normal;font-variant-ligatures:normal;font-variant-numeric:normal"/>
    <path d="m108.6802 45.437148q-1.51002 0.135225-2.41152-0.946576-0.81135-0.946576-0.85643-2.434053-0.0451-1.442402 0.67613-2.456591 0.78881-1.104339 2.1636-1.036727 2.56928 0.112688 3.76377 1.171952 1.01419 0.901501 0.81135 2.253753-0.22537 1.262102-1.37479 2.253753-1.19449 1.059264-2.77211 1.194489z" style="font-feature-settings:normal;font-variant-caps:normal;font-variant-ligatures:normal;font-variant-numeric:normal"/>
    <path d="m114.53995 25.288595 7.3247-0.202838-6.73872 19.111827 9.06009 0.766276 9.8489-28.532515-19.8781 0.202838z" style="font-feature-settings:normal;font-variant-caps:normal;font-variant-ligatures:normal;font-variant-numeric:normal"/>
   </g>
  </g>
  <g transform="matrix(.05960445 0 0 .05960445 145.0214 15.59933)" fill="#00c853">
   <g fill="#00c853">
    <g fill="#00c853">
     <path d="m477.549 182.379h-148.531v-148.532c0-18.69-15.154-33.844-33.844-33.844h-78.954c-18.69 0-33.844 15.153-33.844 33.844v148.526h-148.532c-18.691 0-33.844 15.153-33.844 33.843v78.966c0 18.691 15.153 33.844 33.844 33.844h148.532v148.527c0 18.689 15.153 33.842 33.844 33.842h78.96c18.691 0 33.844-15.152 33.844-33.842v-148.527h148.533c18.689 0 33.842-15.152 33.842-33.844v-78.966c-6e-3 -18.69-15.153-33.837-33.85-33.837z" fill="#00c853"/>
    </g>
   </g>
  </g>
  <rect x="247.75725" y="26.705103" width="30.00844" height="8.2700424" ry="1.8903348" fill="#e91e63"/>
  <g transform="matrix(1.1127977,0,0,1.1127977,51.475201,-268.83571)" fill="#2196f3">
   <rect x="267.04517" y="261.18777" width="20.065744" height="6.8308921" ry="1.5613792"/>
   <rect x="267.04517" y="270.58026" width="20.065744" height="6.8308921" ry="1.5613792"/>
  </g>
 </g>
</svg>
