<?xml version="1.0" encoding="UTF-8"?>
<!-- Created with Inkscape (http://www.inkscape.org/) -->
<svg width="187.32526mm" height="66.145981mm" version="1.1" viewBox="0 0 187.32526 66.145981" xmlns="http://www.w3.org/2000/svg" xmlns:cc="http://creativecommons.org/ns#" xmlns:dc="http://purl.org/dc/elements/1.1/" xmlns:rdf="http://www.w3.org/1999/02/22-rdf-syntax-ns#">
 <metadata>
  <rdf:RDF>
   <cc:Work rdf:about="">
    <dc:format>image/svg+xml</dc:format>
    <dc:type rdf:resource="http://purl.org/dc/dcmitype/StillImage"/>
    <dc:title/>
   </cc:Work>
  </rdf:RDF>
 </metadata>
 <g fill="#f9eab0">
  <polygon transform="matrix(3.4969519,0,0,3.4969519,110.65151,823.69953)" points=""/>
  <polygon transform="matrix(3.4969519,0,0,3.4969519,178.98773,421.45946)" points=""/>
  <polygon transform="matrix(3.4969519,0,0,3.4969519,323.14405,441.7649)" points=""/>
 </g>
 <g transform="translate(204.77975,-16.327023)">
  <rect x="-204.7795" y="16.327023" width="187.325" height="66.145836" fill="#2196f3"/>
  <path transform="scale(.26458333)" d="m-773.9707 61.708984v23.152344l17.78515 13.53711 16.96875-36.689454zm47.64843 0 38.66016 61.552736v-44.873048l58.82227 11.521484-13.37696-28.201172zm173.36524 0-44.95703 23.34961 15.16015 37.595706-55.78906-6.0625-12.12891 83.07617-83.68359-86.71485-39.61523 57.72657v71.30078l49.92382-18.66211 2.42579 56.39453 84.89648-47.29883 54.57813 57.00196 89.14062-40.02149 45.66602 62.31445h134.375l58.27539-55.03906-95.20508-32.74609 51.54492-50.9375-82.47266-63.06641 74.99805-48.210936h-84.96875l-27.625 61.552736 65.49024 46.08594-29.71289 29.10742 49.11914 75.19531-57.60938-35.7793-20.61719 57.00196-39.41601-106.72657-85.50391 49.11914 3.63867-47.29882-87.32226 26.68164 15.16015-67.31055 41.23633-11.52344-3.63867-48.511716 68.7793-27.59375zm75.16992 0-94.6582 107.638676 67.91797-30.32032 5.45703 42.44922 47.90625-24.86328 38.81054 68.52344 7.88282-50.33008-60.64063-57.00195 63.70117-56.095706zm186.68164 0c-11.07735 15.739697-25.60237 36.431246-28.46875 40.935546-4.24482 6.67044 100.05664 30.92578 100.05664 30.92578l-34.5664 70.94922 49.72656 32.74609-50.93946 56.39454 24.7129 18.04882h56.44726l-22.33789-18.65429 47.29883-28.50196-46.08594-66.09765 73.375 36.99219 0.60547-50.33204 55.310547 40.77735v-65.60156l-23.169922 21.79101-44.874995-70.3418-46.08594 28.5-41.73438-78.531246zm122.10156 0 2.84961 21.529297 61.2461-6.669922 16.373044 59.427731 22.564453-0.81445v-73.472656zm76.224613 171.312496 3.638672 23.64844h-38.810545l32.13867 38.81055h-46.69141l1.68555 16.22851h74.847657v-57.44921zm-681.191403 35.23829v43.44921h15.90625l-4.18555-42.30468zm136.64062 10.24218-86.07617 33.20703h116.72852zm130.37696 22.43555-37.56836 10.77148h65.43359z" fill="#43a6f5"/>
 </g>
 <g transform="translate(4.8780694e-4)">
  <g fill="#9c27b0" stroke="#0965af" stroke-width=".26458332" style="font-feature-settings:normal;font-variant-caps:normal;font-variant-ligatures:normal;font-variant-numeric:normal" aria-label="SUMAS">
   <path d="m59.988983 54.220572q1.99471 0.341065 3.999756 0.434082 4.010091 0.1757 4.051432-1.085205 0.02067-0.630452-1.178223-0.878499-0.361735-0.08268-2.687174-0.299723-1.891357-0.1757-2.862874-0.547771-1.374593-0.527099-1.643311-1.64331-0.413411-1.777669-0.134358-2.914551 0.268717-1.126546 1.27124-1.746663 1.788004-1.116211 6.986653-0.868164 2.532145 0.124023 3.648356 0.330729l-0.06201 3.379639q-1.984374-0.33073-4.010091-0.475424-4.020426-0.289388-4.103108 0.599447-0.07235 0.857829 1.746663 1.085205 0.568441 0.07235 1.560628 0.103353 1.105876 0.03101 1.333252 0.05168 2.408122 0.196371 3.545003 1.994711 0.537435 0.868164 0.558106 1.891357 0.02067 1.105876-0.568441 2.211751-1.229899 2.356445-6.562907 2.32544-2.666503-0.02067-5.08496-0.506429z" style="font-feature-settings:normal;font-variant-caps:normal;font-variant-ligatures:normal;font-variant-numeric:normal"/>
   <path d="m76.587453 44.619091q-0.382406 2.604493-0.248047 5.198649 0.279053 5.188314 2.87321 5.146973 2.594157-0.03101 2.573486-5.188314 0-2.583821-0.5271-5.157308h3.379639q0.609782 3.472657 0.258382 6.893636-0.310058 2.997233-1.44694 4.67155-1.415934 2.087727-4.051432 1.974039-5.002279-0.206705-6.242513-4.909261-0.661458-2.521809-0.206706-8.371581z" style="font-feature-settings:normal;font-variant-caps:normal;font-variant-ligatures:normal;font-variant-numeric:normal"/>
   <path d="m90.281707 44.619091-4.371826 0.07235-0.330729 13.342855h4.227132l0.19637-8.847005 3.22461 5.229655 3.152262-4.764567-0.165365 8.443929 4.320149 0.07235 0.33073-13.384196-4.392497-0.06201-3.110921 5.022949z" style="font-feature-settings:normal;font-variant-caps:normal;font-variant-ligatures:normal;font-variant-numeric:normal"/>
   <path d="m105.53659 44.619091-4.19613 13.549561 3.94808-0.01034 0.80616-2.470133 4.03076 0.04134 0.51676 2.397786 4.26847 0.02067-3.26595-13.487548zm1.69499 7.648112 1.28157-3.906738 0.86817 3.96875z" style="font-feature-settings:normal;font-variant-caps:normal;font-variant-ligatures:normal;font-variant-numeric:normal"/>
   <path d="m115.88221 54.220572q1.99471 0.341065 3.99976 0.434082 4.01009 0.1757 4.05143-1.085205 0.0207-0.630452-1.17822-0.878499-0.36174-0.08268-2.68718-0.299723-1.89136-0.1757-2.86287-0.547771-1.3746-0.527099-1.64331-1.64331-0.41342-1.777669-0.13436-2.914551 0.26871-1.126546 1.27124-1.746663 1.788-1.116211 6.98665-0.868164 2.53215 0.124023 3.64836 0.330729l-0.062 3.379639q-1.98438-0.33073-4.0101-0.475424-4.02042-0.289388-4.1031 0.599447-0.0724 0.857829 1.74666 1.085205 0.56844 0.07235 1.56063 0.103353 1.10587 0.03101 1.33325 0.05168 2.40812 0.196371 3.545 1.994711 0.53744 0.868164 0.55811 1.891357 0.0207 1.105876-0.56844 2.211751-1.2299 2.356445-6.56291 2.32544-2.6665-0.02067-5.08496-0.506429z" style="font-feature-settings:normal;font-variant-caps:normal;font-variant-ligatures:normal;font-variant-numeric:normal"/>
  </g>
  <g transform="matrix(.63387216 0 0 .63387216 -62.695104 -41.187488)">
   <g fill="#fff" stroke="#9c27b0" stroke-width="1.05833328" style="font-feature-settings:normal;font-variant-caps:normal;font-variant-ligatures:normal;font-variant-numeric:normal" aria-label="53">
    <path d="m250.30328 81.11946 7.2347 0.303168 0.42719-4.065212-11.17589-0.427192 0.17915 8.516276q1.70877-0.35829 3.18327-0.220487 2.949 0.289388 3.0179 2.797418 0.0827 2.52181-2.48047 2.866319-1.28157 0.179145-2.59071-0.151584l-0.24805 4.161675q2.72852 0.330729 5.42947-0.35829 5.38813-1.350477 5.1263-6.380316-0.23426-5.02984-4.21679-6.035807-1.9706-0.633898-3.91363-0.124024z" style="font-feature-settings:normal;font-variant-caps:normal;font-variant-ligatures:normal;font-variant-numeric:normal"/>
    <path d="m259.32943 77.357416 0.12402 4.203016 5.30545-0.124023-4.46484 3.238389q1.22645-0.179145 2.41156 0.137804 2.39779 0.633898 2.32889 3.128147-0.0827 2.508029-2.41157 2.466688-1.17133-0.02756-2.32888-0.551215l-1.08865 4.492404q1.98437 0.633898 4.32704 0.675239 4.64398 0.09646 6.35275-2.824978 2.34267-4.023872-0.0413-6.807509-1.19889-1.391818-2.74229-2.122179l4.76801-5.856662z" style="font-feature-settings:normal;font-variant-caps:normal;font-variant-ligatures:normal;font-variant-numeric:normal"/>
   </g>
   <g fill="#fff" stroke="#9c27b0" stroke-width="1.05833328" style="font-feature-settings:normal;font-variant-caps:normal;font-variant-ligatures:normal;font-variant-numeric:normal" aria-label="24">
    <path d="m257.08323 99.969117q-4.14789-2.52181-7.71701-0.04134-1.79145 1.309133-3.15571 3.238393l2.78364 3.52777q0.35829-0.57877 1.00597-1.07487 1.43316-1.43316 2.8801-1.12999 0.81304 0.17915 0.66145 1.10243-0.12402 0.78548-0.92328 2.05328-1.50206 2.35644-3.66558 3.7896-0.93707 0.79927-1.73633 1.4056l-0.33073 4.87826 11.20345 0.23426 0.0138-4.67154-5.66374 0.26182q2.68718-2.48047 4.60265-5.40191 1.68121-2.54937 1.87413-4.47862 0.26183-2.41157-1.83279-3.693142z" style="font-feature-settings:normal;font-variant-caps:normal;font-variant-ligatures:normal;font-variant-numeric:normal"/>
    <path d="m267.26694 105.68798h-2.8801l0.12402-6.173616-4.75423 0.137804v10.004552l7.24848 0.26183-0.52366 8.03396 4.9885 0.12403 0.39963-18.562176h-4.47862z" style="font-feature-settings:normal;font-variant-caps:normal;font-variant-ligatures:normal;font-variant-numeric:normal"/>
   </g>
   <g transform="matrix(.03431939 0 0 .03431939 220.94278 101.05494)" fill="#9c27b0">
    <g fill="#9c27b0">
     <g fill="#9c27b0">
      <path d="m477.549 182.379h-148.531v-148.532c0-18.69-15.154-33.844-33.844-33.844h-78.954c-18.69 0-33.844 15.153-33.844 33.844v148.526h-148.532c-18.691 0-33.844 15.153-33.844 33.843v78.966c0 18.691 15.153 33.844 33.844 33.844h148.532v148.527c0 18.689 15.153 33.842 33.844 33.842h78.96c18.691 0 33.844-15.152 33.844-33.842v-148.527h148.533c18.689 0 33.842-15.152 33.842-33.844v-78.966c-6e-3 -18.69-15.153-33.837-33.85-33.837z" fill="#9c27b0"/>
     </g>
    </g>
   </g>
   <rect x="216.26677" y="120.84988" width="60.80798" height="2.895618" ry=".43915537" fill="#9c27b0" stroke="#9c27b0" stroke-linecap="round" stroke-width="1.05833328"/>
  </g>
 </g>
</svg>
