<?xml version="1.0" encoding="UTF-8"?>
<!-- Created with Inkscape (http://www.inkscape.org/) -->
<svg width="187.325mm" height="66.145836mm" version="1.1" viewBox="0 0 187.325 66.145837" xmlns="http://www.w3.org/2000/svg" xmlns:cc="http://creativecommons.org/ns#" xmlns:dc="http://purl.org/dc/elements/1.1/" xmlns:rdf="http://www.w3.org/1999/02/22-rdf-syntax-ns#" xmlns:xlink="http://www.w3.org/1999/xlink">
 <defs>
  <linearGradient id="linearGradient70941" x1="80.036751" x2="179.13971" y1="-58.026459" y2="83.426445" gradientTransform="translate(-2.5476959e-4,2.6245117e-6)" gradientUnits="userSpaceOnUse">
   <stop stop-color="#9c27b0" offset="0"/>
   <stop stop-color="#2196f3" offset="1"/>
  </linearGradient>
 </defs>
 <metadata>
  <rdf:RDF>
   <cc:Work rdf:about="">
    <dc:format>image/svg+xml</dc:format>
    <dc:type rdf:resource="http://purl.org/dc/dcmitype/StillImage"/>
    <dc:title/>
   </cc:Work>
  </rdf:RDF>
 </metadata>
 <polygon transform="matrix(3.4969519,0,0,3.4969519,110.31782,748.67566)" points="" fill="#f9eab0"/>
 <polygon transform="matrix(1.7446123,0,0,1.7416956,118.51707,115.07015)" points="" fill="#f9eab0"/>
 <rect y="-1.4210855e-14" width="187.325" height="66.145836" fill="url(#linearGradient70941)"/>
 <g fill="none" stroke="#ffc107" stroke-linecap="round" stroke-linejoin="round" stroke-width="2.64583325">
  <g transform="matrix(.47431711 0 0 .47431711 -6.3083649 24.143941)">
   <path d="m56.57125-16.80094v5.275133"/>
   <path d="m59.208816-14.163374h-5.275133"/>
  </g>
  <g transform="matrix(.47431711 0 0 .47431711 87.987961 59.961578)">
   <path d="m56.57125-16.80094v5.275133"/>
   <path d="m59.208816-14.163374h-5.275133"/>
  </g>
  <g transform="matrix(.38140616 0 0 .38140616 116.56049 17.493438)">
   <path d="m56.57125-16.80094v5.275133"/>
   <path d="m59.208816-14.163374h-5.275133"/>
  </g>
  <g transform="matrix(.38140616 0 0 .38140616 58.5907 25.470268)">
   <path d="m56.57125-16.80094v5.275133"/>
   <path d="m59.208816-14.163374h-5.275133"/>
  </g>
  <g transform="matrix(.41418467 0 0 .41418467 -7.6413331 60.447798)">
   <path d="m56.57125-16.80094v5.275133"/>
   <path d="m59.208816-14.163374h-5.275133"/>
  </g>
  <g transform="matrix(.32565959 0 0 .32565959 153.45076 55.361278)">
   <path d="m56.57125-16.80094v5.275133"/>
   <path d="m59.208816-14.163374h-5.275133"/>
  </g>
  <g transform="matrix(.23274864 0 0 .23274864 161.52365 17.76611)">
   <path d="m56.57125-16.80094v5.275133"/>
   <path d="m59.208816-14.163374h-5.275133"/>
  </g>
  <g transform="matrix(.28849521 0 0 .28849521 163.56216 27.861208)">
   <path d="m56.57125-16.80094v5.275133"/>
   <path d="m59.208816-14.163374h-5.275133"/>
  </g>
  <g transform="matrix(.32565959 0 0 .32565959 -8.0267276 13.214707)">
   <path d="m56.57125-16.80094v5.275133"/>
   <path d="m59.208816-14.163374h-5.275133"/>
  </g>
 </g>
 <g transform="translate(13.02762,75.046213)" fill="#f9eab0">
  <g transform="translate(48.817115,74.298015)">
   <polygon transform="matrix(3.4969519,0,0,3.4969519,113.27756,365.73105)" points=""/>
   <polygon transform="matrix(3.4969519,0,0,3.4969519,342.59567,411.52488)" points=""/>
   <polygon transform="matrix(3.4969519,0,0,3.4969519,289.53119,373.17891)" points=""/>
   <polygon transform="matrix(3.4969519,0,0,3.4969519,300.01292,440.20544)" points=""/>
  </g>
  <polygon transform="matrix(3.4969519,0,0,3.4969519,340.13844,508.97336)" points=""/>
  <polygon transform="matrix(3.4969519,0,0,3.4969519,148.51691,449.56802)" points=""/>
  <polygon transform="matrix(3.4969519,0,0,3.4969519,377.83502,495.36185)" points=""/>
  <polygon transform="matrix(3.4969519,0,0,3.4969519,324.77054,457.01588)" points=""/>
 </g>
 <g transform="matrix(.49525627 0 0 .49492545 21.662337 -25.738711)">
  <rect x="13.141705" y="75.160294" width="264.35516" height="87.084328" ry="3.035013" opacity="0" stroke-width=".22816895"/>
  <g transform="translate(13.02762,-227.0421)" fill="#f69c9b" style="font-feature-settings:normal;font-variant-caps:normal;font-variant-ligatures:normal;font-variant-numeric:normal" aria-label="4">
   <path d="m250.20662 350.82608h-9.00032l0.38758-19.29253-14.85698 0.43064v31.26424l22.65151 0.81821-1.63643 25.10613 15.58906 0.38757 1.24885-58.00679h-13.9957z" fill="#f69c9b" stroke-width=".26458335" style="font-feature-settings:normal;font-variant-caps:normal;font-variant-ligatures:normal;font-variant-numeric:normal"/>
  </g>
  <g transform="matrix(1.0858266,0,0,1.0858266,89.380204,-69.915777)" fill="#fff" stroke="#ef5350" stroke-width=".7310099">
   <path d="m41.677202 173.58641 1.193726 6.90913-6.01686 1.53135-1.217841-15.83194 6.040975-1.04903 5.95657 7.88582 0.07235-7.88582 7.475857-0.7717-2.652723 17.65267-4.78696 0.69935z" style="font-feature-settings:normal;font-variant-caps:normal;font-variant-ligatures:normal;font-variant-numeric:normal"/>
   <path d="m56.616859 165.98997 6.426826 1.25401q-3.207384 9.85125 0.916395 9.95978 4.895481-0.0362 2.833591-10.20093l5.884223-1.85691q2.700955 16.73628-8.717814 16.88097-11.539347-0.10852-7.343221-16.03692z" style="font-feature-settings:normal;font-variant-caps:normal;font-variant-ligatures:normal;font-variant-numeric:normal"/>
   <path d="m93.079748 165.14592 1.012858 15.90428-6.149496 0.51849-0.325561-8.13904-1.241957 5.59484-5.522488 0.7717-2.242758-5.7757 0.807875 6.84885-5.631008 1.15755 0.771701-16.88097 5.534546-0.73553 3.06269 9.64627 3.713813-9.35688z" style="font-feature-settings:normal;font-variant-caps:normal;font-variant-ligatures:normal;font-variant-numeric:normal"/>
   <path d="m99.385998 171.06632q3.737932-0.69936 3.665582-2.12218-0.0724-1.42282-3.822334-0.44614zm0.578776 7.16235q5.462196-0.21704 5.474256-1.90514 0.0241-1.68809-5.655123-1.61575zm-5.245158 3.79822 0.44614-15.6149q8.621354-3.50883 11.852854-0.33762t-0.81993 6.39066q6.14949 1.89308 3.96702 6.18567-2.17041 4.28053-15.446084 3.37619z" style="font-feature-settings:normal;font-variant-caps:normal;font-variant-ligatures:normal;font-variant-numeric:normal"/>
   <path d="m124.28542 162.97551 0.3135 6.39065-7.49997 0.80788 0.0965 1.459 4.9196-0.4582 0.43408 4.36494-5.13664 0.37379 0.0844 1.18166 7.28293-0.55465 1.08521 5.48631-14.36088 0.49437 1.459-17.39945z" style="font-feature-settings:normal;font-variant-caps:normal;font-variant-ligatures:normal;font-variant-numeric:normal"/>
   <path d="m132.36418 169.12501 0.16881 3.25561q6.02891 0 6.02891-1.20578t-6.19772-2.04983zm0.80787 11.92519-6.71621 0.94052 1.39871-18.00235q15.53048 1.15755 16.04897 6.22184 0.53055 5.05223-5.34162 6.99355l4.82313 2.61655-4.94371 4.37699-5.65512-6.99354z" style="font-feature-settings:normal;font-variant-caps:normal;font-variant-ligatures:normal;font-variant-numeric:normal"/>
   <path d="m149.37778 175.35891q-4.35288-0.61495-3.84645-5.41397 0.50642-4.79902 11.18967-5.67924l1.01285 5.45014q-5.29339-0.12058-5.67924 1.25401-0.38585 1.3746 4.05144 1.57958 4.43728 0.20498 4.34082 5.40191-0.0965 5.19693-11.68404 5.54661l-2.13424-5.70336q5.93245 0.63907 6.52329-0.59083 0.59083-1.24196-3.7741-1.84485z" style="font-feature-settings:normal;font-variant-caps:normal;font-variant-ligatures:normal;font-variant-numeric:normal"/>
  </g>
  <g transform="matrix(.04462289 0 0 .04462289 26.9632 128.45251)" fill="#00c853">
   <g fill="#00c853">
    <g fill="#00c853">
     <path d="m477.549 182.379h-148.531v-148.532c0-18.69-15.154-33.844-33.844-33.844h-78.954c-18.69 0-33.844 15.153-33.844 33.844v148.526h-148.532c-18.691 0-33.844 15.153-33.844 33.843v78.966c0 18.691 15.153 33.844 33.844 33.844h148.532v148.527c0 18.689 15.153 33.842 33.844 33.842h78.96c18.691 0 33.844-15.152 33.844-33.842v-148.527h148.533c18.689 0 33.842-15.152 33.842-33.844v-78.966c-6e-3 -18.69-15.153-33.837-33.85-33.837z" fill="#00c853"/>
    </g>
   </g>
  </g>
  <g transform="matrix(1.2453174,0,0,1.2453174,22.483551,-92.506347)" fill="#fff" stroke="#ef5350" stroke-width=".68512297">
   <g transform="matrix(.93032598 0 0 .93032598 21.509738 114.17951)" style="font-feature-settings:normal;font-variant-caps:normal;font-variant-ligatures:normal;font-variant-numeric:normal" aria-label="900">
    <path d="m7.2903467 32.768954q-0.7264805 0.114707-1.0833481-0.127453-0.3186318-0.216669-0.280396-0.624518 0.025491-0.382358 0.3441223-0.713735 0.3313771-0.331377 0.7902069-0.382359 0.4460846-0.03824 0.6882447 0.229415 0.2166697 0.21667 0.2166697 0.599028 0 0.356868-0.1784338 0.650009-0.2039244 0.318632-0.4970657 0.369613zm0.4333393-6.245184q-2.7019977-0.433339-4.5245717 1.070603-1.6441401 1.363744-1.8353192 3.555931-0.1911791 2.230423 1.2617819 3.798091 1.6441402 1.771593 4.7412414 1.797084 0.1529432 0.522556-0.1529433 0.981386-0.6372636 0.904914-2.9823937 0.48432l-0.6754995 3.976525q0.5862826 0.293141 1.6313949 0.369613 2.1029699 0.127453 4.397119-0.994131 1.1980552-0.586283 2.2814042-2.791215 1.108838-2.281404 1.300017-4.753986 0.229415-2.854941-0.94315-4.753987-1.376489-2.230423-4.499081-2.740234z" style="font-feature-settings:normal;font-variant-caps:normal;font-variant-ligatures:normal;font-variant-numeric:normal"/>
    <path d="m20.481704 36.821951q-0.407849 0.07647-0.650009-0.599028-0.21667-0.611773-0.229415-1.554924-0.01274-0.930404 0.178434-1.567668 0.216669-0.713735 0.586282-0.662754 0.688245 0.07647 1.006877 0.739226 0.280396 0.586282 0.216669 1.452961-0.06373 0.802952-0.369613 1.440215-0.318631 0.662755-0.739225 0.751972zm-0.802953-11.534472q-1.860809 0.114707-3.517695 2.714743-1.593159 2.523564-2.026498 5.760863-0.471575 3.517695 0.790207 5.901061 1.478451 2.77847 4.983401 3.135337 3.517696 0.369613 5.353015-2.357875 1.618649-2.408857 1.389234-6.181457-0.216669-3.683384-2.039243-6.28342-1.988263-2.842195-4.932421-2.689252z" style="font-feature-settings:normal;font-variant-caps:normal;font-variant-ligatures:normal;font-variant-numeric:normal"/>
    <path d="m33.940712 36.821951q-0.407849 0.07647-0.650009-0.599028-0.21667-0.611773-0.229415-1.554924-0.01274-0.930404 0.178434-1.567668 0.21667-0.713735 0.586282-0.662754 0.688245 0.07647 1.006877 0.739226 0.280396 0.586282 0.21667 1.452961-0.06373 0.802952-0.369613 1.440215-0.318632 0.662755-0.739226 0.751972zm-0.802952-11.534472q-1.86081 0.114707-3.517695 2.714743-1.59316 2.523564-2.026499 5.760863-0.471575 3.517695 0.790207 5.901061 1.478452 2.77847 4.983402 3.135337 3.517695 0.369613 5.353014-2.357875 1.61865-2.408857 1.389235-6.181457-0.21667-3.683384-2.039244-6.28342-1.988262-2.842195-4.93242-2.689252z" style="font-feature-settings:normal;font-variant-caps:normal;font-variant-ligatures:normal;font-variant-numeric:normal"/>
   </g>
   <g transform="matrix(.93032598 0 0 .93032598 -31.760685 135.14801)" style="font-feature-settings:normal;font-variant-caps:normal;font-variant-ligatures:normal;font-variant-numeric:normal" aria-label="80">
    <path d="m78.098527 37.406298q-0.420594 0-0.688245-0.24216-0.229415-0.203924-0.267651-0.522556-0.02549-0.305887 0.178434-0.509811 0.203924-0.24216 0.624518-0.254905 0.573538-0.01275 0.879424 0.229415 0.254906 0.203924 0.24216 0.522556-0.01274 0.305886-0.26765 0.535301-0.280396 0.24216-0.70099 0.24216zm-0.509811-8.360898q0.407848-0.08922 0.650009 0.06373 0.216669 0.152943 0.229414 0.433339 0.01275 0.280396-0.165688 0.471575-0.21667 0.242161-0.586283 0.242161t-0.586282-0.165689q-0.21667-0.140198-0.229415-0.356868-0.06373-0.50981 0.688245-0.688244zm3.084356 3.466714q0.94315-1.771593 1.070602-3.581422 0.293142-3.606912-3.7726-3.759855-1.567669-0.06373-2.752979 0.777462-1.083348 0.764716-1.554923 2.039243-0.446085 1.261782-0.127453 2.472583 0.344122 1.300018 1.478452 2.051989-1.032367 0.828442-1.911791 2.051989-1.771593 2.434347-1.070603 4.422609 0.611773 1.746102 2.064734 2.842196 1.363744 1.006876 3.097101 1.210801 1.707867 0.203924 3.250045-0.45883 1.631395-0.713735 2.561799-2.217677 1.669631-2.689253-0.165688-5.544194-0.91766-1.42747-2.166696-2.306894z" style="font-feature-settings:normal;font-variant-caps:normal;font-variant-ligatures:normal;font-variant-numeric:normal"/>
    <path d="m91.200666 36.577856q-0.407849 0.07647-0.650009-0.599028-0.216669-0.611773-0.229415-1.554923-0.01274-0.930405 0.178434-1.567669 0.21667-0.713735 0.586283-0.662754 0.688244 0.07647 1.006876 0.739226 0.280396 0.586282 0.21667 1.452961-0.06373 0.802952-0.369613 1.440216-0.318632 0.662754-0.739226 0.751971zm-0.802952-11.534472q-1.86081 0.114708-3.517695 2.714743-1.593159 2.523564-2.026498 5.760863-0.471576 3.517695 0.790206 5.901061 1.478452 2.77847 4.983402 3.135337 3.517695 0.369613 5.353014-2.357875 1.61865-2.408856 1.389235-6.181457-0.21667-3.683384-2.039244-6.283419-1.988262-2.842196-4.93242-2.689253z" style="font-feature-settings:normal;font-variant-caps:normal;font-variant-ligatures:normal;font-variant-numeric:normal"/>
   </g>
   <g transform="matrix(.93032598 0 0 .93032598 -66.462027 155.78681)" style="font-feature-settings:normal;font-variant-caps:normal;font-variant-ligatures:normal;font-variant-numeric:normal" aria-label="1">
    <path d="m134.35679 25.64975-4.12947 0.114708-1.13433 0.930405v3.912798l1.01962-0.471575 0.11471 12.337424h4.46084z" fill="#fff" stroke="#ef5350" stroke-width=".68512297" style="font-feature-settings:normal;font-variant-caps:normal;font-variant-ligatures:normal;font-variant-numeric:normal"/>
   </g>
  </g>
  <g stroke-width="1.24531746">
   <rect x="24.446215" y="153.89743" width="77.721443" height="5.1029234" ry="1.4393102" fill="#2196f3"/>
   <rect x="38.362583" y="130.02386" width="2.2243004" height="5.560751" ry="1.1121502" fill="#8fffbe"/>
   <rect x="83.775383" y="155.04726" width="15.817245" height="1.5446529" ry=".77232647" fill="#9ed1fa" fill-opacity=".78044374"/>
  </g>
 </g>
</svg>
