<?xml version="1.0" encoding="UTF-8"?>
<!-- Created with Inkscape (http://www.inkscape.org/) -->
<svg width="187.325mm" height="66.145836mm" version="1.1" viewBox="0 0 187.325 66.145837" xmlns="http://www.w3.org/2000/svg" xmlns:cc="http://creativecommons.org/ns#" xmlns:dc="http://purl.org/dc/elements/1.1/" xmlns:rdf="http://www.w3.org/1999/02/22-rdf-syntax-ns#" xmlns:xlink="http://www.w3.org/1999/xlink">
 <defs>
  <linearGradient id="linearGradient70941" x1="80.036751" x2="179.13971" y1="-58.026459" y2="83.426445" gradientTransform="translate(-2.5476959e-4,2.6245117e-6)" gradientUnits="userSpaceOnUse">
   <stop stop-color="#9c27b0" offset="0"/>
   <stop stop-color="#2196f3" offset="1"/>
  </linearGradient>
 </defs>
 <metadata>
  <rdf:RDF>
   <cc:Work rdf:about="">
    <dc:format>image/svg+xml</dc:format>
    <dc:type rdf:resource="http://purl.org/dc/dcmitype/StillImage"/>
    <dc:title/>
   </cc:Work>
  </rdf:RDF>
 </metadata>
 <polygon transform="matrix(3.4969519,0,0,3.4969519,110.31782,748.67566)" points="" fill="#f9eab0"/>
 <polygon transform="matrix(1.7446123,0,0,1.7416956,118.51707,115.07015)" points="" fill="#f9eab0"/>
 <rect y="-1.4210855e-14" width="187.325" height="66.145836" fill="url(#linearGradient70941)"/>
 <g fill="none" stroke="#ffc107" stroke-linecap="round" stroke-linejoin="round" stroke-width="2.64583325">
  <g transform="matrix(.47431711 0 0 .47431711 -6.3083649 24.143941)">
   <path d="m56.57125-16.80094v5.275133"/>
   <path d="m59.208816-14.163374h-5.275133"/>
  </g>
  <g transform="matrix(.47431711 0 0 .47431711 87.987961 59.961578)">
   <path d="m56.57125-16.80094v5.275133"/>
   <path d="m59.208816-14.163374h-5.275133"/>
  </g>
  <g transform="matrix(.38140616 0 0 .38140616 116.56049 17.493438)">
   <path d="m56.57125-16.80094v5.275133"/>
   <path d="m59.208816-14.163374h-5.275133"/>
  </g>
  <g transform="matrix(.38140616 0 0 .38140616 58.5907 25.470268)">
   <path d="m56.57125-16.80094v5.275133"/>
   <path d="m59.208816-14.163374h-5.275133"/>
  </g>
  <g transform="matrix(.41418467 0 0 .41418467 -7.6413331 60.447798)">
   <path d="m56.57125-16.80094v5.275133"/>
   <path d="m59.208816-14.163374h-5.275133"/>
  </g>
  <g transform="matrix(.32565959 0 0 .32565959 153.45076 55.361278)">
   <path d="m56.57125-16.80094v5.275133"/>
   <path d="m59.208816-14.163374h-5.275133"/>
  </g>
  <g transform="matrix(.23274864 0 0 .23274864 161.52365 17.76611)">
   <path d="m56.57125-16.80094v5.275133"/>
   <path d="m59.208816-14.163374h-5.275133"/>
  </g>
  <g transform="matrix(.28849521 0 0 .28849521 163.56216 27.861208)">
   <path d="m56.57125-16.80094v5.275133"/>
   <path d="m59.208816-14.163374h-5.275133"/>
  </g>
  <g transform="matrix(.32565959 0 0 .32565959 -8.0267276 13.214707)">
   <path d="m56.57125-16.80094v5.275133"/>
   <path d="m59.208816-14.163374h-5.275133"/>
  </g>
 </g>
 <g transform="matrix(.493333 0 0 .49518914 28.114567 11.40354)">
  <g fill="#f9eab0">
   <polygon transform="matrix(3.4969519,0,0,3.4969519,188.20701,463.53675)" points=""/>
   <polygon transform="matrix(3.4969519,0,0,3.4969519,417.52512,509.33058)" points=""/>
   <g transform="translate(74.826556,107.10037)">
    <polygon transform="matrix(3.4969519,0,0,3.4969519,113.27756,365.73105)" points=""/>
    <polygon transform="matrix(3.4969519,0,0,3.4969519,342.59567,411.52488)" points=""/>
    <polygon transform="matrix(3.4969519,0,0,3.4969519,289.53119,373.17891)" points=""/>
    <polygon transform="matrix(3.4969519,0,0,3.4969519,300.01292,440.20544)" points=""/>
    <polygon transform="matrix(3.4969519,0,0,3.4969519,291.32132,434.67535)" points=""/>
    <polygon transform="matrix(3.4969519,0,0,3.4969519,307.33646,443.60248)" points=""/>
    <polygon transform="matrix(3.4969519,0,0,3.4969519,333.79178,451.09397)" points=""/>
    <polygon transform="matrix(3.4969519,0,0,3.4969519,298.64056,411.18751)" points=""/>
    <g transform="translate(304.39909,71.666099)">
     <polygon transform="matrix(3.4969519,0,0,3.4969519,454.53799,116.97428)" points=""/>
     <polygon transform="matrix(9.1061708,0,0,9.0930789,1282.4585,1088.9576)" points=""/>
     <polygon transform="matrix(3.4969519,0,0,3.4969519,828.57006,-535.68054)" points=""/>
     <polygon transform="matrix(3.4969519,0,0,3.4969519,-1847.954,290.9635)" points=""/>
    </g>
   </g>
  </g>
  <g transform="translate(-285.624,161.84527)" letter-spacing="0px" word-spacing="0px">
   <text x="-1222.3983" y="-173.37076" font-family="sans-serif" font-size="10.58333302px" stroke-width=".26458332" style="line-height:1.25" xml:space="preserve"><tspan x="-1222.3983" y="-164.00699" stroke-width=".26458332"/></text>
   <text x="-2245.1282" y="-126.3082" font-family="'SC Gum Kids'" font-size="266.9718323px" stroke-width=".80091542" style="font-feature-settings:normal;font-variant-caps:normal;font-variant-ligatures:normal;font-variant-numeric:normal;line-height:1.25" xml:space="preserve"><tspan x="-2245.1282" y="114.67583" font-family="'SC Gum Kids'" font-size="266.9718323px" stroke-width=".80091542" style="font-feature-settings:normal;font-variant-caps:normal;font-variant-ligatures:normal;font-variant-numeric:normal"/></text>
   <text x="912.07428" y="386.35889" font-family="sans-serif" font-size="10.58333302px" stroke-width=".26458332" style="line-height:1.25" xml:space="preserve"><tspan x="912.07428" y="395.72266" stroke-width=".26458332"/></text>
  </g>
  <polygon transform="matrix(3.4969519,0,0,3.4969519,-1465.597,504.31957)" points="" fill="#f9eab0"/>
  <g transform="translate(379.22565,178.76647)" letter-spacing="0px" word-spacing="0px">
   <text x="-1884.1167" y="-155.70239" font-family="sans-serif" font-size="10.58333302px" stroke-width=".26458332" style="line-height:1.25" xml:space="preserve"><tspan x="-1884.1167" y="-146.33862" stroke-width=".26458332"/></text>
   <text x="-2906.8464" y="-108.63977" font-family="'SC Gum Kids'" font-size="266.9718323px" stroke-width=".80091542" style="font-feature-settings:normal;font-variant-caps:normal;font-variant-ligatures:normal;font-variant-numeric:normal;line-height:1.25" xml:space="preserve"><tspan x="-2906.8464" y="132.34424" font-family="'SC Gum Kids'" font-size="266.9718323px" stroke-width=".80091542" style="font-feature-settings:normal;font-variant-caps:normal;font-variant-ligatures:normal;font-variant-numeric:normal"/></text>
   <text x="250.35588" y="404.02722" font-family="sans-serif" font-size="10.58333302px" stroke-width=".26458332" style="line-height:1.25" xml:space="preserve"><tspan x="250.35588" y="413.39099" stroke-width=".26458332"/></text>
  </g>
  <polygon transform="matrix(3.4969519,0,0,3.4969519,-1616.2816,475.58807)" points="" fill="#f9eab0"/>
  <g transform="translate(379.22565,178.76647)" letter-spacing="0px" word-spacing="0px">
   <text x="-2034.8013" y="-184.43384" font-family="sans-serif" font-size="10.58333302px" stroke-width=".26458332" style="line-height:1.25" xml:space="preserve"><tspan x="-2034.8013" y="-175.07007" stroke-width=".26458332"/></text>
   <text x="-3057.531" y="-137.37134" font-family="'SC Gum Kids'" font-size="266.9718323px" stroke-width=".80091542" style="font-feature-settings:normal;font-variant-caps:normal;font-variant-ligatures:normal;font-variant-numeric:normal;line-height:1.25" xml:space="preserve"><tspan x="-3057.531" y="103.61267" font-family="'SC Gum Kids'" font-size="266.9718323px" stroke-width=".80091542" style="font-feature-settings:normal;font-variant-caps:normal;font-variant-ligatures:normal;font-variant-numeric:normal"/></text>
   <text x="99.671333" y="375.29578" font-family="sans-serif" font-size="10.58333302px" stroke-width=".26458332" style="line-height:1.25" xml:space="preserve"><tspan x="99.671333" y="384.65955" stroke-width=".26458332"/></text>
  </g>
  <polygon transform="matrix(3.4969519,0,0,3.4969519,-1616.0376,529.82547)" points="" fill="#f9eab0"/>
  <g transform="translate(367.32741,-203.94278)" letter-spacing="0px" word-spacing="0px">
   <text x="-2022.6592" y="252.51283" font-family="sans-serif" font-size="10.58333302px" stroke-width=".26458332" style="line-height:1.25" xml:space="preserve"><tspan x="-2022.6592" y="261.87659" stroke-width=".26458332"/></text>
   <text x="-3045.3889" y="299.57538" font-family="'SC Gum Kids'" font-size="266.9718323px" stroke-width=".80091542" style="font-feature-settings:normal;font-variant-caps:normal;font-variant-ligatures:normal;font-variant-numeric:normal;line-height:1.25" xml:space="preserve"><tspan x="-3045.3889" y="540.55945" font-family="'SC Gum Kids'" font-size="266.9718323px" stroke-width=".80091542" style="font-feature-settings:normal;font-variant-caps:normal;font-variant-ligatures:normal;font-variant-numeric:normal"/></text>
   <text x="111.81351" y="812.24249" font-family="sans-serif" font-size="10.58333302px" stroke-width=".26458332" style="line-height:1.25" xml:space="preserve"><tspan x="111.81351" y="821.60626" stroke-width=".26458332"/></text>
  </g>
  <polygon transform="matrix(3.4969519,0,0,3.4969519,-1767.1869,477.82537)" points="" fill="#f9eab0"/>
  <g transform="translate(379.22565,178.76647)" letter-spacing="0px" word-spacing="0px">
   <text x="-2185.7068" y="-182.19659" font-family="sans-serif" font-size="10.58333302px" stroke-width=".26458332" style="line-height:1.25" xml:space="preserve"><tspan x="-2185.7068" y="-172.83282" stroke-width=".26458332"/></text>
   <text x="-3208.4365" y="-135.13403" font-family="'SC Gum Kids'" font-size="266.9718323px" stroke-width=".80091542" style="font-feature-settings:normal;font-variant-caps:normal;font-variant-ligatures:normal;font-variant-numeric:normal;line-height:1.25" xml:space="preserve"><tspan x="-3208.4365" y="105.84998" font-family="'SC Gum Kids'" font-size="266.9718323px" stroke-width=".80091542" style="font-feature-settings:normal;font-variant-caps:normal;font-variant-ligatures:normal;font-variant-numeric:normal"/></text>
   <text x="-51.233967" y="377.53308" font-family="sans-serif" font-size="10.58333302px" stroke-width=".26458332" style="line-height:1.25" xml:space="preserve"><tspan x="-51.233967" y="386.89685" stroke-width=".26458332"/></text>
  </g>
  <polygon transform="matrix(3.4969519,0,0,3.4969519,-1762.322,541.12767)" points="" fill="#f9eab0"/>
  <g transform="translate(379.22565,178.76647)" letter-spacing="0px" word-spacing="0px">
   <text x="-2180.8418" y="-118.89429" font-family="sans-serif" font-size="10.58333302px" stroke-width=".26458332" style="line-height:1.25" xml:space="preserve"><tspan x="-2180.8418" y="-109.53052" stroke-width=".26458332"/></text>
   <text x="-3203.5715" y="-71.831665" font-family="'SC Gum Kids'" font-size="266.9718323px" stroke-width=".80091542" style="font-feature-settings:normal;font-variant-caps:normal;font-variant-ligatures:normal;font-variant-numeric:normal;line-height:1.25" xml:space="preserve"><tspan x="-3203.5715" y="169.15234" font-family="'SC Gum Kids'" font-size="266.9718323px" stroke-width=".80091542" style="font-feature-settings:normal;font-variant-caps:normal;font-variant-ligatures:normal;font-variant-numeric:normal"/></text>
   <text x="-46.369076" y="440.83533" font-family="sans-serif" font-size="10.58333302px" stroke-width=".26458332" style="line-height:1.25" xml:space="preserve"><tspan x="-46.369076" y="450.1991" stroke-width=".26458332"/></text>
  </g>
  <polygon transform="matrix(3.4969519,0,0,3.4969519,-1468.7283,1476.4123)" points="" fill="#f9eab0"/>
  <g transform="translate(379.22565,178.76647)" letter-spacing="0px" word-spacing="0px">
   <text x="-1887.2479" y="816.39038" font-family="sans-serif" font-size="10.58333302px" stroke-width=".26458332" style="line-height:1.25" xml:space="preserve"><tspan x="-1887.2479" y="825.75415" stroke-width=".26458332"/></text>
   <text x="-2909.9778" y="863.45288" font-family="'SC Gum Kids'" font-size="266.9718323px" stroke-width=".80091542" style="font-feature-settings:normal;font-variant-caps:normal;font-variant-ligatures:normal;font-variant-numeric:normal;line-height:1.25" xml:space="preserve"><tspan x="-2909.9778" y="1104.437" font-family="'SC Gum Kids'" font-size="266.9718323px" stroke-width=".80091542" style="font-feature-settings:normal;font-variant-caps:normal;font-variant-ligatures:normal;font-variant-numeric:normal"/></text>
   <text x="247.22462" y="1376.1199" font-family="sans-serif" font-size="10.58333302px" stroke-width=".26458332" style="line-height:1.25" xml:space="preserve"><tspan x="247.22462" y="1385.4836" stroke-width=".26458332"/></text>
  </g>
  <polygon transform="matrix(3.4969519,0,0,3.4969519,-1465.597,1511.0019)" points="" fill="#f9eab0"/>
  <g transform="translate(379.22565,178.76647)" letter-spacing="0px" word-spacing="0px">
   <text x="-1884.1167" y="850.97998" font-family="sans-serif" font-size="10.58333302px" stroke-width=".26458332" style="line-height:1.25" xml:space="preserve"><tspan x="-1884.1167" y="860.34375" stroke-width=".26458332"/></text>
   <text x="-2906.8464" y="898.04248" font-family="'SC Gum Kids'" font-size="266.9718323px" stroke-width=".80091542" style="font-feature-settings:normal;font-variant-caps:normal;font-variant-ligatures:normal;font-variant-numeric:normal;line-height:1.25" xml:space="preserve"><tspan x="-2906.8464" y="1139.0266" font-family="'SC Gum Kids'" font-size="266.9718323px" stroke-width=".80091542" style="font-feature-settings:normal;font-variant-caps:normal;font-variant-ligatures:normal;font-variant-numeric:normal"/></text>
   <text x="250.35588" y="1410.7095" font-family="sans-serif" font-size="10.58333302px" stroke-width=".26458332" style="line-height:1.25" xml:space="preserve"><tspan x="250.35588" y="1420.0732" stroke-width=".26458332"/></text>
  </g>
  <polygon transform="matrix(3.4969519,0,0,3.4969519,-1616.2816,1482.2704)" points="" fill="#f9eab0"/>
  <g transform="translate(379.22565,178.76647)" letter-spacing="0px" word-spacing="0px">
   <text x="-2034.8013" y="822.24841" font-family="sans-serif" font-size="10.58333302px" stroke-width=".26458332" style="line-height:1.25" xml:space="preserve"><tspan x="-2034.8013" y="831.61218" stroke-width=".26458332"/></text>
   <text x="-3057.531" y="869.31104" font-family="'SC Gum Kids'" font-size="266.9718323px" stroke-width=".80091542" style="font-feature-settings:normal;font-variant-caps:normal;font-variant-ligatures:normal;font-variant-numeric:normal;line-height:1.25" xml:space="preserve"><tspan x="-3057.531" y="1110.2949" font-family="'SC Gum Kids'" font-size="266.9718323px" stroke-width=".80091542" style="font-feature-settings:normal;font-variant-caps:normal;font-variant-ligatures:normal;font-variant-numeric:normal"/></text>
   <text x="99.671333" y="1381.978" font-family="sans-serif" font-size="10.58333302px" stroke-width=".26458332" style="line-height:1.25" xml:space="preserve"><tspan x="99.671333" y="1391.3418" stroke-width=".26458332"/></text>
  </g>
  <polygon transform="matrix(3.4969519,0,0,3.4969519,-1616.0376,1536.5079)" points="" fill="#f9eab0"/>
  <g transform="translate(367.32741,802.73957)" letter-spacing="0px" word-spacing="0px">
   <text x="-2022.6592" y="252.51283" font-family="sans-serif" font-size="10.58333302px" stroke-width=".26458332" style="line-height:1.25" xml:space="preserve"><tspan x="-2022.6592" y="261.87659" stroke-width=".26458332"/></text>
   <text x="-3045.3889" y="299.57538" font-family="'SC Gum Kids'" font-size="266.9718323px" stroke-width=".80091542" style="font-feature-settings:normal;font-variant-caps:normal;font-variant-ligatures:normal;font-variant-numeric:normal;line-height:1.25" xml:space="preserve"><tspan x="-3045.3889" y="540.55945" font-family="'SC Gum Kids'" font-size="266.9718323px" stroke-width=".80091542" style="font-feature-settings:normal;font-variant-caps:normal;font-variant-ligatures:normal;font-variant-numeric:normal"/></text>
   <text x="111.81351" y="812.24249" font-family="sans-serif" font-size="10.58333302px" stroke-width=".26458332" style="line-height:1.25" xml:space="preserve"><tspan x="111.81351" y="821.60626" stroke-width=".26458332"/></text>
  </g>
  <polygon transform="matrix(3.4969519,0,0,3.4969519,-1767.1869,1484.5077)" points="" fill="#f9eab0"/>
  <g transform="translate(379.22565,178.76647)" letter-spacing="0px" word-spacing="0px">
   <text x="-2185.7068" y="824.48572" font-family="sans-serif" font-size="10.58333302px" stroke-width=".26458332" style="line-height:1.25" xml:space="preserve"><tspan x="-2185.7068" y="833.84949" stroke-width=".26458332"/></text>
   <text x="-3208.4365" y="871.54834" font-family="'SC Gum Kids'" font-size="266.9718323px" stroke-width=".80091542" style="font-feature-settings:normal;font-variant-caps:normal;font-variant-ligatures:normal;font-variant-numeric:normal;line-height:1.25" xml:space="preserve"><tspan x="-3208.4365" y="1112.5322" font-family="'SC Gum Kids'" font-size="266.9718323px" stroke-width=".80091542" style="font-feature-settings:normal;font-variant-caps:normal;font-variant-ligatures:normal;font-variant-numeric:normal"/></text>
   <text x="-51.233967" y="1384.2153" font-family="sans-serif" font-size="10.58333302px" stroke-width=".26458332" style="line-height:1.25" xml:space="preserve"><tspan x="-51.233967" y="1393.5791" stroke-width=".26458332"/></text>
  </g>
  <polygon transform="matrix(3.4969519,0,0,3.4969519,-1762.322,1547.81)" points="" fill="#f9eab0"/>
  <g transform="translate(1012.4937,815.89717)" letter-spacing="0px" word-spacing="0px">
   <text x="-2814.1099" y="250.65732" font-family="sans-serif" font-size="10.58333302px" stroke-width=".26458332" style="line-height:1.25" xml:space="preserve"><tspan x="-2814.1099" y="260.02109" stroke-width=".26458332"/></text>
   <text x="-3836.8396" y="297.71988" font-family="'SC Gum Kids'" font-size="266.9718323px" stroke-width=".80091542" style="font-feature-settings:normal;font-variant-caps:normal;font-variant-ligatures:normal;font-variant-numeric:normal;line-height:1.25" xml:space="preserve"><tspan x="-3836.8396" y="538.70392" font-family="'SC Gum Kids'" font-size="266.9718323px" stroke-width=".80091542" style="font-feature-settings:normal;font-variant-caps:normal;font-variant-ligatures:normal;font-variant-numeric:normal"/></text>
   <text x="-679.63708" y="810.38696" font-family="sans-serif" font-size="10.58333302px" stroke-width=".26458332" style="line-height:1.25" xml:space="preserve"><tspan x="-679.63708" y="819.75073" stroke-width=".26458332"/></text>
  </g>
  <g transform="translate(74.826556,107.10037)" fill="#f9eab0">
   <polygon transform="matrix(3.4969519,0,0,3.4969519,932.69787,572.10691)" points=""/>
   <polygon transform="matrix(3.4969519,0,0,3.4969519,162.28671,390.88728)" points=""/>
   <polygon transform="matrix(3.4969519,0,0,3.4969519,513.02444,322.08479)" points=""/>
   <polygon transform="matrix(3.4969519,0,0,3.4969519,1087.0817,392.76102)" points=""/>
  </g>
  <rect x=".11408447" y=".11408143" width="264.35516" height="87.084328" ry="3.035013" opacity="0" stroke-width=".22816895"/>
  <g transform="translate(0,-101.68332)" fill="#ffe081" style="font-feature-settings:normal;font-variant-caps:normal;font-variant-ligatures:normal;font-variant-numeric:normal" aria-label="2">
   <path d="m259.80254 132.89072q-12.96217-7.88066-24.11566-0.12919-5.59828 4.09105-9.86159 10.11996l8.69887 11.02431q1.11965-1.80868 3.14365-3.35897 4.47862-4.47862 9.00031-3.53122 2.54076 0.55983 2.06705 3.44509-0.38757 2.45463-2.88526 6.41649-4.69395 7.3639-11.45494 11.84252-2.92834 2.49769-5.42603 4.3925l-1.03353 15.24454 35.01078 0.73209 0.0431-14.5986-17.69918 0.81821q8.39742-7.75146 14.38327-16.88096 5.25377-7.96679 5.85666-13.9957 0.81822-7.53615-5.72747-11.54107z" fill="#ffe081" stroke-width=".26458335" style="font-feature-settings:normal;font-variant-caps:normal;font-variant-ligatures:normal;font-variant-numeric:normal"/>
  </g>
  <g fill="#fff" stroke="#ffc107" stroke-width=".79375005" style="font-feature-settings:normal;font-variant-caps:normal;font-variant-ligatures:normal;font-variant-numeric:normal" aria-label="time">
   <path d="m137.42582 41.827378 0.67524 11.740885-7.46897 1.929254 1.28158-14.028429-5.63618-0.482313 0.44098-5.098741 16.16438-0.964627 0.59256 7.537869z" style="font-feature-settings:normal;font-variant-caps:normal;font-variant-ligatures:normal;font-variant-numeric:normal"/>
   <path d="m150.58609 36.067179 1.40559 18.589734-7.79969 1.474501 0.35829-19.581922z" style="font-feature-settings:normal;font-variant-caps:normal;font-variant-ligatures:normal;font-variant-numeric:normal"/>
   <path d="m174.72931 35.956936 1.15756 18.176323-7.028 0.592556-0.37207-9.301757-1.41938 6.394097-6.31141 0.881944-2.56315-6.600803 0.92328 7.827257-6.43544 1.322917 0.88195-19.292534 6.32519-0.840604 3.50022 11.024306 4.24436-10.693577z" style="font-feature-settings:normal;font-variant-caps:normal;font-variant-ligatures:normal;font-variant-numeric:normal"/>
   <path d="m191.21065 33.476467 0.35829 7.303602-8.5714 0.923286 0.11025 1.667426 5.62239-0.523655 0.4961 4.988498-5.87045 0.427192 0.0965 1.350478 8.32335-0.633898 1.24023 6.270074-16.41243 0.564995 1.66742-19.88509z" style="font-feature-settings:normal;font-variant-caps:normal;font-variant-ligatures:normal;font-variant-numeric:normal"/>
  </g>
  <ellipse cx="49.029034" cy="43.530666" rx="41.781067" ry="40.835033" fill="#ffc107" stroke-width=".161349"/>
  <ellipse cx="49.029034" cy="43.530666" rx="31.414104" ry="30.702803" fill="#fff" stroke-width=".14969184"/>
  <g stroke-width=".161349">
   <path d="m63.170818 34.08836c1.237431-1.209422 1.237431-3.169815 0-4.379082-1.237431-1.209412-3.243263-1.209412-4.480536 0l-12.012867 11.740876 4.480537 4.379083z" fill="#808080"/>
   <path d="m47.107938 42.671378-17.821238 17.417736c-0.773273 0.755766-0.773273 1.981139 0 2.737059 0.386807 0.377725 0.893391 0.566904 1.400158 0.566904 0.506742 0 1.013668-0.189012 1.40016-0.566904l17.821238-17.417736z" fill="#e91e63"/>
   <path d="m35.167211 25.603765c-1.237431-1.209422-3.243238-1.209422-4.480511 0-1.237456 1.20942-1.237456 3.169826 0 4.379082l16.213477 15.84639 4.480536-4.379083z" fill="#808080"/>
   <path d="m49.029077 48.368983c-2.729652 0-4.950405-2.170482-4.950405-4.838318 0-2.667832 2.220753-4.838317 4.950405-4.838317 2.729627 0 4.950405 2.170485 4.950405 4.838317 0 2.667836-2.220778 4.838318-4.950405 4.838318z" fill="#524e4d"/>
  </g>
  <g transform="matrix(.16320731 0 0 .15951187 7.2480068 2.6956285)" fill="#7a7674">
   <path d="m115.261 268.133h-18.199c-6.701 0-12.133-5.433-12.133-12.133s5.432-12.133 12.133-12.133h18.199c6.701 0 12.133 5.433 12.133 12.133s-5.432 12.133-12.133 12.133z"/>
   <path d="m256 127.393c-6.701 0-12.133-5.433-12.133-12.133v-18.198c0-6.7 5.432-12.133 12.133-12.133s12.133 5.433 12.133 12.133v18.199c0 6.699-5.432 12.132-12.133 12.132z"/>
   <path d="m414.938 268.133h-18.199c-6.701 0-12.133-5.433-12.133-12.133s5.432-12.133 12.133-12.133h18.199c6.701 0 12.133 5.433 12.133 12.133s-5.432 12.133-12.133 12.133z"/>
   <path d="m256 427.071c-6.701 0-12.133-5.433-12.133-12.133v-18.199c0-6.7 5.432-12.133 12.133-12.133s12.133 5.433 12.133 12.133v18.199c0 6.7-5.432 12.133-12.133 12.133z"/>
  </g>
  <path d="m54.747412 7.9291061s17.479038 0.8305659 28.442512 22.0471549" fill="none" stroke="#ffedb7" stroke-linecap="round" stroke-linejoin="round" stroke-width="5.29166651"/>
 </g>
</svg>
