<?xml version="1.0" encoding="UTF-8" standalone="no"?>
<!-- Created with Inkscape (http://www.inkscape.org/) -->

<svg
   xmlns:dc="http://purl.org/dc/elements/1.1/"
   xmlns:cc="http://creativecommons.org/ns#"
   xmlns:rdf="http://www.w3.org/1999/02/22-rdf-syntax-ns#"
   xmlns:svg="http://www.w3.org/2000/svg"
   xmlns="http://www.w3.org/2000/svg"
   xmlns:sodipodi="http://sodipodi.sourceforge.net/DTD/sodipodi-0.dtd"
   xmlns:inkscape="http://www.inkscape.org/namespaces/inkscape"
   width="452.94138mm"
   height="218.28125mm"
   version="1.1"
   viewBox="0 0 452.94138 218.28126"
   id="svg6743"
   sodipodi:docname="compCant.svg"
   inkscape:version="0.92.2 5c3e80d, 2017-08-06">
  <sodipodi:namedview
     pagecolor="#ffffff"
     bordercolor="#666666"
     borderopacity="1"
     objecttolerance="10"
     gridtolerance="10"
     guidetolerance="10"
     inkscape:pageopacity="0"
     inkscape:pageshadow="2"
     inkscape:window-width="1920"
     inkscape:window-height="1035"
     id="namedview6745"
     showgrid="false"
     fit-margin-top="0"
     fit-margin-left="0"
     fit-margin-right="0"
     fit-margin-bottom="0"
     inkscape:zoom="0.79742773"
     inkscape:cx="828.89758"
     inkscape:cy="431.45182"
     inkscape:window-x="0"
     inkscape:window-y="0"
     inkscape:window-maximized="0"
     inkscape:current-layer="svg6743" />
  <defs
     id="defs6435">
    <pattern
       id="pattern2268"
       width="707.99999"
       height="249.99998"
       patternTransform="matrix(.26458334 0 0 .26458334 253.21913 717.17254)"
       patternUnits="userSpaceOnUse">
      <path
         d="m0 0v32.734374l13.640579-32.734374zm29.974601 0 13.584 16.111332l12.413971-16.111332zm45.615193 0 7.876989 28.083968-21.093808-15.392579-24.515602 51.880855-5.132788-37.6289-32.724585 13.294942v44.57227l46.978506 44.187474 18.814488-77.539045 38.199196 50.742195-7.457086-102.20118zm42.236406 0 25.50388 33.214828 36.8183-33.214828zm100.07607 0 95.89651 61.152339-118.58588-42.75976-54.7324 78.107413-22.2364-46.749996 1.711 113.455064-47.890698-78.107411-22.234318 78.677741-37.6289-45.61134-12.201184 9.03908v80.64647l82.326197-45.78516 25.085893 68.98631 74.68751-155.646455 112.31637 104.333965 51.88089-91.790999 41.6191 20.525409 18.81453-96.921905 116.8769 66.134777 6.27148-59.292963 72.40622 17.103496 20.17776-35.496075h-119.92576l7.38667 40.626935-15.39258-18.24412-1.14059 16.533203-45.6113-26.794922 30.78709 7.412107-1.70899-15.3945448 22.23439 9.6933538 0.2657-13.832012h-176.99799l40.47069 36.636699-68.4141 86.089851-73.54688-47.890621 67.8438 17.103534 61.57421-51.882821-62.14261-17.673827 29.07621-1.140623-5.40042-21.242192zm416.95509 0 10.75782 112.4629-93.50192-57.582044 18.81441 75.257804-152.22458-48.462882-8.55081 90.652342-46.75188-35.34962-72.4063 91.22071-85.51952-72.40626s-63.25531 67.36747-91.2031 94.20703h74.832c-2.0516-14.3913-7.70498-39.45902-6.43359-37.76368 1.71039 2.28053 39.33789 18.24416 39.33789 18.24416l2.85162-21.09377 37.84569 40.61329h89.83589c4.58861-27.93947 13.14059-80.52344 13.14059-80.52344l7.41211 37.62891 21.0938-19.38475-34.94728 62.27928h44.5059l37.19327-62.27928 54.1621 41.61914 3.99031-89.50976s47.89089 87.22953 49.03121 84.3789c1.14017-2.85067 54.73247-69.55468 54.73247-69.55468l17.1035 64.99411 75.82813-26.79685-24.26763 57.14842h36.48053v-137.95506l-23.04492 54.01172 0.5703-36.48828-45.61142 43.89842 48.46103-90.080085-18.2442 1.710954 37.86921-59.509757v-25.587892zm73.14263 64.787111-6.51171 35.703119 6.51171-6.511712zm-641.06641 130.915989-45.841776 54.29688h76.068282c-8.989303-18.76664-30.226506-54.29688-30.226506-54.29688zm515.96681 27.93555-19.5391 26.36133h22.34377zm-132.2696 3.42187-31.50391 22.93946h53.43561zm205.81637 5.13086-26.82607 17.8086h28.44529zm-137.97067 2.84961-6.21672 14.95899h17.72262z"
         fill="#00e760"
         id="path6432" />
    </pattern>
  </defs>
  <metadata
     id="metadata6437">
    <rdf:RDF>
      <cc:Work
         rdf:about="">
        <dc:format>image/svg+xml</dc:format>
        <dc:type
           rdf:resource="http://purl.org/dc/dcmitype/StillImage" />
        <dc:title />
      </cc:Work>
    </rdf:RDF>
  </metadata>
  <polygon
     transform="matrix(3.4969519,0,0,3.4969519,454.53799,432.75581)"
     points=""
     id="polygon6439"
     style="fill:#f9eab0" />
  <polygon
     transform="matrix(3.4969519,0,0,3.4969519,1042.6954,575.90132)"
     points=""
     id="polygon6441"
     style="fill:#f9eab0" />
  <rect
     style="opacity:0;fill:#2196f3;fill-opacity:1;stroke:none;stroke-width:0.35775721;stroke-linecap:round;stroke-miterlimit:4;stroke-dasharray:none;stroke-opacity:1"
     id="rect7290"
     width="452.94128"
     height="218.28127"
     x="5.1217259e-05"
     y="-3.5888672e-07" />
  <g
     id="g6483"
     transform="translate(-60.855622,-393.535)">
    <g
       id="g6457"
       style="stroke:#00c853;stroke-width:1.32291675;stroke-linecap:round">
      <path
         id="path6443"
         d="M 171.99066,462.71802 82.5419,438.7503 l 6.25914,42.76465 -26.80291,33.90571 89.44876,23.96772 z"
         inkscape:connector-curvature="0"
         style="fill:#ffffff" />
      <path
         id="path6445"
         d="m 402.66197,462.71802 89.44876,-23.96772 -6.25914,42.76465 26.80291,33.90571 -89.44876,23.96772 z"
         inkscape:connector-curvature="0"
         style="fill:#ffffff" />
      <path
         id="path6447"
         d="m 452.6909,472.71935 -50.02892,-10.00133 20.54376,76.67037 29.48516,12.70596 z"
         inkscape:connector-curvature="0"
         style="fill:#00c853" />
      <path
         id="path6449"
         d="m 452.6909,472.71935 -50.02892,-10.00133 20.54376,76.67037 29.48516,12.70596 z"
         inkscape:connector-curvature="0"
         style="fill:url(#pattern2268)" />
      <path
         id="path6451"
         d="m 121.96173,472.71935 50.02892,-10.00133 -20.54376,76.67037 -29.48516,12.70596 z"
         inkscape:connector-curvature="0"
         style="fill:#00c853" />
      <path
         id="path6453"
         d="m 121.96173,472.71935 50.02892,-10.00133 -20.54376,76.67037 -29.48516,12.70596 z"
         inkscape:connector-curvature="0"
         style="fill:url(#pattern2268)" />
      <path
         id="path6455"
         d="m 121.96173,472.71935 c 0,0 94.17737,18.67002 165.36459,18.67002 71.18722,0 165.36458,-18.67002 165.36458,-18.67002 v 79.375 c 0,0 -92.48624,18.67002 -165.36458,18.67002 -72.87834,0 -165.36459,-18.67002 -165.36459,-18.67002 z"
         inkscape:connector-curvature="0"
         style="fill:#ffffff" />
    </g>
    <g
       id="g6477"
       aria-label="Ejercicio"
       style="fill:#ffffff;stroke-width:0.26458335">
      <path
         id="path6459"
         style="font-variant-ligatures:normal;font-variant-caps:normal;font-variant-numeric:normal;font-feature-settings:normal"
         d="m 247.25634,585.53019 h 2.13596 q 2.41157,0 2.82498,0.89573 0.20671,0.25838 0.20671,0.62011 h 0.0689 q 0,0.89573 -2.34267,0.89573 -3.03168,0.17225 -3.03168,0.48231 -0.75792,3.03169 -0.75792,7.1658 0,1.10243 0.89572,1.10243 h 0.62012 l 2.61827,-0.0689 q 1.01631,0 1.72255,0.96463 v 0.2067 q 0,0.60289 -4.75423,1.44694 -1.10243,0.46509 -1.10243,0.75792 v 2.75608 l 0.0689,0.75792 -0.1378,0.41341 q 0.24115,0 0.41341,3.4451 0.25838,1.24023 1.24023,1.24023 l 4.27192,0.34451 q 0.46509,0.29283 0.96463,0.89573 -0.7407,1.03352 -2.75608,1.03352 l -0.0689,0.0689 q -5.09874,-0.13781 -5.09874,-0.82683 -0.34451,-0.1378 -0.55122,-0.89572 l 0.0689,-2.82498 v -0.34451 l -0.20671,-9.64627 V 593.385 q 0,-6.66626 1.65365,-7.57921 0.39618,-0.27561 1.03352,-0.27561 z"
         inkscape:connector-curvature="0" />
      <path
         id="path6461"
         style="font-variant-ligatures:normal;font-variant-caps:normal;font-variant-numeric:normal;font-feature-settings:normal"
         d="m 263.29326,583.53204 q 1.03353,0 1.03353,1.17133 l 0.0689,0.82682 q -0.43063,0 -0.49953,10.30084 -0.0517,10.30083 -1.49862,12.36789 -1.22301,2.75608 -2.96278,2.75608 h -0.27561 q -2.72163,0 -4.47862,-1.99816 l -0.55122,-2.20486 v -0.27561 q 0.55122,-1.72255 1.24023,-1.72255 h 0.20671 q 0.39619,0 0.75792,2.34267 0.49954,1.17133 2.48047,1.17133 h 0.68902 q 0.18948,-0.0344 0.75792,-1.17133 0.53399,-0.25838 0.96463,-1.79145 0.1378,0 0.1378,-0.20671 0.34451,-3.03168 0.44786,-12.05783 0.10336,-9.02615 0.86128,-9.02615 0.34451,-0.48231 0.62011,-0.48231 z"
         inkscape:connector-curvature="0" />
      <path
         id="path6463"
         style="font-variant-ligatures:normal;font-variant-caps:normal;font-variant-numeric:normal;font-feature-settings:normal"
         d="m 269.97675,584.58279 q 1.51584,0 3.5829,1.65365 0.34451,0.62011 0.34451,1.24023 0,3.08336 -1.99816,4.27192 -2.29099,0.68902 -3.7896,0.68902 -0.34451,0.36173 -0.34451,1.10243 v 1.17133 q 0,3.73793 0.96462,8.40603 0,2.51492 1.92926,4.89204 0.60289,0.48231 0.89572,0.48231 h 0.48232 q 0.68902,-0.25838 1.72254,-0.89572 l 0.41342,-0.0689 q 0.49953,0 0.75792,0.82682 0,1.55029 -2.41157,3.10059 l -1.10243,0.2067 q -0.98185,0 -3.4451,-2.68717 -1.30913,-2.04984 -1.30913,-4.96094 -0.89573,-4.37527 -1.03353,-11.16211 0,-2.75608 1.92925,-6.89019 1.6192,-1.37804 2.41157,-1.37804 z m -1.58475,5.51215 0.34451,0.20671 q 2.17041,0 2.89388,-1.17133 0.20671,-0.36174 0.20671,-0.68902 v -0.27561 q 0,-1.03353 -1.30914,-1.03353 -1.8259,0 -2.13596,2.89388 z"
         inkscape:connector-curvature="0" />
      <path
         id="path6465"
         style="font-variant-ligatures:normal;font-variant-caps:normal;font-variant-numeric:normal;font-feature-settings:normal"
         d="m 283.22314,589.00974 q 1.65365,0.56844 2.27376,1.79145 l 0.0689,0.34451 q -0.24116,1.30913 -1.10243,1.30913 -0.51677,0 -1.79145,-1.17133 h -0.55122 q -1.56752,0 -3.04891,1.60197 -1.48139,1.60197 -0.43064,9.74962 1.06798,8.14765 -0.15503,7.51031 l -1.24023,0.0344 q -0.67179,-0.32728 -0.82682,-8.21655 -0.13781,-7.9065 -0.46509,-12.23009 0,-1.10243 1.44694,-1.10243 0.89572,0 0.89572,0.82682 l -0.0689,1.03353 q 0.13781,0.31006 0.27561,0.34451 h 0.27561 q 1.58474,-1.8259 4.44417,-1.8259 z"
         inkscape:connector-curvature="0" />
      <path
         id="path6467"
         style="font-variant-ligatures:normal;font-variant-caps:normal;font-variant-numeric:normal;font-feature-settings:normal"
         d="m 294.09242,584.77227 q 3.16949,0 3.16949,1.58474 v 0.0689 q 0,0.68902 -1.10243,0.96462 l -2.68718,-0.1378 q -1.27468,0 -1.99815,1.72255 -0.72347,0.43063 -1.86036,4.20301 -0.68902,2.5666 -0.68902,4.75424 v 0.55121 q 0,1.99816 1.10244,6.20117 0,1.6192 2.48046,3.5829 0.63735,0.34451 1.03353,0.34451 h 0.55122 q 0.36173,0 1.37804,-0.62012 l 0.34451,-0.0689 q 0.89572,0.34451 0.89572,1.30914 v 0.0689 q -0.72347,1.92925 -3.514,1.92925 -0.96462,0 -3.44509,-2.06705 -0.89573,-0.96463 -1.10243,-1.86035 -1.92926,-5.80499 -1.92926,-8.81945 0,-4.30637 1.79145,-9.30176 1.25746,-2.46324 2.48047,-3.51399 1.37804,-0.89573 3.10059,-0.89573 z"
         inkscape:connector-curvature="0" />
      <path
         id="path6469"
         style="font-variant-ligatures:normal;font-variant-caps:normal;font-variant-numeric:normal;font-feature-settings:normal"
         d="m 300.06966,584.03157 q 0.75792,0 1.17133,1.37804 -0.34451,1.24024 -1.37804,1.24024 h -0.2067 q -0.75792,0 -0.96463,-1.17133 0,-0.89573 1.30914,-1.44695 z m 0.24116,5.09875 q 0.75792,0 0.75792,3.16948 l 0.0689,3.3762 q -0.17226,14.64165 -0.48231,14.64165 -0.75792,0.82683 -1.37804,0.82683 -0.75792,0 -1.03353,-1.92926 l 0.0689,-0.0689 v -0.0689 l 0.68902,-6.27007 0.1378,-6.75239 -0.2067,-5.13319 q 0.24115,-1.79145 1.37804,-1.79145 z"
         inkscape:connector-curvature="0" />
      <path
         id="path6471"
         style="font-variant-ligatures:normal;font-variant-caps:normal;font-variant-numeric:normal;font-feature-settings:normal"
         d="m 310.14656,584.77227 q 3.16949,0 3.16949,1.58474 v 0.0689 q 0,0.68902 -1.10243,0.96462 l -2.68717,-0.1378 q -1.27469,0 -1.99816,1.72255 -0.72347,0.43063 -1.86035,4.20301 -0.68902,2.5666 -0.68902,4.75424 v 0.55121 q 0,1.99816 1.10243,6.20117 0,1.6192 2.48047,3.5829 0.63734,0.34451 1.03353,0.34451 h 0.55121 q 0.36174,0 1.37804,-0.62012 l 0.34451,-0.0689 q 0.89573,0.34451 0.89573,1.30914 v 0.0689 q -0.72347,1.92925 -3.514,1.92925 -0.96463,0 -3.4451,-2.06705 -0.89572,-0.96463 -1.10243,-1.86035 -1.92925,-5.80499 -1.92925,-8.81945 0,-4.30637 1.79145,-9.30176 1.25746,-2.46324 2.48047,-3.51399 1.37804,-0.89573 3.10058,-0.89573 z"
         inkscape:connector-curvature="0" />
      <path
         id="path6473"
         style="font-variant-ligatures:normal;font-variant-caps:normal;font-variant-numeric:normal;font-feature-settings:normal"
         d="m 316.12381,584.03157 q 0.75792,0 1.17133,1.37804 -0.34451,1.24024 -1.37804,1.24024 h -0.20671 q -0.75792,0 -0.96462,-1.17133 0,-0.89573 1.30913,-1.44695 z m 0.24115,5.09875 q 0.75792,0 0.75792,3.16948 l 0.0689,3.3762 q -0.17226,14.64165 -0.48232,14.64165 -0.75792,0.82683 -1.37804,0.82683 -0.75792,0 -1.03353,-1.92926 l 0.0689,-0.0689 v -0.0689 l 0.68902,-6.27007 0.1378,-6.75239 -0.20671,-5.13319 q 0.24116,-1.79145 1.37804,-1.79145 z"
         inkscape:connector-curvature="0" />
      <path
         id="path6475"
         style="font-variant-ligatures:normal;font-variant-caps:normal;font-variant-numeric:normal;font-feature-settings:normal"
         d="m 325.44278,588.52742 q 2.89389,0.56845 2.89389,1.92926 3.01445,4.49585 0.82682,14.81391 -1.37804,3.60012 -2.48047,4.61643 -1.53307,1.92925 -3.03168,1.92925 -2.32544,0 -3.5829,-3.03168 l -1.17134,-5.78776 v -1.03353 q 0,-3.47955 1.17134,-8.47494 0.18948,-0.27561 0.34451,-1.24023 1.61919,-3.5829 3.10058,-3.5829 z m -1.30913,2.54938 h -0.13781 q -0.80959,0 -1.10243,1.30913 -1.44694,2.65273 -1.44694,5.51215 -0.2067,0.51677 -0.2067,1.79145 v 2.34267 q 0,3.04891 1.10243,6.27007 0.51676,1.03353 1.03353,1.03353 0.82682,0 2.34266,-1.99815 0.44786,0 1.44694,-2.13596 0.41341,-1.49862 0.82683,-5.71886 0,-4.15134 -1.10244,-6.68349 -0.55121,-1.49861 -0.89572,-1.79145 z"
         inkscape:connector-curvature="0" />
    </g>
    <path
       id="path6479"
       d="m 352.38364,605.94354 c -1.29147,1.29147 -5.11475,-2.6319 -6.91868,-2.34619 -1.80393,0.28572 -4.22769,5.19852 -5.85504,4.36935 -1.62734,-0.82918 0.92255,-5.67772 0.0934,-7.30506 -0.82918,-1.62735 -6.25052,-2.41434 -5.96481,-4.21827 0.28572,-1.80393 5.68491,-0.87712 6.97638,-2.16859 1.29147,-1.29147 0.36466,-6.69067 2.16859,-6.97638 1.80393,-0.28572 2.59092,5.13563 4.21827,5.9648 1.62735,0.82918 6.47589,-1.72072 7.30506,-0.0934 0.82918,1.62735 -4.08363,4.05111 -4.36934,5.85504 -0.28572,1.80393 3.63766,5.6272 2.34619,6.91867 z"
       inkscape:connector-curvature="0"
       style="fill:#00c853" />
    <path
       id="path6481"
       d="m -222.26898,605.94354 c -1.29147,1.29147 -5.11475,-2.6319 -6.91868,-2.34619 -1.80393,0.28572 -4.22769,5.19852 -5.85503,4.36935 -1.62735,-0.82918 0.92254,-5.67772 0.0934,-7.30506 -0.82918,-1.62735 -6.25052,-2.41434 -5.96481,-4.21827 0.28572,-1.80393 5.68492,-0.87712 6.97639,-2.16859 1.29147,-1.29147 0.36465,-6.69067 2.16858,-6.97638 1.80393,-0.28572 2.59092,5.13563 4.21827,5.9648 1.62735,0.82918 6.47589,-1.72072 7.30507,-0.0934 0.82917,1.62735 -4.08364,4.05111 -4.36935,5.85504 -0.28572,1.80393 3.63766,5.6272 2.34619,6.91867 z"
       transform="scale(-1,1)"
       inkscape:connector-curvature="0"
       style="fill:#00c853" />
  </g>
  <g
     id="g3352"
     transform="translate(0,3.1750002)">
    <g
       id="g6507"
       aria-label="Comparación "
       style="font-variant-ligatures:normal;font-variant-caps:normal;font-variant-numeric:normal;font-feature-settings:normal;fill:#00c853;stroke-width:0.26458335"
       transform="rotate(-6.1370175,-3871.9071,163.81179)">
      <path
         id="path6485"
         style="font-variant-ligatures:normal;font-variant-caps:normal;font-variant-numeric:normal;font-feature-settings:normal"
         d="m 139.41871,543.35537 q -1.24833,-1.31244 -2.89465,-2.23034 -3.29263,-1.83578 -5.25392,0.14305 -1.99904,2.01573 -1.82186,4.07389 0.15721,1.79948 1.82568,3.03638 1.62028,1.18178 3.61942,1.14176 2.16277,-0.0353 3.50428,-1.56181 l 2.94334,3.97687 q -1.78725,1.58169 -4.5407,2.28495 -5.50994,1.42084 -10.3244,-2.90794 -2.56956,-2.28113 -2.31324,-6.31284 0.24851,-3.85376 2.80611,-6.73888 2.79022,-3.13512 6.69172,-3.04113 4.57337,0.10178 9.34054,4.79471 z"
         inkscape:connector-curvature="0" />
      <path
         id="path6487"
         style="font-variant-ligatures:normal;font-variant-caps:normal;font-variant-numeric:normal;font-feature-settings:normal"
         d="m 148.88985,551.77903 q -0.84804,-0.16523 -1.23709,-0.487 -0.37719,-0.3048 -0.30306,-0.72288 0.0767,-0.43251 0.51451,-0.63741 0.48874,-0.24049 1.23841,-0.10757 0.79292,0.14059 1.2057,0.49631 0.41532,0.3413 0.34119,0.75938 -0.0716,0.40368 -0.58403,0.61021 -0.5006,0.22352 -1.17563,0.089 z m 1.4251,-8.62472 q -3.61862,-0.6416 -5.91037,1.4651 -1.91744,1.75671 -2.47468,4.89957 -0.61858,3.48887 0.71656,5.43564 1.47747,2.15045 5.64812,2.9494 2.96219,0.56982 5.34791,-1.31203 2.31783,-1.83442 2.8674,-4.93403 0.55469,-3.12845 -1.04139,-5.44863 -1.6791,-2.43899 -5.15355,-3.05502 z"
         inkscape:connector-curvature="0" />
      <path
         id="path6489"
         style="font-variant-ligatures:normal;font-variant-caps:normal;font-variant-numeric:normal;font-feature-settings:normal"
         d="m 175.99492,546.46129 q -3.09289,-0.50363 -4.99952,1.67044 -1.08344,1.21573 -1.55013,2.86349 0.35342,-1.38333 -0.0866,-2.70685 -0.24227,-2.25629 -2.22731,-3.14311 -1.60905,-0.72738 -4.03264,0.94067 l 0.28701,-1.73365 -5.38333,-0.82891 -2.13944,15.50586 5.30775,0.64006 0.85376,-4.25468 q 1.32607,-5.04307 2.87732,-4.72393 1.65478,0.3197 0.82024,4.84368 -0.41002,2.26306 -1.15315,4.47666 l 5.38548,0.81442 q 0.48946,-2.39928 1.23904,-4.65634 1.06411,-4.47508 2.39641,-3.8776 1.34893,0.58514 0.63355,4.90477 -0.52374,2.23137 -1.3076,4.32051 l 5.07875,0.48764 q 1.12982,-3.6216 1.49204,-7.35717 0.30789,-3.26998 -0.29817,-5.26944 -0.75234,-2.50966 -3.19349,-2.91652 z"
         inkscape:connector-curvature="0" />
      <path
         id="path6491"
         style="font-variant-ligatures:normal;font-variant-caps:normal;font-variant-numeric:normal;font-feature-settings:normal"
         d="m 188.49181,557.6288 q -0.98839,-0.11981 -1.4381,-0.42506 -0.38056,-0.26736 -0.30568,-0.64175 0.0696,-0.33079 0.45721,-0.60828 0.40038,-0.26119 0.89414,-0.31932 0.77698,-0.0828 1.39935,0.25812 0.55322,0.30305 0.68931,0.76201 0.14888,0.47526 -0.25327,0.75098 -0.46733,0.32682 -1.44296,0.2233 z m 1.35671,-8.27187 q -2.28203,-0.27663 -4.20995,0.90555 l 0.19602,-1.49537 -5.24635,-0.39999 -2.32055,19.14292 5.00013,0.60613 0.87791,-6.6338 q 1.61957,1.36148 4.24516,1.72401 3.72499,0.54005 6.00616,-1.36625 2.03319,-1.68563 2.21866,-4.55392 0.19647,-2.83746 -1.50986,-5.0649 -1.88515,-2.4556 -5.25733,-2.86438 z"
         inkscape:connector-curvature="0" />
      <path
         id="path6493"
         style="font-variant-ligatures:normal;font-variant-caps:normal;font-variant-numeric:normal;font-feature-settings:normal"
         d="m 202.73865,561.26383 q -0.48807,-0.12234 -0.78676,-0.3729 -0.28412,-0.24911 -0.28851,-0.4997 0.0116,-0.26369 0.31757,-0.38027 0.35111,-0.12678 0.98778,-0.019 0.44728,0.0888 0.68768,0.33357 0.21128,0.24183 0.1705,0.50262 -0.0422,0.27536 -0.31902,0.39485 -0.29428,0.14717 -0.76924,0.0409 z m 5.02401,-9.78351 q -3.75015,-1.05156 -6.51388,-0.9304 -1.38987,0.0671 -2.02069,0.34254 l 0.42142,4.32404 q 1.67686,-0.28861 3.47907,-0.0644 3.6044,0.44842 4.19613,3.06787 -1.28798,-0.9527 -3.00863,-1.55134 -3.47044,-1.20019 -5.70808,0.57742 -1.32715,1.05928 -1.76701,2.51622 -0.4384,1.44236 0.1401,2.72147 0.61347,1.37089 2.1593,2.09921 1.72941,0.80552 4.29208,0.63484 2.09064,-0.15898 3.47893,-1.68301 l -0.42235,1.72354 4.96807,0.49638 q 1.1944,-2.97072 1.32961,-6.23855 0.1236,-2.85699 -0.87455,-4.79604 -1.22982,-2.41835 -4.14952,-3.23979 z"
         inkscape:connector-curvature="0" />
      <path
         id="path6495"
         style="font-variant-ligatures:normal;font-variant-caps:normal;font-variant-numeric:normal;font-feature-settings:normal"
         d="m 218.71823,551.10187 -4.67907,-0.26899 -0.87193,15.00148 4.79111,0.51331 0.32018,-6.18807 q 0.8988,-3.05505 3.79111,-3.56539 1.44676,-0.26247 2.71036,0.0917 l 0.43527,-5.09139 q -4.10877,-0.23657 -6.59054,1.35078 z"
         inkscape:connector-curvature="0" />
      <path
         id="path6497"
         style="font-variant-ligatures:normal;font-variant-caps:normal;font-variant-numeric:normal;font-feature-settings:normal"
         d="m 231.03214,563.66548 q -0.49196,-0.10563 -0.79901,-0.34587 -0.29244,-0.23928 -0.30537,-0.48957 0.003,-0.26394 0.30442,-0.39088 0.34658,-0.13867 0.98656,-0.0527 0.45004,0.0735 0.69865,0.30994 0.21939,0.23449 0.18753,0.49652 -0.0328,0.27663 -0.30538,0.40549 -0.2891,0.15711 -0.7674,0.067 z m 4.68765,-9.94905 q -3.78381,-0.92314 -6.5418,-0.70786 -1.38678,0.11447 -2.00784,0.41121 l 0.56854,4.30717 q 1.66605,-0.34559 3.47485,-0.18294 3.6176,0.32532 4.29825,2.92308 -1.3197,-0.90825 -3.05975,-1.4479 -3.50933,-1.08121 -5.68509,0.77163 -1.29027,1.10389 -1.68022,2.57497 -0.38899,1.45647 0.23277,2.71512 0.65983,1.34919 2.22959,2.0244 1.75586,0.74611 4.31122,0.48819 2.08401,-0.23014 3.41955,-1.8006 l -0.36336,1.73694 4.9821,0.32677 q 1.09246,-3.0097 1.11622,-6.28025 0.0262,-2.85954 -1.0375,-4.76345 -1.31153,-2.37502 -4.25753,-3.09648 z"
         inkscape:connector-curvature="0" />
      <path
         id="path6499"
         style="font-variant-ligatures:normal;font-variant-caps:normal;font-variant-numeric:normal;font-feature-settings:normal"
         d="m 251.69647,559.75941 q -0.50173,-0.55131 -1.21992,-0.86363 -1.42175,-0.62394 -2.43025,0.55984 -0.57489,0.69116 -0.41988,1.44601 0.11389,0.69429 0.77925,1.19467 0.68067,0.48644 1.57351,0.51382 0.98198,0.002 1.86055,-0.60131 l 3.52139,3.03875 q -1.11141,1.50141 -3.04698,2.45098 -3.8851,1.88382 -8.02128,-0.86141 -2.17433,-1.4509 -2.48035,-4.6021 -0.28227,-3.03281 1.2896,-5.59722 1.68528,-2.79359 4.63792,-3.24087 3.43872,-0.49769 7.56112,2.54005 z"
         inkscape:connector-curvature="0" />
      <path
         id="path6501"
         style="font-variant-ligatures:normal;font-variant-caps:normal;font-variant-numeric:normal;font-feature-settings:normal"
         d="m 259.13474,553.42234 q 1.46481,0.007 2.2699,-0.81464 0.74402,-0.75057 0.7237,-1.85006 -0.0208,-1.08487 -0.75472,-1.8869 -0.78988,-0.87724 -2.10581,-0.95237 -1.18373,-0.0852 -2.00448,0.76528 -0.74503,0.77984 -0.85743,1.90401 -0.0988,1.15396 0.54783,1.9383 0.74547,0.89034 2.18101,0.89638 z m 2.19158,1.01395 -4.62447,-0.14639 -0.55994,14.39663 4.75158,0.28267 z"
         inkscape:connector-curvature="0" />
      <path
         id="path6503"
         style="font-variant-ligatures:normal;font-variant-caps:normal;font-variant-numeric:normal;font-feature-settings:normal"
         d="m 269.25347,563.95076 q -0.95114,-0.0358 -1.4231,-0.54432 -0.45829,-0.46423 -0.44001,-1.28396 0.0186,-0.83436 0.47015,-1.38081 0.49677,-0.60403 1.33114,-0.58542 0.89292,0.0199 1.4078,0.57328 0.50091,0.52375 0.48295,1.32885 -0.0179,0.80509 -0.54269,1.3499 -0.52539,0.5741 -1.28624,0.54248 z m 0.0765,-9.34199 q -3.67415,-0.0819 -5.61762,2.34977 -1.62694,2.0287 -1.69811,5.21979 -0.079,3.5424 1.53754,5.26266 1.78829,1.89984 6.03201,2.05306 3.01445,0.11117 5.0851,-2.11267 2.0108,-2.16659 2.08099,-5.31376 0.0708,-3.17645 -1.86056,-5.22594 -2.03159,-2.15423 -5.55935,-2.23291 z m 2.45128,-6.81397 -4.7623,4.71209 1.31503,1.44992 5.59787,-3.43396 z"
         inkscape:connector-curvature="0" />
      <path
         id="path6505"
         style="font-variant-ligatures:normal;font-variant-caps:normal;font-variant-numeric:normal;font-feature-settings:normal"
         d="m 286.51779,553.86893 q -2.72226,-0.28863 -4.61584,0.9633 l 0.0331,-0.99551 -4.59694,-0.14941 -0.42651,15.76755 5.50522,0.0211 0.0944,-5.53423 q -0.17204,-4.77387 2.24421,-4.8671 1.78655,-0.0664 2.04565,4.91284 0.13738,2.35785 -0.23826,4.86015 l 5.72434,0.15372 q 0.43887,-3.71732 -0.0597,-7.33575 -0.42661,-3.29603 -1.61981,-5.23332 -1.49882,-2.42164 -4.08987,-2.56335 z"
         inkscape:connector-curvature="0" />
    </g>
    <g
       id="g6533"
       aria-label="de cantidades"
       style="font-variant-ligatures:normal;font-variant-caps:normal;font-variant-numeric:normal;font-feature-settings:normal;fill:#00c853;stroke-width:0.26458335"
       transform="rotate(-5.0513934,-4394.9723,263.66701)">
      <path
         id="path6509"
         style="font-variant-ligatures:normal;font-variant-caps:normal;font-variant-numeric:normal;font-feature-settings:normal"
         d="m 131.51356,548.41441 q -0.70661,0.014 -1.19581,-0.35976 -0.40938,-0.32682 -0.45277,-0.75525 -0.009,-0.45097 0.41347,-0.67535 0.49982,-0.23776 1.40807,-0.0741 0.41528,0.0885 0.74179,0.38272 0.32347,0.3085 0.37085,0.64796 0.0587,0.35684 -0.24584,0.59133 -0.32493,0.26008 -1.03976,0.2424 z m -4.38312,-7.17737 q -1.69877,0.80552 -2.84315,2.73228 -0.8223,1.89064 -0.57367,4.02459 0.52492,2.31262 1.85795,3.85439 1.51729,1.73076 3.98313,2.03196 1.98107,0.25772 3.16265,-0.29877 1.18158,-0.55649 1.57178,-0.9823 l -0.4763,2.23389 5.22293,1.41303 3.95328,-19.17302 -5.73539,-1.53726 -1.54798,7.26012 q -0.97861,-0.95719 -2.54084,-1.63461 -3.12751,-1.34053 -6.03439,0.0757 z"
         inkscape:connector-curvature="0" />
      <path
         id="path6511"
         style="font-variant-ligatures:normal;font-variant-caps:normal;font-variant-numeric:normal;font-feature-settings:normal"
         d="m 149.62093,546.40671 q 1.30958,-0.005 1.77338,0.73183 0.22934,0.38283 0.19407,0.74834 l -3.95883,-0.31747 q -0.009,-0.28415 0.22302,-0.58494 0.4732,-0.57018 1.76836,-0.57776 z m -1.67047,5.96377 q -0.67525,-0.55138 -0.81838,-1.33528 -0.08,-0.38602 -0.0144,-0.67177 l 9.87786,0.56721 q 0.0146,-2.00505 -0.986,-4.0717 -2.02745,-4.15283 -7.18628,-4.57965 -2.94622,-0.24147 -4.99947,1.51995 -1.85623,1.57339 -2.47985,4.24343 -0.62265,2.58098 0.17481,4.95354 0.85575,2.54651 3.00262,3.68681 3.71907,1.99992 7.69948,0.77461 1.99742,-0.61137 3.23116,-1.61139 l -2.52497,-3.78031 q -0.78009,0.45611 -1.79401,0.72191 -2.01599,0.54858 -3.18261,-0.41736 z"
         inkscape:connector-curvature="0" />
      <path
         id="path6513"
         style="font-variant-ligatures:normal;font-variant-caps:normal;font-variant-numeric:normal;font-feature-settings:normal"
         d="m 174.62554,552.79254 q -0.44678,-0.5967 -1.13185,-0.97618 -1.35567,-0.75687 -2.47261,0.32518 -0.63827,0.6331 -0.55606,1.39931 0.0471,0.70198 0.66159,1.26362 0.63111,0.54923 1.51725,0.66175 0.97727,0.096 1.90947,-0.42087 l 3.21508,3.36116 q -1.24971,1.3884 -3.26713,2.14878 -4.04724,1.50417 -7.90234,-1.62352 -2.02583,-1.65193 -2.0295,-4.81795 0.009,-3.04591 1.81826,-5.44847 1.94437,-2.61988 4.92622,-2.78313 3.47054,-0.16701 7.28399,3.25055 z"
         inkscape:connector-curvature="0" />
      <path
         id="path6515"
         style="font-variant-ligatures:normal;font-variant-caps:normal;font-variant-numeric:normal;font-feature-settings:normal"
         d="m 184.48798,559.18908 q -0.48516,-0.13344 -0.77805,-0.39075 -0.27836,-0.25552 -0.27703,-0.50615 0.0176,-0.26336 0.32616,-0.37293 0.35391,-0.11874 0.98796,0.004 0.44513,0.099 0.67989,0.34917 0.2057,0.24658 0.15899,0.50637 -0.0485,0.27433 -0.32795,0.38747 -0.29756,0.14042 -0.76997,0.0233 z m 5.2459,-9.66635 q -3.72518,-1.13684 -6.49096,-1.07876 -1.39104,0.0354 -2.02797,0.29635 l 0.32265,4.33253 q 1.68302,-0.25028 3.47963,0.015 3.59324,0.53053 4.12505,3.1628 -1.26591,-0.98184 -2.97245,-1.61957 -3.44215,-1.27905 -5.71977,0.44704 -1.35097,1.02873 -1.82395,2.47525 -0.47119,1.43199 0.078,2.72397 0.58204,1.38452 2.11085,2.14792 1.71059,0.84476 4.27648,0.73259 2.09372,-0.11124 3.51643,-1.60321 l -0.46157,1.71347 4.95545,0.60959 q 1.26187,-2.9427 1.4716,-6.2066 0.18874,-2.85343 -0.76491,-4.81474 -1.17433,-2.44578 -4.07453,-3.33362 z"
         inkscape:connector-curvature="0" />
      <path
         id="path6517"
         style="font-variant-ligatures:normal;font-variant-caps:normal;font-variant-numeric:normal;font-feature-settings:normal"
         d="m 205.35473,549.74046 q -2.68081,-0.55434 -4.6881,0.50575 l 0.13062,-0.98746 -4.5601,-0.59972 -1.97153,15.64961 5.47659,0.56117 0.63698,-5.49825 q 0.2972,-4.76772 2.71093,-4.62342 1.78444,0.10925 1.55374,5.08984 -0.0946,2.35995 -0.71398,4.81332 l 5.68164,0.71465 q 0.80148,-3.65633 0.66033,-7.30622 -0.10115,-3.32198 -1.09851,-5.367 -1.25397,-2.55701 -3.81861,-2.95227 z"
         inkscape:connector-curvature="0" />
      <path
         id="path6519"
         style="font-variant-ligatures:normal;font-variant-caps:normal;font-variant-numeric:normal;font-feature-settings:normal"
         d="m 216.64594,545.82794 -0.54332,4.70023 -3.90622,-0.54984 -0.65758,4.6612 4.01081,0.52927 -1.12479,11.0723 4.9384,0.68096 1.08594,-11.13435 3.8055,0.35032 0.49955,-4.70391 -3.78721,-0.39286 0.48479,-4.52884 z"
         inkscape:connector-curvature="0" />
      <path
         id="path6521"
         style="font-variant-ligatures:normal;font-variant-caps:normal;font-variant-numeric:normal;font-feature-settings:normal"
         d="m 227.95629,551.74962 q 1.46351,0.062 2.29885,-0.72895 0.77164,-0.72214 0.79257,-1.82162 0.0199,-1.08489 -0.68344,-1.91388 -0.75643,-0.90624 -2.06862,-1.03066 -1.1797,-0.1295 -2.03176,0.68958 -0.77375,0.75134 -0.92822,1.87051 -0.14199,1.14944 0.47475,1.95748 0.71156,0.91767 2.14587,0.97754 z m 2.15201,1.09542 -4.61573,-0.3197 -1.09941,14.3655 4.73764,0.46065 z"
         inkscape:connector-curvature="0" />
      <path
         id="path6523"
         style="font-variant-ligatures:normal;font-variant-caps:normal;font-variant-numeric:normal;font-feature-settings:normal"
         d="m 238.85166,562.11858 q -0.69633,0.1209 -1.2365,-0.17446 -0.45417,-0.26103 -0.56196,-0.67794 -0.0769,-0.44445 0.30638,-0.73019 0.45803,-0.31074 1.3806,-0.28651 0.4239,0.0246 0.79121,0.26593 0.36647,0.25594 0.46473,0.5843 0.11204,0.34383 -0.15342,0.62175 -0.28178,0.3063 -0.99104,0.39712 z m -5.41985,-6.43052 q -1.55713,1.05357 -2.39642,3.13146 -0.52638,1.99339 0.0427,4.06505 0.86921,2.20641 2.42042,3.52844 1.76197,1.48092 4.24498,1.40509 1.99726,-0.0454 3.08089,-0.77445 1.08364,-0.72906 1.40483,-1.20907 l -0.13238,2.28026 5.37671,0.60548 1.00306,-19.55062 -5.90208,-0.65065 -0.43026,7.41084 q -1.11231,-0.7979 -2.75914,-1.23083 -3.29449,-0.85125 -5.95327,0.989 z"
         inkscape:connector-curvature="0" />
      <path
         id="path6525"
         style="font-variant-ligatures:normal;font-variant-caps:normal;font-variant-numeric:normal;font-feature-settings:normal"
         d="m 254.61355,564.93314 q -0.49472,-0.0918 -0.80837,-0.32339 -0.29902,-0.23101 -0.31894,-0.48084 -0.005,-0.26391 0.29338,-0.39924 0.34256,-0.14831 0.98469,-0.0802 0.45193,0.0609 0.70705,0.29029 0.22586,0.22826 0.20134,0.49107 -0.0251,0.27745 -0.29393,0.41387 -0.28459,0.16514 -0.76522,0.0885 z m 4.40765,-10.07622 q -3.80814,-0.81699 -6.55904,-0.52468 -1.38304,0.1532 -1.99556,0.46719 l 0.68874,4.28959 q 1.65575,-0.39204 3.46839,-0.28002 3.62527,0.22404 4.3783,2.80176 -1.34458,-0.871 -3.09905,-1.36179 -3.53818,-0.98267 -5.66128,0.93028 -1.25891,1.13954 -1.60757,2.62095 -0.34812,1.46677 0.30858,2.70755 0.69731,1.33021 2.28533,1.96126 1.77603,0.69673 4.32318,0.36746 2.07676,-0.28831 3.36787,-1.89551 l -0.31466,1.74642 4.98929,0.18735 q 1.00789,-3.03907 0.9402,-6.309 -0.0538,-2.85916 -1.17028,-4.73258 -1.37743,-2.33743 -4.34244,-2.97623 z"
         inkscape:connector-curvature="0" />
      <path
         id="path6527"
         style="font-variant-ligatures:normal;font-variant-caps:normal;font-variant-numeric:normal;font-feature-settings:normal"
         d="m 273.3223,563.43191 q -0.6908,0.14931 -1.24261,-0.12368 -0.46448,-0.24221 -0.58925,-0.65436 -0.095,-0.44094 0.27623,-0.74213 0.44493,-0.32923 1.36772,-0.34279 0.42454,0.007 0.80143,0.23331 0.37664,0.24072 0.48826,0.56478 0.12602,0.33895 -0.12784,0.6275 -0.26899,0.31758 -0.97394,0.43737 z m -5.67861,-6.2032 q -1.51268,1.11644 -2.26619,3.22695 -0.44432,2.01327 0.20907,4.05989 0.95882,2.16897 2.56286,3.42638 1.82114,1.40754 4.29896,1.2301 1.99372,-0.12712 3.04659,-0.89994 1.05288,-0.77283 1.35415,-1.26559 l -0.0389,2.28377 5.397,0.38482 0.20171,-19.57529 -5.92377,-0.40845 -0.12646,7.42225 q -1.14405,-0.75169 -2.80722,-1.11683 -3.32659,-0.71564 -5.90779,1.23194 z"
         inkscape:connector-curvature="0" />
      <path
         id="path6529"
         style="font-variant-ligatures:normal;font-variant-caps:normal;font-variant-numeric:normal;font-feature-settings:normal"
         d="m 290.8727,558.13926 q 1.28765,-0.23872 1.87554,0.40349 0.29399,0.33574 0.32454,0.70168 l -3.95191,0.39435 q -0.0595,-0.27799 0.11501,-0.61536 0.36381,-0.64549 1.63682,-0.88416 z m -0.579,6.16618 q -0.76283,-0.42198 -1.0436,-1.16773 -0.14768,-0.36554 -0.13405,-0.65842 l 9.82044,-1.20529 q -0.34359,-1.97545 -1.69704,-3.83027 -2.73624,-3.72418 -7.8884,-3.2232 -2.94199,0.28837 -4.64782,2.38803 -1.54553,1.87949 -1.68248,4.61797 -0.15189,2.65068 1.05631,4.84277 1.29661,2.35283 3.61256,3.09156 4.01634,1.30387 7.71408,-0.61234 1.85619,-0.95813 2.89159,-2.16233 l -3.15928,-3.26883 q -0.68613,0.58804 -1.63631,1.03058 -1.88568,0.89966 -3.206,0.1575 z"
         inkscape:connector-curvature="0" />
      <path
         id="path6531"
         style="font-variant-ligatures:normal;font-variant-caps:normal;font-variant-numeric:normal;font-feature-settings:normal"
         d="m 301.38856,563.03084 q 1.35973,0.55555 2.4384,0.98555 2.98979,1.41263 3.56359,0.87263 0.19809,-0.31196 0.0468,-0.52828 -0.15127,-0.21631 -1.46546,-0.69964 -1.29987,-0.4983 -2.98034,-0.98813 -1.68046,-0.48983 -2.30766,-1.69143 -0.59695,-1.15833 -0.14289,-2.47187 0.49569,-1.41698 1.97053,-2.26994 1.70643,-0.97528 4.25703,-0.87095 2.15473,0.0838 4.31078,0.88529 1.0224,0.53376 1.60534,1.06266 l -1.77989,2.93939 q -0.86138,-0.53735 -1.67201,-0.76828 -2.65635,-0.90747 -2.77992,0.12045 -0.008,0.27845 0.48144,0.5751 0.50421,0.28168 2.12417,0.68499 1.63427,0.38833 2.65505,0.84891 1.52433,0.71298 1.88286,2.34527 0.37381,1.66125 -0.96307,3.44843 -1.39706,1.71531 -4.9245,1.80846 -3.07333,0.0977 -8.32164,-2.11409 z"
         inkscape:connector-curvature="0" />
    </g>
  </g>
  <g
     id="g6739"
     transform="translate(-472.41263,-364.42119)">
    <ellipse
       id="ellipse6537"
       ry="6.1456056"
       rx="5.0823431"
       cy="425.64603"
       cx="767.84583"
       style="fill:#ffab5f;stroke-width:0.18022399" />
    <g
       id="g6563"
       transform="translate(-63.709447,-6.9501215)">
      <g
         id="g6555"
         style="stroke-width:0.18022399">
        <path
           id="path6539"
           d="m 810.15699,411.86915 c 0.91977,-2.7353 3.00073,-4.67153 5.43061,-5.05204 0.64837,-0.10167 1.29329,0.21523 1.69892,0.83534 1.51979,2.32328 1.89331,5.46525 0.97304,8.20114 -0.91977,2.7353 -3.00072,4.67193 -5.43062,5.05224 -0.64836,0.10166 -1.29296,-0.21542 -1.69826,-0.83494 -1.52077,-2.32328 -1.89379,-5.46624 -0.97369,-8.20174 z"
           inkscape:connector-curvature="0"
           style="fill:#78b591" />
        <path
           id="path6541"
           d="m 802.84257,421.96115 c -2.26206,-1.11319 -3.86313,-3.6293 -4.17814,-6.56734 -0.0841,-0.7842 0.17816,-1.56365 0.69082,-2.05415 1.92116,-1.83833 4.51969,-2.28939 6.78241,-1.177 2.26206,1.11279 3.86346,3.6287 4.17798,6.56714 0.0841,0.7838 -0.17816,1.56325 -0.69033,2.05355 -1.92148,1.83853 -4.52035,2.28979 -6.78274,1.1778 z"
           inkscape:connector-curvature="0"
           style="fill:#b0ce6f" />
        <path
           id="path6543"
           d="m 811.08512,424.75075 c -0.16636,0 -0.33517,-0.0381 -0.49857,-0.11852 -0.67803,-0.33294 -1.00385,-1.26796 -0.72835,-2.08764 l 3.08776,-9.18274 c 0.27551,-0.81947 1.04794,-1.21425 1.72646,-0.88051 0.67786,0.33294 1.00385,1.26796 0.72834,2.08764 l -3.08792,9.18274 c -0.20913,0.62189 -0.70474,0.99903 -1.22772,0.99903 z"
           inkscape:connector-curvature="0"
           style="fill:#659b7b" />
        <path
           id="path6545"
           d="m 812.16944,422.44054 c -0.16619,0 -0.33516,-0.038 -0.49857,-0.11851 l -7.59368,-3.73433 c -0.67787,-0.33314 -1.00386,-1.26796 -0.72819,-2.08764 0.27535,-0.81968 1.04876,-1.21426 1.72646,-0.88052 l 7.59369,3.73413 c 0.67786,0.33334 1.00385,1.26797 0.72818,2.08765 -0.20913,0.62229 -0.70474,0.99922 -1.22789,0.99922 z"
           inkscape:connector-curvature="0"
           style="fill:#7e8e51" />
        <path
           id="path6547"
           d="m 823.72804,427.65945 c 0,-3.35263 -2.24747,-6.07029 -5.02007,-6.07029 -0.25501,0 -0.50495,0.023 -0.74981,0.0676 -0.74293,-2.22915 -2.54707,-3.8035 -4.65655,-3.8035 -2.09423,0 -3.88821,1.55117 -4.6413,3.75474 -0.12522,-0.0111 -0.25158,-0.0188 -0.37909,-0.0188 -2.77242,0 -5.0199,2.71767 -5.0199,6.0703 0,0.0285 0.001,0.0568 0.002,0.086 -1.97787,0.43819 -3.47733,2.53197 -3.47733,5.05046 0,2.83677 1.90182,5.13667 4.24779,5.13667 h 19.69445 c 2.34581,0 4.24796,-2.29971 4.24796,-5.13667 1.6e-4,-2.83697 -1.90198,-5.13647 -4.24779,-5.13647 z"
           inkscape:connector-curvature="0"
           style="fill:#ef645e" />
        <path
           id="path6549"
           d="m 819.09411,427.7203 h -0.67377 c -0.73179,0 -1.32475,-0.71742 -1.32475,-1.6021 0,-0.88468 0.59296,-1.6019 1.32475,-1.6019 h 0.67377 c 0.73178,0 1.32475,0.71702 1.32475,1.6019 3.3e-4,0.88468 -0.5928,1.6021 -1.32475,1.6021 z"
           inkscape:connector-curvature="0"
           style="fill:#c14616" />
        <path
           id="path6551"
           d="m 813.39602,424.21803 h -0.67361 c -0.73178,0 -1.32491,-0.71741 -1.32491,-1.60209 0,-0.88469 0.59329,-1.60191 1.32491,-1.60191 h 0.67361 c 0.73178,0 1.32475,0.71703 1.32475,1.60191 0,0.88488 -0.59313,1.60209 -1.32475,1.60209 z"
           inkscape:connector-curvature="0"
           style="fill:#ffab5f" />
        <path
           id="path6553"
           d="m 811.37095,429.12104 h -0.67361 c -0.73178,0 -1.32491,-0.71741 -1.32491,-1.6021 0,-0.88508 0.59329,-1.60189 1.32491,-1.60189 h 0.67361 c 0.73178,0 1.32491,0.71702 1.32491,1.60189 0,0.88489 -0.59329,1.6021 -1.32491,1.6021 z"
           inkscape:connector-curvature="0"
           style="fill:#c14616" />
      </g>
      <g
         id="g6561"
         transform="matrix(0.16389368,0,0,0.19818143,772.68056,374.45052)"
         style="fill:#ffab5f">
        <path
           id="path6557"
           d="m 271.988,293.533 h -4.111 c -4.465,0 -8.083,-3.62 -8.083,-8.084 0,-4.465 3.618,-8.083 8.083,-8.083 h 4.111 c 4.465,0 8.083,3.618 8.083,8.083 0,4.464 -3.618,8.084 -8.083,8.084 z"
           inkscape:connector-curvature="0" />
        <path
           id="path6559"
           d="m 204.261,293.533 h -4.111 c -4.464,0 -8.083,-3.62 -8.083,-8.084 0,-4.465 3.62,-8.083 8.083,-8.083 h 4.111 c 4.465,0 8.083,3.618 8.083,8.083 0,4.464 -3.617,8.084 -8.083,8.084 z"
           inkscape:connector-curvature="0" />
      </g>
    </g>
    <g
       id="g6575"
       style="stroke-width:0.18022399">
      <path
         id="path6565"
         d="m 720.6782,435.07941 c 1.3954,4.85703 5.21019,8.34522 9.70218,8.34522 h 41.0947 c 4.49233,0 8.30696,-3.48819 9.70235,-8.34522 z"
         inkscape:connector-curvature="0"
         style="fill:#ececec" />
      <path
         id="path6567"
         d="m 792.88468,433.89944 c 0,1.87262 -1.25526,3.39048 -2.80389,3.39048 h -78.30594 c -1.54848,0 -2.80374,-1.51786 -2.80374,-3.39048 0,-1.87242 1.25526,-3.39029 2.80374,-3.39029 h 78.30594 c 1.54863,0 2.80389,1.51787 2.80389,3.39029 z"
         inkscape:connector-curvature="0"
         style="fill:#ffffff" />
      <ellipse
         id="ellipse6569"
         ry="6.145606"
         rx="5.0823431"
         cy="566.88318"
         cx="481.44141"
         transform="rotate(-14.768116)"
         style="fill:#ffab5f" />
      <path
         id="path6571"
         d="m 617.70591,435.07941 c 1.3954,4.85703 5.21019,8.34522 9.70219,8.34522 h 41.09469 c 4.49233,0 8.30696,-3.48819 9.70235,-8.34522 z"
         inkscape:connector-curvature="0"
         style="fill:#b3b3b3" />
      <path
         id="path6573"
         d="m 689.91239,433.89944 c 0,1.87262 -1.25526,3.39048 -2.80389,3.39048 h -78.30594 c -1.54847,0 -2.80373,-1.51786 -2.80373,-3.39048 0,-1.87242 1.25526,-3.39029 2.80373,-3.39029 h 78.30594 c 1.54863,0 2.80389,1.51787 2.80389,3.39029 z"
         inkscape:connector-curvature="0"
         style="fill:#cccccc" />
    </g>
    <g
       id="g6625"
       transform="translate(-85.16536,11.069632)">
      <g
         id="g6593"
         style="stroke-width:0.18022399">
        <path
           id="path6577"
           d="m 707.1847,396.50349 c 0.91977,-2.7353 3.00073,-4.67153 5.43062,-5.05204 0.64836,-0.10167 1.29328,0.21523 1.69892,0.83534 1.51978,2.32328 1.8933,5.46525 0.97303,8.20114 -0.91977,2.7353 -3.00072,4.67193 -5.43061,5.05224 -0.64837,0.10166 -1.29296,-0.21542 -1.69827,-0.83494 -1.52077,-2.32328 -1.89379,-5.46624 -0.97369,-8.20174 z"
           inkscape:connector-curvature="0"
           style="fill:#78b591" />
        <path
           id="path6579"
           d="m 699.87029,406.59549 c -2.26206,-1.11319 -3.86314,-3.6293 -4.17814,-6.56734 -0.0841,-0.7842 0.17815,-1.56365 0.69081,-2.05415 1.92116,-1.83833 4.51969,-2.28939 6.78241,-1.177 2.26206,1.11279 3.86346,3.6287 4.17798,6.56714 0.0841,0.7838 -0.17816,1.56325 -0.69032,2.05355 -1.92149,1.83853 -4.52035,2.28979 -6.78274,1.1778 z"
           inkscape:connector-curvature="0"
           style="fill:#b0ce6f" />
        <path
           id="path6581"
           d="m 708.11283,409.38509 c -0.16636,0 -0.33517,-0.0381 -0.49857,-0.11852 -0.67803,-0.33294 -1.00385,-1.26796 -0.72834,-2.08764 l 3.08775,-9.18274 c 0.27551,-0.81947 1.04794,-1.21425 1.72647,-0.88051 0.67786,0.33294 1.00384,1.26796 0.72833,2.08764 l -3.08791,9.18274 c -0.20913,0.62189 -0.70475,0.99903 -1.22773,0.99903 z"
           inkscape:connector-curvature="0"
           style="fill:#659b7b" />
        <path
           id="path6583"
           d="m 709.19715,407.07488 c -0.16619,0 -0.33516,-0.038 -0.49856,-0.11851 l -7.59369,-3.73433 c -0.67787,-0.33314 -1.00385,-1.26796 -0.72818,-2.08764 0.27534,-0.81968 1.04875,-1.21426 1.72645,-0.88052 l 7.59369,3.73413 c 0.67786,0.33334 1.00385,1.26797 0.72818,2.08765 -0.20913,0.62229 -0.70474,0.99922 -1.22789,0.99922 z"
           inkscape:connector-curvature="0"
           style="fill:#7e8e51" />
        <path
           id="path6585"
           d="m 720.75575,412.29379 c 0,-3.35263 -2.24747,-6.07029 -5.02006,-6.07029 -0.25502,0 -0.50496,0.023 -0.74982,0.0676 -0.74292,-2.22915 -2.54707,-3.8035 -4.65654,-3.8035 -2.09424,0 -3.88821,1.55117 -4.64131,3.75474 -0.12522,-0.0111 -0.25158,-0.0188 -0.37909,-0.0188 -2.77242,0 -5.0199,2.71767 -5.0199,6.0703 0,0.0285 10e-4,0.0568 0.002,0.086 -1.97787,0.43819 -3.47733,2.53197 -3.47733,5.05046 0,2.83677 1.90182,5.13666 4.24779,5.13666 h 19.69445 c 2.34582,0 4.24796,-2.2997 4.24796,-5.13666 1.6e-4,-2.83697 -1.90198,-5.13647 -4.24779,-5.13647 z"
           inkscape:connector-curvature="0"
           style="fill:#ef645e" />
        <path
           id="path6587"
           d="m 716.12182,412.35464 h -0.67376 c -0.73179,0 -1.32476,-0.71742 -1.32476,-1.6021 0,-0.88468 0.59297,-1.6019 1.32476,-1.6019 h 0.67376 c 0.73178,0 1.32476,0.71702 1.32476,1.6019 3.2e-4,0.88468 -0.59281,1.6021 -1.32476,1.6021 z"
           inkscape:connector-curvature="0"
           style="fill:#c14616" />
        <path
           id="path6589"
           d="m 710.42373,408.85237 h -0.67361 c -0.73178,0 -1.32491,-0.71741 -1.32491,-1.60209 0,-0.88469 0.59329,-1.60191 1.32491,-1.60191 h 0.67361 c 0.73179,0 1.32475,0.71703 1.32475,1.60191 0,0.88488 -0.59313,1.60209 -1.32475,1.60209 z"
           inkscape:connector-curvature="0"
           style="fill:#ffab5f" />
        <path
           id="path6591"
           d="m 708.39866,413.75538 h -0.67361 c -0.73178,0 -1.32491,-0.71741 -1.32491,-1.6021 0,-0.88508 0.59329,-1.60189 1.32491,-1.60189 h 0.67361 c 0.73178,0 1.32491,0.71702 1.32491,1.60189 0,0.88489 -0.59329,1.6021 -1.32491,1.6021 z"
           inkscape:connector-curvature="0"
           style="fill:#c14616" />
      </g>
      <g
         id="g6599"
         transform="matrix(0.16389368,0,0,0.19818143,669.70828,359.08486)"
         style="fill:#ffab5f">
        <path
           id="path6595"
           d="m 271.988,293.533 h -4.111 c -4.465,0 -8.083,-3.62 -8.083,-8.084 0,-4.465 3.618,-8.083 8.083,-8.083 h 4.111 c 4.465,0 8.083,3.618 8.083,8.083 0,4.464 -3.618,8.084 -8.083,8.084 z"
           inkscape:connector-curvature="0" />
        <path
           id="path6597"
           d="m 204.261,293.533 h -4.111 c -4.464,0 -8.083,-3.62 -8.083,-8.084 0,-4.465 3.62,-8.083 8.083,-8.083 h 4.111 c 4.465,0 8.083,3.618 8.083,8.083 0,4.464 -3.617,8.084 -8.083,8.084 z"
           inkscape:connector-curvature="0" />
      </g>
      <g
         id="g6617"
         style="stroke-width:0.18022399">
        <path
           id="path6601"
           d="m 707.1847,396.50349 c 0.91977,-2.7353 3.00073,-4.67153 5.43062,-5.05204 0.64836,-0.10167 1.29328,0.21523 1.69892,0.83534 1.51978,2.32328 1.8933,5.46525 0.97303,8.20114 -0.91977,2.7353 -3.00072,4.67193 -5.43061,5.05224 -0.64837,0.10166 -1.29296,-0.21542 -1.69827,-0.83494 -1.52077,-2.32328 -1.89379,-5.46624 -0.97369,-8.20174 z"
           inkscape:connector-curvature="0"
           style="fill:#78b591" />
        <path
           id="path6603"
           d="m 699.87029,406.59549 c -2.26206,-1.11319 -3.86314,-3.6293 -4.17814,-6.56734 -0.0841,-0.7842 0.17815,-1.56365 0.69081,-2.05415 1.92116,-1.83833 4.51969,-2.28939 6.78241,-1.177 2.26206,1.11279 3.86346,3.6287 4.17798,6.56714 0.0841,0.7838 -0.17816,1.56325 -0.69032,2.05355 -1.92149,1.83853 -4.52035,2.28979 -6.78274,1.1778 z"
           inkscape:connector-curvature="0"
           style="fill:#b0ce6f" />
        <path
           id="path6605"
           d="m 708.11283,409.38509 c -0.16636,0 -0.33517,-0.0381 -0.49857,-0.11852 -0.67803,-0.33294 -1.00385,-1.26796 -0.72834,-2.08764 l 3.08775,-9.18274 c 0.27551,-0.81947 1.04794,-1.21425 1.72647,-0.88051 0.67786,0.33294 1.00384,1.26796 0.72833,2.08764 l -3.08791,9.18274 c -0.20913,0.62189 -0.70475,0.99903 -1.22773,0.99903 z"
           inkscape:connector-curvature="0"
           style="fill:#659b7b" />
        <path
           id="path6607"
           d="m 709.19715,407.07488 c -0.16619,0 -0.33516,-0.038 -0.49856,-0.11851 l -7.59369,-3.73433 c -0.67787,-0.33314 -1.00385,-1.26796 -0.72818,-2.08764 0.27534,-0.81968 1.04875,-1.21426 1.72645,-0.88052 l 7.59369,3.73413 c 0.67786,0.33334 1.00385,1.26797 0.72818,2.08765 -0.20913,0.62229 -0.70474,0.99922 -1.22789,0.99922 z"
           inkscape:connector-curvature="0"
           style="fill:#7e8e51" />
        <path
           id="path6609"
           d="m 720.75575,412.29379 c 0,-3.35263 -2.24747,-6.07029 -5.02006,-6.07029 -0.25502,0 -0.50496,0.023 -0.74982,0.0676 -0.74292,-2.22915 -2.54707,-3.8035 -4.65654,-3.8035 -2.09424,0 -3.88821,1.55117 -4.64131,3.75474 -0.12522,-0.0111 -0.25158,-0.0188 -0.37909,-0.0188 -2.77242,0 -5.0199,2.71767 -5.0199,6.0703 0,0.0285 10e-4,0.0568 0.002,0.086 -1.97787,0.43819 -3.47733,2.53197 -3.47733,5.05046 0,2.83677 1.90182,5.13666 4.24779,5.13666 h 19.69445 c 2.34582,0 4.24796,-2.2997 4.24796,-5.13666 1.6e-4,-2.83697 -1.90198,-5.13647 -4.24779,-5.13647 z"
           inkscape:connector-curvature="0"
           style="fill:#ef645e" />
        <path
           id="path6611"
           d="m 716.12182,412.35464 h -0.67376 c -0.73179,0 -1.32476,-0.71742 -1.32476,-1.6021 0,-0.88468 0.59297,-1.6019 1.32476,-1.6019 h 0.67376 c 0.73178,0 1.32476,0.71702 1.32476,1.6019 3.2e-4,0.88468 -0.59281,1.6021 -1.32476,1.6021 z"
           inkscape:connector-curvature="0"
           style="fill:#c14616" />
        <path
           id="path6613"
           d="m 710.42373,408.85237 h -0.67361 c -0.73178,0 -1.32491,-0.71741 -1.32491,-1.60209 0,-0.88469 0.59329,-1.60191 1.32491,-1.60191 h 0.67361 c 0.73179,0 1.32475,0.71703 1.32475,1.60191 0,0.88488 -0.59313,1.60209 -1.32475,1.60209 z"
           inkscape:connector-curvature="0"
           style="fill:#ffab5f" />
        <path
           id="path6615"
           d="m 708.39866,413.75538 h -0.67361 c -0.73178,0 -1.32491,-0.71741 -1.32491,-1.6021 0,-0.88508 0.59329,-1.60189 1.32491,-1.60189 h 0.67361 c 0.73178,0 1.32491,0.71702 1.32491,1.60189 0,0.88489 -0.59329,1.6021 -1.32491,1.6021 z"
           inkscape:connector-curvature="0"
           style="fill:#c14616" />
      </g>
      <g
         id="g6623"
         transform="matrix(0.16389368,0,0,0.19818143,669.70828,359.08486)"
         style="fill:#ffab5f">
        <path
           id="path6619"
           d="m 271.988,293.533 h -4.111 c -4.465,0 -8.083,-3.62 -8.083,-8.084 0,-4.465 3.618,-8.083 8.083,-8.083 h 4.111 c 4.465,0 8.083,3.618 8.083,8.083 0,4.464 -3.618,8.084 -8.083,8.084 z"
           inkscape:connector-curvature="0" />
        <path
           id="path6621"
           d="m 204.261,293.533 h -4.111 c -4.464,0 -8.083,-3.62 -8.083,-8.084 0,-4.465 3.62,-8.083 8.083,-8.083 h 4.111 c 4.465,0 8.083,3.618 8.083,8.083 0,4.464 -3.617,8.084 -8.083,8.084 z"
           inkscape:connector-curvature="0" />
      </g>
    </g>
    <ellipse
       id="ellipse6627"
       ry="6.145606"
       rx="5.0823431"
       cy="157.93303"
       cx="791.11115"
       transform="rotate(20.486181)"
       style="fill:#ffab5f;stroke-width:0.18022399" />
    <g
       id="g6677"
       transform="translate(-62.134701,9.3987225)">
      <g
         id="g6645"
         style="stroke-width:0.18022399">
        <path
           id="path6629"
           d="m 707.1847,396.50349 c 0.91977,-2.7353 3.00073,-4.67153 5.43062,-5.05204 0.64836,-0.10167 1.29328,0.21523 1.69892,0.83534 1.51978,2.32328 1.8933,5.46525 0.97303,8.20114 -0.91977,2.7353 -3.00072,4.67193 -5.43061,5.05224 -0.64837,0.10166 -1.29296,-0.21542 -1.69827,-0.83494 -1.52077,-2.32328 -1.89379,-5.46624 -0.97369,-8.20174 z"
           inkscape:connector-curvature="0"
           style="fill:#78b591" />
        <path
           id="path6631"
           d="m 699.87029,406.59549 c -2.26206,-1.11319 -3.86314,-3.6293 -4.17814,-6.56734 -0.0841,-0.7842 0.17815,-1.56365 0.69081,-2.05415 1.92116,-1.83833 4.51969,-2.28939 6.78241,-1.177 2.26206,1.11279 3.86346,3.6287 4.17798,6.56714 0.0841,0.7838 -0.17816,1.56325 -0.69032,2.05355 -1.92149,1.83853 -4.52035,2.28979 -6.78274,1.1778 z"
           inkscape:connector-curvature="0"
           style="fill:#b0ce6f" />
        <path
           id="path6633"
           d="m 708.11283,409.38509 c -0.16636,0 -0.33517,-0.0381 -0.49857,-0.11852 -0.67803,-0.33294 -1.00385,-1.26796 -0.72834,-2.08764 l 3.08775,-9.18274 c 0.27551,-0.81947 1.04794,-1.21425 1.72647,-0.88051 0.67786,0.33294 1.00384,1.26796 0.72833,2.08764 l -3.08791,9.18274 c -0.20913,0.62189 -0.70475,0.99903 -1.22773,0.99903 z"
           inkscape:connector-curvature="0"
           style="fill:#659b7b" />
        <path
           id="path6635"
           d="m 709.19715,407.07488 c -0.16619,0 -0.33516,-0.038 -0.49856,-0.11851 l -7.59369,-3.73433 c -0.67787,-0.33314 -1.00385,-1.26796 -0.72818,-2.08764 0.27534,-0.81968 1.04875,-1.21426 1.72645,-0.88052 l 7.59369,3.73413 c 0.67786,0.33334 1.00385,1.26797 0.72818,2.08765 -0.20913,0.62229 -0.70474,0.99922 -1.22789,0.99922 z"
           inkscape:connector-curvature="0"
           style="fill:#7e8e51" />
        <path
           id="path6637"
           d="m 720.75575,412.29379 c 0,-3.35263 -2.24747,-6.07029 -5.02006,-6.07029 -0.25502,0 -0.50496,0.023 -0.74982,0.0676 -0.74292,-2.22915 -2.54707,-3.8035 -4.65654,-3.8035 -2.09424,0 -3.88821,1.55117 -4.64131,3.75474 -0.12522,-0.0111 -0.25158,-0.0188 -0.37909,-0.0188 -2.77242,0 -5.0199,2.71767 -5.0199,6.0703 0,0.0285 10e-4,0.0568 0.002,0.086 -1.97787,0.43819 -3.47733,2.53197 -3.47733,5.05046 0,2.83677 1.90182,5.13666 4.24779,5.13666 h 19.69445 c 2.34582,0 4.24796,-2.2997 4.24796,-5.13666 1.6e-4,-2.83697 -1.90198,-5.13647 -4.24779,-5.13647 z"
           inkscape:connector-curvature="0"
           style="fill:#ef645e" />
        <path
           id="path6639"
           d="m 716.12182,412.35464 h -0.67376 c -0.73179,0 -1.32476,-0.71742 -1.32476,-1.6021 0,-0.88468 0.59297,-1.6019 1.32476,-1.6019 h 0.67376 c 0.73178,0 1.32476,0.71702 1.32476,1.6019 3.2e-4,0.88468 -0.59281,1.6021 -1.32476,1.6021 z"
           inkscape:connector-curvature="0"
           style="fill:#c14616" />
        <path
           id="path6641"
           d="m 710.42373,408.85237 h -0.67361 c -0.73178,0 -1.32491,-0.71741 -1.32491,-1.60209 0,-0.88469 0.59329,-1.60191 1.32491,-1.60191 h 0.67361 c 0.73179,0 1.32475,0.71703 1.32475,1.60191 0,0.88488 -0.59313,1.60209 -1.32475,1.60209 z"
           inkscape:connector-curvature="0"
           style="fill:#ffab5f" />
        <path
           id="path6643"
           d="m 708.39866,413.75538 h -0.67361 c -0.73178,0 -1.32491,-0.71741 -1.32491,-1.6021 0,-0.88508 0.59329,-1.60189 1.32491,-1.60189 h 0.67361 c 0.73178,0 1.32491,0.71702 1.32491,1.60189 0,0.88489 -0.59329,1.6021 -1.32491,1.6021 z"
           inkscape:connector-curvature="0"
           style="fill:#c14616" />
      </g>
      <g
         id="g6651"
         transform="matrix(0.16389368,0,0,0.19818143,669.70828,359.08486)"
         style="fill:#ffab5f">
        <path
           id="path6647"
           d="m 271.988,293.533 h -4.111 c -4.465,0 -8.083,-3.62 -8.083,-8.084 0,-4.465 3.618,-8.083 8.083,-8.083 h 4.111 c 4.465,0 8.083,3.618 8.083,8.083 0,4.464 -3.618,8.084 -8.083,8.084 z"
           inkscape:connector-curvature="0" />
        <path
           id="path6649"
           d="m 204.261,293.533 h -4.111 c -4.464,0 -8.083,-3.62 -8.083,-8.084 0,-4.465 3.62,-8.083 8.083,-8.083 h 4.111 c 4.465,0 8.083,3.618 8.083,8.083 0,4.464 -3.617,8.084 -8.083,8.084 z"
           inkscape:connector-curvature="0" />
      </g>
      <g
         id="g6669"
         style="stroke-width:0.18022399">
        <path
           id="path6653"
           d="m 707.1847,396.50349 c 0.91977,-2.7353 3.00073,-4.67153 5.43062,-5.05204 0.64836,-0.10167 1.29328,0.21523 1.69892,0.83534 1.51978,2.32328 1.8933,5.46525 0.97303,8.20114 -0.91977,2.7353 -3.00072,4.67193 -5.43061,5.05224 -0.64837,0.10166 -1.29296,-0.21542 -1.69827,-0.83494 -1.52077,-2.32328 -1.89379,-5.46624 -0.97369,-8.20174 z"
           inkscape:connector-curvature="0"
           style="fill:#78b591" />
        <path
           id="path6655"
           d="m 699.87029,406.59549 c -2.26206,-1.11319 -3.86314,-3.6293 -4.17814,-6.56734 -0.0841,-0.7842 0.17815,-1.56365 0.69081,-2.05415 1.92116,-1.83833 4.51969,-2.28939 6.78241,-1.177 2.26206,1.11279 3.86346,3.6287 4.17798,6.56714 0.0841,0.7838 -0.17816,1.56325 -0.69032,2.05355 -1.92149,1.83853 -4.52035,2.28979 -6.78274,1.1778 z"
           inkscape:connector-curvature="0"
           style="fill:#b0ce6f" />
        <path
           id="path6657"
           d="m 708.11283,409.38509 c -0.16636,0 -0.33517,-0.0381 -0.49857,-0.11852 -0.67803,-0.33294 -1.00385,-1.26796 -0.72834,-2.08764 l 3.08775,-9.18274 c 0.27551,-0.81947 1.04794,-1.21425 1.72647,-0.88051 0.67786,0.33294 1.00384,1.26796 0.72833,2.08764 l -3.08791,9.18274 c -0.20913,0.62189 -0.70475,0.99903 -1.22773,0.99903 z"
           inkscape:connector-curvature="0"
           style="fill:#659b7b" />
        <path
           id="path6659"
           d="m 709.19715,407.07488 c -0.16619,0 -0.33516,-0.038 -0.49856,-0.11851 l -7.59369,-3.73433 c -0.67787,-0.33314 -1.00385,-1.26796 -0.72818,-2.08764 0.27534,-0.81968 1.04875,-1.21426 1.72645,-0.88052 l 7.59369,3.73413 c 0.67786,0.33334 1.00385,1.26797 0.72818,2.08765 -0.20913,0.62229 -0.70474,0.99922 -1.22789,0.99922 z"
           inkscape:connector-curvature="0"
           style="fill:#7e8e51" />
        <path
           id="path6661"
           d="m 720.75575,412.29379 c 0,-3.35263 -2.24747,-6.07029 -5.02006,-6.07029 -0.25502,0 -0.50496,0.023 -0.74982,0.0676 -0.74292,-2.22915 -2.54707,-3.8035 -4.65654,-3.8035 -2.09424,0 -3.88821,1.55117 -4.64131,3.75474 -0.12522,-0.0111 -0.25158,-0.0188 -0.37909,-0.0188 -2.77242,0 -5.0199,2.71767 -5.0199,6.0703 0,0.0285 10e-4,0.0568 0.002,0.086 -1.97787,0.43819 -3.47733,2.53197 -3.47733,5.05046 0,2.83677 1.90182,5.13666 4.24779,5.13666 h 19.69445 c 2.34582,0 4.24796,-2.2997 4.24796,-5.13666 1.6e-4,-2.83697 -1.90198,-5.13647 -4.24779,-5.13647 z"
           inkscape:connector-curvature="0"
           style="fill:#ef645e" />
        <path
           id="path6663"
           d="m 716.12182,412.35464 h -0.67376 c -0.73179,0 -1.32476,-0.71742 -1.32476,-1.6021 0,-0.88468 0.59297,-1.6019 1.32476,-1.6019 h 0.67376 c 0.73178,0 1.32476,0.71702 1.32476,1.6019 3.2e-4,0.88468 -0.59281,1.6021 -1.32476,1.6021 z"
           inkscape:connector-curvature="0"
           style="fill:#c14616" />
        <path
           id="path6665"
           d="m 710.42373,408.85237 h -0.67361 c -0.73178,0 -1.32491,-0.71741 -1.32491,-1.60209 0,-0.88469 0.59329,-1.60191 1.32491,-1.60191 h 0.67361 c 0.73179,0 1.32475,0.71703 1.32475,1.60191 0,0.88488 -0.59313,1.60209 -1.32475,1.60209 z"
           inkscape:connector-curvature="0"
           style="fill:#ffab5f" />
        <path
           id="path6667"
           d="m 708.39866,413.75538 h -0.67361 c -0.73178,0 -1.32491,-0.71741 -1.32491,-1.6021 0,-0.88508 0.59329,-1.60189 1.32491,-1.60189 h 0.67361 c 0.73178,0 1.32491,0.71702 1.32491,1.60189 0,0.88489 -0.59329,1.6021 -1.32491,1.6021 z"
           inkscape:connector-curvature="0"
           style="fill:#c14616" />
      </g>
      <g
         id="g6675"
         transform="matrix(0.16389368,0,0,0.19818143,669.70828,359.08486)"
         style="fill:#ffab5f">
        <path
           id="path6671"
           d="m 271.988,293.533 h -4.111 c -4.465,0 -8.083,-3.62 -8.083,-8.084 0,-4.465 3.618,-8.083 8.083,-8.083 h 4.111 c 4.465,0 8.083,3.618 8.083,8.083 0,4.464 -3.618,8.084 -8.083,8.084 z"
           inkscape:connector-curvature="0" />
        <path
           id="path6673"
           d="m 204.261,293.533 h -4.111 c -4.464,0 -8.083,-3.62 -8.083,-8.084 0,-4.465 3.62,-8.083 8.083,-8.083 h 4.111 c 4.465,0 8.083,3.618 8.083,8.083 0,4.464 -3.617,8.084 -8.083,8.084 z"
           inkscape:connector-curvature="0" />
      </g>
    </g>
    <g
       id="g6727"
       transform="translate(-39.104016,9.3127125)">
      <g
         id="g6695"
         style="stroke-width:0.18022399">
        <path
           id="path6679"
           d="m 707.1847,396.50349 c 0.91977,-2.7353 3.00073,-4.67153 5.43062,-5.05204 0.64836,-0.10167 1.29328,0.21523 1.69892,0.83534 1.51978,2.32328 1.8933,5.46525 0.97303,8.20114 -0.91977,2.7353 -3.00072,4.67193 -5.43061,5.05224 -0.64837,0.10166 -1.29296,-0.21542 -1.69827,-0.83494 -1.52077,-2.32328 -1.89379,-5.46624 -0.97369,-8.20174 z"
           inkscape:connector-curvature="0"
           style="fill:#78b591" />
        <path
           id="path6681"
           d="m 699.87029,406.59549 c -2.26206,-1.11319 -3.86314,-3.6293 -4.17814,-6.56734 -0.0841,-0.7842 0.17815,-1.56365 0.69081,-2.05415 1.92116,-1.83833 4.51969,-2.28939 6.78241,-1.177 2.26206,1.11279 3.86346,3.6287 4.17798,6.56714 0.0841,0.7838 -0.17816,1.56325 -0.69032,2.05355 -1.92149,1.83853 -4.52035,2.28979 -6.78274,1.1778 z"
           inkscape:connector-curvature="0"
           style="fill:#b0ce6f" />
        <path
           id="path6683"
           d="m 708.11283,409.38509 c -0.16636,0 -0.33517,-0.0381 -0.49857,-0.11852 -0.67803,-0.33294 -1.00385,-1.26796 -0.72834,-2.08764 l 3.08775,-9.18274 c 0.27551,-0.81947 1.04794,-1.21425 1.72647,-0.88051 0.67786,0.33294 1.00384,1.26796 0.72833,2.08764 l -3.08791,9.18274 c -0.20913,0.62189 -0.70475,0.99903 -1.22773,0.99903 z"
           inkscape:connector-curvature="0"
           style="fill:#659b7b" />
        <path
           id="path6685"
           d="m 709.19715,407.07488 c -0.16619,0 -0.33516,-0.038 -0.49856,-0.11851 l -7.59369,-3.73433 c -0.67787,-0.33314 -1.00385,-1.26796 -0.72818,-2.08764 0.27534,-0.81968 1.04875,-1.21426 1.72645,-0.88052 l 7.59369,3.73413 c 0.67786,0.33334 1.00385,1.26797 0.72818,2.08765 -0.20913,0.62229 -0.70474,0.99922 -1.22789,0.99922 z"
           inkscape:connector-curvature="0"
           style="fill:#7e8e51" />
        <path
           id="path6687"
           d="m 720.75575,412.29379 c 0,-3.35263 -2.24747,-6.07029 -5.02006,-6.07029 -0.25502,0 -0.50496,0.023 -0.74982,0.0676 -0.74292,-2.22915 -2.54707,-3.8035 -4.65654,-3.8035 -2.09424,0 -3.88821,1.55117 -4.64131,3.75474 -0.12522,-0.0111 -0.25158,-0.0188 -0.37909,-0.0188 -2.77242,0 -5.0199,2.71767 -5.0199,6.0703 0,0.0285 10e-4,0.0568 0.002,0.086 -1.97787,0.43819 -3.47733,2.53197 -3.47733,5.05046 0,2.83677 1.90182,5.13666 4.24779,5.13666 h 19.69445 c 2.34582,0 4.24796,-2.2997 4.24796,-5.13666 1.6e-4,-2.83697 -1.90198,-5.13647 -4.24779,-5.13647 z"
           inkscape:connector-curvature="0"
           style="fill:#ef645e" />
        <path
           id="path6689"
           d="m 716.12182,412.35464 h -0.67376 c -0.73179,0 -1.32476,-0.71742 -1.32476,-1.6021 0,-0.88468 0.59297,-1.6019 1.32476,-1.6019 h 0.67376 c 0.73178,0 1.32476,0.71702 1.32476,1.6019 3.2e-4,0.88468 -0.59281,1.6021 -1.32476,1.6021 z"
           inkscape:connector-curvature="0"
           style="fill:#c14616" />
        <path
           id="path6691"
           d="m 710.42373,408.85237 h -0.67361 c -0.73178,0 -1.32491,-0.71741 -1.32491,-1.60209 0,-0.88469 0.59329,-1.60191 1.32491,-1.60191 h 0.67361 c 0.73179,0 1.32475,0.71703 1.32475,1.60191 0,0.88488 -0.59313,1.60209 -1.32475,1.60209 z"
           inkscape:connector-curvature="0"
           style="fill:#ffab5f" />
        <path
           id="path6693"
           d="m 708.39866,413.75538 h -0.67361 c -0.73178,0 -1.32491,-0.71741 -1.32491,-1.6021 0,-0.88508 0.59329,-1.60189 1.32491,-1.60189 h 0.67361 c 0.73178,0 1.32491,0.71702 1.32491,1.60189 0,0.88489 -0.59329,1.6021 -1.32491,1.6021 z"
           inkscape:connector-curvature="0"
           style="fill:#c14616" />
      </g>
      <g
         id="g6701"
         transform="matrix(0.16389368,0,0,0.19818143,669.70828,359.08486)"
         style="fill:#ffab5f">
        <path
           id="path6697"
           d="m 271.988,293.533 h -4.111 c -4.465,0 -8.083,-3.62 -8.083,-8.084 0,-4.465 3.618,-8.083 8.083,-8.083 h 4.111 c 4.465,0 8.083,3.618 8.083,8.083 0,4.464 -3.618,8.084 -8.083,8.084 z"
           inkscape:connector-curvature="0" />
        <path
           id="path6699"
           d="m 204.261,293.533 h -4.111 c -4.464,0 -8.083,-3.62 -8.083,-8.084 0,-4.465 3.62,-8.083 8.083,-8.083 h 4.111 c 4.465,0 8.083,3.618 8.083,8.083 0,4.464 -3.617,8.084 -8.083,8.084 z"
           inkscape:connector-curvature="0" />
      </g>
      <g
         id="g6719"
         style="stroke-width:0.18022399">
        <path
           id="path6703"
           d="m 707.1847,396.50349 c 0.91977,-2.7353 3.00073,-4.67153 5.43062,-5.05204 0.64836,-0.10167 1.29328,0.21523 1.69892,0.83534 1.51978,2.32328 1.8933,5.46525 0.97303,8.20114 -0.91977,2.7353 -3.00072,4.67193 -5.43061,5.05224 -0.64837,0.10166 -1.29296,-0.21542 -1.69827,-0.83494 -1.52077,-2.32328 -1.89379,-5.46624 -0.97369,-8.20174 z"
           inkscape:connector-curvature="0"
           style="fill:#78b591" />
        <path
           id="path6705"
           d="m 699.87029,406.59549 c -2.26206,-1.11319 -3.86314,-3.6293 -4.17814,-6.56734 -0.0841,-0.7842 0.17815,-1.56365 0.69081,-2.05415 1.92116,-1.83833 4.51969,-2.28939 6.78241,-1.177 2.26206,1.11279 3.86346,3.6287 4.17798,6.56714 0.0841,0.7838 -0.17816,1.56325 -0.69032,2.05355 -1.92149,1.83853 -4.52035,2.28979 -6.78274,1.1778 z"
           inkscape:connector-curvature="0"
           style="fill:#b0ce6f" />
        <path
           id="path6707"
           d="m 708.11283,409.38509 c -0.16636,0 -0.33517,-0.0381 -0.49857,-0.11852 -0.67803,-0.33294 -1.00385,-1.26796 -0.72834,-2.08764 l 3.08775,-9.18274 c 0.27551,-0.81947 1.04794,-1.21425 1.72647,-0.88051 0.67786,0.33294 1.00384,1.26796 0.72833,2.08764 l -3.08791,9.18274 c -0.20913,0.62189 -0.70475,0.99903 -1.22773,0.99903 z"
           inkscape:connector-curvature="0"
           style="fill:#659b7b" />
        <path
           id="path6709"
           d="m 709.19715,407.07488 c -0.16619,0 -0.33516,-0.038 -0.49856,-0.11851 l -7.59369,-3.73433 c -0.67787,-0.33314 -1.00385,-1.26796 -0.72818,-2.08764 0.27534,-0.81968 1.04875,-1.21426 1.72645,-0.88052 l 7.59369,3.73413 c 0.67786,0.33334 1.00385,1.26797 0.72818,2.08765 -0.20913,0.62229 -0.70474,0.99922 -1.22789,0.99922 z"
           inkscape:connector-curvature="0"
           style="fill:#7e8e51" />
        <path
           id="path6711"
           d="m 720.75575,412.29379 c 0,-3.35263 -2.24747,-6.07029 -5.02006,-6.07029 -0.25502,0 -0.50496,0.023 -0.74982,0.0676 -0.74292,-2.22915 -2.54707,-3.8035 -4.65654,-3.8035 -2.09424,0 -3.88821,1.55117 -4.64131,3.75474 -0.12522,-0.0111 -0.25158,-0.0188 -0.37909,-0.0188 -2.77242,0 -5.0199,2.71767 -5.0199,6.0703 0,0.0285 10e-4,0.0568 0.002,0.086 -1.97787,0.43819 -3.47733,2.53197 -3.47733,5.05046 0,2.83677 1.90182,5.13666 4.24779,5.13666 h 19.69445 c 2.34582,0 4.24796,-2.2997 4.24796,-5.13666 1.6e-4,-2.83697 -1.90198,-5.13647 -4.24779,-5.13647 z"
           inkscape:connector-curvature="0"
           style="fill:#ef645e" />
        <path
           id="path6713"
           d="m 716.12182,412.35464 h -0.67376 c -0.73179,0 -1.32476,-0.71742 -1.32476,-1.6021 0,-0.88468 0.59297,-1.6019 1.32476,-1.6019 h 0.67376 c 0.73178,0 1.32476,0.71702 1.32476,1.6019 3.2e-4,0.88468 -0.59281,1.6021 -1.32476,1.6021 z"
           inkscape:connector-curvature="0"
           style="fill:#c14616" />
        <path
           id="path6715"
           d="m 710.42373,408.85237 h -0.67361 c -0.73178,0 -1.32491,-0.71741 -1.32491,-1.60209 0,-0.88469 0.59329,-1.60191 1.32491,-1.60191 h 0.67361 c 0.73179,0 1.32475,0.71703 1.32475,1.60191 0,0.88488 -0.59313,1.60209 -1.32475,1.60209 z"
           inkscape:connector-curvature="0"
           style="fill:#ffab5f" />
        <path
           id="path6717"
           d="m 708.39866,413.75538 h -0.67361 c -0.73178,0 -1.32491,-0.71741 -1.32491,-1.6021 0,-0.88508 0.59329,-1.60189 1.32491,-1.60189 h 0.67361 c 0.73178,0 1.32491,0.71702 1.32491,1.60189 0,0.88489 -0.59329,1.6021 -1.32491,1.6021 z"
           inkscape:connector-curvature="0"
           style="fill:#c14616" />
      </g>
      <g
         id="g6725"
         transform="matrix(0.16389368,0,0,0.19818143,669.70828,359.08486)"
         style="fill:#ffab5f">
        <path
           id="path6721"
           d="m 271.988,293.533 h -4.111 c -4.465,0 -8.083,-3.62 -8.083,-8.084 0,-4.465 3.618,-8.083 8.083,-8.083 h 4.111 c 4.465,0 8.083,3.618 8.083,8.083 0,4.464 -3.618,8.084 -8.083,8.084 z"
           inkscape:connector-curvature="0" />
        <path
           id="path6723"
           d="m 204.261,293.533 h -4.111 c -4.464,0 -8.083,-3.62 -8.083,-8.084 0,-4.465 3.62,-8.083 8.083,-8.083 h 4.111 c 4.465,0 8.083,3.618 8.083,8.083 0,4.464 -3.617,8.084 -8.083,8.084 z"
           inkscape:connector-curvature="0" />
      </g>
    </g>
    <g
       id="g6737"
       style="stroke-width:0.18022399">
      <ellipse
         id="ellipse6729"
         ry="6.145606"
         rx="5.0823431"
         cy="426.25241"
         cx="660.35675"
         style="fill:#ffab5f" />
      <ellipse
         id="ellipse6731"
         ry="6.145606"
         rx="5.0823431"
         cy="425.43332"
         cx="636.60339"
         style="fill:#ffab5f" />
      <path
         id="path6733"
         d="m 617.70591,435.07941 c 1.3954,4.85703 5.21019,8.34522 9.70219,8.34522 h 41.09469 c 4.49233,0 8.30696,-3.48819 9.70235,-8.34522 z"
         inkscape:connector-curvature="0"
         style="fill:#ececec" />
      <path
         id="path6735"
         d="m 689.91239,433.89944 c 0,1.87262 -1.25526,3.39048 -2.80389,3.39048 h -78.30594 c -1.54847,0 -2.80373,-1.51786 -2.80373,-3.39048 0,-1.87242 1.25526,-3.39029 2.80373,-3.39029 h 78.30594 c 1.54863,0 2.80389,1.51787 2.80389,3.39029 z"
         inkscape:connector-curvature="0"
         style="fill:#ffffff" />
    </g>
  </g>
</svg>
