<?xml version="1.0" encoding="UTF-8"?>
<!-- Created with Inkscape (http://www.inkscape.org/) -->
<svg width="452.94138mm" height="218.28125mm" version="1.1" viewBox="0 0 452.94138 218.28126" xmlns="http://www.w3.org/2000/svg" xmlns:cc="http://creativecommons.org/ns#" xmlns:dc="http://purl.org/dc/elements/1.1/" xmlns:rdf="http://www.w3.org/1999/02/22-rdf-syntax-ns#">
 <metadata>
  <rdf:RDF>
   <cc:Work rdf:about="">
    <dc:format>image/svg+xml</dc:format>
    <dc:type rdf:resource="http://purl.org/dc/dcmitype/StillImage"/>
    <dc:title/>
   </cc:Work>
  </rdf:RDF>
 </metadata>
 <polygon transform="matrix(3.4969519,0,0,3.4969519,454.53799,432.75581)" points="" fill="#f9eab0"/>
 <polygon transform="matrix(3.4969519,0,0,3.4969519,1042.6954,575.90132)" points="" fill="#f9eab0"/>
 <rect x="5.1217259e-5" y="-3.5888672e-7" width="452.94128" height="218.28127" opacity="0" stroke-width=".35775721"/>
 <g transform="translate(-472.4822,-365.04923)">
  <ellipse cx="767.84583" cy="425.64603" rx="5.0823431" ry="6.1456056" fill="#ffab5f" stroke-width=".18022399"/>
  <g transform="translate(-63.709447,-6.9501215)">
   <g stroke-width=".18022399">
    <path d="m810.15699 411.86915c0.91977-2.7353 3.00073-4.67153 5.43061-5.05204 0.64837-0.10167 1.29329 0.21523 1.69892 0.83534 1.51979 2.32328 1.89331 5.46525 0.97304 8.20114-0.91977 2.7353-3.00072 4.67193-5.43062 5.05224-0.64836 0.10166-1.29296-0.21542-1.69826-0.83494-1.52077-2.32328-1.89379-5.46624-0.97369-8.20174z" fill="#78b591"/>
    <path d="m802.84257 421.96115c-2.26206-1.11319-3.86313-3.6293-4.17814-6.56734-0.0841-0.7842 0.17816-1.56365 0.69082-2.05415 1.92116-1.83833 4.51969-2.28939 6.78241-1.177 2.26206 1.11279 3.86346 3.6287 4.17798 6.56714 0.0841 0.7838-0.17816 1.56325-0.69033 2.05355-1.92148 1.83853-4.52035 2.28979-6.78274 1.1778z" fill="#b0ce6f"/>
    <path d="m811.08512 424.75075c-0.16636 0-0.33517-0.0381-0.49857-0.11852-0.67803-0.33294-1.00385-1.26796-0.72835-2.08764l3.08776-9.18274c0.27551-0.81947 1.04794-1.21425 1.72646-0.88051 0.67786 0.33294 1.00385 1.26796 0.72834 2.08764l-3.08792 9.18274c-0.20913 0.62189-0.70474 0.99903-1.22772 0.99903z" fill="#659b7b"/>
    <path d="m812.16944 422.44054c-0.16619 0-0.33516-0.038-0.49857-0.11851l-7.59368-3.73433c-0.67787-0.33314-1.00386-1.26796-0.72819-2.08764 0.27535-0.81968 1.04876-1.21426 1.72646-0.88052l7.59369 3.73413c0.67786 0.33334 1.00385 1.26797 0.72818 2.08765-0.20913 0.62229-0.70474 0.99922-1.22789 0.99922z" fill="#7e8e51"/>
    <path d="m823.72804 427.65945c0-3.35263-2.24747-6.07029-5.02007-6.07029-0.25501 0-0.50495 0.023-0.74981 0.0676-0.74293-2.22915-2.54707-3.8035-4.65655-3.8035-2.09423 0-3.88821 1.55117-4.6413 3.75474-0.12522-0.0111-0.25158-0.0188-0.37909-0.0188-2.77242 0-5.0199 2.71767-5.0199 6.0703 0 0.0285 1e-3 0.0568 2e-3 0.086-1.97787 0.43819-3.47733 2.53197-3.47733 5.05046 0 2.83677 1.90182 5.13667 4.24779 5.13667h19.69445c2.34581 0 4.24796-2.29971 4.24796-5.13667 1.6e-4 -2.83697-1.90198-5.13647-4.24779-5.13647z" fill="#ef645e"/>
    <path d="m819.09411 427.7203h-0.67377c-0.73179 0-1.32475-0.71742-1.32475-1.6021s0.59296-1.6019 1.32475-1.6019h0.67377c0.73178 0 1.32475 0.71702 1.32475 1.6019 3.3e-4 0.88468-0.5928 1.6021-1.32475 1.6021z" fill="#c14616"/>
    <path d="m813.39602 424.21803h-0.67361c-0.73178 0-1.32491-0.71741-1.32491-1.60209 0-0.88469 0.59329-1.60191 1.32491-1.60191h0.67361c0.73178 0 1.32475 0.71703 1.32475 1.60191s-0.59313 1.60209-1.32475 1.60209z" fill="#ffab5f"/>
    <path d="m811.37095 429.12104h-0.67361c-0.73178 0-1.32491-0.71741-1.32491-1.6021 0-0.88508 0.59329-1.60189 1.32491-1.60189h0.67361c0.73178 0 1.32491 0.71702 1.32491 1.60189 0 0.88489-0.59329 1.6021-1.32491 1.6021z" fill="#c14616"/>
   </g>
   <g transform="matrix(.16389368 0 0 .19818143 772.68056 374.45052)" fill="#ffab5f">
    <path d="m271.988 293.533h-4.111c-4.465 0-8.083-3.62-8.083-8.084 0-4.465 3.618-8.083 8.083-8.083h4.111c4.465 0 8.083 3.618 8.083 8.083 0 4.464-3.618 8.084-8.083 8.084z"/>
    <path d="m204.261 293.533h-4.111c-4.464 0-8.083-3.62-8.083-8.084 0-4.465 3.62-8.083 8.083-8.083h4.111c4.465 0 8.083 3.618 8.083 8.083 0 4.464-3.617 8.084-8.083 8.084z"/>
   </g>
  </g>
  <g stroke-width=".18022399">
   <path d="m720.6782 435.07941c1.3954 4.85703 5.21019 8.34522 9.70218 8.34522h41.0947c4.49233 0 8.30696-3.48819 9.70235-8.34522z" fill="#ececec"/>
   <path d="m792.88468 433.89944c0 1.87262-1.25526 3.39048-2.80389 3.39048h-78.30594c-1.54848 0-2.80374-1.51786-2.80374-3.39048 0-1.87242 1.25526-3.39029 2.80374-3.39029h78.30594c1.54863 0 2.80389 1.51787 2.80389 3.39029z" fill="#fff"/>
   <ellipse transform="rotate(-14.768116)" cx="481.44141" cy="566.88318" rx="5.0823431" ry="6.145606" fill="#ffab5f"/>
   <path d="m617.70591 435.07941c1.3954 4.85703 5.21019 8.34522 9.70219 8.34522h41.09469c4.49233 0 8.30696-3.48819 9.70235-8.34522z" fill="#b3b3b3"/>
   <path d="m689.91239 433.89944c0 1.87262-1.25526 3.39048-2.80389 3.39048h-78.30594c-1.54847 0-2.80373-1.51786-2.80373-3.39048 0-1.87242 1.25526-3.39029 2.80373-3.39029h78.30594c1.54863 0 2.80389 1.51787 2.80389 3.39029z" fill="#ccc"/>
  </g>
  <g transform="translate(-85.16536,11.069632)">
   <g stroke-width=".18022399">
    <path d="m707.1847 396.50349c0.91977-2.7353 3.00073-4.67153 5.43062-5.05204 0.64836-0.10167 1.29328 0.21523 1.69892 0.83534 1.51978 2.32328 1.8933 5.46525 0.97303 8.20114-0.91977 2.7353-3.00072 4.67193-5.43061 5.05224-0.64837 0.10166-1.29296-0.21542-1.69827-0.83494-1.52077-2.32328-1.89379-5.46624-0.97369-8.20174z" fill="#78b591"/>
    <path d="m699.87029 406.59549c-2.26206-1.11319-3.86314-3.6293-4.17814-6.56734-0.0841-0.7842 0.17815-1.56365 0.69081-2.05415 1.92116-1.83833 4.51969-2.28939 6.78241-1.177 2.26206 1.11279 3.86346 3.6287 4.17798 6.56714 0.0841 0.7838-0.17816 1.56325-0.69032 2.05355-1.92149 1.83853-4.52035 2.28979-6.78274 1.1778z" fill="#b0ce6f"/>
    <path d="m708.11283 409.38509c-0.16636 0-0.33517-0.0381-0.49857-0.11852-0.67803-0.33294-1.00385-1.26796-0.72834-2.08764l3.08775-9.18274c0.27551-0.81947 1.04794-1.21425 1.72647-0.88051 0.67786 0.33294 1.00384 1.26796 0.72833 2.08764l-3.08791 9.18274c-0.20913 0.62189-0.70475 0.99903-1.22773 0.99903z" fill="#659b7b"/>
    <path d="m709.19715 407.07488c-0.16619 0-0.33516-0.038-0.49856-0.11851l-7.59369-3.73433c-0.67787-0.33314-1.00385-1.26796-0.72818-2.08764 0.27534-0.81968 1.04875-1.21426 1.72645-0.88052l7.59369 3.73413c0.67786 0.33334 1.00385 1.26797 0.72818 2.08765-0.20913 0.62229-0.70474 0.99922-1.22789 0.99922z" fill="#7e8e51"/>
    <path d="m720.75575 412.29379c0-3.35263-2.24747-6.07029-5.02006-6.07029-0.25502 0-0.50496 0.023-0.74982 0.0676-0.74292-2.22915-2.54707-3.8035-4.65654-3.8035-2.09424 0-3.88821 1.55117-4.64131 3.75474-0.12522-0.0111-0.25158-0.0188-0.37909-0.0188-2.77242 0-5.0199 2.71767-5.0199 6.0703 0 0.0285 1e-3 0.0568 2e-3 0.086-1.97787 0.43819-3.47733 2.53197-3.47733 5.05046 0 2.83677 1.90182 5.13666 4.24779 5.13666h19.69445c2.34582 0 4.24796-2.2997 4.24796-5.13666 1.6e-4 -2.83697-1.90198-5.13647-4.24779-5.13647z" fill="#ef645e"/>
    <path d="m716.12182 412.35464h-0.67376c-0.73179 0-1.32476-0.71742-1.32476-1.6021s0.59297-1.6019 1.32476-1.6019h0.67376c0.73178 0 1.32476 0.71702 1.32476 1.6019 3.2e-4 0.88468-0.59281 1.6021-1.32476 1.6021z" fill="#c14616"/>
    <path d="m710.42373 408.85237h-0.67361c-0.73178 0-1.32491-0.71741-1.32491-1.60209 0-0.88469 0.59329-1.60191 1.32491-1.60191h0.67361c0.73179 0 1.32475 0.71703 1.32475 1.60191s-0.59313 1.60209-1.32475 1.60209z" fill="#ffab5f"/>
    <path d="m708.39866 413.75538h-0.67361c-0.73178 0-1.32491-0.71741-1.32491-1.6021 0-0.88508 0.59329-1.60189 1.32491-1.60189h0.67361c0.73178 0 1.32491 0.71702 1.32491 1.60189 0 0.88489-0.59329 1.6021-1.32491 1.6021z" fill="#c14616"/>
   </g>
   <g transform="matrix(.16389368 0 0 .19818143 669.70828 359.08486)" fill="#ffab5f">
    <path d="m271.988 293.533h-4.111c-4.465 0-8.083-3.62-8.083-8.084 0-4.465 3.618-8.083 8.083-8.083h4.111c4.465 0 8.083 3.618 8.083 8.083 0 4.464-3.618 8.084-8.083 8.084z"/>
    <path d="m204.261 293.533h-4.111c-4.464 0-8.083-3.62-8.083-8.084 0-4.465 3.62-8.083 8.083-8.083h4.111c4.465 0 8.083 3.618 8.083 8.083 0 4.464-3.617 8.084-8.083 8.084z"/>
   </g>
   <g stroke-width=".18022399">
    <path d="m707.1847 396.50349c0.91977-2.7353 3.00073-4.67153 5.43062-5.05204 0.64836-0.10167 1.29328 0.21523 1.69892 0.83534 1.51978 2.32328 1.8933 5.46525 0.97303 8.20114-0.91977 2.7353-3.00072 4.67193-5.43061 5.05224-0.64837 0.10166-1.29296-0.21542-1.69827-0.83494-1.52077-2.32328-1.89379-5.46624-0.97369-8.20174z" fill="#78b591"/>
    <path d="m699.87029 406.59549c-2.26206-1.11319-3.86314-3.6293-4.17814-6.56734-0.0841-0.7842 0.17815-1.56365 0.69081-2.05415 1.92116-1.83833 4.51969-2.28939 6.78241-1.177 2.26206 1.11279 3.86346 3.6287 4.17798 6.56714 0.0841 0.7838-0.17816 1.56325-0.69032 2.05355-1.92149 1.83853-4.52035 2.28979-6.78274 1.1778z" fill="#b0ce6f"/>
    <path d="m708.11283 409.38509c-0.16636 0-0.33517-0.0381-0.49857-0.11852-0.67803-0.33294-1.00385-1.26796-0.72834-2.08764l3.08775-9.18274c0.27551-0.81947 1.04794-1.21425 1.72647-0.88051 0.67786 0.33294 1.00384 1.26796 0.72833 2.08764l-3.08791 9.18274c-0.20913 0.62189-0.70475 0.99903-1.22773 0.99903z" fill="#659b7b"/>
    <path d="m709.19715 407.07488c-0.16619 0-0.33516-0.038-0.49856-0.11851l-7.59369-3.73433c-0.67787-0.33314-1.00385-1.26796-0.72818-2.08764 0.27534-0.81968 1.04875-1.21426 1.72645-0.88052l7.59369 3.73413c0.67786 0.33334 1.00385 1.26797 0.72818 2.08765-0.20913 0.62229-0.70474 0.99922-1.22789 0.99922z" fill="#7e8e51"/>
    <path d="m720.75575 412.29379c0-3.35263-2.24747-6.07029-5.02006-6.07029-0.25502 0-0.50496 0.023-0.74982 0.0676-0.74292-2.22915-2.54707-3.8035-4.65654-3.8035-2.09424 0-3.88821 1.55117-4.64131 3.75474-0.12522-0.0111-0.25158-0.0188-0.37909-0.0188-2.77242 0-5.0199 2.71767-5.0199 6.0703 0 0.0285 1e-3 0.0568 2e-3 0.086-1.97787 0.43819-3.47733 2.53197-3.47733 5.05046 0 2.83677 1.90182 5.13666 4.24779 5.13666h19.69445c2.34582 0 4.24796-2.2997 4.24796-5.13666 1.6e-4 -2.83697-1.90198-5.13647-4.24779-5.13647z" fill="#ef645e"/>
    <path d="m716.12182 412.35464h-0.67376c-0.73179 0-1.32476-0.71742-1.32476-1.6021s0.59297-1.6019 1.32476-1.6019h0.67376c0.73178 0 1.32476 0.71702 1.32476 1.6019 3.2e-4 0.88468-0.59281 1.6021-1.32476 1.6021z" fill="#c14616"/>
    <path d="m710.42373 408.85237h-0.67361c-0.73178 0-1.32491-0.71741-1.32491-1.60209 0-0.88469 0.59329-1.60191 1.32491-1.60191h0.67361c0.73179 0 1.32475 0.71703 1.32475 1.60191s-0.59313 1.60209-1.32475 1.60209z" fill="#ffab5f"/>
    <path d="m708.39866 413.75538h-0.67361c-0.73178 0-1.32491-0.71741-1.32491-1.6021 0-0.88508 0.59329-1.60189 1.32491-1.60189h0.67361c0.73178 0 1.32491 0.71702 1.32491 1.60189 0 0.88489-0.59329 1.6021-1.32491 1.6021z" fill="#c14616"/>
   </g>
   <g transform="matrix(.16389368 0 0 .19818143 669.70828 359.08486)" fill="#ffab5f">
    <path d="m271.988 293.533h-4.111c-4.465 0-8.083-3.62-8.083-8.084 0-4.465 3.618-8.083 8.083-8.083h4.111c4.465 0 8.083 3.618 8.083 8.083 0 4.464-3.618 8.084-8.083 8.084z"/>
    <path d="m204.261 293.533h-4.111c-4.464 0-8.083-3.62-8.083-8.084 0-4.465 3.62-8.083 8.083-8.083h4.111c4.465 0 8.083 3.618 8.083 8.083 0 4.464-3.617 8.084-8.083 8.084z"/>
   </g>
  </g>
  <ellipse transform="rotate(20.486181)" cx="791.11115" cy="157.93303" rx="5.0823431" ry="6.145606" fill="#ffab5f" stroke-width=".18022399"/>
  <g transform="translate(-62.134701,9.3987225)">
   <g stroke-width=".18022399">
    <path d="m707.1847 396.50349c0.91977-2.7353 3.00073-4.67153 5.43062-5.05204 0.64836-0.10167 1.29328 0.21523 1.69892 0.83534 1.51978 2.32328 1.8933 5.46525 0.97303 8.20114-0.91977 2.7353-3.00072 4.67193-5.43061 5.05224-0.64837 0.10166-1.29296-0.21542-1.69827-0.83494-1.52077-2.32328-1.89379-5.46624-0.97369-8.20174z" fill="#78b591"/>
    <path d="m699.87029 406.59549c-2.26206-1.11319-3.86314-3.6293-4.17814-6.56734-0.0841-0.7842 0.17815-1.56365 0.69081-2.05415 1.92116-1.83833 4.51969-2.28939 6.78241-1.177 2.26206 1.11279 3.86346 3.6287 4.17798 6.56714 0.0841 0.7838-0.17816 1.56325-0.69032 2.05355-1.92149 1.83853-4.52035 2.28979-6.78274 1.1778z" fill="#b0ce6f"/>
    <path d="m708.11283 409.38509c-0.16636 0-0.33517-0.0381-0.49857-0.11852-0.67803-0.33294-1.00385-1.26796-0.72834-2.08764l3.08775-9.18274c0.27551-0.81947 1.04794-1.21425 1.72647-0.88051 0.67786 0.33294 1.00384 1.26796 0.72833 2.08764l-3.08791 9.18274c-0.20913 0.62189-0.70475 0.99903-1.22773 0.99903z" fill="#659b7b"/>
    <path d="m709.19715 407.07488c-0.16619 0-0.33516-0.038-0.49856-0.11851l-7.59369-3.73433c-0.67787-0.33314-1.00385-1.26796-0.72818-2.08764 0.27534-0.81968 1.04875-1.21426 1.72645-0.88052l7.59369 3.73413c0.67786 0.33334 1.00385 1.26797 0.72818 2.08765-0.20913 0.62229-0.70474 0.99922-1.22789 0.99922z" fill="#7e8e51"/>
    <path d="m720.75575 412.29379c0-3.35263-2.24747-6.07029-5.02006-6.07029-0.25502 0-0.50496 0.023-0.74982 0.0676-0.74292-2.22915-2.54707-3.8035-4.65654-3.8035-2.09424 0-3.88821 1.55117-4.64131 3.75474-0.12522-0.0111-0.25158-0.0188-0.37909-0.0188-2.77242 0-5.0199 2.71767-5.0199 6.0703 0 0.0285 1e-3 0.0568 2e-3 0.086-1.97787 0.43819-3.47733 2.53197-3.47733 5.05046 0 2.83677 1.90182 5.13666 4.24779 5.13666h19.69445c2.34582 0 4.24796-2.2997 4.24796-5.13666 1.6e-4 -2.83697-1.90198-5.13647-4.24779-5.13647z" fill="#ef645e"/>
    <path d="m716.12182 412.35464h-0.67376c-0.73179 0-1.32476-0.71742-1.32476-1.6021s0.59297-1.6019 1.32476-1.6019h0.67376c0.73178 0 1.32476 0.71702 1.32476 1.6019 3.2e-4 0.88468-0.59281 1.6021-1.32476 1.6021z" fill="#c14616"/>
    <path d="m710.42373 408.85237h-0.67361c-0.73178 0-1.32491-0.71741-1.32491-1.60209 0-0.88469 0.59329-1.60191 1.32491-1.60191h0.67361c0.73179 0 1.32475 0.71703 1.32475 1.60191s-0.59313 1.60209-1.32475 1.60209z" fill="#ffab5f"/>
    <path d="m708.39866 413.75538h-0.67361c-0.73178 0-1.32491-0.71741-1.32491-1.6021 0-0.88508 0.59329-1.60189 1.32491-1.60189h0.67361c0.73178 0 1.32491 0.71702 1.32491 1.60189 0 0.88489-0.59329 1.6021-1.32491 1.6021z" fill="#c14616"/>
   </g>
   <g transform="matrix(.16389368 0 0 .19818143 669.70828 359.08486)" fill="#ffab5f">
    <path d="m271.988 293.533h-4.111c-4.465 0-8.083-3.62-8.083-8.084 0-4.465 3.618-8.083 8.083-8.083h4.111c4.465 0 8.083 3.618 8.083 8.083 0 4.464-3.618 8.084-8.083 8.084z"/>
    <path d="m204.261 293.533h-4.111c-4.464 0-8.083-3.62-8.083-8.084 0-4.465 3.62-8.083 8.083-8.083h4.111c4.465 0 8.083 3.618 8.083 8.083 0 4.464-3.617 8.084-8.083 8.084z"/>
   </g>
   <g stroke-width=".18022399">
    <path d="m707.1847 396.50349c0.91977-2.7353 3.00073-4.67153 5.43062-5.05204 0.64836-0.10167 1.29328 0.21523 1.69892 0.83534 1.51978 2.32328 1.8933 5.46525 0.97303 8.20114-0.91977 2.7353-3.00072 4.67193-5.43061 5.05224-0.64837 0.10166-1.29296-0.21542-1.69827-0.83494-1.52077-2.32328-1.89379-5.46624-0.97369-8.20174z" fill="#78b591"/>
    <path d="m699.87029 406.59549c-2.26206-1.11319-3.86314-3.6293-4.17814-6.56734-0.0841-0.7842 0.17815-1.56365 0.69081-2.05415 1.92116-1.83833 4.51969-2.28939 6.78241-1.177 2.26206 1.11279 3.86346 3.6287 4.17798 6.56714 0.0841 0.7838-0.17816 1.56325-0.69032 2.05355-1.92149 1.83853-4.52035 2.28979-6.78274 1.1778z" fill="#b0ce6f"/>
    <path d="m708.11283 409.38509c-0.16636 0-0.33517-0.0381-0.49857-0.11852-0.67803-0.33294-1.00385-1.26796-0.72834-2.08764l3.08775-9.18274c0.27551-0.81947 1.04794-1.21425 1.72647-0.88051 0.67786 0.33294 1.00384 1.26796 0.72833 2.08764l-3.08791 9.18274c-0.20913 0.62189-0.70475 0.99903-1.22773 0.99903z" fill="#659b7b"/>
    <path d="m709.19715 407.07488c-0.16619 0-0.33516-0.038-0.49856-0.11851l-7.59369-3.73433c-0.67787-0.33314-1.00385-1.26796-0.72818-2.08764 0.27534-0.81968 1.04875-1.21426 1.72645-0.88052l7.59369 3.73413c0.67786 0.33334 1.00385 1.26797 0.72818 2.08765-0.20913 0.62229-0.70474 0.99922-1.22789 0.99922z" fill="#7e8e51"/>
    <path d="m720.75575 412.29379c0-3.35263-2.24747-6.07029-5.02006-6.07029-0.25502 0-0.50496 0.023-0.74982 0.0676-0.74292-2.22915-2.54707-3.8035-4.65654-3.8035-2.09424 0-3.88821 1.55117-4.64131 3.75474-0.12522-0.0111-0.25158-0.0188-0.37909-0.0188-2.77242 0-5.0199 2.71767-5.0199 6.0703 0 0.0285 1e-3 0.0568 2e-3 0.086-1.97787 0.43819-3.47733 2.53197-3.47733 5.05046 0 2.83677 1.90182 5.13666 4.24779 5.13666h19.69445c2.34582 0 4.24796-2.2997 4.24796-5.13666 1.6e-4 -2.83697-1.90198-5.13647-4.24779-5.13647z" fill="#ef645e"/>
    <path d="m716.12182 412.35464h-0.67376c-0.73179 0-1.32476-0.71742-1.32476-1.6021s0.59297-1.6019 1.32476-1.6019h0.67376c0.73178 0 1.32476 0.71702 1.32476 1.6019 3.2e-4 0.88468-0.59281 1.6021-1.32476 1.6021z" fill="#c14616"/>
    <path d="m710.42373 408.85237h-0.67361c-0.73178 0-1.32491-0.71741-1.32491-1.60209 0-0.88469 0.59329-1.60191 1.32491-1.60191h0.67361c0.73179 0 1.32475 0.71703 1.32475 1.60191s-0.59313 1.60209-1.32475 1.60209z" fill="#ffab5f"/>
    <path d="m708.39866 413.75538h-0.67361c-0.73178 0-1.32491-0.71741-1.32491-1.6021 0-0.88508 0.59329-1.60189 1.32491-1.60189h0.67361c0.73178 0 1.32491 0.71702 1.32491 1.60189 0 0.88489-0.59329 1.6021-1.32491 1.6021z" fill="#c14616"/>
   </g>
   <g transform="matrix(.16389368 0 0 .19818143 669.70828 359.08486)" fill="#ffab5f">
    <path d="m271.988 293.533h-4.111c-4.465 0-8.083-3.62-8.083-8.084 0-4.465 3.618-8.083 8.083-8.083h4.111c4.465 0 8.083 3.618 8.083 8.083 0 4.464-3.618 8.084-8.083 8.084z"/>
    <path d="m204.261 293.533h-4.111c-4.464 0-8.083-3.62-8.083-8.084 0-4.465 3.62-8.083 8.083-8.083h4.111c4.465 0 8.083 3.618 8.083 8.083 0 4.464-3.617 8.084-8.083 8.084z"/>
   </g>
  </g>
  <g transform="translate(-39.104016,9.3127125)">
   <g stroke-width=".18022399">
    <path d="m707.1847 396.50349c0.91977-2.7353 3.00073-4.67153 5.43062-5.05204 0.64836-0.10167 1.29328 0.21523 1.69892 0.83534 1.51978 2.32328 1.8933 5.46525 0.97303 8.20114-0.91977 2.7353-3.00072 4.67193-5.43061 5.05224-0.64837 0.10166-1.29296-0.21542-1.69827-0.83494-1.52077-2.32328-1.89379-5.46624-0.97369-8.20174z" fill="#78b591"/>
    <path d="m699.87029 406.59549c-2.26206-1.11319-3.86314-3.6293-4.17814-6.56734-0.0841-0.7842 0.17815-1.56365 0.69081-2.05415 1.92116-1.83833 4.51969-2.28939 6.78241-1.177 2.26206 1.11279 3.86346 3.6287 4.17798 6.56714 0.0841 0.7838-0.17816 1.56325-0.69032 2.05355-1.92149 1.83853-4.52035 2.28979-6.78274 1.1778z" fill="#b0ce6f"/>
    <path d="m708.11283 409.38509c-0.16636 0-0.33517-0.0381-0.49857-0.11852-0.67803-0.33294-1.00385-1.26796-0.72834-2.08764l3.08775-9.18274c0.27551-0.81947 1.04794-1.21425 1.72647-0.88051 0.67786 0.33294 1.00384 1.26796 0.72833 2.08764l-3.08791 9.18274c-0.20913 0.62189-0.70475 0.99903-1.22773 0.99903z" fill="#659b7b"/>
    <path d="m709.19715 407.07488c-0.16619 0-0.33516-0.038-0.49856-0.11851l-7.59369-3.73433c-0.67787-0.33314-1.00385-1.26796-0.72818-2.08764 0.27534-0.81968 1.04875-1.21426 1.72645-0.88052l7.59369 3.73413c0.67786 0.33334 1.00385 1.26797 0.72818 2.08765-0.20913 0.62229-0.70474 0.99922-1.22789 0.99922z" fill="#7e8e51"/>
    <path d="m720.75575 412.29379c0-3.35263-2.24747-6.07029-5.02006-6.07029-0.25502 0-0.50496 0.023-0.74982 0.0676-0.74292-2.22915-2.54707-3.8035-4.65654-3.8035-2.09424 0-3.88821 1.55117-4.64131 3.75474-0.12522-0.0111-0.25158-0.0188-0.37909-0.0188-2.77242 0-5.0199 2.71767-5.0199 6.0703 0 0.0285 1e-3 0.0568 2e-3 0.086-1.97787 0.43819-3.47733 2.53197-3.47733 5.05046 0 2.83677 1.90182 5.13666 4.24779 5.13666h19.69445c2.34582 0 4.24796-2.2997 4.24796-5.13666 1.6e-4 -2.83697-1.90198-5.13647-4.24779-5.13647z" fill="#ef645e"/>
    <path d="m716.12182 412.35464h-0.67376c-0.73179 0-1.32476-0.71742-1.32476-1.6021s0.59297-1.6019 1.32476-1.6019h0.67376c0.73178 0 1.32476 0.71702 1.32476 1.6019 3.2e-4 0.88468-0.59281 1.6021-1.32476 1.6021z" fill="#c14616"/>
    <path d="m710.42373 408.85237h-0.67361c-0.73178 0-1.32491-0.71741-1.32491-1.60209 0-0.88469 0.59329-1.60191 1.32491-1.60191h0.67361c0.73179 0 1.32475 0.71703 1.32475 1.60191s-0.59313 1.60209-1.32475 1.60209z" fill="#ffab5f"/>
    <path d="m708.39866 413.75538h-0.67361c-0.73178 0-1.32491-0.71741-1.32491-1.6021 0-0.88508 0.59329-1.60189 1.32491-1.60189h0.67361c0.73178 0 1.32491 0.71702 1.32491 1.60189 0 0.88489-0.59329 1.6021-1.32491 1.6021z" fill="#c14616"/>
   </g>
   <g transform="matrix(.16389368 0 0 .19818143 669.70828 359.08486)" fill="#ffab5f">
    <path d="m271.988 293.533h-4.111c-4.465 0-8.083-3.62-8.083-8.084 0-4.465 3.618-8.083 8.083-8.083h4.111c4.465 0 8.083 3.618 8.083 8.083 0 4.464-3.618 8.084-8.083 8.084z"/>
    <path d="m204.261 293.533h-4.111c-4.464 0-8.083-3.62-8.083-8.084 0-4.465 3.62-8.083 8.083-8.083h4.111c4.465 0 8.083 3.618 8.083 8.083 0 4.464-3.617 8.084-8.083 8.084z"/>
   </g>
   <g stroke-width=".18022399">
    <path d="m707.1847 396.50349c0.91977-2.7353 3.00073-4.67153 5.43062-5.05204 0.64836-0.10167 1.29328 0.21523 1.69892 0.83534 1.51978 2.32328 1.8933 5.46525 0.97303 8.20114-0.91977 2.7353-3.00072 4.67193-5.43061 5.05224-0.64837 0.10166-1.29296-0.21542-1.69827-0.83494-1.52077-2.32328-1.89379-5.46624-0.97369-8.20174z" fill="#78b591"/>
    <path d="m699.87029 406.59549c-2.26206-1.11319-3.86314-3.6293-4.17814-6.56734-0.0841-0.7842 0.17815-1.56365 0.69081-2.05415 1.92116-1.83833 4.51969-2.28939 6.78241-1.177 2.26206 1.11279 3.86346 3.6287 4.17798 6.56714 0.0841 0.7838-0.17816 1.56325-0.69032 2.05355-1.92149 1.83853-4.52035 2.28979-6.78274 1.1778z" fill="#b0ce6f"/>
    <path d="m708.11283 409.38509c-0.16636 0-0.33517-0.0381-0.49857-0.11852-0.67803-0.33294-1.00385-1.26796-0.72834-2.08764l3.08775-9.18274c0.27551-0.81947 1.04794-1.21425 1.72647-0.88051 0.67786 0.33294 1.00384 1.26796 0.72833 2.08764l-3.08791 9.18274c-0.20913 0.62189-0.70475 0.99903-1.22773 0.99903z" fill="#659b7b"/>
    <path d="m709.19715 407.07488c-0.16619 0-0.33516-0.038-0.49856-0.11851l-7.59369-3.73433c-0.67787-0.33314-1.00385-1.26796-0.72818-2.08764 0.27534-0.81968 1.04875-1.21426 1.72645-0.88052l7.59369 3.73413c0.67786 0.33334 1.00385 1.26797 0.72818 2.08765-0.20913 0.62229-0.70474 0.99922-1.22789 0.99922z" fill="#7e8e51"/>
    <path d="m720.75575 412.29379c0-3.35263-2.24747-6.07029-5.02006-6.07029-0.25502 0-0.50496 0.023-0.74982 0.0676-0.74292-2.22915-2.54707-3.8035-4.65654-3.8035-2.09424 0-3.88821 1.55117-4.64131 3.75474-0.12522-0.0111-0.25158-0.0188-0.37909-0.0188-2.77242 0-5.0199 2.71767-5.0199 6.0703 0 0.0285 1e-3 0.0568 2e-3 0.086-1.97787 0.43819-3.47733 2.53197-3.47733 5.05046 0 2.83677 1.90182 5.13666 4.24779 5.13666h19.69445c2.34582 0 4.24796-2.2997 4.24796-5.13666 1.6e-4 -2.83697-1.90198-5.13647-4.24779-5.13647z" fill="#ef645e"/>
    <path d="m716.12182 412.35464h-0.67376c-0.73179 0-1.32476-0.71742-1.32476-1.6021s0.59297-1.6019 1.32476-1.6019h0.67376c0.73178 0 1.32476 0.71702 1.32476 1.6019 3.2e-4 0.88468-0.59281 1.6021-1.32476 1.6021z" fill="#c14616"/>
    <path d="m710.42373 408.85237h-0.67361c-0.73178 0-1.32491-0.71741-1.32491-1.60209 0-0.88469 0.59329-1.60191 1.32491-1.60191h0.67361c0.73179 0 1.32475 0.71703 1.32475 1.60191s-0.59313 1.60209-1.32475 1.60209z" fill="#ffab5f"/>
    <path d="m708.39866 413.75538h-0.67361c-0.73178 0-1.32491-0.71741-1.32491-1.6021 0-0.88508 0.59329-1.60189 1.32491-1.60189h0.67361c0.73178 0 1.32491 0.71702 1.32491 1.60189 0 0.88489-0.59329 1.6021-1.32491 1.6021z" fill="#c14616"/>
   </g>
   <g transform="matrix(.16389368 0 0 .19818143 669.70828 359.08486)" fill="#ffab5f">
    <path d="m271.988 293.533h-4.111c-4.465 0-8.083-3.62-8.083-8.084 0-4.465 3.618-8.083 8.083-8.083h4.111c4.465 0 8.083 3.618 8.083 8.083 0 4.464-3.618 8.084-8.083 8.084z"/>
    <path d="m204.261 293.533h-4.111c-4.464 0-8.083-3.62-8.083-8.084 0-4.465 3.62-8.083 8.083-8.083h4.111c4.465 0 8.083 3.618 8.083 8.083 0 4.464-3.617 8.084-8.083 8.084z"/>
   </g>
  </g>
  <g stroke-width=".18022399">
   <ellipse cx="660.35675" cy="426.25241" rx="5.0823431" ry="6.145606" fill="#ffab5f"/>
   <ellipse cx="636.60339" cy="425.43332" rx="5.0823431" ry="6.145606" fill="#ffab5f"/>
   <path d="m617.70591 435.07941c1.3954 4.85703 5.21019 8.34522 9.70219 8.34522h41.09469c4.49233 0 8.30696-3.48819 9.70235-8.34522z" fill="#ececec"/>
   <path d="m689.91239 433.89944c0 1.87262-1.25526 3.39048-2.80389 3.39048h-78.30594c-1.54847 0-2.80373-1.51786-2.80373-3.39048 0-1.87242 1.25526-3.39029 2.80373-3.39029h78.30594c1.54863 0 2.80389 1.51787 2.80389 3.39029z" fill="#fff"/>
  </g>
 </g>
 <g transform="translate(0,-164.5459)">
  <path d="m443.26684 236.28481h-81.33692c-4.78279 0-8.6332 3.92436-8.6332 8.79901v75.63361c0 4.87466 3.85041 8.79901 8.6332 8.79901h81.33692c4.78279 0 8.6332-3.92435 8.6332-8.79901l-16.63339-37.81681 16.63339-37.8168c1.95647-4.44815-3.85041-8.79901-8.6332-8.79901z" fill="#fff" stroke="#00c853" stroke-linecap="round" stroke-linejoin="round" stroke-width="1.3104434"/>
  <path d="m361.2116 236.10571c0.66677 0.0315 1.31076 0.26187 1.90041 0.73642 0 0 21.47401 14.96078 27.30036 20.24193 1.04754 0.94953 1.9879 1.73092 2.83236 2.40976h-39.90146v-13.80588c0-4.13507 4.26777-9.75218 7.86833-9.58223zm33.05077 116.27493c-1.30156 0.8041-2.72443 0.95334-4.0518 0z" fill="#00c853"/>
 </g>
 <g transform="translate(0,-164.5459)">
  <path d="m9.674543 236.28481h81.336926c4.78279 0 8.633196 3.92436 8.633196 8.79901v75.63361c0 4.87466-3.850406 8.79901-8.633196 8.79901h-81.336926c-4.78279 0-8.6331959-3.92435-8.6331959-8.79901l16.6333829-37.81681-16.6333829-37.8168c-1.95647452-4.44815 3.8504059-8.79901 8.6331959-8.79901z" fill="#fff" stroke="#00c853" stroke-linecap="round" stroke-linejoin="round" stroke-width="1.3104434"/>
  <path d="m91.729785 236.10571c-0.666771 0.0315-1.310758 0.26187-1.900407 0.73642 0 0-21.474014 14.96078-27.300364 20.24193-1.047537 0.94953-1.987893 1.73092-2.832357 2.40976h39.901467v-13.80588c0-4.13507-4.267775-9.75218-7.868339-9.58223zm-33.050768 116.27493c1.301555 0.8041 2.724424 0.95333 4.051803 0z" fill="#00c853"/>
 </g>
 <g stroke="#00c853" stroke-linecap="round" stroke-linejoin="round">
  <rect x="54.498417" y="94.948158" width="343.80542" height="92.886826" ry="8.7664652" fill="#fff" stroke-width="1.3104434"/>
  <g transform="matrix(.71974789 0 0 .71974789 181.03411 -27.19562)" fill="#00c853" stroke-width="7.9375">
   <path d="m-33.222956 318.55025v18.84114"/>
   <path d="m-23.802386 327.97082h-18.84114"/>
  </g>
  <g transform="matrix(.71974789 0 0 .71974789 319.73159 -27.19562)" fill="#00c853" stroke-width="7.9375">
   <path d="m-33.222956 318.55025v18.84114"/>
   <path d="m-23.802386 327.97082h-18.84114"/>
  </g>
 </g>
 <g fill="#fff" stroke-width=".26458332" style="font-feature-settings:normal;font-variant-caps:normal;font-variant-ligatures:normal;font-variant-numeric:normal" aria-label="exercise">
  <path d="m179.24391 211.12304q-0.18603-1.67431 0.28939-3.32796 0.47542-1.67432 1.46761-2.97656 1.01286-1.32292 2.43913-2.1084 1.42627-0.80615 3.14193-0.76481 0.7028-0.0207 1.6123 0.31006 0.90951 0.33072 1.67432 0.93017 0.76481 0.57878 1.21956 1.36426 0.47542 0.76481 0.31006 1.63297 0.0207 0.43409-0.43408 0.72347-0.45476 0.26872-1.21957 0.43409-0.74414 0.16536-1.757 0.24804-0.99218 0.062-2.10839 0.10336-1.09554 0.0413-2.23243 0.0827-1.13688 0.0207-2.14974 0.10335-0.57877 1.59164-0.3514 2.62516 0.24805 1.01286 1.01286 1.5503 0.78548 0.53743 1.92237 0.64079 1.15755 0.0827 2.39778-0.16537 1.24024-0.24805 2.43913-0.78548 1.19889-0.55811 2.06706-1.32292 0.12402 0 0.31006 0.0827 0.2067 0.0827 0.39274 0.22738 0.18603 0.12402 0.31006 0.28939 0.14469 0.14469 0.14469 0.26872-0.51676 0.88883-1.57096 1.59163t-2.37712 1.13688-2.76986 0.53744q-1.42627 0.10335-2.68717-0.20671-1.26091-0.31006-2.21175-1.09554-0.95085-0.78548-1.28158-2.12907zm9.88054-5.51904q-0.10336-0.78548-0.62012-1.17822-0.51677-0.39275-1.21956-0.4961-0.7028-0.12402-1.48829 0.0207-0.78548 0.1447-1.46761 0.43408-0.66146 0.28939-1.11621 0.68213-0.43408 0.39274-0.45475 0.78549z" style="font-feature-settings:normal;font-variant-caps:normal;font-variant-ligatures:normal;font-variant-numeric:normal"/>
  <path d="m192.72113 203.64029q0-0.12402 0.10335-0.37207 0.10335-0.26871 0.28939-0.51676 0.2067-0.24805 0.49609-0.39274 0.28939-0.16537 0.68213-0.10335l4.25814 5.1263q0.3514-0.45475 0.78548-1.09554 0.43408-0.66146 0.93018-1.38493 0.49609-0.72347 1.01285-1.44694 0.51677-0.72347 1.0542-1.34359 0.31006 0 0.53744 0.12402 0.24805 0.12403 0.41341 0.31006 0.16536 0.16537 0.24805 0.37207 0.10335 0.20671 0.10335 0.39274l-3.38997 5.29167 4.46484 4.67155q0.14469 0.26872 0.062 0.57878-0.0827 0.31006-0.31006 0.5581-0.2067 0.22738-0.51676 0.33073t-0.64079-0.0413l-4.46484-4.65088q-0.37207 0.41341-0.90951 1.0542-0.53743 0.64079-1.13688 1.30225-0.57878 0.66146-1.13688 1.24023-0.55811 0.57878-0.95085 0.86817-0.24805 0.12402-0.5581 0.12402-0.28939 0-0.55811-0.12402-0.24805-0.10336-0.41341-0.31006-0.16537-0.20671-0.16537-0.47543 0.062-0.062 0.3514-0.3514 0.28939-0.31005 0.68213-0.74414 0.41341-0.43408 0.88884-0.97151 0.47542-0.53744 0.9095-1.0542 0.43409-0.53744 0.80616-1.03353 0.37207-0.4961 0.5581-0.8475-1.2609-1.40559-2.25309-2.52181-0.41341-0.47542-0.82682-0.93017-0.39275-0.45475-0.7028-0.80615-0.31006-0.37207-0.51677-0.59945-0.18603-0.22738-0.18603-0.22738z" style="font-feature-settings:normal;font-variant-caps:normal;font-variant-ligatures:normal;font-variant-numeric:normal"/>
  <path d="m205.33018 211.12304q-0.18604-1.67431 0.28939-3.32796 0.47542-1.67432 1.46761-2.97656 1.01285-1.32292 2.43912-2.1084 1.42627-0.80615 3.14193-0.76481 0.7028-0.0207 1.61231 0.31006 0.9095 0.33072 1.67431 0.93017 0.76481 0.57878 1.21957 1.36426 0.47542 0.76481 0.31005 1.63297 0.0207 0.43409-0.43408 0.72347-0.45475 0.26872-1.21956 0.43409-0.74414 0.16536-1.757 0.24804-0.99219 0.062-2.1084 0.10336-1.09554 0.0413-2.23242 0.0827-1.13688 0.0207-2.14974 0.10335-0.57878 1.59164-0.3514 2.62516 0.24805 1.01286 1.01286 1.5503 0.78548 0.53743 1.92236 0.64079 1.15755 0.0827 2.39779-0.16537 1.24023-0.24805 2.43913-0.78548 1.19889-0.55811 2.06705-1.32292 0.12403 0 0.31006 0.0827 0.20671 0.0827 0.39274 0.22738 0.18604 0.12402 0.31006 0.28939 0.1447 0.14469 0.1447 0.26872-0.51677 0.88883-1.57097 1.59163t-2.37711 1.13688q-1.32292 0.43408-2.76986 0.53744-1.42627 0.10335-2.68718-0.20671-1.2609-0.31006-2.21175-1.09554-0.95084-0.78548-1.28157-2.12907zm9.88053-5.51904q-0.10335-0.78548-0.62012-1.17822-0.51676-0.39275-1.21956-0.4961-0.7028-0.12402-1.48828 0.0207-0.78548 0.1447-1.46761 0.43408-0.66146 0.28939-1.11621 0.68213-0.43408 0.39274-0.45476 0.78549z" style="font-feature-settings:normal;font-variant-caps:normal;font-variant-ligatures:normal;font-variant-numeric:normal"/>
  <path d="m219.03477 202.21402q0.0413-0.39274 0.33073-0.47542 0.28938-0.10335 0.62011-0.062 0.53744 0.062 0.80616 0.5581 0.26871 0.47543 0.37207 1.07487 0.10335 0.59945 0.10335 1.17823 0 0.5581 0.0207 0.80615 0.57878-0.49609 1.28158-1.13688 0.72347-0.64079 1.73632-1.15755 1.03353-0.53744 2.4598-0.80616 1.44694-0.28938 3.47266-0.0413 0.49609 0.12403 0.72347 0.47543 0.24805 0.3514 0.24805 0.74414 0.0207 0.37207-0.20671 0.7028-0.20671 0.31005-0.59945 0.3514-0.49609-0.37207-1.32291-0.43409-0.82683-0.062-1.81901 0.1447-0.97152 0.2067-1.98438 0.66146-1.01286 0.45475-1.88102 1.13688-0.8475 0.68213-1.46761 1.57096-0.59945 0.88884-0.74414 1.94304v4.52685q-0.0413 0.10335-0.33073 0.31006-0.28939 0.18603-0.66146 0.26872-0.3514 0.10335-0.72347 0-0.3514-0.10336-0.53744-0.57878 0-0.14469 0-0.9095 0-0.78549 0-1.88103 0.0207-1.11621 0.0413-2.41845 0.0207-1.32292 0.0207-2.58383 0.0207-1.2609 0.0207-2.3151 0.0207-1.0542 0.0207-1.65365z" style="font-feature-settings:normal;font-variant-caps:normal;font-variant-ligatures:normal;font-variant-numeric:normal"/>
  <path d="m229.51475 210.44091q-0.10336-1.07487 0.49609-2.33577 0.62012-1.28158 1.65365-2.4598 1.0542-1.19889 2.39778-2.12907 1.36426-0.95085 2.74919-1.36426 1.4056-0.43408 2.68717-0.16536 1.30225 0.26872 2.2531 1.48828 0 0.26872-0.1447 0.47542-0.12402 0.20671-0.33073 0.39274-0.18603 0.18604-0.41341 0.33073-0.22737 0.1447-0.41341 0.28939-0.3514-0.74414-0.93017-1.03353-0.57878-0.28939-1.28158-0.22737-0.7028 0.0413-1.48828 0.39274-0.78548 0.33073-1.55029 0.86816-0.76482 0.51676-1.44694 1.17822-0.68213 0.64079-1.1989 1.34359-0.49609 0.68213-0.76481 1.36426-0.26872 0.66146-0.2067 1.19889 0 0.90951 0.35139 1.46761 0.3514 0.55811 0.90951 0.86817 0.57878 0.31006 1.30225 0.41341 0.74414 0.10335 1.50895 0.10335 1.57096-0.0413 2.8112-0.37207 1.2609-0.3514 2.17041-0.72347 0.9095-0.39274 1.50895-0.68213t0.86816-0.22737q0.16537 0 0.33073 0.0207 0.18604 0.0207 0.31006 0.12402 0.14469 0.0827 0.18604 0.26872 0.062 0.16536 0 0.47542-0.062 0.39274-0.53744 0.76481-0.47542 0.3514-1.21956 0.66146t-1.65365 0.57878q-0.9095 0.24804-1.81901 0.43408-0.9095 0.16536-1.73633 0.24804-0.80615 0.0827-1.34359 0.0414-0.9095 0-1.9637-0.20671t-1.9637-0.68213q-0.88884-0.47542-1.48829-1.24023-0.59944-0.78549-0.59944-1.94304z" style="font-feature-settings:normal;font-variant-caps:normal;font-variant-ligatures:normal;font-variant-numeric:normal"/>
  <path d="m247.35345 202.37939q0.18604 2.54248 0.33073 5.41569 0.1447 2.85254 0.24805 5.76709-0.10335 0.41341-0.43408 0.59945-0.31006 0.18603-0.68213 0.2067-0.37207 0-0.7028-0.12402-0.31006-0.12403-0.39274-0.33073v-11.53418zm-2.39778-3.514q0-0.47542 0.26871-0.68213 0.26872-0.2067 0.64079-0.22737 0.37207-0.0414 0.74414 0.062 0.37207 0.10335 0.53744 0.24804 0.18603 0.68213-0.062 0.99219-0.24804 0.31006-0.66145 0.3514-0.39274 0.0207-0.82683-0.18603-0.43408-0.20671-0.64078-0.55811z" style="font-feature-settings:normal;font-variant-caps:normal;font-variant-ligatures:normal;font-variant-numeric:normal"/>
  <path d="m249.91661 213.06608q1.86035-0.1447 3.3693-0.51677 1.52962-0.37207 2.56315-0.84749 1.0542-0.4961 1.57096-1.03353 0.51677-0.55811 0.37207-1.09554-0.16536-0.57878-1.65364-0.4961-1.46761 0.0827-4.36149 0.66146-0.8475-0.062-1.48828-0.39274-0.62012-0.33073-0.99219-0.78548-0.37207-0.47542-0.47542-0.99219-0.10336-0.51676 0.062-0.9095 0-0.68213 0.39274-1.32292 0.41341-0.66146 1.09554-1.19889 0.7028-0.55811 1.6123-0.99219 0.93018-0.45475 1.98438-0.7028 1.0542-0.26872 2.17041-0.33073 1.11621-0.062 2.21175 0.1447 0.53743 0.24804 0.86816 0.57877 0.3514 0.31006 0.47543 0.64079 0.12402 0.31006 0 0.59945-0.12403 0.28938-0.51677 0.49609-0.84749-0.37207-1.79834-0.53744-0.93017-0.18603-1.86035-0.14469-0.93017 0.0413-1.79834 0.28939-0.84749 0.22737-1.50895 0.66146-0.64079 0.41341-1.0542 1.03353-0.41341 0.62011-0.43408 1.40559 0 0.43409 0.33073 0.57878 0.3514 0.12402 0.80615 0.12402 0.47542-0.0207 0.97152-0.10335 0.51676-0.10335 0.82682-0.10335 2.04639-0.28939 3.3693-0.16537 1.34359 0.12403 2.04639 0.53744t0.82682 1.03353q0.12403 0.62011-0.24804 1.34358-0.3514 0.7028-1.15756 1.42627-0.80615 0.72347-1.9637 1.32292t-2.62516 1.01286q-1.44694 0.39274-3.10059 0.47542-0.39274 0.1447-0.66146-0.0413-0.24804-0.18603-0.37207-0.49609-0.12402-0.31006-0.10335-0.64079 0.0413-0.3514 0.24805-0.51676z" style="font-feature-settings:normal;font-variant-caps:normal;font-variant-ligatures:normal;font-variant-numeric:normal"/>
  <path d="m260.85134 211.12304q-0.18603-1.67431 0.28939-3.32796 0.47542-1.67432 1.46761-2.97656 1.01286-1.32292 2.43913-2.1084 1.42627-0.80615 3.14193-0.76481 0.70279-0.0207 1.6123 0.31006 0.90951 0.33072 1.67432 0.93017 0.76481 0.57878 1.21956 1.36426 0.47542 0.76481 0.31006 1.63297 0.0207 0.43409-0.43408 0.72347-0.45476 0.26872-1.21957 0.43409-0.74414 0.16536-1.757 0.24804-0.99218 0.062-2.10839 0.10336-1.09554 0.0413-2.23243 0.0827-1.13688 0.0207-2.14974 0.10335-0.57877 1.59164-0.3514 2.62516 0.24805 1.01286 1.01286 1.5503 0.78548 0.53743 1.92237 0.64079 1.15755 0.0827 2.39778-0.16537 1.24024-0.24805 2.43913-0.78548 1.19889-0.55811 2.06706-1.32292 0.12402 0 0.31006 0.0827 0.2067 0.0827 0.39274 0.22738 0.18603 0.12402 0.31006 0.28939 0.14469 0.14469 0.14469 0.26872-0.51676 0.88883-1.57096 1.59163t-2.37712 1.13688-2.76986 0.53744q-1.42627 0.10335-2.68717-0.20671-1.26091-0.31006-2.21175-1.09554-0.95085-0.78548-1.28158-2.12907zm9.88054-5.51904q-0.10336-0.78548-0.62012-1.17822-0.51677-0.39275-1.21957-0.4961-0.70279-0.12402-1.48828 0.0207-0.78548 0.1447-1.46761 0.43408-0.66146 0.28939-1.11621 0.68213-0.43408 0.39274-0.45475 0.78549z" style="font-feature-settings:normal;font-variant-caps:normal;font-variant-ligatures:normal;font-variant-numeric:normal"/>
 </g>
 <g fill="#00c853" stroke-width=".26458335" style="font-feature-settings:normal;font-variant-caps:normal;font-variant-ligatures:normal;font-variant-numeric:normal" aria-label="Comparing">
  <path d="m160.10596 120.72663q-1.757-1.20579-3.87574-1.86036-4.23746-1.30913-6.01169 1.44695-1.80867 2.80775-1.10243 5.13319 0.62012 2.0326 2.84221 3.04891 2.15318 0.96462 4.44417 0.43063 2.48047-0.56844 3.6518-2.65272l4.35805 3.85851q-1.67087 2.25654-4.66811 3.73793-5.99446 2.98-12.59182-0.82683-3.514-1.99815-4.20302-6.70071-0.65457-4.49585 1.58475-8.44048 2.44601-4.28915 6.95909-5.13319 5.28822-0.99908 11.92003 3.23839z" style="font-feature-settings:normal;font-variant-caps:normal;font-variant-ligatures:normal;font-variant-numeric:normal"/>
  <path d="m173.28345 128.47809q-1.01631-0.0172-1.53307-0.31006-0.49954-0.2756-0.49954-0.77514 0-0.51677 0.46509-0.84405 0.51676-0.37896 1.41249-0.37896 0.9474 0 1.49861 0.32728 0.55122 0.31006 0.55122 0.8096 0 0.48231-0.55122 0.82682-0.53398 0.36174-1.34358 0.34451zm-0.12058-10.28361q-4.3236 0-6.54568 2.91111-1.86035 2.42879-1.86035 6.18394 0 4.16857 1.94648 6.1495 2.15318 2.18763 7.14857 2.25654 3.54845 0.0517 5.92556-2.61828 2.30822-2.60104 2.30822-6.30452 0-3.73793-2.32544-6.09782-2.44602-2.48047-6.59736-2.48047z" style="font-feature-settings:normal;font-variant-caps:normal;font-variant-ligatures:normal;font-variant-numeric:normal"/>
  <path d="m204.0826 117.29876q-3.68625-0.0517-5.52938 2.80775-1.05075 1.60197-1.30913 3.60012 0.17225-1.67087-0.56844-3.13503-0.6718-2.58382-3.13504-3.27284-1.99815-0.56844-4.5303 1.79145l0.0344-2.06706-6.40788-0.0345 0.18948 18.41403 6.2873-0.17225 0.25839-5.09874q0.67179-6.09782 2.53214-5.99447 1.98093 0.0861 1.79145 5.49493-0.0861 2.7044-0.56844 5.4088l6.40788 0.0172q0.15503-2.87665 0.63734-5.63273 0.46509-5.39157 2.11873-4.92648 1.67087 0.44786 1.58475 5.59828-0.22393 2.68717-0.77515 5.25377l5.99447-0.31006q0.68902-4.40972 0.46509-8.81945-0.20671-3.8585-1.25746-6.08059-1.30914-2.79053-4.22025-2.8422z" style="font-feature-settings:normal;font-variant-caps:normal;font-variant-ligatures:normal;font-variant-numeric:normal"/>
  <path d="m220.73964 128.47809q-1.17134 0-1.73978-0.29283-0.48231-0.25838-0.44786-0.70625 0.0345-0.39618 0.44786-0.77514 0.43064-0.36174 0.99908-0.49954 0.89573-0.20671 1.67087 0.10335 0.68902 0.27561 0.91295 0.79237 0.24116 0.53399-0.18948 0.91295-0.49954 0.44787-1.65364 0.46509zm0.41341-9.85297q-2.7044 0-4.78869 1.65364l0.0172-1.77422-6.18395 0.27561v22.68595h5.92557l0.0861-7.87204q2.08428 1.36081 5.20209 1.41249 4.42695 0.10335 6.82129-2.44602 2.13596-2.25654 1.94648-5.63273-0.17226-3.34174-2.48047-5.70163-2.54937-2.60105-6.54568-2.60105z" style="font-feature-settings:normal;font-variant-caps:normal;font-variant-ligatures:normal;font-variant-numeric:normal"/>
  <path d="m237.98235 130.87243q-0.58567-0.0861-0.96463-0.34451-0.36174-0.25838-0.39619-0.55121-0.0172-0.31006 0.32729-0.48232 0.39618-0.18948 1.1541-0.1378 0.53399 0.0517 0.84405 0.31006 0.27561 0.25838 0.25838 0.56844-0.0172 0.32728-0.32728 0.49954-0.32728 0.2067-0.89572 0.1378zm4.737-12.04061q-4.51307-0.79237-7.73424-0.32728-1.61919 0.24116-2.32544 0.63734l0.99908 5.01262q1.92925-0.53399 4.06521-0.48232 4.27192 0.10336 5.271 3.10059-1.6192-0.96463-3.70348-1.46417-4.20301-0.99907-6.61458 1.34359-1.42972 1.39526-1.77423 3.15226-0.34451 1.73978 0.48232 3.16949 0.8785 1.53307 2.7733 2.20486 2.11873 0.7407 5.09874 0.24116 2.42879-0.43064 3.87573-2.37712l-0.29283 2.06706h5.87389q1.05075-3.61735 0.82682-7.45863-0.18948-3.35897-1.58474-5.51215-1.72255-2.68718-5.23655-3.3073z" style="font-feature-settings:normal;font-variant-caps:normal;font-variant-ligatures:normal;font-variant-numeric:normal"/>
  <path d="m255.81071 117.22985-5.51215 0.13781 0.43063 17.67334 5.66719 0.1378-0.22393-7.28637q0.75792-3.66903 4.09966-4.54753 1.67087-0.44786 3.18671-0.15503l0.0172-6.01169q-4.84036 0.12058-7.59644 2.22208z" style="font-feature-settings:normal;font-variant-caps:normal;font-variant-ligatures:normal;font-variant-numeric:normal"/>
  <path d="m267.50681 117.14373q1.72255-0.0517 2.6355-1.05076 0.84405-0.91295 0.77515-2.20486-0.0689-1.27468-0.96463-2.18763-0.96463-0.99908-2.51492-1.03353-1.39526-0.0517-2.32544 0.98185-0.84405 0.9474-0.93017 2.27376-0.0689 1.36082 0.72347 2.25654 0.91295 1.0163 2.60104 0.96463zm2.61828 1.10243-5.44326 0.0172-0.0689 16.94987 5.59828 0.13781z" style="font-feature-settings:normal;font-variant-caps:normal;font-variant-ligatures:normal;font-variant-numeric:normal"/>
  <path d="m282.57911 117.07483q-3.20394-0.32729-5.42603 1.1541l0.0344-1.17133-5.4088-0.15503-0.43063 18.55184h6.47678l0.0861-6.51123q-0.22393-5.61551 2.61828-5.73608 2.10151-0.0861 2.42879 5.77053 0.17225 2.7733-0.25838 5.71886l6.73516 0.15503q0.49954-4.37527-0.10335-8.62997-0.51677-3.87573-1.92926-6.14949-1.77422-2.84221-4.82313-2.99723z" style="font-feature-settings:normal;font-variant-caps:normal;font-variant-ligatures:normal;font-variant-numeric:normal"/>
  <path d="m299.99405 123.84444q0.56845 0.12058 0.98186 0.53399 0.41341 0.39618 0.44786 0.8096 0.0344 0.46508-0.43064 0.74069-0.56844 0.32728-1.73977 0.29283-1.17133 0-1.63642-0.46508-0.43064-0.41342-0.20671-0.98186 0.22393-0.53399 0.91295-0.84404 0.75792-0.31006 1.67087-0.0861zm-8.95724 16.91542q7.92372 4.87481 14.03876 1.53306 3.61735-2.39434 4.37527-9.2673 1.0163-5.63273 0.53399-15.74409l-6.23562-0.25838 0.0172 1.67087q-1.99815-1.55029-4.56475-1.55029-3.7896 0-6.23562 2.46324-2.20486 2.25654-2.35989 5.42603-0.18948 3.22116 1.86035 5.39157 2.29099 2.42879 6.47678 2.32544 2.98001-0.0517 4.97816-1.36081 0.25839 1.63642-1.36081 4.01353-1.27468 1.87758-3.7896 1.70533-2.87666-0.20671-5.87389-2.37712z" style="font-feature-settings:normal;font-variant-caps:normal;font-variant-ligatures:normal;font-variant-numeric:normal"/>
 </g>
 <g fill="#00c853" stroke-width=".26458335" style="font-feature-settings:normal;font-variant-caps:normal;font-variant-ligatures:normal;font-variant-numeric:normal" aria-label="numbers">
  <path d="m169.82023 153.50103q-3.20394-0.32728-5.42603 1.15411l0.0344-1.17133-5.4088-0.15503-0.43063 18.55184h6.47678l0.0861-6.51123q-0.22393-5.61551 2.61828-5.73609 2.1015-0.0861 2.42879 5.77054 0.17225 2.7733-0.25838 5.71886l6.73516 0.15503q0.49954-4.37527-0.10335-8.62997-0.51677-3.87573-1.92926-6.14949-1.77422-2.84221-4.82313-2.99724z" style="font-feature-settings:normal;font-variant-caps:normal;font-variant-ligatures:normal;font-variant-numeric:normal"/>
  <path d="m187.16628 155.60254q0.43064 2.46325 0.46509 4.85759 0.0689 4.80591-1.58474 4.47862-1.65365-0.32728-1.92926-4.61643-0.12057-2.13596 0.15503-4.37527l-6.13227-0.34451q-0.75792 4.04799-0.0861 8.09598 1.30913 8.09597 8.3888 8.09597t7.87205-8.44048q0.37896-4.20302-0.63735-8.42326z" style="font-feature-settings:normal;font-variant-caps:normal;font-variant-ligatures:normal;font-variant-numeric:normal"/>
  <path d="m216.79411 153.72496q-3.68626-0.0517-5.52938 2.80776-1.05076 1.60197-1.30914 3.60012 0.17226-1.67087-0.56844-3.13503-0.67179-2.58383-3.13504-3.27285-1.99815-0.56844-4.5303 1.79145l0.0344-2.06705-6.40787-0.0345 0.18948 18.41403 6.28729-0.17225 0.25839-5.09874q0.67179-6.09782 2.53214-5.99447 1.98093 0.0861 1.79145 5.49493-0.0861 2.7044-0.56844 5.4088l6.40788 0.0172q0.15503-2.87665 0.63734-5.63273 0.46509-5.39157 2.11874-4.92649 1.67087 0.44787 1.58474 5.59829-0.22393 2.68717-0.77515 5.25377l5.99447-0.31006q0.68902-4.40973 0.46509-8.81945-0.20671-3.8585-1.25746-6.08059-1.30914-2.79053-4.22024-2.84221z" style="font-feature-settings:normal;font-variant-caps:normal;font-variant-ligatures:normal;font-variant-numeric:normal"/>
  <path d="m233.72675 164.74927q-0.86128-0.17225-1.18856-0.56844-0.29284-0.34451-0.13781-0.75792 0.15503-0.37896 0.6029-0.65457 0.48231-0.27561 0.99907-0.27561 1.15411 0.0344 1.67087 0.44787 0.46509 0.37896 0.32729 0.8785-0.15503 0.51676-0.7407 0.79237-0.67179 0.31006-1.53306 0.1378zm6.85574-7.32083q-3.16949-2.60104-7.06245-1.79145-1.9637 0.39619-3.32452 1.30914v-8.52661l-7.11412 0.32728v22.61705l6.51123 0.18948v-2.46324q0.34451 0.62012 0.99908 1.60197 1.61919 0.96463 3.94463 1.15411 2.92833 0.25838 5.06429-1.41249 2.08429-1.36081 3.25562-3.99631 0.8096-2.51492 0.31006-4.97817-0.82683-2.61827-2.58382-4.03076z" style="font-feature-settings:normal;font-variant-caps:normal;font-variant-ligatures:normal;font-variant-numeric:normal"/>
  <path d="m253.46715 158.53087q1.51584-0.2756 2.20486 0.48232 0.34451 0.39618 0.37896 0.82682l-4.65088 0.44786q-0.0689-0.32728 0.1378-0.72347 0.43064-0.75792 1.92926-1.03353zm-0.70625 7.25193q-0.89572-0.49954-1.22301-1.37804-0.17225-0.43064-0.15502-0.77515l11.55829-1.37803q-0.39619-2.32544-1.98093-4.51308-3.20394-4.3925-9.26731-3.82405-3.46232 0.32728-5.4777 2.79052-1.8259 2.20486-1.99815 5.42603-0.18948 3.11781 1.22301 5.70163 1.51584 2.7733 4.23746 3.6518 4.71978 1.5503 9.07783-0.68902 2.18764-1.11965 3.41064-2.53214l-3.70347-3.85851q-0.8096 0.68902-1.92926 1.20578-2.22208 1.05076-3.77238 0.17226z" style="font-feature-settings:normal;font-variant-caps:normal;font-variant-ligatures:normal;font-variant-numeric:normal"/>
  <path d="m269.00453 153.65606-5.51216 0.13781 0.43064 17.67334 5.66718 0.1378-0.22393-7.28638q0.75792-3.66902 4.09967-4.54752 1.67087-0.44786 3.18671-0.15503l0.0172-6.01169q-4.84036 0.12057-7.59644 2.22208z" style="font-feature-settings:normal;font-variant-caps:normal;font-variant-ligatures:normal;font-variant-numeric:normal"/>
  <path d="m279.94271 164.38754q1.58474 0.68901 2.8422 1.223 3.47955 1.73978 4.16857 1.11966 0.24116-0.36173 0.0689-0.62012-0.17225-0.25838-1.70532-0.86127-1.51584-0.62012-3.47955-1.24023-1.9637-0.62012-2.66995-2.04984-0.67179-1.37803-0.10335-2.9111 0.62012-1.65365 2.37712-2.61827 2.0326-1.10244 5.02984-0.91296 2.53214 0.15503 5.04706 1.15411 1.18856 0.65457 1.86035 1.29191l-2.17041 3.41065q-0.99908-0.65457-1.94648-0.9474-3.10058-1.13689-3.27284 0.0689-0.0172 0.32728 0.55122 0.68902 0.58566 0.34451 2.48047 0.86127 1.91202 0.49954 3.10058 1.06798 1.77423 0.8785 2.15319 2.80775 0.39618 1.96371-1.22301 4.03077-1.6881 1.98093-5.83944 1.99815-3.61735 0.0344-9.73239-2.7044z" style="font-feature-settings:normal;font-variant-caps:normal;font-variant-ligatures:normal;font-variant-numeric:normal"/>
 </g>
</svg>
