<?xml version="1.0" encoding="UTF-8"?>
<!-- Created with Inkscape (http://www.inkscape.org/) -->
<svg width="452.94128mm" height="218.5383mm" version="1.1" viewBox="0 0 452.94129 218.53831" xmlns="http://www.w3.org/2000/svg" xmlns:cc="http://creativecommons.org/ns#" xmlns:dc="http://purl.org/dc/elements/1.1/" xmlns:rdf="http://www.w3.org/1999/02/22-rdf-syntax-ns#">
 <metadata>
  <rdf:RDF>
   <cc:Work rdf:about="">
    <dc:format>image/svg+xml</dc:format>
    <dc:type rdf:resource="http://purl.org/dc/dcmitype/StillImage"/>
    <dc:title/>
   </cc:Work>
  </rdf:RDF>
 </metadata>
 <g fill="#f9eab0">
  <polygon transform="matrix(3.4969519,0,0,3.4969519,454.53794,432.75581)" points=""/>
  <polygon transform="matrix(3.4969519,0,0,3.4969519,1042.6953,575.90132)" points=""/>
  <g transform="translate(-5.1217259e-5)">
   <polygon transform="matrix(3.4969519,0,0,3.4969519,455.26903,655.71169)" points=""/>
   <polygon transform="matrix(3.4969519,0,0,3.4969519,1043.4265,798.8572)" points=""/>
   <g transform="translate(-12.79578,310.10624)">
    <polygon transform="matrix(3.4969519,0,0,3.4969519,454.53799,432.75581)" points=""/>
    <polygon transform="matrix(3.4969519,0,0,3.4969519,1042.6954,575.90132)" points=""/>
    <polygon transform="matrix(3.4969519,0,0,3.4969519,290.18775,626.41733)" points=""/>
   </g>
  </g>
 </g>
 <rect x="1.6978903e-13" y="-3.5888672e-7" width="452.94128" height="218.28127" opacity="0" stroke-width=".35775721"/>
 <g transform="translate(-5.1217259e-5,-164.5459)">
  <path d="m443.26684 236.28481h-81.33692c-4.78279 0-8.6332 3.92436-8.6332 8.79901v75.63361c0 4.87466 3.85041 8.79901 8.6332 8.79901h81.33692c4.78279 0 8.6332-3.92435 8.6332-8.79901l-16.63339-37.81681 16.63339-37.8168c1.95647-4.44815-3.85041-8.79901-8.6332-8.79901z" fill="#fff" stroke="#00c853" stroke-linecap="round" stroke-linejoin="round" stroke-width="1.3104434"/>
  <path d="m361.2116 236.10571c0.66677 0.0315 1.31076 0.26187 1.90041 0.73642 0 0 21.47401 14.96078 27.30036 20.24193 1.04754 0.94953 1.9879 1.73092 2.83236 2.40976h-39.90146v-13.80588c0-4.13507 4.26777-9.75218 7.86833-9.58223zm33.05077 116.27493c-1.30156 0.8041-2.72443 0.95334-4.0518 0z" fill="#00c853"/>
 </g>
 <g transform="translate(-5.1217259e-5,-164.5459)">
  <path d="m9.674543 236.28481h81.336926c4.78279 0 8.633196 3.92436 8.633196 8.79901v75.63361c0 4.87466-3.850406 8.79901-8.633196 8.79901h-81.336926c-4.78279 0-8.6331959-3.92435-8.6331959-8.79901l16.6333829-37.81681-16.6333829-37.8168c-1.95647452-4.44815 3.8504059-8.79901 8.6331959-8.79901z" fill="#fff" stroke="#00c853" stroke-linecap="round" stroke-linejoin="round" stroke-width="1.3104434"/>
  <path d="m91.729785 236.10571c-0.666771 0.0315-1.310758 0.26187-1.900407 0.73642 0 0-21.474014 14.96078-27.300364 20.24193-1.047537 0.94953-1.987893 1.73092-2.832357 2.40976h39.901467v-13.80588c0-4.13507-4.267775-9.75218-7.868339-9.58223zm-33.050768 116.27493c1.301555 0.8041 2.724424 0.95333 4.051803 0z" fill="#00c853"/>
 </g>
 <g stroke="#00c853" stroke-linecap="round" stroke-linejoin="round">
  <rect x="54.498367" y="94.948158" width="343.80542" height="92.886826" ry="8.7664652" fill="#fff" stroke-width="1.3104434"/>
  <g transform="matrix(.71974789 0 0 .71974789 181.03406 -27.19562)" fill="#00c853" stroke-width="7.9375">
   <path d="m-33.222956 318.55025v18.84114"/>
   <path d="m-23.802386 327.97082h-18.84114"/>
  </g>
  <g transform="matrix(.71974789 0 0 .71974789 319.73154 -27.19562)" fill="#00c853" stroke-width="7.9375">
   <path d="m-33.222956 318.55025v18.84114"/>
   <path d="m-23.802386 327.97082h-18.84114"/>
  </g>
 </g>
 <g fill="#fff" stroke-width=".26458332" style="font-feature-settings:normal;font-variant-caps:normal;font-variant-ligatures:normal;font-variant-numeric:normal" aria-label="exercise">
  <path d="m179.24387 211.12304q-0.18604-1.67431 0.28938-3.32796 0.47543-1.67432 1.46761-2.97656 1.01286-1.32292 2.43913-2.1084 1.42627-0.80615 3.14193-0.76481 0.7028-0.0207 1.6123 0.31006 0.90951 0.33072 1.67432 0.93017 0.76481 0.57878 1.21956 1.36426 0.47543 0.76481 0.31006 1.63297 0.0207 0.43409-0.43408 0.72347-0.45475 0.26872-1.21956 0.43409-0.74414 0.16536-1.757 0.24804-0.99219 0.062-2.1084 0.10336-1.09554 0.0413-2.23242 0.0827-1.13688 0.0207-2.14974 0.10335-0.57878 1.59164-0.3514 2.62516 0.24805 1.01286 1.01286 1.5503 0.78548 0.53743 1.92236 0.64079 1.15755 0.0827 2.39779-0.16537 1.24023-0.24805 2.43912-0.78548 1.1989-0.55811 2.06706-1.32292 0.12403 0 0.31006 0.0827 0.20671 0.0827 0.39274 0.22738 0.18604 0.12402 0.31006 0.28939 0.14469 0.14469 0.14469 0.26872-0.51676 0.88883-1.57096 1.59163t-2.37712 1.13688q-1.32291 0.43408-2.76985 0.53744-1.42627 0.10335-2.68718-0.20671-1.2609-0.31006-2.21175-1.09554-0.95084-0.78548-1.28157-2.12907zm9.88053-5.51904q-0.10335-0.78548-0.62012-1.17822-0.51676-0.39275-1.21956-0.4961-0.7028-0.12402-1.48828 0.0207-0.78548 0.1447-1.46761 0.43408-0.66146 0.28939-1.11621 0.68213-0.43409 0.39274-0.45476 0.78549z" style="font-feature-settings:normal;font-variant-caps:normal;font-variant-ligatures:normal;font-variant-numeric:normal"/>
  <path d="m192.72108 203.64029q0-0.12402 0.10335-0.37207 0.10336-0.26871 0.28939-0.51676 0.20671-0.24805 0.4961-0.39274 0.28938-0.16537 0.68212-0.10335l4.25814 5.1263q0.3514-0.45475 0.78548-1.09554 0.43409-0.66146 0.93018-1.38493t1.01286-1.44694q0.51676-0.72347 1.0542-1.34359 0.31006 0 0.53743 0.12402 0.24805 0.12403 0.41341 0.31006 0.16537 0.16537 0.24805 0.37207 0.10335 0.20671 0.10335 0.39274l-3.38997 5.29167 4.46484 4.67155q0.1447 0.26872 0.062 0.57878t-0.31006 0.5581q-0.20671 0.22738-0.51677 0.33073t-0.64079-0.0413l-4.46484-4.65088q-0.37207 0.41341-0.9095 1.0542-0.53744 0.64079-1.13689 1.30225-0.57877 0.66146-1.13688 1.24023-0.5581 0.57878-0.95084 0.86817-0.24805 0.12402-0.55811 0.12402-0.28939 0-0.55811-0.12402-0.24804-0.10336-0.41341-0.31006-0.16536-0.20671-0.16536-0.47543 0.062-0.062 0.3514-0.3514 0.28939-0.31005 0.68213-0.74414 0.41341-0.43408 0.88883-0.97151 0.47543-0.53744 0.90951-1.0542 0.43408-0.53744 0.80615-1.03353 0.37207-0.4961 0.55811-0.8475-1.26091-1.40559-2.2531-2.52181-0.41341-0.47542-0.82682-0.93017-0.39274-0.45475-0.7028-0.80615-0.31006-0.37207-0.51676-0.59945-0.18604-0.22738-0.18604-0.22738z" style="font-feature-settings:normal;font-variant-caps:normal;font-variant-ligatures:normal;font-variant-numeric:normal"/>
  <path d="m205.33013 211.12304q-0.18603-1.67431 0.28939-3.32796 0.47542-1.67432 1.46761-2.97656 1.01286-1.32292 2.43913-2.1084 1.42627-0.80615 3.14193-0.76481 0.70279-0.0207 1.6123 0.31006 0.90951 0.33072 1.67432 0.93017 0.76481 0.57878 1.21956 1.36426 0.47542 0.76481 0.31006 1.63297 0.0207 0.43409-0.43408 0.72347-0.45476 0.26872-1.21957 0.43409-0.74414 0.16536-1.757 0.24804-0.99218 0.062-2.10839 0.10336-1.09554 0.0413-2.23243 0.0827-1.13688 0.0207-2.14974 0.10335-0.57877 1.59164-0.3514 2.62516 0.24805 1.01286 1.01286 1.5503 0.78548 0.53743 1.92237 0.64079 1.15755 0.0827 2.39778-0.16537 1.24024-0.24805 2.43913-0.78548 1.19889-0.55811 2.06706-1.32292 0.12402 0 0.31006 0.0827 0.2067 0.0827 0.39274 0.22738 0.18603 0.12402 0.31006 0.28939 0.14469 0.14469 0.14469 0.26872-0.51676 0.88883-1.57096 1.59163t-2.37712 1.13688-2.76986 0.53744q-1.42627 0.10335-2.68717-0.20671-1.26091-0.31006-2.21175-1.09554-0.95085-0.78548-1.28158-2.12907zm9.88054-5.51904q-0.10336-0.78548-0.62012-1.17822-0.51677-0.39275-1.21957-0.4961-0.70279-0.12402-1.48828 0.0207-0.78548 0.1447-1.46761 0.43408-0.66146 0.28939-1.11621 0.68213-0.43408 0.39274-0.45475 0.78549z" style="font-feature-settings:normal;font-variant-caps:normal;font-variant-ligatures:normal;font-variant-numeric:normal"/>
  <path d="m219.03472 202.21402q0.0413-0.39274 0.33073-0.47542 0.28939-0.10335 0.62012-0.062 0.53743 0.062 0.80615 0.5581 0.26872 0.47543 0.37207 1.07487 0.10335 0.59945 0.10335 1.17823 0 0.5581 0.0207 0.80615 0.57878-0.49609 1.28158-1.13688 0.72347-0.64079 1.73633-1.15755 1.03353-0.53744 2.4598-0.80616 1.44694-0.28938 3.47265-0.0413 0.4961 0.12403 0.72347 0.47543 0.24805 0.3514 0.24805 0.74414 0.0207 0.37207-0.20671 0.7028-0.2067 0.31005-0.59944 0.3514-0.4961-0.37207-1.32292-0.43409-0.82682-0.062-1.81901 0.1447-0.97152 0.2067-1.98438 0.66146-1.01285 0.45475-1.88102 1.13688-0.84749 0.68213-1.46761 1.57096-0.59944 0.88884-0.74414 1.94304v4.52685q-0.0413 0.10335-0.33073 0.31006-0.28939 0.18603-0.66146 0.26872-0.3514 0.10335-0.72347 0-0.3514-0.10336-0.53743-0.57878 0-0.14469 0-0.9095 0-0.78549 0-1.88103 0.0207-1.11621 0.0413-2.41845 0.0207-1.32292 0.0207-2.58383 0.0207-1.2609 0.0207-2.3151 0.0207-1.0542 0.0207-1.65365z" style="font-feature-settings:normal;font-variant-caps:normal;font-variant-ligatures:normal;font-variant-numeric:normal"/>
  <path d="m229.5147 210.44091q-0.10335-1.07487 0.4961-2.33577 0.62011-1.28158 1.65364-2.4598 1.0542-1.19889 2.39779-2.12907 1.36426-0.95085 2.74918-1.36426 1.4056-0.43408 2.68718-0.16536 1.30225 0.26872 2.25309 1.48828 0 0.26872-0.14469 0.47542-0.12403 0.20671-0.33073 0.39274-0.18604 0.18604-0.41341 0.33073-0.22738 0.1447-0.41341 0.28939-0.3514-0.74414-0.93018-1.03353t-1.28158-0.22737q-0.7028 0.0413-1.48828 0.39274-0.78548 0.33073-1.55029 0.86816-0.76481 0.51676-1.44694 1.17822-0.68213 0.64079-1.19889 1.34359-0.4961 0.68213-0.76481 1.36426-0.26872 0.66146-0.20671 1.19889 0 0.90951 0.3514 1.46761 0.3514 0.55811 0.9095 0.86817 0.57878 0.31006 1.30225 0.41341 0.74414 0.10335 1.50895 0.10335 1.57097-0.0413 2.8112-0.37207 1.26091-0.3514 2.17041-0.72347 0.90951-0.39274 1.50895-0.68213 0.59945-0.28939 0.86817-0.22737 0.16536 0 0.33073 0.0207 0.18603 0.0207 0.31005 0.12402 0.1447 0.0827 0.18604 0.26872 0.062 0.16536 0 0.47542-0.062 0.39274-0.53744 0.76481-0.47542 0.3514-1.21956 0.66146t-1.65364 0.57878q-0.90951 0.24804-1.81902 0.43408-0.9095 0.16536-1.73632 0.24804-0.80616 0.0827-1.34359 0.0414-0.90951 0-1.96371-0.20671-1.05419-0.20671-1.9637-0.68213-0.88883-0.47542-1.48828-1.24023-0.59945-0.78549-0.59945-1.94304z" style="font-feature-settings:normal;font-variant-caps:normal;font-variant-ligatures:normal;font-variant-numeric:normal"/>
  <path d="m247.35341 202.37939q0.18603 2.54248 0.33073 5.41569 0.14469 2.85254 0.24804 5.76709-0.10335 0.41341-0.43408 0.59945-0.31006 0.18603-0.68213 0.2067-0.37207 0-0.7028-0.12402-0.31006-0.12403-0.39274-0.33073v-11.53418zm-2.39779-3.514q0-0.47542 0.26872-0.68213 0.26871-0.2067 0.64079-0.22737 0.37207-0.0414 0.74414 0.062 0.37207 0.10335 0.53743 0.24804 0.18604 0.68213-0.062 0.99219-0.24805 0.31006-0.66146 0.3514-0.39274 0.0207-0.82682-0.18603-0.43408-0.20671-0.64079-0.55811z" style="font-feature-settings:normal;font-variant-caps:normal;font-variant-ligatures:normal;font-variant-numeric:normal"/>
  <path d="m249.91656 213.06608q1.86035-0.1447 3.3693-0.51677 1.52963-0.37207 2.56315-0.84749 1.0542-0.4961 1.57097-1.03353 0.51676-0.55811 0.37207-1.09554-0.16537-0.57878-1.65365-0.4961-1.46761 0.0827-4.36149 0.66146-0.84749-0.062-1.48828-0.39274-0.62012-0.33073-0.99219-0.78548-0.37207-0.47542-0.47542-0.99219-0.10335-0.51676 0.062-0.9095 0-0.68213 0.39274-1.32292 0.41341-0.66146 1.09554-1.19889 0.7028-0.55811 1.61231-0.99219 0.93017-0.45475 1.98437-0.7028 1.0542-0.26872 2.17041-0.33073 1.11621-0.062 2.21175 0.1447 0.53744 0.24804 0.86817 0.57877 0.3514 0.31006 0.47542 0.64079 0.12402 0.31006 0 0.59945-0.12402 0.28938-0.51676 0.49609-0.8475-0.37207-1.79834-0.53744-0.93018-0.18603-1.86035-0.14469-0.93018 0.0413-1.79834 0.28939-0.8475 0.22737-1.50896 0.66146-0.64078 0.41341-1.0542 1.03353-0.41341 0.62011-0.43408 1.40559 0 0.43409 0.33073 0.57878 0.3514 0.12402 0.80615 0.12402 0.47543-0.0207 0.97152-0.10335 0.51677-0.10335 0.82682-0.10335 2.04639-0.28939 3.36931-0.16537 1.34358 0.12403 2.04638 0.53744t0.82683 1.03353q0.12402 0.62011-0.24805 1.34358-0.3514 0.7028-1.15755 1.42627t-1.96371 1.32292q-1.15755 0.59945-2.62516 1.01286-1.44694 0.39274-3.10059 0.47542-0.39274 0.1447-0.66145-0.0413-0.24805-0.18603-0.37207-0.49609-0.12403-0.31006-0.10336-0.64079 0.0413-0.3514 0.24805-0.51676z" style="font-feature-settings:normal;font-variant-caps:normal;font-variant-ligatures:normal;font-variant-numeric:normal"/>
  <path d="m260.8513 211.12304q-0.18604-1.67431 0.28938-3.32796 0.47543-1.67432 1.46761-2.97656 1.01286-1.32292 2.43913-2.1084 1.42627-0.80615 3.14193-0.76481 0.7028-0.0207 1.6123 0.31006 0.90951 0.33072 1.67432 0.93017 0.76481 0.57878 1.21956 1.36426 0.47543 0.76481 0.31006 1.63297 0.0207 0.43409-0.43408 0.72347-0.45475 0.26872-1.21956 0.43409-0.74414 0.16536-1.757 0.24804-0.99219 0.062-2.1084 0.10336-1.09554 0.0413-2.23242 0.0827-1.13688 0.0207-2.14974 0.10335-0.57878 1.59164-0.3514 2.62516 0.24805 1.01286 1.01286 1.5503 0.78548 0.53743 1.92236 0.64079 1.15755 0.0827 2.39779-0.16537 1.24023-0.24805 2.43912-0.78548 1.1989-0.55811 2.06706-1.32292 0.12403 0 0.31006 0.0827 0.20671 0.0827 0.39274 0.22738 0.18604 0.12402 0.31006 0.28939 0.14469 0.14469 0.14469 0.26872-0.51676 0.88883-1.57096 1.59163t-2.37712 1.13688q-1.32291 0.43408-2.76985 0.53744-1.42627 0.10335-2.68718-0.20671-1.2609-0.31006-2.21175-1.09554t-1.28157-2.12907zm9.88053-5.51904q-0.10335-0.78548-0.62012-1.17822-0.51676-0.39275-1.21956-0.4961-0.7028-0.12402-1.48828 0.0207-0.78548 0.1447-1.46761 0.43408-0.66146 0.28939-1.11621 0.68213-0.43409 0.39274-0.45476 0.78549z" style="font-feature-settings:normal;font-variant-caps:normal;font-variant-ligatures:normal;font-variant-numeric:normal"/>
 </g>
 <g transform="translate(-277.10491,-149.53446)" fill="#00c853" stroke-width=".26458335" style="font-feature-settings:normal;font-variant-caps:normal;font-variant-ligatures:normal;font-variant-numeric:normal" aria-label='"+"  &amp;  "-"'>
  <path d="m448.0234 257.37326-0.70624 6.90742 4.11689 0.39618 0.58566-6.99354zm-6.37342-0.20671 0.58566 6.99355 4.11689-0.39619-0.70624-6.90741z" style="font-feature-settings:normal;font-variant-caps:normal;font-variant-ligatures:normal;font-variant-numeric:normal"/>
  <path d="m462.32055 264.43571-5.4088 0.0345-0.0517 4.5992-4.28914-0.32728-0.17225 5.78776 4.78868 0.15503-0.15503 4.63365 5.96001 0.49954v-5.46048l4.28915-0.15503-0.15503-4.97816-4.47863-0.15503z" style="font-feature-settings:normal;font-variant-caps:normal;font-variant-ligatures:normal;font-variant-numeric:normal"/>
  <path d="m473.99942 257.37326-0.70624 6.90742 4.11689 0.39618 0.58567-6.99354zm-6.37342-0.20671 0.58566 6.99355 4.11689-0.39619-0.70624-6.90741z" style="font-feature-settings:normal;font-variant-caps:normal;font-variant-ligatures:normal;font-variant-numeric:normal"/>
  <path d="m504.28181 263.62611q-0.68902 0-1.03353 0.31006-0.0172 0.0172-0.0172 0.0344-0.0344 0.0689-0.0344 0.24115-0.0172 0.56845 0.34451 1.49862 0.2067 0.55122 0.55121 1.20578 0.63735-0.53399 1.06798-1.03352 0.75792-0.89573 0.75792-1.41249 0-0.0861-0.0344-0.17226-0.0861-0.12058-0.25838-0.25838-0.51676-0.41341-1.32636-0.41341zm-2.73885 11.60997q-0.44786 0.70624-0.46509 1.46417 0 1.24023 1.01631 2.23931 1.06798 1.05075 2.48047 1.05075 1.17133-0.0172 2.27376-0.77514-2.44602-2.68718-4.25469-5.08152-0.6718 0.51676-1.05076 1.10243zm3.03169 9.95633q-3.54845 0-6.11505-2.53215-2.56659-2.53214-2.58382-5.96001 0-2.30822 1.30914-4.30637 0.96462-1.46417 2.53214-2.60105-0.56844-1.05075-0.9474-2.03261-0.77515-1.92925-0.77515-3.54845 0-1.20578 0.41342-2.22208 0.48231-1.15411 1.42971-1.98093 1.84313-1.58475 4.44417-1.58475 1.8259 0 3.4451 0.8096 1.79145 0.93018 2.7044 2.54937 0.68902 1.24024 0.68902 2.68718 0 2.46324-2.01538 4.78868-0.89573 1.05075-2.13596 2.03261 0.82682 1.0852 1.80867 2.23931 0.60289 0.72347 1.27469 1.48139 0.91295-1.8948 1.56752-4.34082l5.01261 1.34359q-1.10243 4.11689-2.80775 6.97631 1.13688 1.15411 2.04983 2.01539 0.10335 0.0861 0.15503 0.12057l-3.53122 3.82406q0.0344 0.0517-0.56844-0.53399-0.72347-0.68902-1.46417-1.42971-2.73885 2.20486-5.85666 2.20486z" style="font-feature-settings:normal;font-variant-caps:normal;font-variant-ligatures:normal;font-variant-numeric:normal"/>
  <path d="m540.83428 257.37326-0.70625 6.90742 4.11689 0.39618 0.58567-6.99354zm-6.37343-0.20671 0.58567 6.99355 4.11689-0.39619-0.70625-6.90741z" style="font-feature-settings:normal;font-variant-caps:normal;font-variant-ligatures:normal;font-variant-numeric:normal"/>
  <path d="m545.34735 273.61689 9.16396-0.10336 0.25838-3.42787-9.56014-0.44786z" style="font-feature-settings:normal;font-variant-caps:normal;font-variant-ligatures:normal;font-variant-numeric:normal"/>
  <path d="m561.50485 257.37326-0.70625 6.90742 4.11689 0.39618 0.58567-6.99354zm-6.37343-0.20671 0.58567 6.99355 4.11689-0.39619-0.70625-6.90741z" style="font-feature-settings:normal;font-variant-caps:normal;font-variant-ligatures:normal;font-variant-numeric:normal"/>
 </g>
 <g transform="translate(-277.10491,-149.53446)" fill="#00c853" stroke-width=".26458335" style="font-feature-settings:normal;font-variant-caps:normal;font-variant-ligatures:normal;font-variant-numeric:normal" aria-label="symbols">
  <path d="m441.55073 304.86376q1.58475 0.68902 2.84221 1.22301 3.47954 1.73977 4.16856 1.11966 0.24116-0.36174 0.0689-0.62012t-1.70533-0.86127q-1.51584-0.62012-3.47954-1.24024-1.96371-0.62012-2.66995-2.04983-0.6718-1.37804-0.10336-2.91111 0.62012-1.65364 2.37712-2.61827 2.03261-1.10243 5.02984-0.91295 2.53215 0.15503 5.04706 1.15411 1.18856 0.65457 1.86036 1.29191l-2.17041 3.41064q-0.99908-0.65456-1.94648-0.9474-3.10059-1.13688-3.27284 0.0689-0.0172 0.32729 0.55121 0.68902 0.58567 0.34451 2.48047 0.86128 1.91203 0.49954 3.10059 1.06798 1.77422 0.8785 2.15318 2.80775 0.39619 1.9637-1.22301 4.03076-1.68809 1.98093-5.83943 1.99816-3.61735 0.0344-9.7324-2.7044z" style="font-feature-settings:normal;font-variant-caps:normal;font-variant-ligatures:normal;font-variant-numeric:normal"/>
  <path d="m468.14687 294.339q0.77515 4.08243 0.49954 7.68256-0.75792 6.11504-3.85851 4.37527-1.49861-0.70624-1.68809-6.20117 0.0861-2.82498 0.46509-5.52938l-6.45956-0.0689q-0.62012 3.56567-0.32728 7.49308 0.60289 7.85482 5.21932 9.66349 2.46324 0.96463 5.23654 0.25839 1.37804-0.34451 2.27377-0.8785 0.3445 2.27376-0.36174 4.32359-1.39526 4.11689-6.64903 2.92833l-1.11966 6.1495q0.96463 0.31006 2.41157 0.41341 2.89388 0.24116 5.20209-0.75792 7.38973-3.15226 6.2873-17.32883-0.63734-8.00985 0.37896-12.26454z" style="font-feature-settings:normal;font-variant-caps:normal;font-variant-ligatures:normal;font-variant-numeric:normal"/>
  <path d="m498.36036 294.20119q-3.68625-0.0517-5.52938 2.80775-1.05075 1.60197-1.30914 3.60013 0.17226-1.67087-0.56844-3.13504-0.67179-2.58382-3.13503-3.27284-1.99816-0.56844-4.5303 1.79145l0.0344-2.06706-6.40788-0.0345 0.18948 18.41404 6.2873-0.17226 0.25838-5.09874q0.67179-6.09782 2.53215-5.99446 1.98093 0.0861 1.79145 5.49492-0.0861 2.7044-0.56845 5.4088l6.40788 0.0172q0.15503-2.87666 0.63735-5.63273 0.46508-5.39158 2.11873-4.92649 1.67087 0.44786 1.58474 5.59828-0.22393 2.68718-0.77514 5.25377l5.99446-0.31006q0.68902-4.40972 0.46509-8.81944-0.2067-3.85851-1.25746-6.08059-1.30914-2.79053-4.22024-2.84221z" style="font-feature-settings:normal;font-variant-caps:normal;font-variant-ligatures:normal;font-variant-numeric:normal"/>
  <path d="m515.29301 305.2255q-0.86128-0.17226-1.18856-0.56844-0.29283-0.34451-0.1378-0.75792 0.15502-0.37896 0.60289-0.65457 0.48231-0.27561 0.99907-0.27561 1.15411 0.0344 1.67088 0.44786 0.46508 0.37896 0.32728 0.8785-0.15503 0.51677-0.7407 0.79237-0.67179 0.31006-1.53306 0.13781zm6.85574-7.32083q-3.16949-2.60105-7.06245-1.79145-1.9637 0.39619-3.32452 1.30914v-8.52662l-7.11412 0.32729v22.61705l6.51123 0.18948v-2.46324q0.34451 0.62012 0.99908 1.60197 1.6192 0.96462 3.94463 1.1541 2.92834 0.25839 5.0643-1.41248 2.08428-1.36082 3.25561-3.99632 0.8096-2.51492 0.31006-4.97816-0.82682-2.61827-2.58382-4.03076z" style="font-feature-settings:normal;font-variant-caps:normal;font-variant-ligatures:normal;font-variant-numeric:normal"/>
  <path d="m534.12045 305.38053q-1.0163-0.0172-1.53307-0.31006-0.49953-0.27561-0.49953-0.77515 0-0.51676 0.46508-0.84405 0.51677-0.37896 1.41249-0.37896 0.9474 0 1.49862 0.32729 0.55121 0.31006 0.55121 0.80959 0 0.48232-0.55121 0.82683-0.53399 0.36173-1.34359 0.34451zm-0.12058-10.28361q-4.32359 0-6.54568 2.9111-1.86035 2.42879-1.86035 6.18395 0 4.16856 1.94648 6.14949 2.15318 2.18764 7.14857 2.25654 3.54845 0.0517 5.92557-2.61827 2.30821-2.60105 2.30821-6.30453 0-3.73792-2.32544-6.09781-2.44602-2.48047-6.59736-2.48047z" style="font-feature-settings:normal;font-variant-caps:normal;font-variant-ligatures:normal;font-variant-numeric:normal"/>
  <path d="m543.30163 289.18858v22.82376h7.07968l0.31005-23.13382z" style="font-feature-settings:normal;font-variant-caps:normal;font-variant-ligatures:normal;font-variant-numeric:normal"/>
  <path d="m553.65414 304.86376q1.58475 0.68902 2.84221 1.22301 3.47954 1.73977 4.16856 1.11966 0.24116-0.36174 0.0689-0.62012-0.17225-0.25838-1.70532-0.86127-1.51584-0.62012-3.47954-1.24024-1.96371-0.62012-2.66995-2.04983-0.6718-1.37804-0.10336-2.91111 0.62012-1.65364 2.37712-2.61827 2.03261-1.10243 5.02984-0.91295 2.53214 0.15503 5.04706 1.15411 1.18856 0.65457 1.86036 1.29191l-2.17041 3.41064q-0.99908-0.65456-1.94648-0.9474-3.10059-1.13688-3.27284 0.0689-0.0172 0.32729 0.55121 0.68902 0.58567 0.34451 2.48047 0.86128 1.91203 0.49954 3.10059 1.06798 1.77422 0.8785 2.15318 2.80775 0.39619 1.9637-1.22301 4.03076-1.6881 1.98093-5.83944 1.99816-3.61735 0.0344-9.73239-2.7044z" style="font-feature-settings:normal;font-variant-caps:normal;font-variant-ligatures:normal;font-variant-numeric:normal"/>
 </g>
 <g transform="matrix(1.0520195,0,0,1.0520195,1.6108788,-336.16825)">
  <g transform="matrix(.1425683 0 0 .1425683 129.69068 321.13688)" fill="#00c853">
   <g fill="#00c853">
    <g fill="#00c853">
     <path d="m477.549 182.379h-148.531v-148.532c0-18.69-15.154-33.844-33.844-33.844h-78.954c-18.69 0-33.844 15.153-33.844 33.844v148.526h-148.532c-18.691 0-33.844 15.153-33.844 33.843v78.966c0 18.691 15.153 33.844 33.844 33.844h148.532v148.527c0 18.689 15.153 33.842 33.844 33.842h78.96c18.691 0 33.844-15.152 33.844-33.842v-148.527h148.533c18.689 0 33.842-15.152 33.842-33.844v-78.966c-6e-3 -18.69-15.153-33.837-33.85-33.837z" fill="#00c853"/>
    </g>
   </g>
  </g>
  <rect x="224.71593" y="346.98923" width="72.94326" height="21.204433" ry="4.0288429" fill="#e91e63" stroke-width="1.45178568"/>
 </g>
 <rect x="178.04056" y="5.0371585" width="6.0695662" height="16.994787" ry="3.0347831" fill="#71ffac"/>
 <rect x="304.28754" y="31.338614" width="6.0695662" height="16.994787" ry="3.0347831" fill="#f597b7"/>
</svg>
