<?xml version="1.0" encoding="UTF-8" standalone="no"?>
<!-- Created with Inkscape (http://www.inkscape.org/) -->

<svg
   xmlns:dc="http://purl.org/dc/elements/1.1/"
   xmlns:cc="http://creativecommons.org/ns#"
   xmlns:rdf="http://www.w3.org/1999/02/22-rdf-syntax-ns#"
   xmlns:svg="http://www.w3.org/2000/svg"
   xmlns="http://www.w3.org/2000/svg"
   xmlns:xlink="http://www.w3.org/1999/xlink"
   xmlns:sodipodi="http://sodipodi.sourceforge.net/DTD/sodipodi-0.dtd"
   xmlns:inkscape="http://www.inkscape.org/namespaces/inkscape"
   width="452.94138mm"
   height="218.28125mm"
   version="1.1"
   viewBox="0 0 452.94138 218.28125"
   id="svg1496"
   sodipodi:docname="quienMasMenos.svg"
   inkscape:version="0.92.2 5c3e80d, 2017-08-06">
  <defs
     id="defs1500">
    <pattern
       inkscape:collect="always"
       xlink:href="#pattern2268"
       id="pattern3065"
       patternTransform="matrix(0.26458334,0,0,0.26458334,192.36351,323.59379)" />
    <pattern
       inkscape:collect="always"
       xlink:href="#pattern2268"
       id="pattern3063"
       patternTransform="matrix(0.26458334,0,0,0.26458334,192.36351,323.59379)" />
    <linearGradient
       gradientUnits="userSpaceOnUse"
       gradientTransform="matrix(0.99179491,0,0,0.97206061,1.6378017,1.2687425)"
       y2="65.398712"
       y1="-11.817766"
       x2="116.50047"
       x1="116.74176"
       id="linearGradient34907">
      <stop
         id="stop38470"
         offset="0"
         stop-color="#2196f3" />
      <stop
         id="stop38472"
         offset="1"
         stop-opacity="0"
         stop-color="#2196f3" />
    </linearGradient>
    <pattern
       patternUnits="userSpaceOnUse"
       width="707.99999"
       height="249.99998"
       patternTransform="matrix(0.26458334,0,0,0.26458334,253.21913,717.17254)"
       id="pattern2268">
      <path
         inkscape:connector-curvature="0"
         style="opacity:1;fill:#00e760;fill-opacity:1;stroke:none;stroke-width:4.19924116;stroke-linecap:butt;stroke-miterlimit:4;stroke-dasharray:none;stroke-opacity:1"
         d="M 0,0 V 32.734374 L 13.640579,0 Z m 29.974601,0 13.584,16.111332 L 55.972572,0 Z M 75.589794,0 83.466783,28.083968 62.372975,12.691389 37.857373,64.572244 32.724585,26.943344 0,40.238286 v 44.57227 L 46.978506,128.99803 65.792994,51.458985 103.99219,102.20118 96.535104,0 Z M 117.8262,0 143.33008,33.214828 180.14838,0 Z M 217.90227,0 313.79878,61.152339 195.2129,18.392579 140.4805,96.499992 118.2441,49.749996 119.9551,163.20506 72.064402,85.097649 49.830084,163.77539 12.201184,118.16405 0,127.20313 v 80.64647 l 82.326197,-45.78516 25.085893,68.98631 74.68751,-155.646455 112.31637,104.333965 51.88089,-91.790999 41.6191,20.525409 18.81453,-96.921905 116.8769,66.134777 6.27148,-59.292963 72.40622,17.103496 L 622.46285,0 H 502.53709 l 7.38667,40.626935 -15.39258,-18.24412 -1.14059,16.533203 -45.6113,-26.794922 30.78709,7.412107 L 476.85739,4.1386582 499.09178,13.832012 499.35748,0 H 322.35949 L 362.83018,36.636699 294.41608,122.72655 220.8692,74.835929 288.713,91.939463 350.28721,40.056642 288.1446,22.382815 317.22081,21.242192 311.82039,0 Z M 634.85736,0 645.61518,112.4629 552.11326,54.880856 570.92767,130.13866 418.70309,81.675778 410.15228,172.32812 363.4004,136.9785 290.9941,228.19921 205.47458,155.79295 c 0,0 -63.25531,67.36747 -91.2031,94.20703 h 74.832 c -2.0516,-14.3913 -7.70498,-39.45902 -6.43359,-37.76368 1.71039,2.28053 39.33789,18.24416 39.33789,18.24416 l 2.85162,-21.09377 37.84569,40.61329 h 89.83589 c 4.58861,-27.93947 13.14059,-80.52344 13.14059,-80.52344 l 7.41211,37.62891 21.0938,-19.38475 -34.94728,62.27928 h 44.5059 l 37.19327,-62.27928 54.1621,41.61914 3.99031,-89.50976 c 0,0 47.89089,87.22953 49.03121,84.3789 1.14017,-2.85067 54.73247,-69.55468 54.73247,-69.55468 l 17.1035,64.99411 75.82813,-26.79685 -24.26763,57.14842 h 36.48053 V 112.04492 l -23.04492,54.01172 0.5703,-36.48828 -45.61142,43.89842 48.46103,-90.080085 -18.2442,1.710954 37.86921,-59.509757 V 0 Z m 73.14263,64.787111 -6.51171,35.703119 6.51171,-6.511712 z M 66.93358,195.7031 21.091804,249.99998 H 97.160086 C 88.170783,231.23334 66.93358,195.7031 66.93358,195.7031 Z m 515.96681,27.93555 -19.5391,26.36133 h 22.34377 z m -132.2696,3.42187 -31.50391,22.93946 h 53.43561 z m 205.81637,5.13086 -26.82607,17.8086 h 28.44529 z m -137.97067,2.84961 -6.21672,14.95899 h 17.72262 z"
         id="path17372" />
    </pattern>
    <pattern
       patternUnits="userSpaceOnUse"
       patternTransform="matrix(.26458334 0 0 .26458334 253.21913 717.17254)"
       height="249.99998"
       width="707.99999"
       id="pattern2268-6">
      <path
         id="path6176"
         fill="#00e760"
         d="m0 0v32.734374l13.640579-32.734374zm29.974601 0 13.584 16.111332l12.413971-16.111332zm45.615193 0 7.876989 28.083968-21.093808-15.392579-24.515602 51.880855-5.132788-37.6289-32.724585 13.294942v44.57227l46.978506 44.187474 18.814488-77.539045 38.199196 50.742195-7.457086-102.20118zm42.236406 0 25.50388 33.214828 36.8183-33.214828zm100.07607 0 95.89651 61.152339-118.58588-42.75976-54.7324 78.107413-22.2364-46.749996 1.711 113.455064-47.890698-78.107411-22.234318 78.677741-37.6289-45.61134-12.201184 9.03908v80.64647l82.326197-45.78516 25.085893 68.98631 74.68751-155.646455 112.31637 104.333965 51.88089-91.790999 41.6191 20.525409 18.81453-96.921905 116.8769 66.134777 6.27148-59.292963 72.40622 17.103496 20.17776-35.496075h-119.92576l7.38667 40.626935-15.39258-18.24412-1.14059 16.533203-45.6113-26.794922 30.78709 7.412107-1.70899-15.3945448 22.23439 9.6933538 0.2657-13.832012h-176.99799l40.47069 36.636699-68.4141 86.089851-73.54688-47.890621 67.8438 17.103534 61.57421-51.882821-62.14261-17.673827 29.07621-1.140623-5.40042-21.242192zm416.95509 0 10.75782 112.4629-93.50192-57.582044 18.81441 75.257804-152.22458-48.462882-8.55081 90.652342-46.75188-35.34962-72.4063 91.22071-85.51952-72.40626s-63.25531 67.36747-91.2031 94.20703h74.832c-2.0516-14.3913-7.70498-39.45902-6.43359-37.76368 1.71039 2.28053 39.33789 18.24416 39.33789 18.24416l2.85162-21.09377 37.84569 40.61329h89.83589c4.58861-27.93947 13.14059-80.52344 13.14059-80.52344l7.41211 37.62891 21.0938-19.38475-34.94728 62.27928h44.5059l37.19327-62.27928 54.1621 41.61914 3.99031-89.50976s47.89089 87.22953 49.03121 84.3789c1.14017-2.85067 54.73247-69.55468 54.73247-69.55468l17.1035 64.99411 75.82813-26.79685-24.26763 57.14842h36.48053v-137.95506l-23.04492 54.01172 0.5703-36.48828-45.61142 43.89842 48.46103-90.080085-18.2442 1.710954 37.86921-59.509757v-25.587892zm73.14263 64.787111-6.51171 35.703119 6.51171-6.511712zm-641.06641 130.915989-45.841776 54.29688h76.068282c-8.989303-18.76664-30.226506-54.29688-30.226506-54.29688zm515.96681 27.93555-19.5391 26.36133h22.34377zm-132.2696 3.42187-31.50391 22.93946h53.43561zm205.81637 5.13086-26.82607 17.8086h28.44529zm-137.97067 2.84961-6.21672 14.95899h17.72262z" />
    </pattern>
  </defs>
  <sodipodi:namedview
     pagecolor="#ffffff"
     bordercolor="#666666"
     borderopacity="1"
     objecttolerance="10"
     gridtolerance="10"
     guidetolerance="10"
     inkscape:pageopacity="0"
     inkscape:pageshadow="2"
     inkscape:window-width="1920"
     inkscape:window-height="1033"
     id="namedview1498"
     showgrid="false"
     inkscape:zoom="0.41760997"
     inkscape:cx="362.02973"
     inkscape:cy="100.78656"
     inkscape:window-x="0"
     inkscape:window-y="0"
     inkscape:window-maximized="0"
     inkscape:current-layer="svg1496"
     fit-margin-top="0"
     fit-margin-left="0"
     fit-margin-right="0"
     fit-margin-bottom="0" />
  <metadata
     id="metadata1370">
    <rdf:RDF>
      <cc:Work
         rdf:about="">
        <dc:format>image/svg+xml</dc:format>
        <dc:type
           rdf:resource="http://purl.org/dc/dcmitype/StillImage" />
        <dc:title />
      </cc:Work>
    </rdf:RDF>
  </metadata>
  <polygon
     style="fill:#f9eab0"
     transform="matrix(3.4969519,0,0,3.4969519,448.20655,354.34308)"
     points=""
     id="polygon11283" />
  <g
     id="g2948">
    <rect
       y="-3.9892579e-06"
       x="5.2070336e-05"
       height="218.28125"
       width="452.94128"
       id="rect4773"
       style="opacity:0;fill:#2196f3;fill-opacity:1;stroke:none;stroke-width:0.72782505;stroke-linecap:round;stroke-miterlimit:4;stroke-dasharray:none;stroke-opacity:1" />
    <path
       sodipodi:nodetypes="cccccc"
       inkscape:connector-curvature="0"
       id="path3025"
       d="M 111.13504,69.139281 21.686278,45.171562 27.945418,87.936211 1.1425083,121.84192 90.59127,145.80964 Z"
       style="opacity:1;fill:#ffffff;fill-opacity:1;stroke:#00c853;stroke-width:1.32291675;stroke-linecap:round;stroke-miterlimit:4;stroke-dasharray:none;stroke-opacity:1" />
    <path
       style="opacity:1;fill:#ffffff;fill-opacity:1;stroke:#00c853;stroke-width:1.32291675;stroke-linecap:round;stroke-miterlimit:4;stroke-dasharray:none;stroke-opacity:1"
       d="m 341.80635,69.139281 89.44876,-23.967719 -6.25914,42.764649 26.80291,33.905709 -89.44876,23.96772 z"
       id="path3027"
       inkscape:connector-curvature="0"
       sodipodi:nodetypes="cccccc" />
    <path
       style="opacity:1;fill:#00c853;fill-opacity:1;stroke:#00c853;stroke-width:1.32291675;stroke-linecap:round;stroke-miterlimit:4;stroke-dasharray:none;stroke-opacity:1"
       d="m 391.83528,79.140611 -50.02892,-10.00133 20.54376,76.670369 29.48516,12.70596 z"
       id="path3029"
       inkscape:connector-curvature="0" />
    <path
       inkscape:connector-curvature="0"
       id="path3031"
       d="m 391.83528,79.140611 -50.02892,-10.00133 20.54376,76.670369 29.48516,12.70596 z"
       style="opacity:1;fill:url(#pattern3063);fill-opacity:1;stroke:#00c853;stroke-width:1.32291675;stroke-linecap:round;stroke-miterlimit:4;stroke-dasharray:none;stroke-opacity:1" />
    <path
       inkscape:connector-curvature="0"
       id="path3033"
       d="M 61.10611,79.140611 111.13503,69.139281 90.59127,145.80965 61.10611,158.51561 Z"
       style="opacity:1;fill:#00c853;fill-opacity:1;stroke:#00c853;stroke-width:1.32291675;stroke-linecap:round;stroke-miterlimit:4;stroke-dasharray:none;stroke-opacity:1" />
    <path
       style="opacity:1;fill:url(#pattern3065);fill-opacity:1;stroke:#00c853;stroke-width:1.32291675;stroke-linecap:round;stroke-miterlimit:4;stroke-dasharray:none;stroke-opacity:1"
       d="M 61.10611,79.140611 111.13503,69.139281 90.59127,145.80965 61.10611,158.51561 Z"
       id="path3035"
       inkscape:connector-curvature="0" />
    <path
       style="opacity:1;fill:#ffffff;fill-opacity:1;stroke:#00c853;stroke-width:1.32291675;stroke-linecap:round;stroke-miterlimit:4;stroke-dasharray:none;stroke-opacity:1"
       d="m 61.10611,79.140611 c 0,0 94.17737,18.67002 165.36459,18.67002 71.18722,0 165.36458,-18.67002 165.36458,-18.67002 v 79.374999 c 0,0 -92.48624,18.67002 -165.36458,18.67002 -72.87834,0 -165.36459,-18.67002 -165.36459,-18.67002 z"
       id="path3037"
       inkscape:connector-curvature="0"
       sodipodi:nodetypes="czcczcc" />
    <g
       transform="translate(-60.855622,-709.07021)"
       id="text3041"
       style="font-style:normal;font-weight:normal;font-size:10.58333397px;line-height:1.25;font-family:sans-serif;letter-spacing:0px;word-spacing:0px;fill:#ffffff;fill-opacity:1;stroke:none;stroke-width:0.26458335"
       aria-label="Ejercicio">
      <path
         inkscape:connector-curvature="0"
         id="path5656"
         style="font-style:normal;font-variant:normal;font-weight:normal;font-stretch:normal;font-size:35.27777863px;font-family:'king cooL KC';-inkscape-font-specification:'king cooL KC, Normal';font-variant-ligatures:normal;font-variant-caps:normal;font-variant-numeric:normal;font-feature-settings:normal;text-align:start;writing-mode:lr-tb;text-anchor:start;fill:#ffffff;stroke-width:0.26458335"
         d="m 247.25634,901.02165 h 2.13596 q 2.41157,0 2.82498,0.89572 0.20671,0.25838 0.20671,0.62012 h 0.0689 q 0,0.89572 -2.34267,0.89572 -3.03168,0.17226 -3.03168,0.48232 -0.75792,3.03168 -0.75792,7.1658 0,1.10243 0.89572,1.10243 h 0.62012 l 2.61827,-0.0689 q 1.01631,0 1.72255,0.96463 v 0.20671 q 0,0.60289 -4.75423,1.44694 -1.10243,0.46508 -1.10243,0.75792 v 2.75607 l 0.0689,0.75793 -0.1378,0.41341 q 0.24115,0 0.41341,3.44509 0.25838,1.24024 1.24023,1.24024 l 4.27192,0.34451 q 0.46509,0.29283 0.96463,0.89572 -0.7407,1.03353 -2.75608,1.03353 l -0.0689,0.0689 q -5.09874,-0.1378 -5.09874,-0.82682 -0.34451,-0.1378 -0.55122,-0.89573 l 0.0689,-2.82497 v -0.34451 l -0.20671,-9.64627 v -3.03169 q 0,-6.66626 1.65365,-7.57921 0.39618,-0.2756 1.03352,-0.2756 z" />
      <path
         inkscape:connector-curvature="0"
         id="path5658"
         style="font-style:normal;font-variant:normal;font-weight:normal;font-stretch:normal;font-size:35.27777863px;font-family:'king cooL KC';-inkscape-font-specification:'king cooL KC, Normal';font-variant-ligatures:normal;font-variant-caps:normal;font-variant-numeric:normal;font-feature-settings:normal;text-align:start;writing-mode:lr-tb;text-anchor:start;fill:#ffffff;stroke-width:0.26458335"
         d="m 263.29326,899.02349 q 1.03353,0 1.03353,1.17133 l 0.0689,0.82683 q -0.43063,0 -0.49953,10.30083 -0.0517,10.30084 -1.49862,12.3679 -1.22301,2.75607 -2.96278,2.75607 h -0.27561 q -2.72163,0 -4.47862,-1.99815 l -0.55122,-2.20486 v -0.27561 q 0.55122,-1.72255 1.24023,-1.72255 h 0.20671 q 0.39619,0 0.75792,2.34266 0.49954,1.17134 2.48047,1.17134 h 0.68902 q 0.18948,-0.0344 0.75792,-1.17134 0.53399,-0.25838 0.96463,-1.79144 0.1378,0 0.1378,-0.20671 0.34451,-3.03168 0.44786,-12.05784 0.10336,-9.02615 0.86128,-9.02615 0.34451,-0.48231 0.62011,-0.48231 z" />
      <path
         inkscape:connector-curvature="0"
         id="path5660"
         style="font-style:normal;font-variant:normal;font-weight:normal;font-stretch:normal;font-size:35.27777863px;font-family:'king cooL KC';-inkscape-font-specification:'king cooL KC, Normal';font-variant-ligatures:normal;font-variant-caps:normal;font-variant-numeric:normal;font-feature-settings:normal;text-align:start;writing-mode:lr-tb;text-anchor:start;fill:#ffffff;stroke-width:0.26458335"
         d="m 269.97675,900.07425 q 1.51584,0 3.5829,1.65364 0.34451,0.62012 0.34451,1.24024 0,3.08336 -1.99816,4.27191 -2.29099,0.68902 -3.7896,0.68902 -0.34451,0.36174 -0.34451,1.10243 v 1.17134 q 0,3.73792 0.96462,8.40603 0,2.51492 1.92926,4.89204 0.60289,0.48231 0.89572,0.48231 h 0.48232 q 0.68902,-0.25838 1.72254,-0.89573 l 0.41342,-0.0689 q 0.49953,0 0.75792,0.82682 0,1.5503 -2.41157,3.10059 l -1.10243,0.20671 q -0.98185,0 -3.4451,-2.68718 -1.30913,-2.04983 -1.30913,-4.96094 -0.89573,-4.37527 -1.03353,-11.16211 0,-2.75607 1.92925,-6.89019 1.6192,-1.37803 2.41157,-1.37803 z m -1.58475,5.51215 0.34451,0.2067 q 2.17041,0 2.89388,-1.17133 0.20671,-0.36173 0.20671,-0.68902 v -0.27561 q 0,-1.03352 -1.30914,-1.03352 -1.8259,0 -2.13596,2.89388 z" />
      <path
         inkscape:connector-curvature="0"
         id="path5662"
         style="font-style:normal;font-variant:normal;font-weight:normal;font-stretch:normal;font-size:35.27777863px;font-family:'king cooL KC';-inkscape-font-specification:'king cooL KC, Normal';font-variant-ligatures:normal;font-variant-caps:normal;font-variant-numeric:normal;font-feature-settings:normal;text-align:start;writing-mode:lr-tb;text-anchor:start;fill:#ffffff;stroke-width:0.26458335"
         d="m 283.22314,904.50119 q 1.65365,0.56844 2.27376,1.79145 l 0.0689,0.34451 q -0.24116,1.30914 -1.10243,1.30914 -0.51677,0 -1.79145,-1.17133 h -0.55122 q -1.56752,0 -3.04891,1.60197 -1.48139,1.60197 -0.43064,9.74962 1.06798,8.14765 -0.15503,7.5103 l -1.24023,0.0345 q -0.67179,-0.32729 -0.82682,-8.21656 -0.13781,-7.90649 -0.46509,-12.23009 0,-1.10243 1.44694,-1.10243 0.89572,0 0.89572,0.82683 l -0.0689,1.03352 q 0.13781,0.31006 0.27561,0.34451 h 0.27561 q 1.58474,-1.8259 4.44417,-1.8259 z" />
      <path
         inkscape:connector-curvature="0"
         id="path5664"
         style="font-style:normal;font-variant:normal;font-weight:normal;font-stretch:normal;font-size:35.27777863px;font-family:'king cooL KC';-inkscape-font-specification:'king cooL KC, Normal';font-variant-ligatures:normal;font-variant-caps:normal;font-variant-numeric:normal;font-feature-settings:normal;text-align:start;writing-mode:lr-tb;text-anchor:start;fill:#ffffff;stroke-width:0.26458335"
         d="m 294.09242,900.26373 q 3.16949,0 3.16949,1.58474 v 0.0689 q 0,0.68902 -1.10243,0.96463 l -2.68718,-0.13781 q -1.27468,0 -1.99815,1.72255 -0.72347,0.43064 -1.86036,4.20302 -0.68902,2.56659 -0.68902,4.75423 v 0.55122 q 0,1.99815 1.10244,6.20117 0,1.61919 2.48046,3.5829 0.63735,0.34451 1.03353,0.34451 h 0.55122 q 0.36173,0 1.37804,-0.62012 l 0.34451,-0.0689 q 0.89572,0.34451 0.89572,1.30913 v 0.0689 q -0.72347,1.92925 -3.514,1.92925 -0.96462,0 -3.44509,-2.06706 -0.89573,-0.96462 -1.10243,-1.86035 -1.92926,-5.80499 -1.92926,-8.81944 0,-4.30637 1.79145,-9.30176 1.25746,-2.46325 2.48047,-3.514 1.37804,-0.89572 3.10059,-0.89572 z" />
      <path
         inkscape:connector-curvature="0"
         id="path5666"
         style="font-style:normal;font-variant:normal;font-weight:normal;font-stretch:normal;font-size:35.27777863px;font-family:'king cooL KC';-inkscape-font-specification:'king cooL KC, Normal';font-variant-ligatures:normal;font-variant-caps:normal;font-variant-numeric:normal;font-feature-settings:normal;text-align:start;writing-mode:lr-tb;text-anchor:start;fill:#ffffff;stroke-width:0.26458335"
         d="m 300.06966,899.52303 q 0.75792,0 1.17133,1.37804 -0.34451,1.24023 -1.37804,1.24023 h -0.2067 q -0.75792,0 -0.96463,-1.17133 0,-0.89572 1.30914,-1.44694 z m 0.24116,5.09874 q 0.75792,0 0.75792,3.16949 l 0.0689,3.37619 q -0.17226,14.64166 -0.48231,14.64166 -0.75792,0.82682 -1.37804,0.82682 -0.75792,0 -1.03353,-1.92925 l 0.0689,-0.0689 v -0.0689 l 0.68902,-6.27007 0.1378,-6.75239 -0.2067,-5.13319 q 0.24115,-1.79145 1.37804,-1.79145 z" />
      <path
         inkscape:connector-curvature="0"
         id="path5668"
         style="font-style:normal;font-variant:normal;font-weight:normal;font-stretch:normal;font-size:35.27777863px;font-family:'king cooL KC';-inkscape-font-specification:'king cooL KC, Normal';font-variant-ligatures:normal;font-variant-caps:normal;font-variant-numeric:normal;font-feature-settings:normal;text-align:start;writing-mode:lr-tb;text-anchor:start;fill:#ffffff;stroke-width:0.26458335"
         d="m 310.14656,900.26373 q 3.16949,0 3.16949,1.58474 v 0.0689 q 0,0.68902 -1.10243,0.96463 l -2.68717,-0.13781 q -1.27469,0 -1.99816,1.72255 -0.72347,0.43064 -1.86035,4.20302 -0.68902,2.56659 -0.68902,4.75423 v 0.55122 q 0,1.99815 1.10243,6.20117 0,1.61919 2.48047,3.5829 0.63734,0.34451 1.03353,0.34451 h 0.55121 q 0.36174,0 1.37804,-0.62012 l 0.34451,-0.0689 q 0.89573,0.34451 0.89573,1.30913 v 0.0689 q -0.72347,1.92925 -3.514,1.92925 -0.96463,0 -3.4451,-2.06706 -0.89572,-0.96462 -1.10243,-1.86035 -1.92925,-5.80499 -1.92925,-8.81944 0,-4.30637 1.79145,-9.30176 1.25746,-2.46325 2.48047,-3.514 1.37804,-0.89572 3.10058,-0.89572 z" />
      <path
         inkscape:connector-curvature="0"
         id="path5670"
         style="font-style:normal;font-variant:normal;font-weight:normal;font-stretch:normal;font-size:35.27777863px;font-family:'king cooL KC';-inkscape-font-specification:'king cooL KC, Normal';font-variant-ligatures:normal;font-variant-caps:normal;font-variant-numeric:normal;font-feature-settings:normal;text-align:start;writing-mode:lr-tb;text-anchor:start;fill:#ffffff;stroke-width:0.26458335"
         d="m 316.12381,899.52303 q 0.75792,0 1.17133,1.37804 -0.34451,1.24023 -1.37804,1.24023 h -0.20671 q -0.75792,0 -0.96462,-1.17133 0,-0.89572 1.30913,-1.44694 z m 0.24115,5.09874 q 0.75792,0 0.75792,3.16949 l 0.0689,3.37619 q -0.17226,14.64166 -0.48232,14.64166 -0.75792,0.82682 -1.37804,0.82682 -0.75792,0 -1.03353,-1.92925 l 0.0689,-0.0689 v -0.0689 l 0.68902,-6.27007 0.1378,-6.75239 -0.20671,-5.13319 q 0.24116,-1.79145 1.37804,-1.79145 z" />
      <path
         inkscape:connector-curvature="0"
         id="path5672"
         style="font-style:normal;font-variant:normal;font-weight:normal;font-stretch:normal;font-size:35.27777863px;font-family:'king cooL KC';-inkscape-font-specification:'king cooL KC, Normal';font-variant-ligatures:normal;font-variant-caps:normal;font-variant-numeric:normal;font-feature-settings:normal;text-align:start;writing-mode:lr-tb;text-anchor:start;fill:#ffffff;stroke-width:0.26458335"
         d="m 325.44278,904.01888 q 2.89389,0.56844 2.89389,1.92925 3.01445,4.49585 0.82682,14.81391 -1.37804,3.60013 -2.48047,4.61643 -1.53307,1.92926 -3.03168,1.92926 -2.32544,0 -3.5829,-3.03169 l -1.17134,-5.78776 v -1.03353 q 0,-3.47954 1.17134,-8.47493 0.18948,-0.27561 0.34451,-1.24024 1.61919,-3.5829 3.10058,-3.5829 z m -1.30913,2.54937 h -0.13781 q -0.80959,0 -1.10243,1.30914 -1.44694,2.65272 -1.44694,5.51215 -0.2067,0.51676 -0.2067,1.79145 v 2.34266 q 0,3.04891 1.10243,6.27008 0.51676,1.03353 1.03353,1.03353 0.82682,0 2.34266,-1.99816 0.44786,0 1.44694,-2.13596 0.41341,-1.49861 0.82683,-5.71886 0,-4.15134 -1.10244,-6.68348 -0.55121,-1.49862 -0.89572,-1.79145 z" />
    </g>
    <path
       sodipodi:type="star"
       style="opacity:1;fill:#00c853;fill-opacity:1;stroke:none;stroke-width:2.64583349;stroke-linecap:round;stroke-miterlimit:4;stroke-dasharray:none;stroke-opacity:1"
       id="path3043"
       sodipodi:sides="5"
       sodipodi:cx="283.74884"
       sodipodi:cy="204.58562"
       sodipodi:r1="11.001414"
       sodipodi:r2="5.5007071"
       sodipodi:arg1="0.78539816"
       sodipodi:arg2="1.4137167"
       inkscape:flatsided="false"
       inkscape:rounded="0.25"
       inkscape:randomized="0"
       d="m 291.52802,212.36479 c -1.29148,1.29147 -5.11475,-2.6319 -6.91868,-2.34619 -1.80393,0.28572 -4.22769,5.19852 -5.85504,4.36935 -1.62734,-0.82918 0.92255,-5.67772 0.0934,-7.30506 -0.82917,-1.62735 -6.25051,-2.41434 -5.9648,-4.21827 0.28572,-1.80393 5.68491,-0.87712 6.97638,-2.16859 1.29147,-1.29147 0.36466,-6.69067 2.16859,-6.97638 1.80393,-0.28572 2.59092,5.13563 4.21827,5.9648 1.62735,0.82918 6.47589,-1.72072 7.30506,-0.0934 0.82918,1.62735 -4.08363,4.05111 -4.36935,5.85504 -0.28571,1.80393 3.63767,5.6272 2.3462,6.91867 z"
       inkscape:transform-center-x="0.49018919"
       inkscape:transform-center-y="-0.49018817" />
    <path
       inkscape:transform-center-y="-0.49018817"
       inkscape:transform-center-x="-0.49019707"
       d="m -161.41336,212.36479 c -1.29147,1.29147 -5.11475,-2.6319 -6.91868,-2.34619 -1.80392,0.28572 -4.22769,5.19852 -5.85503,4.36935 -1.62735,-0.82918 0.92254,-5.67772 0.0934,-7.30506 -0.82918,-1.62735 -6.25052,-2.41434 -5.9648,-4.21827 0.28571,-1.80393 5.68491,-0.87712 6.97638,-2.16859 1.29147,-1.29147 0.36466,-6.69067 2.16858,-6.97638 1.80393,-0.28572 2.59093,5.13563 4.21827,5.9648 1.62735,0.82918 6.47589,-1.72072 7.30507,-0.0934 0.82917,1.62735 -4.08364,4.05111 -4.36935,5.85504 -0.28572,1.80393 3.63766,5.6272 2.34619,6.91867 z"
       inkscape:randomized="0"
       inkscape:rounded="0.25"
       inkscape:flatsided="false"
       sodipodi:arg2="1.4137167"
       sodipodi:arg1="0.78539816"
       sodipodi:r2="5.5007071"
       sodipodi:r1="11.001414"
       sodipodi:cy="204.58562"
       sodipodi:cx="-169.19254"
       sodipodi:sides="5"
       id="path3045"
       style="opacity:1;fill:#00c853;fill-opacity:1;stroke:none;stroke-width:2.64583349;stroke-linecap:round;stroke-miterlimit:4;stroke-dasharray:none;stroke-opacity:1"
       sodipodi:type="star"
       transform="scale(-1,1)" />
    <g
       id="g2837">
      <g
         id="text20771"
         style="font-style:normal;font-variant:normal;font-weight:normal;font-stretch:normal;font-size:29.98611259px;line-height:1.25;font-family:'SC Gum Kids';-inkscape-font-specification:'SC Gum Kids, Normal';font-variant-ligatures:normal;font-variant-caps:normal;font-variant-numeric:normal;font-feature-settings:normal;text-align:start;letter-spacing:0px;word-spacing:0px;writing-mode:lr-tb;text-anchor:start;fill:#00c853;fill-opacity:1;stroke:none;stroke-width:0.26458335"
         transform="rotate(-3.4747913,-12162.04,669.88951)"
         aria-label="¿Quién tiene más,">
        <path
           inkscape:connector-curvature="0"
           id="path5675"
           style="font-style:normal;font-variant:normal;font-weight:normal;font-stretch:normal;font-size:29.98611259px;font-family:'SC Gum Kids';-inkscape-font-specification:'SC Gum Kids, Normal';font-variant-ligatures:normal;font-variant-caps:normal;font-variant-numeric:normal;font-feature-settings:normal;text-align:start;writing-mode:lr-tb;text-anchor:start;fill:#00c853;fill-opacity:1;stroke-width:0.26458335"
           d="m 135.59096,864.95555 q -1.60958,0.23241 -3.2585,0.0965 -3.2804,-0.283 -3.4167,-2.12635 -0.0827,-0.99231 0.63564,-1.80938 0.43984,-0.50329 1.6695,-1.3284 1.30252,-0.88411 1.82327,-1.41467 0.88951,-0.91451 1.08754,-2.02526 l -4.01925,-0.87928 q -0.11444,0.45458 -0.53014,1.05308 -0.82828,1.1827 -2.28724,1.82276 -1.65876,0.73123 -2.94119,2.89371 -1.3678,2.2787 -1.10993,4.38846 0.31151,2.4812 2.90085,3.66217 3.11098,1.4 9.08312,0.68314 z m -4.21084,-10.82821 q 1.43078,0.92751 2.61708,0.43764 1.01823,-0.40674 1.5144,-1.64711 0.45505,-1.18941 0.11,-2.28408 -0.37232,-1.17557 -1.5595,-1.43528 -1.20149,-0.26285 -2.3118,0.15372 -1.0294,0.38931 -1.56982,1.21532 -0.55785,0.83719 -0.29593,1.76379 0.27175,1.01868 1.49557,1.796 z" />
        <path
           inkscape:connector-curvature="0"
           id="path5677"
           style="font-style:normal;font-variant:normal;font-weight:normal;font-stretch:normal;font-size:29.98611259px;font-family:'SC Gum Kids';-inkscape-font-specification:'SC Gum Kids, Normal';font-variant-ligatures:normal;font-variant-caps:normal;font-variant-numeric:normal;font-feature-settings:normal;text-align:start;writing-mode:lr-tb;text-anchor:start;fill:#00c853;fill-opacity:1;stroke-width:0.26458335"
           d="m 146.45545,867.02727 q -2.35321,-0.56231 -3.30362,-2.20867 -0.85224,-1.4499 -0.39481,-3.22691 0.46134,-1.71678 1.83662,-2.73142 1.50888,-1.09449 3.36187,-0.72741 2.16466,0.45358 3.28531,2.1458 1.0002,1.53636 0.7536,3.38152 -0.24659,1.84516 -1.63366,2.84278 -1.55472,1.10103 -3.90531,0.52431 z m 8.18186,2.14423 q 1.77362,-2.0583 2.25874,-4.72321 0.73685,-4.04778 -1.60791,-7.43619 -2.34475,-3.38841 -6.39254,-4.12526 -4.04778,-0.73685 -7.43619,1.6079 -3.3884,2.34476 -4.12526,6.39254 -0.73685,4.04779 1.60791,7.4362 2.34475,3.3884 6.39254,4.12525 2.14633,0.39072 5.04861,-0.67336 l 2.17182,3.68434 4.24236,-2.7846 z" />
        <path
           inkscape:connector-curvature="0"
           id="path5679"
           style="font-style:normal;font-variant:normal;font-weight:normal;font-stretch:normal;font-size:29.98611259px;font-family:'SC Gum Kids';-inkscape-font-specification:'SC Gum Kids, Normal';font-variant-ligatures:normal;font-variant-caps:normal;font-variant-numeric:normal;font-feature-settings:normal;text-align:start;writing-mode:lr-tb;text-anchor:start;fill:#00c853;fill-opacity:1;stroke-width:0.26458335"
           d="m 165.81639,862.04862 q 0.0426,2.12508 -0.23874,4.14095 -0.56487,4.0462 -1.91163,3.55698 -1.34676,-0.48921 -1.0225,-4.12809 0.17548,-1.80997 0.69718,-3.65542 l -5.10686,-1.08403 q -1.16125,3.30236 -1.12143,6.78998 0.0507,6.97079 5.99806,7.88817 5.94739,0.91738 7.70675,-6.0705 0.86298,-3.4817 0.55608,-7.15867 z" />
        <path
           inkscape:connector-curvature="0"
           id="path5681"
           style="font-style:normal;font-variant:normal;font-weight:normal;font-stretch:normal;font-size:29.98611259px;font-family:'SC Gum Kids';-inkscape-font-specification:'SC Gum Kids, Normal';font-variant-ligatures:normal;font-variant-caps:normal;font-variant-numeric:normal;font-feature-settings:normal;text-align:start;writing-mode:lr-tb;text-anchor:start;fill:#00c853;fill-opacity:1;stroke-width:0.26458335"
           d="m 175.4506,861.71058 q 1.45619,0.15885 2.34211,-0.57497 0.81781,-0.66941 0.91157,-1.76509 0.0917,-1.08118 -0.55508,-1.95496 -0.6947,-0.95439 -1.99576,-1.1655 -1.16852,-0.20741 -2.073,0.55339 -0.82185,0.69841 -1.05016,1.80488 -0.21787,1.1375 0.34396,1.98464 0.64918,0.96281 2.07636,1.11761 z m 2.07467,1.23565 -4.58439,-0.62493 -2.04914,14.26105 4.69669,0.77365 z" />
        <path
           inkscape:connector-curvature="0"
           id="path5683"
           style="font-style:normal;font-variant:normal;font-weight:normal;font-stretch:normal;font-size:29.98611259px;font-family:'SC Gum Kids';-inkscape-font-specification:'SC Gum Kids, Normal';font-variant-ligatures:normal;font-variant-caps:normal;font-variant-numeric:normal;font-feature-settings:normal;text-align:start;writing-mode:lr-tb;text-anchor:start;fill:#00c853;fill-opacity:1;stroke-width:0.26458335"
           d="m 185.8997,867.34431 q 1.30756,-0.073 1.80897,0.63882 0.24889,0.37041 0.23264,0.73727 l -3.96997,-0.11163 q -0.0237,-0.2833 0.19236,-0.59572 0.44298,-0.59396 1.736,-0.66874 z m -1.35875,6.04241 q -0.70295,-0.51559 -0.88656,-1.29101 -0.1,-0.38135 -0.0492,-0.67012 l 9.89398,0.0539 q -0.0895,-2.0031 -1.19596,-4.01504 -2.24021,-4.04203 -7.41425,-4.20058 -2.95477,-0.0883 -4.91385,1.77733 -1.77208,1.66759 -2.25631,4.3664 -0.48789,2.60981 0.43162,4.9378 0.98674,2.49867 3.18989,3.52603 3.81783,1.80424 7.7293,0.37403 1.963,-0.7142 3.14319,-1.7769 l -2.71774,-3.64419 q -0.75536,0.49597 -1.75413,0.81403 -1.98481,0.65246 -3.19998,-0.25165 z m 3.37936,-16.20747 -5.21654,4.20368 1.16085,1.57606 5.91789,-2.84724 z" />
        <path
           inkscape:connector-curvature="0"
           id="path5685"
           style="font-style:normal;font-variant:normal;font-weight:normal;font-stretch:normal;font-size:29.98611259px;font-family:'SC Gum Kids';-inkscape-font-specification:'SC Gum Kids, Normal';font-variant-ligatures:normal;font-variant-caps:normal;font-variant-numeric:normal;font-feature-settings:normal;text-align:start;writing-mode:lr-tb;text-anchor:start;fill:#00c853;fill-opacity:1;stroke-width:0.26458335"
           d="m 203.92366,865.08697 q -2.67981,-0.55914 -4.68899,0.49736 l 0.13238,-0.98723 -4.55902,-0.60789 -1.99954,15.64606 5.47558,0.57098 0.64682,-5.49711 q 0.30573,-4.76718 2.71921,-4.61856 1.78424,0.11245 1.54462,5.09262 -0.0988,2.35978 -0.72259,4.81203 l 5.68035,0.72482 q 0.80802,-3.65489 0.67341,-7.30502 -0.0952,-3.32217 -1.0889,-5.36896 -1.2494,-2.55926 -3.81333,-2.9591 z" />
        <path
           inkscape:connector-curvature="0"
           id="path5687"
           style="font-style:normal;font-variant:normal;font-weight:normal;font-stretch:normal;font-size:29.98611259px;font-family:'SC Gum Kids';-inkscape-font-specification:'SC Gum Kids, Normal';font-variant-ligatures:normal;font-variant-caps:normal;font-variant-numeric:normal;font-feature-settings:normal;text-align:start;writing-mode:lr-tb;text-anchor:start;fill:#00c853;fill-opacity:1;stroke-width:0.26458335"
           d="m 222.45569,861.80325 -0.50985,4.70397 -3.91003,-0.52201 -0.62439,4.66577 4.01448,0.5007 -1.04595,11.08002 4.94313,0.64579 1.00666,-11.1418 3.80789,0.32323 0.46606,-4.70736 -3.78992,-0.36589 0.45254,-4.53217 z" />
        <path
           inkscape:connector-curvature="0"
           id="path5689"
           style="font-style:normal;font-variant:normal;font-weight:normal;font-stretch:normal;font-size:29.98611259px;font-family:'SC Gum Kids';-inkscape-font-specification:'SC Gum Kids, Normal';font-variant-ligatures:normal;font-variant-caps:normal;font-variant-numeric:normal;font-feature-settings:normal;text-align:start;writing-mode:lr-tb;text-anchor:start;fill:#00c853;fill-opacity:1;stroke-width:0.26458335"
           d="m 233.80756,867.6445 q 1.46391,0.0516 2.29364,-0.74518 0.76651,-0.72758 0.77966,-1.82719 0.0122,-1.08499 -0.69694,-1.90899 -0.76282,-0.90087 -2.07586,-1.01601 -1.18058,-0.12116 -2.02683,0.70392 -0.76842,0.7568 -0.91498,1.87704 -0.13386,1.15041 0.48858,1.95407 0.71803,0.91261 2.15273,0.96234 z m 2.15969,1.08018 -4.61787,-0.28706 -0.99782,14.37291 4.74078,0.42715 z" />
        <path
           inkscape:connector-curvature="0"
           id="path5691"
           style="font-style:normal;font-variant:normal;font-weight:normal;font-stretch:normal;font-size:29.98611259px;font-family:'SC Gum Kids';-inkscape-font-specification:'SC Gum Kids, Normal';font-variant-ligatures:normal;font-variant-caps:normal;font-variant-numeric:normal;font-feature-settings:normal;text-align:start;writing-mode:lr-tb;text-anchor:start;fill:#00c853;fill-opacity:1;stroke-width:0.26458335"
           d="m 244.65501,872.50524 q 1.29889,-0.16704 1.85031,0.50673 0.27495,0.35151 0.28519,0.71858 l -3.96768,0.17489 q -0.044,-0.28086 0.14891,-0.60804 0.399,-0.62435 1.68327,-0.79216 z m -0.91959,6.12465 q -0.73829,-0.46357 -0.97733,-1.22373 -0.12721,-0.37315 -0.0974,-0.66483 l 9.87212,-0.65959 q -0.23366,-1.99144 -1.48232,-3.91837 -2.5258,-3.87001 -7.6978,-3.65511 -2.95344,0.125 -4.77293,2.12697 -1.64724,1.79101 -1.93564,4.51771 -0.29845,2.6382 0.7865,4.89383 1.16431,2.42103 3.4358,3.28688 3.93797,1.52429 7.73616,-0.1842 1.9064,-0.85386 3.0069,-1.99888 l -2.9734,-3.43877 q -0.71765,0.54914 -1.69088,0.93838 -1.9326,0.79385 -3.2098,-0.0203 z" />
        <path
           inkscape:connector-curvature="0"
           id="path5693"
           style="font-style:normal;font-variant:normal;font-weight:normal;font-stretch:normal;font-size:29.98611259px;font-family:'SC Gum Kids';-inkscape-font-specification:'SC Gum Kids, Normal';font-variant-ligatures:normal;font-variant-caps:normal;font-variant-numeric:normal;font-feature-settings:normal;text-align:start;writing-mode:lr-tb;text-anchor:start;fill:#00c853;fill-opacity:1;stroke-width:0.26458335"
           d="m 262.48927,868.96705 q -2.71275,-0.36736 -4.64181,0.82919 l 0.0619,-0.99414 -4.59068,-0.28249 -0.88306,15.74857 5.5023,0.18057 0.2547,-5.52917 q -0.0337,-4.77685 2.38425,-4.80005 1.78772,-0.0146 1.90248,4.97003 0.069,2.36084 -0.37894,4.85121 l 5.71748,0.31948 q 0.54636,-3.70306 0.1528,-7.33441 -0.33096,-3.307 -1.46754,-5.27804 -1.42804,-2.46404 -4.0139,-2.68075 z" />
        <path
           inkscape:connector-curvature="0"
           id="path5695"
           style="font-style:normal;font-variant:normal;font-weight:normal;font-stretch:normal;font-size:29.98611259px;font-family:'SC Gum Kids';-inkscape-font-specification:'SC Gum Kids, Normal';font-variant-ligatures:normal;font-variant-caps:normal;font-variant-numeric:normal;font-feature-settings:normal;text-align:start;writing-mode:lr-tb;text-anchor:start;fill:#00c853;fill-opacity:1;stroke-width:0.26458335"
           d="m 276.71515,873.55818 q 1.29154,-0.21672 1.86839,0.43542 0.28822,0.34071 0.31252,0.70712 l -3.95806,0.32687 q -0.0548,-0.27897 0.12549,-0.6133 0.37477,-0.6392 1.65166,-0.85611 z m -0.68411,6.1554 q -0.75551,-0.43493 -1.02352,-1.18537 -0.14143,-0.368 -0.1228,-0.6606 l 9.83958,-1.03758 q -0.30984,-1.98102 -1.63145,-3.85866 -2.67231,-3.77033 -7.83227,-3.35731 -2.94648,0.23813 -4.68788,2.30839 -1.57737,1.85284 -1.76102,4.58859 -0.19709,2.6477 0.97353,4.86008 1.25628,2.37462 3.55929,3.15274 3.99352,1.37221 7.72341,-0.48064 1.87226,-0.92632 2.92806,-2.11268 l -3.10305,-3.32226 q -0.69606,0.57625 -1.65366,1.00252 -1.90075,0.86736 -3.20822,0.10278 z" />
        <path
           inkscape:connector-curvature="0"
           id="path5697"
           style="font-style:normal;font-variant:normal;font-weight:normal;font-stretch:normal;font-size:29.98611259px;font-family:'SC Gum Kids';-inkscape-font-specification:'SC Gum Kids, Normal';font-variant-ligatures:normal;font-variant-caps:normal;font-variant-numeric:normal;font-feature-settings:normal;text-align:start;writing-mode:lr-tb;text-anchor:start;fill:#00c853;fill-opacity:1;stroke-width:0.26458335"
           d="m 310.45927,869.27257 q -3.13359,0.0158 -4.65365,2.4757 -0.86704,1.37845 -1.05426,3.08075 0.11933,-1.42277 -0.53386,-2.65509 -0.61277,-2.18497 -2.7173,-2.73064 -1.70733,-0.45072 -3.82104,1.59583 l -0.004,-1.75724 -5.44627,0.0745 0.45924,15.64602 5.34045,-0.24821 0.13701,-4.33733 q 0.47217,-5.19309 2.05485,-5.13538 1.68488,0.0411 1.61145,4.64083 -0.0294,2.29971 -0.39549,4.60585 l 5.44598,-0.0891 q 0.0852,-2.44722 0.45043,-4.79727 0.30793,-4.58954 1.72081,-4.22107 1.42723,0.35356 1.43745,4.73201 -0.14679,2.28731 -0.57367,4.47745 l 5.08935,-0.36058 q 0.51414,-3.75874 0.25242,-7.5027 -0.23815,-3.27579 -1.16712,-5.1472 -1.15776,-2.35032 -3.63258,-2.34709 z" />
        <path
           inkscape:connector-curvature="0"
           id="path5699"
           style="font-style:normal;font-variant:normal;font-weight:normal;font-stretch:normal;font-size:29.98611259px;font-family:'SC Gum Kids';-inkscape-font-specification:'SC Gum Kids, Normal';font-variant-ligatures:normal;font-variant-caps:normal;font-variant-numeric:normal;font-feature-settings:normal;text-align:start;writing-mode:lr-tb;text-anchor:start;fill:#00c853;fill-opacity:1;stroke-width:0.26458335"
           d="m 321.94355,880.39733 q -0.50052,-0.0516 -0.83185,-0.25702 -0.3167,-0.20609 -0.35675,-0.4535 -0.026,-0.26267 0.26016,-0.42164 0.32946,-0.1755 0.97499,-0.15954 0.45537,0.0242 0.72819,0.23221 0.24357,0.20926 0.24036,0.4732 -0.003,0.27856 -0.25952,0.43626 -0.27032,0.1876 -0.75558,0.15003 z m 3.57908,-10.39942 q -3.8617,-0.50662 -6.57998,0.007 -1.36614,0.26445 -1.95129,0.62691 l 1.03309,4.21991 q 1.61865,-0.52455 3.43442,-0.55935 3.63152,-0.0696 4.59036,2.43882 -1.41056,-0.7595 -3.19894,-1.10692 -3.60601,-0.69358 -5.56761,1.38466 -1.16271,1.23754 -1.39054,2.74228 -0.22846,1.49011 0.52635,2.67376 0.80251,1.26952 2.43633,1.7702 1.82652,0.55094 4.33874,0.0169 2.04667,-0.45518 3.2037,-2.16144 l -0.17252,1.76614 4.98811,-0.21641 q 0.75903,-3.11057 0.42735,-6.36434 -0.28466,-2.84546 -1.54884,-4.62254 -1.56179,-2.21849 -4.56873,-2.61563 z m -0.4006,-7.54482 -4.44288,5.01438 1.40732,1.36052 5.36051,-3.79383 z" />
        <path
           inkscape:connector-curvature="0"
           id="path5701"
           style="font-style:normal;font-variant:normal;font-weight:normal;font-stretch:normal;font-size:29.98611259px;font-family:'SC Gum Kids';-inkscape-font-specification:'SC Gum Kids, Normal';font-variant-ligatures:normal;font-variant-caps:normal;font-variant-numeric:normal;font-feature-settings:normal;text-align:start;writing-mode:lr-tb;text-anchor:start;fill:#00c853;fill-opacity:1;stroke-width:0.26458335"
           d="m 334.26575,877.33296 q 1.38114,0.49995 2.47636,0.88585 3.04462,1.29022 3.59604,0.72739 0.18528,-0.31973 0.0254,-0.52973 -0.15991,-0.21 -1.49262,-0.63965 -1.31901,-0.44517 -3.01796,-0.86645 -1.69895,-0.42128 -2.37436,-1.59645 -0.64343,-1.13318 -0.24301,-2.46405 0.43782,-1.43591 1.87685,-2.34798 1.66549,-1.04368 4.21822,-1.04287 2.15635,-0.004 4.34313,0.70975 1.04321,0.49186 1.64711,0.99669 l -1.65922,3.00914 q -0.88247,-0.50197 -1.70179,-0.69984 -2.69097,-0.799 -2.77276,0.23309 0.003,0.27856 0.50438,0.5551 0.51522,0.261 2.1502,0.59828 1.64867,0.32175 2.68728,0.74055 1.552,0.65058 1.97642,2.26699 0.44088,1.64472 -0.82243,3.48465 -1.32635,1.77054 -4.84711,2.00667 -3.06685,0.22224 -8.40052,-1.77489 z" />
        <path
           inkscape:connector-curvature="0"
           id="path5703"
           style="font-style:normal;font-variant:normal;font-weight:normal;font-stretch:normal;font-size:29.98611259px;font-family:'SC Gum Kids';-inkscape-font-specification:'SC Gum Kids, Normal';font-variant-ligatures:normal;font-variant-caps:normal;font-variant-numeric:normal;font-feature-settings:normal;text-align:start;writing-mode:lr-tb;text-anchor:start;fill:#00c853;fill-opacity:1;stroke-width:0.26458335"
           d="m 347.78563,879.2424 -0.40001,4.27314 2.52691,0.41309 0.845,-4.40919 z" />
      </g>
      <g
         id="text20775"
         style="font-style:normal;font-variant:normal;font-weight:normal;font-stretch:normal;font-size:29.98611259px;line-height:1.25;font-family:'SC Gum Kids';-inkscape-font-specification:'SC Gum Kids, Normal';font-variant-ligatures:normal;font-variant-caps:normal;font-variant-numeric:normal;font-feature-settings:normal;text-align:start;letter-spacing:0px;word-spacing:0px;writing-mode:lr-tb;text-anchor:start;fill:#00c853;fill-opacity:1;stroke:none;stroke-width:0.26458335"
         transform="rotate(-2.7949574,-14542.607,950.35608)"
         aria-label="quién tiene menos?">
        <path
           inkscape:connector-curvature="0"
           id="path5706"
           style="font-style:normal;font-variant:normal;font-weight:normal;font-stretch:normal;font-size:29.98611259px;font-family:'SC Gum Kids';-inkscape-font-specification:'SC Gum Kids, Normal';font-variant-ligatures:normal;font-variant-caps:normal;font-variant-numeric:normal;font-feature-settings:normal;text-align:start;writing-mode:lr-tb;text-anchor:start;fill:#00c853;fill-opacity:1;stroke-width:0.26458335"
           d="m 131.20064,863.74951 q -0.94189,-0.21654 -1.25186,-0.6572 -0.27315,-0.40284 0.005,-0.79253 0.27805,-0.38969 0.88545,-0.49928 0.67081,-0.12597 1.37855,0.20517 0.40501,0.20645 0.68429,0.58065 0.27621,0.38852 0.23438,0.72395 -0.051,0.37839 -0.49788,0.50736 -0.49593,0.14841 -1.43782,-0.0681 z m 1.47646,-8.15885 q -3.32165,-0.71083 -5.88898,1.00071 -2.35261,1.54787 -3.09019,4.29483 -0.75802,2.77252 0.61598,5.02804 1.55099,2.54793 5.23465,3.24639 2.60066,0.51162 4.58944,-0.24567 l -1.34294,6.55535 4.92522,1.05399 4.06581,-18.99931 -5.09095,-1.32902 -0.33191,1.62094 q -1.43828,-1.74522 -3.68613,-2.22625 z" />
        <path
           inkscape:connector-curvature="0"
           id="path5708"
           style="font-style:normal;font-variant:normal;font-weight:normal;font-stretch:normal;font-size:29.98611259px;font-family:'SC Gum Kids';-inkscape-font-specification:'SC Gum Kids, Normal';font-variant-ligatures:normal;font-variant-caps:normal;font-variant-numeric:normal;font-feature-settings:normal;text-align:start;writing-mode:lr-tb;text-anchor:start;fill:#00c853;fill-opacity:1;stroke-width:0.26458335"
           d="m 149.61132,859.36898 q -0.0109,2.12549 -0.34282,4.13364 -0.66647,4.03071 -2.00049,3.50777 -1.33403,-0.52294 -0.91835,-4.1525 0.22096,-1.80498 0.78891,-3.63673 l -5.07798,-1.21214 q -1.24394,3.27211 -1.29187,6.75963 -0.12466,6.96985 5.79776,8.03654 5.92243,1.06668 7.857,-5.87473 0.95028,-3.45889 0.73596,-7.14242 z" />
        <path
           inkscape:connector-curvature="0"
           id="path5710"
           style="font-style:normal;font-variant:normal;font-weight:normal;font-stretch:normal;font-size:29.98611259px;font-family:'SC Gum Kids';-inkscape-font-specification:'SC Gum Kids, Normal';font-variant-ligatures:normal;font-variant-caps:normal;font-variant-numeric:normal;font-feature-settings:normal;text-align:start;writing-mode:lr-tb;text-anchor:start;fill:#00c853;fill-opacity:1;stroke-width:0.26458335"
           d="m 159.23793,859.25911 q 1.45212,0.19252 2.35479,-0.52059 0.83309,-0.6503 0.95219,-1.74351 0.11674,-1.07877 -0.50967,-1.96729 -0.67242,-0.97021 -1.96824,-1.2114 -1.16341,-0.2344 -2.08525,0.50525 -0.8378,0.6792 -1.09167,1.78009 -0.24414,1.13214 0.29792,1.99207 0.62671,0.97758 2.04993,1.16538 z m 2.04551,1.28335 -4.56869,-0.7309 -2.37877,14.20978 4.67752,0.88218 z" />
        <path
           inkscape:connector-curvature="0"
           id="path5712"
           style="font-style:normal;font-variant:normal;font-weight:normal;font-stretch:normal;font-size:29.98611259px;font-family:'SC Gum Kids';-inkscape-font-specification:'SC Gum Kids, Normal';font-variant-ligatures:normal;font-variant-caps:normal;font-variant-numeric:normal;font-feature-settings:normal;text-align:start;writing-mode:lr-tb;text-anchor:start;fill:#00c853;fill-opacity:1;stroke-width:0.26458335"
           d="m 169.53978,865.12339 q 1.30884,-0.0443 1.79452,0.67833 0.24071,0.37579 0.21642,0.74219 l -3.96657,-0.19865 q -0.0175,-0.28375 0.20538,-0.59135 0.45589,-0.58411 1.75025,-0.63052 z m -1.49093,6.01117 q -0.69147,-0.53089 -0.85804,-1.31015 -0.0916,-0.38345 -0.0345,-0.67103 l 9.89042,0.27081 q -0.0455,-2.00458 -1.10763,-4.0403 -2.15104,-4.09019 -7.32035,-4.36215 -2.95213,-0.15303 -4.95165,1.66915 -1.80822,1.62833 -2.35152,4.31586 -0.54499,2.5985 0.32324,4.94608 0.93172,2.51971 3.11181,3.59514 3.77735,1.88752 7.71924,0.54343 1.97819,-0.67098 3.1814,-1.70754 l -2.63718,-3.70292 q -0.76606,0.4793 -1.77156,0.77538 -1.99863,0.60877 -3.19369,-0.32176 z m 3.73396,-16.12948 -5.30748,4.08828 1.12602,1.60114 5.9789,-2.71678 z" />
        <path
           inkscape:connector-curvature="0"
           id="path5714"
           style="font-style:normal;font-variant:normal;font-weight:normal;font-stretch:normal;font-size:29.98611259px;font-family:'SC Gum Kids';-inkscape-font-specification:'SC Gum Kids, Normal';font-variant-ligatures:normal;font-variant-caps:normal;font-variant-numeric:normal;font-feature-settings:normal;text-align:start;writing-mode:lr-tb;text-anchor:start;fill:#00c853;fill-opacity:1;stroke-width:0.26458335"
           d="m 187.59943,863.24876 q -2.66757,-0.61486 -4.69833,0.39955 l 0.15292,-0.98425 -4.54536,-0.70275 -2.32511,15.601 5.46248,0.68494 0.76123,-5.48244 q 0.40499,-4.75977 2.81485,-4.56089 1.78151,0.1496 1.43818,5.12369 -0.14801,2.35721 -0.82271,4.79594 l 5.66401,0.84301 q 0.88401,-3.63725 0.82548,-7.2894 -0.026,-3.32343 -0.97679,-5.39048 -1.1958,-2.58474 -3.75085,-3.03792 z" />
        <path
           inkscape:connector-curvature="0"
           id="path5716"
           style="font-style:normal;font-variant:normal;font-weight:normal;font-stretch:normal;font-size:29.98611259px;font-family:'SC Gum Kids';-inkscape-font-specification:'SC Gum Kids, Normal';font-variant-ligatures:normal;font-variant-caps:normal;font-variant-numeric:normal;font-feature-settings:normal;text-align:start;writing-mode:lr-tb;text-anchor:start;fill:#00c853;fill-opacity:1;stroke-width:0.26458335"
           d="m 206.17903,860.34179 -0.60418,4.69279 -3.89877,-0.6004 -0.71792,4.65229 4.00362,0.58119 -1.26815,11.0568 4.92916,0.74488 1.23011,-11.11935 3.80064,0.3996 0.56046,-4.69705 -3.78181,-0.44189 0.54343,-4.52217 z" />
        <path
           inkscape:connector-curvature="0"
           id="path5718"
           style="font-style:normal;font-variant:normal;font-weight:normal;font-stretch:normal;font-size:29.98611259px;font-family:'SC Gum Kids';-inkscape-font-specification:'SC Gum Kids, Normal';font-variant-ligatures:normal;font-variant-caps:normal;font-variant-numeric:normal;font-feature-settings:normal;text-align:start;writing-mode:lr-tb;text-anchor:start;fill:#00c853;fill-opacity:1;stroke-width:0.26458335"
           d="m 217.40767,866.40845 q 1.4626,0.0807 2.30802,-0.69939 0.78083,-0.71219 0.81586,-1.81131 0.0338,-1.08454 -0.65882,-1.92249 -0.74475,-0.91586 -2.05523,-1.0571 -1.17794,-0.14463 -2.04044,0.66345 -0.78332,0.74136 -0.95214,1.85846 -0.15673,1.14752 0.4496,1.9634 0.69973,0.92673 2.13315,1.00498 z m 2.13778,1.12294 -4.61124,-0.37888 -1.28359,14.35022 4.73134,0.52138 z" />
        <path
           inkscape:connector-curvature="0"
           id="path5720"
           style="font-style:normal;font-variant:normal;font-weight:normal;font-stretch:normal;font-size:29.98611259px;font-family:'SC Gum Kids';-inkscape-font-specification:'SC Gum Kids, Normal';font-variant-ligatures:normal;font-variant-caps:normal;font-variant-numeric:normal;font-feature-settings:normal;text-align:start;writing-mode:lr-tb;text-anchor:start;fill:#00c853;fill-opacity:1;stroke-width:0.26458335"
           d="m 228.15483,871.48319 q 1.30194,-0.14131 1.83993,0.54324 0.26794,0.35688 0.27091,0.72408 l -3.97036,0.0964 q -0.0385,-0.28167 0.16091,-0.60497 0.41127,-0.61634 1.69861,-0.75871 z m -1.04057,6.10526 q -0.72897,-0.47808 -0.95293,-1.24283 -0.1198,-0.37559 -0.0842,-0.66662 l 9.88324,-0.46416 q -0.19423,-1.99568 -1.40452,-3.94693 -2.44874,-3.91922 -7.62398,-3.80668 -2.95534,0.0666 -4.81408,2.03214 -1.68235,1.75807 -2.02463,4.47852 -0.35059,2.63178 0.68953,4.90844 1.1162,2.44359 3.37011,3.3542 3.90705,1.6019 7.73828,-0.0311 1.92292,-0.81598 3.04586,-1.939 l -2.90479,-3.49692 q -0.72837,0.53484 -1.70911,0.90474 -1.94793,0.75547 -3.20877,-0.0838 z" />
        <path
           inkscape:connector-curvature="0"
           id="path5722"
           style="font-style:normal;font-variant:normal;font-weight:normal;font-stretch:normal;font-size:29.98611259px;font-family:'SC Gum Kids';-inkscape-font-specification:'SC Gum Kids, Normal';font-variant-ligatures:normal;font-variant-caps:normal;font-variant-numeric:normal;font-feature-settings:normal;text-align:start;writing-mode:lr-tb;text-anchor:start;fill:#00c853;fill-opacity:1;stroke-width:0.26458335"
           d="m 246.05428,868.29772 q -2.70498,-0.42081 -4.65727,0.73745 l 0.0815,-0.99272 -4.58422,-0.37302 -1.1936,15.72809 5.49766,0.28909 0.36374,-5.52307 q 0.0606,-4.77659 2.47849,-4.75207 1.78767,0.0207 1.80406,5.00659 0.0224,2.36175 -0.47459,4.84279 l 5.71007,0.43222 q 0.61932,-3.69155 0.29748,-7.32996 -0.26565,-3.31289 -1.36312,-5.30597 -1.37915,-2.49173 -3.96023,-2.75942 z" />
        <path
           inkscape:connector-curvature="0"
           id="path5724"
           style="font-style:normal;font-variant:normal;font-weight:normal;font-stretch:normal;font-size:29.98611259px;font-family:'SC Gum Kids';-inkscape-font-specification:'SC Gum Kids, Normal';font-variant-ligatures:normal;font-variant-caps:normal;font-variant-numeric:normal;font-feature-settings:normal;text-align:start;writing-mode:lr-tb;text-anchor:start;fill:#00c853;fill-opacity:1;stroke-width:0.26458335"
           d="m 260.1888,873.16905 q 1.29557,-0.19112 1.8594,0.47231 0.28143,0.34635 0.29848,0.71316 l -3.96376,0.24849 q -0.0492,-0.27999 0.1376,-0.6107 0.38735,-0.63165 1.66828,-0.82326 z m -0.80576,6.14066 q -0.74677,-0.44979 -0.99988,-1.20538 -0.13411,-0.37073 -0.1097,-0.66291 l 9.85818,-0.84268 q -0.27058,-1.98677 -1.55478,-3.89019 -2.59718,-3.82246 -7.7643,-3.51162 -2.95062,0.17978 -4.73264,2.21518 -1.61372,1.82127 -1.85147,4.55285 -0.24944,2.64328 0.87718,4.87839 1.20905,2.39901 3.49621,3.22255 3.96558,1.45095 7.73141,-0.32773 1.89022,-0.8891 2.96928,-2.05434 l -3.0367,-3.383 q -0.70733,0.56237 -1.67317,0.9696 -1.91754,0.82958 -3.20962,0.0393 z" />
        <path
           inkscape:connector-curvature="0"
           id="path5726"
           style="font-style:normal;font-variant:normal;font-weight:normal;font-stretch:normal;font-size:29.98611259px;font-family:'SC Gum Kids';-inkscape-font-specification:'SC Gum Kids, Normal';font-variant-ligatures:normal;font-variant-caps:normal;font-variant-numeric:normal;font-feature-settings:normal;text-align:start;writing-mode:lr-tb;text-anchor:start;fill:#00c853;fill-opacity:1;stroke-width:0.26458335"
           d="m 294.01654,869.55697 q -3.13326,-0.0471 -4.70236,2.38187 -0.89451,1.36077 -1.11584,3.05898 0.14784,-1.42009 -0.4805,-2.66526 -0.56882,-2.19682 -2.66199,-2.78459 -1.69794,-0.48489 -3.85228,1.51886 l 0.031,-1.75697 -5.44666,-0.0348 0.14532,15.65209 5.34435,-0.14105 0.22398,-4.33371 q 0.57624,-5.18257 2.15745,-5.09313 1.68371,0.0749 1.51803,4.67222 -0.0755,2.29866 -0.48779,4.59699 l 5.44668,0.0201 q 0.13423,-2.44503 0.54655,-4.78728 0.39993,-4.58244 1.80513,-4.1857 1.41986,0.38211 1.34225,4.75989 -0.19264,2.28391 -0.66336,4.46504 l 5.09556,-0.25843 q 0.58943,-3.74767 0.40286,-7.49612 -0.17241,-3.27991 -1.06365,-5.16958 -1.11038,-2.37307 -3.58478,-2.41948 z" />
        <path
           inkscape:connector-curvature="0"
           id="path5728"
           style="font-style:normal;font-variant:normal;font-weight:normal;font-stretch:normal;font-size:29.98611259px;font-family:'SC Gum Kids';-inkscape-font-specification:'SC Gum Kids, Normal';font-variant-ligatures:normal;font-variant-caps:normal;font-variant-numeric:normal;font-feature-settings:normal;text-align:start;writing-mode:lr-tb;text-anchor:start;fill:#00c853;fill-opacity:1;stroke-width:0.26458335"
           d="m 306.81953,873.42191 q 1.28277,-0.26366 1.88301,0.36702 0.30046,0.32998 0.3381,0.69526 l -3.94352,0.47093 q -0.0649,-0.27678 0.10305,-0.61746 0.35122,-0.65243 1.61936,-0.91575 z m -0.45927,6.17625 q -0.77087,-0.4071 -1.06606,-1.14727 -0.15474,-0.3626 -0.1468,-0.65569 l 9.79522,-1.39557 q -0.38185,-1.96841 -1.77103,-3.79663 -2.80797,-3.6704 -7.94944,-3.06956 -2.93585,0.34538 -4.60062,2.47774 -1.50878,1.90911 -1.59258,4.64974 -0.10044,2.65312 1.15005,4.82136 1.34201,2.32724 3.67185,3.0209 4.04089,1.22571 7.70076,-0.76187 1.83725,-0.99396 2.84909,-2.21802 l -3.22209,-3.20693 q -0.67459,0.60125 -1.61601,1.06213 -1.86787,0.93608 -3.20234,0.21967 z" />
        <path
           inkscape:connector-curvature="0"
           id="path5730"
           style="font-style:normal;font-variant:normal;font-weight:normal;font-stretch:normal;font-size:29.98611259px;font-family:'SC Gum Kids';-inkscape-font-specification:'SC Gum Kids, Normal';font-variant-ligatures:normal;font-variant-caps:normal;font-variant-numeric:normal;font-feature-settings:normal;text-align:start;writing-mode:lr-tb;text-anchor:start;fill:#00c853;fill-opacity:1;stroke-width:0.26458335"
           d="m 324.32914,868.55584 q -2.73272,-0.16195 -4.56615,1.17653 l -0.0131,-0.99597 -4.59892,0.0642 0.30591,15.77035 5.50027,-0.23448 -0.16258,-5.53264 q -0.39347,-4.76074 2.01585,-4.96603 1.78154,-0.14923 2.27151,4.81257 0.24668,2.34893 -0.0124,4.86597 l 5.7253,-0.11217 q 0.26583,-3.73369 -0.40019,-7.32507 -0.57916,-3.27268 -1.86101,-5.15249 -1.60961,-2.34945 -4.20445,-2.37072 z" />
        <path
           inkscape:connector-curvature="0"
           id="path5732"
           style="font-style:normal;font-variant:normal;font-weight:normal;font-stretch:normal;font-size:29.98611259px;font-family:'SC Gum Kids';-inkscape-font-specification:'SC Gum Kids, Normal';font-variant-ligatures:normal;font-variant-caps:normal;font-variant-numeric:normal;font-feature-settings:normal;text-align:start;writing-mode:lr-tb;text-anchor:start;fill:#00c853;fill-opacity:1;stroke-width:0.26458335"
           d="m 338.41968,877.51121 q -0.86312,0.0387 -1.3169,-0.18257 -0.43827,-0.2076 -0.46449,-0.6314 -0.0271,-0.43841 0.35026,-0.74048 0.41852,-0.34863 1.17843,-0.39565 0.80376,-0.0497 1.28858,0.19899 0.48391,0.23411 0.51013,0.65791 0.0253,0.40918 -0.42423,0.73039 -0.43404,0.33492 -1.12178,0.36281 z m -0.64214,-8.71806 q -3.66804,0.22697 -5.40039,2.81334 -1.45078,2.15819 -1.25365,5.34398 0.21883,3.53651 1.97417,5.11491 1.94155,1.74291 6.18314,1.53913 3.01314,-0.14244 4.88967,-2.53235 1.82169,-2.32784 1.62728,-5.46979 -0.19623,-3.17117 -2.29296,-5.05117 -2.20536,-1.97597 -5.72726,-1.75805 z" />
        <path
           inkscape:connector-curvature="0"
           id="path5734"
           style="font-style:normal;font-variant:normal;font-weight:normal;font-stretch:normal;font-size:29.98611259px;font-family:'SC Gum Kids';-inkscape-font-specification:'SC Gum Kids, Normal';font-variant-ligatures:normal;font-variant-caps:normal;font-variant-numeric:normal;font-feature-settings:normal;text-align:start;writing-mode:lr-tb;text-anchor:start;fill:#00c853;fill-opacity:1;stroke-width:0.26458335"
           d="m 348.30029,876.41596 q 1.38979,0.47537 2.49169,0.84178 3.06702,1.23602 3.60838,0.66351 0.17957,-0.32298 0.016,-0.53011 -0.16362,-0.20713 -1.50374,-0.61307 -1.3267,-0.42171 -3.03285,-0.81278 -1.70615,-0.39108 -2.4023,-1.55409 -0.66343,-1.12159 -0.28668,-2.45935 0.41229,-1.44346 1.83492,-2.3809 1.64671,-1.07306 4.19905,-1.11752 2.15595,-0.0419 4.35503,0.6326 1.05177,0.47328 1.66454,0.96732 l -1.60559,3.0381 q -0.89123,-0.48625 -1.71394,-0.66955 -2.70471,-0.75114 -2.76818,0.28223 0.008,0.27847 0.51414,0.54607 0.51977,0.25182 2.16047,0.56005 1.65412,0.29245 2.7,0.69276 1.56329,0.62295 2.01632,2.23158 0.46997,1.63664 -0.7605,3.49869 -1.29473,1.79379 -4.81075,2.09233 -3.06242,0.27661 -8.43069,-1.62561 z" />
        <path
           inkscape:connector-curvature="0"
           id="path5736"
           style="font-style:normal;font-variant:normal;font-weight:normal;font-stretch:normal;font-size:29.98611259px;font-family:'SC Gum Kids';-inkscape-font-specification:'SC Gum Kids, Normal';font-variant-ligatures:normal;font-variant-caps:normal;font-variant-numeric:normal;font-feature-settings:normal;text-align:start;writing-mode:lr-tb;text-anchor:start;fill:#00c853;fill-opacity:1;stroke-width:0.26458335"
           d="m 361.04368,867.22775 q 1.45875,-0.71892 3.06883,-1.09975 3.20704,-0.74564 3.90688,0.96514 0.38558,0.91805 -0.0447,1.91725 -0.26257,0.61467 -1.17668,1.77969 -0.96515,1.24367 -1.29623,1.90929 -0.56298,1.14482 -0.4077,2.26235 l 4.09411,-0.40716 q -0.0318,-0.46769 0.17837,-1.16543 0.4218,-1.38091 1.6112,-2.44088 1.35121,-1.20849 1.90179,-3.66161 0.59583,-2.59005 -0.30203,-4.51656 -1.06376,-2.26314 -3.89143,-2.5852 -3.39146,-0.36898 -8.84893,2.16014 z m 7.35391,8.99453 q -1.64751,-0.43943 -2.62409,0.39339 -0.84247,0.70177 -0.93061,2.03478 -0.0648,1.27184 0.60196,2.20607 0.7177,1.00274 1.92699,0.88248 1.22387,-0.12172 2.15086,-0.86132 0.85848,-0.68864 1.11687,-1.64132 0.27151,-0.96869 -0.26419,-1.76882 -0.57354,-0.88465 -1.97779,-1.24526 z" />
      </g>
    </g>
    <g
       style="fill:#ffffff;fill-opacity:1"
       transform="matrix(0.10812573,0,0,0.10812573,155.7967,13.585992)"
       id="g3432">
      <g
         style="fill:#ffffff;fill-opacity:1"
         id="g3375">
        <g
           style="fill:#ffffff;fill-opacity:1"
           id="g3373">
          <path
             style="fill:#ffffff;fill-opacity:1"
             inkscape:connector-curvature="0"
             d="M 477.549,182.379 H 329.018 V 33.847 c 0,-18.69 -15.154,-33.844 -33.844,-33.844 H 216.22 c -18.69,0 -33.844,15.153 -33.844,33.844 V 182.373 H 33.844 C 15.153,182.373 0,197.526 0,216.216 v 78.966 c 0,18.691 15.153,33.844 33.844,33.844 h 148.532 v 148.527 c 0,18.689 15.153,33.842 33.844,33.842 h 78.96 c 18.691,0 33.844,-15.152 33.844,-33.842 V 329.026 h 148.533 c 18.689,0 33.842,-15.152 33.842,-33.844 v -78.966 c -0.006,-18.69 -15.153,-33.837 -33.85,-33.837 z"
             id="path3371" />
        </g>
      </g>
      <g
         style="fill:#ffffff;fill-opacity:1"
         id="g3377" />
      <g
         style="fill:#ffffff;fill-opacity:1"
         id="g3379" />
      <g
         style="fill:#ffffff;fill-opacity:1"
         id="g3381" />
      <g
         style="fill:#ffffff;fill-opacity:1"
         id="g3383" />
      <g
         style="fill:#ffffff;fill-opacity:1"
         id="g3385" />
      <g
         style="fill:#ffffff;fill-opacity:1"
         id="g3387" />
      <g
         style="fill:#ffffff;fill-opacity:1"
         id="g3389" />
      <g
         style="fill:#ffffff;fill-opacity:1"
         id="g3391" />
      <g
         style="fill:#ffffff;fill-opacity:1"
         id="g3393" />
      <g
         style="fill:#ffffff;fill-opacity:1"
         id="g3395" />
      <g
         style="fill:#ffffff;fill-opacity:1"
         id="g3397" />
      <g
         style="fill:#ffffff;fill-opacity:1"
         id="g3399" />
      <g
         style="fill:#ffffff;fill-opacity:1"
         id="g3401" />
      <g
         style="fill:#ffffff;fill-opacity:1"
         id="g3403" />
      <g
         style="fill:#ffffff;fill-opacity:1"
         id="g3405" />
    </g>
    <g
       style="fill:#ffffff;fill-opacity:1"
       transform="matrix(1.0374637,0,0,1.793991,243.19658,-5.4101381)"
       id="g4514">
      <g
         style="fill:#ffffff;fill-opacity:1"
         id="g4458">
        <path
           inkscape:connector-curvature="0"
           style="fill:#ffffff;fill-opacity:1"
           d="m 52,26 c 0,2.476 -0.213,4.483 -2.69,4.483 H 2.69 C 0.213,30.483 0,28.476 0,26 0,23.524 0.213,21.517 2.69,21.517 h 46.62 c 2.477,0 2.69,2.007 2.69,4.483 z"
           id="path4456" />
      </g>
      <g
         style="fill:#ffffff;fill-opacity:1"
         id="g4460" />
      <g
         style="fill:#ffffff;fill-opacity:1"
         id="g4462" />
      <g
         style="fill:#ffffff;fill-opacity:1"
         id="g4464" />
      <g
         style="fill:#ffffff;fill-opacity:1"
         id="g4466" />
      <g
         style="fill:#ffffff;fill-opacity:1"
         id="g4468" />
      <g
         style="fill:#ffffff;fill-opacity:1"
         id="g4470" />
      <g
         style="fill:#ffffff;fill-opacity:1"
         id="g4472" />
      <g
         style="fill:#ffffff;fill-opacity:1"
         id="g4474" />
      <g
         style="fill:#ffffff;fill-opacity:1"
         id="g4476" />
      <g
         style="fill:#ffffff;fill-opacity:1"
         id="g4478" />
      <g
         style="fill:#ffffff;fill-opacity:1"
         id="g4480" />
      <g
         style="fill:#ffffff;fill-opacity:1"
         id="g4482" />
      <g
         style="fill:#ffffff;fill-opacity:1"
         id="g4484" />
      <g
         style="fill:#ffffff;fill-opacity:1"
         id="g4486" />
      <g
         style="fill:#ffffff;fill-opacity:1"
         id="g4488" />
    </g>
    <g
       id="g4624"
       transform="matrix(0.90539169,-1.5681843,0.49566893,0.28617459,190.37996,74.565881)"
       style="fill:#00c853;fill-opacity:1">
      <g
         id="g4592"
         style="fill:#00c853;fill-opacity:1">
        <path
           id="path4590"
           d="m 52,26 c 0,2.476 -0.213,4.483 -2.69,4.483 H 2.69 C 0.213,30.483 0,28.476 0,26 0,23.524 0.213,21.517 2.69,21.517 h 46.62 c 2.477,0 2.69,2.007 2.69,4.483 z"
           style="fill:#00c853;fill-opacity:1"
           inkscape:connector-curvature="0" />
      </g>
      <g
         id="g4594"
         style="fill:#00c853;fill-opacity:1" />
      <g
         id="g4596"
         style="fill:#00c853;fill-opacity:1" />
      <g
         id="g4598"
         style="fill:#00c853;fill-opacity:1" />
      <g
         id="g4600"
         style="fill:#00c853;fill-opacity:1" />
      <g
         id="g4602"
         style="fill:#00c853;fill-opacity:1" />
      <g
         id="g4604"
         style="fill:#00c853;fill-opacity:1" />
      <g
         id="g4606"
         style="fill:#00c853;fill-opacity:1" />
      <g
         id="g4608"
         style="fill:#00c853;fill-opacity:1" />
      <g
         id="g4610"
         style="fill:#00c853;fill-opacity:1" />
      <g
         id="g4612"
         style="fill:#00c853;fill-opacity:1" />
      <g
         id="g4614"
         style="fill:#00c853;fill-opacity:1" />
      <g
         id="g4616"
         style="fill:#00c853;fill-opacity:1" />
      <g
         id="g4618"
         style="fill:#00c853;fill-opacity:1" />
      <g
         id="g4620"
         style="fill:#00c853;fill-opacity:1" />
      <g
         id="g4622"
         style="fill:#00c853;fill-opacity:1" />
    </g>
  </g>
  <g
     id="g4950"
     transform="matrix(0.26458334,0,0,0.26458334,614.195,-10.762226)" />
  <g
     id="g4952"
     transform="matrix(0.26458334,0,0,0.26458334,614.195,-10.762226)" />
  <g
     id="g4954"
     transform="matrix(0.26458334,0,0,0.26458334,614.195,-10.762226)" />
  <g
     id="g4956"
     transform="matrix(0.26458334,0,0,0.26458334,614.195,-10.762226)" />
  <g
     id="g4958"
     transform="matrix(0.26458334,0,0,0.26458334,614.195,-10.762226)" />
  <g
     id="g4960"
     transform="matrix(0.26458334,0,0,0.26458334,614.195,-10.762226)" />
  <g
     id="g4962"
     transform="matrix(0.26458334,0,0,0.26458334,614.195,-10.762226)" />
  <g
     id="g4964"
     transform="matrix(0.26458334,0,0,0.26458334,614.195,-10.762226)" />
  <g
     id="g4966"
     transform="matrix(0.26458334,0,0,0.26458334,614.195,-10.762226)" />
  <g
     id="g4968"
     transform="matrix(0.26458334,0,0,0.26458334,614.195,-10.762226)" />
  <g
     id="g4970"
     transform="matrix(0.26458334,0,0,0.26458334,614.195,-10.762226)" />
  <g
     id="g4972"
     transform="matrix(0.26458334,0,0,0.26458334,614.195,-10.762226)" />
  <g
     id="g4974"
     transform="matrix(0.26458334,0,0,0.26458334,614.195,-10.762226)" />
  <g
     id="g4976"
     transform="matrix(0.26458334,0,0,0.26458334,614.195,-10.762226)" />
  <g
     id="g4978"
     transform="matrix(0.26458334,0,0,0.26458334,614.195,-10.762226)" />
  <polygon
     style="fill:#f9eab0"
     transform="matrix(3.4969519,0,0,3.4969519,1036.364,497.48859)"
     points=""
     id="polygon6183" />
</svg>
