<?xml version="1.0" encoding="UTF-8"?>
<!-- Created with Inkscape (http://www.inkscape.org/) -->
<svg width="452.94138mm" height="218.28125mm" version="1.1" viewBox="0 0 452.94138 218.28126" xmlns="http://www.w3.org/2000/svg" xmlns:cc="http://creativecommons.org/ns#" xmlns:dc="http://purl.org/dc/elements/1.1/" xmlns:rdf="http://www.w3.org/1999/02/22-rdf-syntax-ns#">
 <defs>
  <pattern id="pattern2268" width="707.99999" height="249.99998" patternTransform="matrix(.26458334 0 0 .26458334 253.21913 717.17254)" patternUnits="userSpaceOnUse">
   <path d="m0 0v32.734374l13.640579-32.734374zm29.974601 0 13.584 16.111332l12.413971-16.111332zm45.615193 0 7.876989 28.083968-21.093808-15.392579-24.515602 51.880855-5.132788-37.6289-32.724585 13.294942v44.57227l46.978506 44.187474 18.814488-77.539045 38.199196 50.742195-7.457086-102.20118zm42.236406 0 25.50388 33.214828 36.8183-33.214828zm100.07607 0 95.89651 61.152339-118.58588-42.75976-54.7324 78.107413-22.2364-46.749996 1.711 113.455064-47.890698-78.107411-22.234318 78.677741-37.6289-45.61134-12.201184 9.03908v80.64647l82.326197-45.78516 25.085893 68.98631 74.68751-155.646455 112.31637 104.333965 51.88089-91.790999 41.6191 20.525409 18.81453-96.921905 116.8769 66.134777 6.27148-59.292963 72.40622 17.103496 20.17776-35.496075h-119.92576l7.38667 40.626935-15.39258-18.24412-1.14059 16.533203-45.6113-26.794922 30.78709 7.412107-1.70899-15.3945448 22.23439 9.6933538 0.2657-13.832012h-176.99799l40.47069 36.636699-68.4141 86.089851-73.54688-47.890621 67.8438 17.103534 61.57421-51.882821-62.14261-17.673827 29.07621-1.140623-5.40042-21.242192zm416.95509 0 10.75782 112.4629-93.50192-57.582044 18.81441 75.257804-152.22458-48.462882-8.55081 90.652342-46.75188-35.34962-72.4063 91.22071-85.51952-72.40626s-63.25531 67.36747-91.2031 94.20703h74.832c-2.0516-14.3913-7.70498-39.45902-6.43359-37.76368 1.71039 2.28053 39.33789 18.24416 39.33789 18.24416l2.85162-21.09377 37.84569 40.61329h89.83589c4.58861-27.93947 13.14059-80.52344 13.14059-80.52344l7.41211 37.62891 21.0938-19.38475-34.94728 62.27928h44.5059l37.19327-62.27928 54.1621 41.61914 3.99031-89.50976s47.89089 87.22953 49.03121 84.3789c1.14017-2.85067 54.73247-69.55468 54.73247-69.55468l17.1035 64.99411 75.82813-26.79685-24.26763 57.14842h36.48053v-137.95506l-23.04492 54.01172 0.5703-36.48828-45.61142 43.89842 48.46103-90.080085-18.2442 1.710954 37.86921-59.509757v-25.587892zm73.14263 64.787111-6.51171 35.703119 6.51171-6.511712zm-641.06641 130.915989-45.841776 54.29688h76.068282c-8.989303-18.76664-30.226506-54.29688-30.226506-54.29688zm515.96681 27.93555-19.5391 26.36133h22.34377zm-132.2696 3.42187-31.50391 22.93946h53.43561zm205.81637 5.13086-26.82607 17.8086h28.44529zm-137.97067 2.84961-6.21672 14.95899h17.72262z" fill="#00e760"/>
  </pattern>
 </defs>
 <metadata>
  <rdf:RDF>
   <cc:Work rdf:about="">
    <dc:format>image/svg+xml</dc:format>
    <dc:type rdf:resource="http://purl.org/dc/dcmitype/StillImage"/>
    <dc:title/>
   </cc:Work>
  </rdf:RDF>
 </metadata>
 <g fill="#f9eab0">
  <polygon transform="matrix(3.4969519,0,0,3.4969519,454.53799,432.75581)" points=""/>
  <polygon transform="matrix(3.4969519,0,0,3.4969519,1042.6954,575.90132)" points=""/>
  <polygon transform="matrix(3.4969519,0,0,3.4969519,290.18775,626.41733)" points=""/>
 </g>
 <rect x="5.1217259e-5" y="-3.5888672e-7" width="452.94128" height="218.28127" opacity="0" stroke-width=".35775721"/>
 <g transform="translate(-60.855622,-393.535)">
  <g stroke="#00c853" stroke-linecap="round" stroke-width="1.32291675">
   <path d="m171.99066 462.71802-89.44876-23.96772l6.25914 42.76465-26.80291 33.90571 89.44876 23.96772z" fill="#fff"/>
   <path d="m402.66197 462.71802 89.44876-23.96772-6.25914 42.76465 26.80291 33.90571-89.44876 23.96772z" fill="#fff"/>
   <path d="m452.6909 472.71935-50.02892-10.00133 20.54376 76.67037 29.48516 12.70596z" fill="#00c853"/>
   <path d="m452.6909 472.71935-50.02892-10.00133 20.54376 76.67037 29.48516 12.70596z" fill="url(#pattern2268)"/>
   <path d="m121.96173 472.71935 50.02892-10.00133-20.54376 76.67037-29.48516 12.70596z" fill="#00c853"/>
   <path d="m121.96173 472.71935 50.02892-10.00133-20.54376 76.67037-29.48516 12.70596z" fill="url(#pattern2268)"/>
   <path d="m121.96173 472.71935s94.17737 18.67002 165.36459 18.67002 165.36458-18.67002 165.36458-18.67002v79.375s-92.48624 18.67002-165.36458 18.67002-165.36459-18.67002-165.36459-18.67002z" fill="#fff"/>
  </g>
  <g fill="#fff" stroke-width=".26458335" aria-label="Ejercicio">
   <path d="m247.25634 585.53019h2.13596q2.41157 0 2.82498 0.89573 0.20671 0.25838 0.20671 0.62011h0.0689q0 0.89573-2.34267 0.89573-3.03168 0.17225-3.03168 0.48231-0.75792 3.03169-0.75792 7.1658 0 1.10243 0.89572 1.10243h0.62012l2.61827-0.0689q1.01631 0 1.72255 0.96463v0.2067q0 0.60289-4.75423 1.44694-1.10243 0.46509-1.10243 0.75792v2.75608l0.0689 0.75792-0.1378 0.41341q0.24115 0 0.41341 3.4451 0.25838 1.24023 1.24023 1.24023l4.27192 0.34451q0.46509 0.29283 0.96463 0.89573-0.7407 1.03352-2.75608 1.03352l-0.0689 0.0689q-5.09874-0.13781-5.09874-0.82683-0.34451-0.1378-0.55122-0.89572l0.0689-2.82498v-0.34451l-0.20671-9.64627v-3.03168q0-6.66626 1.65365-7.57921 0.39618-0.27561 1.03352-0.27561z" style="font-feature-settings:normal;font-variant-caps:normal;font-variant-ligatures:normal;font-variant-numeric:normal"/>
   <path d="m263.29326 583.53204q1.03353 0 1.03353 1.17133l0.0689 0.82682q-0.43063 0-0.49953 10.30084-0.0517 10.30083-1.49862 12.36789-1.22301 2.75608-2.96278 2.75608h-0.27561q-2.72163 0-4.47862-1.99816l-0.55122-2.20486v-0.27561q0.55122-1.72255 1.24023-1.72255h0.20671q0.39619 0 0.75792 2.34267 0.49954 1.17133 2.48047 1.17133h0.68902q0.18948-0.0344 0.75792-1.17133 0.53399-0.25838 0.96463-1.79145 0.1378 0 0.1378-0.20671 0.34451-3.03168 0.44786-12.05783 0.10336-9.02615 0.86128-9.02615 0.34451-0.48231 0.62011-0.48231z" style="font-feature-settings:normal;font-variant-caps:normal;font-variant-ligatures:normal;font-variant-numeric:normal"/>
   <path d="m269.97675 584.58279q1.51584 0 3.5829 1.65365 0.34451 0.62011 0.34451 1.24023 0 3.08336-1.99816 4.27192-2.29099 0.68902-3.7896 0.68902-0.34451 0.36173-0.34451 1.10243v1.17133q0 3.73793 0.96462 8.40603 0 2.51492 1.92926 4.89204 0.60289 0.48231 0.89572 0.48231h0.48232q0.68902-0.25838 1.72254-0.89572l0.41342-0.0689q0.49953 0 0.75792 0.82682 0 1.55029-2.41157 3.10059l-1.10243 0.2067q-0.98185 0-3.4451-2.68717-1.30913-2.04984-1.30913-4.96094-0.89573-4.37527-1.03353-11.16211 0-2.75608 1.92925-6.89019 1.6192-1.37804 2.41157-1.37804zm-1.58475 5.51215 0.34451 0.20671q2.17041 0 2.89388-1.17133 0.20671-0.36174 0.20671-0.68902v-0.27561q0-1.03353-1.30914-1.03353-1.8259 0-2.13596 2.89388z" style="font-feature-settings:normal;font-variant-caps:normal;font-variant-ligatures:normal;font-variant-numeric:normal"/>
   <path d="m283.22314 589.00974q1.65365 0.56844 2.27376 1.79145l0.0689 0.34451q-0.24116 1.30913-1.10243 1.30913-0.51677 0-1.79145-1.17133h-0.55122q-1.56752 0-3.04891 1.60197t-0.43064 9.74962q1.06798 8.14765-0.15503 7.51031l-1.24023 0.0344q-0.67179-0.32728-0.82682-8.21655-0.13781-7.9065-0.46509-12.23009 0-1.10243 1.44694-1.10243 0.89572 0 0.89572 0.82682l-0.0689 1.03353q0.13781 0.31006 0.27561 0.34451h0.27561q1.58474-1.8259 4.44417-1.8259z" style="font-feature-settings:normal;font-variant-caps:normal;font-variant-ligatures:normal;font-variant-numeric:normal"/>
   <path d="m294.09242 584.77227q3.16949 0 3.16949 1.58474v0.0689q0 0.68902-1.10243 0.96462l-2.68718-0.1378q-1.27468 0-1.99815 1.72255-0.72347 0.43063-1.86036 4.20301-0.68902 2.5666-0.68902 4.75424v0.55121q0 1.99816 1.10244 6.20117 0 1.6192 2.48046 3.5829 0.63735 0.34451 1.03353 0.34451h0.55122q0.36173 0 1.37804-0.62012l0.34451-0.0689q0.89572 0.34451 0.89572 1.30914v0.0689q-0.72347 1.92925-3.514 1.92925-0.96462 0-3.44509-2.06705-0.89573-0.96463-1.10243-1.86035-1.92926-5.80499-1.92926-8.81945 0-4.30637 1.79145-9.30176 1.25746-2.46324 2.48047-3.51399 1.37804-0.89573 3.10059-0.89573z" style="font-feature-settings:normal;font-variant-caps:normal;font-variant-ligatures:normal;font-variant-numeric:normal"/>
   <path d="m300.06966 584.03157q0.75792 0 1.17133 1.37804-0.34451 1.24024-1.37804 1.24024h-0.2067q-0.75792 0-0.96463-1.17133 0-0.89573 1.30914-1.44695zm0.24116 5.09875q0.75792 0 0.75792 3.16948l0.0689 3.3762q-0.17226 14.64165-0.48231 14.64165-0.75792 0.82683-1.37804 0.82683-0.75792 0-1.03353-1.92926l0.0689-0.0689v-0.0689l0.68902-6.27007 0.1378-6.75239-0.2067-5.13319q0.24115-1.79145 1.37804-1.79145z" style="font-feature-settings:normal;font-variant-caps:normal;font-variant-ligatures:normal;font-variant-numeric:normal"/>
   <path d="m310.14656 584.77227q3.16949 0 3.16949 1.58474v0.0689q0 0.68902-1.10243 0.96462l-2.68717-0.1378q-1.27469 0-1.99816 1.72255-0.72347 0.43063-1.86035 4.20301-0.68902 2.5666-0.68902 4.75424v0.55121q0 1.99816 1.10243 6.20117 0 1.6192 2.48047 3.5829 0.63734 0.34451 1.03353 0.34451h0.55121q0.36174 0 1.37804-0.62012l0.34451-0.0689q0.89573 0.34451 0.89573 1.30914v0.0689q-0.72347 1.92925-3.514 1.92925-0.96463 0-3.4451-2.06705-0.89572-0.96463-1.10243-1.86035-1.92925-5.80499-1.92925-8.81945 0-4.30637 1.79145-9.30176 1.25746-2.46324 2.48047-3.51399 1.37804-0.89573 3.10058-0.89573z" style="font-feature-settings:normal;font-variant-caps:normal;font-variant-ligatures:normal;font-variant-numeric:normal"/>
   <path d="m316.12381 584.03157q0.75792 0 1.17133 1.37804-0.34451 1.24024-1.37804 1.24024h-0.20671q-0.75792 0-0.96462-1.17133 0-0.89573 1.30913-1.44695zm0.24115 5.09875q0.75792 0 0.75792 3.16948l0.0689 3.3762q-0.17226 14.64165-0.48232 14.64165-0.75792 0.82683-1.37804 0.82683-0.75792 0-1.03353-1.92926l0.0689-0.0689v-0.0689l0.68902-6.27007 0.1378-6.75239-0.20671-5.13319q0.24116-1.79145 1.37804-1.79145z" style="font-feature-settings:normal;font-variant-caps:normal;font-variant-ligatures:normal;font-variant-numeric:normal"/>
   <path d="m325.44278 588.52742q2.89389 0.56845 2.89389 1.92926 3.01445 4.49585 0.82682 14.81391-1.37804 3.60012-2.48047 4.61643-1.53307 1.92925-3.03168 1.92925-2.32544 0-3.5829-3.03168l-1.17134-5.78776v-1.03353q0-3.47955 1.17134-8.47494 0.18948-0.27561 0.34451-1.24023 1.61919-3.5829 3.10058-3.5829zm-1.30913 2.54938h-0.13781q-0.80959 0-1.10243 1.30913-1.44694 2.65273-1.44694 5.51215-0.2067 0.51677-0.2067 1.79145v2.34267q0 3.04891 1.10243 6.27007 0.51676 1.03353 1.03353 1.03353 0.82682 0 2.34266-1.99815 0.44786 0 1.44694-2.13596 0.41341-1.49862 0.82683-5.71886 0-4.15134-1.10244-6.68349-0.55121-1.49861-0.89572-1.79145z" style="font-feature-settings:normal;font-variant-caps:normal;font-variant-ligatures:normal;font-variant-numeric:normal"/>
  </g>
  <path d="m352.38364 605.94354c-1.29147 1.29147-5.11475-2.6319-6.91868-2.34619-1.80393 0.28572-4.22769 5.19852-5.85504 4.36935-1.62734-0.82918 0.92255-5.67772 0.0934-7.30506-0.82918-1.62735-6.25052-2.41434-5.96481-4.21827 0.28572-1.80393 5.68491-0.87712 6.97638-2.16859s0.36466-6.69067 2.16859-6.97638c1.80393-0.28572 2.59092 5.13563 4.21827 5.9648 1.62735 0.82918 6.47589-1.72072 7.30506-0.0934 0.82918 1.62735-4.08363 4.05111-4.36934 5.85504-0.28572 1.80393 3.63766 5.6272 2.34619 6.91867z" fill="#00c853"/>
  <path transform="scale(-1,1)" d="m-222.26898 605.94354c-1.29147 1.29147-5.11475-2.6319-6.91868-2.34619-1.80393 0.28572-4.22769 5.19852-5.85503 4.36935-1.62735-0.82918 0.92254-5.67772 0.0934-7.30506-0.82918-1.62735-6.25052-2.41434-5.96481-4.21827 0.28572-1.80393 5.68492-0.87712 6.97639-2.16859s0.36465-6.69067 2.16858-6.97638c1.80393-0.28572 2.59092 5.13563 4.21827 5.9648 1.62735 0.82918 6.47589-1.72072 7.30507-0.0934 0.82917 1.62735-4.08364 4.05111-4.36935 5.85504-0.28572 1.80393 3.63766 5.6272 2.34619 6.91867z" fill="#00c853"/>
 </g>
 <g transform="matrix(1.3185769 -.0910117 .0910117 1.3185769 -17.84717 -66.30542)" fill="#00c853" stroke-width=".26458335" style="font-feature-settings:normal;font-variant-caps:normal;font-variant-ligatures:normal;font-variant-numeric:normal" aria-label='Símbolos "+" y "-"'>
  <path d="m63.437628 153.14738q2.807554 1.15405 5.711668 1.94844 5.811621 1.57366 6.286079-0.25827 0.237229-0.91596-1.436078-1.67261-0.502303-0.23977-3.83464-1.32087-2.710571-0.87808-4.010367-1.7416-1.838855-1.22276-1.865711-2.9447-0.02148-2.73758 0.760183-4.30994 0.763144-1.56063 2.434052-2.13913 2.98343-1.04673 10.510912 1.02301 3.665415 1.01282 5.231277 1.68181l-1.200283 4.92619q-2.79582-1.13553-5.713223-2.01234-5.789424-1.74345-6.202242-0.46966-0.387511 1.23179 2.200206 2.16176 0.808238 0.29251 2.250257 0.66362 1.608417 0.40844 1.934427 0.51334 3.460139 1.07799 4.533729 4.08333 0.501593 1.44711 0.195937 2.95148-0.332801 1.62538-1.558098 3.05057-2.573732 3.0452-10.36912 1.24902-3.895997-0.90566-7.276258-2.4106z" style="font-feature-settings:normal;font-variant-caps:normal;font-variant-ligatures:normal;font-variant-numeric:normal"/>
  <path d="m84.241485 148.27682-2.836851 14.75205 6.272285 1.20617 3.151869-14.91249zm5.4156-6.89942-5.804412 4.07771 1.11663 1.74607 6.450853-2.59572z" style="font-feature-settings:normal;font-variant-caps:normal;font-variant-ligatures:normal;font-variant-numeric:normal"/>
  <path d="m110.02136 151.78779q-3.2659-0.58542-5.32114 1.68405-1.16756 1.26879-1.68946 3.00537 0.39752-1.45855-0.0459-2.86717-0.2184-2.39281-2.30496-3.36519-1.691202-0.79724-4.285193 0.92778l0.333131-1.83055-5.685277-0.96846-2.526845 16.37975 5.608455 0.76726 0.975708-4.48997q1.489052-5.31665 3.125953-4.95259 1.746498 0.36642 0.786596 5.1418-0.472303 2.38896-1.296427 4.71992l5.687799 0.95317q0.5587-2.53184 1.39039-4.90869 1.20212-4.71976 2.60252-4.06472 1.41822 0.64226 0.58791 5.20333-0.59215 2.35349-1.45729 4.552l5.36858 0.60202q1.25728-3.81508 1.70383-7.76377 0.38118-3.45668-0.22668-5.58373-0.75411-2.66965-3.33167-3.14161z" style="font-feature-settings:normal;font-variant-caps:normal;font-variant-ligatures:normal;font-variant-numeric:normal"/>
  <path d="m123.30936 163.65697q-0.74811-0.25535-0.99336-0.64747-0.22061-0.34194-0.0335-0.6925 0.18306-0.31982 0.61518-0.51286 0.46286-0.18898 0.92394-0.12798 1.02565 0.16696 1.43793 0.59681 0.37023 0.39301 0.18832 0.82245-0.19932 0.44277-0.7544 0.61955-0.63599 0.19735-1.38411-0.058zm6.98098-5.72263q-2.52089-2.69483-6.08985-2.43198-1.79884 0.1217-3.12075 0.77564l1.00642-7.60767-6.38603-0.54769-2.66956 20.17953 5.78712 0.9376 0.29075-2.19777q0.23418 0.59395 0.70232 1.54725 1.33083 1.05178 3.38328 1.49532 2.58224 0.57617 4.68522-0.66251 2.02027-0.96814 3.37644-3.18134 1.01919-2.14832 0.86423-4.40506-0.42867-2.43368-1.82959-3.90132z" style="font-feature-settings:normal;font-variant-caps:normal;font-variant-ligatures:normal;font-variant-numeric:normal"/>
  <path d="m139.97622 165.79713q-0.90767-0.11404-1.34163-0.4262-0.42021-0.29508-0.37173-0.74204 0.0502-0.46238 0.49805-0.71008 0.49915-0.28893 1.3006-0.202 0.84769 0.0919 1.30913 0.43827 0.46311 0.33092 0.41463 0.77789-0.0468 0.43155-0.57344 0.6863-0.51289 0.27185-1.23561 0.17786zm0.89011-9.21298q-3.86855-0.4196-6.13928 1.96948-1.90026 1.99262-2.26469 5.35255-0.40455 3.72984 1.14482 5.69118 1.71427 2.16635 6.17722 2.71279 3.16996 0.39061 5.55601-1.76764 2.3177-2.10329 2.67711-5.41699 0.36276-3.34452-1.48891-5.68171-1.94786-2.45679-5.66228-2.85966z" style="font-feature-settings:normal;font-variant-caps:normal;font-variant-ligatures:normal;font-variant-numeric:normal"/>
  <path d="m149.45999 152.13355-1.91207 20.45219 6.34404 0.59311 2.21588-20.70406z" style="font-feature-settings:normal;font-variant-caps:normal;font-variant-ligatures:normal;font-variant-numeric:normal"/>
  <path d="m162.57872 167.91519q-0.91062-0.0873-1.35355-0.38664-0.4287-0.28262-0.39336-0.73081 0.0366-0.46365 0.47699-0.72439 0.49046-0.30346 1.29411-0.24009 0.85003 0.067 1.32143 0.39965 0.47263 0.31719 0.43729 0.76538-0.0341 0.43274-0.55305 0.70285-0.50469 0.28678-1.22986 0.21405zm0.61928-9.23514q-3.87919-0.30586-6.07882 2.14884-1.84095 2.04755-2.10659 5.41673-0.29488 3.74011 1.3114 5.65512 1.77712 2.1151 6.25418 2.53029 3.18007 0.29739 5.50173-1.92998 2.25496-2.17041 2.51695-5.49323 0.26442-3.35373-1.65506-5.63556-2.01914-2.39855-5.74379-2.69221z" style="font-feature-settings:normal;font-variant-caps:normal;font-variant-ligatures:normal;font-variant-numeric:normal"/>
  <path d="m173.09297 168.22733q1.3874 0.70281 2.48893 1.24903 3.03424 1.747 3.68606 1.22627 0.23578-0.31225 0.0947-0.5535-0.14111-0.24124-1.48662-0.86394-1.32913-0.63726-3.06064-1.29819t-2.29046-1.98278q-0.53074-1.2736 0.061-2.62094 0.64455-1.45293 2.2741-2.22674 1.88445-0.88304 4.56729-0.55439 2.26681 0.27312 4.47352 1.30366 1.03326 0.65091 1.60315 1.25904l-2.13026 2.94957q-0.86303-0.6409-1.69874-0.95407-2.72562-1.1853-2.94411-0.11108-0.0328 0.29314 0.45882 0.64818 0.50798 0.34048 2.18305 0.90491 1.69145 0.54987 2.72926 1.1234 1.54761 0.88306 1.78612 2.63642 0.25217 1.78523-1.31185 3.55679-1.62136 1.69054-5.35203 1.4866-3.25182-0.16024-8.6011-2.94415z" style="font-feature-settings:normal;font-variant-caps:normal;font-variant-ligatures:normal;font-variant-numeric:normal"/>
  <path d="m200.51795 152.30299-0.84128 6.1922 3.69135 0.47916 0.73539-6.27327zm-5.72677-0.37602 0.31823 6.3082 3.71498-0.23358-0.42925-6.23433z" style="font-feature-settings:normal;font-variant-caps:normal;font-variant-ligatures:normal;font-variant-numeric:normal"/>
  <path d="m212.92136 158.9588-4.86765-0.0599-0.1238 4.13769-3.85405-0.36658-0.25228 5.20518 4.30646 0.21998-0.21737 4.16695 5.35468 0.54968 0.0918-4.91358 3.86216-0.0674-0.0558-4.48217-4.02745-0.21478z" style="font-feature-settings:normal;font-variant-caps:normal;font-variant-ligatures:normal;font-variant-numeric:normal"/>
  <path d="m223.20576 152.69624-0.66173 6.21395 3.70367 0.37213 0.55354-6.29192zm-5.73525-0.21013 0.50065 6.29635 3.70666-0.341-0.60949-6.21929z" style="font-feature-settings:normal;font-variant-caps:normal;font-variant-ligatures:normal;font-variant-numeric:normal"/>
  <path d="m245.04675 160.20817q0.78167 3.65724 0.60797 6.90219-0.55579 5.51773-3.38148 4.01631-1.36297-0.60454-1.64683-5.54476 0.0192-2.54359 0.3044-4.98473l-5.81349 0.0713q-0.4844 3.22106-0.13989 6.74876 0.70451 7.05504 4.89552 8.58717 2.23623 0.81712 4.71698 0.12445 1.2328-0.3384 2.02772-0.83735 0.35689 2.03874-0.23627 3.89768-1.17047 3.73301-5.92215 2.77198l-0.88055 5.55619q0.87433 0.25908 2.17837 0.32222 2.60878 0.15728 4.66501-0.78927 6.58398-2.98875 5.29958-15.72157-0.73871-7.19382 0.0879-11.043z" style="font-feature-settings:normal;font-variant-caps:normal;font-variant-ligatures:normal;font-variant-numeric:normal"/>
  <path d="m265.55253 151.66673-0.32246 6.24076 3.71843 0.16996 0.21019-6.31273zm-5.73818 0.10241 0.84268 6.25975 3.6826-0.54228-0.94717-6.17688z" style="font-feature-settings:normal;font-variant-caps:normal;font-variant-ligatures:normal;font-variant-numeric:normal"/>
  <path d="m270.23919 166.06392 8.22595-0.60395 0.0409-3.09356-8.61257 0.1309z" style="font-feature-settings:normal;font-variant-caps:normal;font-variant-ligatures:normal;font-variant-numeric:normal"/>
  <path d="m283.56079 150.5236-0.17538 6.24663 3.7214 0.0823 0.0614-6.31592zm-5.73418 0.23753 0.98988 6.23817 3.66882-0.62886-1.09239-6.15287z" style="font-feature-settings:normal;font-variant-caps:normal;font-variant-ligatures:normal;font-variant-numeric:normal"/>
 </g>
 <g transform="matrix(.1425683 0 0 .1425683 142.48646 11.030643)" fill="#fff" stroke="#00c853" stroke-width="14.84668541">
  <g fill="#fff" stroke="#00c853" stroke-width="14.84668541">
   <g fill="#fff" stroke="#00c853" stroke-width="14.84668541">
    <path d="m477.549 182.379h-148.531v-148.532c0-18.69-15.154-33.844-33.844-33.844h-78.954c-18.69 0-33.844 15.153-33.844 33.844v148.526h-148.532c-18.691 0-33.844 15.153-33.844 33.843v78.966c0 18.691 15.153 33.844 33.844 33.844h148.532v148.527c0 18.689 15.153 33.842 33.844 33.842h78.96c18.691 0 33.844-15.152 33.844-33.842v-148.527h148.533c18.689 0 33.842-15.152 33.842-33.844v-78.966c-6e-3 -18.69-15.153-33.837-33.85-33.837z" fill="#fff" stroke="#00c853" stroke-width="14.84668541"/>
   </g>
  </g>
 </g>
 <rect x="237.5117" y="36.882992" width="72.94326" height="21.204433" ry="4.0288429" fill="#e91e63" stroke-width="1.45178568"/>
</svg>
