<?xml version="1.0" encoding="UTF-8"?>
<!-- Created with Inkscape (http://www.inkscape.org/) -->
<svg width="1003.6706" height="329.99997" version="1.1" viewBox="0 0 265.55451 87.312494" xmlns="http://www.w3.org/2000/svg" xmlns:cc="http://creativecommons.org/ns#" xmlns:dc="http://purl.org/dc/elements/1.1/" xmlns:rdf="http://www.w3.org/1999/02/22-rdf-syntax-ns#">
 <metadata>
  <rdf:RDF>
   <cc:Work rdf:about="">
    <dc:format>image/svg+xml</dc:format>
    <dc:type rdf:resource="http://purl.org/dc/dcmitype/StillImage"/>
    <dc:title/>
   </cc:Work>
  </rdf:RDF>
 </metadata>
 <g transform="translate(64.824445,106.43769)" fill="#f9eab0">
  <polygon transform="matrix(3.4969519,0,0,3.4969519,113.27756,365.73105)" points=""/>
  <polygon transform="matrix(3.4969519,0,0,3.4969519,342.59567,411.52488)" points=""/>
  <polygon transform="matrix(3.4969519,0,0,3.4969519,289.53119,373.17891)" points=""/>
  <polygon transform="matrix(3.4969519,0,0,3.4969519,300.01292,440.20544)" points=""/>
  <polygon transform="matrix(3.4969519,0,0,3.4969519,291.32132,434.67535)" points=""/>
  <polygon transform="matrix(3.4969519,0,0,3.4969519,307.33646,443.60248)" points=""/>
  <polygon transform="matrix(3.4969519,0,0,3.4969519,333.79178,451.09397)" points=""/>
  <polygon transform="matrix(3.4969519,0,0,3.4969519,298.64056,411.18751)" points=""/>
  <g transform="translate(304.39909,71.666099)">
   <polygon transform="matrix(3.4969519,0,0,3.4969519,454.53799,116.97428)" points=""/>
   <polygon transform="matrix(9.1061708,0,0,9.0930789,1282.4585,1088.9576)" points=""/>
   <polygon transform="matrix(3.4969519,0,0,3.4969519,828.57006,-535.68054)" points=""/>
   <polygon transform="matrix(3.4969519,0,0,3.4969519,-1847.954,290.9635)" points=""/>
  </g>
 </g>
 <g transform="translate(-295.62612,161.18259)" letter-spacing="0px" word-spacing="0px">
  <text x="-1222.3983" y="-173.37076" font-family="sans-serif" font-size="10.58333302px" stroke-width=".26458332" style="line-height:1.25" xml:space="preserve"><tspan x="-1222.3983" y="-164.00699" stroke-width=".26458332"/></text>
  <text x="-2245.1282" y="-126.3082" font-family="'SC Gum Kids'" font-size="266.9718323px" stroke-width=".80091542" style="font-feature-settings:normal;font-variant-caps:normal;font-variant-ligatures:normal;font-variant-numeric:normal;line-height:1.25" xml:space="preserve"><tspan x="-2245.1282" y="114.67583" font-family="'SC Gum Kids'" font-size="266.9718323px" stroke-width=".80091542" style="font-feature-settings:normal;font-variant-caps:normal;font-variant-ligatures:normal;font-variant-numeric:normal"/></text>
  <text x="912.07428" y="386.35889" font-family="sans-serif" font-size="10.58333302px" stroke-width=".26458332" style="line-height:1.25" xml:space="preserve"><tspan x="912.07428" y="395.72266" stroke-width=".26458332"/></text>
 </g>
 <polygon transform="matrix(3.4969519,0,0,3.4969519,-1475.5992,503.65689)" points="" fill="#f9eab0"/>
 <g transform="translate(369.22353,178.10379)" letter-spacing="0px" word-spacing="0px">
  <text x="-1884.1167" y="-155.70239" font-family="sans-serif" font-size="10.58333302px" stroke-width=".26458332" style="line-height:1.25" xml:space="preserve"><tspan x="-1884.1167" y="-146.33862" stroke-width=".26458332"/></text>
  <text x="-2906.8464" y="-108.63977" font-family="'SC Gum Kids'" font-size="266.9718323px" stroke-width=".80091542" style="font-feature-settings:normal;font-variant-caps:normal;font-variant-ligatures:normal;font-variant-numeric:normal;line-height:1.25" xml:space="preserve"><tspan x="-2906.8464" y="132.34424" font-family="'SC Gum Kids'" font-size="266.9718323px" stroke-width=".80091542" style="font-feature-settings:normal;font-variant-caps:normal;font-variant-ligatures:normal;font-variant-numeric:normal"/></text>
  <text x="250.35588" y="404.02722" font-family="sans-serif" font-size="10.58333302px" stroke-width=".26458332" style="line-height:1.25" xml:space="preserve"><tspan x="250.35588" y="413.39099" stroke-width=".26458332"/></text>
 </g>
 <polygon transform="matrix(3.4969519,0,0,3.4969519,-1626.2838,474.92539)" points="" fill="#f9eab0"/>
 <g transform="translate(369.22353,178.10379)" letter-spacing="0px" word-spacing="0px">
  <text x="-2034.8013" y="-184.43384" font-family="sans-serif" font-size="10.58333302px" stroke-width=".26458332" style="line-height:1.25" xml:space="preserve"><tspan x="-2034.8013" y="-175.07007" stroke-width=".26458332"/></text>
  <text x="-3057.531" y="-137.37134" font-family="'SC Gum Kids'" font-size="266.9718323px" stroke-width=".80091542" style="font-feature-settings:normal;font-variant-caps:normal;font-variant-ligatures:normal;font-variant-numeric:normal;line-height:1.25" xml:space="preserve"><tspan x="-3057.531" y="103.61267" font-family="'SC Gum Kids'" font-size="266.9718323px" stroke-width=".80091542" style="font-feature-settings:normal;font-variant-caps:normal;font-variant-ligatures:normal;font-variant-numeric:normal"/></text>
  <text x="99.671333" y="375.29578" font-family="sans-serif" font-size="10.58333302px" stroke-width=".26458332" style="line-height:1.25" xml:space="preserve"><tspan x="99.671333" y="384.65955" stroke-width=".26458332"/></text>
 </g>
 <polygon transform="matrix(3.4969519,0,0,3.4969519,-1626.0398,529.16279)" points="" fill="#f9eab0"/>
 <g transform="translate(357.32529,-204.60546)" letter-spacing="0px" word-spacing="0px">
  <text x="-2022.6592" y="252.51283" font-family="sans-serif" font-size="10.58333302px" stroke-width=".26458332" style="line-height:1.25" xml:space="preserve"><tspan x="-2022.6592" y="261.87659" stroke-width=".26458332"/></text>
  <text x="-3045.3889" y="299.57538" font-family="'SC Gum Kids'" font-size="266.9718323px" stroke-width=".80091542" style="font-feature-settings:normal;font-variant-caps:normal;font-variant-ligatures:normal;font-variant-numeric:normal;line-height:1.25" xml:space="preserve"><tspan x="-3045.3889" y="540.55945" font-family="'SC Gum Kids'" font-size="266.9718323px" stroke-width=".80091542" style="font-feature-settings:normal;font-variant-caps:normal;font-variant-ligatures:normal;font-variant-numeric:normal"/></text>
  <text x="111.81351" y="812.24249" font-family="sans-serif" font-size="10.58333302px" stroke-width=".26458332" style="line-height:1.25" xml:space="preserve"><tspan x="111.81351" y="821.60626" stroke-width=".26458332"/></text>
 </g>
 <polygon transform="matrix(3.4969519,0,0,3.4969519,-1777.1891,477.16269)" points="" fill="#f9eab0"/>
 <g transform="translate(369.22353,178.10379)" letter-spacing="0px" word-spacing="0px">
  <text x="-2185.7068" y="-182.19659" font-family="sans-serif" font-size="10.58333302px" stroke-width=".26458332" style="line-height:1.25" xml:space="preserve"><tspan x="-2185.7068" y="-172.83282" stroke-width=".26458332"/></text>
  <text x="-3208.4365" y="-135.13403" font-family="'SC Gum Kids'" font-size="266.9718323px" stroke-width=".80091542" style="font-feature-settings:normal;font-variant-caps:normal;font-variant-ligatures:normal;font-variant-numeric:normal;line-height:1.25" xml:space="preserve"><tspan x="-3208.4365" y="105.84998" font-family="'SC Gum Kids'" font-size="266.9718323px" stroke-width=".80091542" style="font-feature-settings:normal;font-variant-caps:normal;font-variant-ligatures:normal;font-variant-numeric:normal"/></text>
  <text x="-51.233967" y="377.53308" font-family="sans-serif" font-size="10.58333302px" stroke-width=".26458332" style="line-height:1.25" xml:space="preserve"><tspan x="-51.233967" y="386.89685" stroke-width=".26458332"/></text>
 </g>
 <polygon transform="matrix(3.4969519,0,0,3.4969519,-1772.3242,540.46499)" points="" fill="#f9eab0"/>
 <g transform="translate(369.22353,178.10379)" letter-spacing="0px" word-spacing="0px">
  <text x="-2180.8418" y="-118.89429" font-family="sans-serif" font-size="10.58333302px" stroke-width=".26458332" style="line-height:1.25" xml:space="preserve"><tspan x="-2180.8418" y="-109.53052" stroke-width=".26458332"/></text>
  <text x="-3203.5715" y="-71.831665" font-family="'SC Gum Kids'" font-size="266.9718323px" stroke-width=".80091542" style="font-feature-settings:normal;font-variant-caps:normal;font-variant-ligatures:normal;font-variant-numeric:normal;line-height:1.25" xml:space="preserve"><tspan x="-3203.5715" y="169.15234" font-family="'SC Gum Kids'" font-size="266.9718323px" stroke-width=".80091542" style="font-feature-settings:normal;font-variant-caps:normal;font-variant-ligatures:normal;font-variant-numeric:normal"/></text>
  <text x="-46.369076" y="440.83533" font-family="sans-serif" font-size="10.58333302px" stroke-width=".26458332" style="line-height:1.25" xml:space="preserve"><tspan x="-46.369076" y="450.1991" stroke-width=".26458332"/></text>
 </g>
 <polygon transform="matrix(3.4969519,0,0,3.4969519,-1478.7305,1475.7496)" points="" fill="#f9eab0"/>
 <g transform="translate(369.22353,178.10379)" letter-spacing="0px" word-spacing="0px">
  <text x="-1887.2479" y="816.39038" font-family="sans-serif" font-size="10.58333302px" stroke-width=".26458332" style="line-height:1.25" xml:space="preserve"><tspan x="-1887.2479" y="825.75415" stroke-width=".26458332"/></text>
  <text x="-2909.9778" y="863.45288" font-family="'SC Gum Kids'" font-size="266.9718323px" stroke-width=".80091542" style="font-feature-settings:normal;font-variant-caps:normal;font-variant-ligatures:normal;font-variant-numeric:normal;line-height:1.25" xml:space="preserve"><tspan x="-2909.9778" y="1104.437" font-family="'SC Gum Kids'" font-size="266.9718323px" stroke-width=".80091542" style="font-feature-settings:normal;font-variant-caps:normal;font-variant-ligatures:normal;font-variant-numeric:normal"/></text>
  <text x="247.22462" y="1376.1199" font-family="sans-serif" font-size="10.58333302px" stroke-width=".26458332" style="line-height:1.25" xml:space="preserve"><tspan x="247.22462" y="1385.4836" stroke-width=".26458332"/></text>
 </g>
 <polygon transform="matrix(3.4969519,0,0,3.4969519,-1475.5992,1510.3392)" points="" fill="#f9eab0"/>
 <g transform="translate(369.22353,178.10379)" letter-spacing="0px" word-spacing="0px">
  <text x="-1884.1167" y="850.97998" font-family="sans-serif" font-size="10.58333302px" stroke-width=".26458332" style="line-height:1.25" xml:space="preserve"><tspan x="-1884.1167" y="860.34375" stroke-width=".26458332"/></text>
  <text x="-2906.8464" y="898.04248" font-family="'SC Gum Kids'" font-size="266.9718323px" stroke-width=".80091542" style="font-feature-settings:normal;font-variant-caps:normal;font-variant-ligatures:normal;font-variant-numeric:normal;line-height:1.25" xml:space="preserve"><tspan x="-2906.8464" y="1139.0266" font-family="'SC Gum Kids'" font-size="266.9718323px" stroke-width=".80091542" style="font-feature-settings:normal;font-variant-caps:normal;font-variant-ligatures:normal;font-variant-numeric:normal"/></text>
  <text x="250.35588" y="1410.7095" font-family="sans-serif" font-size="10.58333302px" stroke-width=".26458332" style="line-height:1.25" xml:space="preserve"><tspan x="250.35588" y="1420.0732" stroke-width=".26458332"/></text>
 </g>
 <polygon transform="matrix(3.4969519,0,0,3.4969519,-1626.2838,1481.6077)" points="" fill="#f9eab0"/>
 <g transform="translate(369.22353,178.10379)" letter-spacing="0px" word-spacing="0px">
  <text x="-2034.8013" y="822.24841" font-family="sans-serif" font-size="10.58333302px" stroke-width=".26458332" style="line-height:1.25" xml:space="preserve"><tspan x="-2034.8013" y="831.61218" stroke-width=".26458332"/></text>
  <text x="-3057.531" y="869.31104" font-family="'SC Gum Kids'" font-size="266.9718323px" stroke-width=".80091542" style="font-feature-settings:normal;font-variant-caps:normal;font-variant-ligatures:normal;font-variant-numeric:normal;line-height:1.25" xml:space="preserve"><tspan x="-3057.531" y="1110.2949" font-family="'SC Gum Kids'" font-size="266.9718323px" stroke-width=".80091542" style="font-feature-settings:normal;font-variant-caps:normal;font-variant-ligatures:normal;font-variant-numeric:normal"/></text>
  <text x="99.671333" y="1381.978" font-family="sans-serif" font-size="10.58333302px" stroke-width=".26458332" style="line-height:1.25" xml:space="preserve"><tspan x="99.671333" y="1391.3418" stroke-width=".26458332"/></text>
 </g>
 <polygon transform="matrix(3.4969519,0,0,3.4969519,-1626.0398,1535.8452)" points="" fill="#f9eab0"/>
 <g transform="translate(357.32529,802.07689)" letter-spacing="0px" word-spacing="0px">
  <text x="-2022.6592" y="252.51283" font-family="sans-serif" font-size="10.58333302px" stroke-width=".26458332" style="line-height:1.25" xml:space="preserve"><tspan x="-2022.6592" y="261.87659" stroke-width=".26458332"/></text>
  <text x="-3045.3889" y="299.57538" font-family="'SC Gum Kids'" font-size="266.9718323px" stroke-width=".80091542" style="font-feature-settings:normal;font-variant-caps:normal;font-variant-ligatures:normal;font-variant-numeric:normal;line-height:1.25" xml:space="preserve"><tspan x="-3045.3889" y="540.55945" font-family="'SC Gum Kids'" font-size="266.9718323px" stroke-width=".80091542" style="font-feature-settings:normal;font-variant-caps:normal;font-variant-ligatures:normal;font-variant-numeric:normal"/></text>
  <text x="111.81351" y="812.24249" font-family="sans-serif" font-size="10.58333302px" stroke-width=".26458332" style="line-height:1.25" xml:space="preserve"><tspan x="111.81351" y="821.60626" stroke-width=".26458332"/></text>
 </g>
 <polygon transform="matrix(3.4969519,0,0,3.4969519,-1777.1891,1483.845)" points="" fill="#f9eab0"/>
 <g transform="translate(369.22353,178.10379)" letter-spacing="0px" word-spacing="0px">
  <text x="-2185.7068" y="824.48572" font-family="sans-serif" font-size="10.58333302px" stroke-width=".26458332" style="line-height:1.25" xml:space="preserve"><tspan x="-2185.7068" y="833.84949" stroke-width=".26458332"/></text>
  <text x="-3208.4365" y="871.54834" font-family="'SC Gum Kids'" font-size="266.9718323px" stroke-width=".80091542" style="font-feature-settings:normal;font-variant-caps:normal;font-variant-ligatures:normal;font-variant-numeric:normal;line-height:1.25" xml:space="preserve"><tspan x="-3208.4365" y="1112.5322" font-family="'SC Gum Kids'" font-size="266.9718323px" stroke-width=".80091542" style="font-feature-settings:normal;font-variant-caps:normal;font-variant-ligatures:normal;font-variant-numeric:normal"/></text>
  <text x="-51.233967" y="1384.2153" font-family="sans-serif" font-size="10.58333302px" stroke-width=".26458332" style="line-height:1.25" xml:space="preserve"><tspan x="-51.233967" y="1393.5791" stroke-width=".26458332"/></text>
 </g>
 <polygon transform="matrix(3.4969519,0,0,3.4969519,-1772.3242,1547.1473)" points="" fill="#f9eab0"/>
 <g transform="translate(1002.4915,815.23449)" letter-spacing="0px" word-spacing="0px">
  <text x="-2814.1099" y="250.65732" font-family="sans-serif" font-size="10.58333302px" stroke-width=".26458332" style="line-height:1.25" xml:space="preserve"><tspan x="-2814.1099" y="260.02109" stroke-width=".26458332"/></text>
  <text x="-3836.8396" y="297.71988" font-family="'SC Gum Kids'" font-size="266.9718323px" stroke-width=".80091542" style="font-feature-settings:normal;font-variant-caps:normal;font-variant-ligatures:normal;font-variant-numeric:normal;line-height:1.25" xml:space="preserve"><tspan x="-3836.8396" y="538.70392" font-family="'SC Gum Kids'" font-size="266.9718323px" stroke-width=".80091542" style="font-feature-settings:normal;font-variant-caps:normal;font-variant-ligatures:normal;font-variant-numeric:normal"/></text>
  <text x="-679.63708" y="810.38696" font-family="sans-serif" font-size="10.58333302px" stroke-width=".26458332" style="line-height:1.25" xml:space="preserve"><tspan x="-679.63708" y="819.75073" stroke-width=".26458332"/></text>
 </g>
 <polygon transform="matrix(3.4969519,0,0,3.4969519,997.52231,678.5446)" points="" fill="#f9eab0"/>
 <rect x=".11408447" y=".11408692" width="264.35516" height="87.084328" ry="3.035013" opacity="0" stroke-width=".22816895"/>
 <g transform="translate(0,-199.91138)" fill="#db92e7" style="font-feature-settings:normal;font-variant-caps:normal;font-variant-ligatures:normal;font-variant-numeric:normal" aria-label="3">
  <path d="m226.36656 231.91472 0.38757 13.13443 16.57952-0.38758-13.95263 10.11997q3.83266-0.55983 7.53614 0.43064 7.49308 1.98093 7.27777 9.77546-0.25839 7.83759-7.53615 7.7084-3.66041-0.0861-7.27776-1.72255l-3.40204 14.03876q6.20118 1.98093 13.522 2.11013 14.51247 0.30144 19.85237-8.82806 7.32082-12.5746-0.1292-21.27347-3.74654-4.34943-8.56967-6.6318l14.90004-18.30207z" fill="#db92e7" stroke-width=".26458335" style="font-feature-settings:normal;font-variant-caps:normal;font-variant-ligatures:normal;font-variant-numeric:normal"/>
 </g>
 <g transform="scale(.76157142 1.3130745)" fill="#fff" stroke="#9c27b0" stroke-width=".79374999" style="font-feature-settings:normal;font-variant-caps:normal;font-variant-ligatures:normal;font-variant-numeric:normal" aria-label="multiplications">
  <path d="m167.91333 25.522213 0.88893 13.958427-5.39711 0.455051-0.28573-7.143243-1.09001 4.910318-4.84682 0.677286-1.96836-5.069058 0.70903 6.010908-4.94207 1.015928 0.67729-14.815617 4.8574-0.645537 2.68798 8.466066 3.25944-8.212084z" style="font-feature-settings:normal;font-variant-caps:normal;font-variant-ligatures:normal;font-variant-numeric:normal"/>
  <path d="m170.41082 26.262994 5.64051 1.100589q-2.81496 8.64597 0.80428 8.741213 4.29653-0.03175 2.48691-8.952865l5.1643-1.629718q2.3705 14.688626-7.65121 14.815617-10.12753-0.09524-6.44479-14.074836z" style="font-feature-settings:normal;font-variant-caps:normal;font-variant-ligatures:normal;font-variant-numeric:normal"/>
  <path d="m186.21061 25.310562 5.21722 0.275147-1.71438 10.519087 5.31246-0.825441-1.17467 5.640517-8.37082-0.582042z" style="font-feature-settings:normal;font-variant-caps:normal;font-variant-ligatures:normal;font-variant-numeric:normal"/>
  <path d="m200.77225 30.030394 0.51854 9.01636-5.73576 1.481562 0.98418-10.773069-4.32827-0.370391 0.33864-3.915556 12.41337-0.74078 0.45505 5.788673z" style="font-feature-settings:normal;font-variant-caps:normal;font-variant-ligatures:normal;font-variant-numeric:normal"/>
  <path d="m210.87861 25.606874 1.07942 14.275905-5.98974 1.132336 0.27515-15.037851z" style="font-feature-settings:normal;font-variant-caps:normal;font-variant-ligatures:normal;font-variant-numeric:normal"/>
  <path d="m218.20176 36.073049 0.85719 3.164192-5.52411 1.100589-1.04768-14.170079q14.096-2.275255 14.80504 4.645754 0 5.291291-9.09044 5.259544zm-1.44982-6.26489 0.59263 2.063604q5.71459 0 5.37595-1.502727-0.33864-1.502726-5.96858-0.560877z" style="font-feature-settings:normal;font-variant-caps:normal;font-variant-ligatures:normal;font-variant-numeric:normal"/>
  <path d="m228.54094 25.310562 5.21722 0.275147-1.71438 10.519087 5.31246-0.825441-1.17467 5.640517-8.37082-0.582042z" style="font-feature-settings:normal;font-variant-caps:normal;font-variant-ligatures:normal;font-variant-numeric:normal"/>
  <path d="m242.79568 25.606874 1.07942 14.275905-5.98974 1.132336 0.27515-15.037851z" style="font-feature-settings:normal;font-variant-caps:normal;font-variant-ligatures:normal;font-variant-numeric:normal"/>
  <path d="m259.01878 38.1684q-2.50807 2.16943-6.05323 2.16943-3.54517 0-6.05324-2.16943-2.50807-2.169429-2.50807-5.238379 0-3.068949 2.50807-5.238378 2.50807-2.16943 6.05324-2.16943 3.54516 0 6.05323 2.16943 1.25933 1.090006 1.89429 2.412829l-5.07964 1.280492q-0.25399-0.677285-0.88894-1.227579-1.07942-0.931268-2.59273-0.931268t-2.59274 0.931268q-1.07942 0.931267-1.07942 2.243507 0 1.312241 1.07942 2.243508 1.07943 0.931267 2.59274 0.931267t2.59273-0.931267q0.58204-0.507964 0.85719-1.142919l5.1008 2.25409q-0.62437 1.322823-1.8837 2.412829z" style="font-feature-settings:normal;font-variant-caps:normal;font-variant-ligatures:normal;font-variant-numeric:normal"/>
  <path d="m266.37367 38.221313-0.74078 2.116517-4.16953-2.518655 5.22779-12.296962 3.97905-0.275147 6.25431 12.730848-4.94207 2.359916-1.09-2.973706zm3.61925-4.635171-1.18525-3.830895-1.3969 4.233033z" style="font-feature-settings:normal;font-variant-caps:normal;font-variant-ligatures:normal;font-variant-numeric:normal"/>
  <path d="m282.7661 30.030394 0.51854 9.01636-5.73576 1.481562 0.98418-10.773069-4.32827-0.370391 0.33864-3.915556 12.41337-0.74078 0.45505 5.788673z" style="font-feature-settings:normal;font-variant-caps:normal;font-variant-ligatures:normal;font-variant-numeric:normal"/>
  <path d="m292.87247 25.606874 1.07942 14.275905-5.98974 1.132336 0.27515-15.037851z" style="font-feature-settings:normal;font-variant-caps:normal;font-variant-ligatures:normal;font-variant-numeric:normal"/>
  <path d="m303.10583 40.33783q-3.57691 0-6.10615-2.16943-2.51865-2.169429-2.51865-5.238379 0-3.068949 2.51865-5.238378 2.52924-2.16943 6.10615-2.16943 3.56633 0 6.08499 2.16943 2.52923 2.169429 2.52923 5.238378 0 3.06895-2.52923 5.238379-2.51866 2.16943-6.08499 2.16943zm-0.59262-4.624589q1.52389 0 2.60331-0.931267 1.09001-0.931268 1.09001-2.243508t-1.09001-2.243508q-1.07942-0.931267-2.60331-0.931267-1.53448 0-2.62448 0.931267-1.07943 0.931268-1.07943 2.243508t1.07943 2.243508q1.09 0.931267 2.62448 0.931267z" style="font-feature-settings:normal;font-variant-caps:normal;font-variant-ligatures:normal;font-variant-numeric:normal"/>
  <path d="m317.56163 32.930021 1.04768 6.063821-5.28071 1.343988-1.06884-13.894932 5.30187-0.920685 5.2278 6.92101 0.0635-6.92101 6.56121-0.677285-2.32817 15.492902-4.20129 0.613789z" style="font-feature-settings:normal;font-variant-caps:normal;font-variant-ligatures:normal;font-variant-numeric:normal"/>
  <path d="m333.1392 34.485661q-3.82031-0.539712-3.37585-4.75158 0.44447-4.211868 9.82064-4.984396l0.88894 4.783327q-4.64576-0.105826-4.9844 1.100589-0.33864 1.206414 3.55575 1.386318t3.80973 4.740998q-0.0847 4.561093-10.25452 4.867988l-1.87312-5.005562q5.20663 0.560877 5.72518-0.518547 0.51854-1.090006-3.31235-1.619135z" style="font-feature-settings:normal;font-variant-caps:normal;font-variant-ligatures:normal;font-variant-numeric:normal"/>
 </g>
 <g transform="matrix(1.2918011,0,0,1.2918011,-58.627083,-78.732291)" fill="#fff" stroke="#9c27b0" stroke-width=".61445218">
  <path d="m83.929752 67.664158 0.146322 4.958835 6.259519-0.146326-5.267744 3.820741q1.447004-0.211361 2.845224 0.162585 2.82898 0.74789 2.74769 3.690674-0.0976 2.959042-2.84524 2.910266-1.38196-0.03252-2.747674-0.650338l-1.284419 5.300262q2.341213 0.74789 5.105163 0.796666 5.47909 0.113806 7.49515-3.332987 2.76394-4.747476-0.0487-8.031687-1.41448-1.642106-3.23543-2.503806l5.62543-6.909851z" style="font-feature-settings:normal;font-variant-caps:normal;font-variant-ligatures:normal;font-variant-numeric:normal"/>
  <path d="m111.25415 68.209592q-4.8938-2.975301-9.10474-0.04877-2.1136 1.544552-3.723195 3.820746l3.284215 4.162157q0.42272-0.68285 1.18687-1.26816 1.69088-1.69088 3.39802-1.333192 0.95925 0.211367 0.7804 1.300672-0.14632 0.92673-1.08931 2.42252-1.77217 2.78019-4.32476 4.47107-1.10558 0.943-2.048569 1.65837l-0.390199 5.7555 13.218138 0.27639 0.0163-5.51161-6.68224 0.3089q3.17041-2.92653 5.43034-6.37332 1.98353-3.00782 2.21115-5.283997 0.30891-2.845236-2.16238-4.35727z" style="font-feature-settings:normal;font-variant-caps:normal;font-variant-ligatures:normal;font-variant-numeric:normal"/>
  <path d="m107.56817 101.08934h-3.39802l0.14632-7.283803-5.609169 0.162585v11.803648l8.551959 0.30891-0.61783 9.47869 5.88557 0.14633 0.47149-21.900163h-5.284z" style="font-feature-settings:normal;font-variant-caps:normal;font-variant-ligatures:normal;font-variant-numeric:normal"/>
 </g>
 <g transform="matrix(.03698611 .03698611 -.03698611 .03698611 23.101496 39.253814)" fill="#ef5350">
  <g fill="#ef5350">
   <g fill="#ef5350">
    <path d="m477.549 182.379h-148.531v-148.532c0-18.69-15.154-33.844-33.844-33.844h-78.954c-18.69 0-33.844 15.153-33.844 33.844v148.526h-148.532c-18.691 0-33.844 15.153-33.844 33.843v78.966c0 18.691 15.153 33.844 33.844 33.844h148.532v148.527c0 18.689 15.153 33.842 33.844 33.842h78.96c18.691 0 33.844-15.152 33.844-33.842v-148.527h148.533c18.689 0 33.842-15.152 33.842-33.844v-78.966c-6e-3 -18.69-15.153-33.837-33.85-33.837z" fill="#ef5350"/>
   </g>
  </g>
 </g>
 <rect x="2.6001072" y="74.963318" width="92.677605" height="4.413219" ry="2.2066095" fill="#2196f3"/>
 <g>
  <rect transform="rotate(-45)" x="-15.484394" y="54.272167" width="2.7016292" height="6.375845" ry="1.3508146" fill="#f8b8b6"/>
  <rect transform="rotate(-45)" x="-24.883268" y="62.295597" width="2.7016292" height="6.375845" ry="1.3508146" fill="#f8b8b6"/>
  <rect x="79.103699" y="75.965645" width="13.508146" height="1.8371078" ry=".91855389" fill="#abd7fa"/>
 </g>
</svg>
