<?xml version="1.0" encoding="UTF-8"?>
<!-- Created with Inkscape (http://www.inkscape.org/) -->
<svg width="1004.69" height="329.99997" version="1.1" viewBox="0 0 265.82423 87.312494" xmlns="http://www.w3.org/2000/svg" xmlns:cc="http://creativecommons.org/ns#" xmlns:dc="http://purl.org/dc/elements/1.1/" xmlns:rdf="http://www.w3.org/1999/02/22-rdf-syntax-ns#">
 <metadata>
  <rdf:RDF>
   <cc:Work rdf:about="">
    <dc:format>image/svg+xml</dc:format>
    <dc:type rdf:resource="http://purl.org/dc/dcmitype/StillImage"/>
    <dc:title/>
   </cc:Work>
  </rdf:RDF>
 </metadata>
 <g fill="#f9eab0">
  <g transform="translate(68.288401,120.02829)">
   <polygon transform="matrix(3.4969519,0,0,3.4969519,113.27756,365.73105)" points=""/>
   <polygon transform="matrix(3.4969519,0,0,3.4969519,342.59567,411.52488)" points=""/>
   <polygon transform="matrix(3.4969519,0,0,3.4969519,289.53119,373.17891)" points=""/>
   <polygon transform="matrix(3.4969519,0,0,3.4969519,300.01292,440.20544)" points=""/>
  </g>
  <polygon transform="matrix(3.4969519,0,0,3.4969519,359.60972,554.70364)" points=""/>
  <polygon transform="matrix(3.4969519,0,0,3.4969519,375.62486,563.63077)" points=""/>
 </g>
 <rect x=".11408447" y=".11408703" width="264.35516" height="87.084328" ry="3.035013" opacity="0" stroke-width=".22816895"/>
 <g transform="translate(0,-507.42937)" fill="#ffba73" style="font-feature-settings:normal;font-variant-caps:normal;font-variant-ligatures:normal;font-variant-numeric:normal" aria-label="6">
  <path d="m246.49966 579.49508q-1.50723 0.12919-2.32544-0.77515-0.73208-0.77515-0.73208-2.02399 0-1.24885 0.60289-2.23932 0.64595-1.03352 1.67948-1.20578 2.45463-0.43064 3.66042 0.43064 1.07659 0.73208 0.9474 2.11012-0.12919 1.29191-1.16272 2.3685-1.11966 1.16272-2.66995 1.33498zm-1.03353-19.68011q-0.51676-1.80868 0.51676-3.31591 2.15319-3.05752 10.07691-1.67948l2.28237-13.39281q-1.98093-0.99046-5.51215-1.24884-7.10551-0.43064-14.85697 3.35896-4.04799 1.98093-7.7084 9.43095-3.74654 7.7084-4.43556 16.06276-0.73209 9.6032 3.22977 16.01969 4.65088 7.57921 15.20149 9.2587 9.1295 1.46416 15.28761-3.61735 5.55521-4.56475 6.20117-12.01477 0.64595-7.49309-4.26331-12.78992-5.55521-5.98585-16.01969-6.07198z" fill="#ffba73" stroke-width=".26458335" style="font-feature-settings:normal;font-variant-caps:normal;font-variant-ligatures:normal;font-variant-numeric:normal"/>
 </g>
 <g transform="translate(-123.39523,-115.4336)" fill="#fff" stroke="#f57c00" stroke-width=".79374999" style="font-feature-settings:normal;font-variant-caps:normal;font-variant-ligatures:normal;font-variant-numeric:normal" aria-label="decimals">
  <path d="m243.4884 169.17055-0.88194-19.29254q18.79644 0 18.79644 9.64627t-17.9145 9.64627zm4.90582-14.18002 0.92328 6.66971q5.96691 0.0276 5.96691-3.32107 0-3.34864-6.89019-3.34864z" style="font-feature-settings:normal;font-variant-caps:normal;font-variant-ligatures:normal;font-variant-numeric:normal"/>
  <path d="m276.72668 147.39754 0.35829 7.30361-8.57139 0.92328 0.11024 1.66743 5.6224-0.52366 0.49609 4.9885-5.87044 0.42719 0.0965 1.35048 8.32335-0.6339 1.24023 6.27008-16.41243 0.56499 1.66742-19.88509z" style="font-feature-settings:normal;font-variant-caps:normal;font-variant-ligatures:normal;font-variant-numeric:normal"/>
  <path d="m297.30079 166.34557q-3.26595 2.82498-7.88238 2.82498-4.61642 0-7.88237-2.82498-3.26596-2.82498-3.26596-6.82129t3.26596-6.82129q3.26595-2.82498 7.88237-2.82498 4.61643 0 7.88238 2.82498 1.63987 1.41938 2.46669 3.14193l-6.61458 1.66742q-0.33073-0.88194-1.15755-1.59852-1.4056-1.21267-3.3762-1.21267-1.97059 0-3.37619 1.21267t-1.4056 2.92144 1.4056 2.92144q1.4056 1.21268 3.37619 1.21268 1.9706 0 3.3762-1.21268 0.75792-0.66146 1.11621-1.48828l6.64214 2.93522q-0.81304 1.72255-2.45291 3.14193z" style="font-feature-settings:normal;font-variant-caps:normal;font-variant-ligatures:normal;font-variant-numeric:normal"/>
  <path d="m306.87816 149.98826 1.4056 18.58973-7.7997 1.4745 0.35829-19.58192z" style="font-feature-settings:normal;font-variant-caps:normal;font-variant-ligatures:normal;font-variant-numeric:normal"/>
  <path d="m331.02139 149.87801 1.15755 18.17633-7.028 0.59255-0.37207-9.30176-1.41938 6.3941-6.31141 0.88195-2.56315-6.60081 0.92328 7.82726-6.43544 1.32292 0.88195-19.29254 6.32519-0.8406 3.50022 11.0243 4.24436-10.69357z" style="font-feature-settings:normal;font-variant-caps:normal;font-variant-ligatures:normal;font-variant-numeric:normal"/>
  <path d="m339.28962 166.41447-0.96463 2.75608-5.42947-3.27973 6.80751-16.01281 5.18142-0.35829 8.14421 16.5778-6.43544 3.07303-1.41938-3.87229zm4.71289-6.03581-1.5434-4.98849-1.81902 5.51215z" style="font-feature-settings:normal;font-variant-caps:normal;font-variant-ligatures:normal;font-variant-numeric:normal"/>
  <path d="m354.6823 149.6024 6.79373 0.35829-2.23242 13.6977 6.91775-1.07487-1.52962 7.34495-10.90028-0.75792z" style="font-feature-settings:normal;font-variant-caps:normal;font-variant-ligatures:normal;font-variant-numeric:normal"/>
  <path d="m370.06122 161.55q-4.97472-0.7028-4.39595-6.1874 0.57878-5.48459 12.7882-6.49056l1.15755 6.22874q-6.04959-0.13781-6.49056 1.43316-0.44097 1.57096 4.63021 1.80523 5.07118 0.23426 4.96094 6.17361-0.11025 5.93934-13.35319 6.33897l-2.43913-6.51812q6.77995 0.73036 7.45519-0.67524 0.67524-1.41937-4.31326-2.10839z" style="font-feature-settings:normal;font-variant-caps:normal;font-variant-ligatures:normal;font-variant-numeric:normal"/>
 </g>
 <g transform="translate(-88.40709,-113.77733)">
  <g fill="#fff" stroke-linecap="round" stroke-width="5.44852257">
   <path d="m174.15107 136.18342-55.67464 1.18908c-3.30472 0.0706-14.3802 9.73761-14.303 13.34905l0.30954 14.51178c0.0771 3.61144 11.57086 13.52094 14.87558 13.45034l3.9982-0.0853c-3.9341-0.95209-14.16153-9.95851-14.23427-13.36508l-0.31006-14.51178c-0.0772-3.61144 10.99829-13.27847 14.30301-13.34905l52.07175-1.11208c-0.33717-0.0565-0.68314-0.0845-1.03611-0.077z" stroke="#0c82df"/>
   <path d="m106.88406 165.23328-0.30991-14.51158c-0.0772-3.61144 10.99839-13.27852 14.30311-13.3491l55.67493-1.18898c3.30469-0.0706 6.02727 2.78001 6.10437 6.39146l0.60383 28.27359c0.0772 3.61144-2.52125 6.57566-5.82597 6.64624l-55.67493 1.18898c-3.30472 0.0706-14.79831-9.83917-14.87543-13.45061z" stroke="#2196f3"/>
   <circle cx="119.98148" cy="157.31606" r="6.3859897" stroke="#2196f3"/>
  </g>
  <path d="m91.621309 163.49841s1.541785-5.28535 25.981451-6.07174" fill="none" stroke="#0c86e6" stroke-linecap="round" stroke-width="5.44852257"/>
  <g transform="translate(62.29791,118.58996)" fill="#f57c00" stroke-width=".36323482" style="font-feature-settings:normal;font-variant-caps:normal;font-variant-ligatures:normal;font-variant-numeric:normal" aria-label="5.99">
   <path d="m72.755579 32.793984 7.449152 0.312155 0.439855-4.185714-11.507166-0.439854 0.184455 8.768715q1.759419-0.36891 3.277627-0.227021 3.036416 0.297966 3.10736 2.880338 0.08513 2.596562-2.553994 2.951283-1.319565 0.184455-2.667506-0.156077l-0.2554 4.285036q2.809395 0.340532 5.590411-0.368911 5.547845-1.390508 5.278256-6.569442-0.24121-5.178934-4.341791-6.214721-2.029007-0.652688-4.029636-0.1277z" style="font-feature-settings:normal;font-variant-caps:normal;font-variant-ligatures:normal;font-variant-numeric:normal"/>
   <path d="m83.723568 47.507833q-0.950653 0.08513-1.518208-0.595933-0.510799-0.595932-0.539176-1.532397-0.02838-0.908087 0.425665-1.546585 0.496611-0.695255 1.362131-0.652688 1.61753 0.07094 2.36954 0.737821 0.638499 0.567554 0.510799 1.418886-0.141889 0.794576-0.865521 1.418886-0.752009 0.666876-1.74523 0.75201z" style="font-feature-settings:normal;font-variant-caps:normal;font-variant-ligatures:normal;font-variant-numeric:normal"/>
   <path d="m93.556448 36.45471q-0.808765 0.1277-1.206053-0.141888-0.354721-0.241211-0.312155-0.695255 0.02838-0.425665 0.383099-0.794576 0.368911-0.36891 0.87971-0.425666 0.49661-0.04257 0.766198 0.2554 0.241211 0.24121 0.241211 0.666876 0 0.397288-0.198644 0.723632-0.227022 0.354722-0.553366 0.411477zm0.482422-6.952542q-3.008039-0.482421-5.037046 1.191865-1.830363 1.518208-2.043196 3.958692-0.212833 2.48305 1.404697 4.22828 1.830363 1.972252 5.278256 2.00063 0.170267 0.581743-0.170266 1.092542-0.709443 1.007409-3.320193 0.539177l-0.75201 4.426924q0.652688 0.326344 1.816174 0.411477 2.341162 0.141889 4.895157-1.106731 1.333753-0.652688 2.539806-3.107361 1.234431-2.539806 1.447261-5.292445 0.2554-3.178304-1.049973-5.292444-1.532397-2.483051-5.008667-3.050606z" style="font-feature-settings:normal;font-variant-caps:normal;font-variant-ligatures:normal;font-variant-numeric:normal"/>
   <path d="m107.46153 36.45471q-0.80876 0.1277-1.20605-0.141888-0.35472-0.241211-0.31216-0.695255 0.0284-0.425665 0.3831-0.794576 0.36891-0.36891 0.87971-0.425666 0.49661-0.04257 0.7662 0.2554 0.24121 0.24121 0.24121 0.666876 0 0.397288-0.19864 0.723632-0.22702 0.354722-0.55337 0.411477zm0.48242-6.952542q-3.00803-0.482421-5.03704 1.191865-1.83036 1.518208-2.0432 3.958692-0.21283 2.48305 1.4047 4.22828 1.83036 1.972252 5.27826 2.00063 0.17026 0.581743-0.17027 1.092542-0.70944 1.007409-3.32019 0.539177l-0.75201 4.426924q0.65268 0.326344 1.81617 0.411477 2.34116 0.141889 4.89516-1.106731 1.33375-0.652688 2.5398-3.107361 1.23443-2.539806 1.44727-5.292445 0.2554-3.178304-1.04998-5.292444-1.5324-2.483051-5.00867-3.050606z" style="font-feature-settings:normal;font-variant-caps:normal;font-variant-ligatures:normal;font-variant-numeric:normal"/>
  </g>
  <rect transform="rotate(-1.6246275)" x="177.31679" y="147.73949" width="2.1975884" height="16.481913" ry="1.0987942" fill="#add8fb"/>
 </g>
</svg>
