<?xml version="1.0" encoding="UTF-8"?>
<!-- Created with Inkscape (http://www.inkscape.org/) -->
<svg width="1e3" height="330" version="1.1" viewBox="0 0 264.58333 87.312503" xmlns="http://www.w3.org/2000/svg" xmlns:cc="http://creativecommons.org/ns#" xmlns:dc="http://purl.org/dc/elements/1.1/" xmlns:rdf="http://www.w3.org/1999/02/22-rdf-syntax-ns#">
 <metadata>
  <rdf:RDF>
   <cc:Work rdf:about="">
    <dc:format>image/svg+xml</dc:format>
    <dc:type rdf:resource="http://purl.org/dc/dcmitype/StillImage"/>
    <dc:title/>
   </cc:Work>
  </rdf:RDF>
 </metadata>
 <g transform="translate(13.388688,17.784513)" fill="#f9eab0">
  <g transform="translate(-4.3209865,-13.021881)">
   <polygon transform="matrix(3.4969519,0,0,3.4969519,113.27756,365.73105)" points=""/>
   <polygon transform="matrix(3.4969519,0,0,3.4969519,342.59567,411.52488)" points=""/>
   <polygon transform="matrix(3.4969519,0,0,3.4969519,289.53119,373.17891)" points=""/>
   <polygon transform="matrix(3.4969519,0,0,3.4969519,300.01292,440.20544)" points=""/>
  </g>
  <polygon transform="matrix(3.4969519,0,0,3.4969519,287.00033,421.65347)" points=""/>
  <polygon transform="matrix(3.4969519,0,0,3.4969519,303.01547,430.5806)" points=""/>
  <polygon transform="matrix(3.4969519,0,0,3.4969519,329.47079,438.07209)" points=""/>
  <polygon transform="matrix(3.4969519,0,0,3.4969519,294.31957,398.16563)" points=""/>
  <g transform="translate(300.0781,58.644218)">
   <polygon transform="matrix(3.4969519,0,0,3.4969519,454.53799,116.97428)" points=""/>
   <polygon transform="matrix(9.1061708,0,0,9.0930789,1282.4585,1088.9576)" points=""/>
   <polygon transform="matrix(3.4969519,0,0,3.4969519,828.57006,-535.68054)" points=""/>
   <polygon transform="matrix(3.4969519,0,0,3.4969519,-1847.954,290.9635)" points=""/>
  </g>
 </g>
 <g transform="translate(-351.38287,59.507533)" letter-spacing="0px" word-spacing="0px">
  <text x="-1222.3983" y="-173.37076" font-family="sans-serif" font-size="10.58333302px" stroke-width=".26458332" style="line-height:1.25" xml:space="preserve"><tspan x="-1222.3983" y="-164.00699" stroke-width=".26458332"/></text>
  <text x="-2245.1282" y="-126.3082" font-family="'SC Gum Kids'" font-size="266.9718323px" stroke-width=".80091542" style="font-feature-settings:normal;font-variant-caps:normal;font-variant-ligatures:normal;font-variant-numeric:normal;line-height:1.25" xml:space="preserve"><tspan x="-2245.1282" y="114.67583" font-family="'SC Gum Kids'" font-size="266.9718323px" stroke-width=".80091542" style="font-feature-settings:normal;font-variant-caps:normal;font-variant-ligatures:normal;font-variant-numeric:normal"/></text>
  <text x="912.07428" y="386.35889" font-family="sans-serif" font-size="10.58333302px" stroke-width=".26458332" style="line-height:1.25" xml:space="preserve"><tspan x="912.07428" y="395.72266" stroke-width=".26458332"/></text>
 </g>
 <polygon transform="matrix(3.4969519,0,0,3.4969519,-1531.3559,401.98183)" points="" fill="#f9eab0"/>
 <g transform="translate(313.46678,76.428733)" letter-spacing="0px" word-spacing="0px">
  <text x="-1884.1167" y="-155.70239" font-family="sans-serif" font-size="10.58333302px" stroke-width=".26458332" style="line-height:1.25" xml:space="preserve"><tspan x="-1884.1167" y="-146.33862" stroke-width=".26458332"/></text>
  <text x="-2906.8464" y="-108.63977" font-family="'SC Gum Kids'" font-size="266.9718323px" stroke-width=".80091542" style="font-feature-settings:normal;font-variant-caps:normal;font-variant-ligatures:normal;font-variant-numeric:normal;line-height:1.25" xml:space="preserve"><tspan x="-2906.8464" y="132.34424" font-family="'SC Gum Kids'" font-size="266.9718323px" stroke-width=".80091542" style="font-feature-settings:normal;font-variant-caps:normal;font-variant-ligatures:normal;font-variant-numeric:normal"/></text>
  <text x="250.35588" y="404.02722" font-family="sans-serif" font-size="10.58333302px" stroke-width=".26458332" style="line-height:1.25" xml:space="preserve"><tspan x="250.35588" y="413.39099" stroke-width=".26458332"/></text>
 </g>
 <polygon transform="matrix(3.4969519,0,0,3.4969519,-1682.0405,373.25033)" points="" fill="#f9eab0"/>
 <g transform="translate(313.46678,76.428733)" letter-spacing="0px" word-spacing="0px">
  <text x="-2034.8013" y="-184.43384" font-family="sans-serif" font-size="10.58333302px" stroke-width=".26458332" style="line-height:1.25" xml:space="preserve"><tspan x="-2034.8013" y="-175.07007" stroke-width=".26458332"/></text>
  <text x="-3057.531" y="-137.37134" font-family="'SC Gum Kids'" font-size="266.9718323px" stroke-width=".80091542" style="font-feature-settings:normal;font-variant-caps:normal;font-variant-ligatures:normal;font-variant-numeric:normal;line-height:1.25" xml:space="preserve"><tspan x="-3057.531" y="103.61267" font-family="'SC Gum Kids'" font-size="266.9718323px" stroke-width=".80091542" style="font-feature-settings:normal;font-variant-caps:normal;font-variant-ligatures:normal;font-variant-numeric:normal"/></text>
  <text x="99.671333" y="375.29578" font-family="sans-serif" font-size="10.58333302px" stroke-width=".26458332" style="line-height:1.25" xml:space="preserve"><tspan x="99.671333" y="384.65955" stroke-width=".26458332"/></text>
 </g>
 <polygon transform="matrix(3.4969519,0,0,3.4969519,-1681.7965,427.48773)" points="" fill="#f9eab0"/>
 <g transform="translate(301.56854,-306.28052)" letter-spacing="0px" word-spacing="0px">
  <text x="-2022.6592" y="252.51283" font-family="sans-serif" font-size="10.58333302px" stroke-width=".26458332" style="line-height:1.25" xml:space="preserve"><tspan x="-2022.6592" y="261.87659" stroke-width=".26458332"/></text>
  <text x="-3045.3889" y="299.57538" font-family="'SC Gum Kids'" font-size="266.9718323px" stroke-width=".80091542" style="font-feature-settings:normal;font-variant-caps:normal;font-variant-ligatures:normal;font-variant-numeric:normal;line-height:1.25" xml:space="preserve"><tspan x="-3045.3889" y="540.55945" font-family="'SC Gum Kids'" font-size="266.9718323px" stroke-width=".80091542" style="font-feature-settings:normal;font-variant-caps:normal;font-variant-ligatures:normal;font-variant-numeric:normal"/></text>
  <text x="111.81351" y="812.24249" font-family="sans-serif" font-size="10.58333302px" stroke-width=".26458332" style="line-height:1.25" xml:space="preserve"><tspan x="111.81351" y="821.60626" stroke-width=".26458332"/></text>
 </g>
 <polygon transform="matrix(3.4969519,0,0,3.4969519,-1832.9458,375.48763)" points="" fill="#f9eab0"/>
 <g transform="translate(313.46678,76.428733)" letter-spacing="0px" word-spacing="0px">
  <text x="-2185.7068" y="-182.19659" font-family="sans-serif" font-size="10.58333302px" stroke-width=".26458332" style="line-height:1.25" xml:space="preserve"><tspan x="-2185.7068" y="-172.83282" stroke-width=".26458332"/></text>
  <text x="-3208.4365" y="-135.13403" font-family="'SC Gum Kids'" font-size="266.9718323px" stroke-width=".80091542" style="font-feature-settings:normal;font-variant-caps:normal;font-variant-ligatures:normal;font-variant-numeric:normal;line-height:1.25" xml:space="preserve"><tspan x="-3208.4365" y="105.84998" font-family="'SC Gum Kids'" font-size="266.9718323px" stroke-width=".80091542" style="font-feature-settings:normal;font-variant-caps:normal;font-variant-ligatures:normal;font-variant-numeric:normal"/></text>
  <text x="-51.233967" y="377.53308" font-family="sans-serif" font-size="10.58333302px" stroke-width=".26458332" style="line-height:1.25" xml:space="preserve"><tspan x="-51.233967" y="386.89685" stroke-width=".26458332"/></text>
 </g>
 <polygon transform="matrix(3.4969519,0,0,3.4969519,-1828.0809,438.78993)" points="" fill="#f9eab0"/>
 <g transform="translate(313.46678,76.428733)" letter-spacing="0px" word-spacing="0px">
  <text x="-2180.8418" y="-118.89429" font-family="sans-serif" font-size="10.58333302px" stroke-width=".26458332" style="line-height:1.25" xml:space="preserve"><tspan x="-2180.8418" y="-109.53052" stroke-width=".26458332"/></text>
  <text x="-3203.5715" y="-71.831665" font-family="'SC Gum Kids'" font-size="266.9718323px" stroke-width=".80091542" style="font-feature-settings:normal;font-variant-caps:normal;font-variant-ligatures:normal;font-variant-numeric:normal;line-height:1.25" xml:space="preserve"><tspan x="-3203.5715" y="169.15234" font-family="'SC Gum Kids'" font-size="266.9718323px" stroke-width=".80091542" style="font-feature-settings:normal;font-variant-caps:normal;font-variant-ligatures:normal;font-variant-numeric:normal"/></text>
  <text x="-46.369076" y="440.83533" font-family="sans-serif" font-size="10.58333302px" stroke-width=".26458332" style="line-height:1.25" xml:space="preserve"><tspan x="-46.369076" y="450.1991" stroke-width=".26458332"/></text>
 </g>
 <polygon transform="matrix(3.4969519,0,0,3.4969519,-1534.4872,1374.0746)" points="" fill="#f9eab0"/>
 <g transform="translate(313.46678,76.428733)" letter-spacing="0px" word-spacing="0px">
  <text x="-1887.2479" y="816.39038" font-family="sans-serif" font-size="10.58333302px" stroke-width=".26458332" style="line-height:1.25" xml:space="preserve"><tspan x="-1887.2479" y="825.75415" stroke-width=".26458332"/></text>
  <text x="-2909.9778" y="863.45288" font-family="'SC Gum Kids'" font-size="266.9718323px" stroke-width=".80091542" style="font-feature-settings:normal;font-variant-caps:normal;font-variant-ligatures:normal;font-variant-numeric:normal;line-height:1.25" xml:space="preserve"><tspan x="-2909.9778" y="1104.437" font-family="'SC Gum Kids'" font-size="266.9718323px" stroke-width=".80091542" style="font-feature-settings:normal;font-variant-caps:normal;font-variant-ligatures:normal;font-variant-numeric:normal"/></text>
  <text x="247.22462" y="1376.1199" font-family="sans-serif" font-size="10.58333302px" stroke-width=".26458332" style="line-height:1.25" xml:space="preserve"><tspan x="247.22462" y="1385.4836" stroke-width=".26458332"/></text>
 </g>
 <polygon transform="matrix(3.4969519,0,0,3.4969519,-1531.3559,1408.6642)" points="" fill="#f9eab0"/>
 <g transform="translate(313.46678,76.428733)" letter-spacing="0px" word-spacing="0px">
  <text x="-1884.1167" y="850.97998" font-family="sans-serif" font-size="10.58333302px" stroke-width=".26458332" style="line-height:1.25" xml:space="preserve"><tspan x="-1884.1167" y="860.34375" stroke-width=".26458332"/></text>
  <text x="-2906.8464" y="898.04248" font-family="'SC Gum Kids'" font-size="266.9718323px" stroke-width=".80091542" style="font-feature-settings:normal;font-variant-caps:normal;font-variant-ligatures:normal;font-variant-numeric:normal;line-height:1.25" xml:space="preserve"><tspan x="-2906.8464" y="1139.0266" font-family="'SC Gum Kids'" font-size="266.9718323px" stroke-width=".80091542" style="font-feature-settings:normal;font-variant-caps:normal;font-variant-ligatures:normal;font-variant-numeric:normal"/></text>
  <text x="250.35588" y="1410.7095" font-family="sans-serif" font-size="10.58333302px" stroke-width=".26458332" style="line-height:1.25" xml:space="preserve"><tspan x="250.35588" y="1420.0732" stroke-width=".26458332"/></text>
 </g>
 <polygon transform="matrix(3.4969519,0,0,3.4969519,-1682.0405,1379.9327)" points="" fill="#f9eab0"/>
 <g transform="translate(313.46678,76.428733)" letter-spacing="0px" word-spacing="0px">
  <text x="-2034.8013" y="822.24841" font-family="sans-serif" font-size="10.58333302px" stroke-width=".26458332" style="line-height:1.25" xml:space="preserve"><tspan x="-2034.8013" y="831.61218" stroke-width=".26458332"/></text>
  <text x="-3057.531" y="869.31104" font-family="'SC Gum Kids'" font-size="266.9718323px" stroke-width=".80091542" style="font-feature-settings:normal;font-variant-caps:normal;font-variant-ligatures:normal;font-variant-numeric:normal;line-height:1.25" xml:space="preserve"><tspan x="-3057.531" y="1110.2949" font-family="'SC Gum Kids'" font-size="266.9718323px" stroke-width=".80091542" style="font-feature-settings:normal;font-variant-caps:normal;font-variant-ligatures:normal;font-variant-numeric:normal"/></text>
  <text x="99.671333" y="1381.978" font-family="sans-serif" font-size="10.58333302px" stroke-width=".26458332" style="line-height:1.25" xml:space="preserve"><tspan x="99.671333" y="1391.3418" stroke-width=".26458332"/></text>
 </g>
 <polygon transform="matrix(3.4969519,0,0,3.4969519,-1681.7965,1434.1702)" points="" fill="#f9eab0"/>
 <g transform="translate(301.56854,700.40183)" letter-spacing="0px" word-spacing="0px">
  <text x="-2022.6592" y="252.51283" font-family="sans-serif" font-size="10.58333302px" stroke-width=".26458332" style="line-height:1.25" xml:space="preserve"><tspan x="-2022.6592" y="261.87659" stroke-width=".26458332"/></text>
  <text x="-3045.3889" y="299.57538" font-family="'SC Gum Kids'" font-size="266.9718323px" stroke-width=".80091542" style="font-feature-settings:normal;font-variant-caps:normal;font-variant-ligatures:normal;font-variant-numeric:normal;line-height:1.25" xml:space="preserve"><tspan x="-3045.3889" y="540.55945" font-family="'SC Gum Kids'" font-size="266.9718323px" stroke-width=".80091542" style="font-feature-settings:normal;font-variant-caps:normal;font-variant-ligatures:normal;font-variant-numeric:normal"/></text>
  <text x="111.81351" y="812.24249" font-family="sans-serif" font-size="10.58333302px" stroke-width=".26458332" style="line-height:1.25" xml:space="preserve"><tspan x="111.81351" y="821.60626" stroke-width=".26458332"/></text>
 </g>
 <polygon transform="matrix(3.4969519,0,0,3.4969519,-1832.9458,1382.17)" points="" fill="#f9eab0"/>
 <g transform="translate(313.46678,76.428733)" letter-spacing="0px" word-spacing="0px">
  <text x="-2185.7068" y="824.48572" font-family="sans-serif" font-size="10.58333302px" stroke-width=".26458332" style="line-height:1.25" xml:space="preserve"><tspan x="-2185.7068" y="833.84949" stroke-width=".26458332"/></text>
  <text x="-3208.4365" y="871.54834" font-family="'SC Gum Kids'" font-size="266.9718323px" stroke-width=".80091542" style="font-feature-settings:normal;font-variant-caps:normal;font-variant-ligatures:normal;font-variant-numeric:normal;line-height:1.25" xml:space="preserve"><tspan x="-3208.4365" y="1112.5322" font-family="'SC Gum Kids'" font-size="266.9718323px" stroke-width=".80091542" style="font-feature-settings:normal;font-variant-caps:normal;font-variant-ligatures:normal;font-variant-numeric:normal"/></text>
  <text x="-51.233967" y="1384.2153" font-family="sans-serif" font-size="10.58333302px" stroke-width=".26458332" style="line-height:1.25" xml:space="preserve"><tspan x="-51.233967" y="1393.5791" stroke-width=".26458332"/></text>
 </g>
 <polygon transform="matrix(3.4969519,0,0,3.4969519,-1828.0809,1445.4723)" points="" fill="#f9eab0"/>
 <g transform="translate(946.73479,713.55943)" letter-spacing="0px" word-spacing="0px">
  <text x="-2814.1099" y="250.65732" font-family="sans-serif" font-size="10.58333302px" stroke-width=".26458332" style="line-height:1.25" xml:space="preserve"><tspan x="-2814.1099" y="260.02109" stroke-width=".26458332"/></text>
  <text x="-3836.8396" y="297.71988" font-family="'SC Gum Kids'" font-size="266.9718323px" stroke-width=".80091542" style="font-feature-settings:normal;font-variant-caps:normal;font-variant-ligatures:normal;font-variant-numeric:normal;line-height:1.25" xml:space="preserve"><tspan x="-3836.8396" y="538.70392" font-family="'SC Gum Kids'" font-size="266.9718323px" stroke-width=".80091542" style="font-feature-settings:normal;font-variant-caps:normal;font-variant-ligatures:normal;font-variant-numeric:normal"/></text>
  <text x="-679.63708" y="810.38696" font-family="sans-serif" font-size="10.58333302px" stroke-width=".26458332" style="line-height:1.25" xml:space="preserve"><tspan x="-679.63708" y="819.75073" stroke-width=".26458332"/></text>
 </g>
 <g fill="#f9eab0">
  <polygon transform="matrix(3.4969519,0,0,3.4969519,941.76556,576.86954)" points=""/>
  <polygon transform="matrix(3.4969519,0,0,3.4969519,171.3544,395.64991)" points=""/>
  <g transform="translate(66.060624,217.32219)">
   <polygon transform="matrix(3.4969519,0,0,3.4969519,113.27756,365.73105)" points=""/>
   <polygon transform="matrix(3.4969519,0,0,3.4969519,342.59567,411.52488)" points=""/>
   <polygon transform="matrix(3.4969519,0,0,3.4969519,289.53119,373.17891)" points=""/>
   <polygon transform="matrix(3.4969519,0,0,3.4969519,300.01292,440.20544)" points=""/>
   <polygon transform="matrix(3.4969519,0,0,3.4969519,291.32132,434.67535)" points=""/>
   <polygon transform="matrix(3.4969519,0,0,3.4969519,307.33646,443.60248)" points=""/>
   <polygon transform="matrix(3.4969519,0,0,3.4969519,333.79178,451.09397)" points=""/>
  </g>
 </g>
 <g fill="#f9eab0">
  <g transform="translate(333.36925,-204.55217)">
   <polygon transform="matrix(3.4969519,0,0,3.4969519,113.27756,365.73105)" points=""/>
   <polygon transform="matrix(3.4969519,0,0,3.4969519,342.59567,411.52488)" points=""/>
   <polygon transform="matrix(3.4969519,0,0,3.4969519,289.53119,373.17891)" points=""/>
   <polygon transform="matrix(3.4969519,0,0,3.4969519,300.01292,440.20544)" points=""/>
  </g>
  <polygon transform="matrix(3.4969519,0,0,3.4969519,624.69057,230.12318)" points=""/>
  <polygon transform="matrix(3.4969519,0,0,3.4969519,640.70571,239.05031)" points=""/>
  <polygon transform="matrix(3.4969519,0,0,3.4969519,667.16103,246.5418)" points=""/>
  <polygon transform="matrix(3.4969519,0,0,3.4969519,632.00981,206.63534)" points=""/>
  <g transform="translate(637.76834,-132.88607)">
   <polygon transform="matrix(3.4969519,0,0,3.4969519,454.53799,116.97428)" points=""/>
   <polygon transform="matrix(9.1061708,0,0,9.0930789,1282.4585,1088.9576)" points=""/>
   <polygon transform="matrix(3.4969519,0,0,3.4969519,828.57006,-535.68054)" points=""/>
   <polygon transform="matrix(3.4969519,0,0,3.4969519,-1847.954,290.9635)" points=""/>
  </g>
 </g>
 <g letter-spacing="0px" word-spacing="0px">
  <text x="-1249.4796" y="-323.17804" font-family="sans-serif" font-size="10.58333302px" stroke-width=".26458332" style="line-height:1.25" xml:space="preserve"><tspan x="-1249.4796" y="-313.81427" stroke-width=".26458332"/></text>
  <text x="-2272.2095" y="-276.11548" font-family="'SC Gum Kids'" font-size="266.9718323px" stroke-width=".80091542" style="font-feature-settings:normal;font-variant-caps:normal;font-variant-ligatures:normal;font-variant-numeric:normal;line-height:1.25" xml:space="preserve"><tspan x="-2272.2095" y="-35.131439" font-family="'SC Gum Kids'" font-size="266.9718323px" stroke-width=".80091542" style="font-feature-settings:normal;font-variant-caps:normal;font-variant-ligatures:normal;font-variant-numeric:normal"/></text>
  <text x="884.99292" y="236.55162" font-family="sans-serif" font-size="10.58333302px" stroke-width=".26458332" style="line-height:1.25" xml:space="preserve"><tspan x="884.99292" y="245.91539" stroke-width=".26458332"/></text>
 </g>
 <polygon transform="matrix(3.4969519,0,0,3.4969519,-1207.0543,192.66703)" points="" fill="#f9eab0"/>
 <g letter-spacing="0px" word-spacing="0px">
  <text x="-1246.3483" y="-288.58844" font-family="sans-serif" font-size="10.58333302px" stroke-width=".26458332" style="line-height:1.25" xml:space="preserve"><tspan x="-1246.3483" y="-279.22467" stroke-width=".26458332"/></text>
  <text x="-2269.0781" y="-241.52583" font-family="'SC Gum Kids'" font-size="266.9718323px" stroke-width=".80091542" style="font-feature-settings:normal;font-variant-caps:normal;font-variant-ligatures:normal;font-variant-numeric:normal;line-height:1.25" xml:space="preserve"><tspan x="-2269.0781" y="-0.54182434" font-family="'SC Gum Kids'" font-size="266.9718323px" stroke-width=".80091542" style="font-feature-settings:normal;font-variant-caps:normal;font-variant-ligatures:normal;font-variant-numeric:normal"/></text>
  <text x="888.12421" y="271.14117" font-family="sans-serif" font-size="10.58333302px" stroke-width=".26458332" style="line-height:1.25" xml:space="preserve"><tspan x="888.12421" y="280.50494" stroke-width=".26458332"/></text>
 </g>
 <polygon transform="matrix(3.4969519,0,0,3.4969519,-1357.7389,163.93553)" points="" fill="#f9eab0"/>
 <g letter-spacing="0px" word-spacing="0px">
  <text x="-1397.0328" y="-317.31989" font-family="sans-serif" font-size="10.58333302px" stroke-width=".26458332" style="line-height:1.25" xml:space="preserve"><tspan x="-1397.0328" y="-307.95612" stroke-width=".26458332"/></text>
  <text x="-2419.7627" y="-270.25739" font-family="'SC Gum Kids'" font-size="266.9718323px" stroke-width=".80091542" style="font-feature-settings:normal;font-variant-caps:normal;font-variant-ligatures:normal;font-variant-numeric:normal;line-height:1.25" xml:space="preserve"><tspan x="-2419.7627" y="-29.273399" font-family="'SC Gum Kids'" font-size="266.9718323px" stroke-width=".80091542" style="font-feature-settings:normal;font-variant-caps:normal;font-variant-ligatures:normal;font-variant-numeric:normal"/></text>
  <text x="737.43964" y="242.40971" font-family="sans-serif" font-size="10.58333302px" stroke-width=".26458332" style="line-height:1.25" xml:space="preserve"><tspan x="737.43964" y="251.77348" stroke-width=".26458332"/></text>
 </g>
 <polygon transform="matrix(3.4969519,0,0,3.4969519,-1357.4949,218.17293)" points="" fill="#f9eab0"/>
 <g letter-spacing="0px" word-spacing="0px">
  <text x="-1396.7891" y="-263.08249" font-family="sans-serif" font-size="10.58333302px" stroke-width=".26458332" style="line-height:1.25" xml:space="preserve"><tspan x="-1396.7891" y="-253.71873" stroke-width=".26458332"/></text>
  <text x="-2419.5188" y="-216.01993" font-family="'SC Gum Kids'" font-size="266.9718323px" stroke-width=".80091542" style="font-feature-settings:normal;font-variant-caps:normal;font-variant-ligatures:normal;font-variant-numeric:normal;line-height:1.25" xml:space="preserve"><tspan x="-2419.5188" y="24.964127" font-family="'SC Gum Kids'" font-size="266.9718323px" stroke-width=".80091542" style="font-feature-settings:normal;font-variant-caps:normal;font-variant-ligatures:normal;font-variant-numeric:normal"/></text>
  <text x="737.68359" y="296.64716" font-family="sans-serif" font-size="10.58333302px" stroke-width=".26458332" style="line-height:1.25" xml:space="preserve"><tspan x="737.68359" y="306.01093" stroke-width=".26458332"/></text>
 </g>
 <polygon transform="matrix(3.4969519,0,0,3.4969519,-1508.6442,166.17283)" points="" fill="#f9eab0"/>
 <g letter-spacing="0px" word-spacing="0px">
  <text x="-1547.9384" y="-315.08264" font-family="sans-serif" font-size="10.58333302px" stroke-width=".26458332" style="line-height:1.25" xml:space="preserve"><tspan x="-1547.9384" y="-305.71887" stroke-width=".26458332"/></text>
  <text x="-2570.6682" y="-268.02008" font-family="'SC Gum Kids'" font-size="266.9718323px" stroke-width=".80091542" style="font-feature-settings:normal;font-variant-caps:normal;font-variant-ligatures:normal;font-variant-numeric:normal;line-height:1.25" xml:space="preserve"><tspan x="-2570.6682" y="-27.036087" font-family="'SC Gum Kids'" font-size="266.9718323px" stroke-width=".80091542" style="font-feature-settings:normal;font-variant-caps:normal;font-variant-ligatures:normal;font-variant-numeric:normal"/></text>
  <text x="586.53436" y="244.64702" font-family="sans-serif" font-size="10.58333302px" stroke-width=".26458332" style="line-height:1.25" xml:space="preserve"><tspan x="586.53436" y="254.01079" stroke-width=".26458332"/></text>
 </g>
 <polygon transform="matrix(3.4969519,0,0,3.4969519,-1503.7793,229.47513)" points="" fill="#f9eab0"/>
 <g letter-spacing="0px" word-spacing="0px">
  <text x="-1543.0734" y="-251.78035" font-family="sans-serif" font-size="10.58333302px" stroke-width=".26458332" style="line-height:1.25" xml:space="preserve"><tspan x="-1543.0734" y="-242.41658" stroke-width=".26458332"/></text>
  <text x="-2565.8032" y="-204.71774" font-family="'SC Gum Kids'" font-size="266.9718323px" stroke-width=".80091542" style="font-feature-settings:normal;font-variant-caps:normal;font-variant-ligatures:normal;font-variant-numeric:normal;line-height:1.25" xml:space="preserve"><tspan x="-2565.8032" y="36.266281" font-family="'SC Gum Kids'" font-size="266.9718323px" stroke-width=".80091542" style="font-feature-settings:normal;font-variant-caps:normal;font-variant-ligatures:normal;font-variant-numeric:normal"/></text>
  <text x="591.39923" y="307.94928" font-family="sans-serif" font-size="10.58333302px" stroke-width=".26458332" style="line-height:1.25" xml:space="preserve"><tspan x="591.39923" y="317.31305" stroke-width=".26458332"/></text>
 </g>
 <polygon transform="matrix(3.4969519,0,0,3.4969519,-1210.1856,1164.7598)" points="" fill="#f9eab0"/>
 <g letter-spacing="0px" word-spacing="0px">
  <text x="-1249.4795" y="683.50433" font-family="sans-serif" font-size="10.58333302px" stroke-width=".26458332" style="line-height:1.25" xml:space="preserve"><tspan x="-1249.4795" y="692.8681" stroke-width=".26458332"/></text>
  <text x="-2272.2095" y="730.56683" font-family="'SC Gum Kids'" font-size="266.9718323px" stroke-width=".80091542" style="font-feature-settings:normal;font-variant-caps:normal;font-variant-ligatures:normal;font-variant-numeric:normal;line-height:1.25" xml:space="preserve"><tspan x="-2272.2095" y="971.55096" font-family="'SC Gum Kids'" font-size="266.9718323px" stroke-width=".80091542" style="font-feature-settings:normal;font-variant-caps:normal;font-variant-ligatures:normal;font-variant-numeric:normal"/></text>
  <text x="884.99292" y="1243.2338" font-family="sans-serif" font-size="10.58333302px" stroke-width=".26458332" style="line-height:1.25" xml:space="preserve"><tspan x="884.99292" y="1252.5975" stroke-width=".26458332"/></text>
 </g>
 <polygon transform="matrix(3.4969519,0,0,3.4969519,-1207.0543,1199.3494)" points="" fill="#f9eab0"/>
 <g letter-spacing="0px" word-spacing="0px">
  <text x="-1246.3483" y="718.09393" font-family="sans-serif" font-size="10.58333302px" stroke-width=".26458332" style="line-height:1.25" xml:space="preserve"><tspan x="-1246.3483" y="727.4577" stroke-width=".26458332"/></text>
  <text x="-2269.0781" y="765.15643" font-family="'SC Gum Kids'" font-size="266.9718323px" stroke-width=".80091542" style="font-feature-settings:normal;font-variant-caps:normal;font-variant-ligatures:normal;font-variant-numeric:normal;line-height:1.25" xml:space="preserve"><tspan x="-2269.0781" y="1006.1406" font-family="'SC Gum Kids'" font-size="266.9718323px" stroke-width=".80091542" style="font-feature-settings:normal;font-variant-caps:normal;font-variant-ligatures:normal;font-variant-numeric:normal"/></text>
  <text x="888.12421" y="1277.8234" font-family="sans-serif" font-size="10.58333302px" stroke-width=".26458332" style="line-height:1.25" xml:space="preserve"><tspan x="888.12421" y="1287.1871" stroke-width=".26458332"/></text>
 </g>
 <polygon transform="matrix(3.4969519,0,0,3.4969519,-1357.7389,1170.6178)" points="" fill="#f9eab0"/>
 <g letter-spacing="0px" word-spacing="0px">
  <text x="-1397.0328" y="689.36237" font-family="sans-serif" font-size="10.58333302px" stroke-width=".26458332" style="line-height:1.25" xml:space="preserve"><tspan x="-1397.0328" y="698.72614" stroke-width=".26458332"/></text>
  <text x="-2419.7627" y="736.42499" font-family="'SC Gum Kids'" font-size="266.9718323px" stroke-width=".80091542" style="font-feature-settings:normal;font-variant-caps:normal;font-variant-ligatures:normal;font-variant-numeric:normal;line-height:1.25" xml:space="preserve"><tspan x="-2419.7627" y="977.40887" font-family="'SC Gum Kids'" font-size="266.9718323px" stroke-width=".80091542" style="font-feature-settings:normal;font-variant-caps:normal;font-variant-ligatures:normal;font-variant-numeric:normal"/></text>
  <text x="737.43964" y="1249.0919" font-family="sans-serif" font-size="10.58333302px" stroke-width=".26458332" style="line-height:1.25" xml:space="preserve"><tspan x="737.43964" y="1258.4557" stroke-width=".26458332"/></text>
 </g>
 <polygon transform="matrix(3.4969519,0,0,3.4969519,-1357.4949,1224.8553)" points="" fill="#f9eab0"/>
 <g letter-spacing="0px" word-spacing="0px">
  <text x="-1396.7891" y="743.59985" font-family="sans-serif" font-size="10.58333302px" stroke-width=".26458332" style="line-height:1.25" xml:space="preserve"><tspan x="-1396.7891" y="752.96362" stroke-width=".26458332"/></text>
  <text x="-2419.5188" y="790.66241" font-family="'SC Gum Kids'" font-size="266.9718323px" stroke-width=".80091542" style="font-feature-settings:normal;font-variant-caps:normal;font-variant-ligatures:normal;font-variant-numeric:normal;line-height:1.25" xml:space="preserve"><tspan x="-2419.5188" y="1031.6465" font-family="'SC Gum Kids'" font-size="266.9718323px" stroke-width=".80091542" style="font-feature-settings:normal;font-variant-caps:normal;font-variant-ligatures:normal;font-variant-numeric:normal"/></text>
  <text x="737.68359" y="1303.3295" font-family="sans-serif" font-size="10.58333302px" stroke-width=".26458332" style="line-height:1.25" xml:space="preserve"><tspan x="737.68359" y="1312.6932" stroke-width=".26458332"/></text>
 </g>
 <polygon transform="matrix(3.4969519,0,0,3.4969519,-1508.6442,1172.8551)" points="" fill="#f9eab0"/>
 <g letter-spacing="0px" word-spacing="0px">
  <text x="-1547.9384" y="691.59967" font-family="sans-serif" font-size="10.58333302px" stroke-width=".26458332" style="line-height:1.25" xml:space="preserve"><tspan x="-1547.9384" y="700.96344" stroke-width=".26458332"/></text>
  <text x="-2570.6682" y="738.66229" font-family="'SC Gum Kids'" font-size="266.9718323px" stroke-width=".80091542" style="font-feature-settings:normal;font-variant-caps:normal;font-variant-ligatures:normal;font-variant-numeric:normal;line-height:1.25" xml:space="preserve"><tspan x="-2570.6682" y="979.64618" font-family="'SC Gum Kids'" font-size="266.9718323px" stroke-width=".80091542" style="font-feature-settings:normal;font-variant-caps:normal;font-variant-ligatures:normal;font-variant-numeric:normal"/></text>
  <text x="586.53436" y="1251.3292" font-family="sans-serif" font-size="10.58333302px" stroke-width=".26458332" style="line-height:1.25" xml:space="preserve"><tspan x="586.53436" y="1260.693" stroke-width=".26458332"/></text>
 </g>
 <polygon transform="matrix(3.4969519,0,0,3.4969519,-1503.7793,1236.1575)" points="" fill="#f9eab0"/>
 <g letter-spacing="0px" word-spacing="0px">
  <text x="-1543.0735" y="754.90198" font-family="sans-serif" font-size="10.58333302px" stroke-width=".26458332" style="line-height:1.25" xml:space="preserve"><tspan x="-1543.0735" y="764.26575" stroke-width=".26458332"/></text>
  <text x="-2565.8032" y="801.96454" font-family="'SC Gum Kids'" font-size="266.9718323px" stroke-width=".80091542" style="font-feature-settings:normal;font-variant-caps:normal;font-variant-ligatures:normal;font-variant-numeric:normal;line-height:1.25" xml:space="preserve"><tspan x="-2565.8032" y="1042.9485" font-family="'SC Gum Kids'" font-size="266.9718323px" stroke-width=".80091542" style="font-feature-settings:normal;font-variant-caps:normal;font-variant-ligatures:normal;font-variant-numeric:normal"/></text>
  <text x="591.39929" y="1314.6316" font-family="sans-serif" font-size="10.58333302px" stroke-width=".26458332" style="line-height:1.25" xml:space="preserve"><tspan x="591.39929" y="1323.9954" stroke-width=".26458332"/></text>
 </g>
 <polygon transform="matrix(3.4969519,0,0,3.4969519,1266.0671,367.55474)" points="" fill="#f9eab0"/>
 <polygon transform="matrix(3.4969519,0,0,3.4969519,495.65595,186.33511)" points="" fill="#f9eab0"/>
 <g transform="translate(-7.5259261,-106.34505)">
  <rect x="7.5259261" y="106.34505" width="264.58334" height="87.3125" opacity="0" stroke-width="6.81303024"/>
  <g fill="#fff" stroke="#303f9f" stroke-width=".79374999" style="font-feature-settings:normal;font-variant-caps:normal;font-variant-ligatures:normal;font-variant-numeric:normal" aria-label="2d">
   <path d="m139.93242 136.42601q-4.97472 0.68902-4.10655 3.32108l7.26226-0.53744 1.63986 7.90994-17.32194-1.79145q-0.22048-11.87869 4.8507-12.11295 5.07118-0.23427 4.63021-1.80523-0.44098-1.57097-6.49056-1.43316l1.15755-6.22874q12.20942 1.00597 12.78819 6.49056 0.57878 5.4846-4.40972 6.18739z" style="font-feature-settings:normal;font-variant-caps:normal;font-variant-ligatures:normal;font-variant-numeric:normal"/>
   <path d="m146.4781 145.43839-0.88194-19.29254q18.79644 0 18.79644 9.64627t-17.9145 9.64627zm4.90582-14.18002 0.92328 6.66971q5.96691 0.0276 5.96691-3.32108 0-3.34863-6.89019-3.34863z" style="font-feature-settings:normal;font-variant-caps:normal;font-variant-ligatures:normal;font-variant-numeric:normal"/>
  </g>
  <g fill="#fff" stroke="#303f9f" stroke-width=".79374999" style="font-feature-settings:normal;font-variant-caps:normal;font-variant-ligatures:normal;font-variant-numeric:normal" aria-label="shapes">
   <path d="m131.88014 166.04633q-4.97472-0.7028-4.39594-6.18739 0.57877-5.48459 12.78819-6.49056l1.15756 6.22873q-6.04959-0.1378-6.49056 1.43316-0.44098 1.57097 4.6302 1.80523 5.07118 0.23427 4.96094 6.17362-0.11024 5.93934-13.35319 6.33897l-2.43913-6.51812q6.77995 0.73036 7.45519-0.67524 0.67524-1.41938-4.31326-2.1084z" style="font-feature-settings:normal;font-variant-caps:normal;font-variant-ligatures:normal;font-variant-numeric:normal"/>
   <path d="m151.50341 167.85156 0.49609 4.65777-5.27789 0.92329-2.39778-15.26866 5.87044-2.50803 0.66146 6.61458 5.29166-0.60634 0.0827-6.02202 9.19151 0.92328-3.514 16.93609-5.91178-1.75011 0.0689-4.39594z" style="font-feature-settings:normal;font-variant-caps:normal;font-variant-ligatures:normal;font-variant-numeric:normal"/>
   <path d="m170.34119 170.91081-0.96463 2.75608-5.42947-3.27974 6.80751-16.0128 5.18142-0.35829 8.14421 16.5778-6.43544 3.07303-1.41938-3.87229zm4.71289-6.03581-1.5434-4.9885-1.81901 5.51216z" style="font-feature-settings:normal;font-variant-caps:normal;font-variant-ligatures:normal;font-variant-numeric:normal"/>
   <path d="m192.22443 168.11339 1.11622 4.12034-7.19336 1.43316-1.36426-18.45194q18.35547-2.96278 19.27875 6.04959 0 6.89019-11.83735 6.84885zm-1.88791-8.15799 0.7717 2.68718q7.44141 0 7.00044-1.95681-0.44097-1.95682-7.77214-0.73037z" style="font-feature-settings:normal;font-variant-caps:normal;font-variant-ligatures:normal;font-variant-numeric:normal"/>
   <path d="m219.34423 151.89388 0.35829 7.3036-8.5714 0.92329 0.11025 1.66743 5.62239-0.52366 0.4961 4.9885-5.87045 0.42719 0.0965 1.35048 8.32335-0.6339 1.24023 6.27008-16.41243 0.56499 1.66742-19.88509z" style="font-feature-settings:normal;font-variant-caps:normal;font-variant-ligatures:normal;font-variant-numeric:normal"/>
   <path d="m225.42138 166.04633q-4.97472-0.7028-4.39594-6.18739 0.57877-5.48459 12.78819-6.49056l1.15755 6.22873q-6.04959-0.1378-6.49056 1.43316-0.44097 1.57097 4.63021 1.80523 5.07118 0.23427 4.96094 6.17362-0.11024 5.93934-13.35319 6.33897l-2.43913-6.51812q6.77995 0.73036 7.45519-0.67524 0.67524-1.41938-4.31326-2.1084z" style="font-feature-settings:normal;font-variant-caps:normal;font-variant-ligatures:normal;font-variant-numeric:normal"/>
  </g>
  <g transform="translate(-8.7813426,-115.90601)">
   <g transform="matrix(.79946021 0 0 .79946021 118.8441 210.29284)">
    <path d="m-74.788888 84.490272c-1.792352 1.996028-51.663302-8.533926-52.495742-11.084162-0.83243-2.550237 33.222251-40.474772 35.847038-39.920564s18.441056 49.008698 16.648704 51.004726z" fill="#29b6f6"/>
    <rect x="-89.840744" y="65.675446" width="50.799999" height="50.799999" ry="3.5593865" fill="#00c853"/>
    <rect x="-49.859257" y="71.319893" width="4.7037039" height="24.459259" ry="2.3518519" fill="#78ffb0"/>
    <rect transform="rotate(-14.854285)" x="-102.83092" y="17.040432" width="4.7037039" height="20.225925" ry="2.3518519" fill="#94dafa"/>
   </g>
   <g transform="matrix(.79946021 0 0 .79946021 118.8441 210.29284)" stroke-linecap="round" stroke-width="3.96875">
    <g transform="translate(-142.52222,-91.722223)" fill="#fff" stroke="#ef5350">
     <path d="m66.13164 137.91749 49.15865-21.54484"/>
     <path d="m66.13164 146.41405 49.15865-21.54484"/>
    </g>
    <path d="m-42.58926 54.22298 32.165525 27.6138" fill="none" stroke="#ffc107"/>
    <path d="m-32.575465 49.9747 17.60001 47.6414" fill="none" stroke="#ffc107"/>
   </g>
   <rect transform="rotate(65.877584)" x="248.6046" y="4.8742433" width="1.7389134" height="6.3233218" ry=".86945671" fill="#f8b6b4"/>
   <rect transform="rotate(65.877584)" x="254.87317" y="7.5080476" width="1.7389134" height="6.3233218" ry=".86945671" fill="#f8b6b4"/>
   <rect transform="rotate(159.68759)" x="-1.0504804" y="-273.24921" width="1.7389134" height="6.3233218" ry=".86945671" fill="#ffe69b"/>
   <rect transform="rotate(131.13118)" x="134.42139" y="-237.13335" width="1.7389134" height="6.3233218" ry=".86945671" fill="#ffe69b"/>
  </g>
 </g>
</svg>
