<?xml version="1.0" encoding="UTF-8"?>
<!-- Generator: Adobe Illustrator 19.0.0, SVG Export Plug-In . SVG Version: 6.00 Build 0)  -->
<svg width="1e3" height="330" version="1.1" viewBox="0 0 1000 330.00001" xml:space="preserve" xmlns="http://www.w3.org/2000/svg" xmlns:cc="http://creativecommons.org/ns#" xmlns:dc="http://purl.org/dc/elements/1.1/" xmlns:rdf="http://www.w3.org/1999/02/22-rdf-syntax-ns#"><metadata><rdf:RDF><cc:Work rdf:about=""><dc:format>image/svg+xml</dc:format><dc:type rdf:resource="http://purl.org/dc/dcmitype/StillImage"/><dc:title/></cc:Work></rdf:RDF></metadata><circle transform="scale(-1,1)" cx="553.82446" cy="682.06738" r="0" fill="#9ed1fa" stroke-width=".74994367"/><rect x="13.065034" y="68.699326" width="297.69614" height="189.44299" ry="26.787201" fill="#fff"/><rect x="-1.3232421e-6" y="5.4687501e-7" width="1e3" height="330" ry="0" opacity="0" stroke-width="6.24300003"/><g fill="#fff" stroke="#9c27b0" stroke-width="3" style="font-feature-settings:normal;font-variant-caps:normal;font-variant-ligatures:normal;font-variant-numeric:normal" aria-label="about us"><path d="m416.79489 189.81771-3.64583 10.41666-20.52084-12.39583 25.72917-60.52083 19.58333-1.35417 30.78125 62.65625-24.32291 11.61458-5.36459-14.63541zm17.8125-22.8125-5.83333-18.85417-6.875 20.83334z"/><path d="m491.53447 152.89063q16.14584-3.02084 15.83334-9.16667t-16.51042-1.92708zm2.5 30.9375q23.59375-0.9375 23.64584-8.22917 0.10416-7.29167-24.42709-6.97917zm-22.65625 16.40624 1.92709-67.44791q37.23958-15.15625 51.19791-1.45833 13.95834 13.69791-3.54166 27.60416 26.5625 8.17709 17.13541 26.71875-9.375 18.48958-66.71875 14.58333z"/><path d="m587.9928 200.23437q-17.60417 0-30.05209-10.67708-12.39583-10.67708-12.39583-25.78125 0-15.10416 12.39583-25.78125 12.44792-10.67708 30.05209-10.67708 17.55208 0 29.94791 10.67708 12.44792 10.67709 12.44792 25.78125 0 15.10417-12.44792 25.78125-12.39583 10.67708-29.94791 10.67708zm-2.91667-22.76041q7.5 0 12.8125-4.58333 5.36458-4.58334 5.36458-11.04167t-5.36458-11.04167q-5.3125-4.58333-12.8125-4.58333-7.55208 0-12.91667 4.58333-5.3125 4.58334-5.3125 11.04167t5.3125 11.04167q5.36459 4.58333 12.91667 4.58333z"/><path d="m639.50322 130.96354 27.76042 5.41667q-13.85417 42.55208 3.95833 43.02083 21.14584-0.15625 12.23959-44.0625l25.41666-8.02083q11.66667 72.29167-37.65625 72.91666-49.84375-0.46874-31.71875-69.27083z"/><path d="m757.47195 149.50521 2.55209 44.375-28.22917 7.29166 4.84375-53.02083-21.30208-1.82291 1.66666-19.27084 61.09375-3.64583 2.23959 28.48958z"/><path d="m827.62819 130.96354 27.76042 5.41667q-13.85417 42.55208 3.95833 43.02083 21.14584-0.15625 12.23959-44.0625l25.41666-8.02083q11.66667 72.29167-37.65625 72.91666-49.84375-0.46874-31.71875-69.27083z"/><path d="m920.59696 171.43229q-18.80208-2.65625-16.61458-23.38541 2.1875-20.72917 48.33333-24.53125l4.375 23.54166q-22.86458-0.52083-24.53125 5.41667-1.66666 5.9375 17.5 6.82292 19.16667 0.88541 18.75 23.33333-0.41666 22.44791-50.46875 23.95833l-9.21875-24.63541q25.625 2.76041 28.17709-2.55209 2.55208-5.36458-16.30209-7.96875z"/></g><g transform="matrix(.46520099 0 0 .46520099 302.40551 -206.90435)"><rect x="-495.43668" y="846.81958" width="65.431847" height="103.89085" ry="30.088606" fill="#e2b495"/><rect x="-543.8678" y="651.54517" width="161.15562" height="189.78146" ry="54.964027" fill="#241c1c"/><circle cx="-390.98978" cy="778.55225" r="14.059269" fill="#e2b495"/><circle cx="-533.87787" cy="778.55225" r="14.059269" fill="#e2b495"/><circle cx="-533.87787" cy="778.55225" r="7.746944" fill="#dda783"/><circle cx="-390.98978" cy="778.55225" r="7.746944" fill="#dda783"/><rect x="-536.67969" y="682.24512" width="147.91789" height="234.85991" ry="68.019531" fill="#e9c6af"/><rect x="-515.61951" y="740.08569" width="41.863556" height="13.954518" ry="6.9772592" fill="#241c1c"/><rect x="-452.8241" y="740.08569" width="41.863556" height="13.954518" ry="6.9772592" fill="#241c1c"/><g transform="translate(0,-6.8359266)" fill="#1a1a1a"><rect x="-500.96722" y="769.3902" width="12.559067" height="25.118134" ry="6.2795334"/><rect x="-438.17188" y="769.3902" width="12.559067" height="25.118134" ry="6.2795334"/></g><g fill="#e2b495"><path d="m-515.32812 749.05664c-0.18689 0.63163-0.29102 1.30032-0.29102 1.99414 0 3.8654 3.11116 6.97656 6.97656 6.97656h27.91016c3.8654 0 6.97656-3.11116 6.97656-6.97656 0-0.69382-0.10413-1.36251-0.29102-1.99414-0.85426 2.88728-3.51396 4.98438-6.68554 4.98438h-27.91016c-3.17158 0-5.83128-2.0971-6.68554-4.98438z"/><path d="m-452.5332 749.05664c-0.18688 0.63163-0.29102 1.30032-0.29102 1.99414 0 3.8654 3.11116 6.97656 6.97656 6.97656h27.91016c3.8654 0 6.97656-3.11116 6.97656-6.97656 0-0.69382-0.10413-1.36251-0.29101-1.99414-0.85427 2.88728-3.51397 4.98438-6.68555 4.98438h-27.91016c-3.17158 0-5.83128-2.0971-6.68554-4.98438z"/><g transform="translate(0,-2)"><path d="m-447.32611 702.35938a44.654457 44.654457 0 0 1 -25.56445 8.1289 44.654457 44.654457 0 0 1 -12.67578 -1.87695v0.86328c0 3.47886-2.80044 6.2793-6.2793 6.2793h-0.64258a44.654457 44.654457 0 0 0 19.59766 4.56445 44.654457 44.654457 0 0 0 30.58398 -12.19141z"/><path d="m-489.10156 709.86523c-5.86995 5.16733-13.47081 8.03234-21.35352 8.04883-5.28573-7e-3 -10.48794-1.29559-15.14453-3.75195-1.39479 2.39881-2.14975 5.23942-3.87987 7.38802 5.65465 4.37018 11.82896 6.18947 19.0244 6.19206 11.79001-0.012 22.62421-6.37165 28.21875-16.56446z"/><path d="m-447.23047 701.50781c-0.32575 1.67192-1.30919 3.10011-2.67383 4.00977a34.886295 32.793118 0 0 0 33.28907 23.00586 34.886295 32.793118 0 0 0 20.64843 -6.40821c-1.22308-2.53239-2.27661-5.16002-3.18359-7.85742a34.886295 32.793118 0 0 1 -17.46484 4.43555 34.886295 32.793118 0 0 1 -30.61524 -17.18555z"/></g></g><g fill="#241c1c"><ellipse cx="-472.89145" cy="672.51343" rx="44.654457" ry="39.202904"/><ellipse cx="-432.59009" cy="666.85413" rx="34.886295" ry="28.789633"/><ellipse cx="-510.45462" cy="687.61896" rx="32.09539" ry="31.522259"/><ellipse cx="-416.61597" cy="687.12921" rx="34.886295" ry="32.793118"/><path d="m-526.37972 792.79492c-6.65957 0-12.02151 5.23801-12.02151 11.7461v44.54492c0 37.68282 31.04285 68.01953 69.60282 68.01953h12.15541c38.55997 0 69.60282-30.33671 69.60282-68.01953v-44.54492c0-6.50809-5.36193-11.7461-12.02151-11.7461h-47.2486c-1.51828 7.51308-8.26392 13.14649-16.41041 13.14649-8.1465 0-14.89214-5.63341-16.41041-13.14649z"/></g><g transform="matrix(.36376337 0 0 .36376337 -216.53811 524.11118)"><path d="m-750.72461 809.82617v20.32227c0 37.68282 30.33671 68.01953 68.01953 68.01953h11.87891c37.68282 0 68.01953-30.33671 68.01953-68.01953v-20.32227z" fill="#f2706e"/><rect x="-750.72491" y="801.21918" width="147.918" height="34.430862" ry="3.347445" fill="#f2f2f2"/><path d="m-750.72357 809.25402v22.37891c0 2.22538 2.73054 4.01758 6.12478 4.01758h135.66577c3.39423 0 6.12478-1.7922 6.12478-4.01758v-22.37891z" fill="#fff"/><path d="m-697.91992 855.34961c-14.92457 0.21231-29.00163 5.34036-40.36524 14.08203 12.29566 17.40245 32.55905 28.73633 55.58008 28.73633h11.87891c15.13062 0 29.0721-4.89777 40.3457-13.19141-9.82678-13.21805-24.47234-22.91548-42.00781-26.22656l-11.67383-2.20312c-4.62856-0.87398-9.23139-1.26166-13.75781-1.19727z" fill="#ef5350"/></g><rect x="-505.60895" y="923.6665" width="84.777328" height="29.786629" ry="5.2220092"/><path d="m-552.28711 945.05078c-15.81803 0-28.55273 12.7347-28.55273 28.55274v49.97068h235.23828v-49.97068c0-15.81804-12.7347-28.55274-28.55274-28.55274z"/><g fill="#3c2f2f"><circle cx="-476.24893" cy="672.64514" r="12.794747"/><circle cx="-428.97946" cy="660.20581" r="8.8852415"/><circle cx="-465.94205" cy="645.27863" r="5.3311453"/><circle cx="-517.12103" cy="670.8681" r="5.3311453"/><rect x="-407.29947" y="804.14673" width="7.1081934" height="42.649158" ry="3.5540967"/><rect x="-420.80502" y="804.14673" width="7.1081934" height="19.192122" ry="3.5540967"/></g><path d="m-475.18272 839.69412s13.64664-1.92453 19.94508 4.19896" fill="none" opacity=".67400004" stroke="#f8afae" stroke-linecap="round" stroke-width="5"/><rect transform="scale(-1,1)" x="521.47021" y="804.14673" width="7.1081934" height="42.649158" ry="3.5540967" fill="#3c2f2f"/><rect transform="scale(-1,1)" x="507.96469" y="804.14673" width="7.1081934" height="19.192122" ry="3.5540967" fill="#3c2f2f"/><path d="m-538.40039 830.89062v18.19532c0 37.68282 31.04159 68.01953 69.60156 68.01953h12.15625c38.55997 0 69.60156-30.33671 69.60156-68.01953v-18.19532c0 37.68282-31.04159 68.01954-69.60156 68.01954h-12.15625c-38.55997 0-69.60156-30.33672-69.60156-68.01954z" fill="#151010"/><rect x="-413.59793" y="955.69049" width="48.987907" height="9.7975817" ry="3.5541" fill="#2b2b2b" opacity=".67400004"/><rect x="-494.69916" y="742.23822" width="16.833126" height="3.6170354" ry="1.8085177" fill="#3c2f2f"/><rect x="-432.51398" y="742.23822" width="16.833126" height="3.6170354" ry="1.8085177" fill="#3c2f2f"/></g><g transform="matrix(.46520099 0 0 .46520099 24.886932 56.26468)"><rect x="391.27448" y="119.93616" width="147.91789" height="329.33881" ry="66.528824" fill="#1a1a1a"/><path d="m401.02936 281.67569v14.74128c0 32.63116 28.63436 58.90063 64.20312 58.90063s64.20508-26.26947 64.20508-58.90063v-14.74128c0 32.63116-28.63632 58.90062-64.20508 58.90062s-64.20312-26.26946-64.20312-58.90062z"/><circle cx="401.81479" cy="231.7372" r="14.059269" fill="#e0af90"/><circle cx="528.33972" cy="231.7372" r="14.059269" fill="#e0af90"/><g fill="#dba27e"><rect x="440.2522" y="308.35852" width="49.962406" height="86.255852" ry="24.981203"/><circle cx="401.81479" cy="231.7372" r="7.1730962"/><circle cx="528.33972" cy="231.7372" r="7.1730962"/></g><circle cx="396.70804" cy="246.73604" r="6.0029097" fill="#e91e63"/><circle cx="533.75006" cy="246.73604" r="6.0029097" fill="#e91e63"/><rect x="401.02988" y="136.77809" width="128.40707" height="203.37518" ry="58.901009" fill="#e6bea4"/><g transform="matrix(.49566609 0 0 .49566609 800.82447 -141.09307)"><path d="m-750.72461 809.82617v20.32227c0 37.68282 30.33671 68.01953 68.01953 68.01953h11.87891c37.68282 0 68.01953-30.33671 68.01953-68.01953v-20.32227z" fill="#f2706e"/><rect x="-750.72491" y="801.21918" width="147.918" height="34.430862" ry="3.347445" fill="#f2f2f2"/><path d="m-750.72357 809.25402v22.37891c0 2.22538 2.73054 4.01758 6.12478 4.01758h135.66577c3.39423 0 6.12478-1.7922 6.12478-4.01758v-22.37891z" fill="#fff"/><path d="m-697.91992 855.34961c-14.92457 0.21231-29.00163 5.34036-40.36524 14.08203 12.29566 17.40245 32.55905 28.73633 55.58008 28.73633h11.87891c15.13062 0 29.0721-4.89777 40.3457-13.19141-9.82678-13.21805-24.47234-22.91548-42.00781-26.22656l-11.67383-2.20312c-4.62856-0.87398-9.23139-1.26166-13.75781-1.19727z" fill="#ef5350"/></g><path d="m401.02936 268.45726v14.74128c0 32.63116 28.63436 58.90063 64.20312 58.90063s64.20508-26.26947 64.20508-58.90063v-14.74128c0 32.63116-28.63632 58.90062-64.20508 58.90062s-64.20312-26.26946-64.20312-58.90062z" fill="#e0af90"/><g fill="#1a1a1a"><rect x="431.8623" y="215.73921" width="12.559067" height="25.118134" ry="6.2795334"/><rect x="486.04544" y="215.73921" width="12.559067" height="25.118134" ry="6.2795334"/><rect x="422.56595" y="196.71376" width="31.151806" height="10.383935" ry="5.1919675"/></g><g fill="#e0af90"><path d="m422.78259 203.38927c-0.13907 0.47001-0.21655 0.9676-0.21655 1.48389 0 2.87635 2.31509 5.19145 5.19144 5.19145h20.76871c2.87635 0 5.19145-2.3151 5.19145-5.19145 0-0.51629-0.0775-1.01388-0.21656-1.48389-0.63568 2.1485-2.61483 3.70901-4.97489 3.70901h-20.76871c-2.36006 0-4.33921-1.56051-4.97489-3.70901z"/><path d="m476.96573 203.38927c-0.13907 0.47001-0.21655 0.9676-0.21655 1.48389 0 2.87635 2.31509 5.19145 5.19144 5.19145h20.76871c2.87635 0 5.19145-2.3151 5.19145-5.19145 0-0.51629-0.0775-1.01388-0.21656-1.48389-0.63568 2.1485-2.61483 3.70901-4.97489 3.70901h-20.76871c-2.36006 0-4.33921-1.56051-4.97489-3.70901z"/><path d="m471.17193 128.09902a63.123249 63.123249 0 0 1 -62.98242 59.14844 63.123249 63.123249 0 0 1 -6.99219 -0.4668v6.28321a63.123249 63.123249 0 0 0 6.99219 0.49609 63.123249 63.123249 0 0 0 63.12305 -63.12305 63.123249 63.123249 0 0 0 -0.14063 -2.33789z"/><path d="m442.19732 136.59902a69.148651 69.148651 0 0 0 -0.15039 3.30469 69.148651 69.148651 0 0 0 69.14844 69.15039 69.148651 69.148651 0 0 0 18.16992 -2.56836v-6.32422a69.148651 69.148651 0 0 1 -18.16992 2.58008 69.148651 69.148651 0 0 1 -68.99805 -66.14258z"/></g><g fill="#1a1a1a"><rect x="476.74908" y="196.71376" width="31.151806" height="10.383935" ry="5.1919675"/><path d="m465.23248 119.93691c-38.73587 0-70.31514 29.48548-73.65039 67.32617a63.123249 63.123249 0 0 0 16.60742 2.29688 63.123249 63.123249 0 0 0 63.12305 -63.12305 63.123249 63.123249 0 0 0 -0.37695 -6.26172c-1.88361-0.14248-3.78182-0.23828-5.70313-0.23828z"/><path d="m465.23248 119.93691c-7.65689 0-15.03289 1.15223-21.96875 3.29297a69.148651 69.148651 0 0 0 -1.2168 12.67383 69.148651 69.148651 0 0 0 69.14844 69.15039 69.148651 69.148651 0 0 0 27.99609 -6.01562v-5.14258c1e-5 -40.97326-32.98572-73.95899-73.95898-73.95899z"/></g><path d="m415.32623 381.05355c-25.14861 0-45.39453 21.4167-45.39453 48.0196v28.79067h187.88476v-28.79067c0-26.6029-20.24592-48.0196-45.39453-48.0196z" fill="#e91e63"/><rect x="427.595" y="366.92261" width="72.557175" height="29.786629" ry="5.2220092" fill="#d81558"/><g transform="translate(686.42594,-544.9302)" fill="#dba27e"><circle cx="-227.09254" cy="795.74542" r="1.7571586"/><circle cx="-215.01009" cy="795.74542" r="1.7571586"/></g><rect transform="rotate(14.011684)" x="587.95386" y="252.44412" width="29.392746" height="11.197236" ry="5.598618" fill="#f7aec7" opacity=".67400004"/><path d="m469.05508 133.1435s48.98791 9.09776 55.98618 48.98791" fill="none" opacity=".67400004" stroke="#646464" stroke-linecap="round" stroke-width="10"/><path d="m454.72131 288.12804s13.74389-1.01987 19.62455 5.50587" fill="none" opacity=".67400004" stroke="#f8afae" stroke-linecap="round" stroke-width="5"/><rect x="438.37912" y="198.73872" width="12.326458" height="2.3517585" ry="1.1758792" fill="#4b4b4b"/></g><g transform="matrix(.31613605 0 0 .31613605 -213.0647 107.06426)"><g transform="translate(-468.831,-559.83609)" fill="#844b24"><ellipse cx="1564.1914" cy="897.78717" rx="27.402765" ry="28.355904"/><ellipse cx="1544.885" cy="929.71704" rx="36.013905" ry="37.26656"/><ellipse cx="1611.715" cy="969.815" rx="26.192213" ry="27.103245"/><ellipse cx="1571.6171" cy="958.6767" rx="34.803352" ry="36.013901"/><g transform="matrix(-1,0,0,1,3329.4468,0)"><ellipse cx="1564.1914" cy="897.78717" rx="27.402765" ry="28.355904"/><ellipse cx="1544.885" cy="929.71704" rx="36.013905" ry="37.26656"/><ellipse cx="1611.715" cy="969.815" rx="26.192213" ry="27.103245"/><ellipse cx="1571.6171" cy="958.6767" rx="34.803352" ry="36.013901"/></g><rect x="1556.5715" y="699.73987" width="213.2942" height="273.8826" ry="118.20199"/></g><g transform="translate(1087.203,-565.11708)"><path d="m12.0363 846.67525v18.9668c0 52.71185 42.4366 95.14648 95.1485 95.14648 52.7118 0 95.1484-42.43463 95.1484-95.14648v-18.9668c0 52.71185-42.4366 95.14844-95.1484 95.14844-52.7119 0-95.1485-42.43659-95.1485-95.14844z" fill="#73411f"/><rect x="74.995667" y="907.82507" width="64.377914" height="118.8485" ry="34.420605" fill="#dfac8a" stroke-width="1.33244514"/><ellipse cx="10.557552" cy="831.15002" rx="20.231163" ry="19.371706" fill="#e4ba9e" stroke-width="1.40809393"/><ellipse cx="3.2090421" cy="851.81635" rx="8.638134" ry="8.2711697" fill="#f06292" stroke-width="1.40809393"/><ellipse cx="10.557552" cy="831.15002" rx="10.327717" ry="9.8889771" fill="#ffd5d5" stroke-width=".71881163"/><ellipse transform="scale(-1,1)" cx="-204.95355" cy="831.15002" rx="20.231163" ry="19.371706" fill="#e4ba9e" stroke-width="1.40809393"/><ellipse transform="scale(-1,1)" cx="-212.30206" cy="851.81635" rx="8.638134" ry="8.2711697" fill="#f06292" stroke-width="1.40809393"/><ellipse transform="scale(-1,1)" cx="-204.95355" cy="831.15002" rx="10.327717" ry="9.8889771" fill="#ffd5d5" stroke-width=".71881163"/><rect x="12.036922" y="729.10663" width="190.29547" height="220.46423" ry="95.147743" fill="#e9c6af"/><path d="m12.0363 835.45677v18.9668c0 52.71185 42.4366 95.14648 95.1485 95.14648 52.7118 0 95.1484-42.43463 95.1484-95.14648v-18.9668c0 52.71185-42.4366 95.14844-95.1484 95.14844-52.7119 0-95.1485-42.43659-95.1485-95.14844z" fill="#e4ba9e"/></g><g transform="matrix(.64915119 0 0 .62157406 1635.6581 -207.37047)"><path d="m-750.72461 809.82617v20.32227c0 37.68282 30.33671 68.01953 68.01953 68.01953h11.87891c37.68282 0 68.01953-30.33671 68.01953-68.01953v-20.32227z" fill="#f2706e"/><rect x="-750.72491" y="801.21918" width="147.918" height="34.430862" ry="3.347445" fill="#f2f2f2"/><path d="m-750.72357 809.25402v22.37891c0 2.22538 2.73054 4.01758 6.12478 4.01758h135.66577c3.39423 0 6.12478-1.7922 6.12478-4.01758v-22.37891z" fill="#fff"/><path d="m-697.91992 855.34961c-14.92457 0.21231-29.00163 5.34036-40.36524 14.08203 12.29566 17.40245 32.55905 28.73633 55.58008 28.73633h11.87891c15.13062 0 29.0721-4.89777 40.3457-13.19141-9.82678-13.21805-24.47234-22.91548-42.00781-26.22656l-11.67383-2.20312c-4.62856-0.87398-9.23139-1.26166-13.75781-1.19727z" fill="#ef5350"/></g><path d="m1182.3826 330.8804s17.9997-1.27893 25.7013 6.90446" fill="none" opacity=".67400004" stroke="#f8afae" stroke-linecap="round" stroke-width="6.4076705"/><g transform="matrix(1.0051971,0,0,1.3778601,1418.5349,-812.68137)" fill="#dba27e"><circle cx="-227.09254" cy="795.74542" r="1.7571586"/><circle cx="-215.01009" cy="795.74542" r="1.7571586"/></g><rect x="1163.5388" y="245.18755" width="15.465465" height="29.86791" ry="7.7327323" fill="#3d3d3d" stroke-width="1.21007299"/><g transform="translate(-467.7387,-560.38232)" fill="#e0af90" stroke-width="1.33344591"><path d="m1662.6367 743.45508c-13.7386 25.40371-46.3781 38.96041-87.4414 50.24219-1.3326-5e-3 -2.4777 0.35546-3.5019 0.9375v5.42578c1.0247-0.58263 2.1686-0.94494 3.5019-0.93946 43.8945-12.05961 78.1642-26.71649 90.0117-55.66601z"/><path d="m1659.7266 743.45508c11.9461 28.77703 46.1436 43.38091 89.9062 55.4043 2.326-0.01 4.0819 1.09052 5.6133 2.55859v-5.42969c-1.5311-1.46725-3.2879-2.56229-5.6133-2.55273-40.9224-11.2431-73.4802-24.74474-87.3008-49.98047z"/></g><g transform="translate(1087.203,-565.11708)"><path d="m107.3332 710.30354c-52.4535 0-98.2232 48.48945-102.7394 98.17712 7.3246 1.97045 8.8734-9.7951 16.4745-9.76384 54.7251-15.03523 94.4979-34.10206 94.4981-79.8783-0.03-2.74721-0.1998-5.4913-0.5103-8.2221-2.5507-0.18709-5.1211-0.31288-7.7229-0.31288z" fill="#844b24" stroke-width="1.33344591"/><path d="m107.3332 710.30354c52.4535 0 98.2232 48.48945 102.7394 98.17712-7.3246 1.97045-8.8734-9.7951-16.4745-9.76384-54.7251-15.03523-94.4979-34.10206-94.4981-79.8783 0.03-2.74721 0.1998-5.4913 0.5103-8.2221 2.5507-0.18709 5.1211-0.31288 7.7229-0.31288z" fill="#844b24" stroke-width="1.33344591"/><circle cx="17.358212" cy="974.31744" r="13.555669" fill="#965529"/><circle transform="scale(-1,1)" cx="-201.99603" cy="974.31744" r="13.555669" fill="#965529"/><path d="m38.839844 971.12109c-23.4484 0-42.3261721 17.22179-42.3261721 38.61331v29.666a256 256 0 0 0 60.0996091 20.8262h24.552735v-50.4922c0-21.39152-18.877872-38.61331-42.326172-38.61331z" fill="#ee4880"/><path d="m175.5293 971.12109c-23.4484 0-42.32618 17.22179-42.32618 38.61331v50.4922h26.51758a256 256 0 0 0 58.13477 -19.3243v-31.1679c0-21.39152-18.87787-38.61331-42.32617-38.61331z" fill="#ee4880"/><path d="m74.994141 955.08203c-31.2609 12.66061-53.205078 28.39759-53.205079 64.30467v30.7129a256 256 0 0 0 86.900388 15.5391 256 256 0 0 0 83.88867 -14.4473v-31.8047c0-35.90678-21.94467-51.64383-53.20507-64.30467v12.03711c0 17.83268-14.3549 32.18945-32.1875 32.18945-17.832703 0-32.191409-14.35677-32.191409-32.18945z" fill="#f06292"/></g><path d="m1148.9999 231.49437c-0.1824 0.64761-0.2841 1.33322-0.2841 2.04459 0 3.96321 3.0366 7.15309 6.8095 7.15309h27.2417c3.7727 0 6.8094-3.18988 6.8094-7.15309 0-0.71137-0.1017-1.39698-0.284-2.04459-0.8338 2.96033-3.4298 5.1105-6.5254 5.1105h-27.2417c-3.0956 0-5.6916-2.15017-6.5254-5.1105z" fill="#e0af90" stroke-width="1.34435654"/><rect x="1149.1133" y="226.49065" width="40.316647" height="11.300592" ry="5.6502962" fill="#844b24" stroke-width="1.18677998"/><rect x="1173.7688" y="228.95427" width="13.012074" height="3.2403941" ry="1.6201971" fill="#a55d2d" stroke-width="1.20602608"/><path d="m1203.2518 231.49437c-0.1824 0.64761-0.2841 1.33322-0.2841 2.04459 0 3.96321 3.0366 7.15309 6.8095 7.15309h27.2417c3.7727 0 6.8094-3.18988 6.8094-7.15309 0-0.71137-0.1017-1.39698-0.284-2.04459-0.8338 2.96033-3.4298 5.1105-6.5254 5.1105h-27.2417c-3.0956 0-5.6916-2.15017-6.5254-5.1105z" fill="#e0af90" stroke-width="1.34435654"/><rect transform="scale(-1,1)" x="-1243.5563" y="226.49065" width="40.316647" height="11.300592" ry="5.6502962" fill="#844b24" stroke-width="1.18677998"/><rect x="1227.3254" y="228.95427" width="13.012074" height="3.2403941" ry="1.6201971" fill="#a55d2d" stroke-width="1.20602608"/><g transform="translate(1087.203,-565.11708)" fill="#965529"><circle cx="-13.492374" cy="932.24817" r="16.827726"/><circle cx="2.4003263" cy="898.59271" r="9.8161736"/><circle transform="scale(-1,1)" cx="-232.84662" cy="932.24817" r="16.827726"/><circle transform="scale(-1,1)" cx="-216.95392" cy="898.59271" r="9.8161736"/></g><path d="m1211.137 160.52399s34.1229 5.1418 55.625 35.05776" fill="none" stroke="#f6a6c1" stroke-linecap="round" stroke-linejoin="round" stroke-width="8"/><path d="m1194.3878 175.00961c-39.8441 0-73.8111 24.24893-88.0235 58.85157 0.5935-0.16891 1.2238-0.26453 1.9063-0.26172 0.2895-0.0796 0.5726-0.16045 0.8613-0.24024 15.5411-31.31284 47.8013-52.74023 85.2559-52.74023 0.9018 0 1.7996 0.0144 2.6953 0.0391 0.8433-1.78363 1.6016-3.62226 2.2636-5.52148-1.6423-0.0836-3.2952-0.12696-4.9589-0.12696z" fill="#754320"/><rect transform="rotate(30)" x="1045.5769" y="-426.48886" width="68.588921" height="21.891712" ry="10.945856" fill="#ee4880" stroke-width="2.15448904"/><g transform="translate(1087.203,-565.11708)" fill="#754320"><path d="m107.1848 740.12669c-1.5651 0-3.1199 0.0393-4.6661 0.11328 0.6622 1.90119 1.4199 3.74198 2.2637 5.52735 0.7985-0.0196 1.599-0.0312 2.4024-0.0312 37.4158 0 69.6494 21.38249 85.2089 52.64258 0.4037 0.1118 0.7998 0.22654 1.2051 0.33789 0.5576-2e-3 1.079 0.0651 1.5762 0.17968-14.2324-34.55901-48.1777-58.76953-87.9902-58.76953z"/><g stroke-width="2.15448904"><path d="m44.8195 763.70677c-0.5503 0.37486-1.1138 0.72636-1.6875 1.0586v4.99218c0 6.06401 4.8813 10.94727 10.9453 10.94727 2.7915 0 5.3244-1.04382 7.2539-2.75195-1.6306 0.96263-3.5281 1.52343-5.5664 1.52343-6.064 0-10.9453-4.88131-10.9453-10.94531z"/><path d="m27.3098 748.45091c-5.2516 3.032-7.0379 9.70155-4.0059 14.95313 2.9943 5.18624 9.5316 6.98349 14.7519 4.10742-4.5858 1.0913-9.5068-0.88033-11.9902-5.18164-3.032-5.25158-1.2457-11.92112 4.0059-14.95313z"/><path d="m29.3 742.39037a14.728061 15.265021 0 0 1 -1.1016 1.71484c0.2116 0.14241 0.4222 0.28648 0.6465 0.41601l3.0117 1.73829a43.033554 23.702972 0 0 1 2.1973 -1.0625l-3.8281-2.20899c-0.3216-0.18566-0.6305-0.38587-0.9258-0.59765z"/></g></g><g transform="translate(1087.203,-565.11708)"><path d="m107.1848 717.10716c-52.7119 0-95.1485 42.43464-95.1485 95.14649v23.01953c0-52.71185 42.4366-95.14649 95.1485-95.14649 52.7118 0 95.1484 42.43464 95.1484 95.14649v-23.01953c0-52.71185-42.4366-95.14649-95.1484-95.14649z" fill="#f06292"/><g stroke-width="2.15448904"><path d="m41.9869 765.8307c-5.2516 3.032-12.8489 1.70767-15.8809-3.54392l-1.803 2.81728c3.032 5.25158 9.7575 6.45799 15.0091 3.42599z" fill="#ec2e6e"/><rect transform="rotate(-30)" x="-358.59189" y="662.28302" width="68.588921" height="21.891712" ry="10.945856" fill="#ee4880"/><path d="m65.6515 763.52904a33.521679 41.269253 0 0 1 -0.1 2.0957l3.8868 2.24414c5.2515 3.032 11.9191 1.24572 14.9511-4.00586 0-8e-3 0.01-0.0172 0.012-0.0254-3.3447 4.0509-9.1811 5.21591-13.8886 2.49805z" fill="#754320"/><rect transform="rotate(-90)" x="-779.47656" y="44.818783" width="68.588921" height="21.891712" ry="10.945856" fill="#ee4880"/></g><circle cx="55.764584" cy="745.18213" r="14.851094" fill="#00bcd4"/><path d="m50.0969 731.46849a14.851094 14.851094 0 0 0 -9.1836 13.71289 14.851094 14.851094 0 0 0 14.8515 14.85156 14.851094 14.851094 0 0 0 7.502 -2.05468 14.851094 14.851094 0 0 1 -5.668 1.13671 14.851094 14.851094 0 0 1 -14.8516 -14.8496 14.851094 14.851094 0 0 1 7.3497 -12.79688z" fill="#0092a5"/></g><g transform="translate(1087.203,-565.11708)" fill="none" stroke-linecap="round" stroke-linejoin="round"><path d="m55.7626 734.18939s9.8102 1.35674 11.3757 10.12331" stroke="#6aeeff" stroke-width="4"/><path d="m53.8841 714.36025s8.5579-0.20873 9.4971 6.88802" stroke="#f597b6" stroke-width="3"/><path d="m82.8284 735.82076s0.2405-8.55707-6.8527-9.52261" stroke="#f597b6" stroke-width="3"/><path d="m140.5061 731.58029s23.3776 4.17456 40.9107 32.97901" stroke="#f599b8" stroke-width="6"/></g><rect x="1213.6653" y="245.18755" width="15.465465" height="29.86791" ry="7.7327323" fill="#3d3d3d" stroke-width="1.21007299"/></g><path d="m16.117507 56.26468c-8.3273024 0-15.031807 6.704509-15.031807 15.031807v187.407853c0 8.3273 6.7045046 15.0309 15.031807 15.0309h297.765883c8.3273 0 15.0309-6.7036 15.0309-15.0309v-187.407853c0-8.327298-6.7036-15.031807-15.0309-15.031807zm19.545708 21.422868h258.674465c6.6867 0 12.06979 5.383088 12.06979 12.069784v150.486158c0 6.6867-5.38309 12.06979-12.06979 12.06979h-258.674465c-6.686697 0-12.069784-5.38309-12.069784-12.06979v-150.486158c0-6.686696 5.383087-12.069784 12.069784-12.069784z" fill="#2196f3" stroke-width=".46520099"/><rect x="313.69675" y="68.42498" width="9.0541267" height="85.108795" ry="4.5270634" fill="#afd9fb" stroke-width=".46520099"/></svg>
