<?xml version="1.0" encoding="UTF-8" standalone="no"?>
<!-- Created with Inkscape (http://www.inkscape.org/) -->

<svg
   xmlns:dc="http://purl.org/dc/elements/1.1/"
   xmlns:cc="http://creativecommons.org/ns#"
   xmlns:rdf="http://www.w3.org/1999/02/22-rdf-syntax-ns#"
   xmlns:svg="http://www.w3.org/2000/svg"
   xmlns="http://www.w3.org/2000/svg"
   xmlns:sodipodi="http://sodipodi.sourceforge.net/DTD/sodipodi-0.dtd"
   xmlns:inkscape="http://www.inkscape.org/namespaces/inkscape"
   width="512"
   height="511.99997"
   viewBox="0 0 135.46666 135.46666"
   version="1.1"
   id="svg63187"
   inkscape:version="0.92.2 5c3e80d, 2017-08-06"
   sodipodi:docname="alan10.svg">
  <defs
     id="defs63181" />
  <sodipodi:namedview
     id="base"
     pagecolor="#ffffff"
     bordercolor="#666666"
     borderopacity="1.0"
     inkscape:pageopacity="0.0"
     inkscape:pageshadow="2"
     inkscape:zoom="0.53671965"
     inkscape:cx="580.57429"
     inkscape:cy="-33.354071"
     inkscape:document-units="px"
     inkscape:current-layer="layer1"
     showgrid="false"
     units="px"
     inkscape:snap-global="false"
     inkscape:window-width="1920"
     inkscape:window-height="1031"
     inkscape:window-x="0"
     inkscape:window-y="1"
     inkscape:window-maximized="1"
     fit-margin-top="0"
     fit-margin-left="0"
     fit-margin-right="0"
     fit-margin-bottom="0" />
  <metadata
     id="metadata63184">
    <rdf:RDF>
      <cc:Work
         rdf:about="">
        <dc:format>image/svg+xml</dc:format>
        <dc:type
           rdf:resource="http://purl.org/dc/dcmitype/StillImage" />
        <dc:title></dc:title>
      </cc:Work>
    </rdf:RDF>
  </metadata>
  <g
     inkscape:label="Layer 1"
     inkscape:groupmode="layer"
     id="layer1"
     transform="translate(34.874545,40.802006)">
    <g
       id="g67431">
      <rect
         ry="0"
         y="-40.802006"
         x="-34.874542"
         height="135.46666"
         width="135.46666"
         id="rect66062"
         style="opacity:0;fill:#c3002b;fill-opacity:1;stroke:none;stroke-width:0.88159168;stroke-linecap:round;stroke-miterlimit:4;stroke-dasharray:none;stroke-opacity:1" />
      <g
         transform="matrix(0.22997619,0,0,0.23023265,-26.065482,-38.262223)"
         id="g64782">
        <g
           id="g64780">
          <path
             inkscape:connector-curvature="0"
             style="fill:#868491"
             d="m 80,452.219 c -2.977,0 -5.781,-1.668 -7.156,-4.422 l -40,-80 c -1.977,-3.953 -0.375,-8.758 3.578,-10.734 3.945,-1.969 8.758,-0.375 10.734,3.578 L 72,410.332 v -46.113 c 0,-4.418 3.578,-8 8,-8 4.422,0 8,3.582 8,8 v 80 c 0,3.711 -2.555,6.934 -6.164,7.785 -0.609,0.145 -1.227,0.215 -1.836,0.215 z"
             id="path64778" />
        </g>
      </g>
      <g
         transform="matrix(0.22997619,0,0,0.23023265,-26.065482,-38.262223)"
         id="g64788">
        <g
           id="g64786">
          <path
             inkscape:connector-curvature="0"
             style="fill:#868491"
             d="m 432.219,452.219 c -0.609,0 -1.227,-0.07 -1.836,-0.215 -3.609,-0.852 -6.164,-4.074 -6.164,-7.785 v -80 c 0,-4.418 3.578,-8 8,-8 4.422,0 8,3.582 8,8 v 46.113 l 24.844,-49.691 c 1.984,-3.953 6.781,-5.547 10.734,-3.578 3.953,1.977 5.555,6.781 3.578,10.734 l -40,80 c -1.375,2.754 -4.18,4.422 -7.156,4.422 z"
             id="path64784" />
        </g>
      </g>
      <g
         transform="matrix(0.26435718,0,0,0.23023265,-34.874545,-38.262223)"
         id="g64824">
        <path
           inkscape:connector-curvature="0"
           style="fill:#e6be8a"
           d="M 504.438,372.219 H 8 c -4.418,0 -8,-3.582 -8,-8 v -16 c 0,-4.418 3.582,-8 8,-8 h 496.438 c 4.418,0 8,3.582 8,8 v 16 c 0,4.418 -3.582,8 -8,8 z"
           id="path64822" />
      </g>
      <g
         transform="matrix(0.86920137,0,0,0.87017067,-59.338773,-26.059641)"
         id="g65517">
        <g
           id="g64764"
           transform="matrix(0.26458333,0,0,0.26458333,49.993464,-14.023205)">
          <path
             id="path64762"
             d="m 424,116.219 h -40 c -4.418,0 -8,3.582 -8,8 v 216 h 56 v -216 c 0,-4.418 -3.582,-8 -8,-8 z"
             style="fill:#ff4f19"
             inkscape:connector-curvature="0" />
        </g>
        <g
           id="g64870"
           transform="matrix(0.52916667,0,0,0.26458333,-64.306539,-14.023205)">
          <g
             id="g64868">
            <rect
               id="rect64866"
               height="16"
               width="28"
               style="fill:#ffcd00"
               y="140.21899"
               x="404" />
          </g>
        </g>
        <g
           id="g64876"
           transform="matrix(0.52916667,0,0,0.26458333,-64.306539,-14.023205)">
          <g
             id="g64874">
            <rect
               id="rect64872"
               height="16"
               width="28"
               style="fill:#ffcd00"
               y="292.21899"
               x="404" />
          </g>
        </g>
      </g>
      <g
         transform="matrix(0.86920137,0,0,0.87017067,-62.582618,-26.059641)"
         id="g65462">
        <g
           id="g64772"
           transform="matrix(0.26458333,0,0,0.26458333,36.840454,-13.781903)"
           style="fill:#fbc02d;fill-opacity:1">
          <path
             id="path64770"
             d="M 168.219,84.219 H 120 c -4.418,0 -8,3.582 -8,8 v 248 h 64.219 v -248 c 0,-4.418 -3.582,-8 -8,-8 z"
             style="fill:#fbc02d;fill-opacity:1"
             inkscape:connector-curvature="0" />
        </g>
        <g
           id="g64828"
           transform="matrix(0.53097741,0,0,0.48326282,7.0043167,-35.190815)"
           style="fill:#ff9100;fill-opacity:1">
          <rect
             id="rect64826"
             height="16"
             width="32"
             style="fill:#ff9100;fill-opacity:1"
             y="108.219"
             x="112" />
        </g>
        <g
           transform="matrix(0.53097741,0,0,0.24196131,7.0043168,33.632958)"
           id="g65376"
           style="fill:#ff9100;fill-opacity:1">
          <rect
             x="112"
             y="108.219"
             style="fill:#ff9100;fill-opacity:1"
             width="32"
             height="16"
             id="rect65374" />
        </g>
        <g
           id="g65380"
           transform="matrix(0.53097741,0,0,0.48326282,7.0043168,-26.010801)"
           style="fill:#ff9100;fill-opacity:1">
          <rect
             id="rect65378"
             height="16"
             width="32"
             style="fill:#ff9100;fill-opacity:1"
             y="108.219"
             x="112" />
        </g>
      </g>
      <g
         transform="matrix(0.86920137,0,0,0.87017067,-59.514489,-26.059641)"
         id="g65470">
        <g
           id="g64820"
           transform="matrix(0.26458333,0,0,0.26458333,34.726684,-14.023205)"
           style="fill:#53adf6;fill-opacity:1">
          <path
             id="path64818"
             d="m 216,100.219 h -32 c -4.418,0 -8,3.582 -8,8 v 232 h 48 v -232 c 0,-4.418 -3.582,-8 -8,-8 z"
             style="fill:#53adf6;fill-opacity:1"
             inkscape:connector-curvature="0" />
        </g>
        <g
           id="g65396"
           transform="matrix(0.396875,0,0,0.21179862,36.84335,-0.39998036)"
           style="fill:#0b7edb;fill-opacity:1">
          <rect
             id="rect65394"
             height="16"
             width="32"
             style="fill:#0b7edb;fill-opacity:1"
             y="108.219"
             x="112" />
        </g>
        <g
           style="fill:#0b7edb;fill-opacity:1"
           transform="matrix(0.396875,0,0,0.21179862,36.84335,42.069084)"
           id="g65404">
          <rect
             x="112"
             y="108.219"
             style="fill:#0b7edb;fill-opacity:1"
             width="32"
             height="16"
             id="rect65402" />
        </g>
      </g>
      <g
         transform="matrix(0.86920137,0,0,0.87017067,-63.621432,-26.059641)"
         id="g65713">
        <g
           id="g64800"
           transform="matrix(0.38523408,0,0,0.26458333,23.164598,-14.023205)"
           style="fill:#5eaf00;fill-opacity:1">
          <path
             id="path64798"
             d="M 104,108.219 H 88 c -4.418,0 -8,3.582 -8,8 v 223.125 c 0,0.483 0.392,0.875 0.875,0.875 H 112 v -224 c 0,-4.418 -3.582,-8 -8,-8 z"
             style="fill:#5eaf00;fill-opacity:1"
             inkscape:connector-curvature="0" />
        </g>
        <g
           transform="matrix(0.77046667,0,0,0.26458333,-143.25614,-10.162381)"
           id="g65410">
          <g
             id="g65408">
            <rect
               x="256"
               y="140.21899"
               style="fill:#5d647f"
               width="16"
               height="16"
               id="rect65406" />
          </g>
        </g>
        <g
           id="g65416"
           transform="matrix(0.77046667,0,0,0.26458333,-143.25612,26.34824)">
          <g
             id="g65414">
            <rect
               id="rect65412"
               height="16"
               width="16"
               style="fill:#5d647f"
               y="140.21899"
               x="256" />
          </g>
        </g>
      </g>
      <g
         transform="matrix(0.86920137,0,0,0.87017067,-60.198441,-26.059641)"
         id="g65507">
        <g
           id="g64812"
           transform="matrix(0.26458333,0,0,0.26458333,44.164145,-14.023205)">
          <path
             id="path64810"
             d="m 336,60.219 h -40 c -4.418,0 -8,3.582 -8,8 v 272 h 56 v -272 c 0,-4.418 -3.582,-8 -8,-8 z"
             style="fill:#ff9100"
             inkscape:connector-curvature="0" />
        </g>
        <g
           id="g65420"
           transform="matrix(0.45475261,0,0,0.76980836,69.564143,-68.698149)"
           style="fill:#803300;fill-opacity:1">
          <rect
             id="rect65418"
             height="16"
             width="32"
             style="fill:#803300;fill-opacity:1"
             y="108.219"
             x="112" />
        </g>
        <g
           style="fill:#803300;fill-opacity:1"
           transform="matrix(0.46302083,0,0,0.16655459,68.505811,43.410502)"
           id="g65424">
          <rect
             x="112"
             y="108.219"
             style="fill:#803300;fill-opacity:1"
             width="32"
             height="16"
             id="rect65422" />
        </g>
        <g
           id="g65428"
           transform="matrix(0.46302083,0,0,0.16655459,68.505811,48.192043)"
           style="fill:#803300;fill-opacity:1">
          <rect
             id="rect65426"
             height="16"
             width="32"
             style="fill:#803300;fill-opacity:1"
             y="108.219"
             x="112" />
        </g>
      </g>
      <g
         transform="matrix(0.86920137,0,0,0.87017067,-60.171308,-26.059641)"
         id="g65479">
        <g
           id="g64792"
           transform="matrix(0.339725,0,0,0.26458333,20.008722,-14.023205)">
          <path
             id="path64790"
             d="m 248,84.219 h -16 c -4.418,0 -8,3.582 -8,8 v 248 h 32 v -248 c 0,-4.418 -3.582,-8 -8,-8 z"
             style="fill:#5d647f"
             inkscape:connector-curvature="0" />
        </g>
        <g
           style="fill:#0b7edb;fill-opacity:1"
           transform="matrix(0.3389974,0,0,0.21179862,58.151055,-6.4325256)"
           id="g65432">
          <rect
             x="112"
             y="108.219"
             style="fill:#0b7edb;fill-opacity:1"
             width="32"
             height="16"
             id="rect65430" />
        </g>
        <g
           id="g65436"
           transform="matrix(0.3389974,0,0,0.21179862,58.151055,43.034287)"
           style="fill:#0b7edb;fill-opacity:1">
          <rect
             id="rect65434"
             height="16"
             width="32"
             style="fill:#0b7edb;fill-opacity:1"
             y="108.219"
             x="112" />
        </g>
        <rect
           style="opacity:1;fill:#0b7edb;fill-opacity:1;stroke:none;stroke-width:1.05833328;stroke-linecap:round;stroke-miterlimit:4;stroke-dasharray:none;stroke-opacity:1"
           id="rect65438"
           width="3.8608241"
           height="38.849541"
           x="99.612305"
           y="23.491131"
           ry="1.9304121" />
      </g>
      <g
         transform="matrix(0.86920137,0,0,0.87017067,-60.289741,-26.059641)"
         id="g65497">
        <g
           id="g64816"
           transform="matrix(0.33244938,0,0,0.26458333,23.365652,-14.023205)">
          <path
             id="path64814"
             d="m 280,116.219 h -16 c -4.418,0 -8,3.582 -8,8 v 216 h 32 v -216 c 0,-4.418 -3.582,-8 -8,-8 z"
             style="fill:#00c37a"
             inkscape:connector-curvature="0" />
        </g>
        <g
           style="fill:#006b43;fill-opacity:1"
           transform="matrix(0.33244896,0,0,0.76980836,71.238416,-29.366003)"
           id="g65442">
          <rect
             x="112"
             y="108.219"
             style="fill:#006b43;fill-opacity:1"
             width="32"
             height="16"
             id="rect65440" />
        </g>
        <g
           id="g65483"
           transform="matrix(0.33244896,0,0,0.16655459,71.238416,7.9391802)"
           style="fill:#006b43;fill-opacity:1">
          <rect
             id="rect65481"
             height="16"
             width="32"
             style="fill:#006b43;fill-opacity:1"
             y="108.219"
             x="112" />
        </g>
        <g
           style="fill:#006b43;fill-opacity:1"
           transform="matrix(0.33244896,0,0,0.16655459,71.238416,12.720721)"
           id="g65487">
          <rect
             x="112"
             y="108.219"
             style="fill:#006b43;fill-opacity:1"
             width="32"
             height="16"
             id="rect65485" />
        </g>
      </g>
      <g
         transform="matrix(0.86920137,0,0,0.87017067,-63.621432,-26.059641)"
         id="g65767">
        <path
           inkscape:connector-curvature="0"
           style="fill:#c3002b;fill-opacity:1;stroke-width:0.30125365"
           d="m 49.881165,21.20104 h -8.232152 c -1.515402,0 -2.74405,0.947738 -2.74405,2.116667 V 76.234373 H 52.625216 V 23.317707 c 0,-1.168929 -1.228649,-2.116667 -2.744051,-2.116667 z"
           id="path64802" />
        <g
           transform="matrix(0.85751459,0,0,0.26458333,-180.61876,-3.8885419)"
           id="g65691"
           style="fill:#fbc02d;fill-opacity:1">
          <g
             id="g65689"
             style="fill:#fbc02d;fill-opacity:1">
            <rect
               x="256"
               y="140.21899"
               style="fill:#fbc02d;fill-opacity:1"
               width="16"
               height="16"
               id="rect65687" />
          </g>
        </g>
        <g
           style="fill:#fbc02d;fill-opacity:1"
           id="g65697"
           transform="matrix(0.85751459,0,0,0.26458333,-180.61876,8.9004381)">
          <g
             style="fill:#fbc02d;fill-opacity:1"
             id="g65695">
            <rect
               id="rect65693"
               height="16"
               width="16"
               style="fill:#fbc02d;fill-opacity:1"
               y="140.21899"
               x="256" />
          </g>
        </g>
        <g
           transform="matrix(0.85751459,0,0,0.53604753,-180.61876,-14.444607)"
           id="g65703"
           style="fill:#fbc02d;fill-opacity:1">
          <g
             id="g65701"
             style="fill:#fbc02d;fill-opacity:1">
            <rect
               x="256"
               y="140.21899"
               style="fill:#fbc02d;fill-opacity:1"
               width="16"
               height="16"
               id="rect65699" />
          </g>
        </g>
      </g>
      <g
         transform="matrix(0.86920137,0,0,0.87017067,-63.621432,-26.059641)"
         id="g65747">
        <g
           id="g64796"
           transform="matrix(0.39277476,0,0,0.26458333,5.3624939,-14.023205)">
          <path
             id="path64794"
             d="m 368,84.219 h -16 c -4.418,0 -8,3.582 -8,8 v 248 h 32 v -248 c 0,-4.418 -3.582,-8 -8,-8 z"
             style="fill:#4bb9ec"
             inkscape:connector-curvature="0" />
        </g>
        <g
           style="fill:#fbc02d;fill-opacity:1"
           id="g65719"
           transform="matrix(0.78554792,0,0,0.26458333,-60.623243,23.61983)">
          <g
             style="fill:#fbc02d;fill-opacity:1"
             id="g65717">
            <rect
               id="rect65715"
               height="16"
               width="16"
               style="fill:#fbc02d;fill-opacity:1"
               y="140.21899"
               x="256" />
          </g>
        </g>
        <g
           transform="matrix(0.78554792,0,0,0.26458333,-60.623243,17.345991)"
           id="g65725"
           style="fill:#fbc02d;fill-opacity:1">
          <g
             id="g65723"
             style="fill:#fbc02d;fill-opacity:1">
            <rect
               x="256"
               y="140.21899"
               style="fill:#fbc02d;fill-opacity:1"
               width="16"
               height="16"
               id="rect65721" />
          </g>
        </g>
        <circle
           style="opacity:1;fill:#fbc02d;fill-opacity:1;stroke:none;stroke-width:1.05833328;stroke-linecap:round;stroke-miterlimit:4;stroke-dasharray:none;stroke-opacity:1"
           id="path65727"
           cx="146.76141"
           cy="27.521252"
           r="3.378221" />
        <g
           style="fill:#fbc02d;fill-opacity:1"
           id="g65733"
           transform="matrix(0.78554792,0,0,0.17409526,-60.623243,-4.7132809)">
          <g
             style="fill:#fbc02d;fill-opacity:1"
             id="g65731">
            <rect
               id="rect65729"
               height="16"
               width="16"
               style="fill:#fbc02d;fill-opacity:1"
               y="140.21899"
               x="256" />
          </g>
        </g>
      </g>
      <g
         transform="matrix(0.86920137,0,0,0.87017067,-63.621432,-26.059641)"
         id="g65754">
        <g
           id="g64808"
           transform="matrix(0.31284363,0,0,0.26458333,35.430238,-14.023205)"
           style="fill:#808080">
          <path
             id="path64806"
             d="m 464,100.219 h -24 c -4.418,0 -8,3.582 -8,8 v 232 h 40 v -232 c 0,-4.418 -3.582,-8 -8,-8 z"
             style="fill:#808080"
             inkscape:connector-curvature="0" />
        </g>
        <rect
           style="opacity:1;fill:#ffffff;fill-opacity:1;stroke:none;stroke-width:1.05833328;stroke-linecap:round;stroke-miterlimit:4;stroke-dasharray:none;stroke-opacity:1"
           id="rect65749"
           width="6.5151405"
           height="40.538654"
           x="173.57799"
           y="23.973743"
           ry="1.9304132" />
      </g>
      <g
         transform="matrix(0.86920137,0,0,0.87017067,-93.194712,-26.059641)"
         id="g66070">
        <rect
           style="opacity:1;fill:#53adf6;fill-opacity:1;stroke:none;stroke-width:1.05833328;stroke-linecap:round;stroke-miterlimit:4;stroke-dasharray:none;stroke-opacity:1"
           id="rect66064"
           width="50.673317"
           height="24.612753"
           x="119.68555"
           y="95.271927"
           ry="5.7912364" />
        <rect
           ry="4.6556997"
           y="97.684944"
           x="124.65352"
           height="19.786722"
           width="40.737373"
           id="rect66066"
           style="opacity:1;fill:#ffffff;fill-opacity:1;stroke:none;stroke-width:0.85081697;stroke-linecap:round;stroke-miterlimit:4;stroke-dasharray:none;stroke-opacity:1" />
      </g>
      <g
         transform="matrix(0.86920137,0,0,0.87017067,-65.687083,-49.373978)"
         id="text66080"
         style="font-style:normal;font-variant:normal;font-weight:normal;font-stretch:normal;font-size:17.63888931px;line-height:1.25;font-family:'king cooL KC';-inkscape-font-specification:'king cooL KC, Normal';font-variant-ligatures:normal;font-variant-caps:normal;font-variant-numeric:normal;font-feature-settings:normal;text-align:start;letter-spacing:0px;word-spacing:0px;writing-mode:lr-tb;text-anchor:start;fill:#424242;fill-opacity:1;stroke:none;stroke-width:0.26458332"
         aria-label="Alan">
        <path
           inkscape:connector-curvature="0"
           id="path66106"
           style="font-style:normal;font-variant:normal;font-weight:normal;font-stretch:normal;font-size:17.63888931px;font-family:'king cooL KC';-inkscape-font-specification:'king cooL KC, Normal';font-variant-ligatures:normal;font-variant-caps:normal;font-variant-numeric:normal;font-feature-settings:normal;text-align:start;writing-mode:lr-tb;text-anchor:start;fill:#424242;fill-opacity:1;stroke-width:0.26458332"
           d="m 106.10173,128.12259 q 0.79237,0.0603 1.1455,1.11966 0.35312,1.05937 0.63734,1.93787 0.28422,0.86988 0.76653,4.28053 0.0861,0 0.48232,4.61643 0.1378,0.18948 0.2067,1.17133 0,0.29283 -0.58566,0.44786 -0.54261,0 -0.62012,-1.37804 v -0.96462 q -0.19809,-2.82498 -0.37896,-2.82498 l -0.41341,-0.0689 q -2.65273,0.0861 -2.65273,0.58566 l -0.79237,4.09967 q -0.18948,0.17225 -0.34451,0.17225 -0.51676,-0.10335 -0.51676,-0.51676 1.30913,-7.14858 1.9637,-11.29992 0.10336,-0.0689 0.31006,-0.86127 0.42203,-0.51677 0.79237,-0.51677 z m -0.96462,6.75239 v 0.41341 q 0,0.24116 1.10243,0.24116 h 0.55121 q 0.93018,0 0.93018,-0.24116 l 0.0345,-0.24115 -0.0689,-0.31006 v -0.55122 q -0.17226,-0.31867 -0.75792,-2.96278 -0.43925,-1.41249 -0.79238,-1.41249 h -0.0344 q -0.0603,0 -0.2756,0.99908 -0.23255,0.74931 -0.62012,3.7207 -0.0603,0 -0.0689,0.34451 z" />
        <path
           inkscape:connector-curvature="0"
           id="path66108"
           style="font-style:normal;font-variant:normal;font-weight:normal;font-stretch:normal;font-size:17.63888931px;font-family:'king cooL KC';-inkscape-font-specification:'king cooL KC, Normal';font-variant-ligatures:normal;font-variant-caps:normal;font-variant-numeric:normal;font-feature-settings:normal;text-align:start;writing-mode:lr-tb;text-anchor:start;fill:#424242;fill-opacity:1;stroke-width:0.26458332"
           d="m 111.10573,127.046 q 0.24116,0 0.48232,0.20671 l -0.0344,0.2067 -0.37896,10.6798 q 0,3.23839 -0.20671,3.23839 -0.26699,0.2067 -0.37896,0.2067 -0.41341,0 -0.51676,-0.96462 v -0.62012 q 0,-2.48047 0.37896,-10.78315 0,-2.10151 0.2756,-2.10151 z" />
        <path
           inkscape:connector-curvature="0"
           id="path66110"
           style="font-style:normal;font-variant:normal;font-weight:normal;font-stretch:normal;font-size:17.63888931px;font-family:'king cooL KC';-inkscape-font-specification:'king cooL KC, Normal';font-variant-ligatures:normal;font-variant-caps:normal;font-variant-numeric:normal;font-feature-settings:normal;text-align:start;writing-mode:lr-tb;text-anchor:start;fill:#424242;fill-opacity:1;stroke-width:0.26458332"
           d="m 114.75754,128.38098 q 0.71485,0.24977 1.24023,0.99907 0.48231,0.88712 0.80098,2.26515 0.32729,1.37804 0.37035,4.00493 -0.0258,3.1092 -0.19809,3.514 0,1.99815 -0.58567,1.99815 0,0.0861 -2.69578,0.10335 -0.77515,0 -1.27469,-1.27468 -0.1378,-0.56844 -0.1378,-0.99908 v -0.17225 q 0,-1.19718 0.99907,-2.48047 0.6029,-0.68902 1.5503,-0.68902 l 0.75792,0.0345 h 0.37896 l 0.0345,-0.37896 0.0344,-1.72255 q 0,-1.44694 -0.93017,-3.5829 -0.25839,-0.31006 -0.51677,-0.31006 h -0.1378 q -0.10336,0 -0.82683,0.48232 h -0.0689 q -0.55121,-0.25839 -0.55121,-0.58567 v -0.1378 q 0.90433,-1.06798 1.757,-1.06798 z m -1.30914,10.26638 v 0.27561 q 0,0.76653 0.37896,1.06798 h 0.0689 q 1.76561,-0.0775 1.80006,-0.0861 0.31006,-1.54168 0.0258,-2.5666 -0.27561,-0.48231 -0.89572,-0.48231 -0.62873,0 -1.30914,1.20578 z" />
        <path
           inkscape:connector-curvature="0"
           id="path66112"
           style="font-style:normal;font-variant:normal;font-weight:normal;font-stretch:normal;font-size:17.63888931px;font-family:'king cooL KC';-inkscape-font-specification:'king cooL KC, Normal';font-variant-ligatures:normal;font-variant-caps:normal;font-variant-numeric:normal;font-feature-settings:normal;text-align:start;writing-mode:lr-tb;text-anchor:start;fill:#424242;fill-opacity:1;stroke-width:0.26458332"
           d="m 122.3712,128.62213 q 0.55121,0.17226 0.86127,0.93018 0.20671,0.24977 0.48231,1.8259 -0.31005,5.04706 -0.2756,7.55337 l 0.0345,1.6881 q 0,0.96462 -0.65457,0.96462 -0.55122,0 -0.55122,-0.79237 0.10336,-5.46047 0.27561,-7.82898 l 0.0689,-2.06705 -0.44786,-1.10243 q -0.14642,-0.13781 -0.27561,-0.13781 h -0.17225 q -0.58567,-0.0345 -2.15319,3.89296 -0.55121,1.41249 -0.55121,1.72255 v 1.37804 l 0.10335,2.24792 -0.0689,0.99908 v 0.0344 l 0.0689,0.65457 q 0,0.31867 -0.65457,0.68902 -0.58566,-0.16365 -0.58566,-0.96463 l -0.0689,-1.10243 q 0.1378,-3.22117 0.10335,-9.20702 0,-1.20578 0.31006,-1.20578 0.23254,-0.20671 0.48231,-0.20671 0.34451,0 0.34451,0.41341 l -0.0689,2.41157 q 0.0431,0.17225 0.10335,0.17225 h 0.20671 q 0.0603,0 0.93017,-1.61919 0.85266,-1.20578 1.20579,-1.20578 0.39618,-0.31006 0.9474,-0.13781 z" />
      </g>
    </g>
  </g>
</svg>
