<?xml version="1.0" encoding="UTF-8"?>
<!-- Created with Inkscape (http://www.inkscape.org/) -->
<svg width="511.99997" height="511.99997" version="1.1" viewBox="0 0 135.46666 135.46666" xmlns="http://www.w3.org/2000/svg" xmlns:cc="http://creativecommons.org/ns#" xmlns:dc="http://purl.org/dc/elements/1.1/" xmlns:rdf="http://www.w3.org/1999/02/22-rdf-syntax-ns#">
 <metadata>
  <rdf:RDF>
   <cc:Work rdf:about="">
    <dc:format>image/svg+xml</dc:format>
    <dc:type rdf:resource="http://purl.org/dc/dcmitype/StillImage"/>
    <dc:title/>
   </cc:Work>
  </rdf:RDF>
 </metadata>
 <g transform="translate(-157.42509,-3.4808333)">
  <rect x="157.42509" y="3.4808335" width="135.46666" height="135.46666" opacity="0" stroke-width="1.86689615"/>
  <g transform="translate(-3.833347,-12.984538)" stroke-width="2.06308794">
   <path d="m197.54661 105.43746c-23.0269-9.804501-33.60193-36.941117-23.57516-60.490024 10.02677-23.548905 36.91813-34.732886 59.94504-24.928377 23.02691 9.804513 33.60195 36.941124 23.57517 60.490029-10.02677 23.548902-36.91813 34.732892-59.94505 24.928372zm34.75344-81.622028c-20.9332-8.913041-45.39612 1.29134-54.53223 22.748442-9.13611 21.457104 0.46204 46.164171 21.39523 55.077216 20.93321 8.91304 45.39613-1.29134 54.53224-22.74844 9.13612-21.457103-0.46203-46.164174-21.39524-55.077218z" fill="#cbb292"/>
   <g fill="#fae">
    <circle transform="rotate(23.063576)" cx="223.06223" cy="17.557493" r="12.378528"/>
    <circle transform="rotate(23.063576)" cx="266.38708" cy="-26.798891" r="12.378528"/>
    <circle transform="rotate(23.063576)" cx="177.6743" cy="-26.798891" r="12.378528"/>
   </g>
   <g fill="#afe9dd">
    <circle transform="rotate(23.063576)" cx="254.12407" cy="3.8358948" r="12.378528"/>
    <circle transform="rotate(23.063576)" cx="253.3958" cy="-58.164017" r="12.378528"/>
    <circle transform="rotate(23.063576)" cx="190.66556" cy="4.5662255" r="12.378528"/>
   </g>
  </g>
  <g transform="matrix(.87921776 -.23558569 .21658684 .80831309 131.41202 41.832041)">
   <rect x="78.181686" y="114.09344" width="70.942642" height="29.921387" ry="4.3434272" fill="#ffe680"/>
   <rect x="83.33075" y="116.26515" width="60.644516" height="25.577959" ry="3.7129297" fill="#fff"/>
  </g>
  <g transform="rotate(-15)" fill="#424242" stroke-width=".26458332" style="font-feature-settings:normal;font-variant-caps:normal;font-variant-ligatures:normal;font-variant-numeric:normal" aria-label="Alma">
   <path d="m211.23387 175.52164q0.79237 0.0603 1.14549 1.11966t0.63734 1.93786q0.28422 0.86989 0.76654 4.28054 0.0861 0 0.48231 4.61642 0.1378 0.18948 0.20671 1.17134 0 0.29283-0.58567 0.44786-0.5426 0-0.62012-1.37804v-0.96463q-0.19809-2.82498-0.37896-2.82498l-0.41341-0.0689q-2.65272 0.0861-2.65272 0.58567l-0.79237 4.09966q-0.18948 0.17226-0.34451 0.17226-0.51677-0.10336-0.51677-0.51677 1.30914-7.14857 1.96371-11.29991 0.10335-0.0689 0.31005-0.86127 0.42203-0.51677 0.79238-0.51677zm-0.96463 6.75239v0.41341q0 0.24116 1.10243 0.24116h0.55122q0.93017 0 0.93017-0.24116l0.0344-0.24116-0.0689-0.31005v-0.55122q-0.17225-0.31867-0.75792-2.96278-0.43925-1.41249-0.79237-1.41249h-0.0344q-0.0603 0-0.27561 0.99908-0.23255 0.7493-0.62012 3.7207-0.0603 0-0.0689 0.34451z" style="font-feature-settings:normal;font-variant-caps:normal;font-variant-ligatures:normal;font-variant-numeric:normal"/>
   <path d="m216.23787 174.44505q0.24115 0 0.48231 0.20671l-0.0344 0.2067-0.37896 10.6798q0 3.23839-0.20671 3.23839-0.26699 0.2067-0.37896 0.2067-0.41341 0-0.51676-0.96462v-0.62012q0-2.48047 0.37896-10.78315 0-2.10151 0.27561-2.10151z" style="font-feature-settings:normal;font-variant-caps:normal;font-variant-ligatures:normal;font-variant-numeric:normal"/>
   <path d="m218.05516 175.61638q0.65456 0 0.65456 1.48139 0.0861 0.24116 0.13781 0.24116 0.12919-0.0775 0.44786-0.72347 0.6115-0.68041 1.24023-0.82682 0.56845 0 1.10243 1.10243l0.27561 1.20578 0.13781 0.44786 0.10335 0.0689q0.28422-0.61151 0.75792-1.92065 0.45648-0.68901 1.13688-0.68901 0.74931 0 0.99908 0.48231 0.55121 1.61919 0.55121 2.44602v0.0689q-0.2756 1.6881-0.37896 6.14949l0.0172 1.757q-0.0603 1.80868-0.37896 1.80868l-0.31006 0.1378q-0.58567-0.0947-0.58567-0.58566v-0.0689q0-1.42971 0.12058-3.46232 0.34451-5.20209 0.34451-6.01169v-0.20671q0-1.12826-0.37896-1.30913h-0.1378q-0.43925 0.24977-0.62012 0.82682-0.2067 0.3359-0.48231 1.34359-0.38758 1.14549-0.62012 3.97908-0.34451 2.22209-0.34451 3.41065 9e-3 0.21532 0.10335 0.41341-0.12919 0.21532-0.24115 0.72347-0.24977 0.27561-0.55122 0.27561-0.55983 0-0.65457-0.75792 0.1981-1.41249 0.37896-9.01754 0-1.08521-0.44786-1.58474h-0.0344q-0.50815 0.38757-1.11966 1.38665-0.6115 0.99907-0.60289 2.4374-0.0861 0-0.14641 3.96186-0.0603 3.95325-0.30145 3.95325 0 0.0689-0.41341 0.17225-0.21532 0-0.41341-0.51676l0.34451-11.53246v-0.72347q0-0.27561 0.31006-0.34451z" style="font-feature-settings:normal;font-variant-caps:normal;font-variant-ligatures:normal;font-variant-numeric:normal"/>
   <path d="m228.70911 175.78002q0.71486 0.24977 1.24024 0.99908 0.48231 0.88711 0.80098 2.26515 0.32729 1.37804 0.37035 4.00493-0.0258 3.10919-0.19809 3.51399 0 1.99816-0.58567 1.99816 0 0.0861-2.69579 0.10335-0.77514 0-1.27468-1.27468-0.1378-0.56844-0.1378-0.99908v-0.17226q0-1.19717 0.99907-2.48047 0.6029-0.68901 1.5503-0.68901l0.75792 0.0344h0.37896l0.0345-0.37896 0.0344-1.72255q0-1.44694-0.93018-3.5829-0.25838-0.31006-0.51676-0.31006h-0.1378q-0.10336 0-0.82683 0.48231h-0.0689q-0.55121-0.25838-0.55121-0.58566v-0.13776q0.90433-1.06798 1.75699-1.06798zm-1.30913 10.26639v0.27561q0 0.76653 0.37896 1.06798h0.0689q1.76561-0.0775 1.80006-0.0861 0.31006-1.54168 0.0258-2.5666-0.27561-0.48231-0.89572-0.48231-0.62873 0-1.30914 1.20578z" style="font-feature-settings:normal;font-variant-caps:normal;font-variant-ligatures:normal;font-variant-numeric:normal"/>
  </g>
 </g>
</svg>
