<?xml version="1.0" encoding="UTF-8"?>
<!-- Created with Inkscape (http://www.inkscape.org/) -->
<svg width="1185" height="1185" version="1.1" viewBox="0 0 313.53124 313.53126" xmlns="http://www.w3.org/2000/svg" xmlns:cc="http://creativecommons.org/ns#" xmlns:dc="http://purl.org/dc/elements/1.1/" xmlns:rdf="http://www.w3.org/1999/02/22-rdf-syntax-ns#">
 <metadata>
  <rdf:RDF>
   <cc:Work rdf:about="">
    <dc:format>image/svg+xml</dc:format>
    <dc:type rdf:resource="http://purl.org/dc/dcmitype/StillImage"/>
    <dc:title/>
   </cc:Work>
  </rdf:RDF>
 </metadata>
 <g transform="translate(282.9743,-437.71436)">
  <rect x="-282.9743" y="437.71436" width="313.53125" height="313.53125" opacity="0" stroke-width="1.1926415"/>
  <path d="m-126.92895 489.91918a98.933613 98.933613 0 0 0 -33.81034 6.08749l7.72408 0.66921-4.72271 6.92671a90.72936 90.72936 0 0 1 30.80897 -5.47874 90.72936 90.72936 0 0 1 90.729337 90.72935 90.72936 90.72936 0 0 1 -90.729337 90.72935 90.72936 90.72936 0 0 1 -90.72934 -90.72935 90.72936 90.72936 0 0 1 42.67646 -76.90177l-3.50676-7.39025a98.933613 98.933613 0 0 0 -47.37385 84.29202 98.933613 98.933613 0 0 0 98.93349 98.9335 98.933613 98.933613 0 0 0 98.932977 -98.9335 98.933613 98.933613 0 0 0 -98.932977 -98.93402z" fill="#ff5252"/>
  <g stroke="#fff" stroke-width=".5291667">
   <g transform="translate(-740.47474,442.94625)" fill="#0d47a1" style="font-feature-settings:normal;font-variant-caps:normal;font-variant-ligatures:normal;font-variant-numeric:normal" aria-label="Martes">
    <path d="m660.20104 77.49603-3.64319 0.06029-0.27561 11.119046h3.52261l0.16364-7.372504 2.68718 4.358045 2.62688-3.970472-0.1378 7.036607 3.60012 0.06029 0.27561-11.153497-3.66041-0.05168-2.59244 4.185791z" style="font-feature-settings:normal;font-variant-caps:normal;font-variant-ligatures:normal;font-variant-numeric:normal"/>
    <path d="m672.96512 86.634146q-0.29284-0.04306-0.48232-0.172255-0.18087-0.129191-0.19809-0.275608-9e-3 -0.155029 0.16364-0.241156 0.19809-0.09474 0.57705-0.0689 0.267 0.02584 0.42203 0.155029 0.1378 0.129191 0.12919 0.284221-9e-3 0.163642-0.16364 0.249769-0.16364 0.103353-0.44786 0.0689zm2.3685-6.020305q-2.25654-0.396186-3.86712-0.163642-0.8096 0.120579-1.16272 0.318672l0.49954 2.506307q0.96462-0.266995 2.0326-0.241157 2.13596 0.05168 2.6355 1.550293-0.80959-0.482313-1.85174-0.732083-2.1015-0.499539-3.30729 0.671794-0.71486 0.697632-0.88711 1.576131-0.17225 0.869887 0.24116 1.584744 0.43925 0.766534 1.38665 1.102431 1.05936 0.370347 2.54937 0.120578 1.21439-0.215319 1.93786-1.188558l-0.14641 1.033529h2.93694q0.52538-1.808676 0.41341-3.729316-0.0947-1.679484-0.79237-2.756077-0.86127-1.343587-2.61827-1.653646z" style="font-feature-settings:normal;font-variant-caps:normal;font-variant-ligatures:normal;font-variant-numeric:normal"/>
    <path d="m681.8793 79.812857-2.75608 0.0689 0.21532 8.83667 2.83359 0.0689-0.11196-3.643189q0.37896-1.834513 2.04983-2.273763 0.83544-0.223931 1.59336-0.07752l9e-3 -3.005846q-2.42018 0.06029-3.79822 1.111044z" style="font-feature-settings:normal;font-variant-caps:normal;font-variant-ligatures:normal;font-variant-numeric:normal"/>
    <path d="m688.76088 76.824236-0.0861 2.781915-2.31683-0.129191-0.15502 2.764689 2.37711 0.111966-0.11196 6.545681 2.92833 0.15503 0.0861-6.580133 2.24793 0.01722 0.0603-2.781914-2.23931-0.04306 0.0603-2.678562z" style="font-feature-settings:normal;font-variant-caps:normal;font-variant-ligatures:normal;font-variant-numeric:normal"/>
    <path d="m698.81194 82.250262q0.75792-0.137804 1.10243 0.241156 0.17226 0.198093 0.18948 0.413412l-2.32544 0.223931q-0.0344-0.163642 0.0689-0.361735 0.21531-0.37896 0.96462-0.516764zm-0.35312 3.625963q-0.44786-0.24977-0.6115-0.689019-0.0861-0.215319-0.0775-0.387573l5.77915-0.68902q-0.19809-1.162719-0.99047-2.256537-1.60196-2.196249-4.63365-1.912028-1.73116 0.163642-2.73885 1.395263-0.91295 1.102431-0.99908 2.713013-0.0947 1.558906 0.61151 2.850817 0.75792 1.386651 2.11873 1.8259 2.35989 0.775147 4.53891-0.344509 1.09382-0.559828 1.70533-1.266073l-1.85174-1.929253q-0.4048 0.344509-0.96463 0.602891-1.11104 0.525378-1.88619 0.08613z" style="font-feature-settings:normal;font-variant-caps:normal;font-variant-ligatures:normal;font-variant-numeric:normal"/>
    <path d="m705.05618 85.178593q0.79237 0.34451 1.4211 0.611504 1.73978 0.869887 2.08429 0.559829 0.12058-0.180868 0.0344-0.310059-0.0861-0.129191-0.85266-0.430637-0.75792-0.310059-1.73978-0.620117-0.98185-0.310059-1.33497-1.024916-0.3359-0.689019-0.0517-1.455553 0.31006-0.826823 1.18856-1.309136 1.0163-0.551216 2.51492-0.456476 1.26607 0.07752 2.52353 0.577054 0.59428 0.327284 0.93018 0.645955l-1.08521 1.705323q-0.49954-0.327284-0.97324-0.473701-1.55029-0.568441-1.63642 0.03445-9e-3 0.163642 0.27561 0.34451 0.29283 0.172254 1.24024 0.430637 0.95601 0.249769 1.55029 0.533989 0.88711 0.43925 1.07659 1.403877 0.19809 0.981852-0.6115 2.015381-0.84405 0.990465-2.91972 0.999077-1.80868 0.01723-4.8662-1.3522z" style="font-feature-settings:normal;font-variant-caps:normal;font-variant-ligatures:normal;font-variant-numeric:normal"/>
   </g>
   <g transform="translate(-760.20508,455.63005)" fill="#1565c0" style="font-feature-settings:normal;font-variant-caps:normal;font-variant-ligatures:normal;font-variant-numeric:normal" aria-label="Miércoles">
    <path d="m677.86638 148.51496-3.64319 0.0603-0.27561 11.11904h3.52261l0.16365-7.3725 2.68717 4.35804 2.62689-3.97047-0.13781 7.03661 3.60013 0.0603 0.27561-11.1535-3.66042-0.0517-2.59243 4.18579z" style="font-feature-settings:normal;font-variant-caps:normal;font-variant-ligatures:normal;font-variant-numeric:normal"/>
    <path d="m688.61508 150.78872q0.86127-0.0258 1.31775-0.52538 0.42202-0.45647 0.38757-1.10243-0.0344-0.63734-0.48231-1.09381-0.48232-0.49954-1.25746-0.51677-0.69763-0.0258-1.16272 0.49093-0.42203 0.4737-0.46509 1.13688-0.0344 0.68041 0.36174 1.12827 0.45647 0.50815 1.30052 0.48231zm1.30914 0.55122-2.72163 9e-3 -0.0344 8.47493 2.79914 0.0689z" style="font-feature-settings:normal;font-variant-caps:normal;font-variant-ligatures:normal;font-variant-numeric:normal"/>
    <path d="m695.2555 153.26919q0.75792-0.1378 1.10243 0.24116 0.17226 0.19809 0.18948 0.41341l-2.32544 0.22393q-0.0345-0.16364 0.0689-0.36174 0.21532-0.37896 0.96463-0.51676zm-0.35312 3.62596q-0.44786-0.24977-0.61151-0.68902-0.0861-0.21531-0.0775-0.38757l5.77915-0.68902q-0.1981-1.16272-0.99047-2.25654-1.60197-2.19624-4.63365-1.91202-1.73116 0.16364-2.73885 1.39526-0.91295 1.10243-0.99908 2.71301-0.0947 1.55891 0.6115 2.85082 0.75793 1.38665 2.11874 1.8259 2.35989 0.77515 4.53891-0.34451 1.09382-0.55983 1.70532-1.26607l-1.85173-1.92926q-0.4048 0.34451-0.96463 0.6029-1.11104 0.52537-1.88619 0.0861zm0.79237-9.70655-2.73885 2.83359 0.79237 0.83543 3.247-2.09289z" style="font-feature-settings:normal;font-variant-caps:normal;font-variant-ligatures:normal;font-variant-numeric:normal"/>
    <path d="m703.02419 150.83179-2.75608 0.0689 0.21532 8.83667 2.83359 0.0689-0.11196-3.64319q0.37896-1.83451 2.04983-2.27376 0.83544-0.22393 1.59336-0.0775l9e-3 -3.00584q-2.42018 0.0603-3.79822 1.11104z" style="font-feature-settings:normal;font-variant-caps:normal;font-variant-ligatures:normal;font-variant-numeric:normal"/>
    <path d="m713.17861 154.68168q-0.31006-0.31006-0.74069-0.4737-0.85267-0.32729-1.41249 0.39618-0.31867 0.42203-0.20671 0.86128 0.0861 0.4048 0.49093 0.68041 0.41341 0.26699 0.93879 0.25838 0.57705-0.0258 1.07659-0.4048l2.15318 1.6881q-0.6115 0.91295-1.72255 1.52445-2.23069 1.2144-4.737-0.28422-1.31775-0.79237-1.58475-2.6355-0.24976-1.77422 0.6029-3.32452 0.91295-1.68809 2.63549-2.0326 2.00677-0.38758 4.51308 1.2833z" style="font-feature-settings:normal;font-variant-caps:normal;font-variant-ligatures:normal;font-variant-numeric:normal"/>
    <path d="m720.05158 156.4559q-0.50815-9e-3 -0.76654-0.15503-0.24977-0.1378-0.24977-0.38757 0-0.25838 0.23255-0.42202 0.25838-0.18948 0.70624-0.18948 0.4737 0 0.74931 0.16364 0.27561 0.15503 0.27561 0.4048 0 0.24115-0.27561 0.41341-0.26699 0.18087-0.67179 0.17225zm-0.0603-5.1418q-2.1618 0-3.27284 1.45555-0.93018 1.2144-0.93018 3.09197 0 2.08429 0.97324 3.07475 1.07659 1.09382 3.57429 1.12827 1.77422 0.0258 2.96278-1.30913 1.15411-1.30053 1.15411-3.15227 0-1.86896-1.16272-3.04891-1.22301-1.24023-3.29868-1.24023z" style="font-feature-settings:normal;font-variant-caps:normal;font-variant-ligatures:normal;font-variant-numeric:normal"/>
    <path d="m724.64217 148.35993v11.41188h3.53983l0.15503-11.56691z" style="font-feature-settings:normal;font-variant-caps:normal;font-variant-ligatures:normal;font-variant-numeric:normal"/>
    <path d="m733.22046 153.26919q0.75792-0.1378 1.10243 0.24116 0.17225 0.19809 0.18948 0.41341l-2.32544 0.22393q-0.0344-0.16364 0.0689-0.36174 0.21532-0.37896 0.96463-0.51676zm-0.35313 3.62596q-0.44786-0.24977-0.6115-0.68902-0.0861-0.21531-0.0775-0.38757l5.77915-0.68902q-0.19809-1.16272-0.99046-2.25654-1.60197-2.19624-4.63366-1.91202-1.73116 0.16364-2.73885 1.39526-0.91295 1.10243-0.99908 2.71301-0.0947 1.55891 0.61151 2.85082 0.75792 1.38665 2.11873 1.8259 2.35989 0.77515 4.53892-0.34451 1.09381-0.55983 1.70532-1.26607l-1.85174-1.92926q-0.4048 0.34451-0.96463 0.6029-1.11104 0.52537-1.88619 0.0861z" style="font-feature-settings:normal;font-variant-caps:normal;font-variant-ligatures:normal;font-variant-numeric:normal"/>
    <path d="m739.46469 156.19752q0.79237 0.34451 1.4211 0.61151 1.73978 0.86988 2.08429 0.55982 0.12057-0.18086 0.0344-0.31005-0.0861-0.1292-0.85267-0.43064-0.75792-0.31006-1.73977-0.62012t-1.33497-1.02491q-0.3359-0.68902-0.0517-1.45556 0.31006-0.82682 1.18856-1.30913 1.0163-0.55122 2.51492-0.45648 1.26607 0.0775 2.52353 0.57705 0.59428 0.32729 0.93018 0.64596l-1.08521 1.70532q-0.49954-0.32728-0.97324-0.4737-1.55029-0.56844-1.63642 0.0344-9e-3 0.16364 0.27561 0.34451 0.29283 0.17226 1.24023 0.43064 0.95602 0.24977 1.5503 0.53399 0.88711 0.43925 1.07659 1.40388 0.19809 0.98185-0.61151 2.01538-0.84404 0.99046-2.91971 0.99907-1.80868 0.0172-4.8662-1.3522z" style="font-feature-settings:normal;font-variant-caps:normal;font-variant-ligatures:normal;font-variant-numeric:normal"/>
   </g>
   <g transform="translate(-718.8653,455.63005)" fill="#2196f3" style="font-feature-settings:normal;font-variant-caps:normal;font-variant-ligatures:normal;font-variant-numeric:normal" aria-label="Sábado">
    <path d="m479.4848 156.51958q1.66226 0.28422 3.33313 0.36174 3.34174 0.14641 3.3762-0.90434 0.0172-0.52538-0.98186-0.73209-0.30144-0.0689-2.23931-0.24976-1.57613-0.14642-2.38573-0.45648-1.14549-0.43925-1.36942-1.36943-0.34451-1.48139-0.11197-2.42879 0.22393-0.93879 1.05937-1.45555 1.49-0.93018 5.82221-0.72347 2.11012 0.10335 3.0403 0.27561l-0.0517 2.81636q-1.65365-0.2756-3.34174-0.39618-3.35036-0.24116-3.41926 0.49954-0.0603 0.71485 1.45555 0.90433 0.4737 0.0603 1.30053 0.0861 0.92156 0.0258 1.11104 0.0431 2.00677 0.16365 2.95417 1.66226 0.44786 0.72347 0.46509 1.57613 0.0172 0.92157-0.4737 1.84313-1.02492 1.9637-5.46909 1.93787-2.22209-0.0172-4.23747-0.42203z" style="font-feature-settings:normal;font-variant-caps:normal;font-variant-ligatures:normal;font-variant-numeric:normal"/>
    <path d="m493.61831 157.65646q-0.29284-0.0431-0.48232-0.17225-0.18086-0.12919-0.19809-0.27561-9e-3 -0.15503 0.16364-0.24116 0.1981-0.0947 0.57706-0.0689 0.26699 0.0258 0.42202 0.15503 0.1378 0.12919 0.12919 0.28422-9e-3 0.16364-0.16364 0.24977-0.16364 0.10335-0.44786 0.0689zm2.3685-6.0203q-2.25654-0.39619-3.86712-0.16364-0.8096 0.12057-1.16272 0.31867l0.49954 2.5063q0.96463-0.26699 2.03261-0.24115 2.13596 0.0517 2.63549 1.55029-0.80959-0.48231-1.85173-0.73208-2.10151-0.49954-3.3073 0.67179-0.71485 0.69763-0.88711 1.57613-0.17225 0.86989 0.24116 1.58475 0.43925 0.76653 1.38665 1.10243 1.05937 0.37034 2.54937 0.12057 1.2144-0.21531 1.93787-1.18855l-0.14642 1.03353h2.93694q0.52538-1.80868 0.41342-3.72932-0.0948-1.67948-0.79238-2.75608-0.86127-1.34358-2.61827-1.65364zm-0.0431-4.44418-2.73885 2.8336 0.79237 0.83543 3.247-2.09289z" style="font-feature-settings:normal;font-variant-caps:normal;font-variant-ligatures:normal;font-variant-numeric:normal"/>
    <path d="m505.18522 156.38178q-0.43064-0.0861-0.59428-0.28422-0.14642-0.17226-0.0689-0.37896 0.0775-0.18948 0.30145-0.32729 0.24116-0.1378 0.49954-0.1378 0.57705 0.0172 0.83543 0.22393 0.23255 0.18948 0.16365 0.43925-0.0775 0.25838-0.37035 0.39618-0.3359 0.15503-0.76653 0.0689zm3.42787-3.66042q-1.58475-1.30052-3.53123-0.89572-0.98185 0.19809-1.66226 0.65457v-4.26331l-3.55706 0.16364v11.30853l3.25562 0.0947v-1.23162q0.17225 0.31006 0.49954 0.80098 0.80959 0.48231 1.97231 0.57705 1.46417 0.1292 2.53215-0.70624 1.04214-0.68041 1.62781-1.99816 0.4048-1.25745 0.15503-2.48908-0.41342-1.30913-1.29191-2.01538z" style="font-feature-settings:normal;font-variant-caps:normal;font-variant-ligatures:normal;font-variant-numeric:normal"/>
    <path d="m514.04772 157.65646q-0.29283-0.0431-0.48231-0.17225-0.18087-0.12919-0.19809-0.27561-9e-3 -0.15503 0.16364-0.24116 0.19809-0.0947 0.57705-0.0689 0.267 0.0258 0.42203 0.15503 0.1378 0.12919 0.12919 0.28422-9e-3 0.16364-0.16364 0.24977-0.16365 0.10335-0.44787 0.0689zm2.36851-6.0203q-2.25654-0.39619-3.86712-0.16364-0.8096 0.12057-1.16272 0.31867l0.49954 2.5063q0.96462-0.26699 2.0326-0.24115 2.13596 0.0517 2.6355 1.55029-0.8096-0.48231-1.85174-0.73208-2.10151-0.49954-3.30729 0.67179-0.71486 0.69763-0.88711 1.57613-0.17226 0.86989 0.24115 1.58475 0.43925 0.76653 1.38666 1.10243 1.05936 0.37034 2.54937 0.12057 1.21439-0.21531 1.93786-1.18855l-0.14641 1.03353h2.93694q0.52538-1.80868 0.41341-3.72932-0.0947-1.67948-0.79237-2.75608-0.86127-1.34358-2.61827-1.65364z" style="font-feature-settings:normal;font-variant-caps:normal;font-variant-ligatures:normal;font-variant-numeric:normal"/>
    <path d="m525.08064 156.45929q-0.4048 0.0947-0.73208-0.0603-0.27561-0.1378-0.35312-0.37896-0.0603-0.25838 0.15503-0.43925 0.25838-0.19809 0.80098-0.21532 0.24977 0 0.4737 0.12919 0.22393 0.13781 0.29283 0.32729 0.0775 0.19809-0.0689 0.37035-0.15503 0.18948-0.56844 0.26699zm-3.40203-3.59151q-0.8785 0.67179-1.30052 1.92064-0.24116 1.18856 0.16364 2.38573 0.58566 1.26607 1.54168 1.98954 1.0852 0.8096 2.54076 0.68041 1.17133-0.0947 1.78283-0.55983 0.61151-0.46509 0.78376-0.75792v1.34359l3.1781 0.17225-0.0775-11.51523-3.48816-0.18087v4.36666q-0.68041-0.43064-1.66226-0.62873-1.9637-0.38757-3.46232 0.78376z" style="font-feature-settings:normal;font-variant-caps:normal;font-variant-ligatures:normal;font-variant-numeric:normal"/>
    <path d="m535.02836 156.45929q-0.50815-9e-3 -0.76654-0.15503-0.24977-0.1378-0.24977-0.38757 0-0.25838 0.23255-0.42203 0.25838-0.18948 0.70624-0.18948 0.4737 0 0.74931 0.16365 0.27561 0.15503 0.27561 0.40479 0 0.24116-0.27561 0.41342-0.26699 0.18086-0.67179 0.17225zm-0.0603-5.1418q-2.1618 0-3.27284 1.45555-0.93018 1.2144-0.93018 3.09197 0 2.08428 0.97324 3.07475 1.07659 1.09382 3.57429 1.12827 1.77422 0.0258 2.96278-1.30914 1.15411-1.30052 1.15411-3.15226 0-1.86896-1.16272-3.04891-1.22301-1.24023-3.29868-1.24023z" style="font-feature-settings:normal;font-variant-caps:normal;font-variant-ligatures:normal;font-variant-numeric:normal"/>
   </g>
   <g transform="translate(-717.45598,442.94625)" fill="#42a5f5" style="font-feature-settings:normal;font-variant-caps:normal;font-variant-ligatures:normal;font-variant-numeric:normal" aria-label="Domingo">
    <path d="m496.29005 76.804703q2.42018-0.215318 4.96093 0.335897 2.22209 0.490926 3.53984 1.54168 1.63642 1.309137 1.74839 3.427871 0.2067 3.780992-4.53892 5.236545-2.3685 0.732083-5.12458 0.706244zm3.36758 7.958171q4.09105-0.654568 3.53122-3.023071-1.13688-2.32544-3.78099-1.713935z" style="font-feature-settings:normal;font-variant-caps:normal;font-variant-ligatures:normal;font-variant-numeric:normal"/>
    <path d="m511.1987 84.702585q-0.50815-0.0086-0.76654-0.155029-0.24977-0.137804-0.24977-0.387574 0-0.258382 0.23255-0.422024 0.25838-0.18948 0.70624-0.18948 0.4737 0 0.74931 0.163642 0.27561 0.155029 0.27561 0.404799 0 0.241156-0.27561 0.413411-0.26699 0.180868-0.67179 0.172255zm-0.0603-5.141805q-2.1618 0-3.27284 1.455553-0.93018 1.214396-0.93018 3.091973 0 2.084283 0.97324 3.074748 1.07659 1.093818 3.57429 1.128269 1.77422 0.02584 2.96278-1.309137 1.15411-1.300523 1.15411-3.152262 0-1.868965-1.16272-3.04891-1.22301-1.240234-3.29868-1.240234z" style="font-feature-settings:normal;font-variant-caps:normal;font-variant-ligatures:normal;font-variant-numeric:normal"/>
    <path d="m526.59827 79.112917q-1.84312-0.02584-2.76469 1.403877-0.52537 0.800985-0.65456 1.800062 0.0861-0.835435-0.28422-1.567518-0.3359-1.291911-1.56752-1.636421-0.99908-0.28422-2.26515 0.895725l0.0172-1.033528-3.20394-0.01723 0.0947 9.207018 3.14365-0.08613 0.1292-2.549371q0.33589-3.04891 1.26607-2.997233 0.99046 0.04306 0.89572 2.747463-0.0431 1.3522-0.28422 2.7044l3.20394 0.0086q0.0775-1.438327 0.31867-2.816365 0.23255-2.695788 1.05937-2.463244 0.83543 0.223931 0.79237 2.79914-0.11196 1.343588-0.38757 2.626886l2.99723-0.15503q0.34451-2.204861 0.23255-4.409722-0.10336-1.929253-0.62873-3.040297-0.65457-1.395263-2.11013-1.421102z" style="font-feature-settings:normal;font-variant-caps:normal;font-variant-ligatures:normal;font-variant-numeric:normal"/>
    <path d="m531.26638 79.035403q0.86127-0.02584 1.31775-0.525377 0.42202-0.456476 0.38757-1.102431-0.0345-0.637343-0.48231-1.093818-0.48231-0.499539-1.25746-0.516764-0.69763-0.02584-1.16272 0.490926-0.42202 0.473701-0.46509 1.136882-0.0344 0.680406 0.36174 1.128268 0.45647 0.508152 1.30052 0.482314zm1.30914 0.551215-2.72163 0.0086-0.0344 8.474935 2.79914 0.0689z" style="font-feature-settings:normal;font-variant-caps:normal;font-variant-ligatures:normal;font-variant-numeric:normal"/>
    <path d="m538.80252 79.000952q-1.60197-0.163642-2.71301 0.577053l0.0172-0.585666-2.7044-0.07752-0.21532 9.27592h3.23839l0.0431-3.255615q-0.11196-2.807753 1.30914-2.868042 1.05075-0.04306 1.21439 2.885267 0.0861 1.386651-0.12919 2.85943l3.36758 0.07751q0.24977-2.187635-0.0517-4.314982-0.25838-1.937866-0.96463-3.074748-0.88711-1.421102-2.41157-1.498616z" style="font-feature-settings:normal;font-variant-caps:normal;font-variant-ligatures:normal;font-variant-numeric:normal"/>
    <path d="m547.51 82.385758q0.28423 0.06029 0.49093 0.266995 0.20671 0.198093 0.22393 0.404799 0.0172 0.232544-0.21532 0.370348-0.28422 0.163642-0.86988 0.146416-0.58567 0-0.81821-0.232544-0.21532-0.206706-0.10336-0.490926 0.11197-0.266995 0.45648-0.422024 0.37896-0.155029 0.83543-0.04306zm-4.47862 8.45771q3.96186 2.437405 7.01938 0.766534 1.80868-1.197171 2.18764-4.633654 0.50815-2.816366 0.26699-7.872043l-3.11781-0.129191 9e-3 0.835435q-0.99907-0.775146-2.28237-0.775146-1.8948 0-3.11781 1.231621-1.10243 1.128269-1.17995 2.713013-0.0947 1.610582 0.93018 2.695787 1.14549 1.214397 3.23839 1.16272 1.49-0.02584 2.48908-0.680406 0.12919 0.81821-0.68041 2.006768-0.63734 0.938789-1.8948 0.852661-1.43833-0.103353-2.93694-1.188558z" style="font-feature-settings:normal;font-variant-caps:normal;font-variant-ligatures:normal;font-variant-numeric:normal"/>
    <path d="m557.12182 84.702585q-0.50815-0.0086-0.76653-0.155029-0.24977-0.137804-0.24977-0.387574 0-0.258382 0.23254-0.422024 0.25838-0.18948 0.70625-0.18948 0.4737 0 0.74931 0.163642 0.2756 0.155029 0.2756 0.404799 0 0.241156-0.2756 0.413411-0.267 0.180868-0.6718 0.172255zm-0.0603-5.141805q-2.1618 0-3.27284 1.455553-0.93017 1.214396-0.93017 3.091973 0 2.084283 0.97324 3.074748 1.07659 1.093818 3.57428 1.128269 1.77423 0.02584 2.96278-1.309137 1.15411-1.300523 1.15411-3.152262 0-1.868965-1.16272-3.04891-1.22301-1.240234-3.29868-1.240234z" style="font-feature-settings:normal;font-variant-caps:normal;font-variant-ligatures:normal;font-variant-numeric:normal"/>
   </g>
   <g transform="translate(-753.15853,454.69051)" fill="#1976d2" style="font-feature-settings:normal;font-variant-caps:normal;font-variant-ligatures:normal;font-variant-numeric:normal" aria-label="Jueves">
    <path d="m644.25496 216.52735q0.29283 0.83543 0.57705 1.14549 0.55983 0.62873 1.17995 0.18087 0.99046-0.56844 0.21531-8.30268l3.53984-0.0344q0.32728 2.86804 0.0258 5.71024-0.24977 2.48047-1.0163 3.88435-0.94741 1.74838-2.64412 1.69671-2.32543-0.0775-3.58289-1.65365-0.62012-0.79237-0.78376-1.91203z" style="font-feature-settings:normal;font-variant-caps:normal;font-variant-ligatures:normal;font-variant-numeric:normal"/>
    <path d="m655.08978 212.80664q0.21532 1.23162 0.23255 2.42879 0.0344 2.40296-0.79237 2.23932-0.82683-0.16365-0.96463-2.30822-0.0603-1.06798 0.0775-2.18763l-3.06613-0.17226q-0.37896 2.024-0.0431 4.04799 0.65457 4.04799 4.19441 4.04799 3.53983 0 3.93602-4.22025 0.18948-2.1015-0.31867-4.21162z" style="font-feature-settings:normal;font-variant-caps:normal;font-variant-ligatures:normal;font-variant-numeric:normal"/>
    <path d="m663.81449 214.27081q0.75792-0.13781 1.10243 0.24115 0.17225 0.1981 0.18948 0.41342l-2.32544 0.22393q-0.0345-0.16364 0.0689-0.36174 0.21532-0.37896 0.96463-0.51676zm-0.35312 3.62596q-0.44787-0.24977-0.61151-0.68902-0.0861-0.21532-0.0775-0.38757l5.77914-0.68902q-0.19809-1.16272-0.99046-2.25654-1.60197-2.19625-4.63365-1.91203-1.73117 0.16365-2.73886 1.39527-0.91295 1.10243-0.99907 2.71301-0.0947 1.55891 0.6115 2.85082 0.75792 1.38665 2.11874 1.8259 2.35989 0.77514 4.53891-0.34451 1.09382-0.55983 1.70532-1.26607l-1.85174-1.92926q-0.4048 0.34451-0.96462 0.60289-1.11105 0.52538-1.88619 0.0861z" style="font-feature-settings:normal;font-variant-caps:normal;font-variant-ligatures:normal;font-variant-numeric:normal"/>
    <path d="m673.86555 217.81064-2.06705-5.52076-2.9714 0.65457 3.28145 7.78591 3.33313 0.19809 2.95417-8.89695-2.88526-0.73209z" style="font-feature-settings:normal;font-variant-caps:normal;font-variant-ligatures:normal;font-variant-numeric:normal"/>
    <path d="m683.31373 214.27081q0.75792-0.13781 1.10243 0.24115 0.17225 0.1981 0.18948 0.41342l-2.32544 0.22393q-0.0344-0.16364 0.0689-0.36174 0.21532-0.37896 0.96463-0.51676zm-0.35312 3.62596q-0.44787-0.24977-0.61151-0.68902-0.0861-0.21532-0.0775-0.38757l5.77914-0.68902q-0.19809-1.16272-0.99046-2.25654-1.60197-2.19625-4.63365-1.91203-1.73116 0.16365-2.73885 1.39527-0.91295 1.10243-0.99908 2.71301-0.0947 1.55891 0.6115 2.85082 0.75792 1.38665 2.11874 1.8259 2.35989 0.77514 4.53891-0.34451 1.09382-0.55983 1.70532-1.26607l-1.85174-1.92926q-0.4048 0.34451-0.96462 0.60289-1.11105 0.52538-1.88619 0.0861z" style="font-feature-settings:normal;font-variant-caps:normal;font-variant-ligatures:normal;font-variant-numeric:normal"/>
    <path d="m689.55796 217.19914q0.79238 0.34451 1.42111 0.6115 1.73977 0.86989 2.08428 0.55983 0.12058-0.18087 0.0344-0.31006-0.0861-0.12919-0.85266-0.43063-0.75792-0.31006-1.73978-0.62012-0.98185-0.31006-1.33497-1.02492-0.3359-0.68902-0.0517-1.45555 0.31006-0.82682 1.18856-1.30914 1.0163-0.55121 2.51492-0.45647 1.26607 0.0775 2.52353 0.57705 0.59428 0.32729 0.93018 0.64596l-1.08521 1.70532q-0.49953-0.32728-0.97323-0.4737-1.5503-0.56844-1.63643 0.0344-9e-3 0.16364 0.27561 0.34451 0.29284 0.17225 1.24024 0.43064 0.95601 0.24977 1.55029 0.53399 0.88711 0.43925 1.07659 1.40387 0.1981 0.98185-0.6115 2.01538-0.84405 0.99047-2.91972 0.99908-1.80868 0.0172-4.8662-1.3522z" style="font-feature-settings:normal;font-variant-caps:normal;font-variant-ligatures:normal;font-variant-numeric:normal"/>
   </g>
   <g transform="translate(-726.38163,452.75893)" fill="#1976d2" style="font-feature-settings:normal;font-variant-caps:normal;font-variant-ligatures:normal;font-variant-numeric:normal" aria-label="Viernes">
    <path d="m530.16676 211.92991-2.19625 8.02707-3.41926-7.86343-2.67856 1.06798 4.71117 10.05968h2.93694l3.42787-10.37835z" style="font-feature-settings:normal;font-variant-caps:normal;font-variant-ligatures:normal;font-variant-numeric:normal"/>
    <path d="m534.83486 214.20367q0.86127-0.0258 1.31775-0.52538 0.42202-0.45647 0.38757-1.10243-0.0344-0.63734-0.48231-1.09382-0.48231-0.49954-1.25746-0.51676-0.69763-0.0258-1.16272 0.49093-0.42203 0.4737-0.46509 1.13688-0.0344 0.6804 0.36174 1.12827 0.45647 0.50815 1.30052 0.48231zm1.30914 0.55121-2.72163 9e-3 -0.0344 8.47493 2.79914 0.0689z" style="font-feature-settings:normal;font-variant-caps:normal;font-variant-ligatures:normal;font-variant-numeric:normal"/>
    <path d="m541.47528 216.68414q0.75792-0.13781 1.10243 0.24115 0.17226 0.1981 0.18948 0.41342l-2.32544 0.22393q-0.0344-0.16364 0.0689-0.36174 0.21531-0.37896 0.96462-0.51676zm-0.35312 3.62596q-0.44786-0.24977-0.6115-0.68902-0.0861-0.21532-0.0775-0.38757l5.77915-0.68902q-0.19809-1.16272-0.99047-2.25654-1.60197-2.19625-4.63365-1.91203-1.73116 0.16365-2.73885 1.39527-0.91295 1.10243-0.99908 2.71301-0.0947 1.55891 0.61151 2.85082 0.75792 1.38665 2.11873 1.8259 2.35989 0.77514 4.53891-0.34451 1.09382-0.55983 1.70532-1.26607l-1.85173-1.92926q-0.4048 0.34451-0.96463 0.60289-1.11104 0.52538-1.88619 0.0861z" style="font-feature-settings:normal;font-variant-caps:normal;font-variant-ligatures:normal;font-variant-numeric:normal"/>
    <path d="m549.24397 214.24673-2.75607 0.0689 0.21531 8.83667 2.8336 0.0689-0.11197-3.64319q0.37896-1.83452 2.04983-2.27376 0.83544-0.22394 1.59336-0.0775l9e-3 -3.00585q-2.42018 0.0603-3.79822 1.11105z" style="font-feature-settings:normal;font-variant-caps:normal;font-variant-ligatures:normal;font-variant-numeric:normal"/>
    <path d="m559.01082 214.16922q-1.60197-0.16364-2.71301 0.57705l0.0172-0.58566-2.7044-0.0775-0.21532 9.27592h3.23839l0.0431-3.25561q-0.11197-2.80776 1.30913-2.86805 1.05076-0.0431 1.2144 2.88527 0.0861 1.38665-0.12919 2.85943l3.36758 0.0775q0.24977-2.18763-0.0517-4.31498-0.25838-1.93786-0.96462-3.07475-0.88712-1.4211-2.41157-1.49861z" style="font-feature-settings:normal;font-variant-caps:normal;font-variant-ligatures:normal;font-variant-numeric:normal"/>
    <path d="m567.58911 216.68414q0.75792-0.13781 1.10243 0.24115 0.17225 0.1981 0.18948 0.41342l-2.32544 0.22393q-0.0344-0.16364 0.0689-0.36174 0.21532-0.37896 0.96463-0.51676zm-0.35312 3.62596q-0.44787-0.24977-0.61151-0.68902-0.0861-0.21532-0.0775-0.38757l5.77914-0.68902q-0.19809-1.16272-0.99046-2.25654-1.60197-2.19625-4.63365-1.91203-1.73117 0.16365-2.73886 1.39527-0.91295 1.10243-0.99907 2.71301-0.0947 1.55891 0.6115 2.85082 0.75792 1.38665 2.11874 1.8259 2.35989 0.77514 4.53891-0.34451 1.09382-0.55983 1.70532-1.26607l-1.85174-1.92926q-0.4048 0.34451-0.96462 0.60289-1.11105 0.52538-1.88619 0.0861z" style="font-feature-settings:normal;font-variant-caps:normal;font-variant-ligatures:normal;font-variant-numeric:normal"/>
    <path d="m573.83334 219.61247q0.79237 0.34451 1.4211 0.6115 1.73978 0.86989 2.08429 0.55983 0.12058-0.18087 0.0344-0.31006-0.0861-0.12919-0.85266-0.43063-0.75792-0.31006-1.73978-0.62012-0.98185-0.31006-1.33497-1.02492-0.3359-0.68902-0.0517-1.45555 0.31006-0.82682 1.18856-1.30914 1.0163-0.55121 2.51492-0.45647 1.26607 0.0775 2.52353 0.57705 0.59428 0.32729 0.93018 0.64596l-1.08521 1.70532q-0.49953-0.32728-0.97324-0.4737-1.55029-0.56844-1.63642 0.0344-9e-3 0.16364 0.27561 0.34451 0.29283 0.17225 1.24024 0.43064 0.95601 0.24977 1.55029 0.53399 0.88711 0.43925 1.07659 1.40387 0.19809 0.98186-0.6115 2.01538-0.84405 0.99047-2.91972 0.99908-1.80868 0.0172-4.8662-1.3522z" style="font-feature-settings:normal;font-variant-caps:normal;font-variant-ligatures:normal;font-variant-numeric:normal"/>
   </g>
  </g>
  <g transform="translate(-736.2468,444.35556)" fill="#1a237e" stroke-opacity="0" style="font-feature-settings:normal;font-variant-caps:normal;font-variant-ligatures:normal;font-variant-numeric:normal" aria-label="Lunes ">
   <path d="m588.86243 33.366468v11.2913l8.25101-0.120578v-3.031684l-4.96955 0.241156-0.0689-8.380194z" style="font-feature-settings:normal;font-variant-caps:normal;font-variant-ligatures:normal;font-variant-numeric:normal"/>
   <path d="m602.11744 36.656534q0.21532 1.231621 0.23254 2.428792 0.0344 2.402954-0.79237 2.239312-0.82682-0.163642-0.96463-2.308214-0.0603-1.067979 0.0775-2.187635l-3.06614-0.172255q-0.37896 2.023993-0.0431 4.047987 0.65457 4.047987 4.1944 4.047987 3.53984 0 3.93603-4.220242 0.18948-2.101508-0.31868-4.211629z" style="font-feature-settings:normal;font-variant-caps:normal;font-variant-ligatures:normal;font-variant-numeric:normal"/>
   <path d="m611.73787 35.60578q-1.60197-0.163642-2.71301 0.577053l0.0172-0.585666-2.7044-0.07751-0.21532 9.27592h3.23839l0.0431-3.255615q-0.11197-2.807753 1.30913-2.868042 1.05076-0.04306 1.2144 2.885267 0.0861 1.386651-0.12919 2.85943l3.36758 0.07751q0.24977-2.187635-0.0517-4.314982-0.25838-1.937866-0.96462-3.074748-0.88712-1.421102-2.41157-1.498616z" style="font-feature-settings:normal;font-variant-caps:normal;font-variant-ligatures:normal;font-variant-numeric:normal"/>
   <path d="m620.31615 38.120699q0.75793-0.137803 1.10244 0.241157 0.17225 0.198093 0.18948 0.413412l-2.32544 0.223931q-0.0345-0.163642 0.0689-0.361735 0.21532-0.378961 0.96462-0.516765zm-0.35312 3.625963q-0.44786-0.249769-0.6115-0.689019-0.0861-0.215318-0.0775-0.387573l5.77915-0.689019q-0.19809-1.16272-0.99046-2.256538-1.60197-2.196248-4.63366-1.912028-1.73116 0.163642-2.73885 1.395264-0.91295 1.102431-0.99908 2.713013-0.0947 1.558906 0.61151 2.850816 0.75792 1.386651 2.11873 1.825901 2.35989 0.775147 4.53892-0.344509 1.09381-0.559829 1.70532-1.266073l-1.85174-1.929254q-0.4048 0.34451-0.96463 0.602892-1.11104 0.525377-1.88619 0.08613z" style="font-feature-settings:normal;font-variant-caps:normal;font-variant-ligatures:normal;font-variant-numeric:normal"/>
   <path d="m626.56039 41.049031q0.79238 0.344509 1.42111 0.611504 1.73977 0.869887 2.08428 0.559828 0.12058-0.180867 0.0344-0.310058-0.0861-0.129192-0.85266-0.430637-0.75792-0.310059-1.73978-0.620118-0.98185-0.310058-1.33497-1.024916-0.3359-0.689019-0.0517-1.455552 0.31006-0.826823 1.18856-1.309137 1.0163-0.551215 2.51492-0.456475 1.26607 0.07751 2.52353 0.577054 0.59428 0.327284 0.93018 0.645955l-1.08521 1.705322q-0.49953-0.327284-0.97323-0.4737-1.5503-0.568441-1.63643 0.03445-9e-3 0.163642 0.27561 0.344509 0.29284 0.172255 1.24024 0.430637 0.95601 0.24977 1.55029 0.53399 0.88711 0.43925 1.07659 1.403876 0.1981 0.981853-0.6115 2.015381-0.84405 0.990465-2.91972 0.999078-1.80868 0.01723-4.8662-1.3522z" style="font-feature-settings:normal;font-variant-caps:normal;font-variant-ligatures:normal;font-variant-numeric:normal"/>
  </g>
  <path d="m-188.80726 501.80403 28.91279-1.98323-18.30983 22.77706z" fill="#ff5252"/>
  <path d="m-264.78924 640.32449c-1.33732-0.76307-10.62836-40.0029-9.78004-41.30509 0.84832-1.30218 26.25752 13.1962 26.74652 15.26146 0.48901 2.06526-15.62915 26.8067-16.96648 26.04363z" fill="#00c853"/>
  <path d="m-240.64642 512.81612c-0.15248-0.93197 14.96512-20.50663 15.91325-20.6049 0.94812-0.0983 3.84503 17.60929 3.04936 18.63954-0.79565 1.03026-18.81015 2.89734-18.96261 1.96536z" fill="#2196f3"/>
  <g transform="rotate(7.329417,-3504.7288,412.64781)" fill="#616161" stroke-width=".26458332" style="font-feature-settings:normal;font-variant-caps:normal;font-variant-ligatures:normal;font-variant-numeric:normal" aria-label="anterior ">
   <path d="m-270.17546 158.36357q0.30816-0.0179 0.33631 0.46634 0.0307 0.52827-0.40312 0.66392-0.0648 0.0258-0.85717 0.0719-0.22012 0.0128-0.34835 0.0865 0.97413 1.18018 1.05729 2.61093 0.0576 0.99051-0.43897 1.94698-0.5549 1.09238-1.47938 1.14611-0.90247 0.0525-1.83385-1.15229-0.85895-1.09853-0.91525-2.06704l-0.12667-2.17913q-0.13974-0.12439-0.46991-0.1052-1.47477 0.0857-2.20909 0.37136-1.23162 0.46913-1.1638 1.63574 0.0486 0.83644 1.14611 1.47939 1.00561 0.58203 1.88607 0.53085 0.044-3e-3 0.13207-8e-3 0.088-5e-3 0.11005-6e-3 0.1761-0.0102 0.18633 0.16585 0.0128 0.22012-0.23599 0.49961-0.24878 0.27949-0.44688 0.291-0.61632 0.0358-1.56256-0.28462-0.96824-0.31918-1.47808-0.73126-0.6263-0.51574-0.67364-1.33017-0.0729-1.25465 0.65806-2.35726 0.7932-1.17248 2.00255-1.26487zm-3.43201 1.37005q-0.88046 0.0512-0.80113 1.41589 0.0627 1.07856 0.48423 1.87123 0.54439 1.00639 1.5129 0.95009 0.59431-0.0345 0.89249-0.60402 0.25928-0.47888 0.22217-1.11721-0.055-0.94649-0.71996-1.7471-0.66622-0.82262-1.5907-0.76888z"/>
   <path d="m-270.56963 149.77645q0.2399 0.13701 0.23516 0.37949-5e-3 0.24249-0.32414 0.78757l-0.17635-3e-3q-0.1984-4e-3 -0.59477-0.0337-0.39637-0.0298-0.57273-0.0333-7.31874-0.14311-7.35451 1.68657-0.0112 0.57316 0.81355 1.25087 2.03941 1.71589 5.19176 1.77753 0.41884 8e-3 1.23707-0.10813 0.79662-0.13879 1.21546-0.1306 0.33067 6e-3 0.32161 0.4694-0.0172 0.88177-1.40603 0.85462l-5.00408-0.0979q-0.1984-4e-3 -0.57229-0.0553-0.3739-0.0514-0.5723-0.0553-0.28657-6e-3 -0.83941 0.0718-0.5524 0.0553-0.81693 0.0502-0.17636-3e-3 -0.39163-0.27229-0.23689-0.29132-0.23387-0.44563 6e-3 -0.28658 0.31897-0.52303 1.43159 0.0942 1.67408 0.0989 0.33067 6e-3 0.63972-0.01-0.0623-0.19969-0.71712-0.54329-0.8295-0.43523-1.13252-0.72784-0.6069-0.54113-0.59353-1.22451 5e-3 -0.26453 0.21391-0.78972 0.46417-1.18177 1.48812-1.66897 1.75832-0.82568 4.62409-0.76964z"/>
   <path d="m-277.21489 144.17141q0.11962 0.18521 0.16131 0.85122 0.0371 0.73199 0.0953 0.84659 0.24039 0.039 2.43985 0.19327 1.71557 0.12036 2.31251 0.11803 0.24194 0.017 0.77753-0.056 0.53558-0.0729 0.82151-0.0529 0.17596 0.0123 0.33648 0.24464 0.16053 0.23229 0.14819 0.40824-0.0309 0.4399-0.95116 0.64057-0.67218 0.12966-1.26603 0.088-3.10123-0.21757-4.57178-0.36494-0.11923 0.12425-0.071 1.01175 0.0386 0.71-0.55525 0.66834-0.8358-0.0586-0.64483-1.83557l-3.96095-0.56521q-0.066-5e-3 -0.20258 0.0521-0.15705 0.0332-0.22303 0.0286-0.13197-9e-3 -0.2296-0.19293-0.11962-0.18521-0.0807-0.42561 0.11999-0.76518 0.82382-0.7158 0.54986 0.0386 1.63879 0.26969 1.08893 0.23111 1.6168 0.26814 0.26393 0.0185 0.50896-8e-3l0.0189-1.21433q0.0432-0.61585 0.52708-0.5819 0.35192 0.0247 0.52981 0.32451z"/>
   <path d="m-271.65656 137.42568q0.96343 0.11386 1.57712 1.49631 0.56353 1.24331 0.44191 2.27243-0.34676 2.93409-4.06912 2.49418-1.64222-0.19408-3.45542-1.00782-2.35922-1.07809-2.21431-2.30428 0.12421-1.05102 1.34463-2.17231 1.19852-1.12387 2.24954-0.99966 1.35756 0.16044 2.2354 1.37429 0.87784 1.21384 0.71482 2.59331-0.0155 0.13137-0.28625 0.54342-0.26813 0.39015-0.28624 0.54342-0.0336 0.28466 0.14153 0.30536 2.51807 0.29759 2.71473-1.36653 0.10092-0.85395-0.38298-1.64381-0.27669-0.47674-0.91526-1.08505-0.49824-0.48073-0.48272-0.6121 0.0595-0.50362 0.67262-0.43116zm-4.20746 1.0347q-0.76637-0.0906-1.47501 0.26972-0.73054 0.3577-0.81594 1.08028-0.10351 0.87585 0.92661 1.55264 0.8653 0.56851 1.85063 0.68495 0.63499 0.0751 1.1195-0.26733 0.46519-0.36686 0.54024-1.00185 0.10609-0.89775-0.59041-1.57951-0.63598-0.63022-1.55562-0.7389z"/>
   <path d="m-276.25124 130.5753q0.087 0.0147 0.3659 0.0842 0.38703 0.35613 0.34292 0.61702-0.0294 0.17392-0.26886 0.2676-1.38065-0.16633-1.56074 0.89894-0.11762 0.69568 2.33378 1.80332 0.89072 0.41893 2.45601 0.68356 2.00009 0.33813 2.47501 0.30662 0.0689-0.0107 0.301-0.0609 0.21036-0.0539 0.31906-0.0355 0.47828 0.0809 0.36802 0.73306-0.12496 0.73917-0.88587 0.61053-0.1087-0.0184-0.29701-0.0949-0.20637-0.10197-0.31507-0.12035-1.19571-0.20215-3.6055-0.49774t-3.6055-0.49774q-0.4348-0.0735-0.49603-0.24039-0.083-0.17056-9e-3 -0.60536 0.0919-0.5435 0.49791-0.56431 0.43848 0.0518 0.85522 0.0999-0.77405-0.71226-0.86805-0.81759-0.46264-0.57017-0.37443-1.09193 0.0662-0.39133 0.37146-0.74222 0.16719-0.19535 0.77318-0.47304 0.60966-0.29944 0.82706-0.26269z"/>
   <path d="m-279.58038 126.48154q0.73484 0.14832 0.59524 0.83993-0.0829 0.41064-0.45526 0.69537-0.37238 0.28473-0.76141 0.20621-0.73483-0.14832-0.58651-0.88316 0.0872-0.43225 0.42929-0.67812 0.3464-0.26748 0.77865-0.18023zm3.15903 1.065q0.38903 0.0785 1.13219 0.40847 0.74316 0.32995 1.13219 0.40848l4.77641 0.96409q0.47548 0.096 1.33603 0.0672 0.15545 0.12135 0.12492 0.27264-0.21376 1.05902-1.22956 0.85399l-7.93188-1.601q-0.0946-0.31151-0.0422-0.57086t0.26035-0.50978q0.22545-0.33688 0.44158-0.29326z"/>
   <path d="m-270.37264 120.44849q1.84238 0.44848 3.01529 1.59632 1.41489 1.36558 0.9977 3.07943-0.42241 1.73526-1.98066 2.26364-1.28609 0.43578-3.12847-0.0127-1.82096-0.44327-3.37948-1.68497-1.9134-1.55502-1.5275-3.14032 0.0991-0.40704 0.75292-1.04211 1.90821-1.87282 5.2502-1.05928zm-0.27174 1.02309q-1.37107-0.33376-2.5523-0.23553-1.65141 0.16531-1.92259 1.27931-0.31289 1.28538 1.20222 2.42574 1.17121 0.87511 2.67082 1.24016 1.34965 0.32854 2.36471 0.16717 1.39955-0.24931 1.68637-1.42758 0.3129-1.28538-0.9822-2.30411-1.01026-0.79055-2.46703-1.14516z"/>
   <path d="m-271.94755 113.46972q0.0845 0.0253 0.35269 0.12882 0.34001 0.40126 0.26398 0.65469-0.0507 0.16895-0.29989 0.2323-1.34948-0.33579-1.65993 0.69902-0.20275 0.6758 2.09286 2.0781 0.83207 0.52586 2.35262 0.98203 1.94292 0.58288 2.41809 0.61034 0.0697-2e-3 0.30622-0.0232 0.21542-0.0275 0.32101 4e-3 0.46461 0.13939 0.27454 0.77295-0.21541 0.71804-0.95457 0.49629-0.10559-0.0317-0.28299-0.13094-0.19218-0.12671-0.29777-0.15839-1.16153-0.34847-3.51627-0.9398t-3.51627-0.9398q-0.42237-0.12671-0.4625-0.29989-0.0612-0.1795 0.0655-0.60188 0.1584-0.52797 0.56388-0.4984 0.42871 0.1056 0.8363 0.20486-0.68002-0.80252-0.76027-0.91867-0.38859-0.62301-0.23653-1.12986 0.11404-0.38013 0.46039-0.69058 0.19007-0.17317 0.82575-0.3738 0.64201-0.22174 0.85319-0.15838z"/>
  </g>
  <g transform="matrix(-.6001719 .79987105 .79987105 .6001719 -179.97969 387.79081)" fill="none" stroke="#ffc107" stroke-linecap="round" stroke-width="2.64583325">
   <g transform="rotate(-26.301235,280.87683,257.93987)">
    <path d="m311.01879 55.61079-10.7041-6.274815"/>
    <path d="m312.14537 43.254339-1.12658 12.356451"/>
   </g>
   <path d="m148.16068 32.100827s36.96218 2.270005 70.08762 31.100082"/>
  </g>
 </g>
</svg>
