<?xml version="1.0" encoding="UTF-8"?>
<!-- Created with Inkscape (http://www.inkscape.org/) -->
<svg width="562" height="511.99997" version="1.1" viewBox="0 0 148.69583 135.46666" xmlns="http://www.w3.org/2000/svg" xmlns:cc="http://creativecommons.org/ns#" xmlns:dc="http://purl.org/dc/elements/1.1/" xmlns:rdf="http://www.w3.org/1999/02/22-rdf-syntax-ns#">
 <metadata>
  <rdf:RDF>
   <cc:Work rdf:about="">
    <dc:format>image/svg+xml</dc:format>
    <dc:type rdf:resource="http://purl.org/dc/dcmitype/StillImage"/>
    <dc:title/>
   </cc:Work>
  </rdf:RDF>
 </metadata>
 <g transform="translate(-2.9418776,-145.02782)">
  <rect x="2.9418776" y="145.02782" width="148.69583" height="135.46666" opacity="0" stroke-width=".88638055"/>
  <rect x="9.5564632" y="145.02782" width="135.46666" height="135.46666" ry="0" opacity="0" stroke-width=".92353249"/>
  <rect x="9.7766628" y="174.61676" width="135.02626" height="76.288773" opacity="0" stroke-width=".44039264"/>
  <g transform="matrix(.99999805 0 0 1 1.8591151e-5 0)">
   <path d="m144.43522 221.28853-10.42273-18.76134c-0.41195-0.74162-1.19353-1.20147-2.04152-1.20147h-109.362084c-0.848254 0-1.629569 0.45985-2.041525 1.20147l-10.422996 18.76134c-0.3854982 0.694-0.5879042 1.47453-0.5879042 2.26854v10.46771h135.4666692v-10.46771c0-0.79401-0.20241-1.57454-0.58791-2.26854z" fill="#e1c3a0" stroke-width=".26458332"/>
   <g transform="matrix(1.1069933,0,0,1.1069933,-18.077425,163.32025)">
    <circle cx="51.828468" cy="33.519726" r="12.873956" fill="#d5a150" stroke-width=".05028889"/>
    <g fill="#674230" stroke-width=".05028889">
     <circle cx="49.364174" cy="24.441265" r="1.8132164"/>
     <circle cx="44.027206" cy="30.804058" r="1.8132164"/>
     <circle cx="46.36945" cy="37.819267" r="1.8132164"/>
     <circle cx="50.967461" cy="42.271297" r="1.8132164"/>
     <circle cx="53.471252" cy="28.230793" r="1.8132164"/>
     <circle cx="59.688068" cy="37.549225" r="1.8132164"/>
     <circle cx="59.261719" cy="28.531527" r="1.8132164"/>
     <circle cx="51.399002" cy="33.922794" r="1.8132164"/>
    </g>
    <g transform="matrix(.04920399 .01038944 -.01038944 .04920399 41.933232 18.421841)" fill="#ad712c">
     <circle cx="129.80299" cy="294.63199" r="7.7259998"/>
     <circle cx="181.312" cy="294.63199" r="7.7259998"/>
     <circle cx="155.55701" cy="248.274" r="7.7259998"/>
     <circle cx="62.841" cy="340.98999" r="7.7259998"/>
     <circle cx="165.85899" cy="454.31" r="7.7259998"/>
     <circle cx="196.765" cy="413.103" r="7.7259998"/>
     <circle cx="248.274" cy="351.29199" r="7.7259998"/>
     <circle cx="330.68799" cy="320.38599" r="7.7259998"/>
     <circle cx="310.08499" cy="340.98999" r="7.7259998"/>
     <circle cx="340.98999" cy="371.89499" r="7.7259998"/>
     <circle cx="340.98999" cy="433.70599" r="7.7259998"/>
     <circle cx="454.31" cy="217.368" r="7.7259998"/>
     <circle cx="423.40399" cy="423.40399" r="7.7259998"/>
     <circle cx="268.87701" cy="31.936001" r="7.7259998"/>
     <circle cx="83.445" cy="124.652" r="7.7259998"/>
     <circle cx="42.237" cy="186.463" r="7.7259998"/>
     <circle cx="160.70799" cy="201.91499" r="7.7259998"/>
     <circle cx="191.614" cy="186.463" r="7.7259998"/>
     <circle cx="160.70799" cy="171.00999" r="7.7259998"/>
     <circle cx="304.93399" cy="248.274" r="7.7259998"/>
     <circle cx="237.972" cy="93.746002" r="7.7259998"/>
     <circle cx="335.83899" cy="186.463" r="7.7259998"/>
     <circle cx="351.29199" cy="232.821" r="7.7259998"/>
     <circle cx="382.19699" cy="232.821" r="7.7259998"/>
     <circle cx="382.19699" cy="263.72601" r="7.7259998"/>
     <circle cx="325.53699" cy="78.293999" r="7.7259998"/>
     <circle cx="356.44299" cy="62.841" r="7.7259998"/>
    </g>
    <circle cx="51.828468" cy="33.519726" r="12.873956" fill="#191106" opacity=".347" stroke-width=".05028889"/>
   </g>
   <g transform="matrix(1.1069933,0,0,1.1069933,-18.077425,163.32025)">
    <g transform="matrix(.19006826 0 0 .19006826 100.71482 29.675184)">
     <circle cx="-75.768669" cy="20.227161" r="67.73333" fill="#d5a150" stroke-width=".26458332"/>
     <g fill="#674230" stroke-width=".26458332">
      <circle cx="-88.733978" cy="-27.537054" r="9.5398169"/>
      <circle cx="-116.81319" cy="5.9392986" r="9.5398169"/>
      <circle cx="-104.49001" cy="42.848198" r="9.5398169"/>
      <circle cx="-80.298653" cy="66.271523" r="9.5398169"/>
      <circle cx="-67.125526" cy="-7.5993333" r="9.5398169"/>
      <circle cx="-34.417202" cy="41.427433" r="9.5398169"/>
      <circle cx="-36.660339" cy="-6.017097" r="9.5398169"/>
      <circle cx="-78.028206" cy="22.347801" r="9.5398169"/>
     </g>
     <g transform="matrix(.25887535 .05466162 -.05466162 .25887535 -127.83015 -59.206857)" fill="#ad712c">
      <circle cx="129.80299" cy="294.63199" r="7.7259998"/>
      <circle cx="181.312" cy="294.63199" r="7.7259998"/>
      <circle cx="155.55701" cy="248.274" r="7.7259998"/>
      <circle cx="62.841" cy="340.98999" r="7.7259998"/>
      <circle cx="165.85899" cy="454.31" r="7.7259998"/>
      <circle cx="196.765" cy="413.103" r="7.7259998"/>
      <circle cx="248.274" cy="351.29199" r="7.7259998"/>
      <circle cx="330.68799" cy="320.38599" r="7.7259998"/>
      <circle cx="310.08499" cy="340.98999" r="7.7259998"/>
      <circle cx="340.98999" cy="371.89499" r="7.7259998"/>
      <circle cx="340.98999" cy="433.70599" r="7.7259998"/>
      <circle cx="454.31" cy="217.368" r="7.7259998"/>
      <circle cx="423.40399" cy="423.40399" r="7.7259998"/>
      <circle cx="268.87701" cy="31.936001" r="7.7259998"/>
      <circle cx="83.445" cy="124.652" r="7.7259998"/>
      <circle cx="42.237" cy="186.463" r="7.7259998"/>
      <circle cx="160.70799" cy="201.91499" r="7.7259998"/>
      <circle cx="191.614" cy="186.463" r="7.7259998"/>
      <circle cx="160.70799" cy="171.00999" r="7.7259998"/>
      <circle cx="304.93399" cy="248.274" r="7.7259998"/>
      <circle cx="237.972" cy="93.746002" r="7.7259998"/>
      <circle cx="335.83899" cy="186.463" r="7.7259998"/>
      <circle cx="351.29199" cy="232.821" r="7.7259998"/>
      <circle cx="382.19699" cy="232.821" r="7.7259998"/>
      <circle cx="382.19699" cy="263.72601" r="7.7259998"/>
      <circle cx="325.53699" cy="78.293999" r="7.7259998"/>
      <circle cx="356.44299" cy="62.841" r="7.7259998"/>
     </g>
    </g>
    <circle cx="86.313599" cy="33.519726" r="12.873956" fill="#191106" opacity=".347" stroke-width=".05028889"/>
   </g>
   <g transform="matrix(1.1069933,0,0,1.1069933,-16.918939,184.72462)">
    <circle cx="63.425579" cy="25.645954" r="14.767649" fill="#d5a150" stroke-width=".05768613"/>
    <g fill="#674230" stroke-width=".05768613">
     <circle cx="60.598801" cy="15.232098" r="2.0799313"/>
     <circle cx="54.476795" cy="22.530823" r="2.0799313"/>
     <circle cx="57.16357" cy="30.577934" r="2.0799313"/>
     <circle cx="62.437923" cy="35.684837" r="2.0799313"/>
     <circle cx="65.310013" cy="19.579046" r="2.0799313"/>
     <circle cx="72.441292" cy="30.268171" r="2.0799313"/>
     <circle cx="71.952225" cy="19.924015" r="2.0799313"/>
     <circle cx="62.932941" cy="26.108309" r="2.0799313"/>
    </g>
    <g transform="matrix(.05644164 .01191767 -.01191767 .05644164 52.074808 8.3272468)" fill="#ad712c">
     <circle cx="129.80299" cy="294.63199" r="7.7259998"/>
     <circle cx="181.312" cy="294.63199" r="7.7259998"/>
     <circle cx="155.55701" cy="248.274" r="7.7259998"/>
     <circle cx="62.841" cy="340.98999" r="7.7259998"/>
     <circle cx="165.85899" cy="454.31" r="7.7259998"/>
     <circle cx="196.765" cy="413.103" r="7.7259998"/>
     <circle cx="248.274" cy="351.29199" r="7.7259998"/>
     <circle cx="330.68799" cy="320.38599" r="7.7259998"/>
     <circle cx="310.08499" cy="340.98999" r="7.7259998"/>
     <circle cx="340.98999" cy="371.89499" r="7.7259998"/>
     <circle cx="340.98999" cy="433.70599" r="7.7259998"/>
     <circle cx="454.31" cy="217.368" r="7.7259998"/>
     <circle cx="423.40399" cy="423.40399" r="7.7259998"/>
     <circle cx="268.87701" cy="31.936001" r="7.7259998"/>
     <circle cx="83.445" cy="124.652" r="7.7259998"/>
     <circle cx="42.237" cy="186.463" r="7.7259998"/>
     <circle cx="160.70799" cy="201.91499" r="7.7259998"/>
     <circle cx="191.614" cy="186.463" r="7.7259998"/>
     <circle cx="160.70799" cy="171.00999" r="7.7259998"/>
     <circle cx="304.93399" cy="248.274" r="7.7259998"/>
     <circle cx="237.972" cy="93.746002" r="7.7259998"/>
     <circle cx="335.83899" cy="186.463" r="7.7259998"/>
     <circle cx="351.29199" cy="232.821" r="7.7259998"/>
     <circle cx="382.19699" cy="232.821" r="7.7259998"/>
     <circle cx="382.19699" cy="263.72601" r="7.7259998"/>
     <circle cx="325.53699" cy="78.293999" r="7.7259998"/>
     <circle cx="356.44299" cy="62.841" r="7.7259998"/>
    </g>
    <circle cx="63.425579" cy="25.645954" r="14.767649" fill="#2b1e0a" opacity=".18699999" stroke-width=".05768613"/>
   </g>
   <g transform="matrix(.26578739 0 0 .26578739 49.433937 218.88191)">
    <circle cx="-75.768669" cy="20.227161" r="67.73333" fill="#d5a150" stroke-width=".26458332"/>
    <g fill="#674230" stroke-width=".26458332">
     <circle cx="-88.733978" cy="-27.537054" r="9.5398169"/>
     <circle cx="-116.81319" cy="5.9392986" r="9.5398169"/>
     <circle cx="-104.49001" cy="42.848198" r="9.5398169"/>
     <circle cx="-80.298653" cy="66.271523" r="9.5398169"/>
     <circle cx="-67.125526" cy="-7.5993333" r="9.5398169"/>
     <circle cx="-34.417202" cy="41.427433" r="9.5398169"/>
     <circle cx="-36.660339" cy="-6.017097" r="9.5398169"/>
     <circle cx="-78.028206" cy="22.347801" r="9.5398169"/>
    </g>
    <g transform="matrix(.25887535 .05466162 -.05466162 .25887535 -127.83015 -59.206857)" fill="#ad712c">
     <circle cx="129.80299" cy="294.63199" r="7.7259998"/>
     <circle cx="181.312" cy="294.63199" r="7.7259998"/>
     <circle cx="155.55701" cy="248.274" r="7.7259998"/>
     <circle cx="62.841" cy="340.98999" r="7.7259998"/>
     <circle cx="165.85899" cy="454.31" r="7.7259998"/>
     <circle cx="196.765" cy="413.103" r="7.7259998"/>
     <circle cx="248.274" cy="351.29199" r="7.7259998"/>
     <circle cx="330.68799" cy="320.38599" r="7.7259998"/>
     <circle cx="310.08499" cy="340.98999" r="7.7259998"/>
     <circle cx="340.98999" cy="371.89499" r="7.7259998"/>
     <circle cx="340.98999" cy="433.70599" r="7.7259998"/>
     <circle cx="454.31" cy="217.368" r="7.7259998"/>
     <circle cx="423.40399" cy="423.40399" r="7.7259998"/>
     <circle cx="268.87701" cy="31.936001" r="7.7259998"/>
     <circle cx="83.445" cy="124.652" r="7.7259998"/>
     <circle cx="42.237" cy="186.463" r="7.7259998"/>
     <circle cx="160.70799" cy="201.91499" r="7.7259998"/>
     <circle cx="191.614" cy="186.463" r="7.7259998"/>
     <circle cx="160.70799" cy="171.00999" r="7.7259998"/>
     <circle cx="304.93399" cy="248.274" r="7.7259998"/>
     <circle cx="237.972" cy="93.746002" r="7.7259998"/>
     <circle cx="335.83899" cy="186.463" r="7.7259998"/>
     <circle cx="351.29199" cy="232.821" r="7.7259998"/>
     <circle cx="382.19699" cy="232.821" r="7.7259998"/>
     <circle cx="382.19699" cy="263.72601" r="7.7259998"/>
     <circle cx="325.53699" cy="78.293999" r="7.7259998"/>
     <circle cx="356.44299" cy="62.841" r="7.7259998"/>
    </g>
   </g>
   <g transform="matrix(1.1069933,0,0,1.1069933,-18.077425,163.32025)">
    <g transform="matrix(.19006826 0 0 .19006826 134.87253 29.675185)">
     <circle cx="-75.768669" cy="20.227161" r="67.73333" fill="#d5a150" stroke-width=".26458332"/>
     <g fill="#674230" stroke-width=".26458332">
      <circle cx="-88.733978" cy="-27.537054" r="9.5398169"/>
      <circle cx="-116.81319" cy="5.9392986" r="9.5398169"/>
      <circle cx="-104.49001" cy="42.848198" r="9.5398169"/>
      <circle cx="-80.298653" cy="66.271523" r="9.5398169"/>
      <circle cx="-67.125526" cy="-7.5993333" r="9.5398169"/>
      <circle cx="-34.417202" cy="41.427433" r="9.5398169"/>
      <circle cx="-36.660339" cy="-6.017097" r="9.5398169"/>
      <circle cx="-78.028206" cy="22.347801" r="9.5398169"/>
     </g>
     <g transform="matrix(.25887535 .05466162 -.05466162 .25887535 -127.83015 -59.206857)" fill="#ad712c">
      <circle cx="129.80299" cy="294.63199" r="7.7259998"/>
      <circle cx="181.312" cy="294.63199" r="7.7259998"/>
      <circle cx="155.55701" cy="248.274" r="7.7259998"/>
      <circle cx="62.841" cy="340.98999" r="7.7259998"/>
      <circle cx="165.85899" cy="454.31" r="7.7259998"/>
      <circle cx="196.765" cy="413.103" r="7.7259998"/>
      <circle cx="248.274" cy="351.29199" r="7.7259998"/>
      <circle cx="330.68799" cy="320.38599" r="7.7259998"/>
      <circle cx="310.08499" cy="340.98999" r="7.7259998"/>
      <circle cx="340.98999" cy="371.89499" r="7.7259998"/>
      <circle cx="340.98999" cy="433.70599" r="7.7259998"/>
      <circle cx="454.31" cy="217.368" r="7.7259998"/>
      <circle cx="423.40399" cy="423.40399" r="7.7259998"/>
      <circle cx="268.87701" cy="31.936001" r="7.7259998"/>
      <circle cx="83.445" cy="124.652" r="7.7259998"/>
      <circle cx="42.237" cy="186.463" r="7.7259998"/>
      <circle cx="160.70799" cy="201.91499" r="7.7259998"/>
      <circle cx="191.614" cy="186.463" r="7.7259998"/>
      <circle cx="160.70799" cy="171.00999" r="7.7259998"/>
      <circle cx="304.93399" cy="248.274" r="7.7259998"/>
      <circle cx="237.972" cy="93.746002" r="7.7259998"/>
      <circle cx="335.83899" cy="186.463" r="7.7259998"/>
      <circle cx="351.29199" cy="232.821" r="7.7259998"/>
      <circle cx="382.19699" cy="232.821" r="7.7259998"/>
      <circle cx="382.19699" cy="263.72601" r="7.7259998"/>
      <circle cx="325.53699" cy="78.293999" r="7.7259998"/>
      <circle cx="356.44299" cy="62.841" r="7.7259998"/>
     </g>
    </g>
    <circle cx="120.47131" cy="33.519726" r="12.873956" fill="#191106" opacity=".347" stroke-width=".05028889"/>
   </g>
   <g transform="matrix(1.1069933,0,0,1.1069933,31.075405,184.72462)">
    <circle cx="63.425579" cy="25.645954" r="14.767649" fill="#d5a150" stroke-width=".05768613"/>
    <g fill="#674230" stroke-width=".05768613">
     <circle cx="60.598801" cy="15.232098" r="2.0799313"/>
     <circle cx="54.476795" cy="22.530823" r="2.0799313"/>
     <circle cx="57.16357" cy="30.577934" r="2.0799313"/>
     <circle cx="62.437923" cy="35.684837" r="2.0799313"/>
     <circle cx="65.310013" cy="19.579046" r="2.0799313"/>
     <circle cx="72.441292" cy="30.268171" r="2.0799313"/>
     <circle cx="71.952225" cy="19.924015" r="2.0799313"/>
     <circle cx="62.932941" cy="26.108309" r="2.0799313"/>
    </g>
    <g transform="matrix(.05644164 .01191767 -.01191767 .05644164 52.074808 8.3272468)" fill="#ad712c">
     <circle cx="129.80299" cy="294.63199" r="7.7259998"/>
     <circle cx="181.312" cy="294.63199" r="7.7259998"/>
     <circle cx="155.55701" cy="248.274" r="7.7259998"/>
     <circle cx="62.841" cy="340.98999" r="7.7259998"/>
     <circle cx="165.85899" cy="454.31" r="7.7259998"/>
     <circle cx="196.765" cy="413.103" r="7.7259998"/>
     <circle cx="248.274" cy="351.29199" r="7.7259998"/>
     <circle cx="330.68799" cy="320.38599" r="7.7259998"/>
     <circle cx="310.08499" cy="340.98999" r="7.7259998"/>
     <circle cx="340.98999" cy="371.89499" r="7.7259998"/>
     <circle cx="340.98999" cy="433.70599" r="7.7259998"/>
     <circle cx="454.31" cy="217.368" r="7.7259998"/>
     <circle cx="423.40399" cy="423.40399" r="7.7259998"/>
     <circle cx="268.87701" cy="31.936001" r="7.7259998"/>
     <circle cx="83.445" cy="124.652" r="7.7259998"/>
     <circle cx="42.237" cy="186.463" r="7.7259998"/>
     <circle cx="160.70799" cy="201.91499" r="7.7259998"/>
     <circle cx="191.614" cy="186.463" r="7.7259998"/>
     <circle cx="160.70799" cy="171.00999" r="7.7259998"/>
     <circle cx="304.93399" cy="248.274" r="7.7259998"/>
     <circle cx="237.972" cy="93.746002" r="7.7259998"/>
     <circle cx="335.83899" cy="186.463" r="7.7259998"/>
     <circle cx="351.29199" cy="232.821" r="7.7259998"/>
     <circle cx="382.19699" cy="232.821" r="7.7259998"/>
     <circle cx="382.19699" cy="263.72601" r="7.7259998"/>
     <circle cx="325.53699" cy="78.293999" r="7.7259998"/>
     <circle cx="356.44299" cy="62.841" r="7.7259998"/>
    </g>
    <circle cx="63.425579" cy="25.645954" r="14.767649" fill="#2b1e0a" opacity=".18699999" stroke-width=".05768613"/>
   </g>
   <g transform="matrix(.26578739 0 0 .26578739 97.428284 218.88191)">
    <circle cx="-75.768669" cy="20.227161" r="67.73333" fill="#d5a150" stroke-width=".26458332"/>
    <g fill="#674230" stroke-width=".26458332">
     <circle cx="-88.733978" cy="-27.537054" r="9.5398169"/>
     <circle cx="-116.81319" cy="5.9392986" r="9.5398169"/>
     <circle cx="-104.49001" cy="42.848198" r="9.5398169"/>
     <circle cx="-80.298653" cy="66.271523" r="9.5398169"/>
     <circle cx="-67.125526" cy="-7.5993333" r="9.5398169"/>
     <circle cx="-34.417202" cy="41.427433" r="9.5398169"/>
     <circle cx="-36.660339" cy="-6.017097" r="9.5398169"/>
     <circle cx="-78.028206" cy="22.347801" r="9.5398169"/>
    </g>
    <g transform="matrix(.25887535 .05466162 -.05466162 .25887535 -127.83015 -59.206857)" fill="#ad712c">
     <circle cx="129.80299" cy="294.63199" r="7.7259998"/>
     <circle cx="181.312" cy="294.63199" r="7.7259998"/>
     <circle cx="155.55701" cy="248.274" r="7.7259998"/>
     <circle cx="62.841" cy="340.98999" r="7.7259998"/>
     <circle cx="165.85899" cy="454.31" r="7.7259998"/>
     <circle cx="196.765" cy="413.103" r="7.7259998"/>
     <circle cx="248.274" cy="351.29199" r="7.7259998"/>
     <circle cx="330.68799" cy="320.38599" r="7.7259998"/>
     <circle cx="310.08499" cy="340.98999" r="7.7259998"/>
     <circle cx="340.98999" cy="371.89499" r="7.7259998"/>
     <circle cx="340.98999" cy="433.70599" r="7.7259998"/>
     <circle cx="454.31" cy="217.368" r="7.7259998"/>
     <circle cx="423.40399" cy="423.40399" r="7.7259998"/>
     <circle cx="268.87701" cy="31.936001" r="7.7259998"/>
     <circle cx="83.445" cy="124.652" r="7.7259998"/>
     <circle cx="42.237" cy="186.463" r="7.7259998"/>
     <circle cx="160.70799" cy="201.91499" r="7.7259998"/>
     <circle cx="191.614" cy="186.463" r="7.7259998"/>
     <circle cx="160.70799" cy="171.00999" r="7.7259998"/>
     <circle cx="304.93399" cy="248.274" r="7.7259998"/>
     <circle cx="237.972" cy="93.746002" r="7.7259998"/>
     <circle cx="335.83899" cy="186.463" r="7.7259998"/>
     <circle cx="351.29199" cy="232.821" r="7.7259998"/>
     <circle cx="382.19699" cy="232.821" r="7.7259998"/>
     <circle cx="382.19699" cy="263.72601" r="7.7259998"/>
     <circle cx="325.53699" cy="78.293999" r="7.7259998"/>
     <circle cx="356.44299" cy="62.841" r="7.7259998"/>
    </g>
   </g>
   <g transform="matrix(.26578739 0 0 .26578739 145.42262 218.88191)">
    <circle cx="-75.768669" cy="20.227161" r="67.73333" fill="#d5a150" stroke-width=".26458332"/>
    <g fill="#674230" stroke-width=".26458332">
     <circle cx="-88.733978" cy="-27.537054" r="9.5398169"/>
     <circle cx="-116.81319" cy="5.9392986" r="9.5398169"/>
     <circle cx="-104.49001" cy="42.848198" r="9.5398169"/>
     <circle cx="-80.298653" cy="66.271523" r="9.5398169"/>
     <circle cx="-67.125526" cy="-7.5993333" r="9.5398169"/>
     <circle cx="-34.417202" cy="41.427433" r="9.5398169"/>
     <circle cx="-36.660339" cy="-6.017097" r="9.5398169"/>
     <circle cx="-78.028206" cy="22.347801" r="9.5398169"/>
    </g>
    <g transform="matrix(.25887535 .05466162 -.05466162 .25887535 -127.83015 -59.206857)" fill="#ad712c">
     <circle cx="129.80299" cy="294.63199" r="7.7259998"/>
     <circle cx="181.312" cy="294.63199" r="7.7259998"/>
     <circle cx="155.55701" cy="248.274" r="7.7259998"/>
     <circle cx="62.841" cy="340.98999" r="7.7259998"/>
     <circle cx="165.85899" cy="454.31" r="7.7259998"/>
     <circle cx="196.765" cy="413.103" r="7.7259998"/>
     <circle cx="248.274" cy="351.29199" r="7.7259998"/>
     <circle cx="330.68799" cy="320.38599" r="7.7259998"/>
     <circle cx="310.08499" cy="340.98999" r="7.7259998"/>
     <circle cx="340.98999" cy="371.89499" r="7.7259998"/>
     <circle cx="340.98999" cy="433.70599" r="7.7259998"/>
     <circle cx="454.31" cy="217.368" r="7.7259998"/>
     <circle cx="423.40399" cy="423.40399" r="7.7259998"/>
     <circle cx="268.87701" cy="31.936001" r="7.7259998"/>
     <circle cx="83.445" cy="124.652" r="7.7259998"/>
     <circle cx="42.237" cy="186.463" r="7.7259998"/>
     <circle cx="160.70799" cy="201.91499" r="7.7259998"/>
     <circle cx="191.614" cy="186.463" r="7.7259998"/>
     <circle cx="160.70799" cy="171.00999" r="7.7259998"/>
     <circle cx="304.93399" cy="248.274" r="7.7259998"/>
     <circle cx="237.972" cy="93.746002" r="7.7259998"/>
     <circle cx="335.83899" cy="186.463" r="7.7259998"/>
     <circle cx="351.29199" cy="232.821" r="7.7259998"/>
     <circle cx="382.19699" cy="232.821" r="7.7259998"/>
     <circle cx="382.19699" cy="263.72601" r="7.7259998"/>
     <circle cx="325.53699" cy="78.293999" r="7.7259998"/>
     <circle cx="356.44299" cy="62.841" r="7.7259998"/>
    </g>
   </g>
   <path d="m142.68739 222.3466h-38.26219c-0.8845 0-1.69334 0.29326-2.08889 0.75744l-2.734473 3.20905c-0.7911 0.92867-2.40903 1.51518-4.17803 1.51518h-36.267497c-1.769268 0-3.386931-0.58651-4.178035-1.51518l-2.734469-3.20905c-0.395552-0.46418-1.204383-0.75744-2.088885-0.75744h-38.262718c-1.289844 0-2.3357422 0.61368-2.3357422 1.3705v26.03814c0 0.75681 1.0458982 1.37049 2.3357422 1.37049h130.795447c1.28985 0 2.33574-0.61368 2.33574-1.37049v-26.0383c-2.6e-4 -0.75681-1.04616-1.37034-2.336-1.37034z" fill="#ebd2af" stroke-width=".20266961"/>
   <g fill="#fff">
    <g stroke="#4c3121" stroke-width=".52916664">
     <path d="m30.962148 209.39214-2.790527 0.0775-0.766534 0.62873v2.64411l0.689019-0.31867 0.07751 8.33713h3.014458z" style="font-feature-settings:normal;font-variant-caps:normal;font-variant-ligatures:normal;font-variant-numeric:normal"/>
     <g transform="translate(-2.589295,-92.379986)" style="font-feature-settings:normal;font-variant-caps:normal;font-variant-ligatures:normal;font-variant-numeric:normal" aria-label="2">
      <path d="m82.695116 302.23398q-2.592434-1.57613-4.823134-0.0258-1.119656 0.81821-1.972317 2.02399l1.739773 2.20486q0.223931-0.36173 0.62873-0.67179 0.895725-0.89572 1.800063-0.70624 0.508151 0.11196 0.413411 0.68902-0.07751 0.49092-0.577053 1.28329-0.938789 1.47278-2.290989 2.36851-0.585666 0.49954-1.085205 0.8785l-0.206706 3.04891 7.002157 0.14641 0.0086-2.91972-3.539836 0.16365q1.679484-1.5503 2.876655-3.3762 1.050754-1.59335 1.171332-2.79914 0.163642-1.50723-1.145494-2.30821z" fill="#fff" stroke="#4c3121" stroke-width=".52916664" style="font-feature-settings:normal;font-variant-caps:normal;font-variant-ligatures:normal;font-variant-numeric:normal"/>
     </g>
     <g transform="translate(19.817293,-94.560539)" style="font-feature-settings:normal;font-variant-caps:normal;font-variant-ligatures:normal;font-variant-numeric:normal" aria-label="3">
      <path d="m101.58693 304.11536 0.0775 2.62688 3.31591-0.0775-2.79053 2.02399q0.76653-0.11196 1.50723 0.0861 1.49861 0.39619 1.45555 1.95509-0.0517 1.56752-1.50723 1.54168-0.73208-0.0172-1.45555-0.34451l-0.68041 2.80776q1.24024 0.39618 2.7044 0.42202 2.9025 0.0603 3.97047-1.76561 1.46417-2.51492-0.0258-4.25469-0.74931-0.86989-1.71394-1.32637l2.98001-3.66041z" fill="#fff" stroke="#4c3121" stroke-width=".52916664" style="font-feature-settings:normal;font-variant-caps:normal;font-variant-ligatures:normal;font-variant-numeric:normal"/>
     </g>
     <g transform="translate(-72.334233,-103.9983)" style="font-feature-settings:normal;font-variant-caps:normal;font-variant-ligatures:normal;font-variant-numeric:normal" aria-label="4">
      <path d="m126.53564 308.20029h-1.80006l0.0775-3.8585-2.97139 0.0861v6.25285l4.5303 0.16364-0.32729 5.02123 3.11781 0.0775 0.24977-11.60136h-2.79914z" fill="#fff" stroke="#4c3121" stroke-width=".52916664" style="font-feature-settings:normal;font-variant-caps:normal;font-variant-ligatures:normal;font-variant-numeric:normal"/>
     </g>
     <g transform="translate(-47.165216,-99.366556)" style="font-feature-settings:normal;font-variant-caps:normal;font-variant-ligatures:normal;font-variant-numeric:normal" aria-label="5">
      <path d="m147.0145 302.47991 4.52169 0.18948 0.26699-2.54076-6.98493-0.26699 0.11196 5.32267q1.06798-0.22393 1.98955-0.1378 1.84312 0.18087 1.88619 1.74838 0.0517 1.57614-1.5503 1.79145-0.80098 0.11197-1.61919-0.0947l-0.15503 2.60105q1.70532 0.20671 3.39342-0.22393 3.36758-0.84405 3.20394-3.9877-0.14642-3.14365-2.6355-3.77238-1.23162-0.39618-2.44602-0.0775z" fill="#fff" stroke="#4c3121" stroke-width=".52916664" style="font-feature-settings:normal;font-variant-caps:normal;font-variant-ligatures:normal;font-variant-numeric:normal"/>
     </g>
     <g transform="translate(-133.55092,-111.03595)" style="font-feature-settings:normal;font-variant-caps:normal;font-variant-ligatures:normal;font-variant-numeric:normal" aria-label="6">
      <path d="m172.99328 308.91859q-0.30145 0.0258-0.46509-0.15503-0.14642-0.15503-0.14642-0.4048t0.12058-0.44786q0.12919-0.20671 0.3359-0.24116 0.49092-0.0861 0.73208 0.0861 0.21532 0.14642 0.18948 0.42202-0.0258 0.25839-0.23254 0.4737-0.22394 0.23255-0.53399 0.267zm-0.20671-3.93602q-0.10335-0.36174 0.10335-0.66318 0.43064-0.61151 2.01538-0.3359l0.45648-2.67856q-0.39619-0.1981-1.10243-0.24977-1.4211-0.0861-2.9714 0.67179-0.80959 0.39619-1.54168 1.88619-0.7493 1.54168-0.88711 3.21255-0.14642 1.92064 0.64596 3.20394 0.93017 1.51584 3.04029 1.85174 1.8259 0.29283 3.05753-0.72347 1.11104-0.91295 1.24023-2.40295 0.12919-1.49862-0.85266-2.55799-1.11104-1.19717-3.20394-1.21439z" fill="#fff" stroke="#4c3121" stroke-width=".52916664" style="font-feature-settings:normal;font-variant-caps:normal;font-variant-ligatures:normal;font-variant-numeric:normal"/>
     </g>
     <g transform="translate(-116.02912,-111.51398)" style="font-feature-settings:normal;font-variant-caps:normal;font-variant-ligatures:normal;font-variant-numeric:normal" aria-label="7">
      <path d="m189.84847 304.90758 2.79914-0.0775-2.57521 7.30361 3.46232 0.29283 3.76377-10.90373-7.59644 0.0775z" fill="#fff" stroke="#4c3121" stroke-width=".52916664" style="font-feature-settings:normal;font-variant-caps:normal;font-variant-ligatures:normal;font-variant-numeric:normal"/>
     </g>
     <g transform="translate(-107.54297,-117.10143)" style="font-feature-settings:normal;font-variant-caps:normal;font-variant-ligatures:normal;font-variant-numeric:normal" aria-label="8">
      <path d="m223.01676 314.77811q-0.28422 0-0.46509-0.16364-0.15503-0.1378-0.18087-0.35312-0.0172-0.20671 0.12058-0.34451 0.1378-0.16364 0.42202-0.17226 0.38758-9e-3 0.59428 0.15503 0.17226 0.13781 0.16364 0.35313-9e-3 0.2067-0.18086 0.36173-0.18948 0.16364-0.4737 0.16364zm-0.34451-5.64995q0.2756-0.0603 0.43925 0.0431 0.14641 0.10335 0.15503 0.29283 9e-3 0.18948-0.11197 0.31867-0.14642 0.16365-0.39619 0.16365t-0.39618-0.11197q-0.14642-0.0947-0.15503-0.24116-0.0431-0.3445 0.46509-0.46508zm2.08428 2.34266q0.63734-1.19717 0.72347-2.42018 0.19809-2.4374-2.54937-2.54076-1.05937-0.0431-1.86035 0.52538-0.73209 0.51677-1.05076 1.37804-0.30144 0.85266-0.0861 1.67087 0.23254 0.8785 0.99907 1.38665-0.69763 0.55983-1.29191 1.38665-1.19717 1.64504-0.72347 2.98862 0.41341 1.17995 1.39527 1.92064 0.92156 0.68041 2.09289 0.81821 1.15411 0.13781 2.19625-0.31005 1.10243-0.48232 1.73116-1.49862 1.12827-1.81729-0.11197-3.74654-0.62011-0.96463-1.46416-1.55891z" fill="#fff" stroke="#4c3121" stroke-width=".52916664" style="font-feature-settings:normal;font-variant-caps:normal;font-variant-ligatures:normal;font-variant-numeric:normal"/>
     </g>
    </g>
    <rect transform="rotate(-15)" x="35.657509" y="249.95235" width="40.766659" height="20.11861" ry="5.2943716"/>
   </g>
   <g transform="rotate(-15)" fill="#424242" stroke-width=".26458332" style="font-feature-settings:normal;font-variant-caps:normal;font-variant-ligatures:normal;font-variant-numeric:normal" aria-label="Andrea">
    <path d="m41.636027 253.1187q0.792372 0.0603 1.145494 1.11966 0.353123 1.05937 0.637343 1.93787 0.28422 0.86988 0.766534 4.28053 0.08613 0 0.482313 4.61642 0.137804 0.18948 0.206706 1.17134 0 0.29283-0.585666 0.44786-0.542603 0-0.620118-1.37804v-0.96463q-0.198093-2.82497-0.37896-2.82497l-0.413411-0.0689q-2.652724 0.0861-2.652724 0.58567l-0.792372 4.09966q-0.18948 0.17226-0.34451 0.17226-0.516764-0.10335-0.516764-0.51677 1.309136-7.14857 1.963705-11.29991 0.103352-0.0689 0.310058-0.86127 0.422024-0.51677 0.792372-0.51677zm-0.964627 6.75239v0.41341q0 0.24116 1.102431 0.24116h0.551215q0.930176 0 0.930176-0.24116l0.03445-0.24116-0.0689-0.31005v-0.55122q-0.172256-0.31867-0.757922-2.96278-0.43925-1.41249-0.792372-1.41249h-0.03445q-0.06029 0-0.275608 0.99908-0.232543 0.74931-0.620117 3.7207-0.06029 0-0.0689 0.34451z" style="font-feature-settings:normal;font-variant-caps:normal;font-variant-ligatures:normal;font-variant-numeric:normal"/>
    <path d="m49.912869 253.61824q0.551215 0.17226 0.861274 0.93018 0.206706 0.24977 0.482313 1.8259-0.310058 5.04706-0.275607 7.55337l0.03445 1.6881q0 0.96462-0.654569 0.96462-0.551215 0-0.551215-0.79237 0.103353-5.46047 0.275608-7.82898l0.0689-2.06706-0.447863-1.10243q-0.146416-0.1378-0.275607-0.1378h-0.172255q-0.585666-0.0344-2.153185 3.89296-0.551215 1.41249-0.551215 1.72255v1.37803l0.103353 2.24793-0.0689 0.99908v0.0344l0.0689 0.65457q0 0.31867-0.654568 0.68902-0.585667-0.16365-0.585667-0.96463l-0.0689-1.10243q0.137804-3.22117 0.103353-9.20702 0-1.20578 0.310059-1.20578 0.232544-0.20671 0.482313-0.20671 0.34451 0 0.34451 0.41341l-0.0689 2.41157q0.04306 0.17225 0.103353 0.17225h0.206705q0.06029 0 0.930176-1.61919 0.852661-1.20578 1.205784-1.20578 0.396186-0.31006 0.947401-0.13781z" style="font-feature-settings:normal;font-variant-caps:normal;font-variant-ligatures:normal;font-variant-numeric:normal"/>
    <path d="m56.725545 253.87662q0.551215 0 0.551215 1.41249l0.03445 1.757-0.137803 3.41065q0 2.52353 0.275607 5.96001-0.02584 0.9474-0.310058 1.10243l-0.275608 0.0344q-0.654568 0-0.654568-1.10243-0.09474-0.73208-0.137804-1.9637l-0.103353-0.0689q-0.878499 1.48139-1.309136 1.48139-0.749308 0.41341-1.274686 0.41341-0.826822 0-1.44694-0.79237-0.103353-0.35313-0.103353-0.65457 0-0.89573 0.947402-2.66995 0.947401-1.77422 3.048909-1.77422 0.206706 0 0.275608-2.13596v-1.30914l-0.03445-2.61827q0.318671-0.48232 0.654568-0.48232zm-3.789605 10.40419v0.27561q0 0.58567 0.34451 0.58567h0.103352q1.309137 0 1.688097-1.79145 0.206706-0.4048 0.34451-1.06798 0.07751 0 0.137804-0.27561 0-0.24116-0.585667-0.34451-1.024916 0-1.722547 1.86035z" style="font-feature-settings:normal;font-variant-caps:normal;font-variant-ligatures:normal;font-variant-numeric:normal"/>
    <path d="m61.660645 255.40108q0.826823 0.28422 1.136881 0.89572l0.03445 0.17226q-0.120578 0.65457-0.551215 0.65457-0.258382 0-0.895725-0.58567h-0.275608q-0.783759 0-1.524454 0.80098-0.740696 0.80099-0.215319 4.87482 0.53399 4.07382-0.07751 3.75515l-0.620117 0.0172q-0.335897-0.16364-0.413411-4.10827-0.0689-3.95325-0.232544-6.11505 0-0.55121 0.72347-0.55121 0.447862 0 0.447862 0.41341l-0.03445 0.51676q0.0689 0.15503 0.137804 0.17226h0.137804q0.792372-0.91295 2.222087-0.91295z" style="font-feature-settings:normal;font-variant-caps:normal;font-variant-ligatures:normal;font-variant-numeric:normal"/>
    <path d="m65.54499 253.1876q0.757921 0 1.79145 0.82683 0.172255 0.31006 0.172255 0.62011 0 1.54169-0.999078 2.13596-1.145494 0.34451-1.894803 0.34451-0.172254 0.18087-0.172254 0.55122v0.58567q0 1.86896 0.482313 4.20301 0 1.25746 0.964627 2.44602 0.301446 0.24116 0.447862 0.24116h0.241157q0.344509-0.12919 0.861274-0.44787l0.206705-0.0344q0.24977 0 0.378961 0.41341 0 0.77515-1.205783 1.5503l-0.551216 0.10335q-0.490926 0-1.722548-1.34359-0.654568-1.02491-0.654568-2.48047-0.447862-2.18763-0.516764-5.58105 0-1.37804 0.964627-3.4451 0.809597-0.68902 1.205783-0.68902zm-0.792372 2.75608 0.172255 0.10335q1.085205 0 1.44694-0.58566 0.103353-0.18087 0.103353-0.34451v-0.13781q0-0.51676-0.654568-0.51676-0.912951 0-1.06798 1.44694z" style="font-feature-settings:normal;font-variant-caps:normal;font-variant-ligatures:normal;font-variant-numeric:normal"/>
    <path d="m71.272461 253.37709q0.714858 0.24976 1.240235 0.99907 0.482313 0.88711 0.800985 2.26515 0.327284 1.37804 0.370347 4.00493-0.02584 3.1092-0.198093 3.51399 0 1.99816-0.585666 1.99816 0 0.0861-2.695787 0.10335-0.775147 0-1.274686-1.27468-0.137803-0.56844-0.137803-0.99908v-0.17226q0-1.19717 0.999077-2.48046 0.602892-0.68902 1.550293-0.68902l0.757921 0.0345h0.378961l0.03445-0.37896 0.03445-1.72255q0-1.44694-0.930176-3.5829-0.258382-0.31006-0.516764-0.31006h-0.137804q-0.103353 0-0.826823 0.48231h-0.0689q-0.551215-0.25838-0.551215-0.58566v-0.13781q0.904337-1.06797 1.756998-1.06797zm-1.309136 10.26638v0.27561q0 0.76653 0.378961 1.06798h0.0689q1.765611-0.0775 1.800062-0.0861 0.310059-1.54168 0.02584-2.5666-0.275607-0.48231-0.895725-0.48231-0.62873 0-1.309136 1.20578z" style="font-feature-settings:normal;font-variant-caps:normal;font-variant-ligatures:normal;font-variant-numeric:normal"/>
   </g>
  </g>
 </g>
</svg>
