<?xml version="1.0" encoding="UTF-8"?>
<!-- Created with Inkscape (http://www.inkscape.org/) -->
<svg width="512" height="511.99997" version="1.1" viewBox="0 0 135.46666 135.46666" xmlns="http://www.w3.org/2000/svg" xmlns:cc="http://creativecommons.org/ns#" xmlns:dc="http://purl.org/dc/elements/1.1/" xmlns:rdf="http://www.w3.org/1999/02/22-rdf-syntax-ns#">
 <metadata>
  <rdf:RDF>
   <cc:Work rdf:about="">
    <dc:format>image/svg+xml</dc:format>
    <dc:type rdf:resource="http://purl.org/dc/dcmitype/StillImage"/>
    <dc:title/>
   </cc:Work>
  </rdf:RDF>
 </metadata>
 <g transform="translate(-9.5564609,7.6635795)">
  <rect x="9.5564642" y="-7.6635795" width="135.46666" height="135.46666" ry="0" opacity="0" stroke-width=".92353249"/>
  <rect x="9.7766638" y="21.925364" width="135.02626" height="76.288773" opacity="0" stroke-width=".44039264"/>
  <g transform="matrix(.99999808 0 0 1 -8.3720787 0)">
   <path d="m152.80733 68.597133-10.42273-18.761339c-0.41195-0.741627-1.19353-1.201473-2.04152-1.201473h-109.362081c-0.848254 0-1.629569 0.459846-2.041525 1.201473l-10.422996 18.761339c-0.385498 0.694002-0.587904 1.474523-0.587904 2.268538v10.46771h135.466666v-10.46771c0-0.794015-0.20241-1.574536-0.58791-2.268538z" fill="#e1c3a0" stroke-width=".26458332"/>
   <g transform="translate(-.48785269 2.9900404)">
    <g transform="matrix(1.1069933,0,0,1.1069933,-9.2174595,7.638809)">
     <circle cx="51.828468" cy="33.519726" r="12.873956" fill="#d5a150" stroke-width=".05028889"/>
     <g fill="#674230" stroke-width=".05028889">
      <circle cx="49.364174" cy="24.441265" r="1.8132164"/>
      <circle cx="44.027206" cy="30.804058" r="1.8132164"/>
      <circle cx="46.36945" cy="37.819267" r="1.8132164"/>
      <circle cx="50.967461" cy="42.271297" r="1.8132164"/>
      <circle cx="53.471252" cy="28.230793" r="1.8132164"/>
      <circle cx="59.688068" cy="37.549225" r="1.8132164"/>
      <circle cx="59.261719" cy="28.531527" r="1.8132164"/>
      <circle cx="51.399002" cy="33.922794" r="1.8132164"/>
     </g>
     <g transform="matrix(.04920399 .01038944 -.01038944 .04920399 41.933232 18.421841)" fill="#ad712c">
      <circle cx="129.80299" cy="294.63199" r="7.7259998"/>
      <circle cx="181.312" cy="294.63199" r="7.7259998"/>
      <circle cx="155.55701" cy="248.274" r="7.7259998"/>
      <circle cx="62.841" cy="340.98999" r="7.7259998"/>
      <circle cx="165.85899" cy="454.31" r="7.7259998"/>
      <circle cx="196.765" cy="413.103" r="7.7259998"/>
      <circle cx="248.274" cy="351.29199" r="7.7259998"/>
      <circle cx="330.68799" cy="320.38599" r="7.7259998"/>
      <circle cx="310.08499" cy="340.98999" r="7.7259998"/>
      <circle cx="340.98999" cy="371.89499" r="7.7259998"/>
      <circle cx="340.98999" cy="433.70599" r="7.7259998"/>
      <circle cx="454.31" cy="217.368" r="7.7259998"/>
      <circle cx="423.40399" cy="423.40399" r="7.7259998"/>
      <circle cx="268.87701" cy="31.936001" r="7.7259998"/>
      <circle cx="83.445" cy="124.652" r="7.7259998"/>
      <circle cx="42.237" cy="186.463" r="7.7259998"/>
      <circle cx="160.70799" cy="201.91499" r="7.7259998"/>
      <circle cx="191.614" cy="186.463" r="7.7259998"/>
      <circle cx="160.70799" cy="171.00999" r="7.7259998"/>
      <circle cx="304.93399" cy="248.274" r="7.7259998"/>
      <circle cx="237.972" cy="93.746002" r="7.7259998"/>
      <circle cx="335.83899" cy="186.463" r="7.7259998"/>
      <circle cx="351.29199" cy="232.821" r="7.7259998"/>
      <circle cx="382.19699" cy="232.821" r="7.7259998"/>
      <circle cx="382.19699" cy="263.72601" r="7.7259998"/>
      <circle cx="325.53699" cy="78.293999" r="7.7259998"/>
      <circle cx="356.44299" cy="62.841" r="7.7259998"/>
     </g>
     <circle cx="51.828468" cy="33.519726" r="12.873956" fill="#191106" opacity=".347" stroke-width=".05028889"/>
    </g>
    <g transform="matrix(1.1069933,0,0,1.1069933,-9.2174595,7.638809)">
     <g transform="matrix(.19006826 0 0 .19006826 100.71482 29.675184)">
      <circle cx="-75.768669" cy="20.227161" r="67.73333" fill="#d5a150" stroke-width=".26458332"/>
      <g fill="#674230" stroke-width=".26458332">
       <circle cx="-88.733978" cy="-27.537054" r="9.5398169"/>
       <circle cx="-116.81319" cy="5.9392986" r="9.5398169"/>
       <circle cx="-104.49001" cy="42.848198" r="9.5398169"/>
       <circle cx="-80.298653" cy="66.271523" r="9.5398169"/>
       <circle cx="-67.125526" cy="-7.5993333" r="9.5398169"/>
       <circle cx="-34.417202" cy="41.427433" r="9.5398169"/>
       <circle cx="-36.660339" cy="-6.017097" r="9.5398169"/>
       <circle cx="-78.028206" cy="22.347801" r="9.5398169"/>
      </g>
      <g transform="matrix(.25887535 .05466162 -.05466162 .25887535 -127.83015 -59.206857)" fill="#ad712c">
       <circle cx="129.80299" cy="294.63199" r="7.7259998"/>
       <circle cx="181.312" cy="294.63199" r="7.7259998"/>
       <circle cx="155.55701" cy="248.274" r="7.7259998"/>
       <circle cx="62.841" cy="340.98999" r="7.7259998"/>
       <circle cx="165.85899" cy="454.31" r="7.7259998"/>
       <circle cx="196.765" cy="413.103" r="7.7259998"/>
       <circle cx="248.274" cy="351.29199" r="7.7259998"/>
       <circle cx="330.68799" cy="320.38599" r="7.7259998"/>
       <circle cx="310.08499" cy="340.98999" r="7.7259998"/>
       <circle cx="340.98999" cy="371.89499" r="7.7259998"/>
       <circle cx="340.98999" cy="433.70599" r="7.7259998"/>
       <circle cx="454.31" cy="217.368" r="7.7259998"/>
       <circle cx="423.40399" cy="423.40399" r="7.7259998"/>
       <circle cx="268.87701" cy="31.936001" r="7.7259998"/>
       <circle cx="83.445" cy="124.652" r="7.7259998"/>
       <circle cx="42.237" cy="186.463" r="7.7259998"/>
       <circle cx="160.70799" cy="201.91499" r="7.7259998"/>
       <circle cx="191.614" cy="186.463" r="7.7259998"/>
       <circle cx="160.70799" cy="171.00999" r="7.7259998"/>
       <circle cx="304.93399" cy="248.274" r="7.7259998"/>
       <circle cx="237.972" cy="93.746002" r="7.7259998"/>
       <circle cx="335.83899" cy="186.463" r="7.7259998"/>
       <circle cx="351.29199" cy="232.821" r="7.7259998"/>
       <circle cx="382.19699" cy="232.821" r="7.7259998"/>
       <circle cx="382.19699" cy="263.72601" r="7.7259998"/>
       <circle cx="325.53699" cy="78.293999" r="7.7259998"/>
       <circle cx="356.44299" cy="62.841" r="7.7259998"/>
      </g>
     </g>
     <circle cx="86.313599" cy="33.519726" r="12.873956" fill="#191106" opacity=".347" stroke-width=".05028889"/>
    </g>
    <g transform="matrix(1.1069933,0,0,1.1069933,-8.0589728,29.043182)">
     <circle cx="63.425579" cy="25.645954" r="14.767649" fill="#d5a150" stroke-width=".05768613"/>
     <g fill="#674230" stroke-width=".05768613">
      <circle cx="60.598801" cy="15.232098" r="2.0799313"/>
      <circle cx="54.476795" cy="22.530823" r="2.0799313"/>
      <circle cx="57.16357" cy="30.577934" r="2.0799313"/>
      <circle cx="62.437923" cy="35.684837" r="2.0799313"/>
      <circle cx="65.310013" cy="19.579046" r="2.0799313"/>
      <circle cx="72.441292" cy="30.268171" r="2.0799313"/>
      <circle cx="71.952225" cy="19.924015" r="2.0799313"/>
      <circle cx="62.932941" cy="26.108309" r="2.0799313"/>
     </g>
     <g transform="matrix(.05644164 .01191767 -.01191767 .05644164 52.074808 8.3272468)" fill="#ad712c">
      <circle cx="129.80299" cy="294.63199" r="7.7259998"/>
      <circle cx="181.312" cy="294.63199" r="7.7259998"/>
      <circle cx="155.55701" cy="248.274" r="7.7259998"/>
      <circle cx="62.841" cy="340.98999" r="7.7259998"/>
      <circle cx="165.85899" cy="454.31" r="7.7259998"/>
      <circle cx="196.765" cy="413.103" r="7.7259998"/>
      <circle cx="248.274" cy="351.29199" r="7.7259998"/>
      <circle cx="330.68799" cy="320.38599" r="7.7259998"/>
      <circle cx="310.08499" cy="340.98999" r="7.7259998"/>
      <circle cx="340.98999" cy="371.89499" r="7.7259998"/>
      <circle cx="340.98999" cy="433.70599" r="7.7259998"/>
      <circle cx="454.31" cy="217.368" r="7.7259998"/>
      <circle cx="423.40399" cy="423.40399" r="7.7259998"/>
      <circle cx="268.87701" cy="31.936001" r="7.7259998"/>
      <circle cx="83.445" cy="124.652" r="7.7259998"/>
      <circle cx="42.237" cy="186.463" r="7.7259998"/>
      <circle cx="160.70799" cy="201.91499" r="7.7259998"/>
      <circle cx="191.614" cy="186.463" r="7.7259998"/>
      <circle cx="160.70799" cy="171.00999" r="7.7259998"/>
      <circle cx="304.93399" cy="248.274" r="7.7259998"/>
      <circle cx="237.972" cy="93.746002" r="7.7259998"/>
      <circle cx="335.83899" cy="186.463" r="7.7259998"/>
      <circle cx="351.29199" cy="232.821" r="7.7259998"/>
      <circle cx="382.19699" cy="232.821" r="7.7259998"/>
      <circle cx="382.19699" cy="263.72601" r="7.7259998"/>
      <circle cx="325.53699" cy="78.293999" r="7.7259998"/>
      <circle cx="356.44299" cy="62.841" r="7.7259998"/>
     </g>
     <circle cx="63.425579" cy="25.645954" r="14.767649" fill="#2b1e0a" opacity=".18699999" stroke-width=".05768613"/>
    </g>
    <g transform="matrix(.26578739 0 0 .26578739 58.293903 63.20047)">
     <circle cx="-75.768669" cy="20.227161" r="67.73333" fill="#d5a150" stroke-width=".26458332"/>
     <g fill="#674230" stroke-width=".26458332">
      <circle cx="-88.733978" cy="-27.537054" r="9.5398169"/>
      <circle cx="-116.81319" cy="5.9392986" r="9.5398169"/>
      <circle cx="-104.49001" cy="42.848198" r="9.5398169"/>
      <circle cx="-80.298653" cy="66.271523" r="9.5398169"/>
      <circle cx="-67.125526" cy="-7.5993333" r="9.5398169"/>
      <circle cx="-34.417202" cy="41.427433" r="9.5398169"/>
      <circle cx="-36.660339" cy="-6.017097" r="9.5398169"/>
      <circle cx="-78.028206" cy="22.347801" r="9.5398169"/>
     </g>
     <g transform="matrix(.25887535 .05466162 -.05466162 .25887535 -127.83015 -59.206857)" fill="#ad712c">
      <circle cx="129.80299" cy="294.63199" r="7.7259998"/>
      <circle cx="181.312" cy="294.63199" r="7.7259998"/>
      <circle cx="155.55701" cy="248.274" r="7.7259998"/>
      <circle cx="62.841" cy="340.98999" r="7.7259998"/>
      <circle cx="165.85899" cy="454.31" r="7.7259998"/>
      <circle cx="196.765" cy="413.103" r="7.7259998"/>
      <circle cx="248.274" cy="351.29199" r="7.7259998"/>
      <circle cx="330.68799" cy="320.38599" r="7.7259998"/>
      <circle cx="310.08499" cy="340.98999" r="7.7259998"/>
      <circle cx="340.98999" cy="371.89499" r="7.7259998"/>
      <circle cx="340.98999" cy="433.70599" r="7.7259998"/>
      <circle cx="454.31" cy="217.368" r="7.7259998"/>
      <circle cx="423.40399" cy="423.40399" r="7.7259998"/>
      <circle cx="268.87701" cy="31.936001" r="7.7259998"/>
      <circle cx="83.445" cy="124.652" r="7.7259998"/>
      <circle cx="42.237" cy="186.463" r="7.7259998"/>
      <circle cx="160.70799" cy="201.91499" r="7.7259998"/>
      <circle cx="191.614" cy="186.463" r="7.7259998"/>
      <circle cx="160.70799" cy="171.00999" r="7.7259998"/>
      <circle cx="304.93399" cy="248.274" r="7.7259998"/>
      <circle cx="237.972" cy="93.746002" r="7.7259998"/>
      <circle cx="335.83899" cy="186.463" r="7.7259998"/>
      <circle cx="351.29199" cy="232.821" r="7.7259998"/>
      <circle cx="382.19699" cy="232.821" r="7.7259998"/>
      <circle cx="382.19699" cy="263.72601" r="7.7259998"/>
      <circle cx="325.53699" cy="78.293999" r="7.7259998"/>
      <circle cx="356.44299" cy="62.841" r="7.7259998"/>
     </g>
    </g>
    <g transform="matrix(1.1069933,0,0,1.1069933,-9.2174595,7.638809)">
     <g transform="matrix(.19006826 0 0 .19006826 134.87253 29.675185)">
      <circle cx="-75.768669" cy="20.227161" r="67.73333" fill="#d5a150" stroke-width=".26458332"/>
      <g fill="#674230" stroke-width=".26458332">
       <circle cx="-88.733978" cy="-27.537054" r="9.5398169"/>
       <circle cx="-116.81319" cy="5.9392986" r="9.5398169"/>
       <circle cx="-104.49001" cy="42.848198" r="9.5398169"/>
       <circle cx="-80.298653" cy="66.271523" r="9.5398169"/>
       <circle cx="-67.125526" cy="-7.5993333" r="9.5398169"/>
       <circle cx="-34.417202" cy="41.427433" r="9.5398169"/>
       <circle cx="-36.660339" cy="-6.017097" r="9.5398169"/>
       <circle cx="-78.028206" cy="22.347801" r="9.5398169"/>
      </g>
      <g transform="matrix(.25887535 .05466162 -.05466162 .25887535 -127.83015 -59.206857)" fill="#ad712c">
       <circle cx="129.80299" cy="294.63199" r="7.7259998"/>
       <circle cx="181.312" cy="294.63199" r="7.7259998"/>
       <circle cx="155.55701" cy="248.274" r="7.7259998"/>
       <circle cx="62.841" cy="340.98999" r="7.7259998"/>
       <circle cx="165.85899" cy="454.31" r="7.7259998"/>
       <circle cx="196.765" cy="413.103" r="7.7259998"/>
       <circle cx="248.274" cy="351.29199" r="7.7259998"/>
       <circle cx="330.68799" cy="320.38599" r="7.7259998"/>
       <circle cx="310.08499" cy="340.98999" r="7.7259998"/>
       <circle cx="340.98999" cy="371.89499" r="7.7259998"/>
       <circle cx="340.98999" cy="433.70599" r="7.7259998"/>
       <circle cx="454.31" cy="217.368" r="7.7259998"/>
       <circle cx="423.40399" cy="423.40399" r="7.7259998"/>
       <circle cx="268.87701" cy="31.936001" r="7.7259998"/>
       <circle cx="83.445" cy="124.652" r="7.7259998"/>
       <circle cx="42.237" cy="186.463" r="7.7259998"/>
       <circle cx="160.70799" cy="201.91499" r="7.7259998"/>
       <circle cx="191.614" cy="186.463" r="7.7259998"/>
       <circle cx="160.70799" cy="171.00999" r="7.7259998"/>
       <circle cx="304.93399" cy="248.274" r="7.7259998"/>
       <circle cx="237.972" cy="93.746002" r="7.7259998"/>
       <circle cx="335.83899" cy="186.463" r="7.7259998"/>
       <circle cx="351.29199" cy="232.821" r="7.7259998"/>
       <circle cx="382.19699" cy="232.821" r="7.7259998"/>
       <circle cx="382.19699" cy="263.72601" r="7.7259998"/>
       <circle cx="325.53699" cy="78.293999" r="7.7259998"/>
       <circle cx="356.44299" cy="62.841" r="7.7259998"/>
      </g>
     </g>
     <circle cx="120.47131" cy="33.519726" r="12.873956" fill="#191106" opacity=".347" stroke-width=".05028889"/>
    </g>
    <g transform="matrix(1.1069933,0,0,1.1069933,39.935371,29.043182)">
     <circle cx="63.425579" cy="25.645954" r="14.767649" fill="#d5a150" stroke-width=".05768613"/>
     <g fill="#674230" stroke-width=".05768613">
      <circle cx="60.598801" cy="15.232098" r="2.0799313"/>
      <circle cx="54.476795" cy="22.530823" r="2.0799313"/>
      <circle cx="57.16357" cy="30.577934" r="2.0799313"/>
      <circle cx="62.437923" cy="35.684837" r="2.0799313"/>
      <circle cx="65.310013" cy="19.579046" r="2.0799313"/>
      <circle cx="72.441292" cy="30.268171" r="2.0799313"/>
      <circle cx="71.952225" cy="19.924015" r="2.0799313"/>
      <circle cx="62.932941" cy="26.108309" r="2.0799313"/>
     </g>
     <g transform="matrix(.05644164 .01191767 -.01191767 .05644164 52.074808 8.3272468)" fill="#ad712c">
      <circle cx="129.80299" cy="294.63199" r="7.7259998"/>
      <circle cx="181.312" cy="294.63199" r="7.7259998"/>
      <circle cx="155.55701" cy="248.274" r="7.7259998"/>
      <circle cx="62.841" cy="340.98999" r="7.7259998"/>
      <circle cx="165.85899" cy="454.31" r="7.7259998"/>
      <circle cx="196.765" cy="413.103" r="7.7259998"/>
      <circle cx="248.274" cy="351.29199" r="7.7259998"/>
      <circle cx="330.68799" cy="320.38599" r="7.7259998"/>
      <circle cx="310.08499" cy="340.98999" r="7.7259998"/>
      <circle cx="340.98999" cy="371.89499" r="7.7259998"/>
      <circle cx="340.98999" cy="433.70599" r="7.7259998"/>
      <circle cx="454.31" cy="217.368" r="7.7259998"/>
      <circle cx="423.40399" cy="423.40399" r="7.7259998"/>
      <circle cx="268.87701" cy="31.936001" r="7.7259998"/>
      <circle cx="83.445" cy="124.652" r="7.7259998"/>
      <circle cx="42.237" cy="186.463" r="7.7259998"/>
      <circle cx="160.70799" cy="201.91499" r="7.7259998"/>
      <circle cx="191.614" cy="186.463" r="7.7259998"/>
      <circle cx="160.70799" cy="171.00999" r="7.7259998"/>
      <circle cx="304.93399" cy="248.274" r="7.7259998"/>
      <circle cx="237.972" cy="93.746002" r="7.7259998"/>
      <circle cx="335.83899" cy="186.463" r="7.7259998"/>
      <circle cx="351.29199" cy="232.821" r="7.7259998"/>
      <circle cx="382.19699" cy="232.821" r="7.7259998"/>
      <circle cx="382.19699" cy="263.72601" r="7.7259998"/>
      <circle cx="325.53699" cy="78.293999" r="7.7259998"/>
      <circle cx="356.44299" cy="62.841" r="7.7259998"/>
     </g>
     <circle cx="63.425579" cy="25.645954" r="14.767649" fill="#2b1e0a" opacity=".18699999" stroke-width=".05768613"/>
    </g>
    <g transform="matrix(.26578739 0 0 .26578739 106.28825 63.20047)">
     <circle cx="-75.768669" cy="20.227161" r="67.73333" fill="#d5a150" stroke-width=".26458332"/>
     <g fill="#674230" stroke-width=".26458332">
      <circle cx="-88.733978" cy="-27.537054" r="9.5398169"/>
      <circle cx="-116.81319" cy="5.9392986" r="9.5398169"/>
      <circle cx="-104.49001" cy="42.848198" r="9.5398169"/>
      <circle cx="-80.298653" cy="66.271523" r="9.5398169"/>
      <circle cx="-67.125526" cy="-7.5993333" r="9.5398169"/>
      <circle cx="-34.417202" cy="41.427433" r="9.5398169"/>
      <circle cx="-36.660339" cy="-6.017097" r="9.5398169"/>
      <circle cx="-78.028206" cy="22.347801" r="9.5398169"/>
     </g>
     <g transform="matrix(.25887535 .05466162 -.05466162 .25887535 -127.83015 -59.206857)" fill="#ad712c">
      <circle cx="129.80299" cy="294.63199" r="7.7259998"/>
      <circle cx="181.312" cy="294.63199" r="7.7259998"/>
      <circle cx="155.55701" cy="248.274" r="7.7259998"/>
      <circle cx="62.841" cy="340.98999" r="7.7259998"/>
      <circle cx="165.85899" cy="454.31" r="7.7259998"/>
      <circle cx="196.765" cy="413.103" r="7.7259998"/>
      <circle cx="248.274" cy="351.29199" r="7.7259998"/>
      <circle cx="330.68799" cy="320.38599" r="7.7259998"/>
      <circle cx="310.08499" cy="340.98999" r="7.7259998"/>
      <circle cx="340.98999" cy="371.89499" r="7.7259998"/>
      <circle cx="340.98999" cy="433.70599" r="7.7259998"/>
      <circle cx="454.31" cy="217.368" r="7.7259998"/>
      <circle cx="423.40399" cy="423.40399" r="7.7259998"/>
      <circle cx="268.87701" cy="31.936001" r="7.7259998"/>
      <circle cx="83.445" cy="124.652" r="7.7259998"/>
      <circle cx="42.237" cy="186.463" r="7.7259998"/>
      <circle cx="160.70799" cy="201.91499" r="7.7259998"/>
      <circle cx="191.614" cy="186.463" r="7.7259998"/>
      <circle cx="160.70799" cy="171.00999" r="7.7259998"/>
      <circle cx="304.93399" cy="248.274" r="7.7259998"/>
      <circle cx="237.972" cy="93.746002" r="7.7259998"/>
      <circle cx="335.83899" cy="186.463" r="7.7259998"/>
      <circle cx="351.29199" cy="232.821" r="7.7259998"/>
      <circle cx="382.19699" cy="232.821" r="7.7259998"/>
      <circle cx="382.19699" cy="263.72601" r="7.7259998"/>
      <circle cx="325.53699" cy="78.293999" r="7.7259998"/>
      <circle cx="356.44299" cy="62.841" r="7.7259998"/>
     </g>
    </g>
    <g transform="matrix(.26578739 0 0 .26578739 154.28259 63.20047)">
     <circle cx="-75.768669" cy="20.227161" r="67.73333" fill="#d5a150" stroke-width=".26458332"/>
     <g fill="#674230" stroke-width=".26458332">
      <circle cx="-88.733978" cy="-27.537054" r="9.5398169"/>
      <circle cx="-116.81319" cy="5.9392986" r="9.5398169"/>
      <circle cx="-104.49001" cy="42.848198" r="9.5398169"/>
      <circle cx="-80.298653" cy="66.271523" r="9.5398169"/>
      <circle cx="-67.125526" cy="-7.5993333" r="9.5398169"/>
      <circle cx="-34.417202" cy="41.427433" r="9.5398169"/>
      <circle cx="-36.660339" cy="-6.017097" r="9.5398169"/>
      <circle cx="-78.028206" cy="22.347801" r="9.5398169"/>
     </g>
     <g transform="matrix(.25887535 .05466162 -.05466162 .25887535 -127.83015 -59.206857)" fill="#ad712c">
      <circle cx="129.80299" cy="294.63199" r="7.7259998"/>
      <circle cx="181.312" cy="294.63199" r="7.7259998"/>
      <circle cx="155.55701" cy="248.274" r="7.7259998"/>
      <circle cx="62.841" cy="340.98999" r="7.7259998"/>
      <circle cx="165.85899" cy="454.31" r="7.7259998"/>
      <circle cx="196.765" cy="413.103" r="7.7259998"/>
      <circle cx="248.274" cy="351.29199" r="7.7259998"/>
      <circle cx="330.68799" cy="320.38599" r="7.7259998"/>
      <circle cx="310.08499" cy="340.98999" r="7.7259998"/>
      <circle cx="340.98999" cy="371.89499" r="7.7259998"/>
      <circle cx="340.98999" cy="433.70599" r="7.7259998"/>
      <circle cx="454.31" cy="217.368" r="7.7259998"/>
      <circle cx="423.40399" cy="423.40399" r="7.7259998"/>
      <circle cx="268.87701" cy="31.936001" r="7.7259998"/>
      <circle cx="83.445" cy="124.652" r="7.7259998"/>
      <circle cx="42.237" cy="186.463" r="7.7259998"/>
      <circle cx="160.70799" cy="201.91499" r="7.7259998"/>
      <circle cx="191.614" cy="186.463" r="7.7259998"/>
      <circle cx="160.70799" cy="171.00999" r="7.7259998"/>
      <circle cx="304.93399" cy="248.274" r="7.7259998"/>
      <circle cx="237.972" cy="93.746002" r="7.7259998"/>
      <circle cx="335.83899" cy="186.463" r="7.7259998"/>
      <circle cx="351.29199" cy="232.821" r="7.7259998"/>
      <circle cx="382.19699" cy="232.821" r="7.7259998"/>
      <circle cx="382.19699" cy="263.72601" r="7.7259998"/>
      <circle cx="325.53699" cy="78.293999" r="7.7259998"/>
      <circle cx="356.44299" cy="62.841" r="7.7259998"/>
     </g>
    </g>
   </g>
   <path d="m151.0595 69.655202h-38.26219c-0.8845 0-1.69334 0.293256-2.08889 0.757435l-2.73447 3.209049c-0.7911 0.92867-2.40903 1.515182-4.17803 1.515182h-36.267497c-1.769268 0-3.386931-0.586512-4.178035-1.515182l-2.734469-3.209049c-0.395552-0.464179-1.204383-0.757435-2.088885-0.757435h-38.262718c-1.289844 0-2.335742 0.61368-2.335742 1.370494v26.038144c0 0.756813 1.045898 1.370493 2.335742 1.370493h130.795444c1.28985 0 2.33574-0.61368 2.33574-1.370493v-26.038299c-2.6e-4 -0.756815-1.04616-1.370339-2.336-1.370339z" fill="#ebd2af" stroke-width=".20266961"/>
  </g>
  <rect transform="rotate(-15)" x="75.219963" y="102.30325" width="40.766659" height="20.11861" ry="5.2943716" fill="#fff"/>
  <g transform="rotate(-15)" fill="#424242" stroke-width=".26458332" style="font-feature-settings:normal;font-variant-caps:normal;font-variant-ligatures:normal;font-variant-numeric:normal" aria-label="Andrea">
   <path d="m81.198481 105.46961q0.792372 0.0603 1.145495 1.11966 0.353122 1.05936 0.637342 1.93786 0.284221 0.86989 0.766534 4.28053 0.08613 0 0.482313 4.61643 0.137804 0.18948 0.206706 1.17133 0 0.29284-0.585666 0.44787-0.542603 0-0.620117-1.37804v-0.96463q-0.198093-2.82498-0.378961-2.82498l-0.413411-0.0689q-2.652724 0.0861-2.652724 0.58567l-0.792372 4.09966q-0.18948 0.17226-0.344509 0.17226-0.516765-0.10336-0.516765-0.51677 1.309137-7.14857 1.963705-11.29991 0.103353-0.0689 0.310058-0.86128 0.422025-0.51676 0.792372-0.51676zm-0.964626 6.75239v0.41341q0 0.24115 1.10243 0.24115h0.551215q0.930176 0 0.930176-0.24115l0.03445-0.24116-0.0689-0.31006v-0.55121q-0.172254-0.31867-0.757921-2.96278-0.439249-1.41249-0.792372-1.41249h-0.03445q-0.06029 0-0.275607 0.99907-0.232544 0.74931-0.620118 3.72071-0.06029 0-0.0689 0.34451z" style="font-feature-settings:normal;font-variant-caps:normal;font-variant-ligatures:normal;font-variant-numeric:normal"/>
   <path d="m89.475323 105.96915q0.551216 0.17225 0.861274 0.93017 0.206706 0.24977 0.482313 1.8259-0.310058 5.04707-0.275607 7.55338l0.03445 1.68809q0 0.96463-0.654568 0.96463-0.551216 0-0.551216-0.79237 0.103353-5.46048 0.275608-7.82898l0.0689-2.06706-0.447863-1.10243q-0.146416-0.1378-0.275607-0.1378h-0.172255q-0.585666-0.0344-2.153185 3.89295-0.551215 1.41249-0.551215 1.72255v1.37804l0.103353 2.24793-0.0689 0.99907v0.0345l0.0689 0.65457q0 0.31867-0.654568 0.68902-0.585667-0.16364-0.585667-0.96463l-0.0689-1.10243q0.137803-3.22116 0.103352-9.20701 0-1.20579 0.310059-1.20579 0.232544-0.2067 0.482313-0.2067 0.34451 0 0.34451 0.41341l-0.0689 2.41157q0.04306 0.17225 0.103353 0.17225h0.206706q0.06029 0 0.930175-1.61919 0.852662-1.20579 1.205784-1.20579 0.396186-0.31006 0.947401-0.1378z" style="font-feature-settings:normal;font-variant-caps:normal;font-variant-ligatures:normal;font-variant-numeric:normal"/>
   <path d="m96.287999 106.22753q0.551216 0 0.551216 1.41249l0.03445 1.757-0.137804 3.41064q0 2.52354 0.275607 5.96002-0.02584 0.9474-0.310058 1.10243l-0.275608 0.0345q-0.654568 0-0.654568-1.10243-0.09474-0.73208-0.137804-1.96371l-0.103353-0.0689q-0.878499 1.48139-1.309136 1.48139-0.749308 0.41342-1.274685 0.41342-0.826823 0-1.44694-0.79238-0.103353-0.35312-0.103353-0.65456 0-0.89573 0.947401-2.66995 0.947401-1.77423 3.04891-1.77423 0.206705 0 0.275607-2.13596v-1.30913l-0.03445-2.61828q0.318672-0.48231 0.654568-0.48231zm-3.789605 10.40419v0.27561q0 0.58566 0.34451 0.58566h0.103353q1.309136 0 1.688097-1.79145 0.206705-0.4048 0.344509-1.06798 0.07751 0 0.137804-0.2756 0-0.24116-0.585666-0.34451-1.024916 0-1.722548 1.86035z" style="font-feature-settings:normal;font-variant-caps:normal;font-variant-ligatures:normal;font-variant-numeric:normal"/>
   <path d="m101.2231 107.75199q0.82682 0.28422 1.13688 0.89572l0.0345 0.17225q-0.12058 0.65457-0.55121 0.65457-0.25839 0-0.89573-0.58566h-0.27561q-0.783756 0-1.524451 0.80098-0.740696 0.80099-0.215319 4.87481 0.53399 4.07383-0.07751 3.75516l-0.620118 0.0172q-0.335896-0.16364-0.413411-4.10828-0.0689-3.95324-0.232544-6.11504 0-0.55122 0.72347-0.55122 0.447863 0 0.447863 0.41342l-0.03445 0.51676q0.0689 0.15503 0.137803 0.17226h0.137804q0.792372-0.91295 2.222093-0.91295z" style="font-feature-settings:normal;font-variant-caps:normal;font-variant-ligatures:normal;font-variant-numeric:normal"/>
   <path d="m105.10744 105.53851q0.75793 0 1.79145 0.82682 0.17226 0.31006 0.17226 0.62012 0 1.54168-0.99908 2.13596-1.14549 0.34451-1.8948 0.34451-0.17226 0.18087-0.17226 0.55122v0.58566q0 1.86897 0.48232 4.20302 0 1.25746 0.96462 2.44602 0.30145 0.24115 0.44787 0.24115h0.24115q0.34451-0.12919 0.86128-0.44786l0.2067-0.0345q0.24977 0 0.37896 0.41341 0 0.77515-1.20578 1.55029l-0.55122 0.10336q-0.49092 0-1.72254-1.34359-0.65457-1.02492-0.65457-2.48047-0.44786-2.18764-0.51677-5.58105 0-1.37804 0.96463-3.4451 0.8096-0.68902 1.20578-0.68902zm-0.79237 2.75608 0.17226 0.10335q1.0852 0 1.44694-0.58567 0.10335-0.18086 0.10335-0.34451v-0.1378q0-0.51676-0.65457-0.51676-0.91295 0-1.06798 1.44694z" style="font-feature-settings:normal;font-variant-caps:normal;font-variant-ligatures:normal;font-variant-numeric:normal"/>
   <path d="m110.83492 105.72799q0.71485 0.24977 1.24023 0.99908 0.48231 0.88711 0.80098 2.26515 0.32729 1.37804 0.37035 4.00492-0.0258 3.1092-0.19809 3.514 0 1.99816-0.58567 1.99816 0 0.0861-2.69578 0.10335-0.77515 0-1.27469-1.27469-0.1378-0.56844-0.1378-0.99907v-0.17226q0-1.19717 0.99907-2.48047 0.6029-0.68902 1.5503-0.68902l0.75792 0.0344h0.37896l0.0344-0.37896 0.0345-1.72254q0-1.44694-0.93017-3.5829-0.25839-0.31006-0.51677-0.31006h-0.1378q-0.10336 0-0.82683 0.48231h-0.0689q-0.55121-0.25838-0.55121-0.58567v-0.1378q0.90433-1.06798 1.757-1.06798zm-1.30914 10.26639v0.2756q0 0.76654 0.37896 1.06798h0.0689q1.76561-0.0775 1.80006-0.0861 0.31006-1.54168 0.0258-2.5666-0.27561-0.48231-0.89572-0.48231-0.62873 0-1.30914 1.20578z" style="font-feature-settings:normal;font-variant-caps:normal;font-variant-ligatures:normal;font-variant-numeric:normal"/>
  </g>
 </g>
</svg>
