<?xml version="1.0" encoding="UTF-8"?>
<!-- Created with Inkscape (http://www.inkscape.org/) -->
<svg width="562" height="562" version="1.1" viewBox="0 0 148.69583 148.69584" xmlns="http://www.w3.org/2000/svg" xmlns:cc="http://creativecommons.org/ns#" xmlns:dc="http://purl.org/dc/elements/1.1/" xmlns:rdf="http://www.w3.org/1999/02/22-rdf-syntax-ns#">
 <metadata>
  <rdf:RDF>
   <cc:Work rdf:about="">
    <dc:format>image/svg+xml</dc:format>
    <dc:type rdf:resource="http://purl.org/dc/dcmitype/StillImage"/>
    <dc:title/>
   </cc:Work>
  </rdf:RDF>
 </metadata>
 <g transform="translate(-100.87652,-256.28668)">
  <rect x="100.87652" y="256.28668" width="148.69583" height="148.69583" opacity="0" stroke-width="1.7687757"/>
  <g transform="translate(152.69831,154.84187)">
   <rect x="-45.207188" y="108.05939" width="135.46667" height="135.46667" ry="5.3322973" fill="#9c27b0"/>
   <rect x="-41.296833" y="111.96975" width="127.64598" height="127.64598" ry="5.0244555" fill="#fff"/>
  </g>
  <rect x="113.57655" y="268.98669" width="123.29582" height="123.29582" ry="0" opacity="0" stroke-width=".50122684"/>
  <g transform="matrix(.91015621 0 0 .91015619 -251.97566 25.332405)">
   <path d="m441.95119 294.71209c-0.54357-1.31403-0.16624-3.21142 0.83897-4.21706 1.00513-1.00376 1.00513-2.65034 0-3.65467-1.00521-1.00499-1.38254-2.90238-0.83897-4.21698 0.5448-1.31403-0.0844-2.83401-1.39777-3.37708-1.31215-0.54315-2.38644-2.15205-2.38644-3.57352 0-1.42212-1.16253-2.58507-2.58461-2.58507-1.42077 0-3.0284-1.07476-3.57066-2.38871-0.5448-1.31468-2.06412-1.94414-3.3775-1.40042-1.31469 0.54316-3.21134 0.16566-4.21524-0.83933-1.00455-1.00434-2.65049-1.00434-3.65701 0-1.00391 1.00499-2.90055 1.38249-4.21262 0.83933-1.31338-0.5438-2.8327 0.0857-3.37758 1.40042-0.5448 1.31395-2.15235 2.38871-3.5732 2.38871s-2.58469 1.16295-2.58469 2.58499c0 1.42146-1.07429 3.03037-2.38767 3.57352-1.31216 0.54307-1.94134 2.06304-1.39654 3.37707 0.5448 1.31461 0.16624 3.212-0.83898 4.21699-1.00521 1.00441-1.00521 2.65099 0 3.65467 1.00522 1.00564 1.38378 2.90303 0.83898 4.21706-0.5448 1.31395 0.0844 2.83384 1.39654 3.37896 1.31338 0.54503 2.38767 2.15337 2.38767 3.57483 0 1.42138 1.16384 2.58441 2.58469 2.58441s3.0284 1.07607 3.5732 2.3901c0.5448 1.31395 2.06411 1.94341 3.37758 1.39838 1.31215-0.54496 3.20871-0.16632 4.21262 0.83802 1.00521 1.00434 2.65115 1.00434 3.65578 0 1.00513-1.00442 2.90178-1.38306 4.21655-0.83802 1.31207 0.54503 2.83139-0.0844 3.37488-1.39838 0.5448-1.31403 2.15243-2.3901 3.5732-2.3901 1.42208 0 2.58461-1.16295 2.58461-2.58441s1.07429-3.0298 2.38644-3.57483c1.31338-0.54504 1.94257-2.06501 1.39777-3.37888z" fill="#f6bb42" stroke-width=".08186862"/>
   <g transform="matrix(.0818509 0 0 .08188634 401.63676 267.70532)" fill="#ffce54">
    <path d="m311.618 255.81 182.042-36.21c-2.703-6.546-4.156-13.843-4.156-20.921l-182.042 36.21 155.371-102.31c-5.141-4.828-9.453-10.898-12.375-17.39l-155.199 102.184 105.263-154.3c-6.625-2.398-12.984-6.281-18.25-11.102l-105.075 154.035 37.812-183.542c-7.047 0.227-14.391-1.016-21.047-3.531l-37.788 183.315-36.577-183.924c-6.547 2.711-13.843 4.164-20.921 4.164l36.577 183.925-105.029-154.887c-5.203 4.867-11.515 8.828-18.109 11.312l105.169 155.082-156.027-102.099c-3.031 6.476-7.422 12.492-12.625 17.234l156.309 102.286-182.464-35.014c-0.219 7.117-1.891 14.375-4.797 20.804l182.698 35.054-182.042 36.202c2.719 6.546 4.172 13.843 4.172 20.921l182.026-36.202-155.386 102.309c5.141 4.828 9.453 10.906 12.391 17.391l155.199-102.201-105.278 154.34c6.625 2.391 12.984 6.266 18.25 11.094l105.091-154.059-37.813 183.557c7.047-0.234 14.39 1 21.046 3.516l37.78-183.308 36.585 183.917c6.547-2.703 13.844-4.156 20.922-4.156l-36.577-183.933 105.044 154.918c5.203-4.875 11.5-8.828 18.109-11.312l-105.185-155.106 156.043 102.107c3.031-6.469 7.422-12.484 12.625-17.234l-156.34-102.294 182.479 35.015c0.234-7.109 1.891-14.375 4.797-20.796z"/>
    <path d="m447.989 255.997c0 106.027-85.951 191.994-192.003 191.994-106.028 0-191.994-85.967-191.994-191.994 0-106.036 85.966-191.995 191.995-191.995 106.051 0 192.002 85.959 192.002 191.995z"/>
   </g>
   <path d="m423.91633 279.54306c-4.66354-1.6659-9.70482-1.51302-13.32157-1.03062-2.31981 2.73991-3.7202 6.28395-3.7202 10.15554 0 2.96699 0.82227 5.74212 2.25082 8.11035 2.95293-0.49385 7.30241-0.66917 12.01645 1.01457 4.7223 1.68637 9.83397 1.50851 13.45972 1.01204 2.31081-2.73804 3.70359-6.27438 3.70359-10.13696 0-2.97534-0.8262-5.75751-2.26105-8.12959-2.95433 0.50859-7.35487 0.70946-12.12776-0.99533z" fill="#29b6f6" stroke-width=".08186862"/>
   <g transform="matrix(.99291526 .11703975 -.11698907 .99334522 0 0)" fill="#ffce54" stroke-width=".08186862" aria-label="SODA">
    <path d="m442.50609 237.75768q0.11513 0.41787 0.34112 0.66092 0.23026 0.24305 0.71635 0.24305 0.33259 0 0.55432-0.17909 0.22599-0.17909 0.22599-0.54579 0-0.37097-0.47756-0.61402-0.47757-0.24731-0.78458-0.4136-0.5799-0.30275-1.02762-0.73767-0.4264-0.40935-0.4264-1.09159v-0.0768q0.0256-0.75472 0.60549-1.27919 0.56284-0.50742 1.31331-0.50742h0.0512q0.62681 0.0128 1.05321 0.23878 0.43066 0.22173 0.76325 0.76326l-0.90396 0.80163q-0.15351-0.24305-0.36671-0.43493-0.20467-0.18335-0.50315-0.18335h-0.0256q-0.24731 0.0128-0.43919 0.17056-0.18762 0.15777-0.18762 0.43066 0 0.26011 0.32407 0.4861 0.32406 0.22173 0.60548 0.37096 0.69077 0.37097 1.24935 0.81443 0.54579 0.43492 0.54579 1.29625v0.0256q-9e-3 0.84854-0.60548 1.36448-0.5927 0.51594-1.47961 0.57138-0.064 4e-3 -0.13218 4e-3 -0.58843 0-1.11717-0.31127-0.59269-0.34538-0.86132-1.01057z" style="font-feature-settings:normal;font-variant-caps:normal;font-variant-ligatures:normal;font-variant-numeric:normal"/>
    <path d="m453.31104 236.56376q0 0.67371-0.25584 1.29199-0.12365 0.28995-0.31553 0.57138-0.58417 0.84853-1.54357 1.23655-0.63107 0.25584-1.28772 0.25584-0.33686 0-0.68224-0.0682-0.68224-0.13218-1.22803-0.49889-0.25584-0.16203-0.51594-0.4136-0.49036-0.47331-0.74194-1.07879-0.2601-0.61402-0.2601-1.2792 0-0.17056 0.0171-0.34112 0.081-0.84853 0.55432-1.5393 0.37949-0.55432 0.95087-0.92955v-4e-3q0.84427-0.55006 1.89747-0.55006 1.03189 0 1.88895 0.55006 0.56711 0.37523 0.95087 0.93807 0.57137 0.84427 0.57137 1.8591zm-1.38153 0q0-0.43066-0.1535-0.80163-0.33259-0.80163-1.09585-1.12995-0.39655-0.1663-0.78884-0.1663-0.38802 0-0.77604 0.16203-0.064 0.0298-0.18335 0.0938-0.11513 0.064-0.1663 0.10233-0.14924 0.0981-0.30701 0.25584v4e-3q-0.14071 0.14071-0.25584 0.31127-0.1066 0.16203-0.18761 0.36244-0.15351 0.38376-0.15351 0.80163 0 0.10233 9e-3 0.20467 0.0469 0.52874 0.33259 0.96366 0.34965 0.533 0.9125 0.77178 0.40934 0.17483 0.80163 0.17483 0.57137 0 1.10437-0.37097 0.90823-0.61828 0.90823-1.73971z" style="font-feature-settings:normal;font-variant-caps:normal;font-variant-ligatures:normal;font-variant-numeric:normal"/>
    <path d="m454.08709 233.35298h1.50092q0.61828 0 1.11291 0.0341 0.37949 0.0256 0.67371 0.0853 0.29848 0.0597 0.60548 0.20467 0.63534 0.29848 1.01483 0.85706 0.38376 0.55432 0.51595 1.2323 0.0682 0.37096 0.0682 0.77604 0 0.19188-0.0128 0.38803-0.0512 0.61827-0.2729 1.12995-0.15777 0.34539-0.35817 0.60123-0.39229 0.50315-0.94661 0.77604-0.23452 0.11087-0.51168 0.18335-0.0341 0.0213-0.29848 0.064-0.26436 0.0384-0.38376 0.0384-0.43066 0.0341-0.94234 0.0341h-1.76529zm1.33463 5.16369h0.62681q0.34538 0 0.60548-0.0256 0.23026-0.0171 0.39655-0.0597 0.31127-0.0853 0.52447-0.26863v-4e-3q0.35392-0.30275 0.49036-0.72488 0.13645-0.42214 0.13645-0.88265t-0.13645-0.87838q-0.13644-0.42214-0.49036-0.72914-0.20893-0.17483-0.45198-0.24305-0.23878-0.0682-0.52021-0.0895-0.25583-0.0213-0.5799-0.0213-0.3198-4e-3 -0.60122-4e-3z" style="font-feature-settings:normal;font-variant-caps:normal;font-variant-ligatures:normal;font-variant-numeric:normal"/>
    <path d="m464.22686 239.65089-0.64386-1.45402h-2.16611l-0.70356 1.56062h-1.42417l3.20652-6.88634 3.20652 6.88634h-1.42844zm-2.28976-2.62235h1.14275l-0.57138-1.30052z" style="font-feature-settings:normal;font-variant-caps:normal;font-variant-ligatures:normal;font-variant-numeric:normal"/>
   </g>
  </g>
  <g transform="matrix(.91015621 0 0 .91015619 -251.97566 25.332405)">
   <path d="m488.73091 294.71209c-0.54357-1.31403-0.16624-3.21142 0.83897-4.21706 1.00513-1.00376 1.00513-2.65034 0-3.65467-1.00521-1.00499-1.38254-2.90238-0.83897-4.21698 0.5448-1.31403-0.0844-2.83401-1.39777-3.37708-1.31215-0.54315-2.38644-2.15205-2.38644-3.57352 0-1.42212-1.16253-2.58507-2.58461-2.58507-1.42077 0-3.0284-1.07476-3.57066-2.38871-0.5448-1.31468-2.06412-1.94414-3.3775-1.40042-1.31469 0.54316-3.21134 0.16566-4.21524-0.83933-1.00455-1.00434-2.65049-1.00434-3.65701 0-1.00391 1.00499-2.90055 1.38249-4.21262 0.83933-1.31338-0.5438-2.8327 0.0857-3.37758 1.40042-0.5448 1.31395-2.15235 2.38871-3.5732 2.38871s-2.58469 1.16295-2.58469 2.58499c0 1.42146-1.07429 3.03037-2.38767 3.57352-1.31216 0.54307-1.94134 2.06304-1.39654 3.37707 0.5448 1.31461 0.16624 3.212-0.83898 4.21699-1.00521 1.00441-1.00521 2.65099 0 3.65467 1.00522 1.00564 1.38378 2.90303 0.83898 4.21706-0.5448 1.31395 0.0844 2.83384 1.39654 3.37896 1.31338 0.54503 2.38767 2.15337 2.38767 3.57483 0 1.42138 1.16384 2.58441 2.58469 2.58441s3.0284 1.07607 3.5732 2.3901c0.5448 1.31395 2.06411 1.94341 3.37758 1.39838 1.31215-0.54496 3.20871-0.16632 4.21262 0.83802 1.00521 1.00434 2.65115 1.00434 3.65578 0 1.00513-1.00442 2.90178-1.38306 4.21655-0.83802 1.31207 0.54503 2.83139-0.0844 3.37488-1.39838 0.5448-1.31403 2.15243-2.3901 3.5732-2.3901 1.42208 0 2.58461-1.16295 2.58461-2.58441s1.07429-3.0298 2.38644-3.57483c1.31338-0.54504 1.94257-2.06501 1.39777-3.37888z" fill="#f6bb42" stroke-width=".08186862"/>
   <g transform="matrix(.0818509 0 0 .08188634 448.41648 267.70532)" fill="#ffce54">
    <path d="m311.618 255.81 182.042-36.21c-2.703-6.546-4.156-13.843-4.156-20.921l-182.042 36.21 155.371-102.31c-5.141-4.828-9.453-10.898-12.375-17.39l-155.199 102.184 105.263-154.3c-6.625-2.398-12.984-6.281-18.25-11.102l-105.075 154.035 37.812-183.542c-7.047 0.227-14.391-1.016-21.047-3.531l-37.788 183.315-36.577-183.924c-6.547 2.711-13.843 4.164-20.921 4.164l36.577 183.925-105.029-154.887c-5.203 4.867-11.515 8.828-18.109 11.312l105.169 155.082-156.027-102.099c-3.031 6.476-7.422 12.492-12.625 17.234l156.309 102.286-182.464-35.014c-0.219 7.117-1.891 14.375-4.797 20.804l182.698 35.054-182.042 36.202c2.719 6.546 4.172 13.843 4.172 20.921l182.026-36.202-155.386 102.309c5.141 4.828 9.453 10.906 12.391 17.391l155.199-102.201-105.278 154.34c6.625 2.391 12.984 6.266 18.25 11.094l105.091-154.059-37.813 183.557c7.047-0.234 14.39 1 21.046 3.516l37.78-183.308 36.585 183.917c6.547-2.703 13.844-4.156 20.922-4.156l-36.577-183.933 105.044 154.918c5.203-4.875 11.5-8.828 18.109-11.312l-105.185-155.106 156.043 102.107c3.031-6.469 7.422-12.484 12.625-17.234l-156.34-102.294 182.479 35.015c0.234-7.109 1.891-14.375 4.797-20.796z"/>
    <path d="m447.989 255.997c0 106.027-85.951 191.994-192.003 191.994-106.028 0-191.994-85.967-191.994-191.994 0-106.036 85.966-191.995 191.995-191.995 106.051 0 192.002 85.959 192.002 191.995z"/>
   </g>
   <path d="m470.69605 279.54306c-4.66354-1.6659-9.70482-1.51302-13.32157-1.03062-2.31981 2.73991-3.7202 6.28395-3.7202 10.15554 0 2.96699 0.82227 5.74212 2.25082 8.11035 2.95293-0.49385 7.30241-0.66917 12.01645 1.01457 4.7223 1.68637 9.83397 1.50851 13.45972 1.01204 2.31081-2.73804 3.70359-6.27438 3.70359-10.13696 0-2.97534-0.8262-5.75751-2.26105-8.12959-2.95433 0.50859-7.35487 0.70946-12.12776-0.99533z" fill="#29b6f6" stroke-width=".08186862"/>
   <g transform="matrix(.99291526 .11703975 -.11698907 .99334522 0 0)" fill="#ffce54" stroke-width=".08186862" aria-label="SODA">
    <path d="m488.97451 232.2826q0.11512 0.41787 0.34112 0.66092 0.23025 0.24304 0.71635 0.24304 0.33259 0 0.55431-0.17908 0.226-0.17909 0.226-0.54579 0-0.37097-0.47757-0.61402-0.47757-0.24731-0.78457-0.41361-0.57991-0.30274-1.02763-0.73767-0.4264-0.40934-0.4264-1.09158v-0.0767q0.0256-0.75473 0.60549-1.2792 0.56285-0.50741 1.31331-0.50741h0.0512q0.6268 0.0128 1.0532 0.23878 0.43067 0.22173 0.76326 0.76326l-0.90397 0.80163q-0.1535-0.24305-0.3667-0.43493-0.20467-0.18335-0.50315-0.18335h-0.0256q-0.24731 0.0128-0.43919 0.17056-0.18761 0.15776-0.18761 0.43066 0 0.2601 0.32406 0.4861 0.32406 0.22172 0.60549 0.37096 0.69076 0.37097 1.24935 0.81442 0.54579 0.43493 0.54579 1.29626v0.0256q-9e-3 0.84854-0.60549 1.36448-0.59269 0.51594-1.4796 0.57137-0.064 4e-3 -0.13219 4e-3 -0.58843 0-1.11716-0.31127-0.5927-0.34539-0.86133-1.01057z" style="font-feature-settings:normal;font-variant-caps:normal;font-variant-ligatures:normal;font-variant-numeric:normal"/>
    <path d="m499.77946 231.08868q0 0.67371-0.25584 1.29199-0.12366 0.28995-0.31554 0.57137-0.58416 0.84854-1.54356 1.23656-0.63107 0.25584-1.28773 0.25584-0.33685 0-0.68223-0.0682-0.68224-0.13219-1.22803-0.49889-0.25584-0.16203-0.51595-0.41361-0.49036-0.4733-0.74193-1.07879-0.2601-0.61401-0.2601-1.27919 0-0.17056 0.017-0.34112 0.081-0.84854 0.55432-1.5393 0.3795-0.55432 0.95087-0.92955v-4e-3q0.84427-0.55005 1.89748-0.55005 1.03188 0 1.88894 0.55005 0.56711 0.37523 0.95087 0.93808 0.57138 0.84427 0.57138 1.8591zm-1.38153 0q0-0.43066-0.15351-0.80163-0.33259-0.80163-1.09584-1.12996-0.39655-0.16629-0.78884-0.16629-0.38803 0-0.77605 0.16203-0.064 0.0299-0.18335 0.0938-0.11513 0.064-0.1663 0.10233-0.14924 0.0981-0.307 0.25584v4e-3q-0.14071 0.14071-0.25584 0.31127-0.1066 0.16203-0.18762 0.36244-0.1535 0.38376-0.1535 0.80163 0 0.10233 9e-3 0.20467 0.0469 0.52873 0.33259 0.96366 0.34964 0.533 0.91249 0.77178 0.40934 0.17483 0.80163 0.17483 0.57138 0 1.10438-0.37097 0.90823-0.61828 0.90823-1.73971z" style="font-feature-settings:normal;font-variant-caps:normal;font-variant-ligatures:normal;font-variant-numeric:normal"/>
    <path d="m500.5555 227.8779h1.50093q0.61828 0 1.1129 0.0341 0.3795 0.0256 0.67371 0.0853 0.29848 0.0597 0.60549 0.20467 0.63533 0.29848 1.01483 0.85706 0.38376 0.55432 0.51594 1.23229 0.0682 0.37097 0.0682 0.77605 0 0.19188-0.0128 0.38802-0.0512 0.61828-0.27289 1.12996-0.15777 0.34538-0.35818 0.60122-0.39229 0.50315-0.9466 0.77605-0.23452 0.11086-0.51168 0.18335-0.0341 0.0213-0.29848 0.064-0.26437 0.0384-0.38376 0.0384-0.43066 0.0341-0.94234 0.0341h-1.7653zm1.33463 5.16369h0.62681q0.34538 0 0.60549-0.0256 0.23025-0.017 0.39655-0.0597 0.31127-0.0853 0.52447-0.26863v-4e-3q0.35391-0.30274 0.49036-0.72488 0.13645-0.42213 0.13645-0.88264t-0.13645-0.87838q-0.13645-0.42214-0.49036-0.72915-0.20894-0.17482-0.45198-0.24304-0.23879-0.0682-0.52021-0.0896-0.25584-0.0213-0.5799-0.0213-0.3198-4e-3 -0.60123-4e-3z" style="font-feature-settings:normal;font-variant-caps:normal;font-variant-ligatures:normal;font-variant-numeric:normal"/>
    <path d="m510.69527 234.17581-0.64386-1.45402h-2.16611l-0.70355 1.56062h-1.42418l3.20652-6.88635 3.20652 6.88635h-1.42843zm-2.28976-2.62235h1.14275l-0.57137-1.30052z" style="font-feature-settings:normal;font-variant-caps:normal;font-variant-ligatures:normal;font-variant-numeric:normal"/>
   </g>
  </g>
  <g transform="matrix(.91015621 0 0 .91015619 -251.97566 25.332405)">
   <path d="m535.51063 294.71209c-0.54357-1.31403-0.16624-3.21142 0.83897-4.21706 1.00513-1.00376 1.00513-2.65034 0-3.65467-1.00521-1.00499-1.38254-2.90238-0.83897-4.21698 0.5448-1.31403-0.0844-2.83401-1.39777-3.37708-1.31215-0.54315-2.38644-2.15205-2.38644-3.57352 0-1.42212-1.16253-2.58507-2.58461-2.58507-1.42077 0-3.0284-1.07476-3.57066-2.38871-0.5448-1.31468-2.06412-1.94414-3.3775-1.40042-1.31469 0.54316-3.21134 0.16566-4.21524-0.83933-1.00455-1.00434-2.65049-1.00434-3.65701 0-1.00391 1.00499-2.90055 1.38249-4.21262 0.83933-1.31338-0.5438-2.8327 0.0857-3.37758 1.40042-0.5448 1.31395-2.15235 2.38871-3.5732 2.38871s-2.58469 1.16295-2.58469 2.58499c0 1.42146-1.07429 3.03037-2.38767 3.57352-1.31216 0.54307-1.94134 2.06304-1.39654 3.37707 0.5448 1.31461 0.16624 3.212-0.83898 4.21699-1.00521 1.00441-1.00521 2.65099 0 3.65467 1.00522 1.00564 1.38378 2.90303 0.83898 4.21706-0.5448 1.31395 0.0844 2.83384 1.39654 3.37896 1.31338 0.54503 2.38767 2.15337 2.38767 3.57483 0 1.42138 1.16384 2.58441 2.58469 2.58441s3.0284 1.07607 3.5732 2.3901c0.5448 1.31395 2.06411 1.94341 3.37758 1.39838 1.31215-0.54496 3.20871-0.16632 4.21262 0.83802 1.00521 1.00434 2.65115 1.00434 3.65578 0 1.00513-1.00442 2.90178-1.38306 4.21655-0.83802 1.31207 0.54503 2.83139-0.0844 3.37488-1.39838 0.5448-1.31403 2.15243-2.3901 3.5732-2.3901 1.42208 0 2.58461-1.16295 2.58461-2.58441s1.07429-3.0298 2.38644-3.57483c1.31338-0.54504 1.94257-2.06501 1.39777-3.37888z" fill="#f6bb42" stroke-width=".08186862"/>
   <g transform="matrix(.0818509 0 0 .08188634 495.1962 267.70532)" fill="#ffce54">
    <path d="m311.618 255.81 182.042-36.21c-2.703-6.546-4.156-13.843-4.156-20.921l-182.042 36.21 155.371-102.31c-5.141-4.828-9.453-10.898-12.375-17.39l-155.199 102.184 105.263-154.3c-6.625-2.398-12.984-6.281-18.25-11.102l-105.075 154.035 37.812-183.542c-7.047 0.227-14.391-1.016-21.047-3.531l-37.788 183.315-36.577-183.924c-6.547 2.711-13.843 4.164-20.921 4.164l36.577 183.925-105.029-154.887c-5.203 4.867-11.515 8.828-18.109 11.312l105.169 155.082-156.027-102.099c-3.031 6.476-7.422 12.492-12.625 17.234l156.309 102.286-182.464-35.014c-0.219 7.117-1.891 14.375-4.797 20.804l182.698 35.054-182.042 36.202c2.719 6.546 4.172 13.843 4.172 20.921l182.026-36.202-155.386 102.309c5.141 4.828 9.453 10.906 12.391 17.391l155.199-102.201-105.278 154.34c6.625 2.391 12.984 6.266 18.25 11.094l105.091-154.059-37.813 183.557c7.047-0.234 14.39 1 21.046 3.516l37.78-183.308 36.585 183.917c6.547-2.703 13.844-4.156 20.922-4.156l-36.577-183.933 105.044 154.918c5.203-4.875 11.5-8.828 18.109-11.312l-105.185-155.106 156.043 102.107c3.031-6.469 7.422-12.484 12.625-17.234l-156.34-102.294 182.479 35.015c0.234-7.109 1.891-14.375 4.797-20.796z"/>
    <path d="m447.989 255.997c0 106.027-85.951 191.994-192.003 191.994-106.028 0-191.994-85.967-191.994-191.994 0-106.036 85.966-191.995 191.995-191.995 106.051 0 192.002 85.959 192.002 191.995z"/>
   </g>
   <path d="m517.47577 279.54306c-4.66354-1.6659-9.70482-1.51302-13.32157-1.03062-2.31981 2.73991-3.7202 6.28395-3.7202 10.15554 0 2.96699 0.82227 5.74212 2.25082 8.11035 2.95293-0.49385 7.30241-0.66917 12.01645 1.01457 4.7223 1.68637 9.83397 1.50851 13.45972 1.01204 2.31081-2.73804 3.70359-6.27438 3.70359-10.13696 0-2.97534-0.8262-5.75751-2.26105-8.12959-2.95433 0.50859-7.35487 0.70946-12.12776-0.99533z" fill="#29b6f6" stroke-width=".08186862"/>
   <g transform="matrix(.99291526 .11703975 -.11698907 .99334522 0 0)" fill="#ffce54" stroke-width=".08186862" aria-label="SODA">
    <path d="m535.44289 226.80752q0.11513 0.41787 0.34112 0.66091 0.23025 0.24305 0.71635 0.24305 0.33259 0 0.55432-0.17909 0.22599-0.17908 0.22599-0.54579 0-0.37096-0.47757-0.61401-0.47756-0.24731-0.78457-0.41361-0.5799-0.30274-1.02762-0.73767-0.4264-0.40934-0.4264-1.09158v-0.0768q0.0256-0.75473 0.60548-1.2792 0.56285-0.50741 1.31331-0.50741h0.0512q0.62681 0.0128 1.05321 0.23878 0.43066 0.22173 0.76325 0.76325l-0.90396 0.80163q-0.15351-0.24304-0.36671-0.43492-0.20467-0.18335-0.50315-0.18335h-0.0256q-0.24731 0.0128-0.43919 0.17055-0.18762 0.15777-0.18762 0.43067 0 0.2601 0.32406 0.48609 0.32407 0.22173 0.60549 0.37097 0.69077 0.37097 1.24935 0.81442 0.54579 0.43493 0.54579 1.29626v0.0256q-9e-3 0.84853-0.60549 1.36448-0.59269 0.51594-1.4796 0.57137-0.064 4e-3 -0.13218 4e-3 -0.58843 0-1.11717-0.31127-0.59269-0.34538-0.86133-1.01056z" style="font-feature-settings:normal;font-variant-caps:normal;font-variant-ligatures:normal;font-variant-numeric:normal"/>
    <path d="m546.24784 225.6136q0 0.67371-0.25584 1.29199-0.12365 0.28995-0.31553 0.57137-0.58417 0.84854-1.54357 1.23656-0.63107 0.25584-1.28772 0.25584-0.33686 0-0.68224-0.0682-0.68224-0.13219-1.22803-0.49889-0.25584-0.16203-0.51594-0.41361-0.49036-0.4733-0.74194-1.07879-0.2601-0.61401-0.2601-1.2792 0-0.17056 0.0171-0.34111 0.081-0.84854 0.55431-1.53931 0.3795-0.55431 0.95087-0.92955v-4e-3q0.84427-0.55005 1.89748-0.55005 1.03189 0 1.88895 0.55005 0.56711 0.37523 0.95087 0.93808 0.57137 0.84427 0.57137 1.8591zm-1.38153 0q0-0.43066-0.1535-0.80163-0.3326-0.80163-1.09585-1.12996-0.39655-0.1663-0.78884-0.1663-0.38802 0-0.77604 0.16204-0.064 0.0298-0.18336 0.0938-0.11512 0.064-0.16629 0.10234-0.14924 0.0981-0.30701 0.25584v4e-3q-0.14071 0.14072-0.25584 0.31127-0.1066 0.16204-0.18761 0.36244-0.15351 0.38376-0.15351 0.80163 0 0.10234 9e-3 0.20468 0.0469 0.52873 0.33259 0.96366 0.34965 0.533 0.9125 0.77178 0.40934 0.17482 0.80163 0.17482 0.57137 0 1.10437-0.37096 0.90823-0.61828 0.90823-1.73971z" style="font-feature-settings:normal;font-variant-caps:normal;font-variant-ligatures:normal;font-variant-numeric:normal"/>
    <path d="m547.02389 222.40281h1.50092q0.61828 0 1.1129 0.0341 0.3795 0.0256 0.67371 0.0853 0.29848 0.0597 0.60549 0.20467 0.63534 0.29848 1.01483 0.85706 0.38376 0.55432 0.51594 1.23229 0.0682 0.37097 0.0682 0.77605 0 0.19188-0.0128 0.38802-0.0512 0.61828-0.2729 1.12996-0.15777 0.34538-0.35817 0.60122-0.39229 0.50315-0.94661 0.77605-0.23452 0.11086-0.51168 0.18335-0.0341 0.0213-0.29848 0.064-0.26437 0.0384-0.38376 0.0384-0.43066 0.0341-0.94234 0.0341h-1.76529zm1.33463 5.1637h0.6268q0.34539 0 0.60549-0.0256 0.23026-0.0171 0.39655-0.0597 0.31127-0.0853 0.52447-0.26864v-4e-3q0.35391-0.30274 0.49036-0.72488 0.13645-0.42213 0.13645-0.88264t-0.13645-0.87839q-0.13645-0.42213-0.49036-0.72914-0.20893-0.17482-0.45198-0.24305-0.23878-0.0682-0.52021-0.0895-0.25584-0.0213-0.5799-0.0213-0.3198-4e-3 -0.60122-4e-3z" style="font-feature-settings:normal;font-variant-caps:normal;font-variant-ligatures:normal;font-variant-numeric:normal"/>
    <path d="m557.16366 228.70073-0.64386-1.45402h-2.16611l-0.70356 1.56062h-1.42417l3.20652-6.88635 3.20652 6.88635h-1.42844zm-2.28977-2.62236h1.14275l-0.57137-1.30051z" style="font-feature-settings:normal;font-variant-caps:normal;font-variant-ligatures:normal;font-variant-numeric:normal"/>
   </g>
  </g>
  <g transform="matrix(.91015621 0 0 .91015619 -251.97566 25.332405)">
   <path d="m441.95119 341.48344c-0.54357-1.31403-0.16624-3.21142 0.83897-4.21706 1.00513-1.00376 1.00513-2.65034 0-3.65467-1.00521-1.00499-1.38254-2.90238-0.83897-4.21698 0.5448-1.31403-0.0844-2.83401-1.39777-3.37708-1.31215-0.54315-2.38644-2.15205-2.38644-3.57352 0-1.42212-1.16253-2.58507-2.58461-2.58507-1.42077 0-3.0284-1.07476-3.57066-2.38871-0.5448-1.31468-2.06412-1.94414-3.3775-1.40042-1.31469 0.54316-3.21134 0.16566-4.21524-0.83933-1.00455-1.00434-2.65049-1.00434-3.65701 0-1.00391 1.00499-2.90055 1.38249-4.21262 0.83933-1.31338-0.5438-2.8327 0.0857-3.37758 1.40042-0.5448 1.31395-2.15235 2.38871-3.5732 2.38871s-2.58469 1.16295-2.58469 2.58499c0 1.42146-1.07429 3.03037-2.38767 3.57352-1.31216 0.54307-1.94134 2.06304-1.39654 3.37707 0.5448 1.31461 0.16624 3.212-0.83898 4.21699-1.00521 1.00441-1.00521 2.65099 0 3.65467 1.00522 1.00564 1.38378 2.90303 0.83898 4.21706-0.5448 1.31395 0.0844 2.83384 1.39654 3.37896 1.31338 0.54503 2.38767 2.15337 2.38767 3.57483 0 1.42138 1.16384 2.58441 2.58469 2.58441s3.0284 1.07607 3.5732 2.3901c0.5448 1.31395 2.06411 1.94341 3.37758 1.39838 1.31215-0.54496 3.20871-0.16632 4.21262 0.83802 1.00521 1.00434 2.65115 1.00434 3.65578 0 1.00513-1.00442 2.90178-1.38306 4.21655-0.83802 1.31207 0.54503 2.83139-0.0844 3.37488-1.39838 0.5448-1.31403 2.15243-2.3901 3.5732-2.3901 1.42208 0 2.58461-1.16295 2.58461-2.58441s1.07429-3.0298 2.38644-3.57483c1.31338-0.54504 1.94257-2.06501 1.39777-3.37888z" fill="#f6bb42" stroke-width=".08186862"/>
   <g transform="matrix(.0818509 0 0 .08188634 401.63676 314.47667)" fill="#ffce54">
    <path d="m311.618 255.81 182.042-36.21c-2.703-6.546-4.156-13.843-4.156-20.921l-182.042 36.21 155.371-102.31c-5.141-4.828-9.453-10.898-12.375-17.39l-155.199 102.184 105.263-154.3c-6.625-2.398-12.984-6.281-18.25-11.102l-105.075 154.035 37.812-183.542c-7.047 0.227-14.391-1.016-21.047-3.531l-37.788 183.315-36.577-183.924c-6.547 2.711-13.843 4.164-20.921 4.164l36.577 183.925-105.029-154.887c-5.203 4.867-11.515 8.828-18.109 11.312l105.169 155.082-156.027-102.099c-3.031 6.476-7.422 12.492-12.625 17.234l156.309 102.286-182.464-35.014c-0.219 7.117-1.891 14.375-4.797 20.804l182.698 35.054-182.042 36.202c2.719 6.546 4.172 13.843 4.172 20.921l182.026-36.202-155.386 102.309c5.141 4.828 9.453 10.906 12.391 17.391l155.199-102.201-105.278 154.34c6.625 2.391 12.984 6.266 18.25 11.094l105.091-154.059-37.813 183.557c7.047-0.234 14.39 1 21.046 3.516l37.78-183.308 36.585 183.917c6.547-2.703 13.844-4.156 20.922-4.156l-36.577-183.933 105.044 154.918c5.203-4.875 11.5-8.828 18.109-11.312l-105.185-155.106 156.043 102.107c3.031-6.469 7.422-12.484 12.625-17.234l-156.34-102.294 182.479 35.015c0.234-7.109 1.891-14.375 4.797-20.796z"/>
    <path d="m447.989 255.997c0 106.027-85.951 191.994-192.003 191.994-106.028 0-191.994-85.967-191.994-191.994 0-106.036 85.966-191.995 191.995-191.995 106.051 0 192.002 85.959 192.002 191.995z"/>
   </g>
   <path d="m423.91633 326.31441c-4.66354-1.6659-9.70482-1.51302-13.32157-1.03062-2.31981 2.73991-3.7202 6.28395-3.7202 10.15554 0 2.96699 0.82227 5.74212 2.25082 8.11035 2.95293-0.49385 7.30241-0.66917 12.01645 1.01457 4.7223 1.68637 9.83397 1.50851 13.45972 1.01204 2.31081-2.73804 3.70359-6.27438 3.70359-10.13696 0-2.97534-0.8262-5.75751-2.26105-8.12959-2.95433 0.50859-7.35487 0.70946-12.12776-0.99533z" fill="#29b6f6" stroke-width=".08186862"/>
   <g transform="matrix(.99291526 .11703975 -.11698907 .99334522 0 0)" fill="#ffce54" stroke-width=".08186862" aria-label="SODA">
    <path d="m447.97783 284.19767q0.11513 0.41787 0.34112 0.66092 0.23026 0.24304 0.71635 0.24304 0.33259 0 0.55432-0.17908 0.22599-0.17909 0.22599-0.54579 0-0.37097-0.47756-0.61402-0.47757-0.24731-0.78458-0.41361-0.5799-0.30274-1.02762-0.73767-0.4264-0.40934-0.4264-1.09158v-0.0768q0.0256-0.75473 0.60549-1.2792 0.56284-0.50741 1.31331-0.50741h0.0512q0.62681 0.0128 1.05321 0.23878 0.43066 0.22173 0.76325 0.76326l-0.90396 0.80163q-0.15351-0.24305-0.3667-0.43493-0.20468-0.18335-0.50316-0.18335h-0.0256q-0.24731 0.0128-0.43919 0.17056-0.18762 0.15776-0.18762 0.43066 0 0.2601 0.32407 0.48609 0.32406 0.22173 0.60548 0.37097 0.69077 0.37097 1.24935 0.81442 0.54579 0.43493 0.54579 1.29626v0.0256q-9e-3 0.84854-0.60548 1.36448-0.5927 0.51594-1.47961 0.57137-0.064 4e-3 -0.13218 4e-3 -0.58843 0-1.11717-0.31127-0.59269-0.34539-0.86132-1.01057z" style="font-feature-settings:normal;font-variant-caps:normal;font-variant-ligatures:normal;font-variant-numeric:normal"/>
    <path d="m458.78278 283.00375q0 0.67371-0.25583 1.29199-0.12366 0.28995-0.31554 0.57137-0.58417 0.84854-1.54356 1.23656-0.63108 0.25584-1.28773 0.25584-0.33685 0-0.68224-0.0682-0.68224-0.13219-1.22803-0.49889-0.25584-0.16203-0.51594-0.41361-0.49036-0.4733-0.74193-1.07879-0.26011-0.61401-0.26011-1.27919 0-0.17056 0.0171-0.34112 0.081-0.84854 0.55432-1.5393 0.37949-0.55432 0.95087-0.92955v-4e-3q0.84427-0.55005 1.89747-0.55005 1.03189 0 1.88895 0.55005 0.56711 0.37523 0.95087 0.93808 0.57137 0.84427 0.57137 1.8591zm-1.38153 0q0-0.43066-0.1535-0.80163-0.33259-0.80163-1.09585-1.12996-0.39655-0.16629-0.78884-0.16629-0.38802 0-0.77604 0.16203-0.064 0.0299-0.18335 0.0938-0.11513 0.064-0.1663 0.10233-0.14924 0.0981-0.30701 0.25584v4e-3q-0.14071 0.14071-0.25584 0.31127-0.1066 0.16203-0.18761 0.36244-0.15351 0.38376-0.15351 0.80163 0 0.10233 9e-3 0.20467 0.0469 0.52873 0.33259 0.96366 0.34965 0.533 0.9125 0.77178 0.40934 0.17483 0.80163 0.17483 0.57137 0 1.10437-0.37097 0.90823-0.61828 0.90823-1.73971z" style="font-feature-settings:normal;font-variant-caps:normal;font-variant-ligatures:normal;font-variant-numeric:normal"/>
    <path d="m459.55883 279.79297h1.50093q0.61827 0 1.1129 0.0341 0.37949 0.0256 0.67371 0.0853 0.29848 0.0597 0.60548 0.20467 0.63534 0.29848 1.01483 0.85706 0.38376 0.55432 0.51595 1.23229 0.0682 0.37097 0.0682 0.77605 0 0.19188-0.0128 0.38802-0.0512 0.61828-0.2729 1.12996-0.15776 0.34538-0.35817 0.60122-0.39229 0.50315-0.94661 0.77605-0.23452 0.11086-0.51168 0.18335-0.0341 0.0213-0.29848 0.064-0.26436 0.0384-0.38376 0.0384-0.43066 0.0341-0.94234 0.0341h-1.76529zm1.33463 5.16369h0.62681q0.34538 0 0.60548-0.0256 0.23026-0.017 0.39655-0.0597 0.31128-0.0853 0.52448-0.26863v-4e-3q0.35391-0.30274 0.49035-0.72488 0.13645-0.42213 0.13645-0.88264t-0.13645-0.87838q-0.13644-0.42214-0.49035-0.72915-0.20894-0.17482-0.45199-0.24304-0.23878-0.0682-0.5202-0.0896-0.25584-0.0213-0.57991-0.0213-0.3198-4e-3 -0.60122-4e-3z" style="font-feature-settings:normal;font-variant-caps:normal;font-variant-ligatures:normal;font-variant-numeric:normal"/>
    <path d="m469.6986 286.09088-0.64386-1.45402h-2.16611l-0.70356 1.56062h-1.42417l3.20652-6.88635 3.20652 6.88635h-1.42844zm-2.28976-2.62235h1.14275l-0.57138-1.30052z" style="font-feature-settings:normal;font-variant-caps:normal;font-variant-ligatures:normal;font-variant-numeric:normal"/>
   </g>
  </g>
  <g transform="matrix(.91015621 0 0 .91015619 -251.97566 25.332405)">
   <path d="m488.73091 341.48344c-0.54357-1.31403-0.16624-3.21142 0.83897-4.21706 1.00513-1.00376 1.00513-2.65034 0-3.65467-1.00521-1.00499-1.38254-2.90238-0.83897-4.21698 0.5448-1.31403-0.0844-2.83401-1.39777-3.37708-1.31215-0.54315-2.38644-2.15205-2.38644-3.57352 0-1.42212-1.16253-2.58507-2.58461-2.58507-1.42077 0-3.0284-1.07476-3.57066-2.38871-0.5448-1.31468-2.06412-1.94414-3.3775-1.40042-1.31469 0.54316-3.21134 0.16566-4.21524-0.83933-1.00455-1.00434-2.65049-1.00434-3.65701 0-1.00391 1.00499-2.90055 1.38249-4.21262 0.83933-1.31338-0.5438-2.8327 0.0857-3.37758 1.40042-0.5448 1.31395-2.15235 2.38871-3.5732 2.38871s-2.58469 1.16295-2.58469 2.58499c0 1.42146-1.07429 3.03037-2.38767 3.57352-1.31216 0.54307-1.94134 2.06304-1.39654 3.37707 0.5448 1.31461 0.16624 3.212-0.83898 4.21699-1.00521 1.00441-1.00521 2.65099 0 3.65467 1.00522 1.00564 1.38378 2.90303 0.83898 4.21706-0.5448 1.31395 0.0844 2.83384 1.39654 3.37896 1.31338 0.54503 2.38767 2.15337 2.38767 3.57483 0 1.42138 1.16384 2.58441 2.58469 2.58441s3.0284 1.07607 3.5732 2.3901c0.5448 1.31395 2.06411 1.94341 3.37758 1.39838 1.31215-0.54496 3.20871-0.16632 4.21262 0.83802 1.00521 1.00434 2.65115 1.00434 3.65578 0 1.00513-1.00442 2.90178-1.38306 4.21655-0.83802 1.31207 0.54503 2.83139-0.0844 3.37488-1.39838 0.5448-1.31403 2.15243-2.3901 3.5732-2.3901 1.42208 0 2.58461-1.16295 2.58461-2.58441s1.07429-3.0298 2.38644-3.57483c1.31338-0.54504 1.94257-2.06501 1.39777-3.37888z" fill="#f6bb42" stroke-width=".08186862"/>
   <g transform="matrix(.0818509 0 0 .08188634 448.41648 314.47667)" fill="#ffce54">
    <path d="m311.618 255.81 182.042-36.21c-2.703-6.546-4.156-13.843-4.156-20.921l-182.042 36.21 155.371-102.31c-5.141-4.828-9.453-10.898-12.375-17.39l-155.199 102.184 105.263-154.3c-6.625-2.398-12.984-6.281-18.25-11.102l-105.075 154.035 37.812-183.542c-7.047 0.227-14.391-1.016-21.047-3.531l-37.788 183.315-36.577-183.924c-6.547 2.711-13.843 4.164-20.921 4.164l36.577 183.925-105.029-154.887c-5.203 4.867-11.515 8.828-18.109 11.312l105.169 155.082-156.027-102.099c-3.031 6.476-7.422 12.492-12.625 17.234l156.309 102.286-182.464-35.014c-0.219 7.117-1.891 14.375-4.797 20.804l182.698 35.054-182.042 36.202c2.719 6.546 4.172 13.843 4.172 20.921l182.026-36.202-155.386 102.309c5.141 4.828 9.453 10.906 12.391 17.391l155.199-102.201-105.278 154.34c6.625 2.391 12.984 6.266 18.25 11.094l105.091-154.059-37.813 183.557c7.047-0.234 14.39 1 21.046 3.516l37.78-183.308 36.585 183.917c6.547-2.703 13.844-4.156 20.922-4.156l-36.577-183.933 105.044 154.918c5.203-4.875 11.5-8.828 18.109-11.312l-105.185-155.106 156.043 102.107c3.031-6.469 7.422-12.484 12.625-17.234l-156.34-102.294 182.479 35.015c0.234-7.109 1.891-14.375 4.797-20.796z"/>
    <path d="m447.989 255.997c0 106.027-85.951 191.994-192.003 191.994-106.028 0-191.994-85.967-191.994-191.994 0-106.036 85.966-191.995 191.995-191.995 106.051 0 192.002 85.959 192.002 191.995z"/>
   </g>
   <path d="m470.69605 326.31441c-4.66354-1.6659-9.70482-1.51302-13.32157-1.03062-2.31981 2.73991-3.7202 6.28395-3.7202 10.15554 0 2.96699 0.82227 5.74212 2.25082 8.11035 2.95293-0.49385 7.30241-0.66917 12.01645 1.01457 4.7223 1.68637 9.83397 1.50851 13.45972 1.01204 2.31081-2.73804 3.70359-6.27438 3.70359-10.13696 0-2.97534-0.8262-5.75751-2.26105-8.12959-2.95433 0.50859-7.35487 0.70946-12.12776-0.99533z" fill="#29b6f6" stroke-width=".08186862"/>
   <g transform="matrix(.99291526 .11703975 -.11698907 .99334522 0 0)" fill="#ffce54" stroke-width=".08186862" aria-label="SODA">
    <path d="m494.44625 278.7226q0.11512 0.41787 0.34112 0.66092 0.23025 0.24305 0.71635 0.24305 0.33259 0 0.55432-0.17909 0.22599-0.17909 0.22599-0.54579 0-0.37097-0.47757-0.61402-0.47757-0.24731-0.78457-0.4136-0.57991-0.30275-1.02763-0.73767-0.42639-0.40935-0.42639-1.09159v-0.0768q0.0256-0.75472 0.60548-1.27919 0.56285-0.50742 1.31331-0.50742h0.0512q0.62681 0.0128 1.0532 0.23878 0.43067 0.22173 0.76326 0.76326l-0.90397 0.80163q-0.1535-0.24305-0.3667-0.43493-0.20467-0.18335-0.50315-0.18335h-0.0256q-0.24731 0.0128-0.43919 0.17056-0.18761 0.15777-0.18761 0.43066 0 0.26011 0.32406 0.4861 0.32406 0.22173 0.60549 0.37096 0.69076 0.37097 1.24935 0.81443 0.54579 0.43492 0.54579 1.29625v0.0256q-9e-3 0.84854-0.60549 1.36448-0.59269 0.51594-1.4796 0.57138-0.064 4e-3 -0.13219 4e-3 -0.58843 0-1.11716-0.31127-0.5927-0.34538-0.86133-1.01057z" style="font-feature-settings:normal;font-variant-caps:normal;font-variant-ligatures:normal;font-variant-numeric:normal"/>
    <path d="m505.2512 277.52868q0 0.67371-0.25584 1.29199-0.12366 0.28995-0.31554 0.57138-0.58416 0.84853-1.54356 1.23655-0.63107 0.25584-1.28773 0.25584-0.33685 0-0.68223-0.0682-0.68224-0.13218-1.22803-0.49889-0.25584-0.16203-0.51595-0.4136-0.49035-0.47331-0.74193-1.07879-0.2601-0.61402-0.2601-1.2792 0-0.17056 0.017-0.34112 0.081-0.84853 0.55432-1.5393 0.3795-0.55432 0.95087-0.92955v-4e-3q0.84427-0.55006 1.89748-0.55006 1.03188 0 1.88894 0.55006 0.56712 0.37523 0.95087 0.93807 0.57138 0.84427 0.57138 1.8591zm-1.38153 0q0-0.43066-0.15351-0.80163-0.33259-0.80163-1.09584-1.12995-0.39655-0.1663-0.78884-0.1663-0.38802 0-0.77605 0.16203-0.064 0.0299-0.18335 0.0938-0.11513 0.064-0.16629 0.10234-0.14924 0.0981-0.30701 0.25583v4e-3q-0.14071 0.14071-0.25584 0.31127-0.1066 0.16203-0.18762 0.36244-0.1535 0.38376-0.1535 0.80163 0 0.10233 9e-3 0.20467 0.0469 0.52874 0.33259 0.96366 0.34965 0.533 0.91249 0.77178 0.40935 0.17483 0.80163 0.17483 0.57138 0 1.10438-0.37097 0.90823-0.61828 0.90823-1.73971z" style="font-feature-settings:normal;font-variant-caps:normal;font-variant-ligatures:normal;font-variant-numeric:normal"/>
    <path d="m506.02725 274.3179h1.50092q0.61828 0 1.1129 0.0341 0.3795 0.0256 0.67371 0.0853 0.29848 0.0597 0.60549 0.20467 0.63533 0.29848 1.01483 0.85706 0.38376 0.55432 0.51594 1.2323 0.0682 0.37096 0.0682 0.77604 0 0.19188-0.0128 0.38803-0.0512 0.61827-0.27289 1.12995-0.15777 0.34539-0.35818 0.60123-0.39228 0.50315-0.9466 0.77604-0.23452 0.11087-0.51168 0.18335-0.0341 0.0213-0.29848 0.064-0.26437 0.0384-0.38376 0.0384-0.43066 0.0341-0.94234 0.0341h-1.76529zm1.33462 5.16369h0.62681q0.34538 0 0.60549-0.0256 0.23025-0.0171 0.39655-0.0597 0.31127-0.0853 0.52447-0.26863v-4e-3q0.35391-0.30275 0.49036-0.72488 0.13645-0.42214 0.13645-0.88265t-0.13645-0.87838q-0.13645-0.42214-0.49036-0.72914-0.20894-0.17483-0.45198-0.24305-0.23879-0.0682-0.52021-0.0895-0.25584-0.0213-0.5799-0.0213-0.3198-4e-3 -0.60123-4e-3z" style="font-feature-settings:normal;font-variant-caps:normal;font-variant-ligatures:normal;font-variant-numeric:normal"/>
    <path d="m516.16701 280.61581-0.64386-1.45402h-2.16611l-0.70355 1.56062h-1.42418l3.20652-6.88634 3.20653 6.88634h-1.42844zm-2.28976-2.62235h1.14275l-0.57137-1.30052z" style="font-feature-settings:normal;font-variant-caps:normal;font-variant-ligatures:normal;font-variant-numeric:normal"/>
   </g>
  </g>
  <g transform="matrix(.91015621 0 0 .91015619 -251.97566 25.332405)">
   <path d="m535.51063 341.48344c-0.54357-1.31403-0.16624-3.21142 0.83897-4.21706 1.00513-1.00376 1.00513-2.65034 0-3.65467-1.00521-1.00499-1.38254-2.90238-0.83897-4.21698 0.5448-1.31403-0.0844-2.83401-1.39777-3.37708-1.31215-0.54315-2.38644-2.15205-2.38644-3.57352 0-1.42212-1.16253-2.58507-2.58461-2.58507-1.42077 0-3.0284-1.07476-3.57066-2.38871-0.5448-1.31468-2.06412-1.94414-3.3775-1.40042-1.31469 0.54316-3.21134 0.16566-4.21524-0.83933-1.00455-1.00434-2.65049-1.00434-3.65701 0-1.00391 1.00499-2.90055 1.38249-4.21262 0.83933-1.31338-0.5438-2.8327 0.0857-3.37758 1.40042-0.5448 1.31395-2.15235 2.38871-3.5732 2.38871s-2.58469 1.16295-2.58469 2.58499c0 1.42146-1.07429 3.03037-2.38767 3.57352-1.31216 0.54307-1.94134 2.06304-1.39654 3.37707 0.5448 1.31461 0.16624 3.212-0.83898 4.21699-1.00521 1.00441-1.00521 2.65099 0 3.65467 1.00522 1.00564 1.38378 2.90303 0.83898 4.21706-0.5448 1.31395 0.0844 2.83384 1.39654 3.37896 1.31338 0.54503 2.38767 2.15337 2.38767 3.57483 0 1.42138 1.16384 2.58441 2.58469 2.58441s3.0284 1.07607 3.5732 2.3901c0.5448 1.31395 2.06411 1.94341 3.37758 1.39838 1.31215-0.54496 3.20871-0.16632 4.21262 0.83802 1.00521 1.00434 2.65115 1.00434 3.65578 0 1.00513-1.00442 2.90178-1.38306 4.21655-0.83802 1.31207 0.54503 2.83139-0.0844 3.37488-1.39838 0.5448-1.31403 2.15243-2.3901 3.5732-2.3901 1.42208 0 2.58461-1.16295 2.58461-2.58441s1.07429-3.0298 2.38644-3.57483c1.31338-0.54504 1.94257-2.06501 1.39777-3.37888z" fill="#f6bb42" stroke-width=".08186862"/>
   <g transform="matrix(.0818509 0 0 .08188634 495.1962 314.47667)" fill="#ffce54">
    <path d="m311.618 255.81 182.042-36.21c-2.703-6.546-4.156-13.843-4.156-20.921l-182.042 36.21 155.371-102.31c-5.141-4.828-9.453-10.898-12.375-17.39l-155.199 102.184 105.263-154.3c-6.625-2.398-12.984-6.281-18.25-11.102l-105.075 154.035 37.812-183.542c-7.047 0.227-14.391-1.016-21.047-3.531l-37.788 183.315-36.577-183.924c-6.547 2.711-13.843 4.164-20.921 4.164l36.577 183.925-105.029-154.887c-5.203 4.867-11.515 8.828-18.109 11.312l105.169 155.082-156.027-102.099c-3.031 6.476-7.422 12.492-12.625 17.234l156.309 102.286-182.464-35.014c-0.219 7.117-1.891 14.375-4.797 20.804l182.698 35.054-182.042 36.202c2.719 6.546 4.172 13.843 4.172 20.921l182.026-36.202-155.386 102.309c5.141 4.828 9.453 10.906 12.391 17.391l155.199-102.201-105.278 154.34c6.625 2.391 12.984 6.266 18.25 11.094l105.091-154.059-37.813 183.557c7.047-0.234 14.39 1 21.046 3.516l37.78-183.308 36.585 183.917c6.547-2.703 13.844-4.156 20.922-4.156l-36.577-183.933 105.044 154.918c5.203-4.875 11.5-8.828 18.109-11.312l-105.185-155.106 156.043 102.107c3.031-6.469 7.422-12.484 12.625-17.234l-156.34-102.294 182.479 35.015c0.234-7.109 1.891-14.375 4.797-20.796z"/>
    <path d="m447.989 255.997c0 106.027-85.951 191.994-192.003 191.994-106.028 0-191.994-85.967-191.994-191.994 0-106.036 85.966-191.995 191.995-191.995 106.051 0 192.002 85.959 192.002 191.995z"/>
   </g>
   <path d="m517.47577 326.31441c-4.66354-1.6659-9.70482-1.51302-13.32157-1.03062-2.31981 2.73991-3.7202 6.28395-3.7202 10.15554 0 2.96699 0.82227 5.74212 2.25082 8.11035 2.95293-0.49385 7.30241-0.66917 12.01645 1.01457 4.7223 1.68637 9.83397 1.50851 13.45972 1.01204 2.31081-2.73804 3.70359-6.27438 3.70359-10.13696 0-2.97534-0.8262-5.75751-2.26105-8.12959-2.95433 0.50859-7.35487 0.70946-12.12776-0.99533z" fill="#29b6f6" stroke-width=".08186862"/>
   <g transform="matrix(.99291526 .11703975 -.11698907 .99334522 0 0)" fill="#ffce54" stroke-width=".08186862" aria-label="SODA">
    <path d="m540.91463 273.2475q0.11513 0.41787 0.34112 0.66092 0.23026 0.24305 0.71635 0.24305 0.33259 0 0.55432-0.17909 0.22599-0.17909 0.22599-0.54579 0-0.37097-0.47757-0.61401-0.47756-0.24732-0.78457-0.41361-0.5799-0.30274-1.02762-0.73767-0.4264-0.40934-0.4264-1.09158v-0.0768q0.0256-0.75472 0.60549-1.27919 0.56284-0.50742 1.3133-0.50742h0.0512q0.62681 0.0128 1.05321 0.23879 0.43066 0.22172 0.76325 0.76325l-0.90396 0.80163q-0.15351-0.24305-0.36671-0.43493-0.20467-0.18335-0.50315-0.18335h-0.0256q-0.24731 0.0128-0.43919 0.17056-0.18762 0.15777-0.18762 0.43066 0 0.26011 0.32407 0.4861 0.32406 0.22173 0.60548 0.37097 0.69077 0.37096 1.24935 0.81442 0.54579 0.43493 0.54579 1.29625v0.0256q-9e-3 0.84853-0.60548 1.36447-0.5927 0.51595-1.47961 0.57138-0.064 4e-3 -0.13218 4e-3 -0.58843 0-1.11717-0.31127-0.59269-0.34538-0.86132-1.01057z" style="font-feature-settings:normal;font-variant-caps:normal;font-variant-ligatures:normal;font-variant-numeric:normal"/>
    <path d="m551.71958 272.05359q0 0.67371-0.25584 1.29198-0.12365 0.28996-0.31553 0.57138-0.58417 0.84853-1.54357 1.23656-0.63107 0.25584-1.28772 0.25584-0.33686 0-0.68224-0.0682-0.68224-0.13218-1.22803-0.49888-0.25584-0.16204-0.51594-0.41361-0.49036-0.4733-0.74194-1.07879-0.2601-0.61402-0.2601-1.2792 0-0.17056 0.0171-0.34112 0.081-0.84853 0.55431-1.5393 0.3795-0.55432 0.95087-0.92955v-4e-3q0.84427-0.55006 1.89748-0.55006 1.03189 0 1.88895 0.55006 0.56711 0.37523 0.95087 0.93808 0.57137 0.84427 0.57137 1.8591zm-1.38153 0q0-0.43067-0.1535-0.80163-0.33259-0.80163-1.09585-1.12996-0.39655-0.1663-0.78884-0.1663-0.38802 0-0.77604 0.16203-0.064 0.0299-0.18336 0.0938-0.11512 0.064-0.16629 0.10234-0.14924 0.0981-0.30701 0.25584v4e-3q-0.14071 0.14071-0.25584 0.31127-0.1066 0.16203-0.18761 0.36244-0.15351 0.38376-0.15351 0.80163 0 0.10234 9e-3 0.20467 0.0469 0.52874 0.33259 0.96366 0.34965 0.533 0.9125 0.77179 0.40934 0.17482 0.80163 0.17482 0.57137 0 1.10437-0.37097 0.90823-0.61827 0.90823-1.7397z" style="font-feature-settings:normal;font-variant-caps:normal;font-variant-ligatures:normal;font-variant-numeric:normal"/>
    <path d="m552.49563 268.8428h1.50092q0.61828 0 1.11291 0.0341 0.37949 0.0256 0.67371 0.0853 0.29848 0.0597 0.60548 0.20467 0.63534 0.29848 1.01483 0.85707 0.38376 0.55431 0.51594 1.23229 0.0682 0.37097 0.0682 0.77605 0 0.19188-0.0128 0.38802-0.0512 0.61828-0.2729 1.12996-0.15777 0.34538-0.35817 0.60122-0.39229 0.50315-0.94661 0.77605-0.23452 0.11086-0.51168 0.18335-0.0341 0.0213-0.29848 0.064-0.26437 0.0384-0.38376 0.0384-0.43066 0.0341-0.94234 0.0341h-1.76529zm1.33463 5.16369h0.6268q0.34539 0 0.60549-0.0256 0.23026-0.0171 0.39655-0.0597 0.31127-0.0853 0.52447-0.26863v-4e-3q0.35391-0.30275 0.49036-0.72488 0.13645-0.42214 0.13645-0.88265t-0.13645-0.87838q-0.13645-0.42213-0.49036-0.72914-0.20893-0.17482-0.45198-0.24305-0.23878-0.0682-0.52021-0.0895-0.25584-0.0213-0.5799-0.0213-0.3198-4e-3 -0.60122-4e-3z" style="font-feature-settings:normal;font-variant-caps:normal;font-variant-ligatures:normal;font-variant-numeric:normal"/>
    <path d="m562.6354 275.14071-0.64386-1.45402h-2.16611l-0.70356 1.56062h-1.42417l3.20652-6.88634 3.20652 6.88634h-1.42844zm-2.28976-2.62235h1.14274l-0.57137-1.30052z" style="font-feature-settings:normal;font-variant-caps:normal;font-variant-ligatures:normal;font-variant-numeric:normal"/>
   </g>
  </g>
  <g transform="matrix(.91015621 0 0 .91015619 -251.97566 25.332405)">
   <path d="m441.95119 388.25478c-0.54357-1.31403-0.16624-3.21142 0.83897-4.21706 1.00513-1.00376 1.00513-2.65034 0-3.65467-1.00521-1.00499-1.38254-2.90238-0.83897-4.21698 0.5448-1.31403-0.0844-2.83401-1.39777-3.37708-1.31215-0.54315-2.38644-2.15205-2.38644-3.57352 0-1.42212-1.16253-2.58507-2.58461-2.58507-1.42077 0-3.0284-1.07476-3.57066-2.38871-0.5448-1.31468-2.06412-1.94414-3.3775-1.40042-1.31469 0.54316-3.21134 0.16566-4.21524-0.83933-1.00455-1.00434-2.65049-1.00434-3.65701 0-1.00391 1.00499-2.90055 1.38249-4.21262 0.83933-1.31338-0.5438-2.8327 0.0857-3.37758 1.40042-0.5448 1.31395-2.15235 2.38871-3.5732 2.38871s-2.58469 1.16295-2.58469 2.58499c0 1.42146-1.07429 3.03037-2.38767 3.57352-1.31216 0.54307-1.94134 2.06304-1.39654 3.37707 0.5448 1.31461 0.16624 3.212-0.83898 4.21699-1.00521 1.00441-1.00521 2.65099 0 3.65467 1.00522 1.00564 1.38378 2.90303 0.83898 4.21706-0.5448 1.31395 0.0844 2.83384 1.39654 3.37896 1.31338 0.54503 2.38767 2.15337 2.38767 3.57483 0 1.42138 1.16384 2.58441 2.58469 2.58441s3.0284 1.07607 3.5732 2.3901c0.5448 1.31395 2.06411 1.94341 3.37758 1.39838 1.31215-0.54496 3.20871-0.16632 4.21262 0.83802 1.00521 1.00434 2.65115 1.00434 3.65578 0 1.00513-1.00442 2.90178-1.38306 4.21655-0.83802 1.31207 0.54503 2.83139-0.0844 3.37488-1.39838 0.5448-1.31403 2.15243-2.3901 3.5732-2.3901 1.42208 0 2.58461-1.16295 2.58461-2.58441s1.07429-3.0298 2.38644-3.57483c1.31338-0.54504 1.94257-2.06501 1.39777-3.37888z" fill="#f6bb42" stroke-width=".08186862"/>
   <g transform="matrix(.0818509 0 0 .08188634 401.63676 361.24801)" fill="#ffce54">
    <path d="m311.618 255.81 182.042-36.21c-2.703-6.546-4.156-13.843-4.156-20.921l-182.042 36.21 155.371-102.31c-5.141-4.828-9.453-10.898-12.375-17.39l-155.199 102.184 105.263-154.3c-6.625-2.398-12.984-6.281-18.25-11.102l-105.075 154.035 37.812-183.542c-7.047 0.227-14.391-1.016-21.047-3.531l-37.788 183.315-36.577-183.924c-6.547 2.711-13.843 4.164-20.921 4.164l36.577 183.925-105.029-154.887c-5.203 4.867-11.515 8.828-18.109 11.312l105.169 155.082-156.027-102.099c-3.031 6.476-7.422 12.492-12.625 17.234l156.309 102.286-182.464-35.014c-0.219 7.117-1.891 14.375-4.797 20.804l182.698 35.054-182.042 36.202c2.719 6.546 4.172 13.843 4.172 20.921l182.026-36.202-155.386 102.309c5.141 4.828 9.453 10.906 12.391 17.391l155.199-102.201-105.278 154.34c6.625 2.391 12.984 6.266 18.25 11.094l105.091-154.059-37.813 183.557c7.047-0.234 14.39 1 21.046 3.516l37.78-183.308 36.585 183.917c6.547-2.703 13.844-4.156 20.922-4.156l-36.577-183.933 105.044 154.918c5.203-4.875 11.5-8.828 18.109-11.312l-105.185-155.106 156.043 102.107c3.031-6.469 7.422-12.484 12.625-17.234l-156.34-102.294 182.479 35.015c0.234-7.109 1.891-14.375 4.797-20.796z"/>
    <path d="m447.989 255.997c0 106.027-85.951 191.994-192.003 191.994-106.028 0-191.994-85.967-191.994-191.994 0-106.036 85.966-191.995 191.995-191.995 106.051 0 192.002 85.959 192.002 191.995z"/>
   </g>
   <path d="m423.91633 373.08575c-4.66354-1.6659-9.70482-1.51302-13.32157-1.03062-2.31981 2.73991-3.7202 6.28395-3.7202 10.15554 0 2.96699 0.82227 5.74212 2.25082 8.11035 2.95293-0.49385 7.30241-0.66917 12.01645 1.01457 4.7223 1.68637 9.83397 1.50851 13.45972 1.01204 2.31081-2.73804 3.70359-6.27438 3.70359-10.13696 0-2.97534-0.8262-5.75751-2.26105-8.12959-2.95433 0.50859-7.35487 0.70946-12.12776-0.99533z" fill="#29b6f6" stroke-width=".08186862"/>
   <g transform="matrix(.99291526 .11703975 -.11698907 .99334522 0 0)" fill="#ffce54" stroke-width=".08186862" aria-label="SODA">
    <path d="m453.44957 330.63764q0.11513 0.41787 0.34112 0.66092 0.23026 0.24305 0.71635 0.24305 0.33259 0 0.55432-0.17909 0.22599-0.17909 0.22599-0.54579 0-0.37097-0.47756-0.61402-0.47757-0.24731-0.78458-0.4136-0.5799-0.30275-1.02762-0.73767-0.4264-0.40935-0.4264-1.09159v-0.0768q0.0256-0.75472 0.60549-1.2792 0.56284-0.50741 1.31331-0.50741h0.0512q0.6268 0.0128 1.0532 0.23878 0.43066 0.22173 0.76326 0.76326l-0.90397 0.80163q-0.1535-0.24305-0.3667-0.43493-0.20468-0.18335-0.50315-0.18335h-0.0256q-0.24731 0.0128-0.43919 0.17056-0.18762 0.15777-0.18762 0.43066 0 0.26011 0.32407 0.4861 0.32406 0.22172 0.60548 0.37096 0.69077 0.37097 1.24935 0.81443 0.54579 0.43492 0.54579 1.29625v0.0256q-9e-3 0.84854-0.60548 1.36448-0.5927 0.51594-1.47961 0.57137-0.064 4e-3 -0.13218 4e-3 -0.58843 0-1.11717-0.31127-0.59269-0.34539-0.86132-1.01057z" style="font-feature-settings:normal;font-variant-caps:normal;font-variant-ligatures:normal;font-variant-numeric:normal"/>
    <path d="m464.25453 329.44372q0 0.67371-0.25584 1.29199-0.12366 0.28995-0.31554 0.57138-0.58417 0.84853-1.54356 1.23655-0.63107 0.25584-1.28773 0.25584-0.33685 0-0.68224-0.0682-0.68224-0.13218-1.22803-0.49889-0.25584-0.16203-0.51594-0.41361-0.49036-0.4733-0.74193-1.07878-0.26011-0.61402-0.26011-1.2792 0-0.17056 0.0171-0.34112 0.081-0.84854 0.55432-1.5393 0.37949-0.55432 0.95087-0.92955v-4e-3q0.84427-0.55005 1.89747-0.55005 1.03189 0 1.88895 0.55005 0.56711 0.37524 0.95087 0.93808 0.57138 0.84427 0.57138 1.8591zm-1.38154 0q0-0.43066-0.1535-0.80163-0.33259-0.80163-1.09585-1.12996-0.39655-0.16629-0.78883-0.16629-0.38803 0-0.77605 0.16203-0.064 0.0298-0.18335 0.0938-0.11513 0.064-0.1663 0.10233-0.14924 0.0981-0.30701 0.25584v4e-3q-0.14071 0.14071-0.25584 0.31127-0.10659 0.16203-0.18761 0.36244-0.1535 0.38376-0.1535 0.80163 0 0.10233 9e-3 0.20467 0.0469 0.52873 0.33259 0.96366 0.34965 0.533 0.9125 0.77178 0.40934 0.17483 0.80163 0.17483 0.57137 0 1.10437-0.37097 0.90823-0.61828 0.90823-1.73971z" style="font-feature-settings:normal;font-variant-caps:normal;font-variant-ligatures:normal;font-variant-numeric:normal"/>
    <path d="m465.03057 326.23294h1.50093q0.61827 0 1.1129 0.0341 0.37949 0.0256 0.67371 0.0853 0.29848 0.0597 0.60548 0.20467 0.63534 0.29848 1.01483 0.85706 0.38376 0.55432 0.51595 1.2323 0.0682 0.37096 0.0682 0.77604 0 0.19188-0.0128 0.38803-0.0512 0.61827-0.2729 1.12995-0.15776 0.34539-0.35817 0.60123-0.39229 0.50315-0.94661 0.77604-0.23452 0.11087-0.51168 0.18335-0.0341 0.0213-0.29848 0.064-0.26436 0.0384-0.38375 0.0384-0.43067 0.0341-0.94235 0.0341h-1.76529zm1.33463 5.16369h0.62681q0.34538 0 0.60548-0.0256 0.23026-0.0171 0.39656-0.0597 0.31127-0.0853 0.52447-0.26863v-4e-3q0.35391-0.30274 0.49035-0.72487 0.13645-0.42214 0.13645-0.88265t-0.13645-0.87838q-0.13644-0.42214-0.49035-0.72914-0.20894-0.17483-0.45199-0.24305-0.23878-0.0682-0.5202-0.0895-0.25584-0.0213-0.57991-0.0213-0.3198-4e-3 -0.60122-4e-3z" style="font-feature-settings:normal;font-variant-caps:normal;font-variant-ligatures:normal;font-variant-numeric:normal"/>
    <path d="m475.17034 332.53085-0.64386-1.45402h-2.16611l-0.70356 1.56062h-1.42417l3.20652-6.88634 3.20652 6.88634h-1.42844zm-2.28976-2.62235h1.14275l-0.57138-1.30052z" style="font-feature-settings:normal;font-variant-caps:normal;font-variant-ligatures:normal;font-variant-numeric:normal"/>
   </g>
  </g>
  <g>
   <rect transform="rotate(-15)" x="71.587708" y="400.3725" width="60.191051" height="23.540462" ry="3.3073747" fill="#00c853"/>
   <rect transform="rotate(-15)" x="75.738823" y="401.99597" width="51.888836" height="20.293501" ry="2.8511851" fill="#fff"/>
   <g transform="matrix(.87914339 -.23556576 .23556576 .87914337 -251.97566 25.332405)" fill="#424242" stroke-width=".26458332" style="font-feature-settings:normal;font-variant-caps:normal;font-variant-ligatures:normal;font-variant-numeric:normal" aria-label="Bety">
    <path d="m375.90542 490.60655q0.267 0 0.62012 0.55122h0.0689q0.69763-0.31006 1.27469-0.31006 0.98185 0 1.30913 1.03353 0.10336 0.0775 0.10336 0.24116v0.17225q0 1.78284-0.62012 2.65272l-0.27561 0.65457v0.20671q0 0.12058 1.17133 0.58566 1.24024 1.05076 1.24024 2.30822 0 1.0852-1.79145 4.51307-0.88711 1.03353-1.79145 1.03353h-0.10335q-1.33498-0.0689-1.48139-0.62012-0.10336-0.35312-0.13781-1.20578l0.0344-1.03353-0.2067-10.23193q0-0.48231 0.58566-0.55122zm0.37896 5.82222h0.13781q0.75792 0 1.58474-1.86036 0-0.15503 0.27561-0.89572l0.0689-0.96463q0-0.96462-0.48231-0.96462l-0.13781-0.0345q-0.51676 0-1.17133 0.79238-0.27561 0.48231-0.27561 3.92741zm0.0689 3.7896q0.15502 2.92833 0.37896 2.92833l0.2756 0.0689q0.77515 0 1.20579-0.68902 0.12058-0.11196 0.41341-0.75792l0.58566-0.96462q0.49954-1.17134 0.65457-1.757v-0.41341q0-0.99908-1.27468-1.58475l-0.20671-0.0344q-0.48231 0-1.72255 0.68902-0.31005 0-0.31005 0.48231z" style="font-feature-settings:normal;font-variant-caps:normal;font-variant-ligatures:normal;font-variant-numeric:normal"/>
    <path d="m383.48463 491.02858q0.75792 0 1.79145 0.82682 0.17226 0.31006 0.17226 0.62012 0 1.54168-0.99908 2.13596-1.14549 0.34451-1.8948 0.34451-0.17226 0.18086-0.17226 0.55121v0.58567q0 1.86896 0.48232 4.20301 0 1.25746 0.96462 2.44602 0.30145 0.24116 0.44787 0.24116h0.24115q0.34451-0.12919 0.86128-0.44786l0.2067-0.0344q0.24977 0 0.37896 0.41341 0 0.77514-1.20578 1.55029l-0.55122 0.10335q-0.49092 0-1.72254-1.34358-0.65457-1.02492-0.65457-2.48047-0.44787-2.18764-0.51677-5.58106 0-1.37804 0.96463-3.44509 0.8096-0.68902 1.20578-0.68902zm-0.79237 2.75607 0.17226 0.10336q1.0852 0 1.44694-0.58567 0.10335-0.18087 0.10335-0.34451v-0.1378q0-0.51677-0.65457-0.51677-0.91295 0-1.06798 1.44694z" style="font-feature-settings:normal;font-variant-caps:normal;font-variant-ligatures:normal;font-variant-numeric:normal"/>
    <path d="m389.11736 490.15008h0.10336q0.58566 0 0.82682 1.10243-0.17225 0.22393-0.17225 0.72347v0.55121q0.0689 0.12058 0.2067 0.17226l0.79237-0.0689q1.13688 0 1.13688 0.72347 0 0.68902-0.82682 0.68902-1.30913 0-1.30913 0.2756l-0.0345 0.17226q0.20671 2.48047 0.20671 7.44141 0 1.80006-0.37896 1.9637-0.18948 0.20671-0.41341 0.20671-0.35312 0-0.48232-0.58567h-0.0344q0.24116-2.06706 0.24116-5.92557l-0.1378-2.96278 0.0344-0.27561h-0.0344l-2.10151 0.0345h-0.0344q-0.267 0-0.44787-0.62012 0.18087-0.58567 0.68902-0.58567 1.57614-0.28422 1.72255-0.44786l0.0344-0.1378v-1.51585q0-0.72347 0.41341-0.93017z" style="font-feature-settings:normal;font-variant-caps:normal;font-variant-ligatures:normal;font-variant-numeric:normal"/>
    <path d="m392.39882 490.95106h0.1378q0.63734 0 0.86128 1.17134 1.21439 2.35127 1.55029 2.79052 0 0.30145 0.55121 0.75792h0.0689q0.17225 0 0.41341-2.37711 0.24977-2.17041 0.72347-2.17041h0.0344q0.65457 0.18087 0.65457 0.58566-0.34451 2.35989-0.62012 3.3762-0.1378 1.73116-0.51676 3.61735l0.0344 0.65457q-0.37896 1.07659-0.37896 4.54752 0 0.39619-0.58567 0.55122-0.68902-0.25838-0.68902-0.99908 0.21532-2.8422 0.55122-3.4451l0.31005-2.51492q0-0.16364-0.58566-0.55121l-0.82683-1.30914q0-0.10335-1.30913-2.23931 0-0.1378-0.48231-0.99908-0.24116-0.57705-0.24116-0.82682 0-0.39619 0.34451-0.62012z" style="font-feature-settings:normal;font-variant-caps:normal;font-variant-ligatures:normal;font-variant-numeric:normal"/>
   </g>
  </g>
  <g fill="#fff" stroke="#9c27b0" stroke-width="1.0583334">
   <g transform="matrix(.91015621 0 0 .91015619 -240.87459 -157.09238)" style="font-feature-settings:normal;font-variant-caps:normal;font-variant-ligatures:normal;font-variant-numeric:normal" aria-label="7">
    <path d="m406.64559 580.5634 2.79914-0.0775-2.57521 7.3036 3.46232 0.29283 3.76377-10.90372-7.59644 0.0775z" fill="#fff" stroke="#9c27b0" stroke-width="1.0583334" style="font-feature-settings:normal;font-variant-caps:normal;font-variant-ligatures:normal;font-variant-numeric:normal"/>
   </g>
   <g transform="matrix(.91015621 0 0 .91015619 -132.61246 -240.51912)" style="font-feature-settings:normal;font-variant-caps:normal;font-variant-ligatures:normal;font-variant-numeric:normal" aria-label="1">
    <path d="m293.10587 575.08528-2.79053 0.0775-0.76654 0.62873v2.64411l0.68902-0.31867 0.0775 8.33713h3.01446z" fill="#fff" stroke="#9c27b0" stroke-width="1.0583334" style="font-feature-settings:normal;font-variant-caps:normal;font-variant-ligatures:normal;font-variant-numeric:normal"/>
   </g>
   <g transform="matrix(.91015621 0 0 .91015619 -111.9857 -240.04336)" style="font-feature-settings:normal;font-variant-caps:normal;font-variant-ligatures:normal;font-variant-numeric:normal" aria-label="2">
    <path d="m318.4439 575.00195q-2.59244-1.57613-4.82314-0.0258-1.11965 0.81821-1.97232 2.024l1.73978 2.20486q0.22393-0.36174 0.62873-0.67179 0.89572-0.89573 1.80006-0.70625 0.50815 0.11197 0.41341 0.68902-0.0775 0.49093-0.57705 1.2833-0.93879 1.47278-2.29099 2.3685-0.58567 0.49954-1.08521 0.8785l-0.2067 3.04891 7.00216 0.14642 9e-3 -2.91972-3.53984 0.16364q1.67949-1.55029 2.87666-3.37619 1.05075-1.59336 1.17133-2.79914 0.16364-1.50723-1.14549-2.30822z" fill="#fff" stroke="#9c27b0" stroke-width="1.0583334" style="font-feature-settings:normal;font-variant-caps:normal;font-variant-ligatures:normal;font-variant-numeric:normal"/>
   </g>
   <g transform="matrix(.91015621 0 0 .91015619 -87.964983 -241.55787)" style="font-feature-settings:normal;font-variant-caps:normal;font-variant-ligatures:normal;font-variant-numeric:normal" aria-label="3">
    <path d="m331.82976 576.38321 0.0775 2.62689 3.3159-0.0775-2.79053 2.024q0.76654-0.11197 1.50723 0.0861 1.49862 0.39619 1.45556 1.9551-0.0517 1.56751-1.50723 1.54168-0.73209-0.0172-1.45556-0.34451l-0.6804 2.80775q1.24023 0.39619 2.7044 0.42202 2.90249 0.0603 3.97047-1.76561 1.46417-2.51492-0.0258-4.25469-0.74931-0.86989-1.71393-1.32636l2.98001-3.66042z" fill="#fff" stroke="#9c27b0" stroke-width="1.0583334" style="font-feature-settings:normal;font-variant-caps:normal;font-variant-ligatures:normal;font-variant-numeric:normal"/>
   </g>
   <g transform="matrix(.91015621 0 0 .91015619 -194.76596 -201.26005)" style="font-feature-settings:normal;font-variant-caps:normal;font-variant-ligatures:normal;font-variant-numeric:normal" aria-label="4">
    <path d="m360.63628 582.45856h-1.80006l0.0775-3.8585-2.9714 0.0861v6.25285l4.5303 0.16364-0.32728 5.02123 3.11781 0.0775 0.24977-11.60136h-2.79914z" fill="#fff" stroke="#9c27b0" stroke-width="1.0583334" style="font-feature-settings:normal;font-variant-caps:normal;font-variant-ligatures:normal;font-variant-numeric:normal"/>
   </g>
   <g transform="matrix(.91015621 0 0 .91015619 -167.67261 -199.12476)" style="font-feature-settings:normal;font-variant-caps:normal;font-variant-ligatures:normal;font-variant-numeric:normal" aria-label="5">
    <path d="m375.31346 579.03307 4.52169 0.18948 0.267-2.54075-6.98494-0.267 0.11197 5.32267q1.06798-0.22393 1.98954-0.1378 1.84313 0.18087 1.88619 1.74839 0.0517 1.57613-1.55029 1.79145-0.80098 0.11196-1.6192-0.0947l-0.15502 2.60104q1.70532 0.20671 3.39341-0.22393 3.36759-0.84405 3.20394-3.9877-0.14641-3.14365-2.63549-3.77238-1.23163-0.39618-2.44602-0.0775z" fill="#fff" stroke="#9c27b0" stroke-width="1.0583334" style="font-feature-settings:normal;font-variant-caps:normal;font-variant-ligatures:normal;font-variant-numeric:normal"/>
   </g>
   <g transform="matrix(.91015621 0 0 .91015619 -142.38524 -199.0332)" style="font-feature-settings:normal;font-variant-caps:normal;font-variant-ligatures:normal;font-variant-numeric:normal" aria-label="6">
    <path d="m395.88781 584.37583q-0.30145 0.0258-0.46509-0.15503-0.14642-0.15502-0.14642-0.40479t0.12058-0.44787q0.12919-0.2067 0.3359-0.24115 0.49092-0.0861 0.73208 0.0861 0.21532 0.14642 0.18948 0.42203-0.0258 0.25838-0.23254 0.4737-0.22393 0.23254-0.53399 0.26699zm-0.20671-3.93602q-0.10335-0.36173 0.10335-0.66318 0.43064-0.6115 2.01539-0.3359l0.45647-2.67856q-0.39619-0.19809-1.10243-0.24977-1.4211-0.0861-2.97139 0.6718-0.8096 0.39618-1.54169 1.88619-0.7493 1.54168-0.88711 3.21255-0.14641 1.92064 0.64596 3.20394 0.93017 1.51584 3.04029 1.85174 1.82591 0.29283 3.05753-0.72347 1.11104-0.91295 1.24023-2.40296 0.12919-1.49861-0.85266-2.55798-1.11104-1.19717-3.20394-1.2144z" fill="#fff" stroke="#9c27b0" stroke-width="1.0583334" style="font-feature-settings:normal;font-variant-caps:normal;font-variant-ligatures:normal;font-variant-numeric:normal"/>
   </g>
  </g>
 </g>
</svg>
