<?xml version="1.0" encoding="UTF-8"?>
<!-- Created with Inkscape (http://www.inkscape.org/) -->
<svg width="1220" height="562" version="1.1" viewBox="0 0 322.79166 148.69584" xmlns="http://www.w3.org/2000/svg" xmlns:cc="http://creativecommons.org/ns#" xmlns:dc="http://purl.org/dc/elements/1.1/" xmlns:rdf="http://www.w3.org/1999/02/22-rdf-syntax-ns#">
 <metadata>
  <rdf:RDF>
   <cc:Work rdf:about="">
    <dc:format>image/svg+xml</dc:format>
    <dc:type rdf:resource="http://purl.org/dc/dcmitype/StillImage"/>
    <dc:title/>
   </cc:Work>
  </rdf:RDF>
 </metadata>
 <g transform="translate(51.393982,-184.4617)">
  <rect x="-51.393982" y="184.4617" width="322.79166" height="148.69583" opacity="0" stroke-width=".91198415"/>
  <g transform="translate(-1223.4516,400.57173)">
   <rect x="1178.6722" y="-209.49544" width="309.5625" height="135.46666" rx="9.3694143" ry="9.3694143" fill="#2196f3"/>
   <rect x="1185.7633" y="-204.34227" width="295.38028" height="125.1603" rx="8.9401665" ry="8.6565857" fill="#fff"/>
  </g>
  <g transform="matrix(.39866447 0 0 .3962094 -75.0346 265.07994)">
   <g stroke-width=".26458332">
    <path d="m142.41403 105.15848h82.46374c3.1152 0 5.63854-2.52333 5.63854-5.638538v-98.67714665c0-3.11811455-2.52334-5.63853535-5.63854-5.63853535h-84.57803c-6.22776 0-11.27707 5.04930827-11.27707 11.2770707v107.8401993c0 7.38399 6.00736 13.39162 13.39162 13.39162h85.98773c1.16787 0 2.11455-0.94668 2.11455-2.11455s-0.94641-2.11455-2.11455-2.11455h-85.98799c-5.05249 0-9.16252-4.1103-9.16252-9.16252 0-5.05275 4.1103-9.16305 9.16252-9.16305z" fill="#fbc02d"/>
    <path d="m140.29974 101.09818v-105.89392c-6.22776 0-11.27707 5.04930827-11.27707 11.2770707v107.8401993c0-6.66486 4.89426-12.20629 11.27707-13.22335z" fill="#fab70f"/>
    <path d="m142.41403 105.15848c-5.05249 0-9.16252 4.1103-9.16252 9.16252 0 5.05248 4.1103 9.16252 9.16252 9.16252h82.46374v-18.32531z" fill="#e6e9ed"/>
   </g>
   <g transform="matrix(.26458333 0 0 .26458333 112.03642 -4.79574)" fill="#a97a03">
    <path d="m106.822 77.252c-13.346 0-28.387 5.257-40.233 14.062-0.82 0.609-1.615 1.23-2.389 1.859v24.322c7.006-13.687 26.547-24.261 42.622-24.261v-7.992z"/>
    <path d="m106.822 151.851c-13.348 0-28.388 5.255-40.233 14.058-0.82 0.609-1.615 1.23-2.389 1.859v24.327c7.006-13.687 26.547-24.261 42.622-24.261v-7.992z"/>
    <path d="m106.822 226.44c-13.346 0-28.387 5.257-40.233 14.062-0.82 0.609-1.615 1.23-2.389 1.859v24.322c7.006-13.687 26.547-24.261 42.622-24.261v-7.992z"/>
    <path d="m106.822 301.029c-13.346 0-28.387 5.257-40.233 14.062-0.82 0.609-1.615 1.23-2.389 1.859v24.322c7.006-13.687 26.547-24.261 42.622-24.261v-7.992z"/>
   </g>
   <g stroke-width=".26458332">
    <path d="m174.13069 116.43555h-28.19215c-1.16787 0-2.11455-0.94668-2.11455-2.11455s0.94642-2.11455 2.11455-2.11455h28.19215c1.16787 0 2.11455 0.94641 2.11455 2.11455 0 1.16813-0.94668 2.11455-2.11455 2.11455z" fill="#ccd1d9"/>
    <path d="m168.49242 123.48378v4.22884 1.4097c0 1.16284-0.90276 1.81345-2.00607 1.44568l-4.4458-1.48166c-1.10331-0.36778-2.90883-0.36778-4.01187 0l-4.4458 1.48166c-1.10331 0.36777-2.00607-0.28284-2.00607-1.44568v-1.40679-13.39427h14.80106c1.16284 0 2.11455 5.3e-4 2.11455 1e-3v2.11587z" fill="#ed5565"/>
    <rect x="216.41957" y="105.15716" width="8.4587288" height="18.325043" fill="#ccd1d9"/>
   </g>
  </g>
  <g transform="matrix(.39866447 0 0 .3962094 -18.3503 265.07994)">
   <g stroke-width=".26458332">
    <path d="m142.41403 105.15848h82.46374c3.1152 0 5.63854-2.52333 5.63854-5.638538v-98.67714665c0-3.11811455-2.52334-5.63853535-5.63854-5.63853535h-84.57803c-6.22776 0-11.27707 5.04930827-11.27707 11.2770707v107.8401993c0 7.38399 6.00736 13.39162 13.39162 13.39162h85.98773c1.16787 0 2.11455-0.94668 2.11455-2.11455s-0.94641-2.11455-2.11455-2.11455h-85.98799c-5.05249 0-9.16252-4.1103-9.16252-9.16252 0-5.05275 4.1103-9.16305 9.16252-9.16305z" fill="#fbc02d"/>
    <path d="m140.29974 101.09818v-105.89392c-6.22776 0-11.27707 5.04930827-11.27707 11.2770707v107.8401993c0-6.66486 4.89426-12.20629 11.27707-13.22335z" fill="#fab70f"/>
    <path d="m142.41403 105.15848c-5.05249 0-9.16252 4.1103-9.16252 9.16252 0 5.05248 4.1103 9.16252 9.16252 9.16252h82.46374v-18.32531z" fill="#e6e9ed"/>
   </g>
   <g transform="matrix(.26458333 0 0 .26458333 112.03642 -4.79574)" fill="#a97a03">
    <path d="m106.822 77.252c-13.346 0-28.387 5.257-40.233 14.062-0.82 0.609-1.615 1.23-2.389 1.859v24.322c7.006-13.687 26.547-24.261 42.622-24.261v-7.992z"/>
    <path d="m106.822 151.851c-13.348 0-28.388 5.255-40.233 14.058-0.82 0.609-1.615 1.23-2.389 1.859v24.327c7.006-13.687 26.547-24.261 42.622-24.261v-7.992z"/>
    <path d="m106.822 226.44c-13.346 0-28.387 5.257-40.233 14.062-0.82 0.609-1.615 1.23-2.389 1.859v24.322c7.006-13.687 26.547-24.261 42.622-24.261v-7.992z"/>
    <path d="m106.822 301.029c-13.346 0-28.387 5.257-40.233 14.062-0.82 0.609-1.615 1.23-2.389 1.859v24.322c7.006-13.687 26.547-24.261 42.622-24.261v-7.992z"/>
   </g>
   <g stroke-width=".26458332">
    <path d="m174.13069 116.43555h-28.19215c-1.16787 0-2.11455-0.94668-2.11455-2.11455s0.94642-2.11455 2.11455-2.11455h28.19215c1.16787 0 2.11455 0.94641 2.11455 2.11455 0 1.16813-0.94668 2.11455-2.11455 2.11455z" fill="#ccd1d9"/>
    <path d="m168.49242 123.48378v4.22884 1.4097c0 1.16284-0.90276 1.81345-2.00607 1.44568l-4.4458-1.48166c-1.10331-0.36778-2.90883-0.36778-4.01187 0l-4.4458 1.48166c-1.10331 0.36777-2.00607-0.28284-2.00607-1.44568v-1.40679-13.39427h14.80106c1.16284 0 2.11455 5.3e-4 2.11455 1e-3v2.11587z" fill="#ed5565"/>
    <rect x="216.41957" y="105.15716" width="8.4587288" height="18.325043" fill="#ccd1d9"/>
   </g>
  </g>
  <g transform="matrix(.39866447 0 0 .3962094 38.3341 265.07994)">
   <g stroke-width=".26458332">
    <path d="m142.41403 105.15848h82.46374c3.1152 0 5.63854-2.52333 5.63854-5.638538v-98.67714665c0-3.11811455-2.52334-5.63853535-5.63854-5.63853535h-84.57803c-6.22776 0-11.27707 5.04930827-11.27707 11.2770707v107.8401993c0 7.38399 6.00736 13.39162 13.39162 13.39162h85.98773c1.16787 0 2.11455-0.94668 2.11455-2.11455s-0.94641-2.11455-2.11455-2.11455h-85.98799c-5.05249 0-9.16252-4.1103-9.16252-9.16252 0-5.05275 4.1103-9.16305 9.16252-9.16305z" fill="#fbc02d"/>
    <path d="m140.29974 101.09818v-105.89392c-6.22776 0-11.27707 5.04930827-11.27707 11.2770707v107.8401993c0-6.66486 4.89426-12.20629 11.27707-13.22335z" fill="#fab70f"/>
    <path d="m142.41403 105.15848c-5.05249 0-9.16252 4.1103-9.16252 9.16252 0 5.05248 4.1103 9.16252 9.16252 9.16252h82.46374v-18.32531z" fill="#e6e9ed"/>
   </g>
   <g transform="matrix(.26458333 0 0 .26458333 112.03642 -4.79574)" fill="#a97a03">
    <path d="m106.822 77.252c-13.346 0-28.387 5.257-40.233 14.062-0.82 0.609-1.615 1.23-2.389 1.859v24.322c7.006-13.687 26.547-24.261 42.622-24.261v-7.992z"/>
    <path d="m106.822 151.851c-13.348 0-28.388 5.255-40.233 14.058-0.82 0.609-1.615 1.23-2.389 1.859v24.327c7.006-13.687 26.547-24.261 42.622-24.261v-7.992z"/>
    <path d="m106.822 226.44c-13.346 0-28.387 5.257-40.233 14.062-0.82 0.609-1.615 1.23-2.389 1.859v24.322c7.006-13.687 26.547-24.261 42.622-24.261v-7.992z"/>
    <path d="m106.822 301.029c-13.346 0-28.387 5.257-40.233 14.062-0.82 0.609-1.615 1.23-2.389 1.859v24.322c7.006-13.687 26.547-24.261 42.622-24.261v-7.992z"/>
   </g>
   <g stroke-width=".26458332">
    <path d="m174.13069 116.43555h-28.19215c-1.16787 0-2.11455-0.94668-2.11455-2.11455s0.94642-2.11455 2.11455-2.11455h28.19215c1.16787 0 2.11455 0.94641 2.11455 2.11455 0 1.16813-0.94668 2.11455-2.11455 2.11455z" fill="#ccd1d9"/>
    <path d="m168.49242 123.48378v4.22884 1.4097c0 1.16284-0.90276 1.81345-2.00607 1.44568l-4.4458-1.48166c-1.10331-0.36778-2.90883-0.36778-4.01187 0l-4.4458 1.48166c-1.10331 0.36777-2.00607-0.28284-2.00607-1.44568v-1.40679-13.39427h14.80106c1.16284 0 2.11455 5.3e-4 2.11455 1e-3v2.11587z" fill="#ed5565"/>
    <rect x="216.41957" y="105.15716" width="8.4587288" height="18.325043" fill="#ccd1d9"/>
   </g>
  </g>
  <g transform="matrix(.39866447 0 0 .3962094 95.0185 265.07994)">
   <g stroke-width=".26458332">
    <path d="m142.41403 105.15848h82.46374c3.1152 0 5.63854-2.52333 5.63854-5.638538v-98.67714665c0-3.11811455-2.52334-5.63853535-5.63854-5.63853535h-84.57803c-6.22776 0-11.27707 5.04930827-11.27707 11.2770707v107.8401993c0 7.38399 6.00736 13.39162 13.39162 13.39162h85.98773c1.16787 0 2.11455-0.94668 2.11455-2.11455s-0.94641-2.11455-2.11455-2.11455h-85.98799c-5.05249 0-9.16252-4.1103-9.16252-9.16252 0-5.05275 4.1103-9.16305 9.16252-9.16305z" fill="#fbc02d"/>
    <path d="m140.29974 101.09818v-105.89392c-6.22776 0-11.27707 5.04930827-11.27707 11.2770707v107.8401993c0-6.66486 4.89426-12.20629 11.27707-13.22335z" fill="#fab70f"/>
    <path d="m142.41403 105.15848c-5.05249 0-9.16252 4.1103-9.16252 9.16252 0 5.05248 4.1103 9.16252 9.16252 9.16252h82.46374v-18.32531z" fill="#e6e9ed"/>
   </g>
   <g transform="matrix(.26458333 0 0 .26458333 112.03642 -4.79574)" fill="#a97a03">
    <path d="m106.822 77.252c-13.346 0-28.387 5.257-40.233 14.062-0.82 0.609-1.615 1.23-2.389 1.859v24.322c7.006-13.687 26.547-24.261 42.622-24.261v-7.992z"/>
    <path d="m106.822 151.851c-13.348 0-28.388 5.255-40.233 14.058-0.82 0.609-1.615 1.23-2.389 1.859v24.327c7.006-13.687 26.547-24.261 42.622-24.261v-7.992z"/>
    <path d="m106.822 226.44c-13.346 0-28.387 5.257-40.233 14.062-0.82 0.609-1.615 1.23-2.389 1.859v24.322c7.006-13.687 26.547-24.261 42.622-24.261v-7.992z"/>
    <path d="m106.822 301.029c-13.346 0-28.387 5.257-40.233 14.062-0.82 0.609-1.615 1.23-2.389 1.859v24.322c7.006-13.687 26.547-24.261 42.622-24.261v-7.992z"/>
   </g>
   <g stroke-width=".26458332">
    <path d="m174.13069 116.43555h-28.19215c-1.16787 0-2.11455-0.94668-2.11455-2.11455s0.94642-2.11455 2.11455-2.11455h28.19215c1.16787 0 2.11455 0.94641 2.11455 2.11455 0 1.16813-0.94668 2.11455-2.11455 2.11455z" fill="#ccd1d9"/>
    <path d="m168.49242 123.48378v4.22884 1.4097c0 1.16284-0.90276 1.81345-2.00607 1.44568l-4.4458-1.48166c-1.10331-0.36778-2.90883-0.36778-4.01187 0l-4.4458 1.48166c-1.10331 0.36777-2.00607-0.28284-2.00607-1.44568v-1.40679-13.39427h14.80106c1.16284 0 2.11455 5.3e-4 2.11455 1e-3v2.11587z" fill="#ed5565"/>
    <rect x="216.41957" y="105.15716" width="8.4587288" height="18.325043" fill="#ccd1d9"/>
   </g>
  </g>
  <g transform="matrix(.39866447 0 0 .3962094 151.7028 265.07994)">
   <g stroke-width=".26458332">
    <path d="m142.41403 105.15848h82.46374c3.1152 0 5.63854-2.52333 5.63854-5.638538v-98.67714665c0-3.11811455-2.52334-5.63853535-5.63854-5.63853535h-84.57803c-6.22776 0-11.27707 5.04930827-11.27707 11.2770707v107.8401993c0 7.38399 6.00736 13.39162 13.39162 13.39162h85.98773c1.16787 0 2.11455-0.94668 2.11455-2.11455s-0.94641-2.11455-2.11455-2.11455h-85.98799c-5.05249 0-9.16252-4.1103-9.16252-9.16252 0-5.05275 4.1103-9.16305 9.16252-9.16305z" fill="#fbc02d"/>
    <path d="m140.29974 101.09818v-105.89392c-6.22776 0-11.27707 5.04930827-11.27707 11.2770707v107.8401993c0-6.66486 4.89426-12.20629 11.27707-13.22335z" fill="#fab70f"/>
    <path d="m142.41403 105.15848c-5.05249 0-9.16252 4.1103-9.16252 9.16252 0 5.05248 4.1103 9.16252 9.16252 9.16252h82.46374v-18.32531z" fill="#e6e9ed"/>
   </g>
   <g transform="matrix(.26458333 0 0 .26458333 112.03642 -4.79574)" fill="#a97a03">
    <path d="m106.822 77.252c-13.346 0-28.387 5.257-40.233 14.062-0.82 0.609-1.615 1.23-2.389 1.859v24.322c7.006-13.687 26.547-24.261 42.622-24.261v-7.992z"/>
    <path d="m106.822 151.851c-13.348 0-28.388 5.255-40.233 14.058-0.82 0.609-1.615 1.23-2.389 1.859v24.327c7.006-13.687 26.547-24.261 42.622-24.261v-7.992z"/>
    <path d="m106.822 226.44c-13.346 0-28.387 5.257-40.233 14.062-0.82 0.609-1.615 1.23-2.389 1.859v24.322c7.006-13.687 26.547-24.261 42.622-24.261v-7.992z"/>
    <path d="m106.822 301.029c-13.346 0-28.387 5.257-40.233 14.062-0.82 0.609-1.615 1.23-2.389 1.859v24.322c7.006-13.687 26.547-24.261 42.622-24.261v-7.992z"/>
   </g>
   <g stroke-width=".26458332">
    <path d="m174.13069 116.43555h-28.19215c-1.16787 0-2.11455-0.94668-2.11455-2.11455s0.94642-2.11455 2.11455-2.11455h28.19215c1.16787 0 2.11455 0.94641 2.11455 2.11455 0 1.16813-0.94668 2.11455-2.11455 2.11455z" fill="#ccd1d9"/>
    <path d="m168.49242 123.48378v4.22884 1.4097c0 1.16284-0.90276 1.81345-2.00607 1.44568l-4.4458-1.48166c-1.10331-0.36778-2.90883-0.36778-4.01187 0l-4.4458 1.48166c-1.10331 0.36777-2.00607-0.28284-2.00607-1.44568v-1.40679-13.39427h14.80106c1.16284 0 2.11455 5.3e-4 2.11455 1e-3v2.11587z" fill="#ed5565"/>
    <rect x="216.41957" y="105.15716" width="8.4587288" height="18.325043" fill="#ccd1d9"/>
   </g>
  </g>
  <g transform="matrix(.39866447 0 0 .3962094 -75.0346 202.66638)">
   <g stroke-width=".26458332">
    <path d="m142.41403 105.15848h82.46374c3.1152 0 5.63854-2.52333 5.63854-5.638538v-98.67714665c0-3.11811455-2.52334-5.63853535-5.63854-5.63853535h-84.57803c-6.22776 0-11.27707 5.04930827-11.27707 11.2770707v107.8401993c0 7.38399 6.00736 13.39162 13.39162 13.39162h85.98773c1.16787 0 2.11455-0.94668 2.11455-2.11455s-0.94641-2.11455-2.11455-2.11455h-85.98799c-5.05249 0-9.16252-4.1103-9.16252-9.16252 0-5.05275 4.1103-9.16305 9.16252-9.16305z" fill="#fbc02d"/>
    <path d="m140.29974 101.09818v-105.89392c-6.22776 0-11.27707 5.04930827-11.27707 11.2770707v107.8401993c0-6.66486 4.89426-12.20629 11.27707-13.22335z" fill="#fab70f"/>
    <path d="m142.41403 105.15848c-5.05249 0-9.16252 4.1103-9.16252 9.16252 0 5.05248 4.1103 9.16252 9.16252 9.16252h82.46374v-18.32531z" fill="#e6e9ed"/>
   </g>
   <g transform="matrix(.26458333 0 0 .26458333 112.03642 -4.79574)" fill="#a97a03">
    <path d="m106.822 77.252c-13.346 0-28.387 5.257-40.233 14.062-0.82 0.609-1.615 1.23-2.389 1.859v24.322c7.006-13.687 26.547-24.261 42.622-24.261v-7.992z"/>
    <path d="m106.822 151.851c-13.348 0-28.388 5.255-40.233 14.058-0.82 0.609-1.615 1.23-2.389 1.859v24.327c7.006-13.687 26.547-24.261 42.622-24.261v-7.992z"/>
    <path d="m106.822 226.44c-13.346 0-28.387 5.257-40.233 14.062-0.82 0.609-1.615 1.23-2.389 1.859v24.322c7.006-13.687 26.547-24.261 42.622-24.261v-7.992z"/>
    <path d="m106.822 301.029c-13.346 0-28.387 5.257-40.233 14.062-0.82 0.609-1.615 1.23-2.389 1.859v24.322c7.006-13.687 26.547-24.261 42.622-24.261v-7.992z"/>
   </g>
   <g stroke-width=".26458332">
    <path d="m174.13069 116.43555h-28.19215c-1.16787 0-2.11455-0.94668-2.11455-2.11455s0.94642-2.11455 2.11455-2.11455h28.19215c1.16787 0 2.11455 0.94641 2.11455 2.11455 0 1.16813-0.94668 2.11455-2.11455 2.11455z" fill="#ccd1d9"/>
    <path d="m168.49242 123.48378v4.22884 1.4097c0 1.16284-0.90276 1.81345-2.00607 1.44568l-4.4458-1.48166c-1.10331-0.36778-2.90883-0.36778-4.01187 0l-4.4458 1.48166c-1.10331 0.36777-2.00607-0.28284-2.00607-1.44568v-1.40679-13.39427h14.80106c1.16284 0 2.11455 5.3e-4 2.11455 1e-3v2.11587z" fill="#ed5565"/>
    <rect x="216.41957" y="105.15716" width="8.4587288" height="18.325043" fill="#ccd1d9"/>
   </g>
  </g>
  <g transform="matrix(.39866447 0 0 .3962094 -18.3503 202.66638)">
   <g stroke-width=".26458332">
    <path d="m142.41403 105.15848h82.46374c3.1152 0 5.63854-2.52333 5.63854-5.638538v-98.67714665c0-3.11811455-2.52334-5.63853535-5.63854-5.63853535h-84.57803c-6.22776 0-11.27707 5.04930827-11.27707 11.2770707v107.8401993c0 7.38399 6.00736 13.39162 13.39162 13.39162h85.98773c1.16787 0 2.11455-0.94668 2.11455-2.11455s-0.94641-2.11455-2.11455-2.11455h-85.98799c-5.05249 0-9.16252-4.1103-9.16252-9.16252 0-5.05275 4.1103-9.16305 9.16252-9.16305z" fill="#fbc02d"/>
    <path d="m140.29974 101.09818v-105.89392c-6.22776 0-11.27707 5.04930827-11.27707 11.2770707v107.8401993c0-6.66486 4.89426-12.20629 11.27707-13.22335z" fill="#fab70f"/>
    <path d="m142.41403 105.15848c-5.05249 0-9.16252 4.1103-9.16252 9.16252 0 5.05248 4.1103 9.16252 9.16252 9.16252h82.46374v-18.32531z" fill="#e6e9ed"/>
   </g>
   <g transform="matrix(.26458333 0 0 .26458333 112.03642 -4.79574)" fill="#a97a03">
    <path d="m106.822 77.252c-13.346 0-28.387 5.257-40.233 14.062-0.82 0.609-1.615 1.23-2.389 1.859v24.322c7.006-13.687 26.547-24.261 42.622-24.261v-7.992z"/>
    <path d="m106.822 151.851c-13.348 0-28.388 5.255-40.233 14.058-0.82 0.609-1.615 1.23-2.389 1.859v24.327c7.006-13.687 26.547-24.261 42.622-24.261v-7.992z"/>
    <path d="m106.822 226.44c-13.346 0-28.387 5.257-40.233 14.062-0.82 0.609-1.615 1.23-2.389 1.859v24.322c7.006-13.687 26.547-24.261 42.622-24.261v-7.992z"/>
    <path d="m106.822 301.029c-13.346 0-28.387 5.257-40.233 14.062-0.82 0.609-1.615 1.23-2.389 1.859v24.322c7.006-13.687 26.547-24.261 42.622-24.261v-7.992z"/>
   </g>
   <g stroke-width=".26458332">
    <path d="m174.13069 116.43555h-28.19215c-1.16787 0-2.11455-0.94668-2.11455-2.11455s0.94642-2.11455 2.11455-2.11455h28.19215c1.16787 0 2.11455 0.94641 2.11455 2.11455 0 1.16813-0.94668 2.11455-2.11455 2.11455z" fill="#ccd1d9"/>
    <path d="m168.49242 123.48378v4.22884 1.4097c0 1.16284-0.90276 1.81345-2.00607 1.44568l-4.4458-1.48166c-1.10331-0.36778-2.90883-0.36778-4.01187 0l-4.4458 1.48166c-1.10331 0.36777-2.00607-0.28284-2.00607-1.44568v-1.40679-13.39427h14.80106c1.16284 0 2.11455 5.3e-4 2.11455 1e-3v2.11587z" fill="#ed5565"/>
    <rect x="216.41957" y="105.15716" width="8.4587288" height="18.325043" fill="#ccd1d9"/>
   </g>
  </g>
  <g transform="matrix(.39866447 0 0 .3962094 38.3341 202.66638)">
   <g stroke-width=".26458332">
    <path d="m142.41403 105.15848h82.46374c3.1152 0 5.63854-2.52333 5.63854-5.638538v-98.67714665c0-3.11811455-2.52334-5.63853535-5.63854-5.63853535h-84.57803c-6.22776 0-11.27707 5.04930827-11.27707 11.2770707v107.8401993c0 7.38399 6.00736 13.39162 13.39162 13.39162h85.98773c1.16787 0 2.11455-0.94668 2.11455-2.11455s-0.94641-2.11455-2.11455-2.11455h-85.98799c-5.05249 0-9.16252-4.1103-9.16252-9.16252 0-5.05275 4.1103-9.16305 9.16252-9.16305z" fill="#fbc02d"/>
    <path d="m140.29974 101.09818v-105.89392c-6.22776 0-11.27707 5.04930827-11.27707 11.2770707v107.8401993c0-6.66486 4.89426-12.20629 11.27707-13.22335z" fill="#fab70f"/>
    <path d="m142.41403 105.15848c-5.05249 0-9.16252 4.1103-9.16252 9.16252 0 5.05248 4.1103 9.16252 9.16252 9.16252h82.46374v-18.32531z" fill="#e6e9ed"/>
   </g>
   <g transform="matrix(.26458333 0 0 .26458333 112.03642 -4.79574)" fill="#a97a03">
    <path d="m106.822 77.252c-13.346 0-28.387 5.257-40.233 14.062-0.82 0.609-1.615 1.23-2.389 1.859v24.322c7.006-13.687 26.547-24.261 42.622-24.261v-7.992z"/>
    <path d="m106.822 151.851c-13.348 0-28.388 5.255-40.233 14.058-0.82 0.609-1.615 1.23-2.389 1.859v24.327c7.006-13.687 26.547-24.261 42.622-24.261v-7.992z"/>
    <path d="m106.822 226.44c-13.346 0-28.387 5.257-40.233 14.062-0.82 0.609-1.615 1.23-2.389 1.859v24.322c7.006-13.687 26.547-24.261 42.622-24.261v-7.992z"/>
    <path d="m106.822 301.029c-13.346 0-28.387 5.257-40.233 14.062-0.82 0.609-1.615 1.23-2.389 1.859v24.322c7.006-13.687 26.547-24.261 42.622-24.261v-7.992z"/>
   </g>
   <g stroke-width=".26458332">
    <path d="m174.13069 116.43555h-28.19215c-1.16787 0-2.11455-0.94668-2.11455-2.11455s0.94642-2.11455 2.11455-2.11455h28.19215c1.16787 0 2.11455 0.94641 2.11455 2.11455 0 1.16813-0.94668 2.11455-2.11455 2.11455z" fill="#ccd1d9"/>
    <path d="m168.49242 123.48378v4.22884 1.4097c0 1.16284-0.90276 1.81345-2.00607 1.44568l-4.4458-1.48166c-1.10331-0.36778-2.90883-0.36778-4.01187 0l-4.4458 1.48166c-1.10331 0.36777-2.00607-0.28284-2.00607-1.44568v-1.40679-13.39427h14.80106c1.16284 0 2.11455 5.3e-4 2.11455 1e-3v2.11587z" fill="#ed5565"/>
    <rect x="216.41957" y="105.15716" width="8.4587288" height="18.325043" fill="#ccd1d9"/>
   </g>
  </g>
  <g transform="matrix(.39866447 0 0 .3962094 95.0185 202.66638)">
   <g stroke-width=".26458332">
    <path d="m142.41403 105.15848h82.46374c3.1152 0 5.63854-2.52333 5.63854-5.638538v-98.67714665c0-3.11811455-2.52334-5.63853535-5.63854-5.63853535h-84.57803c-6.22776 0-11.27707 5.04930827-11.27707 11.2770707v107.8401993c0 7.38399 6.00736 13.39162 13.39162 13.39162h85.98773c1.16787 0 2.11455-0.94668 2.11455-2.11455s-0.94641-2.11455-2.11455-2.11455h-85.98799c-5.05249 0-9.16252-4.1103-9.16252-9.16252 0-5.05275 4.1103-9.16305 9.16252-9.16305z" fill="#fbc02d"/>
    <path d="m140.29974 101.09818v-105.89392c-6.22776 0-11.27707 5.04930827-11.27707 11.2770707v107.8401993c0-6.66486 4.89426-12.20629 11.27707-13.22335z" fill="#fab70f"/>
    <path d="m142.41403 105.15848c-5.05249 0-9.16252 4.1103-9.16252 9.16252 0 5.05248 4.1103 9.16252 9.16252 9.16252h82.46374v-18.32531z" fill="#e6e9ed"/>
   </g>
   <g transform="matrix(.26458333 0 0 .26458333 112.03642 -4.79574)" fill="#a97a03">
    <path d="m106.822 77.252c-13.346 0-28.387 5.257-40.233 14.062-0.82 0.609-1.615 1.23-2.389 1.859v24.322c7.006-13.687 26.547-24.261 42.622-24.261v-7.992z"/>
    <path d="m106.822 151.851c-13.348 0-28.388 5.255-40.233 14.058-0.82 0.609-1.615 1.23-2.389 1.859v24.327c7.006-13.687 26.547-24.261 42.622-24.261v-7.992z"/>
    <path d="m106.822 226.44c-13.346 0-28.387 5.257-40.233 14.062-0.82 0.609-1.615 1.23-2.389 1.859v24.322c7.006-13.687 26.547-24.261 42.622-24.261v-7.992z"/>
    <path d="m106.822 301.029c-13.346 0-28.387 5.257-40.233 14.062-0.82 0.609-1.615 1.23-2.389 1.859v24.322c7.006-13.687 26.547-24.261 42.622-24.261v-7.992z"/>
   </g>
   <g stroke-width=".26458332">
    <path d="m174.13069 116.43555h-28.19215c-1.16787 0-2.11455-0.94668-2.11455-2.11455s0.94642-2.11455 2.11455-2.11455h28.19215c1.16787 0 2.11455 0.94641 2.11455 2.11455 0 1.16813-0.94668 2.11455-2.11455 2.11455z" fill="#ccd1d9"/>
    <path d="m168.49242 123.48378v4.22884 1.4097c0 1.16284-0.90276 1.81345-2.00607 1.44568l-4.4458-1.48166c-1.10331-0.36778-2.90883-0.36778-4.01187 0l-4.4458 1.48166c-1.10331 0.36777-2.00607-0.28284-2.00607-1.44568v-1.40679-13.39427h14.80106c1.16284 0 2.11455 5.3e-4 2.11455 1e-3v2.11587z" fill="#ed5565"/>
    <rect x="216.41957" y="105.15716" width="8.4587288" height="18.325043" fill="#ccd1d9"/>
   </g>
  </g>
  <g transform="matrix(.39866447 0 0 .3962094 151.7028 202.66638)">
   <g stroke-width=".26458332">
    <path d="m142.41403 105.15848h82.46374c3.1152 0 5.63854-2.52333 5.63854-5.638538v-98.67714665c0-3.11811455-2.52334-5.63853535-5.63854-5.63853535h-84.57803c-6.22776 0-11.27707 5.04930827-11.27707 11.2770707v107.8401993c0 7.38399 6.00736 13.39162 13.39162 13.39162h85.98773c1.16787 0 2.11455-0.94668 2.11455-2.11455s-0.94641-2.11455-2.11455-2.11455h-85.98799c-5.05249 0-9.16252-4.1103-9.16252-9.16252 0-5.05275 4.1103-9.16305 9.16252-9.16305z" fill="#fbc02d"/>
    <path d="m140.29974 101.09818v-105.89392c-6.22776 0-11.27707 5.04930827-11.27707 11.2770707v107.8401993c0-6.66486 4.89426-12.20629 11.27707-13.22335z" fill="#fab70f"/>
    <path d="m142.41403 105.15848c-5.05249 0-9.16252 4.1103-9.16252 9.16252 0 5.05248 4.1103 9.16252 9.16252 9.16252h82.46374v-18.32531z" fill="#e6e9ed"/>
   </g>
   <g transform="matrix(.26458333 0 0 .26458333 112.03642 -4.79574)" fill="#a97a03">
    <path d="m106.822 77.252c-13.346 0-28.387 5.257-40.233 14.062-0.82 0.609-1.615 1.23-2.389 1.859v24.322c7.006-13.687 26.547-24.261 42.622-24.261v-7.992z"/>
    <path d="m106.822 151.851c-13.348 0-28.388 5.255-40.233 14.058-0.82 0.609-1.615 1.23-2.389 1.859v24.327c7.006-13.687 26.547-24.261 42.622-24.261v-7.992z"/>
    <path d="m106.822 226.44c-13.346 0-28.387 5.257-40.233 14.062-0.82 0.609-1.615 1.23-2.389 1.859v24.322c7.006-13.687 26.547-24.261 42.622-24.261v-7.992z"/>
    <path d="m106.822 301.029c-13.346 0-28.387 5.257-40.233 14.062-0.82 0.609-1.615 1.23-2.389 1.859v24.322c7.006-13.687 26.547-24.261 42.622-24.261v-7.992z"/>
   </g>
   <g stroke-width=".26458332">
    <path d="m174.13069 116.43555h-28.19215c-1.16787 0-2.11455-0.94668-2.11455-2.11455s0.94642-2.11455 2.11455-2.11455h28.19215c1.16787 0 2.11455 0.94641 2.11455 2.11455 0 1.16813-0.94668 2.11455-2.11455 2.11455z" fill="#ccd1d9"/>
    <path d="m168.49242 123.48378v4.22884 1.4097c0 1.16284-0.90276 1.81345-2.00607 1.44568l-4.4458-1.48166c-1.10331-0.36778-2.90883-0.36778-4.01187 0l-4.4458 1.48166c-1.10331 0.36777-2.00607-0.28284-2.00607-1.44568v-1.40679-13.39427h14.80106c1.16284 0 2.11455 5.3e-4 2.11455 1e-3v2.11587z" fill="#ed5565"/>
    <rect x="216.41957" y="105.15716" width="8.4587288" height="18.325043" fill="#ccd1d9"/>
   </g>
  </g>
  <g fill="#2196f3" stroke="#fff" stroke-width="1.32291663">
   <g transform="translate(-1159.4178,255.13753)" style="font-feature-settings:normal;font-variant-caps:normal;font-variant-ligatures:normal;font-variant-numeric:normal" aria-label="1">
    <path d="m1160.2649-43.387707-4.4649 0.124024-1.2264 1.005968v4.230577l1.1024-0.509874 0.124 13.339409h4.8232z" fill="#2196f3" stroke="#fff" stroke-width="1.32291663" style="font-feature-settings:normal;font-variant-caps:normal;font-variant-ligatures:normal;font-variant-numeric:normal"/>
   </g>
   <g transform="translate(-1140.8794,253.63007)" style="font-feature-settings:normal;font-variant-caps:normal;font-variant-ligatures:normal;font-variant-numeric:normal" aria-label="2">
    <path d="m1201.0502-41.169313q-4.1479-2.52181-7.717-0.04134-1.7915 1.309136-3.1557 3.23839l2.7836 3.527777q0.3583-0.578776 1.006-1.074869 1.4331-1.43316 2.8801-1.129992 0.813 0.179145 0.6614 1.102431-0.124 0.785482-0.9232 2.053277-1.5021 2.356445-3.6656 3.789605-0.9371 0.799262-1.7364 1.405598l-0.3307 4.878256 11.2035 0.234266 0.014-4.671549-5.6637 0.261827q2.6872-2.480469 4.6027-5.40191 1.6812-2.54937 1.8741-4.478624 0.2618-2.411566-1.8328-3.693142z" fill="#2196f3" stroke="#fff" stroke-width="1.32291663" style="font-feature-settings:normal;font-variant-caps:normal;font-variant-ligatures:normal;font-variant-numeric:normal"/>
   </g>
   <g transform="translate(-1118.3928,253.35103)" style="font-feature-settings:normal;font-variant-caps:normal;font-variant-ligatures:normal;font-variant-numeric:normal" aria-label="3">
    <path d="m1224.1829-41.348458 0.1241 4.203017 5.3054-0.124024-4.4648 3.23839q1.2264-0.179145 2.4115 0.137804 2.3978 0.633897 2.3289 3.128146-0.083 2.50803-2.4115 2.466688-1.1714-0.02756-2.3289-0.551215l-1.0887 4.492405q1.9844 0.633897 4.3271 0.675238 4.6439 0.09646 6.3527-2.824978 2.3427-4.023871-0.041-6.807508-1.1989-1.391819-2.7423-2.122179l4.768-5.856662z" fill="#2196f3" stroke="#fff" stroke-width="1.32291663" style="font-feature-settings:normal;font-variant-caps:normal;font-variant-ligatures:normal;font-variant-numeric:normal"/>
   </g>
   <g transform="translate(-1097.2509,252.24356)" style="font-feature-settings:normal;font-variant-caps:normal;font-variant-ligatures:normal;font-variant-numeric:normal" aria-label="4">
    <path d="m1267.173-34.513513h-2.8801l0.124-6.173611-4.7542 0.137803v10.004557l7.2485 0.261828-0.5237 8.033962 4.9885 0.124024 0.3996-18.562174h-4.4786z" fill="#2196f3" stroke="#fff" stroke-width="1.32291663" style="font-feature-settings:normal;font-variant-caps:normal;font-variant-ligatures:normal;font-variant-numeric:normal"/>
   </g>
   <g transform="translate(-1076.3954,254.52317)" style="font-feature-settings:normal;font-variant-caps:normal;font-variant-ligatures:normal;font-variant-numeric:normal" aria-label="5">
    <path d="m1299.4831-38.523355 7.2347 0.303169 0.4272-4.065213-11.1759-0.427192 0.1791 8.516276q1.7088-0.35829 3.1833-0.220486 2.949 0.289388 3.0179 2.797417 0.083 2.52181-2.4805 2.86632-1.2816 0.179145-2.5907-0.151585l-0.248 4.161676q2.7285 0.330729 5.4294-0.35829 5.3882-1.350478 5.1263-6.380317-0.2342-5.029839-4.2168-6.035807-1.9706-0.633898-3.9136-0.124023z" fill="#2196f3" stroke="#fff" stroke-width="1.32291663" style="font-feature-settings:normal;font-variant-caps:normal;font-variant-ligatures:normal;font-variant-numeric:normal"/>
   </g>
   <g transform="translate(-1330.5897,315.06728)" style="font-feature-settings:normal;font-variant-caps:normal;font-variant-ligatures:normal;font-variant-numeric:normal" aria-label="6">
    <path d="m1329.0109-27.623323q-0.4823 0.04134-0.7441-0.248047-0.2343-0.248046-0.2343-0.647677 0-0.399632 0.193-0.71658 0.2067-0.330729 0.5374-0.385851 0.7855-0.137804 1.1713 0.137804 0.3445 0.234266 0.3032 0.675239-0.041 0.413411-0.3721 0.757921-0.3583 0.37207-0.8544 0.427191zm-0.3307-6.297634q-0.1653-0.578776 0.1654-1.061089 0.689-0.978407 3.2246-0.537435l0.7304-4.285699q-0.6339-0.316949-1.7639-0.399631-2.2738-0.137804-4.7543 1.07487-1.2953 0.633897-2.4667 3.017903-1.1989 2.466689-1.4193 5.140083-0.2343 3.073025 1.0335 5.126302 1.4883 2.425347 4.8645 2.962782 2.9214 0.468533 4.892-1.157552 1.7777-1.460721 1.9844-3.844727 0.2067-2.397786-1.3643-4.092773-1.7777-1.915473-5.1263-1.943034z" fill="#2196f3" stroke="#fff" stroke-width="1.32291663" style="font-feature-settings:normal;font-variant-caps:normal;font-variant-ligatures:normal;font-variant-numeric:normal"/>
   </g>
   <g transform="translate(-1303.1729,313.04921)" style="font-feature-settings:normal;font-variant-caps:normal;font-variant-ligatures:normal;font-variant-numeric:normal" aria-label="7">
    <path d="m1352.7918-32.804996 4.4787-0.124023-4.1204 11.685763 5.5397 0.468533 6.0221-17.445963-12.1543 0.124024z" fill="#2196f3" stroke="#fff" stroke-width="1.32291663" style="font-feature-settings:normal;font-variant-caps:normal;font-variant-ligatures:normal;font-variant-numeric:normal"/>
   </g>
   <g transform="translate(-1281.352,313.05543)" style="font-feature-settings:normal;font-variant-caps:normal;font-variant-ligatures:normal;font-variant-numeric:normal" aria-label="8">
    <path d="m1393.963-25.942366q-0.4547 0-0.7441-0.261827-0.248-0.220486-0.2894-0.564996-0.027-0.330729 0.1929-0.551215 0.2205-0.261827 0.6753-0.275607 0.6201-0.01378 0.9508 0.248046 0.2756 0.220486 0.2618 0.564996-0.014 0.330729-0.2893 0.578776-0.3032 0.261827-0.758 0.261827zm-0.5512-9.03993q0.441-0.09646 0.7028 0.0689 0.2343 0.165365 0.2481 0.468533 0.014 0.303168-0.1792 0.509874-0.2342 0.261827-0.6339 0.261827-0.3996 0-0.6339-0.179145-0.2342-0.151584-0.248-0.38585-0.069-0.551216 0.7441-0.744141zm3.3349 3.748264q1.0197-1.915473 1.1575-3.872287 0.317-3.899848-4.079-4.065213-1.695-0.0689-2.9765 0.840603-1.1714 0.826823-1.6812 2.204861-0.4823 1.364258-0.1378 2.673394 0.372 1.405599 1.5985 2.218642-1.1162 0.895725-2.0671 2.218641-1.9154 2.632053-1.1575 4.781793 0.6614 1.887912 2.2324 3.073025 1.4745 1.08865 3.3486 1.309136 1.8466 0.220486 3.514-0.496094 1.7639-0.771701 2.7699-2.397786 1.8052-2.907661-0.1792-5.994466-0.9921-1.543403-2.3426-2.494249z" fill="#2196f3" stroke="#fff" stroke-width="1.32291663" style="font-feature-settings:normal;font-variant-caps:normal;font-variant-ligatures:normal;font-variant-numeric:normal"/>
   </g>
   <g transform="translate(-1261.4719,312.91584)" style="font-feature-settings:normal;font-variant-caps:normal;font-variant-ligatures:normal;font-variant-numeric:normal" aria-label="9">
    <path d="m1429.9663-31.220252q-0.7855 0.124024-1.1714-0.137804-0.3445-0.234266-0.3031-0.675238 0.027-0.413412 0.372-0.771702 0.3583-0.35829 0.8544-0.413411 0.4823-0.04134 0.7441 0.248047 0.2343 0.234266 0.2343 0.647678 0 0.38585-0.1929 0.702799-0.2205 0.34451-0.5374 0.399631zm0.4685-6.752387q-2.9215-0.468533-4.892 1.157552-1.7777 1.474501-1.9844 3.844727-0.2067 2.411566 1.3642 4.106553 1.7777 1.915473 5.1263 1.943034 0.1654 0.564996-0.1653 1.06109-0.689 0.978407-3.2246 0.523654l-0.7304 4.299479q0.6339 0.316949 1.7639 0.399631 2.2738 0.137804 4.7542-1.07487 1.2954-0.633897 2.4667-3.017903 1.1989-2.466688 1.4056-5.140082 0.2481-3.086806-1.0197-5.140083-1.4883-2.411567-4.8645-2.962782z" fill="#2196f3" stroke="#fff" stroke-width="1.32291663" style="font-feature-settings:normal;font-variant-caps:normal;font-variant-ligatures:normal;font-variant-numeric:normal"/>
   </g>
   <g transform="translate(-1239.2407,309.64336)" style="font-feature-settings:normal;font-variant-caps:normal;font-variant-ligatures:normal;font-variant-numeric:normal" aria-label="10">
    <path d="m1460.0862-34.955233-4.4649 0.124024-1.2264 1.005968v4.230577l1.1024-0.509874 0.124 13.339409h4.8232z" style="font-feature-settings:normal;font-variant-caps:normal;font-variant-ligatures:normal;font-variant-numeric:normal"/>
    <path d="m1468.1477-23.090324q-0.441 0.08268-0.7028-0.647678-0.2343-0.661458-0.248-1.681206-0.014-1.005968 0.1929-1.694987 0.2343-0.771702 0.6339-0.71658 0.7441 0.08268 1.0886 0.799262 0.3032 0.633897 0.2343 1.570963-0.069 0.868164-0.3996 1.557183-0.3445 0.71658-0.7993 0.813043zm-0.8682-12.471245q-2.0119 0.124023-3.8033 2.935221-1.7226 2.728516-2.1911 6.228732-0.5099 3.803386 0.8544 6.380317 1.5985 3.004123 5.3881 3.389974 3.8034 0.399631 5.7877-2.549371 1.7502-2.604492 1.5021-6.683485-0.2343-3.98253-2.2049-6.793728-2.1497-3.073025-5.333-2.90766z" style="font-feature-settings:normal;font-variant-caps:normal;font-variant-ligatures:normal;font-variant-numeric:normal"/>
   </g>
  </g>
 </g>
</svg>
