<?xml version="1.0" encoding="UTF-8"?>
<!-- Created with Inkscape (http://www.inkscape.org/) -->
<svg width="512" height="511.99997" version="1.1" viewBox="0 0 135.46667 135.46666" xmlns="http://www.w3.org/2000/svg" xmlns:cc="http://creativecommons.org/ns#" xmlns:dc="http://purl.org/dc/elements/1.1/" xmlns:rdf="http://www.w3.org/1999/02/22-rdf-syntax-ns#">
 <metadata>
  <rdf:RDF>
   <cc:Work rdf:about="">
    <dc:format>image/svg+xml</dc:format>
    <dc:type rdf:resource="http://purl.org/dc/dcmitype/StillImage"/>
    <dc:title/>
   </cc:Work>
  </rdf:RDF>
 </metadata>
 <g transform="translate(-68.724795,34.28183)">
  <rect x="68.7248" y="-34.28183" width="135.46666" height="135.46666" ry="0" opacity="0" stroke-width="1.76236665"/>
  <g transform="matrix(.36450878 0 0 .36450878 127.16029 -66.589975)">
   <g stroke-width=".26458332">
    <path d="m145.03217 158.4225c-2.91465-6.38096-10.44681-9.18581-16.83015-6.27142-10.38913 4.75006-23.54791 7.36494-37.054098 7.36494-0.02381 0-0.04657-2e-3 -0.07038-2e-3v25.4c0.02381 0 0.04657 2e-3 0.07038 2e-3 17.317768 0 33.783848-3.34248 47.612568-9.66338 6.37936-2.91676 9.18633-10.4513 6.27168-16.83014z" fill="#aa7135"/>
    <circle transform="scale(-1,1)" cx="-133.48099" cy="163.74857" r="8.4666662" fill="#d5b99b"/>
    <path d="m119.25249 185.32507 5.597 3.58854c6.37064-5.65759 14.80423-7.01622 20.3245-2.72442 6.46059 5.02285 6.46271 15.82738 5e-3 24.13397-3.85392 4.95829-9.66867 8.45953-15.93083 8.45953-2.17249 0-4.57174-0.70141-6.32301-1.74705l-17.76677-10.66218c-7.752031-4.58761 5.61101-26.19586 14.09409-21.04839z" fill="#aa7135"/>
    <path d="m126.41132 196.34364c5.84359-7.51576 14.94393-10.3468 21.41485-7.10856 3.55626 5.60176 2.72018 14.18457-2.64689 21.08808-5.84359 7.51576-14.94473 10.346-21.41485 7.1075-3.55547-5.60122-2.71939-14.18404 2.64689-21.08702z" fill="#d5b99b"/>
    <path d="m37.122914 158.4225c2.91465-6.38096 10.446809-9.18581 16.830146-6.27142 10.389129 4.75006 23.547916 7.36494 37.054102 7.36494 0.02381 0 0.04657-2e-3 0.07038-2e-3v25.4c-0.02381 0-0.04657 2e-3 -0.07038 2e-3 -17.317773 0-33.783852-3.34248-47.612564-9.66338-6.379369-2.91676-9.186334-10.4513-6.271684-16.83014z" fill="#aa7135"/>
    <circle cx="91.015892" cy="180.68188" r="29.633333" fill="#aa7135"/>
    <ellipse cx="91.015892" cy="180.68188" rx="16.539633" ry="21.166666" fill="#d5b99b"/>
   </g>
   <g transform="matrix(.26458333 0 0 .26458333 31.739702 100.24856)" fill="#aa7135">
    <circle cx="320.03601" cy="64" r="64"/>
    <circle cx="128.004" cy="64" r="64"/>
   </g>
   <g transform="matrix(.26458333 0 0 .26458333 31.739702 100.24856)" fill="#d5b99b">
    <circle cx="128.004" cy="64" r="32"/>
    <circle cx="320.03601" cy="64" r="32"/>
   </g>
   <circle cx="91.015892" cy="136.23189" r="31.75" fill="#aa7135" stroke-width=".26458332"/>
   <g transform="matrix(.26458333 0 0 .26458333 31.739702 100.24856)" fill="#231f20">
    <circle cx="176.004" cy="112" r="16"/>
    <circle cx="272.03601" cy="112" r="16"/>
   </g>
   <g stroke-width=".26458332">
    <circle cx="91.015892" cy="146.81523" r="16.933332" fill="#d5b99b"/>
    <circle cx="91.015892" cy="142.58189" r="4.2333331" fill="#231f20"/>
    <circle cx="48.674091" cy="163.74857" r="8.4666662" fill="#d5b99b"/>
    <path d="m103.81432 164.03669c1.87457-0.91096 4.0558 0.45429 4.0558 2.53841v9.90442c0 2.08412-2.18149 3.44937-4.0558 2.53841l-12.877537-4.61486v-5.69966z" fill="#d64231"/>
    <path d="m91.029387 165.88295c-1.455209 0-2.753254 0.5887-3.753644 1.49384l-9.217025-3.34036c-1.873779-0.91096-4.055533 0.45429-4.055533 2.53841v9.90441c0 2.08465 2.181754 3.4499 4.055533 2.53841l9.252215-3.31549c0.997479 0.88847 2.27912 1.4695 3.718454 1.4695 3.118114 0 5.64515-2.52678 5.64515-5.6441 0-3.11758-2.526771-5.64462-5.64515-5.64462z" fill="#d64231"/>
    <path d="m62.902591 185.32507-5.596996 3.58854c-6.370637-5.65759-14.804231-7.01622-20.324497-2.72442-6.460596 5.02285-6.462713 15.82738-5e-3 24.13397 3.85392 4.95829 9.668668 8.45953 15.930827 8.45953 2.172493 0 4.571735-0.70141 6.323012-1.74705l17.766771-10.66218c7.752027-4.58761-5.611019-26.19586-14.09409-21.04839z" fill="#aa7135"/>
    <path d="m55.74376 196.34364c-5.843587-7.51576-14.943931-10.3468-21.414846-7.10856-3.556264 5.60176-2.720181 14.18457 2.646892 21.08808 5.843588 7.51576 14.944725 10.346 21.414846 7.1075 3.55547-5.60122 2.719387-14.18404-2.646892-21.08702z" fill="#d5b99b"/>
   </g>
  </g>
  <g transform="translate(-13.057196,-1.1710073)">
   <g transform="matrix(.09675326 0 0 .09675326 118.39649 24.472795)" fill="#ddb185">
    <path d="m130.942 286.449v195.879c0 8.545 7.041 15.475 15.729 15.475h218.655c8.688 0 15.731-6.93 15.731-15.475v-195.879z"/>
    <ellipse cx="105.733" cy="69.632004" rx="59.196999" ry="58.231998"/>
   </g>
   <g stroke-width=".09675325">
    <path d="m128.62592 33.955c-1.53866 0-2.79026-1.231378-2.79026-2.744792 0-1.513607 1.25169-2.744985 2.79026-2.744985 1.53848 0 2.79017 1.231473 2.79017 2.744985 1e-4 1.513414-1.2516 2.744792-2.79017 2.744792z" fill="#fff"/>
    <ellipse cx="157.70406" cy="31.209919" rx="5.7275996" ry="5.6341357" fill="#ddb185"/>
    <path d="m157.70444 33.955c-1.53867 0-2.79037-1.231378-2.79037-2.744792 0-1.513607 1.2517-2.744985 2.79037-2.744985 1.53876 0 2.79046 1.231473 2.79046 2.744985 1e-4 1.513414-1.2516 2.744792-2.79046 2.744792z" fill="#fff"/>
    <ellipse cx="143.16522" cy="41.765503" rx="17.57881" ry="17.292709" fill="#edd7be"/>
    <path d="m149.86171 51.871384c0 3.638309-2.99799 6.587638-6.69648 6.587638-3.69869 0-6.69668-2.949329-6.69668-6.587638v-3.443547c0-3.638404 2.99799-6.587736 6.69668-6.587736 3.69849 0 6.69648 2.949332 6.69648 6.587736z" fill="#fff"/>
    <path d="m143.16523 71.718959c-0.39862 0-0.78041-0.158966-1.06138-0.440515l-10.35976-10.371853c-1.46485-1.463879-2.27148-3.412004-2.27148-5.483297 0-2.072168 0.80663-4.019905 2.27148-5.485524 1.46426-1.46465 3.41181-2.271381 5.48291-2.271381 2.0709 0 4.01845 0.806632 5.4831 2.271381l0.45503 0.455708 0.45523-0.455708c1.46426-1.46465 3.41142-2.271381 5.48339-2.271381 2.07013 0 4.01768 0.806632 5.48214 2.271381 1.46455 1.465619 2.27167 3.413356 2.27167 5.485524 0 2.071293-0.80693 4.019418-2.27167 5.484361l-10.35879 10.370979c-0.28185 0.281458-0.66344 0.440325-1.06187 0.440325z" fill="#ff8163"/>
   </g>
   <g transform="matrix(.09675326 0 0 .09675326 118.39649 24.472795)" fill="#edd7be">
    <path d="m362.364 333.07c0 17.522 14.435 31.722 32.246 31.722 17.81 0 32.249-14.201 32.249-31.722v-21.664c0-17.522-14.438-31.721-32.249-31.721-17.81 0-32.246 14.2-32.246 31.721z"/>
    <path d="m80.952 333.07c0 17.522 14.437 31.722 32.248 31.722 17.81 0 32.249-14.201 32.249-31.722v-21.664c0-17.522-14.438-31.721-32.249-31.721-17.81 0-32.248 14.2-32.248 31.721v21.664z"/>
   </g>
   <path d="m145.60041 43.412342c0 1.116243-0.91993 2.021078-2.05455 2.021078h-0.76097c-1.13501 0-2.05455-0.904835-2.05455-2.021078 0-1.116532 0.91964-2.021367 2.05455-2.021367h0.76097c1.13462 0 2.05455 0.904835 2.05455 2.021367z" fill="#8c6239" stroke-width=".09675325"/>
   <path d="m137.14514 68.859321c0 2.844934-2.34442 5.151142-5.23667 5.151142-2.89195 0-5.23658-2.306113-5.23658-5.151142v-2.326627c0-2.844934 2.34443-5.151335 5.23658-5.151335 2.89205 0 5.23667 2.306306 5.23667 5.151335z" fill="#edd7be" stroke-width=".09675325"/>
   <g transform="matrix(.09675326 0 0 .09675326 118.39649 24.472795)" fill="#8c6239">
    <path d="m115.273 431.911c-4.465 0-8.083-3.618-8.083-8.083v-1.135c0-4.465 3.618-8.084 8.083-8.084s8.084 3.62 8.084 8.084v1.135c1e-3 4.464-3.618 8.083-8.084 8.083z"/>
    <path d="m164.037 431.911c-4.465 0-8.083-3.618-8.083-8.083v-1.135c0-4.465 3.618-8.084 8.083-8.084s8.084 3.62 8.084 8.084v1.135c1e-3 4.464-3.618 8.083-8.084 8.083z"/>
    <path d="m139.841 422.325c-4.465 0-8.083-3.62-8.083-8.084v-1.132c0-4.465 3.618-8.083 8.083-8.083s8.084 3.618 8.084 8.083v1.132c1e-3 4.464-3.619 8.084-8.084 8.084z"/>
    <ellipse cx="139.64999" cy="462.211" rx="20.884001" ry="20.546"/>
   </g>
   <path d="m160.18277 68.859321c0 2.844934-2.34433 5.151142-5.23667 5.151142-2.89205 0-5.23658-2.306113-5.23658-5.151142v-2.326627c0-2.844934 2.34443-5.151335 5.23658-5.151335s5.23667 2.306306 5.23667 5.151335z" fill="#edd7be" stroke-width=".09675325"/>
   <g transform="matrix(.09675326 0 0 .09675326 118.39649 24.472795)" fill="#8c6239">
    <path d="m353.381 431.911c-4.465 0-8.084-3.618-8.084-8.083v-1.135c0-4.465 3.62-8.084 8.084-8.084 4.465 0 8.083 3.62 8.083 8.084v1.135c1e-3 4.464-3.617 8.083-8.083 8.083z"/>
    <path d="m402.144 431.911c-4.465 0-8.083-3.618-8.083-8.083v-1.135c0-4.465 3.618-8.084 8.083-8.084s8.084 3.62 8.084 8.084v1.135c0 4.464-3.618 8.083-8.084 8.083z"/>
    <path d="m377.951 422.325c-4.465 0-8.083-3.62-8.083-8.084v-1.132c0-4.465 3.618-8.083 8.083-8.083s8.084 3.618 8.084 8.083v1.132c0 4.464-3.62 8.084-8.084 8.084z"/>
    <ellipse cx="377.76099" cy="462.211" rx="20.884001" ry="20.546"/>
   </g>
   <ellipse cx="135.91251" cy="39.912388" rx="1.4756807" ry="1.4730685" fill="#603813" stroke-width=".09675326"/>
   <ellipse cx="150.7233" cy="39.912388" rx="1.475584" ry="1.4730685" fill="#603813" stroke-width=".09675326"/>
   <g transform="matrix(.09675326 0 0 .09675326 118.39649 24.472795)" fill="#fa9">
    <circle cx="145.763" cy="212.114" r="21.943001"/>
    <circle cx="366.23599" cy="212.114" r="21.943001"/>
   </g>
  </g>
  <g transform="translate(95.919474,-40.045461)" stroke-width=".26458332">
   <path d="m-6.8217626 115.4071v13.27679c0 0.73316-0.5924021 1.32768-1.3229166 1.32768h-5.8208338c-0.730514 0-1.322916-0.59452-1.322916-1.32768v-13.27679c0-0.73316 0.592402-1.32768 1.322916-1.32768h5.8208338c0.7305145 0 1.3229166 0.59426 1.3229166 1.32768zm101.8645816-1.32768h-5.820833c-0.730514 0-1.322916 0.59452-1.322916 1.32768v13.27679c0 0.73316 0.592402 1.32768 1.322916 1.32768h5.820833c0.730515 0 1.322917-0.59452 1.322917-1.32768v-13.27679c0-0.73342-0.592402-1.32768-1.322917-1.32768zm-103.1874982-62.826104h-5.8208338c-0.730514 0-1.322916 0.594519-1.322916 1.327679v13.276791c0 0.733161 0.592402 1.32768 1.322916 1.32768h5.8208338c0.7305145 0 1.3229166-0.594519 1.3229166-1.32768v-13.276791c0-0.73316-0.5924021-1.327679-1.3229166-1.327679zm103.1874982 0h-5.820833c-0.730514 0-1.322916 0.594519-1.322916 1.327679v13.276791c0 0.733161 0.592402 1.32768 1.322916 1.32768h5.820833c0.730515 0 1.322917-0.594519 1.322917-1.32768v-13.276791c0-0.73316-0.592402-1.327679-1.322917-1.327679z" fill="#d7af87"/>
   <path d="m108.27199 112.75174v7.96608c0 0.73316-0.59241 1.32768-1.32292 1.32768h-132.820832c-0.730515 0-1.322917-0.59452-1.322917-1.32768v-7.96608c0-0.73316 0.592402-1.32768 1.322917-1.32768h132.820832c0.73051 0 1.32292 0.59426 1.32292 1.32768zm-1.32292-64.153782h-132.820832c-0.730515 0-1.322917 0.594518-1.322917 1.327679v7.966075c0 0.73316 0.592402 1.327679 1.322917 1.327679h132.820832c0.73051 0 1.32292-0.594519 1.32292-1.327679v-7.966075c0-0.733161-0.59241-1.327679-1.32292-1.327679z" fill="#ebc9a0"/>
  </g>
  <g>
   <rect transform="rotate(-15)" x="117.89759" y="113.72681" width="57.607559" height="23.49782" ry="3.7899711" fill="#2196f3"/>
   <rect transform="rotate(-15)" x="121.6142" y="115.2428" width="50.174324" height="20.465843" ry="3.3009427" fill="#fff"/>
  </g>
  <g transform="rotate(-15,-27.391293,-329.56989)" fill="#424242" stroke-width=".26458332" style="font-feature-settings:normal;font-variant-caps:normal;font-variant-ligatures:normal;font-variant-numeric:normal" aria-label="Carlos">
   <path d="m48.717968 115.22325q1.067979 0.12919 1.067979 0.68902l0.03445 0.0344q0 0.3359-0.551215 0.44786h-0.551215q-1.240235 0-1.825901 1.6192-0.826823 1.5589-0.826823 3.8585v0.0689q0 1.49 0.241157 2.65272 0.05168 0.50815 0.792372 1.6881 0.387573 0.58566 0.757921 0.58566l1.378038-0.0689 0.03445 0.13781q0 0.60289-0.895725 0.93017-0.413411 0.10335-0.757921 0.10335h-0.172255q-0.499539 0-1.515842-1.61919-0.310058-0.63734-0.310058-0.82682-0.301446-0.44787-0.551216-4.16857 0.62873-4.37527 1.963705-5.4088 0.91295-0.72347 1.688097-0.72347z" style="font-feature-settings:normal;font-variant-caps:normal;font-variant-ligatures:normal;font-variant-numeric:normal"/>
   <path d="m52.619538 114.72371q0.714858 0.24977 1.240235 0.99908 0.482313 0.88711 0.800984 2.26515 0.327285 1.37804 0.370348 4.00492-0.02584 3.1092-0.198093 3.514 0 1.99816-0.585666 1.99816 0 0.0861-2.695787 0.10335-0.775147 0-1.274686-1.27469-0.137803-0.56844-0.137803-0.99907v-0.17226q0-1.19717 0.999077-2.48047 0.602892-0.68902 1.550293-0.68902l0.757921 0.0345h0.378961l0.03445-0.37896 0.03445-1.72254q0-1.44694-0.930176-3.5829-0.258382-0.31006-0.516764-0.31006h-0.137802q-0.103353 0-0.826823 0.48231h-0.0689q-0.551215-0.25838-0.551215-0.58567v-0.1378q0.904337-1.06798 1.756998-1.06798zm-1.309136 10.26639v0.2756q0 0.76654 0.378961 1.06798h0.0689q1.765612-0.0775 1.800063-0.0861 0.310058-1.54168 0.02584-2.5666-0.275608-0.48231-0.895725-0.48231-0.62873 0-1.309136 1.20578z" style="font-feature-settings:normal;font-variant-caps:normal;font-variant-ligatures:normal;font-variant-numeric:normal"/>
   <path d="m59.234121 116.7477q0.826823 0.28423 1.136882 0.89573l0.03445 0.17225q-0.120578 0.65457-0.551215 0.65457-0.258383 0-0.895725-0.58566h-0.275608q-0.783759 0-1.524455 0.80098-0.740695 0.80099-0.215318 4.87481 0.53399 4.07383-0.07752 3.75516l-0.620117 0.0172q-0.335897-0.16364-0.413411-4.10828-0.0689-3.95324-0.232544-6.11504 0-0.55122 0.72347-0.55122 0.447862 0 0.447862 0.41342l-0.03445 0.51676q0.0689 0.15503 0.137804 0.17226h0.137804q0.792372-0.91296 2.222086-0.91296z" style="font-feature-settings:normal;font-variant-caps:normal;font-variant-ligatures:normal;font-variant-numeric:normal"/>
   <path d="m62.196904 113.38874q0.241157 0 0.482313 0.2067l-0.03445 0.20671-0.37896 10.67979q0 3.23839-0.206706 3.23839-0.266995 0.20671-0.37896 0.20671-0.413412 0-0.516765-0.96463v-0.62011q0-2.48047 0.378961-10.78315 0-2.10151 0.275607-2.10151z" style="font-feature-settings:normal;font-variant-caps:normal;font-variant-ligatures:normal;font-variant-numeric:normal"/>
   <path d="m66.563563 116.50655q1.44694 0.28422 1.44694 0.96463 1.50723 2.24792 0.413412 7.40695-0.689019 1.80006-1.240235 2.30821-0.766533 0.96463-1.515842 0.96463-1.162719 0-1.791449-1.51584l-0.585667-2.89388v-0.51677q0-1.73977 0.585667-4.23746 0.09474-0.13781 0.172254-0.62012 0.809598-1.79145 1.550293-1.79145zm-0.654568 1.27468h-0.0689q-0.404799 0-0.551215 0.65457-0.72347 1.32636-0.72347 2.75608-0.103353 0.25838-0.103353 0.89572v1.17134q0 1.52445 0.551215 3.13503 0.258382 0.51677 0.516764 0.51677 0.413412 0 1.171333-0.99908 0.223931 0 0.72347-1.06798 0.206706-0.74931 0.413411-2.85943 0-2.07567-0.551215-3.34174-0.275607-0.74931-0.447862-0.89573z" style="font-feature-settings:normal;font-variant-caps:normal;font-variant-ligatures:normal;font-variant-numeric:normal"/>
   <path d="m73.048955 114.61175q1.756999 0.26699 1.756999 1.03352 0 0.35313-0.551216 0.51677l-0.964626-0.31006h-0.172255q-0.714857 0-1.205784 0.93018-0.344509 0.93017-0.344509 2.13596 0 1.3522 1.550293 2.20486 1.10243 0.93017 1.44694 1.51584l0.542603 1.10243 0.03445 0.15503v0.0689q0 1.8259-0.930176 2.75608-0.81821 1.13688-1.756999 1.13688h-0.172255q-1.111043 0-2.411567-1.13688-0.516764-0.72347-0.516764-1.5503 0.09474-0.93017 0.447862-0.93017 0.422025 0 0.516765 1.30913 0.249769 0.59428 0.930176 0.86128 0.56844 0.2067 0.861273 0.2067h0.206706q0.689019 0 1.584744-1.58474l0.172255-0.62012q0-0.99908-0.783759-1.70532l-1.79145-1.48139q-0.611505-0.64596-0.895725-1.55029v-0.0345q-0.215318-1.85174 0.18948-2.79053 0.404799-0.93879 0.602892-1.44694 0.508152-0.79237 1.653646-0.79237z" style="font-feature-settings:normal;font-variant-caps:normal;font-variant-ligatures:normal;font-variant-numeric:normal"/>
  </g>
 </g>
</svg>
