<?xml version="1.0" encoding="UTF-8"?>
<!-- Created with Inkscape (http://www.inkscape.org/) -->
<svg width="172.71297mm" height="17.67334mm" version="1.1" viewBox="0 0 172.71297 17.67334" xmlns="http://www.w3.org/2000/svg" xmlns:cc="http://creativecommons.org/ns#" xmlns:dc="http://purl.org/dc/elements/1.1/" xmlns:rdf="http://www.w3.org/1999/02/22-rdf-syntax-ns#">
 <metadata>
  <rdf:RDF>
   <cc:Work rdf:about="">
    <dc:format>image/svg+xml</dc:format>
    <dc:type rdf:resource="http://purl.org/dc/dcmitype/StillImage"/>
    <dc:title/>
   </cc:Work>
  </rdf:RDF>
 </metadata>
 <g transform="translate(-19.803804,-8.7234477)">
  <g stroke-width=".26458332" style="font-feature-settings:normal;font-variant-caps:normal;font-variant-ligatures:normal;font-variant-numeric:normal" aria-label="The challenge">
   <g fill="#2196f3" stroke-width=".26458332">
    <path d="m28.16505 14.986631 0.506429 8.805664-5.601725 1.44694 0.961182-10.521321-4.227132-0.361735 0.330729-3.824056 12.123291-0.7234703 0.444417 5.6534013z" style="font-feature-settings:normal;font-variant-caps:normal;font-variant-ligatures:normal;font-variant-numeric:normal"/>
    <path d="m38.62436 20.691709 0.37207 3.493327-3.958414 0.692464-1.79834-11.451497 4.402832-1.881022 0.496093 4.960937 3.96875-0.454752 0.06201-4.516521 6.893636 0.692465-2.635498 12.702066-4.433838-1.312581 0.05168-3.296956z" style="font-feature-settings:normal;font-variant-caps:normal;font-variant-ligatures:normal;font-variant-numeric:normal"/>
    <path d="m59.863373 8.7234477 0.268718 5.4777013-6.428548 0.692464 0.08268 1.25057 4.216797-0.392741 0.37207 3.741374-4.402832 0.320394 0.07235 1.012858 6.242513-0.475423 0.930176 4.702555-12.309326 0.423747 1.250569-14.913818z" style="font-feature-settings:normal;font-variant-caps:normal;font-variant-ligatures:normal;font-variant-numeric:normal"/>
   </g>
   <g fill="#e91e63">
    <path d="m81.24708 22.934466q-2.449463 2.118734-5.911784 2.118734-3.46232 0-5.911783-2.118734t-2.449463-5.115967 2.449463-5.115966q2.449463-2.118734 5.911783-2.118734 3.462321 0 5.911784 2.118734 1.229899 1.064534 1.850016 2.356445l-4.960937 1.25057q-0.248047-0.661459-0.868164-1.198894-1.054199-0.909505-2.532145-0.909505t-2.532145 0.909505q-1.0542 0.909506-1.0542 2.191081 0 1.281576 1.0542 2.191081 1.054199 0.909505 2.532145 0.909505t2.532145-0.909505q0.568441-0.496094 0.837158-1.116211l4.981608 2.201416q-0.609782 1.291911-1.839681 2.356445z"/>
    <path d="m89.019214 20.691709 0.372071 3.493327-3.958415 0.692464-1.79834-11.451497 4.402832-1.881022 0.496094 4.960937 3.96875-0.454752 0.06201-4.516521 6.893635 0.692465-2.635497 12.702066-4.433838-1.312581 0.05168-3.296956z"/>
    <path d="m103.14755 22.986143-0.72347 2.067057-4.072104-2.459798 5.105634-12.009603 3.88606-0.268717 6.10816 12.433349-4.82658 2.304769-1.06453-2.904216zm3.53467-4.526856-1.15756-3.741373-1.36425 4.134114z"/>
    <path d="m114.69206 10.377093 5.0953 0.268718-1.67432 10.273274 5.18832-0.806152-1.14722 5.508708-8.17521-0.568441z"/>
    <path d="m124.53126 10.377093 5.09529 0.268718-1.67431 10.273274 5.18831-0.806152-1.14721 5.508708-8.17522-0.568441z"/>
    <path d="m144.61272 8.7234477 0.26872 5.4777013-6.42855 0.692464 0.0827 1.25057 4.2168-0.392741 0.37207 3.741374-4.40283 0.320394 0.0724 1.012858 6.24251-0.475423 0.93018 4.702555-12.30933 0.423747 1.25057-14.913818z"/>
    <path d="m151.65105 17.818499 1.02319 5.922119-5.15731 1.312582-1.04386-13.570231 5.17798-0.89917 5.10563 6.759277 0.062-6.759277 6.40788-0.6614582-2.27376 15.1308592-4.10311 0.599446z"/>
    <path d="m179.69067 24.908506-5.88077 1.488281 0.10335-1.632975q-1.14722 0.289388-2.41846 0.289388-3.46232 0-5.91178-2.118734t-2.44946-5.115967 2.44946-5.115966q2.44946-2.118734 5.91178-2.118734t5.91179 2.118734q1.2299 1.064534 1.85001 2.356445l-4.96093 1.25057q-0.24805-0.661459-0.86817-1.198894-1.0542-0.909505-2.53214-0.909505-1.47795 0-2.53215 0.909505-1.0542 0.909506-1.0542 2.191081 0 1.281576 1.0542 2.191081t2.53215 0.909505q1.47794 0 2.53214-0.909505 0.56844-0.496094 0.8785-1.095541l4.69222-0.206705z"/>
    <path d="m191.16285 8.7234477 0.26872 5.4777013-6.42855 0.692464 0.0827 1.25057 4.2168-0.392741 0.37207 3.741374-4.40284 0.320394 0.0724 1.012858 6.24251-0.475423 0.93018 4.702555-12.30933 0.423747 1.25057-14.913818z"/>
   </g>
  </g>
 </g>
</svg>
