<?xml version="1.0" encoding="UTF-8"?>
<!-- Created with Inkscape (http://www.inkscape.org/) -->
<svg width="562" height="512" version="1.1" viewBox="0 0 148.69583 135.46667" xmlns="http://www.w3.org/2000/svg" xmlns:cc="http://creativecommons.org/ns#" xmlns:dc="http://purl.org/dc/elements/1.1/" xmlns:rdf="http://www.w3.org/1999/02/22-rdf-syntax-ns#">
 <metadata>
  <rdf:RDF>
   <cc:Work rdf:about="">
    <dc:format>image/svg+xml</dc:format>
    <dc:type rdf:resource="http://purl.org/dc/dcmitype/StillImage"/>
    <dc:title/>
   </cc:Work>
  </rdf:RDF>
 </metadata>
 <g transform="translate(-273.93878,-97.428383)">
  <rect x="273.93878" y="97.428383" width="148.69583" height="135.46667" opacity="0" stroke-width="1.04392946"/>
  <rect x="280.55338" y="97.428391" width="135.46666" height="135.46666" ry="0" opacity="0" stroke-width="2.08046722"/>
  <g>
   <g stroke="#ccc" stroke-linecap="round" stroke-width="2.47349143">
    <path d="m342.10889 98.6656c-2.95091 3e-3 -5.70217 1.49139-7.31919 3.96069-1.55338-1.252-3.48744-1.93605-5.48226-1.93904-4.70249 6e-3 -8.41703 3.48838-8.59772 7.99252-0.0371 1.21203 0.17828 3.44829 0.90466 4.94145 2.81712 5.79089 13.28257 14.0262 13.28257 14.0262h14.42386s10.16693-8.36628 13.27531-13.99576c0.69879-1.26553 1.07322-2.73368 1.07327-4.20228-0.18077-4.70254-4.05469-8.75915-8.75905-8.76212-1.99457 9.4e-4 -3.92911 0.68271-5.48371 1.93276-1.61819-2.46647-4.36855-3.95273-7.31774-3.95442z" fill="#f9f9f9"/>
    <path d="m334.89695 127.64745s-88.79999 42.46236-30.18227 99.41569c0 0 26.6138 10.11006 73.44062 0.337 0 0 61.92469-47.51752-28.83449-99.75269" fill="#f9f9f9"/>
    <rect x="326.61224" y="123.35228" width="30.99328" height="8.7620506" ry="4.3810253" fill="#2196f3"/>
   </g>
   <path d="m380.74274 123.43172 30.07805 17.37167c2.19253 1.26631 2.93855 4.05148 1.6727 6.24478l-6.96908 12.07504c-1.26586 2.1933-4.05005 2.93959-6.24258 1.67328l-30.07806-17.37167c-2.19253-1.2663-7.54887-12.52075-6.28301-14.71406l2.1707-3.76108c1.26586-2.1933 13.45875-2.78427 15.65128-1.51796z" fill="#2196f3"/>
   <path d="m381.87297 126.72384 24.122 13.93174c1.75837 1.01555 2.35667 3.2492 1.34147 5.00819l-5.58906 9.68394c-1.01519 1.75899-3.24806 2.35749-5.00643 1.34194l-24.122-13.93174c-1.75837-1.01555-6.05405-10.0414-5.03885-11.80038l1.74085-3.01631c1.0152-1.75899 10.79365-2.23293 12.55202-1.21738z" fill="#fff"/>
  </g>
  <path d="m357.35997 124.33485s5.48386-5.02864 9.13977 3.20005" fill="none" stroke="#ccc" stroke-linecap="round" stroke-width="2.02477717"/>
  <path d="m336.6764 115.88094 5.05325 6.40304 5.05325-6.43837" fill="#f9f9f9" stroke="#ccc" stroke-linecap="round" stroke-width="2.47349143"/>
  <g transform="matrix(.16666791 0 0 .1667265 315.19466 188.34373)" stroke-width=".26458332">
   <circle cx="87.108917" cy="153.42471" r="67.732536" fill="#f60"/>
   <g fill="#fbc02d">
    <path d="m138.6673 109.49436c11.72184 13.72605 17.07383 31.02584 16.05359 48.01605h-3e-3c-4.42674-7.13898-10.85215-14.4481-20.47187-20.79254-17.34978-3.56262-10.65979-10.53148-4.87547-18.94708l3e-3 -3e-3 9.29111-8.27061z"/>
    <path d="m107.8668 217.91531c-3.06626 0.98399-6.19125 1.74493-9.344024 2.28018-20.912402 3.55706-43.168358-2.73473-59.30847-18.87458-0.582613-0.58261-1.154113-1.17634-1.714235-1.77562l14.707129-13.09052 53.68872-47.7901 3e-3 -3e-3c0.20082 0.22304 6.4561-3.22236 8.76697-2.16033 2.62308 1.20148 6.36138 3.90261 6.36138 9.18237 3.26945 23.77228 2.3495 54.5584-13.16038 72.23151z"/>
    <path d="m110.25837 120.8381c-2.2188 2.2188-3.39804 2.07116-9.974 2.07116h-3e-3c-0.593724-0.13653-1.193005-0.27305-1.798107-0.40428-17.578387-3.82747-32.695356-4.63286-45.518387-3.42583-10.857706 1.01759-20.070498 3.4761-27.739181 6.76275 3.281363-7.36785 7.944908-14.26713 13.988521-20.31047 13.879248-13.879251 32.285781-20.47743 50.46636-19.788984 1.042458 0.77761 2.104496 1.613958 3.175 2.517246 6.344443 5.343789 13.012474 12.892618 18.202804 22.810788 0 5.36046 1.11495 7.85521-0.8001 9.76762z"/>
   </g>
   <path d="m129.37055 117.77079c5.22102 5.63933 6.9551 13.08206 4.87547 18.94707-0.65775 1.85367-1.69756 3.5486-3.12764 4.97867-2.67044 2.67335-6.2693 3.97774-10.09094 3.98621-4.95644 0.0111-10.29441-2.15768-14.49811-6.36138-0.21749-0.21748-0.42915-0.43762-0.62997-0.66066-4.31244-4.65534-6.244167-10.54259-5.61419-15.7525 0.37068-3.09695 1.64756-5.95709 3.86635-8.17589 1.91506-1.91241 4.30133-3.12499 6.90774-3.66289 5.74808-1.1848 12.55792 0.9144 17.68158 6.0407 0.21722 0.21749 0.42915 0.43762 0.62971 0.66067z" fill="#2196f3"/>
  </g>
  <g transform="matrix(.16666791 0 0 .1667265 339.98628 188.34373)" stroke-width=".26458332">
   <circle cx="87.108917" cy="153.42471" r="67.732536" fill="#f60"/>
   <g fill="#fbc02d">
    <path d="m138.6673 109.49436c11.72184 13.72605 17.07383 31.02584 16.05359 48.01605h-3e-3c-4.42674-7.13898-10.85215-14.4481-20.47187-20.79254-17.34978-3.56262-10.65979-10.53148-4.87547-18.94708l3e-3 -3e-3 9.29111-8.27061z"/>
    <path d="m107.8668 217.91531c-3.06626 0.98399-6.19125 1.74493-9.344024 2.28018-20.912402 3.55706-43.168358-2.73473-59.30847-18.87458-0.582613-0.58261-1.154113-1.17634-1.714235-1.77562l14.707129-13.09052 53.68872-47.7901 3e-3 -3e-3c0.20082 0.22304 6.4561-3.22236 8.76697-2.16033 2.62308 1.20148 6.36138 3.90261 6.36138 9.18237 3.26945 23.77228 2.3495 54.5584-13.16038 72.23151z"/>
    <path d="m110.25837 120.8381c-2.2188 2.2188-3.39804 2.07116-9.974 2.07116h-3e-3c-0.593724-0.13653-1.193005-0.27305-1.798107-0.40428-17.578387-3.82747-32.695356-4.63286-45.518387-3.42583-10.857706 1.01759-20.070498 3.4761-27.739181 6.76275 3.281363-7.36785 7.944908-14.26713 13.988521-20.31047 13.879248-13.879251 32.285781-20.47743 50.46636-19.788984 1.042458 0.77761 2.104496 1.613958 3.175 2.517246 6.344443 5.343789 13.012474 12.892618 18.202804 22.810788 0 5.36046 1.11495 7.85521-0.8001 9.76762z"/>
   </g>
   <path d="m129.37055 117.77079c5.22102 5.63933 6.9551 13.08206 4.87547 18.94707-0.65775 1.85367-1.69756 3.5486-3.12764 4.97867-2.67044 2.67335-6.2693 3.97774-10.09094 3.98621-4.95644 0.0111-10.29441-2.15768-14.49811-6.36138-0.21749-0.21748-0.42915-0.43762-0.62997-0.66066-4.31244-4.65534-6.244167-10.54259-5.61419-15.7525 0.37068-3.09695 1.64756-5.95709 3.86635-8.17589 1.91506-1.91241 4.30133-3.12499 6.90774-3.66289 5.74808-1.1848 12.55792 0.9144 17.68158 6.0407 0.21722 0.21749 0.42915 0.43762 0.62971 0.66067z" fill="#2196f3"/>
  </g>
  <g>
   <g transform="rotate(30)" fill="#424242" stroke-width=".26458332" style="font-feature-settings:normal;font-variant-caps:normal;font-variant-ligatures:normal;font-variant-numeric:normal" aria-label="Chucho ">
    <path d="m393.02808-77.708848q1.06798 0.129191 1.06798 0.689019l0.0344 0.03445q0 0.335897-0.55122 0.447862h-0.55121q-1.24023 0-1.8259 1.619195-0.82682 1.558906-0.82682 3.858507v0.0689q0 1.490004 0.24115 2.652724 0.0517 0.508151 0.79237 1.688097 0.38758 0.585666 0.75793 0.585666l1.37803-0.0689 0.0344 0.137804q0 0.602891-0.89572 0.930176-0.41341 0.103352-0.75792 0.103352h-0.17226q-0.49953 0-1.51584-1.619195-0.31006-0.637342-0.31006-0.826822-0.30144-0.447863-0.55121-4.168566 0.62873-4.375271 1.9637-5.4088 0.91295-0.72347 1.6881-0.72347z" style="font-feature-settings:normal;font-variant-caps:normal;font-variant-ligatures:normal;font-variant-numeric:normal"/>
    <path d="m395.93919-79.396945q0.2756 0.09474 0.2756 0.551215v0.103353l-0.0431 7.467245q0 0.654568 0.17225 0.654568h0.0689q0.51676-0.516764 0.93017-0.516764 1.15411 0 1.757 1.929253 0.31006 1.06798 0.48231 2.618273 0.0775 0 0.13781 0.516764 0 0.861274-0.51677 0.861274h-0.0344q-0.75792 0-0.75792-1.309136-0.17225-1.550293-0.37896-2.067058-0.3359-1.10243-0.68902-1.10243-0.60289 0.266995-1.10243 1.274685-0.48231 1.44694-0.48231 2.824978-0.30145 0.620118-0.72347 0.620118-0.45648 0-0.51677-0.585667 0.34451-2.084282 0.51677-4.857584l0.10335-0.378961-0.0344-0.37896 0.0431-7.019383q0-0.215318 0.24116-0.689019 0.14642-0.361735 0.44786-0.516764z" style="font-feature-settings:normal;font-variant-caps:normal;font-variant-ligatures:normal;font-variant-numeric:normal"/>
    <path d="m401.12405-77.269599q0.51677 0 0.51677 0.895725v2.239312q0 6.373427 0.37896 7.062446 0.25838 0.757921 0.41341 0.757921 0.29283 0 0.86127-1.412489 0.82683-1.464165 0.82683-2.687174 0.12058 0 0.34451-4.065213l-0.0344-0.654568q0.12919-1.79145 0.44786-1.79145l0.44786-0.172255q0.41341 0 0.55122 0.964627v0.172255l-0.20671 2.135959v0.206706q0 3.849894 0.48231 6.270074l0.27561 1.791449q-0.14642 0.413412-0.72347 0.413412-0.51676 0-0.65457-2.721626-0.11196-0.241156-0.17225-0.241156h-0.0689q-0.25839 0.292833-1.34359 2.377116-0.55122 0.689019-1.06798 0.689019-0.57705 0-1.20578-0.930176-0.58567-1.731161-0.75793-9.990777-0.0517 0-0.0689-0.757921 0-0.396186 0.75792-0.551216z" style="font-feature-settings:normal;font-variant-caps:normal;font-variant-ligatures:normal;font-variant-numeric:normal"/>
    <path d="m410.66697-78.303127q1.58474 0 1.58474 0.792372v0.03445q0 0.344509-0.55121 0.482313l-1.34359-0.0689q-0.63734 0-0.99908 0.861274-0.36173 0.215319-0.93017 2.101508-0.34451 1.283299-0.34451 2.377116v0.275608q0 0.999078 0.55121 3.100586 0 0.809597 1.24024 1.79145 0.31867 0.172254 0.51676 0.172254h0.27561q0.18087 0 0.68902-0.310058l0.17225-0.03445q0.44787 0.172255 0.44787 0.654568v0.03445q-0.36174 0.964627-1.757 0.964627-0.48232 0-1.72255-1.033529-0.44786-0.482313-0.55122-0.930176-0.96462-2.902493-0.96462-4.409722 0-2.153185 0.89572-4.650879 0.62873-1.231622 1.24024-1.756999 0.68902-0.447862 1.55029-0.447863z" style="font-feature-settings:normal;font-variant-caps:normal;font-variant-ligatures:normal;font-variant-numeric:normal"/>
    <path d="m414.26709-79.396945q0.27561 0.09474 0.27561 0.551215v0.103353l-0.0431 7.467245q0 0.654568 0.17225 0.654568h0.0689q0.51677-0.516764 0.93018-0.516764 1.15411 0 1.757 1.929253 0.31006 1.06798 0.48231 2.618273 0.0775 0 0.13781 0.516764 0 0.861274-0.51677 0.861274h-0.0344q-0.75792 0-0.75792-1.309136-0.17225-1.550293-0.37896-2.067058-0.3359-1.10243-0.68902-1.10243-0.60289 0.266995-1.10243 1.274685-0.48231 1.44694-0.48231 2.824978-0.30145 0.620118-0.72347 0.620118-0.45648 0-0.51677-0.585667 0.34451-2.084282 0.51677-4.857584l0.10335-0.378961-0.0344-0.37896 0.0431-7.019383q0-0.215318 0.24116-0.689019 0.14642-0.361735 0.44786-0.516764z" style="font-feature-settings:normal;font-variant-caps:normal;font-variant-ligatures:normal;font-variant-numeric:normal"/>
    <path d="m421.86353-76.42555q1.44694 0.28422 1.44694 0.964627 1.50723 2.247925 0.41341 7.406955-0.68902 1.800063-1.24023 2.308214-0.76654 0.964627-1.51584 0.964627-1.16272 0-1.79145-1.515842l-0.58567-2.89388v-0.516765q0-1.739773 0.58567-4.237467 0.0947-0.137804 0.17225-0.620117 0.8096-1.79145 1.55029-1.79145zm-0.65457 1.274685h-0.0689q-0.4048 0-0.55122 0.654568-0.72347 1.326362-0.72347 2.756077-0.10335 0.258382-0.10335 0.895725v1.171332q0 1.524455 0.55122 3.135037 0.25838 0.516765 0.51676 0.516765 0.41341 0 1.17133-0.999078 0.22393 0 0.72347-1.06798 0.20671-0.749308 0.41342-2.859429 0-2.07567-0.55122-3.341743-0.27561-0.749308-0.44786-0.895725z" style="font-feature-settings:normal;font-variant-caps:normal;font-variant-ligatures:normal;font-variant-numeric:normal"/>
   </g>
   <g transform="translate(-82.707173,-110.55468)" fill="#fff" stroke="#2196f3" stroke-width=".79374999" style="font-feature-settings:normal;font-variant-caps:normal;font-variant-ligatures:normal;font-variant-numeric:normal" aria-label="1">
    <path d="m414.08289 318.7996-2.79053 0.0775-0.76654 0.62873v2.64411l0.68902-0.31867 0.0775 8.33713h3.01446z" fill="#fff" stroke="#2196f3" stroke-width=".79374999" style="font-feature-settings:normal;font-variant-caps:normal;font-variant-ligatures:normal;font-variant-numeric:normal"/>
   </g>
   <g transform="translate(-69.86201,-110.05717)" fill="#fff" stroke="#2196f3" stroke-width=".79374999" style="font-feature-settings:normal;font-variant-caps:normal;font-variant-ligatures:normal;font-variant-numeric:normal" aria-label="2">
    <path d="m427.23253 318.7471q-2.59243-1.57613-4.82313-0.0258-1.11966 0.81821-1.97232 2.024l1.73977 2.20486q0.22393-0.36174 0.62873-0.6718 0.89573-0.89572 1.80007-0.70624 0.50815 0.11196 0.41341 0.68902-0.0775 0.49092-0.57706 1.2833-0.93879 1.47277-2.29099 2.3685-0.58566 0.49954-1.0852 0.8785l-0.20671 3.04891 7.00216 0.14641 9e-3 -2.91971-3.53983 0.16364q1.67948-1.55029 2.87665-3.3762 1.05076-1.59335 1.17133-2.79914 0.16365-1.50722-1.14549-2.30821z" fill="#fff" stroke="#2196f3" stroke-width=".79374999" style="font-feature-settings:normal;font-variant-caps:normal;font-variant-ligatures:normal;font-variant-numeric:normal"/>
   </g>
  </g>
 </g>
</svg>
