<?xml version="1.0" encoding="UTF-8"?>
<!-- Created with Inkscape (http://www.inkscape.org/) -->
<svg width="562" height="511.99997" version="1.1" viewBox="0 0 148.69583 135.46666" xmlns="http://www.w3.org/2000/svg" xmlns:cc="http://creativecommons.org/ns#" xmlns:dc="http://purl.org/dc/elements/1.1/" xmlns:rdf="http://www.w3.org/1999/02/22-rdf-syntax-ns#">
 <metadata>
  <rdf:RDF>
   <cc:Work rdf:about="">
    <dc:format>image/svg+xml</dc:format>
    <dc:type rdf:resource="http://purl.org/dc/dcmitype/StillImage"/>
    <dc:title/>
   </cc:Work>
  </rdf:RDF>
 </metadata>
 <g transform="translate(-132.18257,-395.29697)">
  <rect x="132.18257" y="395.29697" width="148.69583" height="135.46666" opacity="0" stroke-width="1.18552113"/>
  <g>
   <rect x="138.79716" y="395.29697" width="135.46666" height="135.46666" fill="#250"/>
   <path d="m199.6085 462.50549h-48.04698c-3.78826 0-6.85952-3.07042-6.85952-6.85805v-48.03668c0-3.78744 3.07107-6.85805 6.85952-6.85805h48.04542c3.79001 0 6.86128 3.07042 6.86128 6.85805v48.03512c-2e-4 3.78919-3.07127 6.85961-6.85972 6.85961z" fill="#fff8e1" stroke-width=".19433843"/>
   <path d="m199.6085 462.50549h-48.04698c-3.78826 0-6.85952-3.07042-6.85952-6.85805v-48.03668c0-3.78744 3.07107-6.85805 6.85952-6.85805h48.04542c3.79001 0 6.86128 3.07042 6.86128 6.85805v48.03512c-2e-4 3.78919-3.07127 6.85961-6.85972 6.85961z" fill="#ccc497" opacity=".3" stroke-width=".19433843"/>
  </g>
  <g fill="#28384c" stroke-width=".19433843">
   <ellipse cx="157.72858" cy="414.47552" rx="6.8628263" ry="6.8613548"/>
   <ellipse cx="157.72858" cy="448.78247" rx="6.8628263" ry="6.8613548"/>
   <ellipse cx="192.04289" cy="414.47552" rx="6.8628263" ry="6.8613548"/>
   <ellipse cx="192.04289" cy="448.78247" rx="6.8628263" ry="6.8613548"/>
  </g>
  <path d="m261.40269 495.73813h-48.04698c-3.78825 0-6.85952-3.07041-6.85952-6.85804v-48.03668c0-3.78744 3.07107-6.85805 6.85952-6.85805h48.04542c3.79001 0 6.86128 3.07042 6.86128 6.85805v48.03512c-2e-4 3.78919-3.07127 6.8596-6.85972 6.8596z" fill="#fff8e1" stroke-width=".19433843"/>
  <g fill="#28384c" stroke-width=".19433843">
   <ellipse cx="220.22205" cy="482.01523" rx="6.8628263" ry="6.8613548"/>
   <ellipse cx="254.53636" cy="447.70828" rx="6.8628263" ry="6.8613548"/>
   <ellipse cx="220.22205" cy="447.70828" rx="6.8628263" ry="6.8613548"/>
   <ellipse cx="237.3791" cy="464.86166" rx="6.8628263" ry="6.8613548"/>
   <ellipse cx="254.53636" cy="482.01523" rx="6.8628263" ry="6.8613548"/>
  </g>
  <g transform="rotate(-15,736.01334,431.64451)">
   <rect x="143.34111" y="342.43951" width="62.376106" height="30.56842" ry="4.9570417" fill="#fff"/>
   <rect x="145.37158" y="344.90085" width="58.315163" height="25.645731" ry="4.1587672" fill="#3771c8"/>
   <rect x="146.78467" y="346.61057" width="55.488987" height="22.226299" ry="3.6042652" fill="#fff"/>
  </g>
  <g transform="rotate(-15,561.48418,73.920794)" fill="#424242" stroke-width=".26458332" style="font-feature-settings:normal;font-variant-caps:normal;font-variant-ligatures:normal;font-variant-numeric:normal" aria-label="Daniel">
   <path d="m63.279806 384.73318q0.180867 0 0.654568 0.51676 1.791449 0.80099 2.756076 2.61827 0.792372 2.21348 0.792372 4.58198 0 0.68041-0.620117 2.30822-0.327284 1.12826-1.79145 2.61827-0.465088 0.34451-0.72347 0.34451l-0.792372-0.0344q-0.223931 0-0.72347 0.17225-0.172255 0-0.37896-0.1378-0.206706-0.13781-0.206706-0.82682 0.241157-1.73978 0.241157-5.0643-0.172255-4.57336-0.172255-6.02891 0.275607-1.06798 0.964627-1.06798zm0.03445 6.51123 0.0689 1.17133v1.34359q0 1.88619-0.103352 2.54937 0 0.3359 0.861273 0.37896h0.0689q0.62873 0 1.44694-1.58474 0.861274-1.1455 0.861274-2.82498 0-2.86805-1.033528-4.44418-0.999078-1.24884-1.79145-1.51584h-0.103353q-0.241157 0-0.241157 2.27376z" style="font-feature-settings:normal;font-variant-caps:normal;font-variant-ligatures:normal;font-variant-numeric:normal"/>
   <path d="m70.548957 384.79347q0.714858 0.24977 1.240235 0.99907 0.482313 0.88712 0.800984 2.26515 0.327285 1.37804 0.370348 4.00493-0.02584 3.1092-0.198093 3.514 0 1.99815-0.585666 1.99815 0 0.0861-2.695787 0.10335-0.775147 0-1.274686-1.27468-0.137803-0.56844-0.137803-0.99908v-0.17225q0-1.19717 0.999077-2.48047 0.602892-0.68902 1.550293-0.68902l0.757921 0.0344h0.378961l0.03445-0.37896 0.03445-1.72255q0-1.44694-0.930176-3.5829-0.258382-0.31006-0.516764-0.31006h-0.137804q-0.103353 0-0.826823 0.48232h-0.0689q-0.551215-0.25839-0.551215-0.58567v-0.1378q0.904337-1.06798 1.756998-1.06798zm-1.309136 10.26638v0.27561q0 0.76653 0.378961 1.06798h0.0689q1.765612-0.0775 1.800063-0.0861 0.310059-1.54168 0.02584-2.56659-0.275608-0.48232-0.895725-0.48232-0.62873 0-1.309136 1.20579z" style="font-feature-settings:normal;font-variant-caps:normal;font-variant-ligatures:normal;font-variant-numeric:normal"/>
   <path d="m78.162619 385.03462q0.551215 0.17226 0.861274 0.93018 0.206705 0.24977 0.482313 1.8259-0.310059 5.04707-0.275608 7.55337l0.03445 1.6881q0 0.96463-0.654568 0.96463-0.551215 0-0.551215-0.79238 0.103353-5.46047 0.275607-7.82898l0.0689-2.06705-0.447862-1.10243q-0.146417-0.13781-0.275608-0.13781h-0.172252q-0.585666-0.0344-2.153184 3.89296-0.551216 1.41249-0.551216 1.72255v1.37804l0.103353 2.24792-0.0689 0.99908v0.0344l0.0689 0.65457q0 0.31867-0.654568 0.68902-0.585666-0.16364-0.585666-0.96463l-0.0689-1.10243q0.137804-3.22116 0.103353-9.20702 0-1.20578 0.310058-1.20578 0.232544-0.20671 0.482314-0.20671 0.344509 0 0.344509 0.41341l-0.0689 2.41157q0.04306 0.17226 0.103352 0.17226h0.206706q0.06029 0 0.930176-1.6192 0.852661-1.20578 1.205783-1.20578 0.396186-0.31006 0.947402-0.13781z" style="font-feature-settings:normal;font-variant-caps:normal;font-variant-ligatures:normal;font-variant-numeric:normal"/>
   <path d="m81.073725 384.32838q0.37896 0 0.585666 0.68902-0.172255 0.62012-0.689019 0.62012h-0.103353q-0.378961 0-0.482314-0.58567 0-0.44786 0.654569-0.72347zm0.120578 2.54937q0.37896 0 0.37896 1.58474l0.03445 1.6881q-0.08613 7.32083-0.241156 7.32083-0.378961 0.41341-0.689019 0.41341-0.378961 0-0.516765-0.96463l0.03445-0.0345v-0.0344l0.34451-3.13504 0.0689-3.37619-0.103353-2.5666q0.120578-0.89572 0.689019-0.89572z" style="font-feature-settings:normal;font-variant-caps:normal;font-variant-ligatures:normal;font-variant-numeric:normal"/>
   <path d="m84.561884 384.60399q0.757921 0 1.791449 0.82682 0.172255 0.31006 0.172255 0.62012 0 1.54168-0.999078 2.13596-1.145494 0.34451-1.894802 0.34451-0.172255 0.18086-0.172255 0.55121v0.58567q0 1.86896 0.482313 4.20301 0 1.25746 0.964627 2.44602 0.301446 0.24116 0.447863 0.24116h0.241156q0.34451-0.12919 0.861274-0.44786l0.206706-0.0345q0.249769 0 0.37896 0.41342 0 0.77514-1.205783 1.55029l-0.551215 0.10335q-0.490926 0-1.722548-1.34359-0.654568-1.02491-0.654568-2.48046-0.447863-2.18764-0.516765-5.58106 0-1.37804 0.964627-3.44509 0.809598-0.68902 1.205784-0.68902zm-0.792372 2.75607 0.172254 0.10336q1.085205 0 1.44694-0.58567 0.103353-0.18087 0.103353-0.34451v-0.1378q0-0.51677-0.654568-0.51677-0.91295 0-1.067979 1.44694z" style="font-feature-settings:normal;font-variant-caps:normal;font-variant-ligatures:normal;font-variant-numeric:normal"/>
   <path d="m88.911317 383.45849q0.241156 0 0.482313 0.20671l-0.03445 0.2067-0.37896 10.6798q0 3.23839-0.206706 3.23839-0.266995 0.20671-0.378961 0.20671-0.413411 0-0.516764-0.96463v-0.62012q0-2.48047 0.37896-10.78315 0-2.10151 0.275608-2.10151z" style="font-feature-settings:normal;font-variant-caps:normal;font-variant-ligatures:normal;font-variant-numeric:normal"/>
  </g>
  <g fill="#fff" stroke="#28384c" stroke-width="1.0583334">
   <g transform="translate(-16.087946,-144.32097)" style="font-feature-settings:normal;font-variant-caps:normal;font-variant-ligatures:normal;font-variant-numeric:normal" aria-label="1">
    <path d="m175.47783 553.1194-2.79053 0.0775-0.76653 0.62873v2.64411l0.68902-0.31867 0.0775 8.33713h3.01446z" fill="#fff" stroke="#28384c" stroke-width="1.0583334" style="font-feature-settings:normal;font-variant-caps:normal;font-variant-ligatures:normal;font-variant-numeric:normal"/>
   </g>
   <g transform="translate(-5.9670772,-144.53172)" style="font-feature-settings:normal;font-variant-caps:normal;font-variant-ligatures:normal;font-variant-numeric:normal" aria-label="2">
    <path d="m200.89247 553.76953q-2.59243-1.57613-4.82313-0.0258-1.11966 0.81821-1.97232 2.024l1.73978 2.20486q0.22393-0.36174 0.62873-0.6718 0.89572-0.89572 1.80006-0.70624 0.50815 0.11196 0.41341 0.68902-0.0775 0.49092-0.57705 1.2833-0.93879 1.47277-2.29099 2.3685-0.58567 0.49954-1.08521 0.8785l-0.2067 3.04891 7.00215 0.14642 9e-3 -2.91972-3.53984 0.16364q1.67948-1.55029 2.87665-3.37619 1.05076-1.59336 1.17134-2.79914 0.16364-1.50723-1.1455-2.30822z" fill="#fff" stroke="#28384c" stroke-width="1.0583334" style="font-feature-settings:normal;font-variant-caps:normal;font-variant-ligatures:normal;font-variant-numeric:normal"/>
   </g>
   <g transform="translate(-70.228498,-108.65629)" style="font-feature-settings:normal;font-variant-caps:normal;font-variant-ligatures:normal;font-variant-numeric:normal" aria-label="3">
    <path d="m223.83759 551.91831 0.0775 2.62688 3.3159-0.0775-2.79053 2.02399q0.76654-0.11196 1.50723 0.0861 1.49862 0.39619 1.45555 1.95509-0.0517 1.56752-1.50722 1.54168-0.73209-0.0172-1.45556-0.34451l-0.6804 2.80775q1.24023 0.39619 2.7044 0.42203 2.90249 0.0603 3.97047-1.76561 1.46416-2.51492-0.0258-4.2547-0.74931-0.86988-1.71393-1.32636l2.98-3.66041z" fill="#fff" stroke="#28384c" stroke-width="1.0583334" style="font-feature-settings:normal;font-variant-caps:normal;font-variant-ligatures:normal;font-variant-numeric:normal"/>
   </g>
   <g transform="translate(-56.379985,-110.50208)" style="font-feature-settings:normal;font-variant-caps:normal;font-variant-ligatures:normal;font-variant-numeric:normal" aria-label="4">
    <path d="m249.32578 557.34382h-1.80006l0.0775-3.85851-2.9714 0.0861v6.25285l4.5303 0.16364-0.32728 5.02123 3.11781 0.0775 0.24977-11.60136h-2.79914z" fill="#fff" stroke="#28384c" stroke-width="1.0583334" style="font-feature-settings:normal;font-variant-caps:normal;font-variant-ligatures:normal;font-variant-numeric:normal"/>
   </g>
   <g transform="translate(-46.154237,-113.49491)" style="font-feature-settings:normal;font-variant-caps:normal;font-variant-ligatures:normal;font-variant-numeric:normal" aria-label="5">
    <path d="m264.94444 558.18304 4.52169 0.18948 0.267-2.54076-6.98493-0.267 0.11196 5.32268q1.06798-0.22393 1.98954-0.13781 1.84313 0.18087 1.88619 1.74839 0.0517 1.57613-1.55029 1.79145-0.80098 0.11196-1.61919-0.0947l-0.15503 2.60105q1.70532 0.2067 3.39342-0.22393 3.36758-0.84405 3.20393-3.9877-0.14641-3.14365-2.63549-3.77238-1.23162-0.39619-2.44602-0.0775z" fill="#fff" stroke="#28384c" stroke-width="1.0583334" style="font-feature-settings:normal;font-variant-caps:normal;font-variant-ligatures:normal;font-variant-numeric:normal"/>
   </g>
   <g transform="translate(-33.626769,-112.38839)" style="font-feature-settings:normal;font-variant-caps:normal;font-variant-ligatures:normal;font-variant-numeric:normal" aria-label="6">
    <path d="m288.30947 562.51988q-0.30145 0.0258-0.46509-0.15503-0.14642-0.15503-0.14642-0.4048t0.12058-0.44786q0.12919-0.20671 0.3359-0.24116 0.49093-0.0861 0.73208 0.0861 0.21532 0.14641 0.18948 0.42202-0.0258 0.25838-0.23254 0.4737-0.22393 0.23255-0.53399 0.267zm-0.20671-3.93602q-0.10335-0.36174 0.10336-0.66319 0.43063-0.6115 2.01538-0.33589l0.45647-2.67856q-0.39618-0.1981-1.10243-0.24977-1.4211-0.0861-2.97139 0.67179-0.8096 0.39619-1.54168 1.88619-0.74931 1.54168-0.88712 3.21255-0.14641 1.92064 0.64596 3.20394 0.93018 1.51584 3.0403 1.85174 1.8259 0.29283 3.05752-0.72347 1.11104-0.91295 1.24023-2.40296 0.12919-1.49861-0.85266-2.55798-1.11104-1.19717-3.20394-1.21439z" fill="#fff" stroke="#28384c" stroke-width="1.0583334" style="font-feature-settings:normal;font-variant-caps:normal;font-variant-ligatures:normal;font-variant-numeric:normal"/>
   </g>
   <g transform="translate(-72.109127,-95.762981)" style="font-feature-settings:normal;font-variant-caps:normal;font-variant-ligatures:normal;font-variant-numeric:normal" aria-label="7">
    <path d="m305.74032 558.54497 2.79914-0.0775-2.57521 7.30361 3.46232 0.29283 3.76376-10.90373-7.59643 0.0775z" fill="#fff" stroke="#28384c" stroke-width="1.0583334" style="font-feature-settings:normal;font-variant-caps:normal;font-variant-ligatures:normal;font-variant-numeric:normal"/>
   </g>
   <g transform="translate(-123.73754,-77.733082)" style="font-feature-settings:normal;font-variant-caps:normal;font-variant-ligatures:normal;font-variant-numeric:normal" aria-label="8">
    <path d="m344.15694 561.96448q-0.28422 0-0.46509-0.16364-0.15503-0.1378-0.18087-0.35312-0.0172-0.20671 0.12058-0.34451 0.13781-0.16364 0.42203-0.17225 0.38757-9e-3 0.59427 0.15502 0.17226 0.13781 0.16365 0.35313-9e-3 0.2067-0.18087 0.36173-0.18948 0.16364-0.4737 0.16364zm-0.34451-5.64995q0.27561-0.0603 0.43925 0.0431 0.14642 0.10335 0.15503 0.29283 9e-3 0.18948-0.11197 0.31868-0.14641 0.16364-0.39618 0.16364t-0.39619-0.11197q-0.14642-0.0947-0.15503-0.24115-0.0431-0.34451 0.46509-0.46509zm2.08428 2.34266q0.63734-1.19717 0.72347-2.42018 0.19809-2.4374-2.54937-2.54076-1.05937-0.0431-1.86035 0.52538-0.73208 0.51677-1.05075 1.37804-0.30145 0.85266-0.0861 1.67087 0.23254 0.8785 0.99908 1.38665-0.69764 0.55983-1.29192 1.38665-1.19717 1.64504-0.72347 2.98862 0.41342 1.17995 1.39527 1.92064 0.92156 0.68041 2.09289 0.81821 1.15411 0.13781 2.19625-0.31005 1.10243-0.48232 1.73116-1.49862 1.12827-1.81729-0.11196-3.74654-0.62012-0.96463-1.46417-1.55891z" fill="#fff" stroke="#28384c" stroke-width="1.0583334" style="font-feature-settings:normal;font-variant-caps:normal;font-variant-ligatures:normal;font-variant-numeric:normal"/>
   </g>
   <g transform="translate(-108.40541,-79.125132)" style="font-feature-settings:normal;font-variant-caps:normal;font-variant-ligatures:normal;font-variant-numeric:normal" aria-label="9">
    <path d="m362.95352 559.97031q-0.49093 0.0775-0.73208-0.0861-0.21532-0.14641-0.18948-0.42202 0.0172-0.25838 0.23254-0.48232 0.22393-0.22393 0.53399-0.25838 0.30145-0.0258 0.46509 0.15503 0.14641 0.14642 0.14641 0.4048 0 0.24116-0.12057 0.43925-0.13781 0.21532-0.3359 0.24977zm0.29283-4.22024q-1.8259-0.29284-3.05752 0.72347-1.11104 0.92156-1.24024 2.40295-0.12919 1.50723 0.85267 2.5666 1.11104 1.19717 3.20393 1.21439 0.10336 0.35313-0.10335 0.66319-0.43063 0.6115-2.01538 0.32728l-0.45647 2.68717q0.39618 0.1981 1.10243 0.24977 1.4211 0.0861 2.97139-0.67179 0.8096-0.39619 1.54168-1.88619 0.74931-1.54168 0.8785-3.21255 0.15503-1.92926-0.63734-3.21255-0.93018-1.50723-3.0403-1.85174z" fill="#fff" stroke="#28384c" stroke-width="1.0583334" style="font-feature-settings:normal;font-variant-caps:normal;font-variant-ligatures:normal;font-variant-numeric:normal"/>
   </g>
  </g>
 </g>
</svg>
