<?xml version="1.0" encoding="UTF-8"?>
<!-- Created with Inkscape (http://www.inkscape.org/) -->
<svg width="511.99997" height="511.99997" version="1.1" viewBox="0 0 135.46666 135.46666" xmlns="http://www.w3.org/2000/svg" xmlns:cc="http://creativecommons.org/ns#" xmlns:dc="http://purl.org/dc/elements/1.1/" xmlns:rdf="http://www.w3.org/1999/02/22-rdf-syntax-ns#">
 <metadata>
  <rdf:RDF>
   <cc:Work rdf:about="">
    <dc:format>image/svg+xml</dc:format>
    <dc:type rdf:resource="http://purl.org/dc/dcmitype/StillImage"/>
    <dc:title/>
   </cc:Work>
  </rdf:RDF>
 </metadata>
 <g transform="translate(-138.79716,-247.45537)">
  <rect x="138.79716" y="247.45537" width="135.46666" height="135.46666" fill="#250"/>
  <g transform="matrix(.73458626 0 0 .73442874 138.82426 180.66211)">
   <g transform="translate(.52916673)">
    <g transform="translate(28.647811,7.3734086)" stroke-width=".26458332">
     <path d="m53.569238 175.08376h-65.40685c-5.157 0-9.33794-4.18068-9.33794-9.33793v-65.40686c0-5.156991 4.18068-9.337939 9.33794-9.337939h65.40473c5.15938 0 9.34033 4.180688 9.34033 9.337939v65.40474c-2.7e-4 5.15937-4.18095 9.34005-9.33821 9.34005z" fill="#fff8e1"/>
     <path d="m53.569238 175.08376h-65.40685c-5.157 0-9.33794-4.18068-9.33794-9.33793v-65.40686c0-5.156988 4.18068-9.337936 9.33794-9.337936h65.40473c5.15938 0 9.34033 4.180688 9.34033 9.337936v65.40474c-2.7e-4 5.15937-4.18095 9.34005-9.33821 9.34005z" fill="#ccc497" opacity=".3"/>
     <g fill="#28384c">
      <circle cx="-3.442337" cy="109.68604" r="9.3424377"/>
      <circle cx="-3.442337" cy="156.39848" r="9.3424377"/>
      <circle cx="43.270111" cy="109.68604" r="9.3424377"/>
      <circle cx="43.270111" cy="156.39848" r="9.3424377"/>
     </g>
    </g>
   </g>
   <g transform="translate(32.22077,1.2392604)" stroke-width=".26458332">
    <path d="m134.64654 226.46756h-65.40685c-5.156993 0-9.337939-4.18068-9.337939-9.33793v-65.40686c0-5.15699 4.180681-9.33794 9.337939-9.33794h65.40473c5.15938 0 9.34033 4.18069 9.34033 9.33794v65.40474c-2.7e-4 5.15937-4.18095 9.34005-9.33821 9.34005z" fill="#fff8e1"/>
    <g fill="#28384c">
     <circle cx="78.586891" cy="207.78242" r="9.3424377"/>
     <circle cx="125.29934" cy="161.06998" r="9.3424377"/>
     <circle cx="78.586891" cy="161.06998" r="9.3424377"/>
     <circle cx="101.94299" cy="184.42607" r="9.3424377"/>
     <circle cx="125.29934" cy="207.78242" r="9.3424377"/>
    </g>
   </g>
  </g>
  <g transform="rotate(-15,174.52916,357.72372)">
   <rect x="143.34111" y="342.43951" width="62.376106" height="30.56842" ry="4.9570417" fill="#fff"/>
   <rect x="145.37158" y="344.90085" width="58.315163" height="25.645731" ry="4.1587672" fill="#3771c8"/>
   <rect x="146.78467" y="346.61057" width="55.488987" height="22.226299" ry="3.6042652" fill="#fff"/>
  </g>
  <g transform="rotate(-15)" fill="#424242" stroke-width=".26458332" style="font-feature-settings:normal;font-variant-caps:normal;font-variant-ligatures:normal;font-variant-numeric:normal" aria-label="Daniel">
   <path d="m63.279806 384.73318q0.180867 0 0.654568 0.51676 1.791449 0.80099 2.756076 2.61827 0.792372 2.21348 0.792372 4.58198 0 0.68041-0.620117 2.30822-0.327284 1.12826-1.79145 2.61827-0.465088 0.34451-0.72347 0.34451l-0.792372-0.0344q-0.223931 0-0.72347 0.17225-0.172255 0-0.37896-0.1378-0.206706-0.13781-0.206706-0.82682 0.241157-1.73978 0.241157-5.0643-0.172255-4.57336-0.172255-6.02891 0.275607-1.06798 0.964627-1.06798zm0.03445 6.51123 0.0689 1.17133v1.34359q0 1.88619-0.103352 2.54937 0 0.3359 0.861273 0.37896h0.0689q0.62873 0 1.44694-1.58474 0.861274-1.1455 0.861274-2.82498 0-2.86805-1.033528-4.44418-0.999078-1.24884-1.79145-1.51584h-0.103353q-0.241157 0-0.241157 2.27376z" style="font-feature-settings:normal;font-variant-caps:normal;font-variant-ligatures:normal;font-variant-numeric:normal"/>
   <path d="m70.548957 384.79347q0.714858 0.24977 1.240235 0.99907 0.482313 0.88712 0.800984 2.26515 0.327285 1.37804 0.370348 4.00493-0.02584 3.1092-0.198093 3.514 0 1.99815-0.585666 1.99815 0 0.0861-2.695787 0.10335-0.775147 0-1.274686-1.27468-0.137803-0.56844-0.137803-0.99908v-0.17225q0-1.19717 0.999077-2.48047 0.602892-0.68902 1.550293-0.68902l0.757921 0.0344h0.378961l0.03445-0.37896 0.03445-1.72255q0-1.44694-0.930176-3.5829-0.258382-0.31006-0.516764-0.31006h-0.137804q-0.103353 0-0.826823 0.48232h-0.0689q-0.551215-0.25839-0.551215-0.58567v-0.1378q0.904337-1.06798 1.756998-1.06798zm-1.309136 10.26638v0.27561q0 0.76653 0.378961 1.06798h0.0689q1.765612-0.0775 1.800063-0.0861 0.310059-1.54168 0.02584-2.56659-0.275608-0.48232-0.895725-0.48232-0.62873 0-1.309136 1.20579z" style="font-feature-settings:normal;font-variant-caps:normal;font-variant-ligatures:normal;font-variant-numeric:normal"/>
   <path d="m78.162619 385.03462q0.551215 0.17226 0.861274 0.93018 0.206705 0.24977 0.482313 1.8259-0.310059 5.04707-0.275608 7.55337l0.03445 1.6881q0 0.96463-0.654568 0.96463-0.551215 0-0.551215-0.79238 0.103353-5.46047 0.275607-7.82898l0.0689-2.06705-0.447862-1.10243q-0.146417-0.13781-0.275608-0.13781h-0.172252q-0.585666-0.0344-2.153184 3.89296-0.551216 1.41249-0.551216 1.72255v1.37804l0.103353 2.24792-0.0689 0.99908v0.0344l0.0689 0.65457q0 0.31867-0.654568 0.68902-0.585666-0.16364-0.585666-0.96463l-0.0689-1.10243q0.137804-3.22116 0.103353-9.20702 0-1.20578 0.310058-1.20578 0.232544-0.20671 0.482314-0.20671 0.344509 0 0.344509 0.41341l-0.0689 2.41157q0.04306 0.17226 0.103352 0.17226h0.206706q0.06029 0 0.930176-1.6192 0.852661-1.20578 1.205783-1.20578 0.396186-0.31006 0.947402-0.13781z" style="font-feature-settings:normal;font-variant-caps:normal;font-variant-ligatures:normal;font-variant-numeric:normal"/>
   <path d="m81.073725 384.32838q0.37896 0 0.585666 0.68902-0.172255 0.62012-0.689019 0.62012h-0.103353q-0.378961 0-0.482314-0.58567 0-0.44786 0.654569-0.72347zm0.120578 2.54937q0.37896 0 0.37896 1.58474l0.03445 1.6881q-0.08613 7.32083-0.241156 7.32083-0.378961 0.41341-0.689019 0.41341-0.378961 0-0.516765-0.96463l0.03445-0.0345v-0.0344l0.34451-3.13504 0.0689-3.37619-0.103353-2.5666q0.120578-0.89572 0.689019-0.89572z" style="font-feature-settings:normal;font-variant-caps:normal;font-variant-ligatures:normal;font-variant-numeric:normal"/>
   <path d="m84.561884 384.60399q0.757921 0 1.791449 0.82682 0.172255 0.31006 0.172255 0.62012 0 1.54168-0.999078 2.13596-1.145494 0.34451-1.894802 0.34451-0.172255 0.18086-0.172255 0.55121v0.58567q0 1.86896 0.482313 4.20301 0 1.25746 0.964627 2.44602 0.301446 0.24116 0.447863 0.24116h0.241156q0.34451-0.12919 0.861274-0.44786l0.206706-0.0345q0.249769 0 0.37896 0.41342 0 0.77514-1.205783 1.55029l-0.551215 0.10335q-0.490926 0-1.722548-1.34359-0.654568-1.02491-0.654568-2.48046-0.447863-2.18764-0.516765-5.58106 0-1.37804 0.964627-3.44509 0.809598-0.68902 1.205784-0.68902zm-0.792372 2.75607 0.172254 0.10336q1.085205 0 1.44694-0.58567 0.103353-0.18087 0.103353-0.34451v-0.1378q0-0.51677-0.654568-0.51677-0.91295 0-1.067979 1.44694z" style="font-feature-settings:normal;font-variant-caps:normal;font-variant-ligatures:normal;font-variant-numeric:normal"/>
   <path d="m88.911317 383.45849q0.241156 0 0.482313 0.20671l-0.03445 0.2067-0.37896 10.6798q0 3.23839-0.206706 3.23839-0.266995 0.20671-0.378961 0.20671-0.413411 0-0.516764-0.96463v-0.62012q0-2.48047 0.37896-10.78315 0-2.10151 0.275608-2.10151z" style="font-feature-settings:normal;font-variant-caps:normal;font-variant-ligatures:normal;font-variant-numeric:normal"/>
  </g>
 </g>
</svg>
