<?xml version="1.0" encoding="UTF-8"?>
<!-- Created with Inkscape (http://www.inkscape.org/) -->
<svg width="1e3" height="330" version="1.1" viewBox="0 0 264.58333 87.312503" xmlns="http://www.w3.org/2000/svg" xmlns:cc="http://creativecommons.org/ns#" xmlns:dc="http://purl.org/dc/elements/1.1/" xmlns:rdf="http://www.w3.org/1999/02/22-rdf-syntax-ns#">
 <metadata>
  <rdf:RDF>
   <cc:Work rdf:about="">
    <dc:format>image/svg+xml</dc:format>
    <dc:type rdf:resource="http://purl.org/dc/dcmitype/StillImage"/>
    <dc:title/>
   </cc:Work>
  </rdf:RDF>
 </metadata>
 <g transform="translate(13.388688,123.36572)" fill="#f9eab0">
  <g transform="translate(-4.3209865,-13.021881)">
   <polygon transform="matrix(3.4969519,0,0,3.4969519,113.27756,365.73105)" points=""/>
   <polygon transform="matrix(3.4969519,0,0,3.4969519,342.59567,411.52488)" points=""/>
   <polygon transform="matrix(3.4969519,0,0,3.4969519,289.53119,373.17891)" points=""/>
   <polygon transform="matrix(3.4969519,0,0,3.4969519,300.01292,440.20544)" points=""/>
  </g>
  <polygon transform="matrix(3.4969519,0,0,3.4969519,287.00033,421.65347)" points=""/>
  <polygon transform="matrix(3.4969519,0,0,3.4969519,303.01547,430.5806)" points=""/>
  <polygon transform="matrix(3.4969519,0,0,3.4969519,329.47079,438.07209)" points=""/>
  <polygon transform="matrix(3.4969519,0,0,3.4969519,294.31957,398.16563)" points=""/>
  <g transform="translate(300.0781,58.644218)">
   <polygon transform="matrix(3.4969519,0,0,3.4969519,454.53799,116.97428)" points=""/>
   <polygon transform="matrix(9.1061708,0,0,9.0930789,1282.4585,1088.9576)" points=""/>
   <polygon transform="matrix(3.4969519,0,0,3.4969519,828.57006,-535.68054)" points=""/>
   <polygon transform="matrix(3.4969519,0,0,3.4969519,-1847.954,290.9635)" points=""/>
  </g>
 </g>
 <g transform="translate(-351.38287,165.08874)" letter-spacing="0px" word-spacing="0px">
  <text x="-1222.3983" y="-173.37076" font-family="sans-serif" font-size="10.58333302px" stroke-width=".26458332" style="line-height:1.25" xml:space="preserve"><tspan x="-1222.3983" y="-164.00699" stroke-width=".26458332"/></text>
  <text x="-2245.1282" y="-126.3082" font-family="'SC Gum Kids'" font-size="266.9718323px" stroke-width=".80091542" style="font-feature-settings:normal;font-variant-caps:normal;font-variant-ligatures:normal;font-variant-numeric:normal;line-height:1.25" xml:space="preserve"><tspan x="-2245.1282" y="114.67583" font-family="'SC Gum Kids'" font-size="266.9718323px" stroke-width=".80091542" style="font-feature-settings:normal;font-variant-caps:normal;font-variant-ligatures:normal;font-variant-numeric:normal"/></text>
  <text x="912.07428" y="386.35889" font-family="sans-serif" font-size="10.58333302px" stroke-width=".26458332" style="line-height:1.25" xml:space="preserve"><tspan x="912.07428" y="395.72266" stroke-width=".26458332"/></text>
 </g>
 <polygon transform="matrix(3.4969519,0,0,3.4969519,-1531.3559,507.56304)" points="" fill="#f9eab0"/>
 <g transform="translate(313.46678,182.00994)" letter-spacing="0px" word-spacing="0px">
  <text x="-1884.1167" y="-155.70239" font-family="sans-serif" font-size="10.58333302px" stroke-width=".26458332" style="line-height:1.25" xml:space="preserve"><tspan x="-1884.1167" y="-146.33862" stroke-width=".26458332"/></text>
  <text x="-2906.8464" y="-108.63977" font-family="'SC Gum Kids'" font-size="266.9718323px" stroke-width=".80091542" style="font-feature-settings:normal;font-variant-caps:normal;font-variant-ligatures:normal;font-variant-numeric:normal;line-height:1.25" xml:space="preserve"><tspan x="-2906.8464" y="132.34424" font-family="'SC Gum Kids'" font-size="266.9718323px" stroke-width=".80091542" style="font-feature-settings:normal;font-variant-caps:normal;font-variant-ligatures:normal;font-variant-numeric:normal"/></text>
  <text x="250.35588" y="404.02722" font-family="sans-serif" font-size="10.58333302px" stroke-width=".26458332" style="line-height:1.25" xml:space="preserve"><tspan x="250.35588" y="413.39099" stroke-width=".26458332"/></text>
 </g>
 <polygon transform="matrix(3.4969519,0,0,3.4969519,-1682.0405,478.83154)" points="" fill="#f9eab0"/>
 <g transform="translate(313.46678,182.00994)" letter-spacing="0px" word-spacing="0px">
  <text x="-2034.8013" y="-184.43384" font-family="sans-serif" font-size="10.58333302px" stroke-width=".26458332" style="line-height:1.25" xml:space="preserve"><tspan x="-2034.8013" y="-175.07007" stroke-width=".26458332"/></text>
  <text x="-3057.531" y="-137.37134" font-family="'SC Gum Kids'" font-size="266.9718323px" stroke-width=".80091542" style="font-feature-settings:normal;font-variant-caps:normal;font-variant-ligatures:normal;font-variant-numeric:normal;line-height:1.25" xml:space="preserve"><tspan x="-3057.531" y="103.61267" font-family="'SC Gum Kids'" font-size="266.9718323px" stroke-width=".80091542" style="font-feature-settings:normal;font-variant-caps:normal;font-variant-ligatures:normal;font-variant-numeric:normal"/></text>
  <text x="99.671333" y="375.29578" font-family="sans-serif" font-size="10.58333302px" stroke-width=".26458332" style="line-height:1.25" xml:space="preserve"><tspan x="99.671333" y="384.65955" stroke-width=".26458332"/></text>
 </g>
 <polygon transform="matrix(3.4969519,0,0,3.4969519,-1681.7965,533.06894)" points="" fill="#f9eab0"/>
 <g transform="translate(301.56854,-200.69931)" letter-spacing="0px" word-spacing="0px">
  <text x="-2022.6592" y="252.51283" font-family="sans-serif" font-size="10.58333302px" stroke-width=".26458332" style="line-height:1.25" xml:space="preserve"><tspan x="-2022.6592" y="261.87659" stroke-width=".26458332"/></text>
  <text x="-3045.3889" y="299.57538" font-family="'SC Gum Kids'" font-size="266.9718323px" stroke-width=".80091542" style="font-feature-settings:normal;font-variant-caps:normal;font-variant-ligatures:normal;font-variant-numeric:normal;line-height:1.25" xml:space="preserve"><tspan x="-3045.3889" y="540.55945" font-family="'SC Gum Kids'" font-size="266.9718323px" stroke-width=".80091542" style="font-feature-settings:normal;font-variant-caps:normal;font-variant-ligatures:normal;font-variant-numeric:normal"/></text>
  <text x="111.81351" y="812.24249" font-family="sans-serif" font-size="10.58333302px" stroke-width=".26458332" style="line-height:1.25" xml:space="preserve"><tspan x="111.81351" y="821.60626" stroke-width=".26458332"/></text>
 </g>
 <polygon transform="matrix(3.4969519,0,0,3.4969519,-1832.9458,481.06884)" points="" fill="#f9eab0"/>
 <g transform="translate(313.46678,182.00994)" letter-spacing="0px" word-spacing="0px">
  <text x="-2185.7068" y="-182.19659" font-family="sans-serif" font-size="10.58333302px" stroke-width=".26458332" style="line-height:1.25" xml:space="preserve"><tspan x="-2185.7068" y="-172.83282" stroke-width=".26458332"/></text>
  <text x="-3208.4365" y="-135.13403" font-family="'SC Gum Kids'" font-size="266.9718323px" stroke-width=".80091542" style="font-feature-settings:normal;font-variant-caps:normal;font-variant-ligatures:normal;font-variant-numeric:normal;line-height:1.25" xml:space="preserve"><tspan x="-3208.4365" y="105.84998" font-family="'SC Gum Kids'" font-size="266.9718323px" stroke-width=".80091542" style="font-feature-settings:normal;font-variant-caps:normal;font-variant-ligatures:normal;font-variant-numeric:normal"/></text>
  <text x="-51.233967" y="377.53308" font-family="sans-serif" font-size="10.58333302px" stroke-width=".26458332" style="line-height:1.25" xml:space="preserve"><tspan x="-51.233967" y="386.89685" stroke-width=".26458332"/></text>
 </g>
 <polygon transform="matrix(3.4969519,0,0,3.4969519,-1828.0809,544.37114)" points="" fill="#f9eab0"/>
 <g transform="translate(313.46678,182.00994)" letter-spacing="0px" word-spacing="0px">
  <text x="-2180.8418" y="-118.89429" font-family="sans-serif" font-size="10.58333302px" stroke-width=".26458332" style="line-height:1.25" xml:space="preserve"><tspan x="-2180.8418" y="-109.53052" stroke-width=".26458332"/></text>
  <text x="-3203.5715" y="-71.831665" font-family="'SC Gum Kids'" font-size="266.9718323px" stroke-width=".80091542" style="font-feature-settings:normal;font-variant-caps:normal;font-variant-ligatures:normal;font-variant-numeric:normal;line-height:1.25" xml:space="preserve"><tspan x="-3203.5715" y="169.15234" font-family="'SC Gum Kids'" font-size="266.9718323px" stroke-width=".80091542" style="font-feature-settings:normal;font-variant-caps:normal;font-variant-ligatures:normal;font-variant-numeric:normal"/></text>
  <text x="-46.369076" y="440.83533" font-family="sans-serif" font-size="10.58333302px" stroke-width=".26458332" style="line-height:1.25" xml:space="preserve"><tspan x="-46.369076" y="450.1991" stroke-width=".26458332"/></text>
 </g>
 <polygon transform="matrix(3.4969519,0,0,3.4969519,-1534.4872,1479.6558)" points="" fill="#f9eab0"/>
 <g transform="translate(313.46678,182.00994)" letter-spacing="0px" word-spacing="0px">
  <text x="-1887.2479" y="816.39038" font-family="sans-serif" font-size="10.58333302px" stroke-width=".26458332" style="line-height:1.25" xml:space="preserve"><tspan x="-1887.2479" y="825.75415" stroke-width=".26458332"/></text>
  <text x="-2909.9778" y="863.45288" font-family="'SC Gum Kids'" font-size="266.9718323px" stroke-width=".80091542" style="font-feature-settings:normal;font-variant-caps:normal;font-variant-ligatures:normal;font-variant-numeric:normal;line-height:1.25" xml:space="preserve"><tspan x="-2909.9778" y="1104.437" font-family="'SC Gum Kids'" font-size="266.9718323px" stroke-width=".80091542" style="font-feature-settings:normal;font-variant-caps:normal;font-variant-ligatures:normal;font-variant-numeric:normal"/></text>
  <text x="247.22462" y="1376.1199" font-family="sans-serif" font-size="10.58333302px" stroke-width=".26458332" style="line-height:1.25" xml:space="preserve"><tspan x="247.22462" y="1385.4836" stroke-width=".26458332"/></text>
 </g>
 <polygon transform="matrix(3.4969519,0,0,3.4969519,-1531.3559,1514.2454)" points="" fill="#f9eab0"/>
 <g transform="translate(313.46678,182.00994)" letter-spacing="0px" word-spacing="0px">
  <text x="-1884.1167" y="850.97998" font-family="sans-serif" font-size="10.58333302px" stroke-width=".26458332" style="line-height:1.25" xml:space="preserve"><tspan x="-1884.1167" y="860.34375" stroke-width=".26458332"/></text>
  <text x="-2906.8464" y="898.04248" font-family="'SC Gum Kids'" font-size="266.9718323px" stroke-width=".80091542" style="font-feature-settings:normal;font-variant-caps:normal;font-variant-ligatures:normal;font-variant-numeric:normal;line-height:1.25" xml:space="preserve"><tspan x="-2906.8464" y="1139.0266" font-family="'SC Gum Kids'" font-size="266.9718323px" stroke-width=".80091542" style="font-feature-settings:normal;font-variant-caps:normal;font-variant-ligatures:normal;font-variant-numeric:normal"/></text>
  <text x="250.35588" y="1410.7095" font-family="sans-serif" font-size="10.58333302px" stroke-width=".26458332" style="line-height:1.25" xml:space="preserve"><tspan x="250.35588" y="1420.0732" stroke-width=".26458332"/></text>
 </g>
 <polygon transform="matrix(3.4969519,0,0,3.4969519,-1682.0405,1485.5139)" points="" fill="#f9eab0"/>
 <g transform="translate(313.46678,182.00994)" letter-spacing="0px" word-spacing="0px">
  <text x="-2034.8013" y="822.24841" font-family="sans-serif" font-size="10.58333302px" stroke-width=".26458332" style="line-height:1.25" xml:space="preserve"><tspan x="-2034.8013" y="831.61218" stroke-width=".26458332"/></text>
  <text x="-3057.531" y="869.31104" font-family="'SC Gum Kids'" font-size="266.9718323px" stroke-width=".80091542" style="font-feature-settings:normal;font-variant-caps:normal;font-variant-ligatures:normal;font-variant-numeric:normal;line-height:1.25" xml:space="preserve"><tspan x="-3057.531" y="1110.2949" font-family="'SC Gum Kids'" font-size="266.9718323px" stroke-width=".80091542" style="font-feature-settings:normal;font-variant-caps:normal;font-variant-ligatures:normal;font-variant-numeric:normal"/></text>
  <text x="99.671333" y="1381.978" font-family="sans-serif" font-size="10.58333302px" stroke-width=".26458332" style="line-height:1.25" xml:space="preserve"><tspan x="99.671333" y="1391.3418" stroke-width=".26458332"/></text>
 </g>
 <polygon transform="matrix(3.4969519,0,0,3.4969519,-1681.7965,1539.7514)" points="" fill="#f9eab0"/>
 <g transform="translate(301.56854,805.98304)" letter-spacing="0px" word-spacing="0px">
  <text x="-2022.6592" y="252.51283" font-family="sans-serif" font-size="10.58333302px" stroke-width=".26458332" style="line-height:1.25" xml:space="preserve"><tspan x="-2022.6592" y="261.87659" stroke-width=".26458332"/></text>
  <text x="-3045.3889" y="299.57538" font-family="'SC Gum Kids'" font-size="266.9718323px" stroke-width=".80091542" style="font-feature-settings:normal;font-variant-caps:normal;font-variant-ligatures:normal;font-variant-numeric:normal;line-height:1.25" xml:space="preserve"><tspan x="-3045.3889" y="540.55945" font-family="'SC Gum Kids'" font-size="266.9718323px" stroke-width=".80091542" style="font-feature-settings:normal;font-variant-caps:normal;font-variant-ligatures:normal;font-variant-numeric:normal"/></text>
  <text x="111.81351" y="812.24249" font-family="sans-serif" font-size="10.58333302px" stroke-width=".26458332" style="line-height:1.25" xml:space="preserve"><tspan x="111.81351" y="821.60626" stroke-width=".26458332"/></text>
 </g>
 <polygon transform="matrix(3.4969519,0,0,3.4969519,-1832.9458,1487.7512)" points="" fill="#f9eab0"/>
 <g transform="translate(313.46678,182.00994)" letter-spacing="0px" word-spacing="0px">
  <text x="-2185.7068" y="824.48572" font-family="sans-serif" font-size="10.58333302px" stroke-width=".26458332" style="line-height:1.25" xml:space="preserve"><tspan x="-2185.7068" y="833.84949" stroke-width=".26458332"/></text>
  <text x="-3208.4365" y="871.54834" font-family="'SC Gum Kids'" font-size="266.9718323px" stroke-width=".80091542" style="font-feature-settings:normal;font-variant-caps:normal;font-variant-ligatures:normal;font-variant-numeric:normal;line-height:1.25" xml:space="preserve"><tspan x="-3208.4365" y="1112.5322" font-family="'SC Gum Kids'" font-size="266.9718323px" stroke-width=".80091542" style="font-feature-settings:normal;font-variant-caps:normal;font-variant-ligatures:normal;font-variant-numeric:normal"/></text>
  <text x="-51.233967" y="1384.2153" font-family="sans-serif" font-size="10.58333302px" stroke-width=".26458332" style="line-height:1.25" xml:space="preserve"><tspan x="-51.233967" y="1393.5791" stroke-width=".26458332"/></text>
 </g>
 <polygon transform="matrix(3.4969519,0,0,3.4969519,-1828.0809,1551.0535)" points="" fill="#f9eab0"/>
 <g transform="translate(946.73479,819.14064)" letter-spacing="0px" word-spacing="0px">
  <text x="-2814.1099" y="250.65732" font-family="sans-serif" font-size="10.58333302px" stroke-width=".26458332" style="line-height:1.25" xml:space="preserve"><tspan x="-2814.1099" y="260.02109" stroke-width=".26458332"/></text>
  <text x="-3836.8396" y="297.71988" font-family="'SC Gum Kids'" font-size="266.9718323px" stroke-width=".80091542" style="font-feature-settings:normal;font-variant-caps:normal;font-variant-ligatures:normal;font-variant-numeric:normal;line-height:1.25" xml:space="preserve"><tspan x="-3836.8396" y="538.70392" font-family="'SC Gum Kids'" font-size="266.9718323px" stroke-width=".80091542" style="font-feature-settings:normal;font-variant-caps:normal;font-variant-ligatures:normal;font-variant-numeric:normal"/></text>
  <text x="-679.63708" y="810.38696" font-family="sans-serif" font-size="10.58333302px" stroke-width=".26458332" style="line-height:1.25" xml:space="preserve"><tspan x="-679.63708" y="819.75073" stroke-width=".26458332"/></text>
 </g>
 <g fill="#f9eab0">
  <polygon transform="matrix(3.4969519,0,0,3.4969519,941.76556,682.45075)" points=""/>
  <polygon transform="matrix(3.4969519,0,0,3.4969519,171.3544,501.23112)" points=""/>
  <g transform="translate(333.36925,-98.970963)">
   <polygon transform="matrix(3.4969519,0,0,3.4969519,113.27756,365.73105)" points=""/>
   <polygon transform="matrix(3.4969519,0,0,3.4969519,342.59567,411.52488)" points=""/>
   <polygon transform="matrix(3.4969519,0,0,3.4969519,289.53119,373.17891)" points=""/>
   <polygon transform="matrix(3.4969519,0,0,3.4969519,300.01292,440.20544)" points=""/>
  </g>
  <polygon transform="matrix(3.4969519,0,0,3.4969519,624.69057,335.70439)" points=""/>
  <polygon transform="matrix(3.4969519,0,0,3.4969519,640.70571,344.63152)" points=""/>
  <polygon transform="matrix(3.4969519,0,0,3.4969519,667.16103,352.12301)" points=""/>
  <polygon transform="matrix(3.4969519,0,0,3.4969519,632.00981,312.21655)" points=""/>
  <g transform="translate(637.76834,-27.304864)">
   <polygon transform="matrix(3.4969519,0,0,3.4969519,454.53799,116.97428)" points=""/>
   <polygon transform="matrix(9.1061708,0,0,9.0930789,1282.4585,1088.9576)" points=""/>
   <polygon transform="matrix(3.4969519,0,0,3.4969519,828.57006,-535.68054)" points=""/>
   <polygon transform="matrix(3.4969519,0,0,3.4969519,-1847.954,290.9635)" points=""/>
  </g>
 </g>
 <g letter-spacing="0px" word-spacing="0px">
  <text x="-1249.4796" y="-217.59682" font-family="sans-serif" font-size="10.58333302px" stroke-width=".26458332" style="line-height:1.25" xml:space="preserve"><tspan x="-1249.4796" y="-208.23305" stroke-width=".26458332"/></text>
  <text x="-2272.2095" y="-170.53426" font-family="'SC Gum Kids'" font-size="266.9718323px" stroke-width=".80091542" style="font-feature-settings:normal;font-variant-caps:normal;font-variant-ligatures:normal;font-variant-numeric:normal;line-height:1.25" xml:space="preserve"><tspan x="-2272.2095" y="70.449768" font-family="'SC Gum Kids'" font-size="266.9718323px" stroke-width=".80091542" style="font-feature-settings:normal;font-variant-caps:normal;font-variant-ligatures:normal;font-variant-numeric:normal"/></text>
  <text x="884.99292" y="342.13281" font-family="sans-serif" font-size="10.58333302px" stroke-width=".26458332" style="line-height:1.25" xml:space="preserve"><tspan x="884.99292" y="351.49658" stroke-width=".26458332"/></text>
 </g>
 <polygon transform="matrix(3.4969519,0,0,3.4969519,-1207.0543,298.24824)" points="" fill="#f9eab0"/>
 <g letter-spacing="0px" word-spacing="0px">
  <text x="-1246.3483" y="-183.00725" font-family="sans-serif" font-size="10.58333302px" stroke-width=".26458332" style="line-height:1.25" xml:space="preserve"><tspan x="-1246.3483" y="-173.64348" stroke-width=".26458332"/></text>
  <text x="-2269.0781" y="-135.94463" font-family="'SC Gum Kids'" font-size="266.9718323px" stroke-width=".80091542" style="font-feature-settings:normal;font-variant-caps:normal;font-variant-ligatures:normal;font-variant-numeric:normal;line-height:1.25" xml:space="preserve"><tspan x="-2269.0781" y="105.03938" font-family="'SC Gum Kids'" font-size="266.9718323px" stroke-width=".80091542" style="font-feature-settings:normal;font-variant-caps:normal;font-variant-ligatures:normal;font-variant-numeric:normal"/></text>
  <text x="888.12421" y="376.72235" font-family="sans-serif" font-size="10.58333302px" stroke-width=".26458332" style="line-height:1.25" xml:space="preserve"><tspan x="888.12421" y="386.08612" stroke-width=".26458332"/></text>
 </g>
 <polygon transform="matrix(3.4969519,0,0,3.4969519,-1357.7389,269.51674)" points="" fill="#f9eab0"/>
 <g letter-spacing="0px" word-spacing="0px">
  <text x="-1397.0328" y="-211.73869" font-family="sans-serif" font-size="10.58333302px" stroke-width=".26458332" style="line-height:1.25" xml:space="preserve"><tspan x="-1397.0328" y="-202.37492" stroke-width=".26458332"/></text>
  <text x="-2419.7627" y="-164.67619" font-family="'SC Gum Kids'" font-size="266.9718323px" stroke-width=".80091542" style="font-feature-settings:normal;font-variant-caps:normal;font-variant-ligatures:normal;font-variant-numeric:normal;line-height:1.25" xml:space="preserve"><tspan x="-2419.7627" y="76.307808" font-family="'SC Gum Kids'" font-size="266.9718323px" stroke-width=".80091542" style="font-feature-settings:normal;font-variant-caps:normal;font-variant-ligatures:normal;font-variant-numeric:normal"/></text>
  <text x="737.43964" y="347.99091" font-family="sans-serif" font-size="10.58333302px" stroke-width=".26458332" style="line-height:1.25" xml:space="preserve"><tspan x="737.43964" y="357.35468" stroke-width=".26458332"/></text>
 </g>
 <polygon transform="matrix(3.4969519,0,0,3.4969519,-1357.4949,323.75414)" points="" fill="#f9eab0"/>
 <g letter-spacing="0px" word-spacing="0px">
  <text x="-1396.7891" y="-157.50128" font-family="sans-serif" font-size="10.58333302px" stroke-width=".26458332" style="line-height:1.25" xml:space="preserve"><tspan x="-1396.7891" y="-148.13753" stroke-width=".26458332"/></text>
  <text x="-2419.5188" y="-110.43873" font-family="'SC Gum Kids'" font-size="266.9718323px" stroke-width=".80091542" style="font-feature-settings:normal;font-variant-caps:normal;font-variant-ligatures:normal;font-variant-numeric:normal;line-height:1.25" xml:space="preserve"><tspan x="-2419.5188" y="130.54533" font-family="'SC Gum Kids'" font-size="266.9718323px" stroke-width=".80091542" style="font-feature-settings:normal;font-variant-caps:normal;font-variant-ligatures:normal;font-variant-numeric:normal"/></text>
  <text x="737.68359" y="402.22836" font-family="sans-serif" font-size="10.58333302px" stroke-width=".26458332" style="line-height:1.25" xml:space="preserve"><tspan x="737.68359" y="411.59213" stroke-width=".26458332"/></text>
 </g>
 <polygon transform="matrix(3.4969519,0,0,3.4969519,-1508.6442,271.75404)" points="" fill="#f9eab0"/>
 <g letter-spacing="0px" word-spacing="0px">
  <text x="-1547.9384" y="-209.50145" font-family="sans-serif" font-size="10.58333302px" stroke-width=".26458332" style="line-height:1.25" xml:space="preserve"><tspan x="-1547.9384" y="-200.13768" stroke-width=".26458332"/></text>
  <text x="-2570.6682" y="-162.43889" font-family="'SC Gum Kids'" font-size="266.9718323px" stroke-width=".80091542" style="font-feature-settings:normal;font-variant-caps:normal;font-variant-ligatures:normal;font-variant-numeric:normal;line-height:1.25" xml:space="preserve"><tspan x="-2570.6682" y="78.54512" font-family="'SC Gum Kids'" font-size="266.9718323px" stroke-width=".80091542" style="font-feature-settings:normal;font-variant-caps:normal;font-variant-ligatures:normal;font-variant-numeric:normal"/></text>
  <text x="586.53436" y="350.22821" font-family="sans-serif" font-size="10.58333302px" stroke-width=".26458332" style="line-height:1.25" xml:space="preserve"><tspan x="586.53436" y="359.59198" stroke-width=".26458332"/></text>
 </g>
 <polygon transform="matrix(3.4969519,0,0,3.4969519,-1503.7793,335.05634)" points="" fill="#f9eab0"/>
 <g letter-spacing="0px" word-spacing="0px">
  <text x="-1543.0734" y="-146.19914" font-family="sans-serif" font-size="10.58333302px" stroke-width=".26458332" style="line-height:1.25" xml:space="preserve"><tspan x="-1543.0734" y="-136.83537" stroke-width=".26458332"/></text>
  <text x="-2565.8032" y="-99.136528" font-family="'SC Gum Kids'" font-size="266.9718323px" stroke-width=".80091542" style="font-feature-settings:normal;font-variant-caps:normal;font-variant-ligatures:normal;font-variant-numeric:normal;line-height:1.25" xml:space="preserve"><tspan x="-2565.8032" y="141.84749" font-family="'SC Gum Kids'" font-size="266.9718323px" stroke-width=".80091542" style="font-feature-settings:normal;font-variant-caps:normal;font-variant-ligatures:normal;font-variant-numeric:normal"/></text>
  <text x="591.39923" y="413.53046" font-family="sans-serif" font-size="10.58333302px" stroke-width=".26458332" style="line-height:1.25" xml:space="preserve"><tspan x="591.39923" y="422.89423" stroke-width=".26458332"/></text>
 </g>
 <polygon transform="matrix(3.4969519,0,0,3.4969519,-1210.1856,1270.341)" points="" fill="#f9eab0"/>
 <g letter-spacing="0px" word-spacing="0px">
  <text x="-1249.4795" y="789.08551" font-family="sans-serif" font-size="10.58333302px" stroke-width=".26458332" style="line-height:1.25" xml:space="preserve"><tspan x="-1249.4795" y="798.44928" stroke-width=".26458332"/></text>
  <text x="-2272.2095" y="836.14801" font-family="'SC Gum Kids'" font-size="266.9718323px" stroke-width=".80091542" style="font-feature-settings:normal;font-variant-caps:normal;font-variant-ligatures:normal;font-variant-numeric:normal;line-height:1.25" xml:space="preserve"><tspan x="-2272.2095" y="1077.1322" font-family="'SC Gum Kids'" font-size="266.9718323px" stroke-width=".80091542" style="font-feature-settings:normal;font-variant-caps:normal;font-variant-ligatures:normal;font-variant-numeric:normal"/></text>
  <text x="884.99292" y="1348.8151" font-family="sans-serif" font-size="10.58333302px" stroke-width=".26458332" style="line-height:1.25" xml:space="preserve"><tspan x="884.99292" y="1358.1788" stroke-width=".26458332"/></text>
 </g>
 <polygon transform="matrix(3.4969519,0,0,3.4969519,-1207.0543,1304.9306)" points="" fill="#f9eab0"/>
 <g letter-spacing="0px" word-spacing="0px">
  <text x="-1246.3483" y="823.67511" font-family="sans-serif" font-size="10.58333302px" stroke-width=".26458332" style="line-height:1.25" xml:space="preserve"><tspan x="-1246.3483" y="833.03888" stroke-width=".26458332"/></text>
  <text x="-2269.0781" y="870.73761" font-family="'SC Gum Kids'" font-size="266.9718323px" stroke-width=".80091542" style="font-feature-settings:normal;font-variant-caps:normal;font-variant-ligatures:normal;font-variant-numeric:normal;line-height:1.25" xml:space="preserve"><tspan x="-2269.0781" y="1111.7218" font-family="'SC Gum Kids'" font-size="266.9718323px" stroke-width=".80091542" style="font-feature-settings:normal;font-variant-caps:normal;font-variant-ligatures:normal;font-variant-numeric:normal"/></text>
  <text x="888.12421" y="1383.4047" font-family="sans-serif" font-size="10.58333302px" stroke-width=".26458332" style="line-height:1.25" xml:space="preserve"><tspan x="888.12421" y="1392.7684" stroke-width=".26458332"/></text>
 </g>
 <polygon transform="matrix(3.4969519,0,0,3.4969519,-1357.7389,1276.199)" points="" fill="#f9eab0"/>
 <g letter-spacing="0px" word-spacing="0px">
  <text x="-1397.0328" y="794.94354" font-family="sans-serif" font-size="10.58333302px" stroke-width=".26458332" style="line-height:1.25" xml:space="preserve"><tspan x="-1397.0328" y="804.30731" stroke-width=".26458332"/></text>
  <text x="-2419.7627" y="842.00616" font-family="'SC Gum Kids'" font-size="266.9718323px" stroke-width=".80091542" style="font-feature-settings:normal;font-variant-caps:normal;font-variant-ligatures:normal;font-variant-numeric:normal;line-height:1.25" xml:space="preserve"><tspan x="-2419.7627" y="1082.9901" font-family="'SC Gum Kids'" font-size="266.9718323px" stroke-width=".80091542" style="font-feature-settings:normal;font-variant-caps:normal;font-variant-ligatures:normal;font-variant-numeric:normal"/></text>
  <text x="737.43964" y="1354.6732" font-family="sans-serif" font-size="10.58333302px" stroke-width=".26458332" style="line-height:1.25" xml:space="preserve"><tspan x="737.43964" y="1364.037" stroke-width=".26458332"/></text>
 </g>
 <polygon transform="matrix(3.4969519,0,0,3.4969519,-1357.4949,1330.4365)" points="" fill="#f9eab0"/>
 <g letter-spacing="0px" word-spacing="0px">
  <text x="-1396.7891" y="849.18103" font-family="sans-serif" font-size="10.58333302px" stroke-width=".26458332" style="line-height:1.25" xml:space="preserve"><tspan x="-1396.7891" y="858.5448" stroke-width=".26458332"/></text>
  <text x="-2419.5188" y="896.24359" font-family="'SC Gum Kids'" font-size="266.9718323px" stroke-width=".80091542" style="font-feature-settings:normal;font-variant-caps:normal;font-variant-ligatures:normal;font-variant-numeric:normal;line-height:1.25" xml:space="preserve"><tspan x="-2419.5188" y="1137.2278" font-family="'SC Gum Kids'" font-size="266.9718323px" stroke-width=".80091542" style="font-feature-settings:normal;font-variant-caps:normal;font-variant-ligatures:normal;font-variant-numeric:normal"/></text>
  <text x="737.68359" y="1408.9108" font-family="sans-serif" font-size="10.58333302px" stroke-width=".26458332" style="line-height:1.25" xml:space="preserve"><tspan x="737.68359" y="1418.2745" stroke-width=".26458332"/></text>
 </g>
 <polygon transform="matrix(3.4969519,0,0,3.4969519,-1508.6442,1278.4363)" points="" fill="#f9eab0"/>
 <g letter-spacing="0px" word-spacing="0px">
  <text x="-1547.9384" y="797.18085" font-family="sans-serif" font-size="10.58333302px" stroke-width=".26458332" style="line-height:1.25" xml:space="preserve"><tspan x="-1547.9384" y="806.54462" stroke-width=".26458332"/></text>
  <text x="-2570.6682" y="844.24347" font-family="'SC Gum Kids'" font-size="266.9718323px" stroke-width=".80091542" style="font-feature-settings:normal;font-variant-caps:normal;font-variant-ligatures:normal;font-variant-numeric:normal;line-height:1.25" xml:space="preserve"><tspan x="-2570.6682" y="1085.2274" font-family="'SC Gum Kids'" font-size="266.9718323px" stroke-width=".80091542" style="font-feature-settings:normal;font-variant-caps:normal;font-variant-ligatures:normal;font-variant-numeric:normal"/></text>
  <text x="586.53436" y="1356.9105" font-family="sans-serif" font-size="10.58333302px" stroke-width=".26458332" style="line-height:1.25" xml:space="preserve"><tspan x="586.53436" y="1366.2743" stroke-width=".26458332"/></text>
 </g>
 <polygon transform="matrix(3.4969519,0,0,3.4969519,-1503.7793,1341.7387)" points="" fill="#f9eab0"/>
 <g letter-spacing="0px" word-spacing="0px">
  <text x="-1543.0735" y="860.48315" font-family="sans-serif" font-size="10.58333302px" stroke-width=".26458332" style="line-height:1.25" xml:space="preserve"><tspan x="-1543.0735" y="869.84692" stroke-width=".26458332"/></text>
  <text x="-2565.8032" y="907.54572" font-family="'SC Gum Kids'" font-size="266.9718323px" stroke-width=".80091542" style="font-feature-settings:normal;font-variant-caps:normal;font-variant-ligatures:normal;font-variant-numeric:normal;line-height:1.25" xml:space="preserve"><tspan x="-2565.8032" y="1148.5298" font-family="'SC Gum Kids'" font-size="266.9718323px" stroke-width=".80091542" style="font-feature-settings:normal;font-variant-caps:normal;font-variant-ligatures:normal;font-variant-numeric:normal"/></text>
  <text x="591.39929" y="1420.2129" font-family="sans-serif" font-size="10.58333302px" stroke-width=".26458332" style="line-height:1.25" xml:space="preserve"><tspan x="591.39929" y="1429.5767" stroke-width=".26458332"/></text>
 </g>
 <g fill="#f9eab0">
  <polygon transform="matrix(3.4969519,0,0,3.4969519,1266.0671,473.13595)" points=""/>
  <polygon transform="matrix(3.4969519,0,0,3.4969519,495.65595,291.91632)" points=""/>
  <g transform="translate(-36.958544,242.42664)">
   <g transform="translate(68.288401,120.02829)">
    <polygon transform="matrix(3.4969519,0,0,3.4969519,113.27756,365.73105)" points=""/>
    <polygon transform="matrix(3.4969519,0,0,3.4969519,342.59567,411.52488)" points=""/>
    <polygon transform="matrix(3.4969519,0,0,3.4969519,289.53119,373.17891)" points=""/>
    <polygon transform="matrix(3.4969519,0,0,3.4969519,300.01292,440.20544)" points=""/>
   </g>
   <polygon transform="matrix(3.4969519,0,0,3.4969519,359.60972,554.70364)" points=""/>
   <polygon transform="matrix(3.4969519,0,0,3.4969519,375.62486,563.63077)" points=""/>
  </g>
 </g>
 <g transform="translate(-7.5259261 -.76384228)">
  <rect x="7.5259261" y=".76384228" width="264.58334" height="87.3125" opacity="0" stroke-width="6.81303024"/>
  <g transform="translate(-115.19103,-114.66976)" fill="#fff" stroke="#f57c00" stroke-width=".79374999" style="font-feature-settings:normal;font-variant-caps:normal;font-variant-ligatures:normal;font-variant-numeric:normal" aria-label="decimals">
   <path d="m243.4884 169.17055-0.88194-19.29254q18.79644 0 18.79644 9.64627t-17.9145 9.64627zm4.90582-14.18002 0.92328 6.66971q5.96691 0.0276 5.96691-3.32107 0-3.34864-6.89019-3.34864z" style="font-feature-settings:normal;font-variant-caps:normal;font-variant-ligatures:normal;font-variant-numeric:normal"/>
   <path d="m276.72668 147.39754 0.35829 7.30361-8.57139 0.92328 0.11024 1.66743 5.6224-0.52366 0.49609 4.9885-5.87044 0.42719 0.0965 1.35048 8.32335-0.6339 1.24023 6.27008-16.41243 0.56499 1.66742-19.88509z" style="font-feature-settings:normal;font-variant-caps:normal;font-variant-ligatures:normal;font-variant-numeric:normal"/>
   <path d="m297.30079 166.34557q-3.26595 2.82498-7.88238 2.82498-4.61642 0-7.88237-2.82498-3.26596-2.82498-3.26596-6.82129t3.26596-6.82129q3.26595-2.82498 7.88237-2.82498 4.61643 0 7.88238 2.82498 1.63987 1.41938 2.46669 3.14193l-6.61458 1.66742q-0.33073-0.88194-1.15755-1.59852-1.4056-1.21267-3.3762-1.21267-1.97059 0-3.37619 1.21267t-1.4056 2.92144 1.4056 2.92144q1.4056 1.21268 3.37619 1.21268 1.9706 0 3.3762-1.21268 0.75792-0.66146 1.11621-1.48828l6.64214 2.93522q-0.81304 1.72255-2.45291 3.14193z" style="font-feature-settings:normal;font-variant-caps:normal;font-variant-ligatures:normal;font-variant-numeric:normal"/>
   <path d="m306.87816 149.98826 1.4056 18.58973-7.7997 1.4745 0.35829-19.58192z" style="font-feature-settings:normal;font-variant-caps:normal;font-variant-ligatures:normal;font-variant-numeric:normal"/>
   <path d="m331.02139 149.87801 1.15755 18.17633-7.028 0.59255-0.37207-9.30176-1.41938 6.3941-6.31141 0.88195-2.56315-6.60081 0.92328 7.82726-6.43544 1.32292 0.88195-19.29254 6.32519-0.8406 3.50022 11.0243 4.24436-10.69357z" style="font-feature-settings:normal;font-variant-caps:normal;font-variant-ligatures:normal;font-variant-numeric:normal"/>
   <path d="m339.28962 166.41447-0.96463 2.75608-5.42947-3.27973 6.80751-16.01281 5.18142-0.35829 8.14421 16.5778-6.43544 3.07303-1.41938-3.87229zm4.71289-6.03581-1.5434-4.98849-1.81902 5.51215z" style="font-feature-settings:normal;font-variant-caps:normal;font-variant-ligatures:normal;font-variant-numeric:normal"/>
   <path d="m354.6823 149.6024 6.79373 0.35829-2.23242 13.6977 6.91775-1.07487-1.52962 7.34495-10.90028-0.75792z" style="font-feature-settings:normal;font-variant-caps:normal;font-variant-ligatures:normal;font-variant-numeric:normal"/>
   <path d="m370.06122 161.55q-4.97472-0.7028-4.39595-6.1874 0.57878-5.48459 12.7882-6.49056l1.15755 6.22874q-6.04959-0.13781-6.49056 1.43316-0.44097 1.57096 4.63021 1.80523 5.07118 0.23426 4.96094 6.17361-0.11025 5.93934-13.35319 6.33897l-2.43913-6.51812q6.77995 0.73036 7.45519-0.67524 0.67524-1.41937-4.31326-2.10839z" style="font-feature-settings:normal;font-variant-caps:normal;font-variant-ligatures:normal;font-variant-numeric:normal"/>
  </g>
  <g transform="rotate(-15,-323.45947,422.41565)">
   <g fill="#fff" stroke-linecap="round" stroke-width="5.44852257">
    <path d="m174.15107 136.18342-55.67464 1.18908c-3.30472 0.0706-14.3802 9.73761-14.303 13.34905l0.30954 14.51178c0.0771 3.61144 11.57086 13.52094 14.87558 13.45034l3.9982-0.0853c-3.9341-0.95209-14.16153-9.95851-14.23427-13.36508l-0.31006-14.51178c-0.0772-3.61144 10.99829-13.27847 14.30301-13.34905l52.07175-1.11208c-0.33717-0.0565-0.68314-0.0845-1.03611-0.077z" stroke="#0c82df"/>
    <path d="m106.88406 165.23328-0.30991-14.51158c-0.0772-3.61144 10.99839-13.27852 14.30311-13.3491l55.67493-1.18898c3.30469-0.0706 6.02727 2.78001 6.10437 6.39146l0.60383 28.27359c0.0772 3.61144-2.52125 6.57566-5.82597 6.64624l-55.67493 1.18898c-3.30472 0.0706-14.79831-9.83917-14.87543-13.45061z" stroke="#2196f3"/>
    <circle cx="119.98148" cy="157.31606" r="6.3859897" stroke="#2196f3"/>
   </g>
   <path d="m91.621309 163.49841s1.541785-5.28535 25.981451-6.07174" fill="none" stroke="#0c86e6" stroke-linecap="round" stroke-width="5.44852257"/>
   <g transform="translate(62.29791,118.58996)" fill="#f57c00" stroke-width=".36323482" style="font-feature-settings:normal;font-variant-caps:normal;font-variant-ligatures:normal;font-variant-numeric:normal" aria-label="5.99">
    <path d="m72.755579 32.793984 7.449152 0.312155 0.439855-4.185714-11.507166-0.439854 0.184455 8.768715q1.759419-0.36891 3.277627-0.227021 3.036416 0.297966 3.10736 2.880338 0.08513 2.596562-2.553994 2.951283-1.319565 0.184455-2.667506-0.156077l-0.2554 4.285036q2.809395 0.340532 5.590411-0.368911 5.547845-1.390508 5.278256-6.569442-0.24121-5.178934-4.341791-6.214721-2.029007-0.652688-4.029636-0.1277z" style="font-feature-settings:normal;font-variant-caps:normal;font-variant-ligatures:normal;font-variant-numeric:normal"/>
    <path d="m83.723568 47.507833q-0.950653 0.08513-1.518208-0.595933-0.510799-0.595932-0.539176-1.532397-0.02838-0.908087 0.425665-1.546585 0.496611-0.695255 1.362131-0.652688 1.61753 0.07094 2.36954 0.737821 0.638499 0.567554 0.510799 1.418886-0.141889 0.794576-0.865521 1.418886-0.752009 0.666876-1.74523 0.75201z" style="font-feature-settings:normal;font-variant-caps:normal;font-variant-ligatures:normal;font-variant-numeric:normal"/>
    <path d="m93.556448 36.45471q-0.808765 0.1277-1.206053-0.141888-0.354721-0.241211-0.312155-0.695255 0.02838-0.425665 0.383099-0.794576 0.368911-0.36891 0.87971-0.425666 0.49661-0.04257 0.766198 0.2554 0.241211 0.24121 0.241211 0.666876 0 0.397288-0.198644 0.723632-0.227022 0.354722-0.553366 0.411477zm0.482422-6.952542q-3.008039-0.482421-5.037046 1.191865-1.830363 1.518208-2.043196 3.958692-0.212833 2.48305 1.404697 4.22828 1.830363 1.972252 5.278256 2.00063 0.170267 0.581743-0.170266 1.092542-0.709443 1.007409-3.320193 0.539177l-0.75201 4.426924q0.652688 0.326344 1.816174 0.411477 2.341162 0.141889 4.895157-1.106731 1.333753-0.652688 2.539806-3.107361 1.234431-2.539806 1.447261-5.292445 0.2554-3.178304-1.049973-5.292444-1.532397-2.483051-5.008667-3.050606z" style="font-feature-settings:normal;font-variant-caps:normal;font-variant-ligatures:normal;font-variant-numeric:normal"/>
    <path d="m107.46153 36.45471q-0.80876 0.1277-1.20605-0.141888-0.35472-0.241211-0.31216-0.695255 0.0284-0.425665 0.3831-0.794576 0.36891-0.36891 0.87971-0.425666 0.49661-0.04257 0.7662 0.2554 0.24121 0.24121 0.24121 0.666876 0 0.397288-0.19864 0.723632-0.22702 0.354722-0.55337 0.411477zm0.48242-6.952542q-3.00803-0.482421-5.03704 1.191865-1.83036 1.518208-2.0432 3.958692-0.21283 2.48305 1.4047 4.22828 1.83036 1.972252 5.27826 2.00063 0.17026 0.581743-0.17027 1.092542-0.70944 1.007409-3.32019 0.539177l-0.75201 4.426924q0.65268 0.326344 1.81617 0.411477 2.34116 0.141889 4.89516-1.106731 1.33375-0.652688 2.5398-3.107361 1.23443-2.539806 1.44727-5.292445 0.2554-3.178304-1.04998-5.292444-1.5324-2.483051-5.00867-3.050606z" style="font-feature-settings:normal;font-variant-caps:normal;font-variant-ligatures:normal;font-variant-numeric:normal"/>
   </g>
   <rect transform="rotate(-1.6246275)" x="177.31679" y="147.73949" width="2.1975884" height="16.481913" ry="1.0987942" fill="#add8fb"/>
  </g>
 </g>
</svg>
