<?xml version="1.0" encoding="UTF-8"?>
<!-- Generator: Adobe Illustrator 19.0.0, SVG Export Plug-In . SVG Version: 6.00 Build 0)  -->
<svg width="1e3" height="330" version="1.1" viewBox="0 0 1000 330.00001" xml:space="preserve" xmlns="http://www.w3.org/2000/svg" xmlns:cc="http://creativecommons.org/ns#" xmlns:dc="http://purl.org/dc/elements/1.1/" xmlns:rdf="http://www.w3.org/1999/02/22-rdf-syntax-ns#"><metadata><rdf:RDF><cc:Work rdf:about=""><dc:format>image/svg+xml</dc:format><dc:type rdf:resource="http://purl.org/dc/dcmitype/StillImage"/><dc:title/></cc:Work></rdf:RDF></metadata><circle transform="scale(-1,1)" cx="553.82446" cy="2327.8169" r="0" fill="#9ed1fa" stroke-width=".74994367"/><rect x="-4.5190305e-14" y="-4.4531251e-5" width="1e3" height="330" ry="0" opacity="0" stroke-width="6.24300003"/><g transform="matrix(2.421256,0,0,2.4212558,-94.407928,-10.7577)"><circle cx="107.13786" cy="72.5896" r="67.73333" fill="#e91e63" stroke-width=".26458332"/><path d="m134.8662 74.706264h-55.456667c-1.693333 0-3.174999-0.423333-3.174999-2.116666 0-1.693334 1.27-2.116667 3.174999-2.116667h55.456667c1.69333 0 3.175 0.423333 3.175 2.116667 0 1.693333-1.48167 2.116666-3.175 2.116666z" fill="#eff" stroke-width=".26458332"/><path transform="scale(.26458333)" d="m 404.92969,18.353516 a 255.99999,255.99999 0 0 0 -256,256.000004 255.99999,255.99999 0 0 0 256,256 A 255.99999,255.99999 0 0 0 431,528.74609 255.99999,255.99999 0 0 1 202.73828,274.35352 255.99999,255.99999 0 0 1 432.66992,19.962891 255.99999,255.99999 0 0 0 404.92969,18.353516 Z" fill="#d01454" stroke-width=".99999994"/><path d="m113.17041 15.159838s40.29735 0 52.60373 49.225507" fill="none" stroke="#f6a8c3" stroke-linecap="round" stroke-linejoin="round" stroke-width="7.9375"/></g><g fill="#fff" stroke="#9c27b0" stroke-width="3" style="font-feature-settings:normal;font-variant-caps:normal;font-variant-ligatures:normal;font-variant-numeric:normal" aria-label="delete"><path d="m394.46156 150.64825-3.33334-72.916661q71.04167 0 71.04167 36.458331 0 36.45833-67.70833 36.45833zm18.54166-53.593744 3.48959 25.208334q22.55208 0.10417 22.55208-12.55208 0-12.656254-26.04167-12.656254z" style="font-feature-settings:normal;font-variant-caps:normal;font-variant-ligatures:normal;font-variant-numeric:normal"/><path d="m520.08656 68.35659 1.35416 27.604166-32.39583 3.489583 0.41667 6.302081 21.25-1.97916 1.875 18.85416-22.1875 1.61459 0.36458 5.10416 31.45833-2.39583 4.6875 23.69791-62.03125 2.13542 6.30209-75.156247z" style="font-feature-settings:normal;font-variant-caps:normal;font-variant-ligatures:normal;font-variant-numeric:normal"/><path d="m533.0553 76.689923 25.67709 1.354166-8.4375 51.770831 26.14583-4.0625-5.78125 27.76042-41.19792-2.86459z" style="font-feature-settings:normal;font-variant-caps:normal;font-variant-ligatures:normal;font-variant-numeric:normal"/><path d="m634.25321 68.35659 1.35417 27.604166-32.39583 3.489583 0.41666 6.302081 21.25-1.97916 1.875 18.85416-22.1875 1.61459 0.36459 5.10416 31.45833-2.39583 4.6875 23.69791-62.03125 2.13542 6.30208-75.156247z" style="font-feature-settings:normal;font-variant-caps:normal;font-variant-ligatures:normal;font-variant-numeric:normal"/><path d="m682.22197 99.919089 2.55208 44.375001-28.22916 7.29166 4.84375-53.020828-21.30209-1.822916 1.66667-19.270833 61.09375-3.645833 2.23958 28.48958z" style="font-feature-settings:normal;font-variant-caps:normal;font-variant-ligatures:normal;font-variant-numeric:normal"/><path d="m759.66987 68.35659 1.35417 27.604166-32.39584 3.489583 0.41667 6.302081 21.25-1.97916 1.875 18.85416-22.1875 1.61459 0.36458 5.10416 31.45834-2.39583 4.6875 23.69791-62.03125 2.13542 6.30208-75.156247z" style="font-feature-settings:normal;font-variant-caps:normal;font-variant-ligatures:normal;font-variant-numeric:normal"/></g><g fill="#fff" stroke="#9c27b0" stroke-width="3" style="font-feature-settings:normal;font-variant-caps:normal;font-variant-ligatures:normal;font-variant-numeric:normal" aria-label="account"><path d="m415.29489 248.20583-3.64583 10.41667-20.52084-12.39584 25.72917-60.52083 19.58333-1.35416 30.78125 62.65624-24.32291 11.61459-5.36459-14.63542zm17.8125-22.8125-5.83333-18.85416-6.875 20.83333z" style="font-feature-settings:normal;font-variant-caps:normal;font-variant-ligatures:normal;font-variant-numeric:normal"/><path d="m535.55531 247.94541q-12.34375 10.67709-29.79167 10.67709t-29.79167-10.67709q-12.34375-10.67708-12.34375-25.78124 0-15.10417 12.34375-25.78125 12.34375-10.67709 29.79167-10.67709t29.79167 10.67709q6.19791 5.36458 9.32291 11.875l-25 6.30208q-1.25-3.33333-4.375-6.04167-5.3125-4.58333-12.76041-4.58333-7.44792 0-12.76042 4.58333-5.3125 4.58334-5.3125 11.04167t5.3125 11.04166q5.3125 4.58334 12.76042 4.58334 7.44791 0 12.76041-4.58334 2.86459-2.5 4.21875-5.62499l25.10417 11.09374q-3.07292 6.51042-9.27083 11.875z" style="font-feature-settings:normal;font-variant-caps:normal;font-variant-ligatures:normal;font-variant-numeric:normal"/><path d="m619.51363 247.94541q-12.34375 10.67709-29.79166 10.67709-17.44792 0-29.79167-10.67709-12.34375-10.67708-12.34375-25.78124 0-15.10417 12.34375-25.78125 12.34375-10.67709 29.79167-10.67709 17.44791 0 29.79166 10.67709 6.19792 5.36458 9.32292 11.875l-25 6.30208q-1.25-3.33333-4.375-6.04167-5.3125-4.58333-12.76041-4.58333-7.44792 0-12.76042 4.58333-5.3125 4.58334-5.3125 11.04167t5.3125 11.04166q5.3125 4.58334 12.76042 4.58334 7.44791 0 12.76041-4.58334 2.86458-2.5 4.21875-5.62499l25.10417 11.09374q-3.07292 6.51042-9.27084 11.875z" style="font-feature-settings:normal;font-variant-caps:normal;font-variant-ligatures:normal;font-variant-numeric:normal"/><path d="m673.9928 258.6225q-17.60417 0-30.05209-10.67709-12.39583-10.67708-12.39583-25.78124 0-15.10417 12.39583-25.78125 12.44792-10.67709 30.05209-10.67709 17.55208 0 29.94791 10.67709 12.44792 10.67708 12.44792 25.78125 0 15.10416-12.44792 25.78124-12.39583 10.67709-29.94791 10.67709zm-2.91667-22.76042q7.5 0 12.8125-4.58333 5.36458-4.58334 5.36458-11.04167t-5.36458-11.04166q-5.3125-4.58334-12.8125-4.58334-7.55208 0-12.91667 4.58334-5.3125 4.58333-5.3125 11.04166t5.3125 11.04167q5.36459 4.58333 12.91667 4.58333z" style="font-feature-settings:normal;font-variant-caps:normal;font-variant-ligatures:normal;font-variant-numeric:normal"/><path d="m725.50322 189.35167 27.76042 5.41666q-13.85417 42.55208 3.95833 43.02083 21.14584-0.15625 12.23959-44.06249l25.41666-8.02084q11.66667 72.29167-37.65625 72.91667-49.84375-0.46875-31.71875-69.27083z" style="font-feature-settings:normal;font-variant-caps:normal;font-variant-ligatures:normal;font-variant-numeric:normal"/><path d="m827.43029 222.16417 5.15625 29.84374-25.98959 6.61459-5.26041-68.38542 26.09375-4.53125 25.72916 34.0625 0.3125-34.0625 32.29167-3.33333-11.45833 76.25-20.67709 3.02083z" style="font-feature-settings:normal;font-variant-caps:normal;font-variant-ligatures:normal;font-variant-numeric:normal"/><path d="m930.55527 207.89333 2.55208 44.375-28.22917 7.29167 4.84375-53.02083-21.30208-1.82292 1.66667-19.27083 61.09375-3.64584 2.23958 28.48959z" style="font-feature-settings:normal;font-variant-caps:normal;font-variant-ligatures:normal;font-variant-numeric:normal"/></g></svg>
