<?xml version="1.0" encoding="UTF-8"?>
<!-- Created with Inkscape (http://www.inkscape.org/) -->
<svg width="1185" height="1185" version="1.1" viewBox="0 0 313.53124 313.53126" xmlns="http://www.w3.org/2000/svg" xmlns:cc="http://creativecommons.org/ns#" xmlns:dc="http://purl.org/dc/elements/1.1/" xmlns:rdf="http://www.w3.org/1999/02/22-rdf-syntax-ns#">
 <metadata>
  <rdf:RDF>
   <cc:Work rdf:about="">
    <dc:format>image/svg+xml</dc:format>
    <dc:type rdf:resource="http://purl.org/dc/dcmitype/StillImage"/>
    <dc:title/>
   </cc:Work>
  </rdf:RDF>
 </metadata>
 <g transform="translate(-121.17237,-436.03622)">
  <rect x="121.17237" y="436.03622" width="313.53125" height="313.53125" opacity="0" stroke-width="1.1926415"/>
  <g transform="rotate(53.11779,-220.80387,524.67835)" fill="none" stroke="#ffc107" stroke-linecap="round" stroke-width="2.64583325">
   <g transform="rotate(-26.301235,280.87683,257.93987)">
    <path d="m311.01879 55.61079-10.7041-6.274815"/>
    <path d="m312.14537 43.254339-1.12658 12.356451"/>
   </g>
   <path d="m148.16068 32.100827s36.96218 2.270005 70.08762 31.100082"/>
  </g>
  <path d="m279.12522 489.91918a98.933613 98.933613 0 0 0 -33.81034 6.08749l7.72408 0.66921-4.72271 6.92671a90.72936 90.72936 0 0 1 30.80897 -5.47874 90.72936 90.72936 0 0 1 90.72933 90.72935 90.72936 90.72936 0 0 1 -90.72933 90.72935 90.72936 90.72936 0 0 1 -90.72934 -90.72935 90.72936 90.72936 0 0 1 42.67646 -76.90177l-3.50676-7.39025a98.933613 98.933613 0 0 0 -47.37385 84.29202 98.933613 98.933613 0 0 0 98.93349 98.9335 98.933613 98.933613 0 0 0 98.93297 -98.9335 98.933613 98.933613 0 0 0 -98.93297 -98.93402z" fill="#ff5252"/>
  <g stroke="#fff" stroke-width=".5291667">
   <g transform="translate(-334.42057,442.94625)" fill="#0d47a1" style="font-feature-settings:normal;font-variant-caps:normal;font-variant-ligatures:normal;font-variant-numeric:normal" aria-label="Martes">
    <path d="m660.20104 77.49603-3.64319 0.06029-0.27561 11.119046h3.52261l0.16364-7.372504 2.68718 4.358045 2.62688-3.970472-0.1378 7.036607 3.60012 0.06029 0.27561-11.153497-3.66041-0.05168-2.59244 4.185791z" style="font-feature-settings:normal;font-variant-caps:normal;font-variant-ligatures:normal;font-variant-numeric:normal"/>
    <path d="m672.96512 86.634146q-0.29284-0.04306-0.48232-0.172255-0.18087-0.129191-0.19809-0.275608-9e-3 -0.155029 0.16364-0.241156 0.19809-0.09474 0.57705-0.0689 0.267 0.02584 0.42203 0.155029 0.1378 0.129191 0.12919 0.284221-9e-3 0.163642-0.16364 0.249769-0.16364 0.103353-0.44786 0.0689zm2.3685-6.020305q-2.25654-0.396186-3.86712-0.163642-0.8096 0.120579-1.16272 0.318672l0.49954 2.506307q0.96462-0.266995 2.0326-0.241157 2.13596 0.05168 2.6355 1.550293-0.80959-0.482313-1.85174-0.732083-2.1015-0.499539-3.30729 0.671794-0.71486 0.697632-0.88711 1.576131-0.17225 0.869887 0.24116 1.584744 0.43925 0.766534 1.38665 1.102431 1.05936 0.370347 2.54937 0.120578 1.21439-0.215319 1.93786-1.188558l-0.14641 1.033529h2.93694q0.52538-1.808676 0.41341-3.729316-0.0947-1.679484-0.79237-2.756077-0.86127-1.343587-2.61827-1.653646z" style="font-feature-settings:normal;font-variant-caps:normal;font-variant-ligatures:normal;font-variant-numeric:normal"/>
    <path d="m681.8793 79.812857-2.75608 0.0689 0.21532 8.83667 2.83359 0.0689-0.11196-3.643189q0.37896-1.834513 2.04983-2.273763 0.83544-0.223931 1.59336-0.07752l9e-3 -3.005846q-2.42018 0.06029-3.79822 1.111044z" style="font-feature-settings:normal;font-variant-caps:normal;font-variant-ligatures:normal;font-variant-numeric:normal"/>
    <path d="m688.76088 76.824236-0.0861 2.781915-2.31683-0.129191-0.15502 2.764689 2.37711 0.111966-0.11196 6.545681 2.92833 0.15503 0.0861-6.580133 2.24793 0.01722 0.0603-2.781914-2.23931-0.04306 0.0603-2.678562z" style="font-feature-settings:normal;font-variant-caps:normal;font-variant-ligatures:normal;font-variant-numeric:normal"/>
    <path d="m698.81194 82.250262q0.75792-0.137804 1.10243 0.241156 0.17226 0.198093 0.18948 0.413412l-2.32544 0.223931q-0.0344-0.163642 0.0689-0.361735 0.21531-0.37896 0.96462-0.516764zm-0.35312 3.625963q-0.44786-0.24977-0.6115-0.689019-0.0861-0.215319-0.0775-0.387573l5.77915-0.68902q-0.19809-1.162719-0.99047-2.256537-1.60196-2.196249-4.63365-1.912028-1.73116 0.163642-2.73885 1.395263-0.91295 1.102431-0.99908 2.713013-0.0947 1.558906 0.61151 2.850817 0.75792 1.386651 2.11873 1.8259 2.35989 0.775147 4.53891-0.344509 1.09382-0.559828 1.70533-1.266073l-1.85174-1.929253q-0.4048 0.344509-0.96463 0.602891-1.11104 0.525378-1.88619 0.08613z" style="font-feature-settings:normal;font-variant-caps:normal;font-variant-ligatures:normal;font-variant-numeric:normal"/>
    <path d="m705.05618 85.178593q0.79237 0.34451 1.4211 0.611504 1.73978 0.869887 2.08429 0.559829 0.12058-0.180868 0.0344-0.310059-0.0861-0.129191-0.85266-0.430637-0.75792-0.310059-1.73978-0.620117-0.98185-0.310059-1.33497-1.024916-0.3359-0.689019-0.0517-1.455553 0.31006-0.826823 1.18856-1.309136 1.0163-0.551216 2.51492-0.456476 1.26607 0.07752 2.52353 0.577054 0.59428 0.327284 0.93018 0.645955l-1.08521 1.705323q-0.49954-0.327284-0.97324-0.473701-1.55029-0.568441-1.63642 0.03445-9e-3 0.163642 0.27561 0.34451 0.29283 0.172254 1.24024 0.430637 0.95601 0.249769 1.55029 0.533989 0.88711 0.43925 1.07659 1.403877 0.19809 0.981852-0.6115 2.015381-0.84405 0.990465-2.91972 0.999077-1.80868 0.01723-4.8662-1.3522z" style="font-feature-settings:normal;font-variant-caps:normal;font-variant-ligatures:normal;font-variant-numeric:normal"/>
   </g>
   <g transform="translate(-354.15091,455.63005)" fill="#1565c0" style="font-feature-settings:normal;font-variant-caps:normal;font-variant-ligatures:normal;font-variant-numeric:normal" aria-label="Miércoles">
    <path d="m677.86638 148.51496-3.64319 0.0603-0.27561 11.11904h3.52261l0.16365-7.3725 2.68717 4.35804 2.62689-3.97047-0.13781 7.03661 3.60013 0.0603 0.27561-11.1535-3.66042-0.0517-2.59243 4.18579z" style="font-feature-settings:normal;font-variant-caps:normal;font-variant-ligatures:normal;font-variant-numeric:normal"/>
    <path d="m688.61508 150.78872q0.86127-0.0258 1.31775-0.52538 0.42202-0.45647 0.38757-1.10243-0.0344-0.63734-0.48231-1.09381-0.48232-0.49954-1.25746-0.51677-0.69763-0.0258-1.16272 0.49093-0.42203 0.4737-0.46509 1.13688-0.0344 0.68041 0.36174 1.12827 0.45647 0.50815 1.30052 0.48231zm1.30914 0.55122-2.72163 9e-3 -0.0344 8.47493 2.79914 0.0689z" style="font-feature-settings:normal;font-variant-caps:normal;font-variant-ligatures:normal;font-variant-numeric:normal"/>
    <path d="m695.2555 153.26919q0.75792-0.1378 1.10243 0.24116 0.17226 0.19809 0.18948 0.41341l-2.32544 0.22393q-0.0345-0.16364 0.0689-0.36174 0.21532-0.37896 0.96463-0.51676zm-0.35312 3.62596q-0.44786-0.24977-0.61151-0.68902-0.0861-0.21531-0.0775-0.38757l5.77915-0.68902q-0.1981-1.16272-0.99047-2.25654-1.60197-2.19624-4.63365-1.91202-1.73116 0.16364-2.73885 1.39526-0.91295 1.10243-0.99908 2.71301-0.0947 1.55891 0.6115 2.85082 0.75793 1.38665 2.11874 1.8259 2.35989 0.77515 4.53891-0.34451 1.09382-0.55983 1.70532-1.26607l-1.85173-1.92926q-0.4048 0.34451-0.96463 0.6029-1.11104 0.52537-1.88619 0.0861zm0.79237-9.70655-2.73885 2.83359 0.79237 0.83543 3.247-2.09289z" style="font-feature-settings:normal;font-variant-caps:normal;font-variant-ligatures:normal;font-variant-numeric:normal"/>
    <path d="m703.02419 150.83179-2.75608 0.0689 0.21532 8.83667 2.83359 0.0689-0.11196-3.64319q0.37896-1.83451 2.04983-2.27376 0.83544-0.22393 1.59336-0.0775l9e-3 -3.00584q-2.42018 0.0603-3.79822 1.11104z" style="font-feature-settings:normal;font-variant-caps:normal;font-variant-ligatures:normal;font-variant-numeric:normal"/>
    <path d="m713.17861 154.68168q-0.31006-0.31006-0.74069-0.4737-0.85267-0.32729-1.41249 0.39618-0.31867 0.42203-0.20671 0.86128 0.0861 0.4048 0.49093 0.68041 0.41341 0.26699 0.93879 0.25838 0.57705-0.0258 1.07659-0.4048l2.15318 1.6881q-0.6115 0.91295-1.72255 1.52445-2.23069 1.2144-4.737-0.28422-1.31775-0.79237-1.58475-2.6355-0.24976-1.77422 0.6029-3.32452 0.91295-1.68809 2.63549-2.0326 2.00677-0.38758 4.51308 1.2833z" style="font-feature-settings:normal;font-variant-caps:normal;font-variant-ligatures:normal;font-variant-numeric:normal"/>
    <path d="m720.05158 156.4559q-0.50815-9e-3 -0.76654-0.15503-0.24977-0.1378-0.24977-0.38757 0-0.25838 0.23255-0.42202 0.25838-0.18948 0.70624-0.18948 0.4737 0 0.74931 0.16364 0.27561 0.15503 0.27561 0.4048 0 0.24115-0.27561 0.41341-0.26699 0.18087-0.67179 0.17225zm-0.0603-5.1418q-2.1618 0-3.27284 1.45555-0.93018 1.2144-0.93018 3.09197 0 2.08429 0.97324 3.07475 1.07659 1.09382 3.57429 1.12827 1.77422 0.0258 2.96278-1.30913 1.15411-1.30053 1.15411-3.15227 0-1.86896-1.16272-3.04891-1.22301-1.24023-3.29868-1.24023z" style="font-feature-settings:normal;font-variant-caps:normal;font-variant-ligatures:normal;font-variant-numeric:normal"/>
    <path d="m724.64217 148.35993v11.41188h3.53983l0.15503-11.56691z" style="font-feature-settings:normal;font-variant-caps:normal;font-variant-ligatures:normal;font-variant-numeric:normal"/>
    <path d="m733.22046 153.26919q0.75792-0.1378 1.10243 0.24116 0.17225 0.19809 0.18948 0.41341l-2.32544 0.22393q-0.0344-0.16364 0.0689-0.36174 0.21532-0.37896 0.96463-0.51676zm-0.35313 3.62596q-0.44786-0.24977-0.6115-0.68902-0.0861-0.21531-0.0775-0.38757l5.77915-0.68902q-0.19809-1.16272-0.99046-2.25654-1.60197-2.19624-4.63366-1.91202-1.73116 0.16364-2.73885 1.39526-0.91295 1.10243-0.99908 2.71301-0.0947 1.55891 0.61151 2.85082 0.75792 1.38665 2.11873 1.8259 2.35989 0.77515 4.53892-0.34451 1.09381-0.55983 1.70532-1.26607l-1.85174-1.92926q-0.4048 0.34451-0.96463 0.6029-1.11104 0.52537-1.88619 0.0861z" style="font-feature-settings:normal;font-variant-caps:normal;font-variant-ligatures:normal;font-variant-numeric:normal"/>
    <path d="m739.46469 156.19752q0.79237 0.34451 1.4211 0.61151 1.73978 0.86988 2.08429 0.55982 0.12057-0.18086 0.0344-0.31005-0.0861-0.1292-0.85267-0.43064-0.75792-0.31006-1.73977-0.62012t-1.33497-1.02491q-0.3359-0.68902-0.0517-1.45556 0.31006-0.82682 1.18856-1.30913 1.0163-0.55122 2.51492-0.45648 1.26607 0.0775 2.52353 0.57705 0.59428 0.32729 0.93018 0.64596l-1.08521 1.70532q-0.49954-0.32728-0.97324-0.4737-1.55029-0.56844-1.63642 0.0344-9e-3 0.16364 0.27561 0.34451 0.29283 0.17226 1.24023 0.43064 0.95602 0.24977 1.5503 0.53399 0.88711 0.43925 1.07659 1.40388 0.19809 0.98185-0.61151 2.01538-0.84404 0.99046-2.91971 0.99907-1.80868 0.0172-4.8662-1.3522z" style="font-feature-settings:normal;font-variant-caps:normal;font-variant-ligatures:normal;font-variant-numeric:normal"/>
   </g>
   <g transform="translate(-312.81113,455.63005)" fill="#2196f3" style="font-feature-settings:normal;font-variant-caps:normal;font-variant-ligatures:normal;font-variant-numeric:normal" aria-label="Sábado">
    <path d="m479.4848 156.51958q1.66226 0.28422 3.33313 0.36174 3.34174 0.14641 3.3762-0.90434 0.0172-0.52538-0.98186-0.73209-0.30144-0.0689-2.23931-0.24976-1.57613-0.14642-2.38573-0.45648-1.14549-0.43925-1.36942-1.36943-0.34451-1.48139-0.11197-2.42879 0.22393-0.93879 1.05937-1.45555 1.49-0.93018 5.82221-0.72347 2.11012 0.10335 3.0403 0.27561l-0.0517 2.81636q-1.65365-0.2756-3.34174-0.39618-3.35036-0.24116-3.41926 0.49954-0.0603 0.71485 1.45555 0.90433 0.4737 0.0603 1.30053 0.0861 0.92156 0.0258 1.11104 0.0431 2.00677 0.16365 2.95417 1.66226 0.44786 0.72347 0.46509 1.57613 0.0172 0.92157-0.4737 1.84313-1.02492 1.9637-5.46909 1.93787-2.22209-0.0172-4.23747-0.42203z" style="font-feature-settings:normal;font-variant-caps:normal;font-variant-ligatures:normal;font-variant-numeric:normal"/>
    <path d="m493.61831 157.65646q-0.29284-0.0431-0.48232-0.17225-0.18086-0.12919-0.19809-0.27561-9e-3 -0.15503 0.16364-0.24116 0.1981-0.0947 0.57706-0.0689 0.26699 0.0258 0.42202 0.15503 0.1378 0.12919 0.12919 0.28422-9e-3 0.16364-0.16364 0.24977-0.16364 0.10335-0.44786 0.0689zm2.3685-6.0203q-2.25654-0.39619-3.86712-0.16364-0.8096 0.12057-1.16272 0.31867l0.49954 2.5063q0.96463-0.26699 2.03261-0.24115 2.13596 0.0517 2.63549 1.55029-0.80959-0.48231-1.85173-0.73208-2.10151-0.49954-3.3073 0.67179-0.71485 0.69763-0.88711 1.57613-0.17225 0.86989 0.24116 1.58475 0.43925 0.76653 1.38665 1.10243 1.05937 0.37034 2.54937 0.12057 1.2144-0.21531 1.93787-1.18855l-0.14642 1.03353h2.93694q0.52538-1.80868 0.41342-3.72932-0.0948-1.67948-0.79238-2.75608-0.86127-1.34358-2.61827-1.65364zm-0.0431-4.44418-2.73885 2.8336 0.79237 0.83543 3.247-2.09289z" style="font-feature-settings:normal;font-variant-caps:normal;font-variant-ligatures:normal;font-variant-numeric:normal"/>
    <path d="m505.18522 156.38178q-0.43064-0.0861-0.59428-0.28422-0.14642-0.17226-0.0689-0.37896 0.0775-0.18948 0.30145-0.32729 0.24116-0.1378 0.49954-0.1378 0.57705 0.0172 0.83543 0.22393 0.23255 0.18948 0.16365 0.43925-0.0775 0.25838-0.37035 0.39618-0.3359 0.15503-0.76653 0.0689zm3.42787-3.66042q-1.58475-1.30052-3.53123-0.89572-0.98185 0.19809-1.66226 0.65457v-4.26331l-3.55706 0.16364v11.30853l3.25562 0.0947v-1.23162q0.17225 0.31006 0.49954 0.80098 0.80959 0.48231 1.97231 0.57705 1.46417 0.1292 2.53215-0.70624 1.04214-0.68041 1.62781-1.99816 0.4048-1.25745 0.15503-2.48908-0.41342-1.30913-1.29191-2.01538z" style="font-feature-settings:normal;font-variant-caps:normal;font-variant-ligatures:normal;font-variant-numeric:normal"/>
    <path d="m514.04772 157.65646q-0.29283-0.0431-0.48231-0.17225-0.18087-0.12919-0.19809-0.27561-9e-3 -0.15503 0.16364-0.24116 0.19809-0.0947 0.57705-0.0689 0.267 0.0258 0.42203 0.15503 0.1378 0.12919 0.12919 0.28422-9e-3 0.16364-0.16364 0.24977-0.16365 0.10335-0.44787 0.0689zm2.36851-6.0203q-2.25654-0.39619-3.86712-0.16364-0.8096 0.12057-1.16272 0.31867l0.49954 2.5063q0.96462-0.26699 2.0326-0.24115 2.13596 0.0517 2.6355 1.55029-0.8096-0.48231-1.85174-0.73208-2.10151-0.49954-3.30729 0.67179-0.71486 0.69763-0.88711 1.57613-0.17226 0.86989 0.24115 1.58475 0.43925 0.76653 1.38666 1.10243 1.05936 0.37034 2.54937 0.12057 1.21439-0.21531 1.93786-1.18855l-0.14641 1.03353h2.93694q0.52538-1.80868 0.41341-3.72932-0.0947-1.67948-0.79237-2.75608-0.86127-1.34358-2.61827-1.65364z" style="font-feature-settings:normal;font-variant-caps:normal;font-variant-ligatures:normal;font-variant-numeric:normal"/>
    <path d="m525.08064 156.45929q-0.4048 0.0947-0.73208-0.0603-0.27561-0.1378-0.35312-0.37896-0.0603-0.25838 0.15503-0.43925 0.25838-0.19809 0.80098-0.21532 0.24977 0 0.4737 0.12919 0.22393 0.13781 0.29283 0.32729 0.0775 0.19809-0.0689 0.37035-0.15503 0.18948-0.56844 0.26699zm-3.40203-3.59151q-0.8785 0.67179-1.30052 1.92064-0.24116 1.18856 0.16364 2.38573 0.58566 1.26607 1.54168 1.98954 1.0852 0.8096 2.54076 0.68041 1.17133-0.0947 1.78283-0.55983 0.61151-0.46509 0.78376-0.75792v1.34359l3.1781 0.17225-0.0775-11.51523-3.48816-0.18087v4.36666q-0.68041-0.43064-1.66226-0.62873-1.9637-0.38757-3.46232 0.78376z" style="font-feature-settings:normal;font-variant-caps:normal;font-variant-ligatures:normal;font-variant-numeric:normal"/>
    <path d="m535.02836 156.45929q-0.50815-9e-3 -0.76654-0.15503-0.24977-0.1378-0.24977-0.38757 0-0.25838 0.23255-0.42203 0.25838-0.18948 0.70624-0.18948 0.4737 0 0.74931 0.16365 0.27561 0.15503 0.27561 0.40479 0 0.24116-0.27561 0.41342-0.26699 0.18086-0.67179 0.17225zm-0.0603-5.1418q-2.1618 0-3.27284 1.45555-0.93018 1.2144-0.93018 3.09197 0 2.08428 0.97324 3.07475 1.07659 1.09382 3.57429 1.12827 1.77422 0.0258 2.96278-1.30914 1.15411-1.30052 1.15411-3.15226 0-1.86896-1.16272-3.04891-1.22301-1.24023-3.29868-1.24023z" style="font-feature-settings:normal;font-variant-caps:normal;font-variant-ligatures:normal;font-variant-numeric:normal"/>
   </g>
   <g transform="translate(-311.40181,442.94625)" fill="#42a5f5" style="font-feature-settings:normal;font-variant-caps:normal;font-variant-ligatures:normal;font-variant-numeric:normal" aria-label="Domingo">
    <path d="m496.29005 76.804703q2.42018-0.215318 4.96093 0.335897 2.22209 0.490926 3.53984 1.54168 1.63642 1.309137 1.74839 3.427871 0.2067 3.780992-4.53892 5.236545-2.3685 0.732083-5.12458 0.706244zm3.36758 7.958171q4.09105-0.654568 3.53122-3.023071-1.13688-2.32544-3.78099-1.713935z" style="font-feature-settings:normal;font-variant-caps:normal;font-variant-ligatures:normal;font-variant-numeric:normal"/>
    <path d="m511.1987 84.702585q-0.50815-0.0086-0.76654-0.155029-0.24977-0.137804-0.24977-0.387574 0-0.258382 0.23255-0.422024 0.25838-0.18948 0.70624-0.18948 0.4737 0 0.74931 0.163642 0.27561 0.155029 0.27561 0.404799 0 0.241156-0.27561 0.413411-0.26699 0.180868-0.67179 0.172255zm-0.0603-5.141805q-2.1618 0-3.27284 1.455553-0.93018 1.214396-0.93018 3.091973 0 2.084283 0.97324 3.074748 1.07659 1.093818 3.57429 1.128269 1.77422 0.02584 2.96278-1.309137 1.15411-1.300523 1.15411-3.152262 0-1.868965-1.16272-3.04891-1.22301-1.240234-3.29868-1.240234z" style="font-feature-settings:normal;font-variant-caps:normal;font-variant-ligatures:normal;font-variant-numeric:normal"/>
    <path d="m526.59827 79.112917q-1.84312-0.02584-2.76469 1.403877-0.52537 0.800985-0.65456 1.800062 0.0861-0.835435-0.28422-1.567518-0.3359-1.291911-1.56752-1.636421-0.99908-0.28422-2.26515 0.895725l0.0172-1.033528-3.20394-0.01723 0.0947 9.207018 3.14365-0.08613 0.1292-2.549371q0.33589-3.04891 1.26607-2.997233 0.99046 0.04306 0.89572 2.747463-0.0431 1.3522-0.28422 2.7044l3.20394 0.0086q0.0775-1.438327 0.31867-2.816365 0.23255-2.695788 1.05937-2.463244 0.83543 0.223931 0.79237 2.79914-0.11196 1.343588-0.38757 2.626886l2.99723-0.15503q0.34451-2.204861 0.23255-4.409722-0.10336-1.929253-0.62873-3.040297-0.65457-1.395263-2.11013-1.421102z" style="font-feature-settings:normal;font-variant-caps:normal;font-variant-ligatures:normal;font-variant-numeric:normal"/>
    <path d="m531.26638 79.035403q0.86127-0.02584 1.31775-0.525377 0.42202-0.456476 0.38757-1.102431-0.0345-0.637343-0.48231-1.093818-0.48231-0.499539-1.25746-0.516764-0.69763-0.02584-1.16272 0.490926-0.42202 0.473701-0.46509 1.136882-0.0344 0.680406 0.36174 1.128268 0.45647 0.508152 1.30052 0.482314zm1.30914 0.551215-2.72163 0.0086-0.0344 8.474935 2.79914 0.0689z" style="font-feature-settings:normal;font-variant-caps:normal;font-variant-ligatures:normal;font-variant-numeric:normal"/>
    <path d="m538.80252 79.000952q-1.60197-0.163642-2.71301 0.577053l0.0172-0.585666-2.7044-0.07752-0.21532 9.27592h3.23839l0.0431-3.255615q-0.11196-2.807753 1.30914-2.868042 1.05075-0.04306 1.21439 2.885267 0.0861 1.386651-0.12919 2.85943l3.36758 0.07751q0.24977-2.187635-0.0517-4.314982-0.25838-1.937866-0.96463-3.074748-0.88711-1.421102-2.41157-1.498616z" style="font-feature-settings:normal;font-variant-caps:normal;font-variant-ligatures:normal;font-variant-numeric:normal"/>
    <path d="m547.51 82.385758q0.28423 0.06029 0.49093 0.266995 0.20671 0.198093 0.22393 0.404799 0.0172 0.232544-0.21532 0.370348-0.28422 0.163642-0.86988 0.146416-0.58567 0-0.81821-0.232544-0.21532-0.206706-0.10336-0.490926 0.11197-0.266995 0.45648-0.422024 0.37896-0.155029 0.83543-0.04306zm-4.47862 8.45771q3.96186 2.437405 7.01938 0.766534 1.80868-1.197171 2.18764-4.633654 0.50815-2.816366 0.26699-7.872043l-3.11781-0.129191 9e-3 0.835435q-0.99907-0.775146-2.28237-0.775146-1.8948 0-3.11781 1.231621-1.10243 1.128269-1.17995 2.713013-0.0947 1.610582 0.93018 2.695787 1.14549 1.214397 3.23839 1.16272 1.49-0.02584 2.48908-0.680406 0.12919 0.81821-0.68041 2.006768-0.63734 0.938789-1.8948 0.852661-1.43833-0.103353-2.93694-1.188558z" style="font-feature-settings:normal;font-variant-caps:normal;font-variant-ligatures:normal;font-variant-numeric:normal"/>
    <path d="m557.12182 84.702585q-0.50815-0.0086-0.76653-0.155029-0.24977-0.137804-0.24977-0.387574 0-0.258382 0.23254-0.422024 0.25838-0.18948 0.70625-0.18948 0.4737 0 0.74931 0.163642 0.2756 0.155029 0.2756 0.404799 0 0.241156-0.2756 0.413411-0.267 0.180868-0.6718 0.172255zm-0.0603-5.141805q-2.1618 0-3.27284 1.455553-0.93017 1.214396-0.93017 3.091973 0 2.084283 0.97324 3.074748 1.07659 1.093818 3.57428 1.128269 1.77423 0.02584 2.96278-1.309137 1.15411-1.300523 1.15411-3.152262 0-1.868965-1.16272-3.04891-1.22301-1.240234-3.29868-1.240234z" style="font-feature-settings:normal;font-variant-caps:normal;font-variant-ligatures:normal;font-variant-numeric:normal"/>
   </g>
   <g transform="translate(-347.10436,454.69051)" fill="#1976d2" style="font-feature-settings:normal;font-variant-caps:normal;font-variant-ligatures:normal;font-variant-numeric:normal" aria-label="Jueves">
    <path d="m644.25496 216.52735q0.29283 0.83543 0.57705 1.14549 0.55983 0.62873 1.17995 0.18087 0.99046-0.56844 0.21531-8.30268l3.53984-0.0344q0.32728 2.86804 0.0258 5.71024-0.24977 2.48047-1.0163 3.88435-0.94741 1.74838-2.64412 1.69671-2.32543-0.0775-3.58289-1.65365-0.62012-0.79237-0.78376-1.91203z" style="font-feature-settings:normal;font-variant-caps:normal;font-variant-ligatures:normal;font-variant-numeric:normal"/>
    <path d="m655.08978 212.80664q0.21532 1.23162 0.23255 2.42879 0.0344 2.40296-0.79237 2.23932-0.82683-0.16365-0.96463-2.30822-0.0603-1.06798 0.0775-2.18763l-3.06613-0.17226q-0.37896 2.024-0.0431 4.04799 0.65457 4.04799 4.19441 4.04799 3.53983 0 3.93602-4.22025 0.18948-2.1015-0.31867-4.21162z" style="font-feature-settings:normal;font-variant-caps:normal;font-variant-ligatures:normal;font-variant-numeric:normal"/>
    <path d="m663.81449 214.27081q0.75792-0.13781 1.10243 0.24115 0.17225 0.1981 0.18948 0.41342l-2.32544 0.22393q-0.0345-0.16364 0.0689-0.36174 0.21532-0.37896 0.96463-0.51676zm-0.35312 3.62596q-0.44787-0.24977-0.61151-0.68902-0.0861-0.21532-0.0775-0.38757l5.77914-0.68902q-0.19809-1.16272-0.99046-2.25654-1.60197-2.19625-4.63365-1.91203-1.73117 0.16365-2.73886 1.39527-0.91295 1.10243-0.99907 2.71301-0.0947 1.55891 0.6115 2.85082 0.75792 1.38665 2.11874 1.8259 2.35989 0.77514 4.53891-0.34451 1.09382-0.55983 1.70532-1.26607l-1.85174-1.92926q-0.4048 0.34451-0.96462 0.60289-1.11105 0.52538-1.88619 0.0861z" style="font-feature-settings:normal;font-variant-caps:normal;font-variant-ligatures:normal;font-variant-numeric:normal"/>
    <path d="m673.86555 217.81064-2.06705-5.52076-2.9714 0.65457 3.28145 7.78591 3.33313 0.19809 2.95417-8.89695-2.88526-0.73209z" style="font-feature-settings:normal;font-variant-caps:normal;font-variant-ligatures:normal;font-variant-numeric:normal"/>
    <path d="m683.31373 214.27081q0.75792-0.13781 1.10243 0.24115 0.17225 0.1981 0.18948 0.41342l-2.32544 0.22393q-0.0344-0.16364 0.0689-0.36174 0.21532-0.37896 0.96463-0.51676zm-0.35312 3.62596q-0.44787-0.24977-0.61151-0.68902-0.0861-0.21532-0.0775-0.38757l5.77914-0.68902q-0.19809-1.16272-0.99046-2.25654-1.60197-2.19625-4.63365-1.91203-1.73116 0.16365-2.73885 1.39527-0.91295 1.10243-0.99908 2.71301-0.0947 1.55891 0.6115 2.85082 0.75792 1.38665 2.11874 1.8259 2.35989 0.77514 4.53891-0.34451 1.09382-0.55983 1.70532-1.26607l-1.85174-1.92926q-0.4048 0.34451-0.96462 0.60289-1.11105 0.52538-1.88619 0.0861z" style="font-feature-settings:normal;font-variant-caps:normal;font-variant-ligatures:normal;font-variant-numeric:normal"/>
    <path d="m689.55796 217.19914q0.79238 0.34451 1.42111 0.6115 1.73977 0.86989 2.08428 0.55983 0.12058-0.18087 0.0344-0.31006-0.0861-0.12919-0.85266-0.43063-0.75792-0.31006-1.73978-0.62012-0.98185-0.31006-1.33497-1.02492-0.3359-0.68902-0.0517-1.45555 0.31006-0.82682 1.18856-1.30914 1.0163-0.55121 2.51492-0.45647 1.26607 0.0775 2.52353 0.57705 0.59428 0.32729 0.93018 0.64596l-1.08521 1.70532q-0.49953-0.32728-0.97323-0.4737-1.5503-0.56844-1.63643 0.0344-9e-3 0.16364 0.27561 0.34451 0.29284 0.17225 1.24024 0.43064 0.95601 0.24977 1.55029 0.53399 0.88711 0.43925 1.07659 1.40387 0.1981 0.98185-0.6115 2.01538-0.84405 0.99047-2.91972 0.99908-1.80868 0.0172-4.8662-1.3522z" style="font-feature-settings:normal;font-variant-caps:normal;font-variant-ligatures:normal;font-variant-numeric:normal"/>
   </g>
   <g transform="translate(-320.32746,452.75893)" fill="#1976d2" style="font-feature-settings:normal;font-variant-caps:normal;font-variant-ligatures:normal;font-variant-numeric:normal" aria-label="Viernes">
    <path d="m530.16676 211.92991-2.19625 8.02707-3.41926-7.86343-2.67856 1.06798 4.71117 10.05968h2.93694l3.42787-10.37835z" style="font-feature-settings:normal;font-variant-caps:normal;font-variant-ligatures:normal;font-variant-numeric:normal"/>
    <path d="m534.83486 214.20367q0.86127-0.0258 1.31775-0.52538 0.42202-0.45647 0.38757-1.10243-0.0344-0.63734-0.48231-1.09382-0.48231-0.49954-1.25746-0.51676-0.69763-0.0258-1.16272 0.49093-0.42203 0.4737-0.46509 1.13688-0.0344 0.6804 0.36174 1.12827 0.45647 0.50815 1.30052 0.48231zm1.30914 0.55121-2.72163 9e-3 -0.0344 8.47493 2.79914 0.0689z" style="font-feature-settings:normal;font-variant-caps:normal;font-variant-ligatures:normal;font-variant-numeric:normal"/>
    <path d="m541.47528 216.68414q0.75792-0.13781 1.10243 0.24115 0.17226 0.1981 0.18948 0.41342l-2.32544 0.22393q-0.0344-0.16364 0.0689-0.36174 0.21531-0.37896 0.96462-0.51676zm-0.35312 3.62596q-0.44786-0.24977-0.6115-0.68902-0.0861-0.21532-0.0775-0.38757l5.77915-0.68902q-0.19809-1.16272-0.99047-2.25654-1.60197-2.19625-4.63365-1.91203-1.73116 0.16365-2.73885 1.39527-0.91295 1.10243-0.99908 2.71301-0.0947 1.55891 0.61151 2.85082 0.75792 1.38665 2.11873 1.8259 2.35989 0.77514 4.53891-0.34451 1.09382-0.55983 1.70532-1.26607l-1.85173-1.92926q-0.4048 0.34451-0.96463 0.60289-1.11104 0.52538-1.88619 0.0861z" style="font-feature-settings:normal;font-variant-caps:normal;font-variant-ligatures:normal;font-variant-numeric:normal"/>
    <path d="m549.24397 214.24673-2.75607 0.0689 0.21531 8.83667 2.8336 0.0689-0.11197-3.64319q0.37896-1.83452 2.04983-2.27376 0.83544-0.22394 1.59336-0.0775l9e-3 -3.00585q-2.42018 0.0603-3.79822 1.11105z" style="font-feature-settings:normal;font-variant-caps:normal;font-variant-ligatures:normal;font-variant-numeric:normal"/>
    <path d="m559.01082 214.16922q-1.60197-0.16364-2.71301 0.57705l0.0172-0.58566-2.7044-0.0775-0.21532 9.27592h3.23839l0.0431-3.25561q-0.11197-2.80776 1.30913-2.86805 1.05076-0.0431 1.2144 2.88527 0.0861 1.38665-0.12919 2.85943l3.36758 0.0775q0.24977-2.18763-0.0517-4.31498-0.25838-1.93786-0.96462-3.07475-0.88712-1.4211-2.41157-1.49861z" style="font-feature-settings:normal;font-variant-caps:normal;font-variant-ligatures:normal;font-variant-numeric:normal"/>
    <path d="m567.58911 216.68414q0.75792-0.13781 1.10243 0.24115 0.17225 0.1981 0.18948 0.41342l-2.32544 0.22393q-0.0344-0.16364 0.0689-0.36174 0.21532-0.37896 0.96463-0.51676zm-0.35312 3.62596q-0.44787-0.24977-0.61151-0.68902-0.0861-0.21532-0.0775-0.38757l5.77914-0.68902q-0.19809-1.16272-0.99046-2.25654-1.60197-2.19625-4.63365-1.91203-1.73117 0.16365-2.73886 1.39527-0.91295 1.10243-0.99907 2.71301-0.0947 1.55891 0.6115 2.85082 0.75792 1.38665 2.11874 1.8259 2.35989 0.77514 4.53891-0.34451 1.09382-0.55983 1.70532-1.26607l-1.85174-1.92926q-0.4048 0.34451-0.96462 0.60289-1.11105 0.52538-1.88619 0.0861z" style="font-feature-settings:normal;font-variant-caps:normal;font-variant-ligatures:normal;font-variant-numeric:normal"/>
    <path d="m573.83334 219.61247q0.79237 0.34451 1.4211 0.6115 1.73978 0.86989 2.08429 0.55983 0.12058-0.18087 0.0344-0.31006-0.0861-0.12919-0.85266-0.43063-0.75792-0.31006-1.73978-0.62012-0.98185-0.31006-1.33497-1.02492-0.3359-0.68902-0.0517-1.45555 0.31006-0.82682 1.18856-1.30914 1.0163-0.55121 2.51492-0.45647 1.26607 0.0775 2.52353 0.57705 0.59428 0.32729 0.93018 0.64596l-1.08521 1.70532q-0.49953-0.32728-0.97324-0.4737-1.55029-0.56844-1.63642 0.0344-9e-3 0.16364 0.27561 0.34451 0.29283 0.17225 1.24024 0.43064 0.95601 0.24977 1.55029 0.53399 0.88711 0.43925 1.07659 1.40387 0.19809 0.98186-0.6115 2.01538-0.84405 0.99047-2.91972 0.99908-1.80868 0.0172-4.8662-1.3522z" style="font-feature-settings:normal;font-variant-caps:normal;font-variant-ligatures:normal;font-variant-numeric:normal"/>
   </g>
  </g>
  <g transform="translate(-330.19263,444.35556)" fill="#1a237e" stroke-opacity="0" style="font-feature-settings:normal;font-variant-caps:normal;font-variant-ligatures:normal;font-variant-numeric:normal" aria-label="Lunes ">
   <path d="m588.86243 33.366468v11.2913l8.25101-0.120578v-3.031684l-4.96955 0.241156-0.0689-8.380194z" style="font-feature-settings:normal;font-variant-caps:normal;font-variant-ligatures:normal;font-variant-numeric:normal"/>
   <path d="m602.11744 36.656534q0.21532 1.231621 0.23254 2.428792 0.0344 2.402954-0.79237 2.239312-0.82682-0.163642-0.96463-2.308214-0.0603-1.067979 0.0775-2.187635l-3.06614-0.172255q-0.37896 2.023993-0.0431 4.047987 0.65457 4.047987 4.1944 4.047987 3.53984 0 3.93603-4.220242 0.18948-2.101508-0.31868-4.211629z" style="font-feature-settings:normal;font-variant-caps:normal;font-variant-ligatures:normal;font-variant-numeric:normal"/>
   <path d="m611.73787 35.60578q-1.60197-0.163642-2.71301 0.577053l0.0172-0.585666-2.7044-0.07751-0.21532 9.27592h3.23839l0.0431-3.255615q-0.11197-2.807753 1.30913-2.868042 1.05076-0.04306 1.2144 2.885267 0.0861 1.386651-0.12919 2.85943l3.36758 0.07751q0.24977-2.187635-0.0517-4.314982-0.25838-1.937866-0.96462-3.074748-0.88712-1.421102-2.41157-1.498616z" style="font-feature-settings:normal;font-variant-caps:normal;font-variant-ligatures:normal;font-variant-numeric:normal"/>
   <path d="m620.31615 38.120699q0.75793-0.137803 1.10244 0.241157 0.17225 0.198093 0.18948 0.413412l-2.32544 0.223931q-0.0345-0.163642 0.0689-0.361735 0.21532-0.378961 0.96462-0.516765zm-0.35312 3.625963q-0.44786-0.249769-0.6115-0.689019-0.0861-0.215318-0.0775-0.387573l5.77915-0.689019q-0.19809-1.16272-0.99046-2.256538-1.60197-2.196248-4.63366-1.912028-1.73116 0.163642-2.73885 1.395264-0.91295 1.102431-0.99908 2.713013-0.0947 1.558906 0.61151 2.850816 0.75792 1.386651 2.11873 1.825901 2.35989 0.775147 4.53892-0.344509 1.09381-0.559829 1.70532-1.266073l-1.85174-1.929254q-0.4048 0.34451-0.96463 0.602892-1.11104 0.525377-1.88619 0.08613z" style="font-feature-settings:normal;font-variant-caps:normal;font-variant-ligatures:normal;font-variant-numeric:normal"/>
   <path d="m626.56039 41.049031q0.79238 0.344509 1.42111 0.611504 1.73977 0.869887 2.08428 0.559828 0.12058-0.180867 0.0344-0.310058-0.0861-0.129192-0.85266-0.430637-0.75792-0.310059-1.73978-0.620118-0.98185-0.310058-1.33497-1.024916-0.3359-0.689019-0.0517-1.455552 0.31006-0.826823 1.18856-1.309137 1.0163-0.551215 2.51492-0.456475 1.26607 0.07751 2.52353 0.577054 0.59428 0.327284 0.93018 0.645955l-1.08521 1.705322q-0.49953-0.327284-0.97323-0.4737-1.5503-0.568441-1.63643 0.03445-9e-3 0.163642 0.27561 0.344509 0.29284 0.172255 1.24024 0.430637 0.95601 0.24977 1.55029 0.53399 0.88711 0.43925 1.07659 1.403876 0.1981 0.981853-0.6115 2.015381-0.84405 0.990465-2.91972 0.999078-1.80868 0.01723-4.8662-1.3522z" style="font-feature-settings:normal;font-variant-caps:normal;font-variant-ligatures:normal;font-variant-numeric:normal"/>
  </g>
  <path d="m217.24691 501.80403 28.91279-1.98323-18.30983 22.77706z" fill="#ff5252"/>
  <path d="m425.71446 601.74573c0.87855 1.26447-7.62868 40.68166-8.95497 41.49179-1.32628 0.81011-18.01854-23.21485-17.57079-25.28945 0.44774-2.07459 25.64723-17.46681 26.52576-16.20234z" fill="#00c853"/>
  <path d="m378.79376 495.15485c0.94239 0.0611 16.61463 19.19455 16.4971 20.14049-0.11753 0.94593-18.02291-0.21475-18.84777-1.22178-0.82486-1.00702 1.40829-18.9798 2.35067-18.91871z" fill="#2196f3"/>
  <g transform="rotate(54.238872,-347.71586,768.47585)" fill="#616161" stroke-width=".26458332" style="font-feature-settings:normal;font-variant-caps:normal;font-variant-ligatures:normal;font-variant-numeric:normal" aria-label="después">
   <path d="m-91.408654 5.6005762q-0.08319 0.5002486-0.343892 1.2615453-0.322241 0.9969292-0.409143 1.2506948-0.177372 0.6633976-0.962567 4.4443187-0.709193 3.458289-0.770679 3.828038-0.387002 2.327243-0.132893 3.352961-0.192035 0.213931-0.431285 0.174146-0.217499-0.03617-0.46408-0.300687-0.224831-0.260901-0.253912-0.489251 0.07234-0.434999 0.09013-1.348447-1.554509 1.417852-2.729005 1.222543-1.413746-0.235094-1.997769-1.42743-0.500591-1.022003-0.251031-2.522748 0.303815-1.826995 1.303578-3.672368 1.296784-2.4218191 2.73228-2.183108 0.608998 0.1012713 1.163793 0.6629082 0.116032 0.1087007 0.87034 1.0834888 0.463444-1.4428277 1.295316-6.4453133 0.177567-0.1269318 0.438567-0.08353 0.413248 0.06872 0.667112 0.4238547 0.253863 0.3551348 0.185143 0.7683836zm-2.965857 7.7544648q0.159141-0.956998-0.149268-1.790582-0.370092-1.000301-1.261839-1.148592-1.087497-0.180841-2.108912 1.929147-0.800495 1.587941-1.04644 3.066937-0.159141 0.956997 0.02962 1.703631 0.261342 0.982217 1.087839 1.119657 1.348496 0.224244 2.391711-1.748012 0.77156-1.413941 1.057289-3.132186z"/>
   <path d="m-85.81681 19.09658q-0.230221 0.942427-1.677059 1.38338-1.302629 0.40809-2.309312 0.162172-2.870118-0.701126-1.980629-4.34232 0.392422-1.606409 1.420706-3.307153 1.357092-2.210542 2.556544-1.917534 1.028102 0.25115 1.992591 1.598911 0.969721 1.326342 0.718571 2.354444-0.324402 1.327965-1.636026 2.051614-1.311625 0.72365-2.661008 0.394016-0.128513-0.03139-0.504566-0.350227-0.354634-0.313601-0.504566-0.350227-0.278444-0.06802-0.320302 0.10333-0.601713 2.463161 1.026115 2.860814 0.835332 0.20406 1.678192-0.180163 0.50686-0.216636 1.188344-0.776463 0.537764-0.436056 0.666277-0.404662 0.492632 0.120342 0.346128 0.720068zm-0.515156-4.302084q0.18313-0.749658-0.08828-1.496867-0.266175-0.768628-0.972995-0.941294-0.856751-0.209291-1.653835 0.730841-0.669551 0.789711-0.905004 1.753556-0.151736 0.621145 0.129157 1.143702 0.307543 0.506371 0.928688 0.658107 0.87817 0.214524 1.639607-0.393862 0.702903-0.554594 0.922659-1.454183z"/>
   <path d="m-78.871011 22.145249q-0.227383 0.737441-1.5 0.898792-1.050506 0.114472-1.914366-0.151891-0.568884-0.17541-1.221869-0.6767-0.348352-0.291995-1.012395-1.281226-0.728832-1.078428-0.637879-1.373404 0.201397-0.653163 0.961488-0.349577l0.126418 0.03898q-0.15276 0.645086 0.926181 1.785321 0.972014 1.038045 1.688385 1.258932 0.92707 0.285853 1.12197-0.34624 0.116939-0.379255-0.812934-1.404308-1.279806-1.386752-1.679776-2.109976-0.814513-1.474013-0.366244-2.927826 0.337827-1.095628 1.212054-1.910496 1.016975-0.97851 2.007254-0.673167 0.716371 0.220886 1.519827 1.206958 0.809951 0.965003 0.770616 1.691208-0.0069 0.620857-0.240732 1.379368-0.253369 0.821721-0.847193 1.699976-0.235104 0.08902-0.487941 0.01106-0.147488-0.04548-0.431051-0.248276-0.277067-0.223868-0.238087-0.350287-0.02599 0.08428 0.374694-0.392071 0.279001-0.306213 0.571351-1.254352 0.695143-2.254464-0.71653-2.68974-0.737442-0.227383-1.48525 0.626465-0.626129 0.683711-0.879499 1.505432-0.318336 1.032418 0.583793 2.371936 0.296379 0.460553 1.764055 2.135963 0.973593 1.107751 0.84366 1.529146z"/>
   <path d="m-70.13906 20.998751q-0.764166 2.044681-1.880277 3.204608-1.523334 1.619725-3.258214 0.971342-1.135934-0.424537-1.58906-1.794331-0.16773 0.0079-0.623142 1.226475-1.003451 2.684935-1.151776 3.90056-0.01794 0.110986 6.28e-4 0.56515 0.03922 0.461884 0.0083 0.544497-0.123502 0.330453-0.536568 0.176076-0.495681-0.185252-0.648182-0.407014-0.131848-0.214043 0.02461-1.073556 0.130802-0.727873 0.27746-1.120287l1.960589-5.245949q0.27016-0.722867 0.808186-1.910538 0.615214-1.394206 0.828839-1.90282 0.229063-0.549922 0.54032-1.445734 0.403884-1.143653 0.527385-1.474106 0.532601-1.425081 1.276122-1.147202 0.37176 0.138939 0.271415 0.407433-0.192972 0.516333-0.64609 1.476818t-0.638371 1.456165l0.08261 0.03088q0.714312-0.46272 1.436342-0.946093 0.8278-0.514458 1.653934-0.205704 1.383774 0.517163 1.622856 2.018805 0.207789 1.207488-0.347969 2.694529zm-1.042889-0.295611q0.409099-1.094627 0.475229-1.964361 0.08115-1.287808-0.703678-1.581124-0.578294-0.216128-1.782651 0.487131-1.054778 0.617934-1.691273 1.43927-0.489628 0.617307-1.143646 1.926395-0.473772 0.952766-0.458334 0.91146-0.02316 0.06196 0.108692 0.276003 0.09304 0.128926 0.17837 0.278506 0.15292 0.598529 0.298121 1.217711 0.173573 0.606247 0.855133 0.860969 1.135934 0.424537 2.408925-1.218136 0.907073-1.167436 1.455112-2.633824z"/>
   <path d="m-61.921603 21.460214q-0.274479 0.625974-0.964787 1.815941-0.661261 1.178629-1.059699 2.0873-0.159376 0.363469-0.550361 1.419859-0.361938 1.045051-0.55673 1.48929-0.389584 0.888478-0.671198 0.981671-0.156573 0.02765-0.378693-0.06975-0.444239-0.194792-0.437551-0.649287 0.08746-0.419078 0.166063-0.817963-0.966318 0.611515-2.477202 0.213842-0.560427-0.149438-1.007916-0.995683-0.413473-0.759104-0.402899-1.332271 0.0095-0.790317 0.841783-2.68843l1.921357-4.381814q0.144469-0.658906 0.952177-0.304739 0.565395 0.247918 0.282061 0.894084-0.425 0.969249-1.16735 2.497523-0.928288 1.952322-1.167351 2.497524-0.338943 0.718083-0.314418 1.595541 0.02312 1.045369 0.649098 1.319849 1.029827 0.451563 2.197307-0.673623 0.855417-0.852744 1.395522-2.084498l1.159897-2.645242q0.07083-0.161542 0.07364-0.497365 0.03185-0.347161 0.111537-0.528895 0.04427-0.100964 0.117589-0.213265 0.397802-0.138547 0.689354-0.03478 0.944087 0.317667 0.598774 1.105182z"/>
   <path d="m-54.77395 21.299199-0.09907 0.09813q-0.196971-0.05024-0.541847-0.101193-0.51269-0.01231-1.194136 0.21123-1.027027 0.320494-1.381152 0.141313-0.05902-0.02986-0.06803-0.207396 0.01066-0.167579 0.04052-0.2266 0 0 0.03982-0.07869 2.637368-0.963601 3.011166-0.774466 0.137715 0.06968 0.175414 0.434702 0.06733 0.355302 0.01732 0.502971zm-2.804444 9.107619q-0.437997 0.865637-1.947145 0.966897-1.361243 0.101966-2.285901-0.365895-2.636258-1.333902-0.943994-4.678409 0.746586-1.475518 2.133859-2.898674 1.823152-1.845078 2.924872-1.287626 0.944331 0.477816 1.577955 2.009227 0.643577 1.511737 0.165762 2.456068-0.617179 1.219762-2.058764 1.627021-1.441585 0.40726-2.68102-0.219873-0.118041-0.05973-0.411968-0.455553-0.274253-0.385871-0.411968-0.455552-0.255756-0.129409-0.335392 0.02798-1.144767 2.26246 0.350424 3.019002 0.76727 0.388225 1.675314 0.205211 0.542789-0.09601 1.333498-0.486661 0.622661-0.302703 0.740702-0.242976 0.452492 0.228953 0.173766 0.779813zm0.474151-4.306797q0.348407-0.688575 0.25357-1.477872-0.08488-0.80897-0.73411-1.137469-0.786942-0.398179-1.776506 0.336637-0.831234 0.617245-1.279186 1.502556-0.28868 0.570533-0.133646 1.143186 0.184663 0.562933 0.755196 0.851613 0.806616 0.408134 1.68621-0.01167 0.810383-0.380692 1.228472-1.206982z"/>
   <path d="m-51.070109 35.159572q-0.387607 0.667296-1.663872 0.537923-1.049301-0.12503-1.830991-0.579084-0.514771-0.299011-1.038099-0.934471-0.273651-0.362939-0.697874-1.476298-0.467262-1.214853-0.312219-1.481772 0.343309-0.591034 1.015513-0.124081l0.114393 0.06645q-0.294103 0.594117 0.500358 1.948031 0.71329 1.23027 1.361521 1.606802 0.838886 0.487277 1.171121-0.08469 0.19934-0.343181-0.475819-1.551302-0.934652-1.639332-1.161487-2.434049-0.461661-1.619573 0.302478-2.9351 0.575873-0.991411 1.611145-1.588483 1.211205-0.724365 2.107288-0.203865 0.64823 0.376533 1.208996 1.518207 0.57184 1.122608 0.369982 1.821304-0.146487 0.603367-0.545168 1.289728-0.431904 0.743559-1.208249 1.465534-0.249112 0.03379-0.477899-0.09911-0.133459-0.07752-0.364071-0.338967-0.219537-0.28051-0.15309-0.394904-0.0443 0.07626 0.45336-0.297624 0.340791-0.235519 0.839143-1.093471 1.184969-2.04002-0.09243-2.78201-0.667296-0.387607-1.588174 0.275912-0.764011 0.525153-1.195916 1.268711-0.542649 0.934215 0.03466 2.442478 0.185055 0.515465 1.23775 2.478347 0.699132 1.298541 0.477643 1.679853z"/>
  </g>
 </g>
</svg>
