<?xml version="1.0" encoding="UTF-8"?>
<!-- Created with Inkscape (http://www.inkscape.org/) -->
<svg width="739.0224" height="569.71729" version="1.1" viewBox="0 0 195.53301 150.7377" xmlns="http://www.w3.org/2000/svg" xmlns:cc="http://creativecommons.org/ns#" xmlns:dc="http://purl.org/dc/elements/1.1/" xmlns:rdf="http://www.w3.org/1999/02/22-rdf-syntax-ns#">
 <metadata>
  <rdf:RDF>
   <cc:Work rdf:about="">
    <dc:format>image/svg+xml</dc:format>
    <dc:type rdf:resource="http://purl.org/dc/dcmitype/StillImage"/>
    <dc:title/>
   </cc:Work>
  </rdf:RDF>
 </metadata>
 <g transform="translate(-7.1852024,-287.34149)">
  <g transform="translate(355.16982,220.13586)" fill="#f19920" font-family="sans-serif" font-size="8.0679245px" letter-spacing="0px" stroke-width=".20169811" word-spacing="0px">
   <text x="-364.577" y="49.223103" style="line-height:1.25" xml:space="preserve"><tspan x="-364.577" y="56.361324" fill="#f19920" stroke-width=".20169811"/></text>
   <text x="-206.83694" y="109.26702" style="line-height:1.25" xml:space="preserve"><tspan x="-206.83694" y="116.40524" fill="#f19920" stroke-width=".20169811"/></text>
  </g>
  <g>
   <rect x="62.148186" y="380.1983" width="84.34903" height="57.880886" ry="6.8504596" fill="#e68b0e"/>
   <path d="m62.243744 389.65099v6.05907h84.058436v-6.05907z" fill="#ce7d0d"/>
   <rect x="54.02076" y="373.30759" width="100.60388" height="17.894278" ry="4.0939112" fill="#f19920"/>
   <path d="m84.253241 402.01252c-2.860154 0-5.162476 2.30282-5.162476 5.16297v15.70654c0 2.86017 2.302322 5.16247 5.162476 5.16247h1.163754c-2.860156 0-5.162992-2.3023-5.162992-5.16247v-15.70654c0-2.86015 2.302836-5.16297 5.162992-5.16297z" fill="#ce7d0d"/>
   <rect x="80.254082" y="402.01273" width="49.300556" height="26.031857" ry="5.162735" fill="#fff"/>
   <g fill="#616161" stroke-width=".26458332" style="font-feature-settings:normal;font-variant-caps:normal;font-variant-ligatures:normal;font-variant-numeric:normal" aria-label="Donate">
    <path d="m84.988263 410.55554q0.04134 0 0.1757 0 0.134359 0 0.268718 0.031 0.144694 0.0207 0.258382 0.0827 0.124023 0.062 0.155029 0.18604 0.37207-0.12403 1.033529-0.1757 0.671793-0.0517 1.44694 0.0207 0.785482 0.062 1.581299 0.26871 0.806152 0.20671 1.457275 0.58912 0.661458 0.3824 1.07487 0.97151 0.413411 0.58911 0.413411 1.42627 0 0.60978-0.268717 1.18856-0.258382 0.56844-0.7028 1.09554-0.434082 0.51676-1.023193 0.98185-0.589111 0.45475-1.229899 0.83716-0.640788 0.37207-1.312581 0.65112-0.661459 0.27906-1.271241 0.44442-0.609782 0.15503-1.116211 0.18604-0.506429 0.031-0.826822-0.093zm6.996989 3.50366q-0.07235-0.63045-0.434082-1.09554-0.3514-0.46508-0.888834-0.77514-0.5271-0.31006-1.167888-0.47543-0.640788-0.1757-1.27124-0.22737-0.630452-0.0517-1.198893 0.0103t-0.950847 0.21704l0.113689 6.79029q0.423746 0 1.012858-0.1757 0.599446-0.1757 1.240234-0.48576 0.651123-0.31006 1.281575-0.73381 0.640788-0.43408 1.136882-0.91984 0.506429-0.49609 0.816488-1.03353 0.310058-0.54777 0.310058-1.09554z" style="font-feature-settings:normal;font-variant-caps:normal;font-variant-ligatures:normal;font-variant-numeric:normal"/>
    <path d="m92.905092 416.97375q0-0.84749 0.299724-1.52962 0.299723-0.69246 0.785481-1.18856 0.485759-0.49609 1.085205-0.78548 0.599447-0.28939 1.209229-0.3514 0.682129-0.093 1.281575 0.12403 0.599447 0.2067 1.033529 0.64078 0.434082 0.42375 0.671793 1.03353 0.248047 0.60978 0.217042 1.32292-0.09302 0.84749-0.444418 1.45727-0.3514 0.59945-0.89917 0.99219-0.537435 0.38241-1.250569 0.56844-0.7028 0.1757-1.508952 0.1757-1.219564 0-1.850016-0.56844-0.630453-0.56844-0.630453-1.89136zm0.888835 0.31006q0.04134 0.62012 0.403076 0.94051 0.37207 0.31006 0.89917 0.37207 0.537435 0.062 1.147217-0.093 0.620117-0.16537 1.147216-0.4961 0.5271-0.34106 0.888835-0.81648 0.361735-0.48576 0.382406-1.06454 0.01034-0.26872-0.07235-0.62012-0.08268-0.36173-0.310059-0.69246-0.217041-0.33073-0.609782-0.58911-0.382405-0.25838-0.981852-0.33073-0.217041 0.0103-0.5271 0.0827-0.310058 0.062-0.651123 0.21704-0.330729 0.15503-0.661458 0.41341-0.320394 0.25839-0.568441 0.63046t-0.392741 0.8785q-0.134358 0.50643-0.09302 1.16788z" style="font-feature-settings:normal;font-variant-caps:normal;font-variant-ligatures:normal;font-variant-numeric:normal"/>
    <path d="m100.77024 419.30953q-0.031 0.0827-0.14469 0.12402-0.11369 0.0413-0.26872 0.0413-0.14469 0-0.28938-0.0413-0.144699-0.0413-0.237716-0.14469l-0.02067-5.87044q0.382406-0.22738 0.568436-0.1757 0.19637 0.0517 0.27906 0.26871 0.0827 0.20671 0.10335 0.51677 0.0207 0.29972 0.062 0.57877 1.06454-0.77514 1.83968-1.10587 0.77515-0.34107 1.30225-0.34107 0.53743 0 0.85783 0.28939 0.33073 0.28939 0.51676 0.78548 0.18604 0.48576 0.25838 1.12655 0.0724 0.63045 0.093 1.32292 0.0207 0.68213 0.0207 1.37459 0.0103 0.69246 0.062 1.29191-0.13436 0.12402-0.34106 0.13436-0.20671 0.0207-0.38241-0.0103-0.1757-0.0207-0.26871-0.062-0.093-0.0413 0-0.031-0.031-0.26872-0.0413-0.6718-0.0103-0.41341-0.0103-0.8785 0-0.47542 0-0.97151 0-0.50643-0.0103-0.96118-0.0103-0.45476-0.0517-0.82683-0.031-0.37207-0.10336-0.59944-0.0827-0.19637-0.31005-0.27906-0.21705-0.093-0.53744-0.0723-0.32039 0.0103-0.7028 0.12402-0.37207 0.10335-0.76481 0.28939-0.38241 0.18603-0.75448 0.45475-0.36173 0.25838-0.64078 0.57878l-0.0827 3.74137z" style="font-feature-settings:normal;font-variant-caps:normal;font-variant-ligatures:normal;font-variant-numeric:normal"/>
    <path d="m111.42593 417.28381q-0.29973 0.46509-0.69247 0.8475-0.39274 0.37207-0.86816 0.64078-0.46509 0.25839-1.0232 0.38241-0.54777 0.12402-1.15755 0.0724-0.21704 0-0.46509-0.0517-0.24804-0.0517-0.46508-0.16536-0.20671-0.11369-0.34107-0.29973-0.13436-0.18603-0.13436-0.46508-0.11368-0.57878 0.0517-1.1989 0.1757-0.63045 0.5271-1.21956 0.36173-0.59945 0.86816-1.11621 0.51677-0.5271 1.09554-0.88884 0.57878-0.37207 1.17823-0.53743 0.60978-0.1757 1.16788-0.0724 0.42375 0 0.65113 0.27905 0.23771 0.27906 0.3514 0.75448 0.12402 0.46509 0.14469 1.0852 0.031 0.60979 0.031 1.28158 0.0103 0.66146 0.031 1.33325 0.0207 0.66146 0.11369 1.2299-0.0103 0.0207-0.10335 0.12402-0.0827 0.10336-0.21704 0.16537-0.13436 0.062-0.31006 0.0207-0.16537-0.031-0.33073-0.28939-0.062-0.10335-0.0827-0.36173-0.0103-0.26872-0.0103-0.56844 0.0103-0.29973 0.0103-0.57878 0.0103-0.27905-0.0207-0.40308zm-0.65113-3.14192q-0.40307-0.031-0.83716 0.12402-0.43408 0.15503-0.84749 0.44442-0.40307 0.27905-0.76481 0.66146-0.36173 0.37207-0.63045 0.78548-0.26872 0.40307-0.42375 0.80615-0.14469 0.40308-0.13436 0.74414 0.0207 0.33073 0.21704 0.56844 0.20671 0.22738 0.64079 0.29972 0.59945 0.0103 1.14722-0.29972 0.54777-0.32039 0.99219-0.79582 0.44441-0.47542 0.74414-1.03352 0.31005-0.56845 0.41341-1.06454 0.11369-0.49609 0-0.83716-0.11369-0.3514-0.51677-0.40307z" style="font-feature-settings:normal;font-variant-caps:normal;font-variant-ligatures:normal;font-variant-numeric:normal"/>
    <path d="m113.00722 415.04106q-0.24804-0.062-0.32039-0.20671-0.0827-0.14469-0.0517-0.28939 0.031-0.15503 0.13436-0.26871 0.10336-0.11369 0.21704-0.12403h1.9327l-0.0413-3.22461q0.0413-0.12402 0.1757-0.2067 0.13436-0.0827 0.28939-0.093 0.15503-0.0207 0.31006 0.0413 0.15503 0.0517 0.24804 0.20671l0.093 3.22461 1.82935-0.0414q0.18603 0.10336 0.24804 0.25839 0.0724 0.14469 0.062 0.28938-0.0103 0.13436-0.0827 0.24805-0.062 0.10335-0.14469 0.12402l-1.91203 0.0414q-0.0103 0.64078 0.0103 1.15755 0.031 0.50643 0.062 0.99219 0.0413 0.47542 0.062 0.99218 0.031 0.50643 0.031 1.13688-0.29973 0.20671-0.60979 0.19637-0.31005-0.0103-0.42374-0.25838l-0.11369-4.19612h-2.00505z" style="font-feature-settings:normal;font-variant-caps:normal;font-variant-ligatures:normal;font-variant-numeric:normal"/>
    <path d="m118.37124 417.72823q-0.093-0.83716 0.14469-1.66398 0.23771-0.83716 0.73381-1.48828 0.50643-0.66146 1.21956-1.0542 0.71314-0.40308 1.57097-0.38241 0.3514-0.0103 0.80615 0.15503 0.45475 0.16537 0.83716 0.46509 0.3824 0.28939 0.60978 0.68213 0.23771 0.38241 0.15503 0.81649 0.0103 0.21704-0.21704 0.36173-0.22738 0.13436-0.60979 0.21704-0.37207 0.0827-0.8785 0.12403-0.49609 0.031-1.05419 0.0517-0.54777 0.0207-1.11622 0.0413-0.56844 0.0103-1.07487 0.0517-0.28938 0.79582-0.17569 1.31258 0.12402 0.50643 0.50642 0.77515 0.39274 0.26872 0.96119 0.32039 0.57877 0.0413 1.19889-0.0827 0.62012-0.12402 1.21956-0.39274 0.59945-0.27905 1.03353-0.66146 0.062 0 0.15503 0.0413 0.10335 0.0413 0.19637 0.11369 0.093 0.062 0.15503 0.14469 0.0724 0.0723 0.0724 0.13436-0.25838 0.44442-0.78548 0.79582t-1.18856 0.56844-1.38493 0.26872q-0.71314 0.0517-1.34359-0.10335-0.63045-0.15503-1.10587-0.54777-0.47543-0.39275-0.64079-1.06454zm4.94027-2.75952q-0.0517-0.39274-0.31006-0.58911-0.25839-0.19637-0.60978-0.24805-0.3514-0.062-0.74415 0.0103-0.39274 0.0723-0.7338 0.21704-0.33073 0.14469-0.55811 0.34106-0.21704 0.19637-0.22737 0.39274z" style="font-feature-settings:normal;font-variant-caps:normal;font-variant-ligatures:normal;font-variant-numeric:normal"/>
   </g>
   <path d="m62.148142 394.88684v36.34197c0 3.79516 3.055591 6.85022 6.850745 6.85022h4.362524c-3.795154 0-6.850226-3.05506-6.850226-6.85022v-36.34197z" fill="#ce7d0d"/>
   <rect x="117.21608" y="375.69" width="33.88504" height="4.6537399" ry="2.32687" fill="#fff"/>
  </g>
  <g transform="translate(-19.283365,144.45246)">
   <g transform="matrix(-1,0,0,1,220.74488,97.760501)">
    <rect transform="rotate(140.74816)" x="16.387989" y="-137.12335" width="8.5998363" height="22.928331" ry="5.4076252" fill="#ffab73"/>
    <rect transform="rotate(140.74816)" x="11.443563" y="-142.32594" width="8.5998363" height="22.928331" ry="5.4076252" fill="#ffb686"/>
    <rect transform="rotate(140.74816)" x="5.5177579" y="-145.64423" width="8.5998363" height="22.928331" ry="5.4076252" fill="#ffc39b"/>
    <g fill="#fca">
     <rect transform="rotate(107.87509)" x="61.241276" y="-104.27921" width="28.04217" height="28.04217" ry="12.98249"/>
     <rect transform="rotate(107.87509)" x="61.085114" y="-99.679283" width="21.797363" height="46.210415" ry="10.898682"/>
     <rect transform="matrix(-.7873942 .61644982 -.64887125 -.76089822 0 0)" x="2.1315384" y="-140.65511" width="9.8896608" height="26.143642" ry="6.1659532"/>
    </g>
   </g>
   <g transform="translate(17.02322,-29.340835)">
    <path d="m127.27426 230.33945c-2.74648 3.4e-4 -5.18912 1.83316-5.8968 4.64313-0.6056 2.40471 0.24724 4.78028 2.02159 6.23114-1.05039-1.41609-1.46674-3.27657-0.99374-5.15472 0.83872-3.33033 4.11417-5.28807 7.4445-4.44934 0.92562 0.2331 1.74479 0.6549 2.42777 1.21336-0.81216-1.09491-2.00292-1.92406-3.45509-2.28978-0.52037-0.13105-1.03962-0.19385-1.54823-0.19379zm6.78202 0.78031c1.60992 2.01505 2.28065 4.73177 1.59421 7.45743-1.16821 4.63867-5.78394 7.39729-10.42262 6.22908-1.39078-0.35026-2.61096-1.01255-3.60856-1.89033 1.13 1.41502 2.7222 2.4848 4.63589 2.96675 4.63867 1.16821 9.25441-1.59041 10.42262-6.22908 0.81808-3.2484-0.2911-6.48402-2.62154-8.53385z" fill="#f19920" stroke-width=".10540548"/>
    <g stroke-width=".10540549">
     <circle transform="rotate(14.135526)" cx="181.94633" cy="198.69852" r="8.5858049" fill="#f6b545"/>
     <path d="m130.00851 228.79052c-4.63867-1.16822-9.25441 1.59036-10.42262 6.22904-1.16821 4.63867 1.59036 9.25441 6.22904 10.42262 4.63867 1.16821 9.25441-1.59037 10.42262-6.22904s-1.59037-9.25441-6.22904-10.42262zm-3.5945 14.27284c-3.33033-0.83872-5.28802-4.11438-4.4493-7.44472 0.83872-3.33033 4.11438-5.28802 7.44472-4.4493 3.33033 0.83872 5.28802 4.11438 4.4493 7.44471-0.83872 3.33034-4.11438 5.28802-7.44472 4.44931z" fill="#ffcb5b"/>
     <path d="m122.60564 236.58957c0.83871-3.33034 4.11438-5.28802 7.44471-4.4493 1.42732 0.35945 2.61583 1.16475 3.44658 2.38583-0.8299-1.72685-2.16653-2.9488-4.06955-3.42806-3.33033-0.83872-6.606 1.11897-7.44471 4.4493-0.47926 1.90302-0.0361 3.65888 1.00262 5.05886-0.5929-1.16118-0.73911-2.58932-0.37965-4.01663z" fill="#f19920"/>
    </g>
    <path d="m126.97531 233.33033c-0.33006-0.0829-0.72103-0.0739-1.1793 0.0911-1.95529 0.70422-1.72848 2.91659-0.86984 4.44474 0.69671 1.23995 2.14479 2.58862 2.14479 2.58862s1.91413-0.50192 3.11503-1.26398c1.48002-0.93918 2.72765-2.78022 1.33914-4.32655-1.38851-1.54632-3.04359-0.0106-3.04359-0.0106s-0.42805-1.25237-1.50623-1.52338z" fill="#f19920" stroke-width=".17102149"/>
    <path d="m120.66594 236.96061s0-6.11648 6.11648-7.19298" fill="none" stroke="#f9f9f9" stroke-linecap="round" stroke-width="1.32291663"/>
   </g>
   <g transform="rotate(-91.47994,205.1406,142.28228)" fill="#ffdbc2">
    <rect transform="rotate(-49.992867)" x="22.147617" y="162.09453" width="8.5772934" height="18.183865" ry="4.2886467"/>
    <rect x="147.8662" y="84.875786" width="13.279578" height="13.279578" ry="6.1479549"/>
   </g>
   <g transform="matrix(.736157 -.25407255 .25407255 .736157 -32.409682 61.562831)" fill="#fc0">
    <rect x="191.96677" y="214.97781" width="4.9445982" height="47.119114" ry="3.0156238"/>
    <rect x="199.81995" y="214.97781" width="4.9445982" height="47.119114" ry="3.0156238"/>
   </g>
   <g transform="matrix(.81956024 -.25246555 .25246555 .81956024 -52.847232 80.876566)">
    <rect transform="matrix(-.99993508 .01139429 .01139429 .99993508 0 0)" x="-268.43619" y="183.94043" width="41.301941" height="30.540165" ry="2.3268702" fill="#f16865"/>
    <rect transform="matrix(-.99993508 .01139429 .01139429 .99993508 0 0)" x="-237.60515" y="180.45012" width="14.542938" height="37.520775" ry="2.8587263" fill="#ef5350"/>
   </g>
  </g>
  <g transform="translate(0,136.8326)">
   <g fill="#fca">
    <rect transform="rotate(107.87509)" x="154.28267" y="-134.2861" width="28.04217" height="28.04217" ry="12.98249"/>
    <rect transform="rotate(107.87509)" x="154.12651" y="-129.68617" width="21.797363" height="46.210415" ry="10.898682"/>
    <rect transform="matrix(-.7873942 .61644982 -.64887125 -.76089822 0 0)" x="65.62117" y="-217.6987" width="9.8896608" height="26.143642" ry="6.1659532"/>
   </g>
   <g transform="matrix(.12312303 .04405257 -.04405257 .12312303 95.410033 259.63531)">
    <path d="m-107.12582-197.70486h-286.87278c-7.88901 0-14.34382-6.45482-14.34382-14.34383v-157.78021c0-7.88901 6.45481-14.34382 14.34382-14.34382h286.8734c7.889006 0 14.343819 6.45481 14.343819 14.34382v157.78021c-6.17e-4 7.88901-6.45543 14.34383-14.344439 14.34383z" fill="#0e9347" stroke-width=".61632895"/>
    <path d="m-136.52964-212.04869h-229.49872c0-15.77802-12.90901-28.68703-28.68703-28.68703v-100.40553c15.77802 0 28.68703-12.90901 28.68703-28.68703h229.49872c0 15.77802 12.90901 28.68703 28.68703 28.68703v100.40553c-15.77802 0-28.68703 12.90901-28.68703 28.68703z" fill="#3bb54a" stroke-width=".61632895"/>
    <g fill="#0e9347">
     <ellipse cx="-250.56221" cy="-290.93878" rx="57.37468" ry="64.54628" stroke-width=".61632895"/>
     <path d="m-343.49559-303.84733c-1.27605 6.4e-4 -2.6894 0.3914-4.20454 1.41116-6.4646 4.35099-3.61404 12.18752 0.9073 16.95764 3.66867 3.87053 10.16889 7.44829 10.16889 7.44829s6.50023-3.57776 10.1689-7.44829c4.52135-4.77012 7.37191-12.60665 0.9073-16.95764-6.4646-4.35099-11.0762 2.74861-11.0762 2.74861s-2.70323-4.16168-6.87165-4.15977z"/>
     <path d="m-171.37216-303.84733c-1.27605 6.4e-4 -2.6894 0.3914-4.20454 1.41116-6.4646 4.35099-3.61404 12.18752 0.9073 16.95764 3.66867 3.87053 10.16889 7.44829 10.16889 7.44829s6.50023-3.57776 10.1689-7.44829c4.52135-4.77012 7.37191-12.60665 0.9073-16.95764-6.4646-4.35099-11.0762 2.74861-11.0762 2.74861s-2.70323-4.16168-6.87165-4.15977z"/>
    </g>
    <path d="m-243.39061-298.1104h-14.34382c-4.30321 0-7.1716-2.86901-7.1716-7.1716 0-4.30321 2.86901-7.1716 7.1716-7.1716h21.51543c4.30321 0 7.1716-2.86902 7.1716-7.17161 0-4.30321-2.86901-7.1716-7.1716-7.1716h-7.17161c0-4.30321-2.86901-7.17161-7.1716-7.17161-4.30321 0-7.1716 2.86902-7.1716 7.17161-12.19222 0-21.51543 9.32321-21.51543 21.51543 0 12.19221 9.32321 21.51542 21.51543 21.51542h14.34382c4.30321 0 7.1716 2.86901 7.1716 7.17161 0 4.30321-2.86901 7.1716-7.1716 7.1716h-21.51543c-4.3032 0-7.1716 2.86901-7.1716 7.1716 0 4.30321 2.86901 7.17161 7.1716 7.17161h7.17161c0 4.30321 2.86901 7.1716 7.1716 7.1716 4.30321 0 7.1716-2.86901 7.1716-7.1716 12.19222 0 21.51543-9.32321 21.51543-21.51543s-9.32321-21.51543-21.51543-21.51543z" fill="#89c763" stroke-width=".61632895"/>
   </g>
   <g transform="matrix(.02582695 -.99966643 -.99966643 -.02582695 152.54096 351.02917)" fill="#ffdbc2">
    <rect transform="rotate(-49.992867)" x="22.147617" y="162.09453" width="8.5772934" height="18.183865" ry="4.2886467"/>
    <rect x="147.8662" y="84.875786" width="13.279578" height="13.279578" ry="6.1479549"/>
   </g>
   <g transform="matrix(.84894498 0 0 .84894498 7.37805 29.312747)">
    <rect transform="rotate(16.551296)" x="52.826355" y="149.99525" width="41.301941" height="30.540165" ry="2.3268702" fill="#2196f3"/>
    <rect transform="rotate(16.551296)" x="83.657394" y="146.50494" width="14.542938" height="37.520775" ry="2.8587263" fill="#303f9f"/>
   </g>
  </g>
  <rect transform="rotate(-72.147272)" x="-288.22144" y="110.00259" width="3.856673" height="19.580032" ry="1.5997237" fill="#c6e4fc"/>
  <g>
   <rect transform="rotate(71.657875)" x="353.9343" y="-85.431778" width="3.856673" height="19.580032" ry="1.5997237" fill="#fbd3d2"/>
   <rect transform="rotate(-19.283383)" x="33.189228" y="347.03281" width="1.5910767" height="5.6571617" ry=".79553837" fill="#fff"/>
   <rect transform="rotate(-18.015502)" x="47.012836" y="345.75925" width="1.5910767" height="5.6571617" ry=".79553837" fill="#fff"/>
  </g>
  <g transform="matrix(.18108448 0 0 .18108448 84.965469 285.31796)">
   <text x="123.47852" y="100.3698" fill="#000000" font-family="sans-serif" font-size="10.58333302px" letter-spacing="0px" stroke-width=".26458332" word-spacing="0px" style="line-height:1.25" xml:space="preserve"><tspan x="123.47852" y="109.73357" stroke-width=".26458332"/></text>
   <text x="330.39859" y="179.13414" fill="#000000" font-family="sans-serif" font-size="10.58333302px" letter-spacing="0px" stroke-width=".26458332" word-spacing="0px" style="line-height:1.25" xml:space="preserve"><tspan x="330.39859" y="188.49791" stroke-width=".26458332"/></text>
   <path d="m64.06885 11.174618c-7.95292 0.0042-16.761523 2.439374-26.204571 8.794997-40.290313 27.117332-22.524338 75.958167 5.654699 105.687675 22.864815 24.1229 63.377142 46.42115 63.377142 46.42115s40.51237-22.29825 63.37717-46.42115c28.17906-29.729508 45.94502-78.570343 5.65471-105.687675-40.29029-27.1173472-69.03188 17.130585-69.03188 17.130585s-16.847764-25.937444-42.82727-25.925582z" fill="#e91e63"/>
  </g>
  <path d="m110.4982 289.92356s8.6938-0.17277 7.74105 9.96309" fill="none" stroke="#f9bfd3" stroke-linecap="round" stroke-width="1.36210608"/>
  <path d="m96.567332 287.34149c-1.44015 7.6e-4 -3.035257 0.44179-4.745246 1.59269-7.29595 4.91053-4.078762 13.75483 1.024024 19.13839 4.140462 4.36828 11.47659 8.40611 11.47659 8.40611s-0.9052 0.54291 0 0c-2.23236-1.90739-6.013604-4.94134-9.004812-8.09714-5.102786-5.38355-7.825517-14.53683-0.529567-19.44736 1.143104-0.76936 2.234702-1.22117 3.263158-1.43661-0.473674-0.10012-0.96898-0.15632-1.484147-0.15608z" fill="#d21555" stroke-width=".04791193"/>
  <g transform="matrix(-.4068901 -.23491811 -.23491811 .4068901 283.58258 296.90186)">
   <g transform="matrix(.18108448 0 0 .18108448 84.965469 285.31796)">
    <text x="123.47852" y="100.3698" fill="#000000" font-family="sans-serif" font-size="10.58333302px" letter-spacing="0px" stroke-width=".26458332" word-spacing="0px" style="line-height:1.25" xml:space="preserve"><tspan x="123.47852" y="109.73357" stroke-width=".26458332"/></text>
    <text x="330.39859" y="179.13414" fill="#000000" font-family="sans-serif" font-size="10.58333302px" letter-spacing="0px" stroke-width=".26458332" word-spacing="0px" style="line-height:1.25" xml:space="preserve"><tspan x="330.39859" y="188.49791" stroke-width=".26458332"/></text>
    <path d="m64.06885 11.174618c-7.95292 0.0042-16.761523 2.439374-26.204571 8.794997-40.290313 27.117332-22.524338 75.958167 5.654699 105.687675 22.864815 24.1229 63.377142 46.42115 63.377142 46.42115s40.51237-22.29825 63.37717-46.42115c28.17906-29.729508 45.94502-78.570343 5.65471-105.687675-40.29029-27.1173472-69.03188 17.130585-69.03188 17.130585s-16.847764-25.937444-42.82727-25.925582z" fill="#e91e63"/>
   </g>
   <path d="m110.4982 289.92356s8.6938-0.17277 7.74105 9.96309" fill="none" stroke="#f9bfd3" stroke-linecap="round" stroke-width="1.36210608"/>
   <path d="m96.567332 287.34149c-1.44015 7.6e-4 -3.035257 0.44179-4.745246 1.59269-7.29595 4.91053-4.078762 13.75483 1.024024 19.13839 4.140462 4.36828 11.47659 8.40611 11.47659 8.40611s-0.9052 0.54291 0 0c-2.23236-1.90739-6.013604-4.94134-9.004812-8.09714-5.102786-5.38355-7.825517-14.53683-0.529567-19.44736 1.143104-0.76936 2.234702-1.22117 3.263158-1.43661-0.473674-0.10012-0.96898-0.15632-1.484147-0.15608z" fill="#d21555" stroke-width=".04791193"/>
  </g>
  <g transform="matrix(.40420313 -.1083059 .1083059 .40420313 -40.607538 274.62526)">
   <g transform="matrix(.18108448 0 0 .18108448 84.965469 285.31796)">
    <text x="123.47852" y="100.3698" fill="#000000" font-family="sans-serif" font-size="10.58333302px" letter-spacing="0px" stroke-width=".26458332" word-spacing="0px" style="line-height:1.25" xml:space="preserve"><tspan x="123.47852" y="109.73357" stroke-width=".26458332"/></text>
    <text x="330.39859" y="179.13414" fill="#000000" font-family="sans-serif" font-size="10.58333302px" letter-spacing="0px" stroke-width=".26458332" word-spacing="0px" style="line-height:1.25" xml:space="preserve"><tspan x="330.39859" y="188.49791" stroke-width=".26458332"/></text>
    <path d="m64.06885 11.174618c-7.95292 0.0042-16.761523 2.439374-26.204571 8.794997-40.290313 27.117332-22.524338 75.958167 5.654699 105.687675 22.864815 24.1229 63.377142 46.42115 63.377142 46.42115s40.51237-22.29825 63.37717-46.42115c28.17906-29.729508 45.94502-78.570343 5.65471-105.687675-40.29029-27.1173472-69.03188 17.130585-69.03188 17.130585s-16.847764-25.937444-42.82727-25.925582z" fill="#e91e63"/>
   </g>
   <path d="m110.4982 289.92356s8.6938-0.17277 7.74105 9.96309" fill="none" stroke="#f9bfd3" stroke-linecap="round" stroke-width="1.36210608"/>
   <path d="m96.567332 287.34149c-1.44015 7.6e-4 -3.035257 0.44179-4.745246 1.59269-7.29595 4.91053-4.078762 13.75483 1.024024 19.13839 4.140462 4.36828 11.47659 8.40611 11.47659 8.40611s-0.9052 0.54291 0 0c-2.23236-1.90739-6.013604-4.94134-9.004812-8.09714-5.102786-5.38355-7.825517-14.53683-0.529567-19.44736 1.143104-0.76936 2.234702-1.22117 3.263158-1.43661-0.473674-0.10012-0.96898-0.15632-1.484147-0.15608z" fill="#d21555" stroke-width=".04791193"/>
  </g>
 </g>
</svg>
