<?xml version="1.0" encoding="UTF-8"?>
<!-- Created with Inkscape (http://www.inkscape.org/) -->
<svg width="1220" height="562" version="1.1" viewBox="0 0 322.79166 148.69584" xmlns="http://www.w3.org/2000/svg" xmlns:cc="http://creativecommons.org/ns#" xmlns:dc="http://purl.org/dc/elements/1.1/" xmlns:rdf="http://www.w3.org/1999/02/22-rdf-syntax-ns#">
 <metadata>
  <rdf:RDF>
   <cc:Work rdf:about="">
    <dc:format>image/svg+xml</dc:format>
    <dc:type rdf:resource="http://purl.org/dc/dcmitype/StillImage"/>
    <dc:title/>
   </cc:Work>
  </rdf:RDF>
 </metadata>
 <g transform="translate(63.538284,-162.36299)">
  <rect x="-63.538284" y="162.36299" width="322.79166" height="148.69583" opacity="0" stroke-width=".91198415"/>
  <g transform="translate(-1235.5959,378.47303)">
   <rect x="1178.6722" y="-209.49544" width="309.5625" height="135.46666" rx="9.3694143" ry="9.3694143" fill="#2196f3"/>
   <rect x="1185.7633" y="-204.34227" width="295.38028" height="125.1603" rx="8.9401665" ry="8.6565857" fill="#fff"/>
  </g>
  <g transform="matrix(.4166666 0 0 .41666666 -459.46595 80.79366)">
   <path d="m1117.0879 350.08231c-3.3078 0.32734-6.0776 2.64768-6.9793 5.84705-2.2216 7.8824-13.4394 7.84409-15.5695-0.0634-2.9092-10.80024-2.118-23.82699 8.7323-34.67727s23.8769-11.64169 34.6773-8.73227c7.9077 2.13028 7.9458 13.34786 0.063 15.56942-3.1994 0.90174-5.5197 3.67149-5.8471 6.97936-0.7893 7.97697-7.0999 14.28755-15.0771 15.07713z" fill="#0079d0" stroke-width=".25919953"/>
   <path d="m1117.0879 350.08231c-3.3078 0.32734-6.0776 2.64768-6.9793 5.84705-2.2216 7.8824-13.4394 7.84409-15.5695-0.0634-2.9092-10.80024-2.118-23.82699 8.7323-34.67727s23.8769-11.64169 34.6773-8.73227c7.9077 2.13028 7.9458 13.34786 0.063 15.56942-3.1994 0.90174-5.5197 3.67149-5.8471 6.97936-0.7893 7.97697-7.0999 14.28755-15.0771 15.07713z" enable-background="new" fill="#64dd17" stroke-width=".25919953"/>
   <g transform="matrix(.18328174 .18328174 -.18328174 .18328174 1080.4017 204.47871)" opacity=".15">
    <path d="m380.786 263.501c-2.589 0-5.107-1.342-6.497-3.743-2.076-3.585-0.853-8.173 2.732-10.248l70.678-40.919c3.583-2.077 8.174-0.852 10.248 2.732 2.076 3.585 0.853 8.173-2.732 10.248l-70.678 40.919c-1.183 0.686-2.476 1.011-3.751 1.011z"/>
    <path d="m462.401 263.5h-81.622c-4.143 0-7.5-3.357-7.5-7.5s3.357-7.5 7.5-7.5h81.622c4.143 0 7.5 3.357 7.5 7.5s-3.357 7.5-7.5 7.5z"/>
    <path d="m451.45 304.42c-1.275 0-2.567-0.325-3.751-1.011l-70.678-40.919c-3.585-2.075-4.809-6.663-2.732-10.248 2.074-3.584 6.662-4.81 10.248-2.732l70.678 40.919c3.585 2.075 4.809 6.663 2.732 10.248-1.389 2.401-3.908 3.743-6.497 3.743z"/>
   </g>
   <path d="m1028.6384 261.63274c-0.3274 3.30787-2.6477 6.07762-5.8471 6.97937-7.8824 2.22155-7.8441 13.43931 0.063 15.56941 10.8003 2.90923 23.827 2.11801 34.6773-8.73227s11.6417-23.87685 8.7323-34.67727c-2.1303-7.90769-13.3479-7.94582-15.5695-0.0634-0.9017 3.19937-3.6715 5.51971-6.9793 5.84706-7.977 0.78939-14.2876 7.09996-15.0771 15.07712z" fill="#0079d0" stroke-width=".25919953"/>
   <path d="m1028.6384 261.63274c-0.3274 3.30787-2.6477 6.07762-5.8471 6.97937-7.8824 2.22155-7.8441 13.43931 0.063 15.56941 10.8003 2.90923 23.827 2.11801 34.6773-8.73227s11.6417-23.87685 8.7323-34.67727c-2.1303-7.90769-13.3479-7.94582-15.5695-0.0634-0.9017 3.19937-3.6715 5.51971-6.9793 5.84706-7.977 0.78939-14.2876 7.09996-15.0771 15.07712z" enable-background="new" fill="#64dd17" stroke-width=".25919953"/>
   <g transform="matrix(.18328174 .18328174 -.18328174 .18328174 1080.4017 204.47871)" opacity=".15">
    <path d="m131.214 263.501c-1.275 0-2.567-0.325-3.751-1.011l-70.678-40.919c-3.585-2.075-4.809-6.663-2.733-10.248 2.074-3.584 6.662-4.809 10.248-2.732l70.678 40.919c3.585 2.075 4.809 6.663 2.732 10.248-1.389 2.401-3.907 3.743-6.496 3.743z"/>
    <path d="m131.221 263.5h-81.622c-4.143 0-7.5-3.357-7.5-7.5s3.357-7.5 7.5-7.5h81.622c4.143 0 7.5 3.357 7.5 7.5s-3.358 7.5-7.5 7.5z"/>
    <path d="m60.55 304.42c-2.589 0-5.107-1.342-6.497-3.743-2.076-3.585-0.852-8.173 2.733-10.248l70.678-40.919c3.583-2.078 8.174-0.853 10.248 2.732 2.076 3.585 0.853 8.173-2.732 10.248l-70.678 40.919c-1.184 0.686-2.477 1.011-3.752 1.011z"/>
   </g>
   <circle transform="rotate(45)" cx="974.90271" cy="-553.01599" r="36.619709" fill="#64dd17" stroke-width=".25919953"/>
   <path d="m1106.2956 272.4251c-14.3008-14.30074-37.487-14.30074-51.7878 0-0.1314 0.13141-0.2588 0.26503-0.388 0.3979h52.5638c-0.1292-0.13287-0.2566-0.26649-0.388-0.3979zm9.4588 16.32197h-70.7054c-1.5606 5.78529-1.677 11.87813-0.3535 17.71033h71.4124c1.3233-5.83239 1.2071-11.92504-0.3535-17.71033zm-7.7499 33.63403h-55.2056c0.5456 0.62481 1.1136 1.23642 1.7089 1.83172 14.3008 14.30074 37.487 14.30074 51.7878 0 0.5951-0.59511 1.1631-1.20709 1.7089-1.83172z" fill="#ffd42a" fill-opacity=".94117647" stroke-width=".25919953"/>
  </g>
  <g transform="matrix(.4166666 0 0 .41666666 -352.30971 80.79366)">
   <path d="m1117.0879 350.08231c-3.3078 0.32734-6.0776 2.64768-6.9793 5.84705-2.2216 7.8824-13.4394 7.84409-15.5695-0.0634-2.9092-10.80024-2.118-23.82699 8.7323-34.67727s23.8769-11.64169 34.6773-8.73227c7.9077 2.13028 7.9458 13.34786 0.063 15.56942-3.1994 0.90174-5.5197 3.67149-5.8471 6.97936-0.7893 7.97697-7.0999 14.28755-15.0771 15.07713z" fill="#0079d0" stroke-width=".25919953"/>
   <path d="m1117.0879 350.08231c-3.3078 0.32734-6.0776 2.64768-6.9793 5.84705-2.2216 7.8824-13.4394 7.84409-15.5695-0.0634-2.9092-10.80024-2.118-23.82699 8.7323-34.67727s23.8769-11.64169 34.6773-8.73227c7.9077 2.13028 7.9458 13.34786 0.063 15.56942-3.1994 0.90174-5.5197 3.67149-5.8471 6.97936-0.7893 7.97697-7.0999 14.28755-15.0771 15.07713z" enable-background="new" fill="#64dd17" stroke-width=".25919953"/>
   <g transform="matrix(.18328174 .18328174 -.18328174 .18328174 1080.4017 204.47871)" opacity=".15">
    <path d="m380.786 263.501c-2.589 0-5.107-1.342-6.497-3.743-2.076-3.585-0.853-8.173 2.732-10.248l70.678-40.919c3.583-2.077 8.174-0.852 10.248 2.732 2.076 3.585 0.853 8.173-2.732 10.248l-70.678 40.919c-1.183 0.686-2.476 1.011-3.751 1.011z"/>
    <path d="m462.401 263.5h-81.622c-4.143 0-7.5-3.357-7.5-7.5s3.357-7.5 7.5-7.5h81.622c4.143 0 7.5 3.357 7.5 7.5s-3.357 7.5-7.5 7.5z"/>
    <path d="m451.45 304.42c-1.275 0-2.567-0.325-3.751-1.011l-70.678-40.919c-3.585-2.075-4.809-6.663-2.732-10.248 2.074-3.584 6.662-4.81 10.248-2.732l70.678 40.919c3.585 2.075 4.809 6.663 2.732 10.248-1.389 2.401-3.908 3.743-6.497 3.743z"/>
   </g>
   <path d="m1028.6384 261.63274c-0.3274 3.30787-2.6477 6.07762-5.8471 6.97937-7.8824 2.22155-7.8441 13.43931 0.063 15.56941 10.8003 2.90923 23.827 2.11801 34.6773-8.73227s11.6417-23.87685 8.7323-34.67727c-2.1303-7.90769-13.3479-7.94582-15.5695-0.0634-0.9017 3.19937-3.6715 5.51971-6.9793 5.84706-7.977 0.78939-14.2876 7.09996-15.0771 15.07712z" fill="#0079d0" stroke-width=".25919953"/>
   <path d="m1028.6384 261.63274c-0.3274 3.30787-2.6477 6.07762-5.8471 6.97937-7.8824 2.22155-7.8441 13.43931 0.063 15.56941 10.8003 2.90923 23.827 2.11801 34.6773-8.73227s11.6417-23.87685 8.7323-34.67727c-2.1303-7.90769-13.3479-7.94582-15.5695-0.0634-0.9017 3.19937-3.6715 5.51971-6.9793 5.84706-7.977 0.78939-14.2876 7.09996-15.0771 15.07712z" enable-background="new" fill="#64dd17" stroke-width=".25919953"/>
   <g transform="matrix(.18328174 .18328174 -.18328174 .18328174 1080.4017 204.47871)" opacity=".15">
    <path d="m131.214 263.501c-1.275 0-2.567-0.325-3.751-1.011l-70.678-40.919c-3.585-2.075-4.809-6.663-2.733-10.248 2.074-3.584 6.662-4.809 10.248-2.732l70.678 40.919c3.585 2.075 4.809 6.663 2.732 10.248-1.389 2.401-3.907 3.743-6.496 3.743z"/>
    <path d="m131.221 263.5h-81.622c-4.143 0-7.5-3.357-7.5-7.5s3.357-7.5 7.5-7.5h81.622c4.143 0 7.5 3.357 7.5 7.5s-3.358 7.5-7.5 7.5z"/>
    <path d="m60.55 304.42c-2.589 0-5.107-1.342-6.497-3.743-2.076-3.585-0.852-8.173 2.733-10.248l70.678-40.919c3.583-2.078 8.174-0.853 10.248 2.732 2.076 3.585 0.853 8.173-2.732 10.248l-70.678 40.919c-1.184 0.686-2.477 1.011-3.752 1.011z"/>
   </g>
   <circle transform="rotate(45)" cx="974.90271" cy="-553.01599" r="36.619709" fill="#64dd17" stroke-width=".25919953"/>
   <path d="m1106.2956 272.4251c-14.3008-14.30074-37.487-14.30074-51.7878 0-0.1314 0.13141-0.2588 0.26503-0.388 0.3979h52.5638c-0.1292-0.13287-0.2566-0.26649-0.388-0.3979zm9.4588 16.32197h-70.7054c-1.5606 5.78529-1.677 11.87813-0.3535 17.71033h71.4124c1.3233-5.83239 1.2071-11.92504-0.3535-17.71033zm-7.7499 33.63403h-55.2056c0.5456 0.62481 1.1136 1.23642 1.7089 1.83172 14.3008 14.30074 37.487 14.30074 51.7878 0 0.5951-0.59511 1.1631-1.20709 1.7089-1.83172z" fill="#ffd42a" fill-opacity=".94117647" stroke-width=".25919953"/>
  </g>
  <g transform="matrix(.4166666 0 0 .41666666 -405.88783 80.79366)">
   <path d="m1117.0879 350.08231c-3.3078 0.32734-6.0776 2.64768-6.9793 5.84705-2.2216 7.8824-13.4394 7.84409-15.5695-0.0634-2.9092-10.80024-2.118-23.82699 8.7323-34.67727s23.8769-11.64169 34.6773-8.73227c7.9077 2.13028 7.9458 13.34786 0.063 15.56942-3.1994 0.90174-5.5197 3.67149-5.8471 6.97936-0.7893 7.97697-7.0999 14.28755-15.0771 15.07713z" fill="#0079d0" stroke-width=".25919953"/>
   <path d="m1117.0879 350.08231c-3.3078 0.32734-6.0776 2.64768-6.9793 5.84705-2.2216 7.8824-13.4394 7.84409-15.5695-0.0634-2.9092-10.80024-2.118-23.82699 8.7323-34.67727s23.8769-11.64169 34.6773-8.73227c7.9077 2.13028 7.9458 13.34786 0.063 15.56942-3.1994 0.90174-5.5197 3.67149-5.8471 6.97936-0.7893 7.97697-7.0999 14.28755-15.0771 15.07713z" enable-background="new" fill="#64dd17" stroke-width=".25919953"/>
   <g transform="matrix(.18328174 .18328174 -.18328174 .18328174 1080.4017 204.47871)" opacity=".15">
    <path d="m380.786 263.501c-2.589 0-5.107-1.342-6.497-3.743-2.076-3.585-0.853-8.173 2.732-10.248l70.678-40.919c3.583-2.077 8.174-0.852 10.248 2.732 2.076 3.585 0.853 8.173-2.732 10.248l-70.678 40.919c-1.183 0.686-2.476 1.011-3.751 1.011z"/>
    <path d="m462.401 263.5h-81.622c-4.143 0-7.5-3.357-7.5-7.5s3.357-7.5 7.5-7.5h81.622c4.143 0 7.5 3.357 7.5 7.5s-3.357 7.5-7.5 7.5z"/>
    <path d="m451.45 304.42c-1.275 0-2.567-0.325-3.751-1.011l-70.678-40.919c-3.585-2.075-4.809-6.663-2.732-10.248 2.074-3.584 6.662-4.81 10.248-2.732l70.678 40.919c3.585 2.075 4.809 6.663 2.732 10.248-1.389 2.401-3.908 3.743-6.497 3.743z"/>
   </g>
   <path d="m1028.6384 261.63274c-0.3274 3.30787-2.6477 6.07762-5.8471 6.97937-7.8824 2.22155-7.8441 13.43931 0.063 15.56941 10.8003 2.90923 23.827 2.11801 34.6773-8.73227s11.6417-23.87685 8.7323-34.67727c-2.1303-7.90769-13.3479-7.94582-15.5695-0.0634-0.9017 3.19937-3.6715 5.51971-6.9793 5.84706-7.977 0.78939-14.2876 7.09996-15.0771 15.07712z" fill="#0079d0" stroke-width=".25919953"/>
   <path d="m1028.6384 261.63274c-0.3274 3.30787-2.6477 6.07762-5.8471 6.97937-7.8824 2.22155-7.8441 13.43931 0.063 15.56941 10.8003 2.90923 23.827 2.11801 34.6773-8.73227s11.6417-23.87685 8.7323-34.67727c-2.1303-7.90769-13.3479-7.94582-15.5695-0.0634-0.9017 3.19937-3.6715 5.51971-6.9793 5.84706-7.977 0.78939-14.2876 7.09996-15.0771 15.07712z" enable-background="new" fill="#64dd17" stroke-width=".25919953"/>
   <g transform="matrix(.18328174 .18328174 -.18328174 .18328174 1080.4017 204.47871)" opacity=".15">
    <path d="m131.214 263.501c-1.275 0-2.567-0.325-3.751-1.011l-70.678-40.919c-3.585-2.075-4.809-6.663-2.733-10.248 2.074-3.584 6.662-4.809 10.248-2.732l70.678 40.919c3.585 2.075 4.809 6.663 2.732 10.248-1.389 2.401-3.907 3.743-6.496 3.743z"/>
    <path d="m131.221 263.5h-81.622c-4.143 0-7.5-3.357-7.5-7.5s3.357-7.5 7.5-7.5h81.622c4.143 0 7.5 3.357 7.5 7.5s-3.358 7.5-7.5 7.5z"/>
    <path d="m60.55 304.42c-2.589 0-5.107-1.342-6.497-3.743-2.076-3.585-0.852-8.173 2.733-10.248l70.678-40.919c3.583-2.078 8.174-0.853 10.248 2.732 2.076 3.585 0.853 8.173-2.732 10.248l-70.678 40.919c-1.184 0.686-2.477 1.011-3.752 1.011z"/>
   </g>
   <circle transform="rotate(45)" cx="974.90271" cy="-553.01599" r="36.619709" fill="#64dd17" stroke-width=".25919953"/>
   <path d="m1106.2956 272.4251c-14.3008-14.30074-37.487-14.30074-51.7878 0-0.1314 0.13141-0.2588 0.26503-0.388 0.3979h52.5638c-0.1292-0.13287-0.2566-0.26649-0.388-0.3979zm9.4588 16.32197h-70.7054c-1.5606 5.78529-1.677 11.87813-0.3535 17.71033h71.4124c1.3233-5.83239 1.2071-11.92504-0.3535-17.71033zm-7.7499 33.63403h-55.2056c0.5456 0.62481 1.1136 1.23642 1.7089 1.83172 14.3008 14.30074 37.487 14.30074 51.7878 0 0.5951-0.59511 1.1631-1.20709 1.7089-1.83172z" fill="#ffd42a" fill-opacity=".94117647" stroke-width=".25919953"/>
  </g>
  <g fill="#2196f3" stroke="#fff" stroke-width="1.32291663">
   <g transform="translate(-1167.3283,238.85968)" style="font-feature-settings:normal;font-variant-caps:normal;font-variant-ligatures:normal;font-variant-numeric:normal" aria-label="1">
    <path d="m1160.2649-43.387707-4.4649 0.124024-1.2264 1.005968v4.230577l1.1024-0.509874 0.124 13.339409h4.8232z" fill="#2196f3" stroke="#fff" stroke-width="1.32291663" style="font-feature-settings:normal;font-variant-caps:normal;font-variant-ligatures:normal;font-variant-numeric:normal"/>
   </g>
   <g transform="translate(-1152.4943,237.35222)" style="font-feature-settings:normal;font-variant-caps:normal;font-variant-ligatures:normal;font-variant-numeric:normal" aria-label="2">
    <path d="m1201.0502-41.169313q-4.1479-2.52181-7.717-0.04134-1.7915 1.309136-3.1557 3.23839l2.7836 3.527777q0.3583-0.578776 1.006-1.074869 1.4331-1.43316 2.8801-1.129992 0.813 0.179145 0.6614 1.102431-0.124 0.785482-0.9232 2.053277-1.5021 2.356445-3.6656 3.789605-0.9371 0.799262-1.7364 1.405598l-0.3307 4.878256 11.2035 0.234266 0.014-4.671549-5.6637 0.261827q2.6872-2.480469 4.6027-5.40191 1.6812-2.54937 1.8741-4.478624 0.2618-2.411566-1.8328-3.693142z" fill="#2196f3" stroke="#fff" stroke-width="1.32291663" style="font-feature-settings:normal;font-variant-caps:normal;font-variant-ligatures:normal;font-variant-numeric:normal"/>
   </g>
   <g transform="translate(-1132.6537,237.07318)" style="font-feature-settings:normal;font-variant-caps:normal;font-variant-ligatures:normal;font-variant-numeric:normal" aria-label="3">
    <path d="m1224.1829-41.348458 0.1241 4.203017 5.3054-0.124024-4.4648 3.23839q1.2264-0.179145 2.4115 0.137804 2.3978 0.633897 2.3289 3.128146-0.083 2.50803-2.4115 2.466688-1.1714-0.02756-2.3289-0.551215l-1.0887 4.492405q1.9844 0.633897 4.3271 0.675238 4.6439 0.09646 6.3527-2.824978 2.3427-4.023871-0.041-6.807508-1.1989-1.391819-2.7423-2.122179l4.768-5.856662z" fill="#2196f3" stroke="#fff" stroke-width="1.32291663" style="font-feature-settings:normal;font-variant-caps:normal;font-variant-ligatures:normal;font-variant-numeric:normal"/>
   </g>
  </g>
 </g>
</svg>
