<?xml version="1.0" encoding="UTF-8"?>
<!-- Created with Inkscape (http://www.inkscape.org/) -->
<svg width="1220" height="562" version="1.1" viewBox="0 0 322.79166 148.69584" xmlns="http://www.w3.org/2000/svg" xmlns:cc="http://creativecommons.org/ns#" xmlns:dc="http://purl.org/dc/elements/1.1/" xmlns:rdf="http://www.w3.org/1999/02/22-rdf-syntax-ns#">
 <metadata>
  <rdf:RDF>
   <cc:Work rdf:about="">
    <dc:format>image/svg+xml</dc:format>
    <dc:type rdf:resource="http://purl.org/dc/dcmitype/StillImage"/>
    <dc:title/>
   </cc:Work>
  </rdf:RDF>
 </metadata>
 <g transform="translate(63.538284,-162.36299)">
  <rect x="-63.538284" y="162.36299" width="322.79166" height="148.69583" opacity="0" stroke-width=".91198415"/>
  <g transform="translate(-1235.5959,378.47303)">
   <rect x="1178.6722" y="-209.49544" width="309.5625" height="135.46666" rx="9.3694143" ry="9.3694143" fill="#2196f3"/>
   <rect x="1185.7633" y="-204.34227" width="295.38028" height="125.1603" rx="8.9401665" ry="8.6565857" fill="#fff"/>
  </g>
  <g transform="translate(6.5635385,-170.82322)">
   <g transform="matrix(.4166666 0 0 .41666666 -466.02949 251.61688)">
    <path d="m1117.0879 350.08231c-3.3078 0.32734-6.0776 2.64768-6.9793 5.84705-2.2216 7.8824-13.4394 7.84409-15.5695-0.0634-2.9092-10.80024-2.118-23.82699 8.7323-34.67727s23.8769-11.64169 34.6773-8.73227c7.9077 2.13028 7.9458 13.34786 0.063 15.56942-3.1994 0.90174-5.5197 3.67149-5.8471 6.97936-0.7893 7.97697-7.0999 14.28755-15.0771 15.07713z" fill="#0079d0" stroke-width=".25919953"/>
    <path d="m1117.0879 350.08231c-3.3078 0.32734-6.0776 2.64768-6.9793 5.84705-2.2216 7.8824-13.4394 7.84409-15.5695-0.0634-2.9092-10.80024-2.118-23.82699 8.7323-34.67727s23.8769-11.64169 34.6773-8.73227c7.9077 2.13028 7.9458 13.34786 0.063 15.56942-3.1994 0.90174-5.5197 3.67149-5.8471 6.97936-0.7893 7.97697-7.0999 14.28755-15.0771 15.07713z" enable-background="new" fill="#64dd17" stroke-width=".25919953"/>
    <g transform="matrix(.18328174 .18328174 -.18328174 .18328174 1080.4017 204.47871)" opacity=".15">
     <path d="m380.786 263.501c-2.589 0-5.107-1.342-6.497-3.743-2.076-3.585-0.853-8.173 2.732-10.248l70.678-40.919c3.583-2.077 8.174-0.852 10.248 2.732 2.076 3.585 0.853 8.173-2.732 10.248l-70.678 40.919c-1.183 0.686-2.476 1.011-3.751 1.011z"/>
     <path d="m462.401 263.5h-81.622c-4.143 0-7.5-3.357-7.5-7.5s3.357-7.5 7.5-7.5h81.622c4.143 0 7.5 3.357 7.5 7.5s-3.357 7.5-7.5 7.5z"/>
     <path d="m451.45 304.42c-1.275 0-2.567-0.325-3.751-1.011l-70.678-40.919c-3.585-2.075-4.809-6.663-2.732-10.248 2.074-3.584 6.662-4.81 10.248-2.732l70.678 40.919c3.585 2.075 4.809 6.663 2.732 10.248-1.389 2.401-3.908 3.743-6.497 3.743z"/>
    </g>
    <path d="m1028.6384 261.63274c-0.3274 3.30787-2.6477 6.07762-5.8471 6.97937-7.8824 2.22155-7.8441 13.43931 0.063 15.56941 10.8003 2.90923 23.827 2.11801 34.6773-8.73227s11.6417-23.87685 8.7323-34.67727c-2.1303-7.90769-13.3479-7.94582-15.5695-0.0634-0.9017 3.19937-3.6715 5.51971-6.9793 5.84706-7.977 0.78939-14.2876 7.09996-15.0771 15.07712z" fill="#0079d0" stroke-width=".25919953"/>
    <path d="m1028.6384 261.63274c-0.3274 3.30787-2.6477 6.07762-5.8471 6.97937-7.8824 2.22155-7.8441 13.43931 0.063 15.56941 10.8003 2.90923 23.827 2.11801 34.6773-8.73227s11.6417-23.87685 8.7323-34.67727c-2.1303-7.90769-13.3479-7.94582-15.5695-0.0634-0.9017 3.19937-3.6715 5.51971-6.9793 5.84706-7.977 0.78939-14.2876 7.09996-15.0771 15.07712z" enable-background="new" fill="#64dd17" stroke-width=".25919953"/>
    <g transform="matrix(.18328174 .18328174 -.18328174 .18328174 1080.4017 204.47871)" opacity=".15">
     <path d="m131.214 263.501c-1.275 0-2.567-0.325-3.751-1.011l-70.678-40.919c-3.585-2.075-4.809-6.663-2.733-10.248 2.074-3.584 6.662-4.809 10.248-2.732l70.678 40.919c3.585 2.075 4.809 6.663 2.732 10.248-1.389 2.401-3.907 3.743-6.496 3.743z"/>
     <path d="m131.221 263.5h-81.622c-4.143 0-7.5-3.357-7.5-7.5s3.357-7.5 7.5-7.5h81.622c4.143 0 7.5 3.357 7.5 7.5s-3.358 7.5-7.5 7.5z"/>
     <path d="m60.55 304.42c-2.589 0-5.107-1.342-6.497-3.743-2.076-3.585-0.852-8.173 2.733-10.248l70.678-40.919c3.583-2.078 8.174-0.853 10.248 2.732 2.076 3.585 0.853 8.173-2.732 10.248l-70.678 40.919c-1.184 0.686-2.477 1.011-3.752 1.011z"/>
    </g>
    <circle transform="rotate(45)" cx="974.90271" cy="-553.01599" r="36.619709" fill="#64dd17" stroke-width=".25919953"/>
    <path d="m1106.2956 272.4251c-14.3008-14.30074-37.487-14.30074-51.7878 0-0.1314 0.13141-0.2588 0.26503-0.388 0.3979h52.5638c-0.1292-0.13287-0.2566-0.26649-0.388-0.3979zm9.4588 16.32197h-70.7054c-1.5606 5.78529-1.677 11.87813-0.3535 17.71033h71.4124c1.3233-5.83239 1.2071-11.92504-0.3535-17.71033zm-7.7499 33.63403h-55.2056c0.5456 0.62481 1.1136 1.23642 1.7089 1.83172 14.3008 14.30074 37.487 14.30074 51.7878 0 0.5951-0.59511 1.1631-1.20709 1.7089-1.83172z" fill="#ffd42a" fill-opacity=".94117647" stroke-width=".25919953"/>
   </g>
   <g transform="matrix(.4166666 0 0 .41666666 -251.717 251.61688)">
    <path d="m1117.0879 350.08231c-3.3078 0.32734-6.0776 2.64768-6.9793 5.84705-2.2216 7.8824-13.4394 7.84409-15.5695-0.0634-2.9092-10.80024-2.118-23.82699 8.7323-34.67727s23.8769-11.64169 34.6773-8.73227c7.9077 2.13028 7.9458 13.34786 0.063 15.56942-3.1994 0.90174-5.5197 3.67149-5.8471 6.97936-0.7893 7.97697-7.0999 14.28755-15.0771 15.07713z" fill="#0079d0" stroke-width=".25919953"/>
    <path d="m1117.0879 350.08231c-3.3078 0.32734-6.0776 2.64768-6.9793 5.84705-2.2216 7.8824-13.4394 7.84409-15.5695-0.0634-2.9092-10.80024-2.118-23.82699 8.7323-34.67727s23.8769-11.64169 34.6773-8.73227c7.9077 2.13028 7.9458 13.34786 0.063 15.56942-3.1994 0.90174-5.5197 3.67149-5.8471 6.97936-0.7893 7.97697-7.0999 14.28755-15.0771 15.07713z" enable-background="new" fill="#64dd17" stroke-width=".25919953"/>
    <g transform="matrix(.18328174 .18328174 -.18328174 .18328174 1080.4017 204.47871)" opacity=".15">
     <path d="m380.786 263.501c-2.589 0-5.107-1.342-6.497-3.743-2.076-3.585-0.853-8.173 2.732-10.248l70.678-40.919c3.583-2.077 8.174-0.852 10.248 2.732 2.076 3.585 0.853 8.173-2.732 10.248l-70.678 40.919c-1.183 0.686-2.476 1.011-3.751 1.011z"/>
     <path d="m462.401 263.5h-81.622c-4.143 0-7.5-3.357-7.5-7.5s3.357-7.5 7.5-7.5h81.622c4.143 0 7.5 3.357 7.5 7.5s-3.357 7.5-7.5 7.5z"/>
     <path d="m451.45 304.42c-1.275 0-2.567-0.325-3.751-1.011l-70.678-40.919c-3.585-2.075-4.809-6.663-2.732-10.248 2.074-3.584 6.662-4.81 10.248-2.732l70.678 40.919c3.585 2.075 4.809 6.663 2.732 10.248-1.389 2.401-3.908 3.743-6.497 3.743z"/>
    </g>
    <path d="m1028.6384 261.63274c-0.3274 3.30787-2.6477 6.07762-5.8471 6.97937-7.8824 2.22155-7.8441 13.43931 0.063 15.56941 10.8003 2.90923 23.827 2.11801 34.6773-8.73227s11.6417-23.87685 8.7323-34.67727c-2.1303-7.90769-13.3479-7.94582-15.5695-0.0634-0.9017 3.19937-3.6715 5.51971-6.9793 5.84706-7.977 0.78939-14.2876 7.09996-15.0771 15.07712z" fill="#0079d0" stroke-width=".25919953"/>
    <path d="m1028.6384 261.63274c-0.3274 3.30787-2.6477 6.07762-5.8471 6.97937-7.8824 2.22155-7.8441 13.43931 0.063 15.56941 10.8003 2.90923 23.827 2.11801 34.6773-8.73227s11.6417-23.87685 8.7323-34.67727c-2.1303-7.90769-13.3479-7.94582-15.5695-0.0634-0.9017 3.19937-3.6715 5.51971-6.9793 5.84706-7.977 0.78939-14.2876 7.09996-15.0771 15.07712z" enable-background="new" fill="#64dd17" stroke-width=".25919953"/>
    <g transform="matrix(.18328174 .18328174 -.18328174 .18328174 1080.4017 204.47871)" opacity=".15">
     <path d="m131.214 263.501c-1.275 0-2.567-0.325-3.751-1.011l-70.678-40.919c-3.585-2.075-4.809-6.663-2.733-10.248 2.074-3.584 6.662-4.809 10.248-2.732l70.678 40.919c3.585 2.075 4.809 6.663 2.732 10.248-1.389 2.401-3.907 3.743-6.496 3.743z"/>
     <path d="m131.221 263.5h-81.622c-4.143 0-7.5-3.357-7.5-7.5s3.357-7.5 7.5-7.5h81.622c4.143 0 7.5 3.357 7.5 7.5s-3.358 7.5-7.5 7.5z"/>
     <path d="m60.55 304.42c-2.589 0-5.107-1.342-6.497-3.743-2.076-3.585-0.852-8.173 2.733-10.248l70.678-40.919c3.583-2.078 8.174-0.853 10.248 2.732 2.076 3.585 0.853 8.173-2.732 10.248l-70.678 40.919c-1.184 0.686-2.477 1.011-3.752 1.011z"/>
    </g>
    <circle transform="rotate(45)" cx="974.90271" cy="-553.01599" r="36.619709" fill="#64dd17" stroke-width=".25919953"/>
    <path d="m1106.2956 272.4251c-14.3008-14.30074-37.487-14.30074-51.7878 0-0.1314 0.13141-0.2588 0.26503-0.388 0.3979h52.5638c-0.1292-0.13287-0.2566-0.26649-0.388-0.3979zm9.4588 16.32197h-70.7054c-1.5606 5.78529-1.677 11.87813-0.3535 17.71033h71.4124c1.3233-5.83239 1.2071-11.92504-0.3535-17.71033zm-7.7499 33.63403h-55.2056c0.5456 0.62481 1.1136 1.23642 1.7089 1.83172 14.3008 14.30074 37.487 14.30074 51.7878 0 0.5951-0.59511 1.1631-1.20709 1.7089-1.83172z" fill="#ffd42a" fill-opacity=".94117647" stroke-width=".25919953"/>
   </g>
   <g transform="matrix(.4166666 0 0 .41666666 -305.29513 251.61688)">
    <path d="m1117.0879 350.08231c-3.3078 0.32734-6.0776 2.64768-6.9793 5.84705-2.2216 7.8824-13.4394 7.84409-15.5695-0.0634-2.9092-10.80024-2.118-23.82699 8.7323-34.67727s23.8769-11.64169 34.6773-8.73227c7.9077 2.13028 7.9458 13.34786 0.063 15.56942-3.1994 0.90174-5.5197 3.67149-5.8471 6.97936-0.7893 7.97697-7.0999 14.28755-15.0771 15.07713z" fill="#0079d0" stroke-width=".25919953"/>
    <path d="m1117.0879 350.08231c-3.3078 0.32734-6.0776 2.64768-6.9793 5.84705-2.2216 7.8824-13.4394 7.84409-15.5695-0.0634-2.9092-10.80024-2.118-23.82699 8.7323-34.67727s23.8769-11.64169 34.6773-8.73227c7.9077 2.13028 7.9458 13.34786 0.063 15.56942-3.1994 0.90174-5.5197 3.67149-5.8471 6.97936-0.7893 7.97697-7.0999 14.28755-15.0771 15.07713z" enable-background="new" fill="#64dd17" stroke-width=".25919953"/>
    <g transform="matrix(.18328174 .18328174 -.18328174 .18328174 1080.4017 204.47871)" opacity=".15">
     <path d="m380.786 263.501c-2.589 0-5.107-1.342-6.497-3.743-2.076-3.585-0.853-8.173 2.732-10.248l70.678-40.919c3.583-2.077 8.174-0.852 10.248 2.732 2.076 3.585 0.853 8.173-2.732 10.248l-70.678 40.919c-1.183 0.686-2.476 1.011-3.751 1.011z"/>
     <path d="m462.401 263.5h-81.622c-4.143 0-7.5-3.357-7.5-7.5s3.357-7.5 7.5-7.5h81.622c4.143 0 7.5 3.357 7.5 7.5s-3.357 7.5-7.5 7.5z"/>
     <path d="m451.45 304.42c-1.275 0-2.567-0.325-3.751-1.011l-70.678-40.919c-3.585-2.075-4.809-6.663-2.732-10.248 2.074-3.584 6.662-4.81 10.248-2.732l70.678 40.919c3.585 2.075 4.809 6.663 2.732 10.248-1.389 2.401-3.908 3.743-6.497 3.743z"/>
    </g>
    <path d="m1028.6384 261.63274c-0.3274 3.30787-2.6477 6.07762-5.8471 6.97937-7.8824 2.22155-7.8441 13.43931 0.063 15.56941 10.8003 2.90923 23.827 2.11801 34.6773-8.73227s11.6417-23.87685 8.7323-34.67727c-2.1303-7.90769-13.3479-7.94582-15.5695-0.0634-0.9017 3.19937-3.6715 5.51971-6.9793 5.84706-7.977 0.78939-14.2876 7.09996-15.0771 15.07712z" fill="#0079d0" stroke-width=".25919953"/>
    <path d="m1028.6384 261.63274c-0.3274 3.30787-2.6477 6.07762-5.8471 6.97937-7.8824 2.22155-7.8441 13.43931 0.063 15.56941 10.8003 2.90923 23.827 2.11801 34.6773-8.73227s11.6417-23.87685 8.7323-34.67727c-2.1303-7.90769-13.3479-7.94582-15.5695-0.0634-0.9017 3.19937-3.6715 5.51971-6.9793 5.84706-7.977 0.78939-14.2876 7.09996-15.0771 15.07712z" enable-background="new" fill="#64dd17" stroke-width=".25919953"/>
    <g transform="matrix(.18328174 .18328174 -.18328174 .18328174 1080.4017 204.47871)" opacity=".15">
     <path d="m131.214 263.501c-1.275 0-2.567-0.325-3.751-1.011l-70.678-40.919c-3.585-2.075-4.809-6.663-2.733-10.248 2.074-3.584 6.662-4.809 10.248-2.732l70.678 40.919c3.585 2.075 4.809 6.663 2.732 10.248-1.389 2.401-3.907 3.743-6.496 3.743z"/>
     <path d="m131.221 263.5h-81.622c-4.143 0-7.5-3.357-7.5-7.5s3.357-7.5 7.5-7.5h81.622c4.143 0 7.5 3.357 7.5 7.5s-3.358 7.5-7.5 7.5z"/>
     <path d="m60.55 304.42c-2.589 0-5.107-1.342-6.497-3.743-2.076-3.585-0.852-8.173 2.733-10.248l70.678-40.919c3.583-2.078 8.174-0.853 10.248 2.732 2.076 3.585 0.853 8.173-2.732 10.248l-70.678 40.919c-1.184 0.686-2.477 1.011-3.752 1.011z"/>
    </g>
    <circle transform="rotate(45)" cx="974.90271" cy="-553.01599" r="36.619709" fill="#64dd17" stroke-width=".25919953"/>
    <path d="m1106.2956 272.4251c-14.3008-14.30074-37.487-14.30074-51.7878 0-0.1314 0.13141-0.2588 0.26503-0.388 0.3979h52.5638c-0.1292-0.13287-0.2566-0.26649-0.388-0.3979zm9.4588 16.32197h-70.7054c-1.5606 5.78529-1.677 11.87813-0.3535 17.71033h71.4124c1.3233-5.83239 1.2071-11.92504-0.3535-17.71033zm-7.7499 33.63403h-55.2056c0.5456 0.62481 1.1136 1.23642 1.7089 1.83172 14.3008 14.30074 37.487 14.30074 51.7878 0 0.5951-0.59511 1.1631-1.20709 1.7089-1.83172z" fill="#ffd42a" fill-opacity=".94117647" stroke-width=".25919953"/>
   </g>
   <g transform="matrix(.4166666 0 0 .41666666 -358.87325 251.61688)">
    <path d="m1117.0879 350.08231c-3.3078 0.32734-6.0776 2.64768-6.9793 5.84705-2.2216 7.8824-13.4394 7.84409-15.5695-0.0634-2.9092-10.80024-2.118-23.82699 8.7323-34.67727s23.8769-11.64169 34.6773-8.73227c7.9077 2.13028 7.9458 13.34786 0.063 15.56942-3.1994 0.90174-5.5197 3.67149-5.8471 6.97936-0.7893 7.97697-7.0999 14.28755-15.0771 15.07713z" fill="#0079d0" stroke-width=".25919953"/>
    <path d="m1117.0879 350.08231c-3.3078 0.32734-6.0776 2.64768-6.9793 5.84705-2.2216 7.8824-13.4394 7.84409-15.5695-0.0634-2.9092-10.80024-2.118-23.82699 8.7323-34.67727s23.8769-11.64169 34.6773-8.73227c7.9077 2.13028 7.9458 13.34786 0.063 15.56942-3.1994 0.90174-5.5197 3.67149-5.8471 6.97936-0.7893 7.97697-7.0999 14.28755-15.0771 15.07713z" enable-background="new" fill="#64dd17" stroke-width=".25919953"/>
    <g transform="matrix(.18328174 .18328174 -.18328174 .18328174 1080.4017 204.47871)" opacity=".15">
     <path d="m380.786 263.501c-2.589 0-5.107-1.342-6.497-3.743-2.076-3.585-0.853-8.173 2.732-10.248l70.678-40.919c3.583-2.077 8.174-0.852 10.248 2.732 2.076 3.585 0.853 8.173-2.732 10.248l-70.678 40.919c-1.183 0.686-2.476 1.011-3.751 1.011z"/>
     <path d="m462.401 263.5h-81.622c-4.143 0-7.5-3.357-7.5-7.5s3.357-7.5 7.5-7.5h81.622c4.143 0 7.5 3.357 7.5 7.5s-3.357 7.5-7.5 7.5z"/>
     <path d="m451.45 304.42c-1.275 0-2.567-0.325-3.751-1.011l-70.678-40.919c-3.585-2.075-4.809-6.663-2.732-10.248 2.074-3.584 6.662-4.81 10.248-2.732l70.678 40.919c3.585 2.075 4.809 6.663 2.732 10.248-1.389 2.401-3.908 3.743-6.497 3.743z"/>
    </g>
    <path d="m1028.6384 261.63274c-0.3274 3.30787-2.6477 6.07762-5.8471 6.97937-7.8824 2.22155-7.8441 13.43931 0.063 15.56941 10.8003 2.90923 23.827 2.11801 34.6773-8.73227s11.6417-23.87685 8.7323-34.67727c-2.1303-7.90769-13.3479-7.94582-15.5695-0.0634-0.9017 3.19937-3.6715 5.51971-6.9793 5.84706-7.977 0.78939-14.2876 7.09996-15.0771 15.07712z" fill="#0079d0" stroke-width=".25919953"/>
    <path d="m1028.6384 261.63274c-0.3274 3.30787-2.6477 6.07762-5.8471 6.97937-7.8824 2.22155-7.8441 13.43931 0.063 15.56941 10.8003 2.90923 23.827 2.11801 34.6773-8.73227s11.6417-23.87685 8.7323-34.67727c-2.1303-7.90769-13.3479-7.94582-15.5695-0.0634-0.9017 3.19937-3.6715 5.51971-6.9793 5.84706-7.977 0.78939-14.2876 7.09996-15.0771 15.07712z" enable-background="new" fill="#64dd17" stroke-width=".25919953"/>
    <g transform="matrix(.18328174 .18328174 -.18328174 .18328174 1080.4017 204.47871)" opacity=".15">
     <path d="m131.214 263.501c-1.275 0-2.567-0.325-3.751-1.011l-70.678-40.919c-3.585-2.075-4.809-6.663-2.733-10.248 2.074-3.584 6.662-4.809 10.248-2.732l70.678 40.919c3.585 2.075 4.809 6.663 2.732 10.248-1.389 2.401-3.907 3.743-6.496 3.743z"/>
     <path d="m131.221 263.5h-81.622c-4.143 0-7.5-3.357-7.5-7.5s3.357-7.5 7.5-7.5h81.622c4.143 0 7.5 3.357 7.5 7.5s-3.358 7.5-7.5 7.5z"/>
     <path d="m60.55 304.42c-2.589 0-5.107-1.342-6.497-3.743-2.076-3.585-0.852-8.173 2.733-10.248l70.678-40.919c3.583-2.078 8.174-0.853 10.248 2.732 2.076 3.585 0.853 8.173-2.732 10.248l-70.678 40.919c-1.184 0.686-2.477 1.011-3.752 1.011z"/>
    </g>
    <circle transform="rotate(45)" cx="974.90271" cy="-553.01599" r="36.619709" fill="#64dd17" stroke-width=".25919953"/>
    <path d="m1106.2956 272.4251c-14.3008-14.30074-37.487-14.30074-51.7878 0-0.1314 0.13141-0.2588 0.26503-0.388 0.3979h52.5638c-0.1292-0.13287-0.2566-0.26649-0.388-0.3979zm9.4588 16.32197h-70.7054c-1.5606 5.78529-1.677 11.87813-0.3535 17.71033h71.4124c1.3233-5.83239 1.2071-11.92504-0.3535-17.71033zm-7.7499 33.63403h-55.2056c0.5456 0.62481 1.1136 1.23642 1.7089 1.83172 14.3008 14.30074 37.487 14.30074 51.7878 0 0.5951-0.59511 1.1631-1.20709 1.7089-1.83172z" fill="#ffd42a" fill-opacity=".94117647" stroke-width=".25919953"/>
   </g>
   <g transform="matrix(.4166666 0 0 .41666666 -412.45137 251.61688)">
    <path d="m1117.0879 350.08231c-3.3078 0.32734-6.0776 2.64768-6.9793 5.84705-2.2216 7.8824-13.4394 7.84409-15.5695-0.0634-2.9092-10.80024-2.118-23.82699 8.7323-34.67727s23.8769-11.64169 34.6773-8.73227c7.9077 2.13028 7.9458 13.34786 0.063 15.56942-3.1994 0.90174-5.5197 3.67149-5.8471 6.97936-0.7893 7.97697-7.0999 14.28755-15.0771 15.07713z" fill="#0079d0" stroke-width=".25919953"/>
    <path d="m1117.0879 350.08231c-3.3078 0.32734-6.0776 2.64768-6.9793 5.84705-2.2216 7.8824-13.4394 7.84409-15.5695-0.0634-2.9092-10.80024-2.118-23.82699 8.7323-34.67727s23.8769-11.64169 34.6773-8.73227c7.9077 2.13028 7.9458 13.34786 0.063 15.56942-3.1994 0.90174-5.5197 3.67149-5.8471 6.97936-0.7893 7.97697-7.0999 14.28755-15.0771 15.07713z" enable-background="new" fill="#64dd17" stroke-width=".25919953"/>
    <g transform="matrix(.18328174 .18328174 -.18328174 .18328174 1080.4017 204.47871)" opacity=".15">
     <path d="m380.786 263.501c-2.589 0-5.107-1.342-6.497-3.743-2.076-3.585-0.853-8.173 2.732-10.248l70.678-40.919c3.583-2.077 8.174-0.852 10.248 2.732 2.076 3.585 0.853 8.173-2.732 10.248l-70.678 40.919c-1.183 0.686-2.476 1.011-3.751 1.011z"/>
     <path d="m462.401 263.5h-81.622c-4.143 0-7.5-3.357-7.5-7.5s3.357-7.5 7.5-7.5h81.622c4.143 0 7.5 3.357 7.5 7.5s-3.357 7.5-7.5 7.5z"/>
     <path d="m451.45 304.42c-1.275 0-2.567-0.325-3.751-1.011l-70.678-40.919c-3.585-2.075-4.809-6.663-2.732-10.248 2.074-3.584 6.662-4.81 10.248-2.732l70.678 40.919c3.585 2.075 4.809 6.663 2.732 10.248-1.389 2.401-3.908 3.743-6.497 3.743z"/>
    </g>
    <path d="m1028.6384 261.63274c-0.3274 3.30787-2.6477 6.07762-5.8471 6.97937-7.8824 2.22155-7.8441 13.43931 0.063 15.56941 10.8003 2.90923 23.827 2.11801 34.6773-8.73227s11.6417-23.87685 8.7323-34.67727c-2.1303-7.90769-13.3479-7.94582-15.5695-0.0634-0.9017 3.19937-3.6715 5.51971-6.9793 5.84706-7.977 0.78939-14.2876 7.09996-15.0771 15.07712z" fill="#0079d0" stroke-width=".25919953"/>
    <path d="m1028.6384 261.63274c-0.3274 3.30787-2.6477 6.07762-5.8471 6.97937-7.8824 2.22155-7.8441 13.43931 0.063 15.56941 10.8003 2.90923 23.827 2.11801 34.6773-8.73227s11.6417-23.87685 8.7323-34.67727c-2.1303-7.90769-13.3479-7.94582-15.5695-0.0634-0.9017 3.19937-3.6715 5.51971-6.9793 5.84706-7.977 0.78939-14.2876 7.09996-15.0771 15.07712z" enable-background="new" fill="#64dd17" stroke-width=".25919953"/>
    <g transform="matrix(.18328174 .18328174 -.18328174 .18328174 1080.4017 204.47871)" opacity=".15">
     <path d="m131.214 263.501c-1.275 0-2.567-0.325-3.751-1.011l-70.678-40.919c-3.585-2.075-4.809-6.663-2.733-10.248 2.074-3.584 6.662-4.809 10.248-2.732l70.678 40.919c3.585 2.075 4.809 6.663 2.732 10.248-1.389 2.401-3.907 3.743-6.496 3.743z"/>
     <path d="m131.221 263.5h-81.622c-4.143 0-7.5-3.357-7.5-7.5s3.357-7.5 7.5-7.5h81.622c4.143 0 7.5 3.357 7.5 7.5s-3.358 7.5-7.5 7.5z"/>
     <path d="m60.55 304.42c-2.589 0-5.107-1.342-6.497-3.743-2.076-3.585-0.852-8.173 2.733-10.248l70.678-40.919c3.583-2.078 8.174-0.853 10.248 2.732 2.076 3.585 0.853 8.173-2.732 10.248l-70.678 40.919c-1.184 0.686-2.477 1.011-3.752 1.011z"/>
    </g>
    <circle transform="rotate(45)" cx="974.90271" cy="-553.01599" r="36.619709" fill="#64dd17" stroke-width=".25919953"/>
    <path d="m1106.2956 272.4251c-14.3008-14.30074-37.487-14.30074-51.7878 0-0.1314 0.13141-0.2588 0.26503-0.388 0.3979h52.5638c-0.1292-0.13287-0.2566-0.26649-0.388-0.3979zm9.4588 16.32197h-70.7054c-1.5606 5.78529-1.677 11.87813-0.3535 17.71033h71.4124c1.3233-5.83239 1.2071-11.92504-0.3535-17.71033zm-7.7499 33.63403h-55.2056c0.5456 0.62481 1.1136 1.23642 1.7089 1.83172 14.3008 14.30074 37.487 14.30074 51.7878 0 0.5951-0.59511 1.1631-1.20709 1.7089-1.83172z" fill="#ffd42a" fill-opacity=".94117647" stroke-width=".25919953"/>
   </g>
   <g transform="translate(0,2.8818809)">
    <g transform="matrix(.4166666 0 0 .41666666 -466.02949 311.97041)">
     <path d="m1117.0879 350.08231c-3.3078 0.32734-6.0776 2.64768-6.9793 5.84705-2.2216 7.8824-13.4394 7.84409-15.5695-0.0634-2.9092-10.80024-2.118-23.82699 8.7323-34.67727s23.8769-11.64169 34.6773-8.73227c7.9077 2.13028 7.9458 13.34786 0.063 15.56942-3.1994 0.90174-5.5197 3.67149-5.8471 6.97936-0.7893 7.97697-7.0999 14.28755-15.0771 15.07713z" fill="#0079d0" stroke-width=".25919953"/>
     <path d="m1117.0879 350.08231c-3.3078 0.32734-6.0776 2.64768-6.9793 5.84705-2.2216 7.8824-13.4394 7.84409-15.5695-0.0634-2.9092-10.80024-2.118-23.82699 8.7323-34.67727s23.8769-11.64169 34.6773-8.73227c7.9077 2.13028 7.9458 13.34786 0.063 15.56942-3.1994 0.90174-5.5197 3.67149-5.8471 6.97936-0.7893 7.97697-7.0999 14.28755-15.0771 15.07713z" enable-background="new" fill="#64dd17" stroke-width=".25919953"/>
     <g transform="matrix(.18328174 .18328174 -.18328174 .18328174 1080.4017 204.47871)" opacity=".15">
      <path d="m380.786 263.501c-2.589 0-5.107-1.342-6.497-3.743-2.076-3.585-0.853-8.173 2.732-10.248l70.678-40.919c3.583-2.077 8.174-0.852 10.248 2.732 2.076 3.585 0.853 8.173-2.732 10.248l-70.678 40.919c-1.183 0.686-2.476 1.011-3.751 1.011z"/>
      <path d="m462.401 263.5h-81.622c-4.143 0-7.5-3.357-7.5-7.5s3.357-7.5 7.5-7.5h81.622c4.143 0 7.5 3.357 7.5 7.5s-3.357 7.5-7.5 7.5z"/>
      <path d="m451.45 304.42c-1.275 0-2.567-0.325-3.751-1.011l-70.678-40.919c-3.585-2.075-4.809-6.663-2.732-10.248 2.074-3.584 6.662-4.81 10.248-2.732l70.678 40.919c3.585 2.075 4.809 6.663 2.732 10.248-1.389 2.401-3.908 3.743-6.497 3.743z"/>
     </g>
     <path d="m1028.6384 261.63274c-0.3274 3.30787-2.6477 6.07762-5.8471 6.97937-7.8824 2.22155-7.8441 13.43931 0.063 15.56941 10.8003 2.90923 23.827 2.11801 34.6773-8.73227s11.6417-23.87685 8.7323-34.67727c-2.1303-7.90769-13.3479-7.94582-15.5695-0.0634-0.9017 3.19937-3.6715 5.51971-6.9793 5.84706-7.977 0.78939-14.2876 7.09996-15.0771 15.07712z" fill="#0079d0" stroke-width=".25919953"/>
     <path d="m1028.6384 261.63274c-0.3274 3.30787-2.6477 6.07762-5.8471 6.97937-7.8824 2.22155-7.8441 13.43931 0.063 15.56941 10.8003 2.90923 23.827 2.11801 34.6773-8.73227s11.6417-23.87685 8.7323-34.67727c-2.1303-7.90769-13.3479-7.94582-15.5695-0.0634-0.9017 3.19937-3.6715 5.51971-6.9793 5.84706-7.977 0.78939-14.2876 7.09996-15.0771 15.07712z" enable-background="new" fill="#64dd17" stroke-width=".25919953"/>
     <g transform="matrix(.18328174 .18328174 -.18328174 .18328174 1080.4017 204.47871)" opacity=".15">
      <path d="m131.214 263.501c-1.275 0-2.567-0.325-3.751-1.011l-70.678-40.919c-3.585-2.075-4.809-6.663-2.733-10.248 2.074-3.584 6.662-4.809 10.248-2.732l70.678 40.919c3.585 2.075 4.809 6.663 2.732 10.248-1.389 2.401-3.907 3.743-6.496 3.743z"/>
      <path d="m131.221 263.5h-81.622c-4.143 0-7.5-3.357-7.5-7.5s3.357-7.5 7.5-7.5h81.622c4.143 0 7.5 3.357 7.5 7.5s-3.358 7.5-7.5 7.5z"/>
      <path d="m60.55 304.42c-2.589 0-5.107-1.342-6.497-3.743-2.076-3.585-0.852-8.173 2.733-10.248l70.678-40.919c3.583-2.078 8.174-0.853 10.248 2.732 2.076 3.585 0.853 8.173-2.732 10.248l-70.678 40.919c-1.184 0.686-2.477 1.011-3.752 1.011z"/>
     </g>
     <circle transform="rotate(45)" cx="974.90271" cy="-553.01599" r="36.619709" fill="#64dd17" stroke-width=".25919953"/>
     <path d="m1106.2956 272.4251c-14.3008-14.30074-37.487-14.30074-51.7878 0-0.1314 0.13141-0.2588 0.26503-0.388 0.3979h52.5638c-0.1292-0.13287-0.2566-0.26649-0.388-0.3979zm9.4588 16.32197h-70.7054c-1.5606 5.78529-1.677 11.87813-0.3535 17.71033h71.4124c1.3233-5.83239 1.2071-11.92504-0.3535-17.71033zm-7.7499 33.63403h-55.2056c0.5456 0.62481 1.1136 1.23642 1.7089 1.83172 14.3008 14.30074 37.487 14.30074 51.7878 0 0.5951-0.59511 1.1631-1.20709 1.7089-1.83172z" fill="#ffd42a" fill-opacity=".94117647" stroke-width=".25919953"/>
    </g>
    <g transform="matrix(.4166666 0 0 .41666666 -251.717 311.97041)">
     <path d="m1117.0879 350.08231c-3.3078 0.32734-6.0776 2.64768-6.9793 5.84705-2.2216 7.8824-13.4394 7.84409-15.5695-0.0634-2.9092-10.80024-2.118-23.82699 8.7323-34.67727s23.8769-11.64169 34.6773-8.73227c7.9077 2.13028 7.9458 13.34786 0.063 15.56942-3.1994 0.90174-5.5197 3.67149-5.8471 6.97936-0.7893 7.97697-7.0999 14.28755-15.0771 15.07713z" fill="#0079d0" stroke-width=".25919953"/>
     <path d="m1117.0879 350.08231c-3.3078 0.32734-6.0776 2.64768-6.9793 5.84705-2.2216 7.8824-13.4394 7.84409-15.5695-0.0634-2.9092-10.80024-2.118-23.82699 8.7323-34.67727s23.8769-11.64169 34.6773-8.73227c7.9077 2.13028 7.9458 13.34786 0.063 15.56942-3.1994 0.90174-5.5197 3.67149-5.8471 6.97936-0.7893 7.97697-7.0999 14.28755-15.0771 15.07713z" enable-background="new" fill="#64dd17" stroke-width=".25919953"/>
     <g transform="matrix(.18328174 .18328174 -.18328174 .18328174 1080.4017 204.47871)" opacity=".15">
      <path d="m380.786 263.501c-2.589 0-5.107-1.342-6.497-3.743-2.076-3.585-0.853-8.173 2.732-10.248l70.678-40.919c3.583-2.077 8.174-0.852 10.248 2.732 2.076 3.585 0.853 8.173-2.732 10.248l-70.678 40.919c-1.183 0.686-2.476 1.011-3.751 1.011z"/>
      <path d="m462.401 263.5h-81.622c-4.143 0-7.5-3.357-7.5-7.5s3.357-7.5 7.5-7.5h81.622c4.143 0 7.5 3.357 7.5 7.5s-3.357 7.5-7.5 7.5z"/>
      <path d="m451.45 304.42c-1.275 0-2.567-0.325-3.751-1.011l-70.678-40.919c-3.585-2.075-4.809-6.663-2.732-10.248 2.074-3.584 6.662-4.81 10.248-2.732l70.678 40.919c3.585 2.075 4.809 6.663 2.732 10.248-1.389 2.401-3.908 3.743-6.497 3.743z"/>
     </g>
     <path d="m1028.6384 261.63274c-0.3274 3.30787-2.6477 6.07762-5.8471 6.97937-7.8824 2.22155-7.8441 13.43931 0.063 15.56941 10.8003 2.90923 23.827 2.11801 34.6773-8.73227s11.6417-23.87685 8.7323-34.67727c-2.1303-7.90769-13.3479-7.94582-15.5695-0.0634-0.9017 3.19937-3.6715 5.51971-6.9793 5.84706-7.977 0.78939-14.2876 7.09996-15.0771 15.07712z" fill="#0079d0" stroke-width=".25919953"/>
     <path d="m1028.6384 261.63274c-0.3274 3.30787-2.6477 6.07762-5.8471 6.97937-7.8824 2.22155-7.8441 13.43931 0.063 15.56941 10.8003 2.90923 23.827 2.11801 34.6773-8.73227s11.6417-23.87685 8.7323-34.67727c-2.1303-7.90769-13.3479-7.94582-15.5695-0.0634-0.9017 3.19937-3.6715 5.51971-6.9793 5.84706-7.977 0.78939-14.2876 7.09996-15.0771 15.07712z" enable-background="new" fill="#64dd17" stroke-width=".25919953"/>
     <g transform="matrix(.18328174 .18328174 -.18328174 .18328174 1080.4017 204.47871)" opacity=".15">
      <path d="m131.214 263.501c-1.275 0-2.567-0.325-3.751-1.011l-70.678-40.919c-3.585-2.075-4.809-6.663-2.733-10.248 2.074-3.584 6.662-4.809 10.248-2.732l70.678 40.919c3.585 2.075 4.809 6.663 2.732 10.248-1.389 2.401-3.907 3.743-6.496 3.743z"/>
      <path d="m131.221 263.5h-81.622c-4.143 0-7.5-3.357-7.5-7.5s3.357-7.5 7.5-7.5h81.622c4.143 0 7.5 3.357 7.5 7.5s-3.358 7.5-7.5 7.5z"/>
      <path d="m60.55 304.42c-2.589 0-5.107-1.342-6.497-3.743-2.076-3.585-0.852-8.173 2.733-10.248l70.678-40.919c3.583-2.078 8.174-0.853 10.248 2.732 2.076 3.585 0.853 8.173-2.732 10.248l-70.678 40.919c-1.184 0.686-2.477 1.011-3.752 1.011z"/>
     </g>
     <circle transform="rotate(45)" cx="974.90271" cy="-553.01599" r="36.619709" fill="#64dd17" stroke-width=".25919953"/>
     <path d="m1106.2956 272.4251c-14.3008-14.30074-37.487-14.30074-51.7878 0-0.1314 0.13141-0.2588 0.26503-0.388 0.3979h52.5638c-0.1292-0.13287-0.2566-0.26649-0.388-0.3979zm9.4588 16.32197h-70.7054c-1.5606 5.78529-1.677 11.87813-0.3535 17.71033h71.4124c1.3233-5.83239 1.2071-11.92504-0.3535-17.71033zm-7.7499 33.63403h-55.2056c0.5456 0.62481 1.1136 1.23642 1.7089 1.83172 14.3008 14.30074 37.487 14.30074 51.7878 0 0.5951-0.59511 1.1631-1.20709 1.7089-1.83172z" fill="#ffd42a" fill-opacity=".94117647" stroke-width=".25919953"/>
    </g>
    <g transform="matrix(.4166666 0 0 .41666666 -305.29513 311.97041)">
     <path d="m1117.0879 350.08231c-3.3078 0.32734-6.0776 2.64768-6.9793 5.84705-2.2216 7.8824-13.4394 7.84409-15.5695-0.0634-2.9092-10.80024-2.118-23.82699 8.7323-34.67727s23.8769-11.64169 34.6773-8.73227c7.9077 2.13028 7.9458 13.34786 0.063 15.56942-3.1994 0.90174-5.5197 3.67149-5.8471 6.97936-0.7893 7.97697-7.0999 14.28755-15.0771 15.07713z" fill="#0079d0" stroke-width=".25919953"/>
     <path d="m1117.0879 350.08231c-3.3078 0.32734-6.0776 2.64768-6.9793 5.84705-2.2216 7.8824-13.4394 7.84409-15.5695-0.0634-2.9092-10.80024-2.118-23.82699 8.7323-34.67727s23.8769-11.64169 34.6773-8.73227c7.9077 2.13028 7.9458 13.34786 0.063 15.56942-3.1994 0.90174-5.5197 3.67149-5.8471 6.97936-0.7893 7.97697-7.0999 14.28755-15.0771 15.07713z" enable-background="new" fill="#64dd17" stroke-width=".25919953"/>
     <g transform="matrix(.18328174 .18328174 -.18328174 .18328174 1080.4017 204.47871)" opacity=".15">
      <path d="m380.786 263.501c-2.589 0-5.107-1.342-6.497-3.743-2.076-3.585-0.853-8.173 2.732-10.248l70.678-40.919c3.583-2.077 8.174-0.852 10.248 2.732 2.076 3.585 0.853 8.173-2.732 10.248l-70.678 40.919c-1.183 0.686-2.476 1.011-3.751 1.011z"/>
      <path d="m462.401 263.5h-81.622c-4.143 0-7.5-3.357-7.5-7.5s3.357-7.5 7.5-7.5h81.622c4.143 0 7.5 3.357 7.5 7.5s-3.357 7.5-7.5 7.5z"/>
      <path d="m451.45 304.42c-1.275 0-2.567-0.325-3.751-1.011l-70.678-40.919c-3.585-2.075-4.809-6.663-2.732-10.248 2.074-3.584 6.662-4.81 10.248-2.732l70.678 40.919c3.585 2.075 4.809 6.663 2.732 10.248-1.389 2.401-3.908 3.743-6.497 3.743z"/>
     </g>
     <path d="m1028.6384 261.63274c-0.3274 3.30787-2.6477 6.07762-5.8471 6.97937-7.8824 2.22155-7.8441 13.43931 0.063 15.56941 10.8003 2.90923 23.827 2.11801 34.6773-8.73227s11.6417-23.87685 8.7323-34.67727c-2.1303-7.90769-13.3479-7.94582-15.5695-0.0634-0.9017 3.19937-3.6715 5.51971-6.9793 5.84706-7.977 0.78939-14.2876 7.09996-15.0771 15.07712z" fill="#0079d0" stroke-width=".25919953"/>
     <path d="m1028.6384 261.63274c-0.3274 3.30787-2.6477 6.07762-5.8471 6.97937-7.8824 2.22155-7.8441 13.43931 0.063 15.56941 10.8003 2.90923 23.827 2.11801 34.6773-8.73227s11.6417-23.87685 8.7323-34.67727c-2.1303-7.90769-13.3479-7.94582-15.5695-0.0634-0.9017 3.19937-3.6715 5.51971-6.9793 5.84706-7.977 0.78939-14.2876 7.09996-15.0771 15.07712z" enable-background="new" fill="#64dd17" stroke-width=".25919953"/>
     <g transform="matrix(.18328174 .18328174 -.18328174 .18328174 1080.4017 204.47871)" opacity=".15">
      <path d="m131.214 263.501c-1.275 0-2.567-0.325-3.751-1.011l-70.678-40.919c-3.585-2.075-4.809-6.663-2.733-10.248 2.074-3.584 6.662-4.809 10.248-2.732l70.678 40.919c3.585 2.075 4.809 6.663 2.732 10.248-1.389 2.401-3.907 3.743-6.496 3.743z"/>
      <path d="m131.221 263.5h-81.622c-4.143 0-7.5-3.357-7.5-7.5s3.357-7.5 7.5-7.5h81.622c4.143 0 7.5 3.357 7.5 7.5s-3.358 7.5-7.5 7.5z"/>
      <path d="m60.55 304.42c-2.589 0-5.107-1.342-6.497-3.743-2.076-3.585-0.852-8.173 2.733-10.248l70.678-40.919c3.583-2.078 8.174-0.853 10.248 2.732 2.076 3.585 0.853 8.173-2.732 10.248l-70.678 40.919c-1.184 0.686-2.477 1.011-3.752 1.011z"/>
     </g>
     <circle transform="rotate(45)" cx="974.90271" cy="-553.01599" r="36.619709" fill="#64dd17" stroke-width=".25919953"/>
     <path d="m1106.2956 272.4251c-14.3008-14.30074-37.487-14.30074-51.7878 0-0.1314 0.13141-0.2588 0.26503-0.388 0.3979h52.5638c-0.1292-0.13287-0.2566-0.26649-0.388-0.3979zm9.4588 16.32197h-70.7054c-1.5606 5.78529-1.677 11.87813-0.3535 17.71033h71.4124c1.3233-5.83239 1.2071-11.92504-0.3535-17.71033zm-7.7499 33.63403h-55.2056c0.5456 0.62481 1.1136 1.23642 1.7089 1.83172 14.3008 14.30074 37.487 14.30074 51.7878 0 0.5951-0.59511 1.1631-1.20709 1.7089-1.83172z" fill="#ffd42a" fill-opacity=".94117647" stroke-width=".25919953"/>
    </g>
    <g transform="matrix(.4166666 0 0 .41666666 -358.87325 311.97041)">
     <path d="m1117.0879 350.08231c-3.3078 0.32734-6.0776 2.64768-6.9793 5.84705-2.2216 7.8824-13.4394 7.84409-15.5695-0.0634-2.9092-10.80024-2.118-23.82699 8.7323-34.67727s23.8769-11.64169 34.6773-8.73227c7.9077 2.13028 7.9458 13.34786 0.063 15.56942-3.1994 0.90174-5.5197 3.67149-5.8471 6.97936-0.7893 7.97697-7.0999 14.28755-15.0771 15.07713z" fill="#0079d0" stroke-width=".25919953"/>
     <path d="m1117.0879 350.08231c-3.3078 0.32734-6.0776 2.64768-6.9793 5.84705-2.2216 7.8824-13.4394 7.84409-15.5695-0.0634-2.9092-10.80024-2.118-23.82699 8.7323-34.67727s23.8769-11.64169 34.6773-8.73227c7.9077 2.13028 7.9458 13.34786 0.063 15.56942-3.1994 0.90174-5.5197 3.67149-5.8471 6.97936-0.7893 7.97697-7.0999 14.28755-15.0771 15.07713z" enable-background="new" fill="#64dd17" stroke-width=".25919953"/>
     <g transform="matrix(.18328174 .18328174 -.18328174 .18328174 1080.4017 204.47871)" opacity=".15">
      <path d="m380.786 263.501c-2.589 0-5.107-1.342-6.497-3.743-2.076-3.585-0.853-8.173 2.732-10.248l70.678-40.919c3.583-2.077 8.174-0.852 10.248 2.732 2.076 3.585 0.853 8.173-2.732 10.248l-70.678 40.919c-1.183 0.686-2.476 1.011-3.751 1.011z"/>
      <path d="m462.401 263.5h-81.622c-4.143 0-7.5-3.357-7.5-7.5s3.357-7.5 7.5-7.5h81.622c4.143 0 7.5 3.357 7.5 7.5s-3.357 7.5-7.5 7.5z"/>
      <path d="m451.45 304.42c-1.275 0-2.567-0.325-3.751-1.011l-70.678-40.919c-3.585-2.075-4.809-6.663-2.732-10.248 2.074-3.584 6.662-4.81 10.248-2.732l70.678 40.919c3.585 2.075 4.809 6.663 2.732 10.248-1.389 2.401-3.908 3.743-6.497 3.743z"/>
     </g>
     <path d="m1028.6384 261.63274c-0.3274 3.30787-2.6477 6.07762-5.8471 6.97937-7.8824 2.22155-7.8441 13.43931 0.063 15.56941 10.8003 2.90923 23.827 2.11801 34.6773-8.73227s11.6417-23.87685 8.7323-34.67727c-2.1303-7.90769-13.3479-7.94582-15.5695-0.0634-0.9017 3.19937-3.6715 5.51971-6.9793 5.84706-7.977 0.78939-14.2876 7.09996-15.0771 15.07712z" fill="#0079d0" stroke-width=".25919953"/>
     <path d="m1028.6384 261.63274c-0.3274 3.30787-2.6477 6.07762-5.8471 6.97937-7.8824 2.22155-7.8441 13.43931 0.063 15.56941 10.8003 2.90923 23.827 2.11801 34.6773-8.73227s11.6417-23.87685 8.7323-34.67727c-2.1303-7.90769-13.3479-7.94582-15.5695-0.0634-0.9017 3.19937-3.6715 5.51971-6.9793 5.84706-7.977 0.78939-14.2876 7.09996-15.0771 15.07712z" enable-background="new" fill="#64dd17" stroke-width=".25919953"/>
     <g transform="matrix(.18328174 .18328174 -.18328174 .18328174 1080.4017 204.47871)" opacity=".15">
      <path d="m131.214 263.501c-1.275 0-2.567-0.325-3.751-1.011l-70.678-40.919c-3.585-2.075-4.809-6.663-2.733-10.248 2.074-3.584 6.662-4.809 10.248-2.732l70.678 40.919c3.585 2.075 4.809 6.663 2.732 10.248-1.389 2.401-3.907 3.743-6.496 3.743z"/>
      <path d="m131.221 263.5h-81.622c-4.143 0-7.5-3.357-7.5-7.5s3.357-7.5 7.5-7.5h81.622c4.143 0 7.5 3.357 7.5 7.5s-3.358 7.5-7.5 7.5z"/>
      <path d="m60.55 304.42c-2.589 0-5.107-1.342-6.497-3.743-2.076-3.585-0.852-8.173 2.733-10.248l70.678-40.919c3.583-2.078 8.174-0.853 10.248 2.732 2.076 3.585 0.853 8.173-2.732 10.248l-70.678 40.919c-1.184 0.686-2.477 1.011-3.752 1.011z"/>
     </g>
     <circle transform="rotate(45)" cx="974.90271" cy="-553.01599" r="36.619709" fill="#64dd17" stroke-width=".25919953"/>
     <path d="m1106.2956 272.4251c-14.3008-14.30074-37.487-14.30074-51.7878 0-0.1314 0.13141-0.2588 0.26503-0.388 0.3979h52.5638c-0.1292-0.13287-0.2566-0.26649-0.388-0.3979zm9.4588 16.32197h-70.7054c-1.5606 5.78529-1.677 11.87813-0.3535 17.71033h71.4124c1.3233-5.83239 1.2071-11.92504-0.3535-17.71033zm-7.7499 33.63403h-55.2056c0.5456 0.62481 1.1136 1.23642 1.7089 1.83172 14.3008 14.30074 37.487 14.30074 51.7878 0 0.5951-0.59511 1.1631-1.20709 1.7089-1.83172z" fill="#ffd42a" fill-opacity=".94117647" stroke-width=".25919953"/>
    </g>
    <g transform="matrix(.4166666 0 0 .41666666 -412.45137 311.97041)">
     <path d="m1117.0879 350.08231c-3.3078 0.32734-6.0776 2.64768-6.9793 5.84705-2.2216 7.8824-13.4394 7.84409-15.5695-0.0634-2.9092-10.80024-2.118-23.82699 8.7323-34.67727s23.8769-11.64169 34.6773-8.73227c7.9077 2.13028 7.9458 13.34786 0.063 15.56942-3.1994 0.90174-5.5197 3.67149-5.8471 6.97936-0.7893 7.97697-7.0999 14.28755-15.0771 15.07713z" fill="#0079d0" stroke-width=".25919953"/>
     <path d="m1117.0879 350.08231c-3.3078 0.32734-6.0776 2.64768-6.9793 5.84705-2.2216 7.8824-13.4394 7.84409-15.5695-0.0634-2.9092-10.80024-2.118-23.82699 8.7323-34.67727s23.8769-11.64169 34.6773-8.73227c7.9077 2.13028 7.9458 13.34786 0.063 15.56942-3.1994 0.90174-5.5197 3.67149-5.8471 6.97936-0.7893 7.97697-7.0999 14.28755-15.0771 15.07713z" enable-background="new" fill="#64dd17" stroke-width=".25919953"/>
     <g transform="matrix(.18328174 .18328174 -.18328174 .18328174 1080.4017 204.47871)" opacity=".15">
      <path d="m380.786 263.501c-2.589 0-5.107-1.342-6.497-3.743-2.076-3.585-0.853-8.173 2.732-10.248l70.678-40.919c3.583-2.077 8.174-0.852 10.248 2.732 2.076 3.585 0.853 8.173-2.732 10.248l-70.678 40.919c-1.183 0.686-2.476 1.011-3.751 1.011z"/>
      <path d="m462.401 263.5h-81.622c-4.143 0-7.5-3.357-7.5-7.5s3.357-7.5 7.5-7.5h81.622c4.143 0 7.5 3.357 7.5 7.5s-3.357 7.5-7.5 7.5z"/>
      <path d="m451.45 304.42c-1.275 0-2.567-0.325-3.751-1.011l-70.678-40.919c-3.585-2.075-4.809-6.663-2.732-10.248 2.074-3.584 6.662-4.81 10.248-2.732l70.678 40.919c3.585 2.075 4.809 6.663 2.732 10.248-1.389 2.401-3.908 3.743-6.497 3.743z"/>
     </g>
     <path d="m1028.6384 261.63274c-0.3274 3.30787-2.6477 6.07762-5.8471 6.97937-7.8824 2.22155-7.8441 13.43931 0.063 15.56941 10.8003 2.90923 23.827 2.11801 34.6773-8.73227s11.6417-23.87685 8.7323-34.67727c-2.1303-7.90769-13.3479-7.94582-15.5695-0.0634-0.9017 3.19937-3.6715 5.51971-6.9793 5.84706-7.977 0.78939-14.2876 7.09996-15.0771 15.07712z" fill="#0079d0" stroke-width=".25919953"/>
     <path d="m1028.6384 261.63274c-0.3274 3.30787-2.6477 6.07762-5.8471 6.97937-7.8824 2.22155-7.8441 13.43931 0.063 15.56941 10.8003 2.90923 23.827 2.11801 34.6773-8.73227s11.6417-23.87685 8.7323-34.67727c-2.1303-7.90769-13.3479-7.94582-15.5695-0.0634-0.9017 3.19937-3.6715 5.51971-6.9793 5.84706-7.977 0.78939-14.2876 7.09996-15.0771 15.07712z" enable-background="new" fill="#64dd17" stroke-width=".25919953"/>
     <g transform="matrix(.18328174 .18328174 -.18328174 .18328174 1080.4017 204.47871)" opacity=".15">
      <path d="m131.214 263.501c-1.275 0-2.567-0.325-3.751-1.011l-70.678-40.919c-3.585-2.075-4.809-6.663-2.733-10.248 2.074-3.584 6.662-4.809 10.248-2.732l70.678 40.919c3.585 2.075 4.809 6.663 2.732 10.248-1.389 2.401-3.907 3.743-6.496 3.743z"/>
      <path d="m131.221 263.5h-81.622c-4.143 0-7.5-3.357-7.5-7.5s3.357-7.5 7.5-7.5h81.622c4.143 0 7.5 3.357 7.5 7.5s-3.358 7.5-7.5 7.5z"/>
      <path d="m60.55 304.42c-2.589 0-5.107-1.342-6.497-3.743-2.076-3.585-0.852-8.173 2.733-10.248l70.678-40.919c3.583-2.078 8.174-0.853 10.248 2.732 2.076 3.585 0.853 8.173-2.732 10.248l-70.678 40.919c-1.184 0.686-2.477 1.011-3.752 1.011z"/>
     </g>
     <circle transform="rotate(45)" cx="974.90271" cy="-553.01599" r="36.619709" fill="#64dd17" stroke-width=".25919953"/>
     <path d="m1106.2956 272.4251c-14.3008-14.30074-37.487-14.30074-51.7878 0-0.1314 0.13141-0.2588 0.26503-0.388 0.3979h52.5638c-0.1292-0.13287-0.2566-0.26649-0.388-0.3979zm9.4588 16.32197h-70.7054c-1.5606 5.78529-1.677 11.87813-0.3535 17.71033h71.4124c1.3233-5.83239 1.2071-11.92504-0.3535-17.71033zm-7.7499 33.63403h-55.2056c0.5456 0.62481 1.1136 1.23642 1.7089 1.83172 14.3008 14.30074 37.487 14.30074 51.7878 0 0.5951-0.59511 1.1631-1.20709 1.7089-1.83172z" fill="#ffd42a" fill-opacity=".94117647" stroke-width=".25919953"/>
    </g>
   </g>
  </g>
  <g fill="#2196f3" stroke="#fff" stroke-width="1.32291663">
   <g transform="translate(-1167.3283,238.85968)" style="font-feature-settings:normal;font-variant-caps:normal;font-variant-ligatures:normal;font-variant-numeric:normal" aria-label="1">
    <path d="m1160.2649-43.387707-4.4649 0.124024-1.2264 1.005968v4.230577l1.1024-0.509874 0.124 13.339409h4.8232z" fill="#2196f3" stroke="#fff" stroke-width="1.32291663" style="font-feature-settings:normal;font-variant-caps:normal;font-variant-ligatures:normal;font-variant-numeric:normal"/>
   </g>
   <g transform="translate(-1152.4943,237.35222)" style="font-feature-settings:normal;font-variant-caps:normal;font-variant-ligatures:normal;font-variant-numeric:normal" aria-label="2">
    <path d="m1201.0502-41.169313q-4.1479-2.52181-7.717-0.04134-1.7915 1.309136-3.1557 3.23839l2.7836 3.527777q0.3583-0.578776 1.006-1.074869 1.4331-1.43316 2.8801-1.129992 0.813 0.179145 0.6614 1.102431-0.124 0.785482-0.9232 2.053277-1.5021 2.356445-3.6656 3.789605-0.9371 0.799262-1.7364 1.405598l-0.3307 4.878256 11.2035 0.234266 0.014-4.671549-5.6637 0.261827q2.6872-2.480469 4.6027-5.40191 1.6812-2.54937 1.8741-4.478624 0.2618-2.411566-1.8328-3.693142z" fill="#2196f3" stroke="#fff" stroke-width="1.32291663" style="font-feature-settings:normal;font-variant-caps:normal;font-variant-ligatures:normal;font-variant-numeric:normal"/>
   </g>
   <g transform="translate(-1132.6537,237.07318)" style="font-feature-settings:normal;font-variant-caps:normal;font-variant-ligatures:normal;font-variant-numeric:normal" aria-label="3">
    <path d="m1224.1829-41.348458 0.1241 4.203017 5.3054-0.124024-4.4648 3.23839q1.2264-0.179145 2.4115 0.137804 2.3978 0.633897 2.3289 3.128146-0.083 2.50803-2.4115 2.466688-1.1714-0.02756-2.3289-0.551215l-1.0887 4.492405q1.9844 0.633897 4.3271 0.675238 4.6439 0.09646 6.3527-2.824978 2.3427-4.023871-0.041-6.807508-1.1989-1.391819-2.7423-2.122179l4.768-5.856662z" fill="#2196f3" stroke="#fff" stroke-width="1.32291663" style="font-feature-settings:normal;font-variant-caps:normal;font-variant-ligatures:normal;font-variant-numeric:normal"/>
   </g>
   <g transform="translate(-1114.1578,235.96571)" style="font-feature-settings:normal;font-variant-caps:normal;font-variant-ligatures:normal;font-variant-numeric:normal" aria-label="4">
    <path d="m1267.173-34.513513h-2.8801l0.124-6.173611-4.7542 0.137803v10.004557l7.2485 0.261828-0.5237 8.033962 4.9885 0.124024 0.3996-18.562174h-4.4786z" fill="#2196f3" stroke="#fff" stroke-width="1.32291663" style="font-feature-settings:normal;font-variant-caps:normal;font-variant-ligatures:normal;font-variant-numeric:normal"/>
   </g>
   <g transform="translate(-1096.4775,238.24532)" style="font-feature-settings:normal;font-variant-caps:normal;font-variant-ligatures:normal;font-variant-numeric:normal" aria-label="5">
    <path d="m1299.4831-38.523355 7.2347 0.303169 0.4272-4.065213-11.1759-0.427192 0.1791 8.516276q1.7088-0.35829 3.1833-0.220486 2.949 0.289388 3.0179 2.797417 0.083 2.52181-2.4805 2.86632-1.2816 0.179145-2.5907-0.151585l-0.248 4.161676q2.7285 0.330729 5.4294-0.35829 5.3882-1.350478 5.1263-6.380317-0.2342-5.029839-4.2168-6.035807-1.9706-0.633898-3.9136-0.124023z" fill="#2196f3" stroke="#fff" stroke-width="1.32291663" style="font-feature-settings:normal;font-variant-caps:normal;font-variant-ligatures:normal;font-variant-numeric:normal"/>
   </g>
   <g transform="translate(-1337.9712,299.3186)" style="font-feature-settings:normal;font-variant-caps:normal;font-variant-ligatures:normal;font-variant-numeric:normal" aria-label="6">
    <path d="m1329.0109-27.623323q-0.4823 0.04134-0.7441-0.248047-0.2343-0.248046-0.2343-0.647677 0-0.399632 0.193-0.71658 0.2067-0.330729 0.5374-0.385851 0.7855-0.137804 1.1713 0.137804 0.3445 0.234266 0.3032 0.675239-0.041 0.413411-0.3721 0.757921-0.3583 0.37207-0.8544 0.427191zm-0.3307-6.297634q-0.1653-0.578776 0.1654-1.061089 0.689-0.978407 3.2246-0.537435l0.7304-4.285699q-0.6339-0.316949-1.7639-0.399631-2.2738-0.137804-4.7543 1.07487-1.2953 0.633897-2.4667 3.017903-1.1989 2.466689-1.4193 5.140083-0.2343 3.073025 1.0335 5.126302 1.4883 2.425347 4.8645 2.962782 2.9214 0.468533 4.892-1.157552 1.7777-1.460721 1.9844-3.844727 0.2067-2.397786-1.3643-4.092773-1.7777-1.915473-5.1263-1.943034z" fill="#2196f3" stroke="#fff" stroke-width="1.32291663" style="font-feature-settings:normal;font-variant-caps:normal;font-variant-ligatures:normal;font-variant-numeric:normal"/>
   </g>
   <g transform="translate(-1314.2587,297.30053)" style="font-feature-settings:normal;font-variant-caps:normal;font-variant-ligatures:normal;font-variant-numeric:normal" aria-label="7">
    <path d="m1352.7918-32.804996 4.4787-0.124023-4.1204 11.685763 5.5397 0.468533 6.0221-17.445963-12.1543 0.124024z" fill="#2196f3" stroke="#fff" stroke-width="1.32291663" style="font-feature-settings:normal;font-variant-caps:normal;font-variant-ligatures:normal;font-variant-numeric:normal"/>
   </g>
   <g transform="translate(-1295.0839,297.30675)" style="font-feature-settings:normal;font-variant-caps:normal;font-variant-ligatures:normal;font-variant-numeric:normal" aria-label="8">
    <path d="m1393.963-25.942366q-0.4547 0-0.7441-0.261827-0.248-0.220486-0.2894-0.564996-0.027-0.330729 0.1929-0.551215 0.2205-0.261827 0.6753-0.275607 0.6201-0.01378 0.9508 0.248046 0.2756 0.220486 0.2618 0.564996-0.014 0.330729-0.2893 0.578776-0.3032 0.261827-0.758 0.261827zm-0.5512-9.03993q0.441-0.09646 0.7028 0.0689 0.2343 0.165365 0.2481 0.468533 0.014 0.303168-0.1792 0.509874-0.2342 0.261827-0.6339 0.261827-0.3996 0-0.6339-0.179145-0.2342-0.151584-0.248-0.38585-0.069-0.551216 0.7441-0.744141zm3.3349 3.748264q1.0197-1.915473 1.1575-3.872287 0.317-3.899848-4.079-4.065213-1.695-0.0689-2.9765 0.840603-1.1714 0.826823-1.6812 2.204861-0.4823 1.364258-0.1378 2.673394 0.372 1.405599 1.5985 2.218642-1.1162 0.895725-2.0671 2.218641-1.9154 2.632053-1.1575 4.781793 0.6614 1.887912 2.2324 3.073025 1.4745 1.08865 3.3486 1.309136 1.8466 0.220486 3.514-0.496094 1.7639-0.771701 2.7699-2.397786 1.8052-2.907661-0.1792-5.994466-0.9921-1.543403-2.3426-2.494249z" fill="#2196f3" stroke="#fff" stroke-width="1.32291663" style="font-feature-settings:normal;font-variant-caps:normal;font-variant-ligatures:normal;font-variant-numeric:normal"/>
   </g>
   <g transform="translate(-1277.8497,297.16716)" style="font-feature-settings:normal;font-variant-caps:normal;font-variant-ligatures:normal;font-variant-numeric:normal" aria-label="9">
    <path d="m1429.9663-31.220252q-0.7855 0.124024-1.1714-0.137804-0.3445-0.234266-0.3031-0.675238 0.027-0.413412 0.372-0.771702 0.3583-0.35829 0.8544-0.413411 0.4823-0.04134 0.7441 0.248047 0.2343 0.234266 0.2343 0.647678 0 0.38585-0.1929 0.702799-0.2205 0.34451-0.5374 0.399631zm0.4685-6.752387q-2.9215-0.468533-4.892 1.157552-1.7777 1.474501-1.9844 3.844727-0.2067 2.411566 1.3642 4.106553 1.7777 1.915473 5.1263 1.943034 0.1654 0.564996-0.1653 1.06109-0.689 0.978407-3.2246 0.523654l-0.7304 4.299479q0.6339 0.316949 1.7639 0.399631 2.2738 0.137804 4.7542-1.07487 1.2954-0.633897 2.4667-3.017903 1.1989-2.466688 1.4056-5.140082 0.2481-3.086806-1.0197-5.140083-1.4883-2.411567-4.8645-2.962782z" fill="#2196f3" stroke="#fff" stroke-width="1.32291663" style="font-feature-settings:normal;font-variant-caps:normal;font-variant-ligatures:normal;font-variant-numeric:normal"/>
   </g>
   <g transform="translate(-1258.7937,293.89468)" style="font-feature-settings:normal;font-variant-caps:normal;font-variant-ligatures:normal;font-variant-numeric:normal" aria-label="10">
    <path d="m1460.0862-34.955233-4.4649 0.124024-1.2264 1.005968v4.230577l1.1024-0.509874 0.124 13.339409h4.8232z" style="font-feature-settings:normal;font-variant-caps:normal;font-variant-ligatures:normal;font-variant-numeric:normal"/>
    <path d="m1468.1477-23.090324q-0.441 0.08268-0.7028-0.647678-0.2343-0.661458-0.248-1.681206-0.014-1.005968 0.1929-1.694987 0.2343-0.771702 0.6339-0.71658 0.7441 0.08268 1.0886 0.799262 0.3032 0.633897 0.2343 1.570963-0.069 0.868164-0.3996 1.557183-0.3445 0.71658-0.7993 0.813043zm-0.8682-12.471245q-2.0119 0.124023-3.8033 2.935221-1.7226 2.728516-2.1911 6.228732-0.5099 3.803386 0.8544 6.380317 1.5985 3.004123 5.3881 3.389974 3.8034 0.399631 5.7877-2.549371 1.7502-2.604492 1.5021-6.683485-0.2343-3.98253-2.2049-6.793728-2.1497-3.073025-5.333-2.90766z" style="font-feature-settings:normal;font-variant-caps:normal;font-variant-ligatures:normal;font-variant-numeric:normal"/>
   </g>
  </g>
 </g>
</svg>
