<?xml version="1.0" encoding="UTF-8"?>
<!-- Created with Inkscape (http://www.inkscape.org/) -->
<svg width="156.64967mm" height="118.40874mm" version="1.1" viewBox="0 0 156.64967 118.40874" xmlns="http://www.w3.org/2000/svg" xmlns:cc="http://creativecommons.org/ns#" xmlns:dc="http://purl.org/dc/elements/1.1/" xmlns:rdf="http://www.w3.org/1999/02/22-rdf-syntax-ns#">
 <metadata>
  <rdf:RDF>
   <cc:Work rdf:about="">
    <dc:format>image/svg+xml</dc:format>
    <dc:type rdf:resource="http://purl.org/dc/dcmitype/StillImage"/>
    <dc:title/>
   </cc:Work>
  </rdf:RDF>
 </metadata>
 <g transform="translate(3.0930716e-8,-131.05263)">
  <g transform="matrix(.47465763 0 0 .47465763 -91.225418 126.22633)">
   <circle cx="300.42139" cy="86.365288" r="73.770676" fill="#303f9f"/>
   <circle cx="390.20807" cy="90.733292" r="60.666672" fill="#293688"/>
   <circle cx="256.74136" cy="153.34131" r="60.666672" fill="#3647b3"/>
   <circle cx="319.83469" cy="192.65332" r="66.976006" fill="#2b398f"/>
   <circle cx="455.24271" cy="141.69331" r="66.976006" fill="#3343aa"/>
   <circle cx="400.40002" cy="181.00533" r="66.976006" fill="#26327f"/>
   <g fill="#1e2864">
    <circle cx="254.80002" cy="175.66666" r="4.853334"/>
    <circle cx="354.53604" cy="51.178631" r="5.0960007"/>
    <circle cx="480.4801" cy="98.49865" r="10.677335"/>
    <circle cx="342.88806" cy="38.074631" r="4.1253338"/>
   </g>
   <circle cx="233.93071" cy="97.527969" r="14.074669" fill="#232f74"/>
   <g fill="#1e2864">
    <circle cx="446.02145" cy="204.78665" r="14.074669"/>
    <circle cx="504.50412" cy="103.59466" r="7.5226674"/>
    <circle cx="504.7468" cy="83.453323" r="5.8240004"/>
   </g>
   <circle cx="217.91472" cy="72.77597" r="7.2800012" fill="#232f74"/>
   <circle cx="197.28804" cy="86.607971" r="5.0960007" fill="#232f74"/>
   <g fill="#1e2864">
    <circle cx="366.91205" cy="21.815958" r="11.648002"/>
    <circle cx="432.18945" cy="236.09067" r="8.4933348"/>
    <circle cx="456.69882" cy="235.36266" r="6.3093343"/>
    <circle cx="271.54404" cy="210.85333" r="6.552001"/>
    <circle cx="247.7627" cy="206" r="11.890669"/>
   </g>
  </g>
  <g transform="matrix(.37490815 0 0 .37490815 42.561966 138.61677)">
   <circle cx="97.003204" cy="137.74101" r="58.153664" fill="#48a8f5"/>
   <path d="m79.940339 188.59572c-1.954286 0-3.54944 1.47868-3.734657 3.38274a58.153662 58.153662 0 0 0 20.797697 3.91604 58.153662 58.153662 0 0 0 21.842591 -4.29689c-0.34633-1.7169-1.85638-3.00189-3.67832-3.00189z" fill="#d5f6ff"/>
   <g fill="#00c853">
    <rect x="80.963219" y="145.91254" width="34.905609" height="17.569183" ry="4.9652119"/>
    <rect x="100.20446" y="90.208168" width="10.682139" height="15.7588" ry="2.5145962"/>
    <rect x="67.727173" y="100.30802" width="26.057491" height="7.2439075" ry="1.437889"/>
    <rect x="69.679863" y="105.88105" width="22.434528" height="7.1470795" ry="2.195821"/>
    <rect transform="rotate(-25.122818)" x="31.485405" y="137.94731" width="2.5076308" height="5.581501" ry="1.2538154"/>
    <rect x="71.314636" y="112.18976" width="2.5076308" height="5.581501" ry="1.2538154"/>
    <rect x="65.462219" y="92.54245" width="30.910969" height="8.1337128" ry="1.5236851"/>
    <rect x="74.63118" y="111.13817" width="10.273196" height="12.052805" ry="1.9232391"/>
    <rect x="74.63118" y="120.60245" width="15.207565" height="3.8018913" ry="1.532069"/>
    <rect x="87.735573" y="119.46998" width="2.1031742" height="2.9120874" ry=".64713019"/>
    <rect x="85.470612" y="123.35277" width="5.0961528" height="3.7210004" ry="1.0515887"/>
    <rect x="87.169327" y="125.94128" width="5.0961528" height="3.7210004" ry="1.0515887"/>
    <rect x="86.414093" y="128.36801" width="17.068039" height="10.583055" ry="2.9908681"/>
    <rect x="83.448326" y="135.91812" width="28.522623" height="13.422412" ry="3.7932961"/>
    <rect transform="rotate(90)" x="158.43939" y="-109.58331" width="19.617371" height="17.423323" ry="4.9239898"/>
    <rect x="92.095459" y="172.24899" width="10.002276" height="14.777557" ry="2.3580217"/>
    <rect transform="rotate(90)" x="85.596687" y="-92.869217" width="10.682139" height="23.802341" ry="3.7980857"/>
    <path transform="scale(.26458333)" d="m535.22266 382.89258c-2.23536 0-4.03516 1.79979-4.03516 4.03515v17.2168c0 2.23536 1.7998 4.03516 4.03516 4.03516h13.48437c2.23536 0 4.0332-1.7998 4.0332-4.03516v-0.27344a219.79337 219.79337 0 0 0 -14.89062 -20.97851z"/>
    <rect x="135.40459" y="99.296303" width="3.0214138" height="5.1264229" ry=".81801182"/>
    <rect x="136.96861" y="105.99925" width="5.7025938" height="6.6904445" ry="1.0675793"/>
    <path transform="scale(.26458333)" d="m542.1582 432.7168c-7.01304 0-12.6582 5.64516-12.6582 12.6582v54.01562c0 7.01305 5.64516 12.65821 12.6582 12.65821h39.1211c1.70322 0 3.32404-0.33863 4.80468-0.94336a219.79337 219.79337 0 0 0 -18.2871 -78.38867z"/>
    <path transform="scale(.26458333)" d="m574.24805 493.51758c-7.01307 0-12.65821 6.66714-12.65821 14.94922v63.79101c0 8.28212 5.64514 14.94922 12.65821 14.94922h1.75a219.79337 219.79337 0 0 0 10.42187 -66.61133 219.79337 219.79337 0 0 0 -1.95117 -27.07812z"/>
   </g>
   <g transform="translate(-.2426667 .72800011)" fill="#fff">
    <rect x="55.15213" y="170.01158" width="12.323223" height="5.3716617" ry="2.3698516"/>
    <rect x="143.77095" y="137.74603" width="10.743323" height="6.0036221" ry="3.001811"/>
    <rect x="57.507286" y="95.268684" width="28.44039" height="7.7195349" ry="3.8597674"/>
    <rect x="53.896976" y="105.02849" width="19.148439" height="5.5704551" ry="2.7852275"/>
    <rect x="61.086491" y="100.69958" width="8.0647898" height="7.2068334" ry="2.2118611"/>
    <rect x="47.576981" y="132.0856" width="20.854687" height="4.7397013" ry="2.3698506"/>
    <rect x="51.820732" y="138.69398" width="26.307955" height="5.9408402" ry="2.9704201"/>
    <rect x="56.110348" y="133.81671" width="7.8931985" height="7.8931985" ry="2.826267"/>
    <rect x="109.88784" y="111.83566" width="27.636728" height="6.0036221" ry="3.001811"/>
    <rect x="123.22386" y="119.25597" width="11.059303" height="4.1077414" ry="2.0538707"/>
    <rect x="114.47478" y="106.03083" width="14.851065" height="4.4237208" ry="2.2118604"/>
    <rect x="118.22638" y="108.42119" width="3.6034167" height="5.8341031" ry="1.8017083"/>
    <rect x="126.63435" y="115.28485" width="3.775008" height="6.0056944" ry="2.3355491"/>
    <rect x="117.66179" y="157.20079" width="20.854687" height="6.6272054" ry="3.3136027"/>
    <rect x="108.38117" y="166.18425" width="25.278408" height="4.7397013" ry="2.3698506"/>
    <rect x="124.40367" y="161.95767" width="6.1772857" height="5.6625123" ry="1.8017093"/>
   </g>
   <path d="m97.003379 79.587388a58.153662 58.153662 0 0 0 -20.662304 3.815789c-1.1e-5 0.0045-5.29e-4 0.0089-5.29e-4 0.01344 0 2.606781 2.098876 4.705657 4.705657 4.705657h32.575267c2.5145 0 4.55031-1.954417 4.69171-4.43229a58.153662 58.153662 0 0 0 -21.309814 -4.102591z" fill="#d5f6ff"/>
   <path transform="scale(.26458333)" d="m366.62695 300.80273a219.79337 219.79337 0 0 0 -219.79492 219.79297 219.79337 219.79337 0 0 0 219.79492 219.79297 219.79337 219.79337 0 0 0 32.36914 -2.59179 219.79337 219.79337 0 0 1 -187.96093 -217.20118 219.79337 219.79337 0 0 1 187.42187 -217.20117 219.79337 219.79337 0 0 0 -31.83008 -2.5918z" fill="#2196f3" opacity=".19899998"/>
  </g>
  <circle cx="79.192513" cy="190.52213" r="24.576988" fill="#2196f3" opacity=".18399999" stroke-width=".47465762"/>
  <circle cx="51.568756" cy="179.45676" r="3.5481315" fill="#b3b3b3" stroke-width=".47465762"/>
  <g fill="#ffc107">
   <g transform="matrix(.34116017 0 0 .34116017 -11.431977 138.91491)">
    <rect x="120.36269" y="145.09064" width="3.8826673" height="15.530669" ry="1.9413337"/>
    <rect transform="rotate(90)" x="150.91464" y="-130.06937" width="3.8826673" height="15.530669" ry="1.9413337"/>
   </g>
   <g transform="matrix(.26699492 0 0 .26699492 14.801087 105.21473)">
    <rect x="120.36269" y="145.09064" width="3.8826673" height="15.530669" ry="1.9413337"/>
    <rect transform="rotate(90)" x="150.91464" y="-130.06937" width="3.8826673" height="15.530669" ry="1.9413337"/>
   </g>
   <g transform="matrix(.26699492 0 0 .26699492 68.66749 190.08528)">
    <rect x="120.36269" y="145.09064" width="3.8826673" height="15.530669" ry="1.9413337"/>
    <rect transform="rotate(90)" x="150.91464" y="-130.06937" width="3.8826673" height="15.530669" ry="1.9413337"/>
   </g>
   <g transform="matrix(.26699492 0 0 .26699492 100.03695 145.75936)">
    <rect x="120.36269" y="145.09064" width="3.8826673" height="15.530669" ry="1.9413337"/>
    <rect transform="rotate(90)" x="150.91464" y="-130.06937" width="3.8826673" height="15.530669" ry="1.9413337"/>
   </g>
   <g transform="matrix(.17799661 0 0 .17799661 31.905854 202.90268)">
    <rect x="120.36269" y="145.09064" width="3.8826673" height="15.530669" ry="1.9413337"/>
    <rect transform="rotate(90)" x="150.91464" y="-130.06937" width="3.8826673" height="15.530669" ry="1.9413337"/>
   </g>
   <g transform="matrix(.22249576 0 0 .22249576 77.489761 116.73922)">
    <rect x="120.36269" y="145.09064" width="3.8826673" height="15.530669" ry="1.9413337"/>
    <rect transform="rotate(90)" x="150.91464" y="-130.06937" width="3.8826673" height="15.530669" ry="1.9413337"/>
   </g>
   <g transform="matrix(.17799661 0 0 .17799661 -4.4921648 191.61468)">
    <rect x="120.36269" y="145.09064" width="3.8826673" height="15.530669" ry="1.9413337"/>
    <rect transform="rotate(90)" x="150.91464" y="-130.06937" width="3.8826673" height="15.530669" ry="1.9413337"/>
   </g>
   <g transform="matrix(.17799661 0 0 .17799661 116.68098 171.57274)">
    <rect x="120.36269" y="145.09064" width="3.8826673" height="15.530669" ry="1.9413337"/>
    <rect transform="rotate(90)" x="150.91464" y="-130.06937" width="3.8826673" height="15.530669" ry="1.9413337"/>
   </g>
   <g transform="matrix(.17799661 0 0 .17799661 16.24088 114.44167)">
    <rect x="120.36269" y="145.09064" width="3.8826673" height="15.530669" ry="1.9413337"/>
    <rect transform="rotate(90)" x="150.91464" y="-130.06937" width="3.8826673" height="15.530669" ry="1.9413337"/>
   </g>
   <g transform="matrix(.17799661 0 0 .17799661 33.299292 139.16275)">
    <rect x="120.36269" y="145.09064" width="3.8826673" height="15.530669" ry="1.9413337"/>
    <rect transform="rotate(90)" x="150.91464" y="-130.06937" width="3.8826673" height="15.530669" ry="1.9413337"/>
   </g>
   <g transform="matrix(.13604241 0 0 .13604241 95.117648 181.41242)">
    <rect x="120.36269" y="145.09064" width="3.8826673" height="15.530669" ry="1.9413337"/>
    <rect transform="rotate(90)" x="150.91464" y="-130.06937" width="3.8826673" height="15.530669" ry="1.9413337"/>
   </g>
  </g>
  <g transform="matrix(.47465763 0 0 .47465763 -91.225418 126.22633)" fill="#7d7d7d">
   <circle cx="304.16711" cy="112.79085" r="2.2326314"/>
   <circle cx="300.1312" cy="113.90717" r="1.2021862"/>
   <circle cx="301.33337" cy="107.63863" r=".60109311"/>
   <circle cx="296.48169" cy="113.86423" r=".72989881"/>
   <circle cx="303.65189" cy="117.42786" r=".772834"/>
   <circle cx="305.19754" cy="108.75494" r="1.1163157"/>
   <circle cx="299.9165" cy="116.18274" r=".38641697"/>
   <circle cx="298.71432" cy="108.11092" r=".72989881"/>
   <circle cx="295.40469" cy="112.30341" r=".38641697"/>
  </g>
  <path d="m51.568708 175.90859a3.5481313 3.5481313 0 0 0 -3.548061 3.54807 3.5481313 3.5481313 0 0 0 3.548061 3.54831 3.5481313 3.5481313 0 0 0 0.843296 -0.10548 3.5481313 3.5481313 0 0 1 -2.707466 -3.44283 3.5481313 3.5481313 0 0 1 2.705259 -3.44259 3.5481313 3.5481313 0 0 0 -0.841089 -0.10548z" fill="#8c8c8c" opacity=".5979996" stroke-width=".47465762"/>
  <path d="m56.480299 194.26836c-0.64365 0.16092-20.461536 36.88328 38.297186-7.7238" fill="none" stroke="#ccc" stroke-dasharray="5.02345985, 2.51172993" stroke-linecap="round" stroke-width="1.25586498"/>
  <path d="m132.07029 152.83937c-0.5232 1e-3 -18.62835-5.92114-22.89294 15.51393l1.71246 3.86031-9.5e-4 4.4e-4 0.0374 0.0405 0.0371 0.0406 9.5e-4 -4.4e-4 3.69879 2.03841c20.81643-2.01781 17.36095-20.97269 17.40722-21.49377z" fill="#e91e63" stroke-width=".39816844"/>
  <g transform="matrix(.34959272 -.32106821 .32106821 .34959272 -2.68058e-7 131.05263)" fill="#fff" stroke-width=".15151733" style="font-feature-settings:normal;font-variant-caps:normal;font-variant-ligatures:normal;font-variant-numeric:normal" aria-label="EK">
   <path d="m136.49276 214.0252 0.2517 5.13089-6.02153 0.64862 0.0774 1.17139 3.94981-0.36788 0.34852 3.50449-4.12407 0.30011 0.0678 0.94873 5.84728-0.44532 0.87128 4.40481-11.52997 0.39692 1.17139-13.96955z" style="font-feature-settings:normal;font-variant-caps:normal;font-variant-ligatures:normal;font-variant-numeric:normal"/>
   <path d="m141.76886 220.75344 3.11725-5.85696 5.9344 0.87129-5.55684 6.77664 5.15992 3.21406-4.44354 3.56257-3.87236-4.84045 0.67766 3.96917-4.55003 0.87128v-13.55327l3.08821 0.33883z" style="font-feature-settings:normal;font-variant-caps:normal;font-variant-ligatures:normal;font-variant-numeric:normal"/>
  </g>
  <g transform="matrix(.04725357 .05145169 -.05145169 .04725357 87.399212 118.18548)">
   <g transform="translate(73.28534,-76.682679)">
    <rect x="686.26147" y="400.37601" width="74.741341" height="222.2827" ry="37.047115" fill="#fd5" opacity=".58899997"/>
    <rect x="699.85083" y="429.496" width="47.562672" height="164.04269" ry="27.340446" fill="#ff7f2a" opacity=".71600001"/>
    <rect x="715.38147" y="458.616" width="16.501333" height="105.80267" ry="11.162667" fill="#e91e63" opacity=".85500004"/>
   </g>
   <g transform="matrix(.63636361 0 0 .63636361 423.29901 48.171636)">
    <rect x="686.26147" y="400.37601" width="74.741341" height="222.2827" ry="37.047115" fill="#fd5" opacity=".58899997"/>
    <rect x="699.85083" y="429.496" width="47.562672" height="164.04269" ry="27.340446" fill="#ff7f2a" opacity=".71600001"/>
    <rect x="715.38147" y="458.616" width="16.501333" height="105.80267" ry="11.162667" fill="#e91e63" opacity=".85500004"/>
   </g>
   <g transform="matrix(.63636361 0 0 .63636361 249.54967 48.171636)">
    <rect x="686.26147" y="400.37601" width="74.741341" height="222.2827" ry="37.047115" fill="#fd5" opacity=".58899997"/>
    <rect x="699.85083" y="429.496" width="47.562672" height="164.04269" ry="27.340446" fill="#ff7f2a" opacity=".71600001"/>
    <rect x="715.38147" y="458.616" width="16.501333" height="105.80267" ry="11.162667" fill="#e91e63" opacity=".85500004"/>
   </g>
  </g>
  <path d="m120.51482 154.95994s-4.81217 0.87356-7.05294 6.47747" fill="none" stroke="#ef5a8c" stroke-linecap="round" stroke-width=".75619245"/>
  <g>
   <path d="m130.49504 159.55268c-1.04937 4.76665-4.08027 10.29408-12.2606 12.55102l1.25154 1.36272c8.17921-2.25678 11.2109-7.78411 12.26059-12.55102z" fill="#d21455" stroke-width=".39816844"/>
   <path transform="matrix(.05042702 .05490709 -.03962477 .03639164 92.79176 114.45941)" d="m813.35244 79.801678c-17.22599 29.708592-146.41504 29.468402-163.53044-0.304043-17.1154-29.772442 47.68714-141.53334 82.02853-141.469491 34.34139 0.06385 98.7279 112.064941 81.50191 141.773534z" fill="#2196f3"/>
   <path d="m132.15238 152.38793c-0.19228-0.20992-0.45857-0.39006-0.78005-0.54192 0.98626 2.66118-0.15718 8.69585-1.97689 8.81621-0.90229 0.0597-2.67186-1.28865-4.34114-2.98792 1.9529 2.27462 4.45635 4.42303 5.59028 4.34803 2.04585-0.13531 3.237-7.74649 1.5078-9.6344z" fill="#138ff2"/>
   <path d="m123.94194 151.67449c-0.85656 0.37848-1.45351 0.8505-1.57413 1.38785-0.49053 2.18512 6.0214 9.2976 8.24296 9.00313 0.54804-0.0726 1.07303-0.62817 1.52723-1.45147-2.25217 0.16213-8.53642-6.69755-8.19606-8.93951z" fill="#e6e6e6"/>
   <path d="m132.138 160.61397c-0.61811 0.0445-1.54011-0.44055-2.54534-1.21324l-1.3809 1.61254c0.95693 0.70555 1.82258 1.12862 2.39905 1.05221 0.54804-0.0727 1.07299-0.62822 1.52719-1.45151z" fill="#dadada"/>
   <path d="m109.57606 169.42353 3.99257 4.34728c0.32675 0.35578 0.2868 0.74244 0.13072 1.06384l-0.87821 1.8083c-0.15608 0.3214-0.72214 0.13521-1.04889-0.22058l-4.99071-5.43409c-0.32676-0.35578-0.46421-0.93561-0.13072-1.06384l1.87634-0.72149c0.33349-0.12823 0.72215-0.1352 1.0489 0.22058z" fill="#666"/>
  </g>
  <g fill="#555">
   <path d="m112.8546 174.55768-1.21788 1.71713 0.47799 0.52045c0.1414 0.15396 0.50794 0.12288 0.71434-0.14372l0.39046-0.77499c0.2064-0.26661 0.34526-0.5456 0.20387-0.69956z"/>
   <path d="m108.50036 169.18735-1.49203 0.6075 0.76183 0.82951c0.30271 0.32961 0.7512 0.40692 1.00553 0.17334l0.2472-0.22703c0.25434-0.23358 0.21539-0.68701-0.0873-1.01662z"/>
   <rect transform="rotate(47.435433)" x="198.35046" y="34.154247" width="7.1198726" height="1.0460476" ry=".43153256"/>
  </g>
  <g>
   <path d="m112.45216 164.02071c-0.11672-0.12709-0.24393-0.23883-0.37912-0.33562 0.60822 1.02314 0.40665 2.39315-0.54887 3.27071l-2.69586 2.4759 0.68129 0.74181 2.69586-2.4759c1.08897-1.00012 1.199-2.63999 0.2467-3.6769z" fill="#d21455"/>
   <rect transform="rotate(47.435433)" x="195.88426" y="33.174946" width="11.939118" height="1.438448" ry=".43153405" fill="#c5c5c5"/>
   <path d="m111.96592 163.37336c-0.95231-1.0369-2.59566-1.06654-3.68463-0.0664l-2.69587 2.47591 3.43792 3.74336 2.69587-2.47591c1.08897-1.00012 1.19901-2.64003 0.24671-3.67694z" fill="#2196f3"/>
   <path d="m119.77489 171.8761c-0.9523-1.0369-2.59566-1.06653-3.68463-0.0664l-2.69588 2.47591 3.43792 3.74336 2.69588-2.47591c1.08897-1.00012 1.19901-2.64003 0.24671-3.67694z" fill="#2196f3"/>
   <rect transform="rotate(47.435433)" x="205.59068" y="30.034571" width=".67150557" height="3.5813632" ry=".33575279" fill="#6fbbf7"/>
   <rect transform="rotate(47.435433)" x="194.0072" y="30.090536" width=".67150557" height="3.5813632" ry=".33575279" fill="#6fbbf7"/>
   <path d="m109.6297 168.41433c-0.0644-0.0701-0.25796 4e-3 -0.43404 0.1654l-0.42375 0.38917c-0.17608 0.16171-0.26604 0.34834-0.20166 0.41844l0.82192 0.89494 1.05945-0.97301z" fill="#b6b6b6"/>
   <path d="m111.9659 163.37336c-0.11672-0.12709-0.24393-0.23883-0.37912-0.33562 0.60822 1.02314 0.40665 2.39315-0.54887 3.2707l-2.69586 2.47591 0.68129 0.74181 2.69586-2.4759c1.08898-1.00012 1.19901-2.63999 0.2467-3.6769z" fill="#138ff2"/>
   <rect transform="rotate(47.435433)" x="193.09027" y="34.085957" width="5.9455853" height="1.5822929" ry=".62332636" fill="#e6e6e6"/>
   <path d="m108.34734 168.36483-1.1654 1.07032 0.72923 0.79401c0.2496 0.27178 0.65532 0.30253 0.90965 0.0689l0.2472-0.22703c0.25434-0.23358 0.25815-0.64044 9e-3 -0.91222z" fill="#d6d6d6"/>
   <path d="m119.7749 171.87613c-0.11673-0.1271-0.24393-0.23884-0.37913-0.33562 0.60823 1.02314 0.40665 2.39315-0.54886 3.2707l-2.69587 2.4759 0.68129 0.74182 2.69587-2.4759c1.08897-1.00012 1.199-2.63999 0.2467-3.6769z" fill="#138ff2"/>
   <path d="m113.70267 174.85186-0.73199 1.43506-0.76183-0.82952c-0.30271-0.32961-0.34166-0.78304-0.0873-1.01662l0.2472-0.22703c0.25434-0.23358 0.70282-0.15627 1.00554 0.17334z" fill="#555"/>
   <rect transform="rotate(47.435433)" x="204.63481" y="34.085957" width="5.9455853" height="1.5822929" ry=".62332636" fill="#e6e6e6"/>
   <path d="m116.11847 176.82637-1.1654 1.07031 0.75263 0.81949c0.2576 0.2805 0.66977 0.31827 0.92411 0.0847l0.24719-0.22703c0.25434-0.23358 0.2517-0.64746-6e-3 -0.92796z" fill="#d6d6d6"/>
  </g>
  <path d="m126.09147 152.72405s2.22724-0.72421 4.05031 0.0526" fill="none" stroke="#6fbbf7" stroke-linecap="round" stroke-width=".75619245"/>
 </g>
</svg>
