<?xml version="1.0" encoding="UTF-8"?>
<!-- Generator: Adobe Illustrator 19.0.0, SVG Export Plug-In . SVG Version: 6.00 Build 0)  -->
<svg width="1e3" height="330" version="1.1" viewBox="0 0 1000 330.00001" xml:space="preserve" xmlns="http://www.w3.org/2000/svg" xmlns:cc="http://creativecommons.org/ns#" xmlns:dc="http://purl.org/dc/elements/1.1/" xmlns:rdf="http://www.w3.org/1999/02/22-rdf-syntax-ns#"><metadata><rdf:RDF><cc:Work rdf:about=""><dc:format>image/svg+xml</dc:format><dc:type rdf:resource="http://purl.org/dc/dcmitype/StillImage"/><dc:title/></cc:Work></rdf:RDF></metadata><circle transform="scale(-1,1)" cx="553.82446" cy="1936.2588" r="0" fill="#9ed1fa" stroke-width=".74994367"/><rect x="-4.5190305e-14" y="1.9726563e-6" width="1e3" height="330" ry="0" opacity="0" stroke-width="6.24300003"/><g transform="matrix(2.4716998,0,0,2.4691322,-705.43783,-8.94805)"><g stroke-width=".26458332"><path d="m418.51273 131.34005c0 1.65867-0.55298 3.04112-1.65867 4.14681-1.10596 0.82947-2.21165 1.38218-3.87059 1.38218h-121.64351c-1.38218 0-2.76463-0.55298-3.87059-1.38218-1.10596-1.10596-1.65867-2.48814-1.65867-4.14681v-81.003778h132.70203z" fill="#29b6f6"/><path d="m416.85406 135.48686c-1.10596 0.82947-2.21165 1.38218-3.87059 1.38218h-121.64351c-1.38218 0-2.76463-0.55298-3.87059-1.38218l64.69221-55.568849z" fill="#2196f3"/><path d="m418.51273 50.336272-18.79944 13.546667-43.95761 31.516901c-2.21165 1.658673-5.25277 1.658673-7.46442 0l-43.68112-31.516901-18.79944-13.546667 18.79944-13.546666 40.91648-29.3049853 3.04113-2.2116521c2.21165-1.6586729 5.25277-1.6586729 7.46442 0l3.04112 2.2116521 19.62891 14.0996453 9.67608 6.911446 11.33501 8.293894z" fill="#2196f3"/><path d="m399.71329 24.625387v39.257552l-43.95761 31.516901c-2.21165 1.658673-5.25277 1.658673-7.46442 0l-43.68112-31.516901v-50.869056c0-3.0411207 2.48814-5.5292623 5.52926-5.5292623h72.15663z" fill="#f2f2f2"/><path d="m368.47314 63.053735h4.42331c-1.38219 3.04112-3.5941 5.252772-6.63522 6.911445-3.31761 1.935163-7.46443 2.764632-12.44071 2.764632-4.6998 0-8.84687-0.829469-12.16448-2.488142-3.31762-1.658673-6.08225-3.87059-7.74092-7.187935-1.65867-3.041121-2.48814-6.635221-2.48814-10.229057 0-4.146814 0.82947-7.740914 2.76463-11.335014s4.4233-6.082242 7.74091-7.740914c3.31762-1.658673 7.18794-2.488142 11.33502-2.488142 3.5941 0 6.91144 0.829469 9.67608 2.211652 2.76463 1.382183 4.97628 3.31761 6.35873 6.082242 1.38218 2.488141 2.21165 5.529262 2.21165 8.570383 0 3.5941-1.10596 6.911445-3.31761 9.952566-2.76463 3.87059-6.35873 5.529263-10.78204 5.529263-1.10595 0-2.21165-0.27649-2.76463-0.552979-0.55298-0.55298-1.10596-1.105959-1.10596-1.935163-1.65867 1.658673-3.5941 2.488142-5.80575 2.488142-2.48814 0-4.4233-0.829469-5.80575-2.488142-1.65867-1.658673-2.48814-3.870589-2.48814-6.635221 0-3.31761 0.82947-6.358731 2.76463-9.399852 2.21165-3.31761 5.25277-4.976283 8.84687-4.976283 2.48814 0 4.42331 1.105958 5.80575 3.041121l0.55298-2.488142h5.80576l-3.31761 15.481829c-0.27649 1.105959-0.27649 1.658673-0.27649 1.935163 0 0.276489 0 0.552979 0.27649 0.829468 0.27648 0.27649 0.27648 0.27649 0.55297 0.27649 0.55298 0 1.65868-0.552979 2.76464-1.382183 1.38218-1.105959 2.76463-2.488142 3.5941-4.423304 0.82946-1.935163 1.38218-3.87059 1.38218-5.805752 0-3.5941-1.38218-6.635221-3.87059-8.846873-2.48814-2.488142-6.08224-3.5941-10.78204-3.5941-3.87059 0-7.18793 0.829469-9.95256 2.488141-2.76463 1.658673-4.6998 3.87059-6.08224 6.635221-1.38245 2.764631-1.93517 5.805752-1.93517 9.123363 0 3.04112 0.82947 5.805752 2.21166 8.293893 1.65867 2.488142 3.5941 4.423304 6.35873 5.529263 2.76463 1.105958 5.80575 1.658673 9.39985 1.658673 3.31761 0 6.35873-0.55298 8.84687-1.382184 2.48814-1.106223 4.42331-2.488406 6.08224-4.423568zm-23.49949-8.846873c0 1.935162 0.27649 3.041121 1.10595 4.146814 0.82947 0.829469 1.65868 1.382184 2.76464 1.382184 0.82946 0 1.65867-0.27649 2.21165-0.55298 0.55298-0.276489 1.10596-0.829468 1.65867-1.382183 0.82947-0.829469 1.38245-2.211652 1.93516-3.870589 0.55298-1.658673 0.82947-3.317611 0.82947-4.699794 0-1.658673-0.27649-2.764631-1.10596-3.87059-0.82947-0.829468-1.65867-1.382183-2.76463-1.382183s-2.48814 0.552979-3.31761 1.382183c-1.10596 0.829469-1.93516 2.211652-2.48814 4.146815-0.55271 1.659202-0.8292 3.317875-0.8292 4.700323z" fill="#e91e63"/></g><rect x="405.98712" y="65.33075" width="7.9477677" height="46.139515" ry="3.9738839" fill="#ade3fc"/><path d="m285.81053 50.107974v81.181476c0 1.67393 0.55284 3.06852 1.6588 4.18466 1.10596 0.83682 2.48841 1.39505 3.87057 1.39505h10.13478c-1.38218 0-2.7646-0.55823-3.87056-1.39505-1.10596-1.11614-1.65881-2.51073-1.65881-4.18466v-73.75246z" fill="#0aaaf2" opacity=".681" stroke-width=".26579732"/><path transform="matrix(.26458333 0 0 .26458333 12.891791 4.8560344)" d="m1123.4551 9.9355469c-11.494 0-20.8985 9.4024851-20.8985 20.8964841v192.261719l165.0957 119.11914c7.2004 5.40003 16.7213 6.1354 24.5665 2.23242-1.2631-0.62823-2.4874-1.36308-3.6465-2.23242l-165.0938-119.11914v-192.261719c0-11.493999 9.4025-20.8964841 20.8965-20.8964841z" fill="#e3e3e3" stroke-width=".99999994"/><path d="m379.92622 7.4848145 5.3e-4 12.7170535c0 2.488141 1.93534 4.423502 4.42349 4.423502h3.16259c-2.48814 0-4.42349-1.935361-4.42349-4.423502l-0.50158-12.7153774z" fill="#bcc8d6" stroke-width=".26458332"/><path d="m382.57252 20.202083c0 2.488142 1.93517 4.423304 4.42331 4.423304h12.7172l-17.14077-17.1407663z" fill="#cdd6e0" stroke-width=".26458332"/></g><g fill="#fff" stroke="#9c27b0" stroke-width="3" style="font-feature-settings:normal;font-variant-caps:normal;font-variant-ligatures:normal;font-variant-numeric:normal" aria-label="edit"><path d="m446.33656 68.12226 1.35416 27.604166-32.39583 3.489584 0.41667 6.30208 21.25-1.97916 1.875 18.85416-22.1875 1.61459 0.36458 5.10416 31.45833-2.39583 4.6875 23.69792-62.03125 2.13541 6.30209-75.156246z" style="font-feature-settings:normal;font-variant-caps:normal;font-variant-ligatures:normal;font-variant-numeric:normal"/><path d="m459.04489 150.41393-3.33334-72.91667q71.04167 0 71.04167 36.45833 0 36.45834-67.70833 36.45834zm18.54166-53.593754 3.48959 25.208334q22.55208 0.10417 22.55208-12.55208 0-12.656254-26.04167-12.656254z" style="font-feature-settings:normal;font-variant-caps:normal;font-variant-ligatures:normal;font-variant-numeric:normal"/><path d="m553.62822 77.913927 5.3125 70.260413-29.47917 5.57292 1.35417-74.010416z" style="font-feature-settings:normal;font-variant-caps:normal;font-variant-ligatures:normal;font-variant-numeric:normal"/><path d="m603.6803 99.68476 2.55208 44.375-28.22917 7.29167 4.84375-53.020837-21.30208-1.822917 1.66667-19.270832 61.09375-3.645834 2.23958 28.48958z" style="font-feature-settings:normal;font-variant-caps:normal;font-variant-ligatures:normal;font-variant-numeric:normal"/></g><g fill="#fff" stroke="#9c27b0" stroke-width="3" style="font-feature-settings:normal;font-variant-caps:normal;font-variant-ligatures:normal;font-variant-numeric:normal" aria-label="email"><path d="m446.33656 176.25274 1.35416 27.60416-32.39583 3.48959 0.41667 6.30208 21.25-1.97917 1.875 18.85417-22.1875 1.61458 0.36458 5.10417 31.45833-2.39583 4.6875 23.69791-62.03125 2.13542 6.30209-75.15625z" style="font-feature-settings:normal;font-variant-caps:normal;font-variant-ligatures:normal;font-variant-numeric:normal"/><path d="m539.04488 185.62774 4.375 68.69791-26.5625 2.23959-1.40625-35.15625-5.36458 24.16666-23.85416 3.33334-9.6875-24.94792 3.48958 29.58333-24.32292 5 3.33334-72.91666 23.90625-3.17709 13.22916 41.66667 16.04167-40.41667z" style="font-feature-settings:normal;font-variant-caps:normal;font-variant-ligatures:normal;font-variant-numeric:normal"/><path d="m570.29489 248.12774-3.64583 10.41666-20.52084-12.39583 25.72917-60.52083 19.58333-1.35417 30.78125 62.65625-24.32291 11.61458-5.36459-14.63541zm17.8125-22.8125-5.83333-18.85417-6.875 20.83333z" style="font-feature-settings:normal;font-variant-caps:normal;font-variant-ligatures:normal;font-variant-numeric:normal"/><path d="m649.04489 186.0444 5.3125 70.26042-29.47917 5.57292 1.35417-74.01042z" style="font-feature-settings:normal;font-variant-caps:normal;font-variant-ligatures:normal;font-variant-numeric:normal"/><path d="m660.55529 184.58607 25.67708 1.35417-8.4375 51.77083 26.14583-4.0625-5.78125 27.76042-41.19791-2.86459z" style="font-feature-settings:normal;font-variant-caps:normal;font-variant-ligatures:normal;font-variant-numeric:normal"/></g></svg>
