<?xml version="1.0" encoding="UTF-8"?>
<!-- Created with Inkscape (http://www.inkscape.org/) -->
<svg width="135.87279mm" height="139.61964mm" version="1.1" viewBox="0 0 135.87279 139.61964" xmlns="http://www.w3.org/2000/svg" xmlns:cc="http://creativecommons.org/ns#" xmlns:dc="http://purl.org/dc/elements/1.1/" xmlns:rdf="http://www.w3.org/1999/02/22-rdf-syntax-ns#">
 <defs>
  <linearGradient id="linearGradient7614" x1="1452.4229" x2="772.341" y1="569.99146" y2="-115.36234" gradientTransform="matrix(.33773714 0 0 .33773714 -11.42793 21.073104)" gradientUnits="userSpaceOnUse">
   <stop stop-color="#2196f3" offset="0"/>
   <stop stop-color="#9c27b0" offset="1"/>
  </linearGradient>
 </defs>
 <metadata>
  <rdf:RDF>
   <cc:Work rdf:about="">
    <dc:format>image/svg+xml</dc:format>
    <dc:type rdf:resource="http://purl.org/dc/dcmitype/StillImage"/>
    <dc:title/>
   </cc:Work>
  </rdf:RDF>
 </metadata>
 <g transform="translate(-238.26858,-73.070511)">
  <g transform="matrix(.56416046 0 0 .56416046 103.84687 92.698777)">
   <circle cx="363.81967" cy="97.400543" r="115.2896" fill="url(#linearGradient7614)" stroke-width=".33773714"/>
   <rect x="327.50549" y="84.576591" width="73.752708" height="117.1807" ry="37.312824" fill="#00af53"/>
   <g fill="#00c853">
    <rect transform="rotate(125.13119)" x="-47.018532" y="-399.13635" width="22.706383" height="92.244682" ry="11.353191"/>
    <rect transform="matrix(.57545053 .81783659 .81783659 -.57545053 0 0)" x="373.53159" y="198.1292" width="22.706383" height="92.244675" ry="11.353191"/>
    <rect transform="matrix(-.70710678 .70710678 .70710678 .70710678 0 0)" x="-220.94937" y="345.95828" width="22.706383" height="92.244675" ry="11.353191"/>
    <rect transform="rotate(45)" x="295.44412" y="-170.4352" width="22.706383" height="92.244675" ry="11.353191"/>
   </g>
   <rect transform="rotate(-44.120335)" x="219.32161" y="351.01306" width="4.1218863" height="15.349312" ry="2.3023968" fill="#2dff84"/>
   <ellipse cx="364.42178" cy="58.968281" rx="42.574463" ry="43.757092" fill="#212121"/>
   <g transform="matrix(1.4703067,0,0,1.4703067,271.64494,-99.577752)" fill="#d89b72">
    <circle cx="41.624508" cy="119.04013" r="4.4640775"/>
    <circle cx="84.57618" cy="119.04013" r="4.4640775"/>
   </g>
   <rect x="332.44293" y="27.467415" width="63.861702" height="93.061203" ry="26.667894" fill="#deaa87"/>
   <g transform="matrix(1.4703067,0,0,1.4703067,271.29015,-106.82591)" fill="#212121">
    <rect x="50.432014" y="117.71298" width="9.1694565" height="2.895618" ry="1.447809"/>
    <rect x="67.081825" y="117.71298" width="9.1694565" height="2.895618" ry="1.447809"/>
   </g>
   <g transform="matrix(1.859597,0,0,1.859597,247.08061,-178.02468)">
    <path d="m50.341157 142.32568v2.53402c0 6.61683 5.326982 11.94382 11.943813 11.94382h1.630625c6.616831 0 11.943813-5.32699 11.943813-11.94382v-2.53402z" fill="#f55"/>
    <path d="m50.341113 142.32568v2.53421c0 2.89248 1.017992 5.53829 2.71663 7.60057 2.187165-2.65558 5.502839-4.3434 9.227344-4.3434h1.630907c3.7245 0 7.039663 1.68782 9.226828 4.3434 1.698638-2.06228 2.71663-4.70809 2.71663-7.60057v-2.53421z" fill="#c83737"/>
   </g>
   <g transform="matrix(1.4703067,0,0,1.4703067,271.64494,-124.22728)">
    <rect x="56.464554" y="133.88866" width="2.4130151" height="6.0325375" ry="1.2065076"/>
    <circle cx="57.671062" cy="138.54797" r=".75687557" fill="#fff"/>
    <rect x="67.32312" y="133.88866" width="2.4130151" height="6.0325375" ry="1.2065076"/>
    <circle cx="68.529625" cy="138.54797" r=".72422618" fill="#fff"/>
   </g>
   <g transform="matrix(1.4703067,0,0,1.4526772,209.73031,-12.304467)">
    <path d="m62.608498 16.838822c1.89618 15.810323 11.067248 27.735773 22.169705 27.735773h48.992357c-1.89618-15.81033-11.06725-27.735773-22.1697-27.735773h-13.676173z" fill="#212121"/>
    <rect x="75.804207" y="22.741127" width="17.50009" height="2.8731492" ry="1.4365746" fill="#383838"/>
    <rect x="84.423653" y="28.226227" width="23.768778" height="2.8731492" ry="1.4365746" fill="#383838"/>
   </g>
   <path d="m308.10215 118.6778c-6.68851 0-12.07316 5.38465-12.07316 12.07317v59.75501a115.28959 115.28959 0 0 0 67.79069 22.18417 115.28959 115.28959 0 0 0 70.0381 -23.81663v-58.12255c0-6.68852-5.38464-12.07317-12.07316-12.07317z" fill="#d7d7d7"/>
   <path d="m364.98587 152.19052a10.06965 10.06965 0 0 0 -10.06944 10.06945 10.06965 10.06965 0 0 0 10.06944 10.07013 10.06965 10.06965 0 0 0 9.98454 -8.83352 7.2375613 7.2375613 0 0 1 -0.54451 0.0223 7.2375613 7.2375613 0 0 1 -7.23704 -7.23771 7.2375613 7.2375613 0 0 1 0.95088 -3.5764 10.06965 10.06965 0 0 0 -3.15387 -0.51419z" fill="#fff"/>
   <g transform="matrix(1.1212121,0,0,1.1212121,34.899692,-9.0490573)" fill="#ffc107">
    <rect x="215.25316" y="58.960148" width="4.2182012" height="15.466737" ry="2.1091006"/>
    <rect transform="rotate(90)" x="64.584412" y="-225.09563" width="4.2182012" height="15.466737" ry="2.1091006"/>
   </g>
   <g transform="matrix(1.1212121,0,0,1.1212121,211.72876,28.335861)" fill="#ffc107">
    <rect x="215.25316" y="58.960148" width="4.2182012" height="15.466737" ry="2.1091006"/>
    <rect transform="rotate(90)" x="64.584412" y="-225.09563" width="4.2182012" height="15.466737" ry="2.1091006"/>
   </g>
   <g transform="matrix(1.030303,0,0,1.030303,196.27288,-37.168043)" fill="#ffc107">
    <rect x="215.25316" y="58.960148" width="4.2182012" height="15.466737" ry="2.1091006"/>
    <rect transform="rotate(90)" x="64.584412" y="-225.09563" width="4.2182012" height="15.466737" ry="2.1091006"/>
   </g>
   <g fill="none" stroke="#2196f3" stroke-linecap="round">
    <circle cx="457.5838" cy="59.04287" r="6.1101193" stroke-width="4.26559877"/>
    <circle cx="274.97876" cy="20.380537" r="6.227632" stroke-width="4.34763622"/>
    <circle cx="407.92114" cy="-18.934235" r="3.9813178" stroke-width="2.77943873"/>
    <circle cx="278.85242" cy="116.29646" r="5.2585988" stroke-width="3.67113471"/>
   </g>
   <g fill="#00c853">
    <circle cx="306.74869" cy="62.103153" r="1.8747561"/>
    <circle cx="342.5159" cy="-11.839511" r="1.874756"/>
    <circle cx="335.86237" cy="-2.3921747" r="2.3434448"/>
    <circle cx="258.88254" cy="96.266861" r="2.1091006"/>
    <circle cx="471.86969" cy="42.638744" r="2.1091006"/>
    <circle cx="472.853" cy="75.809975" r="1.6404114"/>
   </g>
   <g>
    <rect x="394.76105" y="126.92005" width="29.527407" height="3.280823" ry="1.320165" fill="#ececec"/>
    <rect x="375.07611" y="126.92005" width="16.404114" height="3.280823" ry="1.320165" fill="#ececec"/>
    <path d="m370.79623 143.8485a5.6757153 5.6757153 0 0 0 -4.97763 1.95572 5.6757153 5.6757153 0 0 0 -1.13544 5.22478 5.6757153 5.6757153 0 0 0 4.97783 -1.95556 5.6757153 5.6757153 0 0 0 1.13524 -5.22494z" fill="#fff"/>
    <rect x="332.44278" y="53.013508" width="63.862" height="8.3284569" ry=".75713122" fill="#d89b72"/>
    <path d="m294.89148 17.039105c2.78797 22.967296 16.27225 40.291125 32.59627 40.291125h72.03379c-2.78797-22.967306-16.27225-40.291125-32.59626-40.291125h-20.10817z" fill="#212121"/>
    <rect x="314.29321" y="25.613249" width="25.730499" height="4.1737585" ry="2.0868793" fill="#383838"/>
    <rect x="326.96646" y="33.581329" width="34.947392" height="4.1737585" ry="2.0868793" fill="#383838"/>
   </g>
   <g transform="matrix(.71271352 0 0 .71271352 299.65937 -40.627974)" fill="#ffc107">
    <rect x="215.25316" y="58.960148" width="4.2182012" height="15.466737" ry="2.1091006"/>
    <rect transform="rotate(90)" x="64.584412" y="-225.09563" width="4.2182012" height="15.466737" ry="2.1091006"/>
   </g>
   <g transform="matrix(1.1954846,0,0,1.1954846,68.073174,-105.27794)" fill="#ffc107">
    <rect x="215.25316" y="58.960148" width="4.2182012" height="15.466737" ry="2.1091006"/>
    <rect transform="rotate(90)" x="64.584412" y="-225.09563" width="4.2182012" height="15.466737" ry="2.1091006"/>
   </g>
   <g transform="matrix(.71271352 0 0 .71271352 88.863238 -6.1653916)" fill="#ffc107">
    <rect x="215.25316" y="58.960148" width="4.2182012" height="15.466737" ry="2.1091006"/>
    <rect transform="rotate(90)" x="64.584412" y="-225.09563" width="4.2182012" height="15.466737" ry="2.1091006"/>
   </g>
   <circle cx="399.60477" cy="-4.2490044" r="2.1091006" fill="#00c853"/>
   <path d="m308.10204 118.67771c-6.68851 0-12.07316 4.30844-12.07316 9.66015v4.13647c0-5.35172 5.38465-9.66016 12.07316-9.66016h113.68247c6.68852 0 12.07316 4.30844 12.07316 9.66016v-4.13647c0-5.35171-5.38464-9.66015-12.07316-9.66015z" fill="#ebebeb"/>
  </g>
 </g>
</svg>
