<?xml version="1.0" encoding="UTF-8"?>
<!-- Created with Inkscape (http://www.inkscape.org/) -->
<svg width="208.65909mm" height="38.700729mm" version="1.1" viewBox="0 0 208.65909 38.700729" xmlns="http://www.w3.org/2000/svg" xmlns:cc="http://creativecommons.org/ns#" xmlns:dc="http://purl.org/dc/elements/1.1/" xmlns:rdf="http://www.w3.org/1999/02/22-rdf-syntax-ns#">
 <metadata>
  <rdf:RDF>
   <cc:Work rdf:about="">
    <dc:format>image/svg+xml</dc:format>
    <dc:type rdf:resource="http://purl.org/dc/dcmitype/StillImage"/>
    <dc:title/>
   </cc:Work>
  </rdf:RDF>
 </metadata>
 <g transform="translate(-2.1574453,-4.8626231)" fill="#2196f3" stroke-width=".26458332">
  <g style="font-feature-settings:normal;font-variant-caps:normal;font-variant-ligatures:normal;font-variant-numeric:normal" aria-label="Fueled by passion">
   <g fill="#2196f3" stroke-width=".26458332">
    <path d="m12.441055 5.1313405-0.878499 5.9944655-5.0332847-0.268717 0.2067057 1.033529 3.999756 0.454752-0.54777 4.299479-2.7595218-0.620117 0.9301758 4.485514-5.0642903 0.682129-1.1368814-13.5702305z" style="font-feature-settings:normal;font-variant-caps:normal;font-variant-ligatures:normal;font-variant-numeric:normal"/>
    <path d="m13.608942 7.4464446 5.508708 1.0748698q-2.749186 8.4439286 0.785481 8.5369466 4.196127-0.03101 2.428793-8.7436524l5.043619-1.591634q2.315104 14.3453774-7.472412 14.4694004-9.890868-0.093017-6.294189-13.7459304z" style="font-feature-settings:normal;font-variant-caps:normal;font-variant-ligatures:normal;font-variant-numeric:normal"/>
    <path d="m38.951063 4.8626231 0.268718 5.4777019-6.428548 0.692464 0.08268 1.25057 4.216797-0.392741 0.37207 3.741373-4.402832 0.320394 0.07235 1.012858 6.242513-0.475423 0.930176 4.702555-12.309326 0.423747 1.25057-14.913818z" style="font-feature-settings:normal;font-variant-caps:normal;font-variant-ligatures:normal;font-variant-numeric:normal"/>
    <path d="m41.524549 6.5162689 5.095296 0.2687174-1.674316 10.2732747 5.188313-0.806153-1.147217 5.508708-8.175211-0.568441z" style="font-feature-settings:normal;font-variant-caps:normal;font-variant-ligatures:normal;font-variant-numeric:normal"/>
    <path d="m61.606013 4.8626231 0.268717 5.4777019-6.428548 0.692464 0.08268 1.25057 4.216797-0.392741 0.37207 3.741373-4.402831 0.320394 0.07235 1.012858 6.242512-0.475423 0.930176 4.702555-12.309326 0.423747 1.25057-14.913818z" style="font-feature-settings:normal;font-variant-caps:normal;font-variant-ligatures:normal;font-variant-numeric:normal"/>
    <path d="m64.127822 21.192375-0.661459-14.4694004q14.097331 0 14.097331 7.2347004 0 7.2347-13.435872 7.2347zm3.679361-10.635009 0.692465 5.002278q4.475179 0.02067 4.475179-2.490804t-5.167644-2.511474z" style="font-feature-settings:normal;font-variant-caps:normal;font-variant-ligatures:normal;font-variant-numeric:normal"/>
    <path d="m87.351209 11.7976q3.203939-0.599447 3.141927-1.8190103-0.062012-1.2195638-3.276286-0.3824056zm0.496094 6.13916q4.681884-0.186035 4.69222-1.632975 0.02067-1.44694-4.84725-1.384929zm-4.49585 3.255615 0.382406-13.3841954q7.389729-3.0075682 10.159586-0.289388 2.769857 2.7181804-0.702799 5.4777014 5.270995 1.62264 3.400309 5.302002-1.860352 3.669027-13.239502 2.89388z" style="font-feature-settings:normal;font-variant-caps:normal;font-variant-ligatures:normal;font-variant-numeric:normal"/>
    <path d="m100.99379 14.991203-4.867923-4.90926 4.113443-3.3589684 2.82153 4.1341144 2.34611-5.1469725 5.48804 1.8810221-5.76709 7.4000644 0.44442 5.808431-5.03329-0.682129z" style="font-feature-settings:normal;font-variant-caps:normal;font-variant-ligatures:normal;font-variant-numeric:normal"/>
   </g>
   <g fill="#e91e63">
    <path d="m122.25347 17.027255 0.83716 3.09025-5.39502 1.07487-1.0232-13.838948q13.76661-2.2220865 14.45907 4.537191 0 5.167643-8.87801 5.136637zm-1.41594-6.11849 0.57878 2.015381q5.58105 0 5.25033-1.46761-0.33073-1.467611-5.82911-0.547771z"/>
    <path d="m134.53179 19.125318-0.72347 2.067057-4.0721-2.459798 5.10563-12.0096024 3.88607-0.2687175 6.10815 12.4333489-4.82658 2.304769-1.06453-2.904215zm3.53467-4.526855-1.15755-3.741374-1.36426 4.134114z"/>
    <path d="m147.52325 15.476962q-3.73104-0.5271-3.29696-4.640544 0.43408-4.1134434 9.59115-4.8679193l0.86816 4.6715493q-4.53719-0.103353-4.86792 1.07487-0.33073 1.178222 3.47266 1.353922 3.80338 0.1757 3.7207 4.630208-0.0827 4.454509-10.01489 4.754232l-1.82935-4.88859q5.08496 0.54777 5.59139-0.506429 0.50643-1.064535-3.23494-1.581299z"/>
    <path d="m160.25631 15.476962q-3.73104-0.5271-3.29695-4.640544 0.43408-4.1134434 9.59114-4.8679193l0.86817 4.6715493q-4.5372-0.103353-4.86792 1.07487-0.33073 1.178222 3.47265 1.353922 3.80339 0.1757 3.7207 4.630208-0.0827 4.454509-10.01489 4.754232l-1.82934-4.88859q5.08496 0.54777 5.59139-0.506429 0.50643-1.064535-3.23495-1.581299z"/>
    <path d="m175.1288 6.8056569 1.0542 13.9423011-5.84977 1.105875 0.26871-14.6864411z"/>
    <path d="m185.12302 21.192375q-3.49333 0-5.96346-2.118733-2.4598-2.118734-2.4598-5.115967t2.4598-5.1159668q2.47013-2.1187336 5.96346-2.1187336 3.48299 0 5.94279 2.1187336 2.47013 2.1187338 2.47013 5.1159668t-2.47013 5.115967q-2.4598 2.118733-5.94279 2.118733zm-0.57878-4.51652q1.48828 0 2.54248-0.909505 1.06453-0.909505 1.06453-2.191081 0-1.281575-1.06453-2.19108-1.0542-0.909506-2.54248-0.909506-1.49862 0-2.56315 0.909506-1.0542 0.909505-1.0542 2.19108 0 1.281576 1.0542 2.191081 1.06453 0.909505 2.56315 0.909505z"/>
    <path d="m199.24102 13.957675 1.02319 5.922119-5.15731 1.312581-1.04386-13.5702305 5.17798-0.8991699 5.10563 6.7592774 0.062-6.7592774 6.40788-0.6614583-2.27376 15.1308587-4.10311 0.599447z"/>
   </g>
  </g>
  <g style="font-feature-settings:normal;font-variant-caps:normal;font-variant-ligatures:normal;font-variant-numeric:normal" aria-label="for education">
   <g fill="#2196f3" stroke-width=".26458332">
    <path d="m29.122207 25.641968-0.878499 5.994466-5.033284-0.268717 0.206705 1.033528 3.999756 0.454753-0.54777 4.299479-2.759521-0.620117 0.930175 4.485514-5.06429 0.682129-1.136881-13.570231z" style="font-feature-settings:normal;font-variant-caps:normal;font-variant-ligatures:normal;font-variant-numeric:normal"/>
    <path d="m37.101048 41.703003q-3.493327 0-5.96346-2.118734-2.459798-2.118733-2.459798-5.115966t2.459798-5.115967q2.470133-2.118734 5.96346-2.118734 3.482992 0 5.94279 2.118734 2.470133 2.118734 2.470133 5.115967t-2.470133 5.115966q-2.459798 2.118734-5.94279 2.118734zm-0.578776-4.51652q1.488281 0 2.542481-0.909505 1.064534-0.909505 1.064534-2.191081 0-1.281575-1.064534-2.191081-1.0542-0.909505-2.542481-0.909505-1.498616 0-2.563151 0.909505-1.054199 0.909506-1.054199 2.191081 0 1.281576 1.054199 2.191081 1.064535 0.909505 2.563151 0.909505z" style="font-feature-settings:normal;font-variant-caps:normal;font-variant-ligatures:normal;font-variant-numeric:normal"/>
    <path d="m51.105361 30.644247 0.144694 2.790527q5.167643 0 5.167643-1.033529 0-1.033528-5.312337-1.756998zm0.692464 10.221598-5.756755 0.806152 1.198893-15.430582q13.311849 0.992187 13.756266 5.333008 0.454753 4.330484-4.578531 5.994465l4.134114 2.242758-4.237467 3.751708-4.847249-5.994466z" style="font-feature-settings:normal;font-variant-caps:normal;font-variant-ligatures:normal;font-variant-numeric:normal"/>
   </g>
   <g fill="#00c853">
    <path d="m78.163142 25.373251 0.268717 5.477701-6.428548 0.692465 0.08268 1.250569 4.216797-0.392741 0.37207 3.741374-4.402832 0.320394 0.07235 1.012858 6.242513-0.475423 0.930176 4.702555-12.309326 0.423747 1.25057-14.913818z"/>
    <path d="m80.68495 41.703003-0.661458-14.469401q14.09733 0 14.09733 7.234701 0 7.2347-13.435872 7.2347zm3.679362-10.63501 0.692465 5.002279q4.475178 0.02067 4.475178-2.490804 0-2.511475-5.167643-2.511475z"/>
    <path d="m96.063855 27.957072 5.508705 1.07487q-2.749183 8.443929 0.78548 8.536946 4.19613-0.03101 2.4288-8.743652l5.04362-1.591634q2.3151 14.345377-7.47242 14.469401-9.890864-0.09302-6.294185-13.745931z"/>
    <path d="m125.38507 39.584269q-2.44947 2.118734-5.91179 2.118734t-5.91178-2.118734q-2.44946-2.118733-2.44946-5.115966t2.44946-5.115967 5.91178-2.118734 5.91179 2.118734q1.22989 1.064534 1.85001 2.356445l-4.96094 1.25057q-0.24804-0.661458-0.86816-1.198893-1.0542-0.909506-2.53214-0.909506-1.47795 0-2.53215 0.909506-1.0542 0.909505-1.0542 2.19108 0 1.281576 1.0542 2.191081t2.53215 0.909505q1.47794 0 2.53214-0.909505 0.56844-0.496094 0.83716-1.116211l4.98161 2.201416q-0.60979 1.291911-1.83968 2.356445z"/>
    <path d="m132.56808 39.635946-0.72347 2.067057-4.0721-2.459798 5.10563-12.009603 3.88607-0.268717 6.10815 12.433349-4.82657 2.304769-1.06454-2.904215zm3.53467-4.526856-1.15755-3.741373-1.36426 4.134114z"/>
    <path d="m148.57745 31.636434 0.50642 8.805664-5.60172 1.44694 0.96118-10.521321-4.22713-0.361735 0.33073-3.824056 12.12329-0.72347 0.44442 5.653401z"/>
    <path d="m158.44765 27.316285 1.0542 13.942301-5.84978 1.105875 0.26872-14.686441z"/>
    <path d="m168.44186 41.703003q-3.49332 0-5.96346-2.118734-2.45979-2.118733-2.45979-5.115966t2.45979-5.115967q2.47014-2.118734 5.96346-2.118734 3.483 0 5.94279 2.118734 2.47014 2.118734 2.47014 5.115967t-2.47014 5.115966q-2.45979 2.118734-5.94279 2.118734zm-0.57877-4.51652q1.48828 0 2.54248-0.909505 1.06453-0.909505 1.06453-2.191081 0-1.281575-1.06453-2.191081-1.0542-0.909505-2.54248-0.909505-1.49862 0-2.56315 0.909505-1.0542 0.909506-1.0542 2.191081 0 1.281576 1.0542 2.191081 1.06453 0.909505 2.56315 0.909505z"/>
    <path d="m182.55987 34.468303 1.02319 5.922119-5.15731 1.312581-1.04386-13.570231 5.17798-0.89917 5.10563 6.759277 0.062-6.759277 6.40788-0.661458-2.27377 15.130859-4.10311 0.599447z"/>
   </g>
  </g>
 </g>
</svg>
