<?xml version="1.0" encoding="UTF-8"?>
<!-- Created with Inkscape (http://www.inkscape.org/) -->
<svg width="562" height="512" version="1.1" viewBox="0 0 148.69584 135.46667" xmlns="http://www.w3.org/2000/svg" xmlns:cc="http://creativecommons.org/ns#" xmlns:dc="http://purl.org/dc/elements/1.1/" xmlns:rdf="http://www.w3.org/1999/02/22-rdf-syntax-ns#">
 <metadata>
  <rdf:RDF>
   <cc:Work rdf:about="">
    <dc:format>image/svg+xml</dc:format>
    <dc:type rdf:resource="http://purl.org/dc/dcmitype/StillImage"/>
    <dc:title/>
   </cc:Work>
  </rdf:RDF>
 </metadata>
 <g transform="translate(-153.33253,-167.51413)">
  <g transform="translate(150.28983,167.51413)">
   <path d="m130.86933 84.604345 5.94192-1.922824v-80.7586953l-5.94192 3.8456523-8.91287-5.768478306-8.91287 5.768478306-8.91288-5.768478306-8.912878 5.768478306-8.912875-5.768478306-8.912873 5.768478306-8.912881-5.768478306-8.912874 5.768478306-8.912874-5.768478306-8.912874 5.768478306-8.912881-5.768478306-8.912873 5.768478306-5.94192-3.8456523v79.3857953l5.94192 3.295724-6.203364 3.845653-8.0126723 16.463242c-0.335718 1.45557 1.4082313 2.76502 3.6810193 2.76502h128.02158c2.27575 0 4.01673-1.30945 3.68101-2.76502l-8.27115-16.463242z" fill="#f0d7b8" stroke-width="2.39011216"/>
   <path d="m124.72973 84.584043 5.25977-1.702075v-73.77486l-5.25977 3.404154-7.88964-5.1062305-7.88963 5.1062305-7.88963-5.1062305-7.889643 5.1062305-7.889636-5.1062305-7.889635 5.1062305-7.889644-5.1062305-7.889629 5.1062305-7.889636-5.1062305-7.889638 5.1062305-7.889641-5.1062305-7.889639 5.1062305-5.259751-3.404154v72.559574l5.259751 2.917361-5.491182 3.404155-7.092784 14.573182c-0.297172 1.28847 1.24656 2.44758 3.258422 2.44758h113.324105c2.01449 0 3.5556-1.15911 3.25843-2.44758l-7.32158-14.573182z" fill="#e7bf8e" stroke-width="2.11571646"/>
  </g>
  <rect transform="matrix(.9624691 -.27139128 .24674887 .96907946 0 0)" x="136.74838" y="322.08328" width="71.887543" height="27.731937" ry="3.5471084" fill="#64dd17" stroke-width=".46215186"/>
  <rect transform="matrix(.9624691 -.27139128 .24674887 .96907946 0 0)" x="141.76378" y="324.01807" width="61.85672" height="23.862366" ry="3.0521629" fill="#fff" stroke-width=".46215186"/>
  <rect x="159.94711" y="167.51413" width="135.46666" height="135.46666" opacity="0" stroke-width="1.74694598"/>
  <g transform="matrix(.35652294 .86259838 -.85397633 .21542054 345.39096 220.33375)">
   <g transform="matrix(.1229936 -.45600224 .43332159 .12943126 -184.08599 421.56698)" stroke-width=".25220844">
    <path d="m676.95561 153.50839c-0.28885-2.24835-3.05053-3.16424-4.62554-1.53366l-6.11024 6.32382-6.11023 6.32382c-1.57503 1.63008-0.56508 4.35868 1.69161 4.57014l17.37996 1.62937z" fill="#2196f3"/>
    <path d="m677.85968 169.54552-18.20534-6.78522c-0.97359-0.36291-1.25551-1.60567-0.5333-2.35287l8.96188-9.27514c0.72195-0.7472 1.97366-0.50838 2.36979 0.45218z" fill="#29b6f6"/>
    <path d="m711.64472 214.67285 6.11024-6.32383 6.11024-6.32382c1.57502-1.63007 0.56507-4.35867-1.69187-4.57013l-17.37997-1.62937 2.22532 17.31375c0.28935 2.24809 3.05102 3.16347 4.62604 1.5334z" fill="#2196f3"/>
   </g>
   <g transform="matrix(.109804 .03066361 -.02913846 .11555129 -39.163519 91.656727)" fill="#29b6f6">
    <path d="m304.28 207.544 71.711-28.139c3.835-1.505 4.868-6.451 1.954-9.364l-36.16-36.16c-2.913-2.913-7.859-1.881-9.364 1.954z"/>
    <path d="m329.294 209.753c-1.524-14.356-12.866-25.698-27.223-27.223l-44.247-4.698 0.034 0.034c-24.89-2.659-50.72 5.544-69.798 24.623-19.064 19.063-27.276 44.871-24.635 69.743l4.698 44.247c1.524 14.356 12.866 25.698 27.223 27.223l44.247 4.698c24.873 2.64 50.68-5.571 69.743-24.635 19.078-19.078 27.281-44.909 24.623-69.798l0.034 0.034z"/>
   </g>
  </g>
  <g transform="rotate(-15,-9.7260376e-6,-2.4362388e-5)" fill="#424242" stroke-width=".26458335" aria-label="Javier">
   <path d="m158.30904 325.39702h0.17226q0.93879 0 1.03353 0.24116v0.10335q0 0.4737-0.75792 0.65457-0.58567 0-0.58567 0.48231-0.10335 0-0.24116 6.16672-0.26699 5.07291-0.82682 5.58106-0.79237 0.71485-1.6881 0.96462-0.70624 0-1.68809-1.72254l-0.0344-0.24116q0-0.22393 0.41341-0.51677 0.18948 0 1.13688 1.13689l0.10335 0.0689h0.20671q0.77514 0 1.06798-1.13688 0.31867-0.45648 0.48231-7.1658l-0.0689-0.82683v-2.30821q-0.0258-0.48231-0.17226-0.48231-0.29283 0-1.17133 0.24115-0.21532 0-0.27561-0.65456 0-0.55122 0.96463-0.55122z" style="font-feature-settings:normal;font-variant-caps:normal;font-variant-ligatures:normal;font-variant-numeric:normal"/>
   <path d="m161.83165 326.70616q0.71486 0.24977 1.24024 0.99907 0.48231 0.88712 0.80098 2.26515 0.32729 1.37804 0.37035 4.00493-0.0258 3.1092-0.19809 3.514 0 1.99815-0.58567 1.99815 0 0.0861-2.69579 0.10335-0.77514 0-1.27468-1.27468-0.13781-0.56844-0.13781-0.99908v-0.17225q0-1.19718 0.99908-2.48047 0.60289-0.68902 1.5503-0.68902l0.75792 0.0345h0.37896l0.0344-0.37896 0.0344-1.72255q0-1.44694-0.93018-3.5829-0.25838-0.31006-0.51676-0.31006h-0.13781q-0.10335 0-0.82682 0.48232h-0.0689q-0.55122-0.25839-0.55122-0.58567v-0.1378q0.90434-1.06798 1.757-1.06798zm-1.30913 10.26638v0.27561q0 0.76653 0.37896 1.06798h0.0689q1.76561-0.0775 1.80006-0.0861 0.31006-1.54168 0.0258-2.5666-0.27561-0.48231-0.89572-0.48231-0.62873 0-1.30914 1.20578z" style="font-feature-settings:normal;font-variant-caps:normal;font-variant-ligatures:normal;font-variant-numeric:normal"/>
   <path d="m170.71139 326.83535q0.58566 0 0.58566 0.72347 0 0.26699-0.48231 1.55029 0 0.30145-0.86127 3.514l-1.13689 4.96094-0.37896 1.65364q-0.2067 0.20671-0.34451 0.20671h-0.0344q-0.74069 0-0.86127-1.5503-0.34451-1.4211-0.82682-4.54752-0.31006-1.02492-0.51677-2.34267-0.0861-0.18086-0.34451-1.68809l-0.51676-1.5503q0-0.41341 0.82682-0.65457 0.49093 0 0.65457 1.30914 0.16364 0.36174 0.44786 2.58382 0.68902 2.98862 0.89573 4.40973 0.0517 0 0.10335 0.2756h0.1378q0.35313-0.59428 0.68902-2.37711 0.50815-1.62781 0.89573-3.47955 0.0861 0 0.2067-1.13688l0.24116-1.44694q0.3359-0.41341 0.62012-0.41341z" style="font-feature-settings:normal;font-variant-caps:normal;font-variant-ligatures:normal;font-variant-numeric:normal"/>
   <path d="m172.70093 326.24107q0.37896 0 0.58567 0.68902-0.17226 0.62011-0.68902 0.62011h-0.10336q-0.37896 0-0.48231-0.58566 0-0.44786 0.65457-0.72347zm0.12058 2.54937q0.37896 0 0.37896 1.58474l0.0344 1.6881q-0.0861 7.32083-0.24116 7.32083-0.37896 0.41341-0.68902 0.41341-0.37896 0-0.51676-0.96463l0.0344-0.0344v-0.0345l0.34451-3.13504 0.0689-3.37619-0.10335-2.5666q0.12058-0.89572 0.68902-0.89572z" style="font-feature-settings:normal;font-variant-caps:normal;font-variant-ligatures:normal;font-variant-numeric:normal"/>
   <path d="m176.18909 326.51668q0.75792 0 1.79145 0.82682 0.17225 0.31006 0.17225 0.62012 0 1.54168-0.99907 2.13596-1.1455 0.3445-1.89481 0.3445-0.17225 0.18087-0.17225 0.55122v0.58567q0 1.86896 0.48231 4.20301 0 1.25746 0.96463 2.44602 0.30144 0.24116 0.44786 0.24116h0.24116q0.34451-0.12919 0.86127-0.44786l0.20671-0.0345q0.24977 0 0.37896 0.41342 0 0.77514-1.20579 1.55029l-0.55121 0.10335q-0.49093 0-1.72255-1.34359-0.65457-1.02491-0.65457-2.48046-0.44786-2.18764-0.51676-5.58106 0-1.37804 0.96463-3.4451 0.80959-0.68901 1.20578-0.68901zm-0.79237 2.75607 0.17225 0.10336q1.08521 0 1.44694-0.58567 0.10335-0.18087 0.10335-0.34451v-0.1378q0-0.51677-0.65456-0.51677-0.91295 0-1.06798 1.44694z" style="font-feature-settings:normal;font-variant-caps:normal;font-variant-ligatures:normal;font-variant-numeric:normal"/>
   <path d="m182.81228 328.73015q0.82683 0.28422 1.13689 0.89572l0.0344 0.17226q-0.12058 0.65457-0.55122 0.65457-0.25838 0-0.89572-0.58567h-0.27561q-0.78376 0-1.52446 0.80099-0.74069 0.80098-0.21531 4.87481 0.53399 4.07382-0.0775 3.75515l-0.62012 0.0172q-0.33589-0.16365-0.41341-4.10828-0.0689-3.95325-0.23254-6.11505 0-0.55121 0.72347-0.55121 0.44786 0 0.44786 0.41341l-0.0344 0.51677q0.0689 0.15502 0.1378 0.17225h0.13781q0.79237-0.91295 2.22208-0.91295z" style="font-feature-settings:normal;font-variant-caps:normal;font-variant-ligatures:normal;font-variant-numeric:normal"/>
  </g>
  <g transform="matrix(.35652294 .86259838 -.85397633 .21542054 312.92306 189.91164)">
   <g transform="matrix(.1229936 -.45600224 .43332159 .12943126 -184.08599 421.56698)" stroke-width=".25220844">
    <path d="m676.95561 153.50839c-0.28885-2.24835-3.05053-3.16424-4.62554-1.53366l-6.11024 6.32382-6.11023 6.32382c-1.57503 1.63008-0.56508 4.35868 1.69161 4.57014l17.37996 1.62937z" fill="#2196f3"/>
    <path d="m677.85968 169.54552-18.20534-6.78522c-0.97359-0.36291-1.25551-1.60567-0.5333-2.35287l8.96188-9.27514c0.72195-0.7472 1.97366-0.50838 2.36979 0.45218z" fill="#29b6f6"/>
    <path d="m711.64472 214.67285 6.11024-6.32383 6.11024-6.32382c1.57502-1.63007 0.56507-4.35867-1.69187-4.57013l-17.37997-1.62937 2.22532 17.31375c0.28935 2.24809 3.05102 3.16347 4.62604 1.5334z" fill="#2196f3"/>
   </g>
   <g transform="matrix(.109804 .03066361 -.02913846 .11555129 -39.163519 91.656727)" fill="#29b6f6">
    <path d="m304.28 207.544 71.711-28.139c3.835-1.505 4.868-6.451 1.954-9.364l-36.16-36.16c-2.913-2.913-7.859-1.881-9.364 1.954z"/>
    <path d="m329.294 209.753c-1.524-14.356-12.866-25.698-27.223-27.223l-44.247-4.698 0.034 0.034c-24.89-2.659-50.72 5.544-69.798 24.623-19.064 19.063-27.276 44.871-24.635 69.743l4.698 44.247c1.524 14.356 12.866 25.698 27.223 27.223l44.247 4.698c24.873 2.64 50.68-5.571 69.743-24.635 19.078-19.078 27.281-44.909 24.623-69.798l0.034 0.034z"/>
   </g>
  </g>
  <g transform="matrix(.35652294 .86259838 -.85397633 .21542054 345.39096 189.91164)">
   <g transform="matrix(.1229936 -.45600224 .43332159 .12943126 -184.08599 421.56698)" stroke-width=".25220844">
    <path d="m676.95561 153.50839c-0.28885-2.24835-3.05053-3.16424-4.62554-1.53366l-6.11024 6.32382-6.11023 6.32382c-1.57503 1.63008-0.56508 4.35868 1.69161 4.57014l17.37996 1.62937z" fill="#2196f3"/>
    <path d="m677.85968 169.54552-18.20534-6.78522c-0.97359-0.36291-1.25551-1.60567-0.5333-2.35287l8.96188-9.27514c0.72195-0.7472 1.97366-0.50838 2.36979 0.45218z" fill="#29b6f6"/>
    <path d="m711.64472 214.67285 6.11024-6.32383 6.11024-6.32382c1.57502-1.63007 0.56507-4.35867-1.69187-4.57013l-17.37997-1.62937 2.22532 17.31375c0.28935 2.24809 3.05102 3.16347 4.62604 1.5334z" fill="#2196f3"/>
   </g>
   <g transform="matrix(.109804 .03066361 -.02913846 .11555129 -39.163519 91.656727)" fill="#29b6f6">
    <path d="m304.28 207.544 71.711-28.139c3.835-1.505 4.868-6.451 1.954-9.364l-36.16-36.16c-2.913-2.913-7.859-1.881-9.364 1.954z"/>
    <path d="m329.294 209.753c-1.524-14.356-12.866-25.698-27.223-27.223l-44.247-4.698 0.034 0.034c-24.89-2.659-50.72 5.544-69.798 24.623-19.064 19.063-27.276 44.871-24.635 69.743l4.698 44.247c1.524 14.356 12.866 25.698 27.223 27.223l44.247 4.698c24.873 2.64 50.68-5.571 69.743-24.635 19.078-19.078 27.281-44.909 24.623-69.798l0.034 0.034z"/>
   </g>
  </g>
  <g transform="matrix(.35652294 .86259838 -.85397633 .21542054 376.26394 189.91164)">
   <g transform="matrix(.1229936 -.45600224 .43332159 .12943126 -184.08599 421.56698)" stroke-width=".25220844">
    <path d="m676.95561 153.50839c-0.28885-2.24835-3.05053-3.16424-4.62554-1.53366l-6.11024 6.32382-6.11023 6.32382c-1.57503 1.63008-0.56508 4.35868 1.69161 4.57014l17.37996 1.62937z" fill="#2196f3"/>
    <path d="m677.85968 169.54552-18.20534-6.78522c-0.97359-0.36291-1.25551-1.60567-0.5333-2.35287l8.96188-9.27514c0.72195-0.7472 1.97366-0.50838 2.36979 0.45218z" fill="#29b6f6"/>
    <path d="m711.64472 214.67285 6.11024-6.32383 6.11024-6.32382c1.57502-1.63007 0.56507-4.35867-1.69187-4.57013l-17.37997-1.62937 2.22532 17.31375c0.28935 2.24809 3.05102 3.16347 4.62604 1.5334z" fill="#2196f3"/>
   </g>
   <g transform="matrix(.109804 .03066361 -.02913846 .11555129 -39.163519 91.656727)" fill="#29b6f6">
    <path d="m304.28 207.544 71.711-28.139c3.835-1.505 4.868-6.451 1.954-9.364l-36.16-36.16c-2.913-2.913-7.859-1.881-9.364 1.954z"/>
    <path d="m329.294 209.753c-1.524-14.356-12.866-25.698-27.223-27.223l-44.247-4.698 0.034 0.034c-24.89-2.659-50.72 5.544-69.798 24.623-19.064 19.063-27.276 44.871-24.635 69.743l4.698 44.247c1.524 14.356 12.866 25.698 27.223 27.223l44.247 4.698c24.873 2.64 50.68-5.571 69.743-24.635 19.078-19.078 27.281-44.909 24.623-69.798l0.034 0.034z"/>
   </g>
  </g>
  <g fill="#fff" stroke="#2196f3" stroke-width="1.0583334">
   <g style="font-feature-settings:normal;font-variant-caps:normal;font-variant-ligatures:normal;font-variant-numeric:normal" aria-label="1">
    <path d="m196.87912 195.32431-2.79053 0.0775-0.76653 0.62873v2.64411l0.68902-0.31867 0.0775 8.33713h3.01446z" fill="#fff" stroke="#2196f3" stroke-width="1.0583334" style="font-feature-settings:normal;font-variant-caps:normal;font-variant-ligatures:normal;font-variant-numeric:normal"/>
   </g>
   <g style="font-feature-settings:normal;font-variant-caps:normal;font-variant-ligatures:normal;font-variant-numeric:normal" aria-label="2">
    <path d="m230.49634 195.78619q-2.59243-1.57613-4.82313-0.0258-1.11966 0.81821-1.97232 2.02399l1.73977 2.20486q0.22393-0.36173 0.62873-0.67179 0.89573-0.89573 1.80006-0.70625 0.50816 0.11197 0.41342 0.68902-0.0775 0.49093-0.57706 1.2833-0.93879 1.47278-2.29099 2.3685-0.58566 0.49954-1.0852 0.8785l-0.20671 3.04891 7.00216 0.14642 9e-3 -2.91972-3.53983 0.16364q1.67948-1.55029 2.87665-3.37619 1.05076-1.59336 1.17133-2.79914 0.16365-1.50723-1.14549-2.30822z" fill="#fff" stroke="#2196f3" stroke-width="1.0583334" style="font-feature-settings:normal;font-variant-caps:normal;font-variant-ligatures:normal;font-variant-numeric:normal"/>
   </g>
   <g style="font-feature-settings:normal;font-variant-caps:normal;font-variant-ligatures:normal;font-variant-numeric:normal" aria-label="3">
    <path d="m254.67339 195.48699 0.0775 2.62688 3.3159-0.0775-2.79053 2.02399q0.76654-0.11196 1.50723 0.0861 1.49862 0.39619 1.45555 1.95509-0.0517 1.56752-1.50722 1.54168-0.73209-0.0172-1.45556-0.34451l-0.6804 2.80775q1.24023 0.39619 2.7044 0.42203 2.90249 0.0603 3.97047-1.76561 1.46416-2.51492-0.0258-4.2547-0.74931-0.86988-1.71393-1.32636l2.98-3.66041z" fill="#fff" stroke="#2196f3" stroke-width="1.0583334" style="font-feature-settings:normal;font-variant-caps:normal;font-variant-ligatures:normal;font-variant-numeric:normal"/>
   </g>
   <g transform="translate(0 -.8739292)" style="font-feature-settings:normal;font-variant-caps:normal;font-variant-ligatures:normal;font-variant-numeric:normal" aria-label="4">
    <path d="m228.58909 230.36404h-1.80006l0.0775-3.85851-2.97139 0.0861v6.25284l4.5303 0.16365-0.32729 5.02122 3.11781 0.0775 0.24977-11.60136h-2.79914z" fill="#fff" stroke="#2196f3" stroke-width="1.0583334" style="font-feature-settings:normal;font-variant-caps:normal;font-variant-ligatures:normal;font-variant-numeric:normal"/>
   </g>
  </g>
  <rect x="153.33253" y="167.51413" width="148.69583" height="135.46667" opacity="0" stroke-width="1.16088593"/>
 </g>
</svg>
