<?xml version="1.0" encoding="UTF-8"?>
<!-- Created with Inkscape (http://www.inkscape.org/) -->
<svg width="511.99997" height="511.99997" version="1.1" viewBox="0 0 135.46666 135.46666" xmlns="http://www.w3.org/2000/svg" xmlns:cc="http://creativecommons.org/ns#" xmlns:dc="http://purl.org/dc/elements/1.1/" xmlns:rdf="http://www.w3.org/1999/02/22-rdf-syntax-ns#">
 <metadata>
  <rdf:RDF>
   <cc:Work rdf:about="">
    <dc:format>image/svg+xml</dc:format>
    <dc:type rdf:resource="http://purl.org/dc/dcmitype/StillImage"/>
    <dc:title/>
   </cc:Work>
  </rdf:RDF>
 </metadata>
 <g transform="translate(-3.3782206,-3.4808335)">
  <rect x="3.3782206" y="3.4808335" width="135.46666" height="135.46666" opacity="0" stroke-width="1.86689615"/>
  <g transform="matrix(1.0013018 0 0 1.0013019 -.00439395 -.00452835)" stroke-width="2.04184961">
   <path d="m60.550002 105.57331c-24.769676 0-44.920688-20.610432-44.920688-45.94162 0-25.331184 20.151012-45.941612 44.920688-45.941612 24.76968 0 44.920688 20.610428 44.920688 45.941612 0 25.331188-20.151008 45.94162-44.920688 45.94162zm0-87.799534c-22.517516 0-40.83699 18.776848-40.83699 41.857914 0 23.081067 18.319474 41.85791 40.83699 41.85791 22.517517 0 40.836988-18.776843 40.836988-41.85791 0-23.081066-18.319471-41.857914-40.836988-41.857914z" fill="#cbb292"/>
   <g fill="#fae">
    <circle cx="60.549999" cy="15.731927" r="12.251097"/>
    <circle cx="60.549999" cy="103.53145" r="12.251097"/>
    <circle cx="103.42884" cy="59.631691" r="12.251097"/>
    <circle cx="15.629313" cy="59.631691" r="12.251097"/>
   </g>
   <g fill="#afe9dd">
    <circle cx="29.209654" cy="27.868681" r="12.251097"/>
    <circle cx="91.292091" cy="89.951111" r="12.251097"/>
    <circle cx="90.571312" cy="28.589455" r="12.251097"/>
    <circle cx="28.486839" cy="90.67392" r="12.251097"/>
   </g>
  </g>
  <g transform="matrix(.87921776 -.23558569 .21658684 .80831309 -22.634849 41.832041)">
   <rect x="78.181686" y="114.09344" width="70.942642" height="29.921387" ry="4.3434272" fill="#ffe680"/>
   <rect x="83.33075" y="116.26515" width="60.644516" height="25.577959" ry="3.7129297" fill="#fff"/>
  </g>
  <g transform="rotate(-15)" fill="#424242" stroke-width=".26458332" style="font-feature-settings:normal;font-variant-caps:normal;font-variant-ligatures:normal;font-variant-numeric:normal" aria-label="Jimena">
   <path d="m58.844505 134.83672h0.172254q0.938789 0 1.033529 0.24115v0.10336q0 0.4737-0.757921 0.65456-0.585666 0-0.585666 0.48232-0.103353 0-0.241157 6.16672-0.266995 5.0729-0.826823 5.58105-0.792372 0.71486-1.688097 0.96463-0.706244 0-1.688097-1.72255l-0.03445-0.24115q0-0.22393 0.413411-0.51677 0.18948 0 1.136882 1.13688l0.103352 0.0689h0.206706q0.775147 0 1.06798-1.13689 0.318671-0.45647 0.482313-7.16579l-0.0689-0.82683v-2.30821q-0.02584-0.48232-0.172255-0.48232-0.292833 0-1.171332 0.24116-0.215319 0-0.275608-0.65457 0-0.55121 0.964627-0.55121z" style="font-feature-settings:normal;font-variant-caps:normal;font-variant-ligatures:normal;font-variant-numeric:normal"/>
   <path d="m60.765145 135.68077q0.378961 0 0.585666 0.68901-0.172254 0.62012-0.689019 0.62012h-0.103353q-0.37896 0-0.482313-0.58566 0-0.44787 0.654568-0.72347zm0.120578 2.54937q0.378961 0 0.378961 1.58474l0.03445 1.6881q-0.08613 7.32083-0.241157 7.32083-0.37896 0.41341-0.689019 0.41341-0.37896 0-0.516764-0.96463l0.03445-0.0345v-0.0344l0.344509-3.13504 0.0689-3.37619-0.103353-2.5666q0.120579-0.89572 0.689019-0.89572z" style="font-feature-settings:normal;font-variant-caps:normal;font-variant-ligatures:normal;font-variant-numeric:normal"/>
   <path d="m62.875266 135.98221q0.654568 0 0.654568 1.48139 0.08613 0.24116 0.137804 0.24116 0.129191-0.0775 0.447862-0.72347 0.611505-0.68041 1.240235-0.82682 0.56844 0 1.10243 1.10243l0.275608 1.20578 0.137804 0.44786 0.103353 0.0689q0.28422-0.6115 0.757921-1.92064 0.456475-0.68902 1.136881-0.68902 0.749308 0 0.999078 0.48232 0.551215 1.61919 0.551215 2.44602v0.0689q-0.275607 1.68809-0.37896 6.14949l0.01722 1.757q-0.06029 1.80868-0.37896 1.80868l-0.310059 0.1378q-0.585666-0.0947-0.585666-0.58567v-0.0689q0-1.42971 0.120578-3.46232 0.34451-5.20209 0.34451-6.01169v-0.20671q0-1.12826-0.378961-1.30913h-0.137804q-0.439249 0.24977-0.620117 0.82682-0.206706 0.3359-0.482313 1.34359-0.387573 1.14549-0.620117 3.97908-0.34451 2.22209-0.34451 3.41065 0.0086 0.21532 0.103353 0.41341-0.129191 0.21532-0.241157 0.72347-0.249769 0.27561-0.551215 0.27561-0.559828 0-0.654568-0.75792 0.198093-1.41249 0.37896-9.01754 0-1.08521-0.447862-1.58475h-0.03445q-0.508152 0.38758-1.119656 1.38666-0.611505 0.99907-0.602892 2.4374-0.08613 0-0.146416 3.96186-0.06029 3.95325-0.301446 3.95325 0 0.0689-0.413412 0.17225-0.215318 0-0.413411-0.51676l0.344509-11.53246v-0.72347q0-0.27561 0.310059-0.34451z" style="font-feature-settings:normal;font-variant-caps:normal;font-variant-ligatures:normal;font-variant-numeric:normal"/>
   <path d="m73.07275 135.95637q0.757921 0 1.791449 0.82683 0.172255 0.31005 0.172255 0.62011 0 1.54168-0.999078 2.13596-1.145494 0.34451-1.894802 0.34451-0.172255 0.18087-0.172255 0.55122v0.58566q0 1.86897 0.482314 4.20302 0 1.25746 0.964626 2.44602 0.301446 0.24115 0.447863 0.24115h0.241156q0.34451-0.12919 0.861274-0.44786l0.206706-0.0344q0.249769 0 0.378961 0.41341 0 0.77515-1.205784 1.5503l-0.551215 0.10335q-0.490926 0-1.722548-1.34359-0.654568-1.02491-0.654568-2.48047-0.447863-2.18763-0.516764-5.58105 0-1.37804 0.964626-3.4451 0.809598-0.68902 1.205784-0.68902zm-0.792372 2.75608 0.172255 0.10335q1.085205 0 1.44694-0.58566 0.103353-0.18087 0.103353-0.34451v-0.13781q0-0.51676-0.654569-0.51676-0.91295 0-1.067979 1.44694z" style="font-feature-settings:normal;font-variant-caps:normal;font-variant-ligatures:normal;font-variant-numeric:normal"/>
   <path d="m80.695024 136.38701q0.551215 0.17225 0.861273 0.93018 0.206706 0.24977 0.482314 1.8259-0.310059 5.04706-0.275608 7.55337l0.03445 1.6881q0 0.96462-0.654568 0.96462-0.551215 0-0.551215-0.79237 0.103353-5.46048 0.275607-7.82898l0.0689-2.06706-0.447862-1.10243q-0.146417-0.1378-0.275608-0.1378h-0.172255q-0.585666-0.0344-2.153184 3.89296-0.551216 1.41249-0.551216 1.72254v1.37804l0.103353 2.24793-0.0689 0.99908v0.0344l0.0689 0.65456q0 0.31868-0.654568 0.68902-0.585666-0.16364-0.585666-0.96462l-0.0689-1.10243q0.137804-3.22117 0.103353-9.20702 0-1.20579 0.310058-1.20579 0.232544-0.2067 0.482314-0.2067 0.344509 0 0.344509 0.41341l-0.0689 2.41157q0.04306 0.17225 0.103353 0.17225h0.206706q0.06029 0 0.930176-1.61919 0.852661-1.20579 1.205783-1.20579 0.396186-0.31005 0.947402-0.1378z" style="font-feature-settings:normal;font-variant-caps:normal;font-variant-ligatures:normal;font-variant-numeric:normal"/>
   <path d="m85.208098 136.14585q0.714857 0.24977 1.240234 0.99908 0.482314 0.88711 0.800985 2.26515 0.327284 1.37804 0.370348 4.00493-0.02584 3.10919-0.198093 3.51399 0 1.99816-0.585666 1.99816 0 0.0861-2.695788 0.10335-0.775146 0-1.274685-1.27468-0.137804-0.56845-0.137804-0.99908v-0.17226q0-1.19717 0.999078-2.48047 0.602892-0.68901 1.550293-0.68901l0.757921 0.0344h0.37896l0.03445-0.37896 0.03445-1.72255q0-1.44694-0.930175-3.5829-0.258383-0.31006-0.516765-0.31006h-0.137804q-0.103353 0-0.826823 0.48231h-0.0689q-0.551216-0.25838-0.551216-0.58566v-0.13781q0.904338-1.06798 1.756999-1.06798zm-1.309136 10.26639v0.27561q0 0.76653 0.37896 1.06798h0.0689q1.765612-0.0775 1.800062-0.0861 0.310059-1.54168 0.02584-2.5666-0.275608-0.48231-0.895725-0.48231-0.62873 0-1.309136 1.20578z" style="font-feature-settings:normal;font-variant-caps:normal;font-variant-ligatures:normal;font-variant-numeric:normal"/>
  </g>
 </g>
</svg>
