<?xml version="1.0" encoding="UTF-8"?>
<!-- Created with Inkscape (http://www.inkscape.org/) -->
<svg width="562" height="511.99997" version="1.1" viewBox="0 0 148.69583 135.46666" xmlns="http://www.w3.org/2000/svg" xmlns:cc="http://creativecommons.org/ns#" xmlns:dc="http://purl.org/dc/elements/1.1/" xmlns:rdf="http://www.w3.org/1999/02/22-rdf-syntax-ns#">
 <metadata>
  <rdf:RDF>
   <cc:Work rdf:about="">
    <dc:format>image/svg+xml</dc:format>
    <dc:type rdf:resource="http://purl.org/dc/dcmitype/StillImage"/>
    <dc:title/>
   </cc:Work>
  </rdf:RDF>
 </metadata>
 <g transform="translate(104.14318,-123.38097)">
  <rect x="-104.14318" y="123.38097" width="148.69583" height="135.46666" ry="0" opacity="0" stroke-width="1.84641564"/>
  <g transform="matrix(.36738889 0 0 .36738889 -35.221683 148.79837)">
   <g stroke-width=".26458332">
    <path d="m2.7262984 186.59438c0 21.59-14.8166664 32.80833-33.0199994 32.80833s-33.02-11.21833-33.02-32.80833 14.816667-39.15833 33.02-39.15833 33.0199994 17.56833 33.0199994 39.15833z" fill="#bf691b"/>
    <ellipse cx="-30.293701" cy="152.51604" rx="23.495001" ry="16.51" fill="#61c5f2"/>
    <path d="m7.5946317 112.72271c0-6.56166-5.2916666-12.065-12.0649998-12.065-5.7149999 0-10.5833329 4.02167-11.6416669 9.525-4.233333-1.905-9.101666-2.96333-14.181666-2.96333s-9.948333 1.05833-14.181667 2.96333c-1.058333-5.50333-5.926666-9.525-11.641666-9.525-6.561667 0-12.065 5.29167-12.065 12.065 0 5.50334 3.598333 9.94834 8.678333 11.43-1.905 3.81-3.175 8.04334-3.175 12.7 0 16.29834 14.605 24.765 32.385 24.765 17.991666 0 32.3849994-8.46666 32.3849994-24.765 0-4.445-1.0583333-8.89-3.1749999-12.7 5.0799999-1.27 8.6783332-5.92666 8.6783332-11.43z" fill="#d67d34"/>
    <path d="m-39.183701 136.85271c0 2.32834-1.905 4.02167-4.021667 4.02167-2.328333 0-4.021666-1.905-4.021666-4.02167 0-2.32833 1.905-4.02166 4.021666-4.02166 2.116667 0 4.021667 1.69333 4.021667 4.02166z" fill="#1e4784"/>
    <path d="m-12.725368 136.85271c0 2.32834-1.905 4.02167-4.021667 4.02167-2.328333 0-4.021666-1.905-4.021666-4.02167 0-2.32833 1.905-4.02166 4.021666-4.02166 2.328334 0 4.021667 1.69333 4.021667 4.02166z" fill="#1e4784"/>
    <path d="m-49.978701 108.48938c2.751667 2.75167 1.481667 5.29167-1.693333 8.46667s-6.773333 5.715-9.525 2.96333-2.54-7.62 0.635-10.58333c3.175-2.96334 7.831666-3.59834 10.583333-0.84667z" fill="#aa550e"/>
    <path d="m-10.608701 108.48938c-2.751667 2.75167-1.481667 5.29167 1.6933329 8.46667 3.175 3.175 6.7733333 5.715 9.52499989 2.96333 2.75166661-2.75167 2.54000001-7.62-0.63499999-10.58333-3.175-2.96334-7.8316666-3.59834-10.5833328-0.84667z" fill="#aa550e"/>
    <path d="m-23.097035 143.62605c0 1.905-3.175 4.86833-7.196666 4.86833-4.021667 0-7.196667-2.75167-7.196667-4.86833 0-1.905 3.175-3.59834 7.196667-3.59834 4.021666 0 7.196666 1.69334 7.196666 3.59834z" fill="#7f144f"/>
    <path d="m-9.5503681 191.46271c0 13.54667-9.3133329 24.55333-20.7433329 24.55333s-20.743333-11.00666-20.743333-24.55333c0-13.54666 9.313333-17.35666 20.743333-17.35666s20.7433329 3.81 20.7433329 17.35666z" fill="#efbc73"/>
    <path d="m-52.730368 170.29605c-5.714999 6.35-17.356666 5.50333-25.823333-2.11667-8.466666-7.62-6.561666-15.45167-0.846666-21.80167s9.736666-5.08 18.203333 2.54c8.466666 7.40834 14.181666 14.81667 8.466666 21.37834z" fill="#bf691b"/>
   </g>
   <ellipse transform="rotate(213.8903)" cx="-20.78805" cy="-168.45953" rx="3.598304" ry="7.6199379" fill="#efbc73" stroke-width=".26458117"/>
   <path d="m-7.8570348 170.29605c5.715 6.35 17.3566665 5.50333 25.8233328-2.11667 8.466667-7.62 6.561667-15.45167 0.846667-21.80167s-9.7366667-5.08-18.20333321 2.54c-8.46666659 7.40834-14.18166679 14.81667-8.46666659 21.37834z" fill="#bf691b" stroke-width=".26458332"/>
   <ellipse transform="rotate(146.1097)" cx="71.114601" cy="-134.7431" rx="3.598304" ry="7.6199379" fill="#efbc73" stroke-width=".26458117"/>
   <g stroke-width=".26458332">
    <path d="m-48.285368 209.45438c2.328334 8.46666 23.283333 6.56166 11.43 9.94833s-37.888333 15.24-48.683332 0.635c-5.08-6.985-5.291667-21.59 8.466666-20.32 12.488333 1.05834 26.458333 1.48167 28.786666 9.73667z" fill="#bf691b"/>
    <path d="m-77.918701 212.62938c1.905 4.445 1.905 8.67833 0.211667 9.525-1.905 0.84666-4.868333-2.32834-6.773333-6.77334s-1.905-8.67833-0.211667-9.525c1.905-0.635 4.868333 2.32834 6.773333 6.77334z" fill="#efbc73"/>
    <path d="m-12.302035 209.45438c-2.328333 8.46666-23.283333 6.56166-11.43 9.94833 11.853334 3.38667 37.888333 15.24 48.683333 0.635 5.08-6.985 5.291667-21.59-8.466666-20.32-12.4883336 1.05834-26.4583334 1.48167-28.786667 9.73667z" fill="#bf691b"/>
    <path d="m17.331298 212.62938c-1.905 4.445-1.905 8.67833-0.211666 9.525 1.905 0.84666 4.868333-2.32834 6.773333-6.77334s1.905-8.67833 0.211666-9.525c-1.904999-0.635-4.868333 2.32834-6.773333 6.77334z" fill="#efbc73"/>
   </g>
  </g>
  <g transform="matrix(.09946512 0 0 .09946512 -27.592741 180.09549)">
   <g fill="#965353">
    <path d="m405.006 223.981h-65.264c-4.469-11.281-8.328-27.749-9.609-34.092l-1.734-8.547h-144.825l-1.719 8.547c-1.281 6.343-5.141 22.811-9.609 34.092h-65.28c-15.89 0-53.327 15.75-53.327 53.343 0 37.578 37.437 53.344 53.327 53.344h30.203c-1.297 20.373-0.656 59.732 2 78.482 3.391 23.891 10.062 50.061 21.688 84.889l2.422 7.297h185.418l2.438-7.297c11.609-34.828 18.297-60.998 21.672-84.889 2.654-18.75 3.311-58.109 2.016-78.482h30.186c15.906 0 53.344-15.766 53.344-53.344-4e-3 -37.593-37.441-53.343-53.347-53.343z"/>
    <path d="m224.306 63.999c0 35.359-28.655 63.999-63.999 63.999s-64-28.64-64-63.999c0-35.343 28.656-63.999 64-63.999s63.999 28.657 63.999 63.999z"/>
    <path d="m416.303 63.999c0 35.359-28.656 63.999-63.998 63.999s-63.998-28.64-63.998-63.999c0-35.343 28.656-63.999 63.998-63.999s63.998 28.657 63.998 63.999z"/>
   </g>
   <g fill="#f4be8e">
    <path d="m192.307 63.999c0 17.688-14.328 32-32 32s-32-14.312-32-32c0-17.671 14.328-31.999 32-31.999s32 14.328 32 31.999z"/>
    <path d="m384.303 63.999c0 17.688-14.326 32-31.998 32s-31.998-14.312-31.998-32c0-17.671 14.326-31.999 31.998-31.999s31.998 14.328 31.998 31.999z"/>
   </g>
   <path d="m255.681 21.266c-76.483 0-138.498 62.015-138.498 138.498s62.015 138.482 138.498 138.482 138.481-62 138.481-138.482-61.998-138.498-138.481-138.498z" fill="#a85d5d"/>
   <g fill="#f4be8e">
    <path d="m255.681 159.998c-29.406 0-53.327 23.938-53.327 53.342 0 29.406 23.921 53.328 53.327 53.328 29.407 0 53.329-23.921 53.329-53.328 0-29.405-23.922-53.342-53.329-53.342z"/>
    <path d="m341.633 490.664c-10.766 0-21.092-5.125-29.061-14.422-8.766-10.234-13.609-24.047-13.609-38.904 0-14.859 4.844-28.672 13.609-38.922 7.969-9.297 18.295-14.422 29.061-14.422s21.094 5.125 29.062 14.422c8.764 10.25 13.607 24.062 13.607 38.922 0 14.857-4.844 28.67-13.607 38.904-7.969 9.297-18.297 14.422-29.062 14.422z"/>
    <path d="m170.964 490.664c-10.765 0-21.078-5.125-29.046-14.422-8.781-10.234-13.609-24.047-13.609-38.904 0-14.859 4.828-28.672 13.609-38.922 7.969-9.297 18.281-14.422 29.046-14.422 10.781 0 21.094 5.125 29.062 14.422 8.781 10.25 13.609 24.062 13.609 38.922 0 14.857-4.828 28.67-13.609 38.904-7.969 9.297-18.281 14.422-29.062 14.422z"/>
   </g>
   <g fill="#a85d5d">
    <path d="m341.633 362.666c-35.342 0-63.998 33.438-63.998 74.672 0 41.232 28.656 74.654 63.998 74.654s63.998-33.422 63.998-74.654c0-41.235-28.657-74.672-63.998-74.672zm12.859 99.701c-2.719 3.172-7.172 6.969-12.859 6.969s-10.125-3.797-12.859-6.969c-5.391-6.281-8.467-15.406-8.467-25.029 0-9.625 3.076-18.75 8.467-25.031 2.734-3.188 7.172-6.969 12.859-6.969s10.141 3.781 12.859 6.969c5.391 6.281 8.469 15.406 8.469 25.031 0 9.623-3.078 18.748-8.469 25.029z"/>
    <path d="m170.964 362.666c-35.343 0-63.999 33.438-63.999 74.672 0 41.232 28.656 74.654 63.999 74.654 35.359 0 63.999-33.422 63.999-74.654 0-41.235-28.64-74.672-63.999-74.672zm12.859 99.701c-2.719 3.172-7.156 6.969-12.859 6.969-5.687 0-10.125-3.797-12.859-6.969-5.375-6.281-8.469-15.406-8.469-25.029 0-9.625 3.094-18.75 8.469-25.031 2.734-3.188 7.172-6.969 12.859-6.969 5.703 0 10.141 3.781 12.859 6.969 5.391 6.281 8.484 15.406 8.484 25.031 0 9.623-3.093 18.748-8.484 25.029z"/>
   </g>
   <g fill="#434a54">
    <path d="m288.306 106.671c5.891 0 10.656 4.781 10.656 10.671 0 5.891-4.766 10.656-10.656 10.656s-10.672-4.766-10.672-10.656c1e-3 -5.89 4.782-10.671 10.672-10.671z"/>
    <path d="m224.306 106.671c5.891 0 10.656 4.781 10.656 10.671 0 5.891-4.766 10.656-10.656 10.656s-10.672-4.766-10.672-10.656c1e-3 -5.89 4.782-10.671 10.672-10.671z"/>
    <path d="m256.306 181.342c5.891 0 10.657 4.766 10.657 10.656 0 5.891-4.766 10.671-10.657 10.671s-10.671-4.781-10.671-10.671c0-5.891 4.78-10.656 10.671-10.656z"/>
   </g>
   <path d="m326.164 252.465c-2.953-1.984-6.717-2.344-9.998-0.984l-59.922 24.843-59.905-24.843c-3.297-1.359-7.047-0.984-10.016 0.984-2.969 1.984-4.734 5.312-4.734 8.875v64c0 3.562 1.766 6.891 4.734 8.875 1.781 1.188 3.844 1.797 5.922 1.797 1.391 0 2.781-0.281 4.094-0.828l59.905-24.844 59.922 24.844c1.312 0.547 2.703 0.828 4.078 0.828 2.078 0 4.139-0.609 5.92-1.797 2.969-1.984 4.75-5.312 4.75-8.875v-64c0-3.563-1.781-6.89-4.75-8.875z" fill="#da4453"/>
   <path d="m256.369 266.668c-14.703 0-26.671 11.969-26.671 26.672s11.968 26.656 26.671 26.656c14.704 0 26.672-11.953 26.672-26.656s-11.969-26.672-26.672-26.672z" fill="#ed5564"/>
  </g>
  <g transform="matrix(.33915211 0 0 .33915211 -63.030784 87.362036)" stroke-width=".26458332">
   <path d="m45.533594 221.05507c0 11.38502-9.22946 20.61448-20.614481 20.61448-6.439958 0-12.18856-2.95433-15.9686623-7.58004-9.32629783 4.84002-19.9170397 7.58004-31.1501897 7.58004-11.233149 0-21.823891-2.74002-31.149924-7.58004-3.780367 4.62571-9.528969 7.58004-15.968927 7.58004-11.385021 0-20.614481-9.22946-20.614481-20.61448 0-6.99981 3.491971-13.18101 8.825971-16.90687l-0.706438-0.76227c-6.228291-4.22777-9.653587-12.42139-7.448814-20.66184l1.639093-5.19112c4.294188-13.59932 13.109311-24.63694 24.340079-31.51717h0.0042c-0.09551-0.98795-0.14949-1.98834-0.14949-3.00143 0-8.35978 3.318933-15.94326 8.709025-21.50877-1.733285-1.61317-2.819135-3.91319-2.819135-6.46801-2.65e-4 -4.87918 3.954991-8.8347 8.834437-8.8347 4.189677 0 7.695406 2.9173 8.603721 6.83048 2.429668-0.6133 4.973373-0.94059 7.593541-0.94059h20.614481c2.620169 0 5.1636085 0.32729 7.5935418 0.94059 0.90805-3.91318 4.41377915-6.83048 8.6034562-6.83048 4.8794458 0 8.834702 3.95526 8.834702 8.8347 0 2.55482-1.08585 4.85484-2.819135 6.46801 5.390091 5.56524 8.709024 13.14899 8.709024 21.50877 0 1.01309-0.05424 2.01348-0.149489 3.00143h0.0042c11.230769 6.88023 20.045892 17.91759 24.340079 31.51717l1.639094 5.19112c2.204508 8.24045-1.220788 16.43407-7.448815 20.66184l-0.706437 0.76227c5.333735 3.72586 8.825706 9.90706 8.825706 16.90687z" fill="#8c6951"/>
   <path d="m-44.32843 171.59387c-11.211983-4.64291-19.100271-15.689-19.100271-28.57924 0-8.35977 3.318934-15.94326 8.709025-21.50877-1.733285-1.61316-2.819135-3.91319-2.819135-6.468 0-4.87945 3.955256-8.83497 8.834702-8.83497 4.189677 0 7.695406 2.9173 8.603721 6.83048 2.429668-0.6133 4.973373-0.94059 7.593541-0.94059h20.614481c2.620169 0 5.1636085 0.32729 7.5935418 0.94059 0.90805-3.91318 4.41377915-6.83048 8.6034562-6.83048 4.8794458 0 8.834702 3.95526 8.834702 8.8347 0 2.55482-1.08585 4.85484-2.819135 6.46801 5.390091 5.56524 8.709024 13.14899 8.709024 21.50877 0 12.89023-7.888287 23.93632-19.10027013 28.57923z" fill="#a57d62"/>
   <path d="m4.9541841 189.3609c-0.193675 0.19765-21.1259211 21.54079-21.1259211 21.54079-3.329252 3.3946-8.727016 3.3946-12.056268 0 0 0-20.932246-21.34341-21.125921-21.54079-7.338748-7.48294-7.338748-19.61488 0-27.09809 7.338748-7.48269 19.237325-7.48269 26.576073 0 0.193675 0.19738 0.381 0.39872 0.564621 0.60245l0.01323-0.0135 0.01323 0.0135c0.183356-0.20373 0.370681-0.40534 0.564621-0.60245 7.338748-7.48269 19.2373246-7.48269 26.5760725 0 7.3390125 7.48294 7.3390125 19.61541 2.646e-4 27.09809z" fill="#f25243"/>
   <path d="m-39.869407 193.0783c0 8.9453-7.2517 16.19699-16.196998 16.19699h-17.669668c-8.945298 0-16.196998-7.25196-16.196998-16.19699 0-8.9453 7.2517-16.197 16.196998-16.197h17.669668c8.945563-2.7e-4 16.196998 7.2517 16.196998 16.197zm69.206003-16.19727h-17.669668c-8.9455627 0-16.196998 7.2517-16.196998 16.197s7.2516999 16.197 16.196998 16.197h17.669668c8.945563 0 16.196998-7.25196 16.196998-16.197 0-8.94503-7.2517-16.197-16.196998-16.197z" fill="#bc8e6f"/>
   <path d="m-48.704109 221.05507c0 11.38502-9.22946 20.61448-20.614481 20.61448s-20.614481-9.22946-20.614481-20.61448 9.22946-20.61448 20.614481-20.61448 20.614481 9.22946 20.614481 20.61448zm73.623222-20.61448c-11.385021 0-20.614481 9.22946-20.614481 20.61448s9.22946 20.61448 20.614481 20.61448 20.614481-9.22946 20.614481-20.61448-9.22946-20.61448-20.614481-20.61448z" fill="#a57d62"/>
   <path d="m-54.593999 218.11026c0 6.50558-5.273939 11.77978-11.779779 11.77978-6.505574 0-11.779779-5.2742-11.779779-11.77978 0-6.50557 5.27394-11.77978 11.779779-11.77978 6.50584 0 11.779779 5.27394 11.779779 11.77978zm76.5683-11.77978c-6.505575 0-11.77978 5.27421-11.77978 11.77978 0 6.50558 5.274205 11.77978 11.77978 11.77978 6.505574 0 11.779779-5.2742 11.779779-11.77978-2.65e-4 -6.50584-5.274205-11.77978-11.779779-11.77978z" fill="#bc8e6f"/>
   <path d="m-14.837443 147.43185c0 2.43946-1.97776 4.41749-4.417483 4.41749h-5.889625c-2.439458 0-4.417483-1.97777-4.417483-4.41749s1.97776-4.41748 4.417483-4.41748h5.88989c2.439458 0 4.417218 1.97802 4.417218 4.41748z" fill="#ffb69f"/>
   <path d="m-26.617222 132.1183v0.58896c0 2.43946-1.97776 4.41748-4.417483 4.41748s-4.417483-1.97776-4.417483-4.41748v-0.58896c0-2.43946 1.97776-4.41749 4.417483-4.41749s4.417483 1.97777 4.417483 4.41749zm13.252185-4.41749c-2.439458 0-4.417483 1.97777-4.417483 4.41749v0.58896c0 2.43946 1.977761 4.41748 4.417483 4.41748 2.439459 0 4.4174837-1.97776 4.4174837-4.41748v-0.58896c0-2.43972-1.9777607-4.41749-4.4174837-4.41749z" fill="#574036"/>
  </g>
  <g transform="translate(-70.333921,117.61734)" stroke-width=".26458332">
   <path d="m-6.8217626 115.4071v13.27679c0 0.73316-0.5924021 1.32768-1.3229166 1.32768h-5.8208338c-0.730514 0-1.322916-0.59452-1.322916-1.32768v-13.27679c0-0.73316 0.592402-1.32768 1.322916-1.32768h5.8208338c0.7305145 0 1.3229166 0.59426 1.3229166 1.32768zm101.8645816-1.32768h-5.820833c-0.730514 0-1.322916 0.59452-1.322916 1.32768v13.27679c0 0.73316 0.592402 1.32768 1.322916 1.32768h5.820833c0.730515 0 1.322917-0.59452 1.322917-1.32768v-13.27679c0-0.73342-0.592402-1.32768-1.322917-1.32768zm-103.1874982-62.826104h-5.8208338c-0.730514 0-1.322916 0.594519-1.322916 1.327679v13.276791c0 0.733161 0.592402 1.32768 1.322916 1.32768h5.8208338c0.7305145 0 1.3229166-0.594519 1.3229166-1.32768v-13.276791c0-0.73316-0.5924021-1.327679-1.3229166-1.327679zm103.1874982 0h-5.820833c-0.730514 0-1.322916 0.594519-1.322916 1.327679v13.276791c0 0.733161 0.592402 1.32768 1.322916 1.32768h5.820833c0.730515 0 1.322917-0.594519 1.322917-1.32768v-13.276791c0-0.73316-0.592402-1.327679-1.322917-1.327679z" fill="#d7af87"/>
   <path d="m108.27199 112.75174v7.96608c0 0.73316-0.59241 1.32768-1.32292 1.32768h-132.820832c-0.730515 0-1.322917-0.59452-1.322917-1.32768v-7.96608c0-0.73316 0.592402-1.32768 1.322917-1.32768h132.820832c0.73051 0 1.32292 0.59426 1.32292 1.32768zm-1.32292-64.153782h-132.820832c-0.730515 0-1.322917 0.594518-1.322917 1.327679v7.966075c0 0.73316 0.592402 1.327679 1.322917 1.327679h132.820832c0.73051 0 1.32292-0.594519 1.32292-1.327679v-7.966075c0-0.733161-0.59241-1.327679-1.32292-1.327679z" fill="#ebc9a0"/>
  </g>
  <g transform="matrix(.29684104 0 0 .29684104 -24.30864 99.721649)">
   <g transform="matrix(.26458333 0 0 .26458333 -82.211426 100.89426)" fill="#f05540">
    <path d="m169.6 35.2c19.2 24.533 17.067 61.867-5.333 83.2-24.533 22.4-59.733 17.067-78.933-10.667-17.067-27.733-10.667-64 12.799-82.133 22.4-18.133 53.334-13.867 71.467 9.6z"/>
    <path d="m342.4 35.2c-19.2 23.467-18.133 60.8 5.333 82.133 24.533 22.4 59.733 17.067 78.933-10.667 17.067-26.666 10.667-62.933-11.733-81.066-23.466-18.133-54.4-13.867-72.533 9.6z"/>
    <path d="m355.2 446.933c30.933-28.8 50.133-70.4 50.133-116.267 0-86.4-67.2-155.733-149.333-155.733-83.2 0-149.333 69.333-149.333 155.733 0 46.933 19.2 88.533 50.133 116.267 26.667 32 163.2 32 198.4 0z"/>
    <path d="m386.133 330.667c-21.333-50.134-73.6-103.467-65.066-119.467 10.666-19.2 101.333 21.333 133.333 89.6 32 66.133 10.667 99.2-8.533 99.2-22.4 2.133-36.267-20.267-59.734-69.333z"/>
    <path d="m125.867 330.667c21.333-50.133 73.6-103.467 65.067-119.467-10.667-19.2-101.334 21.333-133.334 89.6-32 66.133-10.667 99.2 8.533 99.2 22.4 2.133 36.267-20.267 59.734-69.333z"/>
   </g>
   <g stroke-width=".26458332">
    <path d="m8.3819062 181.04528c0 20.32-10.1599999 30.48-22.8600002 30.48-12.699999 0-22.859999-9.87769-22.859999-30.48s10.16-43.46204 22.859999-43.46204c12.7000003 0 22.8600002 23.14204 22.8600002 43.46204z" fill="#f3f3f3"/>
    <ellipse cx="-14.478093" cy="134.19656" rx="35.559998" ry="33.302311" fill="#f3705a"/>
    <ellipse cx="-15.324759" cy="150.56528" rx="14.393333" ry="12.417689" fill="#f3f3f3"/>
   </g>
   <g transform="matrix(.26458333 0 0 .26458333 -82.211426 100.89426)" fill="#415a6b">
    <path d="m290.133 201.6c-6.4 11.733-21.333 20.267-36.267 20.267-16 0-29.867-7.467-36.267-20.267-1.067-1.067 0-3.2 1.067-3.2 1.067-1.067 3.2 0 3.2 1.067 5.333 9.6 17.067 17.067 29.867 17.067v-43.734c0-1.067 1.067-2.133 2.133-2.133 1.067 0 2.133 1.067 2.133 2.133v43.733c12.8-1.067 24.533-7.467 29.867-17.067 1.067-1.067 2.133-2.133 3.2-1.067 1.067 1e-3 1.067 1.068 1.067 3.201z"/>
    <ellipse cx="252.8" cy="155.733" rx="26.667" ry="23.466999"/>
    <circle cx="298.66699" cy="133.33299" r="14.933"/>
   </g>
   <circle cx="-27.460403" cy="136.17195" r="3.9510229" fill="#415a6b" stroke-width=".26458332"/>
   <ellipse cx="-37.902451" cy="217.45195" rx="18.626667" ry="18.908978" fill="#f3705a" stroke-width=".26458332"/>
   <g transform="matrix(.26458333 0 0 .26458333 -82.211426 100.89426)" fill="#415a6b">
    <path d="m199.467 459.733c2.133 13.867-10.667 25.6-28.8 26.667-17.067 1.067-33.067-8.533-35.2-22.4s10.667-25.6 28.8-26.667 33.066 8.534 35.2 22.4z"/>
    <ellipse transform="matrix(.0644 -.9979 .9979 .0644 -250.9635 549.3542)" cx="167.48399" cy="408.51401" rx="14.933" ry="10.666"/>
    <ellipse transform="matrix(-.1921 -.9814 .9814 -.1921 -251.7578 626.8494)" cx="132.144" cy="417.05301" rx="14.934" ry="10.667"/>
    <ellipse transform="matrix(-.1921 .9814 -.9814 -.1921 652.7144 299.0856)" cx="203.248" cy="418.21201" rx="14.934" ry="10.667"/>
   </g>
   <ellipse cx="10.075236" cy="217.45195" rx="18.626667" ry="18.908978" fill="#f3705a" stroke-width=".26458332"/>
   <g transform="matrix(.26458333 0 0 .26458333 -82.211426 100.89426)" fill="#415a6b">
    <path d="m380.8 459.733c2.133 13.867-10.667 25.6-28.8 26.667-17.067 1.067-33.067-8.533-35.2-22.4s10.667-25.6 28.8-26.667c17.067-1.066 33.067 8.534 35.2 22.4z"/>
    <ellipse transform="matrix(.0644 -.9979 .9979 .0644 -81.3136 730.3275)" cx="348.82101" cy="408.52802" rx="14.933" ry="10.666"/>
    <ellipse transform="matrix(-.1921 -.9814 .9814 -.1921 -36.3127 806.2264)" cx="313.70099" cy="418.06" rx="14.934" ry="10.667"/>
    <ellipse transform="matrix(-.1921 .9814 -.9814 -.1921 867.7355 119.8569)" cx="384.53201" cy="417.104" rx="14.934" ry="10.667"/>
   </g>
  </g>
  <g transform="rotate(-15,499.21275,573.1808)">
   <rect x="81.863373" y="113.31273" width="57.607559" height="23.49782" ry="3.7899711" fill="#e91e63"/>
   <rect x="85.579987" y="114.82872" width="50.174324" height="20.465843" ry="3.3009427" fill="#fff"/>
  </g>
  <g transform="rotate(-15,434.54739,92.820171)" fill="#424242" stroke-width=".26458332" style="font-feature-settings:normal;font-variant-caps:normal;font-variant-ligatures:normal;font-variant-numeric:normal" aria-label="Julia">
   <path d="m-22.648419 117.4572h0.172255q0.938788 0 1.033528 0.24116v0.10335q0 0.4737-0.757921 0.65457-0.585666 0-0.585666 0.48231-0.103353 0-0.241157 6.16672-0.266995 5.07291-0.826823 5.58106-0.792372 0.71485-1.688096 0.96462-0.706245 0-1.688097-1.72254l-0.03445-0.24116q0-0.22393 0.413411-0.51676 0.189481 0 1.136882 1.13688l0.103353 0.0689h0.206705q0.775147 0 1.06798-1.13688 0.318671-0.45648 0.482313-7.1658l-0.0689-0.82682v-2.30822q-0.02584-0.48231-0.172254-0.48231-0.292833 0-1.171333 0.24115-0.215318 0-0.275607-0.65456 0-0.55122 0.964626-0.55122z" style="font-feature-settings:normal;font-variant-caps:normal;font-variant-ligatures:normal;font-variant-numeric:normal"/>
   <path d="m-20.822519 119.70513q0.516765 0 0.516765 0.89572v2.23931q0 6.37343 0.37896 7.06245 0.258382 0.75792 0.413412 0.75792 0.292833 0 0.861273-1.41249 0.826823-1.46417 0.826823-2.68717 0.120579 0 0.34451-4.06522l-0.03445-0.65457q0.129191-1.79145 0.447862-1.79145l0.447863-0.17225q0.413411 0 0.551215 0.96463v0.17225l-0.206706 2.13596v0.20671q0 3.84989 0.482314 6.27007l0.275607 1.79145q-0.146416 0.41341-0.72347 0.41341-0.516764 0-0.654568-2.72162-0.111965-0.24116-0.172255-0.24116h-0.0689q-0.258383 0.29283-1.343588 2.37712-0.551215 0.68901-1.067979 0.68901-0.577054 0-1.205784-0.93017-0.585666-1.73116-0.757921-9.99078-0.05168 0-0.0689-0.75792 0-0.39619 0.757921-0.55121z" style="font-feature-settings:normal;font-variant-caps:normal;font-variant-ligatures:normal;font-variant-numeric:normal"/>
   <path d="m-13.75146 117.43136q0.241156 0 0.482313 0.20671l-0.03445 0.2067-0.37896 10.6798q0 3.23839-0.206706 3.23839-0.266995 0.20671-0.378961 0.20671-0.413411 0-0.516764-0.96463v-0.62012q0-2.48047 0.37896-10.78315 0-2.10151 0.275608-2.10151z" style="font-feature-settings:normal;font-variant-caps:normal;font-variant-ligatures:normal;font-variant-numeric:normal"/>
   <path d="m-11.701628 118.30125q0.378961 0 0.585666 0.68902-0.172254 0.62012-0.689019 0.62012h-0.103353q-0.37896 0-0.482313-0.58567 0-0.44786 0.654568-0.72347zm0.120578 2.54937q0.378961 0 0.378961 1.58474l0.03445 1.6881q-0.08613 7.32083-0.241157 7.32083-0.37896 0.41341-0.689019 0.41341-0.37896 0-0.516764-0.96463l0.03445-0.0344v-0.0344l0.344509-3.13504 0.0689-3.37619-0.103353-2.5666q0.120579-0.89572 0.689019-0.89572z" style="font-feature-settings:normal;font-variant-caps:normal;font-variant-ligatures:normal;font-variant-numeric:normal"/>
   <path d="m-7.7569938 118.76634q0.7148574 0.24977 1.2402345 0.99907 0.4823133 0.88712 0.8009847 2.26515 0.327284 1.37804 0.3703477 4.00493-0.025838 3.1092-0.198093 3.514 0 1.99815-0.5856662 1.99815 0 0.0861-2.6957873 0.10335-0.7751465 0-1.2746856-1.27468-0.137804-0.56844-0.137804-0.99908v-0.17225q0-1.19717 0.9990782-2.48047 0.6028917-0.68902 1.550293-0.68902l0.757921 0.0345h0.3789605l0.034451-0.37896 0.034451-1.72255q0-1.44694-0.9301758-3.5829-0.2583822-0.31006-0.5167643-0.31006h-0.1378039q-0.1033528 0-0.8268229 0.48232h-0.068902q-0.5512153-0.25839-0.5512153-0.58567v-0.1378q0.9043376-1.06798 1.7569987-1.06798zm-1.3091363 10.26638v0.27561q0 0.76653 0.3789605 1.06798h0.068902q1.7656114-0.0775 1.8000624-0.0861 0.3100586-1.54168 0.025838-2.56659-0.2756076-0.48232-0.8957248-0.48232-0.62873 0-1.3091364 1.20579z" style="font-feature-settings:normal;font-variant-caps:normal;font-variant-ligatures:normal;font-variant-numeric:normal"/>
  </g>
  <g fill="#fff" stroke="#e91e63" stroke-width="1.0583334">
   <g style="font-feature-settings:normal;font-variant-caps:normal;font-variant-ligatures:normal;font-variant-numeric:normal" aria-label="1">
    <path d="m-69.218628 144.46309-2.790527 0.0775-0.766534 0.62873v2.64411l0.689019-0.31867 0.07751 8.33713h3.014458z" fill="#fff" stroke="#e91e63" stroke-width="1.0583334" style="font-feature-settings:normal;font-variant-caps:normal;font-variant-ligatures:normal;font-variant-numeric:normal"/>
   </g>
   <g style="font-feature-settings:normal;font-variant-caps:normal;font-variant-ligatures:normal;font-variant-numeric:normal" aria-label="2">
    <path d="m-25.706389 150.39082q-2.592434-1.57613-4.823133-0.0258-1.119656 0.81822-1.972318 2.024l1.739774 2.20486q0.223931-0.36174 0.62873-0.67179 0.895725-0.89573 1.800062-0.70625 0.508152 0.11197 0.413412 0.68902-0.07752 0.49093-0.577054 1.2833-0.938788 1.47278-2.290988 2.3685-0.585667 0.49954-1.085206 0.8785l-0.206705 3.04891 7.002156 0.14642 0.0086-2.91972-3.539836 0.16364q1.679485-1.55029 2.876655-3.37619 1.050754-1.59336 1.171333-2.79914 0.163642-1.50723-1.145495-2.30822z" fill="#fff" stroke="#e91e63" stroke-width="1.0583334" style="font-feature-settings:normal;font-variant-caps:normal;font-variant-ligatures:normal;font-variant-numeric:normal"/>
   </g>
   <g style="font-feature-settings:normal;font-variant-caps:normal;font-variant-ligatures:normal;font-variant-numeric:normal" aria-label="3">
    <path d="m-49.449393 214.56234 0.07751 2.62688 3.315904-0.0775-2.790527 2.02399q0.766534-0.11197 1.507229 0.0861 1.498617 0.39618 1.455553 1.95509-0.05168 1.56752-1.507229 1.54168-0.732083-0.0172-1.455553-0.34451l-0.680407 2.80775q1.240235 0.39619 2.7044 0.42203 2.902493 0.0603 3.970473-1.76561 1.464166-2.51492-0.02584-4.2547-0.749308-0.86988-1.713935-1.32636l2.980007-3.66041z" fill="#fff" stroke="#e91e63" stroke-width="1.0583334" style="font-feature-settings:normal;font-variant-caps:normal;font-variant-ligatures:normal;font-variant-numeric:normal"/>
   </g>
   <g style="font-feature-settings:normal;font-variant-caps:normal;font-variant-ligatures:normal;font-variant-numeric:normal" aria-label="4">
    <path d="m-1.2201905 217.53582h-1.8000624l0.077515-3.85851-2.9713949 0.0861v6.25285l4.5303006 0.16364-0.327284 5.02123 3.1178115 0.0775 0.2497694-11.60136h-2.7991402z" fill="#fff" stroke="#e91e63" stroke-width="1.0583334" style="font-feature-settings:normal;font-variant-caps:normal;font-variant-ligatures:normal;font-variant-numeric:normal"/>
   </g>
  </g>
 </g>
</svg>
