<?xml version="1.0" encoding="UTF-8"?>
<!-- Created with Inkscape (http://www.inkscape.org/) -->
<svg width="512" height="511.99997" version="1.1" viewBox="0 0 135.46666 135.46667" xmlns="http://www.w3.org/2000/svg" xmlns:cc="http://creativecommons.org/ns#" xmlns:dc="http://purl.org/dc/elements/1.1/" xmlns:rdf="http://www.w3.org/1999/02/22-rdf-syntax-ns#">
 <metadata>
  <rdf:RDF>
   <cc:Work rdf:about="">
    <dc:format>image/svg+xml</dc:format>
    <dc:type rdf:resource="http://purl.org/dc/dcmitype/StillImage"/>
    <dc:title/>
   </cc:Work>
  </rdf:RDF>
 </metadata>
 <g transform="translate(88.798965,81.24942)">
  <rect x="-88.798965" y="-81.24942" width="135.46666" height="135.46666" ry="0" opacity="0" stroke-width="11.27353287"/>
  <g>
   <rect x="-88.798965" y="-79.300682" width="119.0625" height="88.635414" fill="#025"/>
   <rect transform="matrix(.98085197 -.19475477 .19539114 .9807254 0 0)" x="-60.474651" y=".33308378" width="100.90048" height="42.286995" ry="7.4624109" fill="#6f0"/>
   <rect transform="matrix(.98085197 -.19475477 .19539114 .9807254 0 0)" x="-48.603992" y="5.3080244" width="77.159195" height="32.337112" ry="5.7065496" fill="#fff"/>
   <g transform="matrix(.9816207 -.19490738 .19523816 .97995758 0 0)" stroke-width=".68240231" style="font-feature-settings:normal;font-variant-caps:normal;font-variant-ligatures:normal;font-variant-numeric:normal" aria-label="Karlita">
    <path d="m-32.701092 10.237801h0.05331q0.666408 0 0.906316 0.693065-0.58644 4.025107-0.58644 6.18427v0.213251h0.106625q0.479815 0 1.546068-1.919256 1.159551-1.452771 2.239133-4.478265 0.239907-0.373189 0.906315-0.373189 0.546455 0 0.693065 0.79969-0.65308 2.132507-1.38613 2.98551-2.718946 3.745216-2.718946 4.478265 0 0.479814 0.746377 3.305386 0.386517 2.159163 0.746378 2.98551 0.173266 0.03998 0.79969 2.025882 1.226191 2.612321 1.865944 3.678574l0.05331 0.426502q0 0.693065-0.586439 0.693065-0.879659 0-1.172879-1.172879-0.626424-0.613096-1.972569-4.105076-0.58644-1.506084-1.599381-5.491206l-0.319876-0.373189h-0.05331q-0.533127 0-0.693065 8.583341-0.06664 2.98551-0.479814 2.98551l-0.319876 0.05331q-0.853003 0-0.853003-1.332817 0.386517-10.649208 0.853003-12.261916l-0.05331-0.853003q0.319876-6.011004 0.746378-7.410462 0.239907-0.319876 0.533126-0.319876z" style="font-feature-settings:normal;font-variant-caps:normal;font-variant-ligatures:normal;font-variant-numeric:normal"/>
    <path d="m-21.771993 12.316995q1.106238 0.386517 1.919256 1.546068 0.746378 1.372801 1.23952 3.505308 0.506471 2.132508 0.573112 6.197599-0.03998 4.811469-0.306548 5.437893 0 3.092136-0.906316 3.092136 0 0.133281-4.171717 0.159938-1.199535 0-1.972569-1.972569-0.213251-0.879659-0.213251-1.546068v-0.266563q0-1.852616 1.546068-3.838513 0.932972-1.066254 2.39907-1.066254l1.172879 0.05331h0.58644l0.05331-0.586439 0.05331-2.665634q0-2.239133-1.439442-5.544519-0.399845-0.479814-0.79969-0.479814h-0.213251q-0.159938 0-1.279504 0.746378h-0.106626q-0.853003-0.399846-0.853003-0.906316v-0.213251q1.399458-1.652693 2.718947-1.652693zm-2.025882 15.887178v0.426502q0 1.186207 0.58644 1.652693h0.106625q2.732275-0.119954 2.785588-0.133282 0.479814-2.385742 0.03998-3.971794-0.426501-0.746378-1.38613-0.746378-0.972956 0-2.025881 1.865944z" style="font-feature-settings:normal;font-variant-caps:normal;font-variant-ligatures:normal;font-variant-numeric:normal"/>
    <path d="m-11.535958 15.449115q1.279504 0.43983 1.7593181 1.38613l0.053313 0.266563q-0.1865944 1.012941-0.8530031 1.012941-0.399845 0-1.38613-0.906316h-0.426501q-1.212864 0-2.359086 1.23952-1.146223 1.23952-0.333204 7.543744 0.826346 6.304224-0.119954 5.811082l-0.959628 0.02666q-0.519799-0.253235-0.639752-6.357536-0.106626-6.11763-0.359861-9.463001 0-0.853003 1.119566-0.853003 0.693065 0 0.693065 0.639752l-0.05331 0.799691q0.106625 0.239907 0.21325 0.266563h0.213251q1.226192-1.412786 3.438668-1.412786z" style="font-feature-settings:normal;font-variant-caps:normal;font-variant-ligatures:normal;font-variant-numeric:normal"/>
    <path d="m-6.951068 10.251129q0.3731888 0 0.7463775 0.319876l-0.053313 0.319876-0.5864394 16.52693q0 5.011392-0.3198761 5.011392-0.4131732 0.319876-0.5864394 0.319876-0.6397522 0-0.7996902-1.492755v-0.959628q0-3.838513 0.5864395-16.686868 0-3.252074 0.4265014-3.252074z" style="font-feature-settings:normal;font-variant-caps:normal;font-variant-ligatures:normal;font-variant-numeric:normal"/>
    <path d="m-3.7789656 11.597274q0.5864395 0 0.9063155 1.066254-0.2665633 0.959628-1.0662535 0.959628h-0.159938q-0.5864395 0-0.7463775-0.906316 0-0.693064 1.0129408-1.119566zm0.1865944 3.945138q0.5864395 0 0.5864395 2.452383l0.053313 2.612322q-0.1332817 11.328944-0.3731887 11.328944-0.5864395 0.639752-1.0662536 0.639752-0.5864394 0-0.7996901-1.492755l0.053313-0.05331v-0.05331l0.5331268-4.851454 0.1066254-5.224643-0.1599381-3.971794q0.1865944-1.38613 1.0662536-1.38613z" style="font-feature-settings:normal;font-variant-caps:normal;font-variant-ligatures:normal;font-variant-numeric:normal"/>
    <path d="m2.1787273 10.664302h0.159938q0.9063156 0 1.2795043 1.706006-0.2665634 0.346532-0.2665634 1.119566v0.853003q0.1066254 0.186594 0.3198761 0.266563l1.2261916-0.106625q1.7593183 0 1.7593183 1.119566 0 1.066254-1.2795042 1.066254-2.0258818 0-2.0258818 0.426501l-0.0533127 0.266564q0.3198761 3.838512 0.3198761 11.515538 0 2.785588-0.5864395 3.038823-0.2932197 0.319876-0.6397521 0.319876-0.5464549 0-0.7463775-0.906316h-0.053313q0.3731888-3.19876 0.3731888-9.16978l-0.2132504-4.584891 0.0533127-0.426501h-0.053313l-3.2520734 0.05331h-0.053313q-0.4131732 0-0.6930648-0.959629 0.2798916-0.906315 1.0662536-0.906315 2.439055-0.43983 2.6656339-0.693065l0.053313-0.213251v-2.345757q0-1.119567 0.6397521-1.439443z" style="font-feature-settings:normal;font-variant-caps:normal;font-variant-ligatures:normal;font-variant-numeric:normal"/>
    <path d="m11.015301 12.316995q1.106239 0.386517 1.919257 1.546068 0.746377 1.372801 1.23952 3.505308 0.50647 2.132508 0.573111 6.197599-0.03998 4.811469-0.306548 5.437893 0 3.092136-0.906316 3.092136 0 0.133281-4.1717166 0.159938-1.1995352 0-1.972569-1.972569-0.2132508-0.879659-0.2132508-1.546068v-0.266563q0-1.852616 1.5460677-3.838513 0.9329719-1.066254 2.3990707-1.066254l1.172879 0.05331h0.586439l0.05331-0.586439 0.05331-2.665634q0-2.239133-1.439443-5.544519-0.399845-0.479814-0.79969-0.479814h-0.213251q-0.159938 0-1.2795039 0.746378h-0.1066194q-0.8530028-0.399843-0.8530028-0.906313v-0.213251q1.3994578-1.652693 2.7189461-1.652693zm-2.0258813 15.887178v0.426502q0 1.186207 0.5864395 1.652693h0.1066253q2.7322745-0.119954 2.7855875-0.133282 0.479814-2.385742 0.03998-3.971794-0.426501-0.746378-1.386129-0.746378-0.972957 0-2.0258819 1.865944z" style="font-feature-settings:normal;font-variant-caps:normal;font-variant-ligatures:normal;font-variant-numeric:normal"/>
   </g>
   <path transform="matrix(4.0322672,0,0,4.0254358,-195.56013,-182.70082)" d="m36.195223 33.01615c-0.36054 0.4006-1.548031-0.696242-2.075181-0.584069-0.52715 0.112172-1.165188 1.597468-1.657594 1.378366s0.183797-1.687415-0.08578-2.154102c-0.26958-0.466686-1.879345-0.614515-1.823129-1.150527 0.05622-0.536012 1.661624-0.346638 2.022164-0.747238s0.0037-1.977259 0.530838-2.089431c0.52715-0.112172 0.843143 1.473181 1.335549 1.692283 0.492407 0.219101 1.881625-0.607499 2.151206-0.140813 0.26958 0.466686-1.140534 1.257115-1.19675 1.793127-0.05622 0.536012 1.15922 1.601804 0.79868 2.002404z" fill="#ffd42a"/>
   <path transform="matrix(5.5157394,0,0,5.5063946,-285.65456,-250.02903)" d="m44.640782 39.772591c-0.28042-0.32048 0.691618-1.149084 0.653127-1.573184-0.03849-0.424101-1.143825-1.064164-0.925685-1.429893s1.306566 0.302681 1.698015 0.135019c0.391449-0.167661 0.658619-1.416686 1.073857-1.322239 0.415238 0.09445 0.115884 1.336152 0.396304 1.656632s1.550873 0.188603 1.589364 0.612704c0.03849 0.4241-1.234945 0.523105-1.453085 0.888834-0.218141 0.365729 0.299873 1.53325-0.09158 1.700912-0.391449 0.167661-0.879122-1.012855-1.29436-1.107302-0.415238-0.09445-1.365541 0.758997-1.645961 0.438517z" fill="#64dd17"/>
   <path transform="matrix(6.7317343,0,0,6.7203294,-319.08225,-338.82814)" d="m41.986461 50.872461c-0.240361 0.2003-0.831777-0.52834-1.143966-0.507574-0.312189 0.02077-0.801887 0.821319-1.066659 0.65462-0.264772-0.1667 0.245449-0.954333 0.129227-1.244825-0.116221-0.290492-1.028918-0.508838-0.952196-0.812165 0.07672-0.303326 0.983472-0.06147 1.223832-0.261769 0.24036-0.2003 0.165981-1.135799 0.47817-1.156565 0.312188-0.02077 0.36237 0.916342 0.627142 1.083042s1.1315-0.193124 1.247722 0.09737c0.116221 0.290492-0.759515 0.6278-0.836237 0.931127-0.07672 0.303326 0.533325 1.016441 0.292965 1.216741z" fill="#0cf"/>
   <path transform="matrix(3.8182043,0,0,3.8117354,-228.62255,-199.26767)" d="m59.394365 51.294474c-0.463096 0.289436-1.313212-1.110681-1.85799-1.148724-0.544779-0.03804-1.581241 1.230329-1.999615 0.879339-0.418374-0.350991 0.650516-1.592158 0.518351-2.12203-0.132164-0.529871-1.658743-1.123656-1.454216-1.630016 0.204528-0.506359 1.715253 0.126674 2.17835-0.162761 0.463096-0.289435 0.556081-1.924788 1.10086-1.886744 0.544778 0.03804 0.409568 1.670446 0.827942 2.021437 0.418374 0.35099 2.00242-0.06593 2.134585 0.463944 0.132164 0.529871-1.462126 0.905719-1.666653 1.412078s0.681482 1.884042 0.218386 2.173477z" fill="#ffd42a"/>
   <path transform="matrix(-1.4957027,6.414766,-6.4038981,-1.4931687,267.84667,-366.07636)" d="m55.740648 30.844436c-0.24036 0.24036-0.951923-0.489832-1.287658-0.436657-0.335736 0.05317-0.78683 0.967515-1.089702 0.813194-0.302871-0.15432 0.171699-1.056699 0.01738-1.35957-0.15432-0.302872-1.163305-0.449341-1.11013-0.785077 0.05318-0.335735 1.058039-0.163243 1.298399-0.403603s0.06787-1.245223 0.403603-1.298398c0.335735-0.05318 0.482205 0.955809 0.785076 1.11013 0.302872 0.15432 1.20525-0.320249 1.359571-0.01738 0.15432 0.302871-0.760019 0.753966-0.813195 1.089701-0.05317 0.335735 0.677018 1.047298 0.436658 1.287658z" fill="#e91e63"/>
   <path transform="matrix(5.0776836,-2.8332165,2.8284166,5.0690812,-409.16057,-58.235151)" d="m62.497086 40.979103c-0.32048 0.12018-0.668499-0.845648-0.998412-0.936794-0.329914-0.09115-1.124392 0.559043-1.337724 0.291386s0.597681-0.8971 0.582417-1.239032c-0.01526-0.341932-0.879137-0.896607-0.690504-1.182208 0.188634-0.285601 1.037887 0.29121 1.358367 0.17103s0.581055-1.113176 0.910969-1.022031c0.329913 0.09115 0.04377 1.077078 0.257099 1.344735 0.213332 0.267657 1.238249 0.208626 1.253513 0.550558 0.01526 0.341932-1.010836 0.374461-1.19947 0.660062-0.188633 0.285601 0.184225 1.242114-0.136255 1.362294z" fill="#0cf"/>
   <path transform="matrix(5.6062231,0,0,5.5967251,-234.06763,-262.68399)" d="m30.886595 43.874715c-0.28042 0.24036-0.990431-0.60998-1.358576-0.580351-0.368144 0.02963-0.933025 0.982572-1.248276 0.790152-0.31525-0.19242 0.274066-1.130449 0.132124-1.47142-0.141941-0.34097-1.222803-0.583728-1.137218-0.94301 0.08558-0.359282 1.159812-0.08868 1.440232-0.329037 0.28042-0.24036 0.177292-1.343336 0.545437-1.372965 0.368144-0.02963 0.442738 1.075644 0.757988 1.268064 0.315251 0.19242 1.332376-0.246499 1.474317 0.09447 0.141941 0.34097-0.886185 0.753461-0.971769 1.112743-0.08558 0.359282 0.646161 1.190992 0.365741 1.431352z" fill="#e91e63"/>
  </g>
 </g>
</svg>
