<?xml version="1.0" encoding="UTF-8" standalone="no"?>
<!-- Created with Inkscape (http://www.inkscape.org/) -->

<svg
   xmlns:dc="http://purl.org/dc/elements/1.1/"
   xmlns:cc="http://creativecommons.org/ns#"
   xmlns:rdf="http://www.w3.org/1999/02/22-rdf-syntax-ns#"
   xmlns:svg="http://www.w3.org/2000/svg"
   xmlns="http://www.w3.org/2000/svg"
   xmlns:sodipodi="http://sodipodi.sourceforge.net/DTD/sodipodi-0.dtd"
   xmlns:inkscape="http://www.inkscape.org/namespaces/inkscape"
   width="1220"
   height="562"
   version="1.1"
   viewBox="0 0 322.79166 148.69584"
   id="svg31348"
   sodipodi:docname="lupa4_R.svg"
   inkscape:version="0.92.2 5c3e80d, 2017-08-06">
  <defs
     id="defs31352" />
  <sodipodi:namedview
     pagecolor="#ffffff"
     bordercolor="#666666"
     borderopacity="1"
     objecttolerance="10"
     gridtolerance="10"
     guidetolerance="10"
     inkscape:pageopacity="0"
     inkscape:pageshadow="2"
     inkscape:window-width="1655"
     inkscape:window-height="965"
     id="namedview31350"
     showgrid="false"
     fit-margin-top="0"
     fit-margin-left="0"
     fit-margin-right="0"
     fit-margin-bottom="0"
     inkscape:zoom="0.60444376"
     inkscape:cx="332.58299"
     inkscape:cy="349.68938"
     inkscape:window-x="0"
     inkscape:window-y="0"
     inkscape:window-maximized="0"
     inkscape:current-layer="svg31348" />
  <metadata
     id="metadata31248">
    <rdf:RDF>
      <cc:Work
         rdf:about="">
        <dc:format>image/svg+xml</dc:format>
        <dc:type
           rdf:resource="http://purl.org/dc/dcmitype/StillImage" />
        <dc:title></dc:title>
      </cc:Work>
    </rdf:RDF>
  </metadata>
  <rect
     x="0"
     y="-2.8421709e-14"
     width="322.79166"
     height="148.69583"
     id="rect31250"
     style="opacity:0;stroke-width:0.91198415" />
  <g
     transform="translate(-1172.0576,216.11004)"
     id="g31256">
    <rect
       x="1178.6722"
       y="-209.49544"
       width="309.5625"
       height="135.46666"
       rx="9.3694143"
       ry="9.3694143"
       id="rect31252"
       style="fill:#2196f3" />
    <rect
       x="1185.7633"
       y="-204.34227"
       width="295.38028"
       height="125.1603"
       rx="8.9401665"
       ry="8.6565857"
       id="rect31254"
       style="fill:#ffffff" />
  </g>
  <g
     transform="matrix(0.41666663,0,0,0.41666665,-142.80811,-1.8088113)"
     id="g31274">
    <g
       id="g31266"
       style="stroke-width:0.24807221">
      <path
         d="m 426.48573,151.30917 c 0,-0.51456 0.19621,-1.02861 0.58837,-1.42135 l 18.18634,-18.18974 c 0.78506,-0.78473 2.05706,-0.78473 2.84162,0 0.78482,0.78548 0.78408,2.05772 0,2.8422 l -18.18633,18.18974 c -0.78507,0.78472 -2.05706,0.78472 -2.84188,0 -0.39191,-0.39224 -0.58812,-0.90655 -0.58812,-1.42085 z"
         id="path31258"
         inkscape:connector-curvature="0"
         style="fill:#365558" />
      <path
         d="m 520.44631,136.45684 c 10.2972,-10.29926 15.96831,-23.99298 15.96831,-38.558511 0,-14.56553 -5.67111,-28.259251 -15.96831,-38.558752 -21.25716,-21.261178 -55.84488,-21.261178 -77.10204,0 -10.29694,10.299501 -15.96805,23.992969 -15.96805,38.558752 0,14.565781 5.67111,28.259251 15.96805,38.558751 10.29769,10.2995 23.98841,15.9715 38.55127,15.9715 14.56286,0 28.25334,-5.67224 38.55077,-15.97174 z"
         id="path31260"
         inkscape:connector-curvature="0"
         style="fill:#4acfd9" />
      <path
         d="m 421.93778,169.8053 15.15495,-15.15799 c 0.78433,-0.78523 0.78433,-2.05746 0,-2.84244 l -9.09316,-9.09499 c -0.78508,-0.78499 -2.05706,-0.78499 -2.84164,0 l -15.15495,15.15798 c -0.39216,0.39249 -0.58837,0.90704 -0.58837,1.42135 0,0.5143 0.19621,1.02861 0.58837,1.42135 l 9.09317,9.09499 c 0.78458,0.78424 2.05681,0.78424 2.84163,-2.5e-4 z"
         id="path31262"
         inkscape:connector-curvature="0"
         style="fill:#9baaab" />
      <path
         d="m 509.54637,125.55495 c 15.24648,-15.24979 15.24648,-40.062961 0,-55.312994 -7.38561,-7.387345 -17.2058,-11.455888 -27.65108,-11.455888 -10.44527,0 -20.26547,4.068543 -27.65108,11.455635 -7.62323,7.624768 -11.43523,17.640701 -11.43523,27.656382 0,10.015925 3.81175,20.031605 11.43523,27.656615 15.24698,15.24979 40.05519,15.24979 55.30216,2.5e-4 z"
         id="path31264"
         inkscape:connector-curvature="0"
         style="fill:#e2ebf6" />
    </g>
    <g
       transform="matrix(0,-0.21238622,0.21234365,0,441.3283,149.59984)"
       id="g31272"
       style="fill:#ffffff">
      <path
         d="m 399.033,227.894 c -4.475,0 -8.1,-3.626 -8.1,-8.101 0,-22.935 -4.417,-45.143 -13.13,-66.003 -1.724,-4.128 0.225,-8.873 4.353,-10.598 4.131,-1.725 8.873,0.225 10.597,4.353 9.542,22.849 14.381,47.157 14.381,72.248 -0.001,4.476 -3.626,8.101 -8.101,8.101 z"
         id="path31268"
         inkscape:connector-curvature="0" />
      <path
         d="m 366.072,124.211 c -2.533,0 -5.026,-1.184 -6.607,-3.403 -5.556,-7.805 -11.838,-15.228 -18.674,-22.064 -32.333,-32.334 -75.323,-50.141 -121.05,-50.141 -4.474,0 -8.101,-3.626 -8.101,-8.101 0,-4.475 3.627,-8.101 8.101,-8.101 50.055,0 97.112,19.492 132.507,54.885 7.471,7.472 14.34,15.589 20.417,24.124 2.593,3.645 1.742,8.703 -1.902,11.298 -1.424,1.015 -3.066,1.503 -4.691,1.503 z"
         id="path31270"
         inkscape:connector-curvature="0" />
    </g>
  </g>
  <g
     transform="matrix(0.41666663,0,0,0.41666665,17.926294,-1.8088113)"
     id="g31292">
    <g
       id="g31284"
       style="stroke-width:0.24807221">
      <path
         d="m 426.48573,151.30917 c 0,-0.51456 0.19621,-1.02861 0.58837,-1.42135 l 18.18634,-18.18974 c 0.78506,-0.78473 2.05706,-0.78473 2.84162,0 0.78482,0.78548 0.78408,2.05772 0,2.8422 l -18.18633,18.18974 c -0.78507,0.78472 -2.05706,0.78472 -2.84188,0 -0.39191,-0.39224 -0.58812,-0.90655 -0.58812,-1.42085 z"
         id="path31276"
         inkscape:connector-curvature="0"
         style="fill:#365558" />
      <path
         d="m 520.44631,136.45684 c 10.2972,-10.29926 15.96831,-23.99298 15.96831,-38.558511 0,-14.56553 -5.67111,-28.259251 -15.96831,-38.558752 -21.25716,-21.261178 -55.84488,-21.261178 -77.10204,0 -10.29694,10.299501 -15.96805,23.992969 -15.96805,38.558752 0,14.565781 5.67111,28.259251 15.96805,38.558751 10.29769,10.2995 23.98841,15.9715 38.55127,15.9715 14.56286,0 28.25334,-5.67224 38.55077,-15.97174 z"
         id="path31278"
         inkscape:connector-curvature="0"
         style="fill:#4acfd9" />
      <path
         d="m 421.93778,169.8053 15.15495,-15.15799 c 0.78433,-0.78523 0.78433,-2.05746 0,-2.84244 l -9.09316,-9.09499 c -0.78508,-0.78499 -2.05706,-0.78499 -2.84164,0 l -15.15495,15.15798 c -0.39216,0.39249 -0.58837,0.90704 -0.58837,1.42135 0,0.5143 0.19621,1.02861 0.58837,1.42135 l 9.09317,9.09499 c 0.78458,0.78424 2.05681,0.78424 2.84163,-2.5e-4 z"
         id="path31280"
         inkscape:connector-curvature="0"
         style="fill:#9baaab" />
      <path
         d="m 509.54637,125.55495 c 15.24648,-15.24979 15.24648,-40.062961 0,-55.312994 -7.38561,-7.387345 -17.2058,-11.455888 -27.65108,-11.455888 -10.44527,0 -20.26547,4.068543 -27.65108,11.455635 -7.62323,7.624768 -11.43523,17.640701 -11.43523,27.656382 0,10.015925 3.81175,20.031605 11.43523,27.656615 15.24698,15.24979 40.05519,15.24979 55.30216,2.5e-4 z"
         id="path31282"
         inkscape:connector-curvature="0"
         style="fill:#e2ebf6" />
    </g>
    <g
       transform="matrix(0,-0.21238622,0.21234365,0,441.3283,149.59984)"
       id="g31290"
       style="fill:#ffffff">
      <path
         d="m 399.033,227.894 c -4.475,0 -8.1,-3.626 -8.1,-8.101 0,-22.935 -4.417,-45.143 -13.13,-66.003 -1.724,-4.128 0.225,-8.873 4.353,-10.598 4.131,-1.725 8.873,0.225 10.597,4.353 9.542,22.849 14.381,47.157 14.381,72.248 -0.001,4.476 -3.626,8.101 -8.101,8.101 z"
         id="path31286"
         inkscape:connector-curvature="0" />
      <path
         d="m 366.072,124.211 c -2.533,0 -5.026,-1.184 -6.607,-3.403 -5.556,-7.805 -11.838,-15.228 -18.674,-22.064 -32.333,-32.334 -75.323,-50.141 -121.05,-50.141 -4.474,0 -8.101,-3.626 -8.101,-8.101 0,-4.475 3.627,-8.101 8.101,-8.101 50.055,0 97.112,19.492 132.507,54.885 7.471,7.472 14.34,15.589 20.417,24.124 2.593,3.645 1.742,8.703 -1.902,11.298 -1.424,1.015 -3.066,1.503 -4.691,1.503 z"
         id="path31288"
         inkscape:connector-curvature="0" />
    </g>
  </g>
  <g
     transform="matrix(0.41666663,0,0,0.41666665,-35.651826,-1.8088113)"
     id="g31310">
    <g
       id="g31302"
       style="stroke-width:0.24807221">
      <path
         d="m 426.48573,151.30917 c 0,-0.51456 0.19621,-1.02861 0.58837,-1.42135 l 18.18634,-18.18974 c 0.78506,-0.78473 2.05706,-0.78473 2.84162,0 0.78482,0.78548 0.78408,2.05772 0,2.8422 l -18.18633,18.18974 c -0.78507,0.78472 -2.05706,0.78472 -2.84188,0 -0.39191,-0.39224 -0.58812,-0.90655 -0.58812,-1.42085 z"
         id="path31294"
         inkscape:connector-curvature="0"
         style="fill:#365558" />
      <path
         d="m 520.44631,136.45684 c 10.2972,-10.29926 15.96831,-23.99298 15.96831,-38.558511 0,-14.56553 -5.67111,-28.259251 -15.96831,-38.558752 -21.25716,-21.261178 -55.84488,-21.261178 -77.10204,0 -10.29694,10.299501 -15.96805,23.992969 -15.96805,38.558752 0,14.565781 5.67111,28.259251 15.96805,38.558751 10.29769,10.2995 23.98841,15.9715 38.55127,15.9715 14.56286,0 28.25334,-5.67224 38.55077,-15.97174 z"
         id="path31296"
         inkscape:connector-curvature="0"
         style="fill:#4acfd9" />
      <path
         d="m 421.93778,169.8053 15.15495,-15.15799 c 0.78433,-0.78523 0.78433,-2.05746 0,-2.84244 l -9.09316,-9.09499 c -0.78508,-0.78499 -2.05706,-0.78499 -2.84164,0 l -15.15495,15.15798 c -0.39216,0.39249 -0.58837,0.90704 -0.58837,1.42135 0,0.5143 0.19621,1.02861 0.58837,1.42135 l 9.09317,9.09499 c 0.78458,0.78424 2.05681,0.78424 2.84163,-2.5e-4 z"
         id="path31298"
         inkscape:connector-curvature="0"
         style="fill:#9baaab" />
      <path
         d="m 509.54637,125.55495 c 15.24648,-15.24979 15.24648,-40.062961 0,-55.312994 -7.38561,-7.387345 -17.2058,-11.455888 -27.65108,-11.455888 -10.44527,0 -20.26547,4.068543 -27.65108,11.455635 -7.62323,7.624768 -11.43523,17.640701 -11.43523,27.656382 0,10.015925 3.81175,20.031605 11.43523,27.656615 15.24698,15.24979 40.05519,15.24979 55.30216,2.5e-4 z"
         id="path31300"
         inkscape:connector-curvature="0"
         style="fill:#e2ebf6" />
    </g>
    <g
       transform="matrix(0,-0.21238622,0.21234365,0,441.3283,149.59984)"
       id="g31308"
       style="fill:#ffffff">
      <path
         d="m 399.033,227.894 c -4.475,0 -8.1,-3.626 -8.1,-8.101 0,-22.935 -4.417,-45.143 -13.13,-66.003 -1.724,-4.128 0.225,-8.873 4.353,-10.598 4.131,-1.725 8.873,0.225 10.597,4.353 9.542,22.849 14.381,47.157 14.381,72.248 -0.001,4.476 -3.626,8.101 -8.101,8.101 z"
         id="path31304"
         inkscape:connector-curvature="0" />
      <path
         d="m 366.072,124.211 c -2.533,0 -5.026,-1.184 -6.607,-3.403 -5.556,-7.805 -11.838,-15.228 -18.674,-22.064 -32.333,-32.334 -75.323,-50.141 -121.05,-50.141 -4.474,0 -8.101,-3.626 -8.101,-8.101 0,-4.475 3.627,-8.101 8.101,-8.101 50.055,0 97.112,19.492 132.507,54.885 7.471,7.472 14.34,15.589 20.417,24.124 2.593,3.645 1.742,8.703 -1.902,11.298 -1.424,1.015 -3.066,1.503 -4.691,1.503 z"
         id="path31306"
         inkscape:connector-curvature="0" />
    </g>
  </g>
  <g
     transform="matrix(0.41666663,0,0,0.41666665,-89.229956,-1.8088113)"
     id="g31328">
    <g
       id="g31320"
       style="stroke-width:0.24807221">
      <path
         d="m 426.48573,151.30917 c 0,-0.51456 0.19621,-1.02861 0.58837,-1.42135 l 18.18634,-18.18974 c 0.78506,-0.78473 2.05706,-0.78473 2.84162,0 0.78482,0.78548 0.78408,2.05772 0,2.8422 l -18.18633,18.18974 c -0.78507,0.78472 -2.05706,0.78472 -2.84188,0 -0.39191,-0.39224 -0.58812,-0.90655 -0.58812,-1.42085 z"
         id="path31312"
         inkscape:connector-curvature="0"
         style="fill:#365558" />
      <path
         d="m 520.44631,136.45684 c 10.2972,-10.29926 15.96831,-23.99298 15.96831,-38.558511 0,-14.56553 -5.67111,-28.259251 -15.96831,-38.558752 -21.25716,-21.261178 -55.84488,-21.261178 -77.10204,0 -10.29694,10.299501 -15.96805,23.992969 -15.96805,38.558752 0,14.565781 5.67111,28.259251 15.96805,38.558751 10.29769,10.2995 23.98841,15.9715 38.55127,15.9715 14.56286,0 28.25334,-5.67224 38.55077,-15.97174 z"
         id="path31314"
         inkscape:connector-curvature="0"
         style="fill:#4acfd9" />
      <path
         d="m 421.93778,169.8053 15.15495,-15.15799 c 0.78433,-0.78523 0.78433,-2.05746 0,-2.84244 l -9.09316,-9.09499 c -0.78508,-0.78499 -2.05706,-0.78499 -2.84164,0 l -15.15495,15.15798 c -0.39216,0.39249 -0.58837,0.90704 -0.58837,1.42135 0,0.5143 0.19621,1.02861 0.58837,1.42135 l 9.09317,9.09499 c 0.78458,0.78424 2.05681,0.78424 2.84163,-2.5e-4 z"
         id="path31316"
         inkscape:connector-curvature="0"
         style="fill:#9baaab" />
      <path
         d="m 509.54637,125.55495 c 15.24648,-15.24979 15.24648,-40.062961 0,-55.312994 -7.38561,-7.387345 -17.2058,-11.455888 -27.65108,-11.455888 -10.44527,0 -20.26547,4.068543 -27.65108,11.455635 -7.62323,7.624768 -11.43523,17.640701 -11.43523,27.656382 0,10.015925 3.81175,20.031605 11.43523,27.656615 15.24698,15.24979 40.05519,15.24979 55.30216,2.5e-4 z"
         id="path31318"
         inkscape:connector-curvature="0"
         style="fill:#e2ebf6" />
    </g>
    <g
       transform="matrix(0,-0.21238622,0.21234365,0,441.3283,149.59984)"
       id="g31326"
       style="fill:#ffffff">
      <path
         d="m 399.033,227.894 c -4.475,0 -8.1,-3.626 -8.1,-8.101 0,-22.935 -4.417,-45.143 -13.13,-66.003 -1.724,-4.128 0.225,-8.873 4.353,-10.598 4.131,-1.725 8.873,0.225 10.597,4.353 9.542,22.849 14.381,47.157 14.381,72.248 -0.001,4.476 -3.626,8.101 -8.101,8.101 z"
         id="path31322"
         inkscape:connector-curvature="0" />
      <path
         d="m 366.072,124.211 c -2.533,0 -5.026,-1.184 -6.607,-3.403 -5.556,-7.805 -11.838,-15.228 -18.674,-22.064 -32.333,-32.334 -75.323,-50.141 -121.05,-50.141 -4.474,0 -8.101,-3.626 -8.101,-8.101 0,-4.475 3.627,-8.101 8.101,-8.101 50.055,0 97.112,19.492 132.507,54.885 7.471,7.472 14.34,15.589 20.417,24.124 2.593,3.645 1.742,8.703 -1.902,11.298 -1.424,1.015 -3.066,1.503 -4.691,1.503 z"
         id="path31324"
         inkscape:connector-curvature="0" />
    </g>
  </g>
  <g
     id="g31346"
     style="fill:#2196f3;stroke:#ffffff;stroke-width:1.32291663"
     transform="translate(63.538284,-162.36299)">
    <g
       transform="translate(-1163.6241,235.68468)"
       style="font-variant-ligatures:normal;font-variant-caps:normal;font-variant-numeric:normal;font-feature-settings:normal"
       aria-label="1"
       id="g31332">
      <path
         d="m 1160.2649,-43.387707 -4.4649,0.124024 -1.2264,1.005968 v 4.230577 l 1.1024,-0.509874 0.124,13.339409 h 4.8232 z"
         style="font-variant-ligatures:normal;font-variant-caps:normal;font-variant-numeric:normal;font-feature-settings:normal;fill:#2196f3;stroke:#ffffff;stroke-width:1.32291663"
         id="path31330"
         inkscape:connector-curvature="0" />
    </g>
    <g
       transform="translate(-1148.7901,234.17722)"
       style="font-variant-ligatures:normal;font-variant-caps:normal;font-variant-numeric:normal;font-feature-settings:normal"
       aria-label="2"
       id="g31336">
      <path
         d="m 1201.0502,-41.169313 q -4.1479,-2.52181 -7.717,-0.04134 -1.7915,1.309136 -3.1557,3.23839 l 2.7836,3.527777 q 0.3583,-0.578776 1.006,-1.074869 1.4331,-1.43316 2.8801,-1.129992 0.813,0.179145 0.6614,1.102431 -0.124,0.785482 -0.9232,2.053277 -1.5021,2.356445 -3.6656,3.789605 -0.9371,0.799262 -1.7364,1.405598 l -0.3307,4.878256 11.2035,0.234266 0.014,-4.671549 -5.6637,0.261827 q 2.6872,-2.480469 4.6027,-5.40191 1.6812,-2.54937 1.8741,-4.478624 0.2618,-2.411566 -1.8328,-3.693142 z"
         style="font-variant-ligatures:normal;font-variant-caps:normal;font-variant-numeric:normal;font-feature-settings:normal;fill:#2196f3;stroke:#ffffff;stroke-width:1.32291663"
         id="path31334"
         inkscape:connector-curvature="0" />
    </g>
    <g
       transform="translate(-1128.9495,233.89818)"
       style="font-variant-ligatures:normal;font-variant-caps:normal;font-variant-numeric:normal;font-feature-settings:normal"
       aria-label="3"
       id="g31340">
      <path
         d="m 1224.1829,-41.348458 0.1241,4.203017 5.3054,-0.124024 -4.4648,3.23839 q 1.2264,-0.179145 2.4115,0.137804 2.3978,0.633897 2.3289,3.128146 -0.083,2.50803 -2.4115,2.466688 -1.1714,-0.02756 -2.3289,-0.551215 l -1.0887,4.492405 q 1.9844,0.633897 4.3271,0.675238 4.6439,0.09646 6.3527,-2.824978 2.3427,-4.023871 -0.041,-6.807508 -1.1989,-1.391819 -2.7423,-2.122179 l 4.768,-5.856662 z"
         style="font-variant-ligatures:normal;font-variant-caps:normal;font-variant-numeric:normal;font-feature-settings:normal;fill:#2196f3;stroke:#ffffff;stroke-width:1.32291663"
         id="path31338"
         inkscape:connector-curvature="0" />
    </g>
    <g
       transform="translate(-1110.4536,232.79071)"
       style="font-variant-ligatures:normal;font-variant-caps:normal;font-variant-numeric:normal;font-feature-settings:normal"
       aria-label="4"
       id="g31344">
      <path
         d="m 1267.173,-34.513513 h -2.8801 l 0.124,-6.173611 -4.7542,0.137803 v 10.004557 l 7.2485,0.261828 -0.5237,8.033962 4.9885,0.124024 0.3996,-18.562174 h -4.4786 z"
         style="font-variant-ligatures:normal;font-variant-caps:normal;font-variant-numeric:normal;font-feature-settings:normal;fill:#2196f3;stroke:#ffffff;stroke-width:1.32291663"
         id="path31342"
         inkscape:connector-curvature="0" />
    </g>
  </g>
</svg>
