<?xml version="1.0" encoding="UTF-8"?>
<!-- Created with Inkscape (http://www.inkscape.org/) -->
<svg width="1185" height="1185" version="1.1" viewBox="0 0 313.53124 313.53126" xmlns="http://www.w3.org/2000/svg" xmlns:cc="http://creativecommons.org/ns#" xmlns:dc="http://purl.org/dc/elements/1.1/" xmlns:rdf="http://www.w3.org/1999/02/22-rdf-syntax-ns#">
 <metadata>
  <rdf:RDF>
   <cc:Work rdf:about="">
    <dc:format>image/svg+xml</dc:format>
    <dc:type rdf:resource="http://purl.org/dc/dcmitype/StillImage"/>
    <dc:title/>
   </cc:Work>
  </rdf:RDF>
 </metadata>
 <rect y="5.8619776e-14" width="313.53125" height="313.53125" opacity="0" stroke-width="1.1926415"/>
 <path d="m156.64376 52.087697a98.933613 98.933613 0 0 0 -33.81034 6.08749l7.72408 0.66921-4.72271 6.92671a90.72936 90.72936 0 0 1 30.80897 -5.47874 90.72936 90.72936 0 0 1 90.72933 90.729353 90.72936 90.72936 0 0 1 -90.72933 90.72935 90.72936 90.72936 0 0 1 -90.72934 -90.72935 90.72936 90.72936 0 0 1 42.67646 -76.901773l-3.50676-7.39025a98.933613 98.933613 0 0 0 -47.37385 84.292023 98.933613 98.933613 0 0 0 98.93349 98.9335 98.933613 98.933613 0 0 0 98.93297 -98.9335 98.933613 98.933613 0 0 0 -98.93297 -98.934023z" fill="#ff5252"/>
 <g stroke="#fff" stroke-width=".5291667">
  <g transform="translate(-456.90203,5.1147657)" fill="#0d47a1" style="font-feature-settings:normal;font-variant-caps:normal;font-variant-ligatures:normal;font-variant-numeric:normal" aria-label="Martes">
   <path d="m660.20104 77.49603-3.64319 0.06029-0.27561 11.119046h3.52261l0.16364-7.372504 2.68718 4.358045 2.62688-3.970472-0.1378 7.036607 3.60012 0.06029 0.27561-11.153497-3.66041-0.05168-2.59244 4.185791z" style="font-feature-settings:normal;font-variant-caps:normal;font-variant-ligatures:normal;font-variant-numeric:normal"/>
   <path d="m672.96512 86.634146q-0.29284-0.04306-0.48232-0.172255-0.18087-0.129191-0.19809-0.275608-9e-3 -0.155029 0.16364-0.241156 0.19809-0.09474 0.57705-0.0689 0.267 0.02584 0.42203 0.155029 0.1378 0.129191 0.12919 0.284221-9e-3 0.163642-0.16364 0.249769-0.16364 0.103353-0.44786 0.0689zm2.3685-6.020305q-2.25654-0.396186-3.86712-0.163642-0.8096 0.120579-1.16272 0.318672l0.49954 2.506307q0.96462-0.266995 2.0326-0.241157 2.13596 0.05168 2.6355 1.550293-0.80959-0.482313-1.85174-0.732083-2.1015-0.499539-3.30729 0.671794-0.71486 0.697632-0.88711 1.576131-0.17225 0.869887 0.24116 1.584744 0.43925 0.766534 1.38665 1.102431 1.05936 0.370347 2.54937 0.120578 1.21439-0.215319 1.93786-1.188558l-0.14641 1.033529h2.93694q0.52538-1.808676 0.41341-3.729316-0.0947-1.679484-0.79237-2.756077-0.86127-1.343587-2.61827-1.653646z" style="font-feature-settings:normal;font-variant-caps:normal;font-variant-ligatures:normal;font-variant-numeric:normal"/>
   <path d="m681.8793 79.812857-2.75608 0.0689 0.21532 8.83667 2.83359 0.0689-0.11196-3.643189q0.37896-1.834513 2.04983-2.273763 0.83544-0.223931 1.59336-0.07752l9e-3 -3.005846q-2.42018 0.06029-3.79822 1.111044z" style="font-feature-settings:normal;font-variant-caps:normal;font-variant-ligatures:normal;font-variant-numeric:normal"/>
   <path d="m688.76088 76.824236-0.0861 2.781915-2.31683-0.129191-0.15502 2.764689 2.37711 0.111966-0.11196 6.545681 2.92833 0.15503 0.0861-6.580133 2.24793 0.01722 0.0603-2.781914-2.23931-0.04306 0.0603-2.678562z" style="font-feature-settings:normal;font-variant-caps:normal;font-variant-ligatures:normal;font-variant-numeric:normal"/>
   <path d="m698.81194 82.250262q0.75792-0.137804 1.10243 0.241156 0.17226 0.198093 0.18948 0.413412l-2.32544 0.223931q-0.0344-0.163642 0.0689-0.361735 0.21531-0.37896 0.96462-0.516764zm-0.35312 3.625963q-0.44786-0.24977-0.6115-0.689019-0.0861-0.215319-0.0775-0.387573l5.77915-0.68902q-0.19809-1.162719-0.99047-2.256537-1.60196-2.196249-4.63365-1.912028-1.73116 0.163642-2.73885 1.395263-0.91295 1.102431-0.99908 2.713013-0.0947 1.558906 0.61151 2.850817 0.75792 1.386651 2.11873 1.8259 2.35989 0.775147 4.53891-0.344509 1.09382-0.559828 1.70533-1.266073l-1.85174-1.929253q-0.4048 0.344509-0.96463 0.602891-1.11104 0.525378-1.88619 0.08613z" style="font-feature-settings:normal;font-variant-caps:normal;font-variant-ligatures:normal;font-variant-numeric:normal"/>
   <path d="m705.05618 85.178593q0.79237 0.34451 1.4211 0.611504 1.73978 0.869887 2.08429 0.559829 0.12058-0.180868 0.0344-0.310059-0.0861-0.129191-0.85266-0.430637-0.75792-0.310059-1.73978-0.620117-0.98185-0.310059-1.33497-1.024916-0.3359-0.689019-0.0517-1.455553 0.31006-0.826823 1.18856-1.309136 1.0163-0.551216 2.51492-0.456476 1.26607 0.07752 2.52353 0.577054 0.59428 0.327284 0.93018 0.645955l-1.08521 1.705323q-0.49954-0.327284-0.97324-0.473701-1.55029-0.568441-1.63642 0.03445-9e-3 0.163642 0.27561 0.34451 0.29283 0.172254 1.24024 0.430637 0.95601 0.249769 1.55029 0.533989 0.88711 0.43925 1.07659 1.403877 0.19809 0.981852-0.6115 2.015381-0.84405 0.990465-2.91972 0.999077-1.80868 0.01723-4.8662-1.3522z" style="font-feature-settings:normal;font-variant-caps:normal;font-variant-ligatures:normal;font-variant-numeric:normal"/>
  </g>
  <g transform="translate(-476.63237,17.798566)" fill="#1565c0" style="font-feature-settings:normal;font-variant-caps:normal;font-variant-ligatures:normal;font-variant-numeric:normal" aria-label="Miércoles">
   <path d="m677.86638 148.51496-3.64319 0.0603-0.27561 11.11904h3.52261l0.16365-7.3725 2.68717 4.35804 2.62689-3.97047-0.13781 7.03661 3.60013 0.0603 0.27561-11.1535-3.66042-0.0517-2.59243 4.18579z" style="font-feature-settings:normal;font-variant-caps:normal;font-variant-ligatures:normal;font-variant-numeric:normal"/>
   <path d="m688.61508 150.78872q0.86127-0.0258 1.31775-0.52538 0.42202-0.45647 0.38757-1.10243-0.0344-0.63734-0.48231-1.09381-0.48232-0.49954-1.25746-0.51677-0.69763-0.0258-1.16272 0.49093-0.42203 0.4737-0.46509 1.13688-0.0344 0.68041 0.36174 1.12827 0.45647 0.50815 1.30052 0.48231zm1.30914 0.55122-2.72163 9e-3 -0.0344 8.47493 2.79914 0.0689z" style="font-feature-settings:normal;font-variant-caps:normal;font-variant-ligatures:normal;font-variant-numeric:normal"/>
   <path d="m695.2555 153.26919q0.75792-0.1378 1.10243 0.24116 0.17226 0.19809 0.18948 0.41341l-2.32544 0.22393q-0.0345-0.16364 0.0689-0.36174 0.21532-0.37896 0.96463-0.51676zm-0.35312 3.62596q-0.44786-0.24977-0.61151-0.68902-0.0861-0.21531-0.0775-0.38757l5.77915-0.68902q-0.1981-1.16272-0.99047-2.25654-1.60197-2.19624-4.63365-1.91202-1.73116 0.16364-2.73885 1.39526-0.91295 1.10243-0.99908 2.71301-0.0947 1.55891 0.6115 2.85082 0.75793 1.38665 2.11874 1.8259 2.35989 0.77515 4.53891-0.34451 1.09382-0.55983 1.70532-1.26607l-1.85173-1.92926q-0.4048 0.34451-0.96463 0.6029-1.11104 0.52537-1.88619 0.0861zm0.79237-9.70655-2.73885 2.83359 0.79237 0.83543 3.247-2.09289z" style="font-feature-settings:normal;font-variant-caps:normal;font-variant-ligatures:normal;font-variant-numeric:normal"/>
   <path d="m703.02419 150.83179-2.75608 0.0689 0.21532 8.83667 2.83359 0.0689-0.11196-3.64319q0.37896-1.83451 2.04983-2.27376 0.83544-0.22393 1.59336-0.0775l9e-3 -3.00584q-2.42018 0.0603-3.79822 1.11104z" style="font-feature-settings:normal;font-variant-caps:normal;font-variant-ligatures:normal;font-variant-numeric:normal"/>
   <path d="m713.17861 154.68168q-0.31006-0.31006-0.74069-0.4737-0.85267-0.32729-1.41249 0.39618-0.31867 0.42203-0.20671 0.86128 0.0861 0.4048 0.49093 0.68041 0.41341 0.26699 0.93879 0.25838 0.57705-0.0258 1.07659-0.4048l2.15318 1.6881q-0.6115 0.91295-1.72255 1.52445-2.23069 1.2144-4.737-0.28422-1.31775-0.79237-1.58475-2.6355-0.24976-1.77422 0.6029-3.32452 0.91295-1.68809 2.63549-2.0326 2.00677-0.38758 4.51308 1.2833z" style="font-feature-settings:normal;font-variant-caps:normal;font-variant-ligatures:normal;font-variant-numeric:normal"/>
   <path d="m720.05158 156.4559q-0.50815-9e-3 -0.76654-0.15503-0.24977-0.1378-0.24977-0.38757 0-0.25838 0.23255-0.42202 0.25838-0.18948 0.70624-0.18948 0.4737 0 0.74931 0.16364 0.27561 0.15503 0.27561 0.4048 0 0.24115-0.27561 0.41341-0.26699 0.18087-0.67179 0.17225zm-0.0603-5.1418q-2.1618 0-3.27284 1.45555-0.93018 1.2144-0.93018 3.09197 0 2.08429 0.97324 3.07475 1.07659 1.09382 3.57429 1.12827 1.77422 0.0258 2.96278-1.30913 1.15411-1.30053 1.15411-3.15227 0-1.86896-1.16272-3.04891-1.22301-1.24023-3.29868-1.24023z" style="font-feature-settings:normal;font-variant-caps:normal;font-variant-ligatures:normal;font-variant-numeric:normal"/>
   <path d="m724.64217 148.35993v11.41188h3.53983l0.15503-11.56691z" style="font-feature-settings:normal;font-variant-caps:normal;font-variant-ligatures:normal;font-variant-numeric:normal"/>
   <path d="m733.22046 153.26919q0.75792-0.1378 1.10243 0.24116 0.17225 0.19809 0.18948 0.41341l-2.32544 0.22393q-0.0344-0.16364 0.0689-0.36174 0.21532-0.37896 0.96463-0.51676zm-0.35313 3.62596q-0.44786-0.24977-0.6115-0.68902-0.0861-0.21531-0.0775-0.38757l5.77915-0.68902q-0.19809-1.16272-0.99046-2.25654-1.60197-2.19624-4.63366-1.91202-1.73116 0.16364-2.73885 1.39526-0.91295 1.10243-0.99908 2.71301-0.0947 1.55891 0.61151 2.85082 0.75792 1.38665 2.11873 1.8259 2.35989 0.77515 4.53892-0.34451 1.09381-0.55983 1.70532-1.26607l-1.85174-1.92926q-0.4048 0.34451-0.96463 0.6029-1.11104 0.52537-1.88619 0.0861z" style="font-feature-settings:normal;font-variant-caps:normal;font-variant-ligatures:normal;font-variant-numeric:normal"/>
   <path d="m739.46469 156.19752q0.79237 0.34451 1.4211 0.61151 1.73978 0.86988 2.08429 0.55982 0.12057-0.18086 0.0344-0.31005-0.0861-0.1292-0.85267-0.43064-0.75792-0.31006-1.73977-0.62012t-1.33497-1.02491q-0.3359-0.68902-0.0517-1.45556 0.31006-0.82682 1.18856-1.30913 1.0163-0.55122 2.51492-0.45648 1.26607 0.0775 2.52353 0.57705 0.59428 0.32729 0.93018 0.64596l-1.08521 1.70532q-0.49954-0.32728-0.97324-0.4737-1.55029-0.56844-1.63642 0.0344-9e-3 0.16364 0.27561 0.34451 0.29283 0.17226 1.24023 0.43064 0.95602 0.24977 1.5503 0.53399 0.88711 0.43925 1.07659 1.40388 0.19809 0.98185-0.61151 2.01538-0.84404 0.99046-2.91971 0.99907-1.80868 0.0172-4.8662-1.3522z" style="font-feature-settings:normal;font-variant-caps:normal;font-variant-ligatures:normal;font-variant-numeric:normal"/>
  </g>
  <g transform="translate(-435.29259,17.798566)" fill="#2196f3" style="font-feature-settings:normal;font-variant-caps:normal;font-variant-ligatures:normal;font-variant-numeric:normal" aria-label="Sábado">
   <path d="m479.4848 156.51958q1.66226 0.28422 3.33313 0.36174 3.34174 0.14641 3.3762-0.90434 0.0172-0.52538-0.98186-0.73209-0.30144-0.0689-2.23931-0.24976-1.57613-0.14642-2.38573-0.45648-1.14549-0.43925-1.36942-1.36943-0.34451-1.48139-0.11197-2.42879 0.22393-0.93879 1.05937-1.45555 1.49-0.93018 5.82221-0.72347 2.11012 0.10335 3.0403 0.27561l-0.0517 2.81636q-1.65365-0.2756-3.34174-0.39618-3.35036-0.24116-3.41926 0.49954-0.0603 0.71485 1.45555 0.90433 0.4737 0.0603 1.30053 0.0861 0.92156 0.0258 1.11104 0.0431 2.00677 0.16365 2.95417 1.66226 0.44786 0.72347 0.46509 1.57613 0.0172 0.92157-0.4737 1.84313-1.02492 1.9637-5.46909 1.93787-2.22209-0.0172-4.23747-0.42203z" style="font-feature-settings:normal;font-variant-caps:normal;font-variant-ligatures:normal;font-variant-numeric:normal"/>
   <path d="m493.61831 157.65646q-0.29284-0.0431-0.48232-0.17225-0.18086-0.12919-0.19809-0.27561-9e-3 -0.15503 0.16364-0.24116 0.1981-0.0947 0.57706-0.0689 0.26699 0.0258 0.42202 0.15503 0.1378 0.12919 0.12919 0.28422-9e-3 0.16364-0.16364 0.24977-0.16364 0.10335-0.44786 0.0689zm2.3685-6.0203q-2.25654-0.39619-3.86712-0.16364-0.8096 0.12057-1.16272 0.31867l0.49954 2.5063q0.96463-0.26699 2.03261-0.24115 2.13596 0.0517 2.63549 1.55029-0.80959-0.48231-1.85173-0.73208-2.10151-0.49954-3.3073 0.67179-0.71485 0.69763-0.88711 1.57613-0.17225 0.86989 0.24116 1.58475 0.43925 0.76653 1.38665 1.10243 1.05937 0.37034 2.54937 0.12057 1.2144-0.21531 1.93787-1.18855l-0.14642 1.03353h2.93694q0.52538-1.80868 0.41342-3.72932-0.0948-1.67948-0.79238-2.75608-0.86127-1.34358-2.61827-1.65364zm-0.0431-4.44418-2.73885 2.8336 0.79237 0.83543 3.247-2.09289z" style="font-feature-settings:normal;font-variant-caps:normal;font-variant-ligatures:normal;font-variant-numeric:normal"/>
   <path d="m505.18522 156.38178q-0.43064-0.0861-0.59428-0.28422-0.14642-0.17226-0.0689-0.37896 0.0775-0.18948 0.30145-0.32729 0.24116-0.1378 0.49954-0.1378 0.57705 0.0172 0.83543 0.22393 0.23255 0.18948 0.16365 0.43925-0.0775 0.25838-0.37035 0.39618-0.3359 0.15503-0.76653 0.0689zm3.42787-3.66042q-1.58475-1.30052-3.53123-0.89572-0.98185 0.19809-1.66226 0.65457v-4.26331l-3.55706 0.16364v11.30853l3.25562 0.0947v-1.23162q0.17225 0.31006 0.49954 0.80098 0.80959 0.48231 1.97231 0.57705 1.46417 0.1292 2.53215-0.70624 1.04214-0.68041 1.62781-1.99816 0.4048-1.25745 0.15503-2.48908-0.41342-1.30913-1.29191-2.01538z" style="font-feature-settings:normal;font-variant-caps:normal;font-variant-ligatures:normal;font-variant-numeric:normal"/>
   <path d="m514.04772 157.65646q-0.29283-0.0431-0.48231-0.17225-0.18087-0.12919-0.19809-0.27561-9e-3 -0.15503 0.16364-0.24116 0.19809-0.0947 0.57705-0.0689 0.267 0.0258 0.42203 0.15503 0.1378 0.12919 0.12919 0.28422-9e-3 0.16364-0.16364 0.24977-0.16365 0.10335-0.44787 0.0689zm2.36851-6.0203q-2.25654-0.39619-3.86712-0.16364-0.8096 0.12057-1.16272 0.31867l0.49954 2.5063q0.96462-0.26699 2.0326-0.24115 2.13596 0.0517 2.6355 1.55029-0.8096-0.48231-1.85174-0.73208-2.10151-0.49954-3.30729 0.67179-0.71486 0.69763-0.88711 1.57613-0.17226 0.86989 0.24115 1.58475 0.43925 0.76653 1.38666 1.10243 1.05936 0.37034 2.54937 0.12057 1.21439-0.21531 1.93786-1.18855l-0.14641 1.03353h2.93694q0.52538-1.80868 0.41341-3.72932-0.0947-1.67948-0.79237-2.75608-0.86127-1.34358-2.61827-1.65364z" style="font-feature-settings:normal;font-variant-caps:normal;font-variant-ligatures:normal;font-variant-numeric:normal"/>
   <path d="m525.08064 156.45929q-0.4048 0.0947-0.73208-0.0603-0.27561-0.1378-0.35312-0.37896-0.0603-0.25838 0.15503-0.43925 0.25838-0.19809 0.80098-0.21532 0.24977 0 0.4737 0.12919 0.22393 0.13781 0.29283 0.32729 0.0775 0.19809-0.0689 0.37035-0.15503 0.18948-0.56844 0.26699zm-3.40203-3.59151q-0.8785 0.67179-1.30052 1.92064-0.24116 1.18856 0.16364 2.38573 0.58566 1.26607 1.54168 1.98954 1.0852 0.8096 2.54076 0.68041 1.17133-0.0947 1.78283-0.55983 0.61151-0.46509 0.78376-0.75792v1.34359l3.1781 0.17225-0.0775-11.51523-3.48816-0.18087v4.36666q-0.68041-0.43064-1.66226-0.62873-1.9637-0.38757-3.46232 0.78376z" style="font-feature-settings:normal;font-variant-caps:normal;font-variant-ligatures:normal;font-variant-numeric:normal"/>
   <path d="m535.02836 156.45929q-0.50815-9e-3 -0.76654-0.15503-0.24977-0.1378-0.24977-0.38757 0-0.25838 0.23255-0.42203 0.25838-0.18948 0.70624-0.18948 0.4737 0 0.74931 0.16365 0.27561 0.15503 0.27561 0.40479 0 0.24116-0.27561 0.41342-0.26699 0.18086-0.67179 0.17225zm-0.0603-5.1418q-2.1618 0-3.27284 1.45555-0.93018 1.2144-0.93018 3.09197 0 2.08428 0.97324 3.07475 1.07659 1.09382 3.57429 1.12827 1.77422 0.0258 2.96278-1.30914 1.15411-1.30052 1.15411-3.15226 0-1.86896-1.16272-3.04891-1.22301-1.24023-3.29868-1.24023z" style="font-feature-settings:normal;font-variant-caps:normal;font-variant-ligatures:normal;font-variant-numeric:normal"/>
  </g>
  <g transform="translate(-433.88327,5.1147657)" fill="#42a5f5" style="font-feature-settings:normal;font-variant-caps:normal;font-variant-ligatures:normal;font-variant-numeric:normal" aria-label="Domingo">
   <path d="m496.29005 76.804703q2.42018-0.215318 4.96093 0.335897 2.22209 0.490926 3.53984 1.54168 1.63642 1.309137 1.74839 3.427871 0.2067 3.780992-4.53892 5.236545-2.3685 0.732083-5.12458 0.706244zm3.36758 7.958171q4.09105-0.654568 3.53122-3.023071-1.13688-2.32544-3.78099-1.713935z" style="font-feature-settings:normal;font-variant-caps:normal;font-variant-ligatures:normal;font-variant-numeric:normal"/>
   <path d="m511.1987 84.702585q-0.50815-0.0086-0.76654-0.155029-0.24977-0.137804-0.24977-0.387574 0-0.258382 0.23255-0.422024 0.25838-0.18948 0.70624-0.18948 0.4737 0 0.74931 0.163642 0.27561 0.155029 0.27561 0.404799 0 0.241156-0.27561 0.413411-0.26699 0.180868-0.67179 0.172255zm-0.0603-5.141805q-2.1618 0-3.27284 1.455553-0.93018 1.214396-0.93018 3.091973 0 2.084283 0.97324 3.074748 1.07659 1.093818 3.57429 1.128269 1.77422 0.02584 2.96278-1.309137 1.15411-1.300523 1.15411-3.152262 0-1.868965-1.16272-3.04891-1.22301-1.240234-3.29868-1.240234z" style="font-feature-settings:normal;font-variant-caps:normal;font-variant-ligatures:normal;font-variant-numeric:normal"/>
   <path d="m526.59827 79.112917q-1.84312-0.02584-2.76469 1.403877-0.52537 0.800985-0.65456 1.800062 0.0861-0.835435-0.28422-1.567518-0.3359-1.291911-1.56752-1.636421-0.99908-0.28422-2.26515 0.895725l0.0172-1.033528-3.20394-0.01723 0.0947 9.207018 3.14365-0.08613 0.1292-2.549371q0.33589-3.04891 1.26607-2.997233 0.99046 0.04306 0.89572 2.747463-0.0431 1.3522-0.28422 2.7044l3.20394 0.0086q0.0775-1.438327 0.31867-2.816365 0.23255-2.695788 1.05937-2.463244 0.83543 0.223931 0.79237 2.79914-0.11196 1.343588-0.38757 2.626886l2.99723-0.15503q0.34451-2.204861 0.23255-4.409722-0.10336-1.929253-0.62873-3.040297-0.65457-1.395263-2.11013-1.421102z" style="font-feature-settings:normal;font-variant-caps:normal;font-variant-ligatures:normal;font-variant-numeric:normal"/>
   <path d="m531.26638 79.035403q0.86127-0.02584 1.31775-0.525377 0.42202-0.456476 0.38757-1.102431-0.0345-0.637343-0.48231-1.093818-0.48231-0.499539-1.25746-0.516764-0.69763-0.02584-1.16272 0.490926-0.42202 0.473701-0.46509 1.136882-0.0344 0.680406 0.36174 1.128268 0.45647 0.508152 1.30052 0.482314zm1.30914 0.551215-2.72163 0.0086-0.0344 8.474935 2.79914 0.0689z" style="font-feature-settings:normal;font-variant-caps:normal;font-variant-ligatures:normal;font-variant-numeric:normal"/>
   <path d="m538.80252 79.000952q-1.60197-0.163642-2.71301 0.577053l0.0172-0.585666-2.7044-0.07752-0.21532 9.27592h3.23839l0.0431-3.255615q-0.11196-2.807753 1.30914-2.868042 1.05075-0.04306 1.21439 2.885267 0.0861 1.386651-0.12919 2.85943l3.36758 0.07751q0.24977-2.187635-0.0517-4.314982-0.25838-1.937866-0.96463-3.074748-0.88711-1.421102-2.41157-1.498616z" style="font-feature-settings:normal;font-variant-caps:normal;font-variant-ligatures:normal;font-variant-numeric:normal"/>
   <path d="m547.51 82.385758q0.28423 0.06029 0.49093 0.266995 0.20671 0.198093 0.22393 0.404799 0.0172 0.232544-0.21532 0.370348-0.28422 0.163642-0.86988 0.146416-0.58567 0-0.81821-0.232544-0.21532-0.206706-0.10336-0.490926 0.11197-0.266995 0.45648-0.422024 0.37896-0.155029 0.83543-0.04306zm-4.47862 8.45771q3.96186 2.437405 7.01938 0.766534 1.80868-1.197171 2.18764-4.633654 0.50815-2.816366 0.26699-7.872043l-3.11781-0.129191 9e-3 0.835435q-0.99907-0.775146-2.28237-0.775146-1.8948 0-3.11781 1.231621-1.10243 1.128269-1.17995 2.713013-0.0947 1.610582 0.93018 2.695787 1.14549 1.214397 3.23839 1.16272 1.49-0.02584 2.48908-0.680406 0.12919 0.81821-0.68041 2.006768-0.63734 0.938789-1.8948 0.852661-1.43833-0.103353-2.93694-1.188558z" style="font-feature-settings:normal;font-variant-caps:normal;font-variant-ligatures:normal;font-variant-numeric:normal"/>
   <path d="m557.12182 84.702585q-0.50815-0.0086-0.76653-0.155029-0.24977-0.137804-0.24977-0.387574 0-0.258382 0.23254-0.422024 0.25838-0.18948 0.70625-0.18948 0.4737 0 0.74931 0.163642 0.2756 0.155029 0.2756 0.404799 0 0.241156-0.2756 0.413411-0.267 0.180868-0.6718 0.172255zm-0.0603-5.141805q-2.1618 0-3.27284 1.455553-0.93017 1.214396-0.93017 3.091973 0 2.084283 0.97324 3.074748 1.07659 1.093818 3.57428 1.128269 1.77423 0.02584 2.96278-1.309137 1.15411-1.300523 1.15411-3.152262 0-1.868965-1.16272-3.04891-1.22301-1.240234-3.29868-1.240234z" style="font-feature-settings:normal;font-variant-caps:normal;font-variant-ligatures:normal;font-variant-numeric:normal"/>
  </g>
  <g transform="translate(-469.58582,16.859025)" fill="#1976d2" style="font-feature-settings:normal;font-variant-caps:normal;font-variant-ligatures:normal;font-variant-numeric:normal" aria-label="Jueves">
   <path d="m644.25496 216.52735q0.29283 0.83543 0.57705 1.14549 0.55983 0.62873 1.17995 0.18087 0.99046-0.56844 0.21531-8.30268l3.53984-0.0344q0.32728 2.86804 0.0258 5.71024-0.24977 2.48047-1.0163 3.88435-0.94741 1.74838-2.64412 1.69671-2.32543-0.0775-3.58289-1.65365-0.62012-0.79237-0.78376-1.91203z" style="font-feature-settings:normal;font-variant-caps:normal;font-variant-ligatures:normal;font-variant-numeric:normal"/>
   <path d="m655.08978 212.80664q0.21532 1.23162 0.23255 2.42879 0.0344 2.40296-0.79237 2.23932-0.82683-0.16365-0.96463-2.30822-0.0603-1.06798 0.0775-2.18763l-3.06613-0.17226q-0.37896 2.024-0.0431 4.04799 0.65457 4.04799 4.19441 4.04799 3.53983 0 3.93602-4.22025 0.18948-2.1015-0.31867-4.21162z" style="font-feature-settings:normal;font-variant-caps:normal;font-variant-ligatures:normal;font-variant-numeric:normal"/>
   <path d="m663.81449 214.27081q0.75792-0.13781 1.10243 0.24115 0.17225 0.1981 0.18948 0.41342l-2.32544 0.22393q-0.0345-0.16364 0.0689-0.36174 0.21532-0.37896 0.96463-0.51676zm-0.35312 3.62596q-0.44787-0.24977-0.61151-0.68902-0.0861-0.21532-0.0775-0.38757l5.77914-0.68902q-0.19809-1.16272-0.99046-2.25654-1.60197-2.19625-4.63365-1.91203-1.73117 0.16365-2.73886 1.39527-0.91295 1.10243-0.99907 2.71301-0.0947 1.55891 0.6115 2.85082 0.75792 1.38665 2.11874 1.8259 2.35989 0.77514 4.53891-0.34451 1.09382-0.55983 1.70532-1.26607l-1.85174-1.92926q-0.4048 0.34451-0.96462 0.60289-1.11105 0.52538-1.88619 0.0861z" style="font-feature-settings:normal;font-variant-caps:normal;font-variant-ligatures:normal;font-variant-numeric:normal"/>
   <path d="m673.86555 217.81064-2.06705-5.52076-2.9714 0.65457 3.28145 7.78591 3.33313 0.19809 2.95417-8.89695-2.88526-0.73209z" style="font-feature-settings:normal;font-variant-caps:normal;font-variant-ligatures:normal;font-variant-numeric:normal"/>
   <path d="m683.31373 214.27081q0.75792-0.13781 1.10243 0.24115 0.17225 0.1981 0.18948 0.41342l-2.32544 0.22393q-0.0344-0.16364 0.0689-0.36174 0.21532-0.37896 0.96463-0.51676zm-0.35312 3.62596q-0.44787-0.24977-0.61151-0.68902-0.0861-0.21532-0.0775-0.38757l5.77914-0.68902q-0.19809-1.16272-0.99046-2.25654-1.60197-2.19625-4.63365-1.91203-1.73116 0.16365-2.73885 1.39527-0.91295 1.10243-0.99908 2.71301-0.0947 1.55891 0.6115 2.85082 0.75792 1.38665 2.11874 1.8259 2.35989 0.77514 4.53891-0.34451 1.09382-0.55983 1.70532-1.26607l-1.85174-1.92926q-0.4048 0.34451-0.96462 0.60289-1.11105 0.52538-1.88619 0.0861z" style="font-feature-settings:normal;font-variant-caps:normal;font-variant-ligatures:normal;font-variant-numeric:normal"/>
   <path d="m689.55796 217.19914q0.79238 0.34451 1.42111 0.6115 1.73977 0.86989 2.08428 0.55983 0.12058-0.18087 0.0344-0.31006-0.0861-0.12919-0.85266-0.43063-0.75792-0.31006-1.73978-0.62012-0.98185-0.31006-1.33497-1.02492-0.3359-0.68902-0.0517-1.45555 0.31006-0.82682 1.18856-1.30914 1.0163-0.55121 2.51492-0.45647 1.26607 0.0775 2.52353 0.57705 0.59428 0.32729 0.93018 0.64596l-1.08521 1.70532q-0.49953-0.32728-0.97323-0.4737-1.5503-0.56844-1.63643 0.0344-9e-3 0.16364 0.27561 0.34451 0.29284 0.17225 1.24024 0.43064 0.95601 0.24977 1.55029 0.53399 0.88711 0.43925 1.07659 1.40387 0.1981 0.98185-0.6115 2.01538-0.84405 0.99047-2.91972 0.99908-1.80868 0.0172-4.8662-1.3522z" style="font-feature-settings:normal;font-variant-caps:normal;font-variant-ligatures:normal;font-variant-numeric:normal"/>
  </g>
  <g transform="translate(-442.80892,14.927447)" fill="#1976d2" style="font-feature-settings:normal;font-variant-caps:normal;font-variant-ligatures:normal;font-variant-numeric:normal" aria-label="Viernes">
   <path d="m530.16676 211.92991-2.19625 8.02707-3.41926-7.86343-2.67856 1.06798 4.71117 10.05968h2.93694l3.42787-10.37835z" style="font-feature-settings:normal;font-variant-caps:normal;font-variant-ligatures:normal;font-variant-numeric:normal"/>
   <path d="m534.83486 214.20367q0.86127-0.0258 1.31775-0.52538 0.42202-0.45647 0.38757-1.10243-0.0344-0.63734-0.48231-1.09382-0.48231-0.49954-1.25746-0.51676-0.69763-0.0258-1.16272 0.49093-0.42203 0.4737-0.46509 1.13688-0.0344 0.6804 0.36174 1.12827 0.45647 0.50815 1.30052 0.48231zm1.30914 0.55121-2.72163 9e-3 -0.0344 8.47493 2.79914 0.0689z" style="font-feature-settings:normal;font-variant-caps:normal;font-variant-ligatures:normal;font-variant-numeric:normal"/>
   <path d="m541.47528 216.68414q0.75792-0.13781 1.10243 0.24115 0.17226 0.1981 0.18948 0.41342l-2.32544 0.22393q-0.0344-0.16364 0.0689-0.36174 0.21531-0.37896 0.96462-0.51676zm-0.35312 3.62596q-0.44786-0.24977-0.6115-0.68902-0.0861-0.21532-0.0775-0.38757l5.77915-0.68902q-0.19809-1.16272-0.99047-2.25654-1.60197-2.19625-4.63365-1.91203-1.73116 0.16365-2.73885 1.39527-0.91295 1.10243-0.99908 2.71301-0.0947 1.55891 0.61151 2.85082 0.75792 1.38665 2.11873 1.8259 2.35989 0.77514 4.53891-0.34451 1.09382-0.55983 1.70532-1.26607l-1.85173-1.92926q-0.4048 0.34451-0.96463 0.60289-1.11104 0.52538-1.88619 0.0861z" style="font-feature-settings:normal;font-variant-caps:normal;font-variant-ligatures:normal;font-variant-numeric:normal"/>
   <path d="m549.24397 214.24673-2.75607 0.0689 0.21531 8.83667 2.8336 0.0689-0.11197-3.64319q0.37896-1.83452 2.04983-2.27376 0.83544-0.22394 1.59336-0.0775l9e-3 -3.00585q-2.42018 0.0603-3.79822 1.11105z" style="font-feature-settings:normal;font-variant-caps:normal;font-variant-ligatures:normal;font-variant-numeric:normal"/>
   <path d="m559.01082 214.16922q-1.60197-0.16364-2.71301 0.57705l0.0172-0.58566-2.7044-0.0775-0.21532 9.27592h3.23839l0.0431-3.25561q-0.11197-2.80776 1.30913-2.86805 1.05076-0.0431 1.2144 2.88527 0.0861 1.38665-0.12919 2.85943l3.36758 0.0775q0.24977-2.18763-0.0517-4.31498-0.25838-1.93786-0.96462-3.07475-0.88712-1.4211-2.41157-1.49861z" style="font-feature-settings:normal;font-variant-caps:normal;font-variant-ligatures:normal;font-variant-numeric:normal"/>
   <path d="m567.58911 216.68414q0.75792-0.13781 1.10243 0.24115 0.17225 0.1981 0.18948 0.41342l-2.32544 0.22393q-0.0344-0.16364 0.0689-0.36174 0.21532-0.37896 0.96463-0.51676zm-0.35312 3.62596q-0.44787-0.24977-0.61151-0.68902-0.0861-0.21532-0.0775-0.38757l5.77914-0.68902q-0.19809-1.16272-0.99046-2.25654-1.60197-2.19625-4.63365-1.91203-1.73117 0.16365-2.73886 1.39527-0.91295 1.10243-0.99907 2.71301-0.0947 1.55891 0.6115 2.85082 0.75792 1.38665 2.11874 1.8259 2.35989 0.77514 4.53891-0.34451 1.09382-0.55983 1.70532-1.26607l-1.85174-1.92926q-0.4048 0.34451-0.96462 0.60289-1.11105 0.52538-1.88619 0.0861z" style="font-feature-settings:normal;font-variant-caps:normal;font-variant-ligatures:normal;font-variant-numeric:normal"/>
   <path d="m573.83334 219.61247q0.79237 0.34451 1.4211 0.6115 1.73978 0.86989 2.08429 0.55983 0.12058-0.18087 0.0344-0.31006-0.0861-0.12919-0.85266-0.43063-0.75792-0.31006-1.73978-0.62012-0.98185-0.31006-1.33497-1.02492-0.3359-0.68902-0.0517-1.45555 0.31006-0.82682 1.18856-1.30914 1.0163-0.55121 2.51492-0.45647 1.26607 0.0775 2.52353 0.57705 0.59428 0.32729 0.93018 0.64596l-1.08521 1.70532q-0.49953-0.32728-0.97324-0.4737-1.55029-0.56844-1.63642 0.0344-9e-3 0.16364 0.27561 0.34451 0.29283 0.17225 1.24024 0.43064 0.95601 0.24977 1.55029 0.53399 0.88711 0.43925 1.07659 1.40387 0.19809 0.98186-0.6115 2.01538-0.84405 0.99047-2.91972 0.99908-1.80868 0.0172-4.8662-1.3522z" style="font-feature-settings:normal;font-variant-caps:normal;font-variant-ligatures:normal;font-variant-numeric:normal"/>
  </g>
 </g>
 <g transform="translate(-452.67409,6.5240767)" fill="#1a237e" stroke-opacity="0" style="font-feature-settings:normal;font-variant-caps:normal;font-variant-ligatures:normal;font-variant-numeric:normal" aria-label="Lunes ">
  <path d="m588.86243 33.366468v11.2913l8.25101-0.120578v-3.031684l-4.96955 0.241156-0.0689-8.380194z" style="font-feature-settings:normal;font-variant-caps:normal;font-variant-ligatures:normal;font-variant-numeric:normal"/>
  <path d="m602.11744 36.656534q0.21532 1.231621 0.23254 2.428792 0.0344 2.402954-0.79237 2.239312-0.82682-0.163642-0.96463-2.308214-0.0603-1.067979 0.0775-2.187635l-3.06614-0.172255q-0.37896 2.023993-0.0431 4.047987 0.65457 4.047987 4.1944 4.047987 3.53984 0 3.93603-4.220242 0.18948-2.101508-0.31868-4.211629z" style="font-feature-settings:normal;font-variant-caps:normal;font-variant-ligatures:normal;font-variant-numeric:normal"/>
  <path d="m611.73787 35.60578q-1.60197-0.163642-2.71301 0.577053l0.0172-0.585666-2.7044-0.07751-0.21532 9.27592h3.23839l0.0431-3.255615q-0.11197-2.807753 1.30913-2.868042 1.05076-0.04306 1.2144 2.885267 0.0861 1.386651-0.12919 2.85943l3.36758 0.07751q0.24977-2.187635-0.0517-4.314982-0.25838-1.937866-0.96462-3.074748-0.88712-1.421102-2.41157-1.498616z" style="font-feature-settings:normal;font-variant-caps:normal;font-variant-ligatures:normal;font-variant-numeric:normal"/>
  <path d="m620.31615 38.120699q0.75793-0.137803 1.10244 0.241157 0.17225 0.198093 0.18948 0.413412l-2.32544 0.223931q-0.0345-0.163642 0.0689-0.361735 0.21532-0.378961 0.96462-0.516765zm-0.35312 3.625963q-0.44786-0.249769-0.6115-0.689019-0.0861-0.215318-0.0775-0.387573l5.77915-0.689019q-0.19809-1.16272-0.99046-2.256538-1.60197-2.196248-4.63366-1.912028-1.73116 0.163642-2.73885 1.395264-0.91295 1.102431-0.99908 2.713013-0.0947 1.558906 0.61151 2.850816 0.75792 1.386651 2.11873 1.825901 2.35989 0.775147 4.53892-0.344509 1.09381-0.559829 1.70532-1.266073l-1.85174-1.929254q-0.4048 0.34451-0.96463 0.602892-1.11104 0.525377-1.88619 0.08613z" style="font-feature-settings:normal;font-variant-caps:normal;font-variant-ligatures:normal;font-variant-numeric:normal"/>
  <path d="m626.56039 41.049031q0.79238 0.344509 1.42111 0.611504 1.73977 0.869887 2.08428 0.559828 0.12058-0.180867 0.0344-0.310058-0.0861-0.129192-0.85266-0.430637-0.75792-0.310059-1.73978-0.620118-0.98185-0.310058-1.33497-1.024916-0.3359-0.689019-0.0517-1.455552 0.31006-0.826823 1.18856-1.309137 1.0163-0.551215 2.51492-0.456475 1.26607 0.07751 2.52353 0.577054 0.59428 0.327284 0.93018 0.645955l-1.08521 1.705322q-0.49953-0.327284-0.97323-0.4737-1.5503-0.568441-1.63643 0.03445-9e-3 0.163642 0.27561 0.344509 0.29284 0.172255 1.24024 0.430637 0.95601 0.24977 1.55029 0.53399 0.88711 0.43925 1.07659 1.403876 0.1981 0.981853-0.6115 2.015381-0.84405 0.990465-2.91972 0.999078-1.80868 0.01723-4.8662-1.3522z" style="font-feature-settings:normal;font-variant-caps:normal;font-variant-ligatures:normal;font-variant-numeric:normal"/>
 </g>
 <path d="m94.76545 63.972542 28.91279-1.983223-18.30983 22.77706z" fill="#ff5252"/>
 <path d="m137.50292 5.1161867c1.04434-1.131397 41.36849-1.357269 42.44647-0.23776 1.07798 1.119508-18.76464 22.6160423-20.88697 22.6279303-2.12233 0.01189-22.60385-21.2587743-21.5595-22.3901703z" fill="#00c853"/>
 <g transform="rotate(-49.563281,130.29251,128.93144)" fill="none" stroke="#ffc107" stroke-linecap="round" stroke-width="2.64583325">
  <g transform="rotate(-26.301235,280.87683,257.93987)">
   <path d="m311.01879 55.61079-10.7041-6.274815"/>
   <path d="m312.14537 43.254339-1.12658 12.356451"/>
  </g>
  <path d="m148.16068 32.100827s36.96218 2.270005 70.08762 31.100082"/>
 </g>
 <path d="m42.92629 74.984637c-0.15248-0.931974 14.96512-20.506631 15.91325-20.604898 0.94812-0.09827 3.84503 17.609286 3.04936 18.63954-0.79565 1.030251-18.81015 2.897331-18.96261 1.965358z" fill="#2196f3"/>
 <g transform="rotate(5.2796452,106.03023,3230.4358)" fill="#616161" stroke-width=".26458332" style="font-feature-settings:normal;font-variant-caps:normal;font-variant-ligatures:normal;font-variant-numeric:normal" aria-label="mañana">
  <path d="m-214.04121 44.860229q-0.1566 0.521559-0.33817 0.682357-0.11554 0.102326-0.43245 0.176816-0.21738-0.278718-0.77286-0.905954-0.49513-0.592336-0.77287-0.905955-4.50234-5.083918-5.55874-4.148367-0.62724 0.555484 0.31392 2.549386 0.76244 1.592575 1.5372 2.467405l1.4618 1.650623q0.11694 0.13205 0.40224 0.321172 0.28718 0.157997 0.38951 0.27354 0.11694 0.13205 0.0523 0.424898-0.0646 0.292848-0.19667 0.409792-0.14856 0.131562-0.50554 0.09428-0.3716-0.05378-0.50316-0.202339l-2.93822-3.317752q-0.46778-0.5282-1.36563-1.176207-1.1374-0.818734-1.46752-0.526374-0.18157 0.160798-0.13541 0.944568 0.16536 2.680947 2.21188 4.991819 0.24851 0.280606 0.81155 0.783346 0.54841 0.486233 0.7823 0.750333 0.43854 0.495187 0.0259 0.860637-0.19808 0.175416-0.49281 0.141915-0.13912-0.02406-0.80637-0.611218-0.60878-0.521134-0.79881-0.735715l-3.44985-3.89547q-1.49103-1.683635-1.09488-2.034467 0.16506-0.14618 0.4763-0.127298 0.31313-0.01224 0.45931 0.152821 0.30698 0.34663 0.70495 0.99555 0.54416 0.813982 0.68845 1.010169l0.15562 0.0094q-0.31496-0.98751-0.62991-1.97502-0.35832-1.302528 0.25241-1.843394 0.85832-0.760135 3.12277 0.533079-0.0103-0.344255-0.31824-1.190762-0.30789-0.846506-0.3437-1.286022-0.0372-0.673891 0.42496-1.083195 0.44567-0.394686 1.51662-0.282855 1.95705 0.181207 4.44211 2.987266z" style="font-feature-settings:normal;font-variant-caps:normal;font-variant-ligatures:normal;font-variant-numeric:normal"/>
  <path d="m-207.43637 40.685685q0.18379 0.248006-0.20594 0.53681-0.42515 0.315059-0.77627 0.0264-0.0571-0.04002-0.52969-0.677746-0.13127-0.177148-0.26318-0.244054-0.4538 1.461441-1.60526 2.314726-0.79716 0.590735-1.86937 0.69922-1.21787 0.134106-1.76922-0.609912-0.53823-0.726304-0.0405-2.165443 0.44858-1.320357 1.22802-1.897965l1.75376-1.299618q0.0275-0.185053-0.16939-0.450774-0.87954-1.186886-1.52073-1.644784-1.06713-0.773445-2.00601-0.07769-0.67316 0.498843-0.60991 1.769228 0.0639 1.160144 0.58897 1.868733 0.0263 0.03543 0.0788 0.106288 0.0525 0.07086 0.0656 0.08857 0.10502 0.141717-0.0367 0.246737-0.17715 0.131274-0.54725 0.07623-0.37011-0.05505-0.48826-0.214479-0.36757-0.496012-0.61777-1.463197-0.26333-0.9849-0.19784-1.637173 0.0884-0.806484 0.74387-1.292199 1.00974-0.748265 2.33264-0.740653 1.41542 0.02137 2.15514 0.982556zm-3.02614-2.120885q-0.5251-0.708589-1.62342 0.105313-0.86802 0.643246-1.30029 1.430112-0.54379 1.006714 0.0338 1.786161 0.35444 0.478298 0.99422 0.415832 0.54266-0.04539 1.05639-0.426081 0.76173-0.564481 1.06732-1.559336 0.32331-1.007983-0.22804-1.752001z" style="font-feature-settings:normal;font-variant-caps:normal;font-variant-ligatures:normal;font-variant-numeric:normal"/>
  <path d="m-208.06006 26.616997q0.16836 0.258724-0.18894 1.043663-0.35731 0.784938-0.65299 0.977352-0.44353 0.288621-1.03048 0.275986-0.59898-0.03111-0.85771 0.137247-0.33264 0.216465-0.53388 0.715706-0.19479 0.468735-0.19479 0.468735-0.24025 0.156336-0.39658-0.08391-0.18039-0.277204 0.19451-0.994676 0.38136-0.747979 0.67704-0.940393 0.40657-0.264568 0.98061-0.190921 0.56202 0.05517 0.85771-0.137247 0.31416-0.20444 0.50983-0.752667 0.18365-0.566707 0.22061-0.590759 0.25872-0.168362 0.41506 0.07188zm6.97887 9.269205q0.0214 0.275438-0.18188 0.407723-0.20329 0.132284-0.83366 0.174207l-0.0962-0.147842q-0.10824-0.166323-0.30622-0.510993-0.19799-0.344671-0.29419-0.492513-3.99259-6.135446-5.52645-5.137299-0.48049 0.312672-0.57791 1.375698-0.27407 2.65111 1.44563 5.293787 0.22849 0.351124 0.78433 0.962739 0.57432 0.599588 0.79078 0.932233 0.18039 0.277204-0.2077 0.529747-0.73921 0.481034-1.49684-0.683222l-2.72987-4.195019q-0.10823-0.166322-0.27571-0.504538t-0.27571-0.504538q-0.15634-0.240244-0.5309-0.654147-0.35609-0.425929-0.5004-0.647692-0.0962-0.147842 5e-3 -0.476955 0.10796-0.359619 0.23732-0.4438 0.24024-0.156336 0.61189-0.0299 0.72624 1.237295 0.85852 1.440577 0.18039 0.277204 0.36723 0.523902 0.13025-0.163674 0.0467-0.898469-0.10585-0.930741-0.034-1.345801 0.1068-0.806068 0.67969-1.17887 0.22176-0.14431 0.77352-0.266608 1.23845-0.279792 2.21669 0.293705 1.67077 0.990932 3.23413 3.393366z" style="font-feature-settings:normal;font-variant-caps:normal;font-variant-ligatures:normal;font-variant-numeric:normal"/>
  <path d="m-194.02977 32.453718q0.15236 0.268462-0.26951 0.507877-0.46022 0.26118-0.77375-0.06792-0.0518-0.04665-0.44359-0.736975-0.10883-0.191758-0.23165-0.274165-0.62766 1.395629-1.87409 2.102993-0.86291 0.489713-1.94036 0.467384-1.22515-0.01456-1.68222-0.819947-0.44618-0.786208 0.22242-2.154369 0.60537-1.25622 1.44911-1.735051l1.89841-1.07737q0.0498-0.18035-0.11348-0.467987-0.72913-1.28478-1.31007-1.81705-0.96547-0.897136-1.98179-0.320363-0.72868 0.413536-0.81994 1.682216-0.0773 1.159329 0.35803 1.926362 0.0218 0.03835 0.0653 0.115055 0.0435 0.0767 0.0544 0.09588 0.0871 0.153406-0.0663 0.240467-0.19176 0.108825-0.55246 0.0093-0.3607-0.09952-0.45864-0.272102-0.30471-0.536923-0.43579-1.52731-0.14196-1.009563 2e-3 -1.649082 0.18557-0.78981 0.89508-1.192463 1.09302-0.620303 2.40523-0.452335 1.40238 0.192849 2.0201 1.236636zm-2.74664-2.472182q-0.4353-0.767032-1.6242-0.09232-0.93961 0.533243-1.46412 1.261885-0.66184 0.933347-0.18301 1.777083 0.29382 0.517747 0.93646 0.533321 0.54416 0.02075 1.10026-0.29484 0.82456-0.467948 1.24853-1.418407 0.44315-0.961341-0.0139-1.766726z" style="font-feature-settings:normal;font-variant-caps:normal;font-variant-ligatures:normal;font-variant-numeric:normal"/>
  <path d="m-186.58875 28.160148q-0.0123 0.275995-0.23016 0.38255-0.21787 0.106555-0.84865 0.07143l-0.0775-0.158454q-0.0872-0.178261-0.24174-0.544469-0.15455-0.366208-0.23205-0.524662-3.21601-6.575839-4.85997-5.771835-0.51498 0.251857-0.74108 1.295118-0.59476 2.598031 0.79046 5.430395 0.18405 0.376328 0.6613 1.051057 0.48737 0.645235 0.67142 1.021563 0.1453 0.297102-0.27064 0.500524-0.79227 0.387473-1.40254-0.860352l-2.1989-4.496131q-0.0872-0.178261-0.21225-0.534349-0.12506-0.356089-0.21224-0.534349-0.12593-0.257488-0.44733-0.713909-0.30159-0.466109-0.41783-0.70379-0.0775-0.158454 0.0633-0.472763 0.15093-0.343802 0.28958-0.41161 0.25749-0.125928 0.61098 0.04481 0.57022 1.316499 0.67678 1.534373 0.1453 0.297101 0.30072 0.564709 0.1492-0.146601 0.1557-0.886106 8e-3 -0.936705 0.1301-1.339928 0.20413-0.787072 0.81814-1.087363 0.23768-0.116242 0.80022-0.170464 1.2633-0.126953 2.16445 0.561361 1.53772 1.186948 2.79701 3.761824z" style="font-feature-settings:normal;font-variant-caps:normal;font-variant-ligatures:normal;font-variant-numeric:normal"/>
  <path d="m-179.05109 25.556982q0.11877 0.284917-0.32896 0.471552-0.48843 0.203601-0.75986-0.161008-0.0458-0.05257-0.3512-0.785215-0.0848-0.203513-0.19679-0.30017-0.79185 1.30947-2.11468 1.86089-0.91581 0.381751-1.98264 0.229272-1.2144-0.162633-1.5707-1.017386-0.34782-0.834402 0.48135-2.111653 0.75286-1.173781 1.64832-1.547049l2.01477-0.839854q0.0712-0.173008-0.056-0.478277-0.56839-1.363534-1.08068-1.96216-0.84988-1.007321-1.9285-0.557702-0.77334 0.322369-1.01738 1.570697-0.21692 1.141473 0.12242 1.955523 0.017 0.0407 0.0509 0.122108 0.0339 0.08141 0.0424 0.101756 0.0679 0.16281-0.0949 0.230677-0.20351 0.08483-0.54953-0.05758-0.34601-0.142414-0.42236-0.325576-0.23754-0.569835-0.24787-1.568805-0.0188-1.019321 0.20158-1.636716 0.27973-0.761569 1.03272-1.075454 1.16003-0.483552 2.44229-0.158109 1.36876 0.361047 1.8557 1.471883zm-2.42748-2.786231q-0.33933-0.81405-1.60111-0.288081-0.99721 0.415685-1.60599 1.075541-0.76987 0.846447-0.3966 1.741902 0.22905 0.549484 0.86508 0.642668 0.53766 0.08642 1.12784-0.159602 0.87511-0.364785 1.41092-1.256989 0.55617-0.900686 0.19986-1.755439z" style="font-feature-settings:normal;font-variant-caps:normal;font-variant-ligatures:normal;font-variant-numeric:normal"/>
 </g>
</svg>
