<?xml version="1.0" encoding="UTF-8"?>
<!-- Created with Inkscape (http://www.inkscape.org/) -->
<svg width="562" height="512" version="1.1" viewBox="0 0 148.69583 135.46667" xmlns="http://www.w3.org/2000/svg" xmlns:cc="http://creativecommons.org/ns#" xmlns:dc="http://purl.org/dc/elements/1.1/" xmlns:rdf="http://www.w3.org/1999/02/22-rdf-syntax-ns#">
 <metadata>
  <rdf:RDF>
   <cc:Work rdf:about="">
    <dc:format>image/svg+xml</dc:format>
    <dc:type rdf:resource="http://purl.org/dc/dcmitype/StillImage"/>
    <dc:title/>
   </cc:Work>
  </rdf:RDF>
 </metadata>
 <g transform="translate(-45.506538,-67.583931)">
  <rect x="52.121124" y="67.583939" width="135.46666" height="135.46666" ry="0" opacity="0" stroke-width="11.27353287"/>
  <g>
   <rect x="52.12146" y="69.536041" width="119.0625" height="88.635414" fill="#025"/>
   <path transform="matrix(4.0122708,2.8724766,-2.8872576,4.032917,-261.49756,-395.73447)" d="m126.20068 36.153071c-0.36054 0.4006-1.54803-0.696242-2.07518-0.584069-0.52715 0.112172-1.16519 1.597467-1.65759 1.378366-0.49241-0.219102 0.18379-1.687416-0.0858-2.154102-0.26958-0.466686-1.87934-0.614515-1.82313-1.150527 0.0562-0.536012 1.66163-0.346638 2.02217-0.747238s4e-3 -1.977259 0.53084-2.089431c0.52715-0.112173 0.84314 1.473181 1.33555 1.692282 0.4924 0.219102 1.88162-0.607498 2.1512-0.140812s-1.14053 1.257114-1.19675 1.793127c-0.0562 0.536012 1.15922 1.601804 0.79868 2.002404z" fill="#ffd42a"/>
   <path transform="matrix(4.7348057,0,0,4.75917,-579.45865,-129.72722)" d="m140.95427 50.570571c-0.46309 0.289435-1.31321-1.110682-1.85799-1.148725-0.54477-0.03804-1.58124 1.230329-1.99961 0.879339s0.65052-1.592158 0.51835-2.122029c-0.13216-0.529871-1.65874-1.123657-1.45421-1.630016 0.20452-0.50636 1.71525 0.126673 2.17834-0.162762 0.4631-0.289435 0.55609-1.924787 1.10086-1.886744 0.54478 0.03804 0.40957 1.670447 0.82795 2.021437 0.41837 0.35099 2.00242-0.06593 2.13458 0.463944 0.13217 0.529871-1.46212 0.905719-1.66665 1.412078-0.20453 0.50636 0.68148 1.884042 0.21838 2.173478z" fill="#64dd17"/>
   <path transform="matrix(7.2903518,0,0,7.3278663,-991.73635,-127.18207)" d="m152.01994 37.118278c-0.32048 0.12018-0.6685-0.845648-0.99841-0.936793-0.32992-0.09115-1.12439 0.559042-1.33773 0.291385-0.21333-0.267657 0.59769-0.8971 0.58242-1.239032-0.0153-0.341932-0.87914-0.896606-0.6905-1.182208 0.18863-0.285601 1.03788 0.29121 1.35836 0.17103s0.58106-1.113176 0.91097-1.02203c0.32992 0.09115 0.0438 1.077077 0.2571 1.344734 0.21333 0.267657 1.23825 0.208626 1.25352 0.550558 0.0153 0.341933-1.01084 0.374461-1.19947 0.660062-0.18864 0.285601 0.18422 1.242114-0.13626 1.362294z" fill="#0cf"/>
   <rect transform="matrix(.9805963 -.19603802 .19411177 .98097942 0 0)" x="49.580677" y="173.96986" width="100.2415" height="42.27668" ry="7.4605908" fill="#6f0"/>
   <rect transform="matrix(.9805963 -.19603802 .19411177 .98097942 0 0)" x="61.373798" y="178.94359" width="76.655266" height="32.329227" ry="5.7051582" fill="#fff"/>
   <g transform="matrix(.96345016 -.2594841 .25815569 .96840786 .00033466126 148.83548)" stroke-width=".68008667" aria-label="Manuel">
    <path d="m108.41021 47.986254q1.06263 0 1.06263 2.550326 0.37192 10.360696 0.53132 10.360696l-0.10626 0.690713q0 3.347301 0.53131 5.897627-0.34535 0.850108-1.06263 0.850108h-0.0531q-0.95638 0-0.95638-2.072139l-0.0531-1.540822 0.0531-3.931751-0.69071-8.554216h-0.0531q-0.47819 0-1.0095 1.275163-0.18597 0.106264-0.47819 1.328294-0.23909 0.371923-0.53132 1.381426l-0.63758 0.796977q-0.99622-0.411771-1.43456-1.275162-1.36814-2.935531-2.07214-3.453566h-0.10626l-0.0531 0.850109-0.0531 7.757239 0.0398 6.694603q0 1.009504-0.74384 1.009504-1.009504 0-0.889957-3.29417v-0.05313q0-1.607236 0.05313-4.356805v-5.260048q0-2.377647-0.531317-5.791363 0.239093-1.275163 1.168904-1.275163 1.26188 0 1.64708 1.062635 0 0.398489 1.91274 2.97538 0 0.411771 0.58445 0.796976h0.0531q0.31879-0.106263 1.80648-2.70972 0.96965-2.019007 1.70021-2.603457z" style="font-feature-settings:normal;font-variant-caps:normal;font-variant-ligatures:normal;font-variant-numeric:normal"/>
    <path d="m115.3439 48.079235q1.10249 0.385205 1.91275 1.540822 0.74384 1.368143 1.23531 3.493414 0.50475 2.125271 0.57117 6.176568-0.0399 4.795143-0.30551 5.419441 0 3.081643-0.90324 3.081643 0 0.13283-4.15756 0.159396-1.19547 0-1.96588-1.965876-0.21253-0.876674-0.21253-1.540821v-0.265659q0-1.84633 1.54083-3.825488 0.9298-1.062636 2.39093-1.062636l1.16889 0.05313h0.58445l0.0531-0.584449 0.0531-2.656589q0-2.231535-1.43456-5.525705-0.39849-0.478185-0.79698-0.478185h-0.21252q-0.1594 0-1.27517 0.743844h-0.10626q-0.85011-0.398488-0.85011-0.90324v-0.212525q1.39471-1.647085 2.70972-1.647085zm-2.01901 15.833269v0.425054q0 1.182182 0.58445 1.647085h0.10627q2.723-0.119547 2.77613-0.132829 0.47819-2.377647 0.0399-3.958318-0.42505-0.743844-1.38142-0.743844-0.96966 0-2.01901 1.859612z" style="font-feature-settings:normal;font-variant-caps:normal;font-variant-ligatures:normal;font-variant-numeric:normal"/>
    <path d="m127.08602 48.451158q0.85011 0.265658 1.3283 1.434557 0.31879 0.385206 0.74384 2.815984-0.47818 7.783805-0.42505 11.649142l0.0531 2.603457q0 1.48769-1.0095 1.48769-0.85011 0-0.85011-1.222031 0.15939-8.421386 0.42505-12.074196l0.10627-3.187906-0.69072-1.700217q-0.22581-0.212527-0.42505-0.212527h-0.26566q-0.90324-0.05313-3.32074 6.00389-0.8501 2.178403-0.8501 2.656589v2.125271l0.15939 3.466848-0.10626 1.540822v0.05313l0.10626 1.009504q0 0.491469-1.0095 1.062636-0.90324-0.252376-0.90324-1.48769l-0.10627-1.700217q0.21253-4.967821 0.1594-14.199467 0-1.859612 0.47818-1.859612 0.35864-0.31879 0.74385-0.31879 0.53132 0 0.53132 0.637581l-0.10627 3.719224q0.0664 0.265659 0.1594 0.265659h0.31879q0.093 0 1.43456-2.497193 1.31501-1.859612 1.85961-1.859612 0.61101-0.478186 1.46112-0.212527z" style="font-feature-settings:normal;font-variant-caps:normal;font-variant-ligatures:normal;font-variant-numeric:normal"/>
    <path d="m131.42955 49.527076q0.79697 0 0.79697 1.381426v3.453565q0 9.829379 0.58445 10.892014 0.39849 1.168899 0.63758 1.168899 0.45162 0 1.3283-2.178403 1.27516-2.2581 1.27516-4.144278 0.18596 0 0.53132-6.269549l-0.0531-1.009504q0.19924-2.762852 0.69071-2.762852l0.69071-0.265659q0.63758 0 0.85011 1.487689v0.265659l-0.31879 3.29417v0.318791q0 5.937476 0.74385 9.669983l0.42505 2.762852q-0.22581 0.637581-1.11577 0.637581-0.79697 0-1.0095-4.19741-0.17268-0.371922-0.26566-0.371922h-0.10626q-0.39849 0.45162-2.07214 3.666092-0.85011 1.062636-1.64709 1.062636-0.88995 0-1.85961-1.434558-0.90324-2.669872-1.1689-15.408215-0.0797 0-0.10626-1.168899 0-0.611015 1.1689-0.850108z" style="font-feature-settings:normal;font-variant-caps:normal;font-variant-ligatures:normal;font-variant-numeric:normal"/>
    <path d="m143.75612 47.78701q1.1689 0 2.76285 1.275163 0.26566 0.478186 0.26566 0.956372 0 2.377647-1.54082 3.29417-1.76663 0.531318-2.92225 0.531318-0.26566 0.278941-0.26566 0.850108v0.90324q0 2.882399 0.74385 6.482077 0 1.939309 1.48769 3.772356 0.4649 0.371922 0.69071 0.371922h0.37192q0.53132-0.199244 1.3283-0.690713l0.31879-0.05313q0.3852 0 0.58445 0.637581 0 1.195465-1.85961 2.39093l-0.85011 0.159396q-0.75713 0-2.65659-2.07214-1.0095-1.58067-1.0095-3.825487-0.69072-3.373868-0.79698-8.607348 0-2.125271 1.48769-5.313177 1.2486-1.062636 1.85961-1.062636zm-1.22203 4.250542 0.26566 0.159396q1.67365 0 2.23153-0.903241 0.1594-0.278941 0.1594-0.531317v-0.212527q0-0.796977-1.00951-0.796977-1.40799 0-1.64708 2.231534z" style="font-feature-settings:normal;font-variant-caps:normal;font-variant-ligatures:normal;font-variant-numeric:normal"/>
    <path d="m150.464 46.020379q0.37193 0 0.74385 0.31879l-0.0531 0.318791-0.58445 16.47085q0 4.994387-0.31879 4.994387-0.41177 0.318791-0.58445 0.318791-0.63758 0-0.79698-1.48769v-0.956372q0-3.825488 0.58445-16.630245 0-3.241039 0.42505-3.241039z" style="font-feature-settings:normal;font-variant-caps:normal;font-variant-ligatures:normal;font-variant-numeric:normal"/>
   </g>
  </g>
  <g fill="#fff" stroke="#025" stroke-width=".79374999">
   <g transform="translate(172.94987,-133.66735)" style="font-feature-settings:normal;font-variant-caps:normal;font-variant-ligatures:normal;font-variant-numeric:normal" aria-label="1">
    <path d="m-91.829574 225.11014-2.790528 0.0775-0.766534 0.62873v2.64411l0.689019-0.31867 0.07751 8.33713h3.014459z" fill="#fff" stroke="#025" stroke-width=".79374999" style="font-feature-settings:normal;font-variant-caps:normal;font-variant-ligatures:normal;font-variant-numeric:normal"/>
   </g>
   <g transform="translate(198.24706,-130.19286)" style="font-feature-settings:normal;font-variant-caps:normal;font-variant-ligatures:normal;font-variant-numeric:normal" aria-label="2">
    <path d="m-58.408842 221.75122q-2.592435-1.57613-4.823134-0.0258-1.119656 0.81821-1.972317 2.024l1.739773 2.20486q0.223931-0.36174 0.62873-0.6718 0.895725-0.89572 1.800062-0.70624 0.508152 0.11196 0.413412 0.68902-0.07752 0.49092-0.577054 1.2833-0.938788 1.47277-2.290988 2.3685-0.585666 0.49954-1.085205 0.8785l-0.206706 3.04891 7.002157 0.14641 0.0086-2.91971-3.539836 0.16364q1.679484-1.55029 2.876655-3.3762 1.050754-1.59335 1.171332-2.79914 0.163642-1.50722-1.145494-2.30821z" fill="#fff" stroke="#025" stroke-width=".79374999" style="font-feature-settings:normal;font-variant-caps:normal;font-variant-ligatures:normal;font-variant-numeric:normal"/>
   </g>
   <g transform="translate(148.88735,-94.564359)" style="font-feature-settings:normal;font-variant-caps:normal;font-variant-ligatures:normal;font-variant-numeric:normal" aria-label="3">
    <path d="m-41.601004 220.05071 0.07751 2.62688 3.315905-0.0775-2.790528 2.02399q0.766534-0.11196 1.50723 0.0861 1.498616 0.39619 1.455553 1.95509-0.05168 1.56752-1.50723 1.54168-0.732082-0.0172-1.455553-0.34451l-0.680406 2.80776q1.240234 0.39618 2.7044 0.42202 2.902493 0.0603 3.970473-1.76561 1.464165-2.51492-0.02584-4.2547-0.749309-0.86988-1.713936-1.32636l2.980008-3.66041z" fill="#fff" stroke="#025" stroke-width=".79374999" style="font-feature-settings:normal;font-variant-caps:normal;font-variant-ligatures:normal;font-variant-numeric:normal"/>
   </g>
  </g>
  <rect x="45.506538" y="67.583931" width="148.69583" height="135.46667" opacity="0" stroke-width="1.02473688"/>
 </g>
</svg>
