<?xml version="1.0" encoding="UTF-8"?>
<!-- Created with Inkscape (http://www.inkscape.org/) -->
<svg width="1170" height="511.99997" version="1.1" viewBox="0 0 309.56249 135.46666" xmlns="http://www.w3.org/2000/svg" xmlns:cc="http://creativecommons.org/ns#" xmlns:dc="http://purl.org/dc/elements/1.1/" xmlns:rdf="http://www.w3.org/1999/02/22-rdf-syntax-ns#">
 <metadata>
  <rdf:RDF>
   <cc:Work rdf:about="">
    <dc:format>image/svg+xml</dc:format>
    <dc:type rdf:resource="http://purl.org/dc/dcmitype/StillImage"/>
    <dc:title/>
   </cc:Work>
  </rdf:RDF>
 </metadata>
 <g transform="translate(56.923659,29.653984)">
  <g transform="translate(-1235.5959,378.47303)">
   <rect x="1178.6722" y="-408.12701" width="309.5625" height="135.46666" rx="9.3694143" ry="9.3694143" fill="#2196f3"/>
   <rect x="1185.7633" y="-402.97385" width="295.38028" height="125.1603" rx="8.9401665" ry="8.6565857" fill="#fff"/>
  </g>
  <g transform="matrix(.94999994 0 0 .9500008 -276.80391 -388.64042)">
   <path d="m306.65029 413.99608c0 7.32029-4.81866 17.43682-10.64489 22.96336-2.58386 2.45428-5.3669 4.00289-8.0163 4.00289-1.67453 0-3.34475-0.26569-4.78161-0.69428-1.96874-0.58865-4.06245-0.58865-6.03119 0-1.43674 0.42859-3.10683 0.69428-4.78149 0.69428-2.77558 0-5.69982-1.7013-8.38784-4.36256-5.65821-5.59701-10.27335-15.4406-10.27335-22.60381 0-10.56864 6.39974-16.95391 12.41746-18.49516 2.88263-0.73836 6.22737-0.26272 8.92862 0.43156 2.7935 0.71923 5.69682 0.8396 8.52592 0.3611 0.57061-0.0968 1.13664-0.2172 1.69836-0.3611 2.70136-0.69428 6.04454-1.16992 8.92861-0.43156 6.01809 1.54136 12.4177 7.92663 12.4177 18.49528z" fill="#f94848" stroke-width=".11954888"/>
   <path d="m285.73349 399.90174c0 1.20224-1.91089 2.20332-4.44723 2.43075-0.35362 0.0323-0.71915 0.0485-1.09358 0.0485-0.39079 0-0.77112-0.0176-1.13821-0.0513-2.51265-0.23634-4.40116-1.23302-4.40116-2.4279 0 0 0.2513-1.10965 5.54009-0.83225 1.86486 0.0978 5.54009 0.8322 5.54009 0.8322z" fill="#e23d3d" stroke-width=".11954888"/>
   <g transform="matrix(.35127786 .11165278 -.11302245 .34702086 200.86382 241.85647)" stroke-width=".3259508">
    <path d="m406.42053 327.56896s-15.26999-23.89443-37.95853-22.56705c-21.69002 1.26784-29.41497 27.96897-36.85218 29.51898-0.33254 0.0758-0.66506 0.094-1.00046 0.0562-0.0127 1e-3 -0.0181-1e-3 -0.0181-1e-3l0.01 0.0131c0.54021 0.58596 17.95338 19.27552 37.62007 12.08979 19.97687-7.29971 26.49036-20.8701 38.19884-19.10997z" fill="#c7f492"/>
    <path d="m406.42053 327.56896s-18.22439-8.97297-34.72366-1.48259c-14.50837 6.58653-35.28352 8.15533-40.08736 8.43466-0.57608 0.036-0.91898 0.0503-1.00045 0.0562-0.0127 1e-3 -0.0181-1e-3 -0.0181-1e-3l0.01 0.0131c0.54021 0.58595 17.95336 19.27553 37.62008 12.0898 19.97715-7.29985 26.49064-20.87024 38.19912-19.11011z" fill="#a3e261"/>
   </g>
   <path d="m284.41991 389.75134-4.06389 6.09749c0.30455 1.23599 0.5676 2.59817 0.73852 4.05279 0.0936 0.7853 0.16045 1.5971 0.19172 2.43075-0.35362 0.0323-0.71915 0.0485-1.09358 0.0485-0.39079 0-0.77112-0.0176-1.13821-0.0513-0.0327-0.83378-0.10549-1.64403-0.20508-2.4279-0.72805-5.69979-2.02926-8.23345-2.05597-8.28038-0.2883-0.5372-0.0817-1.20367 0.46212-1.48837 0.54378-0.28624 1.21844-0.0822 1.50663 0.45509 0.0654 0.12334-0.0406 5e-3 0.78557 2.47057l3.01192-4.5181c0.33727-0.50785 1.02972-0.64735 1.54236-0.31262 0.51407 0.33317 0.65672 1.01569 0.31789 1.52353z" fill="#b25719" stroke-width=".11954888"/>
  </g>
  <g transform="matrix(.94999994 0 0 .9500008 -59.845588 -388.64042)">
   <path d="m306.65029 413.99608c0 7.32029-4.81866 17.43682-10.64489 22.96336-2.58386 2.45428-5.3669 4.00289-8.0163 4.00289-1.67453 0-3.34475-0.26569-4.78161-0.69428-1.96874-0.58865-4.06245-0.58865-6.03119 0-1.43674 0.42859-3.10683 0.69428-4.78149 0.69428-2.77558 0-5.69982-1.7013-8.38784-4.36256-5.65821-5.59701-10.27335-15.4406-10.27335-22.60381 0-10.56864 6.39974-16.95391 12.41746-18.49516 2.88263-0.73836 6.22737-0.26272 8.92862 0.43156 2.7935 0.71923 5.69682 0.8396 8.52592 0.3611 0.57061-0.0968 1.13664-0.2172 1.69836-0.3611 2.70136-0.69428 6.04454-1.16992 8.92861-0.43156 6.01809 1.54136 12.4177 7.92663 12.4177 18.49528z" fill="#f94848" stroke-width=".11954888"/>
   <path d="m285.73349 399.90174c0 1.20224-1.91089 2.20332-4.44723 2.43075-0.35362 0.0323-0.71915 0.0485-1.09358 0.0485-0.39079 0-0.77112-0.0176-1.13821-0.0513-2.51265-0.23634-4.40116-1.23302-4.40116-2.4279 0 0 0.2513-1.10965 5.54009-0.83225 1.86486 0.0978 5.54009 0.8322 5.54009 0.8322z" fill="#e23d3d" stroke-width=".11954888"/>
   <g transform="matrix(.35127786 .11165278 -.11302245 .34702086 200.86382 241.85647)" stroke-width=".3259508">
    <path d="m406.42053 327.56896s-15.26999-23.89443-37.95853-22.56705c-21.69002 1.26784-29.41497 27.96897-36.85218 29.51898-0.33254 0.0758-0.66506 0.094-1.00046 0.0562-0.0127 1e-3 -0.0181-1e-3 -0.0181-1e-3l0.01 0.0131c0.54021 0.58596 17.95338 19.27552 37.62007 12.08979 19.97687-7.29971 26.49036-20.8701 38.19884-19.10997z" fill="#c7f492"/>
    <path d="m406.42053 327.56896s-18.22439-8.97297-34.72366-1.48259c-14.50837 6.58653-35.28352 8.15533-40.08736 8.43466-0.57608 0.036-0.91898 0.0503-1.00045 0.0562-0.0127 1e-3 -0.0181-1e-3 -0.0181-1e-3l0.01 0.0131c0.54021 0.58595 17.95336 19.27553 37.62008 12.0898 19.97715-7.29985 26.49064-20.87024 38.19912-19.11011z" fill="#a3e261"/>
   </g>
   <path d="m284.41991 389.75134-4.06389 6.09749c0.30455 1.23599 0.5676 2.59817 0.73852 4.05279 0.0936 0.7853 0.16045 1.5971 0.19172 2.43075-0.35362 0.0323-0.71915 0.0485-1.09358 0.0485-0.39079 0-0.77112-0.0176-1.13821-0.0513-0.0327-0.83378-0.10549-1.64403-0.20508-2.4279-0.72805-5.69979-2.02926-8.23345-2.05597-8.28038-0.2883-0.5372-0.0817-1.20367 0.46212-1.48837 0.54378-0.28624 1.21844-0.0822 1.50663 0.45509 0.0654 0.12334-0.0406 5e-3 0.78557 2.47057l3.01192-4.5181c0.33727-0.50785 1.02972-0.64735 1.54236-0.31262 0.51407 0.33317 0.65672 1.01569 0.31789 1.52353z" fill="#b25719" stroke-width=".11954888"/>
  </g>
  <g transform="matrix(.94999994 0 0 .9500008 -114.08518 -388.64042)">
   <path d="m306.65029 413.99608c0 7.32029-4.81866 17.43682-10.64489 22.96336-2.58386 2.45428-5.3669 4.00289-8.0163 4.00289-1.67453 0-3.34475-0.26569-4.78161-0.69428-1.96874-0.58865-4.06245-0.58865-6.03119 0-1.43674 0.42859-3.10683 0.69428-4.78149 0.69428-2.77558 0-5.69982-1.7013-8.38784-4.36256-5.65821-5.59701-10.27335-15.4406-10.27335-22.60381 0-10.56864 6.39974-16.95391 12.41746-18.49516 2.88263-0.73836 6.22737-0.26272 8.92862 0.43156 2.7935 0.71923 5.69682 0.8396 8.52592 0.3611 0.57061-0.0968 1.13664-0.2172 1.69836-0.3611 2.70136-0.69428 6.04454-1.16992 8.92861-0.43156 6.01809 1.54136 12.4177 7.92663 12.4177 18.49528z" fill="#f94848" stroke-width=".11954888"/>
   <path d="m285.73349 399.90174c0 1.20224-1.91089 2.20332-4.44723 2.43075-0.35362 0.0323-0.71915 0.0485-1.09358 0.0485-0.39079 0-0.77112-0.0176-1.13821-0.0513-2.51265-0.23634-4.40116-1.23302-4.40116-2.4279 0 0 0.2513-1.10965 5.54009-0.83225 1.86486 0.0978 5.54009 0.8322 5.54009 0.8322z" fill="#e23d3d" stroke-width=".11954888"/>
   <g transform="matrix(.35127786 .11165278 -.11302245 .34702086 200.86382 241.85647)" stroke-width=".3259508">
    <path d="m406.42053 327.56896s-15.26999-23.89443-37.95853-22.56705c-21.69002 1.26784-29.41497 27.96897-36.85218 29.51898-0.33254 0.0758-0.66506 0.094-1.00046 0.0562-0.0127 1e-3 -0.0181-1e-3 -0.0181-1e-3l0.01 0.0131c0.54021 0.58596 17.95338 19.27552 37.62007 12.08979 19.97687-7.29971 26.49036-20.8701 38.19884-19.10997z" fill="#c7f492"/>
    <path d="m406.42053 327.56896s-18.22439-8.97297-34.72366-1.48259c-14.50837 6.58653-35.28352 8.15533-40.08736 8.43466-0.57608 0.036-0.91898 0.0503-1.00045 0.0562-0.0127 1e-3 -0.0181-1e-3 -0.0181-1e-3l0.01 0.0131c0.54021 0.58595 17.95336 19.27553 37.62008 12.0898 19.97715-7.29985 26.49064-20.87024 38.19912-19.11011z" fill="#a3e261"/>
   </g>
   <path d="m284.41991 389.75134-4.06389 6.09749c0.30455 1.23599 0.5676 2.59817 0.73852 4.05279 0.0936 0.7853 0.16045 1.5971 0.19172 2.43075-0.35362 0.0323-0.71915 0.0485-1.09358 0.0485-0.39079 0-0.77112-0.0176-1.13821-0.0513-0.0327-0.83378-0.10549-1.64403-0.20508-2.4279-0.72805-5.69979-2.02926-8.23345-2.05597-8.28038-0.2883-0.5372-0.0817-1.20367 0.46212-1.48837 0.54378-0.28624 1.21844-0.0822 1.50663 0.45509 0.0654 0.12334-0.0406 5e-3 0.78557 2.47057l3.01192-4.5181c0.33727-0.50785 1.02972-0.64735 1.54236-0.31262 0.51407 0.33317 0.65672 1.01569 0.31789 1.52353z" fill="#b25719" stroke-width=".11954888"/>
  </g>
  <g transform="matrix(.94999994 0 0 .9500008 -168.32476 -388.64042)">
   <path d="m306.65029 413.99608c0 7.32029-4.81866 17.43682-10.64489 22.96336-2.58386 2.45428-5.3669 4.00289-8.0163 4.00289-1.67453 0-3.34475-0.26569-4.78161-0.69428-1.96874-0.58865-4.06245-0.58865-6.03119 0-1.43674 0.42859-3.10683 0.69428-4.78149 0.69428-2.77558 0-5.69982-1.7013-8.38784-4.36256-5.65821-5.59701-10.27335-15.4406-10.27335-22.60381 0-10.56864 6.39974-16.95391 12.41746-18.49516 2.88263-0.73836 6.22737-0.26272 8.92862 0.43156 2.7935 0.71923 5.69682 0.8396 8.52592 0.3611 0.57061-0.0968 1.13664-0.2172 1.69836-0.3611 2.70136-0.69428 6.04454-1.16992 8.92861-0.43156 6.01809 1.54136 12.4177 7.92663 12.4177 18.49528z" fill="#f94848" stroke-width=".11954888"/>
   <path d="m285.73349 399.90174c0 1.20224-1.91089 2.20332-4.44723 2.43075-0.35362 0.0323-0.71915 0.0485-1.09358 0.0485-0.39079 0-0.77112-0.0176-1.13821-0.0513-2.51265-0.23634-4.40116-1.23302-4.40116-2.4279 0 0 0.2513-1.10965 5.54009-0.83225 1.86486 0.0978 5.54009 0.8322 5.54009 0.8322z" fill="#e23d3d" stroke-width=".11954888"/>
   <g transform="matrix(.35127786 .11165278 -.11302245 .34702086 200.86382 241.85647)" stroke-width=".3259508">
    <path d="m406.42053 327.56896s-15.26999-23.89443-37.95853-22.56705c-21.69002 1.26784-29.41497 27.96897-36.85218 29.51898-0.33254 0.0758-0.66506 0.094-1.00046 0.0562-0.0127 1e-3 -0.0181-1e-3 -0.0181-1e-3l0.01 0.0131c0.54021 0.58596 17.95338 19.27552 37.62007 12.08979 19.97687-7.29971 26.49036-20.8701 38.19884-19.10997z" fill="#c7f492"/>
    <path d="m406.42053 327.56896s-18.22439-8.97297-34.72366-1.48259c-14.50837 6.58653-35.28352 8.15533-40.08736 8.43466-0.57608 0.036-0.91898 0.0503-1.00045 0.0562-0.0127 1e-3 -0.0181-1e-3 -0.0181-1e-3l0.01 0.0131c0.54021 0.58595 17.95336 19.27553 37.62008 12.0898 19.97715-7.29985 26.49064-20.87024 38.19912-19.11011z" fill="#a3e261"/>
   </g>
   <path d="m284.41991 389.75134-4.06389 6.09749c0.30455 1.23599 0.5676 2.59817 0.73852 4.05279 0.0936 0.7853 0.16045 1.5971 0.19172 2.43075-0.35362 0.0323-0.71915 0.0485-1.09358 0.0485-0.39079 0-0.77112-0.0176-1.13821-0.0513-0.0327-0.83378-0.10549-1.64403-0.20508-2.4279-0.72805-5.69979-2.02926-8.23345-2.05597-8.28038-0.2883-0.5372-0.0817-1.20367 0.46212-1.48837 0.54378-0.28624 1.21844-0.0822 1.50663 0.45509 0.0654 0.12334-0.0406 5e-3 0.78557 2.47057l3.01192-4.5181c0.33727-0.50785 1.02972-0.64735 1.54236-0.31262 0.51407 0.33317 0.65672 1.01569 0.31789 1.52353z" fill="#b25719" stroke-width=".11954888"/>
  </g>
  <g transform="matrix(.94999994 0 0 .9500008 -222.56433 -388.64042)">
   <path d="m306.65029 413.99608c0 7.32029-4.81866 17.43682-10.64489 22.96336-2.58386 2.45428-5.3669 4.00289-8.0163 4.00289-1.67453 0-3.34475-0.26569-4.78161-0.69428-1.96874-0.58865-4.06245-0.58865-6.03119 0-1.43674 0.42859-3.10683 0.69428-4.78149 0.69428-2.77558 0-5.69982-1.7013-8.38784-4.36256-5.65821-5.59701-10.27335-15.4406-10.27335-22.60381 0-10.56864 6.39974-16.95391 12.41746-18.49516 2.88263-0.73836 6.22737-0.26272 8.92862 0.43156 2.7935 0.71923 5.69682 0.8396 8.52592 0.3611 0.57061-0.0968 1.13664-0.2172 1.69836-0.3611 2.70136-0.69428 6.04454-1.16992 8.92861-0.43156 6.01809 1.54136 12.4177 7.92663 12.4177 18.49528z" fill="#f94848" stroke-width=".11954888"/>
   <path d="m285.73349 399.90174c0 1.20224-1.91089 2.20332-4.44723 2.43075-0.35362 0.0323-0.71915 0.0485-1.09358 0.0485-0.39079 0-0.77112-0.0176-1.13821-0.0513-2.51265-0.23634-4.40116-1.23302-4.40116-2.4279 0 0 0.2513-1.10965 5.54009-0.83225 1.86486 0.0978 5.54009 0.8322 5.54009 0.8322z" fill="#e23d3d" stroke-width=".11954888"/>
   <g transform="matrix(.35127786 .11165278 -.11302245 .34702086 200.86382 241.85647)" stroke-width=".3259508">
    <path d="m406.42053 327.56896s-15.26999-23.89443-37.95853-22.56705c-21.69002 1.26784-29.41497 27.96897-36.85218 29.51898-0.33254 0.0758-0.66506 0.094-1.00046 0.0562-0.0127 1e-3 -0.0181-1e-3 -0.0181-1e-3l0.01 0.0131c0.54021 0.58596 17.95338 19.27552 37.62007 12.08979 19.97687-7.29971 26.49036-20.8701 38.19884-19.10997z" fill="#c7f492"/>
    <path d="m406.42053 327.56896s-18.22439-8.97297-34.72366-1.48259c-14.50837 6.58653-35.28352 8.15533-40.08736 8.43466-0.57608 0.036-0.91898 0.0503-1.00045 0.0562-0.0127 1e-3 -0.0181-1e-3 -0.0181-1e-3l0.01 0.0131c0.54021 0.58595 17.95336 19.27553 37.62008 12.0898 19.97715-7.29985 26.49064-20.87024 38.19912-19.11011z" fill="#a3e261"/>
   </g>
   <path d="m284.41991 389.75134-4.06389 6.09749c0.30455 1.23599 0.5676 2.59817 0.73852 4.05279 0.0936 0.7853 0.16045 1.5971 0.19172 2.43075-0.35362 0.0323-0.71915 0.0485-1.09358 0.0485-0.39079 0-0.77112-0.0176-1.13821-0.0513-0.0327-0.83378-0.10549-1.64403-0.20508-2.4279-0.72805-5.69979-2.02926-8.23345-2.05597-8.28038-0.2883-0.5372-0.0817-1.20367 0.46212-1.48837 0.54378-0.28624 1.21844-0.0822 1.50663 0.45509 0.0654 0.12334-0.0406 5e-3 0.78557 2.47057l3.01192-4.5181c0.33727-0.50785 1.02972-0.64735 1.54236-0.31262 0.51407 0.33317 0.65672 1.01569 0.31789 1.52353z" fill="#b25719" stroke-width=".11954888"/>
  </g>
  <g transform="matrix(.94999994 0 0 .9500008 -276.80391 -322.75918)">
   <path d="m306.65029 413.99608c0 7.32029-4.81866 17.43682-10.64489 22.96336-2.58386 2.45428-5.3669 4.00289-8.0163 4.00289-1.67453 0-3.34475-0.26569-4.78161-0.69428-1.96874-0.58865-4.06245-0.58865-6.03119 0-1.43674 0.42859-3.10683 0.69428-4.78149 0.69428-2.77558 0-5.69982-1.7013-8.38784-4.36256-5.65821-5.59701-10.27335-15.4406-10.27335-22.60381 0-10.56864 6.39974-16.95391 12.41746-18.49516 2.88263-0.73836 6.22737-0.26272 8.92862 0.43156 2.7935 0.71923 5.69682 0.8396 8.52592 0.3611 0.57061-0.0968 1.13664-0.2172 1.69836-0.3611 2.70136-0.69428 6.04454-1.16992 8.92861-0.43156 6.01809 1.54136 12.4177 7.92663 12.4177 18.49528z" fill="#f94848" stroke-width=".11954888"/>
   <path d="m285.73349 399.90174c0 1.20224-1.91089 2.20332-4.44723 2.43075-0.35362 0.0323-0.71915 0.0485-1.09358 0.0485-0.39079 0-0.77112-0.0176-1.13821-0.0513-2.51265-0.23634-4.40116-1.23302-4.40116-2.4279 0 0 0.2513-1.10965 5.54009-0.83225 1.86486 0.0978 5.54009 0.8322 5.54009 0.8322z" fill="#e23d3d" stroke-width=".11954888"/>
   <g transform="matrix(.35127786 .11165278 -.11302245 .34702086 200.86382 241.85647)" stroke-width=".3259508">
    <path d="m406.42053 327.56896s-15.26999-23.89443-37.95853-22.56705c-21.69002 1.26784-29.41497 27.96897-36.85218 29.51898-0.33254 0.0758-0.66506 0.094-1.00046 0.0562-0.0127 1e-3 -0.0181-1e-3 -0.0181-1e-3l0.01 0.0131c0.54021 0.58596 17.95338 19.27552 37.62007 12.08979 19.97687-7.29971 26.49036-20.8701 38.19884-19.10997z" fill="#c7f492"/>
    <path d="m406.42053 327.56896s-18.22439-8.97297-34.72366-1.48259c-14.50837 6.58653-35.28352 8.15533-40.08736 8.43466-0.57608 0.036-0.91898 0.0503-1.00045 0.0562-0.0127 1e-3 -0.0181-1e-3 -0.0181-1e-3l0.01 0.0131c0.54021 0.58595 17.95336 19.27553 37.62008 12.0898 19.97715-7.29985 26.49064-20.87024 38.19912-19.11011z" fill="#a3e261"/>
   </g>
   <path d="m284.41991 389.75134-4.06389 6.09749c0.30455 1.23599 0.5676 2.59817 0.73852 4.05279 0.0936 0.7853 0.16045 1.5971 0.19172 2.43075-0.35362 0.0323-0.71915 0.0485-1.09358 0.0485-0.39079 0-0.77112-0.0176-1.13821-0.0513-0.0327-0.83378-0.10549-1.64403-0.20508-2.4279-0.72805-5.69979-2.02926-8.23345-2.05597-8.28038-0.2883-0.5372-0.0817-1.20367 0.46212-1.48837 0.54378-0.28624 1.21844-0.0822 1.50663 0.45509 0.0654 0.12334-0.0406 5e-3 0.78557 2.47057l3.01192-4.5181c0.33727-0.50785 1.02972-0.64735 1.54236-0.31262 0.51407 0.33317 0.65672 1.01569 0.31789 1.52353z" fill="#b25719" stroke-width=".11954888"/>
  </g>
  <g transform="matrix(.94999994 0 0 .9500008 -222.56433 -322.75918)">
   <path d="m306.65029 413.99608c0 7.32029-4.81866 17.43682-10.64489 22.96336-2.58386 2.45428-5.3669 4.00289-8.0163 4.00289-1.67453 0-3.34475-0.26569-4.78161-0.69428-1.96874-0.58865-4.06245-0.58865-6.03119 0-1.43674 0.42859-3.10683 0.69428-4.78149 0.69428-2.77558 0-5.69982-1.7013-8.38784-4.36256-5.65821-5.59701-10.27335-15.4406-10.27335-22.60381 0-10.56864 6.39974-16.95391 12.41746-18.49516 2.88263-0.73836 6.22737-0.26272 8.92862 0.43156 2.7935 0.71923 5.69682 0.8396 8.52592 0.3611 0.57061-0.0968 1.13664-0.2172 1.69836-0.3611 2.70136-0.69428 6.04454-1.16992 8.92861-0.43156 6.01809 1.54136 12.4177 7.92663 12.4177 18.49528z" fill="#f94848" stroke-width=".11954888"/>
   <path d="m285.73349 399.90174c0 1.20224-1.91089 2.20332-4.44723 2.43075-0.35362 0.0323-0.71915 0.0485-1.09358 0.0485-0.39079 0-0.77112-0.0176-1.13821-0.0513-2.51265-0.23634-4.40116-1.23302-4.40116-2.4279 0 0 0.2513-1.10965 5.54009-0.83225 1.86486 0.0978 5.54009 0.8322 5.54009 0.8322z" fill="#e23d3d" stroke-width=".11954888"/>
   <g transform="matrix(.35127786 .11165278 -.11302245 .34702086 200.86382 241.85647)" stroke-width=".3259508">
    <path d="m406.42053 327.56896s-15.26999-23.89443-37.95853-22.56705c-21.69002 1.26784-29.41497 27.96897-36.85218 29.51898-0.33254 0.0758-0.66506 0.094-1.00046 0.0562-0.0127 1e-3 -0.0181-1e-3 -0.0181-1e-3l0.01 0.0131c0.54021 0.58596 17.95338 19.27552 37.62007 12.08979 19.97687-7.29971 26.49036-20.8701 38.19884-19.10997z" fill="#c7f492"/>
    <path d="m406.42053 327.56896s-18.22439-8.97297-34.72366-1.48259c-14.50837 6.58653-35.28352 8.15533-40.08736 8.43466-0.57608 0.036-0.91898 0.0503-1.00045 0.0562-0.0127 1e-3 -0.0181-1e-3 -0.0181-1e-3l0.01 0.0131c0.54021 0.58595 17.95336 19.27553 37.62008 12.0898 19.97715-7.29985 26.49064-20.87024 38.19912-19.11011z" fill="#a3e261"/>
   </g>
   <path d="m284.41991 389.75134-4.06389 6.09749c0.30455 1.23599 0.5676 2.59817 0.73852 4.05279 0.0936 0.7853 0.16045 1.5971 0.19172 2.43075-0.35362 0.0323-0.71915 0.0485-1.09358 0.0485-0.39079 0-0.77112-0.0176-1.13821-0.0513-0.0327-0.83378-0.10549-1.64403-0.20508-2.4279-0.72805-5.69979-2.02926-8.23345-2.05597-8.28038-0.2883-0.5372-0.0817-1.20367 0.46212-1.48837 0.54378-0.28624 1.21844-0.0822 1.50663 0.45509 0.0654 0.12334-0.0406 5e-3 0.78557 2.47057l3.01192-4.5181c0.33727-0.50785 1.02972-0.64735 1.54236-0.31262 0.51407 0.33317 0.65672 1.01569 0.31789 1.52353z" fill="#b25719" stroke-width=".11954888"/>
  </g>
 </g>
</svg>
