<?xml version="1.0" encoding="UTF-8"?>
<!-- Created with Inkscape (http://www.inkscape.org/) -->
<svg width="562" height="511.99997" version="1.1" viewBox="0 0 148.69583 135.46666" xmlns="http://www.w3.org/2000/svg" xmlns:cc="http://creativecommons.org/ns#" xmlns:dc="http://purl.org/dc/elements/1.1/" xmlns:rdf="http://www.w3.org/1999/02/22-rdf-syntax-ns#">
 <metadata>
  <rdf:RDF>
   <cc:Work rdf:about="">
    <dc:format>image/svg+xml</dc:format>
    <dc:type rdf:resource="http://purl.org/dc/dcmitype/StillImage"/>
    <dc:title/>
   </cc:Work>
  </rdf:RDF>
 </metadata>
 <g transform="translate(-156.51057,-77.809044)">
  <g transform="translate(0,155.71634)">
   <rect x="163.12517" y="-77.907295" width="135.46666" height="135.46666" ry="0" fill="#d5f6ff"/>
   <g transform="matrix(.52019757 0 0 .51994975 7.9391743 -69.227206)">
    <g transform="matrix(.30807278 .1778659 -.1778659 .30807278 250.06833 64.635248)">
     <g transform="matrix(.39384951 0 0 .39384951 322.83557 52.090807)" fill="#999">
      <path d="m195.65 160.875c-0.077-0.635-8.006-62.608-53.096-122.059-1.97-2.598-1.508-6.295 1.046-8.322 2.633-2.089 6.48-1.613 8.512 1.064 47.141 62.083 55.127 125.171 55.452 127.893l-11.916 1.42 5.958-0.71z"/>
      <path d="m207.565 160.871-11.916-1.42c0.325-2.722 8.311-65.81 55.452-127.893 2.033-2.677 5.879-3.153 8.512-1.064 2.554 2.027 3.017 5.725 1.046 8.322-45.197 59.58-53.019 121.421-53.094 122.055z"/>
     </g>
     <path d="m407.42145 124.7714c0.69317 2.93024 1.09884 6.47489 1.09884 10.29917 0 0.23237 0 0.46474-4e-3 0.69317-0.067 5.21063-0.8901 9.85805-2.1583 13.05611-1.10277 2.77664-2.54033 4.46232-4.11966 4.46232-1.57934 0-3.01689-1.68568-4.12361-4.46626-1.26425-3.19805-2.0874-7.84548-2.15435-13.05217-4e-3 -0.22843-4e-3 -0.4608-4e-3 -0.69317 0-3.82034 0.40566-7.36499 1.09884-10.29129 1.13035-4.78133 3.0287-7.92031 5.18306-7.92031 2.15042 0 4.04877 3.13504 5.18306 7.91243z" fill="#666" stroke-width=".39384952"/>
     <g stroke-width=".39384952">
      <path d="m436.586 133.3652c15.55312-1.02007 25.68687 4.01726 30.93688 7.73914 2.76876 1.96531 4.40718 5.15155 4.43869 8.5426 0.26388 25.97437-6.56154 39.48735-12.02817 46.12765-3.20987 3.89911-8.8498 4.7774-13.07974 2.01257-22.0989-14.43458-36.11206-40.66102-40.49561-49.75501 1.2682-3.19805 2.09134-7.84548 2.1583-13.05611h4e-3c6.57335-0.62228 17.38058-1.33121 28.04208-2.03226z" fill="#0990ce"/>
      <path d="m452.25531 194.27678c-0.92555 0-1.82431-0.26782-2.6002-0.77509-19.77321-12.91512-33.03058-36.42557-37.76426-45.82518 0.70696-2.3631 1.21385-5.07515 1.49427-7.98294 5.13776-0.41393 29.0397-1.31861 29.9105-1.2745 10.23064 0.51989 17.15609 3.94874 21.26551 6.86244 1.41077 1.00116 2.26385 2.65139 2.28039 4.41348 0.24577 24.19378-5.77068 36.64218-10.86118 42.82601-0.91846 1.11578-2.27606 1.75578-3.72503 1.75578z" fill="#29b6f6"/>
      <path d="m473.61573 65.847577c5.59661 0.07089 9.45633 5.647802 7.51465 10.897815-3.43043 9.286972-7.41618 24.615598-5.53752 42.575128 0.63016 6.02196-3.68249 11.43739-9.69264 12.17389-5.34847 0.65773-17.25061 1.44543-29.33785 2.23707-10.6615 0.70105-21.46873 1.40998-28.04208 2.03226h-4e-3c4e-3 -0.22843 4e-3 -0.4608 4e-3 -0.69317 0-3.82428-0.40567-7.36893-1.09884-10.29917 4.49776-11.98484 24.91492-59.443705 66.19428-58.923823z" fill="#0990ce"/>
      <path d="m413.43435 130.20534c-0.15006-1.74317-0.38085-3.42846-0.68806-5.01803 2.46077-6.27915 8.26375-19.36598 17.78388-31.128293 12.40429-15.325078 26.67425-23.095729 42.41287-23.095729 0.20401 0 0.40251 0.0012 0.60771 0.0039 1.40683 0.01772 2.17484 0.916488 2.4395 1.302067 0.32454 0.472225 0.79952 1.450941 0.33753 2.699838-3.74157 10.129022-7.78877 26.136247-5.82779 44.883877 0.33714 3.22248-2.00587 6.16493-5.22323 6.55917-5.35045 0.65773-17.94142 1.48245-29.04995 2.20989l-0.31823 0.0209c-7.95851 0.52382-16.12459 1.06103-22.47423 1.5624z" fill="#29b6f6"/>
      <path d="m367.88683 133.3652 0.0236-0.42142c10.66151 0.70105 21.46874 1.40998 28.04603 2.03226h4e-3c0.067 5.20669 0.8901 9.85412 2.15435 13.05218-4.37566 9.09004-18.39277 35.32042-40.4956 49.75894-4.22601 2.76483-9.86987 1.88654-13.07975-2.01257-5.46269-6.6403-12.2881-20.15328-12.02816-46.12765 0.0354-3.39105 1.67386-6.57729 4.44262-8.5426 5.24608-3.72188 15.38377-8.75921 30.93294-7.73914z" fill="#0990ce"/>
      <path d="m352.21871 194.27678c-1.44976 0-2.80775-0.64-3.72621-1.75578-5.08814-6.18501-11.1034-18.63617-10.86158-42.82247 0.0185-1.76287 0.87317-3.41546 2.28669-4.4186 4.12951-2.92984 11.1101-6.38233 21.44589-6.86952 0.81212-0.0382 24.58921 0.86962 29.72777 1.28395 0.28042 2.90503 0.78612 5.6159 1.4919 7.9786-4.72462 9.39331-17.96624 32.8955-37.76387 45.82833-0.77706 0.50767-1.67543 0.77549-2.60059 0.77549z" fill="#29b6f6"/>
      <path d="m395.95649 135.07057c0 0.23237 0 0.46474 4e-3 0.69317h-4e-3c-6.57729-0.62228-17.38452-1.33121-28.04603-2.03226-12.08724-0.79164-23.98937-1.57934-29.33785-2.23707-6.01014-0.7365-10.31885-6.15193-9.68869-12.17389 1.87866-17.95953-2.1071-33.288156-5.54147-42.575128-1.93774-5.250013 1.91805-10.826923 7.51859-10.897815 41.28725-0.519882 61.7044 46.958673 66.19429 58.931703-0.69318 2.9263-1.09884 6.47095-1.09884 10.29129z" fill="#0990ce"/>
      <path d="m391.04243 130.20534c-6.35358-0.50137-14.5236-1.03897-22.48763-1.5624l-0.30838-0.0205c-11.1101-0.72744-23.70108-1.55176-29.04916-2.20949-3.21736-0.39425-5.5584-3.3367-5.22126-6.55917 1.96176-18.75748-2.08859-34.761555-5.83173-44.883881-0.4612-1.248897 0.015-2.228794 0.33989-2.70102 0.26506-0.385579 1.03307-1.283162 2.44108-1.301279 0.20244-0.0024 0.40527-0.0039 0.60692-0.0039 15.74414 0 30.01606 7.773014 42.42035 23.103212 9.51974 11.765078 15.31878 24.849538 17.77758 31.127108-0.30681 1.58722-0.53761 3.27013-0.68766 5.01134z" fill="#29b6f6"/>
     </g>
     <circle cx="402.23837" cy="116.85897" r="4.8400164" fill="#666" stroke-width=".39384952"/>
     <g transform="matrix(.39384951 0 0 .39384951 322.83557 52.090807)" fill="#fbc02d">
      <circle cx="58.898998" cy="161.44901" r="22"/>
      <circle cx="75.501999" cy="327.84698" r="16.601999"/>
      <circle cx="66.899002" cy="283.44901" r="11.423"/>
      <circle cx="59.188" cy="253.058" r="5.7119999"/>
      <circle cx="99.899002" cy="296.44901" r="5.7119999"/>
      <circle cx="45.273998" cy="74.405998" r="12.043"/>
      <circle cx="82.856003" cy="112.449" r="12.043"/>
      <circle cx="344.315" cy="161.44901" r="22"/>
      <circle cx="327.71201" cy="327.84698" r="16.601999"/>
      <circle cx="336.315" cy="283.44901" r="11.423"/>
      <circle cx="344.026" cy="253.058" r="5.7119999"/>
      <circle cx="303.315" cy="296.44901" r="5.7119999"/>
      <circle cx="357.94" cy="74.405998" r="12.043"/>
      <circle cx="320.358" cy="112.449" r="12.043"/>
     </g>
    </g>
    <g transform="matrix(1 0 0 .65203455 310.79634 84.849248)">
     <g transform="matrix(.26458333 0 0 .26458333 -12.475188 152.53301)">
      <path d="m10.367 345.111h472.834c2.927 0 5.267-2.39 5.206-5.316-0.432-20.84-0.317-97.235 23.352-126.091 0.662-0.807-0.154-1.968-1.139-1.622-11.274 3.959-44.881 17.583-53.245 41.786-0.333 0.964-1.709 0.915-1.973-0.07l-13.043-48.617c-0.248-0.926-1.513-1.048-1.933-0.186l-14.574 29.865c-0.346 0.71-1.328 0.787-1.781 0.14l-27.796-39.706c-0.523-0.748-1.688-0.503-1.866 0.392l-12.897 64.809c-0.216 1.085-1.754 1.123-2.022 0.05l-23.274-92.874c-0.259-1.033-1.72-1.051-2.005-0.025l-19.578 70.479c-0.26 0.936-1.55 1.032-1.946 0.145l-22.624-50.716c-0.392-0.878-1.665-0.796-1.94 0.125l-18.144 60.68c-0.303 1.015-1.754 0.975-2.001-0.055l-10.692-44.558c-0.234-0.974-1.577-1.083-1.964-0.159l-29.619 70.63c-0.355 0.846-1.553 0.848-1.911 3e-3l-39.636-93.613c-0.459-1.085-2.085-0.692-1.988 0.482 1.484 18.054 3.633 67.693-14.796 90.436-0.514 0.634-1.517 0.48-1.794-0.287l-19.482-53.925c-0.342-0.946-1.695-0.9-1.972 0.067l-16.229 56.768c-0.253 0.884-1.442 1.032-1.896 0.233-5.839-10.302-30.02-56.655-17.957-98.3 0 0-31.616 41.527-32.692 72.12-0.04 1.127-1.604 1.373-2.002 0.318l-13.089-34.705c-0.353-0.937-1.698-0.878-1.968 0.086l-15.933 56.826c-0.307 1.095-1.904 0.971-2.028-0.16-1.748-15.918-10.893-60.624-58.72-92.83-0.812-0.547-1.857 0.249-1.557 1.181 4.632 14.418 23.834 81.942 5.26 159.774-0.783 3.274 1.688 6.42 5.054 6.42z" fill="#43a838"/>
      <g fill="#338727">
       <path d="m488.402 339.8c0.063 2.916-2.281 5.312-5.197 5.312h-472.84c-3.364 0-5.832-3.145-5.051-6.416 2.104-8.811 3.718-17.497 4.926-25.985 0.042 0.01 0.083 0.01 0.125 0.01h472.84c2.916 0 4.921-0.156 4.921-0.156 1e-3 7.245 0.08 17.611 0.276 27.235z"/>
       <circle cx="96.578003" cy="288.51801" r="8.8999996"/>
       <circle cx="121.458" cy="313.39801" r="8.8999996"/>
       <circle cx="418.478" cy="275.578" r="8.8999996"/>
      </g>
     </g>
     <g transform="matrix(.26458333 0 0 .26458333 112.47243 152.53301)">
      <path d="m10.367 345.111h472.834c2.927 0 5.267-2.39 5.206-5.316-0.432-20.84-0.317-97.235 23.352-126.091 0.662-0.807-0.154-1.968-1.139-1.622-11.274 3.959-44.881 17.583-53.245 41.786-0.333 0.964-1.709 0.915-1.973-0.07l-13.043-48.617c-0.248-0.926-1.513-1.048-1.933-0.186l-14.574 29.865c-0.346 0.71-1.328 0.787-1.781 0.14l-27.796-39.706c-0.523-0.748-1.688-0.503-1.866 0.392l-12.897 64.809c-0.216 1.085-1.754 1.123-2.022 0.05l-23.274-92.874c-0.259-1.033-1.72-1.051-2.005-0.025l-19.578 70.479c-0.26 0.936-1.55 1.032-1.946 0.145l-22.624-50.716c-0.392-0.878-1.665-0.796-1.94 0.125l-18.144 60.68c-0.303 1.015-1.754 0.975-2.001-0.055l-10.692-44.558c-0.234-0.974-1.577-1.083-1.964-0.159l-29.619 70.63c-0.355 0.846-1.553 0.848-1.911 3e-3l-39.636-93.613c-0.459-1.085-2.085-0.692-1.988 0.482 1.484 18.054 3.633 67.693-14.796 90.436-0.514 0.634-1.517 0.48-1.794-0.287l-19.482-53.925c-0.342-0.946-1.695-0.9-1.972 0.067l-16.229 56.768c-0.253 0.884-1.442 1.032-1.896 0.233-5.839-10.302-30.02-56.655-17.957-98.3 0 0-31.616 41.527-32.692 72.12-0.04 1.127-1.604 1.373-2.002 0.318l-13.089-34.705c-0.353-0.937-1.698-0.878-1.968 0.086l-15.933 56.826c-0.307 1.095-1.904 0.971-2.028-0.16-1.748-15.918-10.893-60.624-58.72-92.83-0.812-0.547-1.857 0.249-1.557 1.181 4.632 14.418 23.834 81.942 5.26 159.774-0.783 3.274 1.688 6.42 5.054 6.42z" fill="#43a838"/>
      <g fill="#338727">
       <path d="m488.402 339.8c0.063 2.916-2.281 5.312-5.197 5.312h-472.84c-3.364 0-5.832-3.145-5.051-6.416 2.104-8.811 3.718-17.497 4.926-25.985 0.042 0.01 0.083 0.01 0.125 0.01h472.84c2.916 0 4.921-0.156 4.921-0.156 1e-3 7.245 0.08 17.611 0.276 27.235z"/>
       <circle cx="96.578003" cy="288.51801" r="8.8999996"/>
       <circle cx="121.458" cy="313.39801" r="8.8999996"/>
       <circle cx="418.478" cy="275.578" r="8.8999996"/>
      </g>
     </g>
    </g>
    <g transform="matrix(.28001243 .16166525 -.16166525 .28001243 310.59999 27.892366)">
     <g transform="rotate(-60,330.93805,146.22787)">
      <g transform="matrix(.39384951 0 0 .39384951 322.83557 52.090807)" fill="#999">
       <path d="m195.65 160.875c-0.077-0.635-8.006-62.608-53.096-122.059-1.97-2.598-1.508-6.295 1.046-8.322 2.633-2.089 6.48-1.613 8.512 1.064 47.141 62.083 55.127 125.171 55.452 127.893l-11.916 1.42 5.958-0.71z"/>
       <path d="m207.565 160.871-11.916-1.42c0.325-2.722 8.311-65.81 55.452-127.893 2.033-2.677 5.879-3.153 8.512-1.064 2.554 2.027 3.017 5.725 1.046 8.322-45.197 59.58-53.019 121.421-53.094 122.055z"/>
      </g>
      <path d="m407.42145 124.7714c0.69317 2.93024 1.09884 6.47489 1.09884 10.29917 0 0.23237 0 0.46474-4e-3 0.69317-0.067 5.21063-0.8901 9.85805-2.1583 13.05611-1.10277 2.77664-2.54033 4.46232-4.11966 4.46232-1.57934 0-3.01689-1.68568-4.12361-4.46626-1.26425-3.19805-2.0874-7.84548-2.15435-13.05217-4e-3 -0.22843-4e-3 -0.4608-4e-3 -0.69317 0-3.82034 0.40566-7.36499 1.09884-10.29129 1.13035-4.78133 3.0287-7.92031 5.18306-7.92031 2.15042 0 4.04877 3.13504 5.18306 7.91243z" fill="#666" stroke-width=".39384952"/>
      <g stroke-width=".39384952">
       <path d="m436.586 133.3652c15.55312-1.02007 25.68687 4.01726 30.93688 7.73914 2.76876 1.96531 4.40718 5.15155 4.43869 8.5426 0.26388 25.97437-6.56154 39.48735-12.02817 46.12765-3.20987 3.89911-8.8498 4.7774-13.07974 2.01257-22.0989-14.43458-36.11206-40.66102-40.49561-49.75501 1.2682-3.19805 2.09134-7.84548 2.1583-13.05611h4e-3c6.57335-0.62228 17.38058-1.33121 28.04208-2.03226z" fill="#0990ce"/>
       <path d="m452.25531 194.27678c-0.92555 0-1.82431-0.26782-2.6002-0.77509-19.77321-12.91512-33.03058-36.42557-37.76426-45.82518 0.70696-2.3631 1.21385-5.07515 1.49427-7.98294 5.13776-0.41393 29.0397-1.31861 29.9105-1.2745 10.23064 0.51989 17.15609 3.94874 21.26551 6.86244 1.41077 1.00116 2.26385 2.65139 2.28039 4.41348 0.24577 24.19378-5.77068 36.64218-10.86118 42.82601-0.91846 1.11578-2.27606 1.75578-3.72503 1.75578z" fill="#29b6f6"/>
       <path d="m473.61573 65.847577c5.59661 0.07089 9.45633 5.647802 7.51465 10.897815-3.43043 9.286972-7.41618 24.615598-5.53752 42.575128 0.63016 6.02196-3.68249 11.43739-9.69264 12.17389-5.34847 0.65773-17.25061 1.44543-29.33785 2.23707-10.6615 0.70105-21.46873 1.40998-28.04208 2.03226h-4e-3c4e-3 -0.22843 4e-3 -0.4608 4e-3 -0.69317 0-3.82428-0.40567-7.36893-1.09884-10.29917 4.49776-11.98484 24.91492-59.443705 66.19428-58.923823z" fill="#0990ce"/>
       <path d="m413.43435 130.20534c-0.15006-1.74317-0.38085-3.42846-0.68806-5.01803 2.46077-6.27915 8.26375-19.36598 17.78388-31.128293 12.40429-15.325078 26.67425-23.095729 42.41287-23.095729 0.20401 0 0.40251 0.0012 0.60771 0.0039 1.40683 0.01772 2.17484 0.916488 2.4395 1.302067 0.32454 0.472225 0.79952 1.450941 0.33753 2.699838-3.74157 10.129022-7.78877 26.136247-5.82779 44.883877 0.33714 3.22248-2.00587 6.16493-5.22323 6.55917-5.35045 0.65773-17.94142 1.48245-29.04995 2.20989l-0.31823 0.0209c-7.95851 0.52382-16.12459 1.06103-22.47423 1.5624z" fill="#29b6f6"/>
       <path d="m367.88683 133.3652 0.0236-0.42142c10.66151 0.70105 21.46874 1.40998 28.04603 2.03226h4e-3c0.067 5.20669 0.8901 9.85412 2.15435 13.05218-4.37566 9.09004-18.39277 35.32042-40.4956 49.75894-4.22601 2.76483-9.86987 1.88654-13.07975-2.01257-5.46269-6.6403-12.2881-20.15328-12.02816-46.12765 0.0354-3.39105 1.67386-6.57729 4.44262-8.5426 5.24608-3.72188 15.38377-8.75921 30.93294-7.73914z" fill="#0990ce"/>
       <path d="m352.21871 194.27678c-1.44976 0-2.80775-0.64-3.72621-1.75578-5.08814-6.18501-11.1034-18.63617-10.86158-42.82247 0.0185-1.76287 0.87317-3.41546 2.28669-4.4186 4.12951-2.92984 11.1101-6.38233 21.44589-6.86952 0.81212-0.0382 24.58921 0.86962 29.72777 1.28395 0.28042 2.90503 0.78612 5.6159 1.4919 7.9786-4.72462 9.39331-17.96624 32.8955-37.76387 45.82833-0.77706 0.50767-1.67543 0.77549-2.60059 0.77549z" fill="#29b6f6"/>
       <path d="m395.95649 135.07057c0 0.23237 0 0.46474 4e-3 0.69317h-4e-3c-6.57729-0.62228-17.38452-1.33121-28.04603-2.03226-12.08724-0.79164-23.98937-1.57934-29.33785-2.23707-6.01014-0.7365-10.31885-6.15193-9.68869-12.17389 1.87866-17.95953-2.1071-33.288156-5.54147-42.575128-1.93774-5.250013 1.91805-10.826923 7.51859-10.897815 41.28725-0.519882 61.7044 46.958673 66.19429 58.931703-0.69318 2.9263-1.09884 6.47095-1.09884 10.29129z" fill="#0990ce"/>
       <path d="m391.04243 130.20534c-6.35358-0.50137-14.5236-1.03897-22.48763-1.5624l-0.30838-0.0205c-11.1101-0.72744-23.70108-1.55176-29.04916-2.20949-3.21736-0.39425-5.5584-3.3367-5.22126-6.55917 1.96176-18.75748-2.08859-34.761555-5.83173-44.883881-0.4612-1.248897 0.015-2.228794 0.33989-2.70102 0.26506-0.385579 1.03307-1.283162 2.44108-1.301279 0.20244-0.0024 0.40527-0.0039 0.60692-0.0039 15.74414 0 30.01606 7.773014 42.42035 23.103212 9.51974 11.765078 15.31878 24.849538 17.77758 31.127108-0.30681 1.58722-0.53761 3.27013-0.68766 5.01134z" fill="#29b6f6"/>
      </g>
      <circle cx="402.23837" cy="116.85897" r="4.8400164" fill="#666" stroke-width=".39384952"/>
      <g transform="matrix(.39384951 0 0 .39384951 322.83557 52.090807)" fill="#fbc02d">
       <circle cx="58.898998" cy="161.44901" r="22"/>
       <circle cx="75.501999" cy="327.84698" r="16.601999"/>
       <circle cx="66.899002" cy="283.44901" r="11.423"/>
       <circle cx="59.188" cy="253.058" r="5.7119999"/>
       <circle cx="99.899002" cy="296.44901" r="5.7119999"/>
       <circle cx="45.273998" cy="74.405998" r="12.043"/>
       <circle cx="82.856003" cy="112.449" r="12.043"/>
       <circle cx="344.315" cy="161.44901" r="22"/>
       <circle cx="327.71201" cy="327.84698" r="16.601999"/>
       <circle cx="336.315" cy="283.44901" r="11.423"/>
       <circle cx="344.026" cy="253.058" r="5.7119999"/>
       <circle cx="303.315" cy="296.44901" r="5.7119999"/>
       <circle cx="357.94" cy="74.405998" r="12.043"/>
       <circle cx="320.358" cy="112.449" r="12.043"/>
      </g>
     </g>
    </g>
    <g transform="matrix(.30381928 .05187714 -.05187714 .30381928 387.67486 64.129429)">
     <g transform="matrix(.39384951 0 0 .39384951 322.83557 52.090807)" fill="#999">
      <path d="m195.65 160.875c-0.077-0.635-8.006-62.608-53.096-122.059-1.97-2.598-1.508-6.295 1.046-8.322 2.633-2.089 6.48-1.613 8.512 1.064 47.141 62.083 55.127 125.171 55.452 127.893l-11.916 1.42 5.958-0.71z"/>
      <path d="m207.565 160.871-11.916-1.42c0.325-2.722 8.311-65.81 55.452-127.893 2.033-2.677 5.879-3.153 8.512-1.064 2.554 2.027 3.017 5.725 1.046 8.322-45.197 59.58-53.019 121.421-53.094 122.055z"/>
     </g>
     <path d="m407.42145 124.7714c0.69317 2.93024 1.09884 6.47489 1.09884 10.29917 0 0.23237 0 0.46474-4e-3 0.69317-0.067 5.21063-0.8901 9.85805-2.1583 13.05611-1.10277 2.77664-2.54033 4.46232-4.11966 4.46232-1.57934 0-3.01689-1.68568-4.12361-4.46626-1.26425-3.19805-2.0874-7.84548-2.15435-13.05217-4e-3 -0.22843-4e-3 -0.4608-4e-3 -0.69317 0-3.82034 0.40566-7.36499 1.09884-10.29129 1.13035-4.78133 3.0287-7.92031 5.18306-7.92031 2.15042 0 4.04877 3.13504 5.18306 7.91243z" fill="#666" stroke-width=".39384952"/>
     <g stroke-width=".39384952">
      <path d="m436.586 133.3652c15.55312-1.02007 25.68687 4.01726 30.93688 7.73914 2.76876 1.96531 4.40718 5.15155 4.43869 8.5426 0.26388 25.97437-6.56154 39.48735-12.02817 46.12765-3.20987 3.89911-8.8498 4.7774-13.07974 2.01257-22.0989-14.43458-36.11206-40.66102-40.49561-49.75501 1.2682-3.19805 2.09134-7.84548 2.1583-13.05611h4e-3c6.57335-0.62228 17.38058-1.33121 28.04208-2.03226z" fill="#0990ce"/>
      <path d="m452.25531 194.27678c-0.92555 0-1.82431-0.26782-2.6002-0.77509-19.77321-12.91512-33.03058-36.42557-37.76426-45.82518 0.70696-2.3631 1.21385-5.07515 1.49427-7.98294 5.13776-0.41393 29.0397-1.31861 29.9105-1.2745 10.23064 0.51989 17.15609 3.94874 21.26551 6.86244 1.41077 1.00116 2.26385 2.65139 2.28039 4.41348 0.24577 24.19378-5.77068 36.64218-10.86118 42.82601-0.91846 1.11578-2.27606 1.75578-3.72503 1.75578z" fill="#29b6f6"/>
      <path d="m473.61573 65.847577c5.59661 0.07089 9.45633 5.647802 7.51465 10.897815-3.43043 9.286972-7.41618 24.615598-5.53752 42.575128 0.63016 6.02196-3.68249 11.43739-9.69264 12.17389-5.34847 0.65773-17.25061 1.44543-29.33785 2.23707-10.6615 0.70105-21.46873 1.40998-28.04208 2.03226h-4e-3c4e-3 -0.22843 4e-3 -0.4608 4e-3 -0.69317 0-3.82428-0.40567-7.36893-1.09884-10.29917 4.49776-11.98484 24.91492-59.443705 66.19428-58.923823z" fill="#0990ce"/>
      <path d="m413.43435 130.20534c-0.15006-1.74317-0.38085-3.42846-0.68806-5.01803 2.46077-6.27915 8.26375-19.36598 17.78388-31.128293 12.40429-15.325078 26.67425-23.095729 42.41287-23.095729 0.20401 0 0.40251 0.0012 0.60771 0.0039 1.40683 0.01772 2.17484 0.916488 2.4395 1.302067 0.32454 0.472225 0.79952 1.450941 0.33753 2.699838-3.74157 10.129022-7.78877 26.136247-5.82779 44.883877 0.33714 3.22248-2.00587 6.16493-5.22323 6.55917-5.35045 0.65773-17.94142 1.48245-29.04995 2.20989l-0.31823 0.0209c-7.95851 0.52382-16.12459 1.06103-22.47423 1.5624z" fill="#29b6f6"/>
      <path d="m367.88683 133.3652 0.0236-0.42142c10.66151 0.70105 21.46874 1.40998 28.04603 2.03226h4e-3c0.067 5.20669 0.8901 9.85412 2.15435 13.05218-4.37566 9.09004-18.39277 35.32042-40.4956 49.75894-4.22601 2.76483-9.86987 1.88654-13.07975-2.01257-5.46269-6.6403-12.2881-20.15328-12.02816-46.12765 0.0354-3.39105 1.67386-6.57729 4.44262-8.5426 5.24608-3.72188 15.38377-8.75921 30.93294-7.73914z" fill="#0990ce"/>
      <path d="m352.21871 194.27678c-1.44976 0-2.80775-0.64-3.72621-1.75578-5.08814-6.18501-11.1034-18.63617-10.86158-42.82247 0.0185-1.76287 0.87317-3.41546 2.28669-4.4186 4.12951-2.92984 11.1101-6.38233 21.44589-6.86952 0.81212-0.0382 24.58921 0.86962 29.72777 1.28395 0.28042 2.90503 0.78612 5.6159 1.4919 7.9786-4.72462 9.39331-17.96624 32.8955-37.76387 45.82833-0.77706 0.50767-1.67543 0.77549-2.60059 0.77549z" fill="#29b6f6"/>
      <path d="m395.95649 135.07057c0 0.23237 0 0.46474 4e-3 0.69317h-4e-3c-6.57729-0.62228-17.38452-1.33121-28.04603-2.03226-12.08724-0.79164-23.98937-1.57934-29.33785-2.23707-6.01014-0.7365-10.31885-6.15193-9.68869-12.17389 1.87866-17.95953-2.1071-33.288156-5.54147-42.575128-1.93774-5.250013 1.91805-10.826923 7.51859-10.897815 41.28725-0.519882 61.7044 46.958673 66.19429 58.931703-0.69318 2.9263-1.09884 6.47095-1.09884 10.29129z" fill="#0990ce"/>
      <path d="m391.04243 130.20534c-6.35358-0.50137-14.5236-1.03897-22.48763-1.5624l-0.30838-0.0205c-11.1101-0.72744-23.70108-1.55176-29.04916-2.20949-3.21736-0.39425-5.5584-3.3367-5.22126-6.55917 1.96176-18.75748-2.08859-34.761555-5.83173-44.883881-0.4612-1.248897 0.015-2.228794 0.33989-2.70102 0.26506-0.385579 1.03307-1.283162 2.44108-1.301279 0.20244-0.0024 0.40527-0.0039 0.60692-0.0039 15.74414 0 30.01606 7.773014 42.42035 23.103212 9.51974 11.765078 15.31878 24.849538 17.77758 31.127108-0.30681 1.58722-0.53761 3.27013-0.68766 5.01134z" fill="#29b6f6"/>
     </g>
     <circle cx="402.23837" cy="116.85897" r="4.8400164" fill="#666" stroke-width=".39384952"/>
     <g transform="matrix(.39384951 0 0 .39384951 322.83557 52.090807)" fill="#fbc02d">
      <circle cx="58.898998" cy="161.44901" r="22"/>
      <circle cx="75.501999" cy="327.84698" r="16.601999"/>
      <circle cx="66.899002" cy="283.44901" r="11.423"/>
      <circle cx="59.188" cy="253.058" r="5.7119999"/>
      <circle cx="99.899002" cy="296.44901" r="5.7119999"/>
      <circle cx="45.273998" cy="74.405998" r="12.043"/>
      <circle cx="82.856003" cy="112.449" r="12.043"/>
      <circle cx="344.315" cy="161.44901" r="22"/>
      <circle cx="327.71201" cy="327.84698" r="16.601999"/>
      <circle cx="336.315" cy="283.44901" r="11.423"/>
      <circle cx="344.026" cy="253.058" r="5.7119999"/>
      <circle cx="303.315" cy="296.44901" r="5.7119999"/>
      <circle cx="357.94" cy="74.405998" r="12.043"/>
      <circle cx="320.358" cy="112.449" r="12.043"/>
     </g>
    </g>
    <g transform="matrix(.12074739 -.27356668 .27356668 .12074739 366.62511 274.73077)">
     <g transform="matrix(.39384951 0 0 .39384951 322.83557 52.090807)" fill="#999">
      <path d="m195.65 160.875c-0.077-0.635-8.006-62.608-53.096-122.059-1.97-2.598-1.508-6.295 1.046-8.322 2.633-2.089 6.48-1.613 8.512 1.064 47.141 62.083 55.127 125.171 55.452 127.893l-11.916 1.42 5.958-0.71z"/>
      <path d="m207.565 160.871-11.916-1.42c0.325-2.722 8.311-65.81 55.452-127.893 2.033-2.677 5.879-3.153 8.512-1.064 2.554 2.027 3.017 5.725 1.046 8.322-45.197 59.58-53.019 121.421-53.094 122.055z"/>
     </g>
     <path d="m407.42145 124.7714c0.69317 2.93024 1.09884 6.47489 1.09884 10.29917 0 0.23237 0 0.46474-4e-3 0.69317-0.067 5.21063-0.8901 9.85805-2.1583 13.05611-1.10277 2.77664-2.54033 4.46232-4.11966 4.46232-1.57934 0-3.01689-1.68568-4.12361-4.46626-1.26425-3.19805-2.0874-7.84548-2.15435-13.05217-4e-3 -0.22843-4e-3 -0.4608-4e-3 -0.69317 0-3.82034 0.40566-7.36499 1.09884-10.29129 1.13035-4.78133 3.0287-7.92031 5.18306-7.92031 2.15042 0 4.04877 3.13504 5.18306 7.91243z" fill="#666" stroke-width=".39384952"/>
     <g stroke-width=".39384952">
      <path d="m436.586 133.3652c15.55312-1.02007 25.68687 4.01726 30.93688 7.73914 2.76876 1.96531 4.40718 5.15155 4.43869 8.5426 0.26388 25.97437-6.56154 39.48735-12.02817 46.12765-3.20987 3.89911-8.8498 4.7774-13.07974 2.01257-22.0989-14.43458-36.11206-40.66102-40.49561-49.75501 1.2682-3.19805 2.09134-7.84548 2.1583-13.05611h4e-3c6.57335-0.62228 17.38058-1.33121 28.04208-2.03226z" fill="#0990ce"/>
      <path d="m452.25531 194.27678c-0.92555 0-1.82431-0.26782-2.6002-0.77509-19.77321-12.91512-33.03058-36.42557-37.76426-45.82518 0.70696-2.3631 1.21385-5.07515 1.49427-7.98294 5.13776-0.41393 29.0397-1.31861 29.9105-1.2745 10.23064 0.51989 17.15609 3.94874 21.26551 6.86244 1.41077 1.00116 2.26385 2.65139 2.28039 4.41348 0.24577 24.19378-5.77068 36.64218-10.86118 42.82601-0.91846 1.11578-2.27606 1.75578-3.72503 1.75578z" fill="#29b6f6"/>
      <path d="m473.61573 65.847577c5.59661 0.07089 9.45633 5.647802 7.51465 10.897815-3.43043 9.286972-7.41618 24.615598-5.53752 42.575128 0.63016 6.02196-3.68249 11.43739-9.69264 12.17389-5.34847 0.65773-17.25061 1.44543-29.33785 2.23707-10.6615 0.70105-21.46873 1.40998-28.04208 2.03226h-4e-3c4e-3 -0.22843 4e-3 -0.4608 4e-3 -0.69317 0-3.82428-0.40567-7.36893-1.09884-10.29917 4.49776-11.98484 24.91492-59.443705 66.19428-58.923823z" fill="#0990ce"/>
      <path d="m413.43435 130.20534c-0.15006-1.74317-0.38085-3.42846-0.68806-5.01803 2.46077-6.27915 8.26375-19.36598 17.78388-31.128293 12.40429-15.325078 26.67425-23.095729 42.41287-23.095729 0.20401 0 0.40251 0.0012 0.60771 0.0039 1.40683 0.01772 2.17484 0.916488 2.4395 1.302067 0.32454 0.472225 0.79952 1.450941 0.33753 2.699838-3.74157 10.129022-7.78877 26.136247-5.82779 44.883877 0.33714 3.22248-2.00587 6.16493-5.22323 6.55917-5.35045 0.65773-17.94142 1.48245-29.04995 2.20989l-0.31823 0.0209c-7.95851 0.52382-16.12459 1.06103-22.47423 1.5624z" fill="#29b6f6"/>
      <path d="m367.88683 133.3652 0.0236-0.42142c10.66151 0.70105 21.46874 1.40998 28.04603 2.03226h4e-3c0.067 5.20669 0.8901 9.85412 2.15435 13.05218-4.37566 9.09004-18.39277 35.32042-40.4956 49.75894-4.22601 2.76483-9.86987 1.88654-13.07975-2.01257-5.46269-6.6403-12.2881-20.15328-12.02816-46.12765 0.0354-3.39105 1.67386-6.57729 4.44262-8.5426 5.24608-3.72188 15.38377-8.75921 30.93294-7.73914z" fill="#0990ce"/>
      <path d="m352.21871 194.27678c-1.44976 0-2.80775-0.64-3.72621-1.75578-5.08814-6.18501-11.1034-18.63617-10.86158-42.82247 0.0185-1.76287 0.87317-3.41546 2.28669-4.4186 4.12951-2.92984 11.1101-6.38233 21.44589-6.86952 0.81212-0.0382 24.58921 0.86962 29.72777 1.28395 0.28042 2.90503 0.78612 5.6159 1.4919 7.9786-4.72462 9.39331-17.96624 32.8955-37.76387 45.82833-0.77706 0.50767-1.67543 0.77549-2.60059 0.77549z" fill="#29b6f6"/>
      <path d="m395.95649 135.07057c0 0.23237 0 0.46474 4e-3 0.69317h-4e-3c-6.57729-0.62228-17.38452-1.33121-28.04603-2.03226-12.08724-0.79164-23.98937-1.57934-29.33785-2.23707-6.01014-0.7365-10.31885-6.15193-9.68869-12.17389 1.87866-17.95953-2.1071-33.288156-5.54147-42.575128-1.93774-5.250013 1.91805-10.826923 7.51859-10.897815 41.28725-0.519882 61.7044 46.958673 66.19429 58.931703-0.69318 2.9263-1.09884 6.47095-1.09884 10.29129z" fill="#0990ce"/>
      <path d="m391.04243 130.20534c-6.35358-0.50137-14.5236-1.03897-22.48763-1.5624l-0.30838-0.0205c-11.1101-0.72744-23.70108-1.55176-29.04916-2.20949-3.21736-0.39425-5.5584-3.3367-5.22126-6.55917 1.96176-18.75748-2.08859-34.761555-5.83173-44.883881-0.4612-1.248897 0.015-2.228794 0.33989-2.70102 0.26506-0.385579 1.03307-1.283162 2.44108-1.301279 0.20244-0.0024 0.40527-0.0039 0.60692-0.0039 15.74414 0 30.01606 7.773014 42.42035 23.103212 9.51974 11.765078 15.31878 24.849538 17.77758 31.127108-0.30681 1.58722-0.53761 3.27013-0.68766 5.01134z" fill="#29b6f6"/>
     </g>
     <circle cx="402.23837" cy="116.85897" r="4.8400164" fill="#666" stroke-width=".39384952"/>
     <g transform="matrix(.39384951 0 0 .39384951 322.83557 52.090807)" fill="#fbc02d">
      <circle cx="58.898998" cy="161.44901" r="22"/>
      <circle cx="75.501999" cy="327.84698" r="16.601999"/>
      <circle cx="66.899002" cy="283.44901" r="11.423"/>
      <circle cx="59.188" cy="253.058" r="5.7119999"/>
      <circle cx="99.899002" cy="296.44901" r="5.7119999"/>
      <circle cx="45.273998" cy="74.405998" r="12.043"/>
      <circle cx="82.856003" cy="112.449" r="12.043"/>
      <circle cx="344.315" cy="161.44901" r="22"/>
      <circle cx="327.71201" cy="327.84698" r="16.601999"/>
      <circle cx="336.315" cy="283.44901" r="11.423"/>
      <circle cx="344.026" cy="253.058" r="5.7119999"/>
      <circle cx="303.315" cy="296.44901" r="5.7119999"/>
      <circle cx="357.94" cy="74.405998" r="12.043"/>
      <circle cx="320.358" cy="112.449" r="12.043"/>
     </g>
    </g>
   </g>
   <g transform="matrix(.38126709 0 0 .38126709 81.483559 -97.619954)" stroke-width=".26458332">
    <path d="m415.52845 142.81006h10.12137c3.7809-6.93633 10.24255-12.19571 17.99802-14.38197-1.56025-3.7883-5.28611-6.45504-9.63586-6.45504-1.08744 0-2.13492 0.16749-3.11944 0.47573 5e-3 -0.15823 0.0122-0.31618 0.0122-0.47573 0-7.73747-6.27433-14.01127-14.01233-14.01127-6.67359 0-12.25259 4.66513-13.66361 10.91115-0.8382-0.2794-1.73249-0.43233-2.66409-0.43233-2.8665 0-5.39697 1.4351-6.91436 3.62559-0.84666-0.21828-1.73566-0.33655-2.65086-0.33655-5.82083 0-10.53941 4.71884-10.53941 10.53994 0 5.82004 4.71884 10.53995 10.53941 10.53995h16.85052" fill="#fff"/>
    <path d="m518.6104 97.501331c-5.41549-5.792523-13.12519-9.413345-21.68022-9.413345-14.13087 0-25.94663 9.880864-28.93537 23.108704-1.77376-0.59161-3.66844-0.91705-5.64038-0.91705-6.0714 0-11.42894 3.04007-14.64231 7.67874-1.79361-0.46328-3.67453-0.71226-5.6134-0.71226-12.32694 0-22.31972 9.99279-22.31972 22.31972 0 12.32641 9.99278 22.32052 22.31972 22.32052h24.60916c0.0519-7.58693 6.2148-13.72076 13.81284-13.72076 1.44092 0 2.83025 0.22092 4.13623 0.63023-6e-3 -0.20902-0.0156-0.41857-0.0156-0.63023 0-10.2624 8.31903-18.58169 18.58116-18.58169 8.84846 0 16.24806 6.18781 18.11946 14.47033 1.11045-0.37069 2.29605-0.57415 3.53113-0.57415 3.80153 0 7.15724 1.90341 9.16913 4.8088 1.12316-0.29051 2.30082-0.44661 3.51473-0.44661 5.0882 0 9.54008 2.71965 11.9843 6.78312 3.54436-3.91398 5.70362-9.10537 5.70362-14.80079 0-12.18565-9.87742-22.06202-22.06202-22.06202-2.30081 0-4.51908 0.35269-6.60479 1.00621 0.0109-0.33417 0.0254-0.66913 0.0254-1.00621 0-4.98263-1.22793-9.67819-3.39857-13.80146" fill="#f9f9f9"/>
    <path d="m537.55721 147.25173c-1.21391 0-2.3921 0.15557-3.51472 0.44661-2.0119-2.90565-5.36761-4.8088-9.16914-4.8088-1.23507 0-2.42067 0.20346-3.53113 0.57415-1.87166-8.28279-9.271-14.47033-18.11946-14.47033-10.26213 0-18.58116 8.31929-18.58116 18.58169 0 0.21166 9e-3 0.42121 0.0156 0.63023-1.30598-0.40931-2.69531-0.63023-4.13623-0.63023-7.62926 0-13.81442 6.1841-13.81442 13.81548 0 7.62926 6.18543 13.8139 13.81442 13.8139h57.03676c7.71922 0 13.97714-6.25767 13.97714-13.97635-5.3e-4 -7.71922-6.25845-13.97635-13.97767-13.97635z" fill="#fff"/>
   </g>
   <g transform="matrix(-.28189712 0 0 .28189712 325.56712 -70.62735)" stroke-width=".26458332">
    <path d="m415.52845 142.81006h10.12137c3.7809-6.93633 10.24255-12.19571 17.99802-14.38197-1.56025-3.7883-5.28611-6.45504-9.63586-6.45504-1.08744 0-2.13492 0.16749-3.11944 0.47573 5e-3 -0.15823 0.0122-0.31618 0.0122-0.47573 0-7.73747-6.27433-14.01127-14.01233-14.01127-6.67359 0-12.25259 4.66513-13.66361 10.91115-0.8382-0.2794-1.73249-0.43233-2.66409-0.43233-2.8665 0-5.39697 1.4351-6.91436 3.62559-0.84666-0.21828-1.73566-0.33655-2.65086-0.33655-5.82083 0-10.53941 4.71884-10.53941 10.53994 0 5.82004 4.71884 10.53995 10.53941 10.53995h16.85052" fill="#fff"/>
    <path d="m518.6104 97.501331c-5.41549-5.792523-13.12519-9.413345-21.68022-9.413345-14.13087 0-25.94663 9.880864-28.93537 23.108704-1.77376-0.59161-3.66844-0.91705-5.64038-0.91705-6.0714 0-11.42894 3.04007-14.64231 7.67874-1.79361-0.46328-3.67453-0.71226-5.6134-0.71226-12.32694 0-22.31972 9.99279-22.31972 22.31972 0 12.32641 9.99278 22.32052 22.31972 22.32052h24.60916c0.0519-7.58693 6.2148-13.72076 13.81284-13.72076 1.44092 0 2.83025 0.22092 4.13623 0.63023-6e-3 -0.20902-0.0156-0.41857-0.0156-0.63023 0-10.2624 8.31903-18.58169 18.58116-18.58169 8.84846 0 16.24806 6.18781 18.11946 14.47033 1.11045-0.37069 2.29605-0.57415 3.53113-0.57415 3.80153 0 7.15724 1.90341 9.16913 4.8088 1.12316-0.29051 2.30082-0.44661 3.51473-0.44661 5.0882 0 9.54008 2.71965 11.9843 6.78312 3.54436-3.91398 5.70362-9.10537 5.70362-14.80079 0-12.18565-9.87742-22.06202-22.06202-22.06202-2.30081 0-4.51908 0.35269-6.60479 1.00621 0.0109-0.33417 0.0254-0.66913 0.0254-1.00621 0-4.98263-1.22793-9.67819-3.39857-13.80146" fill="#f9f9f9"/>
    <path d="m537.55721 147.25173c-1.21391 0-2.3921 0.15557-3.51472 0.44661-2.0119-2.90565-5.36761-4.8088-9.16914-4.8088-1.23507 0-2.42067 0.20346-3.53113 0.57415-1.87166-8.28279-9.271-14.47033-18.11946-14.47033-10.26213 0-18.58116 8.31929-18.58116 18.58169 0 0.21166 9e-3 0.42121 0.0156 0.63023-1.30598-0.40931-2.69531-0.63023-4.13623-0.63023-7.62926 0-13.81442 6.1841-13.81442 13.81548 0 7.62926 6.18543 13.8139 13.81442 13.8139h57.03676c7.71922 0 13.97714-6.25767 13.97714-13.97635-5.3e-4 -7.71922-6.25845-13.97635-13.97767-13.97635z" fill="#fff"/>
   </g>
  </g>
  <g fill="#fff" stroke="#338727" stroke-width="1.0583334">
   <g transform="translate(5.8114086,-49.812074)" style="font-feature-settings:normal;font-variant-caps:normal;font-variant-ligatures:normal;font-variant-numeric:normal" aria-label="1">
    <path d="m186.03181 223.04754-2.79052 0.0775-0.76654 0.62873v2.64411l0.68902-0.31867 0.0775 8.33713h3.01446z" fill="#fff" stroke="#338727" stroke-width="1.0583334" style="font-feature-settings:normal;font-variant-caps:normal;font-variant-ligatures:normal;font-variant-numeric:normal"/>
   </g>
   <g transform="translate(3.3208049,-91.322135)" style="font-feature-settings:normal;font-variant-caps:normal;font-variant-ligatures:normal;font-variant-numeric:normal" aria-label="2">
    <path d="m213.93193 228.46439q-2.59243-1.57614-4.82313-0.0258-1.11966 0.81821-1.97232 2.02399l1.73977 2.20486q0.22394-0.36173 0.62873-0.67179 0.89573-0.89573 1.80007-0.70625 0.50815 0.11197 0.41341 0.68902-0.0775 0.49093-0.57706 1.2833-0.93878 1.47278-2.29098 2.3685-0.58567 0.49954-1.08521 0.8785l-0.2067 3.04891 7.00215 0.14642 9e-3 -2.91972-3.53984 0.16364q1.67948-1.55029 2.87665-3.37619 1.05076-1.59336 1.17134-2.79914 0.16364-1.50723-1.1455-2.30821z" fill="#fff" stroke="#338727" stroke-width="1.0583334" style="font-feature-settings:normal;font-variant-caps:normal;font-variant-ligatures:normal;font-variant-numeric:normal"/>
   </g>
   <g transform="translate(7.8869117,-47.529021)" style="font-feature-settings:normal;font-variant-caps:normal;font-variant-ligatures:normal;font-variant-numeric:normal" aria-label="3">
    <path d="m232.02407 223.21022 0.0775 2.62689 3.31591-0.0775-2.79053 2.024q0.76653-0.11197 1.50723 0.0861 1.49862 0.39618 1.45555 1.95509-0.0517 1.56752-1.50723 1.54168-0.73208-0.0172-1.45555-0.34451l-0.68041 2.80775q1.24024 0.39619 2.7044 0.42202 2.9025 0.0603 3.97048-1.76561 1.46416-2.51492-0.0258-4.25469-0.74931-0.86989-1.71394-1.32636l2.98001-3.66042z" fill="#fff" stroke="#338727" stroke-width="1.0583334" style="font-feature-settings:normal;font-variant-caps:normal;font-variant-ligatures:normal;font-variant-numeric:normal"/>
   </g>
   <g transform="translate(7.8869117,-80.529519)" style="font-feature-settings:normal;font-variant-caps:normal;font-variant-ligatures:normal;font-variant-numeric:normal" aria-label="4">
    <path d="m263.01623 231.74474h-1.80006l0.0775-3.8585-2.97139 0.0861v6.25285l4.5303 0.16364-0.32729 5.02123 3.11781 0.0775 0.24977-11.60135h-2.79914z" fill="#fff" stroke="#338727" stroke-width="1.0583334" style="font-feature-settings:normal;font-variant-caps:normal;font-variant-ligatures:normal;font-variant-numeric:normal"/>
   </g>
  </g>
  <rect x="156.51057" y="77.809044" width="148.69583" height="135.46666" opacity="0" stroke-width="1.35305536"/>
 </g>
</svg>
