<?xml version="1.0" encoding="UTF-8"?>
<!-- Created with Inkscape (http://www.inkscape.org/) -->
<svg width="452.94128mm" height="218.5383mm" version="1.1" viewBox="0 0 452.94129 218.53831" xmlns="http://www.w3.org/2000/svg" xmlns:cc="http://creativecommons.org/ns#" xmlns:dc="http://purl.org/dc/elements/1.1/" xmlns:rdf="http://www.w3.org/1999/02/22-rdf-syntax-ns#">
 <metadata>
  <rdf:RDF>
   <cc:Work rdf:about="">
    <dc:format>image/svg+xml</dc:format>
    <dc:type rdf:resource="http://purl.org/dc/dcmitype/StillImage"/>
    <dc:title/>
   </cc:Work>
  </rdf:RDF>
 </metadata>
 <g fill="#f9eab0">
  <polygon transform="matrix(3.4969519,0,0,3.4969519,454.53794,432.75581)" points=""/>
  <polygon transform="matrix(3.4969519,0,0,3.4969519,1042.6953,575.90132)" points=""/>
  <polygon transform="matrix(3.4969519,0,0,3.4969519,455.26898,655.71169)" points=""/>
  <polygon transform="matrix(3.4969519,0,0,3.4969519,1043.4264,798.8572)" points=""/>
 </g>
 <rect x="6.7762636e-21" y="-1.0587912e-22" width="452.94128" height="218.28127" opacity="0" stroke-width=".35775721"/>
 <g transform="translate(-5.1217259e-5,-164.5459)">
  <path d="m443.26684 236.28481h-81.33692c-4.78279 0-8.6332 3.92436-8.6332 8.79901v75.63361c0 4.87466 3.85041 8.79901 8.6332 8.79901h81.33692c4.78279 0 8.6332-3.92435 8.6332-8.79901l-16.63339-37.81681 16.63339-37.8168c1.95647-4.44815-3.85041-8.79901-8.6332-8.79901z" fill="#fff" stroke="#00c853" stroke-linecap="round" stroke-linejoin="round" stroke-width="1.3104434"/>
  <path d="m361.2116 236.10571c0.66677 0.0315 1.31076 0.26187 1.90041 0.73642 0 0 21.47401 14.96078 27.30036 20.24193 1.04754 0.94953 1.9879 1.73092 2.83236 2.40976h-39.90146v-13.80588c0-4.13507 4.26777-9.75218 7.86833-9.58223zm33.05077 116.27493c-1.30156 0.8041-2.72443 0.95334-4.0518 0z" fill="#00c853"/>
 </g>
 <g transform="translate(-5.1217259e-5,-164.5459)">
  <path d="m9.674543 236.28481h81.336926c4.78279 0 8.633196 3.92436 8.633196 8.79901v75.63361c0 4.87466-3.850406 8.79901-8.633196 8.79901h-81.336926c-4.78279 0-8.6331959-3.92435-8.6331959-8.79901l16.6333829-37.81681-16.6333829-37.8168c-1.95647452-4.44815 3.8504059-8.79901 8.6331959-8.79901z" fill="#fff" stroke="#00c853" stroke-linecap="round" stroke-linejoin="round" stroke-width="1.3104434"/>
  <path d="m91.729785 236.10571c-0.666771 0.0315-1.310758 0.26187-1.900407 0.73642 0 0-21.474014 14.96078-27.300364 20.24193-1.047537 0.94953-1.987893 1.73092-2.832357 2.40976h39.901467v-13.80588c0-4.13507-4.267775-9.75218-7.868339-9.58223zm-33.050768 116.27493c1.301555 0.8041 2.724424 0.95333 4.051803 0z" fill="#00c853"/>
 </g>
 <g stroke="#00c853" stroke-linecap="round" stroke-linejoin="round">
  <rect x="54.498367" y="94.948158" width="343.80542" height="92.886826" ry="8.7664652" fill="#fff" stroke-width="1.3104434"/>
  <g transform="matrix(.71974789 0 0 .71974789 181.03406 -27.19562)" fill="#00c853" stroke-width="7.9375">
   <path d="m-33.222956 318.55025v18.84114"/>
   <path d="m-23.802386 327.97082h-18.84114"/>
  </g>
  <g transform="matrix(.71974789 0 0 .71974789 319.73154 -27.19562)" fill="#00c853" stroke-width="7.9375">
   <path d="m-33.222956 318.55025v18.84114"/>
   <path d="m-23.802386 327.97082h-18.84114"/>
  </g>
 </g>
 <g fill="#fff" stroke-width=".26458332" style="font-feature-settings:normal;font-variant-caps:normal;font-variant-ligatures:normal;font-variant-numeric:normal" aria-label="exercise">
  <path d="m179.24387 211.12304q-0.18604-1.67431 0.28938-3.32796 0.47543-1.67432 1.46761-2.97656 1.01286-1.32292 2.43913-2.1084 1.42627-0.80615 3.14193-0.76481 0.7028-0.0207 1.6123 0.31006 0.90951 0.33072 1.67432 0.93017 0.76481 0.57878 1.21956 1.36426 0.47543 0.76481 0.31006 1.63297 0.0207 0.43409-0.43408 0.72347-0.45475 0.26872-1.21956 0.43409-0.74414 0.16536-1.757 0.24804-0.99219 0.062-2.1084 0.10336-1.09554 0.0413-2.23242 0.0827-1.13688 0.0207-2.14974 0.10335-0.57878 1.59164-0.3514 2.62516 0.24805 1.01286 1.01286 1.5503 0.78548 0.53743 1.92236 0.64079 1.15755 0.0827 2.39779-0.16537 1.24023-0.24805 2.43912-0.78548 1.1989-0.55811 2.06706-1.32292 0.12403 0 0.31006 0.0827 0.20671 0.0827 0.39274 0.22738 0.18604 0.12402 0.31006 0.28939 0.14469 0.14469 0.14469 0.26872-0.51676 0.88883-1.57096 1.59163t-2.37712 1.13688q-1.32291 0.43408-2.76985 0.53744-1.42627 0.10335-2.68718-0.20671-1.2609-0.31006-2.21175-1.09554-0.95084-0.78548-1.28157-2.12907zm9.88053-5.51904q-0.10335-0.78548-0.62012-1.17822-0.51676-0.39275-1.21956-0.4961-0.7028-0.12402-1.48828 0.0207-0.78548 0.1447-1.46761 0.43408-0.66146 0.28939-1.11621 0.68213-0.43409 0.39274-0.45476 0.78549z" style="font-feature-settings:normal;font-variant-caps:normal;font-variant-ligatures:normal;font-variant-numeric:normal"/>
  <path d="m192.72108 203.64029q0-0.12402 0.10335-0.37207 0.10336-0.26871 0.28939-0.51676 0.20671-0.24805 0.4961-0.39274 0.28938-0.16537 0.68212-0.10335l4.25814 5.1263q0.3514-0.45475 0.78548-1.09554 0.43409-0.66146 0.93018-1.38493t1.01286-1.44694q0.51676-0.72347 1.0542-1.34359 0.31006 0 0.53743 0.12402 0.24805 0.12403 0.41341 0.31006 0.16537 0.16537 0.24805 0.37207 0.10335 0.20671 0.10335 0.39274l-3.38997 5.29167 4.46484 4.67155q0.1447 0.26872 0.062 0.57878t-0.31006 0.5581q-0.20671 0.22738-0.51677 0.33073t-0.64079-0.0413l-4.46484-4.65088q-0.37207 0.41341-0.9095 1.0542-0.53744 0.64079-1.13689 1.30225-0.57877 0.66146-1.13688 1.24023-0.5581 0.57878-0.95084 0.86817-0.24805 0.12402-0.55811 0.12402-0.28939 0-0.55811-0.12402-0.24804-0.10336-0.41341-0.31006-0.16536-0.20671-0.16536-0.47543 0.062-0.062 0.3514-0.3514 0.28939-0.31005 0.68213-0.74414 0.41341-0.43408 0.88883-0.97151 0.47543-0.53744 0.90951-1.0542 0.43408-0.53744 0.80615-1.03353 0.37207-0.4961 0.55811-0.8475-1.26091-1.40559-2.2531-2.52181-0.41341-0.47542-0.82682-0.93017-0.39274-0.45475-0.7028-0.80615-0.31006-0.37207-0.51676-0.59945-0.18604-0.22738-0.18604-0.22738z" style="font-feature-settings:normal;font-variant-caps:normal;font-variant-ligatures:normal;font-variant-numeric:normal"/>
  <path d="m205.33013 211.12304q-0.18603-1.67431 0.28939-3.32796 0.47542-1.67432 1.46761-2.97656 1.01286-1.32292 2.43913-2.1084 1.42627-0.80615 3.14193-0.76481 0.70279-0.0207 1.6123 0.31006 0.90951 0.33072 1.67432 0.93017 0.76481 0.57878 1.21956 1.36426 0.47542 0.76481 0.31006 1.63297 0.0207 0.43409-0.43408 0.72347-0.45476 0.26872-1.21957 0.43409-0.74414 0.16536-1.757 0.24804-0.99218 0.062-2.10839 0.10336-1.09554 0.0413-2.23243 0.0827-1.13688 0.0207-2.14974 0.10335-0.57877 1.59164-0.3514 2.62516 0.24805 1.01286 1.01286 1.5503 0.78548 0.53743 1.92237 0.64079 1.15755 0.0827 2.39778-0.16537 1.24024-0.24805 2.43913-0.78548 1.19889-0.55811 2.06706-1.32292 0.12402 0 0.31006 0.0827 0.2067 0.0827 0.39274 0.22738 0.18603 0.12402 0.31006 0.28939 0.14469 0.14469 0.14469 0.26872-0.51676 0.88883-1.57096 1.59163t-2.37712 1.13688-2.76986 0.53744q-1.42627 0.10335-2.68717-0.20671-1.26091-0.31006-2.21175-1.09554-0.95085-0.78548-1.28158-2.12907zm9.88054-5.51904q-0.10336-0.78548-0.62012-1.17822-0.51677-0.39275-1.21957-0.4961-0.70279-0.12402-1.48828 0.0207-0.78548 0.1447-1.46761 0.43408-0.66146 0.28939-1.11621 0.68213-0.43408 0.39274-0.45475 0.78549z" style="font-feature-settings:normal;font-variant-caps:normal;font-variant-ligatures:normal;font-variant-numeric:normal"/>
  <path d="m219.03472 202.21402q0.0413-0.39274 0.33073-0.47542 0.28939-0.10335 0.62012-0.062 0.53743 0.062 0.80615 0.5581 0.26872 0.47543 0.37207 1.07487 0.10335 0.59945 0.10335 1.17823 0 0.5581 0.0207 0.80615 0.57878-0.49609 1.28158-1.13688 0.72347-0.64079 1.73633-1.15755 1.03353-0.53744 2.4598-0.80616 1.44694-0.28938 3.47265-0.0413 0.4961 0.12403 0.72347 0.47543 0.24805 0.3514 0.24805 0.74414 0.0207 0.37207-0.20671 0.7028-0.2067 0.31005-0.59944 0.3514-0.4961-0.37207-1.32292-0.43409-0.82682-0.062-1.81901 0.1447-0.97152 0.2067-1.98438 0.66146-1.01285 0.45475-1.88102 1.13688-0.84749 0.68213-1.46761 1.57096-0.59944 0.88884-0.74414 1.94304v4.52685q-0.0413 0.10335-0.33073 0.31006-0.28939 0.18603-0.66146 0.26872-0.3514 0.10335-0.72347 0-0.3514-0.10336-0.53743-0.57878 0-0.14469 0-0.9095 0-0.78549 0-1.88103 0.0207-1.11621 0.0413-2.41845 0.0207-1.32292 0.0207-2.58383 0.0207-1.2609 0.0207-2.3151 0.0207-1.0542 0.0207-1.65365z" style="font-feature-settings:normal;font-variant-caps:normal;font-variant-ligatures:normal;font-variant-numeric:normal"/>
  <path d="m229.5147 210.44091q-0.10335-1.07487 0.4961-2.33577 0.62011-1.28158 1.65364-2.4598 1.0542-1.19889 2.39779-2.12907 1.36426-0.95085 2.74918-1.36426 1.4056-0.43408 2.68718-0.16536 1.30225 0.26872 2.25309 1.48828 0 0.26872-0.14469 0.47542-0.12403 0.20671-0.33073 0.39274-0.18604 0.18604-0.41341 0.33073-0.22738 0.1447-0.41341 0.28939-0.3514-0.74414-0.93018-1.03353t-1.28158-0.22737q-0.7028 0.0413-1.48828 0.39274-0.78548 0.33073-1.55029 0.86816-0.76481 0.51676-1.44694 1.17822-0.68213 0.64079-1.19889 1.34359-0.4961 0.68213-0.76481 1.36426-0.26872 0.66146-0.20671 1.19889 0 0.90951 0.3514 1.46761 0.3514 0.55811 0.9095 0.86817 0.57878 0.31006 1.30225 0.41341 0.74414 0.10335 1.50895 0.10335 1.57097-0.0413 2.8112-0.37207 1.26091-0.3514 2.17041-0.72347 0.90951-0.39274 1.50895-0.68213 0.59945-0.28939 0.86817-0.22737 0.16536 0 0.33073 0.0207 0.18603 0.0207 0.31005 0.12402 0.1447 0.0827 0.18604 0.26872 0.062 0.16536 0 0.47542-0.062 0.39274-0.53744 0.76481-0.47542 0.3514-1.21956 0.66146t-1.65364 0.57878q-0.90951 0.24804-1.81902 0.43408-0.9095 0.16536-1.73632 0.24804-0.80616 0.0827-1.34359 0.0414-0.90951 0-1.96371-0.20671-1.05419-0.20671-1.9637-0.68213-0.88883-0.47542-1.48828-1.24023-0.59945-0.78549-0.59945-1.94304z" style="font-feature-settings:normal;font-variant-caps:normal;font-variant-ligatures:normal;font-variant-numeric:normal"/>
  <path d="m247.35341 202.37939q0.18603 2.54248 0.33073 5.41569 0.14469 2.85254 0.24804 5.76709-0.10335 0.41341-0.43408 0.59945-0.31006 0.18603-0.68213 0.2067-0.37207 0-0.7028-0.12402-0.31006-0.12403-0.39274-0.33073v-11.53418zm-2.39779-3.514q0-0.47542 0.26872-0.68213 0.26871-0.2067 0.64079-0.22737 0.37207-0.0414 0.74414 0.062 0.37207 0.10335 0.53743 0.24804 0.18604 0.68213-0.062 0.99219-0.24805 0.31006-0.66146 0.3514-0.39274 0.0207-0.82682-0.18603-0.43408-0.20671-0.64079-0.55811z" style="font-feature-settings:normal;font-variant-caps:normal;font-variant-ligatures:normal;font-variant-numeric:normal"/>
  <path d="m249.91656 213.06608q1.86035-0.1447 3.3693-0.51677 1.52963-0.37207 2.56315-0.84749 1.0542-0.4961 1.57097-1.03353 0.51676-0.55811 0.37207-1.09554-0.16537-0.57878-1.65365-0.4961-1.46761 0.0827-4.36149 0.66146-0.84749-0.062-1.48828-0.39274-0.62012-0.33073-0.99219-0.78548-0.37207-0.47542-0.47542-0.99219-0.10335-0.51676 0.062-0.9095 0-0.68213 0.39274-1.32292 0.41341-0.66146 1.09554-1.19889 0.7028-0.55811 1.61231-0.99219 0.93017-0.45475 1.98437-0.7028 1.0542-0.26872 2.17041-0.33073 1.11621-0.062 2.21175 0.1447 0.53744 0.24804 0.86817 0.57877 0.3514 0.31006 0.47542 0.64079 0.12402 0.31006 0 0.59945-0.12402 0.28938-0.51676 0.49609-0.8475-0.37207-1.79834-0.53744-0.93018-0.18603-1.86035-0.14469-0.93018 0.0413-1.79834 0.28939-0.8475 0.22737-1.50896 0.66146-0.64078 0.41341-1.0542 1.03353-0.41341 0.62011-0.43408 1.40559 0 0.43409 0.33073 0.57878 0.3514 0.12402 0.80615 0.12402 0.47543-0.0207 0.97152-0.10335 0.51677-0.10335 0.82682-0.10335 2.04639-0.28939 3.36931-0.16537 1.34358 0.12403 2.04638 0.53744t0.82683 1.03353q0.12402 0.62011-0.24805 1.34358-0.3514 0.7028-1.15755 1.42627t-1.96371 1.32292q-1.15755 0.59945-2.62516 1.01286-1.44694 0.39274-3.10059 0.47542-0.39274 0.1447-0.66145-0.0413-0.24805-0.18603-0.37207-0.49609-0.12403-0.31006-0.10336-0.64079 0.0413-0.3514 0.24805-0.51676z" style="font-feature-settings:normal;font-variant-caps:normal;font-variant-ligatures:normal;font-variant-numeric:normal"/>
  <path d="m260.8513 211.12304q-0.18604-1.67431 0.28938-3.32796 0.47543-1.67432 1.46761-2.97656 1.01286-1.32292 2.43913-2.1084 1.42627-0.80615 3.14193-0.76481 0.7028-0.0207 1.6123 0.31006 0.90951 0.33072 1.67432 0.93017 0.76481 0.57878 1.21956 1.36426 0.47543 0.76481 0.31006 1.63297 0.0207 0.43409-0.43408 0.72347-0.45475 0.26872-1.21956 0.43409-0.74414 0.16536-1.757 0.24804-0.99219 0.062-2.1084 0.10336-1.09554 0.0413-2.23242 0.0827-1.13688 0.0207-2.14974 0.10335-0.57878 1.59164-0.3514 2.62516 0.24805 1.01286 1.01286 1.5503 0.78548 0.53743 1.92236 0.64079 1.15755 0.0827 2.39779-0.16537 1.24023-0.24805 2.43912-0.78548 1.1989-0.55811 2.06706-1.32292 0.12403 0 0.31006 0.0827 0.20671 0.0827 0.39274 0.22738 0.18604 0.12402 0.31006 0.28939 0.14469 0.14469 0.14469 0.26872-0.51676 0.88883-1.57096 1.59163t-2.37712 1.13688q-1.32291 0.43408-2.76985 0.53744-1.42627 0.10335-2.68718-0.20671-1.2609-0.31006-2.21175-1.09554t-1.28157-2.12907zm9.88053-5.51904q-0.10335-0.78548-0.62012-1.17822-0.51676-0.39275-1.21956-0.4961-0.7028-0.12402-1.48828 0.0207-0.78548 0.1447-1.46761 0.43408-0.66146 0.28939-1.11621 0.68213-0.43409 0.39274-0.45476 0.78549z" style="font-feature-settings:normal;font-variant-caps:normal;font-variant-ligatures:normal;font-variant-numeric:normal"/>
 </g>
 <g transform="matrix(.10082767 0 0 .10082767 160.4973 14.184129)" fill="#00c853">
  <g fill="#00c853">
   <g fill="#00c853">
    <path d="m477.549 182.379h-148.531v-148.532c0-18.69-15.154-33.844-33.844-33.844h-78.954c-18.69 0-33.844 15.153-33.844 33.844v148.526h-148.532c-18.691 0-33.844 15.153-33.844 33.843v78.966c0 18.691 15.153 33.844 33.844 33.844h148.532v148.527c0 18.689 15.153 33.842 33.844 33.842h78.96c18.691 0 33.844-15.152 33.844-33.842v-148.527h148.533c18.689 0 33.842-15.152 33.842-33.844v-78.966c-6e-3 -18.69-15.153-33.837-33.85-33.837z" fill="#00c853"/>
   </g>
  </g>
 </g>
 <g transform="matrix(.96743897 0 0 1.6729036 241.99803 -3.5298364)" fill="#e91e63">
  <g fill="#e91e63">
   <path d="m52 26c0 2.476-0.213 4.483-2.69 4.483h-46.62c-2.477 0-2.69-2.007-2.69-4.483s0.213-4.483 2.69-4.483h46.62c2.477 0 2.69 2.007 2.69 4.483z" fill="#e91e63"/>
  </g>
 </g>
 <g transform="matrix(.8442813 -1.462338 .46221322 .26685893 192.74632 71.048115)" fill="#00c853">
  <g fill="#00c853">
   <path d="m52 26c0 2.476-0.213 4.483-2.69 4.483h-46.62c-2.477 0-2.69-2.007-2.69-4.483s0.213-4.483 2.69-4.483h46.62c2.477 0 2.69 2.007 2.69 4.483z" fill="#00c853"/>
  </g>
 </g>
 <g transform="translate(-397.56702,-139.41994)" fill="#00c853" stroke-width=".26458335" style="font-feature-settings:normal;font-variant-caps:normal;font-variant-ligatures:normal;font-variant-numeric:normal" aria-label="More or less">
  <path d="m538.00052 269.57139-7.28637 0.12058-0.55122 22.23809h7.04522l0.32728-14.74501 5.37435 8.71609 5.25377-7.94094-0.2756 14.07321 7.20025 0.12058 0.55121-22.30699-7.32083-0.10335-5.18487 8.37158z" style="font-feature-settings:normal;font-variant-caps:normal;font-variant-ligatures:normal;font-variant-numeric:normal"/>
  <path d="m564.63111 285.45328q-1.0163-0.0172-1.53307-0.31006-0.49953-0.27561-0.49953-0.77514 0-0.51677 0.46508-0.84405 0.51677-0.37896 1.41249-0.37896 0.9474 0 1.49862 0.32728 0.55121 0.31006 0.55121 0.8096 0 0.48231-0.55121 0.82682-0.53399 0.36174-1.34359 0.34451zm-0.12058-10.28361q-4.32359 0-6.54568 2.91111-1.86035 2.42879-1.86035 6.18394 0 4.16857 1.94648 6.1495 2.15318 2.18763 7.14857 2.25654 3.54845 0.0517 5.92557-2.61828 2.30821-2.60104 2.30821-6.30452 0-3.73793-2.32544-6.09782-2.44602-2.48047-6.59736-2.48047z" style="font-feature-settings:normal;font-variant-caps:normal;font-variant-ligatures:normal;font-variant-numeric:normal"/>
  <path d="m579.4967 274.20504-5.51215 0.13781 0.43063 17.67334 5.66719 0.1378-0.22393-7.28638q0.75792-3.66902 4.09966-4.54752 1.67087-0.44786 3.18671-0.15503l0.0172-6.01169q-4.84036 0.12058-7.59644 2.22208z" style="font-feature-settings:normal;font-variant-caps:normal;font-variant-ligatures:normal;font-variant-numeric:normal"/>
  <path d="m597.23894 279.07985q1.51584-0.2756 2.20486 0.48232 0.34451 0.39618 0.37896 0.82682l-4.65088 0.44786q-0.0689-0.32728 0.13781-0.72347 0.43063-0.75792 1.92925-1.03353zm-0.70624 7.25193q-0.89573-0.49954-1.22301-1.37804-0.17226-0.43063-0.15503-0.77514l11.55829-1.37804q-0.39618-2.32544-1.98093-4.51308-3.20393-4.39249-9.2673-3.82405-3.46232 0.32728-5.4777 2.79052-1.82591 2.20486-1.99816 5.42603-0.18948 3.11781 1.22301 5.70163 1.51584 2.7733 4.23747 3.6518 4.71978 1.5503 9.07782-0.68902 2.18764-1.11965 3.41065-2.53214l-3.70348-3.85851q-0.8096 0.68902-1.92925 1.20579-2.22209 1.05075-3.77238 0.17225z" style="font-feature-settings:normal;font-variant-caps:normal;font-variant-ligatures:normal;font-variant-numeric:normal"/>
  <path d="m624.36907 285.45328q-1.0163-0.0172-1.53307-0.31006-0.49954-0.27561-0.49954-0.77514 0-0.51677 0.46509-0.84405 0.51677-0.37896 1.41249-0.37896 0.9474 0 1.49862 0.32728 0.55121 0.31006 0.55121 0.8096 0 0.48231-0.55121 0.82682-0.53399 0.36174-1.34359 0.34451zm-0.12058-10.28361q-4.32359 0-6.54568 2.91111-1.86035 2.42879-1.86035 6.18394 0 4.16857 1.94648 6.1495 2.15318 2.18763 7.14857 2.25654 3.54845 0.0517 5.92557-2.61828 2.30821-2.60104 2.30821-6.30452 0-3.73793-2.32544-6.09782-2.44602-2.48047-6.59736-2.48047z" style="font-feature-settings:normal;font-variant-caps:normal;font-variant-ligatures:normal;font-variant-numeric:normal"/>
  <path d="m639.23465 274.20504-5.51215 0.13781 0.43064 17.67334 5.66718 0.1378-0.22393-7.28638q0.75792-3.66902 4.09966-4.54752 1.67087-0.44786 3.18672-0.15503l0.0172-6.01169q-4.84036 0.12058-7.59643 2.22208z" style="font-feature-settings:normal;font-variant-caps:normal;font-variant-ligatures:normal;font-variant-numeric:normal"/>
  <path d="m656.28788 269.26133v22.82376h7.07967l0.31006-23.13382z" style="font-feature-settings:normal;font-variant-caps:normal;font-variant-ligatures:normal;font-variant-numeric:normal"/>
  <path d="m673.44446 279.07985q1.51584-0.2756 2.20486 0.48232 0.34451 0.39618 0.37896 0.82682l-4.65088 0.44786q-0.0689-0.32728 0.1378-0.72347 0.43064-0.75792 1.92926-1.03353zm-0.70625 7.25193q-0.89572-0.49954-1.22301-1.37804-0.17225-0.43063-0.15502-0.77514l11.55829-1.37804q-0.39618-2.32544-1.98093-4.51308-3.20394-4.39249-9.26731-3.82405-3.46232 0.32728-5.4777 2.79052-1.8259 2.20486-1.99815 5.42603-0.18948 3.11781 1.22301 5.70163 1.51584 2.7733 4.23746 3.6518 4.71978 1.5503 9.07783-0.68902 2.18764-1.11965 3.41064-2.53214l-3.70347-3.85851q-0.8096 0.68902-1.92926 1.20579-2.22208 1.05075-3.77238 0.17225z" style="font-feature-settings:normal;font-variant-caps:normal;font-variant-ligatures:normal;font-variant-numeric:normal"/>
  <path d="m685.93292 284.93652q1.58474 0.68902 2.8422 1.22301 3.47955 1.73977 4.16857 1.11965 0.24116-0.36173 0.0689-0.62012-0.17225-0.25838-1.70532-0.86127-1.51584-0.62012-3.47955-1.24023-1.9637-0.62012-2.66995-2.04984-0.67179-1.37803-0.10335-2.9111 0.62012-1.65365 2.37712-2.61827 2.0326-1.10243 5.02984-0.91295 2.53214 0.15502 5.04706 1.1541 1.18856 0.65457 1.86035 1.29191l-2.17041 3.41065q-0.99907-0.65457-1.94648-0.9474-3.10058-1.13688-3.27284 0.0689-0.0172 0.32728 0.55122 0.68902 0.58566 0.34451 2.48047 0.86127 1.91203 0.49954 3.10058 1.06798 1.77423 0.8785 2.15319 2.80775 0.39618 1.96371-1.22301 4.03077-1.6881 1.98093-5.83944 1.99815-3.61735 0.0345-9.73239-2.7044z" style="font-feature-settings:normal;font-variant-caps:normal;font-variant-ligatures:normal;font-variant-numeric:normal"/>
  <path d="m703.50291 284.93652q1.58475 0.68902 2.84221 1.22301 3.47954 1.73977 4.16856 1.11965 0.24116-0.36173 0.0689-0.62012-0.17225-0.25838-1.70532-0.86127-1.51584-0.62012-3.47954-1.24023-1.96371-0.62012-2.66995-2.04984-0.6718-1.37803-0.10336-2.9111 0.62012-1.65365 2.37712-2.61827 2.03261-1.10243 5.02984-0.91295 2.53214 0.15502 5.04706 1.1541 1.18856 0.65457 1.86036 1.29191l-2.17041 3.41065q-0.99908-0.65457-1.94648-0.9474-3.10059-1.13688-3.27284 0.0689-0.0172 0.32728 0.55121 0.68902 0.58567 0.34451 2.48047 0.86127 1.91203 0.49954 3.10059 1.06798 1.77422 0.8785 2.15318 2.80775 0.39619 1.96371-1.22301 4.03077-1.6881 1.98093-5.83944 1.99815-3.61735 0.0345-9.73239-2.7044z" style="font-feature-settings:normal;font-variant-caps:normal;font-variant-ligatures:normal;font-variant-numeric:normal"/>
 </g>
 <rect x="186.98041" y="16.732861" width="4.7142968" height="13.314308" ry="2.3571484" fill="#84ffb7"/>
 <rect x="285.2674" y="33.974266" width="4.7142968" height="12.216129" ry="2.3571484" fill="#f9c4d6"/>
</svg>
