<?xml version="1.0" encoding="UTF-8"?>
<!-- Created with Inkscape (http://www.inkscape.org/) -->
<svg width="511.99997" height="511.99997" version="1.1" viewBox="0 0 135.46666 135.46666" xmlns="http://www.w3.org/2000/svg" xmlns:cc="http://creativecommons.org/ns#" xmlns:dc="http://purl.org/dc/elements/1.1/" xmlns:rdf="http://www.w3.org/1999/02/22-rdf-syntax-ns#">
 <metadata>
  <rdf:RDF>
   <cc:Work rdf:about="">
    <dc:format>image/svg+xml</dc:format>
    <dc:type rdf:resource="http://purl.org/dc/dcmitype/StillImage"/>
    <dc:title/>
   </cc:Work>
  </rdf:RDF>
 </metadata>
 <g transform="translate(-179.67334)">
  <rect x="179.67334" y="9.8389773e-7" width="135.46666" height="135.46666" opacity="0" stroke-width="1.74694598"/>
  <g transform="matrix(.82519023 0 0 .8253505 52.620208 -5.2498647)">
   <g transform="translate(-2.7803839e-6)">
    <path d="m182.90279 58.239467c0 0.705199 0.57158 1.276779 1.27677 1.276779 0.35266 0 0.67179-0.142909 0.90286-0.373983 0.23107-0.231075 0.37404-0.550255 0.37387-0.902855v-23.29321h-2.55356c6e-5 10.050003 6e-5 22.722916 6e-5 23.293269z" fill="#ffb578" stroke-width=".0826266"/>
    <circle transform="rotate(-45)" cx="115.24891" cy="145.22032" r="14.832219" fill="#b2ff59" stroke-width=".0826266"/>
    <g transform="matrix(.05842583 -.05842583 .05842583 .05842583 154.26554 30.131092)" fill="#64dd17">
     <path d="m442.029 37.299c-8.009 9.104-7.69 22.974 1.004 31.668 60.953 60.953 60.953 160.131 0 221.084-52.652 52.652-133.823 59.817-194.243 21.508-8.324-5.278-9.536-16.96-2.567-23.929l83.75-83.75c5.883-5.883 6.425-15.468 0.825-21.622-5.979-6.57-16.159-6.751-22.368-0.541l-113.308 113.308c34.463 40.936 84.544 63.993 137.37 63.993 99.141 0 179.509-80.369 179.509-179.509-1e-3 -57.898-27.419-109.385-69.972-142.21z"/>
     <path d="m249.83 103.451c2.05 0 3.977-0.793 5.429-2.235 1.473-1.442 2.287-3.379 2.297-5.439 0.021-2.071-0.773-4.018-2.225-5.481-1.463-1.483-3.41-2.297-5.501-2.297-2.04 0-3.966 0.783-5.419 2.225-1.473 1.442-2.287 3.379-2.308 5.45-0.01 2.06 0.783 4.007 2.225 5.47 1.474 1.483 3.421 2.297 5.502 2.307z"/>
     <path d="m274.389 84.825c1.329 0 2.658-0.35 3.822-1.02 16.39-9.333 35.17-14.268 54.28-14.268 29.37 0.01 56.99 11.456 77.758 32.214 7.098 7.088 13.176 15.082 18.059 23.756l0.01 0.021c0.021 0.031 0.031 0.072 0.051 0.103 0.01 0 0.01 0.01 0.01 0.01 4.708 8.386 8.293 17.379 10.652 26.723 0.876 3.441 3.946 5.841 7.489 5.841 0.639 0 1.277-0.082 1.896-0.237 4.131-1.051 6.645-5.254 5.594-9.385-2.699-10.683-6.789-20.944-12.156-30.514-5.594-9.952-12.548-19.12-20.676-27.248-11.765-11.775-25.435-20.933-40.641-27.238-15.216-6.305-31.359-9.498-47.996-9.498h-0.062c-10.93 0-21.768 1.401-32.214 4.162-10.395 2.74-20.387 6.82-29.71 12.136-3.698 2.102-4.996 6.83-2.884 10.539 1.372 2.399 3.947 3.903 6.718 3.903z"/>
     <path d="m303.925 285.762c-18.481-4.945-35.49-14.793-49.191-28.495-20.727-20.727-32.152-48.346-32.162-77.758 0-9.797 1.298-19.543 3.853-28.969l0.021-0.062v-0.01c2.534-9.303 6.274-18.234 11.126-26.527 2.153-3.678 0.917-8.417-2.761-10.57-1.185-0.69-2.534-1.061-3.894-1.061-2.74 0-5.295 1.463-6.676 3.822-5.542 9.478-9.818 19.666-12.712 30.298-0.01 0.031-0.01 0.062-0.021 0.093-2.915 10.734-4.389 21.83-4.389 32.986 0 16.287 3.08 32.173 9.179 47.213 6.305 15.576 15.556 29.525 27.506 41.475 7.829 7.829 16.607 14.577 26.094 20.058 9.426 5.45 19.532 9.632 30.04 12.434 0.659 0.175 1.329 0.258 1.999 0.258 3.492 0 6.562-2.349 7.458-5.728 0.536-1.999 0.258-4.079-0.773-5.862-1.03-1.792-2.699-3.069-4.697-3.595z"/>
     <path d="m447.81 204.141c-0.69-0.196-1.391-0.288-2.102-0.288-3.441 0-6.5 2.318-7.428 5.635-5.068 17.987-14.762 34.511-28.031 47.78-20.768 20.758-48.388 32.203-77.758 32.214-4.265 0-7.726 3.461-7.726 7.726s3.461 7.726 7.726 7.726h0.01 0.041c16.637 0 32.791-3.194 47.996-9.498 15.206-6.305 28.876-15.473 40.641-27.238 7.685-7.685 14.33-16.318 19.759-25.652 5.264-9.055 9.375-18.77 12.218-28.876 0.556-1.988 0.309-4.069-0.701-5.872-1.009-1.803-2.657-3.101-4.645-3.657z"/>
     <path d="m455.66 175.687c-1.442-1.473-3.369-2.308-5.439-2.328-0.031 0-0.062-0.01-0.103-0.01-4.203 0-7.665 3.43-7.716 7.634-0.062 4.255 3.358 7.768 7.623 7.819h0.103c4.203 0 7.665-3.42 7.726-7.623 0.021-2.061-0.752-4.008-2.194-5.492z"/>
     <path d="m365.509 214.577c-9.199 8.654-20.305 13.063-33.017 13.094-4.265 0-7.726 3.461-7.726 7.726s3.461 7.726 7.726 7.726h0.144c8.159 0 16.05-1.494 23.457-4.45 7.407-2.946 14.144-7.273 20.027-12.867 3.101-2.936 3.235-7.829 0.309-10.92-1.473-1.566-3.472-2.421-5.614-2.421-1.989 0-3.874 0.752-5.306 2.112z"/>
     <path d="m388.43 186.525c-0.649-0.175-1.319-0.258-1.988-0.258-3.492 0-6.562 2.359-7.469 5.738-1.092 4.11 1.36 8.355 5.481 9.457 0.649 0.175 1.329 0.258 1.999 0.258 3.492 0 6.552-2.359 7.458-5.738 0.525-1.999 0.258-4.08-0.783-5.862-1.03-1.782-2.699-3.059-4.698-3.595z"/>
     <path d="m307.231 220.583c-3.121-1.947-6.078-4.306-8.798-7.016-9.066-9.076-14.072-21.139-14.083-33.944 0.01-12.96 5.017-25.095 14.083-34.171 9.375-9.313 20.841-14.062 34.058-14.103 12.218 0.031 22.983 4.121 31.987 12.156 0.69 0.618 1.391 1.267 2.071 1.947 5.717 5.728 9.787 12.537 12.084 20.233 0.968 3.255 4.007 5.522 7.397 5.522 0.742 0 1.494-0.103 2.205-0.319 4.09-1.216 6.418-5.532 5.202-9.612-2.988-10.044-8.509-19.295-15.957-26.743-0.886-0.886-1.782-1.741-2.678-2.534-5.79-5.213-12.362-9.241-19.532-11.981-7.17-2.73-14.783-4.121-22.643-4.121h-0.299c-8.468 0-16.637 1.617-24.281 4.79-7.654 3.183-14.556 7.84-20.531 13.846-6.078 6.068-10.776 13.166-13.969 21.098-3.091 7.644-4.646 15.71-4.636 23.993-0.01 8.231 1.566 16.267 4.667 23.89 3.194 7.871 7.881 14.927 13.938 20.974 3.534 3.544 7.417 6.634 11.528 9.21 1.236 0.762 2.648 1.174 4.09 1.174 2.689 0 5.141-1.36 6.562-3.637 1.092-1.751 1.432-3.822 0.968-5.831-0.466-2.019-1.681-3.719-3.433-4.821z"/>
    </g>
   </g>
   <g transform="translate(31.038494)">
    <path d="m182.90279 58.239467c0 0.705199 0.57158 1.276779 1.27677 1.276779 0.35266 0 0.67179-0.142909 0.90286-0.373983 0.23107-0.231075 0.37404-0.550255 0.37387-0.902855v-23.29321h-2.55356c6e-5 10.050003 6e-5 22.722916 6e-5 23.293269z" fill="#ffb578" stroke-width=".0826266"/>
    <circle transform="rotate(-45)" cx="115.24891" cy="145.22032" r="14.832219" fill="#b2ff59" stroke-width=".0826266"/>
    <g transform="matrix(.05842583 -.05842583 .05842583 .05842583 154.26554 30.131092)" fill="#64dd17">
     <path d="m442.029 37.299c-8.009 9.104-7.69 22.974 1.004 31.668 60.953 60.953 60.953 160.131 0 221.084-52.652 52.652-133.823 59.817-194.243 21.508-8.324-5.278-9.536-16.96-2.567-23.929l83.75-83.75c5.883-5.883 6.425-15.468 0.825-21.622-5.979-6.57-16.159-6.751-22.368-0.541l-113.308 113.308c34.463 40.936 84.544 63.993 137.37 63.993 99.141 0 179.509-80.369 179.509-179.509-1e-3 -57.898-27.419-109.385-69.972-142.21z"/>
     <path d="m249.83 103.451c2.05 0 3.977-0.793 5.429-2.235 1.473-1.442 2.287-3.379 2.297-5.439 0.021-2.071-0.773-4.018-2.225-5.481-1.463-1.483-3.41-2.297-5.501-2.297-2.04 0-3.966 0.783-5.419 2.225-1.473 1.442-2.287 3.379-2.308 5.45-0.01 2.06 0.783 4.007 2.225 5.47 1.474 1.483 3.421 2.297 5.502 2.307z"/>
     <path d="m274.389 84.825c1.329 0 2.658-0.35 3.822-1.02 16.39-9.333 35.17-14.268 54.28-14.268 29.37 0.01 56.99 11.456 77.758 32.214 7.098 7.088 13.176 15.082 18.059 23.756l0.01 0.021c0.021 0.031 0.031 0.072 0.051 0.103 0.01 0 0.01 0.01 0.01 0.01 4.708 8.386 8.293 17.379 10.652 26.723 0.876 3.441 3.946 5.841 7.489 5.841 0.639 0 1.277-0.082 1.896-0.237 4.131-1.051 6.645-5.254 5.594-9.385-2.699-10.683-6.789-20.944-12.156-30.514-5.594-9.952-12.548-19.12-20.676-27.248-11.765-11.775-25.435-20.933-40.641-27.238-15.216-6.305-31.359-9.498-47.996-9.498h-0.062c-10.93 0-21.768 1.401-32.214 4.162-10.395 2.74-20.387 6.82-29.71 12.136-3.698 2.102-4.996 6.83-2.884 10.539 1.372 2.399 3.947 3.903 6.718 3.903z"/>
     <path d="m303.925 285.762c-18.481-4.945-35.49-14.793-49.191-28.495-20.727-20.727-32.152-48.346-32.162-77.758 0-9.797 1.298-19.543 3.853-28.969l0.021-0.062v-0.01c2.534-9.303 6.274-18.234 11.126-26.527 2.153-3.678 0.917-8.417-2.761-10.57-1.185-0.69-2.534-1.061-3.894-1.061-2.74 0-5.295 1.463-6.676 3.822-5.542 9.478-9.818 19.666-12.712 30.298-0.01 0.031-0.01 0.062-0.021 0.093-2.915 10.734-4.389 21.83-4.389 32.986 0 16.287 3.08 32.173 9.179 47.213 6.305 15.576 15.556 29.525 27.506 41.475 7.829 7.829 16.607 14.577 26.094 20.058 9.426 5.45 19.532 9.632 30.04 12.434 0.659 0.175 1.329 0.258 1.999 0.258 3.492 0 6.562-2.349 7.458-5.728 0.536-1.999 0.258-4.079-0.773-5.862-1.03-1.792-2.699-3.069-4.697-3.595z"/>
     <path d="m447.81 204.141c-0.69-0.196-1.391-0.288-2.102-0.288-3.441 0-6.5 2.318-7.428 5.635-5.068 17.987-14.762 34.511-28.031 47.78-20.768 20.758-48.388 32.203-77.758 32.214-4.265 0-7.726 3.461-7.726 7.726s3.461 7.726 7.726 7.726h0.01 0.041c16.637 0 32.791-3.194 47.996-9.498 15.206-6.305 28.876-15.473 40.641-27.238 7.685-7.685 14.33-16.318 19.759-25.652 5.264-9.055 9.375-18.77 12.218-28.876 0.556-1.988 0.309-4.069-0.701-5.872-1.009-1.803-2.657-3.101-4.645-3.657z"/>
     <path d="m455.66 175.687c-1.442-1.473-3.369-2.308-5.439-2.328-0.031 0-0.062-0.01-0.103-0.01-4.203 0-7.665 3.43-7.716 7.634-0.062 4.255 3.358 7.768 7.623 7.819h0.103c4.203 0 7.665-3.42 7.726-7.623 0.021-2.061-0.752-4.008-2.194-5.492z"/>
     <path d="m365.509 214.577c-9.199 8.654-20.305 13.063-33.017 13.094-4.265 0-7.726 3.461-7.726 7.726s3.461 7.726 7.726 7.726h0.144c8.159 0 16.05-1.494 23.457-4.45 7.407-2.946 14.144-7.273 20.027-12.867 3.101-2.936 3.235-7.829 0.309-10.92-1.473-1.566-3.472-2.421-5.614-2.421-1.989 0-3.874 0.752-5.306 2.112z"/>
     <path d="m388.43 186.525c-0.649-0.175-1.319-0.258-1.988-0.258-3.492 0-6.562 2.359-7.469 5.738-1.092 4.11 1.36 8.355 5.481 9.457 0.649 0.175 1.329 0.258 1.999 0.258 3.492 0 6.552-2.359 7.458-5.738 0.525-1.999 0.258-4.08-0.783-5.862-1.03-1.782-2.699-3.059-4.698-3.595z"/>
     <path d="m307.231 220.583c-3.121-1.947-6.078-4.306-8.798-7.016-9.066-9.076-14.072-21.139-14.083-33.944 0.01-12.96 5.017-25.095 14.083-34.171 9.375-9.313 20.841-14.062 34.058-14.103 12.218 0.031 22.983 4.121 31.987 12.156 0.69 0.618 1.391 1.267 2.071 1.947 5.717 5.728 9.787 12.537 12.084 20.233 0.968 3.255 4.007 5.522 7.397 5.522 0.742 0 1.494-0.103 2.205-0.319 4.09-1.216 6.418-5.532 5.202-9.612-2.988-10.044-8.509-19.295-15.957-26.743-0.886-0.886-1.782-1.741-2.678-2.534-5.79-5.213-12.362-9.241-19.532-11.981-7.17-2.73-14.783-4.121-22.643-4.121h-0.299c-8.468 0-16.637 1.617-24.281 4.79-7.654 3.183-14.556 7.84-20.531 13.846-6.078 6.068-10.776 13.166-13.969 21.098-3.091 7.644-4.646 15.71-4.636 23.993-0.01 8.231 1.566 16.267 4.667 23.89 3.194 7.871 7.881 14.927 13.938 20.974 3.534 3.544 7.417 6.634 11.528 9.21 1.236 0.762 2.648 1.174 4.09 1.174 2.689 0 5.141-1.36 6.562-3.637 1.092-1.751 1.432-3.822 0.968-5.831-0.466-2.019-1.681-3.719-3.433-4.821z"/>
    </g>
   </g>
   <g transform="translate(62.076991)">
    <path d="m182.90279 58.239467c0 0.705199 0.57158 1.276779 1.27677 1.276779 0.35266 0 0.67179-0.142909 0.90286-0.373983 0.23107-0.231075 0.37404-0.550255 0.37387-0.902855v-23.29321h-2.55356c6e-5 10.050003 6e-5 22.722916 6e-5 23.293269z" fill="#ffb578" stroke-width=".0826266"/>
    <circle transform="rotate(-45)" cx="115.24891" cy="145.22032" r="14.832219" fill="#b2ff59" stroke-width=".0826266"/>
    <g transform="matrix(.05842583 -.05842583 .05842583 .05842583 154.26554 30.131092)" fill="#64dd17">
     <path d="m442.029 37.299c-8.009 9.104-7.69 22.974 1.004 31.668 60.953 60.953 60.953 160.131 0 221.084-52.652 52.652-133.823 59.817-194.243 21.508-8.324-5.278-9.536-16.96-2.567-23.929l83.75-83.75c5.883-5.883 6.425-15.468 0.825-21.622-5.979-6.57-16.159-6.751-22.368-0.541l-113.308 113.308c34.463 40.936 84.544 63.993 137.37 63.993 99.141 0 179.509-80.369 179.509-179.509-1e-3 -57.898-27.419-109.385-69.972-142.21z"/>
     <path d="m249.83 103.451c2.05 0 3.977-0.793 5.429-2.235 1.473-1.442 2.287-3.379 2.297-5.439 0.021-2.071-0.773-4.018-2.225-5.481-1.463-1.483-3.41-2.297-5.501-2.297-2.04 0-3.966 0.783-5.419 2.225-1.473 1.442-2.287 3.379-2.308 5.45-0.01 2.06 0.783 4.007 2.225 5.47 1.474 1.483 3.421 2.297 5.502 2.307z"/>
     <path d="m274.389 84.825c1.329 0 2.658-0.35 3.822-1.02 16.39-9.333 35.17-14.268 54.28-14.268 29.37 0.01 56.99 11.456 77.758 32.214 7.098 7.088 13.176 15.082 18.059 23.756l0.01 0.021c0.021 0.031 0.031 0.072 0.051 0.103 0.01 0 0.01 0.01 0.01 0.01 4.708 8.386 8.293 17.379 10.652 26.723 0.876 3.441 3.946 5.841 7.489 5.841 0.639 0 1.277-0.082 1.896-0.237 4.131-1.051 6.645-5.254 5.594-9.385-2.699-10.683-6.789-20.944-12.156-30.514-5.594-9.952-12.548-19.12-20.676-27.248-11.765-11.775-25.435-20.933-40.641-27.238-15.216-6.305-31.359-9.498-47.996-9.498h-0.062c-10.93 0-21.768 1.401-32.214 4.162-10.395 2.74-20.387 6.82-29.71 12.136-3.698 2.102-4.996 6.83-2.884 10.539 1.372 2.399 3.947 3.903 6.718 3.903z"/>
     <path d="m303.925 285.762c-18.481-4.945-35.49-14.793-49.191-28.495-20.727-20.727-32.152-48.346-32.162-77.758 0-9.797 1.298-19.543 3.853-28.969l0.021-0.062v-0.01c2.534-9.303 6.274-18.234 11.126-26.527 2.153-3.678 0.917-8.417-2.761-10.57-1.185-0.69-2.534-1.061-3.894-1.061-2.74 0-5.295 1.463-6.676 3.822-5.542 9.478-9.818 19.666-12.712 30.298-0.01 0.031-0.01 0.062-0.021 0.093-2.915 10.734-4.389 21.83-4.389 32.986 0 16.287 3.08 32.173 9.179 47.213 6.305 15.576 15.556 29.525 27.506 41.475 7.829 7.829 16.607 14.577 26.094 20.058 9.426 5.45 19.532 9.632 30.04 12.434 0.659 0.175 1.329 0.258 1.999 0.258 3.492 0 6.562-2.349 7.458-5.728 0.536-1.999 0.258-4.079-0.773-5.862-1.03-1.792-2.699-3.069-4.697-3.595z"/>
     <path d="m447.81 204.141c-0.69-0.196-1.391-0.288-2.102-0.288-3.441 0-6.5 2.318-7.428 5.635-5.068 17.987-14.762 34.511-28.031 47.78-20.768 20.758-48.388 32.203-77.758 32.214-4.265 0-7.726 3.461-7.726 7.726s3.461 7.726 7.726 7.726h0.01 0.041c16.637 0 32.791-3.194 47.996-9.498 15.206-6.305 28.876-15.473 40.641-27.238 7.685-7.685 14.33-16.318 19.759-25.652 5.264-9.055 9.375-18.77 12.218-28.876 0.556-1.988 0.309-4.069-0.701-5.872-1.009-1.803-2.657-3.101-4.645-3.657z"/>
     <path d="m455.66 175.687c-1.442-1.473-3.369-2.308-5.439-2.328-0.031 0-0.062-0.01-0.103-0.01-4.203 0-7.665 3.43-7.716 7.634-0.062 4.255 3.358 7.768 7.623 7.819h0.103c4.203 0 7.665-3.42 7.726-7.623 0.021-2.061-0.752-4.008-2.194-5.492z"/>
     <path d="m365.509 214.577c-9.199 8.654-20.305 13.063-33.017 13.094-4.265 0-7.726 3.461-7.726 7.726s3.461 7.726 7.726 7.726h0.144c8.159 0 16.05-1.494 23.457-4.45 7.407-2.946 14.144-7.273 20.027-12.867 3.101-2.936 3.235-7.829 0.309-10.92-1.473-1.566-3.472-2.421-5.614-2.421-1.989 0-3.874 0.752-5.306 2.112z"/>
     <path d="m388.43 186.525c-0.649-0.175-1.319-0.258-1.988-0.258-3.492 0-6.562 2.359-7.469 5.738-1.092 4.11 1.36 8.355 5.481 9.457 0.649 0.175 1.329 0.258 1.999 0.258 3.492 0 6.552-2.359 7.458-5.738 0.525-1.999 0.258-4.08-0.783-5.862-1.03-1.782-2.699-3.059-4.698-3.595z"/>
     <path d="m307.231 220.583c-3.121-1.947-6.078-4.306-8.798-7.016-9.066-9.076-14.072-21.139-14.083-33.944 0.01-12.96 5.017-25.095 14.083-34.171 9.375-9.313 20.841-14.062 34.058-14.103 12.218 0.031 22.983 4.121 31.987 12.156 0.69 0.618 1.391 1.267 2.071 1.947 5.717 5.728 9.787 12.537 12.084 20.233 0.968 3.255 4.007 5.522 7.397 5.522 0.742 0 1.494-0.103 2.205-0.319 4.09-1.216 6.418-5.532 5.202-9.612-2.988-10.044-8.509-19.295-15.957-26.743-0.886-0.886-1.782-1.741-2.678-2.534-5.79-5.213-12.362-9.241-19.532-11.981-7.17-2.73-14.783-4.121-22.643-4.121h-0.299c-8.468 0-16.637 1.617-24.281 4.79-7.654 3.183-14.556 7.84-20.531 13.846-6.078 6.068-10.776 13.166-13.969 21.098-3.091 7.644-4.646 15.71-4.636 23.993-0.01 8.231 1.566 16.267 4.667 23.89 3.194 7.871 7.881 14.927 13.938 20.974 3.534 3.544 7.417 6.634 11.528 9.21 1.236 0.762 2.648 1.174 4.09 1.174 2.689 0 5.141-1.36 6.562-3.637 1.092-1.751 1.432-3.822 0.968-5.831-0.466-2.019-1.681-3.719-3.433-4.821z"/>
    </g>
   </g>
   <g transform="translate(93.115488)">
    <path d="m182.90279 58.239467c0 0.705199 0.57158 1.276779 1.27677 1.276779 0.35266 0 0.67179-0.142909 0.90286-0.373983 0.23107-0.231075 0.37404-0.550255 0.37387-0.902855v-23.29321h-2.55356c6e-5 10.050003 6e-5 22.722916 6e-5 23.293269z" fill="#ffb578" stroke-width=".0826266"/>
    <circle transform="rotate(-45)" cx="115.24891" cy="145.22032" r="14.832219" fill="#b2ff59" stroke-width=".0826266"/>
    <g transform="matrix(.05842583 -.05842583 .05842583 .05842583 154.26554 30.131092)" fill="#64dd17">
     <path d="m442.029 37.299c-8.009 9.104-7.69 22.974 1.004 31.668 60.953 60.953 60.953 160.131 0 221.084-52.652 52.652-133.823 59.817-194.243 21.508-8.324-5.278-9.536-16.96-2.567-23.929l83.75-83.75c5.883-5.883 6.425-15.468 0.825-21.622-5.979-6.57-16.159-6.751-22.368-0.541l-113.308 113.308c34.463 40.936 84.544 63.993 137.37 63.993 99.141 0 179.509-80.369 179.509-179.509-1e-3 -57.898-27.419-109.385-69.972-142.21z"/>
     <path d="m249.83 103.451c2.05 0 3.977-0.793 5.429-2.235 1.473-1.442 2.287-3.379 2.297-5.439 0.021-2.071-0.773-4.018-2.225-5.481-1.463-1.483-3.41-2.297-5.501-2.297-2.04 0-3.966 0.783-5.419 2.225-1.473 1.442-2.287 3.379-2.308 5.45-0.01 2.06 0.783 4.007 2.225 5.47 1.474 1.483 3.421 2.297 5.502 2.307z"/>
     <path d="m274.389 84.825c1.329 0 2.658-0.35 3.822-1.02 16.39-9.333 35.17-14.268 54.28-14.268 29.37 0.01 56.99 11.456 77.758 32.214 7.098 7.088 13.176 15.082 18.059 23.756l0.01 0.021c0.021 0.031 0.031 0.072 0.051 0.103 0.01 0 0.01 0.01 0.01 0.01 4.708 8.386 8.293 17.379 10.652 26.723 0.876 3.441 3.946 5.841 7.489 5.841 0.639 0 1.277-0.082 1.896-0.237 4.131-1.051 6.645-5.254 5.594-9.385-2.699-10.683-6.789-20.944-12.156-30.514-5.594-9.952-12.548-19.12-20.676-27.248-11.765-11.775-25.435-20.933-40.641-27.238-15.216-6.305-31.359-9.498-47.996-9.498h-0.062c-10.93 0-21.768 1.401-32.214 4.162-10.395 2.74-20.387 6.82-29.71 12.136-3.698 2.102-4.996 6.83-2.884 10.539 1.372 2.399 3.947 3.903 6.718 3.903z"/>
     <path d="m303.925 285.762c-18.481-4.945-35.49-14.793-49.191-28.495-20.727-20.727-32.152-48.346-32.162-77.758 0-9.797 1.298-19.543 3.853-28.969l0.021-0.062v-0.01c2.534-9.303 6.274-18.234 11.126-26.527 2.153-3.678 0.917-8.417-2.761-10.57-1.185-0.69-2.534-1.061-3.894-1.061-2.74 0-5.295 1.463-6.676 3.822-5.542 9.478-9.818 19.666-12.712 30.298-0.01 0.031-0.01 0.062-0.021 0.093-2.915 10.734-4.389 21.83-4.389 32.986 0 16.287 3.08 32.173 9.179 47.213 6.305 15.576 15.556 29.525 27.506 41.475 7.829 7.829 16.607 14.577 26.094 20.058 9.426 5.45 19.532 9.632 30.04 12.434 0.659 0.175 1.329 0.258 1.999 0.258 3.492 0 6.562-2.349 7.458-5.728 0.536-1.999 0.258-4.079-0.773-5.862-1.03-1.792-2.699-3.069-4.697-3.595z"/>
     <path d="m447.81 204.141c-0.69-0.196-1.391-0.288-2.102-0.288-3.441 0-6.5 2.318-7.428 5.635-5.068 17.987-14.762 34.511-28.031 47.78-20.768 20.758-48.388 32.203-77.758 32.214-4.265 0-7.726 3.461-7.726 7.726s3.461 7.726 7.726 7.726h0.01 0.041c16.637 0 32.791-3.194 47.996-9.498 15.206-6.305 28.876-15.473 40.641-27.238 7.685-7.685 14.33-16.318 19.759-25.652 5.264-9.055 9.375-18.77 12.218-28.876 0.556-1.988 0.309-4.069-0.701-5.872-1.009-1.803-2.657-3.101-4.645-3.657z"/>
     <path d="m455.66 175.687c-1.442-1.473-3.369-2.308-5.439-2.328-0.031 0-0.062-0.01-0.103-0.01-4.203 0-7.665 3.43-7.716 7.634-0.062 4.255 3.358 7.768 7.623 7.819h0.103c4.203 0 7.665-3.42 7.726-7.623 0.021-2.061-0.752-4.008-2.194-5.492z"/>
     <path d="m365.509 214.577c-9.199 8.654-20.305 13.063-33.017 13.094-4.265 0-7.726 3.461-7.726 7.726s3.461 7.726 7.726 7.726h0.144c8.159 0 16.05-1.494 23.457-4.45 7.407-2.946 14.144-7.273 20.027-12.867 3.101-2.936 3.235-7.829 0.309-10.92-1.473-1.566-3.472-2.421-5.614-2.421-1.989 0-3.874 0.752-5.306 2.112z"/>
     <path d="m388.43 186.525c-0.649-0.175-1.319-0.258-1.988-0.258-3.492 0-6.562 2.359-7.469 5.738-1.092 4.11 1.36 8.355 5.481 9.457 0.649 0.175 1.329 0.258 1.999 0.258 3.492 0 6.552-2.359 7.458-5.738 0.525-1.999 0.258-4.08-0.783-5.862-1.03-1.782-2.699-3.059-4.698-3.595z"/>
     <path d="m307.231 220.583c-3.121-1.947-6.078-4.306-8.798-7.016-9.066-9.076-14.072-21.139-14.083-33.944 0.01-12.96 5.017-25.095 14.083-34.171 9.375-9.313 20.841-14.062 34.058-14.103 12.218 0.031 22.983 4.121 31.987 12.156 0.69 0.618 1.391 1.267 2.071 1.947 5.717 5.728 9.787 12.537 12.084 20.233 0.968 3.255 4.007 5.522 7.397 5.522 0.742 0 1.494-0.103 2.205-0.319 4.09-1.216 6.418-5.532 5.202-9.612-2.988-10.044-8.509-19.295-15.957-26.743-0.886-0.886-1.782-1.741-2.678-2.534-5.79-5.213-12.362-9.241-19.532-11.981-7.17-2.73-14.783-4.121-22.643-4.121h-0.299c-8.468 0-16.637 1.617-24.281 4.79-7.654 3.183-14.556 7.84-20.531 13.846-6.078 6.068-10.776 13.166-13.969 21.098-3.091 7.644-4.646 15.71-4.636 23.993-0.01 8.231 1.566 16.267 4.667 23.89 3.194 7.871 7.881 14.927 13.938 20.974 3.534 3.544 7.417 6.634 11.528 9.21 1.236 0.762 2.648 1.174 4.09 1.174 2.689 0 5.141-1.36 6.562-3.637 1.092-1.751 1.432-3.822 0.968-5.831-0.466-2.019-1.681-3.719-3.433-4.821z"/>
    </g>
   </g>
  </g>
  <g transform="matrix(.82519023 0 0 .8253505 52.620208 22.898681)">
   <g transform="translate(-2.7803839e-6)">
    <path d="m182.90279 58.239467c0 0.705199 0.57158 1.276779 1.27677 1.276779 0.35266 0 0.67179-0.142909 0.90286-0.373983 0.23107-0.231075 0.37404-0.550255 0.37387-0.902855v-23.29321h-2.55356c6e-5 10.050003 6e-5 22.722916 6e-5 23.293269z" fill="#ffb578" stroke-width=".0826266"/>
    <circle transform="rotate(-45)" cx="115.24891" cy="145.22032" r="14.832219" fill="#b2ff59" stroke-width=".0826266"/>
    <g transform="matrix(.05842583 -.05842583 .05842583 .05842583 154.26554 30.131092)" fill="#64dd17">
     <path d="m442.029 37.299c-8.009 9.104-7.69 22.974 1.004 31.668 60.953 60.953 60.953 160.131 0 221.084-52.652 52.652-133.823 59.817-194.243 21.508-8.324-5.278-9.536-16.96-2.567-23.929l83.75-83.75c5.883-5.883 6.425-15.468 0.825-21.622-5.979-6.57-16.159-6.751-22.368-0.541l-113.308 113.308c34.463 40.936 84.544 63.993 137.37 63.993 99.141 0 179.509-80.369 179.509-179.509-1e-3 -57.898-27.419-109.385-69.972-142.21z"/>
     <path d="m249.83 103.451c2.05 0 3.977-0.793 5.429-2.235 1.473-1.442 2.287-3.379 2.297-5.439 0.021-2.071-0.773-4.018-2.225-5.481-1.463-1.483-3.41-2.297-5.501-2.297-2.04 0-3.966 0.783-5.419 2.225-1.473 1.442-2.287 3.379-2.308 5.45-0.01 2.06 0.783 4.007 2.225 5.47 1.474 1.483 3.421 2.297 5.502 2.307z"/>
     <path d="m274.389 84.825c1.329 0 2.658-0.35 3.822-1.02 16.39-9.333 35.17-14.268 54.28-14.268 29.37 0.01 56.99 11.456 77.758 32.214 7.098 7.088 13.176 15.082 18.059 23.756l0.01 0.021c0.021 0.031 0.031 0.072 0.051 0.103 0.01 0 0.01 0.01 0.01 0.01 4.708 8.386 8.293 17.379 10.652 26.723 0.876 3.441 3.946 5.841 7.489 5.841 0.639 0 1.277-0.082 1.896-0.237 4.131-1.051 6.645-5.254 5.594-9.385-2.699-10.683-6.789-20.944-12.156-30.514-5.594-9.952-12.548-19.12-20.676-27.248-11.765-11.775-25.435-20.933-40.641-27.238-15.216-6.305-31.359-9.498-47.996-9.498h-0.062c-10.93 0-21.768 1.401-32.214 4.162-10.395 2.74-20.387 6.82-29.71 12.136-3.698 2.102-4.996 6.83-2.884 10.539 1.372 2.399 3.947 3.903 6.718 3.903z"/>
     <path d="m303.925 285.762c-18.481-4.945-35.49-14.793-49.191-28.495-20.727-20.727-32.152-48.346-32.162-77.758 0-9.797 1.298-19.543 3.853-28.969l0.021-0.062v-0.01c2.534-9.303 6.274-18.234 11.126-26.527 2.153-3.678 0.917-8.417-2.761-10.57-1.185-0.69-2.534-1.061-3.894-1.061-2.74 0-5.295 1.463-6.676 3.822-5.542 9.478-9.818 19.666-12.712 30.298-0.01 0.031-0.01 0.062-0.021 0.093-2.915 10.734-4.389 21.83-4.389 32.986 0 16.287 3.08 32.173 9.179 47.213 6.305 15.576 15.556 29.525 27.506 41.475 7.829 7.829 16.607 14.577 26.094 20.058 9.426 5.45 19.532 9.632 30.04 12.434 0.659 0.175 1.329 0.258 1.999 0.258 3.492 0 6.562-2.349 7.458-5.728 0.536-1.999 0.258-4.079-0.773-5.862-1.03-1.792-2.699-3.069-4.697-3.595z"/>
     <path d="m447.81 204.141c-0.69-0.196-1.391-0.288-2.102-0.288-3.441 0-6.5 2.318-7.428 5.635-5.068 17.987-14.762 34.511-28.031 47.78-20.768 20.758-48.388 32.203-77.758 32.214-4.265 0-7.726 3.461-7.726 7.726s3.461 7.726 7.726 7.726h0.01 0.041c16.637 0 32.791-3.194 47.996-9.498 15.206-6.305 28.876-15.473 40.641-27.238 7.685-7.685 14.33-16.318 19.759-25.652 5.264-9.055 9.375-18.77 12.218-28.876 0.556-1.988 0.309-4.069-0.701-5.872-1.009-1.803-2.657-3.101-4.645-3.657z"/>
     <path d="m455.66 175.687c-1.442-1.473-3.369-2.308-5.439-2.328-0.031 0-0.062-0.01-0.103-0.01-4.203 0-7.665 3.43-7.716 7.634-0.062 4.255 3.358 7.768 7.623 7.819h0.103c4.203 0 7.665-3.42 7.726-7.623 0.021-2.061-0.752-4.008-2.194-5.492z"/>
     <path d="m365.509 214.577c-9.199 8.654-20.305 13.063-33.017 13.094-4.265 0-7.726 3.461-7.726 7.726s3.461 7.726 7.726 7.726h0.144c8.159 0 16.05-1.494 23.457-4.45 7.407-2.946 14.144-7.273 20.027-12.867 3.101-2.936 3.235-7.829 0.309-10.92-1.473-1.566-3.472-2.421-5.614-2.421-1.989 0-3.874 0.752-5.306 2.112z"/>
     <path d="m388.43 186.525c-0.649-0.175-1.319-0.258-1.988-0.258-3.492 0-6.562 2.359-7.469 5.738-1.092 4.11 1.36 8.355 5.481 9.457 0.649 0.175 1.329 0.258 1.999 0.258 3.492 0 6.552-2.359 7.458-5.738 0.525-1.999 0.258-4.08-0.783-5.862-1.03-1.782-2.699-3.059-4.698-3.595z"/>
     <path d="m307.231 220.583c-3.121-1.947-6.078-4.306-8.798-7.016-9.066-9.076-14.072-21.139-14.083-33.944 0.01-12.96 5.017-25.095 14.083-34.171 9.375-9.313 20.841-14.062 34.058-14.103 12.218 0.031 22.983 4.121 31.987 12.156 0.69 0.618 1.391 1.267 2.071 1.947 5.717 5.728 9.787 12.537 12.084 20.233 0.968 3.255 4.007 5.522 7.397 5.522 0.742 0 1.494-0.103 2.205-0.319 4.09-1.216 6.418-5.532 5.202-9.612-2.988-10.044-8.509-19.295-15.957-26.743-0.886-0.886-1.782-1.741-2.678-2.534-5.79-5.213-12.362-9.241-19.532-11.981-7.17-2.73-14.783-4.121-22.643-4.121h-0.299c-8.468 0-16.637 1.617-24.281 4.79-7.654 3.183-14.556 7.84-20.531 13.846-6.078 6.068-10.776 13.166-13.969 21.098-3.091 7.644-4.646 15.71-4.636 23.993-0.01 8.231 1.566 16.267 4.667 23.89 3.194 7.871 7.881 14.927 13.938 20.974 3.534 3.544 7.417 6.634 11.528 9.21 1.236 0.762 2.648 1.174 4.09 1.174 2.689 0 5.141-1.36 6.562-3.637 1.092-1.751 1.432-3.822 0.968-5.831-0.466-2.019-1.681-3.719-3.433-4.821z"/>
    </g>
   </g>
   <g transform="translate(31.038494)">
    <path d="m182.90279 58.239467c0 0.705199 0.57158 1.276779 1.27677 1.276779 0.35266 0 0.67179-0.142909 0.90286-0.373983 0.23107-0.231075 0.37404-0.550255 0.37387-0.902855v-23.29321h-2.55356c6e-5 10.050003 6e-5 22.722916 6e-5 23.293269z" fill="#ffb578" stroke-width=".0826266"/>
    <circle transform="rotate(-45)" cx="115.24891" cy="145.22032" r="14.832219" fill="#b2ff59" stroke-width=".0826266"/>
    <g transform="matrix(.05842583 -.05842583 .05842583 .05842583 154.26554 30.131092)" fill="#64dd17">
     <path d="m442.029 37.299c-8.009 9.104-7.69 22.974 1.004 31.668 60.953 60.953 60.953 160.131 0 221.084-52.652 52.652-133.823 59.817-194.243 21.508-8.324-5.278-9.536-16.96-2.567-23.929l83.75-83.75c5.883-5.883 6.425-15.468 0.825-21.622-5.979-6.57-16.159-6.751-22.368-0.541l-113.308 113.308c34.463 40.936 84.544 63.993 137.37 63.993 99.141 0 179.509-80.369 179.509-179.509-1e-3 -57.898-27.419-109.385-69.972-142.21z"/>
     <path d="m249.83 103.451c2.05 0 3.977-0.793 5.429-2.235 1.473-1.442 2.287-3.379 2.297-5.439 0.021-2.071-0.773-4.018-2.225-5.481-1.463-1.483-3.41-2.297-5.501-2.297-2.04 0-3.966 0.783-5.419 2.225-1.473 1.442-2.287 3.379-2.308 5.45-0.01 2.06 0.783 4.007 2.225 5.47 1.474 1.483 3.421 2.297 5.502 2.307z"/>
     <path d="m274.389 84.825c1.329 0 2.658-0.35 3.822-1.02 16.39-9.333 35.17-14.268 54.28-14.268 29.37 0.01 56.99 11.456 77.758 32.214 7.098 7.088 13.176 15.082 18.059 23.756l0.01 0.021c0.021 0.031 0.031 0.072 0.051 0.103 0.01 0 0.01 0.01 0.01 0.01 4.708 8.386 8.293 17.379 10.652 26.723 0.876 3.441 3.946 5.841 7.489 5.841 0.639 0 1.277-0.082 1.896-0.237 4.131-1.051 6.645-5.254 5.594-9.385-2.699-10.683-6.789-20.944-12.156-30.514-5.594-9.952-12.548-19.12-20.676-27.248-11.765-11.775-25.435-20.933-40.641-27.238-15.216-6.305-31.359-9.498-47.996-9.498h-0.062c-10.93 0-21.768 1.401-32.214 4.162-10.395 2.74-20.387 6.82-29.71 12.136-3.698 2.102-4.996 6.83-2.884 10.539 1.372 2.399 3.947 3.903 6.718 3.903z"/>
     <path d="m303.925 285.762c-18.481-4.945-35.49-14.793-49.191-28.495-20.727-20.727-32.152-48.346-32.162-77.758 0-9.797 1.298-19.543 3.853-28.969l0.021-0.062v-0.01c2.534-9.303 6.274-18.234 11.126-26.527 2.153-3.678 0.917-8.417-2.761-10.57-1.185-0.69-2.534-1.061-3.894-1.061-2.74 0-5.295 1.463-6.676 3.822-5.542 9.478-9.818 19.666-12.712 30.298-0.01 0.031-0.01 0.062-0.021 0.093-2.915 10.734-4.389 21.83-4.389 32.986 0 16.287 3.08 32.173 9.179 47.213 6.305 15.576 15.556 29.525 27.506 41.475 7.829 7.829 16.607 14.577 26.094 20.058 9.426 5.45 19.532 9.632 30.04 12.434 0.659 0.175 1.329 0.258 1.999 0.258 3.492 0 6.562-2.349 7.458-5.728 0.536-1.999 0.258-4.079-0.773-5.862-1.03-1.792-2.699-3.069-4.697-3.595z"/>
     <path d="m447.81 204.141c-0.69-0.196-1.391-0.288-2.102-0.288-3.441 0-6.5 2.318-7.428 5.635-5.068 17.987-14.762 34.511-28.031 47.78-20.768 20.758-48.388 32.203-77.758 32.214-4.265 0-7.726 3.461-7.726 7.726s3.461 7.726 7.726 7.726h0.01 0.041c16.637 0 32.791-3.194 47.996-9.498 15.206-6.305 28.876-15.473 40.641-27.238 7.685-7.685 14.33-16.318 19.759-25.652 5.264-9.055 9.375-18.77 12.218-28.876 0.556-1.988 0.309-4.069-0.701-5.872-1.009-1.803-2.657-3.101-4.645-3.657z"/>
     <path d="m455.66 175.687c-1.442-1.473-3.369-2.308-5.439-2.328-0.031 0-0.062-0.01-0.103-0.01-4.203 0-7.665 3.43-7.716 7.634-0.062 4.255 3.358 7.768 7.623 7.819h0.103c4.203 0 7.665-3.42 7.726-7.623 0.021-2.061-0.752-4.008-2.194-5.492z"/>
     <path d="m365.509 214.577c-9.199 8.654-20.305 13.063-33.017 13.094-4.265 0-7.726 3.461-7.726 7.726s3.461 7.726 7.726 7.726h0.144c8.159 0 16.05-1.494 23.457-4.45 7.407-2.946 14.144-7.273 20.027-12.867 3.101-2.936 3.235-7.829 0.309-10.92-1.473-1.566-3.472-2.421-5.614-2.421-1.989 0-3.874 0.752-5.306 2.112z"/>
     <path d="m388.43 186.525c-0.649-0.175-1.319-0.258-1.988-0.258-3.492 0-6.562 2.359-7.469 5.738-1.092 4.11 1.36 8.355 5.481 9.457 0.649 0.175 1.329 0.258 1.999 0.258 3.492 0 6.552-2.359 7.458-5.738 0.525-1.999 0.258-4.08-0.783-5.862-1.03-1.782-2.699-3.059-4.698-3.595z"/>
     <path d="m307.231 220.583c-3.121-1.947-6.078-4.306-8.798-7.016-9.066-9.076-14.072-21.139-14.083-33.944 0.01-12.96 5.017-25.095 14.083-34.171 9.375-9.313 20.841-14.062 34.058-14.103 12.218 0.031 22.983 4.121 31.987 12.156 0.69 0.618 1.391 1.267 2.071 1.947 5.717 5.728 9.787 12.537 12.084 20.233 0.968 3.255 4.007 5.522 7.397 5.522 0.742 0 1.494-0.103 2.205-0.319 4.09-1.216 6.418-5.532 5.202-9.612-2.988-10.044-8.509-19.295-15.957-26.743-0.886-0.886-1.782-1.741-2.678-2.534-5.79-5.213-12.362-9.241-19.532-11.981-7.17-2.73-14.783-4.121-22.643-4.121h-0.299c-8.468 0-16.637 1.617-24.281 4.79-7.654 3.183-14.556 7.84-20.531 13.846-6.078 6.068-10.776 13.166-13.969 21.098-3.091 7.644-4.646 15.71-4.636 23.993-0.01 8.231 1.566 16.267 4.667 23.89 3.194 7.871 7.881 14.927 13.938 20.974 3.534 3.544 7.417 6.634 11.528 9.21 1.236 0.762 2.648 1.174 4.09 1.174 2.689 0 5.141-1.36 6.562-3.637 1.092-1.751 1.432-3.822 0.968-5.831-0.466-2.019-1.681-3.719-3.433-4.821z"/>
    </g>
   </g>
   <g transform="translate(62.076991)">
    <path d="m182.90279 58.239467c0 0.705199 0.57158 1.276779 1.27677 1.276779 0.35266 0 0.67179-0.142909 0.90286-0.373983 0.23107-0.231075 0.37404-0.550255 0.37387-0.902855v-23.29321h-2.55356c6e-5 10.050003 6e-5 22.722916 6e-5 23.293269z" fill="#ffb578" stroke-width=".0826266"/>
    <circle transform="rotate(-45)" cx="115.24891" cy="145.22032" r="14.832219" fill="#b2ff59" stroke-width=".0826266"/>
    <g transform="matrix(.05842583 -.05842583 .05842583 .05842583 154.26554 30.131092)" fill="#64dd17">
     <path d="m442.029 37.299c-8.009 9.104-7.69 22.974 1.004 31.668 60.953 60.953 60.953 160.131 0 221.084-52.652 52.652-133.823 59.817-194.243 21.508-8.324-5.278-9.536-16.96-2.567-23.929l83.75-83.75c5.883-5.883 6.425-15.468 0.825-21.622-5.979-6.57-16.159-6.751-22.368-0.541l-113.308 113.308c34.463 40.936 84.544 63.993 137.37 63.993 99.141 0 179.509-80.369 179.509-179.509-1e-3 -57.898-27.419-109.385-69.972-142.21z"/>
     <path d="m249.83 103.451c2.05 0 3.977-0.793 5.429-2.235 1.473-1.442 2.287-3.379 2.297-5.439 0.021-2.071-0.773-4.018-2.225-5.481-1.463-1.483-3.41-2.297-5.501-2.297-2.04 0-3.966 0.783-5.419 2.225-1.473 1.442-2.287 3.379-2.308 5.45-0.01 2.06 0.783 4.007 2.225 5.47 1.474 1.483 3.421 2.297 5.502 2.307z"/>
     <path d="m274.389 84.825c1.329 0 2.658-0.35 3.822-1.02 16.39-9.333 35.17-14.268 54.28-14.268 29.37 0.01 56.99 11.456 77.758 32.214 7.098 7.088 13.176 15.082 18.059 23.756l0.01 0.021c0.021 0.031 0.031 0.072 0.051 0.103 0.01 0 0.01 0.01 0.01 0.01 4.708 8.386 8.293 17.379 10.652 26.723 0.876 3.441 3.946 5.841 7.489 5.841 0.639 0 1.277-0.082 1.896-0.237 4.131-1.051 6.645-5.254 5.594-9.385-2.699-10.683-6.789-20.944-12.156-30.514-5.594-9.952-12.548-19.12-20.676-27.248-11.765-11.775-25.435-20.933-40.641-27.238-15.216-6.305-31.359-9.498-47.996-9.498h-0.062c-10.93 0-21.768 1.401-32.214 4.162-10.395 2.74-20.387 6.82-29.71 12.136-3.698 2.102-4.996 6.83-2.884 10.539 1.372 2.399 3.947 3.903 6.718 3.903z"/>
     <path d="m303.925 285.762c-18.481-4.945-35.49-14.793-49.191-28.495-20.727-20.727-32.152-48.346-32.162-77.758 0-9.797 1.298-19.543 3.853-28.969l0.021-0.062v-0.01c2.534-9.303 6.274-18.234 11.126-26.527 2.153-3.678 0.917-8.417-2.761-10.57-1.185-0.69-2.534-1.061-3.894-1.061-2.74 0-5.295 1.463-6.676 3.822-5.542 9.478-9.818 19.666-12.712 30.298-0.01 0.031-0.01 0.062-0.021 0.093-2.915 10.734-4.389 21.83-4.389 32.986 0 16.287 3.08 32.173 9.179 47.213 6.305 15.576 15.556 29.525 27.506 41.475 7.829 7.829 16.607 14.577 26.094 20.058 9.426 5.45 19.532 9.632 30.04 12.434 0.659 0.175 1.329 0.258 1.999 0.258 3.492 0 6.562-2.349 7.458-5.728 0.536-1.999 0.258-4.079-0.773-5.862-1.03-1.792-2.699-3.069-4.697-3.595z"/>
     <path d="m447.81 204.141c-0.69-0.196-1.391-0.288-2.102-0.288-3.441 0-6.5 2.318-7.428 5.635-5.068 17.987-14.762 34.511-28.031 47.78-20.768 20.758-48.388 32.203-77.758 32.214-4.265 0-7.726 3.461-7.726 7.726s3.461 7.726 7.726 7.726h0.01 0.041c16.637 0 32.791-3.194 47.996-9.498 15.206-6.305 28.876-15.473 40.641-27.238 7.685-7.685 14.33-16.318 19.759-25.652 5.264-9.055 9.375-18.77 12.218-28.876 0.556-1.988 0.309-4.069-0.701-5.872-1.009-1.803-2.657-3.101-4.645-3.657z"/>
     <path d="m455.66 175.687c-1.442-1.473-3.369-2.308-5.439-2.328-0.031 0-0.062-0.01-0.103-0.01-4.203 0-7.665 3.43-7.716 7.634-0.062 4.255 3.358 7.768 7.623 7.819h0.103c4.203 0 7.665-3.42 7.726-7.623 0.021-2.061-0.752-4.008-2.194-5.492z"/>
     <path d="m365.509 214.577c-9.199 8.654-20.305 13.063-33.017 13.094-4.265 0-7.726 3.461-7.726 7.726s3.461 7.726 7.726 7.726h0.144c8.159 0 16.05-1.494 23.457-4.45 7.407-2.946 14.144-7.273 20.027-12.867 3.101-2.936 3.235-7.829 0.309-10.92-1.473-1.566-3.472-2.421-5.614-2.421-1.989 0-3.874 0.752-5.306 2.112z"/>
     <path d="m388.43 186.525c-0.649-0.175-1.319-0.258-1.988-0.258-3.492 0-6.562 2.359-7.469 5.738-1.092 4.11 1.36 8.355 5.481 9.457 0.649 0.175 1.329 0.258 1.999 0.258 3.492 0 6.552-2.359 7.458-5.738 0.525-1.999 0.258-4.08-0.783-5.862-1.03-1.782-2.699-3.059-4.698-3.595z"/>
     <path d="m307.231 220.583c-3.121-1.947-6.078-4.306-8.798-7.016-9.066-9.076-14.072-21.139-14.083-33.944 0.01-12.96 5.017-25.095 14.083-34.171 9.375-9.313 20.841-14.062 34.058-14.103 12.218 0.031 22.983 4.121 31.987 12.156 0.69 0.618 1.391 1.267 2.071 1.947 5.717 5.728 9.787 12.537 12.084 20.233 0.968 3.255 4.007 5.522 7.397 5.522 0.742 0 1.494-0.103 2.205-0.319 4.09-1.216 6.418-5.532 5.202-9.612-2.988-10.044-8.509-19.295-15.957-26.743-0.886-0.886-1.782-1.741-2.678-2.534-5.79-5.213-12.362-9.241-19.532-11.981-7.17-2.73-14.783-4.121-22.643-4.121h-0.299c-8.468 0-16.637 1.617-24.281 4.79-7.654 3.183-14.556 7.84-20.531 13.846-6.078 6.068-10.776 13.166-13.969 21.098-3.091 7.644-4.646 15.71-4.636 23.993-0.01 8.231 1.566 16.267 4.667 23.89 3.194 7.871 7.881 14.927 13.938 20.974 3.534 3.544 7.417 6.634 11.528 9.21 1.236 0.762 2.648 1.174 4.09 1.174 2.689 0 5.141-1.36 6.562-3.637 1.092-1.751 1.432-3.822 0.968-5.831-0.466-2.019-1.681-3.719-3.433-4.821z"/>
    </g>
   </g>
   <g transform="translate(93.115488)">
    <path d="m182.90279 58.239467c0 0.705199 0.57158 1.276779 1.27677 1.276779 0.35266 0 0.67179-0.142909 0.90286-0.373983 0.23107-0.231075 0.37404-0.550255 0.37387-0.902855v-23.29321h-2.55356c6e-5 10.050003 6e-5 22.722916 6e-5 23.293269z" fill="#ffb578" stroke-width=".0826266"/>
    <circle transform="rotate(-45)" cx="115.24891" cy="145.22032" r="14.832219" fill="#b2ff59" stroke-width=".0826266"/>
    <g transform="matrix(.05842583 -.05842583 .05842583 .05842583 154.26554 30.131092)" fill="#64dd17">
     <path d="m442.029 37.299c-8.009 9.104-7.69 22.974 1.004 31.668 60.953 60.953 60.953 160.131 0 221.084-52.652 52.652-133.823 59.817-194.243 21.508-8.324-5.278-9.536-16.96-2.567-23.929l83.75-83.75c5.883-5.883 6.425-15.468 0.825-21.622-5.979-6.57-16.159-6.751-22.368-0.541l-113.308 113.308c34.463 40.936 84.544 63.993 137.37 63.993 99.141 0 179.509-80.369 179.509-179.509-1e-3 -57.898-27.419-109.385-69.972-142.21z"/>
     <path d="m249.83 103.451c2.05 0 3.977-0.793 5.429-2.235 1.473-1.442 2.287-3.379 2.297-5.439 0.021-2.071-0.773-4.018-2.225-5.481-1.463-1.483-3.41-2.297-5.501-2.297-2.04 0-3.966 0.783-5.419 2.225-1.473 1.442-2.287 3.379-2.308 5.45-0.01 2.06 0.783 4.007 2.225 5.47 1.474 1.483 3.421 2.297 5.502 2.307z"/>
     <path d="m274.389 84.825c1.329 0 2.658-0.35 3.822-1.02 16.39-9.333 35.17-14.268 54.28-14.268 29.37 0.01 56.99 11.456 77.758 32.214 7.098 7.088 13.176 15.082 18.059 23.756l0.01 0.021c0.021 0.031 0.031 0.072 0.051 0.103 0.01 0 0.01 0.01 0.01 0.01 4.708 8.386 8.293 17.379 10.652 26.723 0.876 3.441 3.946 5.841 7.489 5.841 0.639 0 1.277-0.082 1.896-0.237 4.131-1.051 6.645-5.254 5.594-9.385-2.699-10.683-6.789-20.944-12.156-30.514-5.594-9.952-12.548-19.12-20.676-27.248-11.765-11.775-25.435-20.933-40.641-27.238-15.216-6.305-31.359-9.498-47.996-9.498h-0.062c-10.93 0-21.768 1.401-32.214 4.162-10.395 2.74-20.387 6.82-29.71 12.136-3.698 2.102-4.996 6.83-2.884 10.539 1.372 2.399 3.947 3.903 6.718 3.903z"/>
     <path d="m303.925 285.762c-18.481-4.945-35.49-14.793-49.191-28.495-20.727-20.727-32.152-48.346-32.162-77.758 0-9.797 1.298-19.543 3.853-28.969l0.021-0.062v-0.01c2.534-9.303 6.274-18.234 11.126-26.527 2.153-3.678 0.917-8.417-2.761-10.57-1.185-0.69-2.534-1.061-3.894-1.061-2.74 0-5.295 1.463-6.676 3.822-5.542 9.478-9.818 19.666-12.712 30.298-0.01 0.031-0.01 0.062-0.021 0.093-2.915 10.734-4.389 21.83-4.389 32.986 0 16.287 3.08 32.173 9.179 47.213 6.305 15.576 15.556 29.525 27.506 41.475 7.829 7.829 16.607 14.577 26.094 20.058 9.426 5.45 19.532 9.632 30.04 12.434 0.659 0.175 1.329 0.258 1.999 0.258 3.492 0 6.562-2.349 7.458-5.728 0.536-1.999 0.258-4.079-0.773-5.862-1.03-1.792-2.699-3.069-4.697-3.595z"/>
     <path d="m447.81 204.141c-0.69-0.196-1.391-0.288-2.102-0.288-3.441 0-6.5 2.318-7.428 5.635-5.068 17.987-14.762 34.511-28.031 47.78-20.768 20.758-48.388 32.203-77.758 32.214-4.265 0-7.726 3.461-7.726 7.726s3.461 7.726 7.726 7.726h0.01 0.041c16.637 0 32.791-3.194 47.996-9.498 15.206-6.305 28.876-15.473 40.641-27.238 7.685-7.685 14.33-16.318 19.759-25.652 5.264-9.055 9.375-18.77 12.218-28.876 0.556-1.988 0.309-4.069-0.701-5.872-1.009-1.803-2.657-3.101-4.645-3.657z"/>
     <path d="m455.66 175.687c-1.442-1.473-3.369-2.308-5.439-2.328-0.031 0-0.062-0.01-0.103-0.01-4.203 0-7.665 3.43-7.716 7.634-0.062 4.255 3.358 7.768 7.623 7.819h0.103c4.203 0 7.665-3.42 7.726-7.623 0.021-2.061-0.752-4.008-2.194-5.492z"/>
     <path d="m365.509 214.577c-9.199 8.654-20.305 13.063-33.017 13.094-4.265 0-7.726 3.461-7.726 7.726s3.461 7.726 7.726 7.726h0.144c8.159 0 16.05-1.494 23.457-4.45 7.407-2.946 14.144-7.273 20.027-12.867 3.101-2.936 3.235-7.829 0.309-10.92-1.473-1.566-3.472-2.421-5.614-2.421-1.989 0-3.874 0.752-5.306 2.112z"/>
     <path d="m388.43 186.525c-0.649-0.175-1.319-0.258-1.988-0.258-3.492 0-6.562 2.359-7.469 5.738-1.092 4.11 1.36 8.355 5.481 9.457 0.649 0.175 1.329 0.258 1.999 0.258 3.492 0 6.552-2.359 7.458-5.738 0.525-1.999 0.258-4.08-0.783-5.862-1.03-1.782-2.699-3.059-4.698-3.595z"/>
     <path d="m307.231 220.583c-3.121-1.947-6.078-4.306-8.798-7.016-9.066-9.076-14.072-21.139-14.083-33.944 0.01-12.96 5.017-25.095 14.083-34.171 9.375-9.313 20.841-14.062 34.058-14.103 12.218 0.031 22.983 4.121 31.987 12.156 0.69 0.618 1.391 1.267 2.071 1.947 5.717 5.728 9.787 12.537 12.084 20.233 0.968 3.255 4.007 5.522 7.397 5.522 0.742 0 1.494-0.103 2.205-0.319 4.09-1.216 6.418-5.532 5.202-9.612-2.988-10.044-8.509-19.295-15.957-26.743-0.886-0.886-1.782-1.741-2.678-2.534-5.79-5.213-12.362-9.241-19.532-11.981-7.17-2.73-14.783-4.121-22.643-4.121h-0.299c-8.468 0-16.637 1.617-24.281 4.79-7.654 3.183-14.556 7.84-20.531 13.846-6.078 6.068-10.776 13.166-13.969 21.098-3.091 7.644-4.646 15.71-4.636 23.993-0.01 8.231 1.566 16.267 4.667 23.89 3.194 7.871 7.881 14.927 13.938 20.974 3.534 3.544 7.417 6.634 11.528 9.21 1.236 0.762 2.648 1.174 4.09 1.174 2.689 0 5.141-1.36 6.562-3.637 1.092-1.751 1.432-3.822 0.968-5.831-0.466-2.019-1.681-3.719-3.433-4.821z"/>
    </g>
   </g>
  </g>
  <path d="m199.90644 57.855485c-5.67242 7.276142-8.98833 16.063244-8.98833 25.526441v6.992402c0 14.842232 13.79246 26.873732 30.80582 26.873732h42.59695c17.0138 0 30.80581-12.03188 30.80581-26.87355v-6.992403c0-9.463188-3.31547-18.25029-8.98789-25.52644z" fill="#f80" stroke-width=".20118576"/>
  <g transform="matrix(.21833159 0 0 .21837399 187.12952 21.845658)" fill="#6e421b">
   <polygon points="191.256 334.032 224 300.888 256 332.888 288 300.888 320 332.888 352 300.888 376 324.888 320 380.888 288 348.888 256 380.888 224 348.888 192 380.888 136 324.888 160 300.888"/>
   <polygon points="334.624 220.888 262.624 276.888 334.624 276.888"/>
   <polygon points="174.624 220.888 246.624 276.888 174.624 276.888"/>
  </g>
  <rect transform="matrix(.96245533 -.27144013 .24670386 .96909092 0 0)" x="206.26134" y="175.37801" width="59.321747" height="22.888298" ry="2.9275732" fill="#29b6f6" stroke-width=".3814007"/>
  <rect transform="matrix(.96245533 -.27144013 .24670386 .96909092 0 0)" x="210.40007" y="176.97487" width="51.044292" height="19.694582" ry="2.5190747" fill="#fff" stroke-width=".3814007"/>
  <g transform="matrix(.79707255 -.21361643 .21357495 .79722736 -75.360922 -33.976491)" fill="#424242" opacity=".90899999" stroke-width=".26458335" style="font-feature-settings:normal;font-variant-caps:normal;font-variant-ligatures:normal;font-variant-numeric:normal" aria-label="Paco">
   <path d="m353.11712 277.66118h0.10335q0.74931 0 1.65365 1.10243 0.31005 0.71486 0.31005 1.6881 0 1.91203-2.48047 3.5829l-0.72347 0.20671-0.51676-0.0689v0.0344l0.41341 6.44233v0.27561l0.0344 0.31006q0 0.64596-0.51676 0.86127-0.72347-0.21531-0.72347-0.72347v-1.61919q-0.20671-4.09105-0.65457-10.12858l-0.0344-0.72347q0-0.51677 0.62012-0.51677l0.48231 0.10336 1.20578-0.65457q0.48232-0.17226 0.82683-0.17226zm-1.89481 3.27284q0.14642 1.79145 0.27561 1.79145l0.34451 0.13781q0.90434-0.25838 1.55029-1.10243 0.68902-0.88712 0.68902-1.58475v-0.31006q0-0.93017-0.86127-0.93017-1.22301 0-1.8259 1.55029-0.17226 0.21532-0.17226 0.44786z" style="font-feature-settings:normal;font-variant-caps:normal;font-variant-ligatures:normal;font-variant-numeric:normal"/>
   <path d="m358.36227 278.92726q0.71486 0.24977 1.24024 0.99907 0.48231 0.88712 0.80098 2.26515 0.32729 1.37804 0.37035 4.00493-0.0258 3.1092-0.19809 3.514 0 1.99815-0.58567 1.99815 0 0.0861-2.69579 0.10335-0.77514 0-1.27468-1.27468-0.1378-0.56844-0.1378-0.99908v-0.17225q0-1.19718 0.99907-2.48047 0.60289-0.68902 1.5503-0.68902l0.75792 0.0344h0.37896l0.0344-0.37896 0.0344-1.72255q0-1.44694-0.93018-3.5829-0.25838-0.31006-0.51676-0.31006h-0.1378q-0.10336 0-0.82683 0.48232h-0.0689q-0.55121-0.25839-0.55121-0.58567v-0.1378q0.90433-1.06798 1.75699-1.06798zm-1.30913 10.26638v0.27561q0 0.76653 0.37896 1.06798h0.0689q1.76561-0.0775 1.80006-0.0861 0.31006-1.54168 0.0258-2.5666-0.27561-0.48231-0.89572-0.48231-0.62873 0-1.30914 1.20578z" style="font-feature-settings:normal;font-variant-caps:normal;font-variant-ligatures:normal;font-variant-numeric:normal"/>
   <path d="m365.17495 278.83252q1.58475 0 1.58475 0.79237v0.0344q0 0.34451-0.55122 0.48231l-1.34359-0.0689q-0.63734 0-0.99908 0.86127-0.36173 0.21532-0.93017 2.10151-0.34451 1.2833-0.34451 2.37712v0.27561q0 0.99907 0.55121 3.10058 0 0.8096 1.24024 1.79145 0.31867 0.17226 0.51676 0.17226h0.27561q0.18087 0 0.68902-0.31006l0.17226-0.0344q0.44786 0.17225 0.44786 0.65457v0.0344q-0.36174 0.96462-1.757 0.96462-0.48231 0-1.72255-1.03353-0.44786-0.48231-0.55121-0.93017-0.96463-2.90249-0.96463-4.40972 0-2.15319 0.89572-4.65088 0.62873-1.23162 1.24024-1.757 0.68902-0.44786 1.55029-0.44786z" style="font-feature-settings:normal;font-variant-caps:normal;font-variant-ligatures:normal;font-variant-numeric:normal"/>
   <path d="m370.4804 280.71009q1.44694 0.28422 1.44694 0.96463 1.50723 2.24792 0.41341 7.40696-0.68902 1.80006-1.24023 2.30821-0.76654 0.96463-1.51585 0.96463-1.16272 0-1.79145-1.51585l-0.58566-2.89388v-0.51676q0-1.73977 0.58566-4.23747 0.0947-0.1378 0.17226-0.62012 0.8096-1.79145 1.55029-1.79145zm-0.65457 1.27469h-0.0689q-0.4048 0-0.55122 0.65457-0.72347 1.32636-0.72347 2.75607-0.10335 0.25839-0.10335 0.89573v1.17133q0 1.52446 0.55122 3.13504 0.25838 0.51676 0.51676 0.51676 0.41341 0 1.17133-0.99908 0.22393 0 0.72347-1.06798 0.20671-0.7493 0.41341-2.85943 0-2.07567-0.55121-3.34174-0.27561-0.74931-0.44786-0.89572z" style="font-feature-settings:normal;font-variant-caps:normal;font-variant-ligatures:normal;font-variant-numeric:normal"/>
  </g>
 </g>
</svg>
