<?xml version="1.0" encoding="UTF-8"?>
<!-- Created with Inkscape (http://www.inkscape.org/) -->
<svg width="562" height="512" version="1.1" viewBox="0 0 148.69583 135.46667" xmlns="http://www.w3.org/2000/svg" xmlns:cc="http://creativecommons.org/ns#" xmlns:dc="http://purl.org/dc/elements/1.1/" xmlns:rdf="http://www.w3.org/1999/02/22-rdf-syntax-ns#">
 <metadata>
  <rdf:RDF>
   <cc:Work rdf:about="">
    <dc:format>image/svg+xml</dc:format>
    <dc:type rdf:resource="http://purl.org/dc/dcmitype/StillImage"/>
    <dc:title/>
   </cc:Work>
  </rdf:RDF>
 </metadata>
 <g transform="translate(500.32861,-911.19183)">
  <rect x="-493.71402" y="911.19183" width="135.46666" height="135.46666" opacity="0" stroke-width="1.05261278"/>
  <g transform="translate(.45952606 36.294262)">
   <rect x="-494.17355" y="897.65173" width="135.46667" height="89.958336" ry="0" fill="#64dd17"/>
   <path d="m-487.58441 903.09918h122.28838v58.77873l-3.82151-10.5759-3.82151 10.5759-3.82152-9.13373-3.82151 9.13373-3.82151-3.84578-3.82151 3.84578-3.82151-8.65301-3.82151 8.65301-3.82152-11.05662-3.82151 11.05662-3.82151-6.00903-3.82151 6.00903-3.82151-8.65301-3.82152 8.65301-3.82151-5.04759-3.82151 5.04759-3.82151-7.93192-3.82151 7.93192-3.82151-4.20632-3.82152 4.20632-3.82151-10.45572-3.82151 10.45572-3.82151-3.7256-3.82152 3.7256-3.82151-5.64849-3.82151 5.64849-3.70144-9.25391-3.94158 9.25391-3.22113-3.36506-4.4219 3.36506-3.82151-7.21084-3.82151 7.21084z" fill="#fff"/>
   <rect x="-437.6333" y="929.28424" width="20.04583" height="19.209473" fill-opacity="0" stroke="#74be49" stroke-linecap="round" stroke-width=".64003813"/>
   <g transform="matrix(.04054897 0 0 .04058416 -436.61586 929.87571)">
    <path d="m355.64 308.052s-44.79 8.22-82.66 14.9c-5.17 0.91-10.22 1.79-15 2.62-3.4 0.59-7.02 1.11-10.82 1.58v0.01c-21.91 2.72-49.4 3.59-70.11 3.82-17.76 0.18-30.54-0.1-30.54-0.1l-7.01-1.98-20.75-5.86-21.08-5.96c-2.84 1.09-5.79 2.08-8.82 2.99l-0.01 0.01c-38.25 11.48-88.84 9.2-88.84 9.2 28.14-12.2 78.56-79.62 78.56-79.62 15.93-75.37 49.9-112 49.9-112 55.73-21.23 110.94-18.58 110.94-18.58 31.85 5.31 61.61 31.26 61.61 31.26z" fill="#b77d4e"/>
    <path d="m272.98 322.952c-5.17 0.91-10.22 1.79-15 2.62-3.4 0.59-7.02 1.11-10.82 1.58 6.43-12.06 6.15-32.81 6.15-32.81z" fill="#96633e"/>
    <polygon points="262.721 359.456 331.771 359.456 328.168 343.845 314.358 341.443 317.36 312.622 310.623 290.943 271.031 273.222 253.31 294.337 265.122 343.244" fill="#b77d4e"/>
    <polygon points="331.23 86.222 345.23 120.222 317.73 139.222 326.23 84.722" fill="#e0d48c"/>
    <polygon points="295.347 133.234 298.785 172.082 311.232 153.915 299.212 125.865" fill="#e0d48c"/>
    <path d="m123.73 319.722-4.98 3.32-21.08-5.96c-2.84 1.09-5.79 2.08-8.82 2.99l19.19-30.64z" fill="#96633e"/>
    <path d="m177.05 330.982c-17.76 0.18-30.54-0.1-30.54-0.1l-7.01-1.98 10.23-22.68 8.84-16.41s9.69 41.29 18.16 41.16c0.11 0 0.21 0 0.32 0.01z" fill="#96633e"/>
    <polyline points="298.73 180.222 282.563 163.888 280.23 169.722 291.73 202.222" fill="#e0d48c"/>
    <polygon points="162.408 312.622 158.569 289.812 137.831 279.632 108.044 289.435 102.365 313.823 110.17 343.244 107.768 359.456 176.819 359.456 173.216 343.845 159.406 341.443" fill="#b77d4e"/>
    <g fill="#e0d48c">
     <polygon points="275.438 213.888 287.104 220.888 287.438 204.222"/>
     <polygon points="278.357 231.733 290.905 236.991 288.849 220.449"/>
     <polygon points="282.504 247.39 295.789 250.326 290.816 234.415"/>
     <path d="m400.232 217.816s15.238-14.837 17.482-39.282c0.286-3.116 4.529-3.85 5.862-1.019 6.277 13.325 13.892 36.636 2.134 55.164-17.516 27.601-25.478-14.863-25.478-14.863z"/>
    </g>
    <path d="m440.57 304.342-12.74-14.87-12.74-3.71-8.49 18.05-50.96 4.24s-14.56-5.02-29.44-13.12v-0.01c-7.3-3.97-14.68-8.7-20.45-13.94 0 0-28.13-33.97-21.23-87.05 0 0 7.96-39.28 29.72-61.58 0 0 20.17-23.35 45.12-33.97l6.37 10.62s-29.73 56.26-6.9 101.38c0 0 20.7-3.71 49.89 2.66 0 0 20.18 8.49 35.04 27.6 0 0 2.12 33.97-3.19 63.7z" fill="#af754a"/>
    <polygon points="364.137 196.584 374.222 217.285 334.942 204.546" fill="#af754a"/>
    <polygon points="367.853 184.375 367.567 203.623 357.939 198.274" fill="#e0d48c"/>
    <circle cx="367.56299" cy="228.722" r="12.833" fill="#96633e"/>
    <path d="m361.198 233.934s7.258 0.435 13.598-4.618l-1.47-4.012s-8.312-1.323-13.757-0.785c0 1e-3 -1.954 7.088 1.629 9.415z" fill="#4d4d4d"/>
    <g fill="#96633e">
     <path d="m415.09 285.762-8.49 18.05-50.96 4.24s-14.56-5.02-29.44-13.12v-0.01l25.2-13.94z"/>
     <path d="m323.73 134.722s-3.575 43.148 11.212 69.824l-4.212 6.676s-26.5-17-22-55.5z"/>
     <path d="m326.23 223.222s-15.63-4.011-29-13.5c0 0-3 11 1 17l25.5 4z"/>
     <path d="m331.622 253.283 3.108 5.438s-11.388 6.442-25 6.5l-5.5-12c0 1e-3 18.392 5.562 27.392 0.062z"/>
     <polygon points="137.73 345.222 160.491 331.029 159.406 341.443"/>
     <polygon points="292.73 346.222 315.803 327.573 314.358 341.443"/>
     <circle cx="270.73001" cy="150.222" r="10"/>
     <circle cx="238.23" cy="137.722" r="10"/>
     <circle cx="205.73" cy="139.222" r="10"/>
     <circle cx="174.783" cy="144.911" r="8.4469995"/>
     <circle cx="143.23" cy="155.858" r="7.5"/>
     <circle cx="126.23" cy="180.722" r="7.5"/>
     <circle cx="84.230003" cy="267.22198" r="7.5"/>
     <circle cx="110.73" cy="217.222" r="7.5"/>
     <circle cx="100.23" cy="245.472" r="3.75"/>
     <circle cx="112.48" cy="236.222" r="3.75"/>
     <circle cx="288.03799" cy="153.222" r="3.75"/>
     <circle cx="63.617001" cy="290.76801" r="5.6440001"/>
     <circle cx="45.23" cy="307.22198" r="5.6440001"/>
     <circle cx="221.98" cy="155.722" r="3.75"/>
     <circle cx="154.48" cy="140.222" r="3.75"/>
    </g>
   </g>
   <rect x="-461.01944" y="929.28424" width="20.04583" height="19.209473" fill-opacity="0" stroke="#74be49" stroke-linecap="round" stroke-width=".64003813"/>
   <g transform="matrix(.0426507 0 0 .04268772 -459.93648 929.94128)">
    <path d="m418.79 32.667-1.19 3.55-0.63 5.41c-0.2 1.72-1.43 3.14-3.11 3.59l-37.28 9.93c-0.02 0.38-0.04 0.79-0.05 1.2-0.22 17.05 17.84 57.02 29.16 80.35 6.42 13.23 10.04 27.64 10.56 42.34 1.76 49.74-5.74 93.53-5.74 93.53-13.67 19.25-34.45 38.81-52.9 54.32l-0.01 0.01c-5.51 4.64-10.82 8.91-15.66 12.7-4.19 3.28-8.04 6.21-11.38 8.69-7.93 5.92-12.99 9.38-12.99 9.38-8.96 2.29-17.88 3.74-26.63 4.54-0.19 0.03-0.39 0.06-0.59 0.07-16.63 1.49-32.66 0.63-47.3-1.47h-0.02c-1.07-0.15-2.12-0.31-3.17-0.48h-0.01c-15.63-2.46-29.56-6.28-40.79-10.06-9.3-3.12-16.74-6.21-21.77-8.47-4.72-2.12-7.31-3.51-7.31-3.51-3.33 3.13-8.23 6.49-14.08 9.9h-0.01c-28.23 16.47-78.39 34.29-78.39 34.29-32.71 12.36-77.5 8.21-77.5 8.21 0.99 0.08 2.03 0.08 3.11 0 29.03-2.03 86.6-57.45 86.6-57.45 11.54-34.23 68.41-96.59 68.41-96.59 32.51-19.92 82.55-23.79 82.55-23.79 31.41 7.98 54.58 31.17 54.58 31.17 31.42 7.98 53.11-2.43 66.05-11.7s16.82-70.27 1.72-97.9c-8.71-15.95-12.13-43.48-13.46-63.91v-0.01c-0.38-5.9-0.59-11.22-0.71-15.49-0.18-6.8 1.08-13.55 3.7-19.83l5.17-12.42 4.47-12.85c0.63-1.81 1.7-3.39 3.07-4.63 1.38-1.25 3.07-2.15 4.93-2.59 4.18-0.99 8.59 0.49 11.28 3.85 3.19 3.98 5.27 7.74 5.27 7.74 6.88 3.98 17.92 6.47 25.78 7.85 4.88 0.86 7.85 5.84 6.27 10.53z" fill="#c9d0d6"/>
    <path d="m418.79 32.667-1.19 3.55-0.63 5.41c-0.2 1.72-1.43 3.14-3.11 3.59l-37.28 9.93c-0.02 0.38-0.04 0.79-0.05 1.2l-7.93-1.76s-15.85-4.75-19.04 15.92c-0.38-5.9-0.59-11.22-0.71-15.49-0.18-6.8 1.08-13.55 3.7-19.83l5.17-12.42 4.47-12.85c0.63-1.81 1.7-3.39 3.07-4.63 1.38-1.25 3.07-2.15 4.93-2.59 4.18-0.99 8.59 0.49 11.28 3.85 3.19 3.98 5.27 7.74 5.27 7.74 6.88 3.98 17.92 6.47 25.78 7.85 4.88 0.86 7.85 5.84 6.27 10.53z" fill="#bac7d1"/>
    <path d="m410.51 272.567c-13.67 19.25-34.45 38.81-52.9 54.32l-0.01 0.01c-5.51 4.64-10.82 8.91-15.66 12.7-4.19 3.28-8.04 6.21-11.38 8.69-7.93 5.92-12.99 9.38-12.99 9.38-8.96 2.29-17.88 3.74-26.63 4.54-0.19 0.03-0.39 0.06-0.59 0.07-16.63 1.49-32.66 0.63-47.3-1.47h-0.02c-1.07-0.15-2.12-0.31-3.17-0.48h-0.01c-15.63-2.46-29.56-6.28-40.79-10.06-9.3-3.12-16.74-6.21-21.77-8.47-4.72-2.12-7.31-3.51-7.31-3.51-3.33 3.13-8.23 6.49-14.08 9.9h-0.01c-28.23 16.47-78.39 34.29-78.39 34.29-32.71 12.36-77.5 8.21-77.5 8.21 0.99 0.03 2.03 0.03 3.11 0 22.42-0.49 61.81-12.02 71.56-15.69l0.15-0.06c0.5-0.17 49.77-17.75 77.04-33.66l0.86-0.5c5.25-3.11 9.21-5.9 11.78-8.32l4.19-3.93 5.07 2.71c0.02 0.01 2.46 1.31 6.81 3.26 4.51 2.03 11.83 5.1 21.04 8.19 12.85 4.32 25.92 7.57 38.87 9.64h0.02l0.64 0.1c0.81 0.14 1.63 0.26 2.46 0.38h0.02l0.57 0.08c9.88 1.42 19.71 2.14 29.19 2.14 5.48 0 10.95-0.24 16.26-0.72h0.07l0.25-0.04 0.25-0.03c8.25-0.75 16.31-2.09 24-3.97 1.9-1.33 6.04-4.27 11.58-8.4 3.54-2.63 7.32-5.51 11.22-8.57 5.28-4.13 10.36-8.25 15.11-12.24l0.34-0.29c12.284-10.327 22.941-20.194 31.901-29.528 12.405-12.924 19.983-29.702 21.703-47.533 1.631-16.918 3.053-39.984 2.187-64.389-0.48-13.6-3.76-26.77-9.76-39.13-20.81-42.91-30.87-71.71-29.89-85.6l7.98 0.56c-1.15 16.3 17.52 57.66 29.11 81.55 6.42 13.23 10.04 27.64 10.56 42.34 1.759 49.74-5.741 93.53-5.741 93.53z" fill="#bac7d1"/>
    <g fill="#9aa5ad">
     <path d="m239.85 360.327c-15.63-2.46-29.56-6.28-40.79-10.06l4.02-58.17s21.79 19.41 24.79 44.91c2.01 17.1 8.16 21.97 11.98 23.32z"/>
     <path d="m330.56 348.287c-7.93 5.92-12.99 9.38-12.99 9.38-8.96 2.29-17.88 3.74-26.63 4.54 5.81-0.98 3.52-10.08 6.43-21.7 3-12 12.6-24.34 12.6-24.34z"/>
     <polygon points="341.938 339.595 339.949 312.955 357.61 326.888"/>
     <path d="m177.29 341.797c-4.72-2.12-7.31-3.51-7.31-3.51-3.33 3.13-8.23 6.49-14.08 9.9h-0.01l-7.33-27.74 26.81 12.56z"/>
    </g>
    <path d="m193.529 280.831s18.204 18.204 22.487 36.407c0 0 5.354 54.611-1.071 76.026l16.062 4.283-7.496 19.274h-38.549s-2.142-44.973 5.354-53.54c0 0-32.124-21.416-41.761-42.832l9.637-24.628z" fill="#c9d0d6"/>
    <path d="m339.949 312.955s26.77 36.407 26.77 78.168l22.487 7.496-7.496 18.204h-43.903l-1.071-20.345s-10.708-31.053-29.982-41.761c0 0-4.283-19.274 3.212-38.549z" fill="#c9d0d6"/>
    <g fill="#9aa5ad">
     <polygon points="216.925 383.139 214.945 393.264 199.37 396.007"/>
     <polygon points="366.299 381.97 366.719 391.123 354.37 395.007"/>
     <path d="m417.6 36.217-35.563 7.957s9.84-7.347 36.753-11.507z"/>
    </g>
    <path d="m377.037 16.507s4.456 1.779 6.821 6.576l-2.004 1.982s-5.334-1.544-8.434-3.396c0 1e-3 0.824-4.779 3.617-5.162z" fill="#4d4d4d"/>
   </g>
   <rect x="-437.6333" y="906.6637" width="20.04583" height="19.209473" fill-opacity="0" stroke="#74be49" stroke-linecap="round" stroke-width=".64003813"/>
   <g transform="matrix(.03936827 0 0 .03940243 -436.65085 907.22013)">
    <path d="m167.091 200.105-18.897 21.567 8.605 55.532s-36.415 6.069-53.819 24.908c0 0 9.726 25.416 1.914 48.324l39.105 21.406 0.451-16.3-18.946-10.371 4.691-38.799s60.443-6.781 72.007-14.951c0 0 4.041-46.246-4.623-62.808-8.662-16.561-30.488-28.508-30.488-28.508z" fill="#729da0"/>
    <polygon points="213.396 355.069 232.063 365.865 208.729 365.865" fill="#729da0"/>
    <path d="m459.278 147.72s-50.8-42.507-133.74-33.176c0 0-21.772 44.58-49.764 61.168 0 0-49.764-7.257-82.94-2.073 0 0-52.874 18.94-94.344 73.609 0 0-22.808 30.066-98.491 44.58 0 0 97.454 0 128.556-10.367l55.984-25.919s71.535-4.147 93.307-23.845c0 0 41.47-67.388 73.609-70.499l13.478 13.478s37.323-9.331 70.499-3.11l5.184-11.404 11.404 3.11z" fill="#91bec4"/>
    <path d="m435.504 133.064s-3.178-18.519-13.549-27.85c0 0-43.74-18.468-69.104-17.758-1.545 0.043-2.857 1.127-3.233 2.627-0.647 2.578-1.162 6.675 0.801 9.947 3.11 5.184 20.93 4.615 23.943 14.748" fill="#dd8d6b"/>
    <polygon points="365.971 159.125 380.729 157.865 438.145 165.599 440.617 160.161 375.302 150.831" fill="#729da0"/>
    <path d="m372.456 136.346s8.585 4.307 18.911 1.474l0.304-5.636s-9.401-5.934-16.292-8.115c1e-3 0-6.061 7.586-2.923 12.277z" fill="#4d4d4d"/>
    <g fill="#729da0">
     <path d="m152.401 235.844s8.799 17.279 0.563 34.317l19.016-8.804z"/>
     <polygon points="208.794 227.967 236.054 248.494 223.314 250.957"/>
     <path d="m263.786 223.177s-4.241 14.601-9.982 20.644l16.255-6.738z"/>
     <polygon points="286.142 195.411 297.481 203.932 284.12 222.153"/>
    </g>
    <path d="m158.622 207.852-6.22 27.992 34.213 44.58s-29.029 22.808-35.249 47.69c0 0 20.735 17.625 24.882 41.47h44.58l-7.431-14.514h-21.598l-14.514-36.286s49.764-34.97 55.984-47.69c0 0-18.661-42.507-34.213-52.874-15.552-10.368-40.434-10.368-40.434-10.368z" fill="#91bec4"/>
    <path d="m320.353 271.088c-5.18 12.72-26.95 19.7-26.95 19.7l9.33-13.47-5.19-14.52-26.95 13.48c-11.41-18.66-6.22-59.1-6.22-59.1l21.77-21.77c18.45 28.71-3.65 57.42-4.14 58.05l23.84-13.47c6.22 8.3 14.51 31.1 14.51 31.1z" fill="#91bec4"/>
    <path d="m320.353 271.088c-5.18 12.72-26.95 19.7-26.95 19.7l9.33-13.47z" fill="#729da0"/>
   </g>
   <rect x="-484.40561" y="906.6637" width="20.04583" height="19.209473" fill-opacity="0" stroke="#74be49" stroke-linecap="round" stroke-width=".64003813"/>
   <g transform="matrix(.03819612 0 0 .03925286 -483.40301 906.99861)">
    <g fill="#967d5f">
     <path d="m207.566 162.864s-1-38-29-56c0 0 20 40 14.5 62.5z"/>
     <path d="m176.859 173.464s-12.421-35.927-44.547-44.638c0 0 31.139 32.1 32.685 55.21z"/>
     <path d="m150.937 195.627s-20.887-31.76-54.17-32.29c0 0 38.086 23.441 45.277 45.459z"/>
     <path d="m128.748 221.471s-29.101-24.456-61.144-15.441c0 0 43.2 11.564 56.391 30.604z"/>
     <path d="m115.658 267.244s-19.003-32.922-52.199-35.388c0 0 36.657 25.618 42.554 48.017z"/>
     <path d="m25.033 314.557s-25.46-17.928-25.028-45.192c0 0 18.201 31.793 36.041 38.254z"/>
     <path d="m28.414 305.004s-9.562-29.635 7.178-51.159c0 0-4.575 36.348 5.795 52.237z"/>
     <path d="m74.478 288.038s-24.786-18.849-23.355-46.079c0 0 17.024 32.439 34.615 39.549z"/>
     <path d="m227.082 170.559s-5.584-14.032-6.252-33.587c0 0 5.141-20.095 16.368-36.825 0 0 13.489 19.047 16.368 36.825 0 0-0.488 17.395-6.252 33.587z"/>
     <path d="m381.083 218.185s-5.043-3.824-8.394-10.721c0 0-0.43-8.374 2.803-16.877 0 0 9.901 3.887 14.122 9.657 0 0 2.421 6.374 1.929 13.479z"/>
     <path d="m403.164 208.179s-3.6-4.032-5.279-10.362c0 0 1.012-7.089 5.116-13.687 0 0 7.662 4.881 10.254 10.409 0 0 0.985 5.74-0.592 11.614z"/>
     <path d="m424.835 202.825s-2.26-3.674-2.687-8.882c0 0 1.793-5.426 5.945-10.03 0 0 5.331 4.912 6.589 9.62 0 0-0.035 4.647-2.1 9.039z"/>
     <path d="m256.328 180.589s0.887-12.417 7.403-27.171c0 0 11.022-13.072 25.354-21.464 0 0 3.182 18.974-1.056 33.202 0 0-6.6 12.736-16.684 22.687z"/>
     <path d="m286.484 203.944s3.316-12.539 12.848-26.379c0 0 13.818-11.244 30.117-17.055 0 0-0.422 20.04-7.52 33.784 0 0-9.226 11.758-21.479 19.989z"/>
     <path d="m325.099 230.578s0.737-11.586 6.705-25.393c0 0 10.183-12.271 23.486-20.201 0 0 3.106 17.671-0.742 30.97 0 0-6.061 11.925-15.393 21.279z"/>
    </g>
    <path d="m472.316 224.344s-14.53 12.29-31.77 24.28c-11.81 8.2-26.2 11.92-40.49 10.3-3.33-0.38-6.47-0.49-8.79-0.07 0 0-48.77 21.02-87.79 50.28 0 0-63.04 24.76-149.33 11.26 0 0-67.54-19.51-86.3-18.01s-66.03 28.51-66.03 28.51l2.1-2.57 27.91-34.2s25.52-17.26 60.79-27.01c0 0 21.01-55.53 39.77-78.04 0 0 45.77-31.52 105.05-39.02 0 0 45.03 17.26 78.04 60.78l27.77 16.51s29.26-8.26 57.03-27.02c0 0 18.76-7.5 44.27-6l23.26 9.76 1.38 6.19-13.92 4.64c-2.1 0.7-3.23 2.97-2.53 5.06 0.55 1.68 2.11 2.74 3.78 2.74 0.42 0 0.85-0.07 1.27-0.21l13.15-4.38z" fill="#79b585"/>
    <path d="m472.316 224.344s-20.19 17.08-41.21 30.6c-7.31 4.71-16.14 6.53-24.68 4.95-5.38-0.99-11.37-1.73-15.16-1.04 0 0-48.77 21.02-87.79 50.28 0 0-2.53 0.99-7.27 2.47-6.67 2.09-17.71 5.13-32.23 7.73-18.89 3.39-43.68 6.02-72.41 4.78-9.86-0.43-20.18-1.3-30.88-2.77-2.16-0.29-4.34-0.61-6.54-0.95 0 0-67.54-19.51-86.3-18.01s-66.03 28.51-66.03 28.51c0.61-0.82 1.31-1.68 2.1-2.57 16.54-18.86 71.11-53.91 143.47-47.7 11.08 0.95 22.1 1.74 33.04 2.28h0.05c63.95 3.16 125.02-1.97 176.28-30.8 39.15-22.02 75.49-31.15 96.04-34.84-0.32 0.84-0.37 1.79-0.06 2.71 0.55 1.68 2.11 2.74 3.78 2.74 0.42 0 0.85-0.07 1.27-0.21l13.15-4.38z" fill="#dbd6a9"/>
    <g fill="#c9c39b">
     <path d="m193.066 299.364-1.49 24.74-0.01 0.01c-9.86-0.43-20.18-1.3-30.88-2.77l8.38-36.98 11.36-1.46 0.04-0.01 0.01 0.01z"/>
     <path d="m299.566 295.364-3.36 16.24c-6.67 2.09-17.71 5.13-32.23 7.73 7.4-15.02-1.63-38.35-1.63-38.35z"/>
     <path d="m312.366 278.739s5.939 13.004 13.82 14.814l-13.62 9.81z"/>
    </g>
    <polygon points="187.161 295.628 172.153 267.112 131.632 267.863 121.126 301.631 139.136 331.647 142.888 372.168 192.414 372.168 194.566 356.864 178.156 351.908 175.325 323.012" fill="#79b585"/>
    <polygon points="308.726 267.112 255.566 269.114 281.566 314.614 276.144 345.187 284.713 355.66 284.713 372.168 334.239 372.168 335.74 360.912 319.231 355.66 324.066 316.114" fill="#79b585"/>
    <polygon points="433.171 212.671 428.18 208.854 430.235 203.864 447.557 205.331 446.676 210.029" fill="#666"/>
    <polygon points="178.156 351.908 162.066 349.364 177.21 342.251" fill="#8ebc97"/>
    <polygon points="319.231 355.66 304.066 352.364 320.371 346.34" fill="#8ebc97"/>
    <g fill="#6ca375">
     <circle cx="151.56599" cy="197.36301" r="9.5"/>
     <circle cx="133.56599" cy="217.86301" r="6"/>
     <circle cx="157.06599" cy="217.36301" r="6"/>
     <circle cx="291.60699" cy="202.55299" r="6"/>
     <circle cx="407.439" cy="220.05299" r="6"/>
     <circle cx="215.60699" cy="264.55301" r="6"/>
     <circle cx="271.336" cy="185.82401" r="6.77"/>
     <circle cx="270.16599" cy="206.758" r="8.6000004"/>
     <circle cx="287.06601" cy="217.36301" r="3.75"/>
     <circle cx="414.06601" cy="207.36301" r="3.75"/>
     <circle cx="310.81601" cy="217.36301" r="3.75"/>
     <circle cx="200.06599" cy="271.61401" r="3.75"/>
    </g>
   </g>
   <rect x="-484.40561" y="929.28424" width="20.04583" height="19.209473" fill-opacity="0" stroke="#74be49" stroke-linecap="round" stroke-width=".64003813"/>
   <g transform="matrix(.04039948 0 0 .04043454 -483.60848 929.65523)">
    <path d="m261.279 188.269c-33.701-15.17-39.615-54.557-39.615-54.557s-126.284-81.628-221.664-112.69c0 0 108.056 117.866 78.488 223.254l33.69 25.736-3.606 10.346s36.763-10.872 43.742 3.267l3.599 3.602s17.584 8.871 5.245 42.45l23.573-6.392-2.885 9.745 13.13 29.254s136.574-5.809 229.054 73.421c0 0-41.124-123.271-107.454-214.273 0 0-39.481 2.825-41.51-27.779-2.027-30.602-13.787-5.384-13.787-5.384z" fill="#639e6c"/>
    <g fill="#6daa77">
     <path d="m128.051 242.098s5.959-33.348-4.922-57.549l19.98 44.505z"/>
     <path d="m171.258 227.604s-14.734-40.561-34.566-66.107c0 0 34.755 52.249 79.22 65.086s-44.654 1.021-44.654 1.021z"/>
     <path d="m198.715 309.945s33.8-2.273 56.665 11.192l-42.051-24.732z"/>
     <path d="m217.852 268.584s38.704 19.086 61.927 41.594c0 0-48.131-40.265-56.023-85.868-7.894-45.603-5.904 44.274-5.904 44.274z"/>
    </g>
    <path d="m456.728 160.357-18.537 9.326c-9.344 4.7-20.721 0.879-25.317-8.515l-3.668-7.489c-1.996-4.075-5.41-7.299-9.593-9.059l-27.909-11.712c-21.379 0.723-36.906 5.236-47.113 9.569-10.241 4.355-15.111 8.532-15.111 8.532-14.672 14.684-14.736 41.739-14.736 41.739l1.613 73.593 49.613 24.355s2.744 19.349-1.431 38.295l-16.52-31.593s-41.249-17.325-54.476-28.506c0 0 5.44-37.051-2.826-52.846 0 0-18.912 12.575-38.127 37.381 0 0 0.429 37.999-6.699 55.128 0 0-21.218 17.132-39.221 21.192 0 0 6.615 12.635 8.298 32.533 0 0-24.696-27.984-33.815-32.609l32.96-29.3-7.752-31.482-42.519 25.608 27.187-34.895-30.846-9.997-31.607 30.756c-3.956-9.428-30.089-36.089-30.089-36.089 19.734 3.122 31.861 10.626 31.861 10.626 5.335-17.652 23.952-37.578 23.952-37.578 17.612-5.884 55.477-2.707 55.477-2.707 26.132-17.383 40.035-35.331 40.035-35.331-15.16-9.38-52.509-6.63-52.509-6.63-10.202-14.005-24.498-56.392-24.498-56.392l-30.32-18.759c19.194-2.799 38.299 1.339 38.299 1.339l20.707 51.237 20.743 1.958c29.545 2.788 59.105-5.104 83.366-22.195 0.164-0.115 0.326-0.229 0.487-0.342 5.395-3.789 9.712-8.878 12.726-14.741 7.804-15.181 20.28-25.582 20.28-25.582 18.81-4.431 33.829 0.669 33.829 0.669l53.873 36.392c4.36 2.949 9.74 3.909 14.82 2.713 0.589-0.139 1.172-0.302 1.747-0.502 9.065-3.081 19.011 1.155 23.063 9.836z" fill="#79b585"/>
    <path d="m342.005 96.951s8.531 3.351 13.102 12.491l-3.808 3.809s-10.207-2.894-16.148-6.398c-1e-3 0 1.522-9.141 6.854-9.902z" fill="#4d4d4d"/>
    <path d="m456.728 160.357-18.537 9.326c-9.344 4.7-20.721 0.879-25.317-8.515l-3.668-7.489c-1.996-4.075-5.41-7.299-9.593-9.059l-27.909-11.712c-21.379 0.723-36.906 5.236-47.113 9.569l5.775-20.126 36.283 0.091z" fill="#639e6c"/>
   </g>
   <rect x="-390.86099" y="929.28424" width="20.04583" height="19.209473" fill-opacity="0" stroke="#74be49" stroke-linecap="round" stroke-width=".64003813"/>
   <g transform="matrix(.03818354 0 0 .03821668 -389.75889 929.96046)">
    <path d="m188.202 343.884-9.688 10.569 5.578 4.404 2.894 14.092h-56.913s-5.285-22.9 3.523-35.23l-10.569-30.827s9.688-20.257 34.35-24.661c0 0 27.304 3.523 36.111 14.973z" fill="#3b9352"/>
    <path d="m334.408 301.021 1.466 30.496c0.387 8.059-1.652 16.049-5.855 22.936l6.738 4.404 2.894 14.092h-41.879s-6.814-29.652-1.53-67.818z" fill="#3b9352"/>
    <g fill="#775c38">
     <path d="m53.983 338.914s-18-0.667-29.333-21.333c0 0 19.827 12.698 38.58 11.349z"/>
     <path d="m41.046 355.581s-18-0.667-29.333-21.333c0 0 19.827 12.698 38.58 11.349z"/>
     <path d="m200.063 164.722s-9.746-14.032-10.913-33.587c0 0 8.975-20.095 28.571-36.825 0 0 23.545 19.047 28.571 36.825 0 0-0.851 17.395-10.913 33.587z"/>
     <path d="m252.505 167.597s-0.618-17.073 8.968-34.157c0 0 18.411-12.058 43.94-15.545 0 0 9.518 28.75 4.139 46.424 0 0-10.117 14.176-27.333 22.363z"/>
     <path d="m187.897 169.668s-1.302-17.035-12.745-32.935c0 0-19.648-9.916-45.407-10.516 0 0-6.232 29.636 1.097 46.596 0 0 11.644 12.951 29.669 19.154z"/>
     <path d="m130.232 212.117s-4.071-12.217-15.348-21.748c0 0-16.181-3.653-35.125 0.624 0 0 0.87 22.81 9.333 33.868 0 0 10.884 7.338 25.2 8.573z"/>
     <path d="m101.028 257.843s-7.632-8.556-20.212-12.378c0 0-14.519 2.712-28.504 12.883 0 0 8.746 18.347 19.562 24.409 0 0 11.486 2.166 23.628-1.866z"/>
    </g>
    <path d="m467.26 215.611c-0.32 3.19-0.79 5.94-1.34 8.3-2.11 9.23-5.32 12.47-5.32 12.47l-65.02 7.91s-14.09 61.35-32.99 77.57c0 0-87.42 34.57-200.21 15.36 0 0-102.38 29.88-162.38 28.84 0 0 72.22-35.71 85.72-58.23 0 0 3.84-50.35 10.76-63.97 0 0 14.42-20.05 38.4-42.33 3.93-3.64 8.12-7.35 12.54-11.03 7.77-6.5 16.28-12.93 25.39-18.86 3.6-2.36 7.29-4.63 11.08-6.79 8.31-4.77 17.04-9.05 26.13-12.54 2.6-1.02 5.24-1.96 7.9-2.83 0 0 7.25-0.11 19.34 2.27 7.22 1.41 16.16 3.71 26.31 7.45 6.66 2.45 13.83 5.52 21.39 9.36h0.01c5.69 2.89 11.59 6.21 17.64 10.04 2.52 1.6 5.07 3.28 7.64 5.07 5.62 3.88 11.35 8.2 17.13 13.02 0 0 6.97 47.65 20.31 58.08 0 0 22.46-26.2 27.13-49.41 1.14-5.67 5.19-10.31 10.53-12.47l25.507-10.416c3.931-1.605 8.367-1.372 12.106 0.641 12.815 6.898 41.978 23.458 44.297 32.495z" fill="#46af64"/>
    <path d="m347.682 254.775s14.28 12.483 26.024 14.539c0 0-20.461-12.562-21.387-20.373z" fill="#389350"/>
    <polygon points="410.991 203.844 411.872 199.146 425.377 196.504 430.368 200.321 428.313 205.312" fill="#4d4d4d"/>
    <path d="m465.92 223.911c-2.11 9.23-5.32 12.47-5.32 12.47l-65.02 7.91s-14.09 61.35-32.99 77.57c0 0-20.4 8.06-54.2 14.24-12.26 2.24-26.28 4.23-41.74 5.49-21.81 1.79-46.46 2.14-73.02-0.29-10.16-0.93-20.59-2.26-31.25-4.08 0 0-8.06 2.35-20.98 5.72-33.13 8.61-98.23 23.87-141.4 23.12 55.82 0.48 127.97-44.5 127.97-44.5 16.02-7.45 32.81-11.92 46.12-14.56 13.12-2.61 26.63-2.05 39.67 0.96 18.98 4.38 44.63 4.94 69.04 3.48 5.23-0.31 10.41-0.71 15.45-1.19 26.03-2.47 48.46-6.91 56.52-10.84 18.94-9.25 38.31-63.86 38.31-63.86 10.13-13.21 72.84-11.64 72.84-11.64z" fill="#62cc7e"/>
    <path d="m193.63 341.301c-10.16-0.93-20.59-2.26-31.25-4.08 0 0-8.06 2.35-20.98 5.72-2.95-0.51-4.75-0.86-4.75-0.86l42.61-31.1s-0.15 19.55 14.37 30.32z" fill="#58a366"/>
    <path d="m308.39 336.101c-12.26 2.24-26.28 4.23-41.74 5.49 13-6.99 16.15-30.15 16.15-30.15l13.44-6.31 2.01 5.12z" fill="#58a366"/>
    <path d="m175.535 343.884-9.688 10.569 5.578 4.404 4.225 14.092h-58.245s-5.285-22.9 3.523-35.23l-10.569-30.827s9.688-20.257 34.35-24.661c0 0 27.304 3.523 36.111 14.973z" fill="#46af64"/>
    <path d="m321.741 301.021 1.466 30.496c0.387 8.059-1.652 16.049-5.855 22.936l6.738 4.404 3.227 14.092h-42.212s-6.814-29.652-1.529-67.818z" fill="#46af64"/>
    <g fill="#389350">
     <polygon points="301.317 359.248 324.09 358.857 317.352 354.453"/>
     <polygon points="150.983 358.857 171.425 358.857 165.847 354.453"/>
     <path d="m310.25 183.671c-8.68 14.75-20.92 39.34-24.27 65.24 0 0 0.62-44.91 16.63-70.31 2.52 1.6 5.07 3.28 7.64 5.07z"/>
     <path d="m284.96 168.561c-30.62 28.35-39.64 77.69-39.64 77.69-2.37-47.2 10.69-75.08 18.25-87.05 6.66 2.45 13.83 5.52 21.39 9.36z"/>
     <path d="m220.65 233.581c-9-21.36-10.41-67.36-10.63-81.27 2.6-1.02 5.24-1.96 7.9-2.83 0 0 7.25-0.11 19.34 2.27-17.99 34.03-16.61 81.83-16.61 81.83z"/>
     <path d="m196.65 228.911s-18.42-23.76-23.84-57.27c3.6-2.36 7.29-4.63 11.08-6.79-0.66 13.67 0.12 40.18 12.76 64.06z"/>
     <path d="m164.65 238.251c-18.21-12.44-26.36-27.83-29.77-36.72 3.93-3.64 8.12-7.35 12.54-11.03 3.48 26.64 17.23 47.75 17.23 47.75z"/>
    </g>
   </g>
   <rect x="-414.24713" y="929.28424" width="20.04583" height="19.209473" fill-opacity="0" stroke="#74be49" stroke-linecap="round" stroke-width=".64003813"/>
   <g transform="matrix(.0426507 0 0 .04268772 -412.11666 930.98973)">
    <path d="m214.386 184.472-1.132 53.667 31.912-11.586 8.25 19.578 3.92-29.511-26.997 1.073c7.396-11.99 1.524-27.736-11.917-31.955z" fill="#99e28f"/>
    <path d="m159.118 192.656 45.167 6.686 36.278 68.899c1.479 2.808 1.605 6.136 0.344 9.048l-21.418 49.474c-2.851 6.587 1.685 14.01 8.847 14.477 4.742 0.309 9.035 2.915 11.497 6.98l5.023 8.291-40.025 6.703-15.224-35.75 6.55-45.144-45.601-24.751c1e-3 0-7.585-29.822 8.562-64.913z" fill="#93ce89"/>
    <path d="m364.22 154.553-17.96-6.28-20.44 28.11c-38.33-1.28-81.77-24.28-81.77-24.28-0.73 1.5-1.41 3.02-2.05 4.55-17.33 41.38-3.06 91.28-3.06 91.28-7.67 23-34.5 53.66-34.5 53.66-74.11 26.84-204.44 19.17-204.44 19.17s0.01 0 0.03-0.01c58.77-24.3 111.14-118.82 111.14-118.82 43.44-123.94 97.1-198.04 97.1-198.04 106.05 20.44 159.72 60.05 159.72 60.05 6.38 48.55-3.77 90.61-3.77 90.61z" fill="#99e28f"/>
    <path d="m238.94 247.933c-7.67 23-34.5 53.66-34.5 53.66-74.11 26.84-204.44 19.17-204.44 19.17s0.01 0 0.03-0.01c2.58-0.9 167.74-58.79 178.33-67.38 27.34-23.82 35.59-105.17 35.59-105.17l28.05 8.45c-17.33 41.38-3.06 91.28-3.06 91.28z" fill="#72ba81"/>
    <path d="m139.275 190.436s-22.085 15.267-27.585 66.767l21.324 15.351 12.136-4.671z" fill="#72ba81"/>
    <path d="m139.275 190.436 43.442 14.055 24.4 73.945c0.995 3.014 0.57 6.316-1.155 8.981l-29.295 45.257c-3.9 6.025-0.652 14.096 6.334 15.74 4.626 1.089 8.429 4.368 10.186 8.783l3.584 9.006h-40.581l-9.11-37.774 13.916-43.442-40.887-31.943s-2.555-30.665 19.166-62.608z" fill="#99e28f"/>
    <path d="m346.265 148.272-88.162-40.887-16.61 10.222 18.198-3.403s56.925 22.946 80.463 42.473z" fill="#72ba81"/>
    <path d="m244.048 152.105-35.776-20.443-3.833-63.886-1.748 74.427s22.04 12.235 37.77 18.367z" fill="#72ba81"/>
    <path d="m189.349 174.776 28.199 45.676 20.501-27.061 17.561 11.957-12.737-26.907-22.085 15.565c-0.302-14.084-13.786-24.116-27.363-20.358z" fill="#99e28f"/>
    <path d="m261.19 40.703s9.5 0.5 17 8l-2.5 5s-11 0.5-18-1c0 0-1.5-9.5 3.5-12z" fill="#4d4d4d"/>
    <g fill="#fff">
     <path d="m323.65 137.783c-0.31 0.99-0.72 2.03-1.19 3.06-2.64 5.85-7.27 11.86-7.27 11.86-3.39-5.42-2.97-12.51-2.35-16.51 0.3-1.91 0.64-3.12 0.64-3.12z"/>
     <path d="m309.43 131.193-1.86 2.45-5.38 7.06c-0.96-1.93-0.96-6.81-0.83-10.06 0.07-1.81 0.18-3.11 0.18-3.11z"/>
     <path d="m339.43 144.693-2.43 3.19-4.81 6.32c-0.87-1.74-0.95-5.89-0.86-9.07 0.06-2.31 0.21-4.1 0.21-4.1z"/>
    </g>
    <g fill="#ccc">
     <path d="m301.54 127.533 7.89 3.66-1.86 2.45-6.21-3c0.07-1.81 0.18-3.11 0.18-3.11z"/>
     <path d="m313.48 133.073 10.17 4.71c-0.31 0.99-0.72 2.03-1.19 3.06l-9.62-4.65c0.3-1.91 0.64-3.12 0.64-3.12z"/>
     <path d="m339.43 144.693-2.43 3.19-5.67-2.75c0.06-2.31 0.21-4.1 0.21-4.1z"/>
    </g>
    <g fill="#72ba81">
     <circle cx="221.69" cy="39.702999" r="9"/>
     <circle cx="208.69" cy="24.035999" r="5"/>
     <circle cx="235.85699" cy="51.869999" r="2.5"/>
     <circle cx="183.85699" cy="65.703003" r="2.5"/>
     <circle cx="201.69" cy="43.369999" r="2.5"/>
     <circle cx="207.35699" cy="55.535999" r="4.5960002"/>
     <polygon points="189.349 174.776 201.047 211.488 204.285 199.342"/>
    </g>
   </g>
   <rect x="-461.01944" y="906.6637" width="20.04583" height="19.209473" fill-opacity="0" stroke="#74be49" stroke-linecap="round" stroke-width=".64003813"/>
   <g transform="matrix(.03837282 0 0 .03840612 -459.90291 907.35436)">
    <path d="m462.13 165.801-1.92 2.22-4.57-0.42-7.69 11.09c-9.61 0.6-38.25 1.87-51.55-3.45 0 0-10.58 44.81-41.58 90.12-8.2 11.99-19.97 21.08-33.56 26.24-14.55 5.53-33.87 12.58-45.71 15.77-1.56 0.42-3.58 0.69-5.98 0.82-4.94 0.26-11.51-0.06-19.01-0.76-17.38-1.64-39.82-5.38-58.94-8.93-7.97-1.48-15.37-2.93-21.59-4.18-11.2-2.26-18.56-3.87-18.56-3.87s-1.21 0.33-3.34 0.89c-4.47 1.16-12.98 3.33-22.74 5.57v0.01c-18.98 4.38-42.67 9.06-50.46 7.23 0 0-58.81-26.59-74.93-59.62 0 0 30.62 14.5 62.04 16.11 21.82 1.12 35.48-14.85 41.79-24.72 4.17-6.52 9.44-12.25 15.72-16.77 14.45-10.42 41.93-26.84 79.46-34.24 0 0 51.188 0 118.643 32.752 3.982 1.934 8.782 0.473 11.043-3.334 10.099-17.006 37.337-61.367 58.989-82.885 1.932-1.92 4.363-3.243 7.025-3.819 9.077-1.962 31.223-6.323 38.75-3.945 7.13 2.25 22.01 21.77 29.11 31.54 2.33 3.211 2.15 7.581-0.44 10.581z" fill="#c98c51"/>
    <path d="m411.854 139.112s-1.523 1.861-1.861 4.061c0 0 2.458 1.865 5.755 3.015 2.402 0.838 5.069 0.373 7.104-1.154 0 0-1.015-3.722-4.568-5.584 0 0-3.892-1.353-6.43-0.338z" fill="#666"/>
    <path d="m455.64 167.597h6e-3c-8.974-1.294-30.31-4.744-51.186-10.887l-8.06 18.53c10.077 4.035 28.975 4.282 41.717 3.901 6.122-0.183 11.787-3.268 15.276-8.302z" fill="#bc8053"/>
    <g fill="#9e6439">
     <path d="m276.35 246.141-0.5 43.89-6.28 18.16c-4.94 0.26-11.51-0.06-19.01-0.76l-0.01-0.01c4.02-8.6 1.3-25.39 1.3-25.39z"/>
     <polygon points="301.667 298.845 289.627 303.025 295.69 280.034"/>
     <path d="m125.39 296.911c5.87-7.45 0.43-23.57 0.43-23.57l9.37 1.69 12.94 16.31c-4.47 1.16-12.98 3.33-22.74 5.57z"/>
     <path d="m191.62 298.501c-7.97-1.48-15.37-2.93-21.59-4.18l12.06-21.59s1.96 18.899 9.53 25.77z"/>
    </g>
    <polygon points="264.269 323.488 257.017 282.398 276.354 246.143 295.69 259.839 295.69 320.266 306.164 327.517 306.164 341.213 269.908 341.213" fill="#c98c51"/>
    <path d="m182.089 272.73s-0.806 24.976-12.085 44.313l14.502 11.28-2.417 12.891h-42.701l6.445-33.033-21.753-37.867 20.948-15.308z" fill="#c98c51"/>
   </g>
   <rect x="-414.24713" y="906.6637" width="20.04583" height="19.209473" fill-opacity="0" stroke="#74be49" stroke-linecap="round" stroke-width=".64003813"/>
   <g transform="matrix(.03926735 0 0 .03930143 -413.25319 907.23165)">
    <g fill="#a56f42">
     <path d="m271.238 206.214s6.9 26.285 3.114 50.722c0 0 62.036 28.991 59.798 64.046l21.93 5.553 8.719-14.78s-25.514-61.199-54.235-75.85c0 0 8.619-21.84 8.979-34.104"/>
     <path d="m277.906 239.534s-1.873 26.259-12.261 48.226l-24.988 27.345c-3.665 4.011-8.37 6.916-13.592 8.414-14.416 4.136-43.965 14.044-46.428 26.363l11.443 35.148h20.435l4.904 17.165h-39.235l-24.522-54.765 38.417-42.504-10.626-20.435s-3.27-34.33 1.635-53.13"/>
     <path d="m265.752 167.375s-8.757-20.763-7.483-43.957c0.846-15.399-8.32-29.623-22.652-35.318-17.65-7.014-42.989-13.916-73.306-13.158 0 0-59.997 16.499-91.495 52.497 0 0-20.999 47.998-26.999 89.995l-9.218 83.584 115.713-100.083z"/>
    </g>
    <path d="m459.75 133.497-0.51 5.01-4.5-3.75c-2.24 5.57-11.95 11.74-16.47 14.38-2.18-0.42-4.04-0.97-5.36-1.41-1.17-0.39-2.27-0.98-3.21-1.79-20.43-17.75-58.13-5.74-58.53-5.74l-23.52 13.24s-4.03 45.42-31.29 92.28c-5.66 9.73-12.33 19.52-20.16 28.98-0.79 0.95-1.6 1.9-2.41 2.84-0.49 0.59-1 1.18-1.52 1.77-6.61 7.5-13.78 13.13-21.23 17.24-16.29 9.01-33.95 10.77-50.16 9.18-13.87-1.36-26.67-5.18-36.66-9.03-12.72-4.89-20.87-9.83-20.87-9.83s-19.59-14.36-37.53-19.42c-2.73-0.78-5.42-1.34-7.99-1.59-19.52-1.97-35.24 23.56-52.09 44.04-16.86 20.49-65.74 32.82-65.74 32.82 21.88-13.41 34.6-41.7 34.6-41.7 5.2-31.58 19.75-64.04 33.13-88.77 13.64-25.26 26.08-42.47 26.08-42.47 3.26-3.54 7.07-6.77 11.26-9.71 10.93-7.66 24.42-13.33 37.35-17.46 24.14-7.72 46.33-10.09 46.33-10.09 5.88 0.45 11.85 1.67 17.73 3.37h0.02c30.82 8.93 59.25 31.49 59.25 31.49 13.94-48.71 50.09-97.65 50.09-97.65 6.9-4.41 15.75-7.23 24.53-9.01 18.05-3.67 35.82-2.99 35.82-2.99 25.24 8.53 23.11 36.71 62.3 40.95 9.19 0.99 11.94 12.43 15.73 16.91 4.2 4.97 6.18 11.43 5.53 17.91z" fill="#c98c51"/>
    <g fill="#b27747">
     <path d="m220.877 305.714v0.012c-13.867-1.361-26.667-5.174-36.66-9.024l38.094-49.129c1e-3 0 7.639 36.868-1.434 58.141z"/>
     <path d="m293.793 277.538c-0.49 0.589-1.005 1.177-1.52 1.766-6.608 7.504-13.781 13.131-21.236 17.239-4.353-19.777-17.557-37.396-17.557-37.396l22.486-36.868z"/>
     <path d="m316.365 245.721c-5.664 9.723-12.334 19.519-20.169 28.972l-13.83-32.565 24.252-16.491 4.622 9.612z"/>
    </g>
    <path d="m275.364 212.978s-3.685 26.925-16.535 48.052c0 0 48.29 54.959 30.733 82.056l18.135 13.524 13.712-10.318s-0.149-66.304-21.077-90.832c0 0 16.322-16.879 21.348-28.071" fill="#c98c51"/>
    <path d="m371.171 140.192s-24.96 4.216-40.853-5.897l17.337 19.139z" fill="#b27747"/>
    <path d="m128.423 231.36s-12.296 16.317-10.598 34.494l20.365 3.51z" fill="#b27747"/>
    <path d="m223.24 239.534s-1.873 26.259-12.261 48.226l-24.988 27.345c-3.665 4.011-8.37 6.916-13.592 8.414-14.416 4.136-43.965 14.044-46.428 26.363l11.443 35.148h20.435l4.904 17.165h-39.235l-24.522-54.765 38.417-42.504-10.626-20.435s-3.27-34.33 1.635-53.13z" fill="#c98c51"/>
    <path d="m442.19 128.947c6.24 1.99 10.08 4.09 12.55 5.81-0.65 1.62-1.94 3.3-3.55 4.93-6.21-3.3-15.58-7.14-35.67-9.41-33.67-3.79-41.23 10.04-54 2.67s-7.33-21.33-7.33-21.33 3.33 21.33 20 15.33 48.36-4.28 68 2z" fill="#a56f42"/>
    <path d="m458.32 137.747-3.56-2.97c1.75 1.22 2.81 2.26 3.56 2.97z" fill="#a56f42"/>
    <path d="m458.38 137.797 0.86 0.71c-0.25-0.16-0.52-0.4-0.86-0.71z" fill="#c98c51"/>
    <polygon points="377.547 76.714 379.35 89.256 395.275 86.256" fill="#4d4d4d"/>
    <g fill="#c98c51">
     <path d="m242.19 161.197s-0.086-43.408 2.5-54.5l-10 48z"/>
     <polygon points="224.69 147.697 227.19 93.697 213.69 143.697"/>
     <polygon points="202.19 141.197 204.19 85.697 193.69 140.197"/>
     <polygon points="177.19 142.197 187.69 140.197 184.19 84.197"/>
     <polygon points="168.69 143.197 163.19 87.197 157.69 146.697"/>
     <polygon points="149.69 148.197 142.19 93.697 141.69 150.197"/>
     <polygon points="122.69 113.697 134.69 151.697 126.69 153.197"/>
     <polygon points="104.69 124.697 120.69 162.197 112.19 163.697"/>
     <polygon points="85.19 136.697 107.69 171.197 97.69 177.697"/>
     <polygon points="74.19 155.697 97.69 177.697 91.69 186.197"/>
     <polygon points="68.69 172.197 88.69 191.697 81.69 199.197"/>
     <polygon points="59.69 188.197 77.69 206.197 73.69 213.197"/>
     <polygon points="54.19 208.197 69.19 218.697 64.19 227.197"/>
    </g>
   </g>
   <rect x="-390.86099" y="906.6637" width="20.04583" height="19.209473" fill-opacity="0" stroke="#74be49" stroke-linecap="round" stroke-width=".64003813"/>
   <g transform="matrix(.12643099 0 0 .12604642 -458.15949 908.20195)">
    <polygon transform="matrix(.26458333 0 0 .26458333 544.10139 -3.7369042)" points="256 512 256 0 61.6 0 0 32.397 0 413.217 92.285 512" fill="#e4a02c"/>
    <path d="m611.83472 16.683902s-11.18711 8.674893-13.81151 35.598099c-14.54441-24.020197-28.78508-28.395083-28.78508-28.395083s-8.25738 14.951869 8.03169 48.382766c16.28907 33.430896 34.5649 39.039266 34.5649 39.039266z" fill="#af7234" stroke-width=".26458332"/>
    <polygon transform="matrix(-.26458333 0 0 .26458333 679.03888 -3.7369042)" points="92.285 512 256 512 256 0 61.6 0 0 32.397 0 413.217" fill="#e4a02c"/>
    <polygon transform="matrix(.26458333 0 0 .26458333 543.57222 -8.4994045)" points="469.727 370.275 436.446 391.387 408.889 363.83 387.676 385.043 413.122 410.489 387.676 435.936 408.889 457.148 443.77 422.268 468.99 406.27 512 436.089 512 399.583" fill="#af7234"/>
    <path d="m654.43132 23.886654s-14.24067 4.37515-28.78508 28.395083c-2.62414-26.922148-13.81072-35.597306-13.81152-35.597835l-5.2959 54.191164 5.2959 40.433884c8e-4 -2.6e-4 18.27583-5.60943 34.56464-39.039795 16.28934-33.430633 8.03196-48.382501 8.03196-48.382501z" fill="#af7234" stroke-width=".26458332"/>
   </g>
   <rect x="-410.33145" y="965.60034" width="44.77713" height="18.080629" ry="4.6163015" fill="#fff" stroke="#58b125" stroke-linecap="round" stroke-width=".85814685"/>
   <g transform="translate(0,129.99281)" fill="#424242" stroke-width=".26458332" style="font-feature-settings:normal;font-variant-caps:normal;font-variant-ligatures:normal;font-variant-numeric:normal" aria-label="Pedro">
    <path d="m-398.93879 836.92653h0.10335q0.74931 0 1.65365 1.10243 0.31006 0.71486 0.31006 1.6881 0 1.91203-2.48047 3.5829l-0.72347 0.20671-0.51677-0.0689v0.0345l0.41341 6.44232v0.27561l0.0344 0.31006q0 0.64596-0.51676 0.86127-0.72347-0.21531-0.72347-0.72347v-1.61919q-0.20671-4.09105-0.65457-10.12858l-0.0344-0.72347q0-0.51677 0.62012-0.51677l0.48231 0.10336 1.20579-0.65457q0.48231-0.17226 0.82682-0.17226zm-1.8948 3.27284q0.14641 1.79145 0.2756 1.79145l0.34451 0.13781q0.90434-0.25838 1.5503-1.10243 0.68901-0.88711 0.68901-1.58475v-0.31006q0-0.93017-0.86127-0.93017-1.22301 0-1.8259 1.55029-0.17225 0.21532-0.17225 0.44786z" style="font-feature-settings:normal;font-variant-caps:normal;font-variant-ligatures:normal;font-variant-numeric:normal"/>
    <path d="m-394.15011 838.00313q0.75792 0 1.79145 0.82682 0.17226 0.31006 0.17226 0.62012 0 1.54168-0.99908 2.13596-1.1455 0.3445-1.8948 0.3445-0.17226 0.18087-0.17226 0.55122v0.58567q0 1.86896 0.48231 4.20301 0 1.25746 0.96463 2.44602 0.30145 0.24116 0.44786 0.24116h0.24116q0.34451-0.12919 0.86127-0.44786l0.20671-0.0345q0.24977 0 0.37896 0.41342 0 0.77514-1.20578 1.55029l-0.55122 0.10335q-0.49093 0-1.72255-1.34359-0.65457-1.02491-0.65457-2.48046-0.44786-2.18764-0.51676-5.58106 0-1.37804 0.96463-3.44509 0.80959-0.68902 1.20578-0.68902zm-0.79237 2.75607 0.17225 0.10336q1.08521 0 1.44694-0.58567 0.10336-0.18087 0.10336-0.34451v-0.1378q0-0.51677-0.65457-0.51677-0.91295 0-1.06798 1.44694z" style="font-feature-settings:normal;font-variant-caps:normal;font-variant-ligatures:normal;font-variant-numeric:normal"/>
    <path d="m-386.12304 838.69215q0.55122 0 0.55122 1.41248l0.0344 1.757-0.1378 3.41065q0 2.52353 0.2756 5.96001-0.0258 0.9474-0.31005 1.10243l-0.27561 0.0345q-0.65457 0-0.65457-1.10243-0.0947-0.73208-0.1378-1.9637l-0.10336-0.0689q-0.8785 1.48139-1.30913 1.48139-0.74931 0.41341-1.27469 0.41341-0.82682 0-1.44694-0.79237-0.10335-0.35312-0.10335-0.65457 0-0.89572 0.9474-2.66995 0.9474-1.77422 3.04891-1.77422 0.2067 0 0.27561-2.13596v-1.30914l-0.0344-2.61827q0.31867-0.48231 0.65456-0.48231zm-3.7896 10.40418v0.27561q0 0.58567 0.34451 0.58567h0.10335q1.30914 0 1.6881-1.79145 0.2067-0.4048 0.34451-1.06798 0.0775 0 0.1378-0.27561 0-0.24116-0.58566-0.34451-1.02492 0-1.72255 1.86035z" style="font-feature-settings:normal;font-variant-caps:normal;font-variant-ligatures:normal;font-variant-numeric:normal"/>
    <path d="m-381.18794 840.2166q0.82683 0.28422 1.13688 0.89572l0.0345 0.17226q-0.12058 0.65457-0.55122 0.65457-0.25838 0-0.89572-0.58567h-0.27561q-0.78376 0-1.52446 0.80099-0.74069 0.80098-0.21532 4.87481 0.53399 4.07382-0.0775 3.75515l-0.62012 0.0172q-0.33589-0.16365-0.41341-4.10828-0.0689-3.95325-0.23254-6.11505 0-0.55121 0.72347-0.55121 0.44786 0 0.44786 0.41341l-0.0344 0.51677q0.0689 0.15502 0.1378 0.17225h0.13781q0.79237-0.91295 2.22208-0.91295z" style="font-feature-settings:normal;font-variant-caps:normal;font-variant-ligatures:normal;font-variant-numeric:normal"/>
    <path d="m-376.13226 839.97544q1.44694 0.28422 1.44694 0.96463 1.50723 2.24792 0.41341 7.40696-0.68902 1.80006-1.24023 2.30821-0.76654 0.96463-1.51585 0.96463-1.16272 0-1.79145-1.51585l-0.58566-2.89388v-0.51676q0-1.73977 0.58566-4.23747 0.0947-0.1378 0.17226-0.62012 0.8096-1.79144 1.55029-1.79144zm-0.65457 1.27469h-0.0689q-0.4048 0-0.55122 0.65457-0.72347 1.32636-0.72347 2.75607-0.10335 0.25839-0.10335 0.89573v1.17133q0 1.52446 0.55122 3.13504 0.25838 0.51676 0.51676 0.51676 0.41341 0 1.17133-0.99908 0.22393 0 0.72347-1.06798 0.20671-0.7493 0.41341-2.85942 0-2.07567-0.55121-3.34175-0.27561-0.74931-0.44786-0.89572z" style="font-feature-settings:normal;font-variant-caps:normal;font-variant-ligatures:normal;font-variant-numeric:normal"/>
   </g>
   <g fill="#fff" stroke="#35760c" stroke-width=".79374999">
    <g transform="translate(36.045799,-255.57408)" style="font-feature-settings:normal;font-variant-caps:normal;font-variant-ligatures:normal;font-variant-numeric:normal" aria-label="1">
     <path d="m-508.76587 1166.1638-2.79053 0.077-0.76653 0.6288v2.6441l0.68902-0.3187 0.0775 8.3371h3.01446z" fill="#fff" stroke="#35760c" stroke-width=".79374999" style="font-feature-settings:normal;font-variant-caps:normal;font-variant-ligatures:normal;font-variant-numeric:normal"/>
    </g>
    <g transform="translate(26.111255,-250.87513)" style="font-feature-settings:normal;font-variant-caps:normal;font-variant-ligatures:normal;font-variant-numeric:normal" aria-label="2">
     <path d="m-474.24196 1161.9098q-2.59243-1.5761-4.82313-0.026-1.11966 0.8182-1.97232 2.0239l1.73978 2.2049q0.22393-0.3617 0.62873-0.6718 0.89572-0.8957 1.80006-0.7062 0.50815 0.1119 0.41341 0.689-0.0775 0.4909-0.57705 1.2833-0.93879 1.4728-2.29099 2.3685-0.58567 0.4995-1.08521 0.8785l-0.2067 3.0489 7.00215 0.1464 9e-3 -2.9197-3.53984 0.1636q1.67948-1.5503 2.87666-3.3762 1.05075-1.5933 1.17133-2.7991 0.16364-1.5072-1.1455-2.3082z" fill="#fff" stroke="#35760c" stroke-width=".79374999" style="font-feature-settings:normal;font-variant-caps:normal;font-variant-ligatures:normal;font-variant-numeric:normal"/>
    </g>
    <g transform="translate(8.9709093,-254.02996)" style="font-feature-settings:normal;font-variant-caps:normal;font-variant-ligatures:normal;font-variant-numeric:normal" aria-label="3">
     <path d="m-440.64091 1164.7774 0.0775 2.6269 3.31591-0.077-2.79053 2.024q0.76654-0.112 1.50723 0.086 1.49862 0.3962 1.45555 1.9551-0.0517 1.5675-1.50723 1.5417-0.73208-0.017-1.45555-0.3445l-0.6804 2.8077q1.24023 0.3962 2.7044 0.4221 2.90249 0.06 3.97047-1.7656 1.46416-2.515-0.0258-4.2547-0.74931-0.8699-1.71394-1.3264l2.98001-3.6604z" fill="#fff" stroke="#35760c" stroke-width=".79374999" style="font-feature-settings:normal;font-variant-caps:normal;font-variant-ligatures:normal;font-variant-numeric:normal"/>
    </g>
    <g transform="translate(-4.5400547,-258.60533)" style="font-feature-settings:normal;font-variant-caps:normal;font-variant-ligatures:normal;font-variant-numeric:normal" aria-label="4">
     <path d="m-398.77982 1172.9331h-1.80006l0.0775-3.8586-2.9714 0.086v6.2528l4.53031 0.1637-0.32729 5.0212 3.11781 0.077 0.24977-11.6014h-2.79914z" fill="#fff" stroke="#35760c" stroke-width=".79374999" style="font-feature-settings:normal;font-variant-caps:normal;font-variant-ligatures:normal;font-variant-numeric:normal"/>
    </g>
    <g transform="translate(-44.908297,-271.76042)" style="font-feature-settings:normal;font-variant-caps:normal;font-variant-ligatures:normal;font-variant-numeric:normal" aria-label="5">
     <path d="m-337.36311 1185.0062 4.52169 0.1894 0.26699-2.5407-6.98493-0.267 0.11197 5.3227q1.06798-0.224 1.98954-0.1378 1.84312 0.1808 1.88619 1.7483 0.0517 1.5762-1.55029 1.7915-0.80099 0.112-1.6192-0.095l-0.15503 2.6011q1.70532 0.2067 3.39342-0.2239 3.36758-0.8441 3.20394-3.9877-0.14642-3.1437-2.6355-3.7724-1.23162-0.3962-2.44602-0.078z" fill="#fff" stroke="#35760c" stroke-width=".79374999" style="font-feature-settings:normal;font-variant-caps:normal;font-variant-ligatures:normal;font-variant-numeric:normal"/>
    </g>
    <g transform="translate(-164.25812,-247.84587)" style="font-feature-settings:normal;font-variant-caps:normal;font-variant-ligatures:normal;font-variant-numeric:normal" aria-label="6">
     <path d="m-309.97831 1189.1578q-0.30145 0.026-0.46509-0.1551-0.14642-0.155-0.14642-0.4048 0-0.2497 0.12058-0.4478 0.12919-0.2067 0.3359-0.2412 0.49092-0.086 0.73208 0.086 0.21532 0.1465 0.18948 0.4221-0.0258 0.2583-0.23254 0.4737-0.22393 0.2325-0.53399 0.267zm-0.20671-3.9361q-0.10335-0.3617 0.10336-0.6631 0.43063-0.6116 2.01538-0.3359l0.45647-2.6786q-0.39618-0.1981-1.10243-0.2498-1.4211-0.086-2.97139 0.6718-0.8096 0.3962-1.54168 1.8862-0.74931 1.5417-0.88712 3.2126-0.14641 1.9206 0.64596 3.2039 0.93017 1.5158 3.0403 1.8517 1.8259 0.2929 3.05752-0.7234 1.11104-0.913 1.24023-2.403 0.12919-1.4986-0.85266-2.558-1.11104-1.1971-3.20394-1.2144z" fill="#fff" stroke="#35760c" stroke-width=".79374999" style="font-feature-settings:normal;font-variant-caps:normal;font-variant-ligatures:normal;font-variant-numeric:normal"/>
    </g>
    <g transform="translate(-197.47825,-244.9564)" style="font-feature-settings:normal;font-variant-caps:normal;font-variant-ligatures:normal;font-variant-numeric:normal" aria-label="7">
     <path d="m-257.24217 1181.7684 2.79914-0.077-2.57521 7.3036 3.46233 0.2928 3.76376-10.9037-7.59643 0.078z" fill="#fff" stroke="#35760c" stroke-width=".79374999" style="font-feature-settings:normal;font-variant-caps:normal;font-variant-ligatures:normal;font-variant-numeric:normal"/>
    </g>
    <g transform="translate(-214.46213,-241.97295)" style="font-feature-settings:normal;font-variant-caps:normal;font-variant-ligatures:normal;font-variant-numeric:normal" aria-label="8">
     <path d="m-212.95268 1183.0781q-0.28422 0-0.46509-0.1637-0.15503-0.1378-0.18087-0.3531-0.0172-0.2067 0.12058-0.3445 0.13781-0.1636 0.42203-0.1723 0.38757-0.01 0.59428 0.1551 0.17225 0.1378 0.16364 0.3531-9e-3 0.2067-0.18087 0.3617-0.18948 0.1637-0.4737 0.1637zm-0.34451-5.65q0.27561-0.06 0.43925 0.043 0.14642 0.1033 0.15503 0.2928 9e-3 0.1895-0.11197 0.3187-0.14641 0.1636-0.39618 0.1636t-0.39619-0.1119q-0.14642-0.095-0.15503-0.2412-0.0431-0.3445 0.46509-0.4651zm2.08428 2.3427q0.63735-1.1972 0.72347-2.4202 0.1981-2.4374-2.54937-2.5408-1.05936-0.043-1.86035 0.5254-0.73208 0.5168-1.05075 1.3781-0.30145 0.8526-0.0861 1.6708 0.23254 0.8785 0.99908 1.3867-0.69764 0.5598-1.29191 1.3866-1.19718 1.6451-0.72347 2.9887 0.41341 1.1799 1.39526 1.9206 0.92156 0.6804 2.09289 0.8182 1.15411 0.1378 2.19625-0.3101 1.10243-0.4823 1.73116-1.4986 1.12827-1.8173-0.11196-3.7465-0.62012-0.9646-1.46417-1.5589z" fill="#fff" stroke="#35760c" stroke-width=".79374999" style="font-feature-settings:normal;font-variant-caps:normal;font-variant-ligatures:normal;font-variant-numeric:normal"/>
    </g>
    <g transform="translate(-238.59695,-242.06015)" style="font-feature-settings:normal;font-variant-caps:normal;font-variant-ligatures:normal;font-variant-numeric:normal" aria-label="9">
     <path d="m-165.61545 1179.7794q-0.49093 0.078-0.73208-0.086-0.21532-0.1465-0.18948-0.4221 0.0172-0.2583 0.23254-0.4823 0.22393-0.2239 0.53399-0.2584 0.30145-0.026 0.46509 0.1551 0.14641 0.1464 0.14641 0.4048 0 0.2411-0.12057 0.4392-0.13781 0.2153-0.3359 0.2498zm0.29283-4.2203q-1.8259-0.2928-3.05752 0.7235-1.11104 0.9216-1.24023 2.403-0.1292 1.5072 0.85266 2.5666 1.11104 1.1971 3.20394 1.2144 0.10335 0.3531-0.10336 0.6631-0.43063 0.6116-2.01538 0.3273l-0.45647 2.6872q0.39618 0.1981 1.10243 0.2498 1.4211 0.086 2.97139-0.6718 0.8096-0.3962 1.54168-1.8862 0.74931-1.5417 0.8785-3.2126 0.15503-1.9292-0.63734-3.2125-0.93018-1.5072-3.0403-1.8518z" fill="#fff" stroke="#35760c" stroke-width=".79374999" style="font-feature-settings:normal;font-variant-caps:normal;font-variant-ligatures:normal;font-variant-numeric:normal"/>
    </g>
    <g transform="translate(-271.18994,-250.70187)" style="font-feature-settings:normal;font-variant-caps:normal;font-variant-ligatures:normal;font-variant-numeric:normal" aria-label="10">
     <path d="m-112.48267 1184.0414-2.79053 0.077-0.76653 0.6287v2.6442l0.68901-0.3187 0.0775 8.3371h3.01446z" style="font-feature-settings:normal;font-variant-caps:normal;font-variant-ligatures:normal;font-variant-numeric:normal"/>
     <path d="m-107.44422 1191.457q-0.27561 0.052-0.43925-0.4048-0.14642-0.4134-0.15503-1.0508-9e-3 -0.6287 0.12058-1.0594 0.14641-0.4823 0.39618-0.4478 0.46509 0.052 0.68041 0.4995 0.18948 0.3962 0.14642 0.9819-0.0431 0.5426-0.24977 0.9732-0.21532 0.4479-0.49954 0.5082zm-0.5426-7.7946q-1.25746 0.078-2.37712 1.8345-1.07659 1.7054-1.36943 3.893-0.31867 2.3771 0.53399 3.9877 0.99908 1.8776 3.36759 2.1187 2.37711 0.2498 3.61735-1.5933 1.09381-1.6278 0.93878-4.1772-0.14641-2.4891-1.37803-4.2461-1.34359-1.9206-3.33313-1.8173z" style="font-feature-settings:normal;font-variant-caps:normal;font-variant-ligatures:normal;font-variant-numeric:normal"/>
    </g>
   </g>
  </g>
  <rect x="-500.32861" y="911.19183" width="148.69583" height="135.46667" opacity="0" stroke-width="1.11593032"/>
 </g>
</svg>
