<?xml version="1.0" encoding="UTF-8" standalone="no"?>
<!-- Created with Inkscape (http://www.inkscape.org/) -->

<svg
   xmlns:dc="http://purl.org/dc/elements/1.1/"
   xmlns:cc="http://creativecommons.org/ns#"
   xmlns:rdf="http://www.w3.org/1999/02/22-rdf-syntax-ns#"
   xmlns:svg="http://www.w3.org/2000/svg"
   xmlns="http://www.w3.org/2000/svg"
   xmlns:sodipodi="http://sodipodi.sourceforge.net/DTD/sodipodi-0.dtd"
   xmlns:inkscape="http://www.inkscape.org/namespaces/inkscape"
   width="562"
   height="512"
   version="1.1"
   viewBox="0 0 148.69583 135.46667"
   id="svg1099"
   sodipodi:docname="raul2_R.svg"
   inkscape:version="0.92.2 5c3e80d, 2017-08-06">
  <defs
     id="defs1103" />
  <sodipodi:namedview
     pagecolor="#ffffff"
     bordercolor="#666666"
     borderopacity="1"
     objecttolerance="10"
     gridtolerance="10"
     guidetolerance="10"
     inkscape:pageopacity="0"
     inkscape:pageshadow="2"
     inkscape:window-width="1922"
     inkscape:window-height="1030"
     id="namedview1101"
     showgrid="false"
     fit-margin-top="0"
     fit-margin-left="0"
     fit-margin-right="0"
     fit-margin-bottom="0"
     inkscape:zoom="0.68478388"
     inkscape:cx="604.26436"
     inkscape:cy="570.27109"
     inkscape:window-x="0"
     inkscape:window-y="0"
     inkscape:window-maximized="0"
     inkscape:current-layer="svg1099" />
  <metadata
     id="metadata1025">
    <rdf:RDF>
      <cc:Work
         rdf:about="">
        <dc:format>image/svg+xml</dc:format>
        <dc:type
           rdf:resource="http://purl.org/dc/dcmitype/StillImage" />
        <dc:title></dc:title>
      </cc:Work>
    </rdf:RDF>
  </metadata>
  <g
     transform="translate(43.854061,-55.761036)"
     id="g1097">
    <g
       transform="translate(-11.649327)"
       id="g1093">
      <rect
         x="-25.590143"
         y="55.761044"
         width="135.46666"
         height="135.46666"
         id="rect1027"
         style="opacity:0;stroke-width:1.40209758" />
      <g
         transform="matrix(0.13654424,-0.13858014,0.13654424,0.13858014,7.4736615,126.60834)"
         id="g1033"
         style="fill:#366db6">
        <path
           d="m 77.339,196.709 -53.54,136.828 47.59,-35.69 37.032,7.327 c 14.813,-38.788 31.894,-72.589 50.476,-102.135 z"
           id="path1029"
           inkscape:connector-curvature="0" />
        <path
           d="m 315.295,434.666 -136.828,53.539 35.69,-47.59 -7.327,-37.032 c 38.788,-14.813 72.589,-31.894 102.135,-50.476 z"
           id="path1031"
           inkscape:connector-curvature="0" />
      </g>
      <path
         d="m 77.384996,55.76104 c 0,0 -42.240507,36.274189 -14.62102,98.93056 H 92.008203 C 119.62427,92.036476 77.384996,55.76104 77.384996,55.76104 Z"
         id="path1035"
         inkscape:connector-curvature="0"
         style="fill:#e7eced;stroke-width:0.194537" />
      <polygon
         transform="matrix(0.13654424,-0.13858014,0.13654424,0.13858014,7.4736615,126.60834)"
         points="187.683,264.832 113.029,398.976 247.173,317.797 247.173,264.832 "
         id="polygon1037"
         style="fill:#366db6" />
      <path
         d="M 58.267983,85.441586 H 96.50201 C 89.489234,66.16439 77.383904,55.76243 77.383904,55.76243 c 0,0 -12.103281,10.40183 -19.115921,29.679156 z"
         id="path1039"
         inkscape:connector-curvature="0"
         style="fill:#e91e63;stroke-width:0.194537" />
      <g
         transform="matrix(0.57159734,0,0,0.58011997,47.315468,70.84033)"
         id="g1045">
        <circle
           transform="rotate(-45)"
           cx="3.4982615"
           cy="70.883186"
           r="17.806988"
           id="circle1041"
           style="fill:#366db6;stroke-width:0.26458335" />
        <circle
           transform="rotate(-45)"
           cx="3.4982615"
           cy="70.883186"
           r="14.187465"
           id="circle1043"
           style="fill:#f2f2f2;stroke-width:0.21080303" />
      </g>
      <g
         transform="matrix(0.13654424,-0.13858014,0.13654424,0.13858014,-63.009827,126.60834)"
         id="g1051"
         style="fill:#366db6">
        <path
           d="m 77.339,196.709 -53.54,136.828 47.59,-35.69 37.032,7.327 c 14.813,-38.788 31.894,-72.589 50.476,-102.135 z"
           id="path1047"
           inkscape:connector-curvature="0" />
        <path
           d="m 315.295,434.666 -136.828,53.539 35.69,-47.59 -7.327,-37.032 c 38.788,-14.813 72.589,-31.894 102.135,-50.476 z"
           id="path1049"
           inkscape:connector-curvature="0" />
      </g>
      <path
         d="m 6.9015083,55.76104 c 0,0 -42.2405073,36.274189 -14.6210205,98.93056 H 21.524715 C 49.140784,92.036476 6.9015083,55.76104 6.9015083,55.76104 Z"
         id="path1053"
         inkscape:connector-curvature="0"
         style="fill:#e7eced;stroke-width:0.194537" />
      <polygon
         transform="matrix(0.13654424,-0.13858014,0.13654424,0.13858014,-63.009827,126.60834)"
         points="187.683,264.832 113.029,398.976 247.173,317.797 247.173,264.832 "
         id="polygon1055"
         style="fill:#366db6" />
      <path
         d="M -12.215505,85.441586 H 26.018522 C 19.005746,66.16439 6.9004164,55.76243 6.9004164,55.76243 c 0,0 -12.1032819,10.40183 -19.1159214,29.679156 z"
         id="path1057"
         inkscape:connector-curvature="0"
         style="fill:#e91e63;stroke-width:0.194537" />
      <g
         transform="matrix(0.57159734,0,0,0.58011997,-23.16802,70.84033)"
         id="g1063">
        <circle
           transform="rotate(-45)"
           cx="3.4982615"
           cy="70.883186"
           r="17.806988"
           id="circle1059"
           style="fill:#366db6;stroke-width:0.26458335" />
        <circle
           transform="rotate(-45)"
           cx="3.4982615"
           cy="70.883186"
           r="14.187465"
           id="circle1061"
           style="fill:#f2f2f2;stroke-width:0.21080303" />
      </g>
      <rect
         x="2.1484399"
         y="159.92059"
         width="79.989494"
         height="31.307114"
         ry="4.3943348"
         id="rect1065"
         style="fill:#e91e63" />
      <rect
         x="6.5337739"
         y="163.37328"
         width="71.218826"
         height="24.40173"
         ry="3.4250803"
         id="rect1067"
         style="fill:#ffffff" />
      <g
         transform="translate(-38.44156,98.531442)"
         id="g1083"
         style="fill:#424242">
        <g
           style="font-variant-ligatures:normal;font-variant-caps:normal;font-variant-numeric:normal;font-feature-settings:normal;stroke-width:0.26458332"
           aria-label="Raul"
           id="g1077">
          <path
             d="m 72.910796,69.256786 h 0.103353 q 1.421102,0 2.239312,2.583822 v 0.103353 q 0,1.024916 -0.72347,2.446018 l -0.689019,0.792372 q 0.559828,3.970472 1.171333,5.994466 0.4737,1.369426 1.067979,2.618273 l 0.137804,0.37896 v 0.0689 q -0.06029,0.06029 -0.103353,0.413412 l -0.37896,0.172254 q -0.861274,-0.111965 -0.861274,-0.861273 0,-0.447863 -0.275608,-0.826823 -0.620117,-1.111044 -0.861274,-2.790528 -0.344509,-0.938788 -0.654568,-3.135037 l -0.37896,-1.240234 -0.137804,-0.0689 q -1.06798,0.129191 -1.06798,0.275608 0.111966,0 0.310059,7.165798 0,0.447863 -0.551216,0.620118 h -0.0689 q -0.310059,0 -0.551216,-0.516765 L 70.53368,75.630213 q -0.129191,0 -0.310058,-4.444173 v -0.413412 q 0,-0.844048 0.964627,-0.930175 0.947401,-0.585667 1.722547,-0.585667 z m -1.619195,2.273763 q 0.08613,3.169488 0.206706,3.169488 h 0.103353 q 1.326362,0 2.377116,-1.929253 0.103353,-0.34451 0.103353,-0.792372 v -0.172255 q -0.180868,-1.171332 -0.930176,-1.171332 h -0.37896 q -0.542603,0.01722 -1.481392,0.895724 z"
             style="font-variant-ligatures:normal;font-variant-caps:normal;font-variant-numeric:normal;font-feature-settings:normal"
             id="path1069"
             inkscape:connector-curvature="0" />
          <path
             d="m 79.37035,70.979334 q 0.714858,0.24977 1.240235,0.999078 0.482313,0.887112 0.800985,2.26515 0.327284,1.378038 0.370347,4.004924 -0.02584,3.109199 -0.198093,3.513997 0,1.998156 -0.585666,1.998156 0,0.08613 -2.695787,0.103353 -0.775147,0 -1.274686,-1.274686 -0.137803,-0.56844 -0.137803,-0.999077 v -0.172255 q 0,-1.197171 0.999077,-2.480469 0.602892,-0.689019 1.550293,-0.689019 l 0.757921,0.03445 h 0.378961 l 0.03445,-0.378961 0.03445,-1.722547 q 0,-1.446941 -0.930176,-3.5829 Q 79.456476,72.28847 79.198094,72.28847 H 79.06029 q -0.103353,0 -0.826823,0.482313 h -0.0689 q -0.551215,-0.258382 -0.551215,-0.585666 v -0.137804 q 0.904337,-1.06798 1.756998,-1.067979 z m -1.309136,10.266385 v 0.275608 q 0,0.766533 0.378961,1.067979 h 0.0689 q 1.765612,-0.07751 1.800063,-0.08613 0.310059,-1.54168 0.02584,-2.566596 -0.275608,-0.482314 -0.895725,-0.482314 -0.62873,0 -1.309136,1.205784 z"
             style="font-variant-ligatures:normal;font-variant-caps:normal;font-variant-numeric:normal;font-feature-settings:normal"
             id="path1071"
             inkscape:connector-curvature="0" />
          <path
             d="m 83.3925,71.918123 q 0.516764,0 0.516764,0.895725 v 2.239312 q 0,6.373427 0.37896,7.062446 0.258383,0.757921 0.413412,0.757921 0.292833,0 0.861274,-1.41249 0.826823,-1.464165 0.826823,-2.687174 0.120578,0 0.344509,-4.065213 l -0.03445,-0.654568 q 0.129191,-1.79145 0.447863,-1.79145 l 0.447862,-0.172254 q 0.413412,0 0.551215,0.964626 v 0.172255 l -0.206705,2.135959 v 0.206706 q 0,3.849894 0.482313,6.270074 l 0.275608,1.79145 q -0.146417,0.413411 -0.72347,0.413411 -0.516765,0 -0.654569,-2.721625 -0.111965,-0.241157 -0.172254,-0.241157 h -0.0689 q -0.258382,0.292833 -1.343587,2.377116 -0.551216,0.689019 -1.06798,0.689019 -0.577054,0 -1.205784,-0.930176 -0.585666,-1.73116 -0.757921,-9.990777 -0.05168,0 -0.0689,-0.757921 0,-0.396186 0.757921,-0.551215 z"
             style="font-variant-ligatures:normal;font-variant-caps:normal;font-variant-numeric:normal;font-feature-settings:normal"
             id="path1073"
             inkscape:connector-curvature="0" />
          <path
             d="m 90.463559,69.64436 q 0.241157,0 0.482313,0.206705 l -0.03445,0.206706 -0.37896,10.679796 q 0,3.23839 -0.206706,3.23839 -0.266995,0.206706 -0.37896,0.206706 -0.413412,0 -0.516765,-0.964627 v -0.620117 q 0,-2.480469 0.378961,-10.783149 0,-2.101508 0.275607,-2.101508 z"
             style="font-variant-ligatures:normal;font-variant-caps:normal;font-variant-numeric:normal;font-feature-settings:normal"
             id="path1075"
             inkscape:connector-curvature="0" />
        </g>
        <g
           aria-label=","
           id="g1081">
          <path
             d="m 85.795639,70.03789 h 1.090373 v 0.888835 l -0.847494,1.653646 h -0.666626 l 0.423747,-1.653646 z"
             id="path1079"
             inkscape:connector-curvature="0"
             style="fill:#424242;stroke-width:0.26458332" />
        </g>
      </g>
      <g
         style="font-variant-ligatures:normal;font-variant-caps:normal;font-variant-numeric:normal;font-feature-settings:normal;fill:#ffffff;stroke:#e91e63;stroke-width:1.0583334"
         aria-label="1"
         id="g1087">
        <path
           d="m 8.5682827,113.89252 -2.7905274,0.0775 -0.7665338,0.62873 v 2.64411 l 0.6890191,-0.31867 0.077515,8.33713 h 3.0144586 z"
           style="font-variant-ligatures:normal;font-variant-caps:normal;font-variant-numeric:normal;font-feature-settings:normal;fill:#ffffff;stroke:#e91e63;stroke-width:1.0583334"
           id="path1085"
           inkscape:connector-curvature="0" />
      </g>
      <g
         style="font-variant-ligatures:normal;font-variant-caps:normal;font-variant-numeric:normal;font-feature-settings:normal;fill:#ffffff;stroke:#e91e63;stroke-width:1.0583334"
         aria-label="2"
         id="g1091">
        <path
           d="m 80.20109,114.35441 q -2.592435,-1.57613 -4.823134,-0.0258 -1.119656,0.81821 -1.972317,2.02399 l 1.739773,2.20486 q 0.223931,-0.36173 0.62873,-0.67179 0.895725,-0.89572 1.800062,-0.70624 0.508152,0.11196 0.413412,0.68902 -0.07752,0.49092 -0.577054,1.28329 -0.938788,1.47278 -2.290988,2.36851 -0.585666,0.49954 -1.085205,0.8785 l -0.206706,3.04891 7.002157,0.14641 0.0086,-2.91972 -3.539835,0.16365 q 1.679484,-1.5503 2.876655,-3.3762 1.050754,-1.59335 1.171332,-2.79914 0.163642,-1.50723 -1.145494,-2.30821 z"
           style="font-variant-ligatures:normal;font-variant-caps:normal;font-variant-numeric:normal;font-feature-settings:normal;fill:#ffffff;stroke:#e91e63;stroke-width:1.0583334"
           id="path1089"
           inkscape:connector-curvature="0" />
      </g>
    </g>
    <rect
       x="-43.854061"
       y="55.761036"
       width="148.69583"
       height="135.46667"
       id="rect1095"
       style="opacity:0;stroke-width:1.03166902" />
  </g>
</svg>
