<?xml version="1.0" encoding="UTF-8"?>
<!-- Created with Inkscape (http://www.inkscape.org/) -->
<svg width="1084.1262" height="252.53764" version="1.1" viewBox="0 0 286.84172 66.817253" xmlns="http://www.w3.org/2000/svg" xmlns:cc="http://creativecommons.org/ns#" xmlns:dc="http://purl.org/dc/elements/1.1/" xmlns:rdf="http://www.w3.org/1999/02/22-rdf-syntax-ns#">
 <metadata>
  <rdf:RDF>
   <cc:Work rdf:about="">
    <dc:format>image/svg+xml</dc:format>
    <dc:type rdf:resource="http://purl.org/dc/dcmitype/StillImage"/>
    <dc:title/>
   </cc:Work>
  </rdf:RDF>
 </metadata>
 <g transform="translate(-334.22903,-197.43591)">
  <rect x="334.22903" y="197.43591" width="286.84174" height="66.817253" opacity="0" stroke-width="1.05833328"/>
  <path d="m559.11051 246.59478a7.178535 7.178535 0 0 1 -7.17854 7.17853 7.178535 7.178535 0 0 1 -7.17853 -7.17853 7.178535 7.178535 0 0 1 7.17853 -7.17854 7.178535 7.178535 0 0 1 7.17854 7.17854z" fill="none" stroke="#e91e63" stroke-linecap="round" stroke-width="1.58749998"/>
  <path transform="matrix(-.73321865 .41174095 -.41174095 -.73321865 601.6953 240.44031)" d="m38.60824 67.039654-6.392169-3.548524-6.392169-3.548525 6.269197-3.761518 6.269197-3.761518 0.122972 7.310043z" fill="#e91e63"/>
  <g fill="#424242">
   <g stroke="#424242" stroke-linecap="round">
    <path d="m349.58366 228.70935h248.99979" stroke-width="1.79591298"/>
    <g stroke-width="1.42737186">
     <path d="m506.87556 220.52468v16.36935"/>
     <path d="m439.2909 220.52468v16.36935"/>
     <path d="m416.76269 220.52468v16.36935"/>
     <path d="m394.23446 220.52468v16.36935"/>
     <path d="m371.70625 220.52468v16.36935"/>
    </g>
    <path d="m349.17802 215.3206v23.71193" stroke-width="1.71792746"/>
    <g stroke-width="1.42737186">
     <path d="m529.40376 220.52468v16.36935"/>
     <path d="m551.93198 220.52468v16.36935"/>
     <path d="m574.46021 220.52468v16.36935"/>
     <path d="m461.81912 220.52468v16.36935"/>
     <path d="m484.34734 220.52468v16.36935"/>
    </g>
    <path transform="matrix(.42045813 .72825487 -.72825487 .42045813 629.5282 178.54499)" d="m38.60824 67.039654-6.392169-3.548524-6.392169-3.548525 6.269197-3.761518 6.269197-3.761518 0.122972 7.310043z" stroke-width="1.05833328"/>
   </g>
   <g>
    <g transform="translate(397.03846,264.94104)" style="font-feature-settings:normal;font-variant-caps:normal;font-variant-ligatures:normal;font-variant-numeric:normal" aria-label="1">
     <path d="m-25.44496-13.633364v-7.253491h-1.202651v-0.992188q0.511127-0.06013 0.969637-0.383345 0.466028-0.330729 0.668975-0.796757h0.992188v9.425781z" fill="#424242" stroke-width=".26458332" style="font-feature-settings:normal;font-variant-caps:normal;font-variant-ligatures:normal;font-variant-numeric:normal"/>
    </g>
    <g transform="translate(397.03846,264.94104)" style="font-feature-settings:normal;font-variant-caps:normal;font-variant-ligatures:normal;font-variant-numeric:normal" aria-label="2">
     <path d="m-5.0965506-20.390763q0-1.33795 0.7215909-2.044508 0.6238755-0.623875 1.6386126-0.623875 0.9320549 0 1.5859967 0.699041 0.6614583 0.699041 0.6614583 1.631096 0 0.962121-0.42844459 1.856593-0.23301371 0.496094-1.08990291 1.706262-0.2330137 0.330729-0.6915246 1.02977l-0.2555634 0.383345q-0.2480469 0.375829-0.3758286 0.59381-0.060133 0.105232-0.060133 0.127781l2.78864812 0.0075v1.390566h-4.51745922v-1.300367q0-0.0451 0.315696-0.518644 0.1428149-0.21798 0.3232126-0.48106l0.368312-0.533677q0.3232126-0.443478 1.0147372-1.420632 0.6539417-0.917022 0.9771543-1.661162 0.26308-0.608843 0.26308-1.135003 0-0.428444-0.2405303-0.729107-0.26308-0.315696-0.6764914-0.315696-0.5938092 0-0.841856 0.684008-0.082682 0.225497-0.082682 0.541193v0.360796h-1.3980824z" fill="#424242" stroke-width=".26458332" style="font-feature-settings:normal;font-variant-caps:normal;font-variant-ligatures:normal;font-variant-numeric:normal"/>
    </g>
    <g transform="translate(397.03846,264.94104)" style="font-feature-settings:normal;font-variant-caps:normal;font-variant-ligatures:normal;font-variant-numeric:normal" aria-label="3">
     <path d="m19.630269-14.975069q0.977154 0 0.977154-0.909506v-0.556226q0-1.450698-1.518347-1.450698v-1.217685q0.819306 0 1.210168-0.458511 0.360796-0.413411 0.360796-1.157552v-0.21798q0-0.924539-0.81179-0.924539-0.450995 0-0.661459 0.345763-0.157848 0.26308-0.157848 0.684008v0.248046h-1.390565v-0.21798q0-1.007221 0.511127-1.638613 0.578776-0.721591 1.631096-0.721591 0.999704 0 1.601029 0.676492 0.541194 0.608842 0.541194 1.518347v0.398379q0 0.879439-0.52616 1.518347-0.225498 0.270597-0.52616 0.458511 0.631392 0.353279 0.977154 1.07487 0.180398 0.368312 0.180398 0.894472v0.74414q0 1.044804-0.714075 1.713779-0.684008 0.646425-1.646129 0.646425-0.939571 0-1.593513-0.661458-0.653942-0.661459-0.653942-1.585997v-0.233014l1.352983-0.105232 0.03007 0.330729q0.03007 0.353279 0.248047 0.578776 0.225497 0.225498 0.578776 0.225498z" fill="#424242" stroke-width=".26458332" style="font-feature-settings:normal;font-variant-caps:normal;font-variant-ligatures:normal;font-variant-numeric:normal"/>
    </g>
    <g transform="translate(397.03846,264.94104)" style="font-feature-settings:normal;font-variant-caps:normal;font-variant-ligatures:normal;font-variant-numeric:normal" aria-label="4">
     <path d="m39.83211-17.090988 2.510535-5.968158h1.420632v5.968158h0.909505v1.428148h-0.909505v2.029475h-1.420632v-2.029475h-2.510535zm2.510535 0v-2.93898l-1.172586 2.93898z" fill="#424242" stroke-width=".26458332" style="font-feature-settings:normal;font-variant-caps:normal;font-variant-ligatures:normal;font-variant-numeric:normal"/>
    </g>
    <g transform="translate(397.03846,264.94104)" style="font-feature-settings:normal;font-variant-caps:normal;font-variant-ligatures:normal;font-variant-numeric:normal" aria-label="5">
     <path d="m64.153031-21.687371v2.021958q0.210464-0.300663 0.593809-0.466028 0.202948-0.08268 0.473544-0.08268 0.932055 0 1.375533 0.653942 0.383345 0.563742 0.383345 1.593513v2.029474q0 1.044804-0.661458 1.713778-0.631392 0.646426-1.593513 0.646426-0.932055 0-1.548414-0.676492-0.593809-0.646425-0.593809-1.57848v-0.225497l1.360499-0.105232 0.03007 0.323213q0.05262 0.563742 0.45851 0.751657 0.120266 0.06013 0.255564 0.06013 0.871922 0 0.871922-0.909505v-2.307587q0-0.413412-0.300663-0.684008-0.142815-0.127782-0.398378-0.127782-0.375829 0-0.556226 0.293146-0.150332 0.255564-0.150332 0.541193v0.255564h-1.428148v-5.148852h4.156664v1.428149z" fill="#424242" stroke-width=".26458332" style="font-feature-settings:normal;font-variant-caps:normal;font-variant-ligatures:normal;font-variant-numeric:normal"/>
    </g>
    <g transform="translate(397.03846,264.94104)" style="font-feature-settings:normal;font-variant-caps:normal;font-variant-ligatures:normal;font-variant-numeric:normal" aria-label="6">
     <path d="m87.970344-20.710214v-0.233013q0-0.345763-0.187915-0.578776-0.180397-0.240531-0.518643-0.240531t-0.52616 0.240531q-0.180398 0.233013-0.180398 0.578776v1.879143q0.488577-0.435962 1.07487-0.435962 0.939571 0 1.405599 0.653942 0.413411 0.57126 0.413411 1.585997v1.616063h-0.0075q-0.0451 0.901988-0.653942 1.510831-0.601326 0.608842-1.480765 0.608842-0.939571 0-1.548413-0.668975-0.59381-0.646425-0.59381-1.57848v-5.141335q0-0.691525 0.33073-1.247751 0.338245-0.556226 0.954604-0.826823 0.390862-0.180398 0.856889-0.180398 0.932055 0 1.548414 0.676492 0.593809 0.646425 0.593809 1.57848v0.202947zm-1.405599 4.915838q0 0.345763 0.172881 0.57126 0.187914 0.248047 0.52616 0.248047t0.52616-0.248047q0.180398-0.225497 0.180398-0.57126v-1.743844q0-0.405895-0.300663-0.676492-0.142815-0.127782-0.398378-0.127782-0.368312 0-0.556227 0.293147-0.150331 0.24053-0.150331 0.533676z" fill="#424242" stroke-width=".26458332" style="font-feature-settings:normal;font-variant-caps:normal;font-variant-ligatures:normal;font-variant-numeric:normal"/>
    </g>
    <g transform="translate(397.03846,264.94104)" style="font-feature-settings:normal;font-variant-caps:normal;font-variant-ligatures:normal;font-variant-numeric:normal" aria-label="7">
     <path d="m111.9718-23.059146v1.428148l-1.99189 7.997633h-1.39056l1.99189-7.997633h-2.87885v-1.428148z" fill="#424242" stroke-width=".26458332" style="font-feature-settings:normal;font-variant-caps:normal;font-variant-ligatures:normal;font-variant-numeric:normal"/>
    </g>
    <g transform="translate(397.03846,264.94104)" style="font-feature-settings:normal;font-variant-caps:normal;font-variant-ligatures:normal;font-variant-numeric:normal" aria-label="8">
     <path d="m134.67289-15.771826q0 0.939571-0.66146 1.593513t-1.59351 0.653942h-0.11275q-0.93957 0-1.59351-0.661458-0.65395-0.661459-0.65395-1.585997v-0.856889q0-0.864406 0.57878-1.510831 0.24805-0.278113 0.57878-0.458511-0.57126-0.293146-0.88696-0.977154-0.15785-0.353279-0.15785-0.886956v-0.511127q0-0.917021 0.5412-1.518347 0.60132-0.676492 1.59351-0.676492h0.11275q0.9997 0 1.60103 0.676492 0.54119 0.608842 0.54119 1.518347v0.511127q0 0.879439-0.52616 1.458215-0.23301 0.255564-0.51864 0.405895 0.63139 0.353279 0.97715 1.07487 0.1804 0.368312 0.1804 0.894472zm-1.42063-0.668975q0-0.841856-0.38335-1.127486-0.1804-0.135298-0.50361-0.135298-0.56374 0-0.76669 0.481061-0.12026 0.293146-0.12026 0.781723v0.450994q0 0.466028 0.28563 0.751658 0.24053 0.24053 0.60132 0.255563 0.57878-0.03007 0.80428-0.571259 0.0827-0.180398 0.0827-0.435962zm0.0451-4.149148q-0.015-0.969637-0.60885-1.217684-0.13529-0.06013-0.32321-0.06013-0.36831 0-0.60132 0.202948-0.18792 0.165364-0.2706 0.428444-0.0752 0.255564-0.0601 0.646425 0.0226 0.616359 0.19543 0.886956 0.2255 0.360795 0.73662 0.360795 0.51113 0 0.74414-0.383345 0.19543-0.323212 0.18792-0.864406z" fill="#424242" stroke-width=".26458332" style="font-feature-settings:normal;font-variant-caps:normal;font-variant-ligatures:normal;font-variant-numeric:normal"/>
    </g>
    <g transform="translate(397.03846,264.94104)" style="font-feature-settings:normal;font-variant-caps:normal;font-variant-ligatures:normal;font-variant-numeric:normal" aria-label="9">
     <path d="m154.89353-23.168133q0.93205 0 1.54841 0.676492 0.59381 0.646425 0.59381 1.57848v5.141335q0 0.939571-0.61636 1.593513-0.60884 0.653942-1.52586 0.653942-0.93958 0-1.54842-0.668975-0.59381-0.646425-0.59381-1.57848v-0.202947h1.47325v0.233013q0 0.345763 0.1804 0.578776 0.18791 0.233014 0.52616 0.233014 0.33824 0 0.51864-0.233014 0.18792-0.233013 0.18792-0.578776v-1.886659q-0.4961 0.443477-1.07487 0.443477-0.93206 0-1.39809-0.653941-0.41341-0.57126-0.41341-1.593513v-1.616063h8e-3q0.0301-0.653942 0.36831-1.172586 0.34576-0.52616 0.93206-0.781723 0.38334-0.165365 0.83434-0.165365zm0.74414 2.270005q0-0.345762-0.18792-0.578776-0.1804-0.24053-0.51864-0.24053-0.33825 0-0.52616 0.24053-0.1804 0.233014-0.1804 0.578776v1.743845q0 0.413411 0.30066 0.684008 0.1353 0.127781 0.39838 0.127781 0.5412 0 0.67649-0.571259 0.0376-0.172881 0.0376-0.26308z" fill="#424242" stroke-width=".26458332" style="font-feature-settings:normal;font-variant-caps:normal;font-variant-ligatures:normal;font-variant-numeric:normal"/>
    </g>
    <g transform="translate(397.03846,264.94104)" stroke-width="1.58749998" style="font-feature-settings:normal;font-variant-caps:normal;font-variant-ligatures:normal;font-variant-numeric:normal" aria-label="10">
     <path d="m174.42499-13.622087v-7.253491h-1.20265v-0.992188q0.51113-0.06013 0.96964-0.383345 0.46603-0.330729 0.66897-0.796756h0.99219v9.42578z" style="font-feature-settings:normal;font-variant-caps:normal;font-variant-ligatures:normal;font-variant-numeric:normal"/>
     <path d="m181.62117-15.771826q0 0.939571-0.66146 1.593513t-1.58599 0.653942q-0.93958 0-1.60103-0.653942-0.65395-0.661458-0.65395-1.593513v-5.141335q0-0.939572 0.66146-1.593513 0.66146-0.661459 1.59352-0.661459 0.93957 0 1.59351 0.661459 0.65394 0.661458 0.65394 1.593513zm-1.47325-5.171401q0-0.338246-0.24053-0.578776-0.24053-0.240531-0.57877-0.240531-0.33825 0-0.57878 0.240531-0.23301 0.24053-0.23301 0.578776v5.148851q0 0.338246 0.23301 0.578776 0.24053 0.240531 0.57878 0.240531 0.33824 0 0.57877-0.240531 0.24053-0.24053 0.24053-0.578776z" style="font-feature-settings:normal;font-variant-caps:normal;font-variant-ligatures:normal;font-variant-numeric:normal"/>
    </g>
   </g>
   <path d="m351.42924 249.16921q0 0.93957-0.66146 1.59352-0.66146 0.65394-1.58599 0.65394-0.93958 0-1.60103-0.65394-0.65395-0.66146-0.65395-1.59352v-5.14133q0-0.93957 0.66146-1.59351 0.66146-0.66146 1.59352-0.66146 0.93957 0 1.59351 0.66146 0.65394 0.66145 0.65394 1.59351zm-1.47325-5.1714q0-0.33824-0.24053-0.57877t-0.57877-0.24053q-0.33825 0-0.57878 0.24053-0.23301 0.24053-0.23301 0.57877v5.14885q0 0.33825 0.23301 0.57878 0.24053 0.24053 0.57878 0.24053 0.33824 0 0.57877-0.24053t0.24053-0.57878z" style="font-feature-settings:normal;font-variant-caps:normal;font-variant-ligatures:normal;font-variant-numeric:normal"/>
  </g>
 </g>
</svg>
