<?xml version="1.0" encoding="UTF-8"?>
<!-- Created with Inkscape (http://www.inkscape.org/) -->
<svg width="511.99997" height="512" version="1.1" viewBox="0 0 135.46666 135.46667" xmlns="http://www.w3.org/2000/svg" xmlns:cc="http://creativecommons.org/ns#" xmlns:dc="http://purl.org/dc/elements/1.1/" xmlns:rdf="http://www.w3.org/1999/02/22-rdf-syntax-ns#">
 <metadata>
  <rdf:RDF>
   <cc:Work rdf:about="">
    <dc:format>image/svg+xml</dc:format>
    <dc:type rdf:resource="http://purl.org/dc/dcmitype/StillImage"/>
    <dc:title/>
   </cc:Work>
  </rdf:RDF>
 </metadata>
 <g transform="translate(-145.96919,25.011871)">
  <g>
   <rect x="145.96919" y="-24.08036" width="134.53516" height="134.53516" ry="0" fill="#ececec"/>
   <rect x="145.96919" y="34.226856" width="135.46666" height="76.227936" fill="#808080"/>
   <circle cx="178.14484" cy="2.0629578" r="13.754628" fill="#ff2a2a"/>
   <circle cx="178.14484" cy="2.0629578" r="10.604713" fill="#fff"/>
  </g>
  <g>
   <path d="m172.91519 8.7033793 10.59367 0.1343587-0.20671-3.648356-6.39754-0.062012v-1.4159339l5.64307 0.1033529v-3.29695631l-5.64307-0.11368815v-1.33325191l6.19084-0.0620117v-3.64835603l-10.31462-0.072347z" style="font-feature-settings:normal;font-variant-caps:normal;font-variant-ligatures:normal;font-variant-numeric:normal"/>
   <path d="m195.89708-3.4838653q0-0.073673 0.0386-0.1157727 0.0421-0.045606 0.11578-0.045606h3.4837q0.0772 0 0.11928 0.045606 0.0421 0.045606 0.0421 0.1227897v0.8700493q0 0.059642-0.0421 0.1157727-0.0421 0.052627-0.12279 0.052627h-2.27335v0.8665414h1.75413q0.0667 0 0.10876 0.031578 0.0456 0.031578 0.0456 0.1052479v0.75778442q0 0.0491135-0.0386 0.0947231-0.0386 0.0456063-0.11226 0.0456063h-1.75765v0.89460735h2.35756q0.15787 0 0.15787 0.16138037v0.88408266q0 0.035085-0.028 0.063149-0.0141 0.098231-0.14384 0.098231h-3.55036q-0.0702 0-0.11227-0.035085-0.0421-0.038592-0.0421-0.1157727z" style="font-feature-settings:normal;font-variant-caps:normal;font-variant-ligatures:normal;font-variant-numeric:normal"/>
   <path d="m201.16145 0.17876247q0.0947 0.0947231 0.20348 0.16138037 0.11226 0.0631487 0.214 0.10524792 0.10174 0.038592 0.17892 0.0561344 0.0772 0.0175424 0.10525 0.0175424 0.0667 0 0.1684-0.003514 0.10524-0.007014 0.19997-0.0315777 0.0947-0.0280639 0.16138-0.0877068 0.0702-0.0596416 0.0702-0.16839668 0-0.0982309-0.0386-0.1543634-0.0386-0.0596416-0.11226-0.09823162-0.0737-0.04209917-0.18243-0.07367355-0.10525-0.03157769-0.23856-0.07367354-0.421-0.11226423-0.69464-0.27013612t-0.43503-0.35082664q-0.15787-0.19646257-0.22101-0.42099111-0.0631-0.2245291-0.0631-0.4736156 0-0.2911864 0.11577-0.5297481 0.11578-0.2385618 0.32978-0.4069584 0.214-0.1719052 0.5122-0.2631199 0.2982-0.094723 0.66307-0.094723 0.22102 0 0.41397 0.038592 0.19295 0.035085 0.36837 0.1157727 0.17541 0.077182 0.3403 0.2034796 0.1684 0.122789 0.33329 0.2946942 0.0597 0.070165 0.0597 0.1333138 3e-3 0.059642-0.0772 0.129806-0.13682 0.1122642-0.26312 0.2210206-0.12279 0.1087558-0.2561 0.2420702-0.0421 0.035085-0.0842 0.045606-0.0421 0.00701-0.0807-0.00351-0.0386-0.010521-0.0737-0.035085-0.0351-0.024557-0.0631-0.059642-0.12279-0.1368223-0.28066-0.1824299-0.15787-0.049114-0.29469-0.049114-0.17191 0-0.27365 0.059642t-0.0947 0.1824299q7e-3 0.091215 0.0667 0.1438387 0.0631 0.049113 0.15086 0.08069 0.0912 0.031578 0.18944 0.052621 0.10174 0.017542 0.18594 0.042099 0.31575 0.1017401 0.57887 0.2210207 0.26312 0.11928121 0.45607 0.2946942 0.19296 0.17190516 0.29821 0.41397539 0.10875 0.24207022 0.10875 0.58938837t-0.14033 0.62096275q-0.13682 0.27364459-0.37889 0.45958239-0.24207 0.1859377-0.57536 0.2841694-0.32978 0.098232-0.71218 0.098232-0.21751 0-0.44204-0.038592t-0.43502-0.1227891q-0.2105-0.087707-0.39995-0.2210206-0.18944-0.1368223-0.33679-0.32977702-0.0386-0.0491135-0.0597-0.10173944-0.0176-0.0561344-0.0176-0.10875641 3e-3 -0.0526206 0.0211-0.0947231 0.021-0.0456063 0.0631-0.0771814l0.45256-0.45256607q0.0842-0.07016573 0.14735-0.04911349 0.0667 0.02104959 0.1684 0.1192812z" style="font-feature-settings:normal;font-variant-caps:normal;font-variant-ligatures:normal;font-variant-numeric:normal"/>
   <path d="m204.82144-3.5856047q0-0.1087564 0.0702-0.1613804 0.0737-0.056134 0.20699-0.1052479l0.79637-0.2771525q0.0176-0.00351 0.0316-0.00351 0.0176 0 0.0316 0 0.1298 0 0.1719 0.077182 0.0456 0.073673 0.0456 0.1964626l-3e-3 1.1051032h0.58588q0.11227 0 0.18243 0.066657 0.0702 0.066657 0.0702 0.1999711v0.6770945q0 0.1473471-0.0702 0.2175128-0.0702 0.066657-0.18243 0.066657h-0.58588l3e-3 2.8206444q0 0.1333138-0.0772 0.2034795-0.0772 0.066657-0.214 0.066657h-0.79287q-0.27014 0-0.27014-0.2701361l-3e-3 -2.8206444h-0.25611q-0.27013 0-0.27013-0.2841694v-0.6770892q0-0.2666283 0.27013-0.2666283h0.25611z" style="font-feature-settings:normal;font-variant-caps:normal;font-variant-ligatures:normal;font-variant-numeric:normal"/>
   <path d="m212.04189 1.3049153q0 0.059642-0.0211 0.1157727-0.021 0.052627-0.0702 0.084198-0.0386 0.038592-0.0912 0.049114-0.0526 0.010528-0.0912 0.010528h-0.69113q-0.0737 0-0.11927-0.017542-0.0456-0.02105-0.0737-0.056134-0.028-0.035085-0.0491-0.084198-0.0176-0.052621-0.0386-0.1122642l-0.10174-0.2631198q-0.0947 0.094723-0.20699 0.2034795-0.11226 0.1052479-0.24908 0.1964626-0.13332 0.091215-0.29119 0.1508556-0.15788 0.063149-0.33679 0.063149-0.31925 0-0.61395-0.080691-0.29119-0.08069-0.54729-0.228037-0.25259-0.1508555-0.45958-0.3578429-0.20699-0.21049585-0.35784-0.46659935-0.14735-0.25610284-0.22804-0.55079703-0.0807-0.29820267-0.0807-0.62096275 0-0.48764897 0.17892-0.90513217 0.17892-0.4209917 0.48765-0.7297191 0.30872-0.3122353 0.72621-0.4876483 0.41748-0.1789215 0.89461-0.1789215 0.21751 0 0.39994 0.066657 0.18242 0.063149 0.32977 0.1683967 0.15086 0.1052479 0.27014 0.2385624 0.12279 0.1333138 0.21752 0.2701361l0.13681-0.4245002q0.0351-0.087706 0.0562-0.1403301 0.0245-0.056134 0.0491-0.08069 0.028-0.028064 0.0667-0.035085 0.0386-0.010521 0.10876-0.010521h0.52273q0.0386 0 0.0912 0.010521 0.0526 0.010522 0.0912 0.049114 0.0491 0.038592 0.0702 0.087707 0.0211 0.049114 0.0211 0.1122643zm-3.45564-1.96462774q0 0.23154543 0.0702 0.43502431 0.0737 0.19997106 0.20699 0.34731815 0.13332 0.14734709 0.31925 0.23505392 0.18945 0.0841983 0.41749 0.0841983 0.23505 0 0.43502-0.0841983 0.20349-0.0877068 0.35083-0.23505392 0.15086-0.14734709 0.23506-0.34731815 0.0842-0.20347888 0.0842-0.43502431 0-0.22452913-0.0842-0.42800796-0.0842-0.2034796-0.23506-0.357843-0.14734-0.1543641-0.35083-0.2420702-0.19997-0.091215-0.43502-0.091215-0.22804 0-0.41749 0.091215-0.18593 0.087706-0.31925 0.2420702-0.13331 0.1543634-0.20699 0.357843-0.0702 0.20347883-0.0702 0.42800796z" style="font-feature-settings:normal;font-variant-caps:normal;font-variant-ligatures:normal;font-variant-numeric:normal"/>
   <path d="m215.73566 0.19279574q0.0491-0.0350849 0.0912-0.0420992 0.0456-0.0105281 0.0702-0.0105281 0.0597 0 0.10876 0.0245567 0.0491 0.0245567 0.10174 0.10524792l0.3929 0.59289694q0.0176 0.0280639 0.0316 0.0631487 0.0176 0.0350848 0.0176 0.0561344 0 0.0806898-0.0526 0.1333138-0.0491 0.049114-0.10875 0.087707-0.28768 0.1999711-0.63149 0.3227601-0.34031 0.1192812-0.72271 0.1192812-0.31574 0-0.61043-0.080691-0.29119-0.08069-0.54379-0.228037-0.25259-0.1508555-0.46309-0.35784289-0.21049-0.21049585-0.35784-0.46659935-0.14735-0.25610284-0.23155-0.55079703-0.0807-0.29820267-0.0807-0.62096275t0.0807-0.62096278q0.0842-0.2982027 0.23155-0.5507977 0.14735-0.2561028 0.35784-0.4630908 0.2105-0.2104959 0.46309-0.357843 0.2526-0.1473471 0.54379-0.2280369 0.29469-0.08069 0.61043-0.08069 0.3824 0 0.70517 0.1017395 0.32626 0.1017394 0.61044 0.3017104l-0.0106-0.010528q0.0772 0.045606 0.1228 0.1087565 0.0456 0.059642 0.0456 0.1508555 0 0.063149-0.0421 0.1298054l-0.31224 0.5297481q-0.0982 0.1719051-0.23856 0.1719051-0.0316 0-0.0772-0.014035-0.0456-0.017543-0.10174-0.056134-0.15436-0.1017394-0.33328-0.1648882-0.17542-0.066657-0.37539-0.066657-0.22102 0-0.40695 0.091215-0.18594 0.087706-0.31926 0.2420702-0.12981 0.1543634-0.20348 0.357843-0.0737 0.20347886-0.0737 0.42800799 0 0.23154543 0.0737 0.43502431 0.0737 0.19997105 0.20348 0.34731815 0.13332 0.14734709 0.31926 0.23505392 0.18593 0.0841983 0.40695 0.0841983 0.19997 0 0.37539-0.0701651 0.17541-0.0701657 0.33328-0.17892147z" style="font-feature-settings:normal;font-variant-caps:normal;font-variant-ligatures:normal;font-variant-numeric:normal"/>
   <path d="m217.21044-2.6173238q0-0.1122643 0.0631-0.1929548 0.0631-0.08069 0.19646-0.08069h0.8034q0.0421 0 0.0912 0.02105 0.0491 0.017543 0.0912 0.056135 0.0421 0.035085 0.0702 0.084198 0.0316 0.049114 0.0316 0.1122643v3.9117143q0 0.1333138-0.0737 0.2034795-0.0737 0.066657-0.2105 0.066657h-0.8034q-0.25961 0-0.25961-0.2701361zm0-1.7751815q0-0.1473471 0.0631-0.206988 0.0631-0.063149 0.19646-0.063149h0.81392q0.12279 0 0.19646 0.063149 0.0772 0.059642 0.0772 0.206988v0.6841115q0 0.042099-0.021 0.091215-0.0176 0.049113-0.0526 0.094723-0.0351 0.045606-0.0877 0.077182-0.0491 0.028064-0.11226 0.028064h-0.81392q-0.25961 0-0.25961-0.2911857z" style="font-feature-settings:normal;font-variant-caps:normal;font-variant-ligatures:normal;font-variant-numeric:normal"/>
   <path d="m219.25609-0.65971244q0-0.32276008 0.0807-0.62096276 0.0842-0.2982027 0.23155-0.5507977 0.15085-0.2561028 0.35784-0.4630909 0.2105-0.2104958 0.4666-0.3578429t0.55079-0.2280369q0.2982-0.08069 0.62097-0.08069 0.47712 0 0.8946 0.1789215 0.421 0.175413 0.72972 0.4876482 0.31224 0.3087275 0.49116 0.7297192 0.18243 0.4174832 0.18243 0.90513216 0 0.32276008-0.0842 0.62096275-0.0807 0.29469419-0.23154 0.55079703-0.14735 0.2561035-0.35785 0.46659935-0.20698 0.20698741-0.46309 0.35784291-0.2561 0.1473471-0.55079 0.228037-0.29119 0.080691-0.61044 0.080691-0.32277 0-0.62097-0.080691-0.29469-0.08069-0.55079-0.228037-0.2561-0.1508555-0.4666-0.35784291-0.20699-0.21049585-0.35784-0.46659935-0.14735-0.25610284-0.23155-0.55079703-0.0807-0.29820267-0.0807-0.62096265zm1.28052 0q0 0.23154543 0.0702 0.43502431 0.0737 0.19997106 0.20348 0.34731815 0.13331 0.14734709 0.31925 0.23505392 0.18945 0.0841983 0.4245 0.0841983 0.22804 0 0.41047-0.0841983 0.18593-0.0877068 0.31223-0.23505392 0.12981-0.14734709 0.19647-0.34731815 0.0702-0.20347888 0.0702-0.43502431 0-0.22452913-0.0702-0.42800796-0.0667-0.2034796-0.19647-0.357843-0.1263-0.1543641-0.31223-0.2420702-0.18243-0.091215-0.41047-0.091215-0.23505 0-0.4245 0.091215-0.18594 0.087706-0.31925 0.2420702-0.1298 0.1543634-0.20348 0.357843-0.0702 0.20347883-0.0702 0.42800796z" style="font-feature-settings:normal;font-variant-caps:normal;font-variant-ligatures:normal;font-variant-numeric:normal"/>
   <path d="m224.65059-2.8313282q0.0456-0.038592 0.0947-0.049113 0.0526-0.010521 0.0982-0.010521h0.52976q0.0631 0 0.10875 0.024557 0.0456 0.02105 0.0772 0.059642t0.0491 0.087707q0.0211 0.049113 0.0386 0.1017395l0.10876 0.4490576q0.0526-0.1087558 0.15085-0.2455781 0.10174-0.1403308 0.2561-0.259612 0.15437-0.122789 0.36486-0.2034789 0.21401-0.084198 0.49467-0.084198 0.39994 0 0.72621 0.1543634t0.55431 0.4209917q0.23154 0.2666283 0.35784 0.6244712 0.1263 0.3543345 0.1263 0.7577851v2.2979126q0 0.1333138-0.0597 0.2034795-0.0562 0.066657-0.18243 0.066657h-0.81041q-0.15085 0-0.20699-0.049114-0.0562-0.052621-0.0562-0.1999711v-2.28387991q0-0.15085489-0.0702-0.28416939-0.0667-0.1368223-0.17893-0.2385618-0.11226-0.1052479-0.2561-0.1648881-0.14033-0.059642-0.28767-0.059642-0.1263 0-0.25962 0.056134-0.1298 0.056134-0.24207 0.1578719-0.10875 0.098232-0.18594 0.2350539-0.0737 0.1333138-0.0842 0.2911857v2.2803715q0 0.059642-0.0245 0.1192812-0.0211 0.059642-0.0667 0.091215-0.0456 0.028064-0.0877 0.038592-0.0386 0.010528-0.0912 0.010528h-0.79287q-0.15085 0-0.21751-0.073673-0.0667-0.073674-0.0667-0.1964626v-3.9257476q0-0.066657 0.028-0.122789 0.0316-0.056134 0.0842-0.087707z" style="font-feature-settings:normal;font-variant-caps:normal;font-variant-ligatures:normal;font-variant-numeric:normal"/>
   <path d="m234.15355 1.3049153q0 0.059642-0.0211 0.1157727-0.021 0.052627-0.0702 0.084198-0.0386 0.038592-0.0912 0.049114-0.0526 0.010528-0.0912 0.010528h-0.69113q-0.0737 0-0.11928-0.017542-0.0456-0.02105-0.0737-0.056134-0.0281-0.035085-0.0491-0.084198-0.0176-0.052621-0.0386-0.1122642l-0.10174-0.2631198q-0.0947 0.094723-0.20698 0.2034795-0.11227 0.1052479-0.24909 0.1964626-0.13331 0.091215-0.29118 0.1508556-0.15788 0.063149-0.3368 0.063149-0.31925 0-0.61394-0.080691-0.29119-0.08069-0.54729-0.228037-0.2526-0.1508555-0.45958-0.3578429-0.20699-0.21049585-0.35785-0.46659935-0.14734-0.25610284-0.22804-0.55079703-0.0807-0.29820267-0.0807-0.62096275 0-0.48764897 0.17893-0.90513217 0.17892-0.4209917 0.48765-0.7297191 0.30872-0.3122353 0.7262-0.4876483 0.41749-0.1789215 0.89461-0.1789215 0.21751 0 0.39995 0.066657 0.18242 0.063149 0.32977 0.1683967 0.15086 0.1052479 0.27014 0.2385624 0.12279 0.1333138 0.21751 0.2701361l0.13682-0.4245002q0.0351-0.087706 0.0562-0.1403301 0.0245-0.056134 0.0491-0.08069 0.0281-0.028064 0.0667-0.035085 0.0386-0.010521 0.10875-0.010521h0.52274q0.0386 0 0.0912 0.010521 0.0526 0.010522 0.0912 0.049114 0.0491 0.038592 0.0702 0.087707 0.0211 0.049114 0.0211 0.1122643zm-3.45564-1.96462774q0 0.23154543 0.0702 0.43502431 0.0737 0.19997106 0.20699 0.34731815 0.13332 0.14734709 0.31925 0.23505392 0.18945 0.0841983 0.41749 0.0841983 0.23505 0 0.43502-0.0841983 0.20348-0.0877068 0.35083-0.23505392 0.15086-0.14734709 0.23505-0.34731815 0.0842-0.20347888 0.0842-0.43502431 0-0.22452913-0.0842-0.42800796-0.0842-0.2034796-0.23505-0.357843-0.14735-0.1543641-0.35083-0.2420702-0.19997-0.091215-0.43502-0.091215-0.22804 0-0.41749 0.091215-0.18593 0.087706-0.31925 0.2420702-0.13331 0.1543634-0.20699 0.357843-0.0702 0.20347883-0.0702 0.42800796z" style="font-feature-settings:normal;font-variant-caps:normal;font-variant-ligatures:normal;font-variant-numeric:normal"/>
   <path d="m235.09316-2.8313282q0.0456-0.038592 0.0947-0.049113 0.0526-0.010521 0.0982-0.010521h0.52975q0.0631 0 0.10876 0.024557 0.0456 0.02105 0.0772 0.059642t0.0491 0.087707q0.0211 0.049113 0.0386 0.1017395l0.10876 0.4490576q0.0526-0.1087558 0.12629-0.2455781 0.0772-0.1403308 0.19998-0.259612 0.1263-0.122789 0.31224-0.2034789 0.18944-0.084198 0.4701-0.084198 0.44906 0 0.78585 0.1929541 0.33679 0.1894463 0.55431 0.512207 0.0667-0.1087564 0.18243-0.2315454 0.11577-0.1262975 0.27715-0.2315455 0.16138-0.1052479 0.36837-0.1719051 0.21049-0.070165 0.46309-0.070165 0.39994 0 0.71218 0.1543634 0.31574 0.1543634 0.53325 0.4209917 0.22103 0.2666283 0.33329 0.6244712 0.11577 0.3543345 0.11577 0.7577851v2.2979126q0 0.1333138-0.0597 0.2034795-0.0562 0.066657-0.18244 0.066657h-0.8104q-0.15086 0-0.20699-0.049114-0.0561-0.052621-0.0561-0.1999711v-2.3189621q0-0.1508556-0.0491-0.2806616-0.0456-0.1298053-0.12981-0.2245285-0.0842-0.098232-0.20698-0.1508555-0.11929-0.056134-0.26664-0.056134-0.13331 0-0.25259 0.052621t-0.2105 0.1473471q-0.0912 0.091215-0.14734 0.2245291-0.0526 0.129806-0.0526 0.2876779v2.2979126q0 0.1333138-0.0597 0.2034795-0.0562 0.066657-0.18243 0.066657h-0.81046q-0.15086 0-0.20699-0.049114-0.0562-0.052621-0.0562-0.1999711v-2.3189621q0-0.1508556-0.0456-0.2806616-0.0421-0.1298053-0.1263-0.2245285-0.0807-0.098232-0.19997-0.1508555-0.11577-0.056134-0.26312-0.056134-0.12629 0-0.24909 0.052621-0.11928 0.049114-0.21751 0.1438392-0.0947 0.091215-0.16138 0.2210207-0.0631 0.1298053-0.0737 0.2876772v2.3154543q0 0.059642-0.0245 0.1192812-0.0211 0.059642-0.0667 0.091215-0.0456 0.028064-0.0877 0.038592-0.0386 0.010528-0.0912 0.010528h-0.79287q-0.15086 0-0.21751-0.073674-0.0667-0.073673-0.0667-0.1964625v-3.9257476q0-0.066657 0.0281-0.122789 0.0315-0.056135 0.0842-0.087707z" style="font-feature-settings:normal;font-variant-caps:normal;font-variant-ligatures:normal;font-variant-numeric:normal"/>
   <path d="m242.4809-2.6173238q0-0.1122643 0.0631-0.1929548 0.0632-0.08069 0.19646-0.08069h0.8034q0.0421 0 0.0912 0.02105 0.0491 0.017543 0.0912 0.056135 0.0421 0.035085 0.0702 0.084198 0.0316 0.049114 0.0316 0.1122643v3.9117143q0 0.1333138-0.0737 0.2034795-0.0737 0.066657-0.2105 0.066657h-0.80339q-0.25961 0-0.25961-0.2701361zm0-1.7751815q0-0.1473471 0.0631-0.206988 0.0632-0.063149 0.19646-0.063149h0.81392q0.12279 0 0.19647 0.063149 0.0772 0.059642 0.0772 0.206988v0.6841115q0 0.042099-0.0211 0.091215-0.0176 0.049113-0.0526 0.094723-0.0351 0.045606-0.0877 0.077182-0.0491 0.028064-0.11227 0.028064h-0.81391q-0.25961 0-0.25961-0.2911857z" style="font-feature-settings:normal;font-variant-caps:normal;font-variant-ligatures:normal;font-variant-numeric:normal"/>
   <path d="m248.39617 1.0312707q-0.30873 0.2841693-0.69464 0.4455497-0.38591 0.1578719-0.81743 0.1578719-0.48063 0-0.90864-0.1754136-0.428-0.175413-0.75077-0.4841405-0.32275-0.31223528-0.5122-0.73322698t-0.18945-0.91565694q0-0.3087268 0.0737-0.59640468 0.0772-0.2911857 0.21401-0.5437807 0.14033-0.252595 0.3368-0.4630909 0.19996-0.2140043 0.44555-0.3648599 0.24557-0.1508549 0.53325-0.2350533 0.28768-0.084198 0.60693-0.084198 0.29119 0 0.56483 0.077181 0.27365 0.077182 0.51221 0.2175128 0.24207 0.1403301 0.44204 0.3367933 0.19997 0.1964626 0.3438 0.4315165 0.14384 0.2315455 0.22103 0.4981731 0.0807 0.2631198 0.0807 0.54378072 0 0.18242996-7e-3 0.29820268-3e-3 0.11577271-0.0526 0.18593778-0.0491 0.0666572-0.16489 0.0947231-0.11226 0.0245567-0.33328 0.0245567h-2.52595q0.0351 0.22452913 0.14033 0.37538404 0.10875 0.15085558 0.24909 0.24207023 0.14032 0.0877068 0.2982 0.12629751 0.15787 0.038592 0.2982 0.038592 0.1263 0 0.25961-0.0245568 0.13332-0.0280639 0.25611-0.0701651 0.12629-0.0456063 0.22803-0.1017401 0.10525-0.0596416 0.1684-0.12278902 0.0562-0.0456063 0.0947-0.0666572 0.0421-0.0245568 0.0877-0.0245568t0.0912 0.0315777q0.0491 0.0315777 0.10876 0.0912147l0.37187 0.4209917q0.0386 0.0456063 0.0491 0.0841983 0.0105 0.0350849 0.0105 0.0736735 0 0.0701651-0.0386 0.12278903-0.0386 0.0491135-0.0912 0.0877068zm-1.68748-2.9223839q-0.13682 0-0.26663 0.056134-0.12629 0.052621-0.23856 0.1438386-0.11227 0.091215-0.20348 0.2069874-0.0877 0.1157727-0.14384 0.2350539h1.79272q-0.0737-0.1368223-0.16137-0.252595-0.0842-0.1157728-0.19647-0.2034796-0.10875-0.087706-0.25259-0.1368223-0.14033-0.049114-0.32978-0.049114z" style="font-feature-settings:normal;font-variant-caps:normal;font-variant-ligatures:normal;font-variant-numeric:normal"/>
   <path d="m249.7292-2.8313282q0.0456-0.038592 0.0947-0.049113 0.0526-0.010521 0.0982-0.010521h0.52975q0.0632 0 0.10875 0.024557 0.0456 0.02105 0.0772 0.059642t0.0491 0.087707q0.021 0.049113 0.0386 0.1017395l0.10876 0.4490576q0.0526-0.1087558 0.15085-0.2455781 0.10174-0.1403308 0.2561-0.259612 0.15437-0.122789 0.36487-0.2034789 0.214-0.084198 0.49466-0.084198 0.39994 0 0.72621 0.1543634t0.55431 0.4209917q0.23154 0.2666283 0.35784 0.6244712 0.1263 0.3543345 0.1263 0.7577851v2.2979126q0 0.1333138-0.0597 0.2034795-0.0562 0.066657-0.18243 0.066657h-0.81041q-0.15085 0-0.20699-0.049114-0.0562-0.052621-0.0562-0.1999711v-2.28387991q0-0.15085489-0.0702-0.28416939-0.0667-0.1368223-0.17892-0.2385618-0.11227-0.1052479-0.2561-0.1648881-0.14034-0.059642-0.28768-0.059642-0.1263 0-0.25961 0.056134-0.12981 0.056134-0.24208 0.1578719-0.10875 0.098232-0.18593 0.2350539-0.0737 0.1333138-0.0842 0.2911857v2.2803715q0 0.059642-0.0245 0.1192812-0.021 0.059642-0.0667 0.091215-0.0456 0.028064-0.0877 0.038592-0.0386 0.010528-0.0912 0.010528h-0.79287q-0.15085 0-0.21751-0.073673-0.0667-0.073674-0.0667-0.1964626v-3.9257476q0-0.066657 0.028-0.122789 0.0316-0.056134 0.0842-0.087707z" style="font-feature-settings:normal;font-variant-caps:normal;font-variant-ligatures:normal;font-variant-numeric:normal"/>
   <path d="m254.97866-3.5856047q0-0.1087564 0.0702-0.1613804 0.0737-0.056134 0.20699-0.1052479l0.79638-0.2771525q0.0176-0.00351 0.0316-0.00351 0.0176 0 0.0315 0 0.12981 0 0.17191 0.077182 0.0456 0.073673 0.0456 0.1964626l-3e-3 1.1051032h0.58588q0.11226 0 0.18243 0.066657 0.0702 0.066657 0.0702 0.1999711v0.6770945q0 0.1473471-0.0702 0.2175128-0.0702 0.066657-0.18243 0.066657h-0.58588l3e-3 2.8206444q0 0.1333138-0.0772 0.2034795-0.0772 0.066657-0.21401 0.066657h-0.79286q-0.27014 0-0.27014-0.2701361l-3e-3 -2.8206444h-0.2561q-0.27014 0-0.27014-0.2841694v-0.6770892q0-0.2666283 0.27014-0.2666283h0.2561z" style="font-feature-settings:normal;font-variant-caps:normal;font-variant-ligatures:normal;font-variant-numeric:normal"/>
   <path d="m257.47698-0.65971244q0-0.32276008 0.0807-0.62096276 0.0842-0.2982027 0.23154-0.5507977 0.15086-0.2561028 0.35785-0.4630909 0.21049-0.2104958 0.4666-0.3578429 0.2561-0.1473471 0.55079-0.2280369 0.29821-0.08069 0.62097-0.08069 0.47712 0 0.8946 0.1789215 0.42099 0.175413 0.72972 0.4876482 0.31224 0.3087275 0.49116 0.7297192 0.18243 0.4174832 0.18243 0.90513216 0 0.32276008-0.0842 0.62096275-0.0807 0.29469419-0.23154 0.55079703-0.14735 0.2561035-0.35785 0.46659935-0.20699 0.20698741-0.46309 0.35784291-0.2561 0.1473471-0.55079 0.228037-0.29119 0.080691-0.61044 0.080691-0.32276 0-0.62097-0.080691-0.29469-0.08069-0.55079-0.228037-0.25611-0.1508555-0.4666-0.35784291-0.20699-0.21049585-0.35785-0.46659935-0.14734-0.25610284-0.23154-0.55079703-0.0807-0.29820267-0.0807-0.62096265zm1.28052 0q0 0.23154543 0.0702 0.43502431 0.0737 0.19997106 0.20348 0.34731815 0.13331 0.14734709 0.31925 0.23505392 0.18945 0.0841983 0.4245 0.0841983 0.22804 0 0.41047-0.0841983 0.18594-0.0877068 0.31224-0.23505392 0.1298-0.14734709 0.19646-0.34731815 0.0702-0.20347888 0.0702-0.43502431 0-0.22452913-0.0702-0.42800796-0.0667-0.2034796-0.19646-0.357843-0.1263-0.1543641-0.31224-0.2420702-0.18243-0.091215-0.41047-0.091215-0.23505 0-0.4245 0.091215-0.18594 0.087706-0.31925 0.2420702-0.1298 0.1543634-0.20348 0.357843-0.0702 0.20347883-0.0702 0.42800796z" style="font-feature-settings:normal;font-variant-caps:normal;font-variant-ligatures:normal;font-variant-numeric:normal"/>
   <path d="m204.24951 7.0168974q0.0597 0.049113 0.15086 0.1333145 0.0947 0.08069 0.214 0.1613797 0.17892 0.1192812 0.35434 0.1859385 0.17541 0.066657 0.36837 0.066657 0.17891 0 0.2982-0.038592 0.12279-0.042099 0.19295-0.1087564 0.0702-0.066657 0.0982-0.1543634 0.0316-0.087707 0.0316-0.1859378 0-0.1087564-0.0842-0.1929547-0.0807-0.087707-0.19996-0.1543634-0.11929-0.066657-0.24909-0.1122649-0.12981-0.049113-0.22453-0.08069-0.42099-0.147347-0.73674-0.3157437-0.31574-0.1719052-0.52624-0.3788926-0.21049-0.2104958-0.31574-0.4595823-0.10525-0.2525951-0.10525-0.5613225 0-0.3262686 0.12981-0.5928969 0.13331-0.2666276 0.37538-0.4560739 0.24558-0.1894462 0.58939-0.2911863 0.34381-0.105248 0.76831-0.105248 0.31925 0 0.61044 0.073674 0.29469 0.070166 0.57886 0.2280376 0.11928 0.070165 0.22453 0.1473471 0.10876 0.073673 0.18945 0.1438386 0.0807 0.070165 0.1263 0.1333138 0.0491 0.063149 0.0491 0.1087564 0 0.045606-0.0245 0.084198-0.0211 0.038592-0.0667 0.087707l-0.53677 0.5718466q-0.0596 0.059642-0.11928 0.059642-0.0491 0-0.0912-0.028064-0.0386-0.028064-0.0877-0.070165l-0.0316-0.028064q-0.0702-0.059642-0.15788-0.1227897-0.0842-0.063149-0.18242-0.1122642-0.0982-0.052621-0.20699-0.084198-0.10875-0.035085-0.22102-0.035085-0.11577 0-0.21751 0.02105-0.10174 0.017542-0.17893 0.059642-0.0772 0.042099-0.12278 0.1122642-0.0456 0.066657-0.0456 0.1648882 0 0.098232 0.0491 0.1719052 0.0491 0.070165 0.14735 0.1333138 0.0982 0.059642 0.24207 0.1157727 0.14734 0.052627 0.3403 0.1157727 0.37187 0.1227897 0.68411 0.259612 0.31574 0.1333138 0.54378 0.3192516 0.22804 0.18243 0.35434 0.4385335 0.1298 0.2561028 0.1298 0.6209627 0 0.3859089-0.15787 0.7016526-0.15787 0.3122353-0.43502 0.533256-0.27365 0.2210206-0.64553 0.3438096-0.37187 0.1192812-0.79988 0.1192812-0.40345 0-0.79287-0.1438386-0.38941-0.1438392-0.72621-0.3859095-0.14033-0.1017394-0.23856-0.1999704-0.0947-0.098232-0.15086-0.1578719l-0.0105-0.010521q-3e-3 -0.00701-7e-3 -0.00701-3e-3 -0.00351-7e-3 -0.00701-3e-3 -0.00701-7e-3 -0.00701-3e-3 -0.00351-7e-3 -0.00701-0.0807-0.087706-0.0807-0.1403301 0-0.059642 0.0807-0.1333145l0.60693-0.5788636q0.0737-0.052621 0.11928-0.052621 0.0316 0 0.0667 0.021049 0.0351 0.02105 0.0842 0.063149z" style="font-feature-settings:normal;font-variant-caps:normal;font-variant-ligatures:normal;font-variant-numeric:normal"/>
   <path d="m212.63953 8.4377444q0 0.059642-0.021 0.1157727-0.021 0.052621-0.0702 0.084198-0.0386 0.038592-0.0912 0.049113t-0.0912 0.010521h-0.69112q-0.0737 0-0.11928-0.017542-0.0456-0.02105-0.0737-0.056134-0.028-0.035085-0.0491-0.084198-0.0176-0.052627-0.0386-0.1122642l-0.10174-0.2631198q-0.0947 0.094723-0.20699 0.2034795-0.11226 0.105248-0.24909 0.1964626-0.13331 0.091215-0.29118 0.1508556-0.15787 0.063149-0.33679 0.063149-0.31926 0-0.61395-0.08069-0.29118-0.08069-0.54729-0.2280369-0.25259-0.1508556-0.45958-0.357843-0.20699-0.2104958-0.35784-0.4665987-0.14735-0.2561035-0.22804-0.5507976-0.0807-0.2982027-0.0807-0.6209628 0-0.4876489 0.17892-0.9051321 0.17892-0.4209917 0.48765-0.7297192 0.30872-0.3122353 0.72621-0.4876483 0.41748-0.1789215 0.89461-0.1789215 0.21751 0 0.39994 0.066657 0.18243 0.063149 0.32977 0.1683967 0.15086 0.1052479 0.27014 0.2385624 0.12279 0.1333138 0.21751 0.2701361l0.13683-0.4245002q0.0351-0.087706 0.0562-0.1403301 0.0245-0.056134 0.0491-0.080691 0.028-0.028064 0.0667-0.035085 0.0386-0.010528 0.10876-0.010528h0.52273q0.0386 0 0.0912 0.010528 0.0526 0.010521 0.0912 0.049113 0.0491 0.038592 0.0702 0.087707 0.021 0.049113 0.021 0.1122642zm-3.45564-1.9646277q0 0.2315455 0.0702 0.435025 0.0737 0.199971 0.20699 0.3473181 0.13332 0.1473471 0.31925 0.2350533 0.18945 0.084198 0.41748 0.084198 0.23506 0 0.43503-0.084198 0.20348-0.087706 0.35082-0.2350533 0.15086-0.1473471 0.23506-0.3473181 0.0842-0.2034795 0.0842-0.435025 0-0.2245291-0.0842-0.428008-0.0842-0.2034795-0.23506-0.3578429-0.14734-0.1543641-0.35082-0.2420703-0.19997-0.091215-0.43503-0.091215-0.22803 0-0.41748 0.091215-0.18593 0.087706-0.31925 0.2420703-0.13331 0.1543634-0.20699 0.3578429-0.0702 0.2034789-0.0702 0.428008z" style="font-feature-settings:normal;font-variant-caps:normal;font-variant-ligatures:normal;font-variant-numeric:normal"/>
   <path d="m213.57228 4.301501q0.0456-0.038592 0.0947-0.049113 0.0526-0.010522 0.0982-0.010522h0.52975q0.0631 0 0.10876 0.024557 0.0456 0.02105 0.0772 0.059642t0.0491 0.087707q0.0211 0.049113 0.0386 0.1017394l0.10876 0.4490576q0.0526-0.1087557 0.15085-0.245578 0.10174-0.1403308 0.2561-0.259612 0.15437-0.122789 0.36487-0.2034789 0.214-0.084198 0.49466-0.084198 0.39994 0 0.72621 0.1543634t0.55431 0.4209917q0.23154 0.2666283 0.35784 0.6244712 0.1263 0.3543345 0.1263 0.7577851v2.2979072q0 0.1333138-0.0597 0.2034796-0.0561 0.066656-0.18243 0.066656h-0.81041q-0.15085 0-0.20699-0.049113-0.0562-0.052621-0.0562-0.1999711v-2.28388q0-0.1508549-0.0702-0.2841694-0.0667-0.1368223-0.17892-0.2385617-0.11227-0.1052479-0.25611-0.1648882-0.14033-0.059642-0.28767-0.059642-0.1263 0-0.25962 0.056134-0.12981 0.056134-0.24207 0.1578718-0.10875 0.098232-0.18594 0.235054-0.0737 0.1333138-0.0842 0.2911857v2.2803714q0 0.059642-0.0245 0.1192812-0.0211 0.059642-0.0667 0.091215-0.0456 0.028064-0.0877 0.038592-0.0386 0.010521-0.0912 0.010521h-0.79286q-0.15086 0-0.21752-0.073674-0.0666-0.073673-0.0666-0.1964626v-3.925747q0-0.066657 0.028-0.122789 0.0316-0.056134 0.0842-0.087707z" style="font-feature-settings:normal;font-variant-caps:normal;font-variant-ligatures:normal;font-variant-numeric:normal"/>
   <path d="m221.193 3.6419476q7e-3 -0.063149 0.0491-0.1087565 0.0421-0.045606 0.11928-0.045606h1.21386q0.12981 0 0.1684 0.1333138l0.95425 3.1855037 0.96126-3.1855037q0.0491-0.1333138 0.17892-0.1333138h1.19983q0.0631 0 0.11227 0.045606 0.0526 0.042099 0.0596 0.1087565 0.12279 1.2349092 0.24909 2.4522766 0.1298 1.2138596 0.25259 2.4487681v0.017542q0 0.1368223-0.15436 0.1368223h-0.99284q-0.16138 0-0.16839-0.1543634l-0.30523-2.711888-0.78935 2.7294291q-7e-3 0.035085-0.0526 0.084198-0.0421 0.049114-0.0842 0.049114h-0.92268q-0.0421 0-0.0912-0.045606-0.0456-0.049113-0.0491-0.087707l-0.78936-2.7224127-0.30521 2.7048716q-7e-3 0.1543634-0.17191 0.1543634h-0.99284q-0.15086 0-0.15086-0.1543634z" style="font-feature-settings:normal;font-variant-caps:normal;font-variant-ligatures:normal;font-variant-numeric:normal"/>
   <path d="m231.86646 8.4377444q0 0.059642-0.021 0.1157727-0.021 0.052621-0.0702 0.084198-0.0386 0.038592-0.0912 0.049113t-0.0912 0.010521h-0.69112q-0.0737 0-0.11928-0.017542-0.0456-0.02105-0.0737-0.056134-0.028-0.035085-0.0491-0.084198-0.0176-0.052627-0.0386-0.1122642l-0.10174-0.2631198q-0.0947 0.094723-0.20698 0.2034795-0.11227 0.105248-0.24909 0.1964626-0.13332 0.091215-0.29119 0.1508556-0.15787 0.063149-0.33679 0.063149-0.31925 0-0.61395-0.08069-0.29118-0.08069-0.54729-0.2280369-0.25259-0.1508556-0.45958-0.357843-0.20699-0.2104958-0.35784-0.4665987-0.14735-0.2561035-0.22804-0.5507976-0.0807-0.2982027-0.0807-0.6209628 0-0.4876489 0.17892-0.9051321 0.17892-0.4209917 0.48765-0.7297192 0.30873-0.3122353 0.72621-0.4876483 0.41748-0.1789215 0.89461-0.1789215 0.21751 0 0.39994 0.066657 0.18243 0.063149 0.32978 0.1683967 0.15085 0.1052479 0.27013 0.2385624 0.12279 0.1333138 0.21752 0.2701361l0.13682-0.4245002q0.0351-0.087706 0.0562-0.1403301 0.0245-0.056134 0.0491-0.080691 0.028-0.028064 0.0666-0.035085 0.0386-0.010528 0.10876-0.010528h0.52273q0.0386 0 0.0912 0.010528 0.0526 0.010521 0.0912 0.049113 0.0491 0.038592 0.0702 0.087707 0.021 0.049113 0.021 0.1122642zm-3.45564-1.9646277q0 0.2315455 0.0702 0.435025 0.0737 0.199971 0.20698 0.3473181 0.13332 0.1473471 0.31926 0.2350533 0.18944 0.084198 0.41747 0.084198 0.23506 0 0.43503-0.084198 0.20348-0.087706 0.35083-0.2350533 0.15085-0.1473471 0.23505-0.3473181 0.0842-0.2034795 0.0842-0.435025 0-0.2245291-0.0842-0.428008-0.0842-0.2034795-0.23505-0.3578429-0.14735-0.1543641-0.35083-0.2420703-0.19997-0.091215-0.43503-0.091215-0.22803 0-0.41747 0.091215-0.18594 0.087706-0.31926 0.2420703-0.13331 0.1543634-0.20698 0.3578429-0.0702 0.2034789-0.0702 0.428008z" style="font-feature-settings:normal;font-variant-caps:normal;font-variant-ligatures:normal;font-variant-numeric:normal"/>
   <path d="m232.708 4.501472q0-0.059641 0.0245-0.1122642 0.0281-0.056134 0.0667-0.087707 0.0912-0.059642 0.18945-0.059642h0.52975q0.0666 0 0.10524 0.024557 0.0386 0.024557 0.0631 0.063149 0.028 0.038592 0.0456 0.087706 0.021 0.049113 0.0491 0.098232 7e-3 0.014035 0.028 0.070165 0.021 0.052621 0.0456 0.1192812 0.0245 0.063149 0.0456 0.1227891 0.0245 0.056134 0.0316 0.073673 0.10525-0.1157727 0.19997-0.2420702 0.0982-0.1298053 0.20699-0.2385618 0.10876-0.1087564 0.24207-0.1789214 0.13332-0.070165 0.31574-0.070165 0.18945 0 0.33679 0.028064 0.15086 0.028064 0.28418 0.084198 0.13331 0.052627 0.26311 0.1368223 0.13332 0.084198 0.28768 0.1964625 0.24207 0.129806 0.0912 0.3859095l-0.31925 0.5437807q-0.0702 0.105248-0.17191 0.129806-0.10174 0.024557-0.22102-0.031578-0.15086-0.147347-0.30873-0.2175128-0.15436-0.073673-0.35433-0.073673-0.13683 0-0.24207 0.038592-0.10174 0.038592-0.18594 0.1087557-0.0842 0.070166-0.15787 0.1683967-0.0737 0.098232-0.14735 0.2175128v2.5399901q0 0.1333138-0.0667 0.2034796-0.0631 0.066656-0.214 0.066656h-0.78936q-0.27365 0-0.27365-0.2701361z" style="font-feature-settings:normal;font-variant-caps:normal;font-variant-ligatures:normal;font-variant-numeric:normal"/>
   <path d="m239.2672 7.3256249q0.0491-0.035085 0.0912-0.042099 0.0456-0.010521 0.0702-0.010521 0.0597 0 0.10876 0.024557 0.0491 0.024557 0.10174 0.1052479l0.39293 0.5928962q0.0176 0.028064 0.0315 0.063149 0.0176 0.035085 0.0176 0.056134 0 0.08069-0.0526 0.1333138-0.0491 0.049114-0.10875 0.087707-0.28768 0.199971-0.63149 0.32276-0.34031 0.1192812-0.72271 0.1192812-0.31574 0-0.61043-0.08069-0.29119-0.08069-0.54379-0.2280369-0.25259-0.1508556-0.46309-0.357843-0.21049-0.2104958-0.35784-0.4665987-0.14735-0.2561035-0.23155-0.5507977-0.0807-0.2982026-0.0807-0.6209627t0.0807-0.6209628q0.0842-0.2982026 0.23155-0.5507976 0.14735-0.2561029 0.35784-0.4630909 0.2105-0.2104959 0.46309-0.357843 0.2526-0.1473471 0.54379-0.2280369 0.29469-0.08069 0.61043-0.08069 0.3824 0 0.70517 0.1017395 0.32626 0.1017394 0.61044 0.3017105l-0.0105-0.010528q0.0772 0.045606 0.12279 0.1087564 0.0456 0.059642 0.0456 0.1508556 0 0.063149-0.0421 0.1298053l-0.31224 0.5297481q-0.0982 0.1719052-0.23856 0.1719052-0.0316 0-0.0772-0.014035-0.0456-0.017542-0.10174-0.056134-0.15436-0.1017395-0.33328-0.1648882-0.17542-0.066657-0.37539-0.066657-0.22102 0-0.40695 0.091215-0.18594 0.087706-0.31926 0.2420703-0.12981 0.1543634-0.20348 0.3578429-0.0737 0.2034789-0.0737 0.428008 0 0.2315454 0.0737 0.435025 0.0737 0.199971 0.20348 0.3473181 0.13332 0.1473471 0.31926 0.2350533 0.18593 0.084198 0.40695 0.084198 0.19997 0 0.37539-0.070165 0.17541-0.070165 0.33328-0.1789215z" style="font-feature-settings:normal;font-variant-caps:normal;font-variant-ligatures:normal;font-variant-numeric:normal"/>
   <path d="m240.45792 6.4731167q0-0.3227601 0.0807-0.6209627 0.0842-0.2982027 0.23155-0.5507977 0.15085-0.2561029 0.35784-0.4630909 0.2105-0.2104958 0.4666-0.3578429 0.25611-0.1473471 0.5508-0.228037 0.2982-0.08069 0.62096-0.08069 0.47713 0 0.89461 0.1789214 0.42099 0.175413 0.72972 0.4876483 0.31223 0.3087275 0.49116 0.7297192 0.18242 0.4174832 0.18242 0.9051321 0 0.3227601-0.0842 0.6209628-0.0807 0.2946942-0.23154 0.5507977-0.14735 0.2561028-0.35784 0.4665986-0.20699 0.2069874-0.46309 0.357843-0.25611 0.1473471-0.5508 0.2280369-0.29119 0.080691-0.61044 0.080691-0.32276 0-0.62096-0.080691-0.29469-0.08069-0.5508-0.2280369-0.2561-0.1508556-0.4666-0.357843-0.20699-0.2104958-0.35784-0.4665986-0.14735-0.2561035-0.23155-0.5507977-0.0807-0.2982027-0.0807-0.6209626zm1.28052 0q0 0.2315455 0.0702 0.435025 0.0737 0.199971 0.20347 0.3473181 0.13332 0.1473471 0.31925 0.2350533 0.18945 0.084198 0.42451 0.084198 0.22803 0 0.41046-0.084198 0.18594-0.087706 0.31224-0.2350533 0.1298-0.1473471 0.19646-0.3473181 0.0702-0.2034795 0.0702-0.435025 0-0.2245291-0.0702-0.428008-0.0667-0.2034795-0.19646-0.3578429-0.1263-0.1543641-0.31224-0.2420703-0.18243-0.091215-0.41046-0.091215-0.23506 0-0.42451 0.091215-0.18593 0.087706-0.31925 0.2420703-0.1298 0.1543634-0.20347 0.3578429-0.0702 0.2034789-0.0702 0.428008z" style="font-feature-settings:normal;font-variant-caps:normal;font-variant-ligatures:normal;font-variant-numeric:normal"/>
   <path d="m246.43463 7.3115916q0.0947 0.094723 0.20348 0.1613804 0.11226 0.063149 0.21401 0.1052479 0.10174 0.038592 0.17892 0.056135 0.0772 0.017542 0.10525 0.017542 0.0667 0 0.16839-0.00351 0.10525-0.00701 0.19997-0.031578 0.0947-0.028064 0.16138-0.087706 0.0702-0.059642 0.0702-0.1683966 0-0.098232-0.0386-0.1543641-0.0386-0.059642-0.11226-0.098231-0.0737-0.042099-0.18243-0.073673-0.10525-0.031578-0.23856-0.073674-0.42099-0.1122648-0.69464-0.2701367-0.27364-0.1578719-0.43502-0.350826-0.15787-0.1964632-0.22102-0.4209917-0.0631-0.2245291-0.0631-0.4736157 0-0.2911863 0.11577-0.5297481 0.11578-0.2385617 0.32978-0.4069584 0.214-0.1719051 0.51221-0.2631198 0.2982-0.094723 0.66306-0.094723 0.22102 0 0.41398 0.038592 0.19295 0.035085 0.36836 0.1157727 0.17541 0.077182 0.3403 0.2034795 0.1684 0.1227891 0.33329 0.2946942 0.0597 0.070165 0.0597 0.1333138 3e-3 0.059642-0.0772 0.129806-0.13682 0.1122643-0.26311 0.2210207-0.12279 0.1087557-0.25611 0.2420702-0.0421 0.035085-0.0842 0.045606-0.0421 0.00701-0.0807-0.00351-0.0386-0.010528-0.0737-0.035085t-0.0631-0.059642q-0.12279-0.1368223-0.28066-0.18243-0.15787-0.049113-0.29469-0.049113-0.1719 0-0.27365 0.059642-0.10174 0.059641-0.0947 0.1824299 7e-3 0.091215 0.0667 0.1438386 0.0631 0.049114 0.15085 0.08069 0.0912 0.031578 0.18945 0.052621 0.10174 0.017542 0.18594 0.042099 0.31574 0.1017401 0.57886 0.2210206 0.26312 0.1192812 0.45608 0.2946942 0.19295 0.1719052 0.2982 0.4139754 0.10875 0.2420702 0.10875 0.5893884 0 0.3473181-0.14033 0.6209627-0.13682 0.2736446-0.37889 0.4595824t-0.57535 0.2841694q-0.32978 0.098232-0.71218 0.098232-0.21751 0-0.44204-0.038592t-0.43503-0.122789q-0.21049-0.087707-0.39994-0.2210206-0.18944-0.1368224-0.33679-0.3297764-0.0386-0.049114-0.0597-0.1017401-0.0176-0.056134-0.0176-0.1087558 3e-3 -0.052627 0.0211-0.094723 0.021-0.045606 0.0631-0.077182l0.45256-0.4525661q0.0842-0.070165 0.14735-0.049114 0.0667 0.02105 0.1684 0.1192805z" style="font-feature-settings:normal;font-variant-caps:normal;font-variant-ligatures:normal;font-variant-numeric:normal"/>
  </g>
  <g>
   <rect x="145.96919" y="-25.011871" width="135.46666" height="135.46666" ry="0" fill="#ececec"/>
   <rect x="145.96919" y="34.226856" width="135.46666" height="76.227936" fill="#808080"/>
   <circle cx="178.14484" cy="2.0629578" r="13.754628" fill="#ff2a2a"/>
   <circle cx="178.14484" cy="2.0629578" r="10.604713" fill="#fff"/>
  </g>
  <g>
   <path d="m172.91519 8.7033793 10.59367 0.1343587-0.20671-3.648356-6.39754-0.062012v-1.4159339l5.64307 0.1033529v-3.29695631l-5.64307-0.11368815v-1.33325191l6.19084-0.0620117v-3.64835603l-10.31462-0.072347z" style="font-feature-settings:normal;font-variant-caps:normal;font-variant-ligatures:normal;font-variant-numeric:normal"/>
   <path d="m195.89708-3.4838653q0-0.073673 0.0386-0.1157727 0.0421-0.045606 0.11578-0.045606h3.4837q0.0772 0 0.11928 0.045606 0.0421 0.045606 0.0421 0.1227897v0.8700493q0 0.059642-0.0421 0.1157727-0.0421 0.052627-0.12279 0.052627h-2.27335v0.8665414h1.75413q0.0667 0 0.10876 0.031578 0.0456 0.031578 0.0456 0.1052479v0.75778442q0 0.0491135-0.0386 0.0947231-0.0386 0.0456063-0.11226 0.0456063h-1.75765v0.89460735h2.35756q0.15787 0 0.15787 0.16138037v0.88408266q0 0.035085-0.028 0.063149-0.0141 0.098231-0.14384 0.098231h-3.55036q-0.0702 0-0.11227-0.035085-0.0421-0.038592-0.0421-0.1157727z" style="font-feature-settings:normal;font-variant-caps:normal;font-variant-ligatures:normal;font-variant-numeric:normal"/>
   <path d="m201.16145 0.17876247q0.0947 0.0947231 0.20348 0.16138037 0.11226 0.0631487 0.214 0.10524792 0.10174 0.038592 0.17892 0.0561344 0.0772 0.0175424 0.10525 0.0175424 0.0667 0 0.1684-0.003514 0.10524-0.007014 0.19997-0.0315777 0.0947-0.0280639 0.16138-0.0877068 0.0702-0.0596416 0.0702-0.16839668 0-0.0982309-0.0386-0.1543634-0.0386-0.0596416-0.11226-0.09823162-0.0737-0.04209917-0.18243-0.07367355-0.10525-0.03157769-0.23856-0.07367354-0.421-0.11226423-0.69464-0.27013612t-0.43503-0.35082664q-0.15787-0.19646257-0.22101-0.42099111-0.0631-0.2245291-0.0631-0.4736156 0-0.2911864 0.11577-0.5297481 0.11578-0.2385618 0.32978-0.4069584 0.214-0.1719052 0.5122-0.2631199 0.2982-0.094723 0.66307-0.094723 0.22102 0 0.41397 0.038592 0.19295 0.035085 0.36837 0.1157727 0.17541 0.077182 0.3403 0.2034796 0.1684 0.122789 0.33329 0.2946942 0.0597 0.070165 0.0597 0.1333138 3e-3 0.059642-0.0772 0.129806-0.13682 0.1122642-0.26312 0.2210206-0.12279 0.1087558-0.2561 0.2420702-0.0421 0.035085-0.0842 0.045606-0.0421 0.00701-0.0807-0.00351-0.0386-0.010521-0.0737-0.035085-0.0351-0.024557-0.0631-0.059642-0.12279-0.1368223-0.28066-0.1824299-0.15787-0.049114-0.29469-0.049114-0.17191 0-0.27365 0.059642t-0.0947 0.1824299q7e-3 0.091215 0.0667 0.1438387 0.0631 0.049113 0.15086 0.08069 0.0912 0.031578 0.18944 0.052621 0.10174 0.017542 0.18594 0.042099 0.31575 0.1017401 0.57887 0.2210207 0.26312 0.11928121 0.45607 0.2946942 0.19296 0.17190516 0.29821 0.41397539 0.10875 0.24207022 0.10875 0.58938837t-0.14033 0.62096275q-0.13682 0.27364459-0.37889 0.45958239-0.24207 0.1859377-0.57536 0.2841694-0.32978 0.098232-0.71218 0.098232-0.21751 0-0.44204-0.038592t-0.43502-0.1227891q-0.2105-0.087707-0.39995-0.2210206-0.18944-0.1368223-0.33679-0.32977702-0.0386-0.0491135-0.0597-0.10173944-0.0176-0.0561344-0.0176-0.10875641 3e-3 -0.0526206 0.0211-0.0947231 0.021-0.0456063 0.0631-0.0771814l0.45256-0.45256607q0.0842-0.07016573 0.14735-0.04911349 0.0667 0.02104959 0.1684 0.1192812z" style="font-feature-settings:normal;font-variant-caps:normal;font-variant-ligatures:normal;font-variant-numeric:normal"/>
   <path d="m204.82144-3.5856047q0-0.1087564 0.0702-0.1613804 0.0737-0.056134 0.20699-0.1052479l0.79637-0.2771525q0.0176-0.00351 0.0316-0.00351 0.0176 0 0.0316 0 0.1298 0 0.1719 0.077182 0.0456 0.073673 0.0456 0.1964626l-3e-3 1.1051032h0.58588q0.11227 0 0.18243 0.066657 0.0702 0.066657 0.0702 0.1999711v0.6770945q0 0.1473471-0.0702 0.2175128-0.0702 0.066657-0.18243 0.066657h-0.58588l3e-3 2.8206444q0 0.1333138-0.0772 0.2034795-0.0772 0.066657-0.214 0.066657h-0.79287q-0.27014 0-0.27014-0.2701361l-3e-3 -2.8206444h-0.25611q-0.27013 0-0.27013-0.2841694v-0.6770892q0-0.2666283 0.27013-0.2666283h0.25611z" style="font-feature-settings:normal;font-variant-caps:normal;font-variant-ligatures:normal;font-variant-numeric:normal"/>
   <path d="m212.04189 1.3049153q0 0.059642-0.0211 0.1157727-0.021 0.052627-0.0702 0.084198-0.0386 0.038592-0.0912 0.049114-0.0526 0.010528-0.0912 0.010528h-0.69113q-0.0737 0-0.11927-0.017542-0.0456-0.02105-0.0737-0.056134-0.028-0.035085-0.0491-0.084198-0.0176-0.052621-0.0386-0.1122642l-0.10174-0.2631198q-0.0947 0.094723-0.20699 0.2034795-0.11226 0.1052479-0.24908 0.1964626-0.13332 0.091215-0.29119 0.1508556-0.15788 0.063149-0.33679 0.063149-0.31925 0-0.61395-0.080691-0.29119-0.08069-0.54729-0.228037-0.25259-0.1508555-0.45958-0.3578429-0.20699-0.21049585-0.35784-0.46659935-0.14735-0.25610284-0.22804-0.55079703-0.0807-0.29820267-0.0807-0.62096275 0-0.48764897 0.17892-0.90513217 0.17892-0.4209917 0.48765-0.7297191 0.30872-0.3122353 0.72621-0.4876483 0.41748-0.1789215 0.89461-0.1789215 0.21751 0 0.39994 0.066657 0.18242 0.063149 0.32977 0.1683967 0.15086 0.1052479 0.27014 0.2385624 0.12279 0.1333138 0.21752 0.2701361l0.13681-0.4245002q0.0351-0.087706 0.0562-0.1403301 0.0245-0.056134 0.0491-0.08069 0.028-0.028064 0.0667-0.035085 0.0386-0.010521 0.10876-0.010521h0.52273q0.0386 0 0.0912 0.010521 0.0526 0.010522 0.0912 0.049114 0.0491 0.038592 0.0702 0.087707 0.0211 0.049114 0.0211 0.1122643zm-3.45564-1.96462774q0 0.23154543 0.0702 0.43502431 0.0737 0.19997106 0.20699 0.34731815 0.13332 0.14734709 0.31925 0.23505392 0.18945 0.0841983 0.41749 0.0841983 0.23505 0 0.43502-0.0841983 0.20349-0.0877068 0.35083-0.23505392 0.15086-0.14734709 0.23506-0.34731815 0.0842-0.20347888 0.0842-0.43502431 0-0.22452913-0.0842-0.42800796-0.0842-0.2034796-0.23506-0.357843-0.14734-0.1543641-0.35083-0.2420702-0.19997-0.091215-0.43502-0.091215-0.22804 0-0.41749 0.091215-0.18593 0.087706-0.31925 0.2420702-0.13331 0.1543634-0.20699 0.357843-0.0702 0.20347883-0.0702 0.42800796z" style="font-feature-settings:normal;font-variant-caps:normal;font-variant-ligatures:normal;font-variant-numeric:normal"/>
   <path d="m215.73566 0.19279574q0.0491-0.0350849 0.0912-0.0420992 0.0456-0.0105281 0.0702-0.0105281 0.0597 0 0.10876 0.0245567 0.0491 0.0245567 0.10174 0.10524792l0.3929 0.59289694q0.0176 0.0280639 0.0316 0.0631487 0.0176 0.0350848 0.0176 0.0561344 0 0.0806898-0.0526 0.1333138-0.0491 0.049114-0.10875 0.087707-0.28768 0.1999711-0.63149 0.3227601-0.34031 0.1192812-0.72271 0.1192812-0.31574 0-0.61043-0.080691-0.29119-0.08069-0.54379-0.228037-0.25259-0.1508555-0.46309-0.35784289-0.21049-0.21049585-0.35784-0.46659935-0.14735-0.25610284-0.23155-0.55079703-0.0807-0.29820267-0.0807-0.62096275t0.0807-0.62096278q0.0842-0.2982027 0.23155-0.5507977 0.14735-0.2561028 0.35784-0.4630908 0.2105-0.2104959 0.46309-0.357843 0.2526-0.1473471 0.54379-0.2280369 0.29469-0.08069 0.61043-0.08069 0.3824 0 0.70517 0.1017395 0.32626 0.1017394 0.61044 0.3017104l-0.0106-0.010528q0.0772 0.045606 0.1228 0.1087565 0.0456 0.059642 0.0456 0.1508555 0 0.063149-0.0421 0.1298054l-0.31224 0.5297481q-0.0982 0.1719051-0.23856 0.1719051-0.0316 0-0.0772-0.014035-0.0456-0.017543-0.10174-0.056134-0.15436-0.1017394-0.33328-0.1648882-0.17542-0.066657-0.37539-0.066657-0.22102 0-0.40695 0.091215-0.18594 0.087706-0.31926 0.2420702-0.12981 0.1543634-0.20348 0.357843-0.0737 0.20347886-0.0737 0.42800799 0 0.23154543 0.0737 0.43502431 0.0737 0.19997105 0.20348 0.34731815 0.13332 0.14734709 0.31926 0.23505392 0.18593 0.0841983 0.40695 0.0841983 0.19997 0 0.37539-0.0701651 0.17541-0.0701657 0.33328-0.17892147z" style="font-feature-settings:normal;font-variant-caps:normal;font-variant-ligatures:normal;font-variant-numeric:normal"/>
   <path d="m217.21044-2.6173238q0-0.1122643 0.0631-0.1929548 0.0631-0.08069 0.19646-0.08069h0.8034q0.0421 0 0.0912 0.02105 0.0491 0.017543 0.0912 0.056135 0.0421 0.035085 0.0702 0.084198 0.0316 0.049114 0.0316 0.1122643v3.9117143q0 0.1333138-0.0737 0.2034795-0.0737 0.066657-0.2105 0.066657h-0.8034q-0.25961 0-0.25961-0.2701361zm0-1.7751815q0-0.1473471 0.0631-0.206988 0.0631-0.063149 0.19646-0.063149h0.81392q0.12279 0 0.19646 0.063149 0.0772 0.059642 0.0772 0.206988v0.6841115q0 0.042099-0.021 0.091215-0.0176 0.049113-0.0526 0.094723-0.0351 0.045606-0.0877 0.077182-0.0491 0.028064-0.11226 0.028064h-0.81392q-0.25961 0-0.25961-0.2911857z" style="font-feature-settings:normal;font-variant-caps:normal;font-variant-ligatures:normal;font-variant-numeric:normal"/>
   <path d="m219.25609-0.65971244q0-0.32276008 0.0807-0.62096276 0.0842-0.2982027 0.23155-0.5507977 0.15085-0.2561028 0.35784-0.4630909 0.2105-0.2104958 0.4666-0.3578429t0.55079-0.2280369q0.2982-0.08069 0.62097-0.08069 0.47712 0 0.8946 0.1789215 0.421 0.175413 0.72972 0.4876482 0.31224 0.3087275 0.49116 0.7297192 0.18243 0.4174832 0.18243 0.90513216 0 0.32276008-0.0842 0.62096275-0.0807 0.29469419-0.23154 0.55079703-0.14735 0.2561035-0.35785 0.46659935-0.20698 0.20698741-0.46309 0.35784291-0.2561 0.1473471-0.55079 0.228037-0.29119 0.080691-0.61044 0.080691-0.32277 0-0.62097-0.080691-0.29469-0.08069-0.55079-0.228037-0.2561-0.1508555-0.4666-0.35784291-0.20699-0.21049585-0.35784-0.46659935-0.14735-0.25610284-0.23155-0.55079703-0.0807-0.29820267-0.0807-0.62096265zm1.28052 0q0 0.23154543 0.0702 0.43502431 0.0737 0.19997106 0.20348 0.34731815 0.13331 0.14734709 0.31925 0.23505392 0.18945 0.0841983 0.4245 0.0841983 0.22804 0 0.41047-0.0841983 0.18593-0.0877068 0.31223-0.23505392 0.12981-0.14734709 0.19647-0.34731815 0.0702-0.20347888 0.0702-0.43502431 0-0.22452913-0.0702-0.42800796-0.0667-0.2034796-0.19647-0.357843-0.1263-0.1543641-0.31223-0.2420702-0.18243-0.091215-0.41047-0.091215-0.23505 0-0.4245 0.091215-0.18594 0.087706-0.31925 0.2420702-0.1298 0.1543634-0.20348 0.357843-0.0702 0.20347883-0.0702 0.42800796z" style="font-feature-settings:normal;font-variant-caps:normal;font-variant-ligatures:normal;font-variant-numeric:normal"/>
   <path d="m224.65059-2.8313282q0.0456-0.038592 0.0947-0.049113 0.0526-0.010521 0.0982-0.010521h0.52976q0.0631 0 0.10875 0.024557 0.0456 0.02105 0.0772 0.059642t0.0491 0.087707q0.0211 0.049113 0.0386 0.1017395l0.10876 0.4490576q0.0526-0.1087558 0.15085-0.2455781 0.10174-0.1403308 0.2561-0.259612 0.15437-0.122789 0.36486-0.2034789 0.21401-0.084198 0.49467-0.084198 0.39994 0 0.72621 0.1543634t0.55431 0.4209917q0.23154 0.2666283 0.35784 0.6244712 0.1263 0.3543345 0.1263 0.7577851v2.2979126q0 0.1333138-0.0597 0.2034795-0.0562 0.066657-0.18243 0.066657h-0.81041q-0.15085 0-0.20699-0.049114-0.0562-0.052621-0.0562-0.1999711v-2.28387991q0-0.15085489-0.0702-0.28416939-0.0667-0.1368223-0.17893-0.2385618-0.11226-0.1052479-0.2561-0.1648881-0.14033-0.059642-0.28767-0.059642-0.1263 0-0.25962 0.056134-0.1298 0.056134-0.24207 0.1578719-0.10875 0.098232-0.18594 0.2350539-0.0737 0.1333138-0.0842 0.2911857v2.2803715q0 0.059642-0.0245 0.1192812-0.0211 0.059642-0.0667 0.091215-0.0456 0.028064-0.0877 0.038592-0.0386 0.010528-0.0912 0.010528h-0.79287q-0.15085 0-0.21751-0.073673-0.0667-0.073674-0.0667-0.1964626v-3.9257476q0-0.066657 0.028-0.122789 0.0316-0.056134 0.0842-0.087707z" style="font-feature-settings:normal;font-variant-caps:normal;font-variant-ligatures:normal;font-variant-numeric:normal"/>
   <path d="m234.15355 1.3049153q0 0.059642-0.0211 0.1157727-0.021 0.052627-0.0702 0.084198-0.0386 0.038592-0.0912 0.049114-0.0526 0.010528-0.0912 0.010528h-0.69113q-0.0737 0-0.11928-0.017542-0.0456-0.02105-0.0737-0.056134-0.0281-0.035085-0.0491-0.084198-0.0176-0.052621-0.0386-0.1122642l-0.10174-0.2631198q-0.0947 0.094723-0.20698 0.2034795-0.11227 0.1052479-0.24909 0.1964626-0.13331 0.091215-0.29118 0.1508556-0.15788 0.063149-0.3368 0.063149-0.31925 0-0.61394-0.080691-0.29119-0.08069-0.54729-0.228037-0.2526-0.1508555-0.45958-0.3578429-0.20699-0.21049585-0.35785-0.46659935-0.14734-0.25610284-0.22804-0.55079703-0.0807-0.29820267-0.0807-0.62096275 0-0.48764897 0.17893-0.90513217 0.17892-0.4209917 0.48765-0.7297191 0.30872-0.3122353 0.7262-0.4876483 0.41749-0.1789215 0.89461-0.1789215 0.21751 0 0.39995 0.066657 0.18242 0.063149 0.32977 0.1683967 0.15086 0.1052479 0.27014 0.2385624 0.12279 0.1333138 0.21751 0.2701361l0.13682-0.4245002q0.0351-0.087706 0.0562-0.1403301 0.0245-0.056134 0.0491-0.08069 0.0281-0.028064 0.0667-0.035085 0.0386-0.010521 0.10875-0.010521h0.52274q0.0386 0 0.0912 0.010521 0.0526 0.010522 0.0912 0.049114 0.0491 0.038592 0.0702 0.087707 0.0211 0.049114 0.0211 0.1122643zm-3.45564-1.96462774q0 0.23154543 0.0702 0.43502431 0.0737 0.19997106 0.20699 0.34731815 0.13332 0.14734709 0.31925 0.23505392 0.18945 0.0841983 0.41749 0.0841983 0.23505 0 0.43502-0.0841983 0.20348-0.0877068 0.35083-0.23505392 0.15086-0.14734709 0.23505-0.34731815 0.0842-0.20347888 0.0842-0.43502431 0-0.22452913-0.0842-0.42800796-0.0842-0.2034796-0.23505-0.357843-0.14735-0.1543641-0.35083-0.2420702-0.19997-0.091215-0.43502-0.091215-0.22804 0-0.41749 0.091215-0.18593 0.087706-0.31925 0.2420702-0.13331 0.1543634-0.20699 0.357843-0.0702 0.20347883-0.0702 0.42800796z" style="font-feature-settings:normal;font-variant-caps:normal;font-variant-ligatures:normal;font-variant-numeric:normal"/>
   <path d="m235.09316-2.8313282q0.0456-0.038592 0.0947-0.049113 0.0526-0.010521 0.0982-0.010521h0.52975q0.0631 0 0.10876 0.024557 0.0456 0.02105 0.0772 0.059642t0.0491 0.087707q0.0211 0.049113 0.0386 0.1017395l0.10876 0.4490576q0.0526-0.1087558 0.12629-0.2455781 0.0772-0.1403308 0.19998-0.259612 0.1263-0.122789 0.31224-0.2034789 0.18944-0.084198 0.4701-0.084198 0.44906 0 0.78585 0.1929541 0.33679 0.1894463 0.55431 0.512207 0.0667-0.1087564 0.18243-0.2315454 0.11577-0.1262975 0.27715-0.2315455 0.16138-0.1052479 0.36837-0.1719051 0.21049-0.070165 0.46309-0.070165 0.39994 0 0.71218 0.1543634 0.31574 0.1543634 0.53325 0.4209917 0.22103 0.2666283 0.33329 0.6244712 0.11577 0.3543345 0.11577 0.7577851v2.2979126q0 0.1333138-0.0597 0.2034795-0.0562 0.066657-0.18244 0.066657h-0.8104q-0.15086 0-0.20699-0.049114-0.0561-0.052621-0.0561-0.1999711v-2.3189621q0-0.1508556-0.0491-0.2806616-0.0456-0.1298053-0.12981-0.2245285-0.0842-0.098232-0.20698-0.1508555-0.11929-0.056134-0.26664-0.056134-0.13331 0-0.25259 0.052621t-0.2105 0.1473471q-0.0912 0.091215-0.14734 0.2245291-0.0526 0.129806-0.0526 0.2876779v2.2979126q0 0.1333138-0.0597 0.2034795-0.0562 0.066657-0.18243 0.066657h-0.81046q-0.15086 0-0.20699-0.049114-0.0562-0.052621-0.0562-0.1999711v-2.3189621q0-0.1508556-0.0456-0.2806616-0.0421-0.1298053-0.1263-0.2245285-0.0807-0.098232-0.19997-0.1508555-0.11577-0.056134-0.26312-0.056134-0.12629 0-0.24909 0.052621-0.11928 0.049114-0.21751 0.1438392-0.0947 0.091215-0.16138 0.2210207-0.0631 0.1298053-0.0737 0.2876772v2.3154543q0 0.059642-0.0245 0.1192812-0.0211 0.059642-0.0667 0.091215-0.0456 0.028064-0.0877 0.038592-0.0386 0.010528-0.0912 0.010528h-0.79287q-0.15086 0-0.21751-0.073674-0.0667-0.073673-0.0667-0.1964625v-3.9257476q0-0.066657 0.0281-0.122789 0.0315-0.056135 0.0842-0.087707z" style="font-feature-settings:normal;font-variant-caps:normal;font-variant-ligatures:normal;font-variant-numeric:normal"/>
   <path d="m242.4809-2.6173238q0-0.1122643 0.0631-0.1929548 0.0632-0.08069 0.19646-0.08069h0.8034q0.0421 0 0.0912 0.02105 0.0491 0.017543 0.0912 0.056135 0.0421 0.035085 0.0702 0.084198 0.0316 0.049114 0.0316 0.1122643v3.9117143q0 0.1333138-0.0737 0.2034795-0.0737 0.066657-0.2105 0.066657h-0.80339q-0.25961 0-0.25961-0.2701361zm0-1.7751815q0-0.1473471 0.0631-0.206988 0.0632-0.063149 0.19646-0.063149h0.81392q0.12279 0 0.19647 0.063149 0.0772 0.059642 0.0772 0.206988v0.6841115q0 0.042099-0.0211 0.091215-0.0176 0.049113-0.0526 0.094723-0.0351 0.045606-0.0877 0.077182-0.0491 0.028064-0.11227 0.028064h-0.81391q-0.25961 0-0.25961-0.2911857z" style="font-feature-settings:normal;font-variant-caps:normal;font-variant-ligatures:normal;font-variant-numeric:normal"/>
   <path d="m248.39617 1.0312707q-0.30873 0.2841693-0.69464 0.4455497-0.38591 0.1578719-0.81743 0.1578719-0.48063 0-0.90864-0.1754136-0.428-0.175413-0.75077-0.4841405-0.32275-0.31223528-0.5122-0.73322698t-0.18945-0.91565694q0-0.3087268 0.0737-0.59640468 0.0772-0.2911857 0.21401-0.5437807 0.14033-0.252595 0.3368-0.4630909 0.19996-0.2140043 0.44555-0.3648599 0.24557-0.1508549 0.53325-0.2350533 0.28768-0.084198 0.60693-0.084198 0.29119 0 0.56483 0.077181 0.27365 0.077182 0.51221 0.2175128 0.24207 0.1403301 0.44204 0.3367933 0.19997 0.1964626 0.3438 0.4315165 0.14384 0.2315455 0.22103 0.4981731 0.0807 0.2631198 0.0807 0.54378072 0 0.18242996-7e-3 0.29820268-3e-3 0.11577271-0.0526 0.18593778-0.0491 0.0666572-0.16489 0.0947231-0.11226 0.0245567-0.33328 0.0245567h-2.52595q0.0351 0.22452913 0.14033 0.37538404 0.10875 0.15085558 0.24909 0.24207023 0.14032 0.0877068 0.2982 0.12629751 0.15787 0.038592 0.2982 0.038592 0.1263 0 0.25961-0.0245568 0.13332-0.0280639 0.25611-0.0701651 0.12629-0.0456063 0.22803-0.1017401 0.10525-0.0596416 0.1684-0.12278902 0.0562-0.0456063 0.0947-0.0666572 0.0421-0.0245568 0.0877-0.0245568t0.0912 0.0315777q0.0491 0.0315777 0.10876 0.0912147l0.37187 0.4209917q0.0386 0.0456063 0.0491 0.0841983 0.0105 0.0350849 0.0105 0.0736735 0 0.0701651-0.0386 0.12278903-0.0386 0.0491135-0.0912 0.0877068zm-1.68748-2.9223839q-0.13682 0-0.26663 0.056134-0.12629 0.052621-0.23856 0.1438386-0.11227 0.091215-0.20348 0.2069874-0.0877 0.1157727-0.14384 0.2350539h1.79272q-0.0737-0.1368223-0.16137-0.252595-0.0842-0.1157728-0.19647-0.2034796-0.10875-0.087706-0.25259-0.1368223-0.14033-0.049114-0.32978-0.049114z" style="font-feature-settings:normal;font-variant-caps:normal;font-variant-ligatures:normal;font-variant-numeric:normal"/>
   <path d="m249.7292-2.8313282q0.0456-0.038592 0.0947-0.049113 0.0526-0.010521 0.0982-0.010521h0.52975q0.0632 0 0.10875 0.024557 0.0456 0.02105 0.0772 0.059642t0.0491 0.087707q0.021 0.049113 0.0386 0.1017395l0.10876 0.4490576q0.0526-0.1087558 0.15085-0.2455781 0.10174-0.1403308 0.2561-0.259612 0.15437-0.122789 0.36487-0.2034789 0.214-0.084198 0.49466-0.084198 0.39994 0 0.72621 0.1543634t0.55431 0.4209917q0.23154 0.2666283 0.35784 0.6244712 0.1263 0.3543345 0.1263 0.7577851v2.2979126q0 0.1333138-0.0597 0.2034795-0.0562 0.066657-0.18243 0.066657h-0.81041q-0.15085 0-0.20699-0.049114-0.0562-0.052621-0.0562-0.1999711v-2.28387991q0-0.15085489-0.0702-0.28416939-0.0667-0.1368223-0.17892-0.2385618-0.11227-0.1052479-0.2561-0.1648881-0.14034-0.059642-0.28768-0.059642-0.1263 0-0.25961 0.056134-0.12981 0.056134-0.24208 0.1578719-0.10875 0.098232-0.18593 0.2350539-0.0737 0.1333138-0.0842 0.2911857v2.2803715q0 0.059642-0.0245 0.1192812-0.021 0.059642-0.0667 0.091215-0.0456 0.028064-0.0877 0.038592-0.0386 0.010528-0.0912 0.010528h-0.79287q-0.15085 0-0.21751-0.073673-0.0667-0.073674-0.0667-0.1964626v-3.9257476q0-0.066657 0.028-0.122789 0.0316-0.056134 0.0842-0.087707z" style="font-feature-settings:normal;font-variant-caps:normal;font-variant-ligatures:normal;font-variant-numeric:normal"/>
   <path d="m254.97866-3.5856047q0-0.1087564 0.0702-0.1613804 0.0737-0.056134 0.20699-0.1052479l0.79638-0.2771525q0.0176-0.00351 0.0316-0.00351 0.0176 0 0.0315 0 0.12981 0 0.17191 0.077182 0.0456 0.073673 0.0456 0.1964626l-3e-3 1.1051032h0.58588q0.11226 0 0.18243 0.066657 0.0702 0.066657 0.0702 0.1999711v0.6770945q0 0.1473471-0.0702 0.2175128-0.0702 0.066657-0.18243 0.066657h-0.58588l3e-3 2.8206444q0 0.1333138-0.0772 0.2034795-0.0772 0.066657-0.21401 0.066657h-0.79286q-0.27014 0-0.27014-0.2701361l-3e-3 -2.8206444h-0.2561q-0.27014 0-0.27014-0.2841694v-0.6770892q0-0.2666283 0.27014-0.2666283h0.2561z" style="font-feature-settings:normal;font-variant-caps:normal;font-variant-ligatures:normal;font-variant-numeric:normal"/>
   <path d="m257.47698-0.65971244q0-0.32276008 0.0807-0.62096276 0.0842-0.2982027 0.23154-0.5507977 0.15086-0.2561028 0.35785-0.4630909 0.21049-0.2104958 0.4666-0.3578429 0.2561-0.1473471 0.55079-0.2280369 0.29821-0.08069 0.62097-0.08069 0.47712 0 0.8946 0.1789215 0.42099 0.175413 0.72972 0.4876482 0.31224 0.3087275 0.49116 0.7297192 0.18243 0.4174832 0.18243 0.90513216 0 0.32276008-0.0842 0.62096275-0.0807 0.29469419-0.23154 0.55079703-0.14735 0.2561035-0.35785 0.46659935-0.20699 0.20698741-0.46309 0.35784291-0.2561 0.1473471-0.55079 0.228037-0.29119 0.080691-0.61044 0.080691-0.32276 0-0.62097-0.080691-0.29469-0.08069-0.55079-0.228037-0.25611-0.1508555-0.4666-0.35784291-0.20699-0.21049585-0.35785-0.46659935-0.14734-0.25610284-0.23154-0.55079703-0.0807-0.29820267-0.0807-0.62096265zm1.28052 0q0 0.23154543 0.0702 0.43502431 0.0737 0.19997106 0.20348 0.34731815 0.13331 0.14734709 0.31925 0.23505392 0.18945 0.0841983 0.4245 0.0841983 0.22804 0 0.41047-0.0841983 0.18594-0.0877068 0.31224-0.23505392 0.1298-0.14734709 0.19646-0.34731815 0.0702-0.20347888 0.0702-0.43502431 0-0.22452913-0.0702-0.42800796-0.0667-0.2034796-0.19646-0.357843-0.1263-0.1543641-0.31224-0.2420702-0.18243-0.091215-0.41047-0.091215-0.23505 0-0.4245 0.091215-0.18594 0.087706-0.31925 0.2420702-0.1298 0.1543634-0.20348 0.357843-0.0702 0.20347883-0.0702 0.42800796z" style="font-feature-settings:normal;font-variant-caps:normal;font-variant-ligatures:normal;font-variant-numeric:normal"/>
   <path d="m195.90273 9.6603334q0.09 0.074083 0.22755 0.2010833 0.14287 0.1217084 0.32279 0.2434163 0.26987 0.179917 0.53446 0.280459 0.26458 0.100541 0.55562 0.100541 0.26988 0 0.44979-0.05821 0.18521-0.0635 0.29104-0.164042 0.10584-0.100541 0.14817-0.232833 0.0476-0.1322916 0.0476-0.2804583 0-0.1640416-0.127-0.2910416-0.12171-0.1322917-0.30163-0.2328334-0.17992-0.1005416-0.37571-0.1693333-0.19579-0.074083-0.33866-0.1217083-0.635-0.22225-1.11125-0.47625-0.47625-0.2592917-0.79375-0.5715-0.3175-0.3175-0.47625-0.6932083-0.15875-0.381-0.15875-0.8466666 0-0.492125 0.19579-0.8942917 0.20108-0.4021666 0.56621-0.6879166 0.37041-0.28575 0.889-0.4392083 0.51858-0.15875 1.15887-0.15875 0.48154 0 0.92075 0.111125 0.4445 0.1058333 0.87313 0.3439583 0.17991 0.1058333 0.33866 0.22225 0.16404 0.111125 0.28575 0.2169583t0.1905 0.2010833q0.0741 0.09525 0.0741 0.1640417 0 0.068792-0.0371 0.127-0.0317 0.058208-0.10054 0.1322917l-0.80962 0.8625416q-0.09 0.089958-0.17992 0.089958-0.0741 0-0.13758-0.042333-0.0582-0.042333-0.13229-0.1058333l-0.0476-0.042333q-0.10583-0.089958-0.23812-0.1852083-0.127-0.09525-0.27517-0.1693333-0.14817-0.079375-0.31221-0.127-0.16404-0.052917-0.33337-0.052917-0.17463 0-0.32809 0.03175-0.15346 0.026458-0.26987 0.089958-0.11642 0.0635-0.18521 0.1693334-0.0688 0.1005416-0.0688 0.2487083t0.0741 0.2592917q0.0741 0.1058333 0.22225 0.2010833 0.14817 0.089958 0.36513 0.174625 0.22225 0.079375 0.51329 0.174625 0.56091 0.1852083 1.03187 0.3915833 0.47625 0.2010833 0.82021 0.4815416 0.34396 0.2751667 0.53446 0.6614584 0.19579 0.3862916 0.19579 0.9366249 0 0.5820835-0.23813 1.0583335-0.23812 0.470958-0.65616 0.804333-0.41275 0.333375-0.97367 0.518584-0.56091 0.179916-1.2065 0.179916-0.60854 0-1.19591-0.216958-0.58738-0.216958-1.09538-0.582083-0.21167-0.153459-0.35983-0.301625-0.14288-0.148167-0.22754-0.238125l-0.0159-0.01587q-5e-3 -0.01058-0.0106-0.01058-5e-3 -0.0053-0.0106-0.01058-5e-3 -0.01058-0.0106-0.01058-5e-3 -0.0053-0.0106-0.01058-0.12171-0.132291-0.12171-0.211666 0-0.08996 0.12171-0.201084l0.91546-0.8731248q0.11112-0.079375 0.17991-0.079375 0.0476 0 0.10054 0.03175 0.0529 0.03175 0.127 0.09525z" style="font-feature-settings:normal;font-variant-caps:normal;font-variant-ligatures:normal;font-variant-numeric:normal"/>
   <path d="m208.55775 11.803458q0 0.08996-0.0317 0.174625-0.0318 0.07938-0.10583 0.127-0.0582 0.05821-0.13758 0.07408-0.0794 0.01588-0.13759 0.01588h-1.04245q-0.11113 0-0.17992-0.02646-0.0688-0.03175-0.11113-0.08467-0.0423-0.05292-0.0741-0.127-0.0265-0.07938-0.0582-0.169334l-0.15346-0.396875q-0.14287 0.142875-0.3122 0.306917-0.16934 0.15875-0.37571 0.296333-0.20109 0.137584-0.43921 0.227542-0.23813 0.09525-0.508 0.09525-0.48154 0-0.92604-0.121708-0.43921-0.121709-0.8255-0.343959-0.381-0.227541-0.69321-0.53975-0.31221-0.3175-0.53975-0.703791-0.22225-0.386292-0.34396-0.8307919-0.12171-0.4497917-0.12171-0.936625 0-0.7355417 0.26988-1.36525 0.26987-0.6349999 0.73554-1.1006666 0.46567-0.4709583 1.09537-0.7355416 0.62971-0.269875 1.34938-0.269875 0.32808 0 0.60325 0.1005416 0.27517 0.09525 0.49742 0.254 0.22754 0.15875 0.40745 0.3598333 0.18521 0.2010834 0.32809 0.4074584l0.20637-0.6402917q0.0529-0.1322916 0.0847-0.2116666 0.037-0.084667 0.0741-0.1217084 0.0423-0.042333 0.10054-0.052917 0.0582-0.015875 0.16405-0.015875h0.78845q0.0582 0 0.13759 0.015875 0.0794 0.015875 0.13758 0.074083 0.0741 0.058208 0.10583 0.1322917 0.0317 0.074083 0.0317 0.1693333zm-5.21229-2.9633329q0 0.34925 0.10584 0.6561666 0.11112 0.301625 0.3122 0.5238753 0.20109 0.22225 0.48155 0.354541 0.28575 0.127 0.6297 0.127 0.35455 0 0.65617-0.127 0.30692-0.132291 0.52917-0.354541 0.22754-0.2222503 0.35454-0.5238753 0.127-0.3069166 0.127-0.6561666 0-0.3386667-0.127-0.6455833-0.127-0.3069167-0.35454-0.53975-0.22225-0.2328333-0.52917-0.365125-0.30162-0.1375833-0.65617-0.1375833-0.34395 0-0.6297 0.1375833-0.28046 0.1322917-0.48155 0.365125-0.20108 0.2328333-0.3122 0.53975-0.10584 0.3069166-0.10584 0.6455833z" style="font-feature-settings:normal;font-variant-caps:normal;font-variant-ligatures:normal;font-variant-numeric:normal"/>
   <path d="m209.96468 5.5645835q0.0688-0.058208 0.14287-0.074083 0.0794-0.015875 0.14817-0.015875h0.79904q0.0953 0 0.16404 0.037042 0.0688 0.03175 0.11642 0.089958 0.0476 0.058208 0.0741 0.1322917 0.0317 0.074083 0.0582 0.1534583l0.16404 0.6773333q0.0794-0.1640417 0.22754-0.3704167 0.15346-0.2116666 0.38629-0.3915833 0.23284-0.1852083 0.55034-0.3069166 0.32279-0.127 0.74612-0.127 0.60325 0 1.09538 0.2328333 0.49212 0.2328333 0.83608 0.635 0.34925 0.4021666 0.53975 0.9419166 0.1905 0.5344583 0.1905 1.143v3.4660409q0 0.201084-0.09 0.306917-0.0847 0.100542-0.27516 0.100542h-1.22238q-0.22754 0-0.31221-0.07408-0.0847-0.07938-0.0847-0.301625v-3.4448786q0-0.2275416-0.10584-0.4286249-0.10054-0.206375-0.26987-0.3598334-0.16934-0.15875-0.38629-0.2487083-0.21167-0.089958-0.43392-0.089958-0.1905 0-0.39158 0.084667-0.1958 0.084667-0.36513 0.238125-0.16404 0.1481667-0.28046 0.3545417-0.11112 0.2010833-0.127 0.4392083v3.4395832q0 0.08996-0.037 0.179917-0.0317 0.08996-0.10054 0.137583-0.0688 0.04233-0.13229 0.05821-0.0582 0.01588-0.13759 0.01588h-1.19591q-0.22754 0-0.32809-0.111125-0.10054-0.111125-0.10054-0.296334v-5.9213815q0-0.1005417 0.0423-0.1852083 0.0476-0.084667 0.127-0.1322917z" style="font-feature-settings:normal;font-variant-caps:normal;font-variant-ligatures:normal;font-variant-numeric:normal"/>
   <path d="m221.45933 4.5697502q0.0106-0.09525 0.0741-0.1640416 0.0635-0.068792 0.17991-0.068792h1.83092q0.19579 0 0.254 0.2010833l1.43933 4.8048332 1.44992-4.8048332q0.0741-0.2010833 0.26988-0.2010833h1.80975q0.0952 0 0.16933 0.068792 0.0794 0.0635 0.09 0.1640416 0.18521 1.8626666 0.37571 3.6988749 0.19579 1.8309169 0.381 3.6935829v0.02646q0 0.206375-0.23284 0.206375h-1.49754q-0.24342 0-0.254-0.232834l-0.46037-4.0904579-1.19063 4.1169169q-0.0106 0.05292-0.0794 0.127-0.0635 0.07408-0.127 0.07408h-1.39171q-0.0635 0-0.13759-0.06879-0.0688-0.07408-0.0741-0.132291l-1.19062-4.1063335-0.46038 4.0798745q-0.0106 0.232834-0.25929 0.232834h-1.49754q-0.22754 0-0.22754-0.232834z" style="font-feature-settings:normal;font-variant-caps:normal;font-variant-ligatures:normal;font-variant-numeric:normal"/>
   <path d="m237.55857 11.803458q0 0.08996-0.0318 0.174625-0.0317 0.07938-0.10584 0.127-0.0582 0.05821-0.13758 0.07408-0.0794 0.01588-0.13758 0.01588h-1.04246q-0.11113 0-0.17992-0.02646-0.0688-0.03175-0.11112-0.08467-0.0423-0.05292-0.0741-0.127-0.0264-0.07938-0.0582-0.169334l-0.15346-0.396875q-0.14288 0.142875-0.31221 0.306917-0.16933 0.15875-0.37571 0.296333-0.20108 0.137584-0.43921 0.227542-0.23812 0.09525-0.508 0.09525-0.48154 0-0.92604-0.121708-0.43921-0.121709-0.8255-0.343959-0.381-0.227541-0.69321-0.53975-0.31221-0.3175-0.53975-0.703791-0.22225-0.386292-0.34396-0.8307919-0.1217-0.4497917-0.1217-0.936625 0-0.7355417 0.26987-1.36525 0.26988-0.6349999 0.73554-1.1006666 0.46567-0.4709583 1.09538-0.7355416 0.62971-0.269875 1.34937-0.269875 0.32809 0 0.60325 0.1005416 0.27517 0.09525 0.49742 0.254 0.22754 0.15875 0.40746 0.3598333 0.18521 0.2010834 0.32808 0.4074584l0.20638-0.6402917q0.0529-0.1322916 0.0847-0.2116666 0.037-0.084667 0.0741-0.1217084 0.0423-0.042333 0.10054-0.052917 0.0582-0.015875 0.16404-0.015875h0.78846q0.0582 0 0.13758 0.015875 0.0794 0.015875 0.13758 0.074083 0.0741 0.058208 0.10584 0.1322917 0.0318 0.074083 0.0318 0.1693333zm-5.21229-2.9633329q0 0.34925 0.10583 0.6561666 0.11112 0.301625 0.31221 0.5238753 0.20108 0.22225 0.48154 0.354541 0.28575 0.127 0.62971 0.127 0.35454 0 0.65616-0.127 0.30692-0.132291 0.52917-0.354541 0.22754-0.2222503 0.35454-0.5238753 0.127-0.3069166 0.127-0.6561666 0-0.3386667-0.127-0.6455833-0.127-0.3069167-0.35454-0.53975-0.22225-0.2328333-0.52917-0.365125-0.30162-0.1375833-0.65616-0.1375833-0.34396 0-0.62971 0.1375833-0.28046 0.1322917-0.48154 0.365125-0.20109 0.2328333-0.31221 0.53975-0.10583 0.3069166-0.10583 0.6455833z" style="font-feature-settings:normal;font-variant-caps:normal;font-variant-ligatures:normal;font-variant-numeric:normal"/>
   <path d="m238.82791 5.8662085q0-0.089958 0.037-0.1693333 0.0423-0.084667 0.10054-0.1322917 0.13758-0.089958 0.28575-0.089958h0.79904q0.10054 0 0.15875 0.037042 0.0582 0.037042 0.0952 0.09525 0.0423 0.058208 0.0688 0.1322916 0.0317 0.074083 0.0741 0.1481667 0.0106 0.021167 0.0423 0.1058333 0.0318 0.079375 0.0688 0.1799167 0.037 0.09525 0.0688 0.1852083 0.037 0.084667 0.0476 0.111125 0.15875-0.174625 0.30162-0.365125 0.14817-0.1957917 0.31221-0.3598333 0.16404-0.1640417 0.36513-0.269875 0.20108-0.1058333 0.47625-0.1058333 0.28575 0 0.508 0.042333 0.22754 0.042333 0.42862 0.127 0.20108 0.079375 0.39688 0.206375 0.20108 0.127 0.43391 0.2963333 0.36513 0.1957917 0.13759 0.5820833l-0.48155 0.8202083q-0.10583 0.15875-0.25929 0.1957917-0.15346 0.037042-0.33337-0.047625-0.22754-0.22225-0.46567-0.3280833-0.23283-0.111125-0.53446-0.111125-0.20637 0-0.36512 0.058208-0.15346 0.058208-0.28046 0.1640417-0.127 0.1058333-0.23813 0.254-0.11112 0.1481666-0.22225 0.3280833v3.8311662q0 0.201084-0.10054 0.306917-0.0953 0.100542-0.32279 0.100542h-1.19062q-0.41275 0-0.41275-0.407459z" style="font-feature-settings:normal;font-variant-caps:normal;font-variant-ligatures:normal;font-variant-numeric:normal"/>
   <path d="m248.72142 10.126q0.0741-0.05292 0.13758-0.0635 0.0688-0.01587 0.10584-0.01587 0.0899 0 0.16404 0.03704 0.0741 0.03704 0.15346 0.15875l0.59266 0.894291q0.0265 0.04233 0.0476 0.09525 0.0265 0.05292 0.0265 0.08467 0 0.121708-0.0794 0.201083-0.0741 0.07408-0.16404 0.132292-0.43392 0.301625-0.9525 0.486833-0.51329 0.179917-1.09008 0.179917-0.47625 0-0.92075-0.121708-0.43921-0.121709-0.82021-0.343959-0.381-0.227541-0.6985-0.53975-0.3175-0.3175-0.53975-0.703791-0.22225-0.386292-0.34925-0.8307919-0.12171-0.4497917-0.12171-0.936625t0.12171-0.936625q0.127-0.4497916 0.34925-0.8307916 0.22225-0.3862917 0.53975-0.6985 0.3175-0.3175 0.6985-0.53975t0.82021-0.3439583q0.4445-0.1217083 0.92075-0.1217083 0.57679 0 1.06362 0.1534583 0.49213 0.1534583 0.92075 0.4550833l-0.0159-0.015875q0.11641 0.068792 0.1852 0.1640417 0.0688 0.089958 0.0688 0.2275416 0 0.09525-0.0635 0.1957917l-0.47096 0.7990416q-0.14817 0.2592917-0.35984 0.2592917-0.0476 0-0.11641-0.021167-0.0688-0.026458-0.15346-0.084667-0.23283-0.1534584-0.50271-0.2487084-0.26458-0.1005416-0.56621-0.1005416-0.33337 0-0.61383 0.1375833-0.28046 0.1322917-0.48154 0.365125-0.19579 0.2328333-0.30692 0.53975-0.11112 0.3069166-0.11112 0.6455833 0 0.34925 0.11112 0.6561666 0.11113 0.301625 0.30692 0.523875 0.20108 0.22225 0.48154 0.354541 0.28046 0.127 0.61383 0.127 0.30163 0 0.56621-0.105833t0.50271-0.269875z" style="font-feature-settings:normal;font-variant-caps:normal;font-variant-ligatures:normal;font-variant-numeric:normal"/>
   <path d="m250.51745 8.8401251q0-0.4868333 0.1217-0.936625 0.127-0.4497916 0.34925-0.8307916 0.22755-0.3862917 0.53975-0.6985 0.3175-0.3175 0.7038-0.53975 0.38629-0.22225 0.83079-0.3439583 0.44979-0.1217083 0.93662-0.1217083 0.71967 0 1.34938 0.269875 0.635 0.2645833 1.10066 0.7355416 0.47096 0.4656667 0.74084 1.1006666 0.27516 0.6297083 0.27516 1.36525 0 0.4868333-0.127 0.936625-0.1217 0.4444999-0.34925 0.8307919-0.22225 0.386291-0.53975 0.703791-0.3122 0.312209-0.6985 0.53975-0.38629 0.22225-0.83079 0.343959-0.43921 0.121708-0.92075 0.121708-0.48683 0-0.93662-0.121708-0.4445-0.121709-0.83079-0.343959-0.3863-0.227541-0.7038-0.53975-0.3122-0.3175-0.53975-0.703791-0.22225-0.386292-0.34925-0.8307919-0.1217-0.4497917-0.1217-0.936625zm1.93145 0q0 0.34925 0.10584 0.6561666 0.11112 0.301625 0.30691 0.5238753 0.20109 0.22225 0.48155 0.354541 0.28575 0.127 0.64029 0.127 0.34396 0 0.61912-0.127 0.28046-0.132291 0.47096-0.354541 0.19579-0.2222503 0.29633-0.5238753 0.10584-0.3069166 0.10584-0.6561666 0-0.3386667-0.10584-0.6455833-0.10054-0.3069167-0.29633-0.53975-0.1905-0.2328333-0.47096-0.365125-0.27516-0.1375833-0.61912-0.1375833-0.35454 0-0.64029 0.1375833-0.28046 0.1322917-0.48155 0.365125-0.19579 0.2328333-0.30691 0.53975-0.10584 0.3069166-0.10584 0.6455833z" style="font-feature-settings:normal;font-variant-caps:normal;font-variant-ligatures:normal;font-variant-numeric:normal"/>
   <path d="m259.53238 10.104833q0.14287 0.142875 0.30691 0.243417 0.16934 0.09525 0.3228 0.15875 0.15345 0.05821 0.26987 0.08467t0.15875 0.02646q0.10054 0 0.254-0.0053 0.15875-0.01058 0.30163-0.04763 0.14287-0.04233 0.24341-0.132291 0.10584-0.08996 0.10584-0.254 0-0.148167-0.0582-0.2328336-0.0582-0.089958-0.16934-0.1481667-0.11112-0.0635-0.27516-0.111125-0.15875-0.047625-0.35984-0.111125-0.635-0.1693333-1.04775-0.4074583t-0.65616-0.5291666q-0.23813-0.2963334-0.33338-0.635-0.0953-0.3386667-0.0953-0.714375 0-0.4392083 0.17463-0.7990416 0.17462-0.3598334 0.49741-0.6138334 0.3228-0.2592916 0.77259-0.3968749 0.44979-0.142875 1.00012-0.142875 0.33338 0 0.62442 0.058208 0.29104 0.052917 0.55562 0.174625 0.26459 0.1164167 0.5133 0.3069166 0.25399 0.1852084 0.5027 0.4445 0.09 0.1058334 0.09 0.2010834 5e-3 0.089958-0.11642 0.1957916-0.20637 0.1693333-0.39687 0.333375-0.18521 0.1640417-0.38629 0.365125-0.0635 0.052917-0.127 0.068792-0.0635 0.010583-0.12171-0.00529-0.0582-0.015875-0.11112-0.052917-0.0529-0.037042-0.0952-0.089958-0.18521-0.206375-0.42334-0.2751667-0.23812-0.074083-0.4445-0.074083-0.25929 0-0.41275 0.089958t-0.14287 0.2751667q0.0106 0.1375833 0.10054 0.2169583 0.0952 0.074083 0.22754 0.1217084 0.13758 0.047625 0.28575 0.079375 0.15346 0.026458 0.28046 0.0635 0.47625 0.1534583 0.87312 0.3333749 0.39688 0.1799167 0.68792 0.4445 0.29104 0.2592917 0.44979 0.6244167 0.16404 0.365125 0.16404 0.8890002 0 0.523875-0.21166 0.936625-0.20638 0.41275-0.5715 0.693208-0.36513 0.280459-0.86784 0.428625-0.49741 0.148167-1.0742 0.148167-0.32809 0-0.66675-0.05821-0.33867-0.05821-0.65617-0.185209-0.3175-0.132291-0.60325-0.333375-0.28575-0.206375-0.508-0.497416-0.0582-0.07408-0.09-0.153459-0.0265-0.08467-0.0265-0.164041 5e-3 -0.07938 0.0317-0.142875 0.0317-0.06879 0.0952-0.116417l0.68263-0.6826252q0.127-0.1058334 0.22225-0.074083 0.10054 0.03175 0.254 0.1799162z" style="font-feature-settings:normal;font-variant-caps:normal;font-variant-ligatures:normal;font-variant-numeric:normal"/>
  </g>
  <g stroke-width=".10012563">
   <path d="m229.11961 101.09373v5.21144c0 0.77387-0.62718 1.40106-1.40105 1.40106h-4.12037c-0.77388 0-1.40106-0.62719-1.40106-1.40106v-5.21144h5.83652z" fill="#74767f"/>
   <path d="m205.66589 105.43317v0.872c0 0.77387-0.62719 1.40106-1.40106 1.40106h-4.12037c-0.77387 0-1.40106-0.62719-1.40106-1.40106v-5.21144h6.92239v4.33944z" fill="#74767f"/>
   <path d="m226.61618 81.782106-0.0868-0.65713c-0.13848-1.220226-1.17057-2.141784-2.39911-2.141784h-20.3975c-1.22844 0-2.26063 0.921655-2.39911 2.141784l-0.0868 0.65713-1.16015 8.772902v1.104487h27.68974v-1.104487z" fill="#c8e5fc"/>
   <path d="m226.96076 89.669827v0.378173c0 0.761157 0.61718 1.378329 1.37833 1.378329h1.41137c0.97002-9.8e-5 1.75641-0.78639 1.75641-1.756502 0-0.97012-0.78639-1.756403-1.75641-1.756403h-1.41137c-0.76115 0-1.37833 0.617172-1.37833 1.378328z" fill="#de4242"/>
   <path d="m201.26507 81.644829-0.0182 0.137277h25.36923l-0.0868-0.65713c-0.13847-1.220226-1.17057-2.141784-2.39911-2.141784h-20.39739c-0.24971 0-0.49042 0.03975-0.7181 0.110639-0.12236 0.03814-0.24151 0.084-0.35485 0.140277-0.25942 0.12886-0.49292 0.303079-0.68967 0.51284-0.1632 0.17422-0.29917 0.374168-0.4056 0.591846-0.11795 0.241604-0.19895 0.505332-0.2308 0.786084z" fill="#74767f"/>
   <path d="m200.69037 89.511496v0.378172c0 0.761157-0.61717 1.378329-1.37833 1.378329h-1.41137c-0.97001-9.8e-5 -1.7564-0.78639-1.7564-1.756501 0-0.97012 0.78639-1.756404 1.7564-1.756404h1.41137c0.76116 0 1.37833 0.617172 1.37833 1.378328z" fill="#de4242"/>
   <path d="m231.08368 98.687413c-0.0651-1.839108-0.27995-3.71646-0.63229-5.626855-0.26654-1.453727-1.54054-2.50555-3.01799-2.50555h-27.00989c-1.47545 0-2.74835 1.047716-3.01698 2.499339-0.35024 1.892875-0.56411 3.771232-0.62719 5.632964-0.0124 0.319302-0.0186 0.6365-0.0206 0.954704-0.0114 1.708945 1.36171 3.104795 3.07065 3.104795h28.20429c1.70894 0 3.08517-1.39485 3.07175-3.103696-2e-3 -0.317198-9e-3 -0.636501-0.0217-0.955701z" fill="#fc5151"/>
   <path d="m231.1054 99.643114c0.0135 1.708946-1.3628 3.103696-3.07175 3.103696h-28.20428c-1.70895 0-3.08208-1.39585-3.07066-3.104795 2e-3 -0.318204 8e-3 -0.635402 0.0206-0.954704h8.67579c0.2449 0.786292 0.97843 1.373129 1.86594 1.373129h13.22079c0.88751 0 1.62113-0.586837 1.86594-1.373129h8.67579c0.0125 0.319302 0.0197 0.638605 0.0219 0.955803z" fill="#de4242"/>
   <path d="m205.45512 98.687413c-0.0857-0.272743-0.11154-0.570316-0.0651-0.875096l0.31199-2.035455c0.14669-0.953596 0.96601-1.657282 1.93103-1.657282h12.5968c0.96501 0 1.78434 0.703584 1.93102 1.657282l0.312 2.035455c0.0464 0.30478 0.0206 0.602353-0.0651 0.875096-0.2449 0.786288-0.97842 1.373127-1.86593 1.373127h-13.22079c-0.88752 0-1.62104-0.586937-1.86595-1.373127z" fill="#d1d5cd"/>
   <path d="m208.88022 99.414724c-0.88751 0-1.62113-0.586835-1.86594-1.373119-0.0857-0.272742-0.11154-0.570315-0.0651-0.8751l0.312-2.035455c0.0599-0.389589 0.23349-0.736224 0.4821-1.01147h-0.11003c-0.96502 0-1.78434 0.703584-1.93103 1.657282l-0.31199 2.035455c-0.0465 0.30478-0.0206 0.602353 0.0651 0.875096 0.24491 0.786288 0.97843 1.373127 1.86595 1.373127h13.22078c0.58053 0 1.09408-0.252019 1.44912-0.645714h-13.11095z" fill="#c4c6c2"/>
   <path d="m209.79877 97.735819h-1.44651c-0.42794 0-0.77488-0.346835-0.77488-0.774872s0.34694-0.774871 0.77488-0.774871h1.44651c0.42794 0 0.77488 0.346834 0.77488 0.774871s-0.34694 0.774872-0.77488 0.774872z" fill="#c4c6c1"/>
   <path d="m219.61409 97.735819h-7.33571c-0.42793 0-0.77487-0.346835-0.77487-0.774872s0.34694-0.774871 0.77487-0.774871h7.33571c0.42803 0 0.77487 0.346834 0.77487 0.774871s-0.34673 0.774872-0.77487 0.774872z" fill="#c4c6c1"/>
   <path d="m225.90855 92.724732c1.08386 0 1.96307 0.879305 1.96307 1.963064 0 1.083861-0.87931 1.963059-1.96307 1.963059-1.08375 0-1.96306-0.8793-1.96306-1.963059s0.8792-1.963064 1.96306-1.963064z" fill="#c8e5fc"/>
   <path d="m202.12513 92.724732c1.08386 0 1.96307 0.879305 1.96307 1.963064 0 1.083861-0.87931 1.963059-1.96307 1.963059-1.08375 0-1.96306-0.8793-1.96306-1.963059s0.8792-1.963064 1.96306-1.963064z" fill="#c8e5fc"/>
  </g>
  <g transform="matrix(.34025536 0 0 .34025536 -11.624157 39.505951)">
   <g stroke-width=".26458332">
    <path d="m578.77873 142.2942-6.74978-27.70055c-0.88662-2.96281-3.61077-4.99402-6.70322-4.99825h-59.65217c-3.09271 4e-3 -5.81659 2.03544-6.70321 4.99825l-6.75005 27.70055z" fill="#b0d3f0"/>
    <path d="m488.78706 170.37737v25.69184c-8e-3 2.57677-2.0947 4.66354-4.67122 4.67122h-7.00696c-2.57677-8e-3 -4.66354-2.09471-4.67121-4.67122v-25.69184z" fill="#2c3e50"/>
    <path d="m598.56163 170.37737v25.69184c-8e-3 2.57677-2.09471 4.66354-4.67122 4.67122h-7.00696c-2.57678-8e-3 -4.66355-2.09471-4.67122-4.67122v-25.69184z" fill="#2c3e50"/>
   </g>
   <polygon transform="matrix(.26458333 0 0 .26458333 467.76433 109.5954)" points="459.042 105.931 344.283 105.931 167.731 105.931 52.973 105.931 52.973 282.483 459.042 282.483" fill="#7d6599"/>
   <g stroke-width=".26458332">
    <path d="m472.4374 179.66448v-32.69906c0-5.15964 4.1828-9.34244 9.34244-9.34244s9.34244 4.1828 9.34244 9.34244v32.69879h-18.68488z" fill="#3d324c"/>
    <path d="m472.4374 179.66448h126.12423c2.57995 0 4.67122 2.09126 4.67122 4.67121 0 2.57996-2.09153 4.67122-4.67122 4.67122h-126.12423c-2.57995 0-4.67122-2.09153-4.67122-4.67122 0-2.57995 2.09153-4.67121 4.67122-4.67121z" fill="#bdc3c7"/>
    <circle cx="496.96161" cy="152.8045" r="5.8390894" fill="#f0c419"/>
    <circle cx="491.12253" cy="174.993" r="4.6712189" fill="#ecf0f1"/>
    <path d="m598.56163 179.66448v-32.69906c0-5.15964-4.1828-9.34244-9.34244-9.34244s-9.34244 4.1828-9.34244 9.34244v32.69879h18.68488z" fill="#3d324c"/>
    <path d="m540.17073 118.93784h-9.34243c-1.28985 0-2.33575 1.04563-2.33575 2.33574s1.04564 2.33574 2.33575 2.33574h2.33574v4.67122c0 1.28984 1.04563 2.33574 2.33574 2.33574 1.28984 0 2.33574-1.04563 2.33574-2.33574v-4.67122h2.33574c1.28985 0 2.33574-1.04563 2.33574-2.33574s-1.04616-2.33574-2.33627-2.33574z" fill="#3f5c6c"/>
    <circle cx="574.03741" cy="152.8045" r="5.8390894" fill="#f0c419"/>
    <circle cx="579.87646" cy="174.993" r="4.6712189" fill="#ecf0f1"/>
   </g>
   <g transform="matrix(.26458333 0 0 .26458333 467.76433 109.5954)" fill="#7d6599">
    <circle cx="44.145" cy="88.276001" r="17.655001"/>
    <circle cx="467.86899" cy="88.276001" r="17.655001"/>
   </g>
   <polygon transform="matrix(.26458333 0 0 .26458333 467.76433 109.5954)" points="167.731 264.828 167.731 105.931 256.007 70.621 344.283 105.931 344.283 264.828" fill="#ecf0f1"/>
   <g transform="matrix(.26458333 0 0 .26458333 467.76433 109.5954)" fill="#95a5a5">
    <path d="m211.869 264.828v-132.414c0-4.875-3.952-8.828-8.828-8.828s-8.828 3.952-8.828 8.828v132.414z"/>
    <path d="m247.18 264.828v-132.414c0-4.875-3.952-8.828-8.828-8.828-4.875 0-8.828 3.952-8.828 8.828v132.414z"/>
    <path d="m282.49 264.828v-132.414c0-4.875-3.952-8.828-8.828-8.828s-8.828 3.952-8.828 8.828v132.414z"/>
    <path d="m317.8 264.828v-132.414c0-4.875-3.952-8.828-8.828-8.828-4.875 0-8.828 3.952-8.828 8.828v132.414z"/>
   </g>
  </g>
  <g transform="matrix(.3298672 0 0 .3298672 128.8774 76.800842)">
   <g transform="matrix(.26458333 0 0 .26458333 322.26886 -27.29112)" fill="#e5ba03">
    <path d="m488.8 170.178h-28.796c-12.792 0-23.2 10.408-23.2 23.2v22.396l-9.564 25.864 14.694 5.433 8.158-22.062h30.277c17.441 0 31.63-14.19 31.63-31.63 1e-3 -12.793-10.407-23.201-23.199-23.201z"/>
    <path d="m75.196 193.378c0-12.792-10.408-23.2-23.2-23.2h-28.797c-12.792 0-23.199 10.408-23.199 23.2 0 17.441 14.19 31.63 31.63 31.63h30.277l8.158 22.062 14.694-5.433-9.564-25.864v-22.395z"/>
   </g>
   <polygon transform="matrix(.26458333 0 0 .26458333 322.26886 -27.29112)" points="171.442 53.571 155.774 133.129 356.226 133.129 340.558 53.571" fill="#f9ca00"/>
   <g transform="matrix(.26458333 0 0 .26458333 322.26886 -27.29112)" fill="#2b2a32">
    <path d="m29.893 369.08v73.747c0 8.618 6.986 15.603 15.603 15.603h60.176c8.618 0 15.603-6.986 15.603-15.603v-79.413"/>
    <path d="m390.73 363.414v79.413c0 8.618 6.986 15.603 15.603 15.603h60.176c8.618 0 15.603-6.986 15.603-15.603v-84.888"/>
   </g>
   <g stroke-width=".26458332">
    <path d="m445.72503 37.360875h-111.44567c-4.24895 0-7.69356 3.44461-7.69356 7.693554v23.807737h126.83278v-23.807737c0-4.248944-3.44461-7.693554-7.69355-7.693554z" fill="#f9ca00"/>
    <rect x="358.50223" y="44.675545" width="63.002319" height="12.02002" fill="#616970"/>
    <path d="m457.70721 66.870912v6.883665c0 1.876425-1.52267 3.396191-3.39619 3.396191h-128.61316c-1.87643 0-3.39619-1.519766-3.39619-3.396191v-6.883665c0-1.876425 1.51976-3.396191 3.39619-3.396191h128.61316c1.87378 0 3.39619 1.520031 3.39619 3.396191z" fill="#8292a3"/>
    <path d="m437.25439 37.36061h-94.50466l7.70995-23.148924c1.24619-3.74994 4.75589-6.2782981 8.70744-6.2782981h61.67041c3.95155 0 7.46125 2.5286231 8.70743 6.2782981z" fill="#c0eaf9"/>
    <path d="m435.9418 39.982102-8.36216-25.116631c-0.96811-2.907241-3.67691-4.860396-6.74132-4.860396h-61.67252c-3.06414 0-5.77294 1.953155-6.74105 4.860396l-8.36216 25.116631-3.93277-1.309687 8.36242-25.116631c1.53247-4.6032211 5.82189-7.6962003 10.67356-7.6962003h61.67279c4.85166 0 9.14135 3.0927146 10.67382 7.6962003l8.36242 25.116631z" fill="#f9ca00"/>
    <path d="m421.50322 58.769106h-63.00205c-1.14459 0-2.07249-0.927894-2.07249-2.072481v-12.020021c0-1.144587 0.9279-2.072481 2.07249-2.072481h63.00205c1.14459 0 2.07248 0.927894 2.07248 2.072481v12.020021c0 1.144587-0.92789 2.072481-2.07248 2.072481zm-60.92957-4.144962h58.85682v-7.875059h-58.85682z" fill="#e5ba03"/>
   </g>
   <g transform="matrix(.26458333 0 0 .26458333 322.26886 -27.29112)" fill="#feffff">
    <rect x="403.25299" y="282.99799" width="65.795998" height="34.464001"/>
    <rect x="42.946999" y="282.99799" width="65.795998" height="34.464001"/>
   </g>
   <g transform="matrix(.26458333 0 0 .26458333 322.26886 -27.29112)" fill="#2b2a32">
    <path d="m219.432 69.77c2.295 0 3.268 2.502 3.268 4.797 0 2.642-1.182 4.937-3.268 4.937h-9.595v37.756c0 2.225-2.711 3.337-5.424 3.337-2.711 0-5.424-1.112-5.424-3.337v-37.756h-9.595c-2.086 0-3.268-2.295-3.268-4.937 0-2.295 0.973-4.797 3.268-4.797z"/>
    <path d="m222.628 116.148c0-0.209 0.07-0.487 0.139-0.765l12.933-42.414c0.765-2.435 3.894-3.616 7.093-3.616s6.327 1.181 7.093 3.616l13.002 42.414c0.07 0.279 0.139 0.557 0.139 0.765 0 2.572-3.964 4.45-6.953 4.45-1.739 0-3.129-0.557-3.547-2.017l-2.365-8.692h-14.671l-2.365 8.692c-0.417 1.46-1.808 2.017-3.546 2.017-2.988 0-6.952-1.878-6.952-4.45zm25.24-14.601-5.076-18.635-5.076 18.635c0-1e-3 10.152-1e-3 10.152 0z"/>
    <path d="m287.287 102.658-10.152 17.245c-0.487 0.765-1.46 1.112-2.572 1.112-2.989 0-7.231-2.365-7.231-5.354 0-0.627 0.209-1.252 0.626-1.947l12.029-18.565-11.542-18.495c-0.487-0.765-0.696-1.46-0.696-2.156 0-2.92 3.963-5.145 7.023-5.145 1.529 0 2.572 0.556 3.268 1.808l9.247 16.131 9.247-16.131c0.696-1.252 1.739-1.808 3.268-1.808 3.059 0 7.023 2.225 7.023 5.145 0 0.696-0.209 1.391-0.696 2.156l-11.542 18.495 12.029 18.565c0.417 0.696 0.626 1.321 0.626 1.947 0 2.989-4.241 5.354-7.232 5.354-1.112 0-2.155-0.348-2.572-1.112z"/>
    <path d="m315.027 73.038c0-2.295 2.711-3.268 5.423-3.268s5.424 0.973 5.424 3.268v44.222c0 2.225-2.711 3.337-5.424 3.337-2.711 0-5.423-1.112-5.423-3.337z"/>
   </g>
   <g transform="matrix(.26458333 0 0 .26458333 322.26886 -27.29112)" fill="#e5ba03">
    <rect x="129.112" y="272" width="15.666" height="45.43"/>
    <rect x="168.78999" y="272" width="15.666" height="45.43"/>
    <rect x="208.478" y="272" width="15.666" height="45.43"/>
    <rect x="248.166" y="272" width="15.666" height="45.43"/>
    <rect x="287.854" y="272" width="15.666" height="45.43"/>
    <rect x="327.543" y="272" width="15.666" height="45.43"/>
    <rect x="367.23099" y="272" width="15.666" height="45.43"/>
   </g>
  </g>
 </g>
</svg>
