<?xml version="1.0" encoding="UTF-8"?>
<!-- Created with Inkscape (http://www.inkscape.org/) -->
<svg width="562" height="562" version="1.1" viewBox="0 0 148.69583 148.69584" xmlns="http://www.w3.org/2000/svg" xmlns:cc="http://creativecommons.org/ns#" xmlns:dc="http://purl.org/dc/elements/1.1/" xmlns:rdf="http://www.w3.org/1999/02/22-rdf-syntax-ns#">
 <metadata>
  <rdf:RDF>
   <cc:Work rdf:about="">
    <dc:format>image/svg+xml</dc:format>
    <dc:type rdf:resource="http://purl.org/dc/dcmitype/StillImage"/>
    <dc:title/>
   </cc:Work>
  </rdf:RDF>
 </metadata>
 <g transform="translate(-116.1211,-123.00183)">
  <g transform="translate(441.95103,-23.594776)">
   <rect x="-325.82993" y="146.5966" width="148.69583" height="148.69583" opacity="0" stroke-width="1.05580473"/>
   <g transform="translate(-465.18453,30.922543)">
    <g>
     <rect x="145.96919" y="123.22015" width="134.53516" height="134.53516" ry="0" fill="#ececec"/>
     <rect x="145.96919" y="181.52736" width="135.46666" height="76.227936" fill="#808080"/>
     <circle cx="178.14484" cy="149.36346" r="13.754628" fill="#ff2a2a"/>
     <circle cx="178.14484" cy="149.36346" r="10.604713" fill="#fff"/>
    </g>
    <g>
     <path d="m172.91519 156.00389 10.59367 0.13436-0.20671-3.64836-6.39754-0.062v-1.41593l5.64307 0.10335v-3.29696l-5.64307-0.11369v-1.33325l6.19084-0.062v-3.64836l-10.31462-0.0723z" style="font-feature-settings:normal;font-variant-caps:normal;font-variant-ligatures:normal;font-variant-numeric:normal"/>
     <path d="m195.89708 143.81665q0-0.0737 0.0386-0.11578 0.0421-0.0456 0.11578-0.0456h3.4837q0.0772 0 0.11928 0.0456 0.0421 0.0456 0.0421 0.12279v0.87005q0 0.0596-0.0421 0.11578-0.0421 0.0526-0.12279 0.0526h-2.27335v0.86654h1.75413q0.0667 0 0.10876 0.0316 0.0456 0.0316 0.0456 0.10525v0.75778q0 0.0491-0.0386 0.0947t-0.11226 0.0456h-1.75765v0.89461h2.35756q0.15787 0 0.15787 0.16138v0.88408q0 0.0351-0.028 0.0631-0.0141 0.0982-0.14384 0.0982h-3.55036q-0.0702 0-0.11227-0.0351-0.0421-0.0386-0.0421-0.11577z" style="font-feature-settings:normal;font-variant-caps:normal;font-variant-ligatures:normal;font-variant-numeric:normal"/>
     <path d="m201.16145 147.47927q0.0947 0.0947 0.20348 0.16138 0.11226 0.0632 0.214 0.10525 0.10174 0.0386 0.17892 0.0561 0.0772 0.0175 0.10525 0.0175 0.0667 0 0.1684-4e-3 0.10524-7e-3 0.19997-0.0316 0.0947-0.0281 0.16138-0.0877 0.0702-0.0596 0.0702-0.1684 0-0.0982-0.0386-0.15436-0.0386-0.0596-0.11226-0.0982-0.0737-0.0421-0.18243-0.0737-0.10525-0.0316-0.23856-0.0737-0.421-0.11226-0.69464-0.27013-0.27364-0.15788-0.43503-0.35083-0.15787-0.19646-0.22101-0.42099-0.0631-0.22453-0.0631-0.47362 0-0.29118 0.11577-0.52975 0.11578-0.23856 0.32978-0.40695 0.214-0.17191 0.5122-0.26312 0.2982-0.0947 0.66307-0.0947 0.22102 0 0.41397 0.0386 0.19295 0.0351 0.36837 0.11577 0.17541 0.0772 0.3403 0.20348 0.1684 0.12279 0.33329 0.29469 0.0597 0.0702 0.0597 0.13332 3e-3 0.0596-0.0772 0.1298-0.13682 0.11227-0.26312 0.22102-0.12279 0.10876-0.2561 0.24207-0.0421 0.0351-0.0842 0.0456-0.0421 7e-3 -0.0807-4e-3 -0.0386-0.0105-0.0737-0.0351t-0.0631-0.0596q-0.12279-0.13682-0.28066-0.18243-0.15787-0.0491-0.29469-0.0491-0.17191 0-0.27365 0.0596t-0.0947 0.18243q7e-3 0.0912 0.0667 0.14384 0.0631 0.0491 0.15086 0.0807 0.0912 0.0316 0.18944 0.0526 0.10174 0.0175 0.18594 0.0421 0.31575 0.10174 0.57887 0.22102t0.45607 0.29469q0.19296 0.17191 0.29821 0.41398 0.10875 0.24207 0.10875 0.58938 0 0.34732-0.14033 0.62097-0.13682 0.27364-0.37889 0.45958t-0.57536 0.28417q-0.32978 0.0982-0.71218 0.0982-0.21751 0-0.44204-0.0386t-0.43502-0.12279q-0.2105-0.0877-0.39995-0.22102-0.18944-0.13682-0.33679-0.32978-0.0386-0.0491-0.0597-0.10174-0.0176-0.0561-0.0176-0.10875 3e-3 -0.0526 0.0211-0.0947 0.021-0.0456 0.0631-0.0772l0.45256-0.45257q0.0842-0.0702 0.14735-0.0491 0.0667 0.0211 0.1684 0.11928z" style="font-feature-settings:normal;font-variant-caps:normal;font-variant-ligatures:normal;font-variant-numeric:normal"/>
     <path d="m204.82144 143.71491q0-0.10876 0.0702-0.16138 0.0737-0.0561 0.20699-0.10525l0.79637-0.27715q0.0176-4e-3 0.0316-4e-3 0.0176 0 0.0316 0 0.1298 0 0.1719 0.0772 0.0456 0.0737 0.0456 0.19647l-3e-3 1.1051h0.58588q0.11227 0 0.18243 0.0667 0.0702 0.0666 0.0702 0.19997v0.67709q0 0.14735-0.0702 0.21752-0.0702 0.0666-0.18243 0.0666h-0.58588l3e-3 2.82065q0 0.13331-0.0772 0.20348-0.0772 0.0666-0.214 0.0666h-0.79287q-0.27014 0-0.27014-0.27013l-3e-3 -2.82065h-0.25611q-0.27013 0-0.27013-0.28417v-0.67709q0-0.26662 0.27013-0.26662h0.25611z" style="font-feature-settings:normal;font-variant-caps:normal;font-variant-ligatures:normal;font-variant-numeric:normal"/>
     <path d="m212.04189 148.60543q0 0.0596-0.0211 0.11577-0.021 0.0526-0.0702 0.0842-0.0386 0.0386-0.0912 0.0491t-0.0912 0.0105h-0.69113q-0.0737 0-0.11927-0.0175-0.0456-0.0211-0.0737-0.0561-0.028-0.0351-0.0491-0.0842-0.0176-0.0526-0.0386-0.11226l-0.10174-0.26312q-0.0947 0.0947-0.20699 0.20348-0.11226 0.10525-0.24908 0.19646-0.13332 0.0912-0.29119 0.15086-0.15788 0.0632-0.33679 0.0632-0.31925 0-0.61395-0.0807-0.29119-0.0807-0.54729-0.22804-0.25259-0.15086-0.45958-0.35784-0.20699-0.2105-0.35784-0.4666-0.14735-0.25611-0.22804-0.5508-0.0807-0.2982-0.0807-0.62096 0-0.48765 0.17892-0.90513 0.17892-0.421 0.48765-0.72972 0.30872-0.31224 0.72621-0.48765 0.41748-0.17892 0.89461-0.17892 0.21751 0 0.39994 0.0666 0.18242 0.0632 0.32977 0.1684 0.15086 0.10525 0.27014 0.23856 0.12279 0.13332 0.21752 0.27014l0.13681-0.4245q0.0351-0.0877 0.0562-0.14033 0.0245-0.0561 0.0491-0.0807 0.028-0.0281 0.0667-0.0351 0.0386-0.0105 0.10876-0.0105h0.52273q0.0386 0 0.0912 0.0105t0.0912 0.0491q0.0491 0.0386 0.0702 0.0877t0.0211 0.11227zm-3.45564-1.96463q0 0.23154 0.0702 0.43502 0.0737 0.19997 0.20699 0.34732 0.13332 0.14735 0.31925 0.23506 0.18945 0.0842 0.41749 0.0842 0.23505 0 0.43502-0.0842 0.20349-0.0877 0.35083-0.23506 0.15086-0.14735 0.23506-0.34732 0.0842-0.20348 0.0842-0.43502 0-0.22453-0.0842-0.42801t-0.23506-0.35784q-0.14734-0.15437-0.35083-0.24207-0.19997-0.0912-0.43502-0.0912-0.22804 0-0.41749 0.0912-0.18593 0.0877-0.31925 0.24207-0.13331 0.15436-0.20699 0.35784-0.0702 0.20348-0.0702 0.42801z" style="font-feature-settings:normal;font-variant-caps:normal;font-variant-ligatures:normal;font-variant-numeric:normal"/>
     <path d="m215.73566 147.49331q0.0491-0.0351 0.0912-0.0421 0.0456-0.0105 0.0702-0.0105 0.0597 0 0.10876 0.0246 0.0491 0.0246 0.10174 0.10525l0.39293 0.59289q0.0176 0.0281 0.0316 0.0632 0.0176 0.0351 0.0176 0.0561 0 0.0807-0.0526 0.13331-0.0491 0.0491-0.10875 0.0877-0.28768 0.19997-0.63149 0.32276-0.34031 0.11928-0.72271 0.11928-0.31574 0-0.61043-0.0807-0.29119-0.0807-0.54379-0.22804-0.25259-0.15086-0.46309-0.35784-0.21049-0.2105-0.35784-0.4666-0.14735-0.25611-0.23155-0.5508-0.0807-0.2982-0.0807-0.62096t0.0807-0.62097q0.0842-0.2982 0.23155-0.55079 0.14735-0.25611 0.35784-0.46309 0.2105-0.2105 0.46309-0.35785 0.2526-0.14734 0.54379-0.22803 0.29469-0.0807 0.61043-0.0807 0.3824 0 0.70517 0.10174 0.32626 0.10174 0.61044 0.30171l-0.0106-0.0105q0.0772 0.0456 0.1228 0.10875 0.0456 0.0597 0.0456 0.15086 0 0.0632-0.0421 0.12981l-0.31224 0.52974q-0.0982 0.17191-0.23856 0.17191-0.0316 0-0.0772-0.014-0.0456-0.0175-0.10174-0.0561-0.15436-0.10174-0.33328-0.16489-0.17542-0.0667-0.37539-0.0667-0.22102 0-0.40695 0.0912-0.18594 0.0877-0.31926 0.24207-0.12981 0.15436-0.20348 0.35784-0.0737 0.20348-0.0737 0.42801 0 0.23155 0.0737 0.43502 0.0737 0.19998 0.20348 0.34732 0.13332 0.14735 0.31926 0.23506 0.18593 0.0842 0.40695 0.0842 0.19997 0 0.37539-0.0702 0.17541-0.0702 0.33328-0.17892z" style="font-feature-settings:normal;font-variant-caps:normal;font-variant-ligatures:normal;font-variant-numeric:normal"/>
     <path d="m217.21044 144.68319q0-0.11227 0.0631-0.19296 0.0631-0.0807 0.19646-0.0807h0.8034q0.0421 0 0.0912 0.0211 0.0491 0.0175 0.0912 0.0561 0.0421 0.0351 0.0702 0.0842 0.0316 0.0491 0.0316 0.11226v3.91171q0 0.13332-0.0737 0.20348-0.0737 0.0667-0.2105 0.0667h-0.8034q-0.25961 0-0.25961-0.27014zm0-1.77518q0-0.14735 0.0631-0.20699 0.0631-0.0632 0.19646-0.0632h0.81392q0.12279 0 0.19646 0.0632 0.0772 0.0596 0.0772 0.20699v0.68411q0 0.0421-0.021 0.0912-0.0176 0.0491-0.0526 0.0947-0.0351 0.0456-0.0877 0.0772-0.0491 0.0281-0.11226 0.0281h-0.81392q-0.25961 0-0.25961-0.29118z" style="font-feature-settings:normal;font-variant-caps:normal;font-variant-ligatures:normal;font-variant-numeric:normal"/>
     <path d="m219.25609 146.6408q0-0.32276 0.0807-0.62096 0.0842-0.29821 0.23155-0.5508 0.15085-0.2561 0.35784-0.46309 0.2105-0.2105 0.4666-0.35784 0.2561-0.14735 0.55079-0.22804 0.2982-0.0807 0.62097-0.0807 0.47712 0 0.8946 0.17892 0.421 0.17541 0.72972 0.48765 0.31224 0.30873 0.49116 0.72972 0.18243 0.41748 0.18243 0.90513 0 0.32276-0.0842 0.62096-0.0807 0.2947-0.23154 0.5508-0.14735 0.2561-0.35785 0.4666-0.20698 0.20699-0.46309 0.35784-0.2561 0.14735-0.55079 0.22804-0.29119 0.0807-0.61044 0.0807-0.32277 0-0.62097-0.0807-0.29469-0.0807-0.55079-0.22804-0.2561-0.15085-0.4666-0.35784-0.20699-0.2105-0.35784-0.4666-0.14735-0.2561-0.23155-0.5508-0.0807-0.2982-0.0807-0.62096zm1.28052 0q0 0.23154 0.0702 0.43502 0.0737 0.19997 0.20348 0.34732 0.13331 0.14735 0.31925 0.23506 0.18945 0.0842 0.4245 0.0842 0.22804 0 0.41047-0.0842 0.18593-0.0877 0.31223-0.23506 0.12981-0.14735 0.19647-0.34732 0.0702-0.20348 0.0702-0.43502 0-0.22453-0.0702-0.42801-0.0667-0.20348-0.19647-0.35784-0.1263-0.15437-0.31223-0.24207-0.18243-0.0912-0.41047-0.0912-0.23505 0-0.4245 0.0912-0.18594 0.0877-0.31925 0.24207-0.1298 0.15436-0.20348 0.35784-0.0702 0.20348-0.0702 0.42801z" style="font-feature-settings:normal;font-variant-caps:normal;font-variant-ligatures:normal;font-variant-numeric:normal"/>
     <path d="m224.65059 144.46918q0.0456-0.0386 0.0947-0.0491 0.0526-0.0105 0.0982-0.0105h0.52976q0.0631 0 0.10875 0.0246 0.0456 0.0211 0.0772 0.0596 0.0316 0.0386 0.0491 0.0877 0.0211 0.0491 0.0386 0.10174l0.10876 0.44906q0.0526-0.10875 0.15085-0.24558 0.10174-0.14033 0.2561-0.25961 0.15437-0.12279 0.36486-0.20348 0.21401-0.0842 0.49467-0.0842 0.39994 0 0.72621 0.15437 0.32627 0.15436 0.55431 0.42099 0.23154 0.26663 0.35784 0.62447 0.1263 0.35433 0.1263 0.75779v2.29791q0 0.13331-0.0597 0.20348-0.0562 0.0666-0.18243 0.0666h-0.81041q-0.15085 0-0.20699-0.0491-0.0562-0.0526-0.0562-0.19997v-2.28388q0-0.15086-0.0702-0.28417-0.0667-0.13682-0.17893-0.23856-0.11226-0.10525-0.2561-0.16489-0.14033-0.0596-0.28767-0.0596-0.1263 0-0.25962 0.0561-0.1298 0.0561-0.24207 0.15787-0.10875 0.0982-0.18594 0.23506-0.0737 0.13331-0.0842 0.29118v2.28038q0 0.0596-0.0245 0.11928-0.0211 0.0596-0.0667 0.0912-0.0456 0.0281-0.0877 0.0386-0.0386 0.0105-0.0912 0.0105h-0.79287q-0.15085 0-0.21751-0.0737-0.0667-0.0737-0.0667-0.19646v-3.92575q0-0.0667 0.028-0.12279 0.0316-0.0561 0.0842-0.0877z" style="font-feature-settings:normal;font-variant-caps:normal;font-variant-ligatures:normal;font-variant-numeric:normal"/>
     <path d="m234.15355 148.60543q0 0.0596-0.0211 0.11577-0.021 0.0526-0.0702 0.0842-0.0386 0.0386-0.0912 0.0491t-0.0912 0.0105h-0.69113q-0.0737 0-0.11928-0.0175-0.0456-0.0211-0.0737-0.0561-0.0281-0.0351-0.0491-0.0842-0.0176-0.0526-0.0386-0.11226l-0.10174-0.26312q-0.0947 0.0947-0.20698 0.20348-0.11227 0.10525-0.24909 0.19646-0.13331 0.0912-0.29118 0.15086-0.15788 0.0632-0.3368 0.0632-0.31925 0-0.61394-0.0807-0.29119-0.0807-0.54729-0.22804-0.2526-0.15086-0.45958-0.35784-0.20699-0.2105-0.35785-0.4666-0.14734-0.25611-0.22804-0.5508-0.0807-0.2982-0.0807-0.62096 0-0.48765 0.17893-0.90513 0.17892-0.421 0.48765-0.72972 0.30872-0.31224 0.7262-0.48765 0.41749-0.17892 0.89461-0.17892 0.21751 0 0.39995 0.0666 0.18242 0.0632 0.32977 0.1684 0.15086 0.10525 0.27014 0.23856 0.12279 0.13332 0.21751 0.27014l0.13682-0.4245q0.0351-0.0877 0.0562-0.14033 0.0245-0.0561 0.0491-0.0807 0.0281-0.0281 0.0667-0.0351 0.0386-0.0105 0.10875-0.0105h0.52274q0.0386 0 0.0912 0.0105t0.0912 0.0491q0.0491 0.0386 0.0702 0.0877t0.0211 0.11227zm-3.45564-1.96463q0 0.23154 0.0702 0.43502 0.0737 0.19997 0.20699 0.34732 0.13332 0.14735 0.31925 0.23506 0.18945 0.0842 0.41749 0.0842 0.23505 0 0.43502-0.0842 0.20348-0.0877 0.35083-0.23506 0.15086-0.14735 0.23505-0.34732 0.0842-0.20348 0.0842-0.43502 0-0.22453-0.0842-0.42801t-0.23505-0.35784q-0.14735-0.15437-0.35083-0.24207-0.19997-0.0912-0.43502-0.0912-0.22804 0-0.41749 0.0912-0.18593 0.0877-0.31925 0.24207-0.13331 0.15436-0.20699 0.35784-0.0702 0.20348-0.0702 0.42801z" style="font-feature-settings:normal;font-variant-caps:normal;font-variant-ligatures:normal;font-variant-numeric:normal"/>
     <path d="m235.09316 144.46918q0.0456-0.0386 0.0947-0.0491 0.0526-0.0105 0.0982-0.0105h0.52975q0.0631 0 0.10876 0.0246 0.0456 0.0211 0.0772 0.0596 0.0316 0.0386 0.0491 0.0877 0.0211 0.0491 0.0386 0.10174l0.10876 0.44906q0.0526-0.10875 0.12629-0.24558 0.0772-0.14033 0.19998-0.25961 0.1263-0.12279 0.31224-0.20348 0.18944-0.0842 0.4701-0.0842 0.44906 0 0.78585 0.19296 0.33679 0.18944 0.55431 0.5122 0.0667-0.10875 0.18243-0.23154 0.11577-0.1263 0.27715-0.23155 0.16138-0.10524 0.36837-0.1719 0.21049-0.0702 0.46309-0.0702 0.39994 0 0.71218 0.15437 0.31574 0.15436 0.53325 0.42099 0.22103 0.26663 0.33329 0.62447 0.11577 0.35433 0.11577 0.75779v2.29791q0 0.13331-0.0597 0.20348-0.0562 0.0666-0.18244 0.0666h-0.8104q-0.15086 0-0.20699-0.0491-0.0561-0.0526-0.0561-0.19997v-2.31892q0-0.15086-0.0491-0.28066-0.0456-0.12981-0.12981-0.22453-0.0842-0.0982-0.20698-0.15086-0.11929-0.0561-0.26664-0.0561-0.13331 0-0.25259 0.0526t-0.2105 0.14734q-0.0912 0.0912-0.14734 0.22453-0.0526 0.12981-0.0526 0.28768v2.29791q0 0.13332-0.0597 0.20348-0.0562 0.0667-0.18243 0.0667h-0.81046q-0.15086 0-0.20699-0.0491-0.0562-0.0526-0.0562-0.19997v-2.31897q0-0.15085-0.0456-0.28066-0.0421-0.1298-0.1263-0.22453-0.0807-0.0982-0.19997-0.15085-0.11577-0.0561-0.26312-0.0561-0.12629 0-0.24909 0.0526-0.11928 0.0491-0.21751 0.14384-0.0947 0.0912-0.16138 0.22102-0.0631 0.12981-0.0737 0.28768v2.31546q0 0.0596-0.0245 0.11928-0.0211 0.0596-0.0667 0.0912-0.0456 0.0281-0.0877 0.0386-0.0386 0.0105-0.0912 0.0105h-0.79287q-0.15086 0-0.21751-0.0737-0.0667-0.0737-0.0667-0.19646v-3.92575q0-0.0667 0.0281-0.12279 0.0315-0.0561 0.0842-0.0877z" style="font-feature-settings:normal;font-variant-caps:normal;font-variant-ligatures:normal;font-variant-numeric:normal"/>
     <path d="m242.4809 144.68319q0-0.11227 0.0631-0.19296 0.0632-0.0807 0.19646-0.0807h0.8034q0.0421 0 0.0912 0.0211 0.0491 0.0175 0.0912 0.0561 0.0421 0.0351 0.0702 0.0842 0.0316 0.0491 0.0316 0.11226v3.91171q0 0.13332-0.0737 0.20348-0.0737 0.0667-0.2105 0.0667h-0.80339q-0.25961 0-0.25961-0.27014zm0-1.77518q0-0.14735 0.0631-0.20699 0.0632-0.0632 0.19646-0.0632h0.81392q0.12279 0 0.19647 0.0632 0.0772 0.0596 0.0772 0.20699v0.68411q0 0.0421-0.0211 0.0912-0.0176 0.0491-0.0526 0.0947-0.0351 0.0456-0.0877 0.0772-0.0491 0.0281-0.11227 0.0281h-0.81391q-0.25961 0-0.25961-0.29118z" style="font-feature-settings:normal;font-variant-caps:normal;font-variant-ligatures:normal;font-variant-numeric:normal"/>
     <path d="m248.39617 148.33178q-0.30873 0.28417-0.69464 0.44555-0.38591 0.15787-0.81743 0.15787-0.48063 0-0.90864-0.17541-0.428-0.17541-0.75077-0.48414-0.32275-0.31224-0.5122-0.73323t-0.18945-0.91565q0-0.30873 0.0737-0.59641 0.0772-0.29118 0.21401-0.54378 0.14033-0.25259 0.3368-0.46309 0.19996-0.214 0.44555-0.36486 0.24557-0.15085 0.53325-0.23505t0.60693-0.0842q0.29119 0 0.56483 0.0772 0.27365 0.0772 0.51221 0.21751 0.24207 0.14033 0.44204 0.3368 0.19997 0.19646 0.3438 0.43151 0.14384 0.23155 0.22103 0.49818 0.0807 0.26312 0.0807 0.54378 0 0.18243-7e-3 0.2982-3e-3 0.11577-0.0526 0.18594-0.0491 0.0666-0.16489 0.0947-0.11226 0.0246-0.33328 0.0246h-2.52595q0.0351 0.22453 0.14033 0.37538 0.10875 0.15086 0.24909 0.24207 0.14032 0.0877 0.2982 0.1263 0.15787 0.0386 0.2982 0.0386 0.1263 0 0.25961-0.0246 0.13332-0.0281 0.25611-0.0702 0.12629-0.0456 0.22803-0.10174 0.10525-0.0596 0.1684-0.12279 0.0562-0.0456 0.0947-0.0667 0.0421-0.0246 0.0877-0.0246t0.0912 0.0316q0.0491 0.0316 0.10876 0.0912l0.37187 0.42099q0.0386 0.0456 0.0491 0.0842 0.0105 0.0351 0.0105 0.0737 0 0.0702-0.0386 0.12279-0.0386 0.0491-0.0912 0.0877zm-1.68748-2.92238q-0.13682 0-0.26663 0.0561-0.12629 0.0526-0.23856 0.14384-0.11227 0.0912-0.20348 0.20699-0.0877 0.11577-0.14384 0.23505h1.79272q-0.0737-0.13682-0.16137-0.25259-0.0842-0.11577-0.19647-0.20348-0.10875-0.0877-0.25259-0.13682-0.14033-0.0491-0.32978-0.0491z" style="font-feature-settings:normal;font-variant-caps:normal;font-variant-ligatures:normal;font-variant-numeric:normal"/>
     <path d="m249.7292 144.46918q0.0456-0.0386 0.0947-0.0491 0.0526-0.0105 0.0982-0.0105h0.52975q0.0632 0 0.10875 0.0246 0.0456 0.0211 0.0772 0.0596 0.0316 0.0386 0.0491 0.0877 0.021 0.0491 0.0386 0.10174l0.10876 0.44906q0.0526-0.10875 0.15085-0.24558 0.10174-0.14033 0.2561-0.25961 0.15437-0.12279 0.36487-0.20348 0.214-0.0842 0.49466-0.0842 0.39994 0 0.72621 0.15437 0.32627 0.15436 0.55431 0.42099 0.23154 0.26663 0.35784 0.62447 0.1263 0.35433 0.1263 0.75779v2.29791q0 0.13331-0.0597 0.20348-0.0562 0.0666-0.18243 0.0666h-0.81041q-0.15085 0-0.20699-0.0491-0.0562-0.0526-0.0562-0.19997v-2.28388q0-0.15086-0.0702-0.28417-0.0667-0.13682-0.17892-0.23856-0.11227-0.10525-0.2561-0.16489-0.14034-0.0596-0.28768-0.0596-0.1263 0-0.25961 0.0561-0.12981 0.0561-0.24208 0.15787-0.10875 0.0982-0.18593 0.23506-0.0737 0.13331-0.0842 0.29118v2.28038q0 0.0596-0.0245 0.11928-0.021 0.0596-0.0667 0.0912-0.0456 0.0281-0.0877 0.0386-0.0386 0.0105-0.0912 0.0105h-0.79287q-0.15085 0-0.21751-0.0737-0.0667-0.0737-0.0667-0.19646v-3.92575q0-0.0667 0.028-0.12279 0.0316-0.0561 0.0842-0.0877z" style="font-feature-settings:normal;font-variant-caps:normal;font-variant-ligatures:normal;font-variant-numeric:normal"/>
     <path d="m254.97866 143.71491q0-0.10876 0.0702-0.16138 0.0737-0.0561 0.20699-0.10525l0.79638-0.27715q0.0176-4e-3 0.0316-4e-3 0.0176 0 0.0315 0 0.12981 0 0.17191 0.0772 0.0456 0.0737 0.0456 0.19647l-3e-3 1.1051h0.58588q0.11226 0 0.18243 0.0667 0.0702 0.0666 0.0702 0.19997v0.67709q0 0.14735-0.0702 0.21752-0.0702 0.0666-0.18243 0.0666h-0.58588l3e-3 2.82065q0 0.13331-0.0772 0.20348-0.0772 0.0666-0.21401 0.0666h-0.79286q-0.27014 0-0.27014-0.27013l-3e-3 -2.82065h-0.2561q-0.27014 0-0.27014-0.28417v-0.67709q0-0.26662 0.27014-0.26662h0.2561z" style="font-feature-settings:normal;font-variant-caps:normal;font-variant-ligatures:normal;font-variant-numeric:normal"/>
     <path d="m257.47698 146.6408q0-0.32276 0.0807-0.62096 0.0842-0.29821 0.23154-0.5508 0.15086-0.2561 0.35785-0.46309 0.21049-0.2105 0.4666-0.35784 0.2561-0.14735 0.55079-0.22804 0.29821-0.0807 0.62097-0.0807 0.47712 0 0.8946 0.17892 0.42099 0.17541 0.72972 0.48765 0.31224 0.30873 0.49116 0.72972 0.18243 0.41748 0.18243 0.90513 0 0.32276-0.0842 0.62096-0.0807 0.2947-0.23154 0.5508-0.14735 0.2561-0.35785 0.4666-0.20699 0.20699-0.46309 0.35784-0.2561 0.14735-0.55079 0.22804-0.29119 0.0807-0.61044 0.0807-0.32276 0-0.62097-0.0807-0.29469-0.0807-0.55079-0.22804-0.25611-0.15085-0.4666-0.35784-0.20699-0.2105-0.35785-0.4666-0.14734-0.2561-0.23154-0.5508-0.0807-0.2982-0.0807-0.62096zm1.28052 0q0 0.23154 0.0702 0.43502 0.0737 0.19997 0.20348 0.34732 0.13331 0.14735 0.31925 0.23506 0.18945 0.0842 0.4245 0.0842 0.22804 0 0.41047-0.0842 0.18594-0.0877 0.31224-0.23506 0.1298-0.14735 0.19646-0.34732 0.0702-0.20348 0.0702-0.43502 0-0.22453-0.0702-0.42801-0.0667-0.20348-0.19646-0.35784-0.1263-0.15437-0.31224-0.24207-0.18243-0.0912-0.41047-0.0912-0.23505 0-0.4245 0.0912-0.18594 0.0877-0.31925 0.24207-0.1298 0.15436-0.20348 0.35784-0.0702 0.20348-0.0702 0.42801z" style="font-feature-settings:normal;font-variant-caps:normal;font-variant-ligatures:normal;font-variant-numeric:normal"/>
     <path d="m204.24951 154.31741q0.0597 0.0491 0.15086 0.13331 0.0947 0.0807 0.214 0.16138 0.17892 0.11928 0.35434 0.18594 0.17541 0.0667 0.36837 0.0667 0.17891 0 0.2982-0.0386 0.12279-0.0421 0.19295-0.10875 0.0702-0.0667 0.0982-0.15437 0.0316-0.0877 0.0316-0.18593 0-0.10876-0.0842-0.19296-0.0807-0.0877-0.19996-0.15436-0.11929-0.0667-0.24909-0.11227-0.12981-0.0491-0.22453-0.0807-0.42099-0.14734-0.73674-0.31574-0.31574-0.17191-0.52624-0.37889-0.21049-0.2105-0.31574-0.45959-0.10525-0.25259-0.10525-0.56132 0-0.32627 0.12981-0.5929 0.13331-0.26662 0.37538-0.45607 0.24558-0.18945 0.58939-0.29119 0.34381-0.10524 0.76831-0.10524 0.31925 0 0.61044 0.0737 0.29469 0.0702 0.57886 0.22804 0.11928 0.0702 0.22453 0.14734 0.10876 0.0737 0.18945 0.14384 0.0807 0.0702 0.1263 0.13332 0.0491 0.0632 0.0491 0.10875 0 0.0456-0.0245 0.0842-0.0211 0.0386-0.0667 0.0877l-0.53677 0.57184q-0.0596 0.0597-0.11928 0.0597-0.0491 0-0.0912-0.0281-0.0386-0.0281-0.0877-0.0702l-0.0316-0.0281q-0.0702-0.0596-0.15788-0.12279-0.0842-0.0631-0.18242-0.11226-0.0982-0.0526-0.20699-0.0842-0.10875-0.0351-0.22102-0.0351-0.11577 0-0.21751 0.0211-0.10174 0.0175-0.17893 0.0596-0.0772 0.0421-0.12278 0.11226-0.0456 0.0667-0.0456 0.16489 0 0.0982 0.0491 0.17191 0.0491 0.0702 0.14735 0.13331 0.0982 0.0596 0.24207 0.11577 0.14734 0.0526 0.3403 0.11577 0.37187 0.12279 0.68411 0.25962 0.31574 0.13331 0.54378 0.31925 0.22804 0.18243 0.35434 0.43853 0.1298 0.2561 0.1298 0.62096 0 0.38591-0.15787 0.70166-0.15787 0.31223-0.43502 0.53325-0.27365 0.22102-0.64553 0.34381-0.37187 0.11928-0.79988 0.11928-0.40345 0-0.79287-0.14383-0.38941-0.14384-0.72621-0.38591-0.14033-0.10174-0.23856-0.19997-0.0947-0.0982-0.15086-0.15788l-0.0105-0.0105q-3e-3 -7e-3 -7e-3 -7e-3 -3e-3 -4e-3 -7e-3 -7e-3 -3e-3 -7e-3 -7e-3 -7e-3 -3e-3 -4e-3 -7e-3 -7e-3 -0.0807-0.0877-0.0807-0.14033 0-0.0596 0.0807-0.13331l0.60693-0.57886q0.0737-0.0526 0.11928-0.0526 0.0316 0 0.0667 0.0211 0.0351 0.021 0.0842 0.0631z" style="font-feature-settings:normal;font-variant-caps:normal;font-variant-ligatures:normal;font-variant-numeric:normal"/>
     <path d="m212.63953 155.73825q0 0.0596-0.021 0.11578-0.021 0.0526-0.0702 0.0842-0.0386 0.0386-0.0912 0.0491t-0.0912 0.0105h-0.69112q-0.0737 0-0.11928-0.0175-0.0456-0.0211-0.0737-0.0561-0.028-0.0351-0.0491-0.0842-0.0176-0.0526-0.0386-0.11226l-0.10174-0.26312q-0.0947 0.0947-0.20699 0.20348-0.11226 0.10525-0.24909 0.19646-0.13331 0.0912-0.29118 0.15086-0.15787 0.0632-0.33679 0.0632-0.31926 0-0.61395-0.0807-0.29118-0.0807-0.54729-0.22804-0.25259-0.15086-0.45958-0.35784-0.20699-0.2105-0.35784-0.4666-0.14735-0.25611-0.22804-0.5508-0.0807-0.2982-0.0807-0.62096 0-0.48765 0.17892-0.90514 0.17892-0.42099 0.48765-0.72972 0.30872-0.31223 0.72621-0.48764 0.41748-0.17892 0.89461-0.17892 0.21751 0 0.39994 0.0667 0.18243 0.0632 0.32977 0.1684 0.15086 0.10525 0.27014 0.23856 0.12279 0.13331 0.21751 0.27014l0.13683-0.4245q0.0351-0.0877 0.0562-0.14033 0.0245-0.0561 0.0491-0.0807 0.028-0.0281 0.0667-0.0351 0.0386-0.0105 0.10876-0.0105h0.52273q0.0386 0 0.0912 0.0105t0.0912 0.0491q0.0491 0.0386 0.0702 0.0877 0.021 0.0491 0.021 0.11227zm-3.45564-1.96463q0 0.23155 0.0702 0.43503 0.0737 0.19997 0.20699 0.34732 0.13332 0.14734 0.31925 0.23505 0.18945 0.0842 0.41748 0.0842 0.23506 0 0.43503-0.0842 0.20348-0.0877 0.35082-0.23505 0.15086-0.14735 0.23506-0.34732 0.0842-0.20348 0.0842-0.43503 0-0.22452-0.0842-0.428t-0.23506-0.35785q-0.14734-0.15436-0.35082-0.24207-0.19997-0.0912-0.43503-0.0912-0.22803 0-0.41748 0.0912-0.18593 0.0877-0.31925 0.24207-0.13331 0.15437-0.20699 0.35785-0.0702 0.20348-0.0702 0.428z" style="font-feature-settings:normal;font-variant-caps:normal;font-variant-ligatures:normal;font-variant-numeric:normal"/>
     <path d="m213.57228 151.60201q0.0456-0.0386 0.0947-0.0491 0.0526-0.0105 0.0982-0.0105h0.52975q0.0631 0 0.10876 0.0246 0.0456 0.021 0.0772 0.0596t0.0491 0.0877q0.0211 0.0491 0.0386 0.10174l0.10876 0.44906q0.0526-0.10876 0.15085-0.24558 0.10174-0.14033 0.2561-0.25961 0.15437-0.12279 0.36487-0.20348 0.214-0.0842 0.49466-0.0842 0.39994 0 0.72621 0.15436 0.32627 0.15437 0.55431 0.42099 0.23154 0.26663 0.35784 0.62448 0.1263 0.35433 0.1263 0.75778v2.29791q0 0.13331-0.0597 0.20348-0.0561 0.0667-0.18243 0.0667h-0.81041q-0.15085 0-0.20699-0.0491-0.0562-0.0526-0.0562-0.19997v-2.28388q0-0.15086-0.0702-0.28417-0.0667-0.13682-0.17892-0.23856-0.11227-0.10525-0.25611-0.16489-0.14033-0.0596-0.28767-0.0596-0.1263 0-0.25962 0.0561-0.12981 0.0561-0.24207 0.15787-0.10875 0.0982-0.18594 0.23506-0.0737 0.13331-0.0842 0.29118v2.28038q0 0.0596-0.0245 0.11928-0.0211 0.0596-0.0667 0.0912-0.0456 0.0281-0.0877 0.0386-0.0386 0.0105-0.0912 0.0105h-0.79286q-0.15086 0-0.21752-0.0737-0.0666-0.0737-0.0666-0.19646v-3.92575q0-0.0667 0.028-0.12279 0.0316-0.0561 0.0842-0.0877z" style="font-feature-settings:normal;font-variant-caps:normal;font-variant-ligatures:normal;font-variant-numeric:normal"/>
     <path d="m221.193 150.94246q7e-3 -0.0632 0.0491-0.10876 0.0421-0.0456 0.11928-0.0456h1.21386q0.12981 0 0.1684 0.13332l0.95425 3.1855 0.96126-3.1855q0.0491-0.13332 0.17892-0.13332h1.19983q0.0631 0 0.11227 0.0456 0.0526 0.0421 0.0596 0.10876 0.12279 1.2349 0.24909 2.45227 0.1298 1.21386 0.25259 2.44877v0.0175q0 0.13683-0.15436 0.13683h-0.99284q-0.16138 0-0.16839-0.15437l-0.30523-2.71189-0.78935 2.72943q-7e-3 0.0351-0.0526 0.0842-0.0421 0.0491-0.0842 0.0491h-0.92268q-0.0421 0-0.0912-0.0456-0.0456-0.0491-0.0491-0.0877l-0.78936-2.72241-0.30521 2.70487q-7e-3 0.15436-0.17191 0.15436h-0.99284q-0.15086 0-0.15086-0.15436z" style="font-feature-settings:normal;font-variant-caps:normal;font-variant-ligatures:normal;font-variant-numeric:normal"/>
     <path d="m231.86646 155.73825q0 0.0596-0.021 0.11578-0.021 0.0526-0.0702 0.0842-0.0386 0.0386-0.0912 0.0491t-0.0912 0.0105h-0.69112q-0.0737 0-0.11928-0.0175-0.0456-0.0211-0.0737-0.0561-0.028-0.0351-0.0491-0.0842-0.0176-0.0526-0.0386-0.11226l-0.10174-0.26312q-0.0947 0.0947-0.20698 0.20348-0.11227 0.10525-0.24909 0.19646-0.13332 0.0912-0.29119 0.15086-0.15787 0.0632-0.33679 0.0632-0.31925 0-0.61395-0.0807-0.29118-0.0807-0.54729-0.22804-0.25259-0.15086-0.45958-0.35784-0.20699-0.2105-0.35784-0.4666-0.14735-0.25611-0.22804-0.5508-0.0807-0.2982-0.0807-0.62096 0-0.48765 0.17892-0.90514 0.17892-0.42099 0.48765-0.72972 0.30873-0.31223 0.72621-0.48764 0.41748-0.17892 0.89461-0.17892 0.21751 0 0.39994 0.0667 0.18243 0.0632 0.32978 0.1684 0.15085 0.10525 0.27013 0.23856 0.12279 0.13331 0.21752 0.27014l0.13682-0.4245q0.0351-0.0877 0.0562-0.14033 0.0245-0.0561 0.0491-0.0807 0.028-0.0281 0.0666-0.0351 0.0386-0.0105 0.10876-0.0105h0.52273q0.0386 0 0.0912 0.0105t0.0912 0.0491q0.0491 0.0386 0.0702 0.0877 0.021 0.0491 0.021 0.11227zm-3.45564-1.96463q0 0.23155 0.0702 0.43503 0.0737 0.19997 0.20698 0.34732 0.13332 0.14734 0.31926 0.23505 0.18944 0.0842 0.41747 0.0842 0.23506 0 0.43503-0.0842 0.20348-0.0877 0.35083-0.23505 0.15085-0.14735 0.23505-0.34732 0.0842-0.20348 0.0842-0.43503 0-0.22452-0.0842-0.428t-0.23505-0.35785q-0.14735-0.15436-0.35083-0.24207-0.19997-0.0912-0.43503-0.0912-0.22803 0-0.41747 0.0912-0.18594 0.0877-0.31926 0.24207-0.13331 0.15437-0.20698 0.35785-0.0702 0.20348-0.0702 0.428z" style="font-feature-settings:normal;font-variant-caps:normal;font-variant-ligatures:normal;font-variant-numeric:normal"/>
     <path d="m232.708 151.80198q0-0.0596 0.0245-0.11226 0.0281-0.0561 0.0667-0.0877 0.0912-0.0596 0.18945-0.0596h0.52975q0.0666 0 0.10524 0.0246 0.0386 0.0246 0.0631 0.0631 0.028 0.0386 0.0456 0.0877 0.021 0.0491 0.0491 0.0982 7e-3 0.014 0.028 0.0702 0.021 0.0526 0.0456 0.11928 0.0245 0.0632 0.0456 0.12279 0.0245 0.0561 0.0316 0.0737 0.10525-0.11577 0.19997-0.24207 0.0982-0.12981 0.20699-0.23856 0.10876-0.10876 0.24207-0.17892 0.13332-0.0702 0.31574-0.0702 0.18945 0 0.33679 0.0281 0.15086 0.0281 0.28418 0.0842 0.13331 0.0526 0.26311 0.13683 0.13332 0.0842 0.28768 0.19646 0.24207 0.1298 0.0912 0.38591l-0.31925 0.54378q-0.0702 0.10525-0.17191 0.1298-0.10174 0.0246-0.22102-0.0316-0.15086-0.14735-0.30873-0.21752-0.15436-0.0737-0.35433-0.0737-0.13683 0-0.24207 0.0386-0.10174 0.0386-0.18594 0.10876-0.0842 0.0702-0.15787 0.16839-0.0737 0.0982-0.14735 0.21752v2.53999q0 0.13331-0.0667 0.20348-0.0631 0.0667-0.214 0.0667h-0.78936q-0.27365 0-0.27365-0.27013z" style="font-feature-settings:normal;font-variant-caps:normal;font-variant-ligatures:normal;font-variant-numeric:normal"/>
     <path d="m239.2672 154.62613q0.0491-0.0351 0.0912-0.0421 0.0456-0.0105 0.0702-0.0105 0.0597 0 0.10876 0.0246 0.0491 0.0246 0.10174 0.10525l0.39293 0.59289q0.0176 0.0281 0.0315 0.0632 0.0176 0.0351 0.0176 0.0561 0 0.0807-0.0526 0.13331-0.0491 0.0491-0.10875 0.0877-0.28768 0.19997-0.63149 0.32276-0.34031 0.11928-0.72271 0.11928-0.31574 0-0.61043-0.0807-0.29119-0.0807-0.54379-0.22804-0.25259-0.15085-0.46309-0.35784-0.21049-0.2105-0.35784-0.4666t-0.23155-0.5508q-0.0807-0.2982-0.0807-0.62096t0.0807-0.62096q0.0842-0.29821 0.23155-0.5508 0.14735-0.2561 0.35784-0.46309 0.2105-0.2105 0.46309-0.35785 0.2526-0.14734 0.54379-0.22803 0.29469-0.0807 0.61043-0.0807 0.3824 0 0.70517 0.10174 0.32626 0.10174 0.61044 0.30171l-0.0105-0.0105q0.0772 0.0456 0.12279 0.10876 0.0456 0.0596 0.0456 0.15085 0 0.0632-0.0421 0.12981l-0.31224 0.52974q-0.0982 0.17191-0.23856 0.17191-0.0316 0-0.0772-0.014-0.0456-0.0175-0.10174-0.0561-0.15436-0.10174-0.33328-0.16489-0.17542-0.0667-0.37539-0.0667-0.22102 0-0.40695 0.0912-0.18594 0.0877-0.31926 0.24207-0.12981 0.15436-0.20348 0.35784-0.0737 0.20348-0.0737 0.42801 0 0.23155 0.0737 0.43503 0.0737 0.19997 0.20348 0.34731 0.13332 0.14735 0.31926 0.23506 0.18593 0.0842 0.40695 0.0842 0.19997 0 0.37539-0.0702 0.17541-0.0702 0.33328-0.17892z" style="font-feature-settings:normal;font-variant-caps:normal;font-variant-ligatures:normal;font-variant-numeric:normal"/>
     <path d="m240.45792 153.77362q0-0.32276 0.0807-0.62096 0.0842-0.2982 0.23155-0.5508 0.15085-0.2561 0.35784-0.46309 0.2105-0.21049 0.4666-0.35784 0.25611-0.14735 0.5508-0.22804 0.2982-0.0807 0.62096-0.0807 0.47713 0 0.89461 0.17893 0.42099 0.17541 0.72972 0.48764 0.31223 0.30873 0.49116 0.72972 0.18242 0.41749 0.18242 0.90513 0 0.32276-0.0842 0.62097-0.0807 0.29469-0.23154 0.5508-0.14735 0.2561-0.35784 0.46659-0.20699 0.20699-0.46309 0.35785-0.25611 0.14734-0.5508 0.22803-0.29119 0.0807-0.61044 0.0807-0.32276 0-0.62096-0.0807-0.29469-0.0807-0.5508-0.22803-0.2561-0.15086-0.4666-0.35785-0.20699-0.21049-0.35784-0.46659-0.14735-0.25611-0.23155-0.5508-0.0807-0.29821-0.0807-0.62097zm1.28052 0q0 0.23155 0.0702 0.43503 0.0737 0.19997 0.20347 0.34732 0.13332 0.14734 0.31925 0.23505 0.18945 0.0842 0.42451 0.0842 0.22803 0 0.41046-0.0842 0.18594-0.0877 0.31224-0.23505 0.1298-0.14735 0.19646-0.34732 0.0702-0.20348 0.0702-0.43503 0-0.22452-0.0702-0.428-0.0667-0.20348-0.19646-0.35785-0.1263-0.15436-0.31224-0.24207-0.18243-0.0912-0.41046-0.0912-0.23506 0-0.42451 0.0912-0.18593 0.0877-0.31925 0.24207-0.1298 0.15437-0.20347 0.35785-0.0702 0.20348-0.0702 0.428z" style="font-feature-settings:normal;font-variant-caps:normal;font-variant-ligatures:normal;font-variant-numeric:normal"/>
     <path d="m246.43463 154.6121q0.0947 0.0947 0.20348 0.16138 0.11226 0.0632 0.21401 0.10525 0.10174 0.0386 0.17892 0.0561 0.0772 0.0175 0.10525 0.0175 0.0667 0 0.16839-4e-3 0.10525-7e-3 0.19997-0.0316 0.0947-0.0281 0.16138-0.0877 0.0702-0.0596 0.0702-0.1684 0-0.0982-0.0386-0.15436-0.0386-0.0596-0.11226-0.0982-0.0737-0.0421-0.18243-0.0737-0.10525-0.0316-0.23856-0.0737-0.42099-0.11227-0.69464-0.27014-0.27364-0.15787-0.43502-0.35082-0.15787-0.19647-0.22102-0.421-0.0631-0.22453-0.0631-0.47361 0-0.29119 0.11577-0.52975 0.11578-0.23856 0.32978-0.40696 0.214-0.1719 0.51221-0.26312 0.2982-0.0947 0.66306-0.0947 0.22102 0 0.41398 0.0386 0.19295 0.0351 0.36836 0.11577 0.17541 0.0772 0.3403 0.20348 0.1684 0.12279 0.33329 0.2947 0.0597 0.0702 0.0597 0.13331 3e-3 0.0596-0.0772 0.12981-0.13682 0.11226-0.26311 0.22102-0.12279 0.10875-0.25611 0.24207-0.0421 0.0351-0.0842 0.0456-0.0421 7e-3 -0.0807-4e-3 -0.0386-0.0105-0.0737-0.0351t-0.0631-0.0596q-0.12279-0.13682-0.28066-0.18243-0.15787-0.0491-0.29469-0.0491-0.1719 0-0.27365 0.0596-0.10174 0.0596-0.0947 0.18243 7e-3 0.0912 0.0667 0.14384 0.0631 0.0491 0.15085 0.0807 0.0912 0.0316 0.18945 0.0526 0.10174 0.0175 0.18594 0.0421 0.31574 0.10174 0.57886 0.22102t0.45608 0.2947q0.19295 0.1719 0.2982 0.41397 0.10875 0.24207 0.10875 0.58939t-0.14033 0.62096q-0.13682 0.27365-0.37889 0.45958-0.24207 0.18594-0.57535 0.28417-0.32978 0.0982-0.71218 0.0982-0.21751 0-0.44204-0.0386t-0.43503-0.12279q-0.21049-0.0877-0.39994-0.22102-0.18944-0.13682-0.33679-0.32977-0.0386-0.0491-0.0597-0.10174-0.0176-0.0561-0.0176-0.10876 3e-3 -0.0526 0.0211-0.0947 0.021-0.0456 0.0631-0.0772l0.45256-0.45257q0.0842-0.0702 0.14735-0.0491 0.0667 0.0211 0.1684 0.11928z" style="font-feature-settings:normal;font-variant-caps:normal;font-variant-ligatures:normal;font-variant-numeric:normal"/>
    </g>
    <g>
     <rect x="145.96919" y="122.28864" width="135.46666" height="135.46666" ry="0" fill="#ececec"/>
     <rect x="145.96919" y="181.52736" width="135.46666" height="76.227936" fill="#808080"/>
     <circle cx="178.14484" cy="149.36346" r="13.754628" fill="#ff2a2a"/>
     <circle cx="178.14484" cy="149.36346" r="10.604713" fill="#fff"/>
    </g>
    <g>
     <path d="m172.91519 156.00389 10.59367 0.13436-0.20671-3.64836-6.39754-0.062v-1.41593l5.64307 0.10335v-3.29696l-5.64307-0.11369v-1.33325l6.19084-0.062v-3.64836l-10.31462-0.0723z" style="font-feature-settings:normal;font-variant-caps:normal;font-variant-ligatures:normal;font-variant-numeric:normal"/>
     <path d="m195.89708 143.81665q0-0.0737 0.0386-0.11578 0.0421-0.0456 0.11578-0.0456h3.4837q0.0772 0 0.11928 0.0456 0.0421 0.0456 0.0421 0.12279v0.87005q0 0.0596-0.0421 0.11578-0.0421 0.0526-0.12279 0.0526h-2.27335v0.86654h1.75413q0.0667 0 0.10876 0.0316 0.0456 0.0316 0.0456 0.10525v0.75778q0 0.0491-0.0386 0.0947t-0.11226 0.0456h-1.75765v0.89461h2.35756q0.15787 0 0.15787 0.16138v0.88408q0 0.0351-0.028 0.0631-0.0141 0.0982-0.14384 0.0982h-3.55036q-0.0702 0-0.11227-0.0351-0.0421-0.0386-0.0421-0.11577z" style="font-feature-settings:normal;font-variant-caps:normal;font-variant-ligatures:normal;font-variant-numeric:normal"/>
     <path d="m201.16145 147.47927q0.0947 0.0947 0.20348 0.16138 0.11226 0.0632 0.214 0.10525 0.10174 0.0386 0.17892 0.0561 0.0772 0.0175 0.10525 0.0175 0.0667 0 0.1684-4e-3 0.10524-7e-3 0.19997-0.0316 0.0947-0.0281 0.16138-0.0877 0.0702-0.0596 0.0702-0.1684 0-0.0982-0.0386-0.15436-0.0386-0.0596-0.11226-0.0982-0.0737-0.0421-0.18243-0.0737-0.10525-0.0316-0.23856-0.0737-0.421-0.11226-0.69464-0.27013-0.27364-0.15788-0.43503-0.35083-0.15787-0.19646-0.22101-0.42099-0.0631-0.22453-0.0631-0.47362 0-0.29118 0.11577-0.52975 0.11578-0.23856 0.32978-0.40695 0.214-0.17191 0.5122-0.26312 0.2982-0.0947 0.66307-0.0947 0.22102 0 0.41397 0.0386 0.19295 0.0351 0.36837 0.11577 0.17541 0.0772 0.3403 0.20348 0.1684 0.12279 0.33329 0.29469 0.0597 0.0702 0.0597 0.13332 3e-3 0.0596-0.0772 0.1298-0.13682 0.11227-0.26312 0.22102-0.12279 0.10876-0.2561 0.24207-0.0421 0.0351-0.0842 0.0456-0.0421 7e-3 -0.0807-4e-3 -0.0386-0.0105-0.0737-0.0351t-0.0631-0.0596q-0.12279-0.13682-0.28066-0.18243-0.15787-0.0491-0.29469-0.0491-0.17191 0-0.27365 0.0596t-0.0947 0.18243q7e-3 0.0912 0.0667 0.14384 0.0631 0.0491 0.15086 0.0807 0.0912 0.0316 0.18944 0.0526 0.10174 0.0175 0.18594 0.0421 0.31575 0.10174 0.57887 0.22102t0.45607 0.29469q0.19296 0.17191 0.29821 0.41398 0.10875 0.24207 0.10875 0.58938 0 0.34732-0.14033 0.62097-0.13682 0.27364-0.37889 0.45958t-0.57536 0.28417q-0.32978 0.0982-0.71218 0.0982-0.21751 0-0.44204-0.0386t-0.43502-0.12279q-0.2105-0.0877-0.39995-0.22102-0.18944-0.13682-0.33679-0.32978-0.0386-0.0491-0.0597-0.10174-0.0176-0.0561-0.0176-0.10875 3e-3 -0.0526 0.0211-0.0947 0.021-0.0456 0.0631-0.0772l0.45256-0.45257q0.0842-0.0702 0.14735-0.0491 0.0667 0.0211 0.1684 0.11928z" style="font-feature-settings:normal;font-variant-caps:normal;font-variant-ligatures:normal;font-variant-numeric:normal"/>
     <path d="m204.82144 143.71491q0-0.10876 0.0702-0.16138 0.0737-0.0561 0.20699-0.10525l0.79637-0.27715q0.0176-4e-3 0.0316-4e-3 0.0176 0 0.0316 0 0.1298 0 0.1719 0.0772 0.0456 0.0737 0.0456 0.19647l-3e-3 1.1051h0.58588q0.11227 0 0.18243 0.0667 0.0702 0.0666 0.0702 0.19997v0.67709q0 0.14735-0.0702 0.21752-0.0702 0.0666-0.18243 0.0666h-0.58588l3e-3 2.82065q0 0.13331-0.0772 0.20348-0.0772 0.0666-0.214 0.0666h-0.79287q-0.27014 0-0.27014-0.27013l-3e-3 -2.82065h-0.25611q-0.27013 0-0.27013-0.28417v-0.67709q0-0.26662 0.27013-0.26662h0.25611z" style="font-feature-settings:normal;font-variant-caps:normal;font-variant-ligatures:normal;font-variant-numeric:normal"/>
     <path d="m212.04189 148.60543q0 0.0596-0.0211 0.11577-0.021 0.0526-0.0702 0.0842-0.0386 0.0386-0.0912 0.0491t-0.0912 0.0105h-0.69113q-0.0737 0-0.11927-0.0175-0.0456-0.0211-0.0737-0.0561-0.028-0.0351-0.0491-0.0842-0.0176-0.0526-0.0386-0.11226l-0.10174-0.26312q-0.0947 0.0947-0.20699 0.20348-0.11226 0.10525-0.24908 0.19646-0.13332 0.0912-0.29119 0.15086-0.15788 0.0632-0.33679 0.0632-0.31925 0-0.61395-0.0807-0.29119-0.0807-0.54729-0.22804-0.25259-0.15086-0.45958-0.35784-0.20699-0.2105-0.35784-0.4666-0.14735-0.25611-0.22804-0.5508-0.0807-0.2982-0.0807-0.62096 0-0.48765 0.17892-0.90513 0.17892-0.421 0.48765-0.72972 0.30872-0.31224 0.72621-0.48765 0.41748-0.17892 0.89461-0.17892 0.21751 0 0.39994 0.0666 0.18242 0.0632 0.32977 0.1684 0.15086 0.10525 0.27014 0.23856 0.12279 0.13332 0.21752 0.27014l0.13681-0.4245q0.0351-0.0877 0.0562-0.14033 0.0245-0.0561 0.0491-0.0807 0.028-0.0281 0.0667-0.0351 0.0386-0.0105 0.10876-0.0105h0.52273q0.0386 0 0.0912 0.0105t0.0912 0.0491q0.0491 0.0386 0.0702 0.0877t0.0211 0.11227zm-3.45564-1.96463q0 0.23154 0.0702 0.43502 0.0737 0.19997 0.20699 0.34732 0.13332 0.14735 0.31925 0.23506 0.18945 0.0842 0.41749 0.0842 0.23505 0 0.43502-0.0842 0.20349-0.0877 0.35083-0.23506 0.15086-0.14735 0.23506-0.34732 0.0842-0.20348 0.0842-0.43502 0-0.22453-0.0842-0.42801t-0.23506-0.35784q-0.14734-0.15437-0.35083-0.24207-0.19997-0.0912-0.43502-0.0912-0.22804 0-0.41749 0.0912-0.18593 0.0877-0.31925 0.24207-0.13331 0.15436-0.20699 0.35784-0.0702 0.20348-0.0702 0.42801z" style="font-feature-settings:normal;font-variant-caps:normal;font-variant-ligatures:normal;font-variant-numeric:normal"/>
     <path d="m215.73566 147.49331q0.0491-0.0351 0.0912-0.0421 0.0456-0.0105 0.0702-0.0105 0.0597 0 0.10876 0.0246 0.0491 0.0246 0.10174 0.10525l0.39293 0.59289q0.0176 0.0281 0.0316 0.0632 0.0176 0.0351 0.0176 0.0561 0 0.0807-0.0526 0.13331-0.0491 0.0491-0.10875 0.0877-0.28768 0.19997-0.63149 0.32276-0.34031 0.11928-0.72271 0.11928-0.31574 0-0.61043-0.0807-0.29119-0.0807-0.54379-0.22804-0.25259-0.15086-0.46309-0.35784-0.21049-0.2105-0.35784-0.4666-0.14735-0.25611-0.23155-0.5508-0.0807-0.2982-0.0807-0.62096t0.0807-0.62097q0.0842-0.2982 0.23155-0.55079 0.14735-0.25611 0.35784-0.46309 0.2105-0.2105 0.46309-0.35785 0.2526-0.14734 0.54379-0.22803 0.29469-0.0807 0.61043-0.0807 0.3824 0 0.70517 0.10174 0.32626 0.10174 0.61044 0.30171l-0.0106-0.0105q0.0772 0.0456 0.1228 0.10875 0.0456 0.0597 0.0456 0.15086 0 0.0632-0.0421 0.12981l-0.31224 0.52974q-0.0982 0.17191-0.23856 0.17191-0.0316 0-0.0772-0.014-0.0456-0.0175-0.10174-0.0561-0.15436-0.10174-0.33328-0.16489-0.17542-0.0667-0.37539-0.0667-0.22102 0-0.40695 0.0912-0.18594 0.0877-0.31926 0.24207-0.12981 0.15436-0.20348 0.35784-0.0737 0.20348-0.0737 0.42801 0 0.23155 0.0737 0.43502 0.0737 0.19998 0.20348 0.34732 0.13332 0.14735 0.31926 0.23506 0.18593 0.0842 0.40695 0.0842 0.19997 0 0.37539-0.0702 0.17541-0.0702 0.33328-0.17892z" style="font-feature-settings:normal;font-variant-caps:normal;font-variant-ligatures:normal;font-variant-numeric:normal"/>
     <path d="m217.21044 144.68319q0-0.11227 0.0631-0.19296 0.0631-0.0807 0.19646-0.0807h0.8034q0.0421 0 0.0912 0.0211 0.0491 0.0175 0.0912 0.0561 0.0421 0.0351 0.0702 0.0842 0.0316 0.0491 0.0316 0.11226v3.91171q0 0.13332-0.0737 0.20348-0.0737 0.0667-0.2105 0.0667h-0.8034q-0.25961 0-0.25961-0.27014zm0-1.77518q0-0.14735 0.0631-0.20699 0.0631-0.0632 0.19646-0.0632h0.81392q0.12279 0 0.19646 0.0632 0.0772 0.0596 0.0772 0.20699v0.68411q0 0.0421-0.021 0.0912-0.0176 0.0491-0.0526 0.0947-0.0351 0.0456-0.0877 0.0772-0.0491 0.0281-0.11226 0.0281h-0.81392q-0.25961 0-0.25961-0.29118z" style="font-feature-settings:normal;font-variant-caps:normal;font-variant-ligatures:normal;font-variant-numeric:normal"/>
     <path d="m219.25609 146.6408q0-0.32276 0.0807-0.62096 0.0842-0.29821 0.23155-0.5508 0.15085-0.2561 0.35784-0.46309 0.2105-0.2105 0.4666-0.35784 0.2561-0.14735 0.55079-0.22804 0.2982-0.0807 0.62097-0.0807 0.47712 0 0.8946 0.17892 0.421 0.17541 0.72972 0.48765 0.31224 0.30873 0.49116 0.72972 0.18243 0.41748 0.18243 0.90513 0 0.32276-0.0842 0.62096-0.0807 0.2947-0.23154 0.5508-0.14735 0.2561-0.35785 0.4666-0.20698 0.20699-0.46309 0.35784-0.2561 0.14735-0.55079 0.22804-0.29119 0.0807-0.61044 0.0807-0.32277 0-0.62097-0.0807-0.29469-0.0807-0.55079-0.22804-0.2561-0.15085-0.4666-0.35784-0.20699-0.2105-0.35784-0.4666-0.14735-0.2561-0.23155-0.5508-0.0807-0.2982-0.0807-0.62096zm1.28052 0q0 0.23154 0.0702 0.43502 0.0737 0.19997 0.20348 0.34732 0.13331 0.14735 0.31925 0.23506 0.18945 0.0842 0.4245 0.0842 0.22804 0 0.41047-0.0842 0.18593-0.0877 0.31223-0.23506 0.12981-0.14735 0.19647-0.34732 0.0702-0.20348 0.0702-0.43502 0-0.22453-0.0702-0.42801-0.0667-0.20348-0.19647-0.35784-0.1263-0.15437-0.31223-0.24207-0.18243-0.0912-0.41047-0.0912-0.23505 0-0.4245 0.0912-0.18594 0.0877-0.31925 0.24207-0.1298 0.15436-0.20348 0.35784-0.0702 0.20348-0.0702 0.42801z" style="font-feature-settings:normal;font-variant-caps:normal;font-variant-ligatures:normal;font-variant-numeric:normal"/>
     <path d="m224.65059 144.46918q0.0456-0.0386 0.0947-0.0491 0.0526-0.0105 0.0982-0.0105h0.52976q0.0631 0 0.10875 0.0246 0.0456 0.0211 0.0772 0.0596 0.0316 0.0386 0.0491 0.0877 0.0211 0.0491 0.0386 0.10174l0.10876 0.44906q0.0526-0.10875 0.15085-0.24558 0.10174-0.14033 0.2561-0.25961 0.15437-0.12279 0.36486-0.20348 0.21401-0.0842 0.49467-0.0842 0.39994 0 0.72621 0.15437 0.32627 0.15436 0.55431 0.42099 0.23154 0.26663 0.35784 0.62447 0.1263 0.35433 0.1263 0.75779v2.29791q0 0.13331-0.0597 0.20348-0.0562 0.0666-0.18243 0.0666h-0.81041q-0.15085 0-0.20699-0.0491-0.0562-0.0526-0.0562-0.19997v-2.28388q0-0.15086-0.0702-0.28417-0.0667-0.13682-0.17893-0.23856-0.11226-0.10525-0.2561-0.16489-0.14033-0.0596-0.28767-0.0596-0.1263 0-0.25962 0.0561-0.1298 0.0561-0.24207 0.15787-0.10875 0.0982-0.18594 0.23506-0.0737 0.13331-0.0842 0.29118v2.28038q0 0.0596-0.0245 0.11928-0.0211 0.0596-0.0667 0.0912-0.0456 0.0281-0.0877 0.0386-0.0386 0.0105-0.0912 0.0105h-0.79287q-0.15085 0-0.21751-0.0737-0.0667-0.0737-0.0667-0.19646v-3.92575q0-0.0667 0.028-0.12279 0.0316-0.0561 0.0842-0.0877z" style="font-feature-settings:normal;font-variant-caps:normal;font-variant-ligatures:normal;font-variant-numeric:normal"/>
     <path d="m234.15355 148.60543q0 0.0596-0.0211 0.11577-0.021 0.0526-0.0702 0.0842-0.0386 0.0386-0.0912 0.0491t-0.0912 0.0105h-0.69113q-0.0737 0-0.11928-0.0175-0.0456-0.0211-0.0737-0.0561-0.0281-0.0351-0.0491-0.0842-0.0176-0.0526-0.0386-0.11226l-0.10174-0.26312q-0.0947 0.0947-0.20698 0.20348-0.11227 0.10525-0.24909 0.19646-0.13331 0.0912-0.29118 0.15086-0.15788 0.0632-0.3368 0.0632-0.31925 0-0.61394-0.0807-0.29119-0.0807-0.54729-0.22804-0.2526-0.15086-0.45958-0.35784-0.20699-0.2105-0.35785-0.4666-0.14734-0.25611-0.22804-0.5508-0.0807-0.2982-0.0807-0.62096 0-0.48765 0.17893-0.90513 0.17892-0.421 0.48765-0.72972 0.30872-0.31224 0.7262-0.48765 0.41749-0.17892 0.89461-0.17892 0.21751 0 0.39995 0.0666 0.18242 0.0632 0.32977 0.1684 0.15086 0.10525 0.27014 0.23856 0.12279 0.13332 0.21751 0.27014l0.13682-0.4245q0.0351-0.0877 0.0562-0.14033 0.0245-0.0561 0.0491-0.0807 0.0281-0.0281 0.0667-0.0351 0.0386-0.0105 0.10875-0.0105h0.52274q0.0386 0 0.0912 0.0105t0.0912 0.0491q0.0491 0.0386 0.0702 0.0877t0.0211 0.11227zm-3.45564-1.96463q0 0.23154 0.0702 0.43502 0.0737 0.19997 0.20699 0.34732 0.13332 0.14735 0.31925 0.23506 0.18945 0.0842 0.41749 0.0842 0.23505 0 0.43502-0.0842 0.20348-0.0877 0.35083-0.23506 0.15086-0.14735 0.23505-0.34732 0.0842-0.20348 0.0842-0.43502 0-0.22453-0.0842-0.42801t-0.23505-0.35784q-0.14735-0.15437-0.35083-0.24207-0.19997-0.0912-0.43502-0.0912-0.22804 0-0.41749 0.0912-0.18593 0.0877-0.31925 0.24207-0.13331 0.15436-0.20699 0.35784-0.0702 0.20348-0.0702 0.42801z" style="font-feature-settings:normal;font-variant-caps:normal;font-variant-ligatures:normal;font-variant-numeric:normal"/>
     <path d="m235.09316 144.46918q0.0456-0.0386 0.0947-0.0491 0.0526-0.0105 0.0982-0.0105h0.52975q0.0631 0 0.10876 0.0246 0.0456 0.0211 0.0772 0.0596 0.0316 0.0386 0.0491 0.0877 0.0211 0.0491 0.0386 0.10174l0.10876 0.44906q0.0526-0.10875 0.12629-0.24558 0.0772-0.14033 0.19998-0.25961 0.1263-0.12279 0.31224-0.20348 0.18944-0.0842 0.4701-0.0842 0.44906 0 0.78585 0.19296 0.33679 0.18944 0.55431 0.5122 0.0667-0.10875 0.18243-0.23154 0.11577-0.1263 0.27715-0.23155 0.16138-0.10524 0.36837-0.1719 0.21049-0.0702 0.46309-0.0702 0.39994 0 0.71218 0.15437 0.31574 0.15436 0.53325 0.42099 0.22103 0.26663 0.33329 0.62447 0.11577 0.35433 0.11577 0.75779v2.29791q0 0.13331-0.0597 0.20348-0.0562 0.0666-0.18244 0.0666h-0.8104q-0.15086 0-0.20699-0.0491-0.0561-0.0526-0.0561-0.19997v-2.31892q0-0.15086-0.0491-0.28066-0.0456-0.12981-0.12981-0.22453-0.0842-0.0982-0.20698-0.15086-0.11929-0.0561-0.26664-0.0561-0.13331 0-0.25259 0.0526t-0.2105 0.14734q-0.0912 0.0912-0.14734 0.22453-0.0526 0.12981-0.0526 0.28768v2.29791q0 0.13332-0.0597 0.20348-0.0562 0.0667-0.18243 0.0667h-0.81046q-0.15086 0-0.20699-0.0491-0.0562-0.0526-0.0562-0.19997v-2.31897q0-0.15085-0.0456-0.28066-0.0421-0.1298-0.1263-0.22453-0.0807-0.0982-0.19997-0.15085-0.11577-0.0561-0.26312-0.0561-0.12629 0-0.24909 0.0526-0.11928 0.0491-0.21751 0.14384-0.0947 0.0912-0.16138 0.22102-0.0631 0.12981-0.0737 0.28768v2.31546q0 0.0596-0.0245 0.11928-0.0211 0.0596-0.0667 0.0912-0.0456 0.0281-0.0877 0.0386-0.0386 0.0105-0.0912 0.0105h-0.79287q-0.15086 0-0.21751-0.0737-0.0667-0.0737-0.0667-0.19646v-3.92575q0-0.0667 0.0281-0.12279 0.0315-0.0561 0.0842-0.0877z" style="font-feature-settings:normal;font-variant-caps:normal;font-variant-ligatures:normal;font-variant-numeric:normal"/>
     <path d="m242.4809 144.68319q0-0.11227 0.0631-0.19296 0.0632-0.0807 0.19646-0.0807h0.8034q0.0421 0 0.0912 0.0211 0.0491 0.0175 0.0912 0.0561 0.0421 0.0351 0.0702 0.0842 0.0316 0.0491 0.0316 0.11226v3.91171q0 0.13332-0.0737 0.20348-0.0737 0.0667-0.2105 0.0667h-0.80339q-0.25961 0-0.25961-0.27014zm0-1.77518q0-0.14735 0.0631-0.20699 0.0632-0.0632 0.19646-0.0632h0.81392q0.12279 0 0.19647 0.0632 0.0772 0.0596 0.0772 0.20699v0.68411q0 0.0421-0.0211 0.0912-0.0176 0.0491-0.0526 0.0947-0.0351 0.0456-0.0877 0.0772-0.0491 0.0281-0.11227 0.0281h-0.81391q-0.25961 0-0.25961-0.29118z" style="font-feature-settings:normal;font-variant-caps:normal;font-variant-ligatures:normal;font-variant-numeric:normal"/>
     <path d="m248.39617 148.33178q-0.30873 0.28417-0.69464 0.44555-0.38591 0.15787-0.81743 0.15787-0.48063 0-0.90864-0.17541-0.428-0.17541-0.75077-0.48414-0.32275-0.31224-0.5122-0.73323t-0.18945-0.91565q0-0.30873 0.0737-0.59641 0.0772-0.29118 0.21401-0.54378 0.14033-0.25259 0.3368-0.46309 0.19996-0.214 0.44555-0.36486 0.24557-0.15085 0.53325-0.23505t0.60693-0.0842q0.29119 0 0.56483 0.0772 0.27365 0.0772 0.51221 0.21751 0.24207 0.14033 0.44204 0.3368 0.19997 0.19646 0.3438 0.43151 0.14384 0.23155 0.22103 0.49818 0.0807 0.26312 0.0807 0.54378 0 0.18243-7e-3 0.2982-3e-3 0.11577-0.0526 0.18594-0.0491 0.0666-0.16489 0.0947-0.11226 0.0246-0.33328 0.0246h-2.52595q0.0351 0.22453 0.14033 0.37538 0.10875 0.15086 0.24909 0.24207 0.14032 0.0877 0.2982 0.1263 0.15787 0.0386 0.2982 0.0386 0.1263 0 0.25961-0.0246 0.13332-0.0281 0.25611-0.0702 0.12629-0.0456 0.22803-0.10174 0.10525-0.0596 0.1684-0.12279 0.0562-0.0456 0.0947-0.0667 0.0421-0.0246 0.0877-0.0246t0.0912 0.0316q0.0491 0.0316 0.10876 0.0912l0.37187 0.42099q0.0386 0.0456 0.0491 0.0842 0.0105 0.0351 0.0105 0.0737 0 0.0702-0.0386 0.12279-0.0386 0.0491-0.0912 0.0877zm-1.68748-2.92238q-0.13682 0-0.26663 0.0561-0.12629 0.0526-0.23856 0.14384-0.11227 0.0912-0.20348 0.20699-0.0877 0.11577-0.14384 0.23505h1.79272q-0.0737-0.13682-0.16137-0.25259-0.0842-0.11577-0.19647-0.20348-0.10875-0.0877-0.25259-0.13682-0.14033-0.0491-0.32978-0.0491z" style="font-feature-settings:normal;font-variant-caps:normal;font-variant-ligatures:normal;font-variant-numeric:normal"/>
     <path d="m249.7292 144.46918q0.0456-0.0386 0.0947-0.0491 0.0526-0.0105 0.0982-0.0105h0.52975q0.0632 0 0.10875 0.0246 0.0456 0.0211 0.0772 0.0596 0.0316 0.0386 0.0491 0.0877 0.021 0.0491 0.0386 0.10174l0.10876 0.44906q0.0526-0.10875 0.15085-0.24558 0.10174-0.14033 0.2561-0.25961 0.15437-0.12279 0.36487-0.20348 0.214-0.0842 0.49466-0.0842 0.39994 0 0.72621 0.15437 0.32627 0.15436 0.55431 0.42099 0.23154 0.26663 0.35784 0.62447 0.1263 0.35433 0.1263 0.75779v2.29791q0 0.13331-0.0597 0.20348-0.0562 0.0666-0.18243 0.0666h-0.81041q-0.15085 0-0.20699-0.0491-0.0562-0.0526-0.0562-0.19997v-2.28388q0-0.15086-0.0702-0.28417-0.0667-0.13682-0.17892-0.23856-0.11227-0.10525-0.2561-0.16489-0.14034-0.0596-0.28768-0.0596-0.1263 0-0.25961 0.0561-0.12981 0.0561-0.24208 0.15787-0.10875 0.0982-0.18593 0.23506-0.0737 0.13331-0.0842 0.29118v2.28038q0 0.0596-0.0245 0.11928-0.021 0.0596-0.0667 0.0912-0.0456 0.0281-0.0877 0.0386-0.0386 0.0105-0.0912 0.0105h-0.79287q-0.15085 0-0.21751-0.0737-0.0667-0.0737-0.0667-0.19646v-3.92575q0-0.0667 0.028-0.12279 0.0316-0.0561 0.0842-0.0877z" style="font-feature-settings:normal;font-variant-caps:normal;font-variant-ligatures:normal;font-variant-numeric:normal"/>
     <path d="m254.97866 143.71491q0-0.10876 0.0702-0.16138 0.0737-0.0561 0.20699-0.10525l0.79638-0.27715q0.0176-4e-3 0.0316-4e-3 0.0176 0 0.0315 0 0.12981 0 0.17191 0.0772 0.0456 0.0737 0.0456 0.19647l-3e-3 1.1051h0.58588q0.11226 0 0.18243 0.0667 0.0702 0.0666 0.0702 0.19997v0.67709q0 0.14735-0.0702 0.21752-0.0702 0.0666-0.18243 0.0666h-0.58588l3e-3 2.82065q0 0.13331-0.0772 0.20348-0.0772 0.0666-0.21401 0.0666h-0.79286q-0.27014 0-0.27014-0.27013l-3e-3 -2.82065h-0.2561q-0.27014 0-0.27014-0.28417v-0.67709q0-0.26662 0.27014-0.26662h0.2561z" style="font-feature-settings:normal;font-variant-caps:normal;font-variant-ligatures:normal;font-variant-numeric:normal"/>
     <path d="m257.47698 146.6408q0-0.32276 0.0807-0.62096 0.0842-0.29821 0.23154-0.5508 0.15086-0.2561 0.35785-0.46309 0.21049-0.2105 0.4666-0.35784 0.2561-0.14735 0.55079-0.22804 0.29821-0.0807 0.62097-0.0807 0.47712 0 0.8946 0.17892 0.42099 0.17541 0.72972 0.48765 0.31224 0.30873 0.49116 0.72972 0.18243 0.41748 0.18243 0.90513 0 0.32276-0.0842 0.62096-0.0807 0.2947-0.23154 0.5508-0.14735 0.2561-0.35785 0.4666-0.20699 0.20699-0.46309 0.35784-0.2561 0.14735-0.55079 0.22804-0.29119 0.0807-0.61044 0.0807-0.32276 0-0.62097-0.0807-0.29469-0.0807-0.55079-0.22804-0.25611-0.15085-0.4666-0.35784-0.20699-0.2105-0.35785-0.4666-0.14734-0.2561-0.23154-0.5508-0.0807-0.2982-0.0807-0.62096zm1.28052 0q0 0.23154 0.0702 0.43502 0.0737 0.19997 0.20348 0.34732 0.13331 0.14735 0.31925 0.23506 0.18945 0.0842 0.4245 0.0842 0.22804 0 0.41047-0.0842 0.18594-0.0877 0.31224-0.23506 0.1298-0.14735 0.19646-0.34732 0.0702-0.20348 0.0702-0.43502 0-0.22453-0.0702-0.42801-0.0667-0.20348-0.19646-0.35784-0.1263-0.15437-0.31224-0.24207-0.18243-0.0912-0.41047-0.0912-0.23505 0-0.4245 0.0912-0.18594 0.0877-0.31925 0.24207-0.1298 0.15436-0.20348 0.35784-0.0702 0.20348-0.0702 0.42801z" style="font-feature-settings:normal;font-variant-caps:normal;font-variant-ligatures:normal;font-variant-numeric:normal"/>
     <path d="m195.90273 156.96084q0.09 0.0741 0.22755 0.20109 0.14287 0.12171 0.32279 0.24341 0.26987 0.17992 0.53446 0.28046 0.26458 0.10054 0.55562 0.10054 0.26988 0 0.44979-0.0582 0.18521-0.0635 0.29104-0.16404 0.10584-0.10054 0.14817-0.23283 0.0476-0.13229 0.0476-0.28046 0-0.16404-0.127-0.29104-0.12171-0.13229-0.30163-0.23284-0.17992-0.10054-0.37571-0.16933-0.19579-0.0741-0.33866-0.12171-0.635-0.22225-1.11125-0.47625-0.47625-0.25929-0.79375-0.5715-0.3175-0.3175-0.47625-0.69321-0.15875-0.381-0.15875-0.84666 0-0.49213 0.19579-0.89429 0.20108-0.40217 0.56621-0.68792 0.37041-0.28575 0.889-0.43921 0.51858-0.15875 1.15887-0.15875 0.48154 0 0.92075 0.11113 0.4445 0.10583 0.87313 0.34395 0.17991 0.10584 0.33866 0.22225 0.16404 0.11113 0.28575 0.21696 0.12171 0.10584 0.1905 0.20109 0.0741 0.0952 0.0741 0.16404 0 0.0688-0.0371 0.127-0.0317 0.0582-0.10054 0.13229l-0.80962 0.86254q-0.09 0.09-0.17992 0.09-0.0741 0-0.13758-0.0423-0.0582-0.0423-0.13229-0.10584l-0.0476-0.0423q-0.10583-0.09-0.23812-0.18521-0.127-0.0952-0.27517-0.16933-0.14817-0.0794-0.31221-0.127-0.16404-0.0529-0.33337-0.0529-0.17463 0-0.32809 0.0318-0.15346 0.0265-0.26987 0.09-0.11642 0.0635-0.18521 0.16933-0.0688 0.10054-0.0688 0.24871t0.0741 0.25929q0.0741 0.10584 0.22225 0.20109 0.14817 0.0899 0.36513 0.17462 0.22225 0.0794 0.51329 0.17463 0.56091 0.1852 1.03187 0.39158 0.47625 0.20108 0.82021 0.48154 0.34396 0.27517 0.53446 0.66146 0.19579 0.38629 0.19579 0.93662 0 0.58209-0.23813 1.05834-0.23812 0.47096-0.65616 0.80433-0.41275 0.33338-0.97367 0.51858-0.56091 0.17992-1.2065 0.17992-0.60854 0-1.19591-0.21696-0.58738-0.21696-1.09538-0.58208-0.21167-0.15346-0.35983-0.30163-0.14288-0.14816-0.22754-0.23812l-0.0159-0.0159q-5e-3 -0.0106-0.0106-0.0106-5e-3 -5e-3 -0.0106-0.0106-5e-3 -0.0106-0.0106-0.0106-5e-3 -5e-3 -0.0106-0.0106-0.12171-0.13229-0.12171-0.21167 0-0.09 0.12171-0.20108l0.91546-0.87312q0.11112-0.0794 0.17991-0.0794 0.0476 0 0.10054 0.0318 0.0529 0.0317 0.127 0.0952z" style="font-feature-settings:normal;font-variant-caps:normal;font-variant-ligatures:normal;font-variant-numeric:normal"/>
     <path d="m208.55775 159.10397q0 0.09-0.0317 0.17462-0.0318 0.0794-0.10583 0.127-0.0582 0.0582-0.13758 0.0741-0.0794 0.0159-0.13759 0.0159h-1.04245q-0.11113 0-0.17992-0.0265-0.0688-0.0317-0.11113-0.0847-0.0423-0.0529-0.0741-0.127-0.0265-0.0794-0.0582-0.16933l-0.15346-0.39688q-0.14287 0.14288-0.3122 0.30692-0.16934 0.15875-0.37571 0.29633-0.20109 0.13759-0.43921 0.22755-0.23813 0.0952-0.508 0.0952-0.48154 0-0.92604-0.12171-0.43921-0.12171-0.8255-0.34396-0.381-0.22754-0.69321-0.53975-0.31221-0.3175-0.53975-0.70379-0.22225-0.38629-0.34396-0.83079-0.12171-0.4498-0.12171-0.93663 0-0.73554 0.26988-1.36525 0.26987-0.635 0.73554-1.10067 0.46567-0.47095 1.09537-0.73554 0.62971-0.26987 1.34938-0.26987 0.32808 0 0.60325 0.10054 0.27517 0.0953 0.49742 0.254 0.22754 0.15875 0.40745 0.35983 0.18521 0.20109 0.32809 0.40746l0.20637-0.64029q0.0529-0.13229 0.0847-0.21167 0.037-0.0847 0.0741-0.12171 0.0423-0.0423 0.10054-0.0529 0.0582-0.0159 0.16405-0.0159h0.78845q0.0582 0 0.13759 0.0159 0.0794 0.0159 0.13758 0.0741 0.0741 0.0582 0.10583 0.13229 0.0317 0.0741 0.0317 0.16934zm-5.21229-2.96333q0 0.34925 0.10584 0.65616 0.11112 0.30163 0.3122 0.52388 0.20109 0.22225 0.48155 0.35454 0.28575 0.127 0.6297 0.127 0.35455 0 0.65617-0.127 0.30692-0.13229 0.52917-0.35454 0.22754-0.22225 0.35454-0.52388 0.127-0.30691 0.127-0.65616 0-0.33867-0.127-0.64559-0.127-0.30691-0.35454-0.53975-0.22225-0.23283-0.52917-0.36512-0.30162-0.13759-0.65617-0.13759-0.34395 0-0.6297 0.13759-0.28046 0.13229-0.48155 0.36512-0.20108 0.23284-0.3122 0.53975-0.10584 0.30692-0.10584 0.64559z" style="font-feature-settings:normal;font-variant-caps:normal;font-variant-ligatures:normal;font-variant-numeric:normal"/>
     <path d="m209.96468 152.86509q0.0688-0.0582 0.14287-0.0741 0.0794-0.0159 0.14817-0.0159h0.79904q0.0953 0 0.16404 0.037 0.0688 0.0317 0.11642 0.09 0.0476 0.0582 0.0741 0.13229 0.0317 0.0741 0.0582 0.15346l0.16404 0.67733q0.0794-0.16404 0.22754-0.37042 0.15346-0.21166 0.38629-0.39158 0.23284-0.18521 0.55034-0.30692 0.32279-0.127 0.74612-0.127 0.60325 0 1.09538 0.23284 0.49212 0.23283 0.83608 0.635 0.34925 0.40216 0.53975 0.94191 0.1905 0.53446 0.1905 1.143v3.46604q0 0.20109-0.09 0.30692-0.0847 0.10054-0.27516 0.10054h-1.22238q-0.22754 0-0.31221-0.0741-0.0847-0.0794-0.0847-0.30162v-3.44488q0-0.22754-0.10584-0.42863-0.10054-0.20637-0.26987-0.35983-0.16934-0.15875-0.38629-0.24871-0.21167-0.09-0.43392-0.09-0.1905 0-0.39158 0.0847-0.1958 0.0847-0.36513 0.23813-0.16404 0.14816-0.28046 0.35454-0.11112 0.20108-0.127 0.43921v3.43958q0 0.09-0.037 0.17992-0.0317 0.09-0.10054 0.13758-0.0688 0.0423-0.13229 0.0582-0.0582 0.0159-0.13759 0.0159h-1.19591q-0.22754 0-0.32809-0.11113-0.10054-0.11112-0.10054-0.29633v-5.92138q0-0.10054 0.0423-0.18521 0.0476-0.0847 0.127-0.13229z" style="font-feature-settings:normal;font-variant-caps:normal;font-variant-ligatures:normal;font-variant-numeric:normal"/>
     <path d="m221.45933 151.87026q0.0106-0.0952 0.0741-0.16404 0.0635-0.0688 0.17991-0.0688h1.83092q0.19579 0 0.254 0.20108l1.43933 4.80483 1.44992-4.80483q0.0741-0.20108 0.26988-0.20108h1.80975q0.0952 0 0.16933 0.0688 0.0794 0.0635 0.09 0.16404 0.18521 1.86267 0.37571 3.69888 0.19579 1.83091 0.381 3.69358v0.0265q0 0.20637-0.23284 0.20637h-1.49754q-0.24342 0-0.254-0.23283l-0.46037-4.09046-1.19063 4.11692q-0.0106 0.0529-0.0794 0.127-0.0635 0.0741-0.127 0.0741h-1.39171q-0.0635 0-0.13759-0.0688-0.0688-0.0741-0.0741-0.13229l-1.19062-4.10634-0.46038 4.07988q-0.0106 0.23283-0.25929 0.23283h-1.49754q-0.22754 0-0.22754-0.23283z" style="font-feature-settings:normal;font-variant-caps:normal;font-variant-ligatures:normal;font-variant-numeric:normal"/>
     <path d="m237.55857 159.10397q0 0.09-0.0318 0.17462-0.0317 0.0794-0.10584 0.127-0.0582 0.0582-0.13758 0.0741-0.0794 0.0159-0.13758 0.0159h-1.04246q-0.11113 0-0.17992-0.0265-0.0688-0.0317-0.11112-0.0847-0.0423-0.0529-0.0741-0.127-0.0264-0.0794-0.0582-0.16933l-0.15346-0.39688q-0.14288 0.14288-0.31221 0.30692-0.16933 0.15875-0.37571 0.29633-0.20108 0.13759-0.43921 0.22755-0.23812 0.0952-0.508 0.0952-0.48154 0-0.92604-0.12171-0.43921-0.12171-0.8255-0.34396-0.381-0.22754-0.69321-0.53975-0.31221-0.3175-0.53975-0.70379-0.22225-0.38629-0.34396-0.83079-0.1217-0.4498-0.1217-0.93663 0-0.73554 0.26987-1.36525 0.26988-0.635 0.73554-1.10067 0.46567-0.47095 1.09538-0.73554 0.62971-0.26987 1.34937-0.26987 0.32809 0 0.60325 0.10054 0.27517 0.0953 0.49742 0.254 0.22754 0.15875 0.40746 0.35983 0.18521 0.20109 0.32808 0.40746l0.20638-0.64029q0.0529-0.13229 0.0847-0.21167 0.037-0.0847 0.0741-0.12171 0.0423-0.0423 0.10054-0.0529 0.0582-0.0159 0.16404-0.0159h0.78846q0.0582 0 0.13758 0.0159 0.0794 0.0159 0.13758 0.0741 0.0741 0.0582 0.10584 0.13229 0.0318 0.0741 0.0318 0.16934zm-5.21229-2.96333q0 0.34925 0.10583 0.65616 0.11112 0.30163 0.31221 0.52388 0.20108 0.22225 0.48154 0.35454 0.28575 0.127 0.62971 0.127 0.35454 0 0.65616-0.127 0.30692-0.13229 0.52917-0.35454 0.22754-0.22225 0.35454-0.52388 0.127-0.30691 0.127-0.65616 0-0.33867-0.127-0.64559-0.127-0.30691-0.35454-0.53975-0.22225-0.23283-0.52917-0.36512-0.30162-0.13759-0.65616-0.13759-0.34396 0-0.62971 0.13759-0.28046 0.13229-0.48154 0.36512-0.20109 0.23284-0.31221 0.53975-0.10583 0.30692-0.10583 0.64559z" style="font-feature-settings:normal;font-variant-caps:normal;font-variant-ligatures:normal;font-variant-numeric:normal"/>
     <path d="m238.82791 153.16672q0-0.09 0.037-0.16933 0.0423-0.0847 0.10054-0.1323 0.13758-0.09 0.28575-0.09h0.79904q0.10054 0 0.15875 0.037 0.0582 0.037 0.0952 0.0952 0.0423 0.0582 0.0688 0.13229 0.0317 0.0741 0.0741 0.14817 0.0106 0.0212 0.0423 0.10583 0.0318 0.0794 0.0688 0.17992 0.037 0.0953 0.0688 0.1852 0.037 0.0847 0.0476 0.11113 0.15875-0.17463 0.30162-0.36513 0.14817-0.19579 0.31221-0.35983t0.36513-0.26987q0.20108-0.10584 0.47625-0.10584 0.28575 0 0.508 0.0423 0.22754 0.0423 0.42862 0.127 0.20108 0.0794 0.39688 0.20637 0.20108 0.127 0.43391 0.29633 0.36513 0.1958 0.13759 0.58209l-0.48155 0.82021q-0.10583 0.15875-0.25929 0.19579-0.15346 0.037-0.33337-0.0476-0.22754-0.22225-0.46567-0.32808-0.23283-0.11113-0.53446-0.11113-0.20637 0-0.36512 0.0582-0.15346 0.0582-0.28046 0.16404t-0.23813 0.254q-0.11112 0.14817-0.22225 0.32809v3.83116q0 0.20109-0.10054 0.30692-0.0953 0.10054-0.32279 0.10054h-1.19062q-0.41275 0-0.41275-0.40746z" style="font-feature-settings:normal;font-variant-caps:normal;font-variant-ligatures:normal;font-variant-numeric:normal"/>
     <path d="m248.72142 157.42651q0.0741-0.0529 0.13758-0.0635 0.0688-0.0159 0.10584-0.0159 0.0899 0 0.16404 0.037 0.0741 0.037 0.15346 0.15875l0.59266 0.89429q0.0265 0.0423 0.0476 0.0952 0.0265 0.0529 0.0265 0.0847 0 0.12171-0.0794 0.20108-0.0741 0.0741-0.16404 0.1323-0.43392 0.30162-0.9525 0.48683-0.51329 0.17992-1.09008 0.17992-0.47625 0-0.92075-0.12171-0.43921-0.12171-0.82021-0.34396-0.381-0.22754-0.6985-0.53975-0.3175-0.3175-0.53975-0.70379t-0.34925-0.83079q-0.12171-0.4498-0.12171-0.93663t0.12171-0.93662q0.127-0.4498 0.34925-0.8308 0.22225-0.38629 0.53975-0.6985 0.3175-0.3175 0.6985-0.53975t0.82021-0.34395q0.4445-0.12171 0.92075-0.12171 0.57679 0 1.06362 0.15346 0.49213 0.15345 0.92075 0.45508l-0.0159-0.0159q0.11641 0.0688 0.1852 0.16405 0.0688 0.09 0.0688 0.22754 0 0.0952-0.0635 0.19579l-0.47096 0.79904q-0.14817 0.25929-0.35984 0.25929-0.0476 0-0.11641-0.0212-0.0688-0.0265-0.15346-0.0847-0.23283-0.15346-0.50271-0.24871-0.26458-0.10054-0.56621-0.10054-0.33337 0-0.61383 0.13758-0.28046 0.13229-0.48154 0.36513-0.19579 0.23283-0.30692 0.53975-0.11112 0.30691-0.11112 0.64558 0 0.34925 0.11112 0.65617 0.11113 0.30162 0.30692 0.52387 0.20108 0.22225 0.48154 0.35454 0.28046 0.127 0.61383 0.127 0.30163 0 0.56621-0.10583t0.50271-0.26988z" style="font-feature-settings:normal;font-variant-caps:normal;font-variant-ligatures:normal;font-variant-numeric:normal"/>
     <path d="m250.51745 156.14064q0-0.48684 0.1217-0.93663 0.127-0.44979 0.34925-0.83079 0.22755-0.38629 0.53975-0.6985 0.3175-0.3175 0.7038-0.53975 0.38629-0.22225 0.83079-0.34396 0.44979-0.12171 0.93662-0.12171 0.71967 0 1.34938 0.26988 0.635 0.26458 1.10066 0.73554 0.47096 0.46567 0.74084 1.10067 0.27516 0.6297 0.27516 1.36525 0 0.48683-0.127 0.93662-0.1217 0.4445-0.34925 0.83079-0.22225 0.38629-0.53975 0.70379-0.3122 0.31221-0.6985 0.53975-0.38629 0.22225-0.83079 0.34396-0.43921 0.12171-0.92075 0.12171-0.48683 0-0.93662-0.12171-0.4445-0.12171-0.83079-0.34396-0.3863-0.22754-0.7038-0.53975-0.3122-0.3175-0.53975-0.70379-0.22225-0.38629-0.34925-0.83079-0.1217-0.44979-0.1217-0.93662zm1.93145 0q0 0.34925 0.10584 0.65616 0.11112 0.30163 0.30691 0.52388 0.20109 0.22225 0.48155 0.35454 0.28575 0.127 0.64029 0.127 0.34396 0 0.61912-0.127 0.28046-0.13229 0.47096-0.35454 0.19579-0.22225 0.29633-0.52388 0.10584-0.30691 0.10584-0.65616 0-0.33867-0.10584-0.64559-0.10054-0.30691-0.29633-0.53975-0.1905-0.23283-0.47096-0.36512-0.27516-0.13759-0.61912-0.13759-0.35454 0-0.64029 0.13759-0.28046 0.13229-0.48155 0.36512-0.19579 0.23284-0.30691 0.53975-0.10584 0.30692-0.10584 0.64559z" style="font-feature-settings:normal;font-variant-caps:normal;font-variant-ligatures:normal;font-variant-numeric:normal"/>
     <path d="m259.53238 157.40534q0.14287 0.14288 0.30691 0.24342 0.16934 0.0952 0.3228 0.15875 0.15345 0.0582 0.26987 0.0847t0.15875 0.0265q0.10054 0 0.254-5e-3 0.15875-0.0106 0.30163-0.0476 0.14287-0.0423 0.24341-0.13229 0.10584-0.09 0.10584-0.254 0-0.14817-0.0582-0.23283-0.0582-0.09-0.16934-0.14817-0.11112-0.0635-0.27516-0.11113-0.15875-0.0476-0.35984-0.11112-0.635-0.16933-1.04775-0.40746-0.41275-0.23812-0.65616-0.52917-0.23813-0.29633-0.33338-0.635-0.0953-0.33866-0.0953-0.71437 0-0.43921 0.17463-0.79904 0.17462-0.35984 0.49741-0.61384 0.3228-0.25929 0.77259-0.39687 0.44979-0.14288 1.00012-0.14288 0.33338 0 0.62442 0.0582 0.29104 0.0529 0.55562 0.17463 0.26459 0.11641 0.5133 0.30691 0.25399 0.18521 0.5027 0.4445 0.09 0.10584 0.09 0.20109 5e-3 0.09-0.11642 0.19579-0.20637 0.16933-0.39687 0.33337-0.18521 0.16405-0.38629 0.36513-0.0635 0.0529-0.127 0.0688-0.0635 0.0106-0.12171-5e-3 -0.0582-0.0159-0.11112-0.0529-0.0529-0.037-0.0952-0.0899-0.18521-0.20638-0.42334-0.27517-0.23812-0.0741-0.4445-0.0741-0.25929 0-0.41275 0.09t-0.14287 0.27517q0.0106 0.13758 0.10054 0.21696 0.0952 0.0741 0.22754 0.12171 0.13758 0.0476 0.28575 0.0794 0.15346 0.0265 0.28046 0.0635 0.47625 0.15346 0.87312 0.33338 0.39688 0.17991 0.68792 0.4445 0.29104 0.25929 0.44979 0.62441 0.16404 0.36513 0.16404 0.889 0 0.52388-0.21166 0.93663-0.20638 0.41275-0.5715 0.69321-0.36513 0.28046-0.86784 0.42862-0.49741 0.14817-1.0742 0.14817-0.32809 0-0.66675-0.0582-0.33867-0.0582-0.65617-0.18521-0.3175-0.13229-0.60325-0.33338-0.28575-0.20637-0.508-0.49741-0.0582-0.0741-0.09-0.15346-0.0265-0.0847-0.0265-0.16404 5e-3 -0.0794 0.0317-0.14288 0.0317-0.0688 0.0952-0.11641l0.68263-0.68263q0.127-0.10583 0.22225-0.0741 0.10054 0.0317 0.254 0.17991z" style="font-feature-settings:normal;font-variant-caps:normal;font-variant-ligatures:normal;font-variant-numeric:normal"/>
    </g>
    <g stroke-width=".10012563">
     <path d="m229.11961 248.39424v5.21144c0 0.77387-0.62718 1.40106-1.40105 1.40106h-4.12037c-0.77388 0-1.40106-0.62719-1.40106-1.40106v-5.21144h5.83652z" fill="#74767f"/>
     <path d="m205.66589 252.73368v0.872c0 0.77387-0.62719 1.40106-1.40106 1.40106h-4.12037c-0.77387 0-1.40106-0.62719-1.40106-1.40106v-5.21144h6.92239v4.33944z" fill="#74767f"/>
     <path d="m226.61618 229.08261-0.0868-0.65713c-0.13848-1.22022-1.17057-2.14178-2.39911-2.14178h-20.3975c-1.22844 0-2.26063 0.92166-2.39911 2.14178l-0.0868 0.65713-1.16015 8.77291v1.10448h27.68974v-1.10448z" fill="#c8e5fc"/>
     <path d="m226.96076 236.97034v0.37817c0 0.76115 0.61718 1.37833 1.37833 1.37833h1.41137c0.97002-1e-4 1.75641-0.78639 1.75641-1.7565 0-0.97012-0.78639-1.75641-1.75641-1.75641h-1.41137c-0.76115 0-1.37833 0.61717-1.37833 1.37833z" fill="#de4242"/>
     <path d="m201.26507 228.94534-0.0182 0.13727h25.36923l-0.0868-0.65713c-0.13847-1.22022-1.17057-2.14178-2.39911-2.14178h-20.39739c-0.24971 0-0.49042 0.0397-0.7181 0.11064-0.12236 0.0381-0.24151 0.084-0.35485 0.14028-0.25942 0.12886-0.49292 0.30308-0.68967 0.51284-0.1632 0.17422-0.29917 0.37416-0.4056 0.59184-0.11795 0.24161-0.19895 0.50533-0.2308 0.78609z" fill="#74767f"/>
     <path d="m200.69037 236.812v0.37818c0 0.76115-0.61717 1.37832-1.37833 1.37832h-1.41137c-0.97001-9e-5 -1.7564-0.78638-1.7564-1.7565s0.78639-1.7564 1.7564-1.7564h1.41137c0.76116 0 1.37833 0.61717 1.37833 1.37833z" fill="#de4242"/>
     <path d="m231.08368 245.98792c-0.0651-1.83911-0.27995-3.71646-0.63229-5.62685-0.26654-1.45373-1.54054-2.50555-3.01799-2.50555h-27.00989c-1.47545 0-2.74835 1.04771-3.01698 2.49934-0.35024 1.89287-0.56411 3.77123-0.62719 5.63296-0.0124 0.3193-0.0186 0.6365-0.0206 0.9547-0.0114 1.70894 1.36171 3.1048 3.07065 3.1048h28.20429c1.70894 0 3.08517-1.39486 3.07175-3.1037-2e-3 -0.3172-9e-3 -0.6365-0.0217-0.9557z" fill="#fc5151"/>
     <path d="m231.1054 246.94362c0.0135 1.70895-1.3628 3.1037-3.07175 3.1037h-28.20428c-1.70895 0-3.08208-1.39586-3.07066-3.1048 2e-3 -0.3182 8e-3 -0.6354 0.0206-0.9547h8.67579c0.2449 0.78629 0.97843 1.37313 1.86594 1.37313h13.22079c0.88751 0 1.62113-0.58684 1.86594-1.37313h8.67579c0.0125 0.3193 0.0197 0.6386 0.0219 0.9558z" fill="#de4242"/>
     <path d="m205.45512 245.98792c-0.0857-0.27274-0.11154-0.57031-0.0651-0.8751l0.31199-2.03545c0.14669-0.9536 0.96601-1.65728 1.93103-1.65728h12.5968c0.96501 0 1.78434 0.70358 1.93102 1.65728l0.312 2.03545c0.0464 0.30479 0.0206 0.60236-0.0651 0.8751-0.2449 0.78629-0.97842 1.37313-1.86593 1.37313h-13.22079c-0.88752 0-1.62104-0.58694-1.86595-1.37313z" fill="#d1d5cd"/>
     <path d="m208.88022 246.71523c-0.88751 0-1.62113-0.58683-1.86594-1.37312-0.0857-0.27274-0.11154-0.57031-0.0651-0.8751l0.312-2.03545c0.0599-0.38959 0.23349-0.73623 0.4821-1.01147h-0.11003c-0.96502 0-1.78434 0.70358-1.93103 1.65728l-0.31199 2.03545c-0.0465 0.30479-0.0206 0.60236 0.0651 0.8751 0.24491 0.78629 0.97843 1.37313 1.86595 1.37313h13.22078c0.58053 0 1.09408-0.25202 1.44912-0.64572h-13.11095z" fill="#c4c6c2"/>
     <path d="m209.79877 245.03633h-1.44651c-0.42794 0-0.77488-0.34684-0.77488-0.77487 0-0.42804 0.34694-0.77488 0.77488-0.77488h1.44651c0.42794 0 0.77488 0.34684 0.77488 0.77488 0 0.42803-0.34694 0.77487-0.77488 0.77487z" fill="#c4c6c1"/>
     <path d="m219.61409 245.03633h-7.33571c-0.42793 0-0.77487-0.34684-0.77487-0.77487 0-0.42804 0.34694-0.77488 0.77487-0.77488h7.33571c0.42803 0 0.77487 0.34684 0.77487 0.77488 0 0.42803-0.34673 0.77487-0.77487 0.77487z" fill="#c4c6c1"/>
     <path d="m225.90855 240.02524c1.08386 0 1.96307 0.8793 1.96307 1.96306 0 1.08386-0.87931 1.96306-1.96307 1.96306-1.08375 0-1.96306-0.8793-1.96306-1.96306s0.8792-1.96306 1.96306-1.96306z" fill="#c8e5fc"/>
     <path d="m202.12513 240.02524c1.08386 0 1.96307 0.8793 1.96307 1.96306 0 1.08386-0.87931 1.96306-1.96307 1.96306-1.08375 0-1.96306-0.8793-1.96306-1.96306s0.8792-1.96306 1.96306-1.96306z" fill="#c8e5fc"/>
    </g>
    <g transform="matrix(.34025536 0 0 .34025536 -11.624157 186.80646)">
     <g stroke-width=".26458332">
      <path d="m578.77873 142.2942-6.74978-27.70055c-0.88662-2.96281-3.61077-4.99402-6.70322-4.99825h-59.65217c-3.09271 4e-3 -5.81659 2.03544-6.70321 4.99825l-6.75005 27.70055z" fill="#b0d3f0"/>
      <path d="m488.78706 170.37737v25.69184c-8e-3 2.57677-2.0947 4.66354-4.67122 4.67122h-7.00696c-2.57677-8e-3 -4.66354-2.09471-4.67121-4.67122v-25.69184z" fill="#2c3e50"/>
      <path d="m598.56163 170.37737v25.69184c-8e-3 2.57677-2.09471 4.66354-4.67122 4.67122h-7.00696c-2.57678-8e-3 -4.66355-2.09471-4.67122-4.67122v-25.69184z" fill="#2c3e50"/>
     </g>
     <polygon transform="matrix(.26458333 0 0 .26458333 467.76433 109.5954)" points="459.042 105.931 344.283 105.931 167.731 105.931 52.973 105.931 52.973 282.483 459.042 282.483" fill="#7d6599"/>
     <g stroke-width=".26458332">
      <path d="m472.4374 179.66448v-32.69906c0-5.15964 4.1828-9.34244 9.34244-9.34244s9.34244 4.1828 9.34244 9.34244v32.69879h-18.68488z" fill="#3d324c"/>
      <path d="m472.4374 179.66448h126.12423c2.57995 0 4.67122 2.09126 4.67122 4.67121 0 2.57996-2.09153 4.67122-4.67122 4.67122h-126.12423c-2.57995 0-4.67122-2.09153-4.67122-4.67122 0-2.57995 2.09153-4.67121 4.67122-4.67121z" fill="#bdc3c7"/>
      <circle cx="496.96161" cy="152.8045" r="5.8390894" fill="#f0c419"/>
      <circle cx="491.12253" cy="174.993" r="4.6712189" fill="#ecf0f1"/>
      <path d="m598.56163 179.66448v-32.69906c0-5.15964-4.1828-9.34244-9.34244-9.34244s-9.34244 4.1828-9.34244 9.34244v32.69879h18.68488z" fill="#3d324c"/>
      <path d="m540.17073 118.93784h-9.34243c-1.28985 0-2.33575 1.04563-2.33575 2.33574s1.04564 2.33574 2.33575 2.33574h2.33574v4.67122c0 1.28984 1.04563 2.33574 2.33574 2.33574 1.28984 0 2.33574-1.04563 2.33574-2.33574v-4.67122h2.33574c1.28985 0 2.33574-1.04563 2.33574-2.33574s-1.04616-2.33574-2.33627-2.33574z" fill="#3f5c6c"/>
      <circle cx="574.03741" cy="152.8045" r="5.8390894" fill="#f0c419"/>
      <circle cx="579.87646" cy="174.993" r="4.6712189" fill="#ecf0f1"/>
     </g>
     <g transform="matrix(.26458333 0 0 .26458333 467.76433 109.5954)" fill="#7d6599">
      <circle cx="44.145" cy="88.276001" r="17.655001"/>
      <circle cx="467.86899" cy="88.276001" r="17.655001"/>
     </g>
     <polygon transform="matrix(.26458333 0 0 .26458333 467.76433 109.5954)" points="344.283 105.931 344.283 264.828 167.731 264.828 167.731 105.931 256.007 70.621" fill="#ecf0f1"/>
     <g transform="matrix(.26458333 0 0 .26458333 467.76433 109.5954)" fill="#95a5a5">
      <path d="m211.869 264.828v-132.414c0-4.875-3.952-8.828-8.828-8.828s-8.828 3.952-8.828 8.828v132.414z"/>
      <path d="m247.18 264.828v-132.414c0-4.875-3.952-8.828-8.828-8.828-4.875 0-8.828 3.952-8.828 8.828v132.414z"/>
      <path d="m282.49 264.828v-132.414c0-4.875-3.952-8.828-8.828-8.828s-8.828 3.952-8.828 8.828v132.414z"/>
      <path d="m317.8 264.828v-132.414c0-4.875-3.952-8.828-8.828-8.828-4.875 0-8.828 3.952-8.828 8.828v132.414z"/>
     </g>
    </g>
    <g transform="matrix(.3298672 0 0 .3298672 128.8774 224.10135)">
     <g transform="matrix(.26458333 0 0 .26458333 322.26886 -27.29112)" fill="#e5ba03">
      <path d="m488.8 170.178h-28.796c-12.792 0-23.2 10.408-23.2 23.2v22.396l-9.564 25.864 14.694 5.433 8.158-22.062h30.277c17.441 0 31.63-14.19 31.63-31.63 1e-3 -12.793-10.407-23.201-23.199-23.201z"/>
      <path d="m75.196 193.378c0-12.792-10.408-23.2-23.2-23.2h-28.797c-12.792 0-23.199 10.408-23.199 23.2 0 17.441 14.19 31.63 31.63 31.63h30.277l8.158 22.062 14.694-5.433-9.564-25.864v-22.395z"/>
     </g>
     <polygon transform="matrix(.26458333 0 0 .26458333 322.26886 -27.29112)" points="356.226 133.129 340.558 53.571 171.442 53.571 155.774 133.129" fill="#f9ca00"/>
     <g transform="matrix(.26458333 0 0 .26458333 322.26886 -27.29112)" fill="#2b2a32">
      <path d="m29.893 369.08v73.747c0 8.618 6.986 15.603 15.603 15.603h60.176c8.618 0 15.603-6.986 15.603-15.603v-79.413"/>
      <path d="m390.73 363.414v79.413c0 8.618 6.986 15.603 15.603 15.603h60.176c8.618 0 15.603-6.986 15.603-15.603v-84.888"/>
     </g>
     <g stroke-width=".26458332">
      <path d="m445.72503 37.360875h-111.44567c-4.24895 0-7.69356 3.44461-7.69356 7.693554v23.807737h126.83278v-23.807737c0-4.248944-3.44461-7.693554-7.69355-7.693554z" fill="#f9ca00"/>
      <rect x="358.50223" y="44.675545" width="63.002319" height="12.02002" fill="#616970"/>
      <path d="m457.70721 66.870912v6.883665c0 1.876425-1.52267 3.396191-3.39619 3.396191h-128.61316c-1.87643 0-3.39619-1.519766-3.39619-3.396191v-6.883665c0-1.876425 1.51976-3.396191 3.39619-3.396191h128.61316c1.87378 0 3.39619 1.520031 3.39619 3.396191z" fill="#8292a3"/>
      <path d="m437.25439 37.36061h-94.50466l7.70995-23.148924c1.24619-3.74994 4.75589-6.2782981 8.70744-6.2782981h61.67041c3.95155 0 7.46125 2.5286231 8.70743 6.2782981z" fill="#c0eaf9"/>
      <path d="m435.9418 39.982102-8.36216-25.116631c-0.96811-2.907241-3.67691-4.860396-6.74132-4.860396h-61.67252c-3.06414 0-5.77294 1.953155-6.74105 4.860396l-8.36216 25.116631-3.93277-1.309687 8.36242-25.116631c1.53247-4.6032211 5.82189-7.6962003 10.67356-7.6962003h61.67279c4.85166 0 9.14135 3.0927146 10.67382 7.6962003l8.36242 25.116631z" fill="#f9ca00"/>
      <path d="m421.50322 58.769106h-63.00205c-1.14459 0-2.07249-0.927894-2.07249-2.072481v-12.020021c0-1.144587 0.9279-2.072481 2.07249-2.072481h63.00205c1.14459 0 2.07248 0.927894 2.07248 2.072481v12.020021c0 1.144587-0.92789 2.072481-2.07248 2.072481zm-60.92957-4.144962h58.85682v-7.875059h-58.85682z" fill="#e5ba03"/>
     </g>
     <g transform="matrix(.26458333 0 0 .26458333 322.26886 -27.29112)" fill="#feffff">
      <rect x="403.25299" y="282.99799" width="65.795998" height="34.464001"/>
      <rect x="42.946999" y="282.99799" width="65.795998" height="34.464001"/>
     </g>
     <g transform="matrix(.26458333 0 0 .26458333 322.26886 -27.29112)" fill="#2b2a32">
      <path d="m219.432 69.77c2.295 0 3.268 2.502 3.268 4.797 0 2.642-1.182 4.937-3.268 4.937h-9.595v37.756c0 2.225-2.711 3.337-5.424 3.337-2.711 0-5.424-1.112-5.424-3.337v-37.756h-9.595c-2.086 0-3.268-2.295-3.268-4.937 0-2.295 0.973-4.797 3.268-4.797z"/>
      <path d="m222.628 116.148c0-0.209 0.07-0.487 0.139-0.765l12.933-42.414c0.765-2.435 3.894-3.616 7.093-3.616s6.327 1.181 7.093 3.616l13.002 42.414c0.07 0.279 0.139 0.557 0.139 0.765 0 2.572-3.964 4.45-6.953 4.45-1.739 0-3.129-0.557-3.547-2.017l-2.365-8.692h-14.671l-2.365 8.692c-0.417 1.46-1.808 2.017-3.546 2.017-2.988 0-6.952-1.878-6.952-4.45zm25.24-14.601-5.076-18.635-5.076 18.635c0-1e-3 10.152-1e-3 10.152 0z"/>
      <path d="m287.287 102.658-10.152 17.245c-0.487 0.765-1.46 1.112-2.572 1.112-2.989 0-7.231-2.365-7.231-5.354 0-0.627 0.209-1.252 0.626-1.947l12.029-18.565-11.542-18.495c-0.487-0.765-0.696-1.46-0.696-2.156 0-2.92 3.963-5.145 7.023-5.145 1.529 0 2.572 0.556 3.268 1.808l9.247 16.131 9.247-16.131c0.696-1.252 1.739-1.808 3.268-1.808 3.059 0 7.023 2.225 7.023 5.145 0 0.696-0.209 1.391-0.696 2.156l-11.542 18.495 12.029 18.565c0.417 0.696 0.626 1.321 0.626 1.947 0 2.989-4.241 5.354-7.232 5.354-1.112 0-2.155-0.348-2.572-1.112z"/>
      <path d="m315.027 73.038c0-2.295 2.711-3.268 5.423-3.268s5.424 0.973 5.424 3.268v44.222c0 2.225-2.711 3.337-5.424 3.337-2.711 0-5.423-1.112-5.423-3.337z"/>
     </g>
     <g transform="matrix(.26458333 0 0 .26458333 322.26886 -27.29112)" fill="#e5ba03">
      <rect x="129.112" y="272" width="15.666" height="45.43"/>
      <rect x="168.78999" y="272" width="15.666" height="45.43"/>
      <rect x="208.478" y="272" width="15.666" height="45.43"/>
      <rect x="248.166" y="272" width="15.666" height="45.43"/>
      <rect x="287.854" y="272" width="15.666" height="45.43"/>
      <rect x="327.543" y="272" width="15.666" height="45.43"/>
      <rect x="367.23099" y="272" width="15.666" height="45.43"/>
     </g>
    </g>
    <g fill="#fff" stroke="#0d47a1" stroke-width="1.0583334">
     <g style="font-feature-settings:normal;font-variant-caps:normal;font-variant-ligatures:normal;font-variant-numeric:normal" aria-label="1">
      <path d="m172.40353 227.13629-2.79052 0.0775-0.76654 0.62873v2.64411l0.68902-0.31867 0.0775 8.33713h3.01446z" fill="#fff" stroke="#0d47a1" stroke-width="1.0583334" style="font-feature-settings:normal;font-variant-caps:normal;font-variant-ligatures:normal;font-variant-numeric:normal"/>
     </g>
     <g style="font-feature-settings:normal;font-variant-caps:normal;font-variant-ligatures:normal;font-variant-numeric:normal" aria-label="2">
      <path d="m216.22515 227.59817q-2.59244-1.57613-4.82314-0.0258-1.11965 0.81821-1.97232 2.02399l1.73978 2.20486q0.22393-0.36173 0.62873-0.67179 0.89572-0.89573 1.80006-0.70625 0.50815 0.11197 0.41341 0.68902-0.0775 0.49093-0.57705 1.2833-0.93879 1.47278-2.29099 2.3685-0.58567 0.49954-1.08521 0.8785l-0.2067 3.04891 7.00216 0.14642 9e-3 -2.91972-3.53984 0.16364q1.67949-1.55029 2.87666-3.37619 1.05075-1.59336 1.17133-2.79914 0.16364-1.50723-1.14549-2.30822z" fill="#fff" stroke="#0d47a1" stroke-width="1.0583334" style="font-feature-settings:normal;font-variant-caps:normal;font-variant-ligatures:normal;font-variant-numeric:normal"/>
     </g>
     <g style="font-feature-settings:normal;font-variant-caps:normal;font-variant-ligatures:normal;font-variant-numeric:normal" aria-label="3">
      <path d="m253.78672 227.29897 0.0775 2.62688 3.31591-0.0775-2.79053 2.02399q0.76653-0.11196 1.50723 0.0861 1.49862 0.39619 1.45555 1.95509-0.0517 1.56752-1.50723 1.54168-0.73208-0.0172-1.45555-0.34451l-0.68041 2.80776q1.24024 0.39618 2.7044 0.42202 2.9025 0.0603 3.97048-1.76561 1.46416-2.51492-0.0258-4.25469-0.74931-0.86989-1.71394-1.32637l2.98001-3.66041z" fill="#fff" stroke="#0d47a1" stroke-width="1.0583334" style="font-feature-settings:normal;font-variant-caps:normal;font-variant-ligatures:normal;font-variant-numeric:normal"/>
     </g>
    </g>
   </g>
  </g>
 </g>
</svg>
