<?xml version="1.0" encoding="UTF-8"?>
<!-- Created with Inkscape (http://www.inkscape.org/) -->
<svg width="562" height="512" version="1.1" viewBox="0 0 148.69583 135.46667" xmlns="http://www.w3.org/2000/svg" xmlns:cc="http://creativecommons.org/ns#" xmlns:dc="http://purl.org/dc/elements/1.1/" xmlns:rdf="http://www.w3.org/1999/02/22-rdf-syntax-ns#">
 <metadata>
  <rdf:RDF>
   <cc:Work rdf:about="">
    <dc:format>image/svg+xml</dc:format>
    <dc:type rdf:resource="http://purl.org/dc/dcmitype/StillImage"/>
    <dc:title/>
   </cc:Work>
  </rdf:RDF>
 </metadata>
 <g transform="translate(-500.42209,-97.428383)">
  <rect x="500.42209" y="97.428383" width="148.69583" height="135.46667" opacity="0" stroke-width="1.04392946"/>
  <rect x="507.03668" y="97.428391" width="135.46666" height="135.46666" ry="0" opacity="0" stroke-width="2.08046722"/>
  <g>
   <g stroke="#ccc" stroke-linecap="round" stroke-width="2.47349143">
    <path d="m568.59222 98.6656c-2.95091 3e-3 -5.70217 1.49139-7.31919 3.96069-1.55338-1.252-3.48744-1.93605-5.48226-1.93904-4.70249 6e-3 -8.41703 3.48838-8.59772 7.99252-0.0371 1.21203 0.17828 3.44829 0.90466 4.94145 2.81712 5.79089 13.28257 14.0262 13.28257 14.0262h14.42386s10.16693-8.36628 13.27531-13.99576c0.69879-1.26553 1.07322-2.73368 1.07327-4.20228-0.18077-4.70254-4.05469-8.75915-8.75905-8.76212-1.99457 9.4e-4 -3.92911 0.68271-5.48371 1.93276-1.61819-2.46647-4.36855-3.95273-7.31774-3.95442z" fill="#f9f9f9"/>
    <path d="m561.38028 127.64745s-88.79999 42.46236-30.18227 99.41569c0 0 26.6138 10.11006 73.44062 0.337 0 0 61.92469-47.51752-28.83449-99.75269" fill="#f9f9f9"/>
    <rect x="553.09558" y="123.35228" width="30.99328" height="8.7620506" ry="4.3810253" fill="#2196f3"/>
   </g>
   <path d="m607.22607 123.43172 30.07805 17.37167c2.19253 1.26631 2.93855 4.05148 1.6727 6.24478l-6.96908 12.07504c-1.26586 2.1933-4.05005 2.93959-6.24258 1.67328l-30.07806-17.37167c-2.19253-1.2663-7.54887-12.52075-6.28301-14.71406l2.1707-3.76108c1.26586-2.1933 13.45875-2.78427 15.65128-1.51796z" fill="#2196f3"/>
   <path d="m608.3563 126.72384 24.122 13.93174c1.75837 1.01555 2.35667 3.2492 1.34147 5.00819l-5.58906 9.68394c-1.01519 1.75899-3.24806 2.35749-5.00643 1.34194l-24.122-13.93174c-1.75837-1.01555-6.05405-10.0414-5.03885-11.80038l1.74085-3.01631c1.0152-1.75899 10.79365-2.23293 12.55202-1.21738z" fill="#fff"/>
  </g>
  <path d="m583.8433 124.33485s5.48386-5.02864 9.13977 3.20005" fill="none" stroke="#ccc" stroke-linecap="round" stroke-width="2.02477717"/>
  <path d="m563.15973 115.88094 5.05325 6.40304 5.05325-6.43837" fill="#f9f9f9" stroke="#ccc" stroke-linecap="round" stroke-width="2.47349143"/>
  <g stroke-width=".04520408">
   <ellipse cx="543.32159" cy="162.80569" rx="11.570014" ry="11.574204" fill="#f60"/>
   <g fill="#fbc02d">
    <path d="m552.12873 155.29884c2.00232 2.34552 2.91654 5.30172 2.74226 8.20503h-5.1e-4c-0.75617-1.21992-1.85376-2.46891-3.49699-3.55305-2.96367-0.60879-1.8209-1.79963-0.83282-3.2377l5.1e-4 -5.1e-4 1.5871-1.41329z"/>
    <path d="m546.86742 173.82592c-0.52378 0.16814-1.05759 0.29817-1.59614 0.38964-3.57224 0.60783-7.37399-0.46732-10.13103-3.22531-0.0995-0.0996-0.19714-0.20101-0.29282-0.30342l2.51226-2.23692 9.17106-8.16642 5.1e-4 -5.1e-4c0.0343 0.0381 1.10283-0.55064 1.49757-0.36916 0.44807 0.20531 1.08665 0.66688 1.08665 1.56909 0.55848 4.06223 0.40133 9.32299-2.24805 12.34299z"/>
    <path d="m547.27594 157.23727c-0.37901 0.37915-0.58045 0.35392-1.70375 0.35392h-5.1e-4c-0.10142-0.0233-0.20379-0.0467-0.30715-0.0691-3.00273-0.65404-5.585-0.79167-7.77541-0.58541-1.85471 0.17389-3.42843 0.594-4.73839 1.15562 0.56052-1.25902 1.35714-2.43798 2.38951-3.47067 2.37084-2.3717 5.51503-3.4992 8.62062-3.38156 0.17807 0.13288 0.35949 0.27579 0.54235 0.43015 1.08375 0.91315 2.22278 2.2031 3.10939 3.89793 0 0.916 0.19045 1.34231-0.13667 1.6691z"/>
   </g>
   <path d="m550.54067 156.71312c0.89185 0.96366 1.18806 2.23548 0.83282 3.2377-0.11236 0.31675-0.28997 0.60638-0.53426 0.85076-0.45616 0.45682-1.07092 0.67972-1.72373 0.68116-0.84665 2e-3 -1.75848-0.3687-2.47655-1.08703-0.0371-0.0372-0.0733-0.0748-0.10761-0.1129-0.73665-0.79551-1.06662-1.80153-0.95901-2.6918 0.0633-0.52921 0.28143-1.01796 0.66044-1.39711 0.32713-0.32679 0.73475-0.534 1.17998-0.62591 0.98188-0.20246 2.14513 0.15625 3.02035 1.03224 0.0371 0.0372 0.0733 0.0748 0.10757 0.11289z" fill="#2196f3"/>
  </g>
  <g stroke-width=".04520408">
   <ellipse cx="568.73071" cy="162.80569" rx="11.570014" ry="11.574204" fill="#f60"/>
   <g fill="#fbc02d">
    <path d="m577.53786 155.29884c2.00232 2.34552 2.91654 5.30172 2.74226 8.20503h-5.1e-4c-0.75617-1.21992-1.85376-2.46891-3.49699-3.55305-2.96367-0.60879-1.8209-1.79963-0.83282-3.2377l5.1e-4 -5.1e-4 1.5871-1.41329z"/>
    <path d="m572.27655 173.82592c-0.52378 0.16814-1.05759 0.29817-1.59614 0.38964-3.57224 0.60783-7.37399-0.46732-10.13103-3.22531-0.0995-0.0996-0.19714-0.20101-0.29282-0.30342l2.51226-2.23692 9.17106-8.16642 5.1e-4 -5.1e-4c0.0343 0.0381 1.10283-0.55064 1.49757-0.36916 0.44807 0.20531 1.08665 0.66688 1.08665 1.56909 0.55848 4.06223 0.40133 9.32299-2.24805 12.34299z"/>
    <path d="m572.68507 157.23727c-0.37901 0.37915-0.58045 0.35392-1.70375 0.35392h-5.1e-4c-0.10142-0.0233-0.20379-0.0467-0.30715-0.0691-3.00273-0.65404-5.585-0.79167-7.77541-0.58541-1.85471 0.17389-3.42843 0.594-4.73839 1.15562 0.56052-1.25902 1.35714-2.43798 2.38951-3.47067 2.37084-2.3717 5.51503-3.4992 8.62062-3.38156 0.17807 0.13288 0.35949 0.27579 0.54235 0.43015 1.08375 0.91315 2.22278 2.2031 3.10939 3.89793 0 0.916 0.19045 1.34231-0.13667 1.6691z"/>
   </g>
   <path d="m575.9498 156.71312c0.89185 0.96366 1.18806 2.23548 0.83282 3.2377-0.11236 0.31675-0.28997 0.60638-0.53426 0.85076-0.45616 0.45682-1.07092 0.67972-1.72373 0.68116-0.84665 2e-3 -1.75848-0.3687-2.47655-1.08703-0.0371-0.0372-0.0733-0.0748-0.10761-0.1129-0.73665-0.79551-1.06662-1.80153-0.95901-2.6918 0.0633-0.52921 0.28143-1.01796 0.66044-1.39711 0.32713-0.32679 0.73475-0.534 1.17998-0.62591 0.98188-0.20246 2.14513 0.15625 3.02035 1.03224 0.0371 0.0372 0.0733 0.0748 0.10757 0.11289z" fill="#2196f3"/>
  </g>
  <g stroke-width=".04520408">
   <ellipse cx="594.13983" cy="162.80569" rx="11.570014" ry="11.574204" fill="#f60"/>
   <g fill="#fbc02d">
    <path d="m602.94699 155.29884c2.00232 2.34552 2.91654 5.30172 2.74226 8.20503h-5.1e-4c-0.75617-1.21992-1.85376-2.46891-3.49699-3.55305-2.96367-0.60879-1.8209-1.79963-0.83282-3.2377l5.1e-4 -5.1e-4 1.5871-1.41329z"/>
    <path d="m597.68568 173.82592c-0.52378 0.16814-1.05759 0.29817-1.59614 0.38964-3.57224 0.60783-7.37399-0.46732-10.13103-3.22531-0.0995-0.0996-0.19714-0.20101-0.29282-0.30342l2.51226-2.23692 9.17106-8.16642 5.1e-4 -5.1e-4c0.0343 0.0381 1.10283-0.55064 1.49757-0.36916 0.44807 0.20531 1.08665 0.66688 1.08665 1.56909 0.55848 4.06223 0.40133 9.32299-2.24805 12.34299z"/>
    <path d="m598.0942 157.23727c-0.37901 0.37915-0.58045 0.35392-1.70375 0.35392h-5.1e-4c-0.10142-0.0233-0.20379-0.0467-0.30715-0.0691-3.00273-0.65404-5.585-0.79167-7.77541-0.58541-1.85471 0.17389-3.42843 0.594-4.73839 1.15562 0.56052-1.25902 1.35714-2.43798 2.38951-3.47067 2.37084-2.3717 5.51503-3.4992 8.62062-3.38156 0.17807 0.13288 0.35949 0.27579 0.54235 0.43015 1.08375 0.91315 2.22278 2.2031 3.10939 3.89793 0 0.916 0.19045 1.34231-0.13667 1.6691z"/>
   </g>
   <path d="m601.35893 156.71312c0.89185 0.96366 1.18806 2.23548 0.83282 3.2377-0.11236 0.31675-0.28997 0.60638-0.53426 0.85076-0.45616 0.45682-1.07092 0.67972-1.72373 0.68116-0.84665 2e-3 -1.75848-0.3687-2.47655-1.08703-0.0371-0.0372-0.0733-0.0748-0.10761-0.1129-0.73665-0.79551-1.06662-1.80153-0.95901-2.6918 0.0633-0.52921 0.28143-1.01796 0.66044-1.39711 0.32713-0.32679 0.73475-0.534 1.17998-0.62591 0.98188-0.20246 2.14513 0.15625 3.02035 1.03224 0.0371 0.0372 0.0733 0.0748 0.10757 0.11289z" fill="#2196f3"/>
  </g>
  <g stroke-width=".04520408">
   <ellipse cx="543.32159" cy="188.1069" rx="11.570014" ry="11.574204" fill="#f60"/>
   <g fill="#fbc02d">
    <path d="m552.12873 180.60004c2.00232 2.34552 2.91654 5.30173 2.74226 8.20503h-5.1e-4c-0.75617-1.21992-1.85376-2.46891-3.49699-3.55305-2.96367-0.60878-1.8209-1.79963-0.83282-3.2377l5.1e-4 -5.1e-4 1.5871-1.41329z"/>
    <path d="m546.86742 199.12712c-0.52378 0.16815-1.05759 0.29818-1.59614 0.38964-3.57224 0.60783-7.37399-0.46731-10.13103-3.22531-0.0995-0.0996-0.19714-0.20101-0.29282-0.30342l2.51226-2.23692 9.17106-8.16642 5.1e-4 -5.1e-4c0.0343 0.0381 1.10283-0.55064 1.49757-0.36916 0.44807 0.20531 1.08665 0.66688 1.08665 1.56909 0.55848 4.06223 0.40133 9.323-2.24805 12.343z"/>
    <path d="m547.27594 182.53847c-0.37901 0.37915-0.58045 0.35392-1.70375 0.35392h-5.1e-4c-0.10142-0.0233-0.20379-0.0467-0.30715-0.0691-3.00273-0.65404-5.585-0.79167-7.77541-0.58541-1.85471 0.17389-3.42843 0.594-4.73839 1.15563 0.56052-1.25903 1.35714-2.43799 2.38951-3.47068 2.37084-2.3717 5.51503-3.4992 8.62062-3.38156 0.17807 0.13288 0.35949 0.2758 0.54235 0.43015 1.08375 0.91315 2.22278 2.2031 3.10939 3.89793 0 0.916 0.19045 1.34231-0.13667 1.6691z"/>
   </g>
   <path d="m550.54067 182.01432c0.89185 0.96366 1.18806 2.23548 0.83282 3.2377-0.11236 0.31676-0.28997 0.60639-0.53426 0.85076-0.45616 0.45682-1.07092 0.67972-1.72373 0.68117-0.84665 2e-3 -1.75848-0.36871-2.47655-1.08704-0.0371-0.0372-0.0733-0.0748-0.10761-0.1129-0.73665-0.79551-1.06662-1.80153-0.95901-2.6918 0.0633-0.52921 0.28143-1.01795 0.66044-1.3971 0.32713-0.3268 0.73475-0.53401 1.17998-0.62592 0.98188-0.20246 2.14513 0.15625 3.02035 1.03224 0.0371 0.0372 0.0733 0.0748 0.10757 0.11289z" fill="#2196f3"/>
  </g>
  <g stroke-width=".04520408">
   <ellipse cx="568.73071" cy="188.1069" rx="11.570014" ry="11.574204" fill="#f60"/>
   <g fill="#fbc02d">
    <path d="m577.53786 180.60004c2.00232 2.34552 2.91654 5.30173 2.74226 8.20503h-5.1e-4c-0.75617-1.21992-1.85376-2.46891-3.49699-3.55305-2.96367-0.60878-1.8209-1.79963-0.83282-3.2377l5.1e-4 -5.1e-4 1.5871-1.41329z"/>
    <path d="m572.27655 199.12712c-0.52378 0.16815-1.05759 0.29818-1.59614 0.38964-3.57224 0.60783-7.37399-0.46731-10.13103-3.22531-0.0995-0.0996-0.19714-0.20101-0.29282-0.30342l2.51226-2.23692 9.17106-8.16642 5.1e-4 -5.1e-4c0.0343 0.0381 1.10283-0.55064 1.49757-0.36916 0.44807 0.20531 1.08665 0.66688 1.08665 1.56909 0.55848 4.06223 0.40133 9.323-2.24805 12.343z"/>
    <path d="m572.68507 182.53847c-0.37901 0.37915-0.58045 0.35392-1.70375 0.35392h-5.1e-4c-0.10142-0.0233-0.20379-0.0467-0.30715-0.0691-3.00273-0.65404-5.585-0.79167-7.77541-0.58541-1.85471 0.17389-3.42843 0.594-4.73839 1.15563 0.56052-1.25903 1.35714-2.43799 2.38951-3.47068 2.37084-2.3717 5.51503-3.4992 8.62062-3.38156 0.17807 0.13288 0.35949 0.2758 0.54235 0.43015 1.08375 0.91315 2.22278 2.2031 3.10939 3.89793 0 0.916 0.19045 1.34231-0.13667 1.6691z"/>
   </g>
   <path d="m575.9498 182.01432c0.89185 0.96366 1.18806 2.23548 0.83282 3.2377-0.11236 0.31676-0.28997 0.60639-0.53426 0.85076-0.45616 0.45682-1.07092 0.67972-1.72373 0.68117-0.84665 2e-3 -1.75848-0.36871-2.47655-1.08704-0.0371-0.0372-0.0733-0.0748-0.10761-0.1129-0.73665-0.79551-1.06662-1.80153-0.95901-2.6918 0.0633-0.52921 0.28143-1.01795 0.66044-1.3971 0.32713-0.3268 0.73475-0.53401 1.17998-0.62592 0.98188-0.20246 2.14513 0.15625 3.02035 1.03224 0.0371 0.0372 0.0733 0.0748 0.10757 0.11289z" fill="#2196f3"/>
  </g>
  <g stroke-width=".04520408">
   <ellipse cx="594.13983" cy="188.1069" rx="11.570014" ry="11.574204" fill="#f60"/>
   <g fill="#fbc02d">
    <path d="m602.94699 180.60004c2.00232 2.34552 2.91654 5.30173 2.74226 8.20503h-5.1e-4c-0.75617-1.21992-1.85376-2.46891-3.49699-3.55305-2.96367-0.60878-1.8209-1.79963-0.83282-3.2377l5.1e-4 -5.1e-4 1.5871-1.41329z"/>
    <path d="m597.68568 199.12712c-0.52378 0.16815-1.05759 0.29818-1.59614 0.38964-3.57224 0.60783-7.37399-0.46731-10.13103-3.22531-0.0995-0.0996-0.19714-0.20101-0.29282-0.30342l2.51226-2.23692 9.17106-8.16642 5.1e-4 -5.1e-4c0.0343 0.0381 1.10283-0.55064 1.49757-0.36916 0.44807 0.20531 1.08665 0.66688 1.08665 1.56909 0.55848 4.06223 0.40133 9.323-2.24805 12.343z"/>
    <path d="m598.0942 182.53847c-0.37901 0.37915-0.58045 0.35392-1.70375 0.35392h-5.1e-4c-0.10142-0.0233-0.20379-0.0467-0.30715-0.0691-3.00273-0.65404-5.585-0.79167-7.77541-0.58541-1.85471 0.17389-3.42843 0.594-4.73839 1.15563 0.56052-1.25903 1.35714-2.43799 2.38951-3.47068 2.37084-2.3717 5.51503-3.4992 8.62062-3.38156 0.17807 0.13288 0.35949 0.2758 0.54235 0.43015 1.08375 0.91315 2.22278 2.2031 3.10939 3.89793 0 0.916 0.19045 1.34231-0.13667 1.6691z"/>
   </g>
   <path d="m601.35893 182.01432c0.89185 0.96366 1.18806 2.23548 0.83282 3.2377-0.11236 0.31676-0.28997 0.60639-0.53426 0.85076-0.45616 0.45682-1.07092 0.67972-1.72373 0.68117-0.84665 2e-3 -1.75848-0.36871-2.47655-1.08704-0.0371-0.0372-0.0733-0.0748-0.10761-0.1129-0.73665-0.79551-1.06662-1.80153-0.95901-2.6918 0.0633-0.52921 0.28143-1.01795 0.66044-1.3971 0.32713-0.3268 0.73475-0.53401 1.17998-0.62592 0.98188-0.20246 2.14513 0.15625 3.02035 1.03224 0.0371 0.0372 0.0733 0.0748 0.10757 0.11289z" fill="#2196f3"/>
  </g>
  <g stroke-width=".04520408">
   <ellipse cx="543.32159" cy="213.17383" rx="11.570014" ry="11.574204" fill="#f60"/>
   <g fill="#fbc02d">
    <path d="m552.12873 205.66696c2.00232 2.34553 2.91654 5.30173 2.74226 8.20504h-5.1e-4c-0.75617-1.21992-1.85376-2.46891-3.49699-3.55305-2.96367-0.60879-1.8209-1.79963-0.83282-3.2377l5.1e-4 -5.1e-4 1.5871-1.41329z"/>
    <path d="m546.86742 224.19405c-0.52378 0.16814-1.05759 0.29817-1.59614 0.38964-3.57224 0.60783-7.37399-0.46732-10.13103-3.22531-0.0995-0.0996-0.19714-0.20102-0.29282-0.30342l2.51226-2.23692 9.17106-8.16642 5.1e-4 -5.2e-4c0.0343 0.0381 1.10283-0.55064 1.49757-0.36916 0.44807 0.20531 1.08665 0.66689 1.08665 1.5691 0.55848 4.06223 0.40133 9.32299-2.24805 12.34299z"/>
    <path d="m547.27594 207.6054c-0.37901 0.37915-0.58045 0.35392-1.70375 0.35392h-5.1e-4c-0.10142-0.0233-0.20379-0.0467-0.30715-0.0691-3.00273-0.65405-5.585-0.79167-7.77541-0.58541-1.85471 0.17388-3.42843 0.594-4.73839 1.15562 0.56052-1.25902 1.35714-2.43798 2.38951-3.47067 2.37084-2.3717 5.51503-3.49921 8.62062-3.38156 0.17807 0.13288 0.35949 0.27579 0.54235 0.43015 1.08375 0.91315 2.22278 2.2031 3.10939 3.89793 0 0.916 0.19045 1.3423-0.13667 1.6691z"/>
   </g>
   <path d="m550.54067 207.08125c0.89185 0.96365 1.18806 2.23548 0.83282 3.23769-0.11236 0.31676-0.28997 0.60639-0.53426 0.85076-0.45616 0.45683-1.07092 0.67972-1.72373 0.68117-0.84665 2e-3 -1.75848-0.36871-2.47655-1.08704-0.0371-0.0372-0.0733-0.0748-0.10761-0.11289-0.73665-0.79551-1.06662-1.80153-0.95901-2.69181 0.0633-0.5292 0.28143-1.01795 0.66044-1.3971 0.32713-0.32679 0.73475-0.534 1.17998-0.62592 0.98188-0.20246 2.14513 0.15626 3.02035 1.03224 0.0371 0.0372 0.0733 0.0748 0.10757 0.1129z" fill="#2196f3"/>
  </g>
  <g stroke-width=".04520408">
   <ellipse cx="568.73071" cy="213.17383" rx="11.570014" ry="11.574204" fill="#f60"/>
   <g fill="#fbc02d">
    <path d="m577.53786 205.66696c2.00232 2.34553 2.91654 5.30173 2.74226 8.20504h-5.1e-4c-0.75617-1.21992-1.85376-2.46891-3.49699-3.55305-2.96367-0.60879-1.8209-1.79963-0.83282-3.2377l5.1e-4 -5.1e-4 1.5871-1.41329z"/>
    <path d="m572.27655 224.19405c-0.52378 0.16814-1.05759 0.29817-1.59614 0.38964-3.57224 0.60783-7.37399-0.46732-10.13103-3.22531-0.0995-0.0996-0.19714-0.20102-0.29282-0.30342l2.51226-2.23692 9.17106-8.16642 5.1e-4 -5.2e-4c0.0343 0.0381 1.10283-0.55064 1.49757-0.36916 0.44807 0.20531 1.08665 0.66689 1.08665 1.5691 0.55848 4.06223 0.40133 9.32299-2.24805 12.34299z"/>
    <path d="m572.68507 207.6054c-0.37901 0.37915-0.58045 0.35392-1.70375 0.35392h-5.1e-4c-0.10142-0.0233-0.20379-0.0467-0.30715-0.0691-3.00273-0.65405-5.585-0.79167-7.77541-0.58541-1.85471 0.17388-3.42843 0.594-4.73839 1.15562 0.56052-1.25902 1.35714-2.43798 2.38951-3.47067 2.37084-2.3717 5.51503-3.49921 8.62062-3.38156 0.17807 0.13288 0.35949 0.27579 0.54235 0.43015 1.08375 0.91315 2.22278 2.2031 3.10939 3.89793 0 0.916 0.19045 1.3423-0.13667 1.6691z"/>
   </g>
   <path d="m575.9498 207.08125c0.89185 0.96365 1.18806 2.23548 0.83282 3.23769-0.11236 0.31676-0.28997 0.60639-0.53426 0.85076-0.45616 0.45683-1.07092 0.67972-1.72373 0.68117-0.84665 2e-3 -1.75848-0.36871-2.47655-1.08704-0.0371-0.0372-0.0733-0.0748-0.10761-0.11289-0.73665-0.79551-1.06662-1.80153-0.95901-2.69181 0.0633-0.5292 0.28143-1.01795 0.66044-1.3971 0.32713-0.32679 0.73475-0.534 1.17998-0.62592 0.98188-0.20246 2.14513 0.15626 3.02035 1.03224 0.0371 0.0372 0.0733 0.0748 0.10757 0.1129z" fill="#2196f3"/>
  </g>
  <g stroke-width=".04520408">
   <ellipse cx="594.13983" cy="213.17383" rx="11.570014" ry="11.574204" fill="#f60"/>
   <g fill="#fbc02d">
    <path d="m602.94699 205.66696c2.00232 2.34553 2.91654 5.30173 2.74226 8.20504h-5.1e-4c-0.75617-1.21992-1.85376-2.46891-3.49699-3.55305-2.96367-0.60879-1.8209-1.79963-0.83282-3.2377l5.1e-4 -5.1e-4 1.5871-1.41329z"/>
    <path d="m597.68568 224.19405c-0.52378 0.16814-1.05759 0.29817-1.59614 0.38964-3.57224 0.60783-7.37399-0.46732-10.13103-3.22531-0.0995-0.0996-0.19714-0.20102-0.29282-0.30342l2.51226-2.23692 9.17106-8.16642 5.1e-4 -5.2e-4c0.0343 0.0381 1.10283-0.55064 1.49757-0.36916 0.44807 0.20531 1.08665 0.66689 1.08665 1.5691 0.55848 4.06223 0.40133 9.32299-2.24805 12.34299z"/>
    <path d="m598.0942 207.6054c-0.37901 0.37915-0.58045 0.35392-1.70375 0.35392h-5.1e-4c-0.10142-0.0233-0.20379-0.0467-0.30715-0.0691-3.00273-0.65405-5.585-0.79167-7.77541-0.58541-1.85471 0.17388-3.42843 0.594-4.73839 1.15562 0.56052-1.25902 1.35714-2.43798 2.38951-3.47067 2.37084-2.3717 5.51503-3.49921 8.62062-3.38156 0.17807 0.13288 0.35949 0.27579 0.54235 0.43015 1.08375 0.91315 2.22278 2.2031 3.10939 3.89793 0 0.916 0.19045 1.3423-0.13667 1.6691z"/>
   </g>
   <path d="m601.35893 207.08125c0.89185 0.96365 1.18806 2.23548 0.83282 3.23769-0.11236 0.31676-0.28997 0.60639-0.53426 0.85076-0.45616 0.45683-1.07092 0.67972-1.72373 0.68117-0.84665 2e-3 -1.75848-0.36871-2.47655-1.08704-0.0371-0.0372-0.0733-0.0748-0.10761-0.11289-0.73665-0.79551-1.06662-1.80153-0.95901-2.69181 0.0633-0.5292 0.28143-1.01795 0.66044-1.3971 0.32713-0.32679 0.73475-0.534 1.17998-0.62592 0.98188-0.20246 2.14513 0.15626 3.02035 1.03224 0.0371 0.0372 0.0733 0.0748 0.10757 0.1129z" fill="#2196f3"/>
  </g>
  <g transform="rotate(30)" fill="#424242" stroke-width=".26458332" style="font-feature-settings:normal;font-variant-caps:normal;font-variant-ligatures:normal;font-variant-numeric:normal" aria-label="Tony">
   <path d="m592.84199-190.63434q2.85082-0.17225 2.85082 0.27561l0.0344 0.24116q-0.12919 0.68901-0.48231 0.68901-0.28422-0.1378-0.74931-0.1378h-0.27561q-0.24115 0-0.24115 0.89573v2.17041l0.0344 0.10335-0.0344 0.17225v2.23932l0.0344 0.86127q-9e-3 4.67672-0.37896 4.67672-0.0517 0.0861-0.27561 0.1378-0.4048 0-0.48232-0.75792v-0.1378q0.20671-0.81821 0.10336-6.12366 0-4.20302-0.24116-4.20302h-0.0689l-1.3522 0.24116q-0.32729 0-0.41341-0.72347v-0.0344q0-0.58567 1.31775-0.58567z" style="font-feature-settings:normal;font-variant-caps:normal;font-variant-ligatures:normal;font-variant-numeric:normal"/>
   <path d="m599.4738-189.1874q1.44694 0.28422 1.44694 0.96463 1.50723 2.24792 0.41341 7.40695-0.68902 1.80007-1.24023 2.30822-0.76653 0.96462-1.51584 0.96462-1.16272 0-1.79145-1.51584l-0.58567-2.89388v-0.51676q0-1.73978 0.58567-4.23747 0.0947-0.1378 0.17225-0.62012 0.8096-1.79145 1.5503-1.79145zm-0.65457 1.27469h-0.0689q-0.4048 0-0.55121 0.65456-0.72347 1.32637-0.72347 2.75608-0.10336 0.25838-0.10336 0.89573v1.17133q0 1.52445 0.55122 3.13504 0.25838 0.51676 0.51676 0.51676 0.41342 0 1.17134-0.99908 0.22393 0 0.72347-1.06798 0.2067-0.74931 0.41341-2.85943 0-2.07567-0.55122-3.34174-0.27561-0.74931-0.44786-0.89572z" style="font-feature-settings:normal;font-variant-caps:normal;font-variant-ligatures:normal;font-variant-numeric:normal"/>
   <path d="m606.88937-190.72908q0.55122 0.17226 0.86127 0.93018 0.20671 0.24977 0.48232 1.8259-0.31006 5.04706-0.27561 7.55337l0.0344 1.6881q0 0.96462-0.65457 0.96462-0.55121 0-0.55121-0.79237 0.10335-5.46048 0.27561-7.82898l0.0689-2.06706-0.44786-1.10243q-0.14642-0.1378-0.27561-0.1378h-0.17226q-0.58566-0.0344-2.15318 3.89296-0.55122 1.41249-0.55122 1.72255v1.37803l0.10336 2.24793-0.0689 0.99908v0.0345l0.0689 0.65457q0 0.31867-0.65457 0.68901-0.58567-0.16364-0.58567-0.96462l-0.0689-1.10243q0.1378-3.22117 0.10335-9.20702 0-1.20578 0.31006-1.20578 0.23254-0.20671 0.48231-0.20671 0.34451 0 0.34451 0.41341l-0.0689 2.41157q0.0431 0.17225 0.10335 0.17225h0.20671q0.0603 0 0.93018-1.61919 0.85266-1.20578 1.20578-1.20578 0.39619-0.31006 0.9474-0.13781z" style="font-feature-settings:normal;font-variant-caps:normal;font-variant-ligatures:normal;font-variant-numeric:normal"/>
   <path d="m608.97365-191.23723h0.13781q0.63734 0 0.86127 1.17133 1.2144 2.35128 1.55029 2.79053 0 0.30145 0.55122 0.75792h0.0689q0.17226 0 0.41341-2.37712 0.24977-2.17041 0.72347-2.17041h0.0344q0.65457 0.18087 0.65457 0.58567-0.34451 2.35989-0.62012 3.37619-0.1378 1.73116-0.51676 3.61735l0.0344 0.65457q-0.37896 1.0766-0.37896 4.54753 0 0.39618-0.58567 0.55121-0.68901-0.25838-0.68901-0.99907 0.21531-2.84221 0.55121-3.4451l0.31006-2.51492q0-0.16364-0.58567-0.55121l-0.82682-1.30914q0-0.10335-1.30914-2.23931 0-0.13781-0.48231-0.99908-0.24116-0.57705-0.24116-0.82682 0-0.39619 0.34451-0.62012z" style="font-feature-settings:normal;font-variant-caps:normal;font-variant-ligatures:normal;font-variant-numeric:normal"/>
  </g>
  <g fill="#fff" stroke="#2196f3" stroke-width=".79374999">
   <g transform="translate(130.90544,-161.67815)" style="font-feature-settings:normal;font-variant-caps:normal;font-variant-ligatures:normal;font-variant-numeric:normal" aria-label="1">
    <path d="m414.08289 318.7996-2.79053 0.0775-0.76654 0.62873v2.64411l0.68902-0.31867 0.0775 8.33713h3.01446z" fill="#fff" stroke="#2196f3" stroke-width=".79374999" style="font-feature-settings:normal;font-variant-caps:normal;font-variant-ligatures:normal;font-variant-numeric:normal"/>
   </g>
   <g transform="translate(144.36416,-161.17517)" style="font-feature-settings:normal;font-variant-caps:normal;font-variant-ligatures:normal;font-variant-numeric:normal" aria-label="2">
    <path d="m427.23253 318.7471q-2.59243-1.57613-4.82313-0.0258-1.11966 0.81821-1.97232 2.024l1.73977 2.20486q0.22393-0.36174 0.62873-0.6718 0.89573-0.89572 1.80007-0.70624 0.50815 0.11196 0.41341 0.68902-0.0775 0.49092-0.57706 1.2833-0.93879 1.47277-2.29099 2.3685-0.58566 0.49954-1.0852 0.8785l-0.20671 3.04891 7.00216 0.14641 9e-3 -2.91971-3.53983 0.16364q1.67948-1.55029 2.87665-3.3762 1.05076-1.59335 1.17133-2.79914 0.16365-1.50722-1.14549-2.30821z" fill="#fff" stroke="#2196f3" stroke-width=".79374999" style="font-feature-settings:normal;font-variant-caps:normal;font-variant-ligatures:normal;font-variant-numeric:normal"/>
   </g>
   <g transform="translate(157.55076,-160.27859)" style="font-feature-settings:normal;font-variant-caps:normal;font-variant-ligatures:normal;font-variant-numeric:normal" aria-label="3">
    <path d="m432.52962 317.56366 0.0775 2.62689 3.3159-0.0775-2.79053 2.024q0.76654-0.11197 1.50723 0.0861 1.49862 0.39619 1.45556 1.9551-0.0517 1.56751-1.50723 1.54168-0.73209-0.0172-1.45556-0.34451l-0.6804 2.80775q1.24023 0.39619 2.7044 0.42202 2.90249 0.0603 3.97047-1.76561 1.46417-2.51492-0.0258-4.25469-0.74931-0.86989-1.71393-1.32636l2.98-3.66042z" fill="#fff" stroke="#2196f3" stroke-width=".79374999" style="font-feature-settings:normal;font-variant-caps:normal;font-variant-ligatures:normal;font-variant-numeric:normal"/>
   </g>
   <g transform="translate(91.141691,-134.68209)" style="font-feature-settings:normal;font-variant-caps:normal;font-variant-ligatures:normal;font-variant-numeric:normal" aria-label="4">
    <path d="m453.0844 320.84806h-1.80006l0.0775-3.85851-2.9714 0.0861v6.25285l4.5303 0.16364-0.32728 5.02123 3.11781 0.0775 0.24977-11.60136h-2.79914z" fill="#fff" stroke="#2196f3" stroke-width=".79374999" style="font-feature-settings:normal;font-variant-caps:normal;font-variant-ligatures:normal;font-variant-numeric:normal"/>
   </g>
   <g transform="translate(97.972273,-136.16999)" style="font-feature-settings:normal;font-variant-caps:normal;font-variant-ligatures:normal;font-variant-numeric:normal" aria-label="5">
    <path d="m469.32527 321.25423 4.52169 0.18949 0.267-2.54076-6.98494-0.267 0.11197 5.32267q1.06798-0.22393 1.98954-0.1378 1.84313 0.18087 1.88619 1.74839 0.0517 1.57613-1.55029 1.79145-0.80098 0.11196-1.61919-0.0947l-0.15503 2.60104q1.70532 0.20671 3.39341-0.22393 3.36759-0.84405 3.20394-3.9877-0.14641-3.14365-2.63549-3.77238-1.23163-0.39618-2.44602-0.0775z" fill="#fff" stroke="#2196f3" stroke-width=".79374999" style="font-feature-settings:normal;font-variant-caps:normal;font-variant-ligatures:normal;font-variant-numeric:normal"/>
   </g>
   <g transform="translate(104.41938,-135.16025)" style="font-feature-settings:normal;font-variant-caps:normal;font-variant-ligatures:normal;font-variant-numeric:normal" aria-label="6">
    <path d="m489.86687 325.6902q-0.30144 0.0258-0.46509-0.15503-0.14641-0.15503-0.14641-0.4048t0.12058-0.44786q0.12919-0.20671 0.33589-0.24116 0.49093-0.0861 0.73209 0.0861 0.21531 0.14641 0.18948 0.42202-0.0258 0.25838-0.23255 0.4737-0.22393 0.23254-0.53399 0.267zm-0.2067-3.93603q-0.10336-0.36173 0.10335-0.66318 0.43064-0.6115 2.01538-0.33589l0.45648-2.67857q-0.39619-0.19809-1.10244-0.24976-1.4211-0.0861-2.97139 0.67179-0.8096 0.39618-1.54168 1.88619-0.74931 1.54168-0.88711 3.21255-0.14642 1.92064 0.64595 3.20394 0.93018 1.51584 3.0403 1.85174 1.8259 0.29283 3.05752-0.72347 1.11105-0.91295 1.24024-2.40296 0.12919-1.49861-0.85266-2.55798-1.11105-1.19717-3.20394-1.2144z" fill="#fff" stroke="#2196f3" stroke-width=".79374999" style="font-feature-settings:normal;font-variant-caps:normal;font-variant-ligatures:normal;font-variant-numeric:normal"/>
   </g>
   <g transform="translate(41.418552,-112.19206)" style="font-feature-settings:normal;font-variant-caps:normal;font-variant-ligatures:normal;font-variant-numeric:normal" aria-label="7">
    <path d="m498.17931 323.28951 2.79914-0.0775-2.57521 7.3036 3.46232 0.29284 3.76377-10.90373-7.59644 0.0775z" fill="#fff" stroke="#2196f3" stroke-width=".79374999" style="font-feature-settings:normal;font-variant-caps:normal;font-variant-ligatures:normal;font-variant-numeric:normal"/>
   </g>
   <g transform="translate(50.609629,-110.9831)" style="font-feature-settings:normal;font-variant-caps:normal;font-variant-ligatures:normal;font-variant-numeric:normal" aria-label="8">
    <path d="m518.31682 326.37321q-0.28422 0-0.46509-0.16365-0.15503-0.1378-0.18087-0.35312-0.0172-0.2067 0.12058-0.34451 0.13781-0.16364 0.42203-0.17225 0.38757-9e-3 0.59428 0.15503 0.17225 0.1378 0.16364 0.35312-9e-3 0.2067-0.18087 0.36173-0.18948 0.16365-0.4737 0.16365zm-0.34451-5.64996q0.27561-0.0603 0.43925 0.0431 0.14642 0.10336 0.15503 0.29284 9e-3 0.18948-0.11197 0.31867-0.14641 0.16364-0.39618 0.16364t-0.39619-0.11197q-0.14641-0.0947-0.15503-0.24115-0.0431-0.34451 0.46509-0.46509zm2.08428 2.34266q0.63735-1.19717 0.72347-2.42018 0.1981-2.4374-2.54937-2.54075-1.05936-0.0431-1.86035 0.52537-0.73208 0.51677-1.05075 1.37804-0.30145 0.85266-0.0861 1.67087 0.23254 0.8785 0.99908 1.38665-0.69763 0.55983-1.29191 1.38666-1.19717 1.64503-0.72347 2.98862 0.41341 1.17994 1.39526 1.92064 0.92156 0.6804 2.0929 0.81821 1.1541 0.1378 2.19624-0.31006 1.10243-0.48232 1.73116-1.49862 1.12827-1.81729-0.11196-3.74654-0.62012-0.96463-1.46417-1.55891z" fill="#fff" stroke="#2196f3" stroke-width=".79374999" style="font-feature-settings:normal;font-variant-caps:normal;font-variant-ligatures:normal;font-variant-numeric:normal"/>
   </g>
   <g transform="translate(59.294977,-109.99888)" style="font-feature-settings:normal;font-variant-caps:normal;font-variant-ligatures:normal;font-variant-numeric:normal" aria-label="9">
    <path d="m534.85684 322.00312q-0.49093 0.0775-0.73208-0.0861-0.21532-0.14642-0.18948-0.42203 0.0172-0.25838 0.23254-0.48231 0.22393-0.22393 0.53399-0.25838 0.30145-0.0258 0.46509 0.15503 0.14641 0.14641 0.14641 0.4048 0 0.24115-0.12057 0.43925-0.13781 0.21532-0.3359 0.24977zm0.29283-4.22025q-1.8259-0.29283-3.05752 0.72347-1.11104 0.92157-1.24023 2.40296-0.1292 1.50723 0.85266 2.56659 1.11104 1.19718 3.20394 1.2144 0.10335 0.35312-0.10336 0.66318-0.43063 0.61151-2.01538 0.32729l-0.45647 2.68717q0.39618 0.19809 1.10243 0.24977 1.4211 0.0861 2.97139-0.67179 0.8096-0.39619 1.54168-1.88619 0.74931-1.54168 0.8785-3.21256 0.15503-1.92925-0.63734-3.21255-0.93018-1.50723-3.0403-1.85174z" fill="#fff" stroke="#2196f3" stroke-width=".79374999" style="font-feature-settings:normal;font-variant-caps:normal;font-variant-ligatures:normal;font-variant-numeric:normal"/>
   </g>
  </g>
 </g>
</svg>
