<?xml version="1.0" encoding="UTF-8" standalone="no"?>
<!-- Created with Inkscape (http://www.inkscape.org/) -->

<svg
   xmlns:dc="http://purl.org/dc/elements/1.1/"
   xmlns:cc="http://creativecommons.org/ns#"
   xmlns:rdf="http://www.w3.org/1999/02/22-rdf-syntax-ns#"
   xmlns:svg="http://www.w3.org/2000/svg"
   xmlns="http://www.w3.org/2000/svg"
   xmlns:sodipodi="http://sodipodi.sourceforge.net/DTD/sodipodi-0.dtd"
   xmlns:inkscape="http://www.inkscape.org/namespaces/inkscape"
   width="1220"
   height="562"
   viewBox="0 0 322.79166 148.69584"
   version="1.1"
   id="svg1111"
   inkscape:version="0.92.2 5c3e80d, 2017-08-06"
   sodipodi:docname="trompo1_R.svg">
  <defs
     id="defs1105" />
  <sodipodi:namedview
     id="base"
     pagecolor="#ffffff"
     bordercolor="#666666"
     borderopacity="1.0"
     inkscape:pageopacity="0.0"
     inkscape:pageshadow="2"
     inkscape:zoom="0.42210137"
     inkscape:cx="886.14006"
     inkscape:cy="768.54446"
     inkscape:document-units="px"
     inkscape:current-layer="layer1"
     showgrid="false"
     units="px"
     inkscape:snap-global="false"
     inkscape:window-width="1920"
     inkscape:window-height="1031"
     inkscape:window-x="0"
     inkscape:window-y="1"
     inkscape:window-maximized="1"
     showguides="false"
     fit-margin-top="0"
     fit-margin-left="0"
     fit-margin-right="0"
     fit-margin-bottom="0" />
  <metadata
     id="metadata1108">
    <rdf:RDF>
      <cc:Work
         rdf:about="">
        <dc:format>image/svg+xml</dc:format>
        <dc:type
           rdf:resource="http://purl.org/dc/dcmitype/StillImage" />
        <dc:title></dc:title>
      </cc:Work>
    </rdf:RDF>
  </metadata>
  <g
     inkscape:label="Layer 1"
     inkscape:groupmode="layer"
     id="layer1"
     transform="translate(63.538284,-162.36299)">
    <g
       id="g3414"
       transform="matrix(0.26458333,0,0,0.26458333,112.03642,-4.79574)" />
    <g
       id="g3416"
       transform="matrix(0.26458333,0,0,0.26458333,112.03642,-4.79574)" />
    <g
       id="g3418"
       transform="matrix(0.26458333,0,0,0.26458333,112.03642,-4.79574)" />
    <g
       id="g3420"
       transform="matrix(0.26458333,0,0,0.26458333,112.03642,-4.79574)" />
    <g
       id="g3422"
       transform="matrix(0.26458333,0,0,0.26458333,112.03642,-4.79574)" />
    <g
       id="g3424"
       transform="matrix(0.26458333,0,0,0.26458333,112.03642,-4.79574)" />
    <g
       id="g3426"
       transform="matrix(0.26458333,0,0,0.26458333,112.03642,-4.79574)" />
    <g
       id="g3428"
       transform="matrix(0.26458333,0,0,0.26458333,112.03642,-4.79574)" />
    <g
       id="g3430"
       transform="matrix(0.26458333,0,0,0.26458333,112.03642,-4.79574)" />
    <g
       id="g3432"
       transform="matrix(0.26458333,0,0,0.26458333,112.03642,-4.79574)" />
    <g
       id="g3434"
       transform="matrix(0.26458333,0,0,0.26458333,112.03642,-4.79574)" />
    <g
       id="g3436"
       transform="matrix(0.26458333,0,0,0.26458333,112.03642,-4.79574)" />
    <g
       id="g3438"
       transform="matrix(0.26458333,0,0,0.26458333,112.03642,-4.79574)" />
    <g
       id="g3440"
       transform="matrix(0.26458333,0,0,0.26458333,112.03642,-4.79574)" />
    <g
       id="g3442"
       transform="matrix(0.26458333,0,0,0.26458333,112.03642,-4.79574)" />
    <g
       id="g58982">
      <rect
         y="162.36299"
         x="-63.538284"
         height="148.69583"
         width="322.79166"
         id="rect22252"
         style="opacity:0;fill:#ff0000;fill-opacity:1;stroke:none;stroke-width:0.91198415;stroke-linecap:round;stroke-miterlimit:4;stroke-dasharray:none;stroke-opacity:1" />
      <g
         transform="translate(-1235.5959,378.47303)"
         id="g22260">
        <rect
           ry="9.3694143"
           rx="9.3694143"
           y="-209.49544"
           x="1178.6722"
           height="135.46666"
           width="309.5625"
           id="rect22006"
           style="opacity:1;fill:#2196f3;fill-opacity:1;stroke:none;stroke-width:2.72298098;stroke-linecap:round;stroke-miterlimit:4;stroke-dasharray:none;stroke-opacity:1" />
        <rect
           style="opacity:1;fill:#ffffff;fill-opacity:1;stroke:none;stroke-width:2.55669117;stroke-linecap:round;stroke-miterlimit:4;stroke-dasharray:none;stroke-opacity:1"
           id="rect22008"
           width="295.38028"
           height="125.1603"
           x="1185.7633"
           y="-204.34227"
           rx="8.9401665"
           ry="8.6565857" />
      </g>
    </g>
    <g
       id="g66143"
       transform="matrix(-0.39062653,0,0,0.39062665,113.25384,48.69841)">
      <path
         id="path65992"
         d="m 247.23726,466.86516 c -1.64941,-1.64941 -1.64941,-4.32276 0,-5.97191 l 18.43961,-18.43961 c 1.64941,-1.64941 4.32276,-1.64941 5.97191,0 1.64941,1.64941 1.64941,4.32276 0,5.97191 l -18.43961,18.43961 c -1.64915,1.64915 -4.3225,1.64915 -5.97191,0 z"
         style="fill:#57565c;stroke-width:0.26458332"
         inkscape:connector-curvature="0" />
      <path
         id="path65994"
         d="m 265.67713,442.45364 -17.06906,17.0688 c 0.80354,1.1258 1.71767,2.20451 2.7424,3.22951 1.02368,1.02367 2.10635,1.93304 3.23533,2.73685 l 17.06324,-17.06325 c 1.64942,-1.64941 1.64942,-4.32276 0,-5.97191 -1.64941,-1.64915 -4.32276,-1.64941 -5.97191,0 z"
         style="fill:#3e3d42;stroke-width:0.26458332"
         inkscape:connector-curvature="0" />
      <path
         id="path65996"
         d="m 369.77162,344.33053 c -6.35344,-6.35344 -11.31199,-9.60781 -14.75184,-11.24638 -2.52413,-1.20253 -5.55943,0.11033 -6.34101,2.7948 -1.4679,5.04401 -4.8334,9.28502 -4.8334,9.28502 l 25.09282,25.09282 c 0,0 4.24074,-3.3655 9.28502,-4.83341 2.68446,-0.78105 3.99759,-3.81688 2.79479,-6.341 -1.63883,-3.43985 -4.89267,-8.39841 -11.24638,-14.75185 z"
         style="fill:#ffdaaa;fill-opacity:1;stroke-width:0.26458332"
         inkscape:connector-curvature="0" />
      <path
         id="path66000"
         d="m 359.505,354.59716 c -20.11575,-20.11574 -52.72935,-20.11574 -72.84509,0 -14.88307,14.88308 -17.12595,49.65832 -32.82685,85.64271 0,0 -4.43865,8.99187 3.29909,16.73014 7.73827,7.73826 16.73013,3.29909 16.73013,3.29909 35.98439,-15.70064 70.75937,-17.94352 85.64245,-32.82659 20.11601,-20.11575 20.11601,-52.72987 2.7e-4,-72.84535 z"
         style="fill:#ffdaaa;stroke-width:0.26458332"
         inkscape:connector-curvature="0" />
      <path
         id="path66004"
         d="m 311.69849,340.78035 61.62331,61.62331 c 3.7592,-16.66398 -0.84428,-34.83398 -13.81707,-47.8065 -12.97226,-12.97252 -31.14225,-17.57601 -47.80624,-13.81681 z"
         style="fill:#e91e63;fill-opacity:1;stroke-width:0.26458332"
         inkscape:connector-curvature="0" />
      <path
         id="path66006"
         d="m 286.65965,354.59716 c -5.33956,5.33956 -9.05193,13.23975 -12.34255,22.83724 l 62.35091,62.35092 c 9.59724,-3.29089 17.49743,-7.00326 22.83699,-12.34281 1.14088,-1.14089 2.21376,-2.32384 3.22527,-3.54092 l -72.5297,-72.5297 c -1.21656,1.0115 -2.39977,2.08439 -3.54092,3.22527 z"
         style="fill:#00ddc2;stroke-width:0.26458332"
         inkscape:connector-curvature="0" />
      <path
         id="path66008"
         d="m 312.54436,446.99442 -45.43663,-45.43689 c -2.6797,9.36386 -5.67213,19.40401 -9.59855,29.67487 l 25.36031,25.36031 c 10.27086,-3.92642 20.31101,-6.91885 29.67487,-9.59829 z"
         style="fill:#e91e63;fill-opacity:1;stroke-width:0.26458332"
         inkscape:connector-curvature="0" />
      <g
         style="fill:#fbc02d;fill-opacity:1"
         transform="matrix(0.26458333,0,0,0.26458333,246.00007,332.63542)"
         id="g66020">
        <path
           id="path66016"
           d="m 167.057,70.815 274.127,274.127 c 7.113,-8.557 13.379,-17.578 18.799,-26.957 L 194.013,52.016 c -9.378,5.419 -18.399,11.686 -26.956,18.799 z"
           style="fill:#fbc02d;fill-opacity:1"
           inkscape:connector-curvature="0" />
        <path
           id="path66018"
           d="m 95.956,204.222 211.823,211.822 c 12.111,-3.61 23.885,-7.295 34.903,-11.069 L 107.025,169.319 c -3.774,11.019 -7.459,22.793 -11.069,34.903 z"
           style="fill:#fbc02d;fill-opacity:1"
           inkscape:connector-curvature="0" />
      </g>
    </g>
    <g
       aria-label="1"
       style="font-style:normal;font-variant:normal;font-weight:normal;font-stretch:normal;font-size:28.22222137px;line-height:1.25;font-family:'SC Gum Kids';-inkscape-font-specification:'SC Gum Kids, Normal';font-variant-ligatures:normal;font-variant-caps:normal;font-variant-numeric:normal;font-feature-settings:normal;text-align:start;letter-spacing:0px;word-spacing:0px;writing-mode:lr-tb;text-anchor:start;fill:#2196f3;fill-opacity:1;stroke:#ffffff;stroke-width:1.32291663;stroke-miterlimit:4;stroke-dasharray:none;stroke-opacity:1"
       id="text22673"
       transform="translate(-1169.4453,235.68468)">
      <path
         d="m 1160.2649,-43.387707 -4.4649,0.124024 -1.2264,1.005968 v 4.230577 l 1.1024,-0.509874 0.124,13.339409 h 4.8232 z"
         style="font-style:normal;font-variant:normal;font-weight:normal;font-stretch:normal;font-size:28.22222137px;font-family:'SC Gum Kids';-inkscape-font-specification:'SC Gum Kids, Normal';font-variant-ligatures:normal;font-variant-caps:normal;font-variant-numeric:normal;font-feature-settings:normal;text-align:start;writing-mode:lr-tb;text-anchor:start;fill:#2196f3;fill-opacity:1;stroke:#ffffff;stroke-width:1.32291663;stroke-miterlimit:4;stroke-dasharray:none;stroke-opacity:1"
         id="path22740"
         inkscape:connector-curvature="0" />
    </g>
    <g
       id="g59108"
       transform="matrix(0.26458333,0,0,0.26458333,236.23055,325.86282)" />
    <g
       id="g59110"
       transform="matrix(0.26458333,0,0,0.26458333,236.23055,325.86282)" />
    <g
       id="g59112"
       transform="matrix(0.26458333,0,0,0.26458333,236.23055,325.86282)" />
    <g
       id="g59114"
       transform="matrix(0.26458333,0,0,0.26458333,236.23055,325.86282)" />
    <g
       id="g59116"
       transform="matrix(0.26458333,0,0,0.26458333,236.23055,325.86282)" />
    <g
       id="g59118"
       transform="matrix(0.26458333,0,0,0.26458333,236.23055,325.86282)" />
    <g
       id="g59120"
       transform="matrix(0.26458333,0,0,0.26458333,236.23055,325.86282)" />
    <g
       id="g59122"
       transform="matrix(0.26458333,0,0,0.26458333,236.23055,325.86282)" />
    <g
       id="g59124"
       transform="matrix(0.26458333,0,0,0.26458333,236.23055,325.86282)" />
    <g
       id="g59126"
       transform="matrix(0.26458333,0,0,0.26458333,236.23055,325.86282)" />
    <g
       id="g59128"
       transform="matrix(0.26458333,0,0,0.26458333,236.23055,325.86282)" />
    <g
       id="g59130"
       transform="matrix(0.26458333,0,0,0.26458333,236.23055,325.86282)" />
    <g
       id="g59132"
       transform="matrix(0.26458333,0,0,0.26458333,236.23055,325.86282)" />
    <g
       id="g59134"
       transform="matrix(0.26458333,0,0,0.26458333,236.23055,325.86282)" />
    <g
       id="g59136"
       transform="matrix(0.26458333,0,0,0.26458333,236.23055,325.86282)" />
    <g
       id="g59271"
       transform="matrix(0.26458333,0,0,0.26458333,374.74307,322.66661)" />
    <g
       id="g59273"
       transform="matrix(0.26458333,0,0,0.26458333,374.74307,322.66661)" />
    <g
       id="g59275"
       transform="matrix(0.26458333,0,0,0.26458333,374.74307,322.66661)" />
    <g
       id="g59277"
       transform="matrix(0.26458333,0,0,0.26458333,374.74307,322.66661)" />
    <g
       id="g59279"
       transform="matrix(0.26458333,0,0,0.26458333,374.74307,322.66661)" />
    <g
       id="g59281"
       transform="matrix(0.26458333,0,0,0.26458333,374.74307,322.66661)" />
    <g
       id="g59283"
       transform="matrix(0.26458333,0,0,0.26458333,374.74307,322.66661)" />
    <g
       id="g59285"
       transform="matrix(0.26458333,0,0,0.26458333,374.74307,322.66661)" />
    <g
       id="g59287"
       transform="matrix(0.26458333,0,0,0.26458333,374.74307,322.66661)" />
    <g
       id="g59289"
       transform="matrix(0.26458333,0,0,0.26458333,374.74307,322.66661)" />
    <g
       id="g59291"
       transform="matrix(0.26458333,0,0,0.26458333,374.74307,322.66661)" />
    <g
       id="g59293"
       transform="matrix(0.26458333,0,0,0.26458333,374.74307,322.66661)" />
    <g
       id="g59295"
       transform="matrix(0.26458333,0,0,0.26458333,374.74307,322.66661)" />
    <g
       id="g59297"
       transform="matrix(0.26458333,0,0,0.26458333,374.74307,322.66661)" />
    <g
       id="g59299"
       transform="matrix(0.26458333,0,0,0.26458333,374.74307,322.66661)" />
    <g
       id="g66028"
       transform="matrix(0.26458333,0,0,0.26458333,246.00007,332.63542)" />
    <g
       id="g66030"
       transform="matrix(0.26458333,0,0,0.26458333,246.00007,332.63542)" />
    <g
       id="g66032"
       transform="matrix(0.26458333,0,0,0.26458333,246.00007,332.63542)" />
    <g
       id="g66034"
       transform="matrix(0.26458333,0,0,0.26458333,246.00007,332.63542)" />
    <g
       id="g66036"
       transform="matrix(0.26458333,0,0,0.26458333,246.00007,332.63542)" />
    <g
       id="g66038"
       transform="matrix(0.26458333,0,0,0.26458333,246.00007,332.63542)" />
    <g
       id="g66040"
       transform="matrix(0.26458333,0,0,0.26458333,246.00007,332.63542)" />
    <g
       id="g66042"
       transform="matrix(0.26458333,0,0,0.26458333,246.00007,332.63542)" />
    <g
       id="g66044"
       transform="matrix(0.26458333,0,0,0.26458333,246.00007,332.63542)" />
    <g
       id="g66046"
       transform="matrix(0.26458333,0,0,0.26458333,246.00007,332.63542)" />
    <g
       id="g66048"
       transform="matrix(0.26458333,0,0,0.26458333,246.00007,332.63542)" />
    <g
       id="g66050"
       transform="matrix(0.26458333,0,0,0.26458333,246.00007,332.63542)" />
    <g
       id="g66052"
       transform="matrix(0.26458333,0,0,0.26458333,246.00007,332.63542)" />
    <g
       id="g66054"
       transform="matrix(0.26458333,0,0,0.26458333,246.00007,332.63542)" />
    <g
       id="g66056"
       transform="matrix(0.26458333,0,0,0.26458333,246.00007,332.63542)" />
  </g>
</svg>
