<?xml version="1.0" encoding="UTF-8"?>
<!-- Created with Inkscape (http://www.inkscape.org/) -->
<svg width="144.91104mm" height="16.867188mm" version="1.1" viewBox="0 0 144.91104 16.867187" xmlns="http://www.w3.org/2000/svg" xmlns:cc="http://creativecommons.org/ns#" xmlns:dc="http://purl.org/dc/elements/1.1/" xmlns:rdf="http://www.w3.org/1999/02/22-rdf-syntax-ns#">
 <metadata>
  <rdf:RDF>
   <cc:Work rdf:about="">
    <dc:format>image/svg+xml</dc:format>
    <dc:type rdf:resource="http://purl.org/dc/dcmitype/StillImage"/>
    <dc:title/>
   </cc:Work>
  </rdf:RDF>
 </metadata>
 <g transform="translate(-29.441596,-53.052862)">
  <g fill="#2196f3" stroke-width=".26458332" style="font-feature-settings:normal;font-variant-caps:normal;font-variant-ligatures:normal;font-variant-numeric:normal" aria-label="what we do">
   <g fill="#00c853">
    <path d="m41.740587 62.147914-2.067057 7.2347-4.082438 0.537435-6.149496-12.164632 5.064291-2.842203 3.100585 8.268228 2.428793-6.5319 4.134114 0.56844 1.705322 5.96346 2.480469-8.567952 5.622396 3.079916-6.035807 11.689208-4.619873-0.992187z"/>
    <path d="m59.879015 65.021123 0.37207 3.493327-3.958414 0.692464-1.79834-11.451497 4.402832-1.881022 0.496093 4.960937 3.96875-0.454752 0.06201-4.51652 6.893636 0.692464-2.635498 12.702067-4.433838-1.312582 0.05168-3.296956z"/>
    <path d="m74.007349 67.315557-0.72347 2.067057-4.072103-2.459798 5.105631-12.009602 3.886068-0.268718 6.108154 12.433349-4.826578 2.304769-1.064535-2.904215zm3.534668-4.526855-1.157552-3.741374-1.364258 4.134114z"/>
    <path d="m90.01671 59.316045 0.506429 8.805664-5.601725 1.44694 0.961182-10.521321-4.227132-0.361735 0.330729-3.824056 12.12329-0.72347 0.444418 5.653402z"/>
   </g>
   <path d="m112.64065 62.147914-2.06706 7.2347-4.08244 0.537435-6.14949-12.164632 5.06429-2.842203 3.10058 8.268228 2.4288-6.5319 4.13411 0.56844 1.70532 5.96346 2.48047-8.567952 5.6224 3.079916-6.03581 11.689208-4.61987-0.992187z" fill="#2196f3" stroke-width=".26458332" style="font-feature-settings:normal;font-variant-caps:normal;font-variant-ligatures:normal;font-variant-numeric:normal"/>
   <path d="m135.77102 53.052862 0.26872 5.477702-6.42855 0.692464 0.0827 1.250569 4.2168-0.39274 0.37207 3.741373-4.40283 0.320394 0.0724 1.012858 6.24251-0.475423 0.93018 4.702555-12.30933 0.423747 1.25057-14.913818z" fill="#2196f3" stroke-width=".26458332" style="font-feature-settings:normal;font-variant-caps:normal;font-variant-ligatures:normal;font-variant-numeric:normal"/>
   <path d="m143.54316 69.382614-0.66146-14.4694q14.09733 0 14.09733 7.2347t-13.43587 7.2347zm3.67936-10.635009 0.69246 5.002278q4.47518 0.02067 4.47518-2.490804t-5.16764-2.511474z" fill="#e91e63"/>
   <path d="m165.93971 69.382614q-3.49332 0-5.96346-2.118734-2.45979-2.118733-2.45979-5.115966t2.45979-5.115967q2.47014-2.118733 5.96346-2.118733 3.483 0 5.94279 2.118733 2.47014 2.118734 2.47014 5.115967t-2.47014 5.115966q-2.45979 2.118734-5.94279 2.118734zm-0.57877-4.51652q1.48828 0 2.54248-0.909505 1.06453-0.909505 1.06453-2.191081 0-1.281575-1.06453-2.19108-1.0542-0.909506-2.54248-0.909506-1.49862 0-2.56315 0.909506-1.0542 0.909505-1.0542 2.19108 0 1.281576 1.0542 2.191081 1.06453 0.909505 2.56315 0.909505z" fill="#e91e63"/>
  </g>
 </g>
</svg>
