<?xml version="1.0" encoding="UTF-8"?>
<!-- Created with Inkscape (http://www.inkscape.org/) -->
<svg width="562" height="512" version="1.1" viewBox="0 0 148.69583 135.46667" xmlns="http://www.w3.org/2000/svg" xmlns:cc="http://creativecommons.org/ns#" xmlns:dc="http://purl.org/dc/elements/1.1/" xmlns:rdf="http://www.w3.org/1999/02/22-rdf-syntax-ns#">
 <metadata>
  <rdf:RDF>
   <cc:Work rdf:about="">
    <dc:format>image/svg+xml</dc:format>
    <dc:type rdf:resource="http://purl.org/dc/dcmitype/StillImage"/>
    <dc:title/>
   </cc:Work>
  </rdf:RDF>
 </metadata>
 <g transform="translate(41.489128,-109.05898)">
  <rect x="-34.874542" y="109.05898" width="135.46666" height="135.46666" ry="0" opacity="0" stroke-width=".88159168"/>
  <g transform="matrix(.22997619 0 0 .23023265 -26.065482 111.59876)">
   <path d="m80 452.219c-2.977 0-5.781-1.668-7.156-4.422l-40-80c-1.977-3.953-0.375-8.758 3.578-10.734 3.945-1.969 8.758-0.375 10.734 3.578l24.844 49.691v-46.113c0-4.418 3.578-8 8-8s8 3.582 8 8v80c0 3.711-2.555 6.934-6.164 7.785-0.609 0.145-1.227 0.215-1.836 0.215z" fill="#868491"/>
  </g>
  <g transform="matrix(.22997619 0 0 .23023265 -26.065482 111.59876)">
   <path d="m432.219 452.219c-0.609 0-1.227-0.07-1.836-0.215-3.609-0.852-6.164-4.074-6.164-7.785v-80c0-4.418 3.578-8 8-8s8 3.582 8 8v46.113l24.844-49.691c1.984-3.953 6.781-5.547 10.734-3.578 3.953 1.977 5.555 6.781 3.578 10.734l-40 80c-1.375 2.754-4.18 4.422-7.156 4.422z" fill="#868491"/>
  </g>
  <g transform="matrix(.26435718 0 0 .23023265 -34.874545 111.59876)">
   <path d="m504.438 372.219h-496.438c-4.418 0-8-3.582-8-8v-16c0-4.418 3.582-8 8-8h496.438c4.418 0 8 3.582 8 8v16c0 4.418-3.582 8-8 8z" fill="#e6be8a"/>
  </g>
  <g transform="matrix(.86920137 0 0 .87017067 -59.338773 123.80134)">
   <g transform="matrix(.26458333 0 0 .26458333 49.993464 -14.023205)">
    <path d="m424 116.219h-40c-4.418 0-8 3.582-8 8v216h56v-216c0-4.418-3.582-8-8-8z" fill="#ff4f19"/>
   </g>
   <g transform="matrix(.52916667 0 0 .26458333 -64.306539 -14.023205)">
    <rect x="404" y="140.21899" width="28" height="16" fill="#ffcd00"/>
   </g>
   <g transform="matrix(.52916667 0 0 .26458333 -64.306539 -14.023205)">
    <rect x="404" y="292.21899" width="28" height="16" fill="#ffcd00"/>
   </g>
  </g>
  <g transform="matrix(.86920137 0 0 .87017067 -62.582618 123.80134)">
   <g transform="matrix(.26458333 0 0 .26458333 36.840454 -13.781903)" fill="#fbc02d">
    <path d="m168.219 84.219h-48.219c-4.418 0-8 3.582-8 8v248h64.219v-248c0-4.418-3.582-8-8-8z" fill="#fbc02d"/>
   </g>
   <g fill="#ff9100">
    <g transform="matrix(.53097741 0 0 .48326282 7.0043167 -35.190815)">
     <rect x="112" y="108.219" width="32" height="16" fill="#ff9100"/>
    </g>
    <g transform="matrix(.53097741 0 0 .24196131 7.0043168 33.632958)">
     <rect x="112" y="108.219" width="32" height="16" fill="#ff9100"/>
    </g>
    <g transform="matrix(.53097741 0 0 .48326282 7.0043168 -26.010801)">
     <rect x="112" y="108.219" width="32" height="16" fill="#ff9100"/>
    </g>
   </g>
  </g>
  <g transform="matrix(.86920137 0 0 .87017067 -59.514489 123.80134)">
   <g transform="matrix(.26458333 0 0 .26458333 34.726684 -14.023205)" fill="#53adf6">
    <path d="m216 100.219h-32c-4.418 0-8 3.582-8 8v232h48v-232c0-4.418-3.582-8-8-8z" fill="#53adf6"/>
   </g>
   <g transform="matrix(.396875 0 0 .21179862 36.84335 -.39998036)" fill="#0b7edb">
    <rect x="112" y="108.219" width="32" height="16" fill="#0b7edb"/>
   </g>
   <g transform="matrix(.396875 0 0 .21179862 36.84335 42.069084)" fill="#0b7edb">
    <rect x="112" y="108.219" width="32" height="16" fill="#0b7edb"/>
   </g>
  </g>
  <g transform="matrix(.86920137 0 0 .87017067 -63.621432 123.80134)">
   <g transform="matrix(.38523408 0 0 .26458333 23.164598 -14.023205)" fill="#5eaf00">
    <path d="m104 108.219h-16c-4.418 0-8 3.582-8 8v223.125c0 0.483 0.392 0.875 0.875 0.875h31.125v-224c0-4.418-3.582-8-8-8z" fill="#5eaf00"/>
   </g>
   <g transform="matrix(.77046667 0 0 .26458333 -143.25614 -10.162381)">
    <rect x="256" y="140.21899" width="16" height="16" fill="#5d647f"/>
   </g>
   <g transform="matrix(.77046667 0 0 .26458333 -143.25612 26.34824)">
    <rect x="256" y="140.21899" width="16" height="16" fill="#5d647f"/>
   </g>
  </g>
  <g transform="matrix(.86920137 0 0 .87017067 -60.198441 123.80134)">
   <g transform="matrix(.26458333 0 0 .26458333 44.164145 -14.023205)">
    <path d="m336 60.219h-40c-4.418 0-8 3.582-8 8v272h56v-272c0-4.418-3.582-8-8-8z" fill="#ff9100"/>
   </g>
   <g fill="#803300">
    <g transform="matrix(.45475261 0 0 .76980836 69.564143 -68.698149)">
     <rect x="112" y="108.219" width="32" height="16" fill="#803300"/>
    </g>
    <g transform="matrix(.46302083 0 0 .16655459 68.505811 43.410502)">
     <rect x="112" y="108.219" width="32" height="16" fill="#803300"/>
    </g>
    <g transform="matrix(.46302083 0 0 .16655459 68.505811 48.192043)">
     <rect x="112" y="108.219" width="32" height="16" fill="#803300"/>
    </g>
   </g>
  </g>
  <g transform="matrix(.86920137 0 0 .87017067 -60.171308 123.80134)">
   <g transform="matrix(.339725 0 0 .26458333 20.008722 -14.023205)">
    <path d="m248 84.219h-16c-4.418 0-8 3.582-8 8v248h32v-248c0-4.418-3.582-8-8-8z" fill="#5d647f"/>
   </g>
   <g fill="#0b7edb">
    <g transform="matrix(.3389974 0 0 .21179862 58.151055 -6.4325256)">
     <rect x="112" y="108.219" width="32" height="16" fill="#0b7edb"/>
    </g>
    <g transform="matrix(.3389974 0 0 .21179862 58.151055 43.034287)">
     <rect x="112" y="108.219" width="32" height="16" fill="#0b7edb"/>
    </g>
    <rect x="99.612305" y="23.491131" width="3.8608241" height="38.849541" ry="1.9304121"/>
   </g>
  </g>
  <g transform="matrix(.86920137 0 0 .87017067 -60.289741 123.80134)">
   <g transform="matrix(.33244938 0 0 .26458333 23.365652 -14.023205)">
    <path d="m280 116.219h-16c-4.418 0-8 3.582-8 8v216h32v-216c0-4.418-3.582-8-8-8z" fill="#00c37a"/>
   </g>
   <g fill="#006b43">
    <g transform="matrix(.33244896 0 0 .76980836 71.238416 -29.366003)">
     <rect x="112" y="108.219" width="32" height="16" fill="#006b43"/>
    </g>
    <g transform="matrix(.33244896 0 0 .16655459 71.238416 7.9391802)">
     <rect x="112" y="108.219" width="32" height="16" fill="#006b43"/>
    </g>
    <g transform="matrix(.33244896 0 0 .16655459 71.238416 12.720721)">
     <rect x="112" y="108.219" width="32" height="16" fill="#006b43"/>
    </g>
   </g>
  </g>
  <g transform="matrix(.86920137 0 0 .87017067 -63.621432 123.80134)">
   <path d="m49.881165 21.20104h-8.232152c-1.515402 0-2.74405 0.947738-2.74405 2.116667v52.916666h13.720253v-52.916666c0-1.168929-1.228649-2.116667-2.744051-2.116667z" fill="#c3002b" stroke-width=".30125365"/>
   <g fill="#fbc02d">
    <g transform="matrix(.85751459 0 0 .26458333 -180.61876 -3.8885419)">
     <g fill="#fbc02d">
      <rect x="256" y="140.21899" width="16" height="16" fill="#fbc02d"/>
     </g>
    </g>
    <g transform="matrix(.85751459 0 0 .26458333 -180.61876 8.9004381)">
     <g fill="#fbc02d">
      <rect x="256" y="140.21899" width="16" height="16" fill="#fbc02d"/>
     </g>
    </g>
    <g transform="matrix(.85751459 0 0 .53604753 -180.61876 -14.444607)">
     <g fill="#fbc02d">
      <rect x="256" y="140.21899" width="16" height="16" fill="#fbc02d"/>
     </g>
    </g>
   </g>
  </g>
  <g transform="matrix(.86920137 0 0 .87017067 -63.621432 123.80134)">
   <g transform="matrix(.39277476 0 0 .26458333 5.3624939 -14.023205)">
    <path d="m368 84.219h-16c-4.418 0-8 3.582-8 8v248h32v-248c0-4.418-3.582-8-8-8z" fill="#4bb9ec"/>
   </g>
   <g fill="#fbc02d">
    <g transform="matrix(.78554792 0 0 .26458333 -60.623243 23.61983)">
     <g fill="#fbc02d">
      <rect x="256" y="140.21899" width="16" height="16" fill="#fbc02d"/>
     </g>
    </g>
    <g transform="matrix(.78554792 0 0 .26458333 -60.623243 17.345991)">
     <g fill="#fbc02d">
      <rect x="256" y="140.21899" width="16" height="16" fill="#fbc02d"/>
     </g>
    </g>
    <circle cx="146.76141" cy="27.521252" r="3.378221"/>
    <g transform="matrix(.78554792 0 0 .17409526 -60.623243 -4.7132809)">
     <g fill="#fbc02d">
      <rect x="256" y="140.21899" width="16" height="16" fill="#fbc02d"/>
     </g>
    </g>
   </g>
  </g>
  <g transform="matrix(.86920137 0 0 .87017067 -63.621432 123.80134)">
   <g transform="matrix(.31284363 0 0 .26458333 35.430238 -14.023205)" fill="#808080">
    <path d="m464 100.219h-24c-4.418 0-8 3.582-8 8v232h40v-232c0-4.418-3.582-8-8-8z" fill="#808080"/>
   </g>
   <rect x="173.57799" y="23.973743" width="6.5151405" height="40.538654" ry="1.9304132" fill="#fff"/>
  </g>
  <g transform="matrix(.86920137 0 0 .87017067 -93.194712 123.80134)">
   <rect x="119.68555" y="95.271927" width="50.673317" height="24.612753" ry="5.7912364" fill="#53adf6"/>
   <rect x="124.65352" y="97.684944" width="40.737373" height="19.786722" ry="4.6556997" fill="#fff"/>
  </g>
  <g transform="matrix(.86920137 0 0 .87017067 -65.687083 100.487)" fill="#424242" stroke-width=".26458332" style="font-feature-settings:normal;font-variant-caps:normal;font-variant-ligatures:normal;font-variant-numeric:normal" aria-label="Alan">
   <path d="m106.10173 128.12259q0.79237 0.0603 1.1455 1.11966 0.35312 1.05937 0.63734 1.93787 0.28422 0.86988 0.76653 4.28053 0.0861 0 0.48232 4.61643 0.1378 0.18948 0.2067 1.17133 0 0.29283-0.58566 0.44786-0.54261 0-0.62012-1.37804v-0.96462q-0.19809-2.82498-0.37896-2.82498l-0.41341-0.0689q-2.65273 0.0861-2.65273 0.58566l-0.79237 4.09967q-0.18948 0.17225-0.34451 0.17225-0.51676-0.10335-0.51676-0.51676 1.30913-7.14858 1.9637-11.29992 0.10336-0.0689 0.31006-0.86127 0.42203-0.51677 0.79237-0.51677zm-0.96462 6.75239v0.41341q0 0.24116 1.10243 0.24116h0.55121q0.93018 0 0.93018-0.24116l0.0345-0.24115-0.0689-0.31006v-0.55122q-0.17226-0.31867-0.75792-2.96278-0.43925-1.41249-0.79238-1.41249h-0.0344q-0.0603 0-0.2756 0.99908-0.23255 0.74931-0.62012 3.7207-0.0603 0-0.0689 0.34451z" style="font-feature-settings:normal;font-variant-caps:normal;font-variant-ligatures:normal;font-variant-numeric:normal"/>
   <path d="m111.10573 127.046q0.24116 0 0.48232 0.20671l-0.0344 0.2067-0.37896 10.6798q0 3.23839-0.20671 3.23839-0.26699 0.2067-0.37896 0.2067-0.41341 0-0.51676-0.96462v-0.62012q0-2.48047 0.37896-10.78315 0-2.10151 0.2756-2.10151z" style="font-feature-settings:normal;font-variant-caps:normal;font-variant-ligatures:normal;font-variant-numeric:normal"/>
   <path d="m114.75754 128.38098q0.71485 0.24977 1.24023 0.99907 0.48231 0.88712 0.80098 2.26515 0.32729 1.37804 0.37035 4.00493-0.0258 3.1092-0.19809 3.514 0 1.99815-0.58567 1.99815 0 0.0861-2.69578 0.10335-0.77515 0-1.27469-1.27468-0.1378-0.56844-0.1378-0.99908v-0.17225q0-1.19718 0.99907-2.48047 0.6029-0.68902 1.5503-0.68902l0.75792 0.0345h0.37896l0.0345-0.37896 0.0344-1.72255q0-1.44694-0.93017-3.5829-0.25839-0.31006-0.51677-0.31006h-0.1378q-0.10336 0-0.82683 0.48232h-0.0689q-0.55121-0.25839-0.55121-0.58567v-0.1378q0.90433-1.06798 1.757-1.06798zm-1.30914 10.26638v0.27561q0 0.76653 0.37896 1.06798h0.0689q1.76561-0.0775 1.80006-0.0861 0.31006-1.54168 0.0258-2.5666-0.27561-0.48231-0.89572-0.48231-0.62873 0-1.30914 1.20578z" style="font-feature-settings:normal;font-variant-caps:normal;font-variant-ligatures:normal;font-variant-numeric:normal"/>
   <path d="m122.3712 128.62213q0.55121 0.17226 0.86127 0.93018 0.20671 0.24977 0.48231 1.8259-0.31005 5.04706-0.2756 7.55337l0.0345 1.6881q0 0.96462-0.65457 0.96462-0.55122 0-0.55122-0.79237 0.10336-5.46047 0.27561-7.82898l0.0689-2.06705-0.44786-1.10243q-0.14642-0.13781-0.27561-0.13781h-0.17225q-0.58567-0.0345-2.15319 3.89296-0.55121 1.41249-0.55121 1.72255v1.37804l0.10335 2.24792-0.0689 0.99908v0.0344l0.0689 0.65457q0 0.31867-0.65457 0.68902-0.58566-0.16365-0.58566-0.96463l-0.0689-1.10243q0.1378-3.22117 0.10335-9.20702 0-1.20578 0.31006-1.20578 0.23254-0.20671 0.48231-0.20671 0.34451 0 0.34451 0.41341l-0.0689 2.41157q0.0431 0.17225 0.10335 0.17225h0.20671q0.0603 0 0.93017-1.61919 0.85266-1.20578 1.20579-1.20578 0.39618-0.31006 0.9474-0.13781z" style="font-feature-settings:normal;font-variant-caps:normal;font-variant-ligatures:normal;font-variant-numeric:normal"/>
  </g>
  <g fill="#fff" stroke="#424242" stroke-width="1.0583334">
   <g style="font-feature-settings:normal;font-variant-caps:normal;font-variant-ligatures:normal;font-variant-numeric:normal" aria-label="1">
    <path d="m-22.175789 157.53688-2.790527 0.0775-0.766534 0.62873v2.64411l0.689019-0.31867 0.07752 8.33713h3.014458z" fill="#fff" stroke="#424242" stroke-width="1.0583334" style="font-feature-settings:normal;font-variant-caps:normal;font-variant-ligatures:normal;font-variant-numeric:normal"/>
   </g>
   <g style="font-feature-settings:normal;font-variant-caps:normal;font-variant-ligatures:normal;font-variant-numeric:normal" aria-label="2">
    <path d="m-8.5256291 157.99876q-2.5924349-1.57613-4.8231339-0.0258-1.119656 0.81821-1.972317 2.02399l1.739773 2.20486q0.223931-0.36173 0.62873-0.67179 0.895725-0.89573 1.800063-0.70625 0.508151 0.11197 0.413411 0.68902-0.07752 0.49093-0.577053 1.2833-0.938789 1.47278-2.290989 2.3685-0.585666 0.49954-1.085205 0.8785l-0.206706 3.04891 7.0021569 0.14642 0.00861-2.91972-3.5398359 0.16364q1.6794843-1.55029 2.876655-3.37619 1.0507541-1.59336 1.1713325-2.79914 0.163642-1.50723-1.1454943-2.30822z" fill="#fff" stroke="#424242" stroke-width="1.0583334" style="font-feature-settings:normal;font-variant-caps:normal;font-variant-ligatures:normal;font-variant-numeric:normal"/>
   </g>
   <g style="font-feature-settings:normal;font-variant-caps:normal;font-variant-ligatures:normal;font-variant-numeric:normal" aria-label="3">
    <path d="m-1.2991298 157.69956 0.077515 2.62688 3.3159045-0.0775-2.79052743 2.02399q0.76653376-0.11196 1.50722931 0.0861 1.49861662 0.39619 1.45555292 1.95509-0.051676 1.56752-1.50722935 1.54168-0.73208281-0.0172-1.45555288-0.34451l-0.68040637 2.80775q1.2402344 0.39619 2.7044 0.42203 2.902493 0.0603 3.9704727-1.76561 1.4641656-2.51492-0.025838-4.2547-0.7493082-0.86988-1.713935-1.32636l2.9800077-3.66041z" fill="#fff" stroke="#424242" stroke-width="1.0583334" style="font-feature-settings:normal;font-variant-caps:normal;font-variant-ligatures:normal;font-variant-numeric:normal"/>
   </g>
   <g style="font-feature-settings:normal;font-variant-caps:normal;font-variant-ligatures:normal;font-variant-numeric:normal" aria-label="4">
    <path d="m17.573874 161.27912h-1.800062l0.07752-3.85851-2.971395 0.0861v6.25285l4.5303 0.16364-0.327284 5.02123 3.117812 0.0775 0.249769-11.60136h-2.79914z" fill="#fff" stroke="#424242" stroke-width="1.0583334" style="font-feature-settings:normal;font-variant-caps:normal;font-variant-ligatures:normal;font-variant-numeric:normal"/>
   </g>
   <g style="font-feature-settings:normal;font-variant-caps:normal;font-variant-ligatures:normal;font-variant-numeric:normal" aria-label="5">
    <path d="m26.651953 160.19053 4.521688 0.18948 0.266994-2.54076-6.984931-0.26699 0.111966 5.32267q1.067979-0.22393 1.989542-0.1378 1.843127 0.18086 1.88619 1.74838 0.05168 1.57613-1.550293 1.79145-0.800984 0.11197-1.619195-0.0947l-0.155029 2.60105q1.705322 0.2067 3.393419-0.22393 3.367581-0.84405 3.203939-3.9877-0.146416-3.14365-2.635498-3.77238-1.231622-0.39619-2.446018-0.0775z" fill="#fff" stroke="#424242" stroke-width="1.0583334" style="font-feature-settings:normal;font-variant-caps:normal;font-variant-ligatures:normal;font-variant-numeric:normal"/>
   </g>
   <g style="font-feature-settings:normal;font-variant-caps:normal;font-variant-ligatures:normal;font-variant-numeric:normal" aria-label="6">
    <path d="m38.764337 165.64326q-0.301446 0.0258-0.465088-0.15503-0.146416-0.15503-0.146416-0.4048t0.120578-0.44786q0.129191-0.20671 0.335897-0.24116 0.490926-0.0861 0.732083 0.0861 0.215318 0.14642 0.18948 0.42202-0.02584 0.25839-0.232544 0.4737-0.223931 0.23255-0.53399 0.267zm-0.206706-3.93602q-0.103353-0.36174 0.103353-0.66318 0.430637-0.61151 2.015381-0.3359l0.456475-2.67856q-0.396186-0.19809-1.10243-0.24977-1.421102-0.0861-2.971395 0.67179-0.809598 0.39619-1.541681 1.88619-0.749308 1.54168-0.887112 3.21255-0.146416 1.92064 0.645956 3.20394 0.930176 1.51584 3.040297 1.85174 1.8259 0.29283 3.057522-0.72347 1.111043-0.91295 1.240234-2.40295 0.129191-1.49862-0.852661-2.55799-1.111043-1.19717-3.203939-1.21439z" fill="#fff" stroke="#424242" stroke-width="1.0583334" style="font-feature-settings:normal;font-variant-caps:normal;font-variant-ligatures:normal;font-variant-numeric:normal"/>
   </g>
   <g style="font-feature-settings:normal;font-variant-caps:normal;font-variant-ligatures:normal;font-variant-numeric:normal" aria-label="7">
    <path d="m47.209771 161.15422 2.799141-0.0775-2.575209 7.3036 3.462321 0.29283 3.763767-10.90372-7.596436 0.0775z" fill="#fff" stroke="#424242" stroke-width="1.0583334" style="font-feature-settings:normal;font-variant-caps:normal;font-variant-ligatures:normal;font-variant-numeric:normal"/>
   </g>
   <g style="font-feature-settings:normal;font-variant-caps:normal;font-variant-ligatures:normal;font-variant-numeric:normal" aria-label="8">
    <path d="m64.134081 165.43729q-0.284221 0-0.465088-0.16364-0.155029-0.1378-0.180868-0.35312-0.01722-0.20671 0.120579-0.34451 0.137804-0.16364 0.422024-0.17226 0.387573-9e-3 0.594279 0.15503 0.172255 0.13781 0.163642 0.35313-0.0086 0.2067-0.180868 0.36173-0.18948 0.16364-0.4737 0.16364zm-0.34451-5.64995q0.275608-0.0603 0.43925 0.0431 0.146416 0.10335 0.155029 0.29283 0.0086 0.18948-0.111965 0.31867-0.146417 0.16365-0.396186 0.16365-0.24977 0-0.396186-0.11197-0.146417-0.0947-0.15503-0.24116-0.04306-0.34451 0.465088-0.46508zm2.084283 2.34266q0.637343-1.19717 0.72347-2.42018 0.198093-2.4374-2.549371-2.54076-1.059366-0.0431-1.860351 0.52538-0.732083 0.51677-1.050754 1.37804-0.301446 0.85266-0.08613 1.67087 0.232544 0.8785 0.999078 1.38665-0.697632 0.55983-1.291911 1.38665-1.197171 1.64504-0.72347 2.98862 0.413412 1.17995 1.395264 1.92064 0.921563 0.68041 2.092895 0.81821 1.154107 0.13781 2.196249-0.31005 1.10243-0.48232 1.73116-1.49862 1.128269-1.81729-0.111965-3.74654-0.620118-0.96463-1.464166-1.55891z" fill="#fff" stroke="#424242" stroke-width="1.0583334" style="font-feature-settings:normal;font-variant-caps:normal;font-variant-ligatures:normal;font-variant-numeric:normal"/>
   </g>
   <g style="font-feature-settings:normal;font-variant-caps:normal;font-variant-ligatures:normal;font-variant-numeric:normal" aria-label="9">
    <path d="m77.038052 162.05248q-0.490926 0.0775-0.732083-0.0861-0.215318-0.14642-0.18948-0.42202 0.01723-0.25839 0.232544-0.48232 0.223931-0.22393 0.53399-0.25838 0.301446-0.0258 0.465088 0.15503 0.146416 0.14642 0.146416 0.4048 0 0.24116-0.120578 0.43925-0.137804 0.21532-0.335897 0.24977zm0.292833-4.22024q-1.8259-0.29284-3.057522 0.72347-1.111043 0.92156-1.240234 2.40295-0.129192 1.50723 0.852661 2.5666 1.111043 1.19717 3.203939 1.21439 0.103352 0.35313-0.103353 0.66318-0.430637 0.61151-2.015381 0.32729l-0.456475 2.68717q0.396186 0.1981 1.10243 0.24977 1.421102 0.0861 2.971395-0.67179 0.809598-0.39619 1.54168-1.88619 0.749309-1.54168 0.8785-3.21255 0.155029-1.92926-0.637343-3.21255-0.930176-1.50723-3.040297-1.85174z" fill="#fff" stroke="#424242" stroke-width="1.0583334" style="font-feature-settings:normal;font-variant-caps:normal;font-variant-ligatures:normal;font-variant-numeric:normal"/>
   </g>
   <g style="font-feature-settings:normal;font-variant-caps:normal;font-variant-ligatures:normal;font-variant-numeric:normal" aria-label="10">
    <path d="m87.24968 157.67103-2.790528 0.0775-0.766534 0.62873v2.64411l0.68902-0.31867 0.07751 8.33713h3.014459z" style="font-feature-settings:normal;font-variant-caps:normal;font-variant-ligatures:normal;font-variant-numeric:normal"/>
    <path d="m92.288132 165.0866q-0.275608 0.0517-0.43925-0.4048-0.146416-0.41341-0.155029-1.05075-0.0086-0.62873 0.120578-1.05937 0.146417-0.48231 0.396186-0.44786 0.465088 0.0517 0.680407 0.49954 0.18948 0.39618 0.146416 0.98185-0.04306 0.5426-0.249769 0.97324-0.215319 0.44786-0.499539 0.50815zm-0.542603-7.79453q-1.25746 0.0775-2.377116 1.83452-1.076592 1.70532-1.369425 3.89295-0.318671 2.37712 0.53399 3.9877 0.999077 1.87758 3.367581 2.11874 2.377116 0.24977 3.61735-1.59336 1.093818-1.62781 0.938789-4.17718-0.146417-2.48908-1.378039-4.24608-1.343587-1.92064-3.33313-1.81729z" style="font-feature-settings:normal;font-variant-caps:normal;font-variant-ligatures:normal;font-variant-numeric:normal"/>
   </g>
  </g>
  <rect x="-41.489128" y="109.05898" width="148.69583" height="135.46667" opacity="0" stroke-width=".83346671"/>
 </g>
</svg>
