<?xml version="1.0" encoding="UTF-8"?>
<!-- Created with Inkscape (http://www.inkscape.org/) -->
<svg width="512" height="512" version="1.1" viewBox="0 0 135.46667 135.46667" xmlns="http://www.w3.org/2000/svg" xmlns:cc="http://creativecommons.org/ns#" xmlns:dc="http://purl.org/dc/elements/1.1/" xmlns:rdf="http://www.w3.org/1999/02/22-rdf-syntax-ns#">
 <metadata>
  <rdf:RDF>
   <cc:Work rdf:about="">
    <dc:format>image/svg+xml</dc:format>
    <dc:type rdf:resource="http://purl.org/dc/dcmitype/StillImage"/>
    <dc:title/>
   </cc:Work>
  </rdf:RDF>
 </metadata>
 <g transform="translate(-100.08275,-108.05939)">
  <g transform="translate(145.28994)">
   <rect x="-45.207188" y="108.05939" width="135.46667" height="135.46667" ry="5.3322973" fill="#9c27b0"/>
   <rect x="-41.296833" y="111.96975" width="127.64598" height="127.64598" ry="5.0244555" fill="#fff"/>
  </g>
  <rect x="106.16818" y="114.14481" width="123.29582" height="123.29584" ry="0" opacity="0" stroke-width=".50122684"/>
  <path d="m142.86059 138.72458c-0.49473-1.19598-0.1513-2.9229 0.76359-3.83819 0.91483-0.91358 0.91483-2.41222 0-3.32632-0.91489-0.9147-1.25832-2.64162-0.76359-3.83811 0.49585-1.19597-0.0768-2.57939-1.27219-3.07367-1.19426-0.49435-2.17203-1.9587-2.17203-3.25246 0-1.29435-1.05809-2.35282-2.3524-2.35282-1.29312 0-2.75632-0.9782-3.24986-2.1741-0.49585-1.19656-1.87867-1.76947-3.07405-1.2746-1.19658 0.49436-2.92282 0.15078-3.83653-0.76392-0.9143-0.91411-2.41236-0.91411-3.32845 0-0.91371 0.9147-2.63995 1.25828-3.83414 0.76392-1.19538-0.49494-2.5782 0.078-3.07413 1.2746-0.49585 1.1959-1.95897 2.1741-3.25217 2.1741-1.29319 0-2.35247 1.05847-2.35247 2.35274 0 1.29376-0.97777 2.75811-2.17315 3.25247-1.19427 0.49427-1.76692 1.87769-1.27107 3.07366 0.49585 1.1965 0.1513 2.92342-0.7636 3.83812-0.9149 0.91417-0.9149 2.41281 0 3.32632 0.9149 0.91529 1.25945 2.64221 0.7636 3.83818-0.49585 1.1959 0.0768 2.57924 1.27107 3.07538 1.19538 0.49607 2.17315 1.95991 2.17315 3.25366 0 1.29368 1.05928 2.35222 2.35247 2.35222 1.2932 0 2.75632 0.97939 3.25217 2.17536 0.49586 1.1959 1.87867 1.76881 3.07413 1.27274 1.19426-0.49599 2.92043-0.15137 3.83414 0.76273 0.9149 0.91411 2.41296 0.91411 3.32733 0 0.91483-0.91418 2.64107-1.2588 3.83772-0.76273 1.19419 0.49607 2.57701-0.0768 3.07167-1.27274 0.49585-1.19597 1.95905-2.17536 3.25217-2.17536 1.29431 0 2.3524-1.05847 2.3524-2.35222s0.97777-2.75759 2.17203-3.25366c1.19538-0.49607 1.76804-1.87948 1.27219-3.0753z" fill="#f6bb42" stroke-width=".07451323"/>
  <g transform="matrix(.0744971 0 0 .07452937 106.16816 114.14419)" fill="#ffce54">
   <path d="m311.618 255.81 182.042-36.21c-2.703-6.546-4.156-13.843-4.156-20.921l-182.042 36.21 155.371-102.31c-5.141-4.828-9.453-10.898-12.375-17.39l-155.199 102.184 105.263-154.3c-6.625-2.398-12.984-6.281-18.25-11.102l-105.075 154.035 37.812-183.542c-7.047 0.227-14.391-1.016-21.047-3.531l-37.788 183.315-36.577-183.924c-6.547 2.711-13.843 4.164-20.921 4.164l36.577 183.925-105.029-154.887c-5.203 4.867-11.515 8.828-18.109 11.312l105.169 155.082-156.027-102.099c-3.031 6.476-7.422 12.492-12.625 17.234l156.309 102.286-182.464-35.014c-0.219 7.117-1.891 14.375-4.797 20.804l182.698 35.054-182.042 36.202c2.719 6.546 4.172 13.843 4.172 20.921l182.026-36.202-155.386 102.309c5.141 4.828 9.453 10.906 12.391 17.391l155.199-102.201-105.278 154.34c6.625 2.391 12.984 6.266 18.25 11.094l105.091-154.059-37.813 183.557c7.047-0.234 14.39 1 21.046 3.516l37.78-183.308 36.585 183.917c6.547-2.703 13.844-4.156 20.922-4.156l-36.577-183.933 105.044 154.918c5.203-4.875 11.5-8.828 18.109-11.312l-105.185-155.106 156.043 102.107c3.031-6.469 7.422-12.484 12.625-17.234l-156.34-102.294 182.479 35.015c0.234-7.109 1.891-14.375 4.797-20.796z"/>
   <path d="m447.989 255.997c0 106.027-85.951 191.994-192.003 191.994-106.028 0-191.994-85.967-191.994-191.994 0-106.036 85.966-191.995 191.995-191.995 106.051 0 192.002 85.959 192.002 191.995z"/>
  </g>
  <path d="m126.44605 124.91839c-4.24455-1.51623-8.8329-1.37709-12.12471-0.93803-2.11139 2.49375-3.38596 5.71938-3.38596 9.24313 0 2.70043 0.74839 5.22623 2.0486 7.38169 2.68762-0.44948 6.64633-0.60905 10.93684 0.92341 4.29803 1.53486 8.95045 1.37298 12.25045 0.92112 2.1032-2.49205 3.37085-5.71067 3.37085-9.22622 0-2.70802-0.75198-5.24023-2.05791-7.3992-2.68891 0.4629-6.69408 0.64572-11.03816-0.9059z" fill="#29b6f6" stroke-width=".07451323"/>
  <g transform="matrix(.90370799 .10652447 -.10647833 .90409941 -259.38403 -129.50949)" fill="#ffce54" stroke-width=".08186862" aria-label="SODA">
   <path d="m442.50609 237.75768q0.11513 0.41787 0.34112 0.66092 0.23026 0.24305 0.71635 0.24305 0.33259 0 0.55432-0.17909 0.22599-0.17909 0.22599-0.54579 0-0.37097-0.47756-0.61402-0.47757-0.24731-0.78458-0.4136-0.5799-0.30275-1.02762-0.73767-0.4264-0.40935-0.4264-1.09159v-0.0768q0.0256-0.75472 0.60549-1.27919 0.56284-0.50742 1.31331-0.50742h0.0512q0.62681 0.0128 1.05321 0.23878 0.43066 0.22173 0.76325 0.76326l-0.90396 0.80163q-0.15351-0.24305-0.36671-0.43493-0.20467-0.18335-0.50315-0.18335h-0.0256q-0.24731 0.0128-0.43919 0.17056-0.18762 0.15777-0.18762 0.43066 0 0.26011 0.32407 0.4861 0.32406 0.22173 0.60548 0.37096 0.69077 0.37097 1.24935 0.81443 0.54579 0.43492 0.54579 1.29625v0.0256q-9e-3 0.84854-0.60548 1.36448-0.5927 0.51594-1.47961 0.57138-0.064 4e-3 -0.13218 4e-3 -0.58843 0-1.11717-0.31127-0.59269-0.34538-0.86132-1.01057z" style="font-feature-settings:normal;font-variant-caps:normal;font-variant-ligatures:normal;font-variant-numeric:normal"/>
   <path d="m453.31104 236.56376q0 0.67371-0.25584 1.29199-0.12365 0.28995-0.31553 0.57138-0.58417 0.84853-1.54357 1.23655-0.63107 0.25584-1.28772 0.25584-0.33686 0-0.68224-0.0682-0.68224-0.13218-1.22803-0.49889-0.25584-0.16203-0.51594-0.4136-0.49036-0.47331-0.74194-1.07879-0.2601-0.61402-0.2601-1.2792 0-0.17056 0.0171-0.34112 0.081-0.84853 0.55432-1.5393 0.37949-0.55432 0.95087-0.92955v-4e-3q0.84427-0.55006 1.89747-0.55006 1.03189 0 1.88895 0.55006 0.56711 0.37523 0.95087 0.93807 0.57137 0.84427 0.57137 1.8591zm-1.38153 0q0-0.43066-0.1535-0.80163-0.33259-0.80163-1.09585-1.12995-0.39655-0.1663-0.78884-0.1663-0.38802 0-0.77604 0.16203-0.064 0.0298-0.18335 0.0938-0.11513 0.064-0.1663 0.10233-0.14924 0.0981-0.30701 0.25584v4e-3q-0.14071 0.14071-0.25584 0.31127-0.1066 0.16203-0.18761 0.36244-0.15351 0.38376-0.15351 0.80163 0 0.10233 9e-3 0.20467 0.0469 0.52874 0.33259 0.96366 0.34965 0.533 0.9125 0.77178 0.40934 0.17483 0.80163 0.17483 0.57137 0 1.10437-0.37097 0.90823-0.61828 0.90823-1.73971z" style="font-feature-settings:normal;font-variant-caps:normal;font-variant-ligatures:normal;font-variant-numeric:normal"/>
   <path d="m454.08709 233.35298h1.50092q0.61828 0 1.11291 0.0341 0.37949 0.0256 0.67371 0.0853 0.29848 0.0597 0.60548 0.20467 0.63534 0.29848 1.01483 0.85706 0.38376 0.55432 0.51595 1.2323 0.0682 0.37096 0.0682 0.77604 0 0.19188-0.0128 0.38803-0.0512 0.61827-0.2729 1.12995-0.15777 0.34539-0.35817 0.60123-0.39229 0.50315-0.94661 0.77604-0.23452 0.11087-0.51168 0.18335-0.0341 0.0213-0.29848 0.064-0.26436 0.0384-0.38376 0.0384-0.43066 0.0341-0.94234 0.0341h-1.76529zm1.33463 5.16369h0.62681q0.34538 0 0.60548-0.0256 0.23026-0.0171 0.39655-0.0597 0.31127-0.0853 0.52447-0.26863v-4e-3q0.35392-0.30275 0.49036-0.72488 0.13645-0.42214 0.13645-0.88265t-0.13645-0.87838q-0.13644-0.42214-0.49036-0.72914-0.20893-0.17483-0.45198-0.24305-0.23878-0.0682-0.52021-0.0895-0.25583-0.0213-0.5799-0.0213-0.3198-4e-3 -0.60122-4e-3z" style="font-feature-settings:normal;font-variant-caps:normal;font-variant-ligatures:normal;font-variant-numeric:normal"/>
   <path d="m464.22686 239.65089-0.64386-1.45402h-2.16611l-0.70356 1.56062h-1.42417l3.20652-6.88634 3.20652 6.88634h-1.42844zm-2.28976-2.62235h1.14275l-0.57138-1.30052z" style="font-feature-settings:normal;font-variant-caps:normal;font-variant-ligatures:normal;font-variant-numeric:normal"/>
  </g>
  <path d="m185.43744 138.72458c-0.49473-1.19598-0.1513-2.9229 0.7636-3.83819 0.91482-0.91358 0.91482-2.41222 0-3.32632-0.9149-0.9147-1.25833-2.64162-0.7636-3.83811 0.49586-1.19597-0.0768-2.57939-1.27219-3.07367-1.19426-0.49435-2.17203-1.9587-2.17203-3.25246 0-1.29435-1.05808-2.35282-2.3524-2.35282-1.29312 0-2.75632-0.9782-3.24986-2.1741-0.49585-1.19656-1.87867-1.76947-3.07405-1.2746-1.19657 0.49436-2.92282 0.15078-3.83653-0.76392-0.91429-0.91411-2.41236-0.91411-3.32845 0-0.91371 0.9147-2.63995 1.25828-3.83414 0.76392-1.19538-0.49494-2.5782 0.078-3.07412 1.2746-0.49586 1.1959-1.95898 2.1741-3.25217 2.1741-1.2932 0-2.35248 1.05847-2.35248 2.35274 0 1.29376-0.97777 2.75811-2.17315 3.25247-1.19427 0.49427-1.76692 1.87769-1.27107 3.07366 0.49585 1.1965 0.15131 2.92342-0.7636 3.83812-0.9149 0.91417-0.9149 2.41281 0 3.32632 0.91491 0.91529 1.25945 2.64221 0.7636 3.83818-0.49585 1.1959 0.0768 2.57924 1.27107 3.07538 1.19538 0.49607 2.17315 1.95991 2.17315 3.25366 0 1.29368 1.05928 2.35222 2.35248 2.35222 1.29319 0 2.75631 0.97939 3.25217 2.17536 0.49585 1.1959 1.87866 1.76881 3.07412 1.27274 1.19426-0.49599 2.92043-0.15137 3.83414 0.76273 0.9149 0.91411 2.41296 0.91411 3.32733 0 0.91483-0.91418 2.64108-1.2588 3.83772-0.76273 1.19419 0.49607 2.57701-0.0768 3.07167-1.27274 0.49585-1.19597 1.95905-2.17536 3.25217-2.17536 1.29432 0 2.3524-1.05847 2.3524-2.35222s0.97777-2.75759 2.17203-3.25366c1.19538-0.49607 1.76805-1.87948 1.27219-3.0753z" fill="#f6bb42" stroke-width=".07451323"/>
  <g transform="matrix(.0744971 0 0 .07452937 148.74501 114.14419)" fill="#ffce54">
   <path d="m311.618 255.81 182.042-36.21c-2.703-6.546-4.156-13.843-4.156-20.921l-182.042 36.21 155.371-102.31c-5.141-4.828-9.453-10.898-12.375-17.39l-155.199 102.184 105.263-154.3c-6.625-2.398-12.984-6.281-18.25-11.102l-105.075 154.035 37.812-183.542c-7.047 0.227-14.391-1.016-21.047-3.531l-37.788 183.315-36.577-183.924c-6.547 2.711-13.843 4.164-20.921 4.164l36.577 183.925-105.029-154.887c-5.203 4.867-11.515 8.828-18.109 11.312l105.169 155.082-156.027-102.099c-3.031 6.476-7.422 12.492-12.625 17.234l156.309 102.286-182.464-35.014c-0.219 7.117-1.891 14.375-4.797 20.804l182.698 35.054-182.042 36.202c2.719 6.546 4.172 13.843 4.172 20.921l182.026-36.202-155.386 102.309c5.141 4.828 9.453 10.906 12.391 17.391l155.199-102.201-105.278 154.34c6.625 2.391 12.984 6.266 18.25 11.094l105.091-154.059-37.813 183.557c7.047-0.234 14.39 1 21.046 3.516l37.78-183.308 36.585 183.917c6.547-2.703 13.844-4.156 20.922-4.156l-36.577-183.933 105.044 154.918c5.203-4.875 11.5-8.828 18.109-11.312l-105.185-155.106 156.043 102.107c3.031-6.469 7.422-12.484 12.625-17.234l-156.34-102.294 182.479 35.015c0.234-7.109 1.891-14.375 4.797-20.796z"/>
   <path d="m447.989 255.997c0 106.027-85.951 191.994-192.003 191.994-106.028 0-191.994-85.967-191.994-191.994 0-106.036 85.966-191.995 191.995-191.995 106.051 0 192.002 85.959 192.002 191.995z"/>
  </g>
  <path d="m169.0229 124.91839c-4.24455-1.51623-8.8329-1.37709-12.12471-0.93803-2.11139 2.49375-3.38596 5.71938-3.38596 9.24313 0 2.70043 0.74839 5.22623 2.0486 7.38169 2.68763-0.44948 6.64633-0.60905 10.93684 0.92341 4.29804 1.53486 8.95045 1.37298 12.25045 0.92112 2.1032-2.49205 3.37085-5.71067 3.37085-9.22622 0-2.70802-0.75197-5.24023-2.05791-7.3992-2.6889 0.4629-6.69408 0.64572-11.03816-0.9059z" fill="#29b6f6" stroke-width=".07451323"/>
  <g transform="matrix(.90370799 .10652447 -.10647833 .90409941 -259.38403 -129.50949)" fill="#ffce54" stroke-width=".08186862" aria-label="SODA">
   <path d="m488.97451 232.2826q0.11512 0.41787 0.34112 0.66092 0.23025 0.24304 0.71635 0.24304 0.33259 0 0.55431-0.17908 0.226-0.17909 0.226-0.54579 0-0.37097-0.47757-0.61402-0.47757-0.24731-0.78457-0.41361-0.57991-0.30274-1.02763-0.73767-0.4264-0.40934-0.4264-1.09158v-0.0767q0.0256-0.75473 0.60549-1.2792 0.56285-0.50741 1.31331-0.50741h0.0512q0.6268 0.0128 1.0532 0.23878 0.43067 0.22173 0.76326 0.76326l-0.90397 0.80163q-0.1535-0.24305-0.3667-0.43493-0.20467-0.18335-0.50315-0.18335h-0.0256q-0.24731 0.0128-0.43919 0.17056-0.18761 0.15776-0.18761 0.43066 0 0.2601 0.32406 0.4861 0.32406 0.22172 0.60549 0.37096 0.69076 0.37097 1.24935 0.81442 0.54579 0.43493 0.54579 1.29626v0.0256q-9e-3 0.84854-0.60549 1.36448-0.59269 0.51594-1.4796 0.57137-0.064 4e-3 -0.13219 4e-3 -0.58843 0-1.11716-0.31127-0.5927-0.34539-0.86133-1.01057z" style="font-feature-settings:normal;font-variant-caps:normal;font-variant-ligatures:normal;font-variant-numeric:normal"/>
   <path d="m499.77946 231.08868q0 0.67371-0.25584 1.29199-0.12366 0.28995-0.31554 0.57137-0.58416 0.84854-1.54356 1.23656-0.63107 0.25584-1.28773 0.25584-0.33685 0-0.68223-0.0682-0.68224-0.13219-1.22803-0.49889-0.25584-0.16203-0.51595-0.41361-0.49036-0.4733-0.74193-1.07879-0.2601-0.61401-0.2601-1.27919 0-0.17056 0.017-0.34112 0.081-0.84854 0.55432-1.5393 0.3795-0.55432 0.95087-0.92955v-4e-3q0.84427-0.55005 1.89748-0.55005 1.03188 0 1.88894 0.55005 0.56711 0.37523 0.95087 0.93808 0.57138 0.84427 0.57138 1.8591zm-1.38153 0q0-0.43066-0.15351-0.80163-0.33259-0.80163-1.09584-1.12996-0.39655-0.16629-0.78884-0.16629-0.38803 0-0.77605 0.16203-0.064 0.0299-0.18335 0.0938-0.11513 0.064-0.1663 0.10233-0.14924 0.0981-0.307 0.25584v4e-3q-0.14071 0.14071-0.25584 0.31127-0.1066 0.16203-0.18762 0.36244-0.1535 0.38376-0.1535 0.80163 0 0.10233 9e-3 0.20467 0.0469 0.52873 0.33259 0.96366 0.34964 0.533 0.91249 0.77178 0.40934 0.17483 0.80163 0.17483 0.57138 0 1.10438-0.37097 0.90823-0.61828 0.90823-1.73971z" style="font-feature-settings:normal;font-variant-caps:normal;font-variant-ligatures:normal;font-variant-numeric:normal"/>
   <path d="m500.5555 227.8779h1.50093q0.61828 0 1.1129 0.0341 0.3795 0.0256 0.67371 0.0853 0.29848 0.0597 0.60549 0.20467 0.63533 0.29848 1.01483 0.85706 0.38376 0.55432 0.51594 1.23229 0.0682 0.37097 0.0682 0.77605 0 0.19188-0.0128 0.38802-0.0512 0.61828-0.27289 1.12996-0.15777 0.34538-0.35818 0.60122-0.39229 0.50315-0.9466 0.77605-0.23452 0.11086-0.51168 0.18335-0.0341 0.0213-0.29848 0.064-0.26437 0.0384-0.38376 0.0384-0.43066 0.0341-0.94234 0.0341h-1.7653zm1.33463 5.16369h0.62681q0.34538 0 0.60549-0.0256 0.23025-0.017 0.39655-0.0597 0.31127-0.0853 0.52447-0.26863v-4e-3q0.35391-0.30274 0.49036-0.72488 0.13645-0.42213 0.13645-0.88264t-0.13645-0.87838q-0.13645-0.42214-0.49036-0.72915-0.20894-0.17482-0.45198-0.24304-0.23879-0.0682-0.52021-0.0896-0.25584-0.0213-0.5799-0.0213-0.3198-4e-3 -0.60123-4e-3z" style="font-feature-settings:normal;font-variant-caps:normal;font-variant-ligatures:normal;font-variant-numeric:normal"/>
   <path d="m510.69527 234.17581-0.64386-1.45402h-2.16611l-0.70355 1.56062h-1.42418l3.20652-6.88635 3.20652 6.88635h-1.42843zm-2.28976-2.62235h1.14275l-0.57137-1.30052z" style="font-feature-settings:normal;font-variant-caps:normal;font-variant-ligatures:normal;font-variant-numeric:normal"/>
  </g>
  <path d="m228.0143 138.72458c-0.49474-1.19598-0.15131-2.9229 0.76359-3.83819 0.91482-0.91358 0.91482-2.41222 0-3.32632-0.9149-0.9147-1.25833-2.64162-0.76359-3.83811 0.49585-1.19597-0.0768-2.57939-1.27219-3.07367-1.19427-0.49435-2.17204-1.9587-2.17204-3.25246 0-1.29435-1.05808-2.35282-2.3524-2.35282-1.29312 0-2.75631-0.9782-3.24985-2.1741-0.49586-1.19656-1.87868-1.76947-3.07406-1.2746-1.19657 0.49436-2.92282 0.15078-3.83652-0.76392-0.9143-0.91411-2.41236-0.91411-3.32845 0-0.91372 0.9147-2.63996 1.25828-3.83415 0.76392-1.19538-0.49494-2.5782 0.078-3.07412 1.2746-0.49585 1.1959-1.95898 2.1741-3.25217 2.1741-1.2932 0-2.35247 1.05847-2.35247 2.35274 0 1.29376-0.97778 2.75811-2.17316 3.25247-1.19427 0.49427-1.76692 1.87769-1.27107 3.07366 0.49586 1.1965 0.15131 2.92342-0.7636 3.83812-0.9149 0.91417-0.9149 2.41281 0 3.32632 0.91491 0.91529 1.25946 2.64221 0.7636 3.83818-0.49585 1.1959 0.0768 2.57924 1.27107 3.07538 1.19538 0.49607 2.17316 1.95991 2.17316 3.25366 0 1.29368 1.05927 2.35222 2.35247 2.35222 1.29319 0 2.75632 0.97939 3.25217 2.17536 0.49585 1.1959 1.87866 1.76881 3.07412 1.27274 1.19427-0.49599 2.92043-0.15137 3.83415 0.76273 0.91489 0.91411 2.41296 0.91411 3.32733 0 0.91482-0.91418 2.64107-1.2588 3.83772-0.76273 1.19418 0.49607 2.577-0.0768 3.07166-1.27274 0.49586-1.19597 1.95905-2.17536 3.25217-2.17536 1.29432 0 2.3524-1.05847 2.3524-2.35222s0.97777-2.75759 2.17204-3.25366c1.19538-0.49607 1.76804-1.87948 1.27219-3.0753z" fill="#f6bb42" stroke-width=".07451323"/>
  <g transform="matrix(.0744971 0 0 .07452937 191.32187 114.14419)" fill="#ffce54">
   <path d="m311.618 255.81 182.042-36.21c-2.703-6.546-4.156-13.843-4.156-20.921l-182.042 36.21 155.371-102.31c-5.141-4.828-9.453-10.898-12.375-17.39l-155.199 102.184 105.263-154.3c-6.625-2.398-12.984-6.281-18.25-11.102l-105.075 154.035 37.812-183.542c-7.047 0.227-14.391-1.016-21.047-3.531l-37.788 183.315-36.577-183.924c-6.547 2.711-13.843 4.164-20.921 4.164l36.577 183.925-105.029-154.887c-5.203 4.867-11.515 8.828-18.109 11.312l105.169 155.082-156.027-102.099c-3.031 6.476-7.422 12.492-12.625 17.234l156.309 102.286-182.464-35.014c-0.219 7.117-1.891 14.375-4.797 20.804l182.698 35.054-182.042 36.202c2.719 6.546 4.172 13.843 4.172 20.921l182.026-36.202-155.386 102.309c5.141 4.828 9.453 10.906 12.391 17.391l155.199-102.201-105.278 154.34c6.625 2.391 12.984 6.266 18.25 11.094l105.091-154.059-37.813 183.557c7.047-0.234 14.39 1 21.046 3.516l37.78-183.308 36.585 183.917c6.547-2.703 13.844-4.156 20.922-4.156l-36.577-183.933 105.044 154.918c5.203-4.875 11.5-8.828 18.109-11.312l-105.185-155.106 156.043 102.107c3.031-6.469 7.422-12.484 12.625-17.234l-156.34-102.294 182.479 35.015c0.234-7.109 1.891-14.375 4.797-20.796z"/>
   <path d="m447.989 255.997c0 106.027-85.951 191.994-192.003 191.994-106.028 0-191.994-85.967-191.994-191.994 0-106.036 85.966-191.995 191.995-191.995 106.051 0 192.002 85.959 192.002 191.995z"/>
  </g>
  <path d="m211.59976 124.91839c-4.24455-1.51623-8.83291-1.37709-12.12471-0.93803-2.11139 2.49375-3.38597 5.71938-3.38597 9.24313 0 2.70043 0.7484 5.22623 2.0486 7.38169 2.68763-0.44948 6.64633-0.60905 10.93685 0.92341 4.29803 1.53486 8.95045 1.37298 12.25044 0.92112 2.1032-2.49205 3.37085-5.71067 3.37085-9.22622 0-2.70802-0.75197-5.24023-2.05791-7.3992-2.6889 0.4629-6.69408 0.64572-11.03815-0.9059z" fill="#29b6f6" stroke-width=".07451323"/>
  <g transform="matrix(.90370799 .10652447 -.10647833 .90409941 -259.38403 -129.50949)" fill="#ffce54" stroke-width=".08186862" aria-label="SODA">
   <path d="m535.44289 226.80752q0.11513 0.41787 0.34112 0.66091 0.23025 0.24305 0.71635 0.24305 0.33259 0 0.55432-0.17909 0.22599-0.17908 0.22599-0.54579 0-0.37096-0.47757-0.61401-0.47756-0.24731-0.78457-0.41361-0.5799-0.30274-1.02762-0.73767-0.4264-0.40934-0.4264-1.09158v-0.0768q0.0256-0.75473 0.60548-1.2792 0.56285-0.50741 1.31331-0.50741h0.0512q0.62681 0.0128 1.05321 0.23878 0.43066 0.22173 0.76325 0.76325l-0.90396 0.80163q-0.15351-0.24304-0.36671-0.43492-0.20467-0.18335-0.50315-0.18335h-0.0256q-0.24731 0.0128-0.43919 0.17055-0.18762 0.15777-0.18762 0.43067 0 0.2601 0.32406 0.48609 0.32407 0.22173 0.60549 0.37097 0.69077 0.37097 1.24935 0.81442 0.54579 0.43493 0.54579 1.29626v0.0256q-9e-3 0.84853-0.60549 1.36448-0.59269 0.51594-1.4796 0.57137-0.064 4e-3 -0.13218 4e-3 -0.58843 0-1.11717-0.31127-0.59269-0.34538-0.86133-1.01056z" style="font-feature-settings:normal;font-variant-caps:normal;font-variant-ligatures:normal;font-variant-numeric:normal"/>
   <path d="m546.24784 225.6136q0 0.67371-0.25584 1.29199-0.12365 0.28995-0.31553 0.57137-0.58417 0.84854-1.54357 1.23656-0.63107 0.25584-1.28772 0.25584-0.33686 0-0.68224-0.0682-0.68224-0.13219-1.22803-0.49889-0.25584-0.16203-0.51594-0.41361-0.49036-0.4733-0.74194-1.07879-0.2601-0.61401-0.2601-1.2792 0-0.17056 0.0171-0.34111 0.081-0.84854 0.55431-1.53931 0.3795-0.55431 0.95087-0.92955v-4e-3q0.84427-0.55005 1.89748-0.55005 1.03189 0 1.88895 0.55005 0.56711 0.37523 0.95087 0.93808 0.57137 0.84427 0.57137 1.8591zm-1.38153 0q0-0.43066-0.1535-0.80163-0.3326-0.80163-1.09585-1.12996-0.39655-0.1663-0.78884-0.1663-0.38802 0-0.77604 0.16204-0.064 0.0298-0.18336 0.0938-0.11512 0.064-0.16629 0.10234-0.14924 0.0981-0.30701 0.25584v4e-3q-0.14071 0.14072-0.25584 0.31127-0.1066 0.16204-0.18761 0.36244-0.15351 0.38376-0.15351 0.80163 0 0.10234 9e-3 0.20468 0.0469 0.52873 0.33259 0.96366 0.34965 0.533 0.9125 0.77178 0.40934 0.17482 0.80163 0.17482 0.57137 0 1.10437-0.37096 0.90823-0.61828 0.90823-1.73971z" style="font-feature-settings:normal;font-variant-caps:normal;font-variant-ligatures:normal;font-variant-numeric:normal"/>
   <path d="m547.02389 222.40281h1.50092q0.61828 0 1.1129 0.0341 0.3795 0.0256 0.67371 0.0853 0.29848 0.0597 0.60549 0.20467 0.63534 0.29848 1.01483 0.85706 0.38376 0.55432 0.51594 1.23229 0.0682 0.37097 0.0682 0.77605 0 0.19188-0.0128 0.38802-0.0512 0.61828-0.2729 1.12996-0.15777 0.34538-0.35817 0.60122-0.39229 0.50315-0.94661 0.77605-0.23452 0.11086-0.51168 0.18335-0.0341 0.0213-0.29848 0.064-0.26437 0.0384-0.38376 0.0384-0.43066 0.0341-0.94234 0.0341h-1.76529zm1.33463 5.1637h0.6268q0.34539 0 0.60549-0.0256 0.23026-0.0171 0.39655-0.0597 0.31127-0.0853 0.52447-0.26864v-4e-3q0.35391-0.30274 0.49036-0.72488 0.13645-0.42213 0.13645-0.88264t-0.13645-0.87839q-0.13645-0.42213-0.49036-0.72914-0.20893-0.17482-0.45198-0.24305-0.23878-0.0682-0.52021-0.0895-0.25584-0.0213-0.5799-0.0213-0.3198-4e-3 -0.60122-4e-3z" style="font-feature-settings:normal;font-variant-caps:normal;font-variant-ligatures:normal;font-variant-numeric:normal"/>
   <path d="m557.16366 228.70073-0.64386-1.45402h-2.16611l-0.70356 1.56062h-1.42417l3.20652-6.88635 3.20652 6.88635h-1.42844zm-2.28977-2.62236h1.14275l-0.57137-1.30051z" style="font-feature-settings:normal;font-variant-caps:normal;font-variant-ligatures:normal;font-variant-numeric:normal"/>
  </g>
  <path d="m142.86059 181.29381c-0.49473-1.19597-0.1513-2.92289 0.76359-3.83818 0.91483-0.91358 0.91483-2.41222 0-3.32632-0.91489-0.9147-1.25832-2.64162-0.76359-3.83811 0.49585-1.19597-0.0768-2.57939-1.27219-3.07367-1.19426-0.49435-2.17203-1.9587-2.17203-3.25246 0-1.29436-1.05809-2.35282-2.3524-2.35282-1.29312 0-2.75632-0.9782-3.24986-2.1741-0.49585-1.19657-1.87867-1.76947-3.07405-1.2746-1.19658 0.49436-2.92282 0.15077-3.83653-0.76392-0.9143-0.91411-2.41236-0.91411-3.32845 0-0.91371 0.91469-2.63995 1.25828-3.83414 0.76392-1.19538-0.49494-2.5782 0.078-3.07413 1.2746-0.49585 1.1959-1.95897 2.1741-3.25217 2.1741-1.29319 0-2.35247 1.05846-2.35247 2.35274 0 1.29375-0.97777 2.75811-2.17315 3.25247-1.19427 0.49427-1.76692 1.87768-1.27107 3.07366 0.49585 1.1965 0.1513 2.92342-0.7636 3.83812-0.9149 0.91417-0.9149 2.41281 0 3.32632 0.9149 0.91529 1.25945 2.64221 0.7636 3.83818-0.49585 1.1959 0.0768 2.57924 1.27107 3.07538 1.19538 0.49607 2.17315 1.95991 2.17315 3.25366 0 1.29368 1.05928 2.35221 2.35247 2.35221 1.2932 0 2.75632 0.9794 3.25217 2.17537 0.49586 1.1959 1.87867 1.76881 3.07413 1.27274 1.19426-0.496 2.92043-0.15137 3.83414 0.76273 0.9149 0.91411 2.41296 0.91411 3.32733 0 0.91483-0.91418 2.64107-1.2588 3.83772-0.76273 1.19419 0.49607 2.57701-0.0768 3.07167-1.27274 0.49585-1.19597 1.95905-2.17537 3.25217-2.17537 1.29431 0 2.3524-1.05846 2.3524-2.35221s0.97777-2.75759 2.17203-3.25366c1.19538-0.49607 1.76804-1.87948 1.27219-3.07531z" fill="#f6bb42" stroke-width=".07451323"/>
  <g transform="matrix(.0744971 0 0 .07452937 106.16816 156.71343)" fill="#ffce54">
   <path d="m311.618 255.81 182.042-36.21c-2.703-6.546-4.156-13.843-4.156-20.921l-182.042 36.21 155.371-102.31c-5.141-4.828-9.453-10.898-12.375-17.39l-155.199 102.184 105.263-154.3c-6.625-2.398-12.984-6.281-18.25-11.102l-105.075 154.035 37.812-183.542c-7.047 0.227-14.391-1.016-21.047-3.531l-37.788 183.315-36.577-183.924c-6.547 2.711-13.843 4.164-20.921 4.164l36.577 183.925-105.029-154.887c-5.203 4.867-11.515 8.828-18.109 11.312l105.169 155.082-156.027-102.099c-3.031 6.476-7.422 12.492-12.625 17.234l156.309 102.286-182.464-35.014c-0.219 7.117-1.891 14.375-4.797 20.804l182.698 35.054-182.042 36.202c2.719 6.546 4.172 13.843 4.172 20.921l182.026-36.202-155.386 102.309c5.141 4.828 9.453 10.906 12.391 17.391l155.199-102.201-105.278 154.34c6.625 2.391 12.984 6.266 18.25 11.094l105.091-154.059-37.813 183.557c7.047-0.234 14.39 1 21.046 3.516l37.78-183.308 36.585 183.917c6.547-2.703 13.844-4.156 20.922-4.156l-36.577-183.933 105.044 154.918c5.203-4.875 11.5-8.828 18.109-11.312l-105.185-155.106 156.043 102.107c3.031-6.469 7.422-12.484 12.625-17.234l-156.34-102.294 182.479 35.015c0.234-7.109 1.891-14.375 4.797-20.796z"/>
   <path d="m447.989 255.997c0 106.027-85.951 191.994-192.003 191.994-106.028 0-191.994-85.967-191.994-191.994 0-106.036 85.966-191.995 191.995-191.995 106.051 0 192.002 85.959 192.002 191.995z"/>
  </g>
  <path d="m126.44605 167.48763c-4.24455-1.51623-8.8329-1.37709-12.12471-0.93803-2.11139 2.49375-3.38596 5.71938-3.38596 9.24313 0 2.70042 0.74839 5.22623 2.0486 7.38169 2.68762-0.44949 6.64633-0.60905 10.93684 0.92341 4.29803 1.53486 8.95045 1.37298 12.25045 0.92112 2.1032-2.49205 3.37085-5.71067 3.37085-9.22622 0-2.70802-0.75198-5.24023-2.05791-7.3992-2.68891 0.4629-6.69408 0.64572-11.03816-0.9059z" fill="#29b6f6" stroke-width=".07451323"/>
  <g transform="matrix(.90370799 .10652447 -.10647833 .90409941 -259.38403 -129.50949)" fill="#ffce54" stroke-width=".08186862" aria-label="SODA">
   <path d="m447.97783 284.19767q0.11513 0.41787 0.34112 0.66092 0.23026 0.24304 0.71635 0.24304 0.33259 0 0.55432-0.17908 0.22599-0.17909 0.22599-0.54579 0-0.37097-0.47756-0.61402-0.47757-0.24731-0.78458-0.41361-0.5799-0.30274-1.02762-0.73767-0.4264-0.40934-0.4264-1.09158v-0.0768q0.0256-0.75473 0.60549-1.2792 0.56284-0.50741 1.31331-0.50741h0.0512q0.62681 0.0128 1.05321 0.23878 0.43066 0.22173 0.76325 0.76326l-0.90396 0.80163q-0.15351-0.24305-0.3667-0.43493-0.20468-0.18335-0.50316-0.18335h-0.0256q-0.24731 0.0128-0.43919 0.17056-0.18762 0.15776-0.18762 0.43066 0 0.2601 0.32407 0.48609 0.32406 0.22173 0.60548 0.37097 0.69077 0.37097 1.24935 0.81442 0.54579 0.43493 0.54579 1.29626v0.0256q-9e-3 0.84854-0.60548 1.36448-0.5927 0.51594-1.47961 0.57137-0.064 4e-3 -0.13218 4e-3 -0.58843 0-1.11717-0.31127-0.59269-0.34539-0.86132-1.01057z" style="font-feature-settings:normal;font-variant-caps:normal;font-variant-ligatures:normal;font-variant-numeric:normal"/>
   <path d="m458.78278 283.00375q0 0.67371-0.25583 1.29199-0.12366 0.28995-0.31554 0.57137-0.58417 0.84854-1.54356 1.23656-0.63108 0.25584-1.28773 0.25584-0.33685 0-0.68224-0.0682-0.68224-0.13219-1.22803-0.49889-0.25584-0.16203-0.51594-0.41361-0.49036-0.4733-0.74193-1.07879-0.26011-0.61401-0.26011-1.27919 0-0.17056 0.0171-0.34112 0.081-0.84854 0.55432-1.5393 0.37949-0.55432 0.95087-0.92955v-4e-3q0.84427-0.55005 1.89747-0.55005 1.03189 0 1.88895 0.55005 0.56711 0.37523 0.95087 0.93808 0.57137 0.84427 0.57137 1.8591zm-1.38153 0q0-0.43066-0.1535-0.80163-0.33259-0.80163-1.09585-1.12996-0.39655-0.16629-0.78884-0.16629-0.38802 0-0.77604 0.16203-0.064 0.0299-0.18335 0.0938-0.11513 0.064-0.1663 0.10233-0.14924 0.0981-0.30701 0.25584v4e-3q-0.14071 0.14071-0.25584 0.31127-0.1066 0.16203-0.18761 0.36244-0.15351 0.38376-0.15351 0.80163 0 0.10233 9e-3 0.20467 0.0469 0.52873 0.33259 0.96366 0.34965 0.533 0.9125 0.77178 0.40934 0.17483 0.80163 0.17483 0.57137 0 1.10437-0.37097 0.90823-0.61828 0.90823-1.73971z" style="font-feature-settings:normal;font-variant-caps:normal;font-variant-ligatures:normal;font-variant-numeric:normal"/>
   <path d="m459.55883 279.79297h1.50093q0.61827 0 1.1129 0.0341 0.37949 0.0256 0.67371 0.0853 0.29848 0.0597 0.60548 0.20467 0.63534 0.29848 1.01483 0.85706 0.38376 0.55432 0.51595 1.23229 0.0682 0.37097 0.0682 0.77605 0 0.19188-0.0128 0.38802-0.0512 0.61828-0.2729 1.12996-0.15776 0.34538-0.35817 0.60122-0.39229 0.50315-0.94661 0.77605-0.23452 0.11086-0.51168 0.18335-0.0341 0.0213-0.29848 0.064-0.26436 0.0384-0.38376 0.0384-0.43066 0.0341-0.94234 0.0341h-1.76529zm1.33463 5.16369h0.62681q0.34538 0 0.60548-0.0256 0.23026-0.017 0.39655-0.0597 0.31128-0.0853 0.52448-0.26863v-4e-3q0.35391-0.30274 0.49035-0.72488 0.13645-0.42213 0.13645-0.88264t-0.13645-0.87838q-0.13644-0.42214-0.49035-0.72915-0.20894-0.17482-0.45199-0.24304-0.23878-0.0682-0.5202-0.0896-0.25584-0.0213-0.57991-0.0213-0.3198-4e-3 -0.60122-4e-3z" style="font-feature-settings:normal;font-variant-caps:normal;font-variant-ligatures:normal;font-variant-numeric:normal"/>
   <path d="m469.6986 286.09088-0.64386-1.45402h-2.16611l-0.70356 1.56062h-1.42417l3.20652-6.88635 3.20652 6.88635h-1.42844zm-2.28976-2.62235h1.14275l-0.57138-1.30052z" style="font-feature-settings:normal;font-variant-caps:normal;font-variant-ligatures:normal;font-variant-numeric:normal"/>
  </g>
  <path d="m185.43744 181.29381c-0.49473-1.19597-0.1513-2.92289 0.7636-3.83818 0.91482-0.91358 0.91482-2.41222 0-3.32632-0.9149-0.9147-1.25833-2.64162-0.7636-3.83811 0.49586-1.19597-0.0768-2.57939-1.27219-3.07367-1.19426-0.49435-2.17203-1.9587-2.17203-3.25246 0-1.29436-1.05808-2.35282-2.3524-2.35282-1.29312 0-2.75632-0.9782-3.24986-2.1741-0.49585-1.19657-1.87867-1.76947-3.07405-1.2746-1.19657 0.49436-2.92282 0.15077-3.83653-0.76392-0.91429-0.91411-2.41236-0.91411-3.32845 0-0.91371 0.91469-2.63995 1.25828-3.83414 0.76392-1.19538-0.49494-2.5782 0.078-3.07412 1.2746-0.49586 1.1959-1.95898 2.1741-3.25217 2.1741-1.2932 0-2.35248 1.05846-2.35248 2.35274 0 1.29375-0.97777 2.75811-2.17315 3.25247-1.19427 0.49427-1.76692 1.87768-1.27107 3.07366 0.49585 1.1965 0.15131 2.92342-0.7636 3.83812-0.9149 0.91417-0.9149 2.41281 0 3.32632 0.91491 0.91529 1.25945 2.64221 0.7636 3.83818-0.49585 1.1959 0.0768 2.57924 1.27107 3.07538 1.19538 0.49607 2.17315 1.95991 2.17315 3.25366 0 1.29368 1.05928 2.35221 2.35248 2.35221 1.29319 0 2.75631 0.9794 3.25217 2.17537 0.49585 1.1959 1.87866 1.76881 3.07412 1.27274 1.19426-0.496 2.92043-0.15137 3.83414 0.76273 0.9149 0.91411 2.41296 0.91411 3.32733 0 0.91483-0.91418 2.64108-1.2588 3.83772-0.76273 1.19419 0.49607 2.57701-0.0768 3.07167-1.27274 0.49585-1.19597 1.95905-2.17537 3.25217-2.17537 1.29432 0 2.3524-1.05846 2.3524-2.35221s0.97777-2.75759 2.17203-3.25366c1.19538-0.49607 1.76805-1.87948 1.27219-3.07531z" fill="#f6bb42" stroke-width=".07451323"/>
  <g transform="matrix(.0744971 0 0 .07452937 148.74501 156.71343)" fill="#ffce54">
   <path d="m311.618 255.81 182.042-36.21c-2.703-6.546-4.156-13.843-4.156-20.921l-182.042 36.21 155.371-102.31c-5.141-4.828-9.453-10.898-12.375-17.39l-155.199 102.184 105.263-154.3c-6.625-2.398-12.984-6.281-18.25-11.102l-105.075 154.035 37.812-183.542c-7.047 0.227-14.391-1.016-21.047-3.531l-37.788 183.315-36.577-183.924c-6.547 2.711-13.843 4.164-20.921 4.164l36.577 183.925-105.029-154.887c-5.203 4.867-11.515 8.828-18.109 11.312l105.169 155.082-156.027-102.099c-3.031 6.476-7.422 12.492-12.625 17.234l156.309 102.286-182.464-35.014c-0.219 7.117-1.891 14.375-4.797 20.804l182.698 35.054-182.042 36.202c2.719 6.546 4.172 13.843 4.172 20.921l182.026-36.202-155.386 102.309c5.141 4.828 9.453 10.906 12.391 17.391l155.199-102.201-105.278 154.34c6.625 2.391 12.984 6.266 18.25 11.094l105.091-154.059-37.813 183.557c7.047-0.234 14.39 1 21.046 3.516l37.78-183.308 36.585 183.917c6.547-2.703 13.844-4.156 20.922-4.156l-36.577-183.933 105.044 154.918c5.203-4.875 11.5-8.828 18.109-11.312l-105.185-155.106 156.043 102.107c3.031-6.469 7.422-12.484 12.625-17.234l-156.34-102.294 182.479 35.015c0.234-7.109 1.891-14.375 4.797-20.796z"/>
   <path d="m447.989 255.997c0 106.027-85.951 191.994-192.003 191.994-106.028 0-191.994-85.967-191.994-191.994 0-106.036 85.966-191.995 191.995-191.995 106.051 0 192.002 85.959 192.002 191.995z"/>
  </g>
  <path d="m169.0229 167.48763c-4.24455-1.51623-8.8329-1.37709-12.12471-0.93803-2.11139 2.49375-3.38596 5.71938-3.38596 9.24313 0 2.70042 0.74839 5.22623 2.0486 7.38169 2.68763-0.44949 6.64633-0.60905 10.93684 0.92341 4.29804 1.53486 8.95045 1.37298 12.25045 0.92112 2.1032-2.49205 3.37085-5.71067 3.37085-9.22622 0-2.70802-0.75197-5.24023-2.05791-7.3992-2.6889 0.4629-6.69408 0.64572-11.03816-0.9059z" fill="#29b6f6" stroke-width=".07451323"/>
  <g transform="matrix(.90370799 .10652447 -.10647833 .90409941 -259.38403 -129.50949)" fill="#ffce54" stroke-width=".08186862" aria-label="SODA">
   <path d="m494.44625 278.7226q0.11512 0.41787 0.34112 0.66092 0.23025 0.24305 0.71635 0.24305 0.33259 0 0.55432-0.17909 0.22599-0.17909 0.22599-0.54579 0-0.37097-0.47757-0.61402-0.47757-0.24731-0.78457-0.4136-0.57991-0.30275-1.02763-0.73767-0.42639-0.40935-0.42639-1.09159v-0.0768q0.0256-0.75472 0.60548-1.27919 0.56285-0.50742 1.31331-0.50742h0.0512q0.62681 0.0128 1.0532 0.23878 0.43067 0.22173 0.76326 0.76326l-0.90397 0.80163q-0.1535-0.24305-0.3667-0.43493-0.20467-0.18335-0.50315-0.18335h-0.0256q-0.24731 0.0128-0.43919 0.17056-0.18761 0.15777-0.18761 0.43066 0 0.26011 0.32406 0.4861 0.32406 0.22173 0.60549 0.37096 0.69076 0.37097 1.24935 0.81443 0.54579 0.43492 0.54579 1.29625v0.0256q-9e-3 0.84854-0.60549 1.36448-0.59269 0.51594-1.4796 0.57138-0.064 4e-3 -0.13219 4e-3 -0.58843 0-1.11716-0.31127-0.5927-0.34538-0.86133-1.01057z" style="font-feature-settings:normal;font-variant-caps:normal;font-variant-ligatures:normal;font-variant-numeric:normal"/>
   <path d="m505.2512 277.52868q0 0.67371-0.25584 1.29199-0.12366 0.28995-0.31554 0.57138-0.58416 0.84853-1.54356 1.23655-0.63107 0.25584-1.28773 0.25584-0.33685 0-0.68223-0.0682-0.68224-0.13218-1.22803-0.49889-0.25584-0.16203-0.51595-0.4136-0.49035-0.47331-0.74193-1.07879-0.2601-0.61402-0.2601-1.2792 0-0.17056 0.017-0.34112 0.081-0.84853 0.55432-1.5393 0.3795-0.55432 0.95087-0.92955v-4e-3q0.84427-0.55006 1.89748-0.55006 1.03188 0 1.88894 0.55006 0.56712 0.37523 0.95087 0.93807 0.57138 0.84427 0.57138 1.8591zm-1.38153 0q0-0.43066-0.15351-0.80163-0.33259-0.80163-1.09584-1.12995-0.39655-0.1663-0.78884-0.1663-0.38802 0-0.77605 0.16203-0.064 0.0299-0.18335 0.0938-0.11513 0.064-0.16629 0.10234-0.14924 0.0981-0.30701 0.25583v4e-3q-0.14071 0.14071-0.25584 0.31127-0.1066 0.16203-0.18762 0.36244-0.1535 0.38376-0.1535 0.80163 0 0.10233 9e-3 0.20467 0.0469 0.52874 0.33259 0.96366 0.34965 0.533 0.91249 0.77178 0.40935 0.17483 0.80163 0.17483 0.57138 0 1.10438-0.37097 0.90823-0.61828 0.90823-1.73971z" style="font-feature-settings:normal;font-variant-caps:normal;font-variant-ligatures:normal;font-variant-numeric:normal"/>
   <path d="m506.02725 274.3179h1.50092q0.61828 0 1.1129 0.0341 0.3795 0.0256 0.67371 0.0853 0.29848 0.0597 0.60549 0.20467 0.63533 0.29848 1.01483 0.85706 0.38376 0.55432 0.51594 1.2323 0.0682 0.37096 0.0682 0.77604 0 0.19188-0.0128 0.38803-0.0512 0.61827-0.27289 1.12995-0.15777 0.34539-0.35818 0.60123-0.39228 0.50315-0.9466 0.77604-0.23452 0.11087-0.51168 0.18335-0.0341 0.0213-0.29848 0.064-0.26437 0.0384-0.38376 0.0384-0.43066 0.0341-0.94234 0.0341h-1.76529zm1.33462 5.16369h0.62681q0.34538 0 0.60549-0.0256 0.23025-0.0171 0.39655-0.0597 0.31127-0.0853 0.52447-0.26863v-4e-3q0.35391-0.30275 0.49036-0.72488 0.13645-0.42214 0.13645-0.88265t-0.13645-0.87838q-0.13645-0.42214-0.49036-0.72914-0.20894-0.17483-0.45198-0.24305-0.23879-0.0682-0.52021-0.0895-0.25584-0.0213-0.5799-0.0213-0.3198-4e-3 -0.60123-4e-3z" style="font-feature-settings:normal;font-variant-caps:normal;font-variant-ligatures:normal;font-variant-numeric:normal"/>
   <path d="m516.16701 280.61581-0.64386-1.45402h-2.16611l-0.70355 1.56062h-1.42418l3.20652-6.88634 3.20653 6.88634h-1.42844zm-2.28976-2.62235h1.14275l-0.57137-1.30052z" style="font-feature-settings:normal;font-variant-caps:normal;font-variant-ligatures:normal;font-variant-numeric:normal"/>
  </g>
  <path d="m228.0143 181.29381c-0.49474-1.19597-0.15131-2.92289 0.76359-3.83818 0.91482-0.91358 0.91482-2.41222 0-3.32632-0.9149-0.9147-1.25833-2.64162-0.76359-3.83811 0.49585-1.19597-0.0768-2.57939-1.27219-3.07367-1.19427-0.49435-2.17204-1.9587-2.17204-3.25246 0-1.29436-1.05808-2.35282-2.3524-2.35282-1.29312 0-2.75631-0.9782-3.24985-2.1741-0.49586-1.19657-1.87868-1.76947-3.07406-1.2746-1.19657 0.49436-2.92282 0.15077-3.83652-0.76392-0.9143-0.91411-2.41236-0.91411-3.32845 0-0.91372 0.91469-2.63996 1.25828-3.83415 0.76392-1.19538-0.49494-2.5782 0.078-3.07412 1.2746-0.49585 1.1959-1.95898 2.1741-3.25217 2.1741-1.2932 0-2.35247 1.05846-2.35247 2.35274 0 1.29375-0.97778 2.75811-2.17316 3.25247-1.19427 0.49427-1.76692 1.87768-1.27107 3.07366 0.49586 1.1965 0.15131 2.92342-0.7636 3.83812-0.9149 0.91417-0.9149 2.41281 0 3.32632 0.91491 0.91529 1.25946 2.64221 0.7636 3.83818-0.49585 1.1959 0.0768 2.57924 1.27107 3.07538 1.19538 0.49607 2.17316 1.95991 2.17316 3.25366 0 1.29368 1.05927 2.35221 2.35247 2.35221 1.29319 0 2.75632 0.9794 3.25217 2.17537 0.49585 1.1959 1.87866 1.76881 3.07412 1.27274 1.19427-0.496 2.92043-0.15137 3.83415 0.76273 0.91489 0.91411 2.41296 0.91411 3.32733 0 0.91482-0.91418 2.64107-1.2588 3.83772-0.76273 1.19418 0.49607 2.577-0.0768 3.07166-1.27274 0.49586-1.19597 1.95905-2.17537 3.25217-2.17537 1.29432 0 2.3524-1.05846 2.3524-2.35221s0.97777-2.75759 2.17204-3.25366c1.19538-0.49607 1.76804-1.87948 1.27219-3.07531z" fill="#f6bb42" stroke-width=".07451323"/>
  <g transform="matrix(.0744971 0 0 .07452937 191.32187 156.71343)" fill="#ffce54">
   <path d="m311.618 255.81 182.042-36.21c-2.703-6.546-4.156-13.843-4.156-20.921l-182.042 36.21 155.371-102.31c-5.141-4.828-9.453-10.898-12.375-17.39l-155.199 102.184 105.263-154.3c-6.625-2.398-12.984-6.281-18.25-11.102l-105.075 154.035 37.812-183.542c-7.047 0.227-14.391-1.016-21.047-3.531l-37.788 183.315-36.577-183.924c-6.547 2.711-13.843 4.164-20.921 4.164l36.577 183.925-105.029-154.887c-5.203 4.867-11.515 8.828-18.109 11.312l105.169 155.082-156.027-102.099c-3.031 6.476-7.422 12.492-12.625 17.234l156.309 102.286-182.464-35.014c-0.219 7.117-1.891 14.375-4.797 20.804l182.698 35.054-182.042 36.202c2.719 6.546 4.172 13.843 4.172 20.921l182.026-36.202-155.386 102.309c5.141 4.828 9.453 10.906 12.391 17.391l155.199-102.201-105.278 154.34c6.625 2.391 12.984 6.266 18.25 11.094l105.091-154.059-37.813 183.557c7.047-0.234 14.39 1 21.046 3.516l37.78-183.308 36.585 183.917c6.547-2.703 13.844-4.156 20.922-4.156l-36.577-183.933 105.044 154.918c5.203-4.875 11.5-8.828 18.109-11.312l-105.185-155.106 156.043 102.107c3.031-6.469 7.422-12.484 12.625-17.234l-156.34-102.294 182.479 35.015c0.234-7.109 1.891-14.375 4.797-20.796z"/>
   <path d="m447.989 255.997c0 106.027-85.951 191.994-192.003 191.994-106.028 0-191.994-85.967-191.994-191.994 0-106.036 85.966-191.995 191.995-191.995 106.051 0 192.002 85.959 192.002 191.995z"/>
  </g>
  <path d="m211.59976 167.48763c-4.24455-1.51623-8.83291-1.37709-12.12471-0.93803-2.11139 2.49375-3.38597 5.71938-3.38597 9.24313 0 2.70042 0.7484 5.22623 2.0486 7.38169 2.68763-0.44949 6.64633-0.60905 10.93685 0.92341 4.29803 1.53486 8.95045 1.37298 12.25044 0.92112 2.1032-2.49205 3.37085-5.71067 3.37085-9.22622 0-2.70802-0.75197-5.24023-2.05791-7.3992-2.6889 0.4629-6.69408 0.64572-11.03815-0.9059z" fill="#29b6f6" stroke-width=".07451323"/>
  <g transform="matrix(.90370799 .10652447 -.10647833 .90409941 -259.38403 -129.50949)" fill="#ffce54" stroke-width=".08186862" aria-label="SODA">
   <path d="m540.91463 273.2475q0.11513 0.41787 0.34112 0.66092 0.23026 0.24305 0.71635 0.24305 0.33259 0 0.55432-0.17909 0.22599-0.17909 0.22599-0.54579 0-0.37097-0.47757-0.61401-0.47756-0.24732-0.78457-0.41361-0.5799-0.30274-1.02762-0.73767-0.4264-0.40934-0.4264-1.09158v-0.0768q0.0256-0.75472 0.60549-1.27919 0.56284-0.50742 1.3133-0.50742h0.0512q0.62681 0.0128 1.05321 0.23879 0.43066 0.22172 0.76325 0.76325l-0.90396 0.80163q-0.15351-0.24305-0.36671-0.43493-0.20467-0.18335-0.50315-0.18335h-0.0256q-0.24731 0.0128-0.43919 0.17056-0.18762 0.15777-0.18762 0.43066 0 0.26011 0.32407 0.4861 0.32406 0.22173 0.60548 0.37097 0.69077 0.37096 1.24935 0.81442 0.54579 0.43493 0.54579 1.29625v0.0256q-9e-3 0.84853-0.60548 1.36447-0.5927 0.51595-1.47961 0.57138-0.064 4e-3 -0.13218 4e-3 -0.58843 0-1.11717-0.31127-0.59269-0.34538-0.86132-1.01057z" style="font-feature-settings:normal;font-variant-caps:normal;font-variant-ligatures:normal;font-variant-numeric:normal"/>
   <path d="m551.71958 272.05359q0 0.67371-0.25584 1.29198-0.12365 0.28996-0.31553 0.57138-0.58417 0.84853-1.54357 1.23656-0.63107 0.25584-1.28772 0.25584-0.33686 0-0.68224-0.0682-0.68224-0.13218-1.22803-0.49888-0.25584-0.16204-0.51594-0.41361-0.49036-0.4733-0.74194-1.07879-0.2601-0.61402-0.2601-1.2792 0-0.17056 0.0171-0.34112 0.081-0.84853 0.55431-1.5393 0.3795-0.55432 0.95087-0.92955v-4e-3q0.84427-0.55006 1.89748-0.55006 1.03189 0 1.88895 0.55006 0.56711 0.37523 0.95087 0.93808 0.57137 0.84427 0.57137 1.8591zm-1.38153 0q0-0.43067-0.1535-0.80163-0.33259-0.80163-1.09585-1.12996-0.39655-0.1663-0.78884-0.1663-0.38802 0-0.77604 0.16203-0.064 0.0299-0.18336 0.0938-0.11512 0.064-0.16629 0.10234-0.14924 0.0981-0.30701 0.25584v4e-3q-0.14071 0.14071-0.25584 0.31127-0.1066 0.16203-0.18761 0.36244-0.15351 0.38376-0.15351 0.80163 0 0.10234 9e-3 0.20467 0.0469 0.52874 0.33259 0.96366 0.34965 0.533 0.9125 0.77179 0.40934 0.17482 0.80163 0.17482 0.57137 0 1.10437-0.37097 0.90823-0.61827 0.90823-1.7397z" style="font-feature-settings:normal;font-variant-caps:normal;font-variant-ligatures:normal;font-variant-numeric:normal"/>
   <path d="m552.49563 268.8428h1.50092q0.61828 0 1.11291 0.0341 0.37949 0.0256 0.67371 0.0853 0.29848 0.0597 0.60548 0.20467 0.63534 0.29848 1.01483 0.85707 0.38376 0.55431 0.51594 1.23229 0.0682 0.37097 0.0682 0.77605 0 0.19188-0.0128 0.38802-0.0512 0.61828-0.2729 1.12996-0.15777 0.34538-0.35817 0.60122-0.39229 0.50315-0.94661 0.77605-0.23452 0.11086-0.51168 0.18335-0.0341 0.0213-0.29848 0.064-0.26437 0.0384-0.38376 0.0384-0.43066 0.0341-0.94234 0.0341h-1.76529zm1.33463 5.16369h0.6268q0.34539 0 0.60549-0.0256 0.23026-0.0171 0.39655-0.0597 0.31127-0.0853 0.52447-0.26863v-4e-3q0.35391-0.30275 0.49036-0.72488 0.13645-0.42214 0.13645-0.88265t-0.13645-0.87838q-0.13645-0.42213-0.49036-0.72914-0.20893-0.17482-0.45198-0.24305-0.23878-0.0682-0.52021-0.0895-0.25584-0.0213-0.5799-0.0213-0.3198-4e-3 -0.60122-4e-3z" style="font-feature-settings:normal;font-variant-caps:normal;font-variant-ligatures:normal;font-variant-numeric:normal"/>
   <path d="m562.6354 275.14071-0.64386-1.45402h-2.16611l-0.70356 1.56062h-1.42417l3.20652-6.88634 3.20652 6.88634h-1.42844zm-2.28976-2.62235h1.14274l-0.57137-1.30052z" style="font-feature-settings:normal;font-variant-caps:normal;font-variant-ligatures:normal;font-variant-numeric:normal"/>
  </g>
  <path d="m142.86059 223.86304c-0.49473-1.19597-0.1513-2.92289 0.76359-3.83818 0.91483-0.91358 0.91483-2.41222 0-3.32632-0.91489-0.9147-1.25832-2.64162-0.76359-3.83811 0.49585-1.19597-0.0768-2.57939-1.27219-3.07367-1.19426-0.49435-2.17203-1.9587-2.17203-3.25246 0-1.29436-1.05809-2.35282-2.3524-2.35282-1.29312 0-2.75632-0.9782-3.24986-2.1741-0.49585-1.19657-1.87867-1.76947-3.07405-1.2746-1.19658 0.49436-2.92282 0.15077-3.83653-0.76392-0.9143-0.91411-2.41236-0.91411-3.32845 0-0.91371 0.91469-2.63995 1.25828-3.83414 0.76392-1.19538-0.49495-2.5782 0.078-3.07413 1.2746-0.49585 1.1959-1.95897 2.1741-3.25217 2.1741-1.29319 0-2.35247 1.05846-2.35247 2.35274 0 1.29375-0.97777 2.75811-2.17315 3.25247-1.19427 0.49427-1.76692 1.87768-1.27107 3.07366 0.49585 1.1965 0.1513 2.92342-0.7636 3.83812-0.9149 0.91417-0.9149 2.41281 0 3.32632 0.9149 0.91529 1.25945 2.64221 0.7636 3.83818-0.49585 1.1959 0.0768 2.57924 1.27107 3.07538 1.19538 0.49607 2.17315 1.95991 2.17315 3.25366 0 1.29367 1.05928 2.35221 2.35247 2.35221 1.2932 0 2.75632 0.9794 3.25217 2.17537 0.49586 1.1959 1.87867 1.76881 3.07413 1.27274 1.19426-0.496 2.92043-0.15137 3.83414 0.76273 0.9149 0.91411 2.41296 0.91411 3.32733 0 0.91483-0.91418 2.64107-1.2588 3.83772-0.76273 1.19419 0.49607 2.57701-0.0768 3.07167-1.27274 0.49585-1.19597 1.95905-2.17537 3.25217-2.17537 1.29431 0 2.3524-1.05846 2.3524-2.35221s0.97777-2.75759 2.17203-3.25366c1.19538-0.49607 1.76804-1.87948 1.27219-3.07531z" fill="#f6bb42" stroke-width=".07451323"/>
  <g transform="matrix(.0744971 0 0 .07452937 106.16816 199.28266)" fill="#ffce54">
   <path d="m311.618 255.81 182.042-36.21c-2.703-6.546-4.156-13.843-4.156-20.921l-182.042 36.21 155.371-102.31c-5.141-4.828-9.453-10.898-12.375-17.39l-155.199 102.184 105.263-154.3c-6.625-2.398-12.984-6.281-18.25-11.102l-105.075 154.035 37.812-183.542c-7.047 0.227-14.391-1.016-21.047-3.531l-37.788 183.315-36.577-183.924c-6.547 2.711-13.843 4.164-20.921 4.164l36.577 183.925-105.029-154.887c-5.203 4.867-11.515 8.828-18.109 11.312l105.169 155.082-156.027-102.099c-3.031 6.476-7.422 12.492-12.625 17.234l156.309 102.286-182.464-35.014c-0.219 7.117-1.891 14.375-4.797 20.804l182.698 35.054-182.042 36.202c2.719 6.546 4.172 13.843 4.172 20.921l182.026-36.202-155.386 102.309c5.141 4.828 9.453 10.906 12.391 17.391l155.199-102.201-105.278 154.34c6.625 2.391 12.984 6.266 18.25 11.094l105.091-154.059-37.813 183.557c7.047-0.234 14.39 1 21.046 3.516l37.78-183.308 36.585 183.917c6.547-2.703 13.844-4.156 20.922-4.156l-36.577-183.933 105.044 154.918c5.203-4.875 11.5-8.828 18.109-11.312l-105.185-155.106 156.043 102.107c3.031-6.469 7.422-12.484 12.625-17.234l-156.34-102.294 182.479 35.015c0.234-7.109 1.891-14.375 4.797-20.796z"/>
   <path d="m447.989 255.997c0 106.027-85.951 191.994-192.003 191.994-106.028 0-191.994-85.967-191.994-191.994 0-106.036 85.966-191.995 191.995-191.995 106.051 0 192.002 85.959 192.002 191.995z"/>
  </g>
  <g>
   <path d="m126.44605 210.05686c-4.24455-1.51623-8.8329-1.37709-12.12471-0.93803-2.11139 2.49375-3.38596 5.71938-3.38596 9.24313 0 2.70042 0.74839 5.22623 2.0486 7.38169 2.68762-0.44949 6.64633-0.60905 10.93684 0.92341 4.29803 1.53486 8.95045 1.37298 12.25045 0.92112 2.1032-2.49205 3.37085-5.71067 3.37085-9.22622 0-2.70803-0.75198-5.24023-2.05791-7.3992-2.68891 0.4629-6.69408 0.64572-11.03816-0.9059z" fill="#29b6f6" stroke-width=".07451323"/>
   <g transform="matrix(.90370799 .10652447 -.10647833 .90409941 -259.38403 -129.50949)" fill="#ffce54" stroke-width=".08186862" aria-label="SODA">
    <path d="m453.44957 330.63764q0.11513 0.41787 0.34112 0.66092 0.23026 0.24305 0.71635 0.24305 0.33259 0 0.55432-0.17909 0.22599-0.17909 0.22599-0.54579 0-0.37097-0.47756-0.61402-0.47757-0.24731-0.78458-0.4136-0.5799-0.30275-1.02762-0.73767-0.4264-0.40935-0.4264-1.09159v-0.0768q0.0256-0.75472 0.60549-1.2792 0.56284-0.50741 1.31331-0.50741h0.0512q0.6268 0.0128 1.0532 0.23878 0.43066 0.22173 0.76326 0.76326l-0.90397 0.80163q-0.1535-0.24305-0.3667-0.43493-0.20468-0.18335-0.50315-0.18335h-0.0256q-0.24731 0.0128-0.43919 0.17056-0.18762 0.15777-0.18762 0.43066 0 0.26011 0.32407 0.4861 0.32406 0.22172 0.60548 0.37096 0.69077 0.37097 1.24935 0.81443 0.54579 0.43492 0.54579 1.29625v0.0256q-9e-3 0.84854-0.60548 1.36448-0.5927 0.51594-1.47961 0.57137-0.064 4e-3 -0.13218 4e-3 -0.58843 0-1.11717-0.31127-0.59269-0.34539-0.86132-1.01057z" style="font-feature-settings:normal;font-variant-caps:normal;font-variant-ligatures:normal;font-variant-numeric:normal"/>
    <path d="m464.25453 329.44372q0 0.67371-0.25584 1.29199-0.12366 0.28995-0.31554 0.57138-0.58417 0.84853-1.54356 1.23655-0.63107 0.25584-1.28773 0.25584-0.33685 0-0.68224-0.0682-0.68224-0.13218-1.22803-0.49889-0.25584-0.16203-0.51594-0.41361-0.49036-0.4733-0.74193-1.07878-0.26011-0.61402-0.26011-1.2792 0-0.17056 0.0171-0.34112 0.081-0.84854 0.55432-1.5393 0.37949-0.55432 0.95087-0.92955v-4e-3q0.84427-0.55005 1.89747-0.55005 1.03189 0 1.88895 0.55005 0.56711 0.37524 0.95087 0.93808 0.57138 0.84427 0.57138 1.8591zm-1.38154 0q0-0.43066-0.1535-0.80163-0.33259-0.80163-1.09585-1.12996-0.39655-0.16629-0.78883-0.16629-0.38803 0-0.77605 0.16203-0.064 0.0298-0.18335 0.0938-0.11513 0.064-0.1663 0.10233-0.14924 0.0981-0.30701 0.25584v4e-3q-0.14071 0.14071-0.25584 0.31127-0.10659 0.16203-0.18761 0.36244-0.1535 0.38376-0.1535 0.80163 0 0.10233 9e-3 0.20467 0.0469 0.52873 0.33259 0.96366 0.34965 0.533 0.9125 0.77178 0.40934 0.17483 0.80163 0.17483 0.57137 0 1.10437-0.37097 0.90823-0.61828 0.90823-1.73971z" style="font-feature-settings:normal;font-variant-caps:normal;font-variant-ligatures:normal;font-variant-numeric:normal"/>
    <path d="m465.03057 326.23294h1.50093q0.61827 0 1.1129 0.0341 0.37949 0.0256 0.67371 0.0853 0.29848 0.0597 0.60548 0.20467 0.63534 0.29848 1.01483 0.85706 0.38376 0.55432 0.51595 1.2323 0.0682 0.37096 0.0682 0.77604 0 0.19188-0.0128 0.38803-0.0512 0.61827-0.2729 1.12995-0.15776 0.34539-0.35817 0.60123-0.39229 0.50315-0.94661 0.77604-0.23452 0.11087-0.51168 0.18335-0.0341 0.0213-0.29848 0.064-0.26436 0.0384-0.38375 0.0384-0.43067 0.0341-0.94235 0.0341h-1.76529zm1.33463 5.16369h0.62681q0.34538 0 0.60548-0.0256 0.23026-0.0171 0.39656-0.0597 0.31127-0.0853 0.52447-0.26863v-4e-3q0.35391-0.30274 0.49035-0.72487 0.13645-0.42214 0.13645-0.88265t-0.13645-0.87838q-0.13644-0.42214-0.49035-0.72914-0.20894-0.17483-0.45199-0.24305-0.23878-0.0682-0.5202-0.0895-0.25584-0.0213-0.57991-0.0213-0.3198-4e-3 -0.60122-4e-3z" style="font-feature-settings:normal;font-variant-caps:normal;font-variant-ligatures:normal;font-variant-numeric:normal"/>
    <path d="m475.17034 332.53085-0.64386-1.45402h-2.16611l-0.70356 1.56062h-1.42417l3.20652-6.88634 3.20652 6.88634h-1.42844zm-2.28976-2.62235h1.14275l-0.57138-1.30052z" style="font-feature-settings:normal;font-variant-caps:normal;font-variant-ligatures:normal;font-variant-numeric:normal"/>
   </g>
   <rect transform="rotate(-15.000001)" x="104.5078" y="248.88931" width="60.191051" height="23.540464" ry="3.307375" fill="#00c853"/>
   <rect transform="rotate(-15.000001)" x="108.65891" y="250.51282" width="51.888836" height="20.293505" ry="2.8511853" fill="#fff"/>
   <g transform="matrix(.87914339 -.23556578 .23556576 .87914348 -259.38403 -129.50949)" fill="#424242" stroke-width=".26458332" style="font-feature-settings:normal;font-variant-caps:normal;font-variant-ligatures:normal;font-variant-numeric:normal" aria-label="Bety">
    <path d="m375.90542 490.60655q0.267 0 0.62012 0.55122h0.0689q0.69763-0.31006 1.27469-0.31006 0.98185 0 1.30913 1.03353 0.10336 0.0775 0.10336 0.24116v0.17225q0 1.78284-0.62012 2.65272l-0.27561 0.65457v0.20671q0 0.12058 1.17133 0.58566 1.24024 1.05076 1.24024 2.30822 0 1.0852-1.79145 4.51307-0.88711 1.03353-1.79145 1.03353h-0.10335q-1.33498-0.0689-1.48139-0.62012-0.10336-0.35312-0.13781-1.20578l0.0344-1.03353-0.2067-10.23193q0-0.48231 0.58566-0.55122zm0.37896 5.82222h0.13781q0.75792 0 1.58474-1.86036 0-0.15503 0.27561-0.89572l0.0689-0.96463q0-0.96462-0.48231-0.96462l-0.13781-0.0345q-0.51676 0-1.17133 0.79238-0.27561 0.48231-0.27561 3.92741zm0.0689 3.7896q0.15502 2.92833 0.37896 2.92833l0.2756 0.0689q0.77515 0 1.20579-0.68902 0.12058-0.11196 0.41341-0.75792l0.58566-0.96462q0.49954-1.17134 0.65457-1.757v-0.41341q0-0.99908-1.27468-1.58475l-0.20671-0.0344q-0.48231 0-1.72255 0.68902-0.31005 0-0.31005 0.48231z" style="font-feature-settings:normal;font-variant-caps:normal;font-variant-ligatures:normal;font-variant-numeric:normal"/>
    <path d="m383.48463 491.02858q0.75792 0 1.79145 0.82682 0.17226 0.31006 0.17226 0.62012 0 1.54168-0.99908 2.13596-1.14549 0.34451-1.8948 0.34451-0.17226 0.18086-0.17226 0.55121v0.58567q0 1.86896 0.48232 4.20301 0 1.25746 0.96462 2.44602 0.30145 0.24116 0.44787 0.24116h0.24115q0.34451-0.12919 0.86128-0.44786l0.2067-0.0344q0.24977 0 0.37896 0.41341 0 0.77514-1.20578 1.55029l-0.55122 0.10335q-0.49092 0-1.72254-1.34358-0.65457-1.02492-0.65457-2.48047-0.44787-2.18764-0.51677-5.58106 0-1.37804 0.96463-3.44509 0.8096-0.68902 1.20578-0.68902zm-0.79237 2.75607 0.17226 0.10336q1.0852 0 1.44694-0.58567 0.10335-0.18087 0.10335-0.34451v-0.1378q0-0.51677-0.65457-0.51677-0.91295 0-1.06798 1.44694z" style="font-feature-settings:normal;font-variant-caps:normal;font-variant-ligatures:normal;font-variant-numeric:normal"/>
    <path d="m389.11736 490.15008h0.10336q0.58566 0 0.82682 1.10243-0.17225 0.22393-0.17225 0.72347v0.55121q0.0689 0.12058 0.2067 0.17226l0.79237-0.0689q1.13688 0 1.13688 0.72347 0 0.68902-0.82682 0.68902-1.30913 0-1.30913 0.2756l-0.0345 0.17226q0.20671 2.48047 0.20671 7.44141 0 1.80006-0.37896 1.9637-0.18948 0.20671-0.41341 0.20671-0.35312 0-0.48232-0.58567h-0.0344q0.24116-2.06706 0.24116-5.92557l-0.1378-2.96278 0.0344-0.27561h-0.0344l-2.10151 0.0345h-0.0344q-0.267 0-0.44787-0.62012 0.18087-0.58567 0.68902-0.58567 1.57614-0.28422 1.72255-0.44786l0.0344-0.1378v-1.51585q0-0.72347 0.41341-0.93017z" style="font-feature-settings:normal;font-variant-caps:normal;font-variant-ligatures:normal;font-variant-numeric:normal"/>
    <path d="m392.39882 490.95106h0.1378q0.63734 0 0.86128 1.17134 1.21439 2.35127 1.55029 2.79052 0 0.30145 0.55121 0.75792h0.0689q0.17225 0 0.41341-2.37711 0.24977-2.17041 0.72347-2.17041h0.0344q0.65457 0.18087 0.65457 0.58566-0.34451 2.35989-0.62012 3.3762-0.1378 1.73116-0.51676 3.61735l0.0344 0.65457q-0.37896 1.07659-0.37896 4.54752 0 0.39619-0.58567 0.55122-0.68902-0.25838-0.68902-0.99908 0.21532-2.8422 0.55122-3.4451l0.31005-2.51492q0-0.16364-0.58566-0.55121l-0.82683-1.30914q0-0.10335-1.30913-2.23931 0-0.1378-0.48231-0.99908-0.24116-0.57705-0.24116-0.82682 0-0.39619 0.34451-0.62012z" style="font-feature-settings:normal;font-variant-caps:normal;font-variant-ligatures:normal;font-variant-numeric:normal"/>
   </g>
  </g>
 </g>
</svg>
