<?xml version="1.0" encoding="UTF-8"?>
<!-- Created with Inkscape (http://www.inkscape.org/) -->
<svg width="511.99997" height="511.99997" version="1.1" viewBox="0 0 135.46666 135.46666" xmlns="http://www.w3.org/2000/svg" xmlns:cc="http://creativecommons.org/ns#" xmlns:dc="http://purl.org/dc/elements/1.1/" xmlns:rdf="http://www.w3.org/1999/02/22-rdf-syntax-ns#">
 <metadata>
  <rdf:RDF>
   <cc:Work rdf:about="">
    <dc:format>image/svg+xml</dc:format>
    <dc:type rdf:resource="http://purl.org/dc/dcmitype/StillImage"/>
    <dc:title/>
   </cc:Work>
  </rdf:RDF>
 </metadata>
 <g transform="translate(-280.55338,143.87161)">
  <rect x="280.55338" y="-143.87161" width="135.46666" height="135.46666" ry="0" opacity="0" stroke-width="2.08046722"/>
  <g>
   <g stroke="#ccc" stroke-linecap="round" stroke-width="2.47349143">
    <path d="m342.10889-142.6344c-2.95091 3e-3 -5.70217 1.49139-7.31919 3.96069-1.55338-1.252-3.48744-1.93605-5.48226-1.93904-4.70249 6e-3 -8.41703 3.48838-8.59772 7.99252-0.0371 1.21203 0.17828 3.44829 0.90466 4.94145 2.81712 5.79089 13.28257 14.0262 13.28257 14.0262h14.42386s10.16693-8.36628 13.27531-13.99576c0.69879-1.26553 1.07322-2.73368 1.07327-4.20228-0.18077-4.70254-4.05469-8.75915-8.75905-8.76212-1.99457 9.4e-4 -3.92911 0.68271-5.48371 1.93276-1.61819-2.46647-4.36855-3.95273-7.31774-3.95442z" fill="#f9f9f9"/>
    <path d="m334.89695-113.65255s-88.79999 42.462362-30.18227 99.41569c0 0 26.6138 10.1100594 73.44062 0.337003 0 0 61.92469-47.517524-28.83449-99.752693" fill="#f9f9f9"/>
    <rect x="326.61224" y="-117.94772" width="30.99328" height="8.7620506" ry="4.3810253" fill="#2196f3"/>
   </g>
   <path d="m380.74274-117.86828 30.07805 17.37167c2.19253 1.266307 2.93855 4.051478 1.6727 6.244781l-6.96908 12.075041c-1.26586 2.193302-4.05005 2.939585-6.24258 1.673283l-30.07806-17.371678c-2.19253-1.266302-7.54887-12.520747-6.28301-14.714057l2.1707-3.76108c1.26586-2.1933 13.45875-2.78427 15.65128-1.51796z" fill="#2196f3"/>
   <path d="m381.87297-114.57616 24.122 13.93174c1.75837 1.01555 2.35667 3.249203 1.34147 5.008188l-5.58906 9.683944c-1.01519 1.758985-3.24806 2.357489-5.00643 1.341938l-24.122-13.93174c-1.75837-1.01555-6.05405-10.0414-5.03885-11.80038l1.74085-3.01631c1.0152-1.75899 10.79365-2.23293 12.55202-1.21738z" fill="#fff"/>
  </g>
  <path d="m357.35997-116.96515s5.48386-5.02864 9.13977 3.20005" fill="none" stroke="#ccc" stroke-linecap="round" stroke-width="2.02477717"/>
  <path d="m336.6764-125.41906 5.05325 6.40304 5.05325-6.43837" fill="#f9f9f9" stroke="#ccc" stroke-linecap="round" stroke-width="2.47349143"/>
  <g transform="matrix(.16666791 0 0 .1667265 315.19466 -52.956269)" stroke-width=".26458332">
   <circle cx="87.108917" cy="153.42471" r="67.732536" fill="#f60"/>
   <g fill="#fbc02d">
    <path d="m138.6673 109.49436c11.72184 13.72605 17.07383 31.02584 16.05359 48.01605h-3e-3c-4.42674-7.13898-10.85215-14.4481-20.47187-20.79254-17.34978-3.56262-10.65979-10.53148-4.87547-18.94708l3e-3 -3e-3 9.29111-8.27061z"/>
    <path d="m107.8668 217.91531c-3.06626 0.98399-6.19125 1.74493-9.344024 2.28018-20.912402 3.55706-43.168358-2.73473-59.30847-18.87458-0.582613-0.58261-1.154113-1.17634-1.714235-1.77562l14.707129-13.09052 53.68872-47.7901 3e-3 -3e-3c0.20082 0.22304 6.4561-3.22236 8.76697-2.16033 2.62308 1.20148 6.36138 3.90261 6.36138 9.18237 3.26945 23.77228 2.3495 54.5584-13.16038 72.23151z"/>
    <path d="m110.25837 120.8381c-2.2188 2.2188-3.39804 2.07116-9.974 2.07116h-3e-3c-0.593724-0.13653-1.193005-0.27305-1.798107-0.40428-17.578387-3.82747-32.695356-4.63286-45.518387-3.42583-10.857706 1.01759-20.070498 3.4761-27.739181 6.76275 3.281363-7.36785 7.944908-14.26713 13.988521-20.31047 13.879248-13.879251 32.285781-20.47743 50.46636-19.788984 1.042458 0.77761 2.104496 1.613958 3.175 2.517246 6.344443 5.343789 13.012474 12.892618 18.202804 22.810788 0 5.36046 1.11495 7.85521-0.8001 9.76762z"/>
   </g>
   <path d="m129.37055 117.77079c5.22102 5.63933 6.9551 13.08206 4.87547 18.94707-0.65775 1.85367-1.69756 3.5486-3.12764 4.97867-2.67044 2.67335-6.2693 3.97774-10.09094 3.98621-4.95644 0.0111-10.29441-2.15768-14.49811-6.36138-0.21749-0.21748-0.42915-0.43762-0.62997-0.66066-4.31244-4.65534-6.244167-10.54259-5.61419-15.7525 0.37068-3.09695 1.64756-5.95709 3.86635-8.17589 1.91506-1.91241 4.30133-3.12499 6.90774-3.66289 5.74808-1.1848 12.55792 0.9144 17.68158 6.0407 0.21722 0.21749 0.42915 0.43762 0.62971 0.66067z" fill="#2196f3"/>
  </g>
  <g transform="matrix(.16666791 0 0 .1667265 339.98628 -52.956269)" stroke-width=".26458332">
   <circle cx="87.108917" cy="153.42471" r="67.732536" fill="#f60"/>
   <g fill="#fbc02d">
    <path d="m138.6673 109.49436c11.72184 13.72605 17.07383 31.02584 16.05359 48.01605h-3e-3c-4.42674-7.13898-10.85215-14.4481-20.47187-20.79254-17.34978-3.56262-10.65979-10.53148-4.87547-18.94708l3e-3 -3e-3 9.29111-8.27061z"/>
    <path d="m107.8668 217.91531c-3.06626 0.98399-6.19125 1.74493-9.344024 2.28018-20.912402 3.55706-43.168358-2.73473-59.30847-18.87458-0.582613-0.58261-1.154113-1.17634-1.714235-1.77562l14.707129-13.09052 53.68872-47.7901 3e-3 -3e-3c0.20082 0.22304 6.4561-3.22236 8.76697-2.16033 2.62308 1.20148 6.36138 3.90261 6.36138 9.18237 3.26945 23.77228 2.3495 54.5584-13.16038 72.23151z"/>
    <path d="m110.25837 120.8381c-2.2188 2.2188-3.39804 2.07116-9.974 2.07116h-3e-3c-0.593724-0.13653-1.193005-0.27305-1.798107-0.40428-17.578387-3.82747-32.695356-4.63286-45.518387-3.42583-10.857706 1.01759-20.070498 3.4761-27.739181 6.76275 3.281363-7.36785 7.944908-14.26713 13.988521-20.31047 13.879248-13.879251 32.285781-20.47743 50.46636-19.788984 1.042458 0.77761 2.104496 1.613958 3.175 2.517246 6.344443 5.343789 13.012474 12.892618 18.202804 22.810788 0 5.36046 1.11495 7.85521-0.8001 9.76762z"/>
   </g>
   <path d="m129.37055 117.77079c5.22102 5.63933 6.9551 13.08206 4.87547 18.94707-0.65775 1.85367-1.69756 3.5486-3.12764 4.97867-2.67044 2.67335-6.2693 3.97774-10.09094 3.98621-4.95644 0.0111-10.29441-2.15768-14.49811-6.36138-0.21749-0.21748-0.42915-0.43762-0.62997-0.66066-4.31244-4.65534-6.244167-10.54259-5.61419-15.7525 0.37068-3.09695 1.64756-5.95709 3.86635-8.17589 1.91506-1.91241 4.30133-3.12499 6.90774-3.66289 5.74808-1.1848 12.55792 0.9144 17.68158 6.0407 0.21722 0.21749 0.42915 0.43762 0.62971 0.66067z" fill="#2196f3"/>
  </g>
  <g transform="rotate(30)" fill="#424242" stroke-width=".26458332" style="font-feature-settings:normal;font-variant-caps:normal;font-variant-ligatures:normal;font-variant-numeric:normal" aria-label="Chucho ">
   <path d="m272.37809-286.68078q1.06798 0.12919 1.06798 0.68902l0.0344 0.0344q0 0.3359-0.55122 0.44786h-0.55121q-1.24024 0-1.8259 1.6192-0.82683 1.5589-0.82683 3.8585v0.0689q0 1.49 0.24116 2.65272 0.0517 0.50815 0.79237 1.6881 0.38757 0.58566 0.75792 0.58566l1.37804-0.0689 0.0344 0.13781q0 0.60289-0.89572 0.93017-0.41342 0.10335-0.75792 0.10335h-0.17226q-0.49954 0-1.51584-1.61919-0.31006-0.63734-0.31006-0.82682-0.30145-0.44787-0.55122-4.16857 0.62873-4.37527 1.96371-5.4088 0.91295-0.72347 1.6881-0.72347z" style="font-feature-settings:normal;font-variant-caps:normal;font-variant-ligatures:normal;font-variant-numeric:normal"/>
   <path d="m275.28919-288.36888q0.27561 0.0947 0.27561 0.55122v0.10335l-0.0431 7.46725q0 0.65456 0.17225 0.65456h0.0689q0.51677-0.51676 0.93018-0.51676 1.1541 0 1.757 1.92925 0.31006 1.06798 0.48231 2.61828 0.0775 0 0.1378 0.51676 0 0.86127-0.51676 0.86127h-0.0344q-0.75792 0-0.75792-1.30913-0.17226-1.55029-0.37896-2.06706-0.3359-1.10243-0.68902-1.10243-0.60289 0.267-1.10243 1.27469-0.48232 1.44694-0.48232 2.82497-0.30144 0.62012-0.72347 0.62012-0.45647 0-0.51676-0.58567 0.34451-2.08428 0.51676-4.85758l0.10336-0.37896-0.0344-0.37896 0.0431-7.01938q0-0.21532 0.24116-0.68902 0.14641-0.36174 0.44786-0.51677z" style="font-feature-settings:normal;font-variant-caps:normal;font-variant-ligatures:normal;font-variant-numeric:normal"/>
   <path d="m280.47406-286.24153q0.51676 0 0.51676 0.89572v2.23932q0 6.37342 0.37896 7.06244 0.25839 0.75792 0.41342 0.75792 0.29283 0 0.86127-1.41249 0.82682-1.46416 0.82682-2.68717 0.12058 0 0.34451-4.06521l-0.0345-0.65457q0.12919-1.79145 0.44786-1.79145l0.44787-0.17226q0.41341 0 0.55121 0.96463v0.17226l-0.2067 2.13596v0.2067q0 3.8499 0.48231 6.27008l0.27561 1.79144q-0.14642 0.41342-0.72347 0.41342-0.51677 0-0.65457-2.72163-0.11197-0.24116-0.17226-0.24116h-0.0689q-0.25838 0.29284-1.34359 2.37712-0.55121 0.68902-1.06797 0.68902-0.57706 0-1.20579-0.93018-0.58566-1.73116-0.75792-9.99077-0.0517 0-0.0689-0.75792 0-0.39619 0.75792-0.55122z" style="font-feature-settings:normal;font-variant-caps:normal;font-variant-ligatures:normal;font-variant-numeric:normal"/>
   <path d="m290.01698-287.27506q1.58474 0 1.58474 0.79237v0.0344q0 0.34451-0.55122 0.48232l-1.34358-0.0689q-0.63735 0-0.99908 0.86127-0.36174 0.21532-0.93018 2.10151-0.34451 1.2833-0.34451 2.37711v0.27561q0 0.99908 0.55122 3.10059 0 0.8096 1.24023 1.79145 0.31867 0.17225 0.51677 0.17225h0.27561q0.18086 0 0.68901-0.31006l0.17226-0.0344q0.44786 0.17226 0.44786 0.65457v0.0344q-0.36173 0.96463-1.757 0.96463-0.48231 0-1.72255-1.03353-0.44786-0.48231-0.55121-0.93018-0.96463-2.90249-0.96463-4.40972 0-2.15318 0.89573-4.65088 0.62873-1.23162 1.24023-1.757 0.68902-0.44786 1.5503-0.44786z" style="font-feature-settings:normal;font-variant-caps:normal;font-variant-ligatures:normal;font-variant-numeric:normal"/>
   <path d="m293.6171-288.36888q0.27561 0.0947 0.27561 0.55122v0.10335l-0.0431 7.46725q0 0.65456 0.17226 0.65456h0.0689q0.51677-0.51676 0.93018-0.51676 1.1541 0 1.757 1.92925 0.31005 1.06798 0.48231 2.61828 0.0775 0 0.1378 0.51676 0 0.86127-0.51676 0.86127h-0.0344q-0.75792 0-0.75792-1.30913-0.17226-1.55029-0.37896-2.06706-0.3359-1.10243-0.68902-1.10243-0.60289 0.267-1.10243 1.27469-0.48232 1.44694-0.48232 2.82497-0.30144 0.62012-0.72347 0.62012-0.45647 0-0.51676-0.58567 0.34451-2.08428 0.51676-4.85758l0.10336-0.37896-0.0345-0.37896 0.0431-7.01938q0-0.21532 0.24116-0.68902 0.14641-0.36174 0.44786-0.51677z" style="font-feature-settings:normal;font-variant-caps:normal;font-variant-ligatures:normal;font-variant-numeric:normal"/>
   <path d="m301.21354-285.39748q1.44694 0.28422 1.44694 0.96463 1.50723 2.24792 0.41341 7.40695-0.68902 1.80006-1.24024 2.30821-0.76653 0.96463-1.51584 0.96463-1.16272 0-1.79145-1.51584l-0.58566-2.89388v-0.51677q0-1.73977 0.58566-4.23746 0.0947-0.13781 0.17226-0.62012 0.80959-1.79145 1.55029-1.79145zm-0.65457 1.27468h-0.0689q-0.4048 0-0.55122 0.65457-0.72347 1.32636-0.72347 2.75608-0.10335 0.25838-0.10335 0.89572v1.17134q0 1.52445 0.55121 3.13503 0.25839 0.51677 0.51677 0.51677 0.41341 0 1.17133-0.99908 0.22393 0 0.72347-1.06798 0.20671-0.74931 0.41341-2.85943 0-2.07567-0.55121-3.34174-0.27561-0.74931-0.44787-0.89573z" style="font-feature-settings:normal;font-variant-caps:normal;font-variant-ligatures:normal;font-variant-numeric:normal"/>
  </g>
 </g>
</svg>
