<?xml version="1.0" encoding="UTF-8"?>
<!-- Created with Inkscape (http://www.inkscape.org/) -->
<svg width="562" height="511.99997" version="1.1" viewBox="0 0 148.69583 135.46666" xmlns="http://www.w3.org/2000/svg" xmlns:cc="http://creativecommons.org/ns#" xmlns:dc="http://purl.org/dc/elements/1.1/" xmlns:rdf="http://www.w3.org/1999/02/22-rdf-syntax-ns#">
 <metadata>
  <rdf:RDF>
   <cc:Work rdf:about="">
    <dc:format>image/svg+xml</dc:format>
    <dc:type rdf:resource="http://purl.org/dc/dcmitype/StillImage"/>
    <dc:title/>
   </cc:Work>
  </rdf:RDF>
 </metadata>
 <g transform="translate(-134.03912,-145.42761)">
  <rect x="140.65372" y="145.42761" width="135.46666" height="135.46666" ry="0" opacity="0" stroke-width="1.18602562"/>
  <path d="m269.41613 196.06541h-122.05785c-1.32921 0-2.55906 0.3908-3.23078 1.0271l-3.47347 3.28873v55.51176c0 1.38719 2.02751 2.51169 4.52867 2.51169h126.40902c2.50115 0 4.52866-1.1245 4.52866-2.51169v-55.51194l-3.47347-3.28855c-0.67203-0.63612-1.90157-1.0271-3.23078-1.0271z" fill="#ff9222" stroke-width=".23563363"/>
  <g transform="matrix(.7510805 0 0 .66324282 -48.71525 177.17957)">
   <g stroke-width=".26458332">
    <path d="m292.89986 8.7772977-8.68019-22.1252517c-0.32279-0.823119-1.48748-0.823119-1.81054 0l-8.68045 22.1252517c0 0.0037 1e-3 0.00794 2e-3 0.011642h-2e-3v107.0432703c0 3.08372 2.49978 5.5835 5.5835 5.5835h8.00391c3.08372 0 5.5835-2.49978 5.5835-5.5835v-107.0432706h-2e-3c5.3e-4 -0.0037 2e-3 -0.00794 2e-3 -0.011642z" fill="#21d8de"/>
    <path d="m292.89986 8.7772977-8.68019-22.1252517c-0.32279-0.823119-1.48748-0.823119-1.81054 0l-1.8124 22.1252517c0 0.0037-1e-3 0.00794-2e-3 0.011642h2e-3v107.0432703c0 2.32172-1.41763 4.31138-3.43402 5.15355 0.66172 0.27649 1.38747 0.42995 2.14947 0.42995h8.00391c3.08372 0 5.5835-2.49978 5.5835-5.5835v-107.0432706h-2e-3c5.3e-4 -0.0037 2e-3 -0.00794 2e-3 -0.011642z" fill="#11b9c1"/>
    <path d="m284.21967-13.347954c-0.32279-0.823119-1.48775-0.823119-1.81054 0l-8.68045 22.1252517c0 1.0088563 4.29154 2.5249183 9.58559 2.5249183s9.58559-1.516062 9.58559-2.5249183z" fill="#21d8de"/>
   </g>
   <path transform="scale(.26458333)" d="m1056.3965-22.474609-21.832 55.648437c0 3.813 16.2214 9.542969 36.2304 9.542969s36.2285-5.729969 36.2285-9.542969l-21.2324-54.11914a48.3363 48.3363 0 0 1 -12.3594 1.634765 48.3363 48.3363 0 0 1 -17.0351 -3.164062z" fill="#f4e3d7" stroke-width=".99999994"/>
  </g>
  <g transform="matrix(.7510805 0 0 .66324282 -56.65278 177.17957)">
   <g stroke-width=".26458332">
    <path d="m334.27078 8.7772977-8.68019-22.1252517c-0.32279-0.823119-1.48775-0.823119-1.81054 0l-8.68045 22.1252517c0 0.00397 2e-3 0.0082 2e-3 0.012171v-5.291e-4h-2e-3v107.0432704c0 3.08372 2.49978 5.5835 5.5835 5.5835h8.00391c3.08372 0 5.5835-2.49978 5.5835-5.5835v-107.0432706h-2e-3c5.3e-4 -0.0037 2e-3 -0.00794 2e-3 -0.011642z" fill="#a8e83a"/>
    <path d="m334.27078 8.7772977-8.68019-22.1252517c-0.32279-0.823119-1.48775-0.823119-1.81054 0l-1.76821 22.1252517c0 0.0037-1e-3 0.00794-2e-3 0.011642h2e-3v107.0432703c0 2.32992-1.42822 4.32461-3.45599 5.16149 0.6559 0.27067 1.37372 0.42201 2.12752 0.42201h8.00391c3.08371 0 5.5835-2.49978 5.5835-5.5835v-107.0432706h-2e-3c2.6e-4 -0.0037 2e-3 -0.00794 2e-3 -0.011642z" fill="#73cc00"/>
    <path d="m325.59059-13.347954c-0.32279-0.823119-1.48775-0.823119-1.81054 0l-8.68045 22.1252517c0 1.0088563 4.29154 2.5249183 9.58559 2.5249183s9.58559-1.516062 9.58559-2.5249183z" fill="#b6fa4c"/>
   </g>
   <path d="m320.8383-5.7868544-5.8499 14.4512556c0 0.990192 4.34653 2.4781978 9.70796 2.4781978 5.36142 0 9.70744-1.4880058 9.70744-2.4781978l-5.68923-14.0541148a12.951731 12.552378 0 0 1 -3.31171 0.4245296 12.951731 12.552378 0 0 1 -4.56456 -0.8216704z" fill="#f4e3d7" stroke-width=".26378706"/>
  </g>
  <g transform="matrix(.7510805 0 0 .66324282 -47.816853 177.17957)">
   <g stroke-width=".26458332">
    <path d="m353.44222 8.7772977-8.68045-22.1252517c-0.32279-0.823119-1.48775-0.823119-1.81054 0l-8.68045 22.1252517c0 0.0037 1e-3 0.00794 2e-3 0.011642h-2e-3v107.0432703c0 3.08372 2.49978 5.5835 5.5835 5.5835h8.00391c3.08372 0 5.5835-2.49978 5.5835-5.5835v-107.0432706h-2e-3c5.3e-4 -0.0037 2e-3 -0.00794 2e-3 -0.011642z" fill="#61aff7"/>
    <path d="m353.44222 8.7772977-8.68045-22.1252517c-0.32279-0.823119-1.48775-0.823119-1.81054 0l-1.8124 22.1252517c0 0.0037-1e-3 0.00794-2e-3 0.011642h2e-3v107.0432703c0 2.32172-1.41764 4.31138-3.43403 5.15355 0.66173 0.27649 1.38748 0.42995 2.14948 0.42995h8.00391c3.08372 0 5.5835-2.49978 5.5835-5.5835v-107.0432706h-2e-3c5.3e-4 -0.0037 2e-3 -0.00794 2e-3 -0.011642z" fill="#55a2f0"/>
    <path d="m344.76177-13.347954c-0.32279-0.823119-1.48749-0.823119-1.81054 0l-8.68045 22.1252517c0 1.0088563 4.29154 2.5249183 9.58559 2.5249183 5.29404 0 9.58559-1.516062 9.58559-2.5249183z" fill="#61aff7"/>
   </g>
   <path d="m340.00972-5.7868544-5.8499 14.4512556c0 0.990192 4.34653 2.4781978 9.70796 2.4781978 5.36142 0 9.70744-1.4880058 9.70744-2.4781978l-5.68923-14.0541148a12.951731 12.552378 0 0 1 -3.31171 0.4245296 12.951731 12.552378 0 0 1 -4.56456 -0.8216704z" fill="#f4e3d7" stroke-width=".26378706"/>
  </g>
  <g stroke-width=".18674199">
   <path d="m240.89628 183.00105-6.51971-14.67441c-0.24265-0.54593-1.11742-0.54593-1.35987 0l-6.51971 14.67441c0 3e-3 1e-3 5e-3 1e-3 8e-3v-3.5e-4h-1e-3v70.99568c0 2.04526 1.87753 3.70322 4.19366 3.70322h6.01158c2.31612 0 4.19365-1.65796 4.19365-3.70322v-70.99568h-1e-3c4e-4 -2e-3 1e-3 -5e-3 1e-3 -8e-3z" fill="#9c27b0"/>
   <path d="m240.89628 183.00105-6.51971-14.67441c-0.24265-0.54593-1.11742-0.54593-1.35987 0l-1.39424 14.67441c0 2e-3 -7.5e-4 5e-3 -1e-3 8e-3h1e-3v70.99568c0 1.53442-1.05681 2.85072-2.56274 3.41262 0.50138 0.18706 1.05244 0.2906 1.63112 0.2906h6.01159c2.31612 0 4.19366-1.65796 4.19366-3.70322v-70.99568h-1e-3c2e-4 -2e-3 1e-3 -5e-3 1e-3 -8e-3z" fill="#781e87"/>
   <path d="m234.37657 168.32664c-0.24245-0.54593-1.11723-0.54593-1.35987 0l-6.51971 14.67441c0 0.66912 3.22329 1.67463 7.19955 1.67463s7.19955-1.00551 7.19955-1.67463z" fill="#781e87"/>
  </g>
  <path d="m230.79303 173.34148-4.39375 9.58469c0 0.65674 3.26459 1.64365 7.29146 1.64365 4.02686 0 7.29107-0.98691 7.29107-1.64365l-4.27307-9.32129a9.7277926 8.3252746 0 0 1 -2.48736 0.28157 9.7277926 8.3252746 0 0 1 -3.42835 -0.54497z" fill="#f4e3d7" stroke-width=".18618"/>
  <g transform="matrix(.7510805 0 0 .66324282 -30.024283 177.17957)">
   <g stroke-width=".26458332">
    <path d="m391.78114 8.7772977-8.68045-22.1252517c-0.32279-0.823119-1.48775-0.823119-1.81054 0l-8.68045 22.1252517c0 0.00397 1e-3 0.0082 2e-3 0.012171v-5.291e-4h-2e-3v107.0432704c0 3.08372 2.49978 5.5835 5.5835 5.5835h8.00391c3.08372 0 5.5835-2.49978 5.5835-5.5835v-107.0432706h-2e-3c7.9e-4 -0.0037 2e-3 -0.00794 2e-3 -0.011642z" fill="#ff4c4c"/>
    <path d="m391.78114 8.7772977-8.68045-22.1252517c-0.32279-0.823119-1.48775-0.823119-1.81054 0l-1.8124 22.1252517c0 0.0037-1e-3 0.00794-2e-3 0.011642h2e-3v107.0432703c0 2.32172-1.41763 4.31138-3.43402 5.15355 0.66172 0.27649 1.38747 0.42995 2.14947 0.42995h8.00391c3.08372 0 5.5835-2.49978 5.5835-5.5835v-107.0432706h-2e-3c7.9e-4 -0.0037 2e-3 -0.00794 2e-3 -0.011642z" fill="#f33939"/>
    <path d="m383.10069-13.347954c-0.32279-0.823119-1.48748-0.823119-1.81054 0l-8.68045 22.1252517c0 1.0088563 4.29154 2.5249183 9.58559 2.5249183s9.58559-1.516062 9.58559-2.5249183z" fill="#ff4c4c"/>
   </g>
   <path d="m378.30211-5.7868544-5.96017 14.4512556c0 0.990192 4.42846 2.4781978 9.89095 2.4781978 5.46247 0 9.89041-1.4880058 9.89041-2.4781978l-5.79646-14.0541148a13.195859 12.552378 0 0 1 -3.37414 0.4245296 13.195859 12.552378 0 0 1 -4.65059 -0.8216704z" fill="#f4e3d7" stroke-width=".26626152"/>
  </g>
  <path d="m140.65371 200.38103v55.51191c0 1.3872 2.02735 2.5116 4.52851 2.5116h126.40948c2.50116 0 4.52851-1.1244 4.52851-2.5116v-55.51191h-14.15159c-3.1985 0-5.89976 1.31738-6.3095 3.07678l-1.44668 6.21593c-0.60116 2.58206-4.56525 4.51492-9.2597 4.51492h-73.13094c-4.69414 0-8.65916-1.93286-9.26032-4.51492l-1.44668-6.21593c-0.40942-1.7594-3.11068-3.07678-6.30951-3.07678zm29.93214 25.26303h69.83158c8.31285 0 15.00501 3.71195 15.00501 8.32242v1.92038c0 4.61047-6.69216 8.32207-15.00501 8.32207h-69.83158c-8.31285 0-15.00562-3.7116-15.00562-8.32207v-1.92038c0-4.61047 6.69277-8.32242 15.00562-8.32242z" fill="#ffaa53" stroke-width=".23563363"/>
  <g fill="#fff" stroke="#ff9222" stroke-width="1.0583334">
   <path d="m165.73786 177.99654-2.79053 0.0775-0.76653 0.62873v2.64411l0.68901-0.31867 0.0775 8.33713h3.01446z" style="font-feature-settings:normal;font-variant-caps:normal;font-variant-ligatures:normal;font-variant-numeric:normal"/>
   <g transform="translate(172.89678,-126.50953)" style="font-feature-settings:normal;font-variant-caps:normal;font-variant-ligatures:normal;font-variant-numeric:normal" aria-label="2">
    <path d="m17.206052 304.94546q-2.592435-1.57613-4.823134-0.0258-1.119656 0.81821-1.972317 2.02399l1.739773 2.20486q0.223931-0.36173 0.62873-0.67179 0.895725-0.89573 1.800062-0.70625 0.508152 0.11197 0.413412 0.68902-0.07752 0.49093-0.577054 1.2833-0.938788 1.47278-2.290988 2.3685-0.585666 0.49954-1.085205 0.8785l-0.206706 3.04891 7.002157 0.14642 0.0086-2.91972-3.539835 0.16364q1.679484-1.55029 2.876655-3.37619 1.050754-1.59336 1.171332-2.79914 0.163642-1.50723-1.145494-2.30822z" fill="#fff" stroke="#ff9222" stroke-width="1.0583334" style="font-feature-settings:normal;font-variant-caps:normal;font-variant-ligatures:normal;font-variant-numeric:normal"/>
   </g>
   <g transform="translate(171.84342,-127.16823)" style="font-feature-settings:normal;font-variant-caps:normal;font-variant-ligatures:normal;font-variant-numeric:normal" aria-label="3">
    <path d="m34.492425 305.32141 0.07752 2.62689 3.315904-0.0775-2.790527 2.024q0.766534-0.11197 1.507229 0.0861 1.498617 0.39618 1.455553 1.95509-0.05168 1.56752-1.507229 1.54168-0.732083-0.0172-1.455553-0.34451l-0.680406 2.80775q1.240234 0.39619 2.7044 0.42203 2.902493 0.0603 3.970472-1.76562 1.464166-2.51492-0.02584-4.25469-0.749308-0.86989-1.713935-1.32636l2.980008-3.66041z" fill="#fff" stroke="#ff9222" stroke-width="1.0583334" style="font-feature-settings:normal;font-variant-caps:normal;font-variant-ligatures:normal;font-variant-numeric:normal"/>
   </g>
   <g transform="translate(173.03886,-126.29889)" style="font-feature-settings:normal;font-variant-caps:normal;font-variant-ligatures:normal;font-variant-numeric:normal" aria-label="4">
    <path d="m61.554574 308.03181h-1.800062l0.07751-3.85851-2.971395 0.0861v6.25284l4.530301 0.16365-0.327284 5.02122 3.117811 0.0775 0.24977-11.60136h-2.79914z" fill="#fff" stroke="#ff9222" stroke-width="1.0583334" style="font-feature-settings:normal;font-variant-caps:normal;font-variant-ligatures:normal;font-variant-numeric:normal"/>
   </g>
   <g transform="translate(164.51616,-129.459)" style="font-feature-settings:normal;font-variant-caps:normal;font-variant-ligatures:normal;font-variant-numeric:normal" aria-label="5">
    <path d="m91.11519 310.11248 4.521688 0.18948 0.266995-2.54076-6.984931-0.26699 0.111966 5.32267q1.067979-0.22393 1.989542-0.1378 1.843126 0.18086 1.88619 1.74838 0.05168 1.57613-1.550293 1.79145-0.800985 0.11197-1.619195-0.0947l-0.155029 2.60105q1.705322 0.20671 3.393419-0.22393 3.367581-0.84405 3.203939-3.9877-0.146417-3.14365-2.635498-3.77238-1.231622-0.39619-2.446018-0.0775z" fill="#fff" stroke="#ff9222" stroke-width="1.0583334" style="font-feature-settings:normal;font-variant-caps:normal;font-variant-ligatures:normal;font-variant-numeric:normal"/>
   </g>
  </g>
  <rect x="134.03912" y="145.42761" width="148.69583" height="135.46666" opacity="0" stroke-width="1.2346096"/>
 </g>
</svg>
