<?xml version="1.0" encoding="UTF-8"?>
<!-- Created with Inkscape (http://www.inkscape.org/) -->
<svg width="512" height="511.99997" version="1.1" viewBox="0 0 135.46666 135.46666" xmlns="http://www.w3.org/2000/svg" xmlns:cc="http://creativecommons.org/ns#" xmlns:dc="http://purl.org/dc/elements/1.1/" xmlns:rdf="http://www.w3.org/1999/02/22-rdf-syntax-ns#">
 <metadata>
  <rdf:RDF>
   <cc:Work rdf:about="">
    <dc:format>image/svg+xml</dc:format>
    <dc:type rdf:resource="http://purl.org/dc/dcmitype/StillImage"/>
    <dc:title/>
   </cc:Work>
  </rdf:RDF>
 </metadata>
 <g transform="translate(-140.65371,42.965115)">
  <rect x="140.65372" y="-42.965115" width="135.46666" height="135.46666" ry="0" opacity="0" stroke-width="1.18602562"/>
  <path d="m269.41613 30.162264h-122.05785c-1.32921 0-2.55906 0.390802-3.23078 1.027103l-3.47347 3.288726v55.511762c0 1.387193 2.02751 2.511688 4.52867 2.511688h126.40902c2.50115 0 4.52866-1.124495 4.52866-2.511688v-55.511937l-3.47347-3.288551c-0.67203-0.636126-1.90157-1.027103-3.23078-1.027103z" fill="#ff9222" stroke-width=".23563363"/>
  <g transform="matrix(.7510805 0 0 .66324282 -48.71525 11.276423)">
   <g stroke-width=".26458332">
    <path d="m292.89986 8.7772977-8.68019-22.1252517c-0.32279-0.823119-1.48748-0.823119-1.81054 0l-8.68045 22.1252517c0 0.0037 1e-3 0.00794 2e-3 0.011642h-2e-3v107.0432703c0 3.08372 2.49978 5.5835 5.5835 5.5835h8.00391c3.08372 0 5.5835-2.49978 5.5835-5.5835v-107.0432706h-2e-3c5.3e-4 -0.0037 2e-3 -0.00794 2e-3 -0.011642z" fill="#21d8de"/>
    <path d="m292.89986 8.7772977-8.68019-22.1252517c-0.32279-0.823119-1.48748-0.823119-1.81054 0l-1.8124 22.1252517c0 0.0037-1e-3 0.00794-2e-3 0.011642h2e-3v107.0432703c0 2.32172-1.41763 4.31138-3.43402 5.15355 0.66172 0.27649 1.38747 0.42995 2.14947 0.42995h8.00391c3.08372 0 5.5835-2.49978 5.5835-5.5835v-107.0432706h-2e-3c5.3e-4 -0.0037 2e-3 -0.00794 2e-3 -0.011642z" fill="#11b9c1"/>
    <path d="m284.21967-13.347954c-0.32279-0.823119-1.48775-0.823119-1.81054 0l-8.68045 22.1252517c0 1.0088563 4.29154 2.5249183 9.58559 2.5249183s9.58559-1.516062 9.58559-2.5249183z" fill="#21d8de"/>
   </g>
   <path transform="scale(.26458333)" d="m1056.3965-22.474609-21.832 55.648437c0 3.813 16.2214 9.542969 36.2304 9.542969s36.2285-5.729969 36.2285-9.542969l-21.2324-54.11914a48.3363 48.3363 0 0 1 -12.3594 1.634765 48.3363 48.3363 0 0 1 -17.0351 -3.164062z" fill="#f4e3d7" stroke-width=".99999994"/>
  </g>
  <g transform="matrix(.7510805 0 0 .66324282 -56.65278 11.276423)">
   <g stroke-width=".26458332">
    <path d="m334.27078 8.7772977-8.68019-22.1252517c-0.32279-0.823119-1.48775-0.823119-1.81054 0l-8.68045 22.1252517c0 0.00397 2e-3 0.0082 2e-3 0.012171v-5.291e-4h-2e-3v107.0432704c0 3.08372 2.49978 5.5835 5.5835 5.5835h8.00391c3.08372 0 5.5835-2.49978 5.5835-5.5835v-107.0432706h-2e-3c5.3e-4 -0.0037 2e-3 -0.00794 2e-3 -0.011642z" fill="#a8e83a"/>
    <path d="m334.27078 8.7772977-8.68019-22.1252517c-0.32279-0.823119-1.48775-0.823119-1.81054 0l-1.76821 22.1252517c0 0.0037-1e-3 0.00794-2e-3 0.011642h2e-3v107.0432703c0 2.32992-1.42822 4.32461-3.45599 5.16149 0.6559 0.27067 1.37372 0.42201 2.12752 0.42201h8.00391c3.08371 0 5.5835-2.49978 5.5835-5.5835v-107.0432706h-2e-3c2.6e-4 -0.0037 2e-3 -0.00794 2e-3 -0.011642z" fill="#73cc00"/>
    <path d="m325.59059-13.347954c-0.32279-0.823119-1.48775-0.823119-1.81054 0l-8.68045 22.1252517c0 1.0088563 4.29154 2.5249183 9.58559 2.5249183s9.58559-1.516062 9.58559-2.5249183z" fill="#b6fa4c"/>
   </g>
   <path d="m320.8383-5.7868544-5.8499 14.4512556c0 0.990192 4.34653 2.4781978 9.70796 2.4781978 5.36142 0 9.70744-1.4880058 9.70744-2.4781978l-5.68923-14.0541148a12.951731 12.552378 0 0 1 -3.31171 0.4245296 12.951731 12.552378 0 0 1 -4.56456 -0.8216704z" fill="#f4e3d7" stroke-width=".26378706"/>
  </g>
  <g transform="matrix(.7510805 0 0 .66324282 -47.816853 11.276423)">
   <g stroke-width=".26458332">
    <path d="m353.44222 8.7772977-8.68045-22.1252517c-0.32279-0.823119-1.48775-0.823119-1.81054 0l-8.68045 22.1252517c0 0.0037 1e-3 0.00794 2e-3 0.011642h-2e-3v107.0432703c0 3.08372 2.49978 5.5835 5.5835 5.5835h8.00391c3.08372 0 5.5835-2.49978 5.5835-5.5835v-107.0432706h-2e-3c5.3e-4 -0.0037 2e-3 -0.00794 2e-3 -0.011642z" fill="#61aff7"/>
    <path d="m353.44222 8.7772977-8.68045-22.1252517c-0.32279-0.823119-1.48775-0.823119-1.81054 0l-1.8124 22.1252517c0 0.0037-1e-3 0.00794-2e-3 0.011642h2e-3v107.0432703c0 2.32172-1.41764 4.31138-3.43403 5.15355 0.66173 0.27649 1.38748 0.42995 2.14948 0.42995h8.00391c3.08372 0 5.5835-2.49978 5.5835-5.5835v-107.0432706h-2e-3c5.3e-4 -0.0037 2e-3 -0.00794 2e-3 -0.011642z" fill="#55a2f0"/>
    <path d="m344.76177-13.347954c-0.32279-0.823119-1.48749-0.823119-1.81054 0l-8.68045 22.1252517c0 1.0088563 4.29154 2.5249183 9.58559 2.5249183 5.29404 0 9.58559-1.516062 9.58559-2.5249183z" fill="#61aff7"/>
   </g>
   <path d="m340.00972-5.7868544-5.8499 14.4512556c0 0.990192 4.34653 2.4781978 9.70796 2.4781978 5.36142 0 9.70744-1.4880058 9.70744-2.4781978l-5.68923-14.0541148a12.951731 12.552378 0 0 1 -3.31171 0.4245296 12.951731 12.552378 0 0 1 -4.56456 -0.8216704z" fill="#f4e3d7" stroke-width=".26378706"/>
  </g>
  <g stroke-width=".18674199">
   <path d="m240.89628 17.097903-6.51971-14.6744147c-0.24265-0.5459277-1.11742-0.5459277-1.35987 0l-6.51971 14.6744147c0 0.0026 1e-3 0.0054 1e-3 0.0081v-3.51e-4h-1e-3v70.995681c0 2.045255 1.87753 3.703216 4.19366 3.703216h6.01158c2.31612 0 4.19365-1.657961 4.19365-3.703216v-70.995709h-1e-3c4e-4 -0.0025 1e-3 -0.0053 1e-3 -0.0077z" fill="#9c27b0"/>
   <path d="m240.89628 17.097903-6.51971-14.6744147c-0.24265-0.5459277-1.11742-0.5459277-1.35987 0l-1.39424 14.6744147c0 0.0025-7.5e-4 0.0053-1e-3 0.0077h1e-3v70.995681c0 1.534419-1.05681 2.850717-2.56274 3.412616 0.50138 0.187061 1.05244 0.2906 1.63112 0.2906h6.01159c2.31612 0 4.19366-1.657961 4.19366-3.703216v-70.99566h-1e-3c2e-4 -0.0025 1e-3 -0.0053 1e-3 -0.0077z" fill="#781e87"/>
   <path d="m234.37657 2.4234883c-0.24245-0.5459277-1.11723-0.5459277-1.35987 0l-6.51971 14.6744147c0 0.669116 3.22329 1.674634 7.19955 1.674634s7.19955-1.005518 7.19955-1.674634z" fill="#781e87"/>
  </g>
  <path d="m230.79303 7.4383334-4.39375 9.5846916c0 0.656738 3.26459 1.643647 7.29146 1.643647 4.02686 0 7.29107-0.986909 7.29107-1.643647l-4.27307-9.3212908a9.7277926 8.3252746 0 0 1 -2.48736 0.2815662 9.7277926 8.3252746 0 0 1 -3.42835 -0.544967z" fill="#f4e3d7" stroke-width=".18618"/>
  <g transform="matrix(.7510805 0 0 .66324282 -30.024283 11.276423)">
   <g stroke-width=".26458332">
    <path d="m391.78114 8.7772977-8.68045-22.1252517c-0.32279-0.823119-1.48775-0.823119-1.81054 0l-8.68045 22.1252517c0 0.00397 1e-3 0.0082 2e-3 0.012171v-5.291e-4h-2e-3v107.0432704c0 3.08372 2.49978 5.5835 5.5835 5.5835h8.00391c3.08372 0 5.5835-2.49978 5.5835-5.5835v-107.0432706h-2e-3c7.9e-4 -0.0037 2e-3 -0.00794 2e-3 -0.011642z" fill="#ff4c4c"/>
    <path d="m391.78114 8.7772977-8.68045-22.1252517c-0.32279-0.823119-1.48775-0.823119-1.81054 0l-1.8124 22.1252517c0 0.0037-1e-3 0.00794-2e-3 0.011642h2e-3v107.0432703c0 2.32172-1.41763 4.31138-3.43402 5.15355 0.66172 0.27649 1.38747 0.42995 2.14947 0.42995h8.00391c3.08372 0 5.5835-2.49978 5.5835-5.5835v-107.0432706h-2e-3c7.9e-4 -0.0037 2e-3 -0.00794 2e-3 -0.011642z" fill="#f33939"/>
    <path d="m383.10069-13.347954c-0.32279-0.823119-1.48748-0.823119-1.81054 0l-8.68045 22.1252517c0 1.0088563 4.29154 2.5249183 9.58559 2.5249183s9.58559-1.516062 9.58559-2.5249183z" fill="#ff4c4c"/>
   </g>
   <path d="m378.30211-5.7868544-5.96017 14.4512556c0 0.990192 4.42846 2.4781978 9.89095 2.4781978 5.46247 0 9.89041-1.4880058 9.89041-2.4781978l-5.79646-14.0541148a13.195859 12.552378 0 0 1 -3.37414 0.4245296 13.195859 12.552378 0 0 1 -4.65059 -0.8216704z" fill="#f4e3d7" stroke-width=".26626152"/>
  </g>
  <path d="m140.65371 34.477879v55.511917c0 1.387199 2.02735 2.511601 4.52851 2.511601h126.40948c2.50116 0 4.52851-1.124402 4.52851-2.511601v-55.511917h-14.15159c-3.1985 0-5.89976 1.317387-6.3095 3.07678l-1.44668 6.215936c-0.60116 2.582057-4.56525 4.514918-9.2597 4.514918h-73.13094c-4.69414 0-8.65916-1.932861-9.26032-4.514918l-1.44668-6.215936c-0.40942-1.759393-3.11068-3.07678-6.30951-3.07678zm29.93214 25.263039h69.83158c8.31285 0 15.00501 3.711944 15.00501 8.32242v1.920373c0 4.610474-6.69216 8.322074-15.00501 8.322074h-69.83158c-8.31285 0-15.00562-3.7116-15.00562-8.322074v-1.920373c0-4.610476 6.69277-8.32242 15.00562-8.32242z" fill="#ffaa53" stroke-width=".23563363"/>
 </g>
</svg>
