<?xml version="1.0" encoding="UTF-8"?>
<!-- Created with Inkscape (http://www.inkscape.org/) -->
<svg width="512" height="511.99997" version="1.1" viewBox="0 0 135.46666 135.46666" xmlns="http://www.w3.org/2000/svg" xmlns:cc="http://creativecommons.org/ns#" xmlns:dc="http://purl.org/dc/elements/1.1/" xmlns:rdf="http://www.w3.org/1999/02/22-rdf-syntax-ns#">
 <metadata>
  <rdf:RDF>
   <cc:Work rdf:about="">
    <dc:format>image/svg+xml</dc:format>
    <dc:type rdf:resource="http://purl.org/dc/dcmitype/StillImage"/>
    <dc:title/>
   </cc:Work>
  </rdf:RDF>
 </metadata>
 <g transform="translate(27.993586,42.965115)">
  <rect x="-27.993582" y="-42.965115" width="135.46666" height="135.46666" ry="0" opacity="0" stroke-width="1.18602562"/>
  <g transform="matrix(.75108048 0 0 .75160643 -6.9681501 .45483085)">
   <path d="m143.44266 28.475003h-162.509682c-1.769726 0-3.407173 0.589228-4.301513 1.548607l-4.624623 4.958556v83.697494c0 2.09153 2.699452 3.78698 6.029533 3.78698h168.302895c3.33008 0 6.02953-1.69545 6.02953-3.78698v-83.697759l-4.62463-4.958291c-0.89475-0.959115-2.53178-1.548607-4.30151-1.548607z" fill="#ff9222" stroke-width=".33385488"/>
   <polygon transform="matrix(.26458333 0 0 .26458333 -33.57342 -23.617326)" points="114.759 147.765 114.759 503.172 44.138 503.172 44.138 147.765 61.793 97.103 97.103 97.103" fill="#c74436"/>
   <rect x="-21.895239" y="20.759653" width="18.685141" height="88.753952" fill="#de4c3c" stroke-width=".26458332"/>
   <g transform="matrix(.26458333 0 0 .26458333 -33.57342 -23.617326)" fill="#0d426b">
    <rect x="44.138" y="185.379" width="70.621002" height="17.655001"/>
    <rect x="44.138" y="450.207" width="70.621002" height="17.655001"/>
   </g>
   <polygon transform="matrix(.26458333 0 0 .26458333 -33.57342 -23.617326)" points="185.379 147.765 185.379 503.172 114.759 503.172 114.759 147.765 132.414 97.103 167.724 97.103" fill="#ffa83d"/>
   <rect x="-3.210103" y="20.759653" width="18.685141" height="88.753952" fill="#fdb62f" stroke-width=".26458332"/>
   <g transform="matrix(.26458333 0 0 .26458333 -33.57342 -23.617326)" fill="#0d426b">
    <rect x="114.759" y="185.379" width="70.621002" height="17.655001"/>
    <rect x="114.759" y="450.207" width="70.621002" height="17.655001"/>
   </g>
   <polygon transform="matrix(.26458333 0 0 .26458333 -33.57342 -23.617326)" points="256 147.765 256 503.172 185.379 503.172 185.379 147.765 203.034 97.103 238.345 97.103" fill="#6b962a"/>
   <rect x="15.474772" y="20.759653" width="18.685141" height="88.753952" fill="#88b337" stroke-width=".26458332"/>
   <g transform="matrix(.26458333 0 0 .26458333 -33.57342 -23.617326)" fill="#0d426b">
    <rect x="185.379" y="185.379" width="70.621002" height="17.655001"/>
    <rect x="185.379" y="450.207" width="70.621002" height="17.655001"/>
   </g>
   <polygon transform="matrix(.26458333 0 0 .26458333 -33.57342 -23.617326)" points="326.621 147.765 326.621 503.172 256 503.172 256 147.765 273.655 97.103 308.966 97.103" fill="#e86625"/>
   <rect x="34.159924" y="20.759653" width="18.685141" height="88.753952" fill="#f46b27" stroke-width=".26458332"/>
   <g transform="matrix(.26458333 0 0 .26458333 -33.57342 -23.617326)" fill="#0d426b">
    <rect x="256" y="185.379" width="70.621002" height="17.655001"/>
    <rect x="256" y="450.207" width="70.621002" height="17.655001"/>
   </g>
   <polygon transform="matrix(.26458333 0 0 .26458333 -33.57342 -23.617326)" points="467.862 147.765 467.862 503.172 397.241 503.172 397.241 147.765 414.897 97.103 450.207 97.103" fill="#d46198"/>
   <rect x="71.529915" y="20.759653" width="18.685141" height="88.753952" fill="#db6ea2" stroke-width=".26458332"/>
   <g transform="matrix(.26458333 0 0 .26458333 -33.57342 -23.617326)" fill="#0d426b">
    <rect x="397.241" y="185.379" width="70.621002" height="17.655001"/>
    <rect x="397.241" y="450.207" width="70.621002" height="17.655001"/>
   </g>
   <polygon transform="matrix(.26458333 0 0 .26458333 -33.57342 2.202298)" points="344.276 0 379.586 0 397.241 50.662 397.241 406.069 326.621 406.069 326.621 50.662" fill="#3e8cc7"/>
   <g transform="matrix(.26458333 0 0 .26458333 -33.57342 2.202298)" fill="#4398d1">
    <rect x="326.621" y="61.792999" width="70.621002" height="300.138"/>
    <rect x="326.621" y="361.931" width="70.621002" height="44.138"/>
   </g>
   <rect x="52.845036" y="25.339577" width="18.685141" height="4.6712189" fill="#0d426b" stroke-width=".26458332"/>
   <rect x="52.845036" y="95.627464" width="18.685141" height="4.6712189" fill="#0d426b" stroke-width=".26458332"/>
   <polygon transform="matrix(.26458333 0 0 .26458333 22.481733 -23.617326)" points="326.621 503.172 256 503.172 256 147.765 273.655 97.103 308.966 97.103 326.621 147.765" fill="#8034ad"/>
   <rect x="90.215088" y="20.759653" width="18.685141" height="88.753952" fill="#9c4eca" stroke-width=".26458332"/>
   <g transform="matrix(.26458333 0 0 .26458333 22.481733 -23.617326)" fill="#0d426b">
    <rect x="256" y="185.379" width="70.621002" height="17.655001"/>
    <rect x="256" y="450.207" width="70.621002" height="17.655001"/>
   </g>
   <polygon transform="matrix(.26458333 0 0 .26458333 22.481733 -23.617326)" points="467.862 503.172 397.241 503.172 397.241 147.765 414.897 97.103 450.207 97.103 467.862 147.765" fill="#11b9c1"/>
   <rect x="127.58508" y="20.759653" width="18.685141" height="88.753952" fill="#1ae1eb" stroke-width=".26458332"/>
   <g transform="matrix(.26458333 0 0 .26458333 22.481733 -23.617326)" fill="#0d426b">
    <rect x="397.241" y="185.379" width="70.621002" height="17.655001"/>
    <rect x="397.241" y="450.207" width="70.621002" height="17.655001"/>
   </g>
   <polygon transform="matrix(.26458333 0 0 .26458333 22.481733 2.202298)" points="379.586 0 397.241 50.662 397.241 406.069 326.621 406.069 326.621 50.662 344.276 0" fill="#8f4d30"/>
   <g transform="matrix(.26458333 0 0 .26458333 22.481733 2.202298)" fill="#b4613c">
    <rect x="326.621" y="61.792999" width="70.621002" height="300.138"/>
    <rect x="326.621" y="361.931" width="70.621002" height="44.138"/>
   </g>
   <rect x="108.90021" y="25.339577" width="18.685141" height="4.6712189" fill="#0d426b" stroke-width=".26458332"/>
   <rect x="108.90021" y="95.627464" width="18.685141" height="4.6712189" fill="#0d426b" stroke-width=".26458332"/>
   <path d="m-27.993586 34.981843v83.697727c0 2.09154 2.699242 3.78685 6.029323 3.78685h168.303513c3.33008 0 6.02933-1.69531 6.02933-3.78685v-83.697727h-18.84164c-4.25854 0-7.85504 1.986282-8.40057 4.638995l-1.92613 9.372036c-0.80039 3.893079-6.07824 6.807338-12.32851 6.807338h-97.367644c-6.2498541 0-11.5289411-2.914259-12.3293401-6.807338l-1.92612702-9.372036c-0.54511398-2.652713-4.14160298-4.638995-8.40056898-4.638995zm39.852115 38.09018h92.974821c11.06786 0 19.9779 5.59666 19.9779 12.548074v2.895431c0 6.951411-8.91004 12.547552-19.9779 12.547552h-92.974821c-11.06786112 0-19.9787181-5.596141-19.9787181-12.547552v-2.895431c0-6.951414 8.91085698-12.548074 19.9787181-12.548074z" fill="#ffaa53" stroke-width=".33385488"/>
  </g>
 </g>
</svg>
