<?xml version="1.0" encoding="UTF-8"?>
<!-- Created with Inkscape (http://www.inkscape.org/) -->
<svg width="562" height="511.99997" version="1.1" viewBox="0 0 148.69583 135.46666" xmlns="http://www.w3.org/2000/svg" xmlns:cc="http://creativecommons.org/ns#" xmlns:dc="http://purl.org/dc/elements/1.1/" xmlns:rdf="http://www.w3.org/1999/02/22-rdf-syntax-ns#">
 <metadata>
  <rdf:RDF>
   <cc:Work rdf:about="">
    <dc:format>image/svg+xml</dc:format>
    <dc:type rdf:resource="http://purl.org/dc/dcmitype/StillImage"/>
    <dc:title/>
   </cc:Work>
  </rdf:RDF>
 </metadata>
 <g transform="translate(34.60817,-145.4276)">
  <rect x="-27.993582" y="145.4276" width="135.46666" height="135.46666" ry="0" opacity="0" stroke-width="1.18602562"/>
  <path d="m100.76883 187.75997h-122.057848c-1.329207 0-2.559061 0.44286-3.230783 1.16394l-3.473464 3.72688v62.90758c0 1.572 2.027506 2.84631 4.528665 2.84631h126.40902c2.50116 0 4.52866-1.27431 4.52866-2.84631v-62.90778l-3.47347-3.72668c-0.67203-0.72088-1.90157-1.16394-3.23078-1.16394z" fill="#ff9222" stroke-width=".25083968"/>
  <polygon transform="matrix(.19872337 0 0 .19886253 -32.184491 148.60704)" points="114.759 503.172 44.138 503.172 44.138 147.765 61.793 97.103 97.103 97.103 114.759 147.765" fill="#c74436"/>
  <rect x="-23.413237" y="181.96106" width="14.034044" height="66.708038" fill="#de4c3c" stroke-width=".19879293"/>
  <g transform="matrix(.19872337 0 0 .19886253 -32.184491 148.60704)" fill="#0d426b">
   <rect x="44.138" y="185.379" width="70.621002" height="17.655001"/>
   <rect x="44.138" y="450.207" width="70.621002" height="17.655001"/>
  </g>
  <polygon transform="matrix(.19872337 0 0 .19886253 -32.184491 148.60704)" points="185.379 503.172 114.759 503.172 114.759 147.765 132.414 97.103 167.724 97.103 185.379 147.765" fill="#ffa83d"/>
  <rect x="-9.3791962" y="181.96106" width="14.034044" height="66.708038" fill="#fdb62f" stroke-width=".19879293"/>
  <g transform="matrix(.19872337 0 0 .19886253 -32.184491 148.60704)" fill="#0d426b">
   <rect x="114.759" y="185.379" width="70.621002" height="17.655001"/>
   <rect x="114.759" y="450.207" width="70.621002" height="17.655001"/>
  </g>
  <polygon transform="matrix(.19872337 0 0 .19886253 -32.184491 148.60704)" points="256 503.172 185.379 503.172 185.379 147.765 203.034 97.103 238.345 97.103 256 147.765" fill="#6b962a"/>
  <rect x="4.6546493" y="181.96106" width="14.034044" height="66.708038" fill="#88b337" stroke-width=".19879293"/>
  <g transform="matrix(.19872337 0 0 .19886253 -32.184491 148.60704)" fill="#0d426b">
   <rect x="185.379" y="185.379" width="70.621002" height="17.655001"/>
   <rect x="185.379" y="450.207" width="70.621002" height="17.655001"/>
  </g>
  <polygon transform="matrix(.19872337 0 0 .19886253 -32.184491 148.60704)" points="326.621 503.172 256 503.172 256 147.765 273.655 97.103 308.966 97.103 326.621 147.765" fill="#e86625"/>
  <rect x="18.688702" y="181.96106" width="14.034044" height="66.708038" fill="#f46b27" stroke-width=".19879293"/>
  <g transform="matrix(.19872337 0 0 .19886253 -32.184491 148.60704)" fill="#0d426b">
   <rect x="256" y="185.379" width="70.621002" height="17.655001"/>
   <rect x="256" y="450.207" width="70.621002" height="17.655001"/>
  </g>
  <polygon transform="matrix(.19872337 0 0 .19886253 -32.184491 148.60704)" points="467.862 503.172 397.241 503.172 397.241 147.765 414.897 97.103 450.207 97.103 467.862 147.765" fill="#d46198"/>
  <rect x="46.756573" y="181.96106" width="14.034044" height="66.708038" fill="#db6ea2" stroke-width=".19879293"/>
  <g transform="matrix(.19872337 0 0 .19886253 -32.184491 148.60704)" fill="#0d426b">
   <rect x="397.241" y="185.379" width="70.621002" height="17.655001"/>
   <rect x="397.241" y="450.207" width="70.621002" height="17.655001"/>
  </g>
  <polygon transform="matrix(.19872337 0 0 .19886253 -32.184491 168.01323)" points="379.586 0 397.241 50.662 397.241 406.069 326.621 406.069 326.621 50.662 344.276 0" fill="#3e8cc7"/>
  <g transform="matrix(.19872337 0 0 .19886253 -32.184491 168.01323)" fill="#4398d1">
   <rect x="326.621" y="61.792999" width="70.621002" height="300.138"/>
   <rect x="326.621" y="361.931" width="70.621002" height="44.138"/>
  </g>
  <rect x="32.722725" y="185.40337" width="14.034044" height="3.5109181" fill="#0d426b" stroke-width=".19879293"/>
  <rect x="32.722725" y="238.23219" width="14.034044" height="3.5109181" fill="#0d426b" stroke-width=".19879293"/>
  <polygon transform="matrix(.19872337 0 0 .19886253 9.9174407 148.60704)" points="256 503.172 256 147.765 273.655 97.103 308.966 97.103 326.621 147.765 326.621 503.172" fill="#8034ad"/>
  <rect x="60.790642" y="181.96106" width="14.034044" height="66.708038" fill="#9c4eca" stroke-width=".19879293"/>
  <g transform="matrix(.19872337 0 0 .19886253 9.9174407 148.60704)" fill="#0d426b">
   <rect x="256" y="185.379" width="70.621002" height="17.655001"/>
   <rect x="256" y="450.207" width="70.621002" height="17.655001"/>
  </g>
  <polygon transform="matrix(.19872337 0 0 .19886253 9.9174407 148.60704)" points="397.241 503.172 397.241 147.765 414.897 97.103 450.207 97.103 467.862 147.765 467.862 503.172" fill="#11b9c1"/>
  <rect x="88.858513" y="181.96106" width="14.034044" height="66.708038" fill="#1ae1eb" stroke-width=".19879293"/>
  <g transform="matrix(.19872337 0 0 .19886253 9.9174407 148.60704)" fill="#0d426b">
   <rect x="397.241" y="185.379" width="70.621002" height="17.655001"/>
   <rect x="397.241" y="450.207" width="70.621002" height="17.655001"/>
  </g>
  <polygon transform="matrix(.19872337 0 0 .19886253 9.9174407 168.01323)" points="397.241 50.662 397.241 406.069 326.621 406.069 326.621 50.662 344.276 0 379.586 0" fill="#8f4d30"/>
  <g transform="matrix(.19872337 0 0 .19886253 9.9174407 168.01323)" fill="#b4613c">
   <rect x="326.621" y="61.792999" width="70.621002" height="300.138"/>
   <rect x="326.621" y="361.931" width="70.621002" height="44.138"/>
  </g>
  <rect x="74.824669" y="185.40337" width="14.034044" height="3.5109181" fill="#0d426b" stroke-width=".19879293"/>
  <rect x="74.824669" y="238.23219" width="14.034044" height="3.5109181" fill="#0d426b" stroke-width=".19879293"/>
  <path d="m-27.993586 192.65055v62.90775c0 1.57201 2.027348 2.84622 4.528507 2.84622h126.409479c2.50116 0 4.52852-1.27421 4.52852-2.84622v-62.90775h-14.151592c-3.198506 0-5.899767 1.4929-6.309504 3.4867l-1.446679 7.04408c-0.601157 2.92606-4.565247 5.11644-9.259703 5.11644h-73.1309367c-4.6941434 0-8.6591626-2.19038-9.2603267-5.11644l-1.4466764-7.04408c-0.4094245-1.9938-3.1106772-3.4867-6.3095032-3.4867zm29.9321456 28.62882h69.8315734c8.312853 0 15.00501 4.20649 15.00501 9.43122v2.17622c0 5.22473-6.692157 9.43082-15.00501 9.43082h-69.8315734c-8.3128545 0-15.0056256-4.20609-15.0056256-9.43082v-2.17622c0-5.22473 6.6927711-9.43122 15.0056256-9.43122z" fill="#ffaa53" stroke-width=".25083968"/>
  <g fill="#fff" stroke="#ff9222" stroke-width="1.0583334">
   <g transform="translate(.08650047 -.52916667)" style="font-feature-settings:normal;font-variant-caps:normal;font-variant-ligatures:normal;font-variant-numeric:normal" aria-label="1">
    <path d="m-14.821413 172.49559-2.790527 0.0775-0.766534 0.62873v2.64411l0.689019-0.31867 0.07751 8.33713h3.014458z" fill="#fff" stroke="#ff9222" stroke-width="1.0583334" style="font-feature-settings:normal;font-variant-caps:normal;font-variant-ligatures:normal;font-variant-numeric:normal"/>
   </g>
   <g transform="translate(-100.61899,-138.70123)" style="font-feature-settings:normal;font-variant-caps:normal;font-variant-ligatures:normal;font-variant-numeric:normal" aria-label="8">
    <path d="m182.65804 318.56092q-0.28422 0-0.46509-0.16364-0.15503-0.13781-0.18087-0.35312-0.0172-0.20671 0.12058-0.34451 0.1378-0.16365 0.42202-0.17226 0.38758-9e-3 0.59428 0.15503 0.17226 0.1378 0.16365 0.35312-9e-3 0.20671-0.18087 0.36174-0.18948 0.16364-0.4737 0.16364zm-0.34451-5.64996q0.27561-0.0603 0.43925 0.0431 0.14641 0.10335 0.15503 0.29283 9e-3 0.18948-0.11197 0.31867-0.14642 0.16364-0.39619 0.16364-0.24976 0-0.39618-0.11196-0.14642-0.0947-0.15503-0.24116-0.0431-0.34451 0.46509-0.46509zm2.08428 2.34267q0.63734-1.19717 0.72347-2.42018 0.19809-2.43741-2.54937-2.54076-1.05937-0.0431-1.86035 0.52538-0.73208 0.51676-1.05076 1.37804-0.30144 0.85266-0.0861 1.67087 0.23254 0.8785 0.99907 1.38665-0.69763 0.55983-1.29191 1.38665-1.19717 1.64503-0.72347 2.98862 0.41341 1.17994 1.39527 1.92064 0.92156 0.68041 2.09289 0.81821 1.15411 0.1378 2.19625-0.31006 1.10243-0.48231 1.73116-1.49861 1.12827-1.81729-0.11196-3.74655-0.62012-0.96462-1.46417-1.5589z" fill="#fff" stroke="#ff9222" stroke-width="1.0583334" style="font-feature-settings:normal;font-variant-caps:normal;font-variant-ligatures:normal;font-variant-numeric:normal"/>
   </g>
   <g transform="translate(-16.685626,-132.53965)" style="font-feature-settings:normal;font-variant-caps:normal;font-variant-ligatures:normal;font-variant-numeric:normal" aria-label="2">
    <path d="m17.206052 304.94546q-2.592435-1.57613-4.823134-0.0258-1.119656 0.81821-1.972317 2.02399l1.739773 2.20486q0.223931-0.36173 0.62873-0.67179 0.895725-0.89573 1.800062-0.70625 0.508152 0.11197 0.413412 0.68902-0.07752 0.49093-0.577054 1.2833-0.938788 1.47278-2.290988 2.3685-0.585666 0.49954-1.085205 0.8785l-0.206706 3.04891 7.002157 0.14642 0.0086-2.91972-3.539835 0.16364q1.679484-1.55029 2.876655-3.37619 1.050754-1.59336 1.171332-2.79914 0.163642-1.50723-1.145494-2.30822z" fill="#fff" stroke="#ff9222" stroke-width="1.0583334" style="font-feature-settings:normal;font-variant-caps:normal;font-variant-ligatures:normal;font-variant-numeric:normal"/>
   </g>
   <g transform="translate(-26.940241,-133.19835)" style="font-feature-settings:normal;font-variant-caps:normal;font-variant-ligatures:normal;font-variant-numeric:normal" aria-label="3">
    <path d="m34.492425 305.32141 0.07752 2.62689 3.315904-0.0775-2.790527 2.024q0.766534-0.11197 1.507229 0.0861 1.498617 0.39618 1.455553 1.95509-0.05168 1.56752-1.507229 1.54168-0.732083-0.0172-1.455553-0.34451l-0.680406 2.80775q1.240234 0.39619 2.7044 0.42203 2.902493 0.0603 3.970472-1.76562 1.464166-2.51492-0.02584-4.25469-0.749308-0.86989-1.713935-1.32636l2.980008-3.66041z" fill="#fff" stroke="#ff9222" stroke-width="1.0583334" style="font-feature-settings:normal;font-variant-caps:normal;font-variant-ligatures:normal;font-variant-numeric:normal"/>
   </g>
   <g transform="translate(-34.94596,-132.32902)" style="font-feature-settings:normal;font-variant-caps:normal;font-variant-ligatures:normal;font-variant-numeric:normal" aria-label="4">
    <path d="m61.554574 308.03181h-1.800062l0.07751-3.85851-2.971395 0.0861v6.25284l4.530301 0.16365-0.327284 5.02122 3.117811 0.0775 0.24977-11.60136h-2.79914z" fill="#fff" stroke="#ff9222" stroke-width="1.0583334" style="font-feature-settings:normal;font-variant-caps:normal;font-variant-ligatures:normal;font-variant-numeric:normal"/>
   </g>
   <g transform="translate(-52.807271,-135.48912)" style="font-feature-settings:normal;font-variant-caps:normal;font-variant-ligatures:normal;font-variant-numeric:normal" aria-label="5">
    <path d="m91.11519 310.11248 4.521688 0.18948 0.266995-2.54076-6.984931-0.26699 0.111966 5.32267q1.067979-0.22393 1.989542-0.1378 1.843126 0.18086 1.88619 1.74838 0.05168 1.57613-1.550293 1.79145-0.800985 0.11197-1.619195-0.0947l-0.155029 2.60105q1.705322 0.20671 3.393419-0.22393 3.367581-0.84405 3.203939-3.9877-0.146417-3.14365-2.635498-3.77238-1.231622-0.39619-2.446018-0.0775z" fill="#fff" stroke="#ff9222" stroke-width="1.0583334" style="font-feature-settings:normal;font-variant-caps:normal;font-variant-ligatures:normal;font-variant-numeric:normal"/>
   </g>
   <g transform="translate(-67.554824,-135.6871)" style="font-feature-settings:normal;font-variant-caps:normal;font-variant-ligatures:normal;font-variant-numeric:normal" aria-label="6">
    <path d="m121.47475 315.75382q-0.30144 0.0258-0.46509-0.15502-0.14641-0.15503-0.14641-0.4048t0.12058-0.44787q0.12919-0.2067 0.33589-0.24115 0.49093-0.0861 0.73209 0.0861 0.21531 0.14641 0.18948 0.42202-0.0258 0.25838-0.23255 0.4737-0.22393 0.23254-0.53399 0.26699zm-0.2067-3.93602q-0.10336-0.36173 0.10335-0.66318 0.43064-0.6115 2.01538-0.33589l0.45648-2.67857q-0.39619-0.19809-1.10244-0.24977-1.4211-0.0861-2.97139 0.6718-0.8096 0.39618-1.54168 1.88619-0.74931 1.54168-0.88711 3.21255-0.14642 1.92064 0.64595 3.20394 0.93018 1.51584 3.0403 1.85174 1.8259 0.29283 3.05752-0.72347 1.11105-0.91295 1.24024-2.40296 0.12919-1.49861-0.85266-2.55798-1.11105-1.19717-3.20394-1.2144z" fill="#fff" stroke="#ff9222" stroke-width="1.0583334" style="font-feature-settings:normal;font-variant-caps:normal;font-variant-ligatures:normal;font-variant-numeric:normal"/>
   </g>
   <g transform="translate(-82.328353,-134.80433)" style="font-feature-settings:normal;font-variant-caps:normal;font-variant-ligatures:normal;font-variant-numeric:normal" aria-label="7">
    <path d="m146.3881 310.36818 2.79914-0.0775-2.57521 7.3036 3.46232 0.29283 3.76377-10.90373-7.59644 0.0775z" fill="#fff" stroke="#ff9222" stroke-width="1.0583334" style="font-feature-settings:normal;font-variant-caps:normal;font-variant-ligatures:normal;font-variant-numeric:normal"/>
   </g>
   <g transform="translate(-114.24803,-137.32497)" style="font-feature-settings:normal;font-variant-caps:normal;font-variant-ligatures:normal;font-variant-numeric:normal" aria-label="9">
    <path d="m210.13531 313.79843q-0.49092 0.0775-0.73208-0.0861-0.21532-0.14642-0.18948-0.42203 0.0172-0.25838 0.23254-0.48231 0.22393-0.22393 0.53399-0.25838 0.30145-0.0258 0.46509 0.15503 0.14642 0.14641 0.14642 0.4048 0 0.24115-0.12058 0.43925-0.13781 0.21531-0.3359 0.24976zm0.29283-4.22024q-1.8259-0.29283-3.05752 0.72347-1.11104 0.92157-1.24023 2.40296-0.12919 1.50723 0.85266 2.56659 1.11104 1.19717 3.20394 1.2144 0.10335 0.35312-0.10335 0.66318-0.43064 0.6115-2.01539 0.32728l-0.45647 2.68718q0.39619 0.19809 1.10243 0.24977 1.4211 0.0861 2.97139-0.6718 0.8096-0.39618 1.54168-1.88619 0.74931-1.54168 0.8785-3.21255 0.15503-1.92925-0.63734-3.21255-0.93017-1.50723-3.0403-1.85174z" fill="#fff" stroke="#ff9222" stroke-width="1.0583334" style="font-feature-settings:normal;font-variant-caps:normal;font-variant-ligatures:normal;font-variant-numeric:normal"/>
   </g>
  </g>
  <rect x="-34.60817" y="145.4276" width="148.69583" height="135.46666" opacity="0" stroke-width="1.2346096"/>
 </g>
</svg>
