<?xml version="1.0" encoding="UTF-8"?>
<!-- Created with Inkscape (http://www.inkscape.org/) -->
<svg width="562" height="511.99997" version="1.1" viewBox="0 0 148.69583 135.46666" xmlns="http://www.w3.org/2000/svg" xmlns:cc="http://creativecommons.org/ns#" xmlns:dc="http://purl.org/dc/elements/1.1/" xmlns:rdf="http://www.w3.org/1999/02/22-rdf-syntax-ns#">
 <metadata>
  <rdf:RDF>
   <cc:Work rdf:about="">
    <dc:format>image/svg+xml</dc:format>
    <dc:type rdf:resource="http://purl.org/dc/dcmitype/StillImage"/>
    <dc:title/>
   </cc:Work>
  </rdf:RDF>
 </metadata>
 <g transform="translate(3.873641,-73.092392)">
  <g transform="translate(0,155.71634)">
   <rect x="2.7409449" y="-82.623947" width="135.46666" height="135.46666" ry="0" fill="#d5f6ff"/>
   <g transform="matrix(.52019757 0 0 .52024643 9.2304522 -74.016201)">
    <g transform="matrix(1 0 0 .65203455 0 84.849248)">
     <g transform="matrix(.26458333 0 0 .26458333 -12.475188 152.53301)">
      <path d="m10.367 345.111h472.834c2.927 0 5.267-2.39 5.206-5.316-0.432-20.84-0.317-97.235 23.352-126.091 0.662-0.807-0.154-1.968-1.139-1.622-11.274 3.959-44.881 17.583-53.245 41.786-0.333 0.964-1.709 0.915-1.973-0.07l-13.043-48.617c-0.248-0.926-1.513-1.048-1.933-0.186l-14.574 29.865c-0.346 0.71-1.328 0.787-1.781 0.14l-27.796-39.706c-0.523-0.748-1.688-0.503-1.866 0.392l-12.897 64.809c-0.216 1.085-1.754 1.123-2.022 0.05l-23.274-92.874c-0.259-1.033-1.72-1.051-2.005-0.025l-19.578 70.479c-0.26 0.936-1.55 1.032-1.946 0.145l-22.624-50.716c-0.392-0.878-1.665-0.796-1.94 0.125l-18.144 60.68c-0.303 1.015-1.754 0.975-2.001-0.055l-10.692-44.558c-0.234-0.974-1.577-1.083-1.964-0.159l-29.619 70.63c-0.355 0.846-1.553 0.848-1.911 3e-3l-39.636-93.613c-0.459-1.085-2.085-0.692-1.988 0.482 1.484 18.054 3.633 67.693-14.796 90.436-0.514 0.634-1.517 0.48-1.794-0.287l-19.482-53.925c-0.342-0.946-1.695-0.9-1.972 0.067l-16.229 56.768c-0.253 0.884-1.442 1.032-1.896 0.233-5.839-10.302-30.02-56.655-17.957-98.3 0 0-31.616 41.527-32.692 72.12-0.04 1.127-1.604 1.373-2.002 0.318l-13.089-34.705c-0.353-0.937-1.698-0.878-1.968 0.086l-15.933 56.826c-0.307 1.095-1.904 0.971-2.028-0.16-1.748-15.918-10.893-60.624-58.72-92.83-0.812-0.547-1.857 0.249-1.557 1.181 4.632 14.418 23.834 81.942 5.26 159.774-0.783 3.274 1.688 6.42 5.054 6.42z" fill="#43a838"/>
      <g fill="#338727">
       <path d="m488.402 339.8c0.063 2.916-2.281 5.312-5.197 5.312h-472.84c-3.364 0-5.832-3.145-5.051-6.416 2.104-8.811 3.718-17.497 4.926-25.985 0.042 0.01 0.083 0.01 0.125 0.01h472.84c2.916 0 4.921-0.156 4.921-0.156 1e-3 7.245 0.08 17.611 0.276 27.235z"/>
       <circle cx="96.578003" cy="288.51801" r="8.8999996"/>
       <circle cx="121.458" cy="313.39801" r="8.8999996"/>
       <circle cx="418.478" cy="275.578" r="8.8999996"/>
      </g>
     </g>
     <g transform="matrix(.26458333 0 0 .26458333 112.47243 152.53301)">
      <path d="m10.367 345.111h472.834c2.927 0 5.267-2.39 5.206-5.316-0.432-20.84-0.317-97.235 23.352-126.091 0.662-0.807-0.154-1.968-1.139-1.622-11.274 3.959-44.881 17.583-53.245 41.786-0.333 0.964-1.709 0.915-1.973-0.07l-13.043-48.617c-0.248-0.926-1.513-1.048-1.933-0.186l-14.574 29.865c-0.346 0.71-1.328 0.787-1.781 0.14l-27.796-39.706c-0.523-0.748-1.688-0.503-1.866 0.392l-12.897 64.809c-0.216 1.085-1.754 1.123-2.022 0.05l-23.274-92.874c-0.259-1.033-1.72-1.051-2.005-0.025l-19.578 70.479c-0.26 0.936-1.55 1.032-1.946 0.145l-22.624-50.716c-0.392-0.878-1.665-0.796-1.94 0.125l-18.144 60.68c-0.303 1.015-1.754 0.975-2.001-0.055l-10.692-44.558c-0.234-0.974-1.577-1.083-1.964-0.159l-29.619 70.63c-0.355 0.846-1.553 0.848-1.911 3e-3l-39.636-93.613c-0.459-1.085-2.085-0.692-1.988 0.482 1.484 18.054 3.633 67.693-14.796 90.436-0.514 0.634-1.517 0.48-1.794-0.287l-19.482-53.925c-0.342-0.946-1.695-0.9-1.972 0.067l-16.229 56.768c-0.253 0.884-1.442 1.032-1.896 0.233-5.839-10.302-30.02-56.655-17.957-98.3 0 0-31.616 41.527-32.692 72.12-0.04 1.127-1.604 1.373-2.002 0.318l-13.089-34.705c-0.353-0.937-1.698-0.878-1.968 0.086l-15.933 56.826c-0.307 1.095-1.904 0.971-2.028-0.16-1.748-15.918-10.893-60.624-58.72-92.83-0.812-0.547-1.857 0.249-1.557 1.181 4.632 14.418 23.834 81.942 5.26 159.774-0.783 3.274 1.688 6.42 5.054 6.42z" fill="#43a838"/>
      <g fill="#338727">
       <path d="m488.402 339.8c0.063 2.916-2.281 5.312-5.197 5.312h-472.84c-3.364 0-5.832-3.145-5.051-6.416 2.104-8.811 3.718-17.497 4.926-25.985 0.042 0.01 0.083 0.01 0.125 0.01h472.84c2.916 0 4.921-0.156 4.921-0.156 1e-3 7.245 0.08 17.611 0.276 27.235z"/>
       <circle cx="96.578003" cy="288.51801" r="8.8999996"/>
       <circle cx="121.458" cy="313.39801" r="8.8999996"/>
       <circle cx="418.478" cy="275.578" r="8.8999996"/>
      </g>
     </g>
    </g>
    <g transform="matrix(.5251023 0 0 .5251023 -160.16842 97.772079)">
     <g stroke-width=".26458332">
      <path d="m359.37044 249.18917c22.1488-1.15146 38.0111-17.01376 39.16256-39.16256-22.1488 1.15146-38.0111 17.01376-39.16256 39.16256z" fill="#8bc540"/>
      <path d="m388.41957 220.14004-28.7655 26.0604c-0.1143 0.9906-0.23283 1.97697-0.28363 2.98873 1.016-0.055 2.00236-0.16933 2.98873-0.28363z" fill="#719c40"/>
      <path d="m355.23447 261.82991c-18.2245-0.94827-31.27587-13.99964-32.22413-32.22414 18.2245 0.9525 31.27586 13.99964 32.22413 32.22414z" fill="#8bc540"/>
      <path d="m331.33307 237.93274 23.66857 21.4376c0.0931 0.8128 0.1905 1.6256 0.23283 2.45957-0.83397-0.0423-1.64677-0.1397-2.45957-0.23284z" fill="#719c40"/>
      <path d="m349.1427 268.45507c-0.14393-3.39936 0.46567-6.7056 1.82034-9.82556 9.22443-21.25134 8.60636-44.21717-1.69334-63.00894-4.91066-8.96196-8.80533-14.8082-8.84343-14.86746l5.77003-3.85657c0.1651 0.24553 4.0894 6.13833 9.16094 15.38817 11.3411 20.68406 12.06076 45.8724 1.97696 69.10916-0.93133 2.1463-1.35466 4.42383-1.25306 6.76487z" fill="#997960"/>
     </g>
     <g transform="matrix(.72461696 0 0 .72461696 180.58782 109.16378)">
      <path d="m209.5849 126.15481c-30.78215 53.31645-77.58377-27.746057-16.01946-27.746057-61.56431 0-14.76296-81.062512 16.01946-27.74606-30.78215-53.316187 62.82055-53.316187 32.0384 0 30.78215-53.316452 77.58377 27.74606 16.01946 27.74606 61.56431 0 14.76269 81.062507-16.01946 27.746057 30.78215 53.31645-62.82055 53.31645-32.0384 0z" fill="#ff728b" stroke-width=".26458332"/>
      <path d="m257.64276 98.369859-31.22057-0.419894 0.0156-0.02593-0.0251 5.29e-4 15.2109-27.261608c30.78215-53.316186-62.82055-53.316186-32.0384 0l15.21328 27.265577-0.0294-2.64e-4 0.0156 0.02593-31.21845 0.561446c-61.56378 0.204258-14.49387 81.110665 16.11101 27.692875l15.91495-26.857057 0.0122 0.02196 0.0143-0.02567 16.03878 26.787997c30.84644 53.27862 77.54937-27.840509 15.98533-27.765897z" fill="#ff3f62" stroke-width=".26458332"/>
      <g transform="matrix(.26458333 0 0 .26458333 157.88373 30.675685)" fill="#e91e63">
       <path d="m255.952 414.824c-4.328 0-7.837 3.509-7.837 7.837v32.914c0 4.328 3.509 7.837 7.837 7.837s7.837-3.509 7.837-7.837v-32.915c-1e-3 -4.328-3.509-7.836-7.837-7.836z"/>
       <path d="m131.527 162.764 20.179 16.748c1.463 1.215 3.237 1.807 5.001 1.807 2.251 0 4.485-0.964 6.034-2.832 2.765-3.331 2.306-8.271-1.025-11.035l-20.179-16.748c-3.331-2.765-8.271-2.306-11.035 1.025-2.764 3.33-2.305 8.271 1.025 11.035z"/>
       <path d="m119.277 321.194-28.968 15.686c-3.807 2.061-5.22 6.817-3.16 10.623 1.419 2.62 4.115 4.106 6.898 4.106 1.26 0 2.538-0.305 3.724-0.947l28.968-15.686c3.806-2.061 5.22-6.817 3.16-10.623-2.06-3.805-6.816-5.221-10.622-3.159z"/>
       <path d="m397.051 371.146-20.883-18.62c-3.23-2.88-8.185-2.597-11.064 0.634-2.88 3.231-2.597 8.185 0.634 11.064l20.883 18.62c1.494 1.332 3.356 1.987 5.213 1.987 2.156 0 4.304-0.885 5.852-2.622 2.879-3.228 2.596-8.182-0.635-11.063z"/>
       <path d="m394.453 296.677-120.48-42.674 122.047-77.06c3.659-2.31 4.753-7.15 2.443-10.811-2.31-3.66-7.151-4.753-10.811-2.443l-123.682 78.093v-116.917c0-4.328-3.509-7.837-7.837-7.837s-7.837 3.509-7.837 7.837v114.447l-66.245-54.981c-3.331-2.765-8.272-2.306-11.035 1.025-2.765 3.331-2.305 8.271 1.025 11.035l44.864 37.236-106.29-38.07c-4.071-1.458-8.56 0.66-10.02 4.735-1.46 4.074 0.66 8.561 4.735 10.02l131.645 47.151-83.995 45.482c-3.807 2.061-5.22 6.817-3.16 10.623 1.419 2.62 4.115 4.106 6.898 4.106 1.26 0 2.539-0.305 3.724-0.947l87.628-47.45 0.043 120.473c1e-3 4.327 3.51 7.834 7.837 7.834h2e-3c4.329-1e-3 7.836-3.511 7.835-7.839l-0.042-116.456 81.852 72.981c1.494 1.332 3.356 1.987 5.213 1.987 2.157 0 4.304-0.885 5.853-2.622 2.88-3.231 2.597-8.185-0.634-11.064l-64.889-57.857 98.08 34.74c0.865 0.306 1.748 0.451 2.616 0.451 3.226 0 6.249-2.007 7.387-5.222 1.446-4.081-0.69-8.561-4.77-10.006z"/>
       <path d="m256.133 96.13c4.328 0 7.837-3.509 7.837-7.837v-33.097c0-4.328-3.509-7.837-7.837-7.837s-7.837 3.509-7.837 7.837v33.097c1e-3 4.328 3.509 7.837 7.837 7.837z"/>
      </g>
      <circle cx="225.65305" cy="98.408752" r="16.173185" fill="#fbc02d" stroke-width=".26458332"/>
     </g>
    </g>
    <g transform="matrix(.44015721 0 0 .44015721 -158.53542 120.175)">
     <g transform="matrix(-1,0,0,1,869.21986,0)" stroke-width=".26458332">
      <path d="m359.37044 249.18917c22.1488-1.15146 38.0111-17.01376 39.16256-39.16256-22.1488 1.15146-38.0111 17.01376-39.16256 39.16256z" fill="#8bc540"/>
      <path d="m388.41957 220.14004-28.7655 26.0604c-0.1143 0.9906-0.23283 1.97697-0.28363 2.98873 1.016-0.055 2.00236-0.16933 2.98873-0.28363z" fill="#719c40"/>
      <path d="m355.23447 261.82991c-18.2245-0.94827-31.27587-13.99964-32.22413-32.22414 18.2245 0.9525 31.27586 13.99964 32.22413 32.22414z" fill="#8bc540"/>
      <path d="m331.33307 237.93274 23.66857 21.4376c0.0931 0.8128 0.1905 1.6256 0.23283 2.45957-0.83397-0.0423-1.64677-0.1397-2.45957-0.23284z" fill="#719c40"/>
      <path d="m349.1427 268.45507c-0.14393-3.39936 0.46567-6.7056 1.82034-9.82556 9.22443-21.25134 8.60636-44.21717-1.69334-63.00894-4.91066-8.96196-8.80533-14.8082-8.84343-14.86746l5.77003-3.85657c0.1651 0.24553 4.0894 6.13833 9.16094 15.38817 11.3411 20.68406 12.06076 45.8724 1.97696 69.10916-0.93133 2.1463-1.35466 4.42383-1.25306 6.76487z" fill="#997960"/>
     </g>
     <g transform="matrix(.72461696 0 0 .72461696 361.56395 109.16378)">
      <path d="m209.5849 126.15481c-30.78215 53.31645-77.58377-27.746057-16.01946-27.746057-61.56431 0-14.76296-81.062512 16.01946-27.74606-30.78215-53.316187 62.82055-53.316187 32.0384 0 30.78215-53.316452 77.58377 27.74606 16.01946 27.74606 61.56431 0 14.76269 81.062507-16.01946 27.746057 30.78215 53.31645-62.82055 53.31645-32.0384 0z" fill="#ff728b" stroke-width=".26458332"/>
      <path d="m257.64276 98.369859-31.22057-0.419894 0.0156-0.02593-0.0251 5.29e-4 15.2109-27.261608c30.78215-53.316186-62.82055-53.316186-32.0384 0l15.21328 27.265577-0.0294-2.64e-4 0.0156 0.02593-31.21845 0.561446c-61.56378 0.204258-14.49387 81.110665 16.11101 27.692875l15.91495-26.857057 0.0122 0.02196 0.0143-0.02567 16.03878 26.787997c30.84644 53.27862 77.54937-27.840509 15.98533-27.765897z" fill="#ff3f62" stroke-width=".26458332"/>
      <g transform="matrix(.26458333 0 0 .26458333 157.88373 30.675685)" fill="#e91e63">
       <path d="m255.952 414.824c-4.328 0-7.837 3.509-7.837 7.837v32.914c0 4.328 3.509 7.837 7.837 7.837s7.837-3.509 7.837-7.837v-32.915c-1e-3 -4.328-3.509-7.836-7.837-7.836z"/>
       <path d="m131.527 162.764 20.179 16.748c1.463 1.215 3.237 1.807 5.001 1.807 2.251 0 4.485-0.964 6.034-2.832 2.765-3.331 2.306-8.271-1.025-11.035l-20.179-16.748c-3.331-2.765-8.271-2.306-11.035 1.025-2.764 3.33-2.305 8.271 1.025 11.035z"/>
       <path d="m119.277 321.194-28.968 15.686c-3.807 2.061-5.22 6.817-3.16 10.623 1.419 2.62 4.115 4.106 6.898 4.106 1.26 0 2.538-0.305 3.724-0.947l28.968-15.686c3.806-2.061 5.22-6.817 3.16-10.623-2.06-3.805-6.816-5.221-10.622-3.159z"/>
       <path d="m397.051 371.146-20.883-18.62c-3.23-2.88-8.185-2.597-11.064 0.634-2.88 3.231-2.597 8.185 0.634 11.064l20.883 18.62c1.494 1.332 3.356 1.987 5.213 1.987 2.156 0 4.304-0.885 5.852-2.622 2.879-3.228 2.596-8.182-0.635-11.063z"/>
       <path d="m394.453 296.677-120.48-42.674 122.047-77.06c3.659-2.31 4.753-7.15 2.443-10.811-2.31-3.66-7.151-4.753-10.811-2.443l-123.682 78.093v-116.917c0-4.328-3.509-7.837-7.837-7.837s-7.837 3.509-7.837 7.837v114.447l-66.245-54.981c-3.331-2.765-8.272-2.306-11.035 1.025-2.765 3.331-2.305 8.271 1.025 11.035l44.864 37.236-106.29-38.07c-4.071-1.458-8.56 0.66-10.02 4.735-1.46 4.074 0.66 8.561 4.735 10.02l131.645 47.151-83.995 45.482c-3.807 2.061-5.22 6.817-3.16 10.623 1.419 2.62 4.115 4.106 6.898 4.106 1.26 0 2.539-0.305 3.724-0.947l87.628-47.45 0.043 120.473c1e-3 4.327 3.51 7.834 7.837 7.834h2e-3c4.329-1e-3 7.836-3.511 7.835-7.839l-0.042-116.456 81.852 72.981c1.494 1.332 3.356 1.987 5.213 1.987 2.157 0 4.304-0.885 5.853-2.622 2.88-3.231 2.597-8.185-0.634-11.064l-64.889-57.857 98.08 34.74c0.865 0.306 1.748 0.451 2.616 0.451 3.226 0 6.249-2.007 7.387-5.222 1.446-4.081-0.69-8.561-4.77-10.006z"/>
       <path d="m256.133 96.13c4.328 0 7.837-3.509 7.837-7.837v-33.097c0-4.328-3.509-7.837-7.837-7.837s-7.837 3.509-7.837 7.837v33.097c1e-3 4.328 3.509 7.837 7.837 7.837z"/>
      </g>
      <circle cx="225.65305" cy="98.408752" r="16.173185" fill="#fbc02d" stroke-width=".26458332"/>
     </g>
    </g>
    <g transform="matrix(.5251023 0 0 .5251023 -61.717404 97.772079)">
     <g stroke-width=".26458332">
      <path d="m359.37044 249.18917c22.1488-1.15146 38.0111-17.01376 39.16256-39.16256-22.1488 1.15146-38.0111 17.01376-39.16256 39.16256z" fill="#8bc540"/>
      <path d="m388.41957 220.14004-28.7655 26.0604c-0.1143 0.9906-0.23283 1.97697-0.28363 2.98873 1.016-0.055 2.00236-0.16933 2.98873-0.28363z" fill="#719c40"/>
      <path d="m355.23447 261.82991c-18.2245-0.94827-31.27587-13.99964-32.22413-32.22414 18.2245 0.9525 31.27586 13.99964 32.22413 32.22414z" fill="#8bc540"/>
      <path d="m331.33307 237.93274 23.66857 21.4376c0.0931 0.8128 0.1905 1.6256 0.23283 2.45957-0.83397-0.0423-1.64677-0.1397-2.45957-0.23284z" fill="#719c40"/>
      <path d="m349.1427 268.45507c-0.14393-3.39936 0.46567-6.7056 1.82034-9.82556 9.22443-21.25134 8.60636-44.21717-1.69334-63.00894-4.91066-8.96196-8.80533-14.8082-8.84343-14.86746l5.77003-3.85657c0.1651 0.24553 4.0894 6.13833 9.16094 15.38817 11.3411 20.68406 12.06076 45.8724 1.97696 69.10916-0.93133 2.1463-1.35466 4.42383-1.25306 6.76487z" fill="#997960"/>
     </g>
     <g transform="matrix(.72461696 0 0 .72461696 180.58782 109.16378)">
      <path d="m209.5849 126.15481c-30.78215 53.31645-77.58377-27.746057-16.01946-27.746057-61.56431 0-14.76296-81.062512 16.01946-27.74606-30.78215-53.316187 62.82055-53.316187 32.0384 0 30.78215-53.316452 77.58377 27.74606 16.01946 27.74606 61.56431 0 14.76269 81.062507-16.01946 27.746057 30.78215 53.31645-62.82055 53.31645-32.0384 0z" fill="#ff728b" stroke-width=".26458332"/>
      <path d="m257.64276 98.369859-31.22057-0.419894 0.0156-0.02593-0.0251 5.29e-4 15.2109-27.261608c30.78215-53.316186-62.82055-53.316186-32.0384 0l15.21328 27.265577-0.0294-2.64e-4 0.0156 0.02593-31.21845 0.561446c-61.56378 0.204258-14.49387 81.110665 16.11101 27.692875l15.91495-26.857057 0.0122 0.02196 0.0143-0.02567 16.03878 26.787997c30.84644 53.27862 77.54937-27.840509 15.98533-27.765897z" fill="#ff3f62" stroke-width=".26458332"/>
      <g transform="matrix(.26458333 0 0 .26458333 157.88373 30.675685)" fill="#e91e63">
       <path d="m255.952 414.824c-4.328 0-7.837 3.509-7.837 7.837v32.914c0 4.328 3.509 7.837 7.837 7.837s7.837-3.509 7.837-7.837v-32.915c-1e-3 -4.328-3.509-7.836-7.837-7.836z"/>
       <path d="m131.527 162.764 20.179 16.748c1.463 1.215 3.237 1.807 5.001 1.807 2.251 0 4.485-0.964 6.034-2.832 2.765-3.331 2.306-8.271-1.025-11.035l-20.179-16.748c-3.331-2.765-8.271-2.306-11.035 1.025-2.764 3.33-2.305 8.271 1.025 11.035z"/>
       <path d="m119.277 321.194-28.968 15.686c-3.807 2.061-5.22 6.817-3.16 10.623 1.419 2.62 4.115 4.106 6.898 4.106 1.26 0 2.538-0.305 3.724-0.947l28.968-15.686c3.806-2.061 5.22-6.817 3.16-10.623-2.06-3.805-6.816-5.221-10.622-3.159z"/>
       <path d="m397.051 371.146-20.883-18.62c-3.23-2.88-8.185-2.597-11.064 0.634-2.88 3.231-2.597 8.185 0.634 11.064l20.883 18.62c1.494 1.332 3.356 1.987 5.213 1.987 2.156 0 4.304-0.885 5.852-2.622 2.879-3.228 2.596-8.182-0.635-11.063z"/>
       <path d="m394.453 296.677-120.48-42.674 122.047-77.06c3.659-2.31 4.753-7.15 2.443-10.811-2.31-3.66-7.151-4.753-10.811-2.443l-123.682 78.093v-116.917c0-4.328-3.509-7.837-7.837-7.837s-7.837 3.509-7.837 7.837v114.447l-66.245-54.981c-3.331-2.765-8.272-2.306-11.035 1.025-2.765 3.331-2.305 8.271 1.025 11.035l44.864 37.236-106.29-38.07c-4.071-1.458-8.56 0.66-10.02 4.735-1.46 4.074 0.66 8.561 4.735 10.02l131.645 47.151-83.995 45.482c-3.807 2.061-5.22 6.817-3.16 10.623 1.419 2.62 4.115 4.106 6.898 4.106 1.26 0 2.539-0.305 3.724-0.947l87.628-47.45 0.043 120.473c1e-3 4.327 3.51 7.834 7.837 7.834h2e-3c4.329-1e-3 7.836-3.511 7.835-7.839l-0.042-116.456 81.852 72.981c1.494 1.332 3.356 1.987 5.213 1.987 2.157 0 4.304-0.885 5.853-2.622 2.88-3.231 2.597-8.185-0.634-11.064l-64.889-57.857 98.08 34.74c0.865 0.306 1.748 0.451 2.616 0.451 3.226 0 6.249-2.007 7.387-5.222 1.446-4.081-0.69-8.561-4.77-10.006z"/>
       <path d="m256.133 96.13c4.328 0 7.837-3.509 7.837-7.837v-33.097c0-4.328-3.509-7.837-7.837-7.837s-7.837 3.509-7.837 7.837v33.097c1e-3 4.328 3.509 7.837 7.837 7.837z"/>
      </g>
      <circle cx="225.65305" cy="98.408752" r="16.173185" fill="#fbc02d" stroke-width=".26458332"/>
     </g>
    </g>
    <g transform="matrix(.44015721 0 0 .44015721 -60.084404 120.175)">
     <g transform="matrix(-1,0,0,1,869.21986,0)" stroke-width=".26458332">
      <path d="m359.37044 249.18917c22.1488-1.15146 38.0111-17.01376 39.16256-39.16256-22.1488 1.15146-38.0111 17.01376-39.16256 39.16256z" fill="#8bc540"/>
      <path d="m388.41957 220.14004-28.7655 26.0604c-0.1143 0.9906-0.23283 1.97697-0.28363 2.98873 1.016-0.055 2.00236-0.16933 2.98873-0.28363z" fill="#719c40"/>
      <path d="m355.23447 261.82991c-18.2245-0.94827-31.27587-13.99964-32.22413-32.22414 18.2245 0.9525 31.27586 13.99964 32.22413 32.22414z" fill="#8bc540"/>
      <path d="m331.33307 237.93274 23.66857 21.4376c0.0931 0.8128 0.1905 1.6256 0.23283 2.45957-0.83397-0.0423-1.64677-0.1397-2.45957-0.23284z" fill="#719c40"/>
      <path d="m349.1427 268.45507c-0.14393-3.39936 0.46567-6.7056 1.82034-9.82556 9.22443-21.25134 8.60636-44.21717-1.69334-63.00894-4.91066-8.96196-8.80533-14.8082-8.84343-14.86746l5.77003-3.85657c0.1651 0.24553 4.0894 6.13833 9.16094 15.38817 11.3411 20.68406 12.06076 45.8724 1.97696 69.10916-0.93133 2.1463-1.35466 4.42383-1.25306 6.76487z" fill="#997960"/>
     </g>
     <g transform="matrix(.72461696 0 0 .72461696 361.56395 109.16378)">
      <path d="m209.5849 126.15481c-30.78215 53.31645-77.58377-27.746057-16.01946-27.746057-61.56431 0-14.76296-81.062512 16.01946-27.74606-30.78215-53.316187 62.82055-53.316187 32.0384 0 30.78215-53.316452 77.58377 27.74606 16.01946 27.74606 61.56431 0 14.76269 81.062507-16.01946 27.746057 30.78215 53.31645-62.82055 53.31645-32.0384 0z" fill="#ff728b" stroke-width=".26458332"/>
      <path d="m257.64276 98.369859-31.22057-0.419894 0.0156-0.02593-0.0251 5.29e-4 15.2109-27.261608c30.78215-53.316186-62.82055-53.316186-32.0384 0l15.21328 27.265577-0.0294-2.64e-4 0.0156 0.02593-31.21845 0.561446c-61.56378 0.204258-14.49387 81.110665 16.11101 27.692875l15.91495-26.857057 0.0122 0.02196 0.0143-0.02567 16.03878 26.787997c30.84644 53.27862 77.54937-27.840509 15.98533-27.765897z" fill="#ff3f62" stroke-width=".26458332"/>
      <g transform="matrix(.26458333 0 0 .26458333 157.88373 30.675685)" fill="#e91e63">
       <path d="m255.952 414.824c-4.328 0-7.837 3.509-7.837 7.837v32.914c0 4.328 3.509 7.837 7.837 7.837s7.837-3.509 7.837-7.837v-32.915c-1e-3 -4.328-3.509-7.836-7.837-7.836z"/>
       <path d="m131.527 162.764 20.179 16.748c1.463 1.215 3.237 1.807 5.001 1.807 2.251 0 4.485-0.964 6.034-2.832 2.765-3.331 2.306-8.271-1.025-11.035l-20.179-16.748c-3.331-2.765-8.271-2.306-11.035 1.025-2.764 3.33-2.305 8.271 1.025 11.035z"/>
       <path d="m119.277 321.194-28.968 15.686c-3.807 2.061-5.22 6.817-3.16 10.623 1.419 2.62 4.115 4.106 6.898 4.106 1.26 0 2.538-0.305 3.724-0.947l28.968-15.686c3.806-2.061 5.22-6.817 3.16-10.623-2.06-3.805-6.816-5.221-10.622-3.159z"/>
       <path d="m397.051 371.146-20.883-18.62c-3.23-2.88-8.185-2.597-11.064 0.634-2.88 3.231-2.597 8.185 0.634 11.064l20.883 18.62c1.494 1.332 3.356 1.987 5.213 1.987 2.156 0 4.304-0.885 5.852-2.622 2.879-3.228 2.596-8.182-0.635-11.063z"/>
       <path d="m394.453 296.677-120.48-42.674 122.047-77.06c3.659-2.31 4.753-7.15 2.443-10.811-2.31-3.66-7.151-4.753-10.811-2.443l-123.682 78.093v-116.917c0-4.328-3.509-7.837-7.837-7.837s-7.837 3.509-7.837 7.837v114.447l-66.245-54.981c-3.331-2.765-8.272-2.306-11.035 1.025-2.765 3.331-2.305 8.271 1.025 11.035l44.864 37.236-106.29-38.07c-4.071-1.458-8.56 0.66-10.02 4.735-1.46 4.074 0.66 8.561 4.735 10.02l131.645 47.151-83.995 45.482c-3.807 2.061-5.22 6.817-3.16 10.623 1.419 2.62 4.115 4.106 6.898 4.106 1.26 0 2.539-0.305 3.724-0.947l87.628-47.45 0.043 120.473c1e-3 4.327 3.51 7.834 7.837 7.834h2e-3c4.329-1e-3 7.836-3.511 7.835-7.839l-0.042-116.456 81.852 72.981c1.494 1.332 3.356 1.987 5.213 1.987 2.157 0 4.304-0.885 5.853-2.622 2.88-3.231 2.597-8.185-0.634-11.064l-64.889-57.857 98.08 34.74c0.865 0.306 1.748 0.451 2.616 0.451 3.226 0 6.249-2.007 7.387-5.222 1.446-4.081-0.69-8.561-4.77-10.006z"/>
       <path d="m256.133 96.13c4.328 0 7.837-3.509 7.837-7.837v-33.097c0-4.328-3.509-7.837-7.837-7.837s-7.837 3.509-7.837 7.837v33.097c1e-3 4.328 3.509 7.837 7.837 7.837z"/>
      </g>
      <circle cx="225.65305" cy="98.408752" r="16.173185" fill="#fbc02d" stroke-width=".26458332"/>
     </g>
    </g>
    <g transform="matrix(.5251023 0 0 .5251023 37.216215 97.772079)">
     <g stroke-width=".26458332">
      <path d="m359.37044 249.18917c22.1488-1.15146 38.0111-17.01376 39.16256-39.16256-22.1488 1.15146-38.0111 17.01376-39.16256 39.16256z" fill="#8bc540"/>
      <path d="m388.41957 220.14004-28.7655 26.0604c-0.1143 0.9906-0.23283 1.97697-0.28363 2.98873 1.016-0.055 2.00236-0.16933 2.98873-0.28363z" fill="#719c40"/>
      <path d="m355.23447 261.82991c-18.2245-0.94827-31.27587-13.99964-32.22413-32.22414 18.2245 0.9525 31.27586 13.99964 32.22413 32.22414z" fill="#8bc540"/>
      <path d="m331.33307 237.93274 23.66857 21.4376c0.0931 0.8128 0.1905 1.6256 0.23283 2.45957-0.83397-0.0423-1.64677-0.1397-2.45957-0.23284z" fill="#719c40"/>
      <path d="m349.1427 268.45507c-0.14393-3.39936 0.46567-6.7056 1.82034-9.82556 9.22443-21.25134 8.60636-44.21717-1.69334-63.00894-4.91066-8.96196-8.80533-14.8082-8.84343-14.86746l5.77003-3.85657c0.1651 0.24553 4.0894 6.13833 9.16094 15.38817 11.3411 20.68406 12.06076 45.8724 1.97696 69.10916-0.93133 2.1463-1.35466 4.42383-1.25306 6.76487z" fill="#997960"/>
     </g>
     <g transform="matrix(.72461696 0 0 .72461696 180.58782 109.16378)">
      <path d="m209.5849 126.15481c-30.78215 53.31645-77.58377-27.746057-16.01946-27.746057-61.56431 0-14.76296-81.062512 16.01946-27.74606-30.78215-53.316187 62.82055-53.316187 32.0384 0 30.78215-53.316452 77.58377 27.74606 16.01946 27.74606 61.56431 0 14.76269 81.062507-16.01946 27.746057 30.78215 53.31645-62.82055 53.31645-32.0384 0z" fill="#ff728b" stroke-width=".26458332"/>
      <path d="m257.64276 98.369859-31.22057-0.419894 0.0156-0.02593-0.0251 5.29e-4 15.2109-27.261608c30.78215-53.316186-62.82055-53.316186-32.0384 0l15.21328 27.265577-0.0294-2.64e-4 0.0156 0.02593-31.21845 0.561446c-61.56378 0.204258-14.49387 81.110665 16.11101 27.692875l15.91495-26.857057 0.0122 0.02196 0.0143-0.02567 16.03878 26.787997c30.84644 53.27862 77.54937-27.840509 15.98533-27.765897z" fill="#ff3f62" stroke-width=".26458332"/>
      <g transform="matrix(.26458333 0 0 .26458333 157.88373 30.675685)" fill="#e91e63">
       <path d="m255.952 414.824c-4.328 0-7.837 3.509-7.837 7.837v32.914c0 4.328 3.509 7.837 7.837 7.837s7.837-3.509 7.837-7.837v-32.915c-1e-3 -4.328-3.509-7.836-7.837-7.836z"/>
       <path d="m131.527 162.764 20.179 16.748c1.463 1.215 3.237 1.807 5.001 1.807 2.251 0 4.485-0.964 6.034-2.832 2.765-3.331 2.306-8.271-1.025-11.035l-20.179-16.748c-3.331-2.765-8.271-2.306-11.035 1.025-2.764 3.33-2.305 8.271 1.025 11.035z"/>
       <path d="m119.277 321.194-28.968 15.686c-3.807 2.061-5.22 6.817-3.16 10.623 1.419 2.62 4.115 4.106 6.898 4.106 1.26 0 2.538-0.305 3.724-0.947l28.968-15.686c3.806-2.061 5.22-6.817 3.16-10.623-2.06-3.805-6.816-5.221-10.622-3.159z"/>
       <path d="m397.051 371.146-20.883-18.62c-3.23-2.88-8.185-2.597-11.064 0.634-2.88 3.231-2.597 8.185 0.634 11.064l20.883 18.62c1.494 1.332 3.356 1.987 5.213 1.987 2.156 0 4.304-0.885 5.852-2.622 2.879-3.228 2.596-8.182-0.635-11.063z"/>
       <path d="m394.453 296.677-120.48-42.674 122.047-77.06c3.659-2.31 4.753-7.15 2.443-10.811-2.31-3.66-7.151-4.753-10.811-2.443l-123.682 78.093v-116.917c0-4.328-3.509-7.837-7.837-7.837s-7.837 3.509-7.837 7.837v114.447l-66.245-54.981c-3.331-2.765-8.272-2.306-11.035 1.025-2.765 3.331-2.305 8.271 1.025 11.035l44.864 37.236-106.29-38.07c-4.071-1.458-8.56 0.66-10.02 4.735-1.46 4.074 0.66 8.561 4.735 10.02l131.645 47.151-83.995 45.482c-3.807 2.061-5.22 6.817-3.16 10.623 1.419 2.62 4.115 4.106 6.898 4.106 1.26 0 2.539-0.305 3.724-0.947l87.628-47.45 0.043 120.473c1e-3 4.327 3.51 7.834 7.837 7.834h2e-3c4.329-1e-3 7.836-3.511 7.835-7.839l-0.042-116.456 81.852 72.981c1.494 1.332 3.356 1.987 5.213 1.987 2.157 0 4.304-0.885 5.853-2.622 2.88-3.231 2.597-8.185-0.634-11.064l-64.889-57.857 98.08 34.74c0.865 0.306 1.748 0.451 2.616 0.451 3.226 0 6.249-2.007 7.387-5.222 1.446-4.081-0.69-8.561-4.77-10.006z"/>
       <path d="m256.133 96.13c4.328 0 7.837-3.509 7.837-7.837v-33.097c0-4.328-3.509-7.837-7.837-7.837s-7.837 3.509-7.837 7.837v33.097c1e-3 4.328 3.509 7.837 7.837 7.837z"/>
      </g>
      <circle cx="225.65305" cy="98.408752" r="16.173185" fill="#fbc02d" stroke-width=".26458332"/>
     </g>
    </g>
   </g>
   <g transform="matrix(.38126709 0 0 .38126709 -80.221873 -97.619954)" stroke-width=".26458332">
    <path d="m415.52845 142.81006h10.12137c3.7809-6.93633 10.24255-12.19571 17.99802-14.38197-1.56025-3.7883-5.28611-6.45504-9.63586-6.45504-1.08744 0-2.13492 0.16749-3.11944 0.47573 5e-3 -0.15823 0.0122-0.31618 0.0122-0.47573 0-7.73747-6.27433-14.01127-14.01233-14.01127-6.67359 0-12.25259 4.66513-13.66361 10.91115-0.8382-0.2794-1.73249-0.43233-2.66409-0.43233-2.8665 0-5.39697 1.4351-6.91436 3.62559-0.84666-0.21828-1.73566-0.33655-2.65086-0.33655-5.82083 0-10.53941 4.71884-10.53941 10.53994 0 5.82004 4.71884 10.53995 10.53941 10.53995h16.85052" fill="#fff"/>
    <path d="m518.6104 97.501331c-5.41549-5.792523-13.12519-9.413345-21.68022-9.413345-14.13087 0-25.94663 9.880864-28.93537 23.108704-1.77376-0.59161-3.66844-0.91705-5.64038-0.91705-6.0714 0-11.42894 3.04007-14.64231 7.67874-1.79361-0.46328-3.67453-0.71226-5.6134-0.71226-12.32694 0-22.31972 9.99279-22.31972 22.31972 0 12.32641 9.99278 22.32052 22.31972 22.32052h24.60916c0.0519-7.58693 6.2148-13.72076 13.81284-13.72076 1.44092 0 2.83025 0.22092 4.13623 0.63023-6e-3 -0.20902-0.0156-0.41857-0.0156-0.63023 0-10.2624 8.31903-18.58169 18.58116-18.58169 8.84846 0 16.24806 6.18781 18.11946 14.47033 1.11045-0.37069 2.29605-0.57415 3.53113-0.57415 3.80153 0 7.15724 1.90341 9.16913 4.8088 1.12316-0.29051 2.30082-0.44661 3.51473-0.44661 5.0882 0 9.54008 2.71965 11.9843 6.78312 3.54436-3.91398 5.70362-9.10537 5.70362-14.80079 0-12.18565-9.87742-22.06202-22.06202-22.06202-2.30081 0-4.51908 0.35269-6.60479 1.00621 0.0109-0.33417 0.0254-0.66913 0.0254-1.00621 0-4.98263-1.22793-9.67819-3.39857-13.80146" fill="#f9f9f9"/>
    <path d="m537.55721 147.25173c-1.21391 0-2.3921 0.15557-3.51472 0.44661-2.0119-2.90565-5.36761-4.8088-9.16914-4.8088-1.23507 0-2.42067 0.20346-3.53113 0.57415-1.87166-8.28279-9.271-14.47033-18.11946-14.47033-10.26213 0-18.58116 8.31929-18.58116 18.58169 0 0.21166 9e-3 0.42121 0.0156 0.63023-1.30598-0.40931-2.69531-0.63023-4.13623-0.63023-7.62926 0-13.81442 6.1841-13.81442 13.81548 0 7.62926 6.18543 13.8139 13.81442 13.8139h57.03676c7.71922 0 13.97714-6.25767 13.97714-13.97635-5.3e-4 -7.71922-6.25845-13.97635-13.97767-13.97635z" fill="#fff"/>
   </g>
   <g transform="matrix(-.28189712 0 0 .28189712 169.85078 -70.62735)" stroke-width=".26458332">
    <path d="m415.52845 142.81006h10.12137c3.7809-6.93633 10.24255-12.19571 17.99802-14.38197-1.56025-3.7883-5.28611-6.45504-9.63586-6.45504-1.08744 0-2.13492 0.16749-3.11944 0.47573 5e-3 -0.15823 0.0122-0.31618 0.0122-0.47573 0-7.73747-6.27433-14.01127-14.01233-14.01127-6.67359 0-12.25259 4.66513-13.66361 10.91115-0.8382-0.2794-1.73249-0.43233-2.66409-0.43233-2.8665 0-5.39697 1.4351-6.91436 3.62559-0.84666-0.21828-1.73566-0.33655-2.65086-0.33655-5.82083 0-10.53941 4.71884-10.53941 10.53994 0 5.82004 4.71884 10.53995 10.53941 10.53995h16.85052" fill="#fff"/>
    <path d="m518.6104 97.501331c-5.41549-5.792523-13.12519-9.413345-21.68022-9.413345-14.13087 0-25.94663 9.880864-28.93537 23.108704-1.77376-0.59161-3.66844-0.91705-5.64038-0.91705-6.0714 0-11.42894 3.04007-14.64231 7.67874-1.79361-0.46328-3.67453-0.71226-5.6134-0.71226-12.32694 0-22.31972 9.99279-22.31972 22.31972 0 12.32641 9.99278 22.32052 22.31972 22.32052h24.60916c0.0519-7.58693 6.2148-13.72076 13.81284-13.72076 1.44092 0 2.83025 0.22092 4.13623 0.63023-6e-3 -0.20902-0.0156-0.41857-0.0156-0.63023 0-10.2624 8.31903-18.58169 18.58116-18.58169 8.84846 0 16.24806 6.18781 18.11946 14.47033 1.11045-0.37069 2.29605-0.57415 3.53113-0.57415 3.80153 0 7.15724 1.90341 9.16913 4.8088 1.12316-0.29051 2.30082-0.44661 3.51473-0.44661 5.0882 0 9.54008 2.71965 11.9843 6.78312 3.54436-3.91398 5.70362-9.10537 5.70362-14.80079 0-12.18565-9.87742-22.06202-22.06202-22.06202-2.30081 0-4.51908 0.35269-6.60479 1.00621 0.0109-0.33417 0.0254-0.66913 0.0254-1.00621 0-4.98263-1.22793-9.67819-3.39857-13.80146" fill="#f9f9f9"/>
    <path d="m537.55721 147.25173c-1.21391 0-2.3921 0.15557-3.51472 0.44661-2.0119-2.90565-5.36761-4.8088-9.16914-4.8088-1.23507 0-2.42067 0.20346-3.53113 0.57415-1.87166-8.28279-9.271-14.47033-18.11946-14.47033-10.26213 0-18.58116 8.31929-18.58116 18.58169 0 0.21166 9e-3 0.42121 0.0156 0.63023-1.30598-0.40931-2.69531-0.63023-4.13623-0.63023-7.62926 0-13.81442 6.1841-13.81442 13.81548 0 7.62926 6.18543 13.8139 13.81442 13.8139h57.03676c7.71922 0 13.97714-6.25767 13.97714-13.97635-5.3e-4 -7.71922-6.25845-13.97635-13.97767-13.97635z" fill="#fff"/>
   </g>
  </g>
  <g fill="#fff" stroke="#43a838" stroke-width="1.0583334">
   <g style="font-feature-settings:normal;font-variant-caps:normal;font-variant-ligatures:normal;font-variant-numeric:normal" aria-label="1">
    <path d="m21.444428 176.14117-2.790528 0.0775-0.766534 0.62873v2.64411l0.68902-0.31867 0.07751 8.33713h3.014459z" fill="#fff" stroke="#43a838" stroke-width="1.0583334" style="font-feature-settings:normal;font-variant-caps:normal;font-variant-ligatures:normal;font-variant-numeric:normal"/>
   </g>
   <g style="font-feature-settings:normal;font-variant-caps:normal;font-variant-ligatures:normal;font-variant-numeric:normal" aria-label="2">
    <path d="m49.344542 181.55801q-2.592435-1.57613-4.823134-0.0258-1.119656 0.81821-1.972318 2.02399l1.739774 2.20486q0.223931-0.36173 0.62873-0.67179 0.895725-0.89573 1.800062-0.70625 0.508152 0.11197 0.413412 0.68902-0.07751 0.49093-0.577054 1.2833-0.938788 1.47278-2.290988 2.3685-0.585667 0.49954-1.085206 0.8785l-0.206705 3.04891 7.002156 0.14642 0.0086-2.91972-3.539836 0.16364q1.679485-1.55029 2.876655-3.37619 1.050754-1.59336 1.171333-2.79914 0.163642-1.50723-1.145494-2.30822z" fill="#fff" stroke="#43a838" stroke-width="1.0583334" style="font-feature-settings:normal;font-variant-caps:normal;font-variant-ligatures:normal;font-variant-numeric:normal"/>
   </g>
   <g style="font-feature-settings:normal;font-variant-caps:normal;font-variant-ligatures:normal;font-variant-numeric:normal" aria-label="3">
    <path d="m67.436681 176.30385 0.07752 2.62689 3.315904-0.0775-2.790527 2.024q0.766534-0.11197 1.507229 0.0861 1.498617 0.39619 1.455553 1.95509-0.05168 1.56752-1.507229 1.54169-0.732083-0.0172-1.455553-0.34451l-0.680407 2.80775q1.240235 0.39618 2.7044 0.42202 2.902494 0.0603 3.970473-1.76561 1.464166-2.51492-0.02584-4.25469-0.749308-0.86989-1.713935-1.32636l2.980008-3.66042z" fill="#fff" stroke="#43a838" stroke-width="1.0583334" style="font-feature-settings:normal;font-variant-caps:normal;font-variant-ligatures:normal;font-variant-numeric:normal"/>
   </g>
   <g style="font-feature-settings:normal;font-variant-caps:normal;font-variant-ligatures:normal;font-variant-numeric:normal" aria-label="4">
    <path d="m98.428849 184.83837h-1.800062l0.07751-3.85851-2.971394 0.0861v6.25285l4.5303 0.16364-0.327284 5.02123 3.117811 0.0775 0.24977-11.60136h-2.79914z" fill="#fff" stroke="#43a838" stroke-width="1.0583334" style="font-feature-settings:normal;font-variant-caps:normal;font-variant-ligatures:normal;font-variant-numeric:normal"/>
   </g>
   <g style="font-feature-settings:normal;font-variant-caps:normal;font-variant-ligatures:normal;font-variant-numeric:normal" aria-label="5">
    <path d="m120.89143 178.79482 4.52169 0.18948 0.26699-2.54075-6.98493-0.267 0.11197 5.32267q1.06797-0.22393 1.98954-0.1378 1.84312 0.18087 1.88619 1.74839 0.0517 1.57613-1.5503 1.79145-0.80098 0.11196-1.61919-0.0947l-0.15503 2.60104q1.70532 0.20671 3.39342-0.22393 3.36758-0.84405 3.20394-3.9877-0.14642-3.14365-2.6355-3.77238-1.23162-0.39618-2.44602-0.0775z" fill="#fff" stroke="#43a838" stroke-width="1.0583334" style="font-feature-settings:normal;font-variant-caps:normal;font-variant-ligatures:normal;font-variant-numeric:normal"/>
   </g>
  </g>
  <rect x="-3.873641" y="73.092392" width="148.69583" height="135.46666" opacity="0" stroke-width="1.35305536"/>
 </g>
</svg>
