<?xml version="1.0" encoding="UTF-8"?>
<!-- Created with Inkscape (http://www.inkscape.org/) -->
<svg width="512" height="511.99997" version="1.1" viewBox="0 0 135.46667 135.46666" xmlns="http://www.w3.org/2000/svg" xmlns:cc="http://creativecommons.org/ns#" xmlns:dc="http://purl.org/dc/elements/1.1/" xmlns:rdf="http://www.w3.org/1999/02/22-rdf-syntax-ns#">
 <metadata>
  <rdf:RDF>
   <cc:Work rdf:about="">
    <dc:format>image/svg+xml</dc:format>
    <dc:type rdf:resource="http://purl.org/dc/dcmitype/StillImage"/>
    <dc:title/>
   </cc:Work>
  </rdf:RDF>
 </metadata>
 <g transform="translate(-159.94711,-3.3474121e-6)">
  <g transform="translate(150.28982,3.6532923e-6)">
   <path d="m130.86933 84.604345 5.94192-1.922824v-80.7586953l-5.94192 3.8456523-8.91287-5.768478306-8.91287 5.768478306-8.91288-5.768478306-8.912878 5.768478306-8.912875-5.768478306-8.912873 5.768478306-8.912881-5.768478306-8.912874 5.768478306-8.912874-5.768478306-8.912874 5.768478306-8.912881-5.768478306-8.912873 5.768478306-5.94192-3.8456523v79.3857953l5.94192 3.295724-6.203364 3.845653-8.0126723 16.463242c-0.335718 1.45557 1.4082313 2.76502 3.6810193 2.76502h128.02158c2.27575 0 4.01673-1.30945 3.68101-2.76502l-8.27115-16.463242z" fill="#f0d7b8" stroke-width="2.39011216"/>
   <path d="m124.72973 84.584043 5.25977-1.702075v-73.77486l-5.25977 3.404154-7.88964-5.1062305-7.88963 5.1062305-7.88963-5.1062305-7.889643 5.1062305-7.889636-5.1062305-7.889635 5.1062305-7.889644-5.1062305-7.889629 5.1062305-7.889636-5.1062305-7.889638 5.1062305-7.889641-5.1062305-7.889639 5.1062305-5.259751-3.404154v72.559574l5.259751 2.917361-5.491182 3.404155-7.092784 14.573182c-0.297172 1.28847 1.24656 2.44758 3.258422 2.44758h113.324105c2.01449 0 3.5556-1.15911 3.25843-2.44758l-7.32158-14.573182z" fill="#e7bf8e" stroke-width="2.11571646"/>
  </g>
  <rect transform="matrix(.9624691 -.27139128 .24674887 .96907946 0 0)" x="178.09576" y="160.80362" width="71.887543" height="27.731937" ry="3.5471084" fill="#64dd17" stroke-width=".46215186"/>
  <rect transform="matrix(.9624691 -.27139128 .24674887 .96907946 0 0)" x="183.11116" y="162.7384" width="61.85672" height="23.862366" ry="3.0521629" fill="#fff" stroke-width=".46215186"/>
  <rect x="159.94711" y="3.3474121e-6" width="135.46666" height="135.46666" opacity="0" stroke-width="1.74694598"/>
  <g transform="matrix(.35652294 .86259838 -.85397633 .21542054 345.39095 56.636252)">
   <g transform="matrix(.1229936 -.45600224 .43332159 .12943126 -184.08599 421.56698)" stroke-width=".25220844">
    <path d="m676.95561 153.50839c-0.28885-2.24835-3.05053-3.16424-4.62554-1.53366l-6.11024 6.32382-6.11023 6.32382c-1.57503 1.63008-0.56508 4.35868 1.69161 4.57014l17.37996 1.62937z" fill="#2196f3"/>
    <path d="m677.85968 169.54552-18.20534-6.78522c-0.97359-0.36291-1.25551-1.60567-0.5333-2.35287l8.96188-9.27514c0.72195-0.7472 1.97366-0.50838 2.36979 0.45218z" fill="#29b6f6"/>
    <path d="m711.64472 214.67285 6.11024-6.32383 6.11024-6.32382c1.57502-1.63007 0.56507-4.35867-1.69187-4.57013l-17.37997-1.62937 2.22532 17.31375c0.28935 2.24809 3.05102 3.16347 4.62604 1.5334z" fill="#2196f3"/>
   </g>
   <g transform="matrix(.109804 .03066361 -.02913846 .11555129 -39.163519 91.656727)" fill="#29b6f6">
    <path d="m304.28 207.544 71.711-28.139c3.835-1.505 4.868-6.451 1.954-9.364l-36.16-36.16c-2.913-2.913-7.859-1.881-9.364 1.954z"/>
    <path d="m329.294 209.753c-1.524-14.356-12.866-25.698-27.223-27.223l-44.247-4.698 0.034 0.034c-24.89-2.659-50.72 5.544-69.798 24.623-19.064 19.063-27.276 44.871-24.635 69.743l4.698 44.247c1.524 14.356 12.866 25.698 27.223 27.223l44.247 4.698c24.873 2.64 50.68-5.571 69.743-24.635 19.078-19.078 27.281-44.909 24.623-69.798l0.034 0.034z"/>
   </g>
  </g>
  <g transform="rotate(-15)" fill="#424242" stroke-width=".26458335" aria-label="Javier">
   <path d="m201.66488 163.59079h0.17225q0.93879 0 1.03353 0.24116v0.10335q0 0.4737-0.75792 0.65457-0.58567 0-0.58567 0.48231-0.10335 0-0.24115 6.16672-0.267 5.07291-0.82683 5.58106-0.79237 0.71486-1.68809 0.96462-0.70625 0-1.6881-1.72254l-0.0344-0.24116q0-0.22393 0.41341-0.51676 0.18948 0 1.13688 1.13688l0.10336 0.0689h0.2067q0.77515 0 1.06798-1.13688 0.31867-0.45648 0.48231-7.1658l-0.0689-0.82682v-2.30822q-0.0258-0.48231-0.17225-0.48231-0.29284 0-1.17133 0.24116-0.21532 0-0.27561-0.65457 0-0.55122 0.96462-0.55122z" style="font-feature-settings:normal;font-variant-caps:normal;font-variant-ligatures:normal;font-variant-numeric:normal"/>
   <path d="m205.18749 164.89993q0.71486 0.24977 1.24023 0.99908 0.48232 0.88711 0.80099 2.26515 0.32728 1.37803 0.37034 4.00492-0.0258 3.1092-0.19809 3.514 0 1.99815-0.58566 1.99815 0 0.0861-2.69579 0.10335-0.77515 0-1.27469-1.27468-0.1378-0.56844-0.1378-0.99908v-0.17225q0-1.19717 0.99908-2.48047 0.60289-0.68902 1.55029-0.68902l0.75792 0.0344h0.37896l0.0344-0.37896 0.0344-1.72255q0-1.44694-0.93017-3.5829-0.25838-0.31006-0.51677-0.31006h-0.1378q-0.10335 0-0.82682 0.48232h-0.0689q-0.55121-0.25839-0.55121-0.58567v-0.1378q0.90434-1.06798 1.757-1.06798zm-1.30914 10.26638v0.27561q0 0.76653 0.37896 1.06798h0.0689q1.76562-0.0775 1.80007-0.0861 0.31006-1.54168 0.0258-2.56659-0.2756-0.48232-0.89572-0.48232-0.62873 0-1.30914 1.20579z" style="font-feature-settings:normal;font-variant-caps:normal;font-variant-ligatures:normal;font-variant-numeric:normal"/>
   <path d="m214.06722 165.02912q0.58567 0 0.58567 0.72347 0 0.26699-0.48232 1.55029 0 0.30145-0.86127 3.514l-1.13688 4.96094-0.37896 1.65364q-0.20671 0.20671-0.34451 0.20671h-0.0344q-0.7407 0-0.86128-1.55029-0.34451-1.42111-0.82682-4.54753-0.31006-1.02492-0.51676-2.34267-0.0861-0.18086-0.34451-1.68809l-0.51677-1.5503q0-0.41341 0.82683-0.65456 0.49092 0 0.65456 1.30913 0.16365 0.36174 0.44787 2.58382 0.68902 2.98862 0.89572 4.40973 0.0517 0 0.10335 0.2756h0.13781q0.35312-0.59427 0.68902-2.37711 0.50815-1.62781 0.89572-3.47955 0.0861 0 0.20671-1.13688l0.24115-1.44694q0.3359-0.41341 0.62012-0.41341z" style="font-feature-settings:normal;font-variant-caps:normal;font-variant-ligatures:normal;font-variant-numeric:normal"/>
   <path d="m216.05676 164.43484q0.37896 0 0.58567 0.68902-0.17225 0.62012-0.68902 0.62012h-0.10335q-0.37896 0-0.48231-0.58567 0-0.44786 0.65456-0.72347zm0.12058 2.54937q0.37896 0 0.37896 1.58474l0.0345 1.6881q-0.0861 7.32083-0.24115 7.32083-0.37896 0.41341-0.68902 0.41341-0.37896 0-0.51677-0.96463l0.0345-0.0344v-0.0344l0.3445-3.13504 0.0689-3.37619-0.10336-2.56659q0.12058-0.89573 0.68902-0.89573z" style="font-feature-settings:normal;font-variant-caps:normal;font-variant-ligatures:normal;font-variant-numeric:normal"/>
   <path d="m219.54492 164.71045q0.75792 0 1.79145 0.82682 0.17226 0.31006 0.17226 0.62012 0 1.54168-0.99908 2.13596-1.14549 0.34451-1.8948 0.34451-0.17226 0.18086-0.17226 0.55121v0.58567q0 1.86896 0.48232 4.20301 0 1.25746 0.96462 2.44602 0.30145 0.24116 0.44787 0.24116h0.24115q0.34451-0.12919 0.86128-0.44786l0.2067-0.0345q0.24977 0 0.37896 0.41341 0 0.77514-1.20578 1.55029l-0.55122 0.10335q-0.49092 0-1.72254-1.34358-0.65457-1.02492-0.65457-2.48047-0.44786-2.18764-0.51677-5.58106 0-1.37804 0.96463-3.44509 0.8096-0.68902 1.20578-0.68902zm-0.79237 2.75607 0.17226 0.10336q1.0852 0 1.44694-0.58567 0.10335-0.18087 0.10335-0.34451v-0.1378q0-0.51677-0.65457-0.51677-0.91295 0-1.06798 1.44694z" style="font-feature-settings:normal;font-variant-caps:normal;font-variant-ligatures:normal;font-variant-numeric:normal"/>
   <path d="m226.16812 166.92392q0.82682 0.28422 1.13688 0.89573l0.0344 0.17225q-0.12058 0.65457-0.55121 0.65457-0.25839 0-0.89573-0.58567h-0.27561q-0.78376 0-1.52445 0.80099-0.7407 0.80098-0.21532 4.87481 0.53399 4.07382-0.0775 3.75515l-0.62012 0.0172q-0.3359-0.16364-0.41341-4.10828-0.0689-3.95325-0.23255-6.11504 0-0.55122 0.72347-0.55122 0.44787 0 0.44787 0.41341l-0.0344 0.51677q0.0689 0.15503 0.1378 0.17225h0.1378q0.79237-0.91295 2.22209-0.91295z" style="font-feature-settings:normal;font-variant-caps:normal;font-variant-ligatures:normal;font-variant-numeric:normal"/>
  </g>
  <g transform="matrix(.35652294 .86259838 -.85397633 .21542054 312.92305 22.397512)">
   <g transform="matrix(.1229936 -.45600224 .43332159 .12943126 -184.08599 421.56698)" stroke-width=".25220844">
    <path d="m676.95561 153.50839c-0.28885-2.24835-3.05053-3.16424-4.62554-1.53366l-6.11024 6.32382-6.11023 6.32382c-1.57503 1.63008-0.56508 4.35868 1.69161 4.57014l17.37996 1.62937z" fill="#2196f3"/>
    <path d="m677.85968 169.54552-18.20534-6.78522c-0.97359-0.36291-1.25551-1.60567-0.5333-2.35287l8.96188-9.27514c0.72195-0.7472 1.97366-0.50838 2.36979 0.45218z" fill="#29b6f6"/>
    <path d="m711.64472 214.67285 6.11024-6.32383 6.11024-6.32382c1.57502-1.63007 0.56507-4.35867-1.69187-4.57013l-17.37997-1.62937 2.22532 17.31375c0.28935 2.24809 3.05102 3.16347 4.62604 1.5334z" fill="#2196f3"/>
   </g>
   <g transform="matrix(.109804 .03066361 -.02913846 .11555129 -39.163519 91.656727)" fill="#29b6f6">
    <path d="m304.28 207.544 71.711-28.139c3.835-1.505 4.868-6.451 1.954-9.364l-36.16-36.16c-2.913-2.913-7.859-1.881-9.364 1.954z"/>
    <path d="m329.294 209.753c-1.524-14.356-12.866-25.698-27.223-27.223l-44.247-4.698 0.034 0.034c-24.89-2.659-50.72 5.544-69.798 24.623-19.064 19.063-27.276 44.871-24.635 69.743l4.698 44.247c1.524 14.356 12.866 25.698 27.223 27.223l44.247 4.698c24.873 2.64 50.68-5.571 69.743-24.635 19.078-19.078 27.281-44.909 24.623-69.798l0.034 0.034z"/>
   </g>
  </g>
  <g transform="matrix(.35652294 .86259838 -.85397633 .21542054 345.39095 22.397512)">
   <g transform="matrix(.1229936 -.45600224 .43332159 .12943126 -184.08599 421.56698)" stroke-width=".25220844">
    <path d="m676.95561 153.50839c-0.28885-2.24835-3.05053-3.16424-4.62554-1.53366l-6.11024 6.32382-6.11023 6.32382c-1.57503 1.63008-0.56508 4.35868 1.69161 4.57014l17.37996 1.62937z" fill="#2196f3"/>
    <path d="m677.85968 169.54552-18.20534-6.78522c-0.97359-0.36291-1.25551-1.60567-0.5333-2.35287l8.96188-9.27514c0.72195-0.7472 1.97366-0.50838 2.36979 0.45218z" fill="#29b6f6"/>
    <path d="m711.64472 214.67285 6.11024-6.32383 6.11024-6.32382c1.57502-1.63007 0.56507-4.35867-1.69187-4.57013l-17.37997-1.62937 2.22532 17.31375c0.28935 2.24809 3.05102 3.16347 4.62604 1.5334z" fill="#2196f3"/>
   </g>
   <g transform="matrix(.109804 .03066361 -.02913846 .11555129 -39.163519 91.656727)" fill="#29b6f6">
    <path d="m304.28 207.544 71.711-28.139c3.835-1.505 4.868-6.451 1.954-9.364l-36.16-36.16c-2.913-2.913-7.859-1.881-9.364 1.954z"/>
    <path d="m329.294 209.753c-1.524-14.356-12.866-25.698-27.223-27.223l-44.247-4.698 0.034 0.034c-24.89-2.659-50.72 5.544-69.798 24.623-19.064 19.063-27.276 44.871-24.635 69.743l4.698 44.247c1.524 14.356 12.866 25.698 27.223 27.223l44.247 4.698c24.873 2.64 50.68-5.571 69.743-24.635 19.078-19.078 27.281-44.909 24.623-69.798l0.034 0.034z"/>
   </g>
  </g>
  <g transform="matrix(.35652294 .86259838 -.85397633 .21542054 376.26393 22.397512)">
   <g transform="matrix(.1229936 -.45600224 .43332159 .12943126 -184.08599 421.56698)" stroke-width=".25220844">
    <path d="m676.95561 153.50839c-0.28885-2.24835-3.05053-3.16424-4.62554-1.53366l-6.11024 6.32382-6.11023 6.32382c-1.57503 1.63008-0.56508 4.35868 1.69161 4.57014l17.37996 1.62937z" fill="#2196f3"/>
    <path d="m677.85968 169.54552-18.20534-6.78522c-0.97359-0.36291-1.25551-1.60567-0.5333-2.35287l8.96188-9.27514c0.72195-0.7472 1.97366-0.50838 2.36979 0.45218z" fill="#29b6f6"/>
    <path d="m711.64472 214.67285 6.11024-6.32383 6.11024-6.32382c1.57502-1.63007 0.56507-4.35867-1.69187-4.57013l-17.37997-1.62937 2.22532 17.31375c0.28935 2.24809 3.05102 3.16347 4.62604 1.5334z" fill="#2196f3"/>
   </g>
   <g transform="matrix(.109804 .03066361 -.02913846 .11555129 -39.163519 91.656727)" fill="#29b6f6">
    <path d="m304.28 207.544 71.711-28.139c3.835-1.505 4.868-6.451 1.954-9.364l-36.16-36.16c-2.913-2.913-7.859-1.881-9.364 1.954z"/>
    <path d="m329.294 209.753c-1.524-14.356-12.866-25.698-27.223-27.223l-44.247-4.698 0.034 0.034c-24.89-2.659-50.72 5.544-69.798 24.623-19.064 19.063-27.276 44.871-24.635 69.743l4.698 44.247c1.524 14.356 12.866 25.698 27.223 27.223l44.247 4.698c24.873 2.64 50.68-5.571 69.743-24.635 19.078-19.078 27.281-44.909 24.623-69.798l0.034 0.034z"/>
   </g>
  </g>
 </g>
</svg>
