<?xml version="1.0" encoding="UTF-8"?>
<!-- Created with Inkscape (http://www.inkscape.org/) -->
<svg width="562" height="511.99997" version="1.1" viewBox="0 0 148.69583 135.46666" xmlns="http://www.w3.org/2000/svg" xmlns:cc="http://creativecommons.org/ns#" xmlns:dc="http://purl.org/dc/elements/1.1/" xmlns:rdf="http://www.w3.org/1999/02/22-rdf-syntax-ns#">
 <metadata>
  <rdf:RDF>
   <cc:Work rdf:about="">
    <dc:format>image/svg+xml</dc:format>
    <dc:type rdf:resource="http://purl.org/dc/dcmitype/StillImage"/>
    <dc:title/>
   </cc:Work>
  </rdf:RDF>
 </metadata>
 <g transform="translate(3.2363653,-151.9254)">
  <rect x="-3.2363653" y="151.9254" width="148.69583" height="135.46666" opacity="0" stroke-width=".81552964"/>
  <rect x="3.3782206" y="151.9254" width="135.46666" height="135.46666" opacity="0" stroke-width="1.86689615"/>
  <path d="m60.624432 254.15079c-24.801921 0-44.979166-20.63727-44.979166-46.00144 0-25.36416 20.177245-46.00142 44.979166-46.00142 24.801925 0 44.979168 20.63726 44.979168 46.00142 0 25.36417-20.177243 46.00144-44.979168 46.00144zm0-87.91384c-22.546829 0-40.890152 18.80129-40.890152 41.9124 0 23.11112 18.343323 41.91241 40.890152 41.91241 22.54683 0 40.890148-18.80129 40.890148-41.91241 0-23.11111-18.343318-41.9124-40.890148-41.9124z" fill="#cbb292" stroke-width="2.04450774"/>
  <g fill="#fae" stroke-width="2.04450774">
   <ellipse cx="60.624428" cy="164.19244" rx="12.267045" ry="12.267046"/>
   <ellipse cx="60.624428" cy="252.10626" rx="12.267045" ry="12.267046"/>
   <ellipse cx="103.55909" cy="208.14935" rx="12.267045" ry="12.267046"/>
   <ellipse cx="15.645266" cy="208.14935" rx="12.267045" ry="12.267046"/>
  </g>
  <g fill="#afe9dd" stroke-width="2.04450774">
   <ellipse cx="29.243284" cy="176.34499" rx="12.267045" ry="12.267046"/>
   <ellipse cx="91.40654" cy="238.50826" rx="12.267045" ry="12.267046"/>
   <ellipse cx="90.684822" cy="177.06671" rx="12.267045" ry="12.267046"/>
   <ellipse cx="28.519529" cy="239.23199" rx="12.267045" ry="12.267046"/>
  </g>
  <g transform="matrix(.87921776 -.23558569 .21658684 .80831309 -22.634849 190.2766)">
   <rect x="78.181686" y="114.09344" width="70.942642" height="29.921387" ry="4.3434272" fill="#ffe680"/>
   <rect x="83.33075" y="116.26515" width="60.644516" height="25.577959" ry="3.7129297" fill="#fff"/>
  </g>
  <g transform="rotate(-15)" fill="#424242" stroke-width=".26458332" style="font-feature-settings:normal;font-variant-caps:normal;font-variant-ligatures:normal;font-variant-numeric:normal" aria-label="Jimena">
   <path d="m20.424225 278.22316h0.172255q0.938788 0 1.033529 0.24116v0.10335q0 0.4737-0.757921 0.65457-0.585667 0-0.585667 0.48231-0.103353 0-0.241156 6.16672-0.266995 5.07291-0.826823 5.58106-0.792372 0.71486-1.688097 0.96462-0.706245 0-1.688097-1.72254l-0.03445-0.24116q0-0.22393 0.413411-0.51676 0.189481 0 1.136882 1.13688l0.103353 0.0689h0.206706q0.775146 0 1.067979-1.13688 0.318672-0.45648 0.482314-7.1658l-0.0689-0.82682v-2.30822q-0.02584-0.48231-0.172255-0.48231-0.292833 0-1.171333 0.24116-0.215318 0-0.275607-0.65457 0-0.55122 0.964627-0.55122z" style="font-feature-settings:normal;font-variant-caps:normal;font-variant-ligatures:normal;font-variant-numeric:normal"/>
   <path d="m22.344866 279.06721q0.37896 0 0.585666 0.68902-0.172255 0.62012-0.689019 0.62012h-0.103353q-0.378961 0-0.482313-0.58567 0-0.44786 0.654568-0.72347zm0.120578 2.54937q0.37896 0 0.37896 1.58474l0.03445 1.6881q-0.08613 7.32083-0.241156 7.32083-0.378961 0.41341-0.689019 0.41341-0.378961 0-0.516765-0.96463l0.03445-0.0344v-0.0344l0.34451-3.13504 0.0689-3.37619-0.103353-2.56659q0.120578-0.89573 0.689019-0.89573z" style="font-feature-settings:normal;font-variant-caps:normal;font-variant-ligatures:normal;font-variant-numeric:normal"/>
   <path d="m24.454986 279.36866q0.654569 0 0.654569 1.48139 0.08613 0.24115 0.137803 0.24115 0.129191-0.0775 0.447863-0.72347 0.611504-0.6804 1.240234-0.82682 0.568441 0 1.102431 1.10243l0.275607 1.20578 0.137804 0.44787 0.103353 0.0689q0.28422-0.61151 0.757921-1.92064 0.456475-0.68902 1.136882-0.68902 0.749308 0 0.999077 0.48231 0.551216 1.6192 0.551216 2.44602v0.0689q-0.275608 1.6881-0.378961 6.1495l0.01723 1.757q-0.06029 1.80867-0.378961 1.80867l-0.310058 0.13781q-0.585667-0.0947-0.585667-0.58567v-0.0689q0-1.42972 0.120579-3.46232 0.344509-5.2021 0.344509-6.0117v-0.2067q0-1.12827-0.37896-1.30914h-0.137804q-0.43925 0.24977-0.620117 0.82683-0.206706 0.33589-0.482314 1.34358-0.387573 1.1455-0.620117 3.97909-0.344509 2.22208-0.344509 3.41064 0.0086 0.21532 0.103352 0.41341-0.129191 0.21532-0.241156 0.72347-0.24977 0.27561-0.551216 0.27561-0.559828 0-0.654568-0.75792 0.198093-1.41249 0.378961-9.01754 0-1.0852-0.447863-1.58474h-0.03445q-0.508151 0.38757-1.119656 1.38665-0.611504 0.99908-0.602891 2.4374-0.08613 0-0.146417 3.96186-0.06029 3.95325-0.301446 3.95325 0 0.0689-0.413411 0.17226-0.215319 0-0.413412-0.51677l0.34451-11.53245v-0.72348q0-0.2756 0.310058-0.3445z" style="font-feature-settings:normal;font-variant-caps:normal;font-variant-ligatures:normal;font-variant-numeric:normal"/>
   <path d="m34.65247 279.34282q0.757921 0 1.79145 0.82682 0.172255 0.31006 0.172255 0.62012 0 1.54168-0.999078 2.13596-1.145494 0.34451-1.894803 0.34451-0.172254 0.18086-0.172254 0.55121v0.58567q0 1.86896 0.482313 4.20301 0 1.25746 0.964627 2.44602 0.301446 0.24116 0.447862 0.24116h0.241157q0.344509-0.12919 0.861274-0.44786l0.206706-0.0344q0.249769 0 0.37896 0.41341 0 0.77514-1.205783 1.55029l-0.551216 0.10335q-0.490926 0-1.722547-1.34358-0.654569-1.02492-0.654569-2.48047-0.447862-2.18764-0.516764-5.58106 0-1.37804 0.964627-3.44509 0.809597-0.68902 1.205783-0.68902zm-0.792372 2.75607 0.172255 0.10336q1.085205 0 1.44694-0.58567 0.103353-0.18087 0.103353-0.34451v-0.1378q0-0.51677-0.654568-0.51677-0.91295 0-1.06798 1.44694z" style="font-feature-settings:normal;font-variant-caps:normal;font-variant-ligatures:normal;font-variant-numeric:normal"/>
   <path d="m42.274744 279.77345q0.551215 0.17226 0.861274 0.93018 0.206706 0.24977 0.482313 1.8259-0.310058 5.04707-0.275607 7.55337l0.03445 1.6881q0 0.96463-0.654569 0.96463-0.551215 0-0.551215-0.79238 0.103353-5.46047 0.275608-7.82898l0.0689-2.06705-0.447863-1.10243q-0.146416-0.13781-0.275607-0.13781h-0.172255q-0.585666-0.0344-2.153185 3.89296-0.551215 1.41249-0.551215 1.72255v1.37804l0.103353 2.24792-0.0689 0.99908v0.0344l0.0689 0.65457q0 0.31867-0.654568 0.68902-0.585667-0.16364-0.585667-0.96463l-0.0689-1.10243q0.137804-3.22116 0.103353-9.20702 0-1.20578 0.310059-1.20578 0.232544-0.20671 0.482313-0.20671 0.34451 0 0.34451 0.41341l-0.0689 2.41157q0.04306 0.17226 0.103353 0.17226h0.206706q0.06029 0 0.930175-1.6192 0.852661-1.20578 1.205784-1.20578 0.396186-0.31006 0.947401-0.13781z" style="font-feature-settings:normal;font-variant-caps:normal;font-variant-ligatures:normal;font-variant-numeric:normal"/>
   <path d="m46.787818 279.5323q0.714858 0.24977 1.240235 0.99908 0.482313 0.88711 0.800985 2.26515 0.327284 1.37803 0.370347 4.00492-0.02584 3.1092-0.198093 3.514 0 1.99815-0.585666 1.99815 0 0.0861-2.695787 0.10335-0.775147 0-1.274686-1.27468-0.137803-0.56844-0.137803-0.99908v-0.17225q0-1.19717 0.999077-2.48047 0.602892-0.68902 1.550293-0.68902l0.757921 0.0344h0.378961l0.03445-0.37896 0.03445-1.72255q0-1.44694-0.930176-3.5829-0.258382-0.31006-0.516764-0.31006h-0.137802q-0.103353 0-0.826823 0.48232h-0.0689q-0.551215-0.25839-0.551215-0.58567v-0.1378q0.904337-1.06798 1.756998-1.06798zm-1.309136 10.26638v0.27561q0 0.76653 0.378961 1.06798h0.0689q1.765611-0.0775 1.800062-0.0861 0.310059-1.54168 0.02584-2.56659-0.275607-0.48232-0.895725-0.48232-0.62873 0-1.309136 1.20579z" style="font-feature-settings:normal;font-variant-caps:normal;font-variant-ligatures:normal;font-variant-numeric:normal"/>
  </g>
  <g fill="#fff" stroke="#808080" stroke-width="1.0583334">
   <g style="font-feature-settings:normal;font-variant-caps:normal;font-variant-ligatures:normal;font-variant-numeric:normal" aria-label="1">
    <path d="m62.290993 158.50804-2.790528 0.0775-0.766533 0.62873v2.64411l0.689019-0.31867 0.07751 8.33713h3.014459z" fill="#fff" stroke="#808080" stroke-width="1.0583334" style="font-feature-settings:normal;font-variant-caps:normal;font-variant-ligatures:normal;font-variant-numeric:normal"/>
   </g>
   <g style="font-feature-settings:normal;font-variant-caps:normal;font-variant-ligatures:normal;font-variant-numeric:normal" aria-label="2">
    <path d="m32.059172 171.12247q-2.592435-1.57613-4.823134-0.0258-1.119656 0.81821-1.972317 2.02399l1.739773 2.20486q0.223931-0.36173 0.62873-0.67179 0.895725-0.89573 1.800062-0.70624 0.508152 0.11196 0.413412 0.68901-0.07751 0.49093-0.577054 1.2833-0.938788 1.47278-2.290988 2.36851-0.585667 0.49953-1.085205 0.87849l-0.206706 3.04891 7.002157 0.14642 0.0086-2.91972-3.539835 0.16364q1.679484-1.55029 2.876654-3.37619 1.050755-1.59336 1.171333-2.79914 0.163642-1.50723-1.145494-2.30821z" fill="#fff" stroke="#808080" stroke-width="1.0583334" style="font-feature-settings:normal;font-variant-caps:normal;font-variant-ligatures:normal;font-variant-numeric:normal"/>
   </g>
   <g style="font-feature-settings:normal;font-variant-caps:normal;font-variant-ligatures:normal;font-variant-numeric:normal" aria-label="3">
    <path d="m11.765227 202.62763 0.07751 2.62688 3.315905-0.0775-2.790528 2.02399q0.766534-0.11196 1.50723 0.0861 1.498616 0.39619 1.455553 1.95509-0.05168 1.56752-1.50723 1.54168-0.732083-0.0172-1.455553-0.34451l-0.680406 2.80775q1.240234 0.39619 2.7044 0.42203 2.902493 0.0603 3.970473-1.76561 1.464165-2.51492-0.02584-4.2547-0.749308-0.86988-1.713935-1.32636l2.980008-3.66041z" fill="#fff" stroke="#808080" stroke-width="1.0583334" style="font-feature-settings:normal;font-variant-caps:normal;font-variant-ligatures:normal;font-variant-numeric:normal"/>
   </g>
   <g style="font-feature-settings:normal;font-variant-caps:normal;font-variant-ligatures:normal;font-variant-numeric:normal" aria-label="4">
    <path d="m29.428174 237.28982h-1.800062l0.07751-3.85851-2.971395 0.0861v6.25285l4.530301 0.16364-0.327284 5.02122 3.117811 0.0775 0.24977-11.60136h-2.79914z" fill="#fff" stroke="#808080" stroke-width="1.0583334" style="font-feature-settings:normal;font-variant-caps:normal;font-variant-ligatures:normal;font-variant-numeric:normal"/>
   </g>
   <g style="font-feature-settings:normal;font-variant-caps:normal;font-variant-ligatures:normal;font-variant-numeric:normal" aria-label="5">
    <path d="m59.186617 249.07552 4.521688 0.18948 0.266995-2.54075-6.984932-0.267 0.111966 5.32267q1.06798-0.22393 1.989543-0.1378 1.843126 0.18087 1.886189 1.74839 0.05168 1.57613-1.550293 1.79145-0.800984 0.11196-1.619194-0.0947l-0.15503 2.60104q1.705323 0.20671 3.393419-0.22393 3.367581-0.84405 3.203939-3.9877-0.146416-3.14365-2.635498-3.77238-1.231622-0.39618-2.446018-0.0775z" fill="#fff" stroke="#808080" stroke-width="1.0583334" style="font-feature-settings:normal;font-variant-caps:normal;font-variant-ligatures:normal;font-variant-numeric:normal"/>
   </g>
   <g style="font-feature-settings:normal;font-variant-caps:normal;font-variant-ligatures:normal;font-variant-numeric:normal" aria-label="6">
    <path d="m91.552556 240.93022q-0.301445 0.0258-0.465087-0.15503-0.146417-0.15503-0.146417-0.4048t0.120578-0.44786q0.129191-0.20671 0.335897-0.24116 0.490926-0.0861 0.732083 0.0861 0.215318 0.14641 0.18948 0.42202-0.02584 0.25838-0.232544 0.4737-0.223931 0.23255-0.53399 0.267zm-0.206705-3.93603q-0.103353-0.36173 0.103353-0.66318 0.430637-0.6115 2.015381-0.33589l0.456475-2.67856q-0.396186-0.1981-1.102431-0.24977-1.421102-0.0861-2.971395 0.67179-0.809597 0.39619-1.54168 1.88619-0.749308 1.54168-0.887112 3.21255-0.146417 1.92064 0.645955 3.20394 0.930176 1.51584 3.040297 1.85174 1.825901 0.29283 3.057522-0.72347 1.111044-0.91295 1.240235-2.40296 0.129191-1.49861-0.852661-2.55798-1.111044-1.19717-3.203939-1.2144z" fill="#fff" stroke="#808080" stroke-width="1.0583334" style="font-feature-settings:normal;font-variant-caps:normal;font-variant-ligatures:normal;font-variant-numeric:normal"/>
   </g>
   <g style="font-feature-settings:normal;font-variant-caps:normal;font-variant-ligatures:normal;font-variant-numeric:normal" aria-label="7">
    <path d="m99.907285 206.08229 2.799145-0.0775-2.57521 7.3036 3.46232 0.29283 3.76376-10.90372-7.596431 0.0775z" fill="#fff" stroke="#808080" stroke-width="1.0583334" style="font-feature-settings:normal;font-variant-caps:normal;font-variant-ligatures:normal;font-variant-numeric:normal"/>
   </g>
   <g style="font-feature-settings:normal;font-variant-caps:normal;font-variant-ligatures:normal;font-variant-numeric:normal" aria-label="8">
    <path d="m90.875116 179.28272q-0.28422 0-0.465088-0.16364-0.155029-0.1378-0.180867-0.35312-0.01723-0.20671 0.120578-0.34451 0.137804-0.16364 0.422024-0.17226 0.387574-9e-3 0.594279 0.15503 0.172255 0.13781 0.163642 0.35312-0.0086 0.20671-0.180867 0.36174-0.18948 0.16364-0.473701 0.16364zm-0.344509-5.64996q0.275607-0.0603 0.439249 0.0431 0.146417 0.10335 0.15503 0.29283 0.0086 0.18948-0.111966 0.31867-0.146416 0.16365-0.396186 0.16365-0.249769 0-0.396186-0.11197-0.146416-0.0947-0.155029-0.24116-0.04306-0.34451 0.465088-0.46509zm2.084283 2.34267q0.637342-1.19717 0.72347-2.42018 0.198093-2.4374-2.549371-2.54076-1.059367-0.0431-1.860352 0.52538-0.732083 0.51676-1.050754 1.37804-0.301446 0.85266-0.08613 1.67087 0.232544 0.8785 0.999077 1.38665-0.697631 0.55983-1.29191 1.38665-1.197171 1.64503-0.72347 2.98862 0.413411 1.17995 1.395263 1.92064 0.921563 0.68041 2.092896 0.81821 1.154107 0.13781 2.196248-0.31006 1.102431-0.48231 1.731161-1.49861 1.128269-1.81729-0.111966-3.74654-0.620117-0.96463-1.464165-1.55891z" fill="#fff" stroke="#808080" stroke-width="1.0583334" style="font-feature-settings:normal;font-variant-caps:normal;font-variant-ligatures:normal;font-variant-numeric:normal"/>
   </g>
  </g>
 </g>
</svg>
