<?xml version="1.0" encoding="UTF-8"?>
<!-- Created with Inkscape (http://www.inkscape.org/) -->
<svg width="511.99997" height="511.99997" version="1.1" viewBox="0 0 135.46665 135.46666" xmlns="http://www.w3.org/2000/svg" xmlns:cc="http://creativecommons.org/ns#" xmlns:dc="http://purl.org/dc/elements/1.1/" xmlns:rdf="http://www.w3.org/1999/02/22-rdf-syntax-ns#">
 <metadata>
  <rdf:RDF>
   <cc:Work rdf:about="">
    <dc:format>image/svg+xml</dc:format>
    <dc:type rdf:resource="http://purl.org/dc/dcmitype/StillImage"/>
    <dc:title/>
   </cc:Work>
  </rdf:RDF>
 </metadata>
 <g transform="translate(-122.17191,110.54075)">
  <rect x="122.17191" y="-110.54075" width="135.46666" height="135.46666" opacity="0" stroke-width="1.40209758"/>
  <g transform="translate(35.241747)">
   <g transform="matrix(.13654424 -.13858014 .13654424 .13858014 84.752231 -39.693449)" fill="#366db6">
    <path d="m77.339 196.709-53.54 136.828 47.59-35.69 37.032 7.327c14.813-38.788 31.894-72.589 50.476-102.135z"/>
    <path d="m315.295 434.666-136.828 53.539 35.69-47.59-7.327-37.032c38.788-14.813 72.589-31.894 102.135-50.476z"/>
   </g>
   <path d="m154.66357-110.54075s-42.24051 36.274189-14.62102 98.930564h29.24422c27.61607-62.655128-14.6232-98.930564-14.6232-98.930564z" fill="#e7eced" stroke-width=".194537"/>
   <polygon transform="matrix(.13654424 -.13858014 .13654424 .13858014 84.752231 -39.693449)" points="247.173 317.797 247.173 264.832 187.683 264.832 113.029 398.976" fill="#366db6"/>
   <path d="m135.54655-80.860204h38.23403c-7.01278-19.277196-19.11811-29.679156-19.11811-29.679156s-12.10328 10.40183-19.11592 29.679156z" fill="#e91e63" stroke-width=".194537"/>
   <g transform="matrix(.57159734 0 0 .58011997 124.59404 -95.46146)">
    <circle transform="rotate(-45)" cx="3.4982615" cy="70.883186" r="17.806988" fill="#366db6" stroke-width=".26458335"/>
    <circle transform="rotate(-45)" cx="3.4982615" cy="70.883186" r="14.187465" fill="#f2f2f2" stroke-width=".21080303"/>
   </g>
  </g>
  <g>
   <rect x="149.91049" y="-6.3812027" width="79.989494" height="31.307114" ry="4.3943348" fill="#e91e63"/>
   <rect x="154.29584" y="-2.9285107" width="71.218826" height="24.40173" ry="3.4250803" fill="#fff"/>
   <g fill="#424242" stroke-width=".26458332" style="font-feature-settings:normal;font-variant-caps:normal;font-variant-ligatures:normal;font-variant-numeric:normal" aria-label="Luis">
    <path d="m181.24084 1.9472191q0.44786 0 0.44786 0.8612739v0.068902l-0.24116 8.750543q0 3.410644 0.17226 3.410644 0.18087 0.137804 1.44694 0.172255l0.89572-0.0689q0.20671 0 0.31006 0.413412 0.18948 0.800984-2.96278 0.792372-0.89572 0-0.89572-0.757921-0.0517 0-0.13781-0.68902l0.27561-4.168565-0.0344-0.241157q0.10335-1.7828368 0.10335-3.5828992v-0.2411588l0.0344-0.6890191-0.0689-2.1704102q0.1378-1.8259007 0.51676-1.8259007z" style="font-feature-settings:normal;font-variant-caps:normal;font-variant-ligatures:normal;font-variant-numeric:normal"/>
    <path d="m185.68501 4.3673987q0.51677 0 0.51677 0.8957249v2.2393121q0 6.3734263 0.37896 7.0624463 0.25838 0.757921 0.41341 0.757921 0.29283 0 0.86127-1.41249 0.82682-1.464165 0.82682-2.687174 0.12058 0 0.34451-4.0652129l-0.03445-0.6545681q0.12919-1.7914497 0.44787-1.7914497l0.44786-0.1722548q0.41341 0 0.55121 0.9646268v0.1722547l-0.2067 2.1359593v0.2067057q0 3.849894 0.48231 6.270074l0.27561 1.79145q-0.14642 0.413411-0.72347 0.413411-0.51677 0-0.65457-2.721625-0.11197-0.241157-0.17225-0.241157h-0.0689q-0.25838 0.292833-1.34358 2.377116-0.55122 0.689019-1.06798 0.689019-0.57706 0-1.20579-0.930176-0.58566-1.73116-0.75792-9.990777-0.0517 0-0.0689-0.757921 0-0.396186 0.75792-0.5512153z" style="font-feature-settings:normal;font-variant-caps:normal;font-variant-ligatures:normal;font-variant-numeric:normal"/>
    <path d="m192.53214 2.9635223q0.37896 0 0.58566 0.6890191-0.17225 0.6201172-0.68901 0.6201172h-0.10336q-0.37896 0-0.48231-0.5856663 0-0.4478624 0.65457-0.72347zm0.12058 2.5493707q0.37896 0 0.37896 1.584744l0.0344 1.6880968q-0.0861 7.3208282-0.24116 7.3208282-0.37896 0.413411-0.68902 0.413411-0.37896 0-0.51676-0.964626l0.0344-0.03445v-0.03445l0.34451-3.135037 0.0689-3.376194-0.10335-2.5665962q0.12058-0.8957248 0.68902-0.8957248z" style="font-feature-settings:normal;font-variant-caps:normal;font-variant-ligatures:normal;font-variant-numeric:normal"/>
    <path d="m197.4414 3.3166446q1.757 0.2669949 1.757 1.0335286 0 0.3531223-0.55122 0.5167644l-0.96462-0.3100586h-0.17226q-0.71485 0-1.20578 0.9301758-0.34451 0.9301758-0.34451 2.1359592 0 1.3522 1.55029 2.2048612 1.10243 0.9301758 1.44694 1.5158418l0.54261 1.102431 0.0344 0.155029v0.0689q0 1.825901-0.93018 2.756076-0.81821 1.136882-1.757 1.136882h-0.17225q-1.11105 0-2.41157-1.136882-0.51676-0.72347-0.51676-1.550293 0.0947-0.930175 0.44786-0.930175 0.42202 0 0.51676 1.309136 0.24977 0.594279 0.93018 0.861274 0.56844 0.206706 0.86127 0.206706h0.20671q0.68902 0 1.58474-1.584744l0.17226-0.620118q0-0.999077-0.78376-1.705322l-1.79145-1.4813909q-0.61151-0.6459555-0.89573-1.550293v-0.034451q-0.21532-1.8517389 0.18948-2.7905274 0.4048-0.9387886 0.60289-1.4469401 0.50816-0.792372 1.65365-0.792372z" style="font-feature-settings:normal;font-variant-caps:normal;font-variant-ligatures:normal;font-variant-numeric:normal"/>
   </g>
  </g>
 </g>
</svg>
