<?xml version="1.0" encoding="UTF-8"?>
<!-- Created with Inkscape (http://www.inkscape.org/) -->
<svg width="562" height="511.99997" version="1.1" viewBox="0 0 148.69583 135.46666" xmlns="http://www.w3.org/2000/svg" xmlns:cc="http://creativecommons.org/ns#" xmlns:dc="http://purl.org/dc/elements/1.1/" xmlns:rdf="http://www.w3.org/1999/02/22-rdf-syntax-ns#">
 <metadata>
  <rdf:RDF>
   <cc:Work rdf:about="">
    <dc:format>image/svg+xml</dc:format>
    <dc:type rdf:resource="http://purl.org/dc/dcmitype/StillImage"/>
    <dc:title/>
   </cc:Work>
  </rdf:RDF>
 </metadata>
 <g transform="translate(-186.72969,-145.02782)">
  <rect x="186.72969" y="145.02782" width="148.69583" height="135.46666" opacity="0" stroke-width=".88638055"/>
  <rect x="193.34428" y="145.02782" width="135.46666" height="135.46666" ry="0" opacity="0" stroke-width=".92353249"/>
  <rect x="193.56448" y="174.61676" width="135.02626" height="76.288773" opacity="0" stroke-width=".44039264"/>
  <g transform="matrix(.99999805 0 0 1 .00037727401 0)">
   <path d="m328.22304 221.28853-10.42273-18.76134c-0.41195-0.74162-1.19353-1.20147-2.04152-1.20147h-109.36208c-0.84826 0-1.62957 0.45985-2.04153 1.20147l-10.42299 18.76134c-0.3855 0.694-0.58791 1.47453-0.58791 2.26854v10.46771h135.46667v-10.46771c0-0.79401-0.20241-1.57454-0.58791-2.26854z" fill="#e1c3a0" stroke-width=".26458332"/>
   <g transform="matrix(1.1069933,0,0,1.1069933,166.86889,184.72462)">
    <circle cx="63.425579" cy="25.645954" r="14.767649" fill="#d5a150" stroke-width=".05768613"/>
    <g fill="#674230" stroke-width=".05768613">
     <circle cx="60.598801" cy="15.232098" r="2.0799313"/>
     <circle cx="54.476795" cy="22.530823" r="2.0799313"/>
     <circle cx="57.16357" cy="30.577934" r="2.0799313"/>
     <circle cx="62.437923" cy="35.684837" r="2.0799313"/>
     <circle cx="65.310013" cy="19.579046" r="2.0799313"/>
     <circle cx="72.441292" cy="30.268171" r="2.0799313"/>
     <circle cx="71.952225" cy="19.924015" r="2.0799313"/>
     <circle cx="62.932941" cy="26.108309" r="2.0799313"/>
    </g>
    <g transform="matrix(.05644164 .01191767 -.01191767 .05644164 52.074808 8.3272468)" fill="#ad712c">
     <circle cx="129.80299" cy="294.63199" r="7.7259998"/>
     <circle cx="181.312" cy="294.63199" r="7.7259998"/>
     <circle cx="155.55701" cy="248.274" r="7.7259998"/>
     <circle cx="62.841" cy="340.98999" r="7.7259998"/>
     <circle cx="165.85899" cy="454.31" r="7.7259998"/>
     <circle cx="196.765" cy="413.103" r="7.7259998"/>
     <circle cx="248.274" cy="351.29199" r="7.7259998"/>
     <circle cx="330.68799" cy="320.38599" r="7.7259998"/>
     <circle cx="310.08499" cy="340.98999" r="7.7259998"/>
     <circle cx="340.98999" cy="371.89499" r="7.7259998"/>
     <circle cx="340.98999" cy="433.70599" r="7.7259998"/>
     <circle cx="454.31" cy="217.368" r="7.7259998"/>
     <circle cx="423.40399" cy="423.40399" r="7.7259998"/>
     <circle cx="268.87701" cy="31.936001" r="7.7259998"/>
     <circle cx="83.445" cy="124.652" r="7.7259998"/>
     <circle cx="42.237" cy="186.463" r="7.7259998"/>
     <circle cx="160.70799" cy="201.91499" r="7.7259998"/>
     <circle cx="191.614" cy="186.463" r="7.7259998"/>
     <circle cx="160.70799" cy="171.00999" r="7.7259998"/>
     <circle cx="304.93399" cy="248.274" r="7.7259998"/>
     <circle cx="237.972" cy="93.746002" r="7.7259998"/>
     <circle cx="335.83899" cy="186.463" r="7.7259998"/>
     <circle cx="351.29199" cy="232.821" r="7.7259998"/>
     <circle cx="382.19699" cy="232.821" r="7.7259998"/>
     <circle cx="382.19699" cy="263.72601" r="7.7259998"/>
     <circle cx="325.53699" cy="78.293999" r="7.7259998"/>
     <circle cx="356.44299" cy="62.841" r="7.7259998"/>
    </g>
    <circle cx="63.425579" cy="25.645954" r="14.767649" fill="#2b1e0a" opacity=".18699999" stroke-width=".05768613"/>
   </g>
   <g transform="matrix(.26578739 0 0 .26578739 233.22176 218.88191)">
    <circle cx="-75.768669" cy="20.227161" r="67.73333" fill="#d5a150" stroke-width=".26458332"/>
    <g fill="#674230" stroke-width=".26458332">
     <circle cx="-88.733978" cy="-27.537054" r="9.5398169"/>
     <circle cx="-116.81319" cy="5.9392986" r="9.5398169"/>
     <circle cx="-104.49001" cy="42.848198" r="9.5398169"/>
     <circle cx="-80.298653" cy="66.271523" r="9.5398169"/>
     <circle cx="-67.125526" cy="-7.5993333" r="9.5398169"/>
     <circle cx="-34.417202" cy="41.427433" r="9.5398169"/>
     <circle cx="-36.660339" cy="-6.017097" r="9.5398169"/>
     <circle cx="-78.028206" cy="22.347801" r="9.5398169"/>
    </g>
    <g transform="matrix(.25887535 .05466162 -.05466162 .25887535 -127.83015 -59.206857)" fill="#ad712c">
     <circle cx="129.80299" cy="294.63199" r="7.7259998"/>
     <circle cx="181.312" cy="294.63199" r="7.7259998"/>
     <circle cx="155.55701" cy="248.274" r="7.7259998"/>
     <circle cx="62.841" cy="340.98999" r="7.7259998"/>
     <circle cx="165.85899" cy="454.31" r="7.7259998"/>
     <circle cx="196.765" cy="413.103" r="7.7259998"/>
     <circle cx="248.274" cy="351.29199" r="7.7259998"/>
     <circle cx="330.68799" cy="320.38599" r="7.7259998"/>
     <circle cx="310.08499" cy="340.98999" r="7.7259998"/>
     <circle cx="340.98999" cy="371.89499" r="7.7259998"/>
     <circle cx="340.98999" cy="433.70599" r="7.7259998"/>
     <circle cx="454.31" cy="217.368" r="7.7259998"/>
     <circle cx="423.40399" cy="423.40399" r="7.7259998"/>
     <circle cx="268.87701" cy="31.936001" r="7.7259998"/>
     <circle cx="83.445" cy="124.652" r="7.7259998"/>
     <circle cx="42.237" cy="186.463" r="7.7259998"/>
     <circle cx="160.70799" cy="201.91499" r="7.7259998"/>
     <circle cx="191.614" cy="186.463" r="7.7259998"/>
     <circle cx="160.70799" cy="171.00999" r="7.7259998"/>
     <circle cx="304.93399" cy="248.274" r="7.7259998"/>
     <circle cx="237.972" cy="93.746002" r="7.7259998"/>
     <circle cx="335.83899" cy="186.463" r="7.7259998"/>
     <circle cx="351.29199" cy="232.821" r="7.7259998"/>
     <circle cx="382.19699" cy="232.821" r="7.7259998"/>
     <circle cx="382.19699" cy="263.72601" r="7.7259998"/>
     <circle cx="325.53699" cy="78.293999" r="7.7259998"/>
     <circle cx="356.44299" cy="62.841" r="7.7259998"/>
    </g>
   </g>
   <g transform="matrix(1.1069933,0,0,1.1069933,214.86323,184.72462)">
    <circle cx="63.425579" cy="25.645954" r="14.767649" fill="#d5a150" stroke-width=".05768613"/>
    <g fill="#674230" stroke-width=".05768613">
     <circle cx="60.598801" cy="15.232098" r="2.0799313"/>
     <circle cx="54.476795" cy="22.530823" r="2.0799313"/>
     <circle cx="57.16357" cy="30.577934" r="2.0799313"/>
     <circle cx="62.437923" cy="35.684837" r="2.0799313"/>
     <circle cx="65.310013" cy="19.579046" r="2.0799313"/>
     <circle cx="72.441292" cy="30.268171" r="2.0799313"/>
     <circle cx="71.952225" cy="19.924015" r="2.0799313"/>
     <circle cx="62.932941" cy="26.108309" r="2.0799313"/>
    </g>
    <g transform="matrix(.05644164 .01191767 -.01191767 .05644164 52.074808 8.3272468)" fill="#ad712c">
     <circle cx="129.80299" cy="294.63199" r="7.7259998"/>
     <circle cx="181.312" cy="294.63199" r="7.7259998"/>
     <circle cx="155.55701" cy="248.274" r="7.7259998"/>
     <circle cx="62.841" cy="340.98999" r="7.7259998"/>
     <circle cx="165.85899" cy="454.31" r="7.7259998"/>
     <circle cx="196.765" cy="413.103" r="7.7259998"/>
     <circle cx="248.274" cy="351.29199" r="7.7259998"/>
     <circle cx="330.68799" cy="320.38599" r="7.7259998"/>
     <circle cx="310.08499" cy="340.98999" r="7.7259998"/>
     <circle cx="340.98999" cy="371.89499" r="7.7259998"/>
     <circle cx="340.98999" cy="433.70599" r="7.7259998"/>
     <circle cx="454.31" cy="217.368" r="7.7259998"/>
     <circle cx="423.40399" cy="423.40399" r="7.7259998"/>
     <circle cx="268.87701" cy="31.936001" r="7.7259998"/>
     <circle cx="83.445" cy="124.652" r="7.7259998"/>
     <circle cx="42.237" cy="186.463" r="7.7259998"/>
     <circle cx="160.70799" cy="201.91499" r="7.7259998"/>
     <circle cx="191.614" cy="186.463" r="7.7259998"/>
     <circle cx="160.70799" cy="171.00999" r="7.7259998"/>
     <circle cx="304.93399" cy="248.274" r="7.7259998"/>
     <circle cx="237.972" cy="93.746002" r="7.7259998"/>
     <circle cx="335.83899" cy="186.463" r="7.7259998"/>
     <circle cx="351.29199" cy="232.821" r="7.7259998"/>
     <circle cx="382.19699" cy="232.821" r="7.7259998"/>
     <circle cx="382.19699" cy="263.72601" r="7.7259998"/>
     <circle cx="325.53699" cy="78.293999" r="7.7259998"/>
     <circle cx="356.44299" cy="62.841" r="7.7259998"/>
    </g>
    <circle cx="63.425579" cy="25.645954" r="14.767649" fill="#2b1e0a" opacity=".18699999" stroke-width=".05768613"/>
   </g>
   <g transform="matrix(.26578739 0 0 .26578739 281.21611 218.88191)">
    <circle cx="-75.768669" cy="20.227161" r="67.73333" fill="#d5a150" stroke-width=".26458332"/>
    <g fill="#674230" stroke-width=".26458332">
     <circle cx="-88.733978" cy="-27.537054" r="9.5398169"/>
     <circle cx="-116.81319" cy="5.9392986" r="9.5398169"/>
     <circle cx="-104.49001" cy="42.848198" r="9.5398169"/>
     <circle cx="-80.298653" cy="66.271523" r="9.5398169"/>
     <circle cx="-67.125526" cy="-7.5993333" r="9.5398169"/>
     <circle cx="-34.417202" cy="41.427433" r="9.5398169"/>
     <circle cx="-36.660339" cy="-6.017097" r="9.5398169"/>
     <circle cx="-78.028206" cy="22.347801" r="9.5398169"/>
    </g>
    <g transform="matrix(.25887535 .05466162 -.05466162 .25887535 -127.83015 -59.206857)" fill="#ad712c">
     <circle cx="129.80299" cy="294.63199" r="7.7259998"/>
     <circle cx="181.312" cy="294.63199" r="7.7259998"/>
     <circle cx="155.55701" cy="248.274" r="7.7259998"/>
     <circle cx="62.841" cy="340.98999" r="7.7259998"/>
     <circle cx="165.85899" cy="454.31" r="7.7259998"/>
     <circle cx="196.765" cy="413.103" r="7.7259998"/>
     <circle cx="248.274" cy="351.29199" r="7.7259998"/>
     <circle cx="330.68799" cy="320.38599" r="7.7259998"/>
     <circle cx="310.08499" cy="340.98999" r="7.7259998"/>
     <circle cx="340.98999" cy="371.89499" r="7.7259998"/>
     <circle cx="340.98999" cy="433.70599" r="7.7259998"/>
     <circle cx="454.31" cy="217.368" r="7.7259998"/>
     <circle cx="423.40399" cy="423.40399" r="7.7259998"/>
     <circle cx="268.87701" cy="31.936001" r="7.7259998"/>
     <circle cx="83.445" cy="124.652" r="7.7259998"/>
     <circle cx="42.237" cy="186.463" r="7.7259998"/>
     <circle cx="160.70799" cy="201.91499" r="7.7259998"/>
     <circle cx="191.614" cy="186.463" r="7.7259998"/>
     <circle cx="160.70799" cy="171.00999" r="7.7259998"/>
     <circle cx="304.93399" cy="248.274" r="7.7259998"/>
     <circle cx="237.972" cy="93.746002" r="7.7259998"/>
     <circle cx="335.83899" cy="186.463" r="7.7259998"/>
     <circle cx="351.29199" cy="232.821" r="7.7259998"/>
     <circle cx="382.19699" cy="232.821" r="7.7259998"/>
     <circle cx="382.19699" cy="263.72601" r="7.7259998"/>
     <circle cx="325.53699" cy="78.293999" r="7.7259998"/>
     <circle cx="356.44299" cy="62.841" r="7.7259998"/>
    </g>
   </g>
   <g transform="matrix(.26578739 0 0 .26578739 329.21045 218.88191)">
    <circle cx="-75.768669" cy="20.227161" r="67.73333" fill="#d5a150" stroke-width=".26458332"/>
    <g fill="#674230" stroke-width=".26458332">
     <circle cx="-88.733978" cy="-27.537054" r="9.5398169"/>
     <circle cx="-116.81319" cy="5.9392986" r="9.5398169"/>
     <circle cx="-104.49001" cy="42.848198" r="9.5398169"/>
     <circle cx="-80.298653" cy="66.271523" r="9.5398169"/>
     <circle cx="-67.125526" cy="-7.5993333" r="9.5398169"/>
     <circle cx="-34.417202" cy="41.427433" r="9.5398169"/>
     <circle cx="-36.660339" cy="-6.017097" r="9.5398169"/>
     <circle cx="-78.028206" cy="22.347801" r="9.5398169"/>
    </g>
    <g transform="matrix(.25887535 .05466162 -.05466162 .25887535 -127.83015 -59.206857)" fill="#ad712c">
     <circle cx="129.80299" cy="294.63199" r="7.7259998"/>
     <circle cx="181.312" cy="294.63199" r="7.7259998"/>
     <circle cx="155.55701" cy="248.274" r="7.7259998"/>
     <circle cx="62.841" cy="340.98999" r="7.7259998"/>
     <circle cx="165.85899" cy="454.31" r="7.7259998"/>
     <circle cx="196.765" cy="413.103" r="7.7259998"/>
     <circle cx="248.274" cy="351.29199" r="7.7259998"/>
     <circle cx="330.68799" cy="320.38599" r="7.7259998"/>
     <circle cx="310.08499" cy="340.98999" r="7.7259998"/>
     <circle cx="340.98999" cy="371.89499" r="7.7259998"/>
     <circle cx="340.98999" cy="433.70599" r="7.7259998"/>
     <circle cx="454.31" cy="217.368" r="7.7259998"/>
     <circle cx="423.40399" cy="423.40399" r="7.7259998"/>
     <circle cx="268.87701" cy="31.936001" r="7.7259998"/>
     <circle cx="83.445" cy="124.652" r="7.7259998"/>
     <circle cx="42.237" cy="186.463" r="7.7259998"/>
     <circle cx="160.70799" cy="201.91499" r="7.7259998"/>
     <circle cx="191.614" cy="186.463" r="7.7259998"/>
     <circle cx="160.70799" cy="171.00999" r="7.7259998"/>
     <circle cx="304.93399" cy="248.274" r="7.7259998"/>
     <circle cx="237.972" cy="93.746002" r="7.7259998"/>
     <circle cx="335.83899" cy="186.463" r="7.7259998"/>
     <circle cx="351.29199" cy="232.821" r="7.7259998"/>
     <circle cx="382.19699" cy="232.821" r="7.7259998"/>
     <circle cx="382.19699" cy="263.72601" r="7.7259998"/>
     <circle cx="325.53699" cy="78.293999" r="7.7259998"/>
     <circle cx="356.44299" cy="62.841" r="7.7259998"/>
    </g>
   </g>
   <path d="m326.47521 222.3466h-38.26219c-0.8845 0-1.69334 0.29326-2.08889 0.75744l-2.73447 3.20905c-0.7911 0.92867-2.40903 1.51518-4.17803 1.51518h-36.2675c-1.76927 0-3.38693-0.58651-4.17803-1.51518l-2.73447-3.20905c-0.39555-0.46418-1.20438-0.75744-2.08889-0.75744h-38.26271c-1.28985 0-2.33575 0.61368-2.33575 1.3705v26.03814c0 0.75681 1.0459 1.37049 2.33575 1.37049h130.79544c1.28985 0 2.33574-0.61368 2.33574-1.37049v-26.0383c-2.6e-4 -0.75681-1.04616-1.37034-2.336-1.37034z" fill="#ebd2af" stroke-width=".20266961"/>
   <rect transform="rotate(-15)" x="207.16403" y="298.27234" width="47.767994" height="17.559212" ry="4.6208458" fill="#fff"/>
   <g transform="rotate(-15)" fill="#424242" stroke-width=".26458332" style="font-feature-settings:normal;font-variant-caps:normal;font-variant-ligatures:normal;font-variant-numeric:normal" aria-label="Mariana">
    <path d="m217.93943 300.35445q0.68902 0 0.68902 1.65365 0.24116 6.71794 0.34451 6.71794l-0.0689 0.44786q0 2.17041 0.34451 3.82406-0.22394 0.55121-0.68902 0.55121h-0.0344q-0.62012 0-0.62012-1.34359l-0.0344-0.99907 0.0344-2.54938-0.44786-5.5466h-0.0344q-0.31006 0-0.65457 0.82682-0.12058 0.0689-0.31006 0.86128-0.15503 0.24115-0.34451 0.89572l-0.41341 0.51677q-0.64596-0.267-0.93018-0.82683-0.88711-1.90341-1.34359-2.23931h-0.0689l-0.0344 0.55122-0.0345 5.02984 0.0258 4.34082q0 0.65457-0.48231 0.65457-0.65457 0-0.57706-2.13596v-0.0344q0-1.04215 0.0344-2.82498v-3.41065q0-1.54168-0.34451-3.75515 0.15503-0.82682 0.75792-0.82682 0.81821 0 1.06798 0.68901 0 0.25839 1.24024 1.92926 0 0.26699 0.37896 0.51676h0.0344q0.20671-0.0689 1.17133-1.757 0.62873-1.30913 1.10243-1.68809z" style="font-feature-settings:normal;font-variant-caps:normal;font-variant-ligatures:normal;font-variant-numeric:normal"/>
    <path d="m222.43528 300.41474q0.71486 0.24977 1.24023 0.99908 0.48232 0.88711 0.80099 2.26515 0.32728 1.37804 0.37035 4.00493-0.0258 3.10919-0.1981 3.51399 0 1.99816-0.58566 1.99816 0 0.0861-2.69579 0.10335-0.77515 0-1.27469-1.27468-0.1378-0.56844-0.1378-0.99908v-0.17226q0-1.19717 0.99908-2.48047 0.60289-0.68901 1.55029-0.68901l0.75792 0.0344h0.37896l0.0344-0.37896 0.0344-1.72255q0-1.44694-0.93017-3.5829-0.25838-0.31006-0.51677-0.31006h-0.1378q-0.10335 0-0.82682 0.48231h-0.0689q-0.55122-0.25838-0.55122-0.58566v-0.13781q0.90434-1.06798 1.757-1.06798zm-1.30914 10.26639v0.27561q0 0.76653 0.37896 1.06798h0.0689q1.76561-0.0775 1.80006-0.0861 0.31006-1.54168 0.0258-2.5666-0.27561-0.48231-0.89573-0.48231-0.62873 0-1.30914 1.20578z" style="font-feature-settings:normal;font-variant-caps:normal;font-variant-ligatures:normal;font-variant-numeric:normal"/>
    <path d="m229.04986 302.43874q0.82683 0.28422 1.13688 0.89572l0.0345 0.17226q-0.12058 0.65457-0.55122 0.65457-0.25838 0-0.89572-0.58567h-0.27561q-0.78376 0-1.52446 0.80098-0.74069 0.80099-0.21532 4.87481 0.53399 4.07383-0.0775 3.75516l-0.62012 0.0172q-0.33589-0.16364-0.41341-4.10827-0.0689-3.95325-0.23254-6.11505 0-0.55121 0.72347-0.55121 0.44786 0 0.44786 0.41341l-0.0345 0.51676q0.0689 0.15503 0.1378 0.17226h0.13781q0.79237-0.91295 2.22208-0.91295z" style="font-feature-settings:normal;font-variant-caps:normal;font-variant-ligatures:normal;font-variant-numeric:normal"/>
    <path d="m231.78871 299.94966q0.37896 0 0.58567 0.68901-0.17226 0.62012-0.68902 0.62012h-0.10335q-0.37896 0-0.48232-0.58566 0-0.44787 0.65457-0.72347zm0.12058 2.54937q0.37896 0 0.37896 1.58474l0.0344 1.6881q-0.0861 7.32083-0.24115 7.32083-0.37896 0.41341-0.68902 0.41341-0.37896 0-0.51677-0.96463l0.0344-0.0344v-0.0344l0.34451-3.13504 0.0689-3.37619-0.10336-2.5666q0.12058-0.89572 0.68902-0.89572z" style="font-feature-settings:normal;font-variant-caps:normal;font-variant-ligatures:normal;font-variant-numeric:normal"/>
    <path d="m235.73335 300.41474q0.71485 0.24977 1.24023 0.99908 0.48232 0.88711 0.80099 2.26515 0.32728 1.37804 0.37034 4.00493-0.0258 3.10919-0.19809 3.51399 0 1.99816-0.58566 1.99816 0 0.0861-2.69579 0.10335-0.77515 0-1.27469-1.27468-0.1378-0.56844-0.1378-0.99908v-0.17226q0-1.19717 0.99908-2.48047 0.60289-0.68901 1.55029-0.68901l0.75792 0.0344h0.37896l0.0344-0.37896 0.0344-1.72255q0-1.44694-0.93017-3.5829-0.25839-0.31006-0.51677-0.31006h-0.1378q-0.10335 0-0.82682 0.48231h-0.0689q-0.55121-0.25838-0.55121-0.58566v-0.13781q0.90434-1.06798 1.757-1.06798zm-1.30914 10.26639v0.27561q0 0.76653 0.37896 1.06798h0.0689q1.76562-0.0775 1.80007-0.0861 0.31005-1.54168 0.0258-2.5666-0.2756-0.48231-0.89572-0.48231-0.62873 0-1.30914 1.20578z" style="font-feature-settings:normal;font-variant-caps:normal;font-variant-ligatures:normal;font-variant-numeric:normal"/>
    <path d="m243.34701 300.6559q0.55121 0.17226 0.86127 0.93018 0.20671 0.24977 0.48232 1.8259-0.31006 5.04706-0.27561 7.55337l0.0345 1.6881q0 0.96462-0.65457 0.96462-0.55121 0-0.55121-0.79237 0.10335-5.46048 0.2756-7.82898l0.0689-2.06706-0.44787-1.10243q-0.14641-0.1378-0.2756-0.1378h-0.17226q-0.58567-0.0344-2.15318 3.89296-0.55122 1.41249-0.55122 1.72254v1.37804l0.10335 2.24793-0.0689 0.99908v0.0344l0.0689 0.65456q0 0.31868-0.65456 0.68902-0.58567-0.16364-0.58567-0.96462l-0.0689-1.10243q0.1378-3.22117 0.10335-9.20702 0-1.20578 0.31006-1.20578 0.23254-0.20671 0.48231-0.20671 0.34451 0 0.34451 0.41341l-0.0689 2.41157q0.0431 0.17225 0.10335 0.17225h0.20671q0.0603 0 0.93017-1.61919 0.85267-1.20579 1.20579-1.20579 0.39618-0.31005 0.9474-0.1378z" style="font-feature-settings:normal;font-variant-caps:normal;font-variant-ligatures:normal;font-variant-numeric:normal"/>
    <path d="m247.86009 300.41474q0.71485 0.24977 1.24023 0.99908 0.48231 0.88711 0.80098 2.26515 0.32729 1.37804 0.37035 4.00493-0.0258 3.10919-0.19809 3.51399 0 1.99816-0.58567 1.99816 0 0.0861-2.69578 0.10335-0.77515 0-1.27469-1.27468-0.1378-0.56844-0.1378-0.99908v-0.17226q0-1.19717 0.99907-2.48047 0.6029-0.68901 1.5503-0.68901l0.75792 0.0344h0.37896l0.0345-0.37896 0.0344-1.72255q0-1.44694-0.93018-3.5829-0.25838-0.31006-0.51676-0.31006h-0.1378q-0.10336 0-0.82683 0.48231h-0.0689q-0.55121-0.25838-0.55121-0.58566v-0.13781q0.90433-1.06798 1.757-1.06798zm-1.30914 10.26639v0.27561q0 0.76653 0.37896 1.06798h0.0689q1.76561-0.0775 1.80006-0.0861 0.31006-1.54168 0.0258-2.5666-0.27561-0.48231-0.89572-0.48231-0.62873 0-1.30914 1.20578z" style="font-feature-settings:normal;font-variant-caps:normal;font-variant-ligatures:normal;font-variant-numeric:normal"/>
   </g>
   <g fill="#fff" stroke="#4c3121" stroke-width=".52916664">
    <path d="m214.74998 209.39214-2.79053 0.0775-0.76653 0.62873v2.64411l0.68902-0.31867 0.0775 8.33713h3.01445z" style="font-feature-settings:normal;font-variant-caps:normal;font-variant-ligatures:normal;font-variant-numeric:normal"/>
    <g transform="translate(181.19853,-92.379986)" style="font-feature-settings:normal;font-variant-caps:normal;font-variant-ligatures:normal;font-variant-numeric:normal" aria-label="2">
     <path d="m82.695116 302.23398q-2.592434-1.57613-4.823134-0.0258-1.119656 0.81821-1.972317 2.02399l1.739773 2.20486q0.223931-0.36173 0.62873-0.67179 0.895725-0.89572 1.800063-0.70624 0.508151 0.11196 0.413411 0.68902-0.07751 0.49092-0.577053 1.28329-0.938789 1.47278-2.290989 2.36851-0.585666 0.49954-1.085205 0.8785l-0.206706 3.04891 7.002157 0.14641 0.0086-2.91972-3.539836 0.16365q1.679484-1.5503 2.876655-3.3762 1.050754-1.59335 1.171332-2.79914 0.163642-1.50723-1.145494-2.30821z" fill="#fff" stroke="#4c3121" stroke-width=".52916664" style="font-feature-settings:normal;font-variant-caps:normal;font-variant-ligatures:normal;font-variant-numeric:normal"/>
    </g>
    <g transform="translate(203.60512,-94.560539)" style="font-feature-settings:normal;font-variant-caps:normal;font-variant-ligatures:normal;font-variant-numeric:normal" aria-label="3">
     <path d="m101.58693 304.11536 0.0775 2.62688 3.31591-0.0775-2.79053 2.02399q0.76653-0.11196 1.50723 0.0861 1.49861 0.39619 1.45555 1.95509-0.0517 1.56752-1.50723 1.54168-0.73208-0.0172-1.45555-0.34451l-0.68041 2.80776q1.24024 0.39618 2.7044 0.42202 2.9025 0.0603 3.97047-1.76561 1.46417-2.51492-0.0258-4.25469-0.74931-0.86989-1.71394-1.32637l2.98001-3.66041z" fill="#fff" stroke="#4c3121" stroke-width=".52916664" style="font-feature-settings:normal;font-variant-caps:normal;font-variant-ligatures:normal;font-variant-numeric:normal"/>
    </g>
    <g transform="translate(111.4536,-103.9983)" style="font-feature-settings:normal;font-variant-caps:normal;font-variant-ligatures:normal;font-variant-numeric:normal" aria-label="4">
     <path d="m126.53564 308.20029h-1.80006l0.0775-3.8585-2.97139 0.0861v6.25285l4.5303 0.16364-0.32729 5.02123 3.11781 0.0775 0.24977-11.60136h-2.79914z" fill="#fff" stroke="#4c3121" stroke-width=".52916664" style="font-feature-settings:normal;font-variant-caps:normal;font-variant-ligatures:normal;font-variant-numeric:normal"/>
    </g>
    <g transform="translate(136.62261,-99.366556)" style="font-feature-settings:normal;font-variant-caps:normal;font-variant-ligatures:normal;font-variant-numeric:normal" aria-label="5">
     <path d="m147.0145 302.47991 4.52169 0.18948 0.26699-2.54076-6.98493-0.26699 0.11196 5.32267q1.06798-0.22393 1.98955-0.1378 1.84312 0.18087 1.88619 1.74838 0.0517 1.57614-1.5503 1.79145-0.80098 0.11197-1.61919-0.0947l-0.15503 2.60105q1.70532 0.20671 3.39342-0.22393 3.36758-0.84405 3.20394-3.9877-0.14642-3.14365-2.6355-3.77238-1.23162-0.39618-2.44602-0.0775z" fill="#fff" stroke="#4c3121" stroke-width=".52916664" style="font-feature-settings:normal;font-variant-caps:normal;font-variant-ligatures:normal;font-variant-numeric:normal"/>
    </g>
   </g>
  </g>
 </g>
</svg>
