<?xml version="1.0" encoding="UTF-8"?>
<!-- Created with Inkscape (http://www.inkscape.org/) -->
<svg width="512" height="511.99997" version="1.1" viewBox="0 0 135.46666 135.46666" xmlns="http://www.w3.org/2000/svg" xmlns:cc="http://creativecommons.org/ns#" xmlns:dc="http://purl.org/dc/elements/1.1/" xmlns:rdf="http://www.w3.org/1999/02/22-rdf-syntax-ns#">
 <metadata>
  <rdf:RDF>
   <cc:Work rdf:about="">
    <dc:format>image/svg+xml</dc:format>
    <dc:type rdf:resource="http://purl.org/dc/dcmitype/StillImage"/>
    <dc:title/>
   </cc:Work>
  </rdf:RDF>
 </metadata>
 <g transform="translate(-193.34428,7.6635795)">
  <rect x="193.34428" y="-7.6635795" width="135.46666" height="135.46666" ry="0" opacity="0" stroke-width=".92353249"/>
  <rect x="193.56448" y="21.925364" width="135.02626" height="76.288773" opacity="0" stroke-width=".44039264"/>
  <g transform="matrix(.99999805 0 0 1 .00037727401 0)">
   <path d="m328.22304 68.597133-10.42273-18.761339c-0.41195-0.741627-1.19353-1.201473-2.04152-1.201473h-109.36208c-0.84826 0-1.62957 0.459846-2.04153 1.201473l-10.42299 18.761339c-0.3855 0.694002-0.58791 1.474523-0.58791 2.268538v10.46771h135.46667v-10.46771c0-0.794015-0.20241-1.574536-0.58791-2.268538z" fill="#e1c3a0" stroke-width=".26458332"/>
   <g transform="matrix(1.1069933,0,0,1.1069933,166.86889,32.033222)">
    <circle cx="63.425579" cy="25.645954" r="14.767649" fill="#d5a150" stroke-width=".05768613"/>
    <g fill="#674230" stroke-width=".05768613">
     <circle cx="60.598801" cy="15.232098" r="2.0799313"/>
     <circle cx="54.476795" cy="22.530823" r="2.0799313"/>
     <circle cx="57.16357" cy="30.577934" r="2.0799313"/>
     <circle cx="62.437923" cy="35.684837" r="2.0799313"/>
     <circle cx="65.310013" cy="19.579046" r="2.0799313"/>
     <circle cx="72.441292" cy="30.268171" r="2.0799313"/>
     <circle cx="71.952225" cy="19.924015" r="2.0799313"/>
     <circle cx="62.932941" cy="26.108309" r="2.0799313"/>
    </g>
    <g transform="matrix(.05644164 .01191767 -.01191767 .05644164 52.074808 8.3272468)" fill="#ad712c">
     <circle cx="129.80299" cy="294.63199" r="7.7259998"/>
     <circle cx="181.312" cy="294.63199" r="7.7259998"/>
     <circle cx="155.55701" cy="248.274" r="7.7259998"/>
     <circle cx="62.841" cy="340.98999" r="7.7259998"/>
     <circle cx="165.85899" cy="454.31" r="7.7259998"/>
     <circle cx="196.765" cy="413.103" r="7.7259998"/>
     <circle cx="248.274" cy="351.29199" r="7.7259998"/>
     <circle cx="330.68799" cy="320.38599" r="7.7259998"/>
     <circle cx="310.08499" cy="340.98999" r="7.7259998"/>
     <circle cx="340.98999" cy="371.89499" r="7.7259998"/>
     <circle cx="340.98999" cy="433.70599" r="7.7259998"/>
     <circle cx="454.31" cy="217.368" r="7.7259998"/>
     <circle cx="423.40399" cy="423.40399" r="7.7259998"/>
     <circle cx="268.87701" cy="31.936001" r="7.7259998"/>
     <circle cx="83.445" cy="124.652" r="7.7259998"/>
     <circle cx="42.237" cy="186.463" r="7.7259998"/>
     <circle cx="160.70799" cy="201.91499" r="7.7259998"/>
     <circle cx="191.614" cy="186.463" r="7.7259998"/>
     <circle cx="160.70799" cy="171.00999" r="7.7259998"/>
     <circle cx="304.93399" cy="248.274" r="7.7259998"/>
     <circle cx="237.972" cy="93.746002" r="7.7259998"/>
     <circle cx="335.83899" cy="186.463" r="7.7259998"/>
     <circle cx="351.29199" cy="232.821" r="7.7259998"/>
     <circle cx="382.19699" cy="232.821" r="7.7259998"/>
     <circle cx="382.19699" cy="263.72601" r="7.7259998"/>
     <circle cx="325.53699" cy="78.293999" r="7.7259998"/>
     <circle cx="356.44299" cy="62.841" r="7.7259998"/>
    </g>
    <circle cx="63.425579" cy="25.645954" r="14.767649" fill="#2b1e0a" opacity=".18699999" stroke-width=".05768613"/>
   </g>
   <g transform="matrix(.26578739 0 0 .26578739 233.22176 66.19051)">
    <circle cx="-75.768669" cy="20.227161" r="67.73333" fill="#d5a150" stroke-width=".26458332"/>
    <g fill="#674230" stroke-width=".26458332">
     <circle cx="-88.733978" cy="-27.537054" r="9.5398169"/>
     <circle cx="-116.81319" cy="5.9392986" r="9.5398169"/>
     <circle cx="-104.49001" cy="42.848198" r="9.5398169"/>
     <circle cx="-80.298653" cy="66.271523" r="9.5398169"/>
     <circle cx="-67.125526" cy="-7.5993333" r="9.5398169"/>
     <circle cx="-34.417202" cy="41.427433" r="9.5398169"/>
     <circle cx="-36.660339" cy="-6.017097" r="9.5398169"/>
     <circle cx="-78.028206" cy="22.347801" r="9.5398169"/>
    </g>
    <g transform="matrix(.25887535 .05466162 -.05466162 .25887535 -127.83015 -59.206857)" fill="#ad712c">
     <circle cx="129.80299" cy="294.63199" r="7.7259998"/>
     <circle cx="181.312" cy="294.63199" r="7.7259998"/>
     <circle cx="155.55701" cy="248.274" r="7.7259998"/>
     <circle cx="62.841" cy="340.98999" r="7.7259998"/>
     <circle cx="165.85899" cy="454.31" r="7.7259998"/>
     <circle cx="196.765" cy="413.103" r="7.7259998"/>
     <circle cx="248.274" cy="351.29199" r="7.7259998"/>
     <circle cx="330.68799" cy="320.38599" r="7.7259998"/>
     <circle cx="310.08499" cy="340.98999" r="7.7259998"/>
     <circle cx="340.98999" cy="371.89499" r="7.7259998"/>
     <circle cx="340.98999" cy="433.70599" r="7.7259998"/>
     <circle cx="454.31" cy="217.368" r="7.7259998"/>
     <circle cx="423.40399" cy="423.40399" r="7.7259998"/>
     <circle cx="268.87701" cy="31.936001" r="7.7259998"/>
     <circle cx="83.445" cy="124.652" r="7.7259998"/>
     <circle cx="42.237" cy="186.463" r="7.7259998"/>
     <circle cx="160.70799" cy="201.91499" r="7.7259998"/>
     <circle cx="191.614" cy="186.463" r="7.7259998"/>
     <circle cx="160.70799" cy="171.00999" r="7.7259998"/>
     <circle cx="304.93399" cy="248.274" r="7.7259998"/>
     <circle cx="237.972" cy="93.746002" r="7.7259998"/>
     <circle cx="335.83899" cy="186.463" r="7.7259998"/>
     <circle cx="351.29199" cy="232.821" r="7.7259998"/>
     <circle cx="382.19699" cy="232.821" r="7.7259998"/>
     <circle cx="382.19699" cy="263.72601" r="7.7259998"/>
     <circle cx="325.53699" cy="78.293999" r="7.7259998"/>
     <circle cx="356.44299" cy="62.841" r="7.7259998"/>
    </g>
   </g>
   <g transform="matrix(1.1069933,0,0,1.1069933,214.86323,32.033222)">
    <circle cx="63.425579" cy="25.645954" r="14.767649" fill="#d5a150" stroke-width=".05768613"/>
    <g fill="#674230" stroke-width=".05768613">
     <circle cx="60.598801" cy="15.232098" r="2.0799313"/>
     <circle cx="54.476795" cy="22.530823" r="2.0799313"/>
     <circle cx="57.16357" cy="30.577934" r="2.0799313"/>
     <circle cx="62.437923" cy="35.684837" r="2.0799313"/>
     <circle cx="65.310013" cy="19.579046" r="2.0799313"/>
     <circle cx="72.441292" cy="30.268171" r="2.0799313"/>
     <circle cx="71.952225" cy="19.924015" r="2.0799313"/>
     <circle cx="62.932941" cy="26.108309" r="2.0799313"/>
    </g>
    <g transform="matrix(.05644164 .01191767 -.01191767 .05644164 52.074808 8.3272468)" fill="#ad712c">
     <circle cx="129.80299" cy="294.63199" r="7.7259998"/>
     <circle cx="181.312" cy="294.63199" r="7.7259998"/>
     <circle cx="155.55701" cy="248.274" r="7.7259998"/>
     <circle cx="62.841" cy="340.98999" r="7.7259998"/>
     <circle cx="165.85899" cy="454.31" r="7.7259998"/>
     <circle cx="196.765" cy="413.103" r="7.7259998"/>
     <circle cx="248.274" cy="351.29199" r="7.7259998"/>
     <circle cx="330.68799" cy="320.38599" r="7.7259998"/>
     <circle cx="310.08499" cy="340.98999" r="7.7259998"/>
     <circle cx="340.98999" cy="371.89499" r="7.7259998"/>
     <circle cx="340.98999" cy="433.70599" r="7.7259998"/>
     <circle cx="454.31" cy="217.368" r="7.7259998"/>
     <circle cx="423.40399" cy="423.40399" r="7.7259998"/>
     <circle cx="268.87701" cy="31.936001" r="7.7259998"/>
     <circle cx="83.445" cy="124.652" r="7.7259998"/>
     <circle cx="42.237" cy="186.463" r="7.7259998"/>
     <circle cx="160.70799" cy="201.91499" r="7.7259998"/>
     <circle cx="191.614" cy="186.463" r="7.7259998"/>
     <circle cx="160.70799" cy="171.00999" r="7.7259998"/>
     <circle cx="304.93399" cy="248.274" r="7.7259998"/>
     <circle cx="237.972" cy="93.746002" r="7.7259998"/>
     <circle cx="335.83899" cy="186.463" r="7.7259998"/>
     <circle cx="351.29199" cy="232.821" r="7.7259998"/>
     <circle cx="382.19699" cy="232.821" r="7.7259998"/>
     <circle cx="382.19699" cy="263.72601" r="7.7259998"/>
     <circle cx="325.53699" cy="78.293999" r="7.7259998"/>
     <circle cx="356.44299" cy="62.841" r="7.7259998"/>
    </g>
    <circle cx="63.425579" cy="25.645954" r="14.767649" fill="#2b1e0a" opacity=".18699999" stroke-width=".05768613"/>
   </g>
   <g transform="matrix(.26578739 0 0 .26578739 281.21611 66.19051)">
    <circle cx="-75.768669" cy="20.227161" r="67.73333" fill="#d5a150" stroke-width=".26458332"/>
    <g fill="#674230" stroke-width=".26458332">
     <circle cx="-88.733978" cy="-27.537054" r="9.5398169"/>
     <circle cx="-116.81319" cy="5.9392986" r="9.5398169"/>
     <circle cx="-104.49001" cy="42.848198" r="9.5398169"/>
     <circle cx="-80.298653" cy="66.271523" r="9.5398169"/>
     <circle cx="-67.125526" cy="-7.5993333" r="9.5398169"/>
     <circle cx="-34.417202" cy="41.427433" r="9.5398169"/>
     <circle cx="-36.660339" cy="-6.017097" r="9.5398169"/>
     <circle cx="-78.028206" cy="22.347801" r="9.5398169"/>
    </g>
    <g transform="matrix(.25887535 .05466162 -.05466162 .25887535 -127.83015 -59.206857)" fill="#ad712c">
     <circle cx="129.80299" cy="294.63199" r="7.7259998"/>
     <circle cx="181.312" cy="294.63199" r="7.7259998"/>
     <circle cx="155.55701" cy="248.274" r="7.7259998"/>
     <circle cx="62.841" cy="340.98999" r="7.7259998"/>
     <circle cx="165.85899" cy="454.31" r="7.7259998"/>
     <circle cx="196.765" cy="413.103" r="7.7259998"/>
     <circle cx="248.274" cy="351.29199" r="7.7259998"/>
     <circle cx="330.68799" cy="320.38599" r="7.7259998"/>
     <circle cx="310.08499" cy="340.98999" r="7.7259998"/>
     <circle cx="340.98999" cy="371.89499" r="7.7259998"/>
     <circle cx="340.98999" cy="433.70599" r="7.7259998"/>
     <circle cx="454.31" cy="217.368" r="7.7259998"/>
     <circle cx="423.40399" cy="423.40399" r="7.7259998"/>
     <circle cx="268.87701" cy="31.936001" r="7.7259998"/>
     <circle cx="83.445" cy="124.652" r="7.7259998"/>
     <circle cx="42.237" cy="186.463" r="7.7259998"/>
     <circle cx="160.70799" cy="201.91499" r="7.7259998"/>
     <circle cx="191.614" cy="186.463" r="7.7259998"/>
     <circle cx="160.70799" cy="171.00999" r="7.7259998"/>
     <circle cx="304.93399" cy="248.274" r="7.7259998"/>
     <circle cx="237.972" cy="93.746002" r="7.7259998"/>
     <circle cx="335.83899" cy="186.463" r="7.7259998"/>
     <circle cx="351.29199" cy="232.821" r="7.7259998"/>
     <circle cx="382.19699" cy="232.821" r="7.7259998"/>
     <circle cx="382.19699" cy="263.72601" r="7.7259998"/>
     <circle cx="325.53699" cy="78.293999" r="7.7259998"/>
     <circle cx="356.44299" cy="62.841" r="7.7259998"/>
    </g>
   </g>
   <g transform="matrix(.26578739 0 0 .26578739 329.21045 66.19051)">
    <circle cx="-75.768669" cy="20.227161" r="67.73333" fill="#d5a150" stroke-width=".26458332"/>
    <g fill="#674230" stroke-width=".26458332">
     <circle cx="-88.733978" cy="-27.537054" r="9.5398169"/>
     <circle cx="-116.81319" cy="5.9392986" r="9.5398169"/>
     <circle cx="-104.49001" cy="42.848198" r="9.5398169"/>
     <circle cx="-80.298653" cy="66.271523" r="9.5398169"/>
     <circle cx="-67.125526" cy="-7.5993333" r="9.5398169"/>
     <circle cx="-34.417202" cy="41.427433" r="9.5398169"/>
     <circle cx="-36.660339" cy="-6.017097" r="9.5398169"/>
     <circle cx="-78.028206" cy="22.347801" r="9.5398169"/>
    </g>
    <g transform="matrix(.25887535 .05466162 -.05466162 .25887535 -127.83015 -59.206857)" fill="#ad712c">
     <circle cx="129.80299" cy="294.63199" r="7.7259998"/>
     <circle cx="181.312" cy="294.63199" r="7.7259998"/>
     <circle cx="155.55701" cy="248.274" r="7.7259998"/>
     <circle cx="62.841" cy="340.98999" r="7.7259998"/>
     <circle cx="165.85899" cy="454.31" r="7.7259998"/>
     <circle cx="196.765" cy="413.103" r="7.7259998"/>
     <circle cx="248.274" cy="351.29199" r="7.7259998"/>
     <circle cx="330.68799" cy="320.38599" r="7.7259998"/>
     <circle cx="310.08499" cy="340.98999" r="7.7259998"/>
     <circle cx="340.98999" cy="371.89499" r="7.7259998"/>
     <circle cx="340.98999" cy="433.70599" r="7.7259998"/>
     <circle cx="454.31" cy="217.368" r="7.7259998"/>
     <circle cx="423.40399" cy="423.40399" r="7.7259998"/>
     <circle cx="268.87701" cy="31.936001" r="7.7259998"/>
     <circle cx="83.445" cy="124.652" r="7.7259998"/>
     <circle cx="42.237" cy="186.463" r="7.7259998"/>
     <circle cx="160.70799" cy="201.91499" r="7.7259998"/>
     <circle cx="191.614" cy="186.463" r="7.7259998"/>
     <circle cx="160.70799" cy="171.00999" r="7.7259998"/>
     <circle cx="304.93399" cy="248.274" r="7.7259998"/>
     <circle cx="237.972" cy="93.746002" r="7.7259998"/>
     <circle cx="335.83899" cy="186.463" r="7.7259998"/>
     <circle cx="351.29199" cy="232.821" r="7.7259998"/>
     <circle cx="382.19699" cy="232.821" r="7.7259998"/>
     <circle cx="382.19699" cy="263.72601" r="7.7259998"/>
     <circle cx="325.53699" cy="78.293999" r="7.7259998"/>
     <circle cx="356.44299" cy="62.841" r="7.7259998"/>
    </g>
   </g>
   <path d="m326.47521 69.655202h-38.26219c-0.8845 0-1.69334 0.293256-2.08889 0.757435l-2.73447 3.209049c-0.7911 0.92867-2.40903 1.515182-4.17803 1.515182h-36.2675c-1.76927 0-3.38693-0.586512-4.17803-1.515182l-2.73447-3.209049c-0.39555-0.464179-1.20438-0.757435-2.08889-0.757435h-38.26271c-1.28985 0-2.33575 0.61368-2.33575 1.370494v26.038144c0 0.756813 1.0459 1.370493 2.33575 1.370493h130.79544c1.28985 0 2.33574-0.61368 2.33574-1.370493v-26.038299c-2.6e-4 -0.756815-1.04616-1.370339-2.336-1.370339z" fill="#ebd2af" stroke-width=".20266961"/>
  </g>
  <rect transform="rotate(-15)" x="246.72649" y="150.62325" width="47.767994" height="17.559212" ry="4.6208458" fill="#fff"/>
  <g transform="rotate(-15)" fill="#424242" stroke-width=".26458332" style="font-feature-settings:normal;font-variant-caps:normal;font-variant-ligatures:normal;font-variant-numeric:normal" aria-label="Mariana">
   <path d="m257.50188 152.70538q0.68902 0 0.68902 1.65364 0.24116 6.71794 0.34451 6.71794l-0.0689 0.44786q0 2.17041 0.34451 3.82406-0.22393 0.55121-0.68902 0.55121h-0.0344q-0.62012 0-0.62012-1.34359l-0.0344-0.99907 0.0344-2.54937-0.44786-5.54661h-0.0344q-0.31006 0-0.65457 0.82683-0.12058 0.0689-0.31006 0.86127-0.15503 0.24116-0.34451 0.89572l-0.41341 0.51677q-0.64595-0.267-0.93017-0.82682-0.88712-1.90342-1.34359-2.23932h-0.0689l-0.0344 0.55122-0.0345 5.02984 0.0258 4.34082q0 0.65457-0.48231 0.65457-0.65457 0-0.57705-2.13596v-0.0344q0-1.04214 0.0345-2.82498v-3.41065q0-1.54168-0.34451-3.75515 0.15503-0.82682 0.75792-0.82682 0.81821 0 1.06798 0.68902 0 0.25838 1.24023 1.92925 0 0.26699 0.37896 0.51676h0.0345q0.20671-0.0689 1.17134-1.757 0.62873-1.30913 1.10243-1.68809z" style="font-feature-settings:normal;font-variant-caps:normal;font-variant-ligatures:normal;font-variant-numeric:normal"/>
   <path d="m261.99773 152.76567q0.71486 0.24976 1.24024 0.99907 0.48231 0.88712 0.80098 2.26515 0.32729 1.37804 0.37035 4.00493-0.0258 3.1092-0.19809 3.51399 0 1.99816-0.58567 1.99816 0 0.0861-2.69579 0.10335-0.77514 0-1.27468-1.27468-0.13781-0.56844-0.13781-0.99908v-0.17226q0-1.19717 0.99908-2.48046 0.60289-0.68902 1.5503-0.68902l0.75792 0.0344h0.37896l0.0344-0.37896 0.0344-1.72255q0-1.44694-0.93018-3.5829-0.25838-0.31006-0.51676-0.31006h-0.1378q-0.10336 0-0.82683 0.48232h-0.0689q-0.55122-0.25839-0.55122-0.58567v-0.1378q0.90434-1.06798 1.757-1.06798zm-1.30913 10.26638v0.27561q0 0.76653 0.37896 1.06798h0.0689q1.76561-0.0775 1.80006-0.0861 0.31006-1.54168 0.0258-2.5666-0.27561-0.48231-0.89572-0.48231-0.62873 0-1.30914 1.20578z" style="font-feature-settings:normal;font-variant-caps:normal;font-variant-ligatures:normal;font-variant-numeric:normal"/>
   <path d="m268.61232 154.78966q0.82682 0.28422 1.13688 0.89572l0.0345 0.17226q-0.12058 0.65457-0.55122 0.65457-0.25838 0-0.89572-0.58567h-0.27561q-0.78376 0-1.52445 0.80099-0.7407 0.80098-0.21532 4.87481 0.53399 4.07382-0.0775 3.75515l-0.62011 0.0172q-0.3359-0.16365-0.41341-4.10828-0.0689-3.95325-0.23255-6.11505 0-0.55121 0.72347-0.55121 0.44786 0 0.44786 0.41341l-0.0344 0.51676q0.0689 0.15503 0.13781 0.17226h0.1378q0.79237-0.91295 2.22209-0.91295z" style="font-feature-settings:normal;font-variant-caps:normal;font-variant-ligatures:normal;font-variant-numeric:normal"/>
   <path d="m271.35117 152.30058q0.37896 0 0.58566 0.68902-0.17225 0.62011-0.68902 0.62011h-0.10335q-0.37896 0-0.48231-0.58566 0-0.44786 0.65457-0.72347zm0.12058 2.54937q0.37896 0 0.37896 1.58474l0.0344 1.6881q-0.0861 7.32083-0.24116 7.32083-0.37896 0.41341-0.68902 0.41341-0.37896 0-0.51676-0.96463l0.0344-0.0345v-0.0344l0.34451-3.13504 0.0689-3.37619-0.10335-2.5666q0.12058-0.89572 0.68902-0.89572z" style="font-feature-settings:normal;font-variant-caps:normal;font-variant-ligatures:normal;font-variant-numeric:normal"/>
   <path d="m275.2958 152.76567q0.71486 0.24976 1.24024 0.99907 0.48231 0.88712 0.80098 2.26515 0.32728 1.37804 0.37035 4.00493-0.0258 3.1092-0.19809 3.51399 0 1.99816-0.58567 1.99816 0 0.0861-2.69579 0.10335-0.77514 0-1.27468-1.27468-0.13781-0.56844-0.13781-0.99908v-0.17226q0-1.19717 0.99908-2.48046 0.60289-0.68902 1.55029-0.68902l0.75792 0.0344h0.37897l0.0344-0.37896 0.0344-1.72255q0-1.44694-0.93018-3.5829-0.25838-0.31006-0.51676-0.31006h-0.13781q-0.10335 0-0.82682 0.48232h-0.0689q-0.55122-0.25839-0.55122-0.58567v-0.1378q0.90434-1.06798 1.757-1.06798zm-1.30913 10.26638v0.27561q0 0.76653 0.37896 1.06798h0.0689q1.76561-0.0775 1.80006-0.0861 0.31006-1.54168 0.0258-2.5666-0.27561-0.48231-0.89573-0.48231-0.62873 0-1.30913 1.20578z" style="font-feature-settings:normal;font-variant-caps:normal;font-variant-ligatures:normal;font-variant-numeric:normal"/>
   <path d="m282.90946 153.00682q0.55122 0.17226 0.86128 0.93018 0.2067 0.24977 0.48231 1.8259-0.31006 5.04706-0.27561 7.55337l0.0344 1.6881q0 0.96462-0.65456 0.96462-0.55122 0-0.55122-0.79237 0.10335-5.46047 0.27561-7.82898l0.0689-2.06705-0.44786-1.10244q-0.14642-0.1378-0.27561-0.1378h-0.17226q-0.58566-0.0344-2.15318 3.89296-0.55122 1.41249-0.55122 1.72255v1.37803l0.10336 2.24793-0.0689 0.99908v0.0344l0.0689 0.65457q0 0.31867-0.65457 0.68902-0.58567-0.16365-0.58567-0.96463l-0.0689-1.10243q0.13781-3.22117 0.10335-9.20702 0-1.20578 0.31006-1.20578 0.23255-0.20671 0.48232-0.20671 0.34451 0 0.34451 0.41341l-0.0689 2.41157q0.0431 0.17225 0.10336 0.17225h0.2067q0.0603 0 0.93018-1.61919 0.85266-1.20578 1.20578-1.20578 0.39619-0.31006 0.9474-0.13781z" style="font-feature-settings:normal;font-variant-caps:normal;font-variant-ligatures:normal;font-variant-numeric:normal"/>
   <path d="m287.42254 152.76567q0.71486 0.24976 1.24023 0.99907 0.48232 0.88712 0.80099 2.26515 0.32728 1.37804 0.37035 4.00493-0.0258 3.1092-0.1981 3.51399 0 1.99816-0.58566 1.99816 0 0.0861-2.69579 0.10335-0.77515 0-1.27469-1.27468-0.1378-0.56844-0.1378-0.99908v-0.17226q0-1.19717 0.99908-2.48046 0.60289-0.68902 1.55029-0.68902l0.75792 0.0344h0.37896l0.0345-0.37896 0.0344-1.72255q0-1.44694-0.93017-3.5829-0.25838-0.31006-0.51677-0.31006h-0.1378q-0.10335 0-0.82682 0.48232h-0.0689q-0.55122-0.25839-0.55122-0.58567v-0.1378q0.90434-1.06798 1.757-1.06798zm-1.30914 10.26638v0.27561q0 0.76653 0.37896 1.06798h0.0689q1.76561-0.0775 1.80006-0.0861 0.31006-1.54168 0.0258-2.5666-0.27561-0.48231-0.89573-0.48231-0.62873 0-1.30914 1.20578z" style="font-feature-settings:normal;font-variant-caps:normal;font-variant-ligatures:normal;font-variant-numeric:normal"/>
  </g>
 </g>
</svg>
