<?xml version="1.0" encoding="UTF-8"?>
<!-- Created with Inkscape (http://www.inkscape.org/) -->
<svg width="562" height="512" version="1.1" viewBox="0 0 148.69583 135.46667" xmlns="http://www.w3.org/2000/svg" xmlns:cc="http://creativecommons.org/ns#" xmlns:dc="http://purl.org/dc/elements/1.1/" xmlns:rdf="http://www.w3.org/1999/02/22-rdf-syntax-ns#">
 <metadata>
  <rdf:RDF>
   <cc:Work rdf:about="">
    <dc:format>image/svg+xml</dc:format>
    <dc:type rdf:resource="http://purl.org/dc/dcmitype/StillImage"/>
    <dc:title/>
   </cc:Work>
  </rdf:RDF>
 </metadata>
 <g transform="translate(-135.56569,-109.05898)">
  <rect x="142.18028" y="109.05898" width="135.46666" height="135.46666" ry="0" opacity="0" stroke-width=".88159168"/>
  <g transform="matrix(.22997619 0 0 .23023265 150.98935 111.59876)">
   <path d="m80 452.219c-2.977 0-5.781-1.668-7.156-4.422l-40-80c-1.977-3.953-0.375-8.758 3.578-10.734 3.945-1.969 8.758-0.375 10.734 3.578l24.844 49.691v-46.113c0-4.418 3.578-8 8-8s8 3.582 8 8v80c0 3.711-2.555 6.934-6.164 7.785-0.609 0.145-1.227 0.215-1.836 0.215z" fill="#868491"/>
  </g>
  <g transform="matrix(.22997619 0 0 .23023265 150.98935 111.59876)">
   <path d="m432.219 452.219c-0.609 0-1.227-0.07-1.836-0.215-3.609-0.852-6.164-4.074-6.164-7.785v-80c0-4.418 3.578-8 8-8s8 3.582 8 8v46.113l24.844-49.691c1.984-3.953 6.781-5.547 10.734-3.578 3.953 1.977 5.555 6.781 3.578 10.734l-40 80c-1.375 2.754-4.18 4.422-7.156 4.422z" fill="#868491"/>
  </g>
  <g transform="matrix(.26435718 0 0 .23023265 142.18028 111.59876)">
   <path d="m504.438 372.219h-496.438c-4.418 0-8-3.582-8-8v-16c0-4.418 3.582-8 8-8h496.438c4.418 0 8 3.582 8 8v16c0 4.418-3.582 8-8 8z" fill="#e6be8a"/>
  </g>
  <g transform="matrix(.86920137 0 0 .87017067 112.76932 123.80134)">
   <g transform="matrix(.26458333 0 0 .26458333 49.993464 -14.023205)">
    <path d="m424 116.219h-40c-4.418 0-8 3.582-8 8v216h56v-216c0-4.418-3.582-8-8-8z" fill="#ff4f19"/>
   </g>
   <g transform="matrix(.52916667 0 0 .26458333 -64.306539 -14.023205)">
    <rect x="404" y="140.21899" width="28" height="16" fill="#ffcd00"/>
   </g>
   <g transform="matrix(.52916667 0 0 .26458333 -64.306539 -14.023205)">
    <rect x="404" y="292.21899" width="28" height="16" fill="#ffcd00"/>
   </g>
  </g>
  <g transform="matrix(.86920137 0 0 .87017067 119.54164 123.80134)">
   <g transform="matrix(.26458333 0 0 .26458333 36.840454 -13.781903)" fill="#fbc02d">
    <path d="m168.219 84.219h-48.219c-4.418 0-8 3.582-8 8v248h64.219v-248c0-4.418-3.582-8-8-8z" fill="#fbc02d"/>
   </g>
   <g fill="#ff9100">
    <g transform="matrix(.53097741 0 0 .48326282 7.0043167 -35.190815)">
     <rect x="112" y="108.219" width="32" height="16" fill="#ff9100"/>
    </g>
    <g transform="matrix(.53097741 0 0 .24196131 7.0043168 33.632958)">
     <rect x="112" y="108.219" width="32" height="16" fill="#ff9100"/>
    </g>
    <g transform="matrix(.53097741 0 0 .48326282 7.0043168 -26.010801)">
     <rect x="112" y="108.219" width="32" height="16" fill="#ff9100"/>
    </g>
   </g>
  </g>
  <g transform="matrix(.86920137 0 0 .87017067 122.73247 123.80134)">
   <g transform="matrix(.26458333 0 0 .26458333 34.726684 -14.023205)" fill="#53adf6">
    <path d="m216 100.219h-32c-4.418 0-8 3.582-8 8v232h48v-232c0-4.418-3.582-8-8-8z" fill="#53adf6"/>
   </g>
   <g transform="matrix(.396875 0 0 .21179862 36.84335 -.39998036)" fill="#0b7edb">
    <rect x="112" y="108.219" width="32" height="16" fill="#0b7edb"/>
   </g>
   <g transform="matrix(.396875 0 0 .21179862 36.84335 42.069084)" fill="#0b7edb">
    <rect x="112" y="108.219" width="32" height="16" fill="#0b7edb"/>
   </g>
  </g>
  <g transform="matrix(.86920137 0 0 .87017067 118.38011 123.80134)">
   <g transform="matrix(.38523408 0 0 .26458333 23.164598 -14.023205)" fill="#5eaf00">
    <path d="m104 108.219h-16c-4.418 0-8 3.582-8 8v223.125c0 0.483 0.392 0.875 0.875 0.875h31.125v-224c0-4.418-3.582-8-8-8z" fill="#5eaf00"/>
   </g>
   <g transform="matrix(.77046667 0 0 .26458333 -143.25614 -10.162381)">
    <rect x="256" y="140.21899" width="16" height="16" fill="#5d647f"/>
   </g>
   <g transform="matrix(.77046667 0 0 .26458333 -143.25612 26.34824)">
    <rect x="256" y="140.21899" width="16" height="16" fill="#5d647f"/>
   </g>
  </g>
  <g transform="matrix(.86920137 0 0 .87017067 111.66421 123.80134)">
   <g transform="matrix(.26458333 0 0 .26458333 44.164145 -14.023205)">
    <path d="m336 60.219h-40c-4.418 0-8 3.582-8 8v272h56v-272c0-4.418-3.582-8-8-8z" fill="#ff9100"/>
   </g>
   <g fill="#803300">
    <g transform="matrix(.45475261 0 0 .76980836 69.564143 -68.698149)">
     <rect x="112" y="108.219" width="32" height="16" fill="#803300"/>
    </g>
    <g transform="matrix(.46302083 0 0 .16655459 68.505811 43.410502)">
     <rect x="112" y="108.219" width="32" height="16" fill="#803300"/>
    </g>
    <g transform="matrix(.46302083 0 0 .16655459 68.505811 48.192043)">
     <rect x="112" y="108.219" width="32" height="16" fill="#803300"/>
    </g>
   </g>
  </g>
  <g transform="matrix(.86920137 0 0 .87017067 111.4502 123.80134)">
   <g transform="matrix(.33244938 0 0 .26458333 23.365652 -14.023205)">
    <path d="m280 116.219h-16c-4.418 0-8 3.582-8 8v216h32v-216c0-4.418-3.582-8-8-8z" fill="#00c37a"/>
   </g>
   <g fill="#006b43">
    <g transform="matrix(.33244896 0 0 .76980836 71.238416 -29.366003)">
     <rect x="112" y="108.219" width="32" height="16" fill="#006b43"/>
    </g>
    <g transform="matrix(.33244896 0 0 .16655459 71.238416 7.9391802)">
     <rect x="112" y="108.219" width="32" height="16" fill="#006b43"/>
    </g>
    <g transform="matrix(.33244896 0 0 .16655459 71.238416 12.720721)">
     <rect x="112" y="108.219" width="32" height="16" fill="#006b43"/>
    </g>
   </g>
  </g>
  <g transform="matrix(.86920137 0 0 .87017067 118.2574 123.80134)">
   <path d="m49.881165 21.20104h-8.232152c-1.515402 0-2.74405 0.947738-2.74405 2.116667v52.916666h13.720253v-52.916666c0-1.168929-1.228649-2.116667-2.744051-2.116667z" fill="#c3002b" stroke-width=".30125365"/>
   <g fill="#fbc02d">
    <g transform="matrix(.85751459 0 0 .26458333 -180.61876 -3.8885419)">
     <g fill="#fbc02d">
      <rect x="256" y="140.21899" width="16" height="16" fill="#fbc02d"/>
     </g>
    </g>
    <g transform="matrix(.85751459 0 0 .26458333 -180.61876 8.9004381)">
     <g fill="#fbc02d">
      <rect x="256" y="140.21899" width="16" height="16" fill="#fbc02d"/>
     </g>
    </g>
    <g transform="matrix(.85751459 0 0 .53604753 -180.61876 -14.444607)">
     <g fill="#fbc02d">
      <rect x="256" y="140.21899" width="16" height="16" fill="#fbc02d"/>
     </g>
    </g>
   </g>
  </g>
  <g transform="matrix(.86920137 0 0 .87017067 108.36393 123.80134)">
   <g transform="matrix(.39277476 0 0 .26458333 5.3624939 -14.023205)">
    <path d="m368 84.219h-16c-4.418 0-8 3.582-8 8v248h32v-248c0-4.418-3.582-8-8-8z" fill="#4bb9ec"/>
   </g>
   <g fill="#fbc02d">
    <g transform="matrix(.78554792 0 0 .26458333 -60.623243 23.61983)">
     <g fill="#fbc02d">
      <rect x="256" y="140.21899" width="16" height="16" fill="#fbc02d"/>
     </g>
    </g>
    <g transform="matrix(.78554792 0 0 .26458333 -60.623243 17.345991)">
     <g fill="#fbc02d">
      <rect x="256" y="140.21899" width="16" height="16" fill="#fbc02d"/>
     </g>
    </g>
    <circle cx="146.76141" cy="27.521252" r="3.378221"/>
    <g transform="matrix(.78554792 0 0 .17409526 -60.623243 -4.7132809)">
     <g fill="#fbc02d">
      <rect x="256" y="140.21899" width="16" height="16" fill="#fbc02d"/>
     </g>
    </g>
   </g>
  </g>
  <g transform="matrix(.86920137 0 0 .87017067 108.60939 123.80134)">
   <g transform="matrix(.31284363 0 0 .26458333 35.430238 -14.023205)" fill="#808080">
    <path d="m464 100.219h-24c-4.418 0-8 3.582-8 8v232h40v-232c0-4.418-3.582-8-8-8z" fill="#808080"/>
   </g>
   <rect x="173.57799" y="23.973743" width="6.5151405" height="40.538654" ry="1.9304132" fill="#fff"/>
  </g>
  <g transform="matrix(.86920137 0 0 .87017067 83.860109 123.80134)">
   <rect x="119.68555" y="95.271927" width="50.673317" height="24.612753" ry="5.7912364" fill="#53adf6"/>
   <rect x="124.65352" y="97.684944" width="40.737373" height="19.786722" ry="4.6556997" fill="#fff"/>
  </g>
  <g transform="matrix(.86920137 0 0 .87017067 -62.435847 96.152562)" fill="#424242">
   <g stroke-width=".26458332" style="font-feature-settings:normal;font-variant-caps:normal;font-variant-ligatures:normal;font-variant-numeric:normal" aria-label="Matias">
    <path d="m302.8556 133.62933q0.68902 0 0.68902 1.65364 0.24115 6.71794 0.34451 6.71794l-0.0689 0.44786q0 2.17041 0.34451 3.82406-0.22393 0.55121-0.68902 0.55121h-0.0344q-0.62011 0-0.62011-1.34358l-0.0344-0.99908 0.0344-2.54937-0.44787-5.54661h-0.0345q-0.31006 0-0.65456 0.82683-0.12058 0.0689-0.31006 0.86127-0.15503 0.24116-0.34451 0.89572l-0.41341 0.51677q-0.64596-0.267-0.93018-0.82682-0.88711-1.90342-1.34359-2.23932h-0.0689l-0.0344 0.55122-0.0344 5.02984 0.0258 4.34082q0 0.65457-0.48232 0.65457-0.65456 0-0.57705-2.13596v-0.0345q0-1.04214 0.0344-2.82498v-3.41065q0-1.54168-0.34451-3.75515 0.15503-0.82682 0.75792-0.82682 0.81821 0 1.06798 0.68902 0 0.25838 1.24024 1.92925 0 0.26699 0.37896 0.51676h0.0344q0.2067-0.0689 1.17133-1.75699 0.62873-1.30914 1.10243-1.6881z" style="font-feature-settings:normal;font-variant-caps:normal;font-variant-ligatures:normal;font-variant-numeric:normal"/>
    <path d="m307.35145 133.68962q0.71485 0.24977 1.24023 0.99907 0.48232 0.88712 0.80099 2.26515 0.32728 1.37804 0.37034 4.00493-0.0258 3.1092-0.19809 3.51399 0 1.99816-0.58566 1.99816 0 0.0861-2.69579 0.10335-0.77515 0-1.27469-1.27468-0.1378-0.56844-0.1378-0.99908v-0.17225q0-1.19718 0.99908-2.48047 0.60289-0.68902 1.55029-0.68902l0.75792 0.0345h0.37896l0.0344-0.37896 0.0344-1.72255q0-1.44694-0.93017-3.5829-0.25839-0.31006-0.51677-0.31006h-0.1378q-0.10335 0-0.82682 0.48232h-0.0689q-0.55121-0.25839-0.55121-0.58567v-0.1378q0.90434-1.06798 1.757-1.06798zm-1.30914 10.26638v0.27561q0 0.76653 0.37896 1.06798h0.0689q1.76562-0.0775 1.80007-0.0861 0.31005-1.54168 0.0258-2.5666-0.2756-0.48231-0.89572-0.48231-0.62873 0-1.30914 1.20578z" style="font-feature-settings:normal;font-variant-caps:normal;font-variant-ligatures:normal;font-variant-numeric:normal"/>
    <path d="m312.97557 132.62164h0.10335q0.58567 0 0.82682 1.10243-0.17225 0.22393-0.17225 0.72347v0.55121q0.0689 0.12058 0.2067 0.17226l0.79237-0.0689q1.13689 0 1.13689 0.72347 0 0.68902-0.82683 0.68902-1.30913 0-1.30913 0.27561l-0.0344 0.17226q0.2067 2.48047 0.2067 7.4414 0 1.80007-0.37896 1.96371-0.18948 0.2067-0.41341 0.2067-0.35312 0-0.48231-0.58566h-0.0344q0.24115-2.06706 0.24115-5.92557l-0.1378-2.96278 0.0345-0.27561h-0.0345l-2.10151 0.0345h-0.0344q-0.267 0-0.44786-0.62011 0.18086-0.58567 0.68902-0.58567 1.57613-0.28422 1.72254-0.44786l0.0344-0.13781v-1.51584q0-0.72347 0.41342-0.93017z" style="font-feature-settings:normal;font-variant-caps:normal;font-variant-ligatures:normal;font-variant-numeric:normal"/>
    <path d="m317.08384 133.22453q0.37896 0 0.58567 0.68902-0.17226 0.62011-0.68902 0.62011h-0.10335q-0.37896 0-0.48232-0.58566 0-0.44786 0.65457-0.72347zm0.12058 2.54937q0.37896 0 0.37896 1.58474l0.0345 1.6881q-0.0861 7.32083-0.24115 7.32083-0.37896 0.41341-0.68902 0.41341-0.37896 0-0.51677-0.96463l0.0344-0.0344v-0.0345l0.34451-3.13504 0.0689-3.37619-0.10336-2.5666q0.12058-0.89572 0.68902-0.89572z" style="font-feature-settings:normal;font-variant-caps:normal;font-variant-ligatures:normal;font-variant-numeric:normal"/>
    <path d="m321.02848 133.68962q0.71485 0.24977 1.24023 0.99907 0.48231 0.88712 0.80099 2.26515 0.32728 1.37804 0.37034 4.00493-0.0258 3.1092-0.19809 3.51399 0 1.99816-0.58567 1.99816 0 0.0861-2.69578 0.10335-0.77515 0-1.27469-1.27468-0.1378-0.56844-0.1378-0.99908v-0.17225q0-1.19718 0.99908-2.48047 0.60289-0.68902 1.55029-0.68902l0.75792 0.0345h0.37896l0.0344-0.37896 0.0344-1.72255q0-1.44694-0.93017-3.5829-0.25839-0.31006-0.51677-0.31006h-0.1378q-0.10335 0-0.82682 0.48232h-0.0689q-0.55121-0.25839-0.55121-0.58567v-0.1378q0.90434-1.06798 1.757-1.06798zm-1.30914 10.26638v0.27561q0 0.76653 0.37896 1.06798h0.0689q1.76561-0.0775 1.80007-0.0861 0.31005-1.54168 0.0258-2.5666-0.2756-0.48231-0.89572-0.48231-0.62873 0-1.30914 1.20578z" style="font-feature-settings:normal;font-variant-caps:normal;font-variant-ligatures:normal;font-variant-numeric:normal"/>
    <path d="m327.71196 133.57765q1.757 0.26699 1.757 1.03353 0 0.35312-0.55121 0.51676l-0.96463-0.31006h-0.17226q-0.71485 0-1.20578 0.93018-0.34451 0.93018-0.34451 2.13596 0 1.3522 1.55029 2.20486 1.10244 0.93018 1.44694 1.51584l0.54261 1.10243 0.0344 0.15503v0.0689q0 1.82591-0.93018 2.75608-0.81821 1.13688-1.757 1.13688h-0.17225q-1.11104 0-2.41157-1.13688-0.51676-0.72347-0.51676-1.55029 0.0947-0.93018 0.44786-0.93018 0.42202 0 0.51676 1.30914 0.24977 0.59428 0.93018 0.86127 0.56844 0.20671 0.86127 0.20671h0.20671q0.68902 0 1.58474-1.58475l0.17226-0.62011q0-0.99908-0.78376-1.70533l-1.79145-1.48139q-0.6115-0.64595-0.89573-1.55029v-0.0344q-0.21531-1.85174 0.18949-2.79053 0.40479-0.93879 0.60289-1.44694 0.50815-0.79237 1.65364-0.79237z" style="font-feature-settings:normal;font-variant-caps:normal;font-variant-ligatures:normal;font-variant-numeric:normal"/>
   </g>
   <g transform="rotate(31.004681,337.28475,88.642434)" style="font-feature-settings:normal;font-variant-caps:normal;font-variant-ligatures:normal;font-variant-numeric:normal" aria-label="'">
    <path d="m343.15573 135.38602q0.65457 0.24977 0.65457 0.55121 0.24116 0.6718 0.24116 1.03353-0.24977 1.37804-0.82683 1.37804-0.44786-0.0861-0.44786-0.41341l0.27561-0.96463v-0.0689q0-0.31867-0.31006-1.13688 0.25838-0.37896 0.41341-0.37896z" fill="#424242" stroke-width=".26458332" style="font-feature-settings:normal;font-variant-caps:normal;font-variant-ligatures:normal;font-variant-numeric:normal"/>
   </g>
  </g>
  <g fill="#fff" stroke="#424242" stroke-width="1.0583334">
   <g style="font-feature-settings:normal;font-variant-caps:normal;font-variant-ligatures:normal;font-variant-numeric:normal" aria-label="1">
    <path d="m159.70305 157.53688-2.79053 0.0775-0.76653 0.62873v2.64411l0.68902-0.31867 0.0775 8.33713h3.01446z" fill="#fff" stroke="#424242" stroke-width="1.0583334" style="font-feature-settings:normal;font-variant-caps:normal;font-variant-ligatures:normal;font-variant-numeric:normal"/>
   </g>
   <g style="font-feature-settings:normal;font-variant-caps:normal;font-variant-ligatures:normal;font-variant-numeric:normal" aria-label="2">
    <path d="m173.47591 157.99876q-2.59244-1.57613-4.82314-0.0258-1.11965 0.81821-1.97231 2.02399l1.73977 2.20486q0.22393-0.36173 0.62873-0.67179 0.89573-0.89573 1.80006-0.70625 0.50815 0.11197 0.41341 0.68902-0.0775 0.49093-0.57705 1.2833-0.93879 1.47278-2.29099 2.3685-0.58566 0.49954-1.0852 0.8785l-0.20671 3.04891 7.00216 0.14642 9e-3 -2.91972-3.53983 0.16364q1.67948-1.55029 2.87665-3.37619 1.05075-1.59336 1.17133-2.79914 0.16364-1.50723-1.14549-2.30822z" fill="#fff" stroke="#424242" stroke-width="1.0583334" style="font-feature-settings:normal;font-variant-caps:normal;font-variant-ligatures:normal;font-variant-numeric:normal"/>
   </g>
   <g style="font-feature-settings:normal;font-variant-caps:normal;font-variant-ligatures:normal;font-variant-numeric:normal" aria-label="3">
    <path d="m180.82512 157.69956 0.0775 2.62688 3.3159-0.0775-2.79052 2.02399q0.76653-0.11196 1.50723 0.0861 1.49861 0.39619 1.45555 1.95509-0.0517 1.56752-1.50723 1.54168-0.73208-0.0172-1.45555-0.34451l-0.68041 2.80775q1.24023 0.39619 2.7044 0.42203 2.90249 0.0603 3.97047-1.76561 1.46417-2.51492-0.0258-4.2547-0.7493-0.86988-1.71393-1.32636l2.98001-3.66041z" fill="#fff" stroke="#424242" stroke-width="1.0583334" style="font-feature-settings:normal;font-variant-caps:normal;font-variant-ligatures:normal;font-variant-numeric:normal"/>
   </g>
   <g style="font-feature-settings:normal;font-variant-caps:normal;font-variant-ligatures:normal;font-variant-numeric:normal" aria-label="4">
    <path d="m199.82084 161.27912h-1.80006l0.0775-3.85851-2.97139 0.0861v6.25285l4.5303 0.16364-0.32729 5.02123 3.11782 0.0775 0.24976-11.60136h-2.79914z" fill="#fff" stroke="#424242" stroke-width="1.0583334" style="font-feature-settings:normal;font-variant-caps:normal;font-variant-ligatures:normal;font-variant-numeric:normal"/>
   </g>
   <g style="font-feature-settings:normal;font-variant-caps:normal;font-variant-ligatures:normal;font-variant-numeric:normal" aria-label="5">
    <path d="m208.92044 160.19053 4.52169 0.18948 0.267-2.54076-6.98494-0.26699 0.11197 5.32267q1.06798-0.22393 1.98954-0.1378 1.84313 0.18086 1.88619 1.74838 0.0517 1.57613-1.55029 1.79145-0.80099 0.11197-1.6192-0.0947l-0.15503 2.60105q1.70533 0.2067 3.39342-0.22393 3.36758-0.84405 3.20394-3.9877-0.14641-3.14365-2.6355-3.77238-1.23162-0.39619-2.44601-0.0775z" fill="#fff" stroke="#424242" stroke-width="1.0583334" style="font-feature-settings:normal;font-variant-caps:normal;font-variant-ligatures:normal;font-variant-numeric:normal"/>
   </g>
   <g style="font-feature-settings:normal;font-variant-caps:normal;font-variant-ligatures:normal;font-variant-numeric:normal" aria-label="6">
    <path d="m222.87024 165.64326q-0.30144 0.0258-0.46508-0.15503-0.14642-0.15503-0.14642-0.4048t0.12058-0.44786q0.12919-0.20671 0.3359-0.24116 0.49092-0.0861 0.73208 0.0861 0.21532 0.14642 0.18948 0.42202-0.0258 0.25839-0.23255 0.4737-0.22393 0.23255-0.53399 0.267zm-0.2067-3.93602q-0.10335-0.36174 0.10335-0.66318 0.43064-0.61151 2.01538-0.3359l0.45648-2.67856q-0.39619-0.19809-1.10243-0.24977-1.4211-0.0861-2.9714 0.67179-0.8096 0.39619-1.54168 1.88619-0.74931 1.54168-0.88711 3.21255-0.14642 1.92064 0.64596 3.20394 0.93017 1.51584 3.04029 1.85174 1.8259 0.29283 3.05752-0.72347 1.11105-0.91295 1.24024-2.40295 0.12919-1.49862-0.85266-2.55799-1.11105-1.19717-3.20394-1.21439z" fill="#fff" stroke="#424242" stroke-width="1.0583334" style="font-feature-settings:normal;font-variant-caps:normal;font-variant-ligatures:normal;font-variant-numeric:normal"/>
   </g>
   <g style="font-feature-settings:normal;font-variant-caps:normal;font-variant-ligatures:normal;font-variant-numeric:normal" aria-label="7">
    <path d="m232.27735 161.15422 2.79914-0.0775-2.57521 7.3036 3.46232 0.29283 3.76377-10.90372-7.59644 0.0775z" fill="#fff" stroke="#424242" stroke-width="1.0583334" style="font-feature-settings:normal;font-variant-caps:normal;font-variant-ligatures:normal;font-variant-numeric:normal"/>
   </g>
   <g style="font-feature-settings:normal;font-variant-caps:normal;font-variant-ligatures:normal;font-variant-numeric:normal" aria-label="8">
    <path d="m249.32439 165.43729q-0.28422 0-0.46509-0.16364-0.15503-0.1378-0.18087-0.35312-0.0172-0.20671 0.12058-0.34451 0.13781-0.16364 0.42203-0.17226 0.38757-9e-3 0.59427 0.15503 0.17226 0.13781 0.16365 0.35313-9e-3 0.2067-0.18087 0.36173-0.18948 0.16364-0.4737 0.16364zm-0.34451-5.64995q0.27561-0.0603 0.43925 0.0431 0.14642 0.10335 0.15503 0.29283 9e-3 0.18948-0.11197 0.31867-0.14641 0.16365-0.39618 0.16365t-0.39619-0.11197q-0.14642-0.0947-0.15503-0.24116-0.0431-0.34451 0.46509-0.46508zm2.08428 2.34266q0.63734-1.19717 0.72347-2.42018 0.19809-2.4374-2.54937-2.54076-1.05937-0.0431-1.86035 0.52538-0.73208 0.51677-1.05075 1.37804-0.30145 0.85266-0.0861 1.67087 0.23254 0.8785 0.99908 1.38665-0.69764 0.55983-1.29192 1.38665-1.19717 1.64504-0.72347 2.98862 0.41342 1.17995 1.39527 1.92064 0.92156 0.68041 2.09289 0.81821 1.15411 0.13781 2.19625-0.31005 1.10243-0.48232 1.73116-1.49862 1.12827-1.81729-0.11196-3.74654-0.62012-0.96463-1.46417-1.55891z" fill="#fff" stroke="#424242" stroke-width="1.0583334" style="font-feature-settings:normal;font-variant-caps:normal;font-variant-ligatures:normal;font-variant-numeric:normal"/>
   </g>
   <g style="font-feature-settings:normal;font-variant-caps:normal;font-variant-ligatures:normal;font-variant-numeric:normal" aria-label="9">
    <path d="m262.32715 162.05248q-0.49093 0.0775-0.73209-0.0861-0.21532-0.14642-0.18948-0.42202 0.0172-0.25839 0.23255-0.48232 0.22393-0.22393 0.53399-0.25838 0.30144-0.0258 0.46508 0.15503 0.14642 0.14642 0.14642 0.4048 0 0.24116-0.12058 0.43925-0.1378 0.21532-0.33589 0.24977zm0.29283-4.22024q-1.8259-0.29284-3.05752 0.72347-1.11105 0.92156-1.24024 2.40295-0.12919 1.50723 0.85266 2.5666 1.11105 1.19717 3.20394 1.21439 0.10335 0.35313-0.10335 0.66318-0.43064 0.61151-2.01538 0.32729l-0.45648 2.68717q0.39619 0.1981 1.10243 0.24977 1.42111 0.0861 2.9714-0.67179 0.8096-0.39619 1.54168-1.88619 0.74931-1.54168 0.8785-3.21255 0.15503-1.92926-0.63734-3.21255-0.93018-1.50723-3.0403-1.85174z" fill="#fff" stroke="#424242" stroke-width="1.0583334" style="font-feature-settings:normal;font-variant-caps:normal;font-variant-ligatures:normal;font-variant-numeric:normal"/>
   </g>
  </g>
  <rect x="135.56569" y="109.05898" width="148.69583" height="135.46667" opacity="0" stroke-width=".83346671"/>
 </g>
</svg>
