<?xml version="1.0" encoding="UTF-8"?>
<!-- Created with Inkscape (http://www.inkscape.org/) -->
<svg width="512" height="511.99997" version="1.1" viewBox="0 0 135.46666 135.46666" xmlns="http://www.w3.org/2000/svg" xmlns:cc="http://creativecommons.org/ns#" xmlns:dc="http://purl.org/dc/elements/1.1/" xmlns:rdf="http://www.w3.org/1999/02/22-rdf-syntax-ns#">
 <metadata>
  <rdf:RDF>
   <cc:Work rdf:about="">
    <dc:format>image/svg+xml</dc:format>
    <dc:type rdf:resource="http://purl.org/dc/dcmitype/StillImage"/>
    <dc:title/>
   </cc:Work>
  </rdf:RDF>
 </metadata>
 <g transform="translate(25.590151,110.54075)">
  <rect x="-25.590143" y="-110.54075" width="135.46666" height="135.46666" opacity="0" stroke-width="1.40209758"/>
  <g transform="matrix(.13654424 -.13858014 .13654424 .13858014 7.4736615 -39.693449)" fill="#366db6">
   <path d="m77.339 196.709-53.54 136.828 47.59-35.69 37.032 7.327c14.813-38.788 31.894-72.589 50.476-102.135z"/>
   <path d="m315.295 434.666-136.828 53.539 35.69-47.59-7.327-37.032c38.788-14.813 72.589-31.894 102.135-50.476z"/>
  </g>
  <path d="m77.384996-110.54075s-42.240507 36.274189-14.62102 98.930564h29.244227c27.616067-62.655128-14.623207-98.930564-14.623207-98.930564z" fill="#e7eced" stroke-width=".194537"/>
  <polygon transform="matrix(.13654424 -.13858014 .13654424 .13858014 7.4736615 -39.693449)" points="187.683 264.832 113.029 398.976 247.173 317.797 247.173 264.832" fill="#366db6"/>
  <path d="m58.267983-80.860204h38.234027c-7.012776-19.277196-19.118106-29.679156-19.118106-29.679156s-12.103281 10.40183-19.115921 29.679156z" fill="#e91e63" stroke-width=".194537"/>
  <g transform="matrix(.57159734 0 0 .58011997 47.315468 -95.46146)">
   <circle transform="rotate(-45)" cx="3.4982615" cy="70.883186" r="17.806988" fill="#366db6" stroke-width=".26458335"/>
   <circle transform="rotate(-45)" cx="3.4982615" cy="70.883186" r="14.187465" fill="#f2f2f2" stroke-width=".21080303"/>
  </g>
  <g transform="matrix(.13654424 -.13858014 .13654424 .13858014 -63.009827 -39.693449)" fill="#366db6">
   <path d="m77.339 196.709-53.54 136.828 47.59-35.69 37.032 7.327c14.813-38.788 31.894-72.589 50.476-102.135z"/>
   <path d="m315.295 434.666-136.828 53.539 35.69-47.59-7.327-37.032c38.788-14.813 72.589-31.894 102.135-50.476z"/>
  </g>
  <path d="m6.9015083-110.54075s-42.2405073 36.274189-14.6210205 98.930564h29.2442272c27.616069-62.655128-14.6232067-98.930564-14.6232067-98.930564z" fill="#e7eced" stroke-width=".194537"/>
  <polygon transform="matrix(.13654424 -.13858014 .13654424 .13858014 -63.009827 -39.693449)" points="187.683 264.832 113.029 398.976 247.173 317.797 247.173 264.832" fill="#366db6"/>
  <path d="m-12.215505-80.860204h38.234027c-7.012776-19.277196-19.1181056-29.679156-19.1181056-29.679156s-12.1032819 10.40183-19.1159214 29.679156z" fill="#e91e63" stroke-width=".194537"/>
  <g transform="matrix(.57159734 0 0 .58011997 -23.16802 -95.46146)">
   <circle transform="rotate(-45)" cx="3.4982615" cy="70.883186" r="17.806988" fill="#366db6" stroke-width=".26458335"/>
   <circle transform="rotate(-45)" cx="3.4982615" cy="70.883186" r="14.187465" fill="#f2f2f2" stroke-width=".21080303"/>
  </g>
  <rect x="2.1484399" y="-6.3812027" width="79.989494" height="31.307114" ry="4.3943348" fill="#e91e63"/>
  <rect x="6.5337739" y="-2.9285107" width="71.218826" height="24.40173" ry="3.4250803" fill="#fff"/>
  <g transform="translate(-38.44156,-67.770348)" fill="#424242">
   <g stroke-width=".26458332" style="font-feature-settings:normal;font-variant-caps:normal;font-variant-ligatures:normal;font-variant-numeric:normal" aria-label="Raul">
    <path d="m72.910796 69.256786h0.103353q1.421102 0 2.239312 2.583822v0.103353q0 1.024916-0.72347 2.446018l-0.689019 0.792372q0.559828 3.970472 1.171333 5.994466 0.4737 1.369426 1.067979 2.618273l0.137804 0.37896v0.0689q-0.06029 0.06029-0.103353 0.413412l-0.37896 0.172254q-0.861274-0.111965-0.861274-0.861273 0-0.447863-0.275608-0.826823-0.620117-1.111044-0.861274-2.790528-0.344509-0.938788-0.654568-3.135037l-0.37896-1.240234-0.137804-0.0689q-1.06798 0.129191-1.06798 0.275608 0.111966 0 0.310059 7.165798 0 0.447863-0.551216 0.620118h-0.0689q-0.310059 0-0.551216-0.516765l-0.103354-7.820367q-0.129191 0-0.310058-4.444173v-0.413412q0-0.844048 0.964627-0.930175 0.947401-0.585667 1.722547-0.585667zm-1.619195 2.273763q0.08613 3.169488 0.206706 3.169488h0.103353q1.326362 0 2.377116-1.929253 0.103353-0.34451 0.103353-0.792372v-0.172255q-0.180868-1.171332-0.930176-1.171332h-0.37896q-0.542603 0.01722-1.481392 0.895724z" style="font-feature-settings:normal;font-variant-caps:normal;font-variant-ligatures:normal;font-variant-numeric:normal"/>
    <path d="m79.37035 70.979334q0.714858 0.24977 1.240235 0.999078 0.482313 0.887112 0.800985 2.26515 0.327284 1.378038 0.370347 4.004924-0.02584 3.109199-0.198093 3.513997 0 1.998156-0.585666 1.998156 0 0.08613-2.695787 0.103353-0.775147 0-1.274686-1.274686-0.137803-0.56844-0.137803-0.999077v-0.172255q0-1.197171 0.999077-2.480469 0.602892-0.689019 1.550293-0.689019l0.757921 0.03445h0.378961l0.03445-0.378961 0.03445-1.722547q0-1.446941-0.930176-3.5829-0.258382-0.310058-0.516764-0.310058h-0.137804q-0.103353 0-0.826823 0.482313h-0.0689q-0.551215-0.258382-0.551215-0.585666v-0.137804q0.904337-1.06798 1.756998-1.067979zm-1.309136 10.266385v0.275608q0 0.766533 0.378961 1.067979h0.0689q1.765612-0.07751 1.800063-0.08613 0.310059-1.54168 0.02584-2.566596-0.275608-0.482314-0.895725-0.482314-0.62873 0-1.309136 1.205784z" style="font-feature-settings:normal;font-variant-caps:normal;font-variant-ligatures:normal;font-variant-numeric:normal"/>
    <path d="m83.3925 71.918123q0.516764 0 0.516764 0.895725v2.239312q0 6.373427 0.37896 7.062446 0.258383 0.757921 0.413412 0.757921 0.292833 0 0.861274-1.41249 0.826823-1.464165 0.826823-2.687174 0.120578 0 0.344509-4.065213l-0.03445-0.654568q0.129191-1.79145 0.447863-1.79145l0.447862-0.172254q0.413412 0 0.551215 0.964626v0.172255l-0.206705 2.135959v0.206706q0 3.849894 0.482313 6.270074l0.275608 1.79145q-0.146417 0.413411-0.72347 0.413411-0.516765 0-0.654569-2.721625-0.111965-0.241157-0.172254-0.241157h-0.0689q-0.258382 0.292833-1.343587 2.377116-0.551216 0.689019-1.06798 0.689019-0.577054 0-1.205784-0.930176-0.585666-1.73116-0.757921-9.990777-0.05168 0-0.0689-0.757921 0-0.396186 0.757921-0.551215z" style="font-feature-settings:normal;font-variant-caps:normal;font-variant-ligatures:normal;font-variant-numeric:normal"/>
    <path d="m90.463559 69.64436q0.241157 0 0.482313 0.206705l-0.03445 0.206706-0.37896 10.679796q0 3.23839-0.206706 3.23839-0.266995 0.206706-0.37896 0.206706-0.413412 0-0.516765-0.964627v-0.620117q0-2.480469 0.378961-10.783149 0-2.101508 0.275607-2.101508z" style="font-feature-settings:normal;font-variant-caps:normal;font-variant-ligatures:normal;font-variant-numeric:normal"/>
   </g>
   <g aria-label=",">
    <path d="m85.795639 70.03789h1.090373v0.888835l-0.847494 1.653646h-0.666626l0.423747-1.653646z" fill="#424242" stroke-width=".26458332"/>
   </g>
  </g>
 </g>
</svg>
