<?xml version="1.0" encoding="UTF-8"?>
<!-- Created with Inkscape (http://www.inkscape.org/) -->
<svg width="511.99997" height="511.99997" version="1.1" viewBox="0 0 135.46666 135.46666" xmlns="http://www.w3.org/2000/svg" xmlns:cc="http://creativecommons.org/ns#" xmlns:dc="http://purl.org/dc/elements/1.1/" xmlns:rdf="http://www.w3.org/1999/02/22-rdf-syntax-ns#">
 <metadata>
  <rdf:RDF>
   <cc:Work rdf:about="">
    <dc:format>image/svg+xml</dc:format>
    <dc:type rdf:resource="http://purl.org/dc/dcmitype/StillImage"/>
    <dc:title/>
   </cc:Work>
  </rdf:RDF>
 </metadata>
 <g transform="translate(-292.72635,-247.45537)">
  <rect x="292.72635" y="247.45537" width="135.46666" height="135.46666" fill="#250"/>
  <g stroke-width=".19433843">
   <path d="m415.33187 347.89654h-48.04698c-3.78825 0-6.85952-3.07041-6.85952-6.85804v-48.03668c0-3.78744 3.07107-6.85805 6.85952-6.85805h48.04542c3.79001 0 6.86128 3.07042 6.86128 6.85805v48.03512c-2e-4 3.78919-3.07127 6.8596-6.85972 6.8596z" fill="#fff8e1"/>
   <ellipse cx="391.30829" cy="317.02008" rx="6.8628263" ry="6.8613548" fill="#28384c"/>
  </g>
  <g transform="rotate(-15,251.49375,-226.88038)">
   <rect x="143.34111" y="342.43951" width="62.376106" height="30.56842" ry="4.9570417" fill="#fff"/>
   <rect x="145.37158" y="344.90085" width="58.315163" height="25.645731" ry="4.1587672" fill="#3771c8"/>
   <rect x="146.78467" y="346.61057" width="55.488987" height="22.226299" ry="3.6042652" fill="#fff"/>
  </g>
  <g stroke-width=".19433843">
   <path d="m353.53768 314.6639h-48.04698c-3.78826 0-6.85952-3.07042-6.85952-6.85805v-48.03668c0-3.78744 3.07107-6.85805 6.85952-6.85805h48.04542c3.79001 0 6.86128 3.07042 6.86128 6.85805v48.03512c-2e-4 3.78919-3.07127 6.85961-6.85972 6.85961z" fill="#fff8e1"/>
   <path d="m353.53768 314.6639h-48.04698c-3.78826 0-6.85952-3.07042-6.85952-6.85805v-48.03668c0-3.78744 3.07107-6.85805 6.85952-6.85805h48.04542c3.79001 0 6.86128 3.07042 6.86128 6.85805v48.03512c-2e-4 3.78919-3.07127 6.85961-6.85972 6.85961z" fill="#ccc497" opacity=".3"/>
   <g fill="#28384c">
    <ellipse cx="311.65775" cy="266.63394" rx="6.8628263" ry="6.8613548"/>
    <ellipse cx="345.97208" cy="300.94089" rx="6.8628263" ry="6.8613548"/>
    <ellipse cx="329.51428" cy="283.78751" rx="6.8628263" ry="6.8613548"/>
   </g>
  </g>
  <g transform="rotate(-15)" fill="#424242" stroke-width=".26458332" style="font-feature-settings:normal;font-variant-caps:normal;font-variant-ligatures:normal;font-variant-numeric:normal" aria-label="Roberto">
   <path d="m207.36199 421.73727h0.10335q1.42111 0 2.23932 2.58382v0.10335q0 1.02492-0.72347 2.44602l-0.68902 0.79237q0.55982 3.97048 1.17133 5.99447 0.4737 1.36943 1.06798 2.61827l0.1378 0.37896v0.0689q-0.0603 0.0603-0.10335 0.41341l-0.37896 0.17225q-0.86127-0.11196-0.86127-0.86127 0-0.44786-0.27561-0.82682-0.62012-1.11105-0.86128-2.79053-0.34451-0.93879-0.65456-3.13504l-0.37896-1.24023-0.13781-0.0689q-1.06798 0.1292-1.06798 0.27561 0.11197 0 0.31006 7.1658 0 0.44786-0.55121 0.62012h-0.0689q-0.31006 0-0.55121-0.51677l-0.10335-7.82036q-0.1292 0-0.31006-4.44418v-0.41341q0-0.84405 0.96462-0.93017 0.9474-0.58567 1.72255-0.58567zm-1.61919 2.27376q0.0861 3.16949 0.2067 3.16949h0.10335q1.32637 0 2.37712-1.92925 0.10335-0.34451 0.10335-0.79237v-0.17226q-0.18086-1.17133-0.93017-1.17133h-0.37896q-0.54261 0.0172-1.48139 0.89572z" style="font-feature-settings:normal;font-variant-caps:normal;font-variant-ligatures:normal;font-variant-numeric:normal"/>
   <path d="m214.5364 425.24266q1.44694 0.28422 1.44694 0.96462 1.50723 2.24793 0.41341 7.40696-0.68902 1.80006-1.24023 2.30821-0.76653 0.96463-1.51584 0.96463-1.16272 0-1.79145-1.51584l-0.58567-2.89388v-0.51677q0-1.73977 0.58567-4.23747 0.0947-0.1378 0.17225-0.62011 0.8096-1.79145 1.5503-1.79145zm-0.65457 1.27468h-0.0689q-0.4048 0-0.55121 0.65457-0.72347 1.32636-0.72347 2.75608-0.10336 0.25838-0.10336 0.89572v1.17133q0 1.52446 0.55122 3.13504 0.25838 0.51676 0.51676 0.51676 0.41342 0 1.17134-0.99907 0.22393 0 0.72347-1.06798 0.2067-0.74931 0.41341-2.85943 0-2.07567-0.55122-3.34175-0.27561-0.7493-0.44786-0.89572z" style="font-feature-settings:normal;font-variant-caps:normal;font-variant-ligatures:normal;font-variant-numeric:normal"/>
   <path d="m218.40352 422.46935q0.65457 0.11197 0.65457 0.51677-0.1378 1.18856-0.1378 3.23839l0.0344 2.17041-0.0689 0.68902q0.12919 1.92925 0.24115 1.92925h0.0344q0.88711-0.48231 1.30914-0.48231h0.0344q1.48139 0.19809 1.6881 0.55121 0.65456 0.6718 0.65456 1.10243 0.0775 0 0.13781 0.58567 0 2.42018-1.96371 3.44509-0.84404 0.24116-1.51584 0.24116-0.12919 0-1.10243-0.37896-0.79237-0.24977-0.79237-0.75792 0.27561-0.69763 0.27561-2.99723v-0.24116l0.10335-0.75792v-2.44602q-0.1378-1.58474-0.1378-2.17041v-2.30821q0-1.86035 0.2756-1.86035 0-0.0689 0.27561-0.0689zm0.62012 12.12674v0.0689q0 0.57706 0.75792 0.68902h0.31006q0.63734 0 1.44694-1.17133 0.34451-0.74931 0.34451-1.37804v-0.1378q0-0.62873-0.99908-0.96463h-0.20671q-0.99907 0-1.61919 2.54937z" style="font-feature-settings:normal;font-variant-caps:normal;font-variant-ligatures:normal;font-variant-numeric:normal"/>
   <path d="m225.73296 423.27034q0.75792 0 1.79145 0.82682 0.17226 0.31006 0.17226 0.62012 0 1.54168-0.99908 2.13596-1.14549 0.34451-1.8948 0.34451-0.17226 0.18086-0.17226 0.55121v0.58567q0 1.86896 0.48232 4.20302 0 1.25745 0.96462 2.44601 0.30145 0.24116 0.44787 0.24116h0.24115q0.34451-0.12919 0.86128-0.44786l0.2067-0.0344q0.24977 0 0.37896 0.41341 0 0.77514-1.20578 1.55029l-0.55122 0.10335q-0.49092 0-1.72254-1.34358-0.65457-1.02492-0.65457-2.48047-0.44787-2.18764-0.51677-5.58106 0-1.37804 0.96463-3.44509 0.8096-0.68902 1.20578-0.68902zm-0.79237 2.75607 0.17226 0.10336q1.0852 0 1.44694-0.58567 0.10335-0.18087 0.10335-0.34451v-0.1378q0-0.51677-0.65457-0.51677-0.91295 0-1.06798 1.44694z" style="font-feature-settings:normal;font-variant-caps:normal;font-variant-ligatures:normal;font-variant-numeric:normal"/>
   <path d="m232.35616 425.48381q0.82682 0.28422 1.13688 0.89573l0.0344 0.17225q-0.12058 0.65457-0.55121 0.65457-0.25839 0-0.89573-0.58567h-0.27561q-0.78376 0-1.52445 0.80099-0.7407 0.80098-0.21532 4.87481 0.53399 4.07382-0.0775 3.75515l-0.62012 0.0172q-0.3359-0.16364-0.41341-4.10828-0.0689-3.95325-0.23255-6.11504 0-0.55122 0.72347-0.55122 0.44787 0 0.44787 0.41341l-0.0344 0.51677q0.0689 0.15503 0.1378 0.17225h0.1378q0.79237-0.91295 2.22209-0.91295z" style="font-feature-settings:normal;font-variant-caps:normal;font-variant-ligatures:normal;font-variant-numeric:normal"/>
   <path d="m236.60224 422.39184h0.10335q0.58567 0 0.82683 1.10243-0.17226 0.22393-0.17226 0.72347v0.55121q0.0689 0.12058 0.20671 0.17226l0.79237-0.0689q1.13688 0 1.13688 0.72347 0 0.68902-0.82682 0.68902-1.30914 0-1.30914 0.2756l-0.0345 0.17226q0.20671 2.48047 0.20671 7.44141 0 1.80006-0.37896 1.9637-0.18949 0.20671-0.41342 0.20671-0.35312 0-0.48231-0.58567h-0.0345q0.24116-2.06706 0.24116-5.92556l-0.13781-2.96279 0.0344-0.2756h-0.0344l-2.10151 0.0344h-0.0344q-0.26699 0-0.44786-0.62012 0.18087-0.58567 0.68902-0.58567 1.57613-0.28422 1.72255-0.44786l0.0344-0.1378v-1.51585q0-0.72347 0.41341-0.93017z" style="font-feature-settings:normal;font-variant-caps:normal;font-variant-ligatures:normal;font-variant-numeric:normal"/>
   <path d="m243.02734 425.24266q1.44694 0.28422 1.44694 0.96462 1.50723 2.24793 0.41341 7.40696-0.68901 1.80006-1.24023 2.30821-0.76653 0.96463-1.51584 0.96463-1.16272 0-1.79145-1.51584l-0.58567-2.89388v-0.51677q0-1.73977 0.58567-4.23747 0.0947-0.1378 0.17225-0.62011 0.8096-1.79145 1.5503-1.79145zm-0.65457 1.27468h-0.0689q-0.4048 0-0.55121 0.65457-0.72347 1.32636-0.72347 2.75608-0.10336 0.25838-0.10336 0.89572v1.17133q0 1.52446 0.55122 3.13504 0.25838 0.51676 0.51676 0.51676 0.41342 0 1.17134-0.99907 0.22393 0 0.72347-1.06798 0.2067-0.74931 0.41341-2.85943 0-2.07567-0.55122-3.34175-0.27561-0.7493-0.44786-0.89572z" style="font-feature-settings:normal;font-variant-caps:normal;font-variant-ligatures:normal;font-variant-numeric:normal"/>
  </g>
 </g>
</svg>
