<?xml version="1.0" encoding="UTF-8"?>
<!-- Created with Inkscape (http://www.inkscape.org/) -->
<svg width="562" height="512" version="1.1" viewBox="0 0 148.69584 135.46667" xmlns="http://www.w3.org/2000/svg" xmlns:cc="http://creativecommons.org/ns#" xmlns:dc="http://purl.org/dc/elements/1.1/" xmlns:rdf="http://www.w3.org/1999/02/22-rdf-syntax-ns#">
 <metadata>
  <rdf:RDF>
   <cc:Work rdf:about="">
    <dc:format>image/svg+xml</dc:format>
    <dc:type rdf:resource="http://purl.org/dc/dcmitype/StillImage"/>
    <dc:title/>
   </cc:Work>
  </rdf:RDF>
 </metadata>
 <g transform="translate(6.6145816,-167.51413)">
  <g transform="translate(-9.6572901,167.51413)">
   <path d="m130.86933 84.604345 5.94192-1.922824v-80.7586953l-5.94192 3.8456523-8.91287-5.768478306-8.91287 5.768478306-8.91288-5.768478306-8.912878 5.768478306-8.912875-5.768478306-8.912873 5.768478306-8.912881-5.768478306-8.912874 5.768478306-8.912874-5.768478306-8.912874 5.768478306-8.912881-5.768478306-8.912873 5.768478306-5.94192-3.8456523v79.3857953l5.94192 3.295724-6.203364 3.845653-8.0126723 16.463242c-0.335718 1.45557 1.4082313 2.76502 3.6810193 2.76502h128.02158c2.27575 0 4.01673-1.30945 3.68101-2.76502l-8.27115-16.463242z" fill="#f0d7b8" stroke-width="2.39011216"/>
   <path d="m124.72973 84.584043 5.25977-1.702075v-73.77486l-5.25977 3.404154-7.88964-5.1062305-7.88963 5.1062305-7.88963-5.1062305-7.889643 5.1062305-7.889636-5.1062305-7.889635 5.1062305-7.889644-5.1062305-7.889629 5.1062305-7.889636-5.1062305-7.889638 5.1062305-7.889641-5.1062305-7.889639 5.1062305-5.259751-3.404154v72.559574l5.259751 2.917361-5.491182 3.404155-7.092784 14.573182c-0.297172 1.28847 1.24656 2.44758 3.258422 2.44758h113.324105c2.01449 0 3.5556-1.15911 3.25843-2.44758l-7.32158-14.573182z" fill="#e7bf8e" stroke-width="2.11571646"/>
  </g>
  <rect transform="matrix(.9624691 -.27139128 .24674887 .96907946 0 0)" x="-18.303541" y="278.66092" width="71.887543" height="27.731937" ry="3.5471084" fill="#64dd17" stroke-width=".46215186"/>
  <rect transform="matrix(.9624691 -.27139128 .24674887 .96907946 0 0)" x="-13.288136" y="280.59567" width="61.85672" height="23.862366" ry="3.0521629" fill="#fff" stroke-width=".46215186"/>
  <rect x="4.0795121e-6" y="167.51413" width="135.46666" height="135.46666" opacity="0" stroke-width="1.74694598"/>
  <g transform="translate(-.05589851 167.51413)">
   <path d="m27.386019 21.027479c-0.223981-0.905354-1.460781-1.294946-2.071501-0.652383l-2.369373 2.492018-2.369368 2.492017c-0.610751 0.642363-0.05323 1.746285 0.933809 1.848963l7.601755 0.791099z" fill="#e91e63" stroke-width=".10510822"/>
   <path d="m45.10426 45.8678 2.369373-2.492021 2.369372-2.492018c0.610747-0.642359 0.05323-1.746281-0.933921-1.84896l-7.601759-0.791099 1.725228 6.971816c0.224187 0.905253 1.46096 1.294641 2.071707 0.652282z" fill="#e91e63" stroke-width=".10510822"/>
   <g transform="translate(.628662 .523058)" fill="#f06494">
    <path d="m28.482679 27.476135-8.186003-2.868511c-0.437775-0.153422-0.614551-0.654811-0.334487-0.949257l3.475155-3.655039c0.27995-0.294448 0.832771-0.188682 1.046624 0.200255z" stroke-width=".10510822"/>
    <path d="m42.048424 38.76691 3.998518 7.272753c0.213854 0.388937 0.766686 0.494803 1.046627 0.200256l3.475155-3.65504c0.279954-0.294445 0.103289-0.795835-0.334489-0.949256z" stroke-width=".10510821"/>
    <path d="m42.131719 41.30085c1.546007-0.150931 2.636029-1.297376 2.616265-2.751691l-0.06112-4.482069-0.0033 0.0034c-0.03261-2.521267-1.26208-5.140413-3.590244-7.07807-2.326237-1.936235-5.247469-2.774557-7.925942-2.513l-4.764976 0.465275c-1.546007 0.150931-2.636029 1.297377-2.616265 2.751691l0.06112 4.482069c0.03446 2.519549 1.264507 5.136367 3.59084 7.072501 2.328055 1.937656 5.251679 2.775072 7.931785 2.511797l-0.0033 0.0034z" stroke-width=".10510821"/>
   </g>
  </g>
  <g transform="translate(63.869034,167.51413)">
   <path d="m27.386019 21.027479c-0.223981-0.905354-1.460781-1.294946-2.071501-0.652383l-2.369373 2.492018-2.369368 2.492017c-0.610751 0.642363-0.05323 1.746285 0.933809 1.848963l7.601755 0.791099z" fill="#e91e63" stroke-width=".10510822"/>
   <path d="m45.10426 45.8678 2.369373-2.492021 2.369372-2.492018c0.610747-0.642359 0.05323-1.746281-0.933921-1.84896l-7.601759-0.791099 1.725228 6.971816c0.224187 0.905253 1.46096 1.294641 2.071707 0.652282z" fill="#e91e63" stroke-width=".10510822"/>
   <g transform="translate(.628662 .523058)" fill="#f06494">
    <path d="m28.482679 27.476135-8.186003-2.868511c-0.437775-0.153422-0.614551-0.654811-0.334487-0.949257l3.475155-3.655039c0.27995-0.294448 0.832771-0.188682 1.046624 0.200255z" stroke-width=".10510822"/>
    <path d="m42.048424 38.76691 3.998518 7.272753c0.213854 0.388937 0.766686 0.494803 1.046627 0.200256l3.475155-3.65504c0.279954-0.294445 0.103289-0.795835-0.334489-0.949256z" stroke-width=".10510821"/>
    <path d="m42.131719 41.30085c1.546007-0.150931 2.636029-1.297376 2.616265-2.751691l-0.06112-4.482069-0.0033 0.0034c-0.03261-2.521267-1.26208-5.140413-3.590244-7.07807-2.326237-1.936235-5.247469-2.774557-7.925942-2.513l-4.764976 0.465275c-1.546007 0.150931-2.636029 1.297377-2.616265 2.751691l0.06112 4.482069c0.03446 2.519549 1.264507 5.136367 3.59084 7.072501 2.328055 1.937656 5.251679 2.775072 7.931785 2.511797l-0.0033 0.0034z" stroke-width=".10510821"/>
   </g>
  </g>
  <g transform="translate(-.05589851 197.93624)">
   <path d="m27.386019 21.027479c-0.223981-0.905354-1.460781-1.294946-2.071501-0.652383l-2.369373 2.492018-2.369368 2.492017c-0.610751 0.642363-0.05323 1.746285 0.933809 1.848963l7.601755 0.791099z" fill="#e91e63" stroke-width=".10510822"/>
   <path d="m45.10426 45.8678 2.369373-2.492021 2.369372-2.492018c0.610747-0.642359 0.05323-1.746281-0.933921-1.84896l-7.601759-0.791099 1.725228 6.971816c0.224187 0.905253 1.46096 1.294641 2.071707 0.652282z" fill="#e91e63" stroke-width=".10510822"/>
   <g transform="translate(.628662 .523058)" fill="#f06494">
    <path d="m28.482679 27.476135-8.186003-2.868511c-0.437775-0.153422-0.614551-0.654811-0.334487-0.949257l3.475155-3.655039c0.27995-0.294448 0.832771-0.188682 1.046624 0.200255z" stroke-width=".10510822"/>
    <path d="m42.048424 38.76691 3.998518 7.272753c0.213854 0.388937 0.766686 0.494803 1.046627 0.200256l3.475155-3.65504c0.279954-0.294445 0.103289-0.795835-0.334489-0.949256z" stroke-width=".10510821"/>
    <path d="m42.131719 41.30085c1.546007-0.150931 2.636029-1.297376 2.616265-2.751691l-0.06112-4.482069-0.0033 0.0034c-0.03261-2.521267-1.26208-5.140413-3.590244-7.07807-2.326237-1.936235-5.247469-2.774557-7.925942-2.513l-4.764976 0.465275c-1.546007 0.150931-2.636029 1.297377-2.616265 2.751691l0.06112 4.482069c0.03446 2.519549 1.264507 5.136367 3.59084 7.072501 2.328055 1.937656 5.251679 2.775072 7.931785 2.511797l-0.0033 0.0034z" stroke-width=".10510821"/>
   </g>
  </g>
  <g transform="translate(31.906568,197.93624)">
   <path d="m27.386019 21.027479c-0.223981-0.905354-1.460781-1.294946-2.071501-0.652383l-2.369373 2.492018-2.369368 2.492017c-0.610751 0.642363-0.05323 1.746285 0.933809 1.848963l7.601755 0.791099z" fill="#e91e63" stroke-width=".10510822"/>
   <path d="m45.10426 45.8678 2.369373-2.492021 2.369372-2.492018c0.610747-0.642359 0.05323-1.746281-0.933921-1.84896l-7.601759-0.791099 1.725228 6.971816c0.224187 0.905253 1.46096 1.294641 2.071707 0.652282z" fill="#e91e63" stroke-width=".10510822"/>
   <g transform="translate(.628662 .523058)" fill="#f06494">
    <path d="m28.482679 27.476135-8.186003-2.868511c-0.437775-0.153422-0.614551-0.654811-0.334487-0.949257l3.475155-3.655039c0.27995-0.294448 0.832771-0.188682 1.046624 0.200255z" stroke-width=".10510822"/>
    <path d="m42.048424 38.76691 3.998518 7.272753c0.213854 0.388937 0.766686 0.494803 1.046627 0.200256l3.475155-3.65504c0.279954-0.294445 0.103289-0.795835-0.334489-0.949256z" stroke-width=".10510821"/>
    <path d="m42.131719 41.30085c1.546007-0.150931 2.636029-1.297376 2.616265-2.751691l-0.06112-4.482069-0.0033 0.0034c-0.03261-2.521267-1.26208-5.140413-3.590244-7.07807-2.326237-1.936235-5.247469-2.774557-7.925942-2.513l-4.764976 0.465275c-1.546007 0.150931-2.636029 1.297377-2.616265 2.751691l0.06112 4.482069c0.03446 2.519549 1.264507 5.136367 3.59084 7.072501 2.328055 1.937656 5.251679 2.775072 7.931785 2.511797l-0.0033 0.0034z" stroke-width=".10510821"/>
   </g>
  </g>
  <g transform="translate(63.869034,197.93624)">
   <path d="m27.386019 21.027479c-0.223981-0.905354-1.460781-1.294946-2.071501-0.652383l-2.369373 2.492018-2.369368 2.492017c-0.610751 0.642363-0.05323 1.746285 0.933809 1.848963l7.601755 0.791099z" fill="#e91e63" stroke-width=".10510822"/>
   <path d="m45.10426 45.8678 2.369373-2.492021 2.369372-2.492018c0.610747-0.642359 0.05323-1.746281-0.933921-1.84896l-7.601759-0.791099 1.725228 6.971816c0.224187 0.905253 1.46096 1.294641 2.071707 0.652282z" fill="#e91e63" stroke-width=".10510822"/>
   <g transform="translate(.628662 .523058)" fill="#f06494">
    <path d="m28.482679 27.476135-8.186003-2.868511c-0.437775-0.153422-0.614551-0.654811-0.334487-0.949257l3.475155-3.655039c0.27995-0.294448 0.832771-0.188682 1.046624 0.200255z" stroke-width=".10510822"/>
    <path d="m42.048424 38.76691 3.998518 7.272753c0.213854 0.388937 0.766686 0.494803 1.046627 0.200256l3.475155-3.65504c0.279954-0.294445 0.103289-0.795835-0.334489-0.949256z" stroke-width=".10510821"/>
    <path d="m42.131719 41.30085c1.546007-0.150931 2.636029-1.297376 2.616265-2.751691l-0.06112-4.482069-0.0033 0.0034c-0.03261-2.521267-1.26208-5.140413-3.590244-7.07807-2.326237-1.936235-5.247469-2.774557-7.925942-2.513l-4.764976 0.465275c-1.546007 0.150931-2.636029 1.297377-2.616265 2.751691l0.06112 4.482069c0.03446 2.519549 1.264507 5.136367 3.59084 7.072501 2.328055 1.937656 5.251679 2.775072 7.931785 2.511797l-0.0033 0.0034z" stroke-width=".10510821"/>
   </g>
  </g>
  <g transform="rotate(-15,-9.7260376e-6,-2.4362388e-5)" fill="#424242" stroke-width=".26458335" aria-label="Rosita">
   <path d="m0.93250149 283.71692h0.10335291q1.4211019 0 2.2393121 2.58382v0.10335q0 1.02492-0.7234701 2.44602l-0.6890191 0.79237q0.559828 3.97047 1.1713325 5.99447 0.4737006 1.36942 1.0679796 2.61827l0.1378038 0.37896v0.0689q-0.060289 0.0603-0.1033528 0.41341l-0.3789605 0.17226q-0.8612739-0.11197-0.8612739-0.86128 0-0.44786-0.2756077-0.82682-0.6201172-1.11104-0.8612739-2.79053-0.3445095-0.93879-0.6545681-3.13503l-0.37896054-1.24024-0.13780382-0.0689q-1.06797963 0.12919-1.06797963 0.27561 0.11196561 0 0.3100586 7.1658 0 0.44786-0.55121529 0.62011h-0.0689019q-0.31005862 0-0.55121532-0.51676l-0.1033528-7.82037q-0.1291911 0-0.3100587-4.44417v-0.41341q0-0.84405 0.96462682-0.93018 0.94740128-0.58566 1.72254777-0.58566zm-1.61919491 2.27376q0.0861274 3.16949 0.20670573 3.16949h0.10335287q1.32636179 0 2.37711592-1.92926 0.1033529-0.34451 0.1033529-0.79237v-0.17225q-0.1808675-1.17134-0.9301758-1.17134h-0.37896053q-0.54260255 0.0172-1.48139109 0.89573z" style="font-feature-settings:normal;font-variant-caps:normal;font-variant-ligatures:normal;font-variant-numeric:normal"/>
   <path d="m8.1069129 287.2223q1.4469401 0.28422 1.4469401 0.96463 1.507229 2.24792 0.4134115 7.40695-0.6890191 1.80006-1.2402344 2.30822-0.7665338 0.96462-1.5158421 0.96462-1.1627197 0-1.7914497-1.51584l-0.5856662-2.89388v-0.51676q0-1.73978 0.5856662-4.23747 0.09474-0.13781 0.1722548-0.62012 0.8095975-1.79145 1.550293-1.79145zm-0.6545682 1.27469h-0.068902q-0.4047987 0-0.5512153 0.65456-0.7234701 1.32637-0.7234701 2.75608-0.1033528 0.25838-0.1033528 0.89572v1.17134q0 1.52445 0.5512153 3.13503 0.2583821 0.51677 0.5167643 0.51677 0.4134115 0 1.1713325-0.99908 0.2239312 0 0.7234701-1.06798 0.2067057-0.74931 0.4134114-2.85943 0-2.07567-0.5512153-3.34174-0.2756076-0.74931-0.4478624-0.89573z" style="font-feature-settings:normal;font-variant-caps:normal;font-variant-ligatures:normal;font-variant-numeric:normal"/>
   <path d="m14.592305 285.3275q1.756998 0.26699 1.756998 1.03353 0 0.35312-0.551215 0.51676l-0.964627-0.31006h-0.172254q-0.714858 0-1.205784 0.93018-0.344509 0.93017-0.344509 2.13596 0 1.3522 1.550293 2.20486 1.10243 0.93017 1.44694 1.51584l0.542602 1.10243 0.03445 0.15503v0.0689q0 1.8259-0.930176 2.75608-0.81821 1.13688-1.756998 1.13688h-0.172255q-1.111043 0-2.411567-1.13688-0.516764-0.72347-0.516764-1.55029 0.09474-0.93018 0.447862-0.93018 0.422024 0 0.516764 1.30914 0.24977 0.59427 0.930176 0.86127 0.568441 0.20671 0.861274 0.20671h0.206706q0.689019 0 1.584744-1.58475l0.172255-0.62012q0-0.99907-0.78376-1.70532l-1.791449-1.48139q-0.611505-0.64595-0.895725-1.55029v-0.0344q-0.215319-1.85174 0.18948-2.79053t0.602892-1.44694q0.508151-0.79237 1.653646-0.79237z" style="font-feature-settings:normal;font-variant-caps:normal;font-variant-ligatures:normal;font-variant-numeric:normal"/>
   <path d="m18.433587 284.97438q0.378961 0 0.585667 0.68901-0.172255 0.62012-0.689019 0.62012h-0.103353q-0.378961 0-0.482314-0.58566 0-0.44787 0.654568-0.72347zm0.120579 2.54937q0.37896 0 0.37896 1.58474l0.03445 1.6881q-0.08613 7.32082-0.241157 7.32082-0.37896 0.41342-0.689019 0.41342-0.37896 0-0.516764-0.96463l0.03445-0.0344v-0.0344l0.34451-3.13504 0.0689-3.37619-0.103352-2.5666q0.120578-0.89572 0.689019-0.89572z" style="font-feature-settings:normal;font-variant-caps:normal;font-variant-ligatures:normal;font-variant-numeric:normal"/>
   <path d="m22.283481 284.37148h0.103353q0.585667 0 0.826823 1.10243-0.172255 0.22394-0.172255 0.72347v0.55122q0.0689 0.12058 0.206706 0.17225l0.792372-0.0689q1.136882 0 1.136882 0.72347 0 0.68902-0.826823 0.68902-1.309137 0-1.309137 0.27561l-0.03445 0.17225q0.206706 2.48047 0.206706 7.44141 0 1.80006-0.37896 1.9637-0.189481 0.20671-0.413412 0.20671-0.353122 0-0.482313-0.58567h-0.03445q0.241157-2.06705 0.241157-5.92556l-0.137804-2.96278 0.03445-0.27561h-0.03445l-2.101509 0.0344h-0.03445q-0.266995 0-0.447863-0.62012 0.180868-0.58566 0.689019-0.58566 1.576131-0.28422 1.722548-0.44786l0.03445-0.13781v-1.51584q0-0.72347 0.413411-0.93018z" style="font-feature-settings:normal;font-variant-caps:normal;font-variant-ligatures:normal;font-variant-numeric:normal"/>
   <path d="m27.993727 285.43946q0.714857 0.24977 1.240234 0.99908 0.482314 0.88711 0.800985 2.26515 0.327284 1.37804 0.370348 4.00492-0.02584 3.1092-0.198093 3.514 0 1.99816-0.585667 1.99816 0 0.0861-2.695787 0.10335-0.775146 0-1.274685-1.27468-0.137804-0.56845-0.137804-0.99908v-0.17226q0-1.19717 0.999078-2.48047 0.602891-0.68902 1.550293-0.68902l0.757921 0.0345h0.37896l0.03445-0.37896 0.03445-1.72255q0-1.44694-0.930176-3.5829-0.258382-0.31006-0.516764-0.31006h-0.137804q-0.103353 0-0.826823 0.48231h-0.0689q-0.551215-0.25838-0.551215-0.58566v-0.13781q0.904338-1.06798 1.756999-1.06798zm-1.309137 10.26639v0.27561q0 0.76653 0.378961 1.06798h0.0689q1.765611-0.0775 1.800062-0.0861 0.310059-1.54168 0.02584-2.5666-0.275608-0.48231-0.895725-0.48231-0.62873 0-1.309137 1.20578z" style="font-feature-settings:normal;font-variant-caps:normal;font-variant-ligatures:normal;font-variant-numeric:normal"/>
  </g>
  <g transform="translate(31.906568,167.51413)">
   <path d="m27.386019 21.027479c-0.223981-0.905354-1.460781-1.294946-2.071501-0.652383l-2.369373 2.492018-2.369368 2.492017c-0.610751 0.642363-0.05323 1.746285 0.933809 1.848963l7.601755 0.791099z" fill="#e91e63" stroke-width=".10510822"/>
   <path d="m45.10426 45.8678 2.369373-2.492021 2.369372-2.492018c0.610747-0.642359 0.05323-1.746281-0.933921-1.84896l-7.601759-0.791099 1.725228 6.971816c0.224187 0.905253 1.46096 1.294641 2.071707 0.652282z" fill="#e91e63" stroke-width=".10510822"/>
   <g transform="translate(.628662 .523058)" fill="#f06494">
    <path d="m28.482679 27.476135-8.186003-2.868511c-0.437775-0.153422-0.614551-0.654811-0.334487-0.949257l3.475155-3.655039c0.27995-0.294448 0.832771-0.188682 1.046624 0.200255z" stroke-width=".10510822"/>
    <path d="m42.048424 38.76691 3.998518 7.272753c0.213854 0.388937 0.766686 0.494803 1.046627 0.200256l3.475155-3.65504c0.279954-0.294445 0.103289-0.795835-0.334489-0.949256z" stroke-width=".10510821"/>
    <path d="m42.131719 41.30085c1.546007-0.150931 2.636029-1.297376 2.616265-2.751691l-0.06112-4.482069-0.0033 0.0034c-0.03261-2.521267-1.26208-5.140413-3.590244-7.07807-2.326237-1.936235-5.247469-2.774557-7.925942-2.513l-4.764976 0.465275c-1.546007 0.150931-2.636029 1.297377-2.616265 2.751691l0.06112 4.482069c0.03446 2.519549 1.264507 5.136367 3.59084 7.072501 2.328055 1.937656 5.251679 2.775072 7.931785 2.511797l-0.0033 0.0034z" stroke-width=".10510821"/>
   </g>
  </g>
  <g fill="#fff" stroke="#e91e63" stroke-width="1.0583334">
   <g style="font-feature-settings:normal;font-variant-caps:normal;font-variant-ligatures:normal;font-variant-numeric:normal" aria-label="1">
    <path d="m37.437431 195.32431-2.790527 0.0775-0.766534 0.62873v2.64411l0.689019-0.31867 0.07751 8.33713h3.014459z" fill="#fff" stroke="#e91e63" stroke-width="1.0583334" style="font-feature-settings:normal;font-variant-caps:normal;font-variant-ligatures:normal;font-variant-numeric:normal"/>
   </g>
   <g style="font-feature-settings:normal;font-variant-caps:normal;font-variant-ligatures:normal;font-variant-numeric:normal" aria-label="2">
    <path d="m70.549223 195.78619q-2.592435-1.57613-4.823134-0.0258-1.119656 0.81821-1.972317 2.02399l1.739773 2.20486q0.223931-0.36173 0.62873-0.67179 0.895725-0.89573 1.800063-0.70625 0.508151 0.11197 0.413411 0.68902-0.07752 0.49093-0.577054 1.2833-0.938788 1.47278-2.290988 2.3685-0.585666 0.49954-1.085205 0.8785l-0.206706 3.04891 7.002157 0.14642 0.0086-2.91972-3.539836 0.16364q1.679484-1.55029 2.876655-3.37619 1.050754-1.59336 1.171332-2.79914 0.163642-1.50723-1.145494-2.30822z" fill="#fff" stroke="#e91e63" stroke-width="1.0583334" style="font-feature-settings:normal;font-variant-caps:normal;font-variant-ligatures:normal;font-variant-numeric:normal"/>
   </g>
   <g style="font-feature-settings:normal;font-variant-caps:normal;font-variant-ligatures:normal;font-variant-numeric:normal" aria-label="3">
    <path d="m95.815763 195.48699 0.07751 2.62688 3.315905-0.0775-2.790527 2.02399q0.766533-0.11196 1.507229 0.0861 1.498616 0.39619 1.455553 1.95509-0.05168 1.56752-1.50723 1.54168-0.732082-0.0172-1.455552-0.34451l-0.680407 2.80775q1.240235 0.39619 2.7044 0.42203 2.902496 0.0603 3.970476-1.76561 1.46417-2.51492-0.0258-4.2547-0.74931-0.86988-1.71393-1.32636l2.98001-3.66041z" fill="#fff" stroke="#e91e63" stroke-width="1.0583334" style="font-feature-settings:normal;font-variant-caps:normal;font-variant-ligatures:normal;font-variant-numeric:normal"/>
   </g>
   <g style="font-feature-settings:normal;font-variant-caps:normal;font-variant-ligatures:normal;font-variant-numeric:normal" aria-label="4">
    <path d="m36.679511 229.48865h-1.800062l0.07751-3.8585-2.971395 0.0861v6.25285l4.530301 0.16364-0.327284 5.02123 3.117811 0.0775 0.24977-11.60136h-2.79914z" fill="#fff" stroke="#e91e63" stroke-width="1.0583334" style="font-feature-settings:normal;font-variant-caps:normal;font-variant-ligatures:normal;font-variant-numeric:normal"/>
   </g>
   <g style="font-feature-settings:normal;font-variant-caps:normal;font-variant-ligatures:normal;font-variant-numeric:normal" aria-label="5">
    <path d="m66.295523 228.40008 4.521687 0.18948 0.266995-2.54076-6.984931-0.26699 0.111966 5.32267q1.067979-0.22393 1.989542-0.13781 1.843127 0.18087 1.88619 1.74839 0.05168 1.57613-1.550293 1.79145-0.800984 0.11197-1.619195-0.0947l-0.155029 2.60105q1.705322 0.2067 3.393419-0.22393 3.367581-0.84405 3.203939-3.9877-0.146417-3.14365-2.635498-3.77238-1.231622-0.39619-2.446018-0.0775z" fill="#fff" stroke="#e91e63" stroke-width="1.0583334" style="font-feature-settings:normal;font-variant-caps:normal;font-variant-ligatures:normal;font-variant-numeric:normal"/>
   </g>
   <g style="font-feature-settings:normal;font-variant-caps:normal;font-variant-ligatures:normal;font-variant-numeric:normal" aria-label="6">
    <path d="m99.841817 233.85279q-0.301446 0.0258-0.465088-0.15503-0.146416-0.15503-0.146416-0.40479 0-0.24977 0.120578-0.44787 0.129191-0.2067 0.335897-0.24115 0.490922-0.0861 0.732082 0.0861 0.21532 0.14642 0.18948 0.42203-0.0258 0.25838-0.23254 0.4737-0.22393 0.23254-0.533993 0.26699zm-0.206705-3.93602q-0.103353-0.36173 0.103352-0.66318 0.430636-0.6115 2.015386-0.3359l0.45647-2.67856q-0.39619-0.19809-1.10243-0.24977-1.421102-0.0861-2.971395 0.6718-0.809597 0.39618-1.54168 1.88619-0.749309 1.54168-0.887112 3.21255-0.146417 1.92064 0.645955 3.20394 0.930176 1.51584 3.040297 1.85174 1.825905 0.29283 3.057525-0.72347 1.11104-0.91295 1.24023-2.40296 0.12919-1.49862-0.85266-2.55798-1.11104-1.19717-3.203938-1.2144z" fill="#fff" stroke="#e91e63" stroke-width="1.0583334" style="font-feature-settings:normal;font-variant-caps:normal;font-variant-ligatures:normal;font-variant-numeric:normal"/>
   </g>
  </g>
  <rect x="-6.6145816" y="167.51413" width="148.69583" height="135.46667" opacity="0" stroke-width="1.16088593"/>
 </g>
</svg>
