<?xml version="1.0" encoding="UTF-8" standalone="no"?>
<!-- Created with Inkscape (http://www.inkscape.org/) -->

<svg
   xmlns:dc="http://purl.org/dc/elements/1.1/"
   xmlns:cc="http://creativecommons.org/ns#"
   xmlns:rdf="http://www.w3.org/1999/02/22-rdf-syntax-ns#"
   xmlns:svg="http://www.w3.org/2000/svg"
   xmlns="http://www.w3.org/2000/svg"
   xmlns:sodipodi="http://sodipodi.sourceforge.net/DTD/sodipodi-0.dtd"
   xmlns:inkscape="http://www.inkscape.org/namespaces/inkscape"
   width="511.99997"
   height="512"
   version="1.1"
   viewBox="0 0 135.46666 135.46667"
   id="svg4527"
   sodipodi:docname="rosita6.svg"
   inkscape:version="0.92.2 5c3e80d, 2017-08-06">
  <defs
     id="defs4531" />
  <sodipodi:namedview
     pagecolor="#ffffff"
     bordercolor="#666666"
     borderopacity="1"
     objecttolerance="10"
     gridtolerance="10"
     guidetolerance="10"
     inkscape:pageopacity="0"
     inkscape:pageshadow="2"
     inkscape:window-width="1919"
     inkscape:window-height="1030"
     id="namedview4529"
     showgrid="false"
     inkscape:zoom="0.68706892"
     inkscape:cx="700.18378"
     inkscape:cy="29.958178"
     inkscape:window-x="0"
     inkscape:window-y="0"
     inkscape:window-maximized="0"
     inkscape:current-layer="svg4527" />
  <metadata
     id="metadata4357">
    <rdf:RDF>
      <cc:Work
         rdf:about="">
        <dc:format>image/svg+xml</dc:format>
        <dc:type
           rdf:resource="http://purl.org/dc/dcmitype/StillImage" />
        <dc:title></dc:title>
      </cc:Work>
    </rdf:RDF>
  </metadata>
  <g
     id="g7297">
    <g
       transform="translate(-9.6572961,3.6532923e-6)"
       id="g5320">
      <path
         style="fill:#f0d7b8;stroke-width:2.39011216"
         inkscape:connector-curvature="0"
         id="path4359"
         d="m 130.86933,84.604345 5.94192,-1.922824 V 1.9228257 L 130.86933,5.768478 121.95646,-3.0588018e-7 113.04359,5.768478 104.13071,-3.0588018e-7 95.217832,5.768478 86.304957,-3.0588018e-7 77.392084,5.768478 68.479203,-3.0588018e-7 59.566329,5.768478 50.653455,-3.0588018e-7 41.740581,5.768478 32.8277,-3.0588018e-7 23.914827,5.768478 17.972907,1.9228257 V 81.308621 l 5.94192,3.295724 -6.203364,3.845653 -8.0126723,16.463242 c -0.335718,1.45557 1.4082313,2.76502 3.6810193,2.76502 h 128.02158 c 2.27575,0 4.01673,-1.30945 3.68101,-2.76502 l -8.27115,-16.463242 z" />
      <path
         style="fill:#e7bf8e;stroke-width:2.11571646"
         inkscape:connector-curvature="0"
         id="path4361"
         d="m 124.72973,84.584043 5.25977,-1.702075 V 9.107108 l -5.25977,3.404154 -7.88964,-5.1062305 -7.88963,5.1062305 L 101.06083,7.4050315 93.171187,12.511262 85.281551,7.4050315 77.391916,12.511262 69.502272,7.4050315 61.612643,12.511262 53.723007,7.4050315 45.833369,12.511262 37.943728,7.4050315 30.054089,12.511262 24.794338,9.107108 v 72.559574 l 5.259751,2.917361 -5.491182,3.404155 -7.092784,14.573182 c -0.297172,1.28847 1.24656,2.44758 3.258422,2.44758 H 134.05265 c 2.01449,0 3.5556,-1.15911 3.25843,-2.44758 L 129.9895,87.988198 Z" />
    </g>
    <rect
       transform="matrix(0.9624691,-0.27139128,0.24674887,0.96907946,0,0)"
       x="23.043833"
       y="117.38124"
       width="71.887543"
       height="27.731937"
       ry="3.5471084"
       id="rect4501"
       style="fill:#64dd17;stroke-width:0.46215186;fill-opacity:1" />
    <rect
       transform="matrix(0.9624691,-0.27139128,0.24674887,0.96907946,0,0)"
       x="28.059237"
       y="119.31602"
       width="61.85672"
       height="23.862366"
       ry="3.0521629"
       id="rect4503"
       style="fill:#ffffff;stroke-width:0.46215186" />
    <rect
       x="-1.8945312e-06"
       y="3.3474121e-06"
       width="135.46666"
       height="135.46666"
       id="rect4523"
       style="opacity:0;stroke-width:1.74694598" />
    <g
       transform="translate(-0.05590448)"
       id="g5779">
      <g
         id="g5728">
        <path
           d="m 27.386019,21.027479 c -0.223981,-0.905354 -1.460781,-1.294946 -2.071501,-0.652383 l -2.369373,2.492018 -2.369368,2.492017 c -0.610751,0.642363 -0.05323,1.746285 0.933809,1.848963 l 7.601755,0.791099 z"
           id="path4409"
           inkscape:connector-curvature="0"
           style="fill:#e91e63;fill-opacity:1;stroke-width:0.10510822" />
        <path
           d="m 45.10426,45.8678 2.369373,-2.492021 2.369372,-2.492018 c 0.610747,-0.642359 0.05323,-1.746281 -0.933921,-1.84896 l -7.601759,-0.791099 1.725228,6.971816 c 0.224187,0.905253 1.46096,1.294641 2.071707,0.652282 z"
           id="path4413"
           inkscape:connector-curvature="0"
           style="fill:#e91e63;fill-opacity:1;stroke-width:0.10510822" />
        <g
           transform="translate(0.628662,0.523058)"
           style="fill:#f06494;fill-opacity:1"
           id="g5586">
          <path
             style="fill:#f06494;fill-opacity:1;stroke-width:0.10510822"
             inkscape:connector-curvature="0"
             id="path4411"
             d="m 28.482679,27.476135 -8.186003,-2.868511 c -0.437775,-0.153422 -0.614551,-0.654811 -0.334487,-0.949257 l 3.475155,-3.655039 c 0.27995,-0.294448 0.832771,-0.188682 1.046624,0.200255 z" />
          <path
             style="fill:#f06494;fill-opacity:1;stroke-width:0.10510821"
             inkscape:connector-curvature="0"
             id="path4417"
             d="m 42.048424,38.76691 3.998518,7.272753 c 0.213854,0.388937 0.766686,0.494803 1.046627,0.200256 l 3.475155,-3.65504 c 0.279954,-0.294445 0.103289,-0.795835 -0.334489,-0.949256 z" />
          <path
             style="fill:#f06494;fill-opacity:1;stroke-width:0.10510821"
             inkscape:connector-curvature="0"
             id="path4419"
             d="m 42.131719,41.30085 c 1.546007,-0.150931 2.636029,-1.297376 2.616265,-2.751691 l -0.06112,-4.482069 -0.0033,0.0034 c -0.03261,-2.521267 -1.26208,-5.140413 -3.590244,-7.07807 -2.326237,-1.936235 -5.247469,-2.774557 -7.925942,-2.513 l -4.764976,0.465275 c -1.546007,0.150931 -2.636029,1.297377 -2.616265,2.751691 l 0.06112,4.482069 c 0.03446,2.519549 1.264507,5.136367 3.59084,7.072501 2.328055,1.937656 5.251679,2.775072 7.931785,2.511797 l -0.0033,0.0034 z" />
        </g>
      </g>
      <g
         id="g5742"
         transform="translate(31.962466)">
        <path
           style="fill:#e91e63;fill-opacity:1;stroke-width:0.10510822"
           inkscape:connector-curvature="0"
           id="path5730"
           d="m 27.386019,21.027479 c -0.223981,-0.905354 -1.460781,-1.294946 -2.071501,-0.652383 l -2.369373,2.492018 -2.369368,2.492017 c -0.610751,0.642363 -0.05323,1.746285 0.933809,1.848963 l 7.601755,0.791099 z" />
        <path
           style="fill:#e91e63;fill-opacity:1;stroke-width:0.10510822"
           inkscape:connector-curvature="0"
           id="path5732"
           d="m 45.10426,45.8678 2.369373,-2.492021 2.369372,-2.492018 c 0.610747,-0.642359 0.05323,-1.746281 -0.933921,-1.84896 l -7.601759,-0.791099 1.725228,6.971816 c 0.224187,0.905253 1.46096,1.294641 2.071707,0.652282 z" />
        <g
           id="g5740"
           style="fill:#f06494;fill-opacity:1"
           transform="translate(0.628662,0.523058)">
          <path
             d="m 28.482679,27.476135 -8.186003,-2.868511 c -0.437775,-0.153422 -0.614551,-0.654811 -0.334487,-0.949257 l 3.475155,-3.655039 c 0.27995,-0.294448 0.832771,-0.188682 1.046624,0.200255 z"
             id="path5734"
             inkscape:connector-curvature="0"
             style="fill:#f06494;fill-opacity:1;stroke-width:0.10510822" />
          <path
             d="m 42.048424,38.76691 3.998518,7.272753 c 0.213854,0.388937 0.766686,0.494803 1.046627,0.200256 l 3.475155,-3.65504 c 0.279954,-0.294445 0.103289,-0.795835 -0.334489,-0.949256 z"
             id="path5736"
             inkscape:connector-curvature="0"
             style="fill:#f06494;fill-opacity:1;stroke-width:0.10510821" />
          <path
             d="m 42.131719,41.30085 c 1.546007,-0.150931 2.636029,-1.297376 2.616265,-2.751691 l -0.06112,-4.482069 -0.0033,0.0034 c -0.03261,-2.521267 -1.26208,-5.140413 -3.590244,-7.07807 -2.326237,-1.936235 -5.247469,-2.774557 -7.925942,-2.513 l -4.764976,0.465275 c -1.546007,0.150931 -2.636029,1.297377 -2.616265,2.751691 l 0.06112,4.482069 c 0.03446,2.519549 1.264507,5.136367 3.59084,7.072501 2.328055,1.937656 5.251679,2.775072 7.931785,2.511797 l -0.0033,0.0034 z"
             id="path5738"
             inkscape:connector-curvature="0"
             style="fill:#f06494;fill-opacity:1;stroke-width:0.10510821" />
        </g>
      </g>
      <g
         transform="translate(63.924932)"
         id="g5756">
        <path
           d="m 27.386019,21.027479 c -0.223981,-0.905354 -1.460781,-1.294946 -2.071501,-0.652383 l -2.369373,2.492018 -2.369368,2.492017 c -0.610751,0.642363 -0.05323,1.746285 0.933809,1.848963 l 7.601755,0.791099 z"
           id="path5744"
           inkscape:connector-curvature="0"
           style="fill:#e91e63;fill-opacity:1;stroke-width:0.10510822" />
        <path
           d="m 45.10426,45.8678 2.369373,-2.492021 2.369372,-2.492018 c 0.610747,-0.642359 0.05323,-1.746281 -0.933921,-1.84896 l -7.601759,-0.791099 1.725228,6.971816 c 0.224187,0.905253 1.46096,1.294641 2.071707,0.652282 z"
           id="path5746"
           inkscape:connector-curvature="0"
           style="fill:#e91e63;fill-opacity:1;stroke-width:0.10510822" />
        <g
           transform="translate(0.628662,0.523058)"
           style="fill:#f06494;fill-opacity:1"
           id="g5754">
          <path
             style="fill:#f06494;fill-opacity:1;stroke-width:0.10510822"
             inkscape:connector-curvature="0"
             id="path5748"
             d="m 28.482679,27.476135 -8.186003,-2.868511 c -0.437775,-0.153422 -0.614551,-0.654811 -0.334487,-0.949257 l 3.475155,-3.655039 c 0.27995,-0.294448 0.832771,-0.188682 1.046624,0.200255 z" />
          <path
             style="fill:#f06494;fill-opacity:1;stroke-width:0.10510821"
             inkscape:connector-curvature="0"
             id="path5750"
             d="m 42.048424,38.76691 3.998518,7.272753 c 0.213854,0.388937 0.766686,0.494803 1.046627,0.200256 l 3.475155,-3.65504 c 0.279954,-0.294445 0.103289,-0.795835 -0.334489,-0.949256 z" />
          <path
             style="fill:#f06494;fill-opacity:1;stroke-width:0.10510821"
             inkscape:connector-curvature="0"
             id="path5752"
             d="m 42.131719,41.30085 c 1.546007,-0.150931 2.636029,-1.297376 2.616265,-2.751691 l -0.06112,-4.482069 -0.0033,0.0034 c -0.03261,-2.521267 -1.26208,-5.140413 -3.590244,-7.07807 -2.326237,-1.936235 -5.247469,-2.774557 -7.925942,-2.513 l -4.764976,0.465275 c -1.546007,0.150931 -2.636029,1.297377 -2.616265,2.751691 l 0.06112,4.482069 c 0.03446,2.519549 1.264507,5.136367 3.59084,7.072501 2.328055,1.937656 5.251679,2.775072 7.931785,2.511797 l -0.0033,0.0034 z" />
        </g>
      </g>
    </g>
    <g
       id="g5823"
       transform="translate(-0.05590448,30.422106)">
      <g
         id="g5793">
        <path
           style="fill:#e91e63;fill-opacity:1;stroke-width:0.10510822"
           inkscape:connector-curvature="0"
           id="path5781"
           d="m 27.386019,21.027479 c -0.223981,-0.905354 -1.460781,-1.294946 -2.071501,-0.652383 l -2.369373,2.492018 -2.369368,2.492017 c -0.610751,0.642363 -0.05323,1.746285 0.933809,1.848963 l 7.601755,0.791099 z" />
        <path
           style="fill:#e91e63;fill-opacity:1;stroke-width:0.10510822"
           inkscape:connector-curvature="0"
           id="path5783"
           d="m 45.10426,45.8678 2.369373,-2.492021 2.369372,-2.492018 c 0.610747,-0.642359 0.05323,-1.746281 -0.933921,-1.84896 l -7.601759,-0.791099 1.725228,6.971816 c 0.224187,0.905253 1.46096,1.294641 2.071707,0.652282 z" />
        <g
           id="g5791"
           style="fill:#f06494;fill-opacity:1"
           transform="translate(0.628662,0.523058)">
          <path
             d="m 28.482679,27.476135 -8.186003,-2.868511 c -0.437775,-0.153422 -0.614551,-0.654811 -0.334487,-0.949257 l 3.475155,-3.655039 c 0.27995,-0.294448 0.832771,-0.188682 1.046624,0.200255 z"
             id="path5785"
             inkscape:connector-curvature="0"
             style="fill:#f06494;fill-opacity:1;stroke-width:0.10510822" />
          <path
             d="m 42.048424,38.76691 3.998518,7.272753 c 0.213854,0.388937 0.766686,0.494803 1.046627,0.200256 l 3.475155,-3.65504 c 0.279954,-0.294445 0.103289,-0.795835 -0.334489,-0.949256 z"
             id="path5787"
             inkscape:connector-curvature="0"
             style="fill:#f06494;fill-opacity:1;stroke-width:0.10510821" />
          <path
             d="m 42.131719,41.30085 c 1.546007,-0.150931 2.636029,-1.297376 2.616265,-2.751691 l -0.06112,-4.482069 -0.0033,0.0034 c -0.03261,-2.521267 -1.26208,-5.140413 -3.590244,-7.07807 -2.326237,-1.936235 -5.247469,-2.774557 -7.925942,-2.513 l -4.764976,0.465275 c -1.546007,0.150931 -2.636029,1.297377 -2.616265,2.751691 l 0.06112,4.482069 c 0.03446,2.519549 1.264507,5.136367 3.59084,7.072501 2.328055,1.937656 5.251679,2.775072 7.931785,2.511797 l -0.0033,0.0034 z"
             id="path5789"
             inkscape:connector-curvature="0"
             style="fill:#f06494;fill-opacity:1;stroke-width:0.10510821" />
        </g>
      </g>
      <g
         transform="translate(31.962466)"
         id="g5807">
        <path
           d="m 27.386019,21.027479 c -0.223981,-0.905354 -1.460781,-1.294946 -2.071501,-0.652383 l -2.369373,2.492018 -2.369368,2.492017 c -0.610751,0.642363 -0.05323,1.746285 0.933809,1.848963 l 7.601755,0.791099 z"
           id="path5795"
           inkscape:connector-curvature="0"
           style="fill:#e91e63;fill-opacity:1;stroke-width:0.10510822" />
        <path
           d="m 45.10426,45.8678 2.369373,-2.492021 2.369372,-2.492018 c 0.610747,-0.642359 0.05323,-1.746281 -0.933921,-1.84896 l -7.601759,-0.791099 1.725228,6.971816 c 0.224187,0.905253 1.46096,1.294641 2.071707,0.652282 z"
           id="path5797"
           inkscape:connector-curvature="0"
           style="fill:#e91e63;fill-opacity:1;stroke-width:0.10510822" />
        <g
           transform="translate(0.628662,0.523058)"
           style="fill:#f06494;fill-opacity:1"
           id="g5805">
          <path
             style="fill:#f06494;fill-opacity:1;stroke-width:0.10510822"
             inkscape:connector-curvature="0"
             id="path5799"
             d="m 28.482679,27.476135 -8.186003,-2.868511 c -0.437775,-0.153422 -0.614551,-0.654811 -0.334487,-0.949257 l 3.475155,-3.655039 c 0.27995,-0.294448 0.832771,-0.188682 1.046624,0.200255 z" />
          <path
             style="fill:#f06494;fill-opacity:1;stroke-width:0.10510821"
             inkscape:connector-curvature="0"
             id="path5801"
             d="m 42.048424,38.76691 3.998518,7.272753 c 0.213854,0.388937 0.766686,0.494803 1.046627,0.200256 l 3.475155,-3.65504 c 0.279954,-0.294445 0.103289,-0.795835 -0.334489,-0.949256 z" />
          <path
             style="fill:#f06494;fill-opacity:1;stroke-width:0.10510821"
             inkscape:connector-curvature="0"
             id="path5803"
             d="m 42.131719,41.30085 c 1.546007,-0.150931 2.636029,-1.297376 2.616265,-2.751691 l -0.06112,-4.482069 -0.0033,0.0034 c -0.03261,-2.521267 -1.26208,-5.140413 -3.590244,-7.07807 -2.326237,-1.936235 -5.247469,-2.774557 -7.925942,-2.513 l -4.764976,0.465275 c -1.546007,0.150931 -2.636029,1.297377 -2.616265,2.751691 l 0.06112,4.482069 c 0.03446,2.519549 1.264507,5.136367 3.59084,7.072501 2.328055,1.937656 5.251679,2.775072 7.931785,2.511797 l -0.0033,0.0034 z" />
        </g>
      </g>
      <g
         id="g5821"
         transform="translate(63.924932)">
        <path
           style="fill:#e91e63;fill-opacity:1;stroke-width:0.10510822"
           inkscape:connector-curvature="0"
           id="path5809"
           d="m 27.386019,21.027479 c -0.223981,-0.905354 -1.460781,-1.294946 -2.071501,-0.652383 l -2.369373,2.492018 -2.369368,2.492017 c -0.610751,0.642363 -0.05323,1.746285 0.933809,1.848963 l 7.601755,0.791099 z" />
        <path
           style="fill:#e91e63;fill-opacity:1;stroke-width:0.10510822"
           inkscape:connector-curvature="0"
           id="path5811"
           d="m 45.10426,45.8678 2.369373,-2.492021 2.369372,-2.492018 c 0.610747,-0.642359 0.05323,-1.746281 -0.933921,-1.84896 l -7.601759,-0.791099 1.725228,6.971816 c 0.224187,0.905253 1.46096,1.294641 2.071707,0.652282 z" />
        <g
           id="g5819"
           style="fill:#f06494;fill-opacity:1"
           transform="translate(0.628662,0.523058)">
          <path
             d="m 28.482679,27.476135 -8.186003,-2.868511 c -0.437775,-0.153422 -0.614551,-0.654811 -0.334487,-0.949257 l 3.475155,-3.655039 c 0.27995,-0.294448 0.832771,-0.188682 1.046624,0.200255 z"
             id="path5813"
             inkscape:connector-curvature="0"
             style="fill:#f06494;fill-opacity:1;stroke-width:0.10510822" />
          <path
             d="m 42.048424,38.76691 3.998518,7.272753 c 0.213854,0.388937 0.766686,0.494803 1.046627,0.200256 l 3.475155,-3.65504 c 0.279954,-0.294445 0.103289,-0.795835 -0.334489,-0.949256 z"
             id="path5815"
             inkscape:connector-curvature="0"
             style="fill:#f06494;fill-opacity:1;stroke-width:0.10510821" />
          <path
             d="m 42.131719,41.30085 c 1.546007,-0.150931 2.636029,-1.297376 2.616265,-2.751691 l -0.06112,-4.482069 -0.0033,0.0034 c -0.03261,-2.521267 -1.26208,-5.140413 -3.590244,-7.07807 -2.326237,-1.936235 -5.247469,-2.774557 -7.925942,-2.513 l -4.764976,0.465275 c -1.546007,0.150931 -2.636029,1.297377 -2.616265,2.751691 l 0.06112,4.482069 c 0.03446,2.519549 1.264507,5.136367 3.59084,7.072501 2.328055,1.937656 5.251679,2.775072 7.931785,2.511797 l -0.0033,0.0034 z"
             id="path5817"
             inkscape:connector-curvature="0"
             style="fill:#f06494;fill-opacity:1;stroke-width:0.10510821" />
        </g>
      </g>
    </g>
    <g
       id="text5835"
       style="font-style:normal;font-weight:normal;font-size:10.58333397px;line-height:1.25;font-family:sans-serif;letter-spacing:0px;word-spacing:0px;fill:#424242;fill-opacity:1;stroke:none;stroke-width:0.26458335"
       transform="rotate(-15)"
       aria-label="Rosita">
      <path
         id="path7174"
         style="font-style:normal;font-variant:normal;font-weight:normal;font-stretch:normal;font-size:17.63888931px;font-family:'king cooL KC';-inkscape-font-specification:'king cooL KC, Normal';font-variant-ligatures:normal;font-variant-caps:normal;font-variant-numeric:normal;font-feature-settings:normal;text-align:start;writing-mode:lr-tb;text-anchor:start;fill:#424242;fill-opacity:1;stroke-width:0.26458335"
         d="m 44.288348,121.91069 h 0.103353 q 1.421102,0 2.239312,2.58382 v 0.10335 q 0,1.02492 -0.72347,2.44602 l -0.689019,0.79237 q 0.559828,3.97047 1.171333,5.99447 0.4737,1.36942 1.067979,2.61827 l 0.137804,0.37896 v 0.0689 q -0.06029,0.0603 -0.103353,0.41341 l -0.37896,0.17226 q -0.861274,-0.11197 -0.861274,-0.86128 0,-0.44786 -0.275608,-0.82682 -0.620117,-1.11104 -0.861274,-2.79053 -0.344509,-0.93878 -0.654568,-3.13503 l -0.37896,-1.24024 -0.137804,-0.0689 q -1.06798,0.12919 -1.06798,0.27561 0.111966,0 0.310059,7.1658 0,0.44786 -0.551215,0.62011 h -0.0689 q -0.310059,0 -0.551216,-0.51676 l -0.103353,-7.82037 q -0.129191,0 -0.310058,-4.44417 v -0.41341 q 0,-0.84405 0.964627,-0.93018 0.947401,-0.58566 1.722547,-0.58566 z m -1.619195,2.27376 q 0.08613,3.16949 0.206706,3.16949 h 0.103353 q 1.326362,0 2.377116,-1.92926 0.103353,-0.34451 0.103353,-0.79237 v -0.17225 q -0.180868,-1.17134 -0.930176,-1.17134 h -0.37896 q -0.542603,0.0172 -1.481392,0.89573 z" />
      <path
         id="path7176"
         style="font-style:normal;font-variant:normal;font-weight:normal;font-stretch:normal;font-size:17.63888931px;font-family:'king cooL KC';-inkscape-font-specification:'king cooL KC, Normal';font-variant-ligatures:normal;font-variant-caps:normal;font-variant-numeric:normal;font-feature-settings:normal;text-align:start;writing-mode:lr-tb;text-anchor:start;fill:#424242;fill-opacity:1;stroke-width:0.26458335"
         d="m 51.46276,125.41607 q 1.44694,0.28422 1.44694,0.96463 1.507229,2.24792 0.413411,7.40695 -0.689019,1.80007 -1.240234,2.30822 -0.766534,0.96462 -1.515842,0.96462 -1.16272,0 -1.79145,-1.51584 l -0.585666,-2.89388 v -0.51676 q 0,-1.73978 0.585666,-4.23747 0.09474,-0.1378 0.172255,-0.62012 0.809597,-1.79145 1.550293,-1.79145 z m -0.654568,1.27469 h -0.0689 q -0.404799,0 -0.551216,0.65456 -0.72347,1.32637 -0.72347,2.75608 -0.103353,0.25838 -0.103353,0.89573 v 1.17133 q 0,1.52445 0.551216,3.13504 0.258382,0.51676 0.516764,0.51676 0.413412,0 1.171333,-0.99908 0.223931,0 0.72347,-1.06798 0.206705,-0.74931 0.413411,-2.85943 0,-2.07567 -0.551215,-3.34174 -0.275608,-0.74931 -0.447863,-0.89572 z" />
      <path
         id="path7178"
         style="font-style:normal;font-variant:normal;font-weight:normal;font-stretch:normal;font-size:17.63888931px;font-family:'king cooL KC';-inkscape-font-specification:'king cooL KC, Normal';font-variant-ligatures:normal;font-variant-caps:normal;font-variant-numeric:normal;font-feature-settings:normal;text-align:start;writing-mode:lr-tb;text-anchor:start;fill:#424242;fill-opacity:1;stroke-width:0.26458335"
         d="m 57.948152,123.52127 q 1.756998,0.26699 1.756998,1.03353 0,0.35312 -0.551215,0.51676 l -0.964627,-0.31006 h -0.172255 q -0.714857,0 -1.205783,0.93018 -0.34451,0.93017 -0.34451,2.13596 0,1.3522 1.550293,2.20486 1.102431,0.93018 1.446941,1.51584 l 0.542602,1.10243 0.03445,0.15503 v 0.0689 q 0,1.8259 -0.930176,2.75608 -0.81821,1.13688 -1.756998,1.13688 h -0.172255 q -1.111044,0 -2.411567,-1.13688 -0.516764,-0.72347 -0.516764,-1.55029 0.09474,-0.93018 0.447862,-0.93018 0.422024,0 0.516764,1.30914 0.24977,0.59428 0.930176,0.86127 0.568441,0.20671 0.861274,0.20671 h 0.206706 q 0.689019,0 1.584744,-1.58475 l 0.172255,-0.62011 q 0,-0.99908 -0.78376,-1.70533 l -1.791449,-1.48139 q -0.611505,-0.64595 -0.895725,-1.55029 v -0.0344 q -0.215319,-1.85174 0.18948,-2.79053 0.404799,-0.93879 0.602892,-1.44694 0.508151,-0.79237 1.653646,-0.79237 z" />
      <path
         id="path7180"
         style="font-style:normal;font-variant:normal;font-weight:normal;font-stretch:normal;font-size:17.63888931px;font-family:'king cooL KC';-inkscape-font-specification:'king cooL KC, Normal';font-variant-ligatures:normal;font-variant-caps:normal;font-variant-numeric:normal;font-feature-settings:normal;text-align:start;writing-mode:lr-tb;text-anchor:start;fill:#424242;fill-opacity:1;stroke-width:0.26458335"
         d="m 61.789434,123.16815 q 0.378961,0 0.585666,0.68902 -0.172254,0.62011 -0.689019,0.62011 h -0.103352 q -0.378961,0 -0.482314,-0.58566 0,-0.44787 0.654568,-0.72347 z m 0.120579,2.54937 q 0.37896,0 0.37896,1.58474 l 0.03445,1.6881 q -0.08613,7.32083 -0.241157,7.32083 -0.37896,0.41341 -0.689019,0.41341 -0.37896,0 -0.516764,-0.96463 l 0.03445,-0.0345 v -0.0344 l 0.344509,-3.13504 0.0689,-3.37619 -0.103353,-2.5666 q 0.120579,-0.89572 0.68902,-0.89572 z" />
      <path
         id="path7182"
         style="font-style:normal;font-variant:normal;font-weight:normal;font-stretch:normal;font-size:17.63888931px;font-family:'king cooL KC';-inkscape-font-specification:'king cooL KC, Normal';font-variant-ligatures:normal;font-variant-caps:normal;font-variant-numeric:normal;font-feature-settings:normal;text-align:start;writing-mode:lr-tb;text-anchor:start;fill:#424242;fill-opacity:1;stroke-width:0.26458335"
         d="m 65.639328,122.56525 h 0.103353 q 0.585666,0 0.826823,1.10244 -0.172255,0.22393 -0.172255,0.72347 v 0.55121 q 0.0689,0.12058 0.206706,0.17226 l 0.792372,-0.0689 q 1.136882,0 1.136882,0.72347 0,0.68902 -0.826823,0.68902 -1.309137,0 -1.309137,0.27561 l -0.03445,0.17226 q 0.206706,2.48046 0.206706,7.4414 0,1.80006 -0.37896,1.96371 -0.189481,0.2067 -0.413412,0.2067 -0.353122,0 -0.482313,-0.58566 h -0.03445 q 0.241156,-2.06706 0.241156,-5.92557 l -0.137803,-2.96278 0.03445,-0.27561 h -0.03445 l -2.101509,0.0344 h -0.03445 q -0.266995,0 -0.447862,-0.62011 0.180867,-0.58567 0.689019,-0.58567 1.576131,-0.28422 1.722548,-0.44786 l 0.03445,-0.13781 v -1.51584 q 0,-0.72347 0.413411,-0.93018 z" />
      <path
         id="path7184"
         style="font-style:normal;font-variant:normal;font-weight:normal;font-stretch:normal;font-size:17.63888931px;font-family:'king cooL KC';-inkscape-font-specification:'king cooL KC, Normal';font-variant-ligatures:normal;font-variant-caps:normal;font-variant-numeric:normal;font-feature-settings:normal;text-align:start;writing-mode:lr-tb;text-anchor:start;fill:#424242;fill-opacity:1;stroke-width:0.26458335"
         d="m 71.349574,123.63323 q 0.714857,0.24977 1.240234,0.99908 0.482313,0.88711 0.800985,2.26515 0.327284,1.37804 0.370348,4.00493 -0.02584,3.10919 -0.198093,3.51399 0,1.99816 -0.585667,1.99816 0,0.0861 -2.695787,0.10335 -0.775147,0 -1.274685,-1.27468 -0.137804,-0.56844 -0.137804,-0.99908 v -0.17226 q 0,-1.19717 0.999078,-2.48046 0.602891,-0.68902 1.550293,-0.68902 l 0.757921,0.0344 h 0.37896 l 0.03445,-0.37896 0.03445,-1.72255 q 0,-1.44694 -0.930176,-3.5829 -0.258382,-0.31006 -0.516764,-0.31006 h -0.137804 q -0.103353,0 -0.826823,0.48231 h -0.0689 q -0.551215,-0.25838 -0.551215,-0.58566 v -0.13781 q 0.904337,-1.06798 1.756999,-1.06798 z m -1.309137,10.26639 v 0.27561 q 0,0.76653 0.378961,1.06798 h 0.0689 q 1.765611,-0.0775 1.800062,-0.0861 0.310059,-1.54168 0.02584,-2.5666 -0.275607,-0.48231 -0.895724,-0.48231 -0.62873,0 -1.309137,1.20578 z" />
    </g>
  </g>
</svg>
