<?xml version="1.0" encoding="UTF-8"?>
<!-- Created with Inkscape (http://www.inkscape.org/) -->
<svg width="512.00006" height="438.99997" version="1.1" viewBox="0 0 135.46668 116.15208" xmlns="http://www.w3.org/2000/svg" xmlns:cc="http://creativecommons.org/ns#" xmlns:dc="http://purl.org/dc/elements/1.1/" xmlns:rdf="http://www.w3.org/1999/02/22-rdf-syntax-ns#">
 <metadata>
  <rdf:RDF>
   <cc:Work rdf:about="">
    <dc:format>image/svg+xml</dc:format>
    <dc:type rdf:resource="http://purl.org/dc/dcmitype/StillImage"/>
    <dc:title/>
   </cc:Work>
  </rdf:RDF>
 </metadata>
 <g transform="translate(339.2065,-754.56207)">
  <rect x="-339.20648" y="754.56207" width="135.46666" height="116.15208" opacity="0" stroke-width="4.47592449"/>
  <g transform="translate(-30.896842)">
   <rect x="-308.30966" y="767.65894" width="135.46667" height="89.958336" ry="0" fill="#64dd17"/>
   <path d="m-301.72052 773.10637h122.28838v58.77873l-3.82151-10.5759-3.82151 10.5759-3.82151-9.13373-3.82152 9.13373-3.82151-3.84578-3.82151 3.84578-3.82151-8.65301-3.82151 8.65301-3.82152-11.05662-3.82151 11.05662-3.82151-6.00903-3.82151 6.00903-3.82151-8.65301-3.82152 8.65301-3.82151-5.04759-3.82151 5.04759-3.82151-7.93192-3.82151 7.93192-3.82151-4.20632-3.82152 4.20632-3.82151-10.45572-3.82151 10.45572-3.82151-3.7256-3.82152 3.7256-3.82151-5.64849-3.82151 5.64849-3.70144-9.25391-3.94158 9.25391-3.22113-3.36506-4.4219 3.36506-3.82151-7.21084-3.82151 7.21084z" fill="#fff"/>
   <rect x="-251.76941" y="799.29144" width="20.04583" height="19.209473" fill-opacity="0" stroke="#4eac18" stroke-linecap="round" stroke-opacity=".94117647" stroke-width=".64003813"/>
   <g transform="matrix(.04054897 0 0 .04058416 -250.75197 799.8829)">
    <path d="m355.64 308.052s-44.79 8.22-82.66 14.9c-5.17 0.91-10.22 1.79-15 2.62-3.4 0.59-7.02 1.11-10.82 1.58v0.01c-21.91 2.72-49.4 3.59-70.11 3.82-17.76 0.18-30.54-0.1-30.54-0.1l-7.01-1.98-20.75-5.86-21.08-5.96c-2.84 1.09-5.79 2.08-8.82 2.99l-0.01 0.01c-38.25 11.48-88.84 9.2-88.84 9.2 28.14-12.2 78.56-79.62 78.56-79.62 15.93-75.37 49.9-112 49.9-112 55.73-21.23 110.94-18.58 110.94-18.58 31.85 5.31 61.61 31.26 61.61 31.26z" fill="#b77d4e"/>
    <path d="m272.98 322.952c-5.17 0.91-10.22 1.79-15 2.62-3.4 0.59-7.02 1.11-10.82 1.58 6.43-12.06 6.15-32.81 6.15-32.81z" fill="#96633e"/>
    <polygon points="265.122 343.244 262.721 359.456 331.771 359.456 328.168 343.845 314.358 341.443 317.36 312.622 310.623 290.943 271.031 273.222 253.31 294.337" fill="#b77d4e"/>
    <polygon points="317.73 139.222 326.23 84.722 331.23 86.222 345.23 120.222" fill="#e0d48c"/>
    <polygon points="311.232 153.915 299.212 125.865 295.347 133.234 298.785 172.082" fill="#e0d48c"/>
    <path d="m123.73 319.722-4.98 3.32-21.08-5.96c-2.84 1.09-5.79 2.08-8.82 2.99l19.19-30.64z" fill="#96633e"/>
    <path d="m177.05 330.982c-17.76 0.18-30.54-0.1-30.54-0.1l-7.01-1.98 10.23-22.68 8.84-16.41s9.69 41.29 18.16 41.16c0.11 0 0.21 0 0.32 0.01z" fill="#96633e"/>
    <polyline points="298.73 180.222 282.563 163.888 280.23 169.722 291.73 202.222" fill="#e0d48c"/>
    <polygon points="162.408 312.622 158.569 289.812 137.831 279.632 108.044 289.435 102.365 313.823 110.17 343.244 107.768 359.456 176.819 359.456 173.216 343.845 159.406 341.443" fill="#b77d4e"/>
    <g fill="#e0d48c">
     <polygon points="287.438 204.222 275.438 213.888 287.104 220.888"/>
     <polygon points="288.849 220.449 278.357 231.733 290.905 236.991"/>
     <polygon points="290.816 234.415 282.504 247.39 295.789 250.326"/>
     <path d="m400.232 217.816s15.238-14.837 17.482-39.282c0.286-3.116 4.529-3.85 5.862-1.019 6.277 13.325 13.892 36.636 2.134 55.164-17.516 27.601-25.478-14.863-25.478-14.863z"/>
    </g>
    <path d="m440.57 304.342-12.74-14.87-12.74-3.71-8.49 18.05-50.96 4.24s-14.56-5.02-29.44-13.12v-0.01c-7.3-3.97-14.68-8.7-20.45-13.94 0 0-28.13-33.97-21.23-87.05 0 0 7.96-39.28 29.72-61.58 0 0 20.17-23.35 45.12-33.97l6.37 10.62s-29.73 56.26-6.9 101.38c0 0 20.7-3.71 49.89 2.66 0 0 20.18 8.49 35.04 27.6 0 0 2.12 33.97-3.19 63.7z" fill="#af754a"/>
    <polygon points="334.942 204.546 364.137 196.584 374.222 217.285" fill="#af754a"/>
    <polygon points="357.939 198.274 367.853 184.375 367.567 203.623" fill="#e0d48c"/>
    <circle cx="367.56299" cy="228.722" r="12.833" fill="#96633e"/>
    <path d="m361.198 233.934s7.258 0.435 13.598-4.618l-1.47-4.012s-8.312-1.323-13.757-0.785c0 1e-3 -1.954 7.088 1.629 9.415z" fill="#4d4d4d"/>
    <g fill="#96633e">
     <path d="m415.09 285.762-8.49 18.05-50.96 4.24s-14.56-5.02-29.44-13.12v-0.01l25.2-13.94z"/>
     <path d="m323.73 134.722s-3.575 43.148 11.212 69.824l-4.212 6.676s-26.5-17-22-55.5z"/>
     <path d="m326.23 223.222s-15.63-4.011-29-13.5c0 0-3 11 1 17l25.5 4z"/>
     <path d="m331.622 253.283 3.108 5.438s-11.388 6.442-25 6.5l-5.5-12c0 1e-3 18.392 5.562 27.392 0.062z"/>
     <polygon points="159.406 341.443 137.73 345.222 160.491 331.029"/>
     <polygon points="314.358 341.443 292.73 346.222 315.803 327.573"/>
     <circle cx="270.73001" cy="150.222" r="10"/>
     <circle cx="238.23" cy="137.722" r="10"/>
     <circle cx="205.73" cy="139.222" r="10"/>
     <circle cx="174.783" cy="144.911" r="8.4469995"/>
     <circle cx="143.23" cy="155.858" r="7.5"/>
     <circle cx="126.23" cy="180.722" r="7.5"/>
     <circle cx="84.230003" cy="267.22198" r="7.5"/>
     <circle cx="110.73" cy="217.222" r="7.5"/>
     <circle cx="100.23" cy="245.472" r="3.75"/>
     <circle cx="112.48" cy="236.222" r="3.75"/>
     <circle cx="288.03799" cy="153.222" r="3.75"/>
     <circle cx="63.617001" cy="290.76801" r="5.6440001"/>
     <circle cx="45.23" cy="307.22198" r="5.6440001"/>
     <circle cx="221.98" cy="155.722" r="3.75"/>
     <circle cx="154.48" cy="140.222" r="3.75"/>
    </g>
   </g>
   <rect x="-275.15555" y="799.29144" width="20.04583" height="19.209473" fill-opacity="0" stroke="#4eac18" stroke-linecap="round" stroke-opacity=".94117647" stroke-width=".64003813"/>
   <g transform="matrix(.0426507 0 0 .04268772 -274.07258 799.94847)">
    <path d="m418.79 32.667-1.19 3.55-0.63 5.41c-0.2 1.72-1.43 3.14-3.11 3.59l-37.28 9.93c-0.02 0.38-0.04 0.79-0.05 1.2-0.22 17.05 17.84 57.02 29.16 80.35 6.42 13.23 10.04 27.64 10.56 42.34 1.76 49.74-5.74 93.53-5.74 93.53-13.67 19.25-34.45 38.81-52.9 54.32l-0.01 0.01c-5.51 4.64-10.82 8.91-15.66 12.7-4.19 3.28-8.04 6.21-11.38 8.69-7.93 5.92-12.99 9.38-12.99 9.38-8.96 2.29-17.88 3.74-26.63 4.54-0.19 0.03-0.39 0.06-0.59 0.07-16.63 1.49-32.66 0.63-47.3-1.47h-0.02c-1.07-0.15-2.12-0.31-3.17-0.48h-0.01c-15.63-2.46-29.56-6.28-40.79-10.06-9.3-3.12-16.74-6.21-21.77-8.47-4.72-2.12-7.31-3.51-7.31-3.51-3.33 3.13-8.23 6.49-14.08 9.9h-0.01c-28.23 16.47-78.39 34.29-78.39 34.29-32.71 12.36-77.5 8.21-77.5 8.21 0.99 0.08 2.03 0.08 3.11 0 29.03-2.03 86.6-57.45 86.6-57.45 11.54-34.23 68.41-96.59 68.41-96.59 32.51-19.92 82.55-23.79 82.55-23.79 31.41 7.98 54.58 31.17 54.58 31.17 31.42 7.98 53.11-2.43 66.05-11.7s16.82-70.27 1.72-97.9c-8.71-15.95-12.13-43.48-13.46-63.91v-0.01c-0.38-5.9-0.59-11.22-0.71-15.49-0.18-6.8 1.08-13.55 3.7-19.83l5.17-12.42 4.47-12.85c0.63-1.81 1.7-3.39 3.07-4.63 1.38-1.25 3.07-2.15 4.93-2.59 4.18-0.99 8.59 0.49 11.28 3.85 3.19 3.98 5.27 7.74 5.27 7.74 6.88 3.98 17.92 6.47 25.78 7.85 4.88 0.86 7.85 5.84 6.27 10.53z" fill="#c9d0d6"/>
    <path d="m418.79 32.667-1.19 3.55-0.63 5.41c-0.2 1.72-1.43 3.14-3.11 3.59l-37.28 9.93c-0.02 0.38-0.04 0.79-0.05 1.2l-7.93-1.76s-15.85-4.75-19.04 15.92c-0.38-5.9-0.59-11.22-0.71-15.49-0.18-6.8 1.08-13.55 3.7-19.83l5.17-12.42 4.47-12.85c0.63-1.81 1.7-3.39 3.07-4.63 1.38-1.25 3.07-2.15 4.93-2.59 4.18-0.99 8.59 0.49 11.28 3.85 3.19 3.98 5.27 7.74 5.27 7.74 6.88 3.98 17.92 6.47 25.78 7.85 4.88 0.86 7.85 5.84 6.27 10.53z" fill="#bac7d1"/>
    <path d="m410.51 272.567c-13.67 19.25-34.45 38.81-52.9 54.32l-0.01 0.01c-5.51 4.64-10.82 8.91-15.66 12.7-4.19 3.28-8.04 6.21-11.38 8.69-7.93 5.92-12.99 9.38-12.99 9.38-8.96 2.29-17.88 3.74-26.63 4.54-0.19 0.03-0.39 0.06-0.59 0.07-16.63 1.49-32.66 0.63-47.3-1.47h-0.02c-1.07-0.15-2.12-0.31-3.17-0.48h-0.01c-15.63-2.46-29.56-6.28-40.79-10.06-9.3-3.12-16.74-6.21-21.77-8.47-4.72-2.12-7.31-3.51-7.31-3.51-3.33 3.13-8.23 6.49-14.08 9.9h-0.01c-28.23 16.47-78.39 34.29-78.39 34.29-32.71 12.36-77.5 8.21-77.5 8.21 0.99 0.03 2.03 0.03 3.11 0 22.42-0.49 61.81-12.02 71.56-15.69l0.15-0.06c0.5-0.17 49.77-17.75 77.04-33.66l0.86-0.5c5.25-3.11 9.21-5.9 11.78-8.32l4.19-3.93 5.07 2.71c0.02 0.01 2.46 1.31 6.81 3.26 4.51 2.03 11.83 5.1 21.04 8.19 12.85 4.32 25.92 7.57 38.87 9.64h0.02l0.64 0.1c0.81 0.14 1.63 0.26 2.46 0.38h0.02l0.57 0.08c9.88 1.42 19.71 2.14 29.19 2.14 5.48 0 10.95-0.24 16.26-0.72h0.07l0.25-0.04 0.25-0.03c8.25-0.75 16.31-2.09 24-3.97 1.9-1.33 6.04-4.27 11.58-8.4 3.54-2.63 7.32-5.51 11.22-8.57 5.28-4.13 10.36-8.25 15.11-12.24l0.34-0.29c12.284-10.327 22.941-20.194 31.901-29.528 12.405-12.924 19.983-29.702 21.703-47.533 1.631-16.918 3.053-39.984 2.187-64.389-0.48-13.6-3.76-26.77-9.76-39.13-20.81-42.91-30.87-71.71-29.89-85.6l7.98 0.56c-1.15 16.3 17.52 57.66 29.11 81.55 6.42 13.23 10.04 27.64 10.56 42.34 1.759 49.74-5.741 93.53-5.741 93.53z" fill="#bac7d1"/>
    <g fill="#9aa5ad">
     <path d="m239.85 360.327c-15.63-2.46-29.56-6.28-40.79-10.06l4.02-58.17s21.79 19.41 24.79 44.91c2.01 17.1 8.16 21.97 11.98 23.32z"/>
     <path d="m330.56 348.287c-7.93 5.92-12.99 9.38-12.99 9.38-8.96 2.29-17.88 3.74-26.63 4.54 5.81-0.98 3.52-10.08 6.43-21.7 3-12 12.6-24.34 12.6-24.34z"/>
     <polygon points="357.61 326.888 341.938 339.595 339.949 312.955"/>
     <path d="m177.29 341.797c-4.72-2.12-7.31-3.51-7.31-3.51-3.33 3.13-8.23 6.49-14.08 9.9h-0.01l-7.33-27.74 26.81 12.56z"/>
    </g>
    <path d="m193.529 280.831s18.204 18.204 22.487 36.407c0 0 5.354 54.611-1.071 76.026l16.062 4.283-7.496 19.274h-38.549s-2.142-44.973 5.354-53.54c0 0-32.124-21.416-41.761-42.832l9.637-24.628z" fill="#c9d0d6"/>
    <path d="m339.949 312.955s26.77 36.407 26.77 78.168l22.487 7.496-7.496 18.204h-43.903l-1.071-20.345s-10.708-31.053-29.982-41.761c0 0-4.283-19.274 3.212-38.549z" fill="#c9d0d6"/>
    <g fill="#9aa5ad">
     <polygon points="199.37 396.007 216.925 383.139 214.945 393.264"/>
     <polygon points="354.37 395.007 366.299 381.97 366.719 391.123"/>
     <path d="m417.6 36.217-35.563 7.957s9.84-7.347 36.753-11.507z"/>
    </g>
    <path d="m377.037 16.507s4.456 1.779 6.821 6.576l-2.004 1.982s-5.334-1.544-8.434-3.396c0 1e-3 0.824-4.779 3.617-5.162z" fill="#4d4d4d"/>
   </g>
   <rect x="-251.76941" y="776.6709" width="20.04583" height="19.209473" fill-opacity="0" stroke="#4eac18" stroke-linecap="round" stroke-opacity=".94117647" stroke-width=".64003813"/>
   <g transform="matrix(.03936827 0 0 .03940243 -250.78696 777.22732)">
    <path d="m167.091 200.105-18.897 21.567 8.605 55.532s-36.415 6.069-53.819 24.908c0 0 9.726 25.416 1.914 48.324l39.105 21.406 0.451-16.3-18.946-10.371 4.691-38.799s60.443-6.781 72.007-14.951c0 0 4.041-46.246-4.623-62.808-8.662-16.561-30.488-28.508-30.488-28.508z" fill="#729da0"/>
    <polygon points="208.729 365.865 213.396 355.069 232.063 365.865" fill="#729da0"/>
    <path d="m459.278 147.72s-50.8-42.507-133.74-33.176c0 0-21.772 44.58-49.764 61.168 0 0-49.764-7.257-82.94-2.073 0 0-52.874 18.94-94.344 73.609 0 0-22.808 30.066-98.491 44.58 0 0 97.454 0 128.556-10.367l55.984-25.919s71.535-4.147 93.307-23.845c0 0 41.47-67.388 73.609-70.499l13.478 13.478s37.323-9.331 70.499-3.11l5.184-11.404 11.404 3.11z" fill="#91bec4"/>
    <path d="m435.504 133.064s-3.178-18.519-13.549-27.85c0 0-43.74-18.468-69.104-17.758-1.545 0.043-2.857 1.127-3.233 2.627-0.647 2.578-1.162 6.675 0.801 9.947 3.11 5.184 20.93 4.615 23.943 14.748" fill="#dd8d6b"/>
    <polygon points="365.971 159.125 380.729 157.865 438.145 165.599 440.617 160.161 375.302 150.831" fill="#729da0"/>
    <path d="m372.456 136.346s8.585 4.307 18.911 1.474l0.304-5.636s-9.401-5.934-16.292-8.115c1e-3 0-6.061 7.586-2.923 12.277z" fill="#4d4d4d"/>
    <g fill="#729da0">
     <path d="m152.401 235.844s8.799 17.279 0.563 34.317l19.016-8.804z"/>
     <polygon points="223.314 250.957 208.794 227.967 236.054 248.494"/>
     <path d="m263.786 223.177s-4.241 14.601-9.982 20.644l16.255-6.738z"/>
     <polygon points="284.12 222.153 286.142 195.411 297.481 203.932"/>
    </g>
    <path d="m158.622 207.852-6.22 27.992 34.213 44.58s-29.029 22.808-35.249 47.69c0 0 20.735 17.625 24.882 41.47h44.58l-7.431-14.514h-21.598l-14.514-36.286s49.764-34.97 55.984-47.69c0 0-18.661-42.507-34.213-52.874-15.552-10.368-40.434-10.368-40.434-10.368z" fill="#91bec4"/>
    <path d="m320.353 271.088c-5.18 12.72-26.95 19.7-26.95 19.7l9.33-13.47-5.19-14.52-26.95 13.48c-11.41-18.66-6.22-59.1-6.22-59.1l21.77-21.77c18.45 28.71-3.65 57.42-4.14 58.05l23.84-13.47c6.22 8.3 14.51 31.1 14.51 31.1z" fill="#91bec4"/>
    <path d="m320.353 271.088c-5.18 12.72-26.95 19.7-26.95 19.7l9.33-13.47z" fill="#729da0"/>
   </g>
   <rect x="-298.54172" y="776.6709" width="20.04583" height="19.209473" fill-opacity="0" stroke="#4eac18" stroke-linecap="round" stroke-opacity=".94117647" stroke-width=".64003813"/>
   <g transform="matrix(.03819612 0 0 .03925286 -297.53912 777.0058)">
    <g fill="#967d5f">
     <path d="m207.566 162.864s-1-38-29-56c0 0 20 40 14.5 62.5z"/>
     <path d="m176.859 173.464s-12.421-35.927-44.547-44.638c0 0 31.139 32.1 32.685 55.21z"/>
     <path d="m150.937 195.627s-20.887-31.76-54.17-32.29c0 0 38.086 23.441 45.277 45.459z"/>
     <path d="m128.748 221.471s-29.101-24.456-61.144-15.441c0 0 43.2 11.564 56.391 30.604z"/>
     <path d="m115.658 267.244s-19.003-32.922-52.199-35.388c0 0 36.657 25.618 42.554 48.017z"/>
     <path d="m25.033 314.557s-25.46-17.928-25.028-45.192c0 0 18.201 31.793 36.041 38.254z"/>
     <path d="m28.414 305.004s-9.562-29.635 7.178-51.159c0 0-4.575 36.348 5.795 52.237z"/>
     <path d="m74.478 288.038s-24.786-18.849-23.355-46.079c0 0 17.024 32.439 34.615 39.549z"/>
     <path d="m227.082 170.559s-5.584-14.032-6.252-33.587c0 0 5.141-20.095 16.368-36.825 0 0 13.489 19.047 16.368 36.825 0 0-0.488 17.395-6.252 33.587z"/>
     <path d="m381.083 218.185s-5.043-3.824-8.394-10.721c0 0-0.43-8.374 2.803-16.877 0 0 9.901 3.887 14.122 9.657 0 0 2.421 6.374 1.929 13.479z"/>
     <path d="m403.164 208.179s-3.6-4.032-5.279-10.362c0 0 1.012-7.089 5.116-13.687 0 0 7.662 4.881 10.254 10.409 0 0 0.985 5.74-0.592 11.614z"/>
     <path d="m424.835 202.825s-2.26-3.674-2.687-8.882c0 0 1.793-5.426 5.945-10.03 0 0 5.331 4.912 6.589 9.62 0 0-0.035 4.647-2.1 9.039z"/>
     <path d="m256.328 180.589s0.887-12.417 7.403-27.171c0 0 11.022-13.072 25.354-21.464 0 0 3.182 18.974-1.056 33.202 0 0-6.6 12.736-16.684 22.687z"/>
     <path d="m286.484 203.944s3.316-12.539 12.848-26.379c0 0 13.818-11.244 30.117-17.055 0 0-0.422 20.04-7.52 33.784 0 0-9.226 11.758-21.479 19.989z"/>
     <path d="m325.099 230.578s0.737-11.586 6.705-25.393c0 0 10.183-12.271 23.486-20.201 0 0 3.106 17.671-0.742 30.97 0 0-6.061 11.925-15.393 21.279z"/>
    </g>
    <path d="m472.316 224.344s-14.53 12.29-31.77 24.28c-11.81 8.2-26.2 11.92-40.49 10.3-3.33-0.38-6.47-0.49-8.79-0.07 0 0-48.77 21.02-87.79 50.28 0 0-63.04 24.76-149.33 11.26 0 0-67.54-19.51-86.3-18.01s-66.03 28.51-66.03 28.51l2.1-2.57 27.91-34.2s25.52-17.26 60.79-27.01c0 0 21.01-55.53 39.77-78.04 0 0 45.77-31.52 105.05-39.02 0 0 45.03 17.26 78.04 60.78l27.77 16.51s29.26-8.26 57.03-27.02c0 0 18.76-7.5 44.27-6l23.26 9.76 1.38 6.19-13.92 4.64c-2.1 0.7-3.23 2.97-2.53 5.06 0.55 1.68 2.11 2.74 3.78 2.74 0.42 0 0.85-0.07 1.27-0.21l13.15-4.38z" fill="#79b585"/>
    <path d="m472.316 224.344s-20.19 17.08-41.21 30.6c-7.31 4.71-16.14 6.53-24.68 4.95-5.38-0.99-11.37-1.73-15.16-1.04 0 0-48.77 21.02-87.79 50.28 0 0-2.53 0.99-7.27 2.47-6.67 2.09-17.71 5.13-32.23 7.73-18.89 3.39-43.68 6.02-72.41 4.78-9.86-0.43-20.18-1.3-30.88-2.77-2.16-0.29-4.34-0.61-6.54-0.95 0 0-67.54-19.51-86.3-18.01s-66.03 28.51-66.03 28.51c0.61-0.82 1.31-1.68 2.1-2.57 16.54-18.86 71.11-53.91 143.47-47.7 11.08 0.95 22.1 1.74 33.04 2.28h0.05c63.95 3.16 125.02-1.97 176.28-30.8 39.15-22.02 75.49-31.15 96.04-34.84-0.32 0.84-0.37 1.79-0.06 2.71 0.55 1.68 2.11 2.74 3.78 2.74 0.42 0 0.85-0.07 1.27-0.21l13.15-4.38z" fill="#dbd6a9"/>
    <g fill="#c9c39b">
     <path d="m193.066 299.364-1.49 24.74-0.01 0.01c-9.86-0.43-20.18-1.3-30.88-2.77l8.38-36.98 11.36-1.46 0.04-0.01 0.01 0.01z"/>
     <path d="m299.566 295.364-3.36 16.24c-6.67 2.09-17.71 5.13-32.23 7.73 7.4-15.02-1.63-38.35-1.63-38.35z"/>
     <path d="m312.366 278.739s5.939 13.004 13.82 14.814l-13.62 9.81z"/>
    </g>
    <polygon points="187.161 295.628 172.153 267.112 131.632 267.863 121.126 301.631 139.136 331.647 142.888 372.168 192.414 372.168 194.566 356.864 178.156 351.908 175.325 323.012" fill="#79b585"/>
    <polygon points="308.726 267.112 255.566 269.114 281.566 314.614 276.144 345.187 284.713 355.66 284.713 372.168 334.239 372.168 335.74 360.912 319.231 355.66 324.066 316.114" fill="#79b585"/>
    <polygon points="433.171 212.671 428.18 208.854 430.235 203.864 447.557 205.331 446.676 210.029" fill="#666"/>
    <polygon points="177.21 342.251 178.156 351.908 162.066 349.364" fill="#8ebc97"/>
    <polygon points="320.371 346.34 319.231 355.66 304.066 352.364" fill="#8ebc97"/>
    <g fill="#6ca375">
     <circle cx="151.56599" cy="197.36301" r="9.5"/>
     <circle cx="133.56599" cy="217.86301" r="6"/>
     <circle cx="157.06599" cy="217.36301" r="6"/>
     <circle cx="291.60699" cy="202.55299" r="6"/>
     <circle cx="407.439" cy="220.05299" r="6"/>
     <circle cx="215.60699" cy="264.55301" r="6"/>
     <circle cx="271.336" cy="185.82401" r="6.77"/>
     <circle cx="270.16599" cy="206.758" r="8.6000004"/>
     <circle cx="287.06601" cy="217.36301" r="3.75"/>
     <circle cx="414.06601" cy="207.36301" r="3.75"/>
     <circle cx="310.81601" cy="217.36301" r="3.75"/>
     <circle cx="200.06599" cy="271.61401" r="3.75"/>
    </g>
   </g>
   <g fill-opacity="0" stroke="#4eac18" stroke-linecap="round" stroke-opacity=".94117647" stroke-width=".64003813">
    <rect x="-298.54172" y="799.29144" width="20.04583" height="19.209473"/>
    <rect x="-204.9971" y="799.29144" width="20.04583" height="19.209473"/>
    <rect x="-228.38326" y="799.29144" width="20.04583" height="19.209473"/>
   </g>
   <g transform="matrix(.0426507 0 0 .04268772 -226.25277 800.99692)">
    <path d="m214.386 184.472-1.132 53.667 31.912-11.586 8.25 19.578 3.92-29.511-26.997 1.073c7.396-11.99 1.524-27.736-11.917-31.955z" fill="#99e28f"/>
    <path d="m159.118 192.656 45.167 6.686 36.278 68.899c1.479 2.808 1.605 6.136 0.344 9.048l-21.418 49.474c-2.851 6.587 1.685 14.01 8.847 14.477 4.742 0.309 9.035 2.915 11.497 6.98l5.023 8.291-40.025 6.703-15.224-35.75 6.55-45.144-45.601-24.751c1e-3 0-7.585-29.822 8.562-64.913z" fill="#93ce89"/>
    <path d="m364.22 154.553-17.96-6.28-20.44 28.11c-38.33-1.28-81.77-24.28-81.77-24.28-0.73 1.5-1.41 3.02-2.05 4.55-17.33 41.38-3.06 91.28-3.06 91.28-7.67 23-34.5 53.66-34.5 53.66-74.11 26.84-204.44 19.17-204.44 19.17s0.01 0 0.03-0.01c58.77-24.3 111.14-118.82 111.14-118.82 43.44-123.94 97.1-198.04 97.1-198.04 106.05 20.44 159.72 60.05 159.72 60.05 6.38 48.55-3.77 90.61-3.77 90.61z" fill="#99e28f"/>
    <path d="m238.94 247.933c-7.67 23-34.5 53.66-34.5 53.66-74.11 26.84-204.44 19.17-204.44 19.17s0.01 0 0.03-0.01c2.58-0.9 167.74-58.79 178.33-67.38 27.34-23.82 35.59-105.17 35.59-105.17l28.05 8.45c-17.33 41.38-3.06 91.28-3.06 91.28z" fill="#72ba81"/>
    <path d="m139.275 190.436s-22.085 15.267-27.585 66.767l21.324 15.351 12.136-4.671z" fill="#72ba81"/>
    <path d="m139.275 190.436 43.442 14.055 24.4 73.945c0.995 3.014 0.57 6.316-1.155 8.981l-29.295 45.257c-3.9 6.025-0.652 14.096 6.334 15.74 4.626 1.089 8.429 4.368 10.186 8.783l3.584 9.006h-40.581l-9.11-37.774 13.916-43.442-40.887-31.943s-2.555-30.665 19.166-62.608z" fill="#99e28f"/>
    <path d="m346.265 148.272-88.162-40.887-16.61 10.222 18.198-3.403s56.925 22.946 80.463 42.473z" fill="#72ba81"/>
    <path d="m244.048 152.105-35.776-20.443-3.833-63.886-1.748 74.427s22.04 12.235 37.77 18.367z" fill="#72ba81"/>
    <path d="m189.349 174.776 28.199 45.676 20.501-27.061 17.561 11.957-12.737-26.907-22.085 15.565c-0.302-14.084-13.786-24.116-27.363-20.358z" fill="#99e28f"/>
    <path d="m261.19 40.703s9.5 0.5 17 8l-2.5 5s-11 0.5-18-1c0 0-1.5-9.5 3.5-12z" fill="#4d4d4d"/>
    <g fill="#fff">
     <path d="m323.65 137.783c-0.31 0.99-0.72 2.03-1.19 3.06-2.64 5.85-7.27 11.86-7.27 11.86-3.39-5.42-2.97-12.51-2.35-16.51 0.3-1.91 0.64-3.12 0.64-3.12z"/>
     <path d="m309.43 131.193-1.86 2.45-5.38 7.06c-0.96-1.93-0.96-6.81-0.83-10.06 0.07-1.81 0.18-3.11 0.18-3.11z"/>
     <path d="m339.43 144.693-2.43 3.19-4.81 6.32c-0.87-1.74-0.95-5.89-0.86-9.07 0.06-2.31 0.21-4.1 0.21-4.1z"/>
    </g>
    <g fill="#ccc">
     <path d="m301.54 127.533 7.89 3.66-1.86 2.45-6.21-3c0.07-1.81 0.18-3.11 0.18-3.11z"/>
     <path d="m313.48 133.073 10.17 4.71c-0.31 0.99-0.72 2.03-1.19 3.06l-9.62-4.65c0.3-1.91 0.64-3.12 0.64-3.12z"/>
     <path d="m339.43 144.693-2.43 3.19-5.67-2.75c0.06-2.31 0.21-4.1 0.21-4.1z"/>
    </g>
    <g fill="#72ba81">
     <circle cx="221.69" cy="39.702999" r="9"/>
     <circle cx="208.69" cy="24.035999" r="5"/>
     <circle cx="235.85699" cy="51.869999" r="2.5"/>
     <circle cx="183.85699" cy="65.703003" r="2.5"/>
     <circle cx="201.69" cy="43.369999" r="2.5"/>
     <circle cx="207.35699" cy="55.535999" r="4.5960002"/>
     <polygon points="204.285 199.342 189.349 174.776 201.047 211.488"/>
    </g>
   </g>
   <g fill-opacity="0" stroke="#4eac18" stroke-linecap="round" stroke-opacity=".94117647" stroke-width=".64003813">
    <rect x="-275.15555" y="776.6709" width="20.04583" height="19.209473"/>
    <rect x="-228.38326" y="776.6709" width="20.04583" height="19.209473"/>
    <rect x="-204.9971" y="776.6709" width="20.04583" height="19.209473"/>
   </g>
   <rect x="-224.62883" y="835.60754" width="44.77713" height="18.080629" ry="4.6163015" fill="#fff" stroke="#58b125" stroke-linecap="round" stroke-width=".85814685"/>
   <g fill="#424242" stroke-width=".26458332" style="font-feature-settings:normal;font-variant-caps:normal;font-variant-ligatures:normal;font-variant-numeric:normal" aria-label="Sofía">
    <path d="m-212.44635 837.14186q1.757 0.26699 1.757 1.03353 0 0.35312-0.55122 0.51676l-0.96463-0.31006h-0.17225q-0.71486 0-1.20578 0.93018-0.34451 0.93017-0.34451 2.13596 0 1.3522 1.55029 2.20486 1.10243 0.93018 1.44694 1.51584l0.68902 1.92926 0.0344 0.55121v0.0689q0 1.8259-0.93018 2.75608-0.81821 1.13688-1.757 1.13688h-0.17225q-1.11104 0-2.41157-1.13688-0.51676-0.72347-0.51676-1.55029 0.0947-0.93018 0.44786-0.93018 0.42202 0 0.51676 1.30914 0.24977 0.59428 0.93018 0.86127 0.56844 0.20671 0.86127 0.20671h0.20671q0.68902 0 1.58474-1.58475l0.17226-0.62012q0-1.39526-0.93018-2.92833l-1.79145-1.48139q-0.6115-0.64595-0.89572-1.55029v-0.0344q-0.43064-2.32544 0.79237-4.23747 0.50815-0.79237 1.65365-0.79237z" style="font-feature-settings:normal;font-variant-caps:normal;font-variant-ligatures:normal;font-variant-numeric:normal"/>
    <path d="m-206.20212 840.50944q1.44694 0.28422 1.44694 0.96463 1.50723 2.24792 0.41341 7.40695-0.68902 1.80006-1.24023 2.30822-0.76653 0.96462-1.51584 0.96462-1.16272 0-1.79145-1.51584l-0.58567-2.89388v-0.51676q0-1.73978 0.58567-4.23747 0.0947-0.13781 0.17225-0.62012 0.8096-1.79145 1.5503-1.79145zm-0.65457 1.27469h-0.0689q-0.4048 0-0.55121 0.65456-0.72347 1.32637-0.72347 2.75608-0.10336 0.25838-0.10336 0.89572v1.17134q0 1.52445 0.55122 3.13503 0.25838 0.51677 0.51676 0.51677 0.41342 0 1.17134-0.99908 0.22393 0 0.72347-1.06798 0.2067-0.74931 0.41341-2.85943 0-2.07567-0.55122-3.34174-0.27561-0.74931-0.44786-0.89573z" style="font-feature-settings:normal;font-variant-caps:normal;font-variant-ligatures:normal;font-variant-numeric:normal"/>
    <path d="m-198.80378 837.17631h0.0345q1.34358 0 1.34358 0.89572v0.0689q0 0.55121-0.44786 0.55121-0.22393 0-0.72347-0.31006l-0.31006-0.0689q-1.11965 0-1.51584 1.44694-0.37896 1.12827-0.37896 1.51584 0.0775 0.17226 0.34451 0.17226 0.5426 0 0.99908-0.17226 0.37034 0.15503 0.62011 0.58567-0.15503 0.65457-0.65456 0.65457-1.4814 0.0947-1.4814 0.31006v0.2067q0 0.61151 0.20671 2.34267l0.17226 5.6155q0 0.32729-0.58567 0.58567-0.65457 0-0.65457-0.86127l0.0689-2.72163q0-3.50538-0.34451-4.85758l0.0345-0.0345v-0.0344q-0.0345-0.2756-0.31005-0.2756h-0.10336l-0.55121 0.10335q-0.50815 0-0.55122-0.58567 0.24977-0.72347 0.72347-0.72347 0.96463 0 0.96463-0.41341l0.24116-0.86127 0.34451-1.20579q0.93017-1.92925 2.51491-1.92925z" style="font-feature-settings:normal;font-variant-caps:normal;font-variant-ligatures:normal;font-variant-numeric:normal"/>
    <path d="m-197.02955 841.81858h1.58474v9.64626h-1.58474zm1.98954-4.4614h1.71394l-2.80776 3.23839h-1.31775z" style="font-feature-settings:normal;font-variant-caps:normal;font-variant-ligatures:normal;font-variant-numeric:normal"/>
    <path d="m-190.89728 838.7266q0.71486 0.24977 1.24023 0.99908 0.48232 0.88711 0.80099 2.26515 0.32728 1.37804 0.37035 4.00492-0.0258 3.1092-0.1981 3.514 0 1.99816-0.58566 1.99816 0 0.0861-2.69579 0.10335-0.77515 0-1.27469-1.27469-0.1378-0.56844-0.1378-0.99907v-0.17226q0-1.19717 0.99908-2.48047 0.60289-0.68902 1.55029-0.68902l0.75792 0.0345h0.37896l0.0344-0.37897 0.0344-1.72254q0-1.44694-0.93017-3.5829-0.25838-0.31006-0.51677-0.31006h-0.1378q-0.10335 0-0.82682 0.48231h-0.0689q-0.55122-0.25838-0.55122-0.58566v-0.13781q0.90434-1.06798 1.757-1.06798zm-1.30914 10.26639v0.27561q0 0.76653 0.37896 1.06797h0.0689q1.76562-0.0775 1.80007-0.0861 0.31006-1.54168 0.0258-2.5666-0.27561-0.48231-0.89573-0.48231-0.62873 0-1.30914 1.20578z" style="font-feature-settings:normal;font-variant-caps:normal;font-variant-ligatures:normal;font-variant-numeric:normal"/>
   </g>
  </g>
 </g>
</svg>
