<?xml version="1.0" encoding="UTF-8"?>
<!-- Created with Inkscape (http://www.inkscape.org/) -->
<svg width="511.99997" height="512.00342" version="1.1" viewBox="0 0 135.46666 135.46757" xmlns="http://www.w3.org/2000/svg" xmlns:cc="http://creativecommons.org/ns#" xmlns:dc="http://purl.org/dc/elements/1.1/" xmlns:rdf="http://www.w3.org/1999/02/22-rdf-syntax-ns#">
 <metadata>
  <rdf:RDF>
   <cc:Work rdf:about="">
    <dc:format>image/svg+xml</dc:format>
    <dc:type rdf:resource="http://purl.org/dc/dcmitype/StillImage"/>
    <dc:title/>
   </cc:Work>
  </rdf:RDF>
 </metadata>
 <g transform="translate(0,-153.93362)">
  <path d="m36.830701 219.40149c0 0.58422 0.474404 1.05774 1.059703 1.05774 0.292704 0 0.557578-0.1184 0.749363-0.30983 0.191786-0.19143 0.310449-0.45585 0.310308-0.74796v-19.29698h-2.119424c5e-5 8.3258 5e-5 18.82452 5e-5 19.29703z" fill="#ffb578" stroke-width=".06851503"/>
  <circle transform="matrix(.70776727 -.70644567 .70776727 .70644567 0 0)" cx="-106.79598" cy="160.3311" r="12.299074" fill="#b2ff59" stroke-width=".06851508"/>
  <g transform="matrix(.04849273 -.04840218 .04849273 .04840218 13.06213 196.11544)" fill="#64dd17">
   <path d="m442.029 37.299c-8.009 9.104-7.69 22.974 1.004 31.668 60.953 60.953 60.953 160.131 0 221.084-52.652 52.652-133.823 59.817-194.243 21.508-8.324-5.278-9.536-16.96-2.567-23.929l83.75-83.75c5.883-5.883 6.425-15.468 0.825-21.622-5.979-6.57-16.159-6.751-22.368-0.541l-113.308 113.308c34.463 40.936 84.544 63.993 137.37 63.993 99.141 0 179.509-80.369 179.509-179.509-1e-3 -57.898-27.419-109.385-69.972-142.21z"/>
   <path d="m249.83 103.451c2.05 0 3.977-0.793 5.429-2.235 1.473-1.442 2.287-3.379 2.297-5.439 0.021-2.071-0.773-4.018-2.225-5.481-1.463-1.483-3.41-2.297-5.501-2.297-2.04 0-3.966 0.783-5.419 2.225-1.473 1.442-2.287 3.379-2.308 5.45-0.01 2.06 0.783 4.007 2.225 5.47 1.474 1.483 3.421 2.297 5.502 2.307z"/>
   <path d="m274.389 84.825c1.329 0 2.658-0.35 3.822-1.02 16.39-9.333 35.17-14.268 54.28-14.268 29.37 0.01 56.99 11.456 77.758 32.214 7.098 7.088 13.176 15.082 18.059 23.756l0.01 0.021c0.021 0.031 0.031 0.072 0.051 0.103 0.01 0 0.01 0.01 0.01 0.01 4.708 8.386 8.293 17.379 10.652 26.723 0.876 3.441 3.946 5.841 7.489 5.841 0.639 0 1.277-0.082 1.896-0.237 4.131-1.051 6.645-5.254 5.594-9.385-2.699-10.683-6.789-20.944-12.156-30.514-5.594-9.952-12.548-19.12-20.676-27.248-11.765-11.775-25.435-20.933-40.641-27.238-15.216-6.305-31.359-9.498-47.996-9.498h-0.062c-10.93 0-21.768 1.401-32.214 4.162-10.395 2.74-20.387 6.82-29.71 12.136-3.698 2.102-4.996 6.83-2.884 10.539 1.372 2.399 3.947 3.903 6.718 3.903z"/>
   <path d="m303.925 285.762c-18.481-4.945-35.49-14.793-49.191-28.495-20.727-20.727-32.152-48.346-32.162-77.758 0-9.797 1.298-19.543 3.853-28.969l0.021-0.062v-0.01c2.534-9.303 6.274-18.234 11.126-26.527 2.153-3.678 0.917-8.417-2.761-10.57-1.185-0.69-2.534-1.061-3.894-1.061-2.74 0-5.295 1.463-6.676 3.822-5.542 9.478-9.818 19.666-12.712 30.298-0.01 0.031-0.01 0.062-0.021 0.093-2.915 10.734-4.389 21.83-4.389 32.986 0 16.287 3.08 32.173 9.179 47.213 6.305 15.576 15.556 29.525 27.506 41.475 7.829 7.829 16.607 14.577 26.094 20.058 9.426 5.45 19.532 9.632 30.04 12.434 0.659 0.175 1.329 0.258 1.999 0.258 3.492 0 6.562-2.349 7.458-5.728 0.536-1.999 0.258-4.079-0.773-5.862-1.03-1.792-2.699-3.069-4.697-3.595z"/>
   <path d="m447.81 204.141c-0.69-0.196-1.391-0.288-2.102-0.288-3.441 0-6.5 2.318-7.428 5.635-5.068 17.987-14.762 34.511-28.031 47.78-20.768 20.758-48.388 32.203-77.758 32.214-4.265 0-7.726 3.461-7.726 7.726s3.461 7.726 7.726 7.726h0.051c16.637 0 32.791-3.194 47.996-9.498 15.206-6.305 28.876-15.473 40.641-27.238 7.685-7.685 14.33-16.318 19.759-25.652 5.264-9.055 9.375-18.77 12.218-28.876 0.556-1.988 0.309-4.069-0.701-5.872-1.009-1.803-2.657-3.101-4.645-3.657z"/>
   <path d="m455.66 175.687c-1.442-1.473-3.369-2.308-5.439-2.328-0.031 0-0.062-0.01-0.103-0.01-4.203 0-7.665 3.43-7.716 7.634-0.062 4.255 3.358 7.768 7.623 7.819h0.103c4.203 0 7.665-3.42 7.726-7.623 0.021-2.061-0.752-4.008-2.194-5.492z"/>
   <path d="m365.509 214.577c-9.199 8.654-20.305 13.063-33.017 13.094-4.265 0-7.726 3.461-7.726 7.726s3.461 7.726 7.726 7.726h0.144c8.159 0 16.05-1.494 23.457-4.45 7.407-2.946 14.144-7.273 20.027-12.867 3.101-2.936 3.235-7.829 0.309-10.92-1.473-1.566-3.472-2.421-5.614-2.421-1.989 0-3.874 0.752-5.306 2.112z"/>
   <path d="m388.43 186.525c-0.649-0.175-1.319-0.258-1.988-0.258-3.492 0-6.562 2.359-7.469 5.738-1.092 4.11 1.36 8.355 5.481 9.457 0.649 0.175 1.329 0.258 1.999 0.258 3.492 0 6.552-2.359 7.458-5.738 0.525-1.999 0.258-4.08-0.783-5.862-1.03-1.782-2.699-3.059-4.698-3.595z"/>
   <path d="m307.231 220.583c-3.121-1.947-6.078-4.306-8.798-7.016-9.066-9.076-14.072-21.139-14.083-33.944 0.01-12.96 5.017-25.095 14.083-34.171 9.375-9.313 20.841-14.062 34.058-14.103 12.218 0.031 22.983 4.121 31.987 12.156 0.69 0.618 1.391 1.267 2.071 1.947 5.717 5.728 9.787 12.537 12.084 20.233 0.968 3.255 4.007 5.522 7.397 5.522 0.742 0 1.494-0.103 2.205-0.319 4.09-1.216 6.418-5.532 5.202-9.612-2.988-10.044-8.509-19.295-15.957-26.743-0.886-0.886-1.782-1.741-2.678-2.534-5.79-5.213-12.362-9.241-19.532-11.981-7.17-2.73-14.783-4.121-22.643-4.121h-0.299c-8.468 0-16.637 1.617-24.281 4.79-7.654 3.183-14.556 7.84-20.531 13.846-6.078 6.068-10.776 13.166-13.969 21.098-3.091 7.644-4.646 15.71-4.636 23.993-0.01 8.231 1.566 16.267 4.667 23.89 3.194 7.871 7.881 14.927 13.938 20.974 3.534 3.544 7.417 6.634 11.528 9.21 1.236 0.762 2.648 1.174 4.09 1.174 2.689 0 5.141-1.36 6.562-3.637 1.092-1.751 1.432-3.822 0.968-5.831-0.466-2.019-1.681-3.719-3.433-4.821z"/>
  </g>
  <path d="m62.59228 219.40149c0 0.58422 0.474404 1.05774 1.059704 1.05774 0.292703 0 0.557577-0.1184 0.749362-0.30983 0.191786-0.19143 0.310449-0.45585 0.310308-0.74796v-19.29698h-2.119424c5e-5 8.3258 5e-5 18.82452 5e-5 19.29703z" fill="#ffb578" stroke-width=".06851503"/>
  <circle transform="matrix(.70776727 -.70644567 .70776727 .70644567 0 0)" cx="-88.596802" cy="178.53029" r="12.299074" fill="#b2ff59" stroke-width=".06851508"/>
  <g transform="matrix(.04849273 -.04840218 .04849273 .04840218 38.823709 196.11544)" fill="#64dd17">
   <path d="m442.029 37.299c-8.009 9.104-7.69 22.974 1.004 31.668 60.953 60.953 60.953 160.131 0 221.084-52.652 52.652-133.823 59.817-194.243 21.508-8.324-5.278-9.536-16.96-2.567-23.929l83.75-83.75c5.883-5.883 6.425-15.468 0.825-21.622-5.979-6.57-16.159-6.751-22.368-0.541l-113.308 113.308c34.463 40.936 84.544 63.993 137.37 63.993 99.141 0 179.509-80.369 179.509-179.509-1e-3 -57.898-27.419-109.385-69.972-142.21z"/>
   <path d="m249.83 103.451c2.05 0 3.977-0.793 5.429-2.235 1.473-1.442 2.287-3.379 2.297-5.439 0.021-2.071-0.773-4.018-2.225-5.481-1.463-1.483-3.41-2.297-5.501-2.297-2.04 0-3.966 0.783-5.419 2.225-1.473 1.442-2.287 3.379-2.308 5.45-0.01 2.06 0.783 4.007 2.225 5.47 1.474 1.483 3.421 2.297 5.502 2.307z"/>
   <path d="m274.389 84.825c1.329 0 2.658-0.35 3.822-1.02 16.39-9.333 35.17-14.268 54.28-14.268 29.37 0.01 56.99 11.456 77.758 32.214 7.098 7.088 13.176 15.082 18.059 23.756l0.01 0.021c0.021 0.031 0.031 0.072 0.051 0.103 0.01 0 0.01 0.01 0.01 0.01 4.708 8.386 8.293 17.379 10.652 26.723 0.876 3.441 3.946 5.841 7.489 5.841 0.639 0 1.277-0.082 1.896-0.237 4.131-1.051 6.645-5.254 5.594-9.385-2.699-10.683-6.789-20.944-12.156-30.514-5.594-9.952-12.548-19.12-20.676-27.248-11.765-11.775-25.435-20.933-40.641-27.238-15.216-6.305-31.359-9.498-47.996-9.498h-0.062c-10.93 0-21.768 1.401-32.214 4.162-10.395 2.74-20.387 6.82-29.71 12.136-3.698 2.102-4.996 6.83-2.884 10.539 1.372 2.399 3.947 3.903 6.718 3.903z"/>
   <path d="m303.925 285.762c-18.481-4.945-35.49-14.793-49.191-28.495-20.727-20.727-32.152-48.346-32.162-77.758 0-9.797 1.298-19.543 3.853-28.969l0.021-0.062v-0.01c2.534-9.303 6.274-18.234 11.126-26.527 2.153-3.678 0.917-8.417-2.761-10.57-1.185-0.69-2.534-1.061-3.894-1.061-2.74 0-5.295 1.463-6.676 3.822-5.542 9.478-9.818 19.666-12.712 30.298-0.01 0.031-0.01 0.062-0.021 0.093-2.915 10.734-4.389 21.83-4.389 32.986 0 16.287 3.08 32.173 9.179 47.213 6.305 15.576 15.556 29.525 27.506 41.475 7.829 7.829 16.607 14.577 26.094 20.058 9.426 5.45 19.532 9.632 30.04 12.434 0.659 0.175 1.329 0.258 1.999 0.258 3.492 0 6.562-2.349 7.458-5.728 0.536-1.999 0.258-4.079-0.773-5.862-1.03-1.792-2.699-3.069-4.697-3.595z"/>
   <path d="m447.81 204.141c-0.69-0.196-1.391-0.288-2.102-0.288-3.441 0-6.5 2.318-7.428 5.635-5.068 17.987-14.762 34.511-28.031 47.78-20.768 20.758-48.388 32.203-77.758 32.214-4.265 0-7.726 3.461-7.726 7.726s3.461 7.726 7.726 7.726h0.051c16.637 0 32.791-3.194 47.996-9.498 15.206-6.305 28.876-15.473 40.641-27.238 7.685-7.685 14.33-16.318 19.759-25.652 5.264-9.055 9.375-18.77 12.218-28.876 0.556-1.988 0.309-4.069-0.701-5.872-1.009-1.803-2.657-3.101-4.645-3.657z"/>
   <path d="m455.66 175.687c-1.442-1.473-3.369-2.308-5.439-2.328-0.031 0-0.062-0.01-0.103-0.01-4.203 0-7.665 3.43-7.716 7.634-0.062 4.255 3.358 7.768 7.623 7.819h0.103c4.203 0 7.665-3.42 7.726-7.623 0.021-2.061-0.752-4.008-2.194-5.492z"/>
   <path d="m365.509 214.577c-9.199 8.654-20.305 13.063-33.017 13.094-4.265 0-7.726 3.461-7.726 7.726s3.461 7.726 7.726 7.726h0.144c8.159 0 16.05-1.494 23.457-4.45 7.407-2.946 14.144-7.273 20.027-12.867 3.101-2.936 3.235-7.829 0.309-10.92-1.473-1.566-3.472-2.421-5.614-2.421-1.989 0-3.874 0.752-5.306 2.112z"/>
   <path d="m388.43 186.525c-0.649-0.175-1.319-0.258-1.988-0.258-3.492 0-6.562 2.359-7.469 5.738-1.092 4.11 1.36 8.355 5.481 9.457 0.649 0.175 1.329 0.258 1.999 0.258 3.492 0 6.552-2.359 7.458-5.738 0.525-1.999 0.258-4.08-0.783-5.862-1.03-1.782-2.699-3.059-4.698-3.595z"/>
   <path d="m307.231 220.583c-3.121-1.947-6.078-4.306-8.798-7.016-9.066-9.076-14.072-21.139-14.083-33.944 0.01-12.96 5.017-25.095 14.083-34.171 9.375-9.313 20.841-14.062 34.058-14.103 12.218 0.031 22.983 4.121 31.987 12.156 0.69 0.618 1.391 1.267 2.071 1.947 5.717 5.728 9.787 12.537 12.084 20.233 0.968 3.255 4.007 5.522 7.397 5.522 0.742 0 1.494-0.103 2.205-0.319 4.09-1.216 6.418-5.532 5.202-9.612-2.988-10.044-8.509-19.295-15.957-26.743-0.886-0.886-1.782-1.741-2.678-2.534-5.79-5.213-12.362-9.241-19.532-11.981-7.17-2.73-14.783-4.121-22.643-4.121h-0.299c-8.468 0-16.637 1.617-24.281 4.79-7.654 3.183-14.556 7.84-20.531 13.846-6.078 6.068-10.776 13.166-13.969 21.098-3.091 7.644-4.646 15.71-4.636 23.993-0.01 8.231 1.566 16.267 4.667 23.89 3.194 7.871 7.881 14.927 13.938 20.974 3.534 3.544 7.417 6.634 11.528 9.21 1.236 0.762 2.648 1.174 4.09 1.174 2.689 0 5.141-1.36 6.562-3.637 1.092-1.751 1.432-3.822 0.968-5.831-0.466-2.019-1.681-3.719-3.433-4.821z"/>
  </g>
  <path d="m88.353851 219.40149c0 0.58422 0.474404 1.05774 1.059703 1.05774 0.292704 0 0.557578-0.1184 0.749363-0.30983 0.191786-0.19143 0.310449-0.45585 0.310308-0.74796v-19.29698h-2.119424c5e-5 8.3258 5e-5 18.82452 5e-5 19.29703z" fill="#ffb578" stroke-width=".06851503"/>
  <circle transform="matrix(.70776727 -.70644567 .70776727 .70644567 0 0)" cx="-70.397614" cy="196.72948" r="12.299074" fill="#b2ff59" stroke-width=".06851508"/>
  <g transform="matrix(.04849273 -.04840218 .04849273 .04840218 64.58528 196.11544)" fill="#64dd17">
   <path d="m442.029 37.299c-8.009 9.104-7.69 22.974 1.004 31.668 60.953 60.953 60.953 160.131 0 221.084-52.652 52.652-133.823 59.817-194.243 21.508-8.324-5.278-9.536-16.96-2.567-23.929l83.75-83.75c5.883-5.883 6.425-15.468 0.825-21.622-5.979-6.57-16.159-6.751-22.368-0.541l-113.308 113.308c34.463 40.936 84.544 63.993 137.37 63.993 99.141 0 179.509-80.369 179.509-179.509-1e-3 -57.898-27.419-109.385-69.972-142.21z"/>
   <path d="m249.83 103.451c2.05 0 3.977-0.793 5.429-2.235 1.473-1.442 2.287-3.379 2.297-5.439 0.021-2.071-0.773-4.018-2.225-5.481-1.463-1.483-3.41-2.297-5.501-2.297-2.04 0-3.966 0.783-5.419 2.225-1.473 1.442-2.287 3.379-2.308 5.45-0.01 2.06 0.783 4.007 2.225 5.47 1.474 1.483 3.421 2.297 5.502 2.307z"/>
   <path d="m274.389 84.825c1.329 0 2.658-0.35 3.822-1.02 16.39-9.333 35.17-14.268 54.28-14.268 29.37 0.01 56.99 11.456 77.758 32.214 7.098 7.088 13.176 15.082 18.059 23.756l0.01 0.021c0.021 0.031 0.031 0.072 0.051 0.103 0.01 0 0.01 0.01 0.01 0.01 4.708 8.386 8.293 17.379 10.652 26.723 0.876 3.441 3.946 5.841 7.489 5.841 0.639 0 1.277-0.082 1.896-0.237 4.131-1.051 6.645-5.254 5.594-9.385-2.699-10.683-6.789-20.944-12.156-30.514-5.594-9.952-12.548-19.12-20.676-27.248-11.765-11.775-25.435-20.933-40.641-27.238-15.216-6.305-31.359-9.498-47.996-9.498h-0.062c-10.93 0-21.768 1.401-32.214 4.162-10.395 2.74-20.387 6.82-29.71 12.136-3.698 2.102-4.996 6.83-2.884 10.539 1.372 2.399 3.947 3.903 6.718 3.903z"/>
   <path d="m303.925 285.762c-18.481-4.945-35.49-14.793-49.191-28.495-20.727-20.727-32.152-48.346-32.162-77.758 0-9.797 1.298-19.543 3.853-28.969l0.021-0.062v-0.01c2.534-9.303 6.274-18.234 11.126-26.527 2.153-3.678 0.917-8.417-2.761-10.57-1.185-0.69-2.534-1.061-3.894-1.061-2.74 0-5.295 1.463-6.676 3.822-5.542 9.478-9.818 19.666-12.712 30.298-0.01 0.031-0.01 0.062-0.021 0.093-2.915 10.734-4.389 21.83-4.389 32.986 0 16.287 3.08 32.173 9.179 47.213 6.305 15.576 15.556 29.525 27.506 41.475 7.829 7.829 16.607 14.577 26.094 20.058 9.426 5.45 19.532 9.632 30.04 12.434 0.659 0.175 1.329 0.258 1.999 0.258 3.492 0 6.562-2.349 7.458-5.728 0.536-1.999 0.258-4.079-0.773-5.862-1.03-1.792-2.699-3.069-4.697-3.595z"/>
   <path d="m447.81 204.141c-0.69-0.196-1.391-0.288-2.102-0.288-3.441 0-6.5 2.318-7.428 5.635-5.068 17.987-14.762 34.511-28.031 47.78-20.768 20.758-48.388 32.203-77.758 32.214-4.265 0-7.726 3.461-7.726 7.726s3.461 7.726 7.726 7.726h0.051c16.637 0 32.791-3.194 47.996-9.498 15.206-6.305 28.876-15.473 40.641-27.238 7.685-7.685 14.33-16.318 19.759-25.652 5.264-9.055 9.375-18.77 12.218-28.876 0.556-1.988 0.309-4.069-0.701-5.872-1.009-1.803-2.657-3.101-4.645-3.657z"/>
   <path d="m455.66 175.687c-1.442-1.473-3.369-2.308-5.439-2.328-0.031 0-0.062-0.01-0.103-0.01-4.203 0-7.665 3.43-7.716 7.634-0.062 4.255 3.358 7.768 7.623 7.819h0.103c4.203 0 7.665-3.42 7.726-7.623 0.021-2.061-0.752-4.008-2.194-5.492z"/>
   <path d="m365.509 214.577c-9.199 8.654-20.305 13.063-33.017 13.094-4.265 0-7.726 3.461-7.726 7.726s3.461 7.726 7.726 7.726h0.144c8.159 0 16.05-1.494 23.457-4.45 7.407-2.946 14.144-7.273 20.027-12.867 3.101-2.936 3.235-7.829 0.309-10.92-1.473-1.566-3.472-2.421-5.614-2.421-1.989 0-3.874 0.752-5.306 2.112z"/>
   <path d="m388.43 186.525c-0.649-0.175-1.319-0.258-1.988-0.258-3.492 0-6.562 2.359-7.469 5.738-1.092 4.11 1.36 8.355 5.481 9.457 0.649 0.175 1.329 0.258 1.999 0.258 3.492 0 6.552-2.359 7.458-5.738 0.525-1.999 0.258-4.08-0.783-5.862-1.03-1.782-2.699-3.059-4.698-3.595z"/>
   <path d="m307.231 220.583c-3.121-1.947-6.078-4.306-8.798-7.016-9.066-9.076-14.072-21.139-14.083-33.944 0.01-12.96 5.017-25.095 14.083-34.171 9.375-9.313 20.841-14.062 34.058-14.103 12.218 0.031 22.983 4.121 31.987 12.156 0.69 0.618 1.391 1.267 2.071 1.947 5.717 5.728 9.787 12.537 12.084 20.233 0.968 3.255 4.007 5.522 7.397 5.522 0.742 0 1.494-0.103 2.205-0.319 4.09-1.216 6.418-5.532 5.202-9.612-2.988-10.044-8.509-19.295-15.957-26.743-0.886-0.886-1.782-1.741-2.678-2.534-5.79-5.213-12.362-9.241-19.532-11.981-7.17-2.73-14.783-4.121-22.643-4.121h-0.299c-8.468 0-16.637 1.617-24.281 4.79-7.654 3.183-14.556 7.84-20.531 13.846-6.078 6.068-10.776 13.166-13.969 21.098-3.091 7.644-4.646 15.71-4.636 23.993-0.01 8.231 1.566 16.267 4.667 23.89 3.194 7.871 7.881 14.927 13.938 20.974 3.534 3.544 7.417 6.634 11.528 9.21 1.236 0.762 2.648 1.174 4.09 1.174 2.689 0 5.141-1.36 6.562-3.637 1.092-1.751 1.432-3.822 0.968-5.831-0.466-2.019-1.681-3.719-3.433-4.821z"/>
  </g>
  <rect y="153.93362" width="135.46666" height="135.46666" opacity="0" stroke-width="1.74694598"/>
  <path d="m20.285372 211.49876c-5.705395 7.30337-9.040585 16.12334-9.040585 25.62194v7.01856c0 14.89775 13.872642 26.97427 30.984925 26.97427h42.844606c17.112712 0 30.984922-12.0769 30.984922-26.97408v-7.01856c0-9.4986-3.33476-18.31857-9.04015-25.62193z" fill="#f80" stroke-width=".20214681"/>
  <g transform="matrix(.21960097 0 0 .21919091 7.4341634 175.35423)" fill="#6e421b">
   <polygon points="192 380.888 136 324.888 160 300.888 191.256 334.032 224 300.888 256 332.888 288 300.888 320 332.888 352 300.888 376 324.888 320 380.888 288 348.888 256 380.888 224 348.888"/>
   <polygon points="334.624 220.888 262.624 276.888 334.624 276.888"/>
   <polygon points="174.624 220.888 246.624 276.888 174.624 276.888"/>
  </g>
  <rect transform="matrix(.96260137 -.27092178 .24718229 .968969 0 0)" x="-6.3698034" y="274.61877" width="59.657593" height="22.976812" ry="2.9388947" fill="#29b6f6" stroke-width=".38321766"/>
  <rect transform="matrix(.96260137 -.27092178 .24718229 .968969 0 0)" x="-2.2076449" y="276.22183" width="51.333275" height="19.770746" ry="2.5288165" fill="#fff" stroke-width=".38321766"/>
  <g transform="matrix(.80170674 -.21441555 .21481667 .80020974 -128.47028 122.63863)" fill="#424242" opacity=".90899999" stroke-width=".26458335" style="font-feature-settings:normal;font-variant-caps:normal;font-variant-ligatures:normal;font-variant-numeric:normal" aria-label="Susana">
   <path d="m196.52154 233.88043q1.757 0.26699 1.757 1.03353 0 0.35312-0.55121 0.51676l-0.96463-0.31006h-0.17226q-0.71485 0-1.20578 0.93018-0.34451 0.93018-0.34451 2.13596 0 1.3522 1.55029 2.20486 1.10243 0.93018 1.44694 1.51584l0.68902 1.92926 0.0344 0.55121v0.0689q0 1.8259-0.93017 2.75608-0.81821 1.13688-1.757 1.13688h-0.17226q-1.11104 0-2.41156-1.13688-0.51677-0.72347-0.51677-1.55029 0.0947-0.93018 0.44787-0.93018 0.42202 0 0.51676 1.30914 0.24977 0.59428 0.93018 0.86127 0.56844 0.20671 0.86127 0.20671h0.20671q0.68901 0 1.58474-1.58475l0.17225-0.62011q0-1.39527-0.93017-2.92834l-1.79145-1.48139q-0.61151-0.64595-0.89573-1.55029v-0.0344q-0.43063-2.32544 0.79238-4.23747 0.50815-0.79237 1.65364-0.79237z" style="font-feature-settings:normal;font-variant-caps:normal;font-variant-ligatures:normal;font-variant-numeric:normal"/>
   <path d="m200.35421 236.40396q0.51677 0 0.51677 0.89573v2.23931q0 6.37343 0.37896 7.06245 0.25838 0.75792 0.41341 0.75792 0.29283 0 0.86127-1.41249 0.82682-1.46417 0.82682-2.68718 0.12058 0 0.34451-4.06521l-0.0345-0.65457q0.12919-1.79145 0.44787-1.79145l0.44786-0.17225q0.41341 0 0.55121 0.96462v0.17226l-0.2067 2.13596v0.2067q0 3.8499 0.48231 6.27008l0.27561 1.79145q-0.14642 0.41341-0.72347 0.41341-0.51677 0-0.65457-2.72163-0.11197-0.24115-0.17225-0.24115h-0.0689q-0.25838 0.29283-1.34358 2.37711-0.55122 0.68902-1.06798 0.68902-0.57706 0-1.20579-0.93017-0.58566-1.73116-0.75792-9.99078-0.0517 0-0.0689-0.75792 0-0.39619 0.75792-0.55122z" style="font-feature-settings:normal;font-variant-caps:normal;font-variant-ligatures:normal;font-variant-numeric:normal"/>
   <path d="m209.76793 235.35321q1.757 0.26699 1.757 1.03353 0 0.35312-0.55121 0.51676l-0.96463-0.31006h-0.17225q-0.71486 0-1.20579 0.93018-0.34451 0.93017-0.34451 2.13596 0 1.3522 1.5503 2.20486 1.10243 0.93017 1.44694 1.51584l0.5426 1.10243 0.0344 0.15503v0.0689q0 1.8259-0.93018 2.75608-0.81821 1.13688-1.75699 1.13688h-0.17226q-1.11104 0-2.41157-1.13688-0.51676-0.72347-0.51676-1.55029 0.0947-0.93018 0.44786-0.93018 0.42203 0 0.51677 1.30914 0.24977 0.59428 0.93017 0.86127 0.56844 0.20671 0.86128 0.20671h0.2067q0.68902 0 1.58475-1.58475l0.17225-0.62011q0-0.99908-0.78376-1.70533l-1.79145-1.48139q-0.6115-0.64595-0.89572-1.55029v-0.0344q-0.21532-1.85174 0.18948-2.79053t0.60289-1.44694q0.50815-0.79237 1.65364-0.79237z" style="font-feature-settings:normal;font-variant-caps:normal;font-variant-ligatures:normal;font-variant-numeric:normal"/>
   <path d="m215.21119 235.46517q0.71485 0.24977 1.24023 0.99908 0.48231 0.88711 0.80099 2.26515 0.32728 1.37804 0.37034 4.00493-0.0258 3.10919-0.19809 3.51399 0 1.99816-0.58567 1.99816 0 0.0861-2.69578 0.10335-0.77515 0-1.27469-1.27468-0.1378-0.56844-0.1378-0.99908v-0.17226q0-1.19717 0.99907-2.48047 0.6029-0.68901 1.5503-0.68901l0.75792 0.0344h0.37896l0.0345-0.37896 0.0344-1.72255q0-1.44694-0.93017-3.5829-0.25839-0.31006-0.51677-0.31006h-0.1378q-0.10336 0-0.82683 0.48231h-0.0689q-0.55121-0.25838-0.55121-0.58566v-0.13781q0.90433-1.06798 1.757-1.06798zm-1.30914 10.26639v0.27561q0 0.76653 0.37896 1.06798h0.0689q1.76561-0.0775 1.80006-0.0861 0.31006-1.54168 0.0258-2.5666-0.2756-0.48231-0.89572-0.48231-0.62873 0-1.30914 1.20578z" style="font-feature-settings:normal;font-variant-caps:normal;font-variant-ligatures:normal;font-variant-numeric:normal"/>
   <path d="m222.82485 235.70633q0.55121 0.17226 0.86127 0.93018 0.20671 0.24977 0.48231 1.8259-0.31005 5.04706-0.2756 7.55337l0.0344 1.6881q0 0.96462-0.65457 0.96462-0.55122 0-0.55122-0.79237 0.10336-5.46048 0.27561-7.82898l0.0689-2.06706-0.44786-1.10243q-0.14642-0.1378-0.27561-0.1378h-0.17225q-0.58567-0.0344-2.15319 3.89296-0.55121 1.41249-0.55121 1.72255v1.37803l0.10335 2.24793-0.0689 0.99908v0.0344l0.0689 0.65457q0 0.31867-0.65457 0.68901-0.58566-0.16364-0.58566-0.96462l-0.0689-1.10243q0.1378-3.22117 0.10335-9.20702 0-1.20578 0.31006-1.20578 0.23254-0.20671 0.48231-0.20671 0.34451 0 0.34451 0.41341l-0.0689 2.41157q0.0431 0.17225 0.10335 0.17225h0.20671q0.0603 0 0.93017-1.61919 0.85266-1.20579 1.20579-1.20579 0.39618-0.31005 0.9474-0.1378z" style="font-feature-settings:normal;font-variant-caps:normal;font-variant-ligatures:normal;font-variant-numeric:normal"/>
   <path d="m227.33792 235.46517q0.71486 0.24977 1.24024 0.99908 0.48231 0.88711 0.80098 2.26515 0.32728 1.37804 0.37035 4.00493-0.0258 3.10919-0.19809 3.51399 0 1.99816-0.58567 1.99816 0 0.0861-2.69579 0.10335-0.77514 0-1.27468-1.27468-0.13781-0.56844-0.13781-0.99908v-0.17226q0-1.19717 0.99908-2.48047 0.60289-0.68901 1.55029-0.68901l0.75792 0.0344h0.37897l0.0344-0.37896 0.0344-1.72255q0-1.44694-0.93018-3.5829-0.25838-0.31006-0.51676-0.31006h-0.13781q-0.10335 0-0.82682 0.48231h-0.0689q-0.55122-0.25838-0.55122-0.58566v-0.13781q0.90434-1.06798 1.757-1.06798zm-1.30913 10.26639v0.27561q0 0.76653 0.37896 1.06798h0.0689q1.76561-0.0775 1.80006-0.0861 0.31006-1.54168 0.0258-2.5666-0.27561-0.48231-0.89573-0.48231-0.62873 0-1.30913 1.20578z" style="font-feature-settings:normal;font-variant-caps:normal;font-variant-ligatures:normal;font-variant-numeric:normal"/>
  </g>
  <g fill="#fff" stroke="#6e421b" stroke-width="1.0583334">
   <g transform="translate(-165.61443,22.116574)" style="font-feature-settings:normal;font-variant-caps:normal;font-variant-ligatures:normal;font-variant-numeric:normal" aria-label="1">
    <path d="m205.16617 160.9171-2.79053 0.0775-0.76653 0.62873v2.64411l0.68902-0.31867 0.0775 8.33713h3.01446z" fill="#fff" stroke="#6e421b" stroke-width="1.0583334" style="font-feature-settings:normal;font-variant-caps:normal;font-variant-ligatures:normal;font-variant-numeric:normal"/>
   </g>
   <g transform="translate(-166.49746,22.520203)" style="font-feature-settings:normal;font-variant-caps:normal;font-variant-ligatures:normal;font-variant-numeric:normal" aria-label="2">
    <path d="m233.03197 160.95287q-2.59244-1.57614-4.82313-0.0258-1.11966 0.81821-1.97232 2.02399l1.73977 2.20486q0.22393-0.36173 0.62873-0.67179 0.89573-0.89573 1.80006-0.70625 0.50816 0.11197 0.41342 0.68902-0.0775 0.49093-0.57706 1.2833-0.93879 1.47278-2.29099 2.3685-0.58566 0.49954-1.0852 0.8785l-0.20671 3.04891 7.00216 0.14642 9e-3 -2.91972-3.53983 0.16364q1.67948-1.55029 2.87665-3.37619 1.05075-1.59336 1.17133-2.79914 0.16365-1.50723-1.14549-2.30821z" fill="#fff" stroke="#6e421b" stroke-width="1.0583334" style="font-feature-settings:normal;font-variant-caps:normal;font-variant-ligatures:normal;font-variant-numeric:normal"/>
   </g>
   <g transform="translate(-166.65464,22.536652)" style="font-feature-settings:normal;font-variant-caps:normal;font-variant-ligatures:normal;font-variant-numeric:normal" aria-label="3">
    <path d="m251.94874 160.65367 0.0775 2.62689 3.3159-0.0775-2.79052 2.02399q0.76653-0.11197 1.50723 0.0861 1.49861 0.39618 1.45555 1.95509-0.0517 1.56752-1.50723 1.54168-0.73208-0.0172-1.45555-0.34451l-0.68041 2.80775q1.24024 0.39619 2.7044 0.42203 2.90249 0.0603 3.97047-1.76562 1.46417-2.51492-0.0258-4.25469-0.74931-0.86989-1.71394-1.32636l2.98001-3.66041z" fill="#fff" stroke="#6e421b" stroke-width="1.0583334" style="font-feature-settings:normal;font-variant-caps:normal;font-variant-ligatures:normal;font-variant-numeric:normal"/>
   </g>
  </g>
 </g>
</svg>
