<?xml version="1.0" encoding="UTF-8"?>
<!-- Created with Inkscape (http://www.inkscape.org/) -->
<svg width="511.99997" height="511.99997" version="1.1" viewBox="0 0 135.46666 135.46666" xmlns="http://www.w3.org/2000/svg" xmlns:cc="http://creativecommons.org/ns#" xmlns:dc="http://purl.org/dc/elements/1.1/" xmlns:rdf="http://www.w3.org/1999/02/22-rdf-syntax-ns#">
 <metadata>
  <rdf:RDF>
   <cc:Work rdf:about="">
    <dc:format>image/svg+xml</dc:format>
    <dc:type rdf:resource="http://purl.org/dc/dcmitype/StillImage"/>
    <dc:title/>
   </cc:Work>
  </rdf:RDF>
 </metadata>
 <g transform="translate(-507.03668,143.87161)">
  <rect x="507.03668" y="-143.87161" width="135.46666" height="135.46666" ry="0" opacity="0" stroke-width="2.08046722"/>
  <g>
   <g stroke="#ccc" stroke-linecap="round" stroke-width="2.47349143">
    <path d="m568.59222-142.6344c-2.95091 3e-3 -5.70217 1.49139-7.31919 3.96069-1.55338-1.252-3.48744-1.93605-5.48226-1.93904-4.70249 6e-3 -8.41703 3.48838-8.59772 7.99252-0.0371 1.21203 0.17828 3.44829 0.90466 4.94145 2.81712 5.79089 13.28257 14.0262 13.28257 14.0262h14.42386s10.16693-8.36628 13.27531-13.99576c0.69879-1.26553 1.07322-2.73368 1.07327-4.20228-0.18077-4.70254-4.05469-8.75915-8.75905-8.76212-1.99457 9.4e-4 -3.92911 0.68271-5.48371 1.93276-1.61819-2.46647-4.36855-3.95273-7.31774-3.95442z" fill="#f9f9f9"/>
    <path d="m561.38028-113.65255s-88.79999 42.462362-30.18227 99.41569c0 0 26.6138 10.1100594 73.44062 0.337003 0 0 61.92469-47.517524-28.83449-99.752693" fill="#f9f9f9"/>
    <rect x="553.09558" y="-117.94772" width="30.99328" height="8.7620506" ry="4.3810253" fill="#2196f3"/>
   </g>
   <path d="m607.22607-117.86828 30.07805 17.37167c2.19253 1.266307 2.93855 4.051478 1.6727 6.244781l-6.96908 12.075041c-1.26586 2.193302-4.05005 2.939585-6.24258 1.673283l-30.07806-17.371678c-2.19253-1.266302-7.54887-12.520747-6.28301-14.714057l2.1707-3.76108c1.26586-2.1933 13.45875-2.78427 15.65128-1.51796z" fill="#2196f3"/>
   <path d="m608.3563-114.57616 24.122 13.93174c1.75837 1.01555 2.35667 3.249203 1.34147 5.008188l-5.58906 9.683944c-1.01519 1.758985-3.24806 2.357489-5.00643 1.341938l-24.122-13.93174c-1.75837-1.01555-6.05405-10.0414-5.03885-11.80038l1.74085-3.01631c1.0152-1.75899 10.79365-2.23293 12.55202-1.21738z" fill="#fff"/>
  </g>
  <path d="m583.8433-116.96515s5.48386-5.02864 9.13977 3.20005" fill="none" stroke="#ccc" stroke-linecap="round" stroke-width="2.02477717"/>
  <path d="m563.15973-125.41906 5.05325 6.40304 5.05325-6.43837" fill="#f9f9f9" stroke="#ccc" stroke-linecap="round" stroke-width="2.47349143"/>
  <ellipse cx="543.32159" cy="-78.494301" rx="11.570014" ry="11.574204" fill="#f60" stroke-width=".04520408"/>
  <g fill="#fbc02d" stroke-width=".04520408">
   <path d="m552.12873-86.001163c2.00232 2.345521 2.91654 5.301727 2.74226 8.205031h-5.1e-4c-0.75617-1.219916-1.85376-2.468906-3.49699-3.55305-2.96367-0.608784-1.8209-1.79963-0.83282-3.237696l5.1e-4 -5.13e-4 1.5871-1.41329z"/>
   <path d="m546.86742-67.474082c-0.52378 0.168145-1.05759 0.298176-1.59614 0.38964-3.57224 0.607834-7.37399-0.467314-10.13103-3.225308-0.0995-0.09956-0.19714-0.201014-0.29282-0.303419l2.51226-2.236922 9.17106-8.16642 5.1e-4 -5.13e-4c0.0343 0.03811 1.10283-0.55064 1.49757-0.369159 0.44807 0.20531 1.08665 0.666882 1.08665 1.569093 0.55848 4.062231 0.40133 9.322994-2.24805 12.342993z"/>
   <path d="m547.27594-84.062733c-0.37901 0.37915-0.58045 0.353921-1.70375 0.353921h-5.1e-4c-0.10142-0.02333-0.20379-0.04666-0.30715-0.06908-3.00273-0.654042-5.585-0.791668-7.77541-0.58541-1.85471 0.173887-3.42843 0.594-4.73839 1.155626 0.56052-1.259026 1.35714-2.437982 2.38951-3.470674 2.37084-2.3717 5.51503-3.499204 8.62062-3.381561 0.17807 0.132879 0.35949 0.275795 0.54235 0.430149 1.08375 0.913152 2.22278 2.203104 3.10939 3.897931 0 0.916001 0.19045 1.342306-0.13667 1.669101z"/>
  </g>
  <path d="m550.54067-84.586878c0.89185 0.963654 1.18806 2.235475 0.83282 3.237694-0.11236 0.316757-0.28997 0.606388-0.53426 0.85076-0.45616 0.456825-1.07092 0.67972-1.72373 0.681168-0.84665 0.0019-1.75848-0.368707-2.47655-1.087039-0.0371-0.03716-0.0733-0.07478-0.10761-0.112895-0.73665-0.795509-1.06662-1.801528-0.95901-2.691803 0.0633-0.52921 0.28143-1.017953 0.66044-1.397104 0.32713-0.326795 0.73475-0.534001 1.17998-0.625918 0.98188-0.20246 2.14513 0.156253 3.02035 1.032241 0.0371 0.03716 0.0733 0.07478 0.10757 0.112896z" fill="#2196f3" stroke-width=".04520408"/>
  <ellipse cx="568.73071" cy="-78.494301" rx="11.570014" ry="11.574204" fill="#f60" stroke-width=".04520408"/>
  <g fill="#fbc02d" stroke-width=".04520408">
   <path d="m577.53786-86.001163c2.00232 2.345521 2.91654 5.301727 2.74226 8.205031h-5.1e-4c-0.75617-1.219916-1.85376-2.468906-3.49699-3.55305-2.96367-0.608784-1.8209-1.79963-0.83282-3.237696l5.1e-4 -5.13e-4 1.5871-1.41329z"/>
   <path d="m572.27655-67.474082c-0.52378 0.168145-1.05759 0.298176-1.59614 0.38964-3.57224 0.607834-7.37399-0.467314-10.13103-3.225308-0.0995-0.09956-0.19714-0.201014-0.29282-0.303419l2.51226-2.236922 9.17106-8.16642 5.1e-4 -5.13e-4c0.0343 0.03811 1.10283-0.55064 1.49757-0.369159 0.44807 0.20531 1.08665 0.666882 1.08665 1.569093 0.55848 4.062231 0.40133 9.322994-2.24805 12.342993z"/>
   <path d="m572.68507-84.062733c-0.37901 0.37915-0.58045 0.353921-1.70375 0.353921h-5.1e-4c-0.10142-0.02333-0.20379-0.04666-0.30715-0.06908-3.00273-0.654042-5.585-0.791668-7.77541-0.58541-1.85471 0.173887-3.42843 0.594-4.73839 1.155626 0.56052-1.259026 1.35714-2.437982 2.38951-3.470674 2.37084-2.3717 5.51503-3.499204 8.62062-3.381561 0.17807 0.132879 0.35949 0.275795 0.54235 0.430149 1.08375 0.913152 2.22278 2.203104 3.10939 3.897931 0 0.916001 0.19045 1.342306-0.13667 1.669101z"/>
  </g>
  <path d="m575.9498-84.586878c0.89185 0.963654 1.18806 2.235475 0.83282 3.237694-0.11236 0.316757-0.28997 0.606388-0.53426 0.85076-0.45616 0.456825-1.07092 0.67972-1.72373 0.681168-0.84665 0.0019-1.75848-0.368707-2.47655-1.087039-0.0371-0.03716-0.0733-0.07478-0.10761-0.112895-0.73665-0.795509-1.06662-1.801528-0.95901-2.691803 0.0633-0.52921 0.28143-1.017953 0.66044-1.397104 0.32713-0.326795 0.73475-0.534001 1.17998-0.625918 0.98188-0.20246 2.14513 0.156253 3.02035 1.032241 0.0371 0.03716 0.0733 0.07478 0.10757 0.112896z" fill="#2196f3" stroke-width=".04520408"/>
  <ellipse cx="594.13983" cy="-78.494301" rx="11.570014" ry="11.574204" fill="#f60" stroke-width=".04520408"/>
  <g fill="#fbc02d" stroke-width=".04520408">
   <path d="m602.94699-86.001163c2.00232 2.345521 2.91654 5.301727 2.74226 8.205031h-5.1e-4c-0.75617-1.219916-1.85376-2.468906-3.49699-3.55305-2.96367-0.608784-1.8209-1.79963-0.83282-3.237696l5.1e-4 -5.13e-4 1.5871-1.41329z"/>
   <path d="m597.68568-67.474082c-0.52378 0.168145-1.05759 0.298176-1.59614 0.38964-3.57224 0.607834-7.37399-0.467314-10.13103-3.225308-0.0995-0.09956-0.19714-0.201014-0.29282-0.303419l2.51226-2.236922 9.17106-8.16642 5.1e-4 -5.13e-4c0.0343 0.03811 1.10283-0.55064 1.49757-0.369159 0.44807 0.20531 1.08665 0.666882 1.08665 1.569093 0.55848 4.062231 0.40133 9.322994-2.24805 12.342993z"/>
   <path d="m598.0942-84.062733c-0.37901 0.37915-0.58045 0.353921-1.70375 0.353921h-5.1e-4c-0.10142-0.02333-0.20379-0.04666-0.30715-0.06908-3.00273-0.654042-5.585-0.791668-7.77541-0.58541-1.85471 0.173887-3.42843 0.594-4.73839 1.155626 0.56052-1.259026 1.35714-2.437982 2.38951-3.470674 2.37084-2.3717 5.51503-3.499204 8.62062-3.381561 0.17807 0.132879 0.35949 0.275795 0.54235 0.430149 1.08375 0.913152 2.22278 2.203104 3.10939 3.897931 0 0.916001 0.19045 1.342306-0.13667 1.669101z"/>
  </g>
  <path d="m601.35893-84.586878c0.89185 0.963654 1.18806 2.235475 0.83282 3.237694-0.11236 0.316757-0.28997 0.606388-0.53426 0.85076-0.45616 0.456825-1.07092 0.67972-1.72373 0.681168-0.84665 0.0019-1.75848-0.368707-2.47655-1.087039-0.0371-0.03716-0.0733-0.07478-0.10761-0.112895-0.73665-0.795509-1.06662-1.801528-0.95901-2.691803 0.0633-0.52921 0.28143-1.017953 0.66044-1.397104 0.32713-0.326795 0.73475-0.534001 1.17998-0.625918 0.98188-0.20246 2.14513 0.156253 3.02035 1.032241 0.0371 0.03716 0.0733 0.07478 0.10757 0.112896z" fill="#2196f3" stroke-width=".04520408"/>
  <ellipse cx="543.32159" cy="-53.193096" rx="11.570014" ry="11.574204" fill="#f60" stroke-width=".04520408"/>
  <g fill="#fbc02d" stroke-width=".04520408">
   <path d="m552.12873-60.699961c2.00232 2.345521 2.91654 5.301727 2.74226 8.205031h-5.1e-4c-0.75617-1.219916-1.85376-2.468906-3.49699-3.55305-2.96367-0.608784-1.8209-1.79963-0.83282-3.237696l5.1e-4 -5.13e-4 1.5871-1.41329z"/>
   <path d="m546.86742-42.17288c-0.52378 0.168145-1.05759 0.298176-1.59614 0.38964-3.57224 0.607834-7.37399-0.467314-10.13103-3.225308-0.0995-0.09956-0.19714-0.201014-0.29282-0.303419l2.51226-2.236922 9.17106-8.16642 5.1e-4 -5.13e-4c0.0343 0.03811 1.10283-0.55064 1.49757-0.369159 0.44807 0.20531 1.08665 0.666882 1.08665 1.569093 0.55848 4.062231 0.40133 9.322994-2.24805 12.342993z"/>
   <path d="m547.27594-58.761531c-0.37901 0.37915-0.58045 0.353921-1.70375 0.353921h-5.1e-4c-0.10142-0.02333-0.20379-0.04666-0.30715-0.06908-3.00273-0.654042-5.585-0.791668-7.77541-0.58541-1.85471 0.173887-3.42843 0.594-4.73839 1.155626 0.56052-1.259026 1.35714-2.437982 2.38951-3.470674 2.37084-2.3717 5.51503-3.499204 8.62062-3.381561 0.17807 0.132879 0.35949 0.275795 0.54235 0.430149 1.08375 0.913152 2.22278 2.203104 3.10939 3.897931 0 0.916001 0.19045 1.342306-0.13667 1.669101z"/>
  </g>
  <path d="m550.54067-59.285676c0.89185 0.963654 1.18806 2.235475 0.83282 3.237694-0.11236 0.316757-0.28997 0.606388-0.53426 0.85076-0.45616 0.456825-1.07092 0.67972-1.72373 0.681168-0.84665 0.0019-1.75848-0.368707-2.47655-1.087039-0.0371-0.03716-0.0733-0.07478-0.10761-0.112895-0.73665-0.795509-1.06662-1.801528-0.95901-2.691803 0.0633-0.52921 0.28143-1.017953 0.66044-1.397104 0.32713-0.326795 0.73475-0.534001 1.17998-0.625918 0.98188-0.20246 2.14513 0.156253 3.02035 1.032241 0.0371 0.03716 0.0733 0.07478 0.10757 0.112896z" fill="#2196f3" stroke-width=".04520408"/>
  <ellipse cx="568.73071" cy="-53.193096" rx="11.570014" ry="11.574204" fill="#f60" stroke-width=".04520408"/>
  <g fill="#fbc02d" stroke-width=".04520408">
   <path d="m577.53786-60.699961c2.00232 2.345521 2.91654 5.301727 2.74226 8.205031h-5.1e-4c-0.75617-1.219916-1.85376-2.468906-3.49699-3.55305-2.96367-0.608784-1.8209-1.79963-0.83282-3.237696l5.1e-4 -5.13e-4 1.5871-1.41329z"/>
   <path d="m572.27655-42.17288c-0.52378 0.168145-1.05759 0.298176-1.59614 0.38964-3.57224 0.607834-7.37399-0.467314-10.13103-3.225308-0.0995-0.09956-0.19714-0.201014-0.29282-0.303419l2.51226-2.236922 9.17106-8.16642 5.1e-4 -5.13e-4c0.0343 0.03811 1.10283-0.55064 1.49757-0.369159 0.44807 0.20531 1.08665 0.666882 1.08665 1.569093 0.55848 4.062231 0.40133 9.322994-2.24805 12.342993z"/>
   <path d="m572.68507-58.761531c-0.37901 0.37915-0.58045 0.353921-1.70375 0.353921h-5.1e-4c-0.10142-0.02333-0.20379-0.04666-0.30715-0.06908-3.00273-0.654042-5.585-0.791668-7.77541-0.58541-1.85471 0.173887-3.42843 0.594-4.73839 1.155626 0.56052-1.259026 1.35714-2.437982 2.38951-3.470674 2.37084-2.3717 5.51503-3.499204 8.62062-3.381561 0.17807 0.132879 0.35949 0.275795 0.54235 0.430149 1.08375 0.913152 2.22278 2.203104 3.10939 3.897931 0 0.916001 0.19045 1.342306-0.13667 1.669101z"/>
  </g>
  <path d="m575.9498-59.285676c0.89185 0.963654 1.18806 2.235475 0.83282 3.237694-0.11236 0.316757-0.28997 0.606388-0.53426 0.85076-0.45616 0.456825-1.07092 0.67972-1.72373 0.681168-0.84665 0.0019-1.75848-0.368707-2.47655-1.087039-0.0371-0.03716-0.0733-0.07478-0.10761-0.112895-0.73665-0.795509-1.06662-1.801528-0.95901-2.691803 0.0633-0.52921 0.28143-1.017953 0.66044-1.397104 0.32713-0.326795 0.73475-0.534001 1.17998-0.625918 0.98188-0.20246 2.14513 0.156253 3.02035 1.032241 0.0371 0.03716 0.0733 0.07478 0.10757 0.112896z" fill="#2196f3" stroke-width=".04520408"/>
  <ellipse cx="594.13983" cy="-53.193096" rx="11.570014" ry="11.574204" fill="#f60" stroke-width=".04520408"/>
  <g fill="#fbc02d" stroke-width=".04520408">
   <path d="m602.94699-60.699961c2.00232 2.345521 2.91654 5.301727 2.74226 8.205031h-5.1e-4c-0.75617-1.219916-1.85376-2.468906-3.49699-3.55305-2.96367-0.608784-1.8209-1.79963-0.83282-3.237696l5.1e-4 -5.13e-4 1.5871-1.41329z"/>
   <path d="m597.68568-42.17288c-0.52378 0.168145-1.05759 0.298176-1.59614 0.38964-3.57224 0.607834-7.37399-0.467314-10.13103-3.225308-0.0995-0.09956-0.19714-0.201014-0.29282-0.303419l2.51226-2.236922 9.17106-8.16642 5.1e-4 -5.13e-4c0.0343 0.03811 1.10283-0.55064 1.49757-0.369159 0.44807 0.20531 1.08665 0.666882 1.08665 1.569093 0.55848 4.062231 0.40133 9.322994-2.24805 12.342993z"/>
   <path d="m598.0942-58.761531c-0.37901 0.37915-0.58045 0.353921-1.70375 0.353921h-5.1e-4c-0.10142-0.02333-0.20379-0.04666-0.30715-0.06908-3.00273-0.654042-5.585-0.791668-7.77541-0.58541-1.85471 0.173887-3.42843 0.594-4.73839 1.155626 0.56052-1.259026 1.35714-2.437982 2.38951-3.470674 2.37084-2.3717 5.51503-3.499204 8.62062-3.381561 0.17807 0.132879 0.35949 0.275795 0.54235 0.430149 1.08375 0.913152 2.22278 2.203104 3.10939 3.897931 0 0.916001 0.19045 1.342306-0.13667 1.669101z"/>
  </g>
  <path d="m601.35893-59.285676c0.89185 0.963654 1.18806 2.235475 0.83282 3.237694-0.11236 0.316757-0.28997 0.606388-0.53426 0.85076-0.45616 0.456825-1.07092 0.67972-1.72373 0.681168-0.84665 0.0019-1.75848-0.368707-2.47655-1.087039-0.0371-0.03716-0.0733-0.07478-0.10761-0.112895-0.73665-0.795509-1.06662-1.801528-0.95901-2.691803 0.0633-0.52921 0.28143-1.017953 0.66044-1.397104 0.32713-0.326795 0.73475-0.534001 1.17998-0.625918 0.98188-0.20246 2.14513 0.156253 3.02035 1.032241 0.0371 0.03716 0.0733 0.07478 0.10757 0.112896z" fill="#2196f3" stroke-width=".04520408"/>
  <ellipse cx="543.32159" cy="-28.126171" rx="11.570014" ry="11.574204" fill="#f60" stroke-width=".04520408"/>
  <g fill="#fbc02d" stroke-width=".04520408">
   <path d="m552.12873-35.633035c2.00232 2.345521 2.91654 5.301727 2.74226 8.205031h-5.1e-4c-0.75617-1.219916-1.85376-2.468906-3.49699-3.55305-2.96367-0.608784-1.8209-1.79963-0.83282-3.237696l5.1e-4 -5.13e-4 1.5871-1.41329z"/>
   <path d="m546.86742-17.105954c-0.52378 0.168145-1.05759 0.298176-1.59614 0.38964-3.57224 0.607834-7.37399-0.467314-10.13103-3.225308-0.0995-0.09956-0.19714-0.201014-0.29282-0.303419l2.51226-2.236922 9.17106-8.16642 5.1e-4 -5.13e-4c0.0343 0.03811 1.10283-0.55064 1.49757-0.369159 0.44807 0.20531 1.08665 0.666882 1.08665 1.569093 0.55848 4.062231 0.40133 9.322994-2.24805 12.342993z"/>
   <path d="m547.27594-33.694605c-0.37901 0.37915-0.58045 0.353921-1.70375 0.353921h-5.1e-4c-0.10142-0.02333-0.20379-0.04666-0.30715-0.06908-3.00273-0.654042-5.585-0.791668-7.77541-0.58541-1.85471 0.173887-3.42843 0.594-4.73839 1.155626 0.56052-1.259026 1.35714-2.437982 2.38951-3.470674 2.37084-2.3717 5.51503-3.499204 8.62062-3.381561 0.17807 0.132879 0.35949 0.275795 0.54235 0.430149 1.08375 0.913152 2.22278 2.203104 3.10939 3.897931 0 0.916001 0.19045 1.342306-0.13667 1.669101z"/>
  </g>
  <path d="m550.54067-34.21875c0.89185 0.963654 1.18806 2.235475 0.83282 3.237694-0.11236 0.316757-0.28997 0.606388-0.53426 0.85076-0.45616 0.456825-1.07092 0.67972-1.72373 0.681168-0.84665 0.0019-1.75848-0.368707-2.47655-1.087039-0.0371-0.03716-0.0733-0.07478-0.10761-0.112895-0.73665-0.795509-1.06662-1.801528-0.95901-2.691803 0.0633-0.52921 0.28143-1.017953 0.66044-1.397104 0.32713-0.326795 0.73475-0.534001 1.17998-0.625918 0.98188-0.20246 2.14513 0.156253 3.02035 1.032241 0.0371 0.03716 0.0733 0.07478 0.10757 0.112896z" fill="#2196f3" stroke-width=".04520408"/>
  <ellipse cx="568.73071" cy="-28.126171" rx="11.570014" ry="11.574204" fill="#f60" stroke-width=".04520408"/>
  <g fill="#fbc02d" stroke-width=".04520408">
   <path d="m577.53786-35.633035c2.00232 2.345521 2.91654 5.301727 2.74226 8.205031h-5.1e-4c-0.75617-1.219916-1.85376-2.468906-3.49699-3.55305-2.96367-0.608784-1.8209-1.79963-0.83282-3.237696l5.1e-4 -5.13e-4 1.5871-1.41329z"/>
   <path d="m572.27655-17.105954c-0.52378 0.168145-1.05759 0.298176-1.59614 0.38964-3.57224 0.607834-7.37399-0.467314-10.13103-3.225308-0.0995-0.09956-0.19714-0.201014-0.29282-0.303419l2.51226-2.236922 9.17106-8.16642 5.1e-4 -5.13e-4c0.0343 0.03811 1.10283-0.55064 1.49757-0.369159 0.44807 0.20531 1.08665 0.666882 1.08665 1.569093 0.55848 4.062231 0.40133 9.322994-2.24805 12.342993z"/>
   <path d="m572.68507-33.694605c-0.37901 0.37915-0.58045 0.353921-1.70375 0.353921h-5.1e-4c-0.10142-0.02333-0.20379-0.04666-0.30715-0.06908-3.00273-0.654042-5.585-0.791668-7.77541-0.58541-1.85471 0.173887-3.42843 0.594-4.73839 1.155626 0.56052-1.259026 1.35714-2.437982 2.38951-3.470674 2.37084-2.3717 5.51503-3.499204 8.62062-3.381561 0.17807 0.132879 0.35949 0.275795 0.54235 0.430149 1.08375 0.913152 2.22278 2.203104 3.10939 3.897931 0 0.916001 0.19045 1.342306-0.13667 1.669101z"/>
  </g>
  <path d="m575.9498-34.21875c0.89185 0.963654 1.18806 2.235475 0.83282 3.237694-0.11236 0.316757-0.28997 0.606388-0.53426 0.85076-0.45616 0.456825-1.07092 0.67972-1.72373 0.681168-0.84665 0.0019-1.75848-0.368707-2.47655-1.087039-0.0371-0.03716-0.0733-0.07478-0.10761-0.112895-0.73665-0.795509-1.06662-1.801528-0.95901-2.691803 0.0633-0.52921 0.28143-1.017953 0.66044-1.397104 0.32713-0.326795 0.73475-0.534001 1.17998-0.625918 0.98188-0.20246 2.14513 0.156253 3.02035 1.032241 0.0371 0.03716 0.0733 0.07478 0.10757 0.112896z" fill="#2196f3" stroke-width=".04520408"/>
  <ellipse cx="594.13983" cy="-28.126171" rx="11.570014" ry="11.574204" fill="#f60" stroke-width=".04520408"/>
  <g fill="#fbc02d" stroke-width=".04520408">
   <path d="m602.94699-35.633035c2.00232 2.345521 2.91654 5.301727 2.74226 8.205031h-5.1e-4c-0.75617-1.219916-1.85376-2.468906-3.49699-3.55305-2.96367-0.608784-1.8209-1.79963-0.83282-3.237696l5.1e-4 -5.13e-4 1.5871-1.41329z"/>
   <path d="m597.68568-17.105954c-0.52378 0.168145-1.05759 0.298176-1.59614 0.38964-3.57224 0.607834-7.37399-0.467314-10.13103-3.225308-0.0995-0.09956-0.19714-0.201014-0.29282-0.303419l2.51226-2.236922 9.17106-8.16642 5.1e-4 -5.13e-4c0.0343 0.03811 1.10283-0.55064 1.49757-0.369159 0.44807 0.20531 1.08665 0.666882 1.08665 1.569093 0.55848 4.062231 0.40133 9.322994-2.24805 12.342993z"/>
   <path d="m598.0942-33.694605c-0.37901 0.37915-0.58045 0.353921-1.70375 0.353921h-5.1e-4c-0.10142-0.02333-0.20379-0.04666-0.30715-0.06908-3.00273-0.654042-5.585-0.791668-7.77541-0.58541-1.85471 0.173887-3.42843 0.594-4.73839 1.155626 0.56052-1.259026 1.35714-2.437982 2.38951-3.470674 2.37084-2.3717 5.51503-3.499204 8.62062-3.381561 0.17807 0.132879 0.35949 0.275795 0.54235 0.430149 1.08375 0.913152 2.22278 2.203104 3.10939 3.897931 0 0.916001 0.19045 1.342306-0.13667 1.669101z"/>
  </g>
  <path d="m601.35893-34.21875c0.89185 0.963654 1.18806 2.235475 0.83282 3.237694-0.11236 0.316757-0.28997 0.606388-0.53426 0.85076-0.45616 0.456825-1.07092 0.67972-1.72373 0.681168-0.84665 0.0019-1.75848-0.368707-2.47655-1.087039-0.0371-0.03716-0.0733-0.07478-0.10761-0.112895-0.73665-0.795509-1.06662-1.801528-0.95901-2.691803 0.0633-0.52921 0.28143-1.017953 0.66044-1.397104 0.32713-0.326795 0.73475-0.534001 1.17998-0.625918 0.98188-0.20246 2.14513 0.156253 3.02035 1.032241 0.0371 0.03716 0.0733 0.07478 0.10757 0.112896z" fill="#2196f3" stroke-width=".04520408"/>
  <g transform="rotate(30)" fill="#424242" stroke-width=".26458332" style="font-feature-settings:normal;font-variant-caps:normal;font-variant-ligatures:normal;font-variant-numeric:normal" aria-label="Tony">
   <path d="m472.192-399.60626q2.85082-0.17226 2.85082 0.27561l0.0344 0.24115q-0.12919 0.68902-0.48232 0.68902-0.28422-0.1378-0.7493-0.1378h-0.27561q-0.24116 0-0.24116 0.89572v2.17041l0.0344 0.10336-0.0344 0.17225v2.23931l0.0344 0.86128q-9e-3 4.67671-0.37896 4.67671-0.0517 0.0861-0.27561 0.13781-0.40479 0-0.48231-0.75792v-0.13781q0.20671-0.81821 0.10335-6.12366 0-4.20301-0.24115-4.20301h-0.0689l-1.3522 0.24115q-0.32728 0-0.41341-0.72347v-0.0344q0-0.58566 1.31775-0.58566z" style="font-feature-settings:normal;font-variant-caps:normal;font-variant-ligatures:normal;font-variant-numeric:normal"/>
   <path d="m478.82381-398.15932q1.44694 0.28422 1.44694 0.96462 1.50723 2.24793 0.41341 7.40696-0.68902 1.80006-1.24023 2.30821-0.76654 0.96463-1.51585 0.96463-1.16272 0-1.79145-1.51584l-0.58566-2.89388v-0.51677q0-1.73977 0.58566-4.23746 0.0947-0.13781 0.17226-0.62012 0.8096-1.79145 1.55029-1.79145zm-0.65457 1.27468h-0.0689q-0.4048 0-0.55122 0.65457-0.72347 1.32636-0.72347 2.75608-0.10335 0.25838-0.10335 0.89572v1.17133q0 1.52446 0.55122 3.13504 0.25838 0.51677 0.51676 0.51677 0.41341 0 1.17133-0.99908 0.22393 0 0.72347-1.06798 0.20671-0.74931 0.41341-2.85943 0-2.07567-0.55121-3.34174-0.27561-0.74931-0.44786-0.89573z" style="font-feature-settings:normal;font-variant-caps:normal;font-variant-ligatures:normal;font-variant-numeric:normal"/>
   <path d="m486.23938-399.701q0.55121 0.17225 0.86127 0.93017 0.20671 0.24977 0.48231 1.8259-0.31005 5.04707-0.2756 7.55338l0.0344 1.68809q0 0.96463-0.65457 0.96463-0.55122 0-0.55122-0.79237 0.10336-5.46048 0.27561-7.82898l0.0689-2.06706-0.44786-1.10243q-0.14642-0.1378-0.27561-0.1378h-0.17225q-0.58567-0.0344-2.15319 3.89295-0.55121 1.41249-0.55121 1.72255v1.37804l0.10335 2.24792-0.0689 0.99908v0.0345l0.0689 0.65457q0 0.31867-0.65457 0.68902-0.58566-0.16364-0.58566-0.96463l-0.0689-1.10243q0.1378-3.22116 0.10335-9.20701 0-1.20579 0.31006-1.20579 0.23254-0.2067 0.48231-0.2067 0.34451 0 0.34451 0.41341l-0.0689 2.41156q0.0431 0.17226 0.10335 0.17226h0.20671q0.0603 0 0.93017-1.6192 0.85266-1.20578 1.20579-1.20578 0.39618-0.31006 0.9474-0.1378z" style="font-feature-settings:normal;font-variant-caps:normal;font-variant-ligatures:normal;font-variant-numeric:normal"/>
   <path d="m488.32366-400.20915h0.1378q0.63735 0 0.86128 1.17133 1.21439 2.35128 1.55029 2.79053 0 0.30144 0.55122 0.75792h0.0689q0.17225 0 0.41341-2.37712 0.24977-2.17041 0.72347-2.17041h0.0345q0.65457 0.18087 0.65457 0.58567-0.34451 2.35989-0.62012 3.37619-0.1378 1.73116-0.51676 3.61735l0.0344 0.65457q-0.37896 1.07659-0.37896 4.54753 0 0.39618-0.58567 0.55121-0.68902-0.25838-0.68902-0.99908 0.21532-2.8422 0.55122-3.44509l0.31006-2.51492q0-0.16364-0.58567-0.55122l-0.82682-1.30913q0-0.10336-1.30914-2.23932 0-0.1378-0.48231-0.99907-0.24116-0.57706-0.24116-0.82683 0-0.39618 0.34451-0.62011z" style="font-feature-settings:normal;font-variant-caps:normal;font-variant-ligatures:normal;font-variant-numeric:normal"/>
  </g>
 </g>
</svg>
