<?xml version="1.0" encoding="UTF-8"?>
<!-- Created with Inkscape (http://www.inkscape.org/) -->
<svg width="1220" height="562" version="1.1" viewBox="0 0 322.79166 148.69584" xmlns="http://www.w3.org/2000/svg" xmlns:cc="http://creativecommons.org/ns#" xmlns:dc="http://purl.org/dc/elements/1.1/" xmlns:rdf="http://www.w3.org/1999/02/22-rdf-syntax-ns#">
 <metadata>
  <rdf:RDF>
   <cc:Work rdf:about="">
    <dc:format>image/svg+xml</dc:format>
    <dc:type rdf:resource="http://purl.org/dc/dcmitype/StillImage"/>
    <dc:title/>
   </cc:Work>
  </rdf:RDF>
 </metadata>
 <g transform="translate(51.393982,-184.4617)">
  <rect x="-51.393982" y="184.4617" width="322.79166" height="148.69583" opacity="0" stroke-width=".91198415"/>
  <g transform="translate(-1223.4516,400.57173)">
   <rect x="1178.6722" y="-209.49544" width="309.5625" height="135.46666" rx="9.3694143" ry="9.3694143" fill="#2196f3"/>
   <rect x="1185.7633" y="-204.34227" width="295.38028" height="125.1603" rx="8.9401665" ry="8.6565857" fill="#fff"/>
  </g>
  <g transform="matrix(.39866447 0 0 .3962094 -75.0346 202.66638)">
   <g stroke-width=".26458332">
    <path d="m142.41403 105.15848h82.46374c3.1152 0 5.63854-2.52333 5.63854-5.638538v-98.67714665c0-3.11811455-2.52334-5.63853535-5.63854-5.63853535h-84.57803c-6.22776 0-11.27707 5.04930827-11.27707 11.2770707v107.8401993c0 7.38399 6.00736 13.39162 13.39162 13.39162h85.98773c1.16787 0 2.11455-0.94668 2.11455-2.11455s-0.94641-2.11455-2.11455-2.11455h-85.98799c-5.05249 0-9.16252-4.1103-9.16252-9.16252 0-5.05275 4.1103-9.16305 9.16252-9.16305z" fill="#fbc02d"/>
    <path d="m140.29974 101.09818v-105.89392c-6.22776 0-11.27707 5.04930827-11.27707 11.2770707v107.8401993c0-6.66486 4.89426-12.20629 11.27707-13.22335z" fill="#fab70f"/>
    <path d="m142.41403 105.15848c-5.05249 0-9.16252 4.1103-9.16252 9.16252 0 5.05248 4.1103 9.16252 9.16252 9.16252h82.46374v-18.32531z" fill="#e6e9ed"/>
   </g>
   <g transform="matrix(.26458333 0 0 .26458333 112.03642 -4.79574)" fill="#a97a03">
    <path d="m106.822 77.252c-13.346 0-28.387 5.257-40.233 14.062-0.82 0.609-1.615 1.23-2.389 1.859v24.322c7.006-13.687 26.547-24.261 42.622-24.261v-7.992z"/>
    <path d="m106.822 151.851c-13.348 0-28.388 5.255-40.233 14.058-0.82 0.609-1.615 1.23-2.389 1.859v24.327c7.006-13.687 26.547-24.261 42.622-24.261v-7.992z"/>
    <path d="m106.822 226.44c-13.346 0-28.387 5.257-40.233 14.062-0.82 0.609-1.615 1.23-2.389 1.859v24.322c7.006-13.687 26.547-24.261 42.622-24.261v-7.992z"/>
    <path d="m106.822 301.029c-13.346 0-28.387 5.257-40.233 14.062-0.82 0.609-1.615 1.23-2.389 1.859v24.322c7.006-13.687 26.547-24.261 42.622-24.261v-7.992z"/>
   </g>
   <g stroke-width=".26458332">
    <path d="m174.13069 116.43555h-28.19215c-1.16787 0-2.11455-0.94668-2.11455-2.11455s0.94642-2.11455 2.11455-2.11455h28.19215c1.16787 0 2.11455 0.94641 2.11455 2.11455 0 1.16813-0.94668 2.11455-2.11455 2.11455z" fill="#ccd1d9"/>
    <path d="m168.49242 123.48378v4.22884 1.4097c0 1.16284-0.90276 1.81345-2.00607 1.44568l-4.4458-1.48166c-1.10331-0.36778-2.90883-0.36778-4.01187 0l-4.4458 1.48166c-1.10331 0.36777-2.00607-0.28284-2.00607-1.44568v-1.40679-13.39427h14.80106c1.16284 0 2.11455 5.3e-4 2.11455 1e-3v2.11587z" fill="#ed5565"/>
    <rect x="216.41957" y="105.15716" width="8.4587288" height="18.325043" fill="#ccd1d9"/>
   </g>
  </g>
  <g transform="matrix(.39866447 0 0 .3962094 -18.3503 202.66638)">
   <g stroke-width=".26458332">
    <path d="m142.41403 105.15848h82.46374c3.1152 0 5.63854-2.52333 5.63854-5.638538v-98.67714665c0-3.11811455-2.52334-5.63853535-5.63854-5.63853535h-84.57803c-6.22776 0-11.27707 5.04930827-11.27707 11.2770707v107.8401993c0 7.38399 6.00736 13.39162 13.39162 13.39162h85.98773c1.16787 0 2.11455-0.94668 2.11455-2.11455s-0.94641-2.11455-2.11455-2.11455h-85.98799c-5.05249 0-9.16252-4.1103-9.16252-9.16252 0-5.05275 4.1103-9.16305 9.16252-9.16305z" fill="#fbc02d"/>
    <path d="m140.29974 101.09818v-105.89392c-6.22776 0-11.27707 5.04930827-11.27707 11.2770707v107.8401993c0-6.66486 4.89426-12.20629 11.27707-13.22335z" fill="#fab70f"/>
    <path d="m142.41403 105.15848c-5.05249 0-9.16252 4.1103-9.16252 9.16252 0 5.05248 4.1103 9.16252 9.16252 9.16252h82.46374v-18.32531z" fill="#e6e9ed"/>
   </g>
   <g transform="matrix(.26458333 0 0 .26458333 112.03642 -4.79574)" fill="#a97a03">
    <path d="m106.822 77.252c-13.346 0-28.387 5.257-40.233 14.062-0.82 0.609-1.615 1.23-2.389 1.859v24.322c7.006-13.687 26.547-24.261 42.622-24.261v-7.992z"/>
    <path d="m106.822 151.851c-13.348 0-28.388 5.255-40.233 14.058-0.82 0.609-1.615 1.23-2.389 1.859v24.327c7.006-13.687 26.547-24.261 42.622-24.261v-7.992z"/>
    <path d="m106.822 226.44c-13.346 0-28.387 5.257-40.233 14.062-0.82 0.609-1.615 1.23-2.389 1.859v24.322c7.006-13.687 26.547-24.261 42.622-24.261v-7.992z"/>
    <path d="m106.822 301.029c-13.346 0-28.387 5.257-40.233 14.062-0.82 0.609-1.615 1.23-2.389 1.859v24.322c7.006-13.687 26.547-24.261 42.622-24.261v-7.992z"/>
   </g>
   <g stroke-width=".26458332">
    <path d="m174.13069 116.43555h-28.19215c-1.16787 0-2.11455-0.94668-2.11455-2.11455s0.94642-2.11455 2.11455-2.11455h28.19215c1.16787 0 2.11455 0.94641 2.11455 2.11455 0 1.16813-0.94668 2.11455-2.11455 2.11455z" fill="#ccd1d9"/>
    <path d="m168.49242 123.48378v4.22884 1.4097c0 1.16284-0.90276 1.81345-2.00607 1.44568l-4.4458-1.48166c-1.10331-0.36778-2.90883-0.36778-4.01187 0l-4.4458 1.48166c-1.10331 0.36777-2.00607-0.28284-2.00607-1.44568v-1.40679-13.39427h14.80106c1.16284 0 2.11455 5.3e-4 2.11455 1e-3v2.11587z" fill="#ed5565"/>
    <rect x="216.41957" y="105.15716" width="8.4587288" height="18.325043" fill="#ccd1d9"/>
   </g>
  </g>
  <g transform="translate(-1159.4178,255.13753)" fill="#2196f3" stroke="#fff" stroke-width="1.32291663" style="font-feature-settings:normal;font-variant-caps:normal;font-variant-ligatures:normal;font-variant-numeric:normal" aria-label="1">
   <path d="m1160.2649-43.387707-4.4649 0.124024-1.2264 1.005968v4.230577l1.1024-0.509874 0.124 13.339409h4.8232z" fill="#2196f3" stroke="#fff" stroke-width="1.32291663" style="font-feature-settings:normal;font-variant-caps:normal;font-variant-ligatures:normal;font-variant-numeric:normal"/>
  </g>
  <g transform="translate(-1140.8794,253.63007)" fill="#2196f3" stroke="#fff" stroke-width="1.32291663" style="font-feature-settings:normal;font-variant-caps:normal;font-variant-ligatures:normal;font-variant-numeric:normal" aria-label="2">
   <path d="m1201.0502-41.169313q-4.1479-2.52181-7.717-0.04134-1.7915 1.309136-3.1557 3.23839l2.7836 3.527777q0.3583-0.578776 1.006-1.074869 1.4331-1.43316 2.8801-1.129992 0.813 0.179145 0.6614 1.102431-0.124 0.785482-0.9232 2.053277-1.5021 2.356445-3.6656 3.789605-0.9371 0.799262-1.7364 1.405598l-0.3307 4.878256 11.2035 0.234266 0.014-4.671549-5.6637 0.261827q2.6872-2.480469 4.6027-5.40191 1.6812-2.54937 1.8741-4.478624 0.2618-2.411566-1.8328-3.693142z" fill="#2196f3" stroke="#fff" stroke-width="1.32291663" style="font-feature-settings:normal;font-variant-caps:normal;font-variant-ligatures:normal;font-variant-numeric:normal"/>
  </g>
 </g>
</svg>
