<?xml version="1.0" encoding="UTF-8" standalone="no"?>
<!-- Created with Inkscape (http://www.inkscape.org/) -->

<svg
   xmlns:dc="http://purl.org/dc/elements/1.1/"
   xmlns:cc="http://creativecommons.org/ns#"
   xmlns:rdf="http://www.w3.org/1999/02/22-rdf-syntax-ns#"
   xmlns:svg="http://www.w3.org/2000/svg"
   xmlns="http://www.w3.org/2000/svg"
   xmlns:sodipodi="http://sodipodi.sourceforge.net/DTD/sodipodi-0.dtd"
   xmlns:inkscape="http://www.inkscape.org/namespaces/inkscape"
   width="1220"
   height="562"
   viewBox="0 0 322.79166 148.69584"
   version="1.1"
   id="svg1111"
   inkscape:version="0.92.2 5c3e80d, 2017-08-06"
   sodipodi:docname="gato4_R.svg">
  <defs
     id="defs1105" />
  <sodipodi:namedview
     id="base"
     pagecolor="#ffffff"
     bordercolor="#666666"
     borderopacity="1.0"
     inkscape:pageopacity="0.0"
     inkscape:pageshadow="2"
     inkscape:zoom="0.41739184"
     inkscape:cx="688.15596"
     inkscape:cy="850.5672"
     inkscape:document-units="px"
     inkscape:current-layer="layer1"
     showgrid="false"
     units="px"
     inkscape:snap-global="false"
     inkscape:window-width="1920"
     inkscape:window-height="1031"
     inkscape:window-x="0"
     inkscape:window-y="1"
     inkscape:window-maximized="1"
     showguides="false"
     fit-margin-top="0"
     fit-margin-left="0"
     fit-margin-right="0"
     fit-margin-bottom="0" />
  <metadata
     id="metadata1108">
    <rdf:RDF>
      <cc:Work
         rdf:about="">
        <dc:format>image/svg+xml</dc:format>
        <dc:type
           rdf:resource="http://purl.org/dc/dcmitype/StillImage" />
        <dc:title></dc:title>
      </cc:Work>
    </rdf:RDF>
  </metadata>
  <g
     inkscape:label="Layer 1"
     inkscape:groupmode="layer"
     id="layer1"
     transform="translate(63.538284,-162.36299)">
    <g
       id="g3414"
       transform="matrix(0.26458333,0,0,0.26458333,112.03642,-4.79574)" />
    <g
       id="g3416"
       transform="matrix(0.26458333,0,0,0.26458333,112.03642,-4.79574)" />
    <g
       id="g3418"
       transform="matrix(0.26458333,0,0,0.26458333,112.03642,-4.79574)" />
    <g
       id="g3420"
       transform="matrix(0.26458333,0,0,0.26458333,112.03642,-4.79574)" />
    <g
       id="g3422"
       transform="matrix(0.26458333,0,0,0.26458333,112.03642,-4.79574)" />
    <g
       id="g3424"
       transform="matrix(0.26458333,0,0,0.26458333,112.03642,-4.79574)" />
    <g
       id="g3426"
       transform="matrix(0.26458333,0,0,0.26458333,112.03642,-4.79574)" />
    <g
       id="g3428"
       transform="matrix(0.26458333,0,0,0.26458333,112.03642,-4.79574)" />
    <g
       id="g3430"
       transform="matrix(0.26458333,0,0,0.26458333,112.03642,-4.79574)" />
    <g
       id="g3432"
       transform="matrix(0.26458333,0,0,0.26458333,112.03642,-4.79574)" />
    <g
       id="g3434"
       transform="matrix(0.26458333,0,0,0.26458333,112.03642,-4.79574)" />
    <g
       id="g3436"
       transform="matrix(0.26458333,0,0,0.26458333,112.03642,-4.79574)" />
    <g
       id="g3438"
       transform="matrix(0.26458333,0,0,0.26458333,112.03642,-4.79574)" />
    <g
       id="g3440"
       transform="matrix(0.26458333,0,0,0.26458333,112.03642,-4.79574)" />
    <g
       id="g3442"
       transform="matrix(0.26458333,0,0,0.26458333,112.03642,-4.79574)" />
    <rect
       style="opacity:0;fill:#ff0000;fill-opacity:1;stroke:none;stroke-width:0.91198415;stroke-linecap:round;stroke-miterlimit:4;stroke-dasharray:none;stroke-opacity:1"
       id="rect22252"
       width="322.79166"
       height="148.69583"
       x="-63.538284"
       y="162.36299" />
    <g
       id="g22260"
       transform="translate(-1235.5959,378.47303)">
      <rect
         style="opacity:1;fill:#2196f3;fill-opacity:1;stroke:none;stroke-width:2.72298098;stroke-linecap:round;stroke-miterlimit:4;stroke-dasharray:none;stroke-opacity:1"
         id="rect22006"
         width="309.5625"
         height="135.46666"
         x="1178.6722"
         y="-209.49544"
         rx="9.3694143"
         ry="9.3694143" />
      <rect
         ry="8.6565857"
         rx="8.9401665"
         y="-204.34227"
         x="1185.7633"
         height="125.1603"
         width="295.38028"
         id="rect22008"
         style="opacity:1;fill:#ffffff;fill-opacity:1;stroke:none;stroke-width:2.55669117;stroke-linecap:round;stroke-miterlimit:4;stroke-dasharray:none;stroke-opacity:1" />
    </g>
    <g
       id="g72266"
       transform="matrix(0.26458333,0,0,0.26458333,390.59974,351.3509)" />
    <g
       id="g72268"
       transform="matrix(0.26458333,0,0,0.26458333,390.59974,351.3509)" />
    <g
       id="g72270"
       transform="matrix(0.26458333,0,0,0.26458333,390.59974,351.3509)" />
    <g
       id="g72272"
       transform="matrix(0.26458333,0,0,0.26458333,390.59974,351.3509)" />
    <g
       id="g72274"
       transform="matrix(0.26458333,0,0,0.26458333,390.59974,351.3509)" />
    <g
       id="g72276"
       transform="matrix(0.26458333,0,0,0.26458333,390.59974,351.3509)" />
    <g
       id="g72278"
       transform="matrix(0.26458333,0,0,0.26458333,390.59974,351.3509)" />
    <g
       id="g72280"
       transform="matrix(0.26458333,0,0,0.26458333,390.59974,351.3509)" />
    <g
       id="g72282"
       transform="matrix(0.26458333,0,0,0.26458333,390.59974,351.3509)" />
    <g
       id="g72284"
       transform="matrix(0.26458333,0,0,0.26458333,390.59974,351.3509)" />
    <g
       id="g72286"
       transform="matrix(0.26458333,0,0,0.26458333,390.59974,351.3509)" />
    <g
       id="g72288"
       transform="matrix(0.26458333,0,0,0.26458333,390.59974,351.3509)" />
    <g
       id="g72290"
       transform="matrix(0.26458333,0,0,0.26458333,390.59974,351.3509)" />
    <g
       id="g72292"
       transform="matrix(0.26458333,0,0,0.26458333,390.59974,351.3509)" />
    <g
       id="g72294"
       transform="matrix(0.26458333,0,0,0.26458333,390.59974,351.3509)" />
    <g
       id="g72378"
       transform="matrix(0.26458333,0,0,0.26458333,241.6155,351.35085)" />
    <g
       id="g72380"
       transform="matrix(0.26458333,0,0,0.26458333,241.6155,351.35085)" />
    <g
       id="g72382"
       transform="matrix(0.26458333,0,0,0.26458333,241.6155,351.35085)" />
    <g
       id="g72384"
       transform="matrix(0.26458333,0,0,0.26458333,241.6155,351.35085)" />
    <g
       id="g72386"
       transform="matrix(0.26458333,0,0,0.26458333,241.6155,351.35085)" />
    <g
       id="g72388"
       transform="matrix(0.26458333,0,0,0.26458333,241.6155,351.35085)" />
    <g
       id="g72390"
       transform="matrix(0.26458333,0,0,0.26458333,241.6155,351.35085)" />
    <g
       id="g72392"
       transform="matrix(0.26458333,0,0,0.26458333,241.6155,351.35085)" />
    <g
       id="g72394"
       transform="matrix(0.26458333,0,0,0.26458333,241.6155,351.35085)" />
    <g
       id="g72396"
       transform="matrix(0.26458333,0,0,0.26458333,241.6155,351.35085)" />
    <g
       id="g72398"
       transform="matrix(0.26458333,0,0,0.26458333,241.6155,351.35085)" />
    <g
       id="g72400"
       transform="matrix(0.26458333,0,0,0.26458333,241.6155,351.35085)" />
    <g
       id="g72402"
       transform="matrix(0.26458333,0,0,0.26458333,241.6155,351.35085)" />
    <g
       id="g72404"
       transform="matrix(0.26458333,0,0,0.26458333,241.6155,351.35085)" />
    <g
       id="g72406"
       transform="matrix(0.26458333,0,0,0.26458333,241.6155,351.35085)" />
    <g
       id="g76430"
       transform="translate(-293.38086,-192.29982)">
      <path
         id="path76382"
         d="m 270.80386,404.07996 c -7.26744,0 -13.17999,-6.58954 -13.17999,-14.689 0,-3.64112 1.2043,-7.13431 3.39104,-9.8361 0.60359,-0.74579 1.63561,-0.80508 2.30487,-0.13228 0.66926,0.6728 0.72238,1.823 0.1187,2.56889 -1.64474,2.0322 -2.55073,4.65997 -2.55073,7.3996 0,6.0938 4.44837,11.0515 9.91611,11.0515 0.90134,0 1.63199,0.81431 1.63199,1.81885 -9e-5,1.00423 -0.73074,1.81854 -1.63199,1.81854 z"
         style="fill:#e9c6af;fill-opacity:1;stroke-width:0.09819823"
         inkscape:connector-curvature="0" />
      <path
         id="path76384"
         d="m 270.80386,400.44236 c -1.29917,0 -2.54039,-0.28032 -3.67837,-0.78881 -1.02644,0.65425 -1.89309,1.5829 -2.51946,2.69765 1.84862,1.1025 3.95881,1.72886 6.19802,1.72886 0.90133,0 1.63198,-0.81431 1.63198,-1.81885 -2.7e-4,-1.00454 -0.73092,-1.81885 -1.63217,-1.81885 z"
         style="opacity:0.07600002;stroke-width:0.09819823;enable-background:new"
         inkscape:connector-curvature="0" />
      <path
         id="path76386"
         d="m 287.48046,420.50176 v 0 c -1.47032,0 -2.66215,-1.3284 -2.66215,-2.96697 v -10.95945 h 5.32431 v 10.95945 c -1e-4,1.63868 -1.19183,2.96697 -2.66216,2.96697 z"
         style="opacity:0.79199997;fill:#d7b6a1;fill-opacity:1;stroke-width:0.09819823"
         inkscape:connector-curvature="0" />
      <path
         id="path76388"
         d="m 287.48046,420.42589 v 0 c -1.47032,0 -2.66215,-1.3284 -2.66215,-2.96697 v -10.95945 h 5.32431 v 10.95945 c -1e-4,1.63868 -1.19183,2.96697 -2.66216,2.96697 z"
         style="opacity:0.79199997;fill:#d7b6a1;fill-opacity:1;stroke-width:0.09819823;enable-background:new"
         inkscape:connector-curvature="0" />
      <path
         id="path76390"
         d="m 290.14252,415.35787 c -1.9648,0 -3.55753,-1.7751 -3.55753,-3.96488 0,-2.18967 1.59273,-3.96487 3.55753,-3.96487 z"
         style="fill:#7d7060;stroke-width:0.09819823"
         inkscape:connector-curvature="0" />
      <path
         id="path76392"
         d="m 284.46336,398.60464 h -10.74517 c -3.9498,0 -7.15182,3.56866 -7.15182,7.9707 v 10.95945 c 0,1.63868 1.19192,2.96697 2.66215,2.96697 1.47023,0 2.66215,-1.3284 2.66215,-2.96697 v -3.25237 c 0.58341,0.17136 1.19574,0.26363 1.82752,0.26363 h 3.39457 v 2.98874 c 0,1.63868 1.19192,2.96697 2.66215,2.96697 v 0 c 1.47033,0 2.66215,-1.3284 2.66215,-2.96697 v -2.99289 c 4.48195,-0.0874 8.09167,-4.16133 8.09167,-9.1774 v 0 c 0,-3.73328 -2.71554,-6.75986 -6.06537,-6.75986 z"
         style="fill:#e9c6af;fill-opacity:1;stroke-width:0.09819823"
         inkscape:connector-curvature="0" />
      <path
         id="path76394"
         d="m 266.5992,405.82023 c -0.021,0.2487 -0.0328,0.5003 -0.0328,0.75522 v 6.52485 c 1.80397,0 3.26639,-1.62987 3.26639,-3.6404 0,-1.9984 -1.44474,-3.61997 -3.23356,-3.63967 z"
         style="fill:#7d7060;stroke-width:0.09819823"
         inkscape:connector-curvature="0" />
      <path
         id="path76396"
         d="m 284.46336,398.60464 h -10.74517 c -1.89728,0 -3.62061,0.82489 -4.90081,2.16852 2.05596,4.13469 6.22519,7.01862 11.11873,7.01862 h 10.29952 c 0.18985,-0.77346 0.2931,-1.58663 0.2931,-2.42717 v 0 c 0,-3.73339 -2.71554,-6.75997 -6.06537,-6.75997 z"
         style="opacity:0.07999998;stroke-width:0.09819823;enable-background:new"
         inkscape:connector-curvature="0" />
      <path
         id="path76398"
         d="m 300.88258,371.05794 -7e-4,2.1e-4 c -3.10939,0.88356 -6.14184,2.07366 -9.06231,3.55435 -1.62082,-0.48154 -3.32936,-0.73925 -5.09027,-0.73925 v 0 c -1.76101,0 -3.46955,0.25771 -5.09028,0.73925 -2.92047,-1.48079 -5.95283,-2.67079 -9.0623,-3.55435 l -0.001,-2.1e-4 c -2.28831,-0.65021 -4.48594,1.35919 -4.36111,3.98737 v 0 c 0.17366,3.65315 0.64498,7.2809 1.40707,10.83899 -0.54741,1.43279 -0.93343,2.95453 -1.13183,4.54376 v 0 c -0.96227,7.70769 4.85448,14.53442 12.38423,14.53442 h 11.7104 c 7.52966,0 13.3465,-6.82673 12.38423,-14.53442 v 0 c -0.1984,-1.58913 -0.58443,-3.11087 -1.13183,-4.54366 0.76209,-3.55819 1.23331,-7.18594 1.40698,-10.83898 v 0 c 0.12482,-2.62829 -2.07289,-4.63769 -4.36121,-3.98748 z"
         style="fill:#e9c6af;fill-opacity:1;stroke-width:0.09819823"
         inkscape:connector-curvature="0" />
      <g
         style="fill:#424242;fill-opacity:1"
         transform="matrix(0.09301727,0,0,0.10366776,257.62387,369.17927)"
         id="g76404">
        <path
           id="path76400"
           d="m 231.399,193.183 c -4.497,0 -8.142,-3.645 -8.142,-8.142 v -12.975 c 0,-4.496 3.644,-8.142 8.142,-8.142 4.497,0 8.142,3.645 8.142,8.142 v 12.975 c -0.001,4.497 -3.645,8.142 -8.142,8.142 z"
           style="fill:#424242;fill-opacity:1"
           inkscape:connector-curvature="0" />
        <path
           id="path76402"
           d="m 394.4,193.183 c -4.497,0 -8.142,-3.645 -8.142,-8.142 v -12.975 c 0,-4.496 3.644,-8.142 8.142,-8.142 4.497,0 8.142,3.645 8.142,8.142 v 12.975 c -10e-4,4.497 -3.645,8.142 -8.142,8.142 z"
           style="fill:#424242;fill-opacity:1"
           inkscape:connector-curvature="0" />
      </g>
      <path
         id="path76406"
         d="m 299.76395,375.3246 -3.5e-4,1e-4 c -1.43349,0.40741 -2.83042,0.96048 -4.17331,1.65225 -0.63075,0.325 -0.80423,1.23438 -0.34668,1.8172 v 0 c 1.22755,1.56341 2.67844,2.89004 4.29405,3.92631 0.60229,0.38637 1.36875,0.019 1.53134,-0.73397 l 10e-5,-3.9e-4 c 0.3463,-1.60281 0.56015,-3.23775 0.63837,-4.88431 0.0558,-1.17124 -0.92366,-2.06693 -1.9435,-1.77707 z"
         style="fill:#e9afc6;stroke-width:0.09819823"
         inkscape:connector-curvature="0" />
      <path
         id="path76408"
         d="m 272.57621,371.05815 -10e-4,-2.1e-4 c -1.43749,-0.40855 -2.8388,0.23294 -3.6514,1.41766 0.5635,2.84972 2.84159,4.98237 5.56792,4.98237 2.32553,0 4.32465,-1.55221 5.21223,-3.77693 -2.31781,-1.05606 -4.69933,-1.93278 -7.12782,-2.62289 z"
         style="fill:#7d7060;stroke-width:0.09819823"
         inkscape:connector-curvature="0" />
      <path
         id="path76410"
         d="m 271.7504,377.10167 v 0 c 0.0782,1.64645 0.29189,3.28129 0.63838,4.8843 l 10e-5,4e-4 c 0.16268,0.75294 0.92905,1.12033 1.53134,0.73396 v 0 c 1.61571,-1.03615 3.06659,-2.36279 4.29414,-3.92631 v 0 c 0.45765,-0.58282 0.28417,-1.49219 -0.34668,-1.81719 v 0 c -1.34289,-0.69188 -2.73972,-1.24495 -4.17331,-1.65226 l -3.5e-4,-10e-5 c -1.01984,-0.28986 -1.99931,0.60583 -1.94359,1.77707 z"
         style="fill:#e9afc6;stroke-width:0.09819823"
         inkscape:connector-curvature="0" />
      <g
         style="fill:#424242;fill-opacity:1"
         transform="matrix(0.09301727,0,0,0.10366776,257.62387,369.17927)"
         id="g76422">
        <path
           id="path76412"
           d="m 341.211,215.128 -6.589,7.848 c -11.335,13.5 -32.109,13.5 -43.445,0 l -6.589,-7.848 c -3.396,-4.044 -0.521,-10.212 4.759,-10.212 h 47.105 c 5.28,0.001 8.155,6.169 4.759,10.212 z"
           style="fill:#424242;fill-opacity:1"
           inkscape:connector-curvature="0" />
        <path
           id="path76414"
           d="m 169.953,244.066 c -4.06,0 -7.574,-3.033 -8.072,-7.167 -0.538,-4.464 2.642,-8.52 7.107,-9.059 l 45.475,-5.493 c 4.475,-0.543 8.52,2.642 9.06,7.106 0.538,4.464 -2.643,8.52 -7.107,9.059 l -45.475,5.493 c -0.334,0.041 -0.664,0.061 -0.988,0.061 z"
           style="fill:#424242;fill-opacity:1"
           inkscape:connector-curvature="0" />
        <path
           id="path76416"
           d="m 188.698,291.914 c -2.414,0 -4.804,-1.068 -6.409,-3.114 -2.777,-3.537 -2.16,-8.655 1.378,-11.432 l 36.028,-28.285 c 3.537,-2.778 8.655,-2.16 11.431,1.376 2.777,3.537 2.16,8.655 -1.376,11.432 l -36.029,28.285 c -1.492,1.171 -3.265,1.738 -5.023,1.738 z"
           style="fill:#424242;fill-opacity:1"
           inkscape:connector-curvature="0" />
        <path
           id="path76418"
           d="m 455.847,244.066 c -0.327,0 -0.655,-0.02 -0.987,-0.06 l -45.475,-5.493 c -4.464,-0.54 -7.645,-4.595 -7.107,-9.059 0.54,-4.465 4.606,-7.647 9.06,-7.106 l 45.475,5.493 c 4.464,0.54 7.645,4.595 7.107,9.059 -0.5,4.132 -4.013,7.166 -8.073,7.166 z"
           style="fill:#424242;fill-opacity:1"
           inkscape:connector-curvature="0" />
        <path
           id="path76420"
           d="m 437.101,291.914 c -1.76,0 -3.531,-0.568 -5.023,-1.738 l -36.027,-28.285 c -3.537,-2.777 -4.152,-7.895 -1.376,-11.432 2.778,-3.537 7.894,-4.151 11.432,-1.376 l 36.027,28.285 c 3.537,2.777 4.152,7.895 1.376,11.432 -1.606,2.045 -3.995,3.114 -6.409,3.114 z"
           style="fill:#424242;fill-opacity:1"
           inkscape:connector-curvature="0" />
      </g>
      <g
         transform="matrix(0.19325318,0,0,0.2153807,195.24535,309.80505)"
         id="g76428">
        <path
           id="path76424"
           d="m 473.38842,441.81042 c -7.00299,0 -12.7,5.69727 -12.7,12.7 0,7.00273 5.69701,12.7 12.7,12.7 7.00299,0 12.7,-5.69727 12.7,-12.7 0,-7.00273 -5.69701,-12.7 -12.7,-12.7 z"
           style="fill:#fdc572;stroke-width:0.26458332"
           inkscape:connector-curvature="0" />
        <path
           id="path76426"
           d="m 477.62175,452.39375 h -2.11667 v -6.35 c 0,-1.16893 -0.94773,-2.11666 -2.11666,-2.11666 -1.16893,0 -2.11667,0.94773 -2.11667,2.11666 v 6.35 h -2.11667 c -1.16893,0 -2.11666,0.94774 -2.11666,2.11667 0,1.16893 0.94773,2.11667 2.11666,2.11667 h 8.46667 c 1.16893,0 2.11667,-0.94774 2.11667,-2.11667 0,-1.16893 -0.94774,-2.11667 -2.11667,-2.11667 z"
           style="fill:#e8a848;stroke-width:0.26458332"
           inkscape:connector-curvature="0" />
      </g>
    </g>
    <g
       transform="translate(-128.6778,-192.29982)"
       id="g76530">
      <path
         inkscape:connector-curvature="0"
         style="fill:#e9c6af;fill-opacity:1;stroke-width:0.09819823"
         d="m 270.80386,404.07996 c -7.26744,0 -13.17999,-6.58954 -13.17999,-14.689 0,-3.64112 1.2043,-7.13431 3.39104,-9.8361 0.60359,-0.74579 1.63561,-0.80508 2.30487,-0.13228 0.66926,0.6728 0.72238,1.823 0.1187,2.56889 -1.64474,2.0322 -2.55073,4.65997 -2.55073,7.3996 0,6.0938 4.44837,11.0515 9.91611,11.0515 0.90134,0 1.63199,0.81431 1.63199,1.81885 -9e-5,1.00423 -0.73074,1.81854 -1.63199,1.81854 z"
         id="path76482" />
      <path
         inkscape:connector-curvature="0"
         style="opacity:0.07600002;stroke-width:0.09819823;enable-background:new"
         d="m 270.80386,400.44236 c -1.29917,0 -2.54039,-0.28032 -3.67837,-0.78881 -1.02644,0.65425 -1.89309,1.5829 -2.51946,2.69765 1.84862,1.1025 3.95881,1.72886 6.19802,1.72886 0.90133,0 1.63198,-0.81431 1.63198,-1.81885 -2.7e-4,-1.00454 -0.73092,-1.81885 -1.63217,-1.81885 z"
         id="path76484" />
      <path
         inkscape:connector-curvature="0"
         style="opacity:0.79199997;fill:#d7b6a1;fill-opacity:1;stroke-width:0.09819823"
         d="m 287.48046,420.50176 v 0 c -1.47032,0 -2.66215,-1.3284 -2.66215,-2.96697 v -10.95945 h 5.32431 v 10.95945 c -1e-4,1.63868 -1.19183,2.96697 -2.66216,2.96697 z"
         id="path76486" />
      <path
         inkscape:connector-curvature="0"
         style="opacity:0.79199997;fill:#d7b6a1;fill-opacity:1;stroke-width:0.09819823;enable-background:new"
         d="m 287.48046,420.42589 v 0 c -1.47032,0 -2.66215,-1.3284 -2.66215,-2.96697 v -10.95945 h 5.32431 v 10.95945 c -1e-4,1.63868 -1.19183,2.96697 -2.66216,2.96697 z"
         id="path76488" />
      <path
         inkscape:connector-curvature="0"
         style="fill:#7d7060;stroke-width:0.09819823"
         d="m 290.14252,415.35787 c -1.9648,0 -3.55753,-1.7751 -3.55753,-3.96488 0,-2.18967 1.59273,-3.96487 3.55753,-3.96487 z"
         id="path76490" />
      <path
         inkscape:connector-curvature="0"
         style="fill:#e9c6af;fill-opacity:1;stroke-width:0.09819823"
         d="m 284.46336,398.60464 h -10.74517 c -3.9498,0 -7.15182,3.56866 -7.15182,7.9707 v 10.95945 c 0,1.63868 1.19192,2.96697 2.66215,2.96697 1.47023,0 2.66215,-1.3284 2.66215,-2.96697 v -3.25237 c 0.58341,0.17136 1.19574,0.26363 1.82752,0.26363 h 3.39457 v 2.98874 c 0,1.63868 1.19192,2.96697 2.66215,2.96697 v 0 c 1.47033,0 2.66215,-1.3284 2.66215,-2.96697 v -2.99289 c 4.48195,-0.0874 8.09167,-4.16133 8.09167,-9.1774 v 0 c 0,-3.73328 -2.71554,-6.75986 -6.06537,-6.75986 z"
         id="path76492" />
      <path
         inkscape:connector-curvature="0"
         style="fill:#7d7060;stroke-width:0.09819823"
         d="m 266.5992,405.82023 c -0.021,0.2487 -0.0328,0.5003 -0.0328,0.75522 v 6.52485 c 1.80397,0 3.26639,-1.62987 3.26639,-3.6404 0,-1.9984 -1.44474,-3.61997 -3.23356,-3.63967 z"
         id="path76494" />
      <path
         inkscape:connector-curvature="0"
         style="opacity:0.07999998;stroke-width:0.09819823;enable-background:new"
         d="m 284.46336,398.60464 h -10.74517 c -1.89728,0 -3.62061,0.82489 -4.90081,2.16852 2.05596,4.13469 6.22519,7.01862 11.11873,7.01862 h 10.29952 c 0.18985,-0.77346 0.2931,-1.58663 0.2931,-2.42717 v 0 c 0,-3.73339 -2.71554,-6.75997 -6.06537,-6.75997 z"
         id="path76496" />
      <path
         inkscape:connector-curvature="0"
         style="fill:#e9c6af;fill-opacity:1;stroke-width:0.09819823"
         d="m 300.88258,371.05794 -7e-4,2.1e-4 c -3.10939,0.88356 -6.14184,2.07366 -9.06231,3.55435 -1.62082,-0.48154 -3.32936,-0.73925 -5.09027,-0.73925 v 0 c -1.76101,0 -3.46955,0.25771 -5.09028,0.73925 -2.92047,-1.48079 -5.95283,-2.67079 -9.0623,-3.55435 l -0.001,-2.1e-4 c -2.28831,-0.65021 -4.48594,1.35919 -4.36111,3.98737 v 0 c 0.17366,3.65315 0.64498,7.2809 1.40707,10.83899 -0.54741,1.43279 -0.93343,2.95453 -1.13183,4.54376 v 0 c -0.96227,7.70769 4.85448,14.53442 12.38423,14.53442 h 11.7104 c 7.52966,0 13.3465,-6.82673 12.38423,-14.53442 v 0 c -0.1984,-1.58913 -0.58443,-3.11087 -1.13183,-4.54366 0.76209,-3.55819 1.23331,-7.18594 1.40698,-10.83898 v 0 c 0.12482,-2.62829 -2.07289,-4.63769 -4.36121,-3.98748 z"
         id="path76498" />
      <g
         id="g76504"
         transform="matrix(0.09301727,0,0,0.10366776,257.62387,369.17927)"
         style="fill:#424242;fill-opacity:1">
        <path
           inkscape:connector-curvature="0"
           style="fill:#424242;fill-opacity:1"
           d="m 231.399,193.183 c -4.497,0 -8.142,-3.645 -8.142,-8.142 v -12.975 c 0,-4.496 3.644,-8.142 8.142,-8.142 4.497,0 8.142,3.645 8.142,8.142 v 12.975 c -0.001,4.497 -3.645,8.142 -8.142,8.142 z"
           id="path76500" />
        <path
           inkscape:connector-curvature="0"
           style="fill:#424242;fill-opacity:1"
           d="m 394.4,193.183 c -4.497,0 -8.142,-3.645 -8.142,-8.142 v -12.975 c 0,-4.496 3.644,-8.142 8.142,-8.142 4.497,0 8.142,3.645 8.142,8.142 v 12.975 c -10e-4,4.497 -3.645,8.142 -8.142,8.142 z"
           id="path76502" />
      </g>
      <path
         inkscape:connector-curvature="0"
         style="fill:#e9afc6;stroke-width:0.09819823"
         d="m 299.76395,375.3246 -3.5e-4,1e-4 c -1.43349,0.40741 -2.83042,0.96048 -4.17331,1.65225 -0.63075,0.325 -0.80423,1.23438 -0.34668,1.8172 v 0 c 1.22755,1.56341 2.67844,2.89004 4.29405,3.92631 0.60229,0.38637 1.36875,0.019 1.53134,-0.73397 l 10e-5,-3.9e-4 c 0.3463,-1.60281 0.56015,-3.23775 0.63837,-4.88431 0.0558,-1.17124 -0.92366,-2.06693 -1.9435,-1.77707 z"
         id="path76506" />
      <path
         inkscape:connector-curvature="0"
         style="fill:#7d7060;stroke-width:0.09819823"
         d="m 272.57621,371.05815 -10e-4,-2.1e-4 c -1.43749,-0.40855 -2.8388,0.23294 -3.6514,1.41766 0.5635,2.84972 2.84159,4.98237 5.56792,4.98237 2.32553,0 4.32465,-1.55221 5.21223,-3.77693 -2.31781,-1.05606 -4.69933,-1.93278 -7.12782,-2.62289 z"
         id="path76508" />
      <path
         inkscape:connector-curvature="0"
         style="fill:#e9afc6;stroke-width:0.09819823"
         d="m 271.7504,377.10167 v 0 c 0.0782,1.64645 0.29189,3.28129 0.63838,4.8843 l 10e-5,4e-4 c 0.16268,0.75294 0.92905,1.12033 1.53134,0.73396 v 0 c 1.61571,-1.03615 3.06659,-2.36279 4.29414,-3.92631 v 0 c 0.45765,-0.58282 0.28417,-1.49219 -0.34668,-1.81719 v 0 c -1.34289,-0.69188 -2.73972,-1.24495 -4.17331,-1.65226 l -3.5e-4,-10e-5 c -1.01984,-0.28986 -1.99931,0.60583 -1.94359,1.77707 z"
         id="path76510" />
      <g
         id="g76522"
         transform="matrix(0.09301727,0,0,0.10366776,257.62387,369.17927)"
         style="fill:#424242;fill-opacity:1">
        <path
           inkscape:connector-curvature="0"
           style="fill:#424242;fill-opacity:1"
           d="m 341.211,215.128 -6.589,7.848 c -11.335,13.5 -32.109,13.5 -43.445,0 l -6.589,-7.848 c -3.396,-4.044 -0.521,-10.212 4.759,-10.212 h 47.105 c 5.28,0.001 8.155,6.169 4.759,10.212 z"
           id="path76512" />
        <path
           inkscape:connector-curvature="0"
           style="fill:#424242;fill-opacity:1"
           d="m 169.953,244.066 c -4.06,0 -7.574,-3.033 -8.072,-7.167 -0.538,-4.464 2.642,-8.52 7.107,-9.059 l 45.475,-5.493 c 4.475,-0.543 8.52,2.642 9.06,7.106 0.538,4.464 -2.643,8.52 -7.107,9.059 l -45.475,5.493 c -0.334,0.041 -0.664,0.061 -0.988,0.061 z"
           id="path76514" />
        <path
           inkscape:connector-curvature="0"
           style="fill:#424242;fill-opacity:1"
           d="m 188.698,291.914 c -2.414,0 -4.804,-1.068 -6.409,-3.114 -2.777,-3.537 -2.16,-8.655 1.378,-11.432 l 36.028,-28.285 c 3.537,-2.778 8.655,-2.16 11.431,1.376 2.777,3.537 2.16,8.655 -1.376,11.432 l -36.029,28.285 c -1.492,1.171 -3.265,1.738 -5.023,1.738 z"
           id="path76516" />
        <path
           inkscape:connector-curvature="0"
           style="fill:#424242;fill-opacity:1"
           d="m 455.847,244.066 c -0.327,0 -0.655,-0.02 -0.987,-0.06 l -45.475,-5.493 c -4.464,-0.54 -7.645,-4.595 -7.107,-9.059 0.54,-4.465 4.606,-7.647 9.06,-7.106 l 45.475,5.493 c 4.464,0.54 7.645,4.595 7.107,9.059 -0.5,4.132 -4.013,7.166 -8.073,7.166 z"
           id="path76518" />
        <path
           inkscape:connector-curvature="0"
           style="fill:#424242;fill-opacity:1"
           d="m 437.101,291.914 c -1.76,0 -3.531,-0.568 -5.023,-1.738 l -36.027,-28.285 c -3.537,-2.777 -4.152,-7.895 -1.376,-11.432 2.778,-3.537 7.894,-4.151 11.432,-1.376 l 36.027,28.285 c 3.537,2.777 4.152,7.895 1.376,11.432 -1.606,2.045 -3.995,3.114 -6.409,3.114 z"
           id="path76520" />
      </g>
      <g
         id="g76528"
         transform="matrix(0.19325318,0,0,0.2153807,195.24535,309.80505)">
        <path
           inkscape:connector-curvature="0"
           style="fill:#fdc572;stroke-width:0.26458332"
           d="m 473.38842,441.81042 c -7.00299,0 -12.7,5.69727 -12.7,12.7 0,7.00273 5.69701,12.7 12.7,12.7 7.00299,0 12.7,-5.69727 12.7,-12.7 0,-7.00273 -5.69701,-12.7 -12.7,-12.7 z"
           id="path76524" />
        <path
           inkscape:connector-curvature="0"
           style="fill:#e8a848;stroke-width:0.26458332"
           d="m 477.62175,452.39375 h -2.11667 v -6.35 c 0,-1.16893 -0.94773,-2.11666 -2.11666,-2.11666 -1.16893,0 -2.11667,0.94773 -2.11667,2.11666 v 6.35 h -2.11667 c -1.16893,0 -2.11666,0.94774 -2.11666,2.11667 0,1.16893 0.94773,2.11667 2.11666,2.11667 h 8.46667 c 1.16893,0 2.11667,-0.94774 2.11667,-2.11667 0,-1.16893 -0.94774,-2.11667 -2.11667,-2.11667 z"
           id="path76526" />
      </g>
    </g>
    <g
       id="g76580"
       transform="translate(-183.57882,-192.29982)">
      <path
         id="path76532"
         d="m 270.80386,404.07996 c -7.26744,0 -13.17999,-6.58954 -13.17999,-14.689 0,-3.64112 1.2043,-7.13431 3.39104,-9.8361 0.60359,-0.74579 1.63561,-0.80508 2.30487,-0.13228 0.66926,0.6728 0.72238,1.823 0.1187,2.56889 -1.64474,2.0322 -2.55073,4.65997 -2.55073,7.3996 0,6.0938 4.44837,11.0515 9.91611,11.0515 0.90134,0 1.63199,0.81431 1.63199,1.81885 -9e-5,1.00423 -0.73074,1.81854 -1.63199,1.81854 z"
         style="fill:#e9c6af;fill-opacity:1;stroke-width:0.09819823"
         inkscape:connector-curvature="0" />
      <path
         id="path76534"
         d="m 270.80386,400.44236 c -1.29917,0 -2.54039,-0.28032 -3.67837,-0.78881 -1.02644,0.65425 -1.89309,1.5829 -2.51946,2.69765 1.84862,1.1025 3.95881,1.72886 6.19802,1.72886 0.90133,0 1.63198,-0.81431 1.63198,-1.81885 -2.7e-4,-1.00454 -0.73092,-1.81885 -1.63217,-1.81885 z"
         style="opacity:0.07600002;stroke-width:0.09819823;enable-background:new"
         inkscape:connector-curvature="0" />
      <path
         id="path76536"
         d="m 287.48046,420.50176 v 0 c -1.47032,0 -2.66215,-1.3284 -2.66215,-2.96697 v -10.95945 h 5.32431 v 10.95945 c -1e-4,1.63868 -1.19183,2.96697 -2.66216,2.96697 z"
         style="opacity:0.79199997;fill:#d7b6a1;fill-opacity:1;stroke-width:0.09819823"
         inkscape:connector-curvature="0" />
      <path
         id="path76538"
         d="m 287.48046,420.42589 v 0 c -1.47032,0 -2.66215,-1.3284 -2.66215,-2.96697 v -10.95945 h 5.32431 v 10.95945 c -1e-4,1.63868 -1.19183,2.96697 -2.66216,2.96697 z"
         style="opacity:0.79199997;fill:#d7b6a1;fill-opacity:1;stroke-width:0.09819823;enable-background:new"
         inkscape:connector-curvature="0" />
      <path
         id="path76540"
         d="m 290.14252,415.35787 c -1.9648,0 -3.55753,-1.7751 -3.55753,-3.96488 0,-2.18967 1.59273,-3.96487 3.55753,-3.96487 z"
         style="fill:#7d7060;stroke-width:0.09819823"
         inkscape:connector-curvature="0" />
      <path
         id="path76542"
         d="m 284.46336,398.60464 h -10.74517 c -3.9498,0 -7.15182,3.56866 -7.15182,7.9707 v 10.95945 c 0,1.63868 1.19192,2.96697 2.66215,2.96697 1.47023,0 2.66215,-1.3284 2.66215,-2.96697 v -3.25237 c 0.58341,0.17136 1.19574,0.26363 1.82752,0.26363 h 3.39457 v 2.98874 c 0,1.63868 1.19192,2.96697 2.66215,2.96697 v 0 c 1.47033,0 2.66215,-1.3284 2.66215,-2.96697 v -2.99289 c 4.48195,-0.0874 8.09167,-4.16133 8.09167,-9.1774 v 0 c 0,-3.73328 -2.71554,-6.75986 -6.06537,-6.75986 z"
         style="fill:#e9c6af;fill-opacity:1;stroke-width:0.09819823"
         inkscape:connector-curvature="0" />
      <path
         id="path76544"
         d="m 266.5992,405.82023 c -0.021,0.2487 -0.0328,0.5003 -0.0328,0.75522 v 6.52485 c 1.80397,0 3.26639,-1.62987 3.26639,-3.6404 0,-1.9984 -1.44474,-3.61997 -3.23356,-3.63967 z"
         style="fill:#7d7060;stroke-width:0.09819823"
         inkscape:connector-curvature="0" />
      <path
         id="path76546"
         d="m 284.46336,398.60464 h -10.74517 c -1.89728,0 -3.62061,0.82489 -4.90081,2.16852 2.05596,4.13469 6.22519,7.01862 11.11873,7.01862 h 10.29952 c 0.18985,-0.77346 0.2931,-1.58663 0.2931,-2.42717 v 0 c 0,-3.73339 -2.71554,-6.75997 -6.06537,-6.75997 z"
         style="opacity:0.07999998;stroke-width:0.09819823;enable-background:new"
         inkscape:connector-curvature="0" />
      <path
         id="path76548"
         d="m 300.88258,371.05794 -7e-4,2.1e-4 c -3.10939,0.88356 -6.14184,2.07366 -9.06231,3.55435 -1.62082,-0.48154 -3.32936,-0.73925 -5.09027,-0.73925 v 0 c -1.76101,0 -3.46955,0.25771 -5.09028,0.73925 -2.92047,-1.48079 -5.95283,-2.67079 -9.0623,-3.55435 l -0.001,-2.1e-4 c -2.28831,-0.65021 -4.48594,1.35919 -4.36111,3.98737 v 0 c 0.17366,3.65315 0.64498,7.2809 1.40707,10.83899 -0.54741,1.43279 -0.93343,2.95453 -1.13183,4.54376 v 0 c -0.96227,7.70769 4.85448,14.53442 12.38423,14.53442 h 11.7104 c 7.52966,0 13.3465,-6.82673 12.38423,-14.53442 v 0 c -0.1984,-1.58913 -0.58443,-3.11087 -1.13183,-4.54366 0.76209,-3.55819 1.23331,-7.18594 1.40698,-10.83898 v 0 c 0.12482,-2.62829 -2.07289,-4.63769 -4.36121,-3.98748 z"
         style="fill:#e9c6af;fill-opacity:1;stroke-width:0.09819823"
         inkscape:connector-curvature="0" />
      <g
         style="fill:#424242;fill-opacity:1"
         transform="matrix(0.09301727,0,0,0.10366776,257.62387,369.17927)"
         id="g76554">
        <path
           id="path76550"
           d="m 231.399,193.183 c -4.497,0 -8.142,-3.645 -8.142,-8.142 v -12.975 c 0,-4.496 3.644,-8.142 8.142,-8.142 4.497,0 8.142,3.645 8.142,8.142 v 12.975 c -0.001,4.497 -3.645,8.142 -8.142,8.142 z"
           style="fill:#424242;fill-opacity:1"
           inkscape:connector-curvature="0" />
        <path
           id="path76552"
           d="m 394.4,193.183 c -4.497,0 -8.142,-3.645 -8.142,-8.142 v -12.975 c 0,-4.496 3.644,-8.142 8.142,-8.142 4.497,0 8.142,3.645 8.142,8.142 v 12.975 c -10e-4,4.497 -3.645,8.142 -8.142,8.142 z"
           style="fill:#424242;fill-opacity:1"
           inkscape:connector-curvature="0" />
      </g>
      <path
         id="path76556"
         d="m 299.76395,375.3246 -3.5e-4,1e-4 c -1.43349,0.40741 -2.83042,0.96048 -4.17331,1.65225 -0.63075,0.325 -0.80423,1.23438 -0.34668,1.8172 v 0 c 1.22755,1.56341 2.67844,2.89004 4.29405,3.92631 0.60229,0.38637 1.36875,0.019 1.53134,-0.73397 l 10e-5,-3.9e-4 c 0.3463,-1.60281 0.56015,-3.23775 0.63837,-4.88431 0.0558,-1.17124 -0.92366,-2.06693 -1.9435,-1.77707 z"
         style="fill:#e9afc6;stroke-width:0.09819823"
         inkscape:connector-curvature="0" />
      <path
         id="path76558"
         d="m 272.57621,371.05815 -10e-4,-2.1e-4 c -1.43749,-0.40855 -2.8388,0.23294 -3.6514,1.41766 0.5635,2.84972 2.84159,4.98237 5.56792,4.98237 2.32553,0 4.32465,-1.55221 5.21223,-3.77693 -2.31781,-1.05606 -4.69933,-1.93278 -7.12782,-2.62289 z"
         style="fill:#7d7060;stroke-width:0.09819823"
         inkscape:connector-curvature="0" />
      <path
         id="path76560"
         d="m 271.7504,377.10167 v 0 c 0.0782,1.64645 0.29189,3.28129 0.63838,4.8843 l 10e-5,4e-4 c 0.16268,0.75294 0.92905,1.12033 1.53134,0.73396 v 0 c 1.61571,-1.03615 3.06659,-2.36279 4.29414,-3.92631 v 0 c 0.45765,-0.58282 0.28417,-1.49219 -0.34668,-1.81719 v 0 c -1.34289,-0.69188 -2.73972,-1.24495 -4.17331,-1.65226 l -3.5e-4,-10e-5 c -1.01984,-0.28986 -1.99931,0.60583 -1.94359,1.77707 z"
         style="fill:#e9afc6;stroke-width:0.09819823"
         inkscape:connector-curvature="0" />
      <g
         style="fill:#424242;fill-opacity:1"
         transform="matrix(0.09301727,0,0,0.10366776,257.62387,369.17927)"
         id="g76572">
        <path
           id="path76562"
           d="m 341.211,215.128 -6.589,7.848 c -11.335,13.5 -32.109,13.5 -43.445,0 l -6.589,-7.848 c -3.396,-4.044 -0.521,-10.212 4.759,-10.212 h 47.105 c 5.28,0.001 8.155,6.169 4.759,10.212 z"
           style="fill:#424242;fill-opacity:1"
           inkscape:connector-curvature="0" />
        <path
           id="path76564"
           d="m 169.953,244.066 c -4.06,0 -7.574,-3.033 -8.072,-7.167 -0.538,-4.464 2.642,-8.52 7.107,-9.059 l 45.475,-5.493 c 4.475,-0.543 8.52,2.642 9.06,7.106 0.538,4.464 -2.643,8.52 -7.107,9.059 l -45.475,5.493 c -0.334,0.041 -0.664,0.061 -0.988,0.061 z"
           style="fill:#424242;fill-opacity:1"
           inkscape:connector-curvature="0" />
        <path
           id="path76566"
           d="m 188.698,291.914 c -2.414,0 -4.804,-1.068 -6.409,-3.114 -2.777,-3.537 -2.16,-8.655 1.378,-11.432 l 36.028,-28.285 c 3.537,-2.778 8.655,-2.16 11.431,1.376 2.777,3.537 2.16,8.655 -1.376,11.432 l -36.029,28.285 c -1.492,1.171 -3.265,1.738 -5.023,1.738 z"
           style="fill:#424242;fill-opacity:1"
           inkscape:connector-curvature="0" />
        <path
           id="path76568"
           d="m 455.847,244.066 c -0.327,0 -0.655,-0.02 -0.987,-0.06 l -45.475,-5.493 c -4.464,-0.54 -7.645,-4.595 -7.107,-9.059 0.54,-4.465 4.606,-7.647 9.06,-7.106 l 45.475,5.493 c 4.464,0.54 7.645,4.595 7.107,9.059 -0.5,4.132 -4.013,7.166 -8.073,7.166 z"
           style="fill:#424242;fill-opacity:1"
           inkscape:connector-curvature="0" />
        <path
           id="path76570"
           d="m 437.101,291.914 c -1.76,0 -3.531,-0.568 -5.023,-1.738 l -36.027,-28.285 c -3.537,-2.777 -4.152,-7.895 -1.376,-11.432 2.778,-3.537 7.894,-4.151 11.432,-1.376 l 36.027,28.285 c 3.537,2.777 4.152,7.895 1.376,11.432 -1.606,2.045 -3.995,3.114 -6.409,3.114 z"
           style="fill:#424242;fill-opacity:1"
           inkscape:connector-curvature="0" />
      </g>
      <g
         transform="matrix(0.19325318,0,0,0.2153807,195.24535,309.80505)"
         id="g76578">
        <path
           id="path76574"
           d="m 473.38842,441.81042 c -7.00299,0 -12.7,5.69727 -12.7,12.7 0,7.00273 5.69701,12.7 12.7,12.7 7.00299,0 12.7,-5.69727 12.7,-12.7 0,-7.00273 -5.69701,-12.7 -12.7,-12.7 z"
           style="fill:#fdc572;stroke-width:0.26458332"
           inkscape:connector-curvature="0" />
        <path
           id="path76576"
           d="m 477.62175,452.39375 h -2.11667 v -6.35 c 0,-1.16893 -0.94773,-2.11666 -2.11666,-2.11666 -1.16893,0 -2.11667,0.94773 -2.11667,2.11666 v 6.35 h -2.11667 c -1.16893,0 -2.11666,0.94774 -2.11666,2.11667 0,1.16893 0.94773,2.11667 2.11666,2.11667 h 8.46667 c 1.16893,0 2.11667,-0.94774 2.11667,-2.11667 0,-1.16893 -0.94774,-2.11667 -2.11667,-2.11667 z"
           style="fill:#e8a848;stroke-width:0.26458332"
           inkscape:connector-curvature="0" />
      </g>
    </g>
    <g
       transform="translate(-238.47984,-192.29982)"
       id="g76630">
      <path
         inkscape:connector-curvature="0"
         style="fill:#e9c6af;fill-opacity:1;stroke-width:0.09819823"
         d="m 270.80386,404.07996 c -7.26744,0 -13.17999,-6.58954 -13.17999,-14.689 0,-3.64112 1.2043,-7.13431 3.39104,-9.8361 0.60359,-0.74579 1.63561,-0.80508 2.30487,-0.13228 0.66926,0.6728 0.72238,1.823 0.1187,2.56889 -1.64474,2.0322 -2.55073,4.65997 -2.55073,7.3996 0,6.0938 4.44837,11.0515 9.91611,11.0515 0.90134,0 1.63199,0.81431 1.63199,1.81885 -9e-5,1.00423 -0.73074,1.81854 -1.63199,1.81854 z"
         id="path76582" />
      <path
         inkscape:connector-curvature="0"
         style="opacity:0.07600002;stroke-width:0.09819823;enable-background:new"
         d="m 270.80386,400.44236 c -1.29917,0 -2.54039,-0.28032 -3.67837,-0.78881 -1.02644,0.65425 -1.89309,1.5829 -2.51946,2.69765 1.84862,1.1025 3.95881,1.72886 6.19802,1.72886 0.90133,0 1.63198,-0.81431 1.63198,-1.81885 -2.7e-4,-1.00454 -0.73092,-1.81885 -1.63217,-1.81885 z"
         id="path76584" />
      <path
         inkscape:connector-curvature="0"
         style="opacity:0.79199997;fill:#d7b6a1;fill-opacity:1;stroke-width:0.09819823"
         d="m 287.48046,420.50176 v 0 c -1.47032,0 -2.66215,-1.3284 -2.66215,-2.96697 v -10.95945 h 5.32431 v 10.95945 c -1e-4,1.63868 -1.19183,2.96697 -2.66216,2.96697 z"
         id="path76586" />
      <path
         inkscape:connector-curvature="0"
         style="opacity:0.79199997;fill:#d7b6a1;fill-opacity:1;stroke-width:0.09819823;enable-background:new"
         d="m 287.48046,420.42589 v 0 c -1.47032,0 -2.66215,-1.3284 -2.66215,-2.96697 v -10.95945 h 5.32431 v 10.95945 c -1e-4,1.63868 -1.19183,2.96697 -2.66216,2.96697 z"
         id="path76588" />
      <path
         inkscape:connector-curvature="0"
         style="fill:#7d7060;stroke-width:0.09819823"
         d="m 290.14252,415.35787 c -1.9648,0 -3.55753,-1.7751 -3.55753,-3.96488 0,-2.18967 1.59273,-3.96487 3.55753,-3.96487 z"
         id="path76590" />
      <path
         inkscape:connector-curvature="0"
         style="fill:#e9c6af;fill-opacity:1;stroke-width:0.09819823"
         d="m 284.46336,398.60464 h -10.74517 c -3.9498,0 -7.15182,3.56866 -7.15182,7.9707 v 10.95945 c 0,1.63868 1.19192,2.96697 2.66215,2.96697 1.47023,0 2.66215,-1.3284 2.66215,-2.96697 v -3.25237 c 0.58341,0.17136 1.19574,0.26363 1.82752,0.26363 h 3.39457 v 2.98874 c 0,1.63868 1.19192,2.96697 2.66215,2.96697 v 0 c 1.47033,0 2.66215,-1.3284 2.66215,-2.96697 v -2.99289 c 4.48195,-0.0874 8.09167,-4.16133 8.09167,-9.1774 v 0 c 0,-3.73328 -2.71554,-6.75986 -6.06537,-6.75986 z"
         id="path76592" />
      <path
         inkscape:connector-curvature="0"
         style="fill:#7d7060;stroke-width:0.09819823"
         d="m 266.5992,405.82023 c -0.021,0.2487 -0.0328,0.5003 -0.0328,0.75522 v 6.52485 c 1.80397,0 3.26639,-1.62987 3.26639,-3.6404 0,-1.9984 -1.44474,-3.61997 -3.23356,-3.63967 z"
         id="path76594" />
      <path
         inkscape:connector-curvature="0"
         style="opacity:0.07999998;stroke-width:0.09819823;enable-background:new"
         d="m 284.46336,398.60464 h -10.74517 c -1.89728,0 -3.62061,0.82489 -4.90081,2.16852 2.05596,4.13469 6.22519,7.01862 11.11873,7.01862 h 10.29952 c 0.18985,-0.77346 0.2931,-1.58663 0.2931,-2.42717 v 0 c 0,-3.73339 -2.71554,-6.75997 -6.06537,-6.75997 z"
         id="path76596" />
      <path
         inkscape:connector-curvature="0"
         style="fill:#e9c6af;fill-opacity:1;stroke-width:0.09819823"
         d="m 300.88258,371.05794 -7e-4,2.1e-4 c -3.10939,0.88356 -6.14184,2.07366 -9.06231,3.55435 -1.62082,-0.48154 -3.32936,-0.73925 -5.09027,-0.73925 v 0 c -1.76101,0 -3.46955,0.25771 -5.09028,0.73925 -2.92047,-1.48079 -5.95283,-2.67079 -9.0623,-3.55435 l -0.001,-2.1e-4 c -2.28831,-0.65021 -4.48594,1.35919 -4.36111,3.98737 v 0 c 0.17366,3.65315 0.64498,7.2809 1.40707,10.83899 -0.54741,1.43279 -0.93343,2.95453 -1.13183,4.54376 v 0 c -0.96227,7.70769 4.85448,14.53442 12.38423,14.53442 h 11.7104 c 7.52966,0 13.3465,-6.82673 12.38423,-14.53442 v 0 c -0.1984,-1.58913 -0.58443,-3.11087 -1.13183,-4.54366 0.76209,-3.55819 1.23331,-7.18594 1.40698,-10.83898 v 0 c 0.12482,-2.62829 -2.07289,-4.63769 -4.36121,-3.98748 z"
         id="path76598" />
      <g
         id="g76604"
         transform="matrix(0.09301727,0,0,0.10366776,257.62387,369.17927)"
         style="fill:#424242;fill-opacity:1">
        <path
           inkscape:connector-curvature="0"
           style="fill:#424242;fill-opacity:1"
           d="m 231.399,193.183 c -4.497,0 -8.142,-3.645 -8.142,-8.142 v -12.975 c 0,-4.496 3.644,-8.142 8.142,-8.142 4.497,0 8.142,3.645 8.142,8.142 v 12.975 c -0.001,4.497 -3.645,8.142 -8.142,8.142 z"
           id="path76600" />
        <path
           inkscape:connector-curvature="0"
           style="fill:#424242;fill-opacity:1"
           d="m 394.4,193.183 c -4.497,0 -8.142,-3.645 -8.142,-8.142 v -12.975 c 0,-4.496 3.644,-8.142 8.142,-8.142 4.497,0 8.142,3.645 8.142,8.142 v 12.975 c -10e-4,4.497 -3.645,8.142 -8.142,8.142 z"
           id="path76602" />
      </g>
      <path
         inkscape:connector-curvature="0"
         style="fill:#e9afc6;stroke-width:0.09819823"
         d="m 299.76395,375.3246 -3.5e-4,1e-4 c -1.43349,0.40741 -2.83042,0.96048 -4.17331,1.65225 -0.63075,0.325 -0.80423,1.23438 -0.34668,1.8172 v 0 c 1.22755,1.56341 2.67844,2.89004 4.29405,3.92631 0.60229,0.38637 1.36875,0.019 1.53134,-0.73397 l 10e-5,-3.9e-4 c 0.3463,-1.60281 0.56015,-3.23775 0.63837,-4.88431 0.0558,-1.17124 -0.92366,-2.06693 -1.9435,-1.77707 z"
         id="path76606" />
      <path
         inkscape:connector-curvature="0"
         style="fill:#7d7060;stroke-width:0.09819823"
         d="m 272.57621,371.05815 -10e-4,-2.1e-4 c -1.43749,-0.40855 -2.8388,0.23294 -3.6514,1.41766 0.5635,2.84972 2.84159,4.98237 5.56792,4.98237 2.32553,0 4.32465,-1.55221 5.21223,-3.77693 -2.31781,-1.05606 -4.69933,-1.93278 -7.12782,-2.62289 z"
         id="path76608" />
      <path
         inkscape:connector-curvature="0"
         style="fill:#e9afc6;stroke-width:0.09819823"
         d="m 271.7504,377.10167 v 0 c 0.0782,1.64645 0.29189,3.28129 0.63838,4.8843 l 10e-5,4e-4 c 0.16268,0.75294 0.92905,1.12033 1.53134,0.73396 v 0 c 1.61571,-1.03615 3.06659,-2.36279 4.29414,-3.92631 v 0 c 0.45765,-0.58282 0.28417,-1.49219 -0.34668,-1.81719 v 0 c -1.34289,-0.69188 -2.73972,-1.24495 -4.17331,-1.65226 l -3.5e-4,-10e-5 c -1.01984,-0.28986 -1.99931,0.60583 -1.94359,1.77707 z"
         id="path76610" />
      <g
         id="g76622"
         transform="matrix(0.09301727,0,0,0.10366776,257.62387,369.17927)"
         style="fill:#424242;fill-opacity:1">
        <path
           inkscape:connector-curvature="0"
           style="fill:#424242;fill-opacity:1"
           d="m 341.211,215.128 -6.589,7.848 c -11.335,13.5 -32.109,13.5 -43.445,0 l -6.589,-7.848 c -3.396,-4.044 -0.521,-10.212 4.759,-10.212 h 47.105 c 5.28,0.001 8.155,6.169 4.759,10.212 z"
           id="path76612" />
        <path
           inkscape:connector-curvature="0"
           style="fill:#424242;fill-opacity:1"
           d="m 169.953,244.066 c -4.06,0 -7.574,-3.033 -8.072,-7.167 -0.538,-4.464 2.642,-8.52 7.107,-9.059 l 45.475,-5.493 c 4.475,-0.543 8.52,2.642 9.06,7.106 0.538,4.464 -2.643,8.52 -7.107,9.059 l -45.475,5.493 c -0.334,0.041 -0.664,0.061 -0.988,0.061 z"
           id="path76614" />
        <path
           inkscape:connector-curvature="0"
           style="fill:#424242;fill-opacity:1"
           d="m 188.698,291.914 c -2.414,0 -4.804,-1.068 -6.409,-3.114 -2.777,-3.537 -2.16,-8.655 1.378,-11.432 l 36.028,-28.285 c 3.537,-2.778 8.655,-2.16 11.431,1.376 2.777,3.537 2.16,8.655 -1.376,11.432 l -36.029,28.285 c -1.492,1.171 -3.265,1.738 -5.023,1.738 z"
           id="path76616" />
        <path
           inkscape:connector-curvature="0"
           style="fill:#424242;fill-opacity:1"
           d="m 455.847,244.066 c -0.327,0 -0.655,-0.02 -0.987,-0.06 l -45.475,-5.493 c -4.464,-0.54 -7.645,-4.595 -7.107,-9.059 0.54,-4.465 4.606,-7.647 9.06,-7.106 l 45.475,5.493 c 4.464,0.54 7.645,4.595 7.107,9.059 -0.5,4.132 -4.013,7.166 -8.073,7.166 z"
           id="path76618" />
        <path
           inkscape:connector-curvature="0"
           style="fill:#424242;fill-opacity:1"
           d="m 437.101,291.914 c -1.76,0 -3.531,-0.568 -5.023,-1.738 l -36.027,-28.285 c -3.537,-2.777 -4.152,-7.895 -1.376,-11.432 2.778,-3.537 7.894,-4.151 11.432,-1.376 l 36.027,28.285 c 3.537,2.777 4.152,7.895 1.376,11.432 -1.606,2.045 -3.995,3.114 -6.409,3.114 z"
           id="path76620" />
      </g>
      <g
         id="g76628"
         transform="matrix(0.19325318,0,0,0.2153807,195.24535,309.80505)">
        <path
           inkscape:connector-curvature="0"
           style="fill:#fdc572;stroke-width:0.26458332"
           d="m 473.38842,441.81042 c -7.00299,0 -12.7,5.69727 -12.7,12.7 0,7.00273 5.69701,12.7 12.7,12.7 7.00299,0 12.7,-5.69727 12.7,-12.7 0,-7.00273 -5.69701,-12.7 -12.7,-12.7 z"
           id="path76624" />
        <path
           inkscape:connector-curvature="0"
           style="fill:#e8a848;stroke-width:0.26458332"
           d="m 477.62175,452.39375 h -2.11667 v -6.35 c 0,-1.16893 -0.94773,-2.11666 -2.11666,-2.11666 -1.16893,0 -2.11667,0.94773 -2.11667,2.11666 v 6.35 h -2.11667 c -1.16893,0 -2.11666,0.94774 -2.11666,2.11667 0,1.16893 0.94773,2.11667 2.11666,2.11667 h 8.46667 c 1.16893,0 2.11667,-0.94774 2.11667,-2.11667 0,-1.16893 -0.94774,-2.11667 -2.11667,-2.11667 z"
           id="path76626" />
      </g>
    </g>
    <g
       aria-label="1"
       style="font-style:normal;font-variant:normal;font-weight:normal;font-stretch:normal;font-size:28.22222137px;line-height:1.25;font-family:'SC Gum Kids';-inkscape-font-specification:'SC Gum Kids, Normal';font-variant-ligatures:normal;font-variant-caps:normal;font-variant-numeric:normal;font-feature-settings:normal;text-align:start;letter-spacing:0px;word-spacing:0px;writing-mode:lr-tb;text-anchor:start;fill:#2196f3;fill-opacity:1;stroke:#ffffff;stroke-width:1.32291663;stroke-miterlimit:4;stroke-dasharray:none;stroke-opacity:1"
       id="text22673"
       transform="translate(-1155.78,256.5275)">
      <path
         d="m 1160.2649,-43.387707 -4.4649,0.124024 -1.2264,1.005968 v 4.230577 l 1.1024,-0.509874 0.124,13.339409 h 4.8232 z"
         style="font-style:normal;font-variant:normal;font-weight:normal;font-stretch:normal;font-size:28.22222137px;font-family:'SC Gum Kids';-inkscape-font-specification:'SC Gum Kids, Normal';font-variant-ligatures:normal;font-variant-caps:normal;font-variant-numeric:normal;font-feature-settings:normal;text-align:start;writing-mode:lr-tb;text-anchor:start;fill:#2196f3;fill-opacity:1;stroke:#ffffff;stroke-width:1.32291663;stroke-miterlimit:4;stroke-dasharray:none;stroke-opacity:1"
         id="path22740"
         inkscape:connector-curvature="0" />
    </g>
    <g
       aria-label="2"
       style="font-style:normal;font-variant:normal;font-weight:normal;font-stretch:normal;font-size:28.22222137px;line-height:1.25;font-family:'SC Gum Kids';-inkscape-font-specification:'SC Gum Kids, Normal';font-variant-ligatures:normal;font-variant-caps:normal;font-variant-numeric:normal;font-feature-settings:normal;text-align:start;letter-spacing:0px;word-spacing:0px;writing-mode:lr-tb;text-anchor:start;fill:#2196f3;fill-opacity:1;stroke:#ffffff;stroke-width:1.32291663;stroke-miterlimit:4;stroke-dasharray:none;stroke-opacity:1"
       id="text22677"
       transform="translate(-1137.7274,255.02004)">
      <path
         d="m 1201.0502,-41.169313 q -4.1479,-2.52181 -7.717,-0.04134 -1.7915,1.309136 -3.1557,3.23839 l 2.7836,3.527777 q 0.3583,-0.578776 1.006,-1.074869 1.4331,-1.43316 2.8801,-1.129992 0.813,0.179145 0.6614,1.102431 -0.124,0.785482 -0.9232,2.053277 -1.5021,2.356445 -3.6656,3.789605 -0.9371,0.799262 -1.7364,1.405598 l -0.3307,4.878256 11.2035,0.234266 0.014,-4.671549 -5.6637,0.261827 q 2.6872,-2.480469 4.6027,-5.40191 1.6812,-2.54937 1.8741,-4.478624 0.2618,-2.411566 -1.8328,-3.693142 z"
         style="font-style:normal;font-variant:normal;font-weight:normal;font-stretch:normal;font-size:28.22222137px;font-family:'SC Gum Kids';-inkscape-font-specification:'SC Gum Kids, Normal';font-variant-ligatures:normal;font-variant-caps:normal;font-variant-numeric:normal;font-feature-settings:normal;text-align:start;writing-mode:lr-tb;text-anchor:start;fill:#2196f3;fill-opacity:1;stroke:#ffffff;stroke-width:1.32291663;stroke-miterlimit:4;stroke-dasharray:none;stroke-opacity:1"
         id="path22737"
         inkscape:connector-curvature="0" />
    </g>
    <g
       aria-label="3"
       style="font-style:normal;font-variant:normal;font-weight:normal;font-stretch:normal;font-size:28.22222137px;line-height:1.25;font-family:'SC Gum Kids';-inkscape-font-specification:'SC Gum Kids, Normal';font-variant-ligatures:normal;font-variant-caps:normal;font-variant-numeric:normal;font-feature-settings:normal;text-align:start;letter-spacing:0px;word-spacing:0px;writing-mode:lr-tb;text-anchor:start;fill:#2196f3;fill-opacity:1;stroke:#ffffff;stroke-width:1.32291663;stroke-miterlimit:4;stroke-dasharray:none;stroke-opacity:1"
       id="text22681"
       transform="translate(-1116.8906,254.74099)">
      <path
         d="m 1224.1829,-41.348458 0.1241,4.203017 5.3054,-0.124024 -4.4648,3.23839 q 1.2264,-0.179145 2.4115,0.137804 2.3978,0.633897 2.3289,3.128146 -0.083,2.50803 -2.4115,2.466688 -1.1714,-0.02756 -2.3289,-0.551215 l -1.0887,4.492405 q 1.9844,0.633897 4.3271,0.675238 4.6439,0.09646 6.3527,-2.824978 2.3427,-4.023871 -0.041,-6.807508 -1.1989,-1.391819 -2.7423,-2.122179 l 4.768,-5.856662 z"
         style="font-style:normal;font-variant:normal;font-weight:normal;font-stretch:normal;font-size:28.22222137px;font-family:'SC Gum Kids';-inkscape-font-specification:'SC Gum Kids, Normal';font-variant-ligatures:normal;font-variant-caps:normal;font-variant-numeric:normal;font-feature-settings:normal;text-align:start;writing-mode:lr-tb;text-anchor:start;fill:#2196f3;fill-opacity:1;stroke:#ffffff;stroke-width:1.32291663;stroke-miterlimit:4;stroke-dasharray:none;stroke-opacity:1"
         id="path22734"
         inkscape:connector-curvature="0" />
    </g>
    <g
       aria-label="4"
       style="font-style:normal;font-variant:normal;font-weight:normal;font-stretch:normal;font-size:28.22222137px;line-height:1.25;font-family:'SC Gum Kids';-inkscape-font-specification:'SC Gum Kids, Normal';font-variant-ligatures:normal;font-variant-caps:normal;font-variant-numeric:normal;font-feature-settings:normal;text-align:start;letter-spacing:0px;word-spacing:0px;writing-mode:lr-tb;text-anchor:start;fill:#2196f3;fill-opacity:1;stroke:#ffffff;stroke-width:1.32291663;stroke-miterlimit:4;stroke-dasharray:none;stroke-opacity:1"
       id="text22685"
       transform="translate(-1097.3926,253.63353)">
      <path
         d="m 1267.173,-34.513513 h -2.8801 l 0.124,-6.173611 -4.7542,0.137803 v 10.004557 l 7.2485,0.261828 -0.5237,8.033962 4.9885,0.124024 0.3996,-18.562174 h -4.4786 z"
         style="font-style:normal;font-variant:normal;font-weight:normal;font-stretch:normal;font-size:28.22222137px;font-family:'SC Gum Kids';-inkscape-font-specification:'SC Gum Kids, Normal';font-variant-ligatures:normal;font-variant-caps:normal;font-variant-numeric:normal;font-feature-settings:normal;text-align:start;writing-mode:lr-tb;text-anchor:start;fill:#2196f3;fill-opacity:1;stroke:#ffffff;stroke-width:1.32291663;stroke-miterlimit:4;stroke-dasharray:none;stroke-opacity:1"
         id="path22731"
         inkscape:connector-curvature="0" />
    </g>
  </g>
</svg>
