<?xml version="1.0" encoding="UTF-8"?>
<!-- Created with Inkscape (http://www.inkscape.org/) -->
<svg width="1220" height="562" version="1.1" viewBox="0 0 322.79166 148.69584" xmlns="http://www.w3.org/2000/svg" xmlns:cc="http://creativecommons.org/ns#" xmlns:dc="http://purl.org/dc/elements/1.1/" xmlns:rdf="http://www.w3.org/1999/02/22-rdf-syntax-ns#">
 <metadata>
  <rdf:RDF>
   <cc:Work rdf:about="">
    <dc:format>image/svg+xml</dc:format>
    <dc:type rdf:resource="http://purl.org/dc/dcmitype/StillImage"/>
    <dc:title/>
   </cc:Work>
  </rdf:RDF>
 </metadata>
 <g transform="translate(63.538284,-162.36299)">
  <rect x="-63.538284" y="162.36299" width="322.79166" height="148.69583" opacity="0" stroke-width=".91198415"/>
  <g transform="translate(-1235.5959,378.47303)">
   <rect x="1178.6722" y="-209.49544" width="309.5625" height="135.46666" rx="9.3694143" ry="9.3694143" fill="#2196f3"/>
   <rect x="1185.7633" y="-204.34227" width="295.38028" height="125.1603" rx="8.9401665" ry="8.6565857" fill="#fff"/>
  </g>
  <g transform="matrix(.41666663 0 0 .41666665 -206.34639 160.55418)">
   <g stroke-width=".24807221">
    <path d="m426.48573 151.30917c0-0.51456 0.19621-1.02861 0.58837-1.42135l18.18634-18.18974c0.78506-0.78473 2.05706-0.78473 2.84162 0 0.78482 0.78548 0.78408 2.05772 0 2.8422l-18.18633 18.18974c-0.78507 0.78472-2.05706 0.78472-2.84188 0-0.39191-0.39224-0.58812-0.90655-0.58812-1.42085z" fill="#365558"/>
    <path d="m520.44631 136.45684c10.2972-10.29926 15.96831-23.99298 15.96831-38.558511 0-14.56553-5.67111-28.259251-15.96831-38.558752-21.25716-21.261178-55.84488-21.261178-77.10204 0-10.29694 10.299501-15.96805 23.992969-15.96805 38.558752 0 14.565781 5.67111 28.259251 15.96805 38.558751 10.29769 10.2995 23.98841 15.9715 38.55127 15.9715s28.25334-5.67224 38.55077-15.97174z" fill="#4acfd9"/>
    <path d="m421.93778 169.8053 15.15495-15.15799c0.78433-0.78523 0.78433-2.05746 0-2.84244l-9.09316-9.09499c-0.78508-0.78499-2.05706-0.78499-2.84164 0l-15.15495 15.15798c-0.39216 0.39249-0.58837 0.90704-0.58837 1.42135 0 0.5143 0.19621 1.02861 0.58837 1.42135l9.09317 9.09499c0.78458 0.78424 2.05681 0.78424 2.84163-2.5e-4z" fill="#9baaab"/>
    <path d="m509.54637 125.55495c15.24648-15.24979 15.24648-40.062961 0-55.312994-7.38561-7.387345-17.2058-11.455888-27.65108-11.455888-10.44527 0-20.26547 4.068543-27.65108 11.455635-7.62323 7.624768-11.43523 17.640701-11.43523 27.656382 0 10.015925 3.81175 20.031605 11.43523 27.656615 15.24698 15.24979 40.05519 15.24979 55.30216 2.5e-4z" fill="#e2ebf6"/>
   </g>
   <g transform="matrix(0 -.21238622 .21234365 0 441.3283 149.59984)" fill="#fff">
    <path d="m399.033 227.894c-4.475 0-8.1-3.626-8.1-8.101 0-22.935-4.417-45.143-13.13-66.003-1.724-4.128 0.225-8.873 4.353-10.598 4.131-1.725 8.873 0.225 10.597 4.353 9.542 22.849 14.381 47.157 14.381 72.248-1e-3 4.476-3.626 8.101-8.101 8.101z"/>
    <path d="m366.072 124.211c-2.533 0-5.026-1.184-6.607-3.403-5.556-7.805-11.838-15.228-18.674-22.064-32.333-32.334-75.323-50.141-121.05-50.141-4.474 0-8.101-3.626-8.101-8.101s3.627-8.101 8.101-8.101c50.055 0 97.112 19.492 132.507 54.885 7.471 7.472 14.34 15.589 20.417 24.124 2.593 3.645 1.742 8.703-1.902 11.298-1.424 1.015-3.066 1.503-4.691 1.503z"/>
   </g>
  </g>
  <g transform="matrix(.41666663 0 0 .41666665 7.9661 160.55418)">
   <g stroke-width=".24807221">
    <path d="m426.48573 151.30917c0-0.51456 0.19621-1.02861 0.58837-1.42135l18.18634-18.18974c0.78506-0.78473 2.05706-0.78473 2.84162 0 0.78482 0.78548 0.78408 2.05772 0 2.8422l-18.18633 18.18974c-0.78507 0.78472-2.05706 0.78472-2.84188 0-0.39191-0.39224-0.58812-0.90655-0.58812-1.42085z" fill="#365558"/>
    <path d="m520.44631 136.45684c10.2972-10.29926 15.96831-23.99298 15.96831-38.558511 0-14.56553-5.67111-28.259251-15.96831-38.558752-21.25716-21.261178-55.84488-21.261178-77.10204 0-10.29694 10.299501-15.96805 23.992969-15.96805 38.558752 0 14.565781 5.67111 28.259251 15.96805 38.558751 10.29769 10.2995 23.98841 15.9715 38.55127 15.9715s28.25334-5.67224 38.55077-15.97174z" fill="#4acfd9"/>
    <path d="m421.93778 169.8053 15.15495-15.15799c0.78433-0.78523 0.78433-2.05746 0-2.84244l-9.09316-9.09499c-0.78508-0.78499-2.05706-0.78499-2.84164 0l-15.15495 15.15798c-0.39216 0.39249-0.58837 0.90704-0.58837 1.42135 0 0.5143 0.19621 1.02861 0.58837 1.42135l9.09317 9.09499c0.78458 0.78424 2.05681 0.78424 2.84163-2.5e-4z" fill="#9baaab"/>
    <path d="m509.54637 125.55495c15.24648-15.24979 15.24648-40.062961 0-55.312994-7.38561-7.387345-17.2058-11.455888-27.65108-11.455888-10.44527 0-20.26547 4.068543-27.65108 11.455635-7.62323 7.624768-11.43523 17.640701-11.43523 27.656382 0 10.015925 3.81175 20.031605 11.43523 27.656615 15.24698 15.24979 40.05519 15.24979 55.30216 2.5e-4z" fill="#e2ebf6"/>
   </g>
   <g transform="matrix(0 -.21238622 .21234365 0 441.3283 149.59984)" fill="#fff">
    <path d="m399.033 227.894c-4.475 0-8.1-3.626-8.1-8.101 0-22.935-4.417-45.143-13.13-66.003-1.724-4.128 0.225-8.873 4.353-10.598 4.131-1.725 8.873 0.225 10.597 4.353 9.542 22.849 14.381 47.157 14.381 72.248-1e-3 4.476-3.626 8.101-8.101 8.101z"/>
    <path d="m366.072 124.211c-2.533 0-5.026-1.184-6.607-3.403-5.556-7.805-11.838-15.228-18.674-22.064-32.333-32.334-75.323-50.141-121.05-50.141-4.474 0-8.101-3.626-8.101-8.101s3.627-8.101 8.101-8.101c50.055 0 97.112 19.492 132.507 54.885 7.471 7.472 14.34 15.589 20.417 24.124 2.593 3.645 1.742 8.703-1.902 11.298-1.424 1.015-3.066 1.503-4.691 1.503z"/>
   </g>
  </g>
  <g transform="matrix(.41666663 0 0 .41666665 -45.61199 160.55418)">
   <g stroke-width=".24807221">
    <path d="m426.48573 151.30917c0-0.51456 0.19621-1.02861 0.58837-1.42135l18.18634-18.18974c0.78506-0.78473 2.05706-0.78473 2.84162 0 0.78482 0.78548 0.78408 2.05772 0 2.8422l-18.18633 18.18974c-0.78507 0.78472-2.05706 0.78472-2.84188 0-0.39191-0.39224-0.58812-0.90655-0.58812-1.42085z" fill="#365558"/>
    <path d="m520.44631 136.45684c10.2972-10.29926 15.96831-23.99298 15.96831-38.558511 0-14.56553-5.67111-28.259251-15.96831-38.558752-21.25716-21.261178-55.84488-21.261178-77.10204 0-10.29694 10.299501-15.96805 23.992969-15.96805 38.558752 0 14.565781 5.67111 28.259251 15.96805 38.558751 10.29769 10.2995 23.98841 15.9715 38.55127 15.9715s28.25334-5.67224 38.55077-15.97174z" fill="#4acfd9"/>
    <path d="m421.93778 169.8053 15.15495-15.15799c0.78433-0.78523 0.78433-2.05746 0-2.84244l-9.09316-9.09499c-0.78508-0.78499-2.05706-0.78499-2.84164 0l-15.15495 15.15798c-0.39216 0.39249-0.58837 0.90704-0.58837 1.42135 0 0.5143 0.19621 1.02861 0.58837 1.42135l9.09317 9.09499c0.78458 0.78424 2.05681 0.78424 2.84163-2.5e-4z" fill="#9baaab"/>
    <path d="m509.54637 125.55495c15.24648-15.24979 15.24648-40.062961 0-55.312994-7.38561-7.387345-17.2058-11.455888-27.65108-11.455888-10.44527 0-20.26547 4.068543-27.65108 11.455635-7.62323 7.624768-11.43523 17.640701-11.43523 27.656382 0 10.015925 3.81175 20.031605 11.43523 27.656615 15.24698 15.24979 40.05519 15.24979 55.30216 2.5e-4z" fill="#e2ebf6"/>
   </g>
   <g transform="matrix(0 -.21238622 .21234365 0 441.3283 149.59984)" fill="#fff">
    <path d="m399.033 227.894c-4.475 0-8.1-3.626-8.1-8.101 0-22.935-4.417-45.143-13.13-66.003-1.724-4.128 0.225-8.873 4.353-10.598 4.131-1.725 8.873 0.225 10.597 4.353 9.542 22.849 14.381 47.157 14.381 72.248-1e-3 4.476-3.626 8.101-8.101 8.101z"/>
    <path d="m366.072 124.211c-2.533 0-5.026-1.184-6.607-3.403-5.556-7.805-11.838-15.228-18.674-22.064-32.333-32.334-75.323-50.141-121.05-50.141-4.474 0-8.101-3.626-8.101-8.101s3.627-8.101 8.101-8.101c50.055 0 97.112 19.492 132.507 54.885 7.471 7.472 14.34 15.589 20.417 24.124 2.593 3.645 1.742 8.703-1.902 11.298-1.424 1.015-3.066 1.503-4.691 1.503z"/>
   </g>
  </g>
  <g transform="matrix(.41666663 0 0 .41666665 -99.19011 160.55418)">
   <g stroke-width=".24807221">
    <path d="m426.48573 151.30917c0-0.51456 0.19621-1.02861 0.58837-1.42135l18.18634-18.18974c0.78506-0.78473 2.05706-0.78473 2.84162 0 0.78482 0.78548 0.78408 2.05772 0 2.8422l-18.18633 18.18974c-0.78507 0.78472-2.05706 0.78472-2.84188 0-0.39191-0.39224-0.58812-0.90655-0.58812-1.42085z" fill="#365558"/>
    <path d="m520.44631 136.45684c10.2972-10.29926 15.96831-23.99298 15.96831-38.558511 0-14.56553-5.67111-28.259251-15.96831-38.558752-21.25716-21.261178-55.84488-21.261178-77.10204 0-10.29694 10.299501-15.96805 23.992969-15.96805 38.558752 0 14.565781 5.67111 28.259251 15.96805 38.558751 10.29769 10.2995 23.98841 15.9715 38.55127 15.9715s28.25334-5.67224 38.55077-15.97174z" fill="#4acfd9"/>
    <path d="m421.93778 169.8053 15.15495-15.15799c0.78433-0.78523 0.78433-2.05746 0-2.84244l-9.09316-9.09499c-0.78508-0.78499-2.05706-0.78499-2.84164 0l-15.15495 15.15798c-0.39216 0.39249-0.58837 0.90704-0.58837 1.42135 0 0.5143 0.19621 1.02861 0.58837 1.42135l9.09317 9.09499c0.78458 0.78424 2.05681 0.78424 2.84163-2.5e-4z" fill="#9baaab"/>
    <path d="m509.54637 125.55495c15.24648-15.24979 15.24648-40.062961 0-55.312994-7.38561-7.387345-17.2058-11.455888-27.65108-11.455888-10.44527 0-20.26547 4.068543-27.65108 11.455635-7.62323 7.624768-11.43523 17.640701-11.43523 27.656382 0 10.015925 3.81175 20.031605 11.43523 27.656615 15.24698 15.24979 40.05519 15.24979 55.30216 2.5e-4z" fill="#e2ebf6"/>
   </g>
   <g transform="matrix(0 -.21238622 .21234365 0 441.3283 149.59984)" fill="#fff">
    <path d="m399.033 227.894c-4.475 0-8.1-3.626-8.1-8.101 0-22.935-4.417-45.143-13.13-66.003-1.724-4.128 0.225-8.873 4.353-10.598 4.131-1.725 8.873 0.225 10.597 4.353 9.542 22.849 14.381 47.157 14.381 72.248-1e-3 4.476-3.626 8.101-8.101 8.101z"/>
    <path d="m366.072 124.211c-2.533 0-5.026-1.184-6.607-3.403-5.556-7.805-11.838-15.228-18.674-22.064-32.333-32.334-75.323-50.141-121.05-50.141-4.474 0-8.101-3.626-8.101-8.101s3.627-8.101 8.101-8.101c50.055 0 97.112 19.492 132.507 54.885 7.471 7.472 14.34 15.589 20.417 24.124 2.593 3.645 1.742 8.703-1.902 11.298-1.424 1.015-3.066 1.503-4.691 1.503z"/>
   </g>
  </g>
  <g transform="matrix(.41666663 0 0 .41666665 -152.76824 160.55418)">
   <g stroke-width=".24807221">
    <path d="m426.48573 151.30917c0-0.51456 0.19621-1.02861 0.58837-1.42135l18.18634-18.18974c0.78506-0.78473 2.05706-0.78473 2.84162 0 0.78482 0.78548 0.78408 2.05772 0 2.8422l-18.18633 18.18974c-0.78507 0.78472-2.05706 0.78472-2.84188 0-0.39191-0.39224-0.58812-0.90655-0.58812-1.42085z" fill="#365558"/>
    <path d="m520.44631 136.45684c10.2972-10.29926 15.96831-23.99298 15.96831-38.558511 0-14.56553-5.67111-28.259251-15.96831-38.558752-21.25716-21.261178-55.84488-21.261178-77.10204 0-10.29694 10.299501-15.96805 23.992969-15.96805 38.558752 0 14.565781 5.67111 28.259251 15.96805 38.558751 10.29769 10.2995 23.98841 15.9715 38.55127 15.9715s28.25334-5.67224 38.55077-15.97174z" fill="#4acfd9"/>
    <path d="m421.93778 169.8053 15.15495-15.15799c0.78433-0.78523 0.78433-2.05746 0-2.84244l-9.09316-9.09499c-0.78508-0.78499-2.05706-0.78499-2.84164 0l-15.15495 15.15798c-0.39216 0.39249-0.58837 0.90704-0.58837 1.42135 0 0.5143 0.19621 1.02861 0.58837 1.42135l9.09317 9.09499c0.78458 0.78424 2.05681 0.78424 2.84163-2.5e-4z" fill="#9baaab"/>
    <path d="m509.54637 125.55495c15.24648-15.24979 15.24648-40.062961 0-55.312994-7.38561-7.387345-17.2058-11.455888-27.65108-11.455888-10.44527 0-20.26547 4.068543-27.65108 11.455635-7.62323 7.624768-11.43523 17.640701-11.43523 27.656382 0 10.015925 3.81175 20.031605 11.43523 27.656615 15.24698 15.24979 40.05519 15.24979 55.30216 2.5e-4z" fill="#e2ebf6"/>
   </g>
   <g transform="matrix(0 -.21238622 .21234365 0 441.3283 149.59984)" fill="#fff">
    <path d="m399.033 227.894c-4.475 0-8.1-3.626-8.1-8.101 0-22.935-4.417-45.143-13.13-66.003-1.724-4.128 0.225-8.873 4.353-10.598 4.131-1.725 8.873 0.225 10.597 4.353 9.542 22.849 14.381 47.157 14.381 72.248-1e-3 4.476-3.626 8.101-8.101 8.101z"/>
    <path d="m366.072 124.211c-2.533 0-5.026-1.184-6.607-3.403-5.556-7.805-11.838-15.228-18.674-22.064-32.333-32.334-75.323-50.141-121.05-50.141-4.474 0-8.101-3.626-8.101-8.101s3.627-8.101 8.101-8.101c50.055 0 97.112 19.492 132.507 54.885 7.471 7.472 14.34 15.589 20.417 24.124 2.593 3.645 1.742 8.703-1.902 11.298-1.424 1.015-3.066 1.503-4.691 1.503z"/>
   </g>
  </g>
  <g fill="#2196f3" stroke="#fff" stroke-width="1.32291663">
   <g transform="translate(-1163.6241,235.68468)" style="font-feature-settings:normal;font-variant-caps:normal;font-variant-ligatures:normal;font-variant-numeric:normal" aria-label="1">
    <path d="m1160.2649-43.387707-4.4649 0.124024-1.2264 1.005968v4.230577l1.1024-0.509874 0.124 13.339409h4.8232z" fill="#2196f3" stroke="#fff" stroke-width="1.32291663" style="font-feature-settings:normal;font-variant-caps:normal;font-variant-ligatures:normal;font-variant-numeric:normal"/>
   </g>
   <g transform="translate(-1148.7901,234.17722)" style="font-feature-settings:normal;font-variant-caps:normal;font-variant-ligatures:normal;font-variant-numeric:normal" aria-label="2">
    <path d="m1201.0502-41.169313q-4.1479-2.52181-7.717-0.04134-1.7915 1.309136-3.1557 3.23839l2.7836 3.527777q0.3583-0.578776 1.006-1.074869 1.4331-1.43316 2.8801-1.129992 0.813 0.179145 0.6614 1.102431-0.124 0.785482-0.9232 2.053277-1.5021 2.356445-3.6656 3.789605-0.9371 0.799262-1.7364 1.405598l-0.3307 4.878256 11.2035 0.234266 0.014-4.671549-5.6637 0.261827q2.6872-2.480469 4.6027-5.40191 1.6812-2.54937 1.8741-4.478624 0.2618-2.411566-1.8328-3.693142z" fill="#2196f3" stroke="#fff" stroke-width="1.32291663" style="font-feature-settings:normal;font-variant-caps:normal;font-variant-ligatures:normal;font-variant-numeric:normal"/>
   </g>
   <g transform="translate(-1128.9495,233.89818)" style="font-feature-settings:normal;font-variant-caps:normal;font-variant-ligatures:normal;font-variant-numeric:normal" aria-label="3">
    <path d="m1224.1829-41.348458 0.1241 4.203017 5.3054-0.124024-4.4648 3.23839q1.2264-0.179145 2.4115 0.137804 2.3978 0.633897 2.3289 3.128146-0.083 2.50803-2.4115 2.466688-1.1714-0.02756-2.3289-0.551215l-1.0887 4.492405q1.9844 0.633897 4.3271 0.675238 4.6439 0.09646 6.3527-2.824978 2.3427-4.023871-0.041-6.807508-1.1989-1.391819-2.7423-2.122179l4.768-5.856662z" fill="#2196f3" stroke="#fff" stroke-width="1.32291663" style="font-feature-settings:normal;font-variant-caps:normal;font-variant-ligatures:normal;font-variant-numeric:normal"/>
   </g>
   <g transform="translate(-1110.4536,232.79071)" style="font-feature-settings:normal;font-variant-caps:normal;font-variant-ligatures:normal;font-variant-numeric:normal" aria-label="4">
    <path d="m1267.173-34.513513h-2.8801l0.124-6.173611-4.7542 0.137803v10.004557l7.2485 0.261828-0.5237 8.033962 4.9885 0.124024 0.3996-18.562174h-4.4786z" fill="#2196f3" stroke="#fff" stroke-width="1.32291663" style="font-feature-settings:normal;font-variant-caps:normal;font-variant-ligatures:normal;font-variant-numeric:normal"/>
   </g>
   <g transform="translate(-1092.7733,235.07032)" style="font-feature-settings:normal;font-variant-caps:normal;font-variant-ligatures:normal;font-variant-numeric:normal" aria-label="5">
    <path d="m1299.4831-38.523355 7.2347 0.303169 0.4272-4.065213-11.1759-0.427192 0.1791 8.516276q1.7088-0.35829 3.1833-0.220486 2.949 0.289388 3.0179 2.797417 0.083 2.52181-2.4805 2.86632-1.2816 0.179145-2.5907-0.151585l-0.248 4.161676q2.7285 0.330729 5.4294-0.35829 5.3882-1.350478 5.1263-6.380317-0.2342-5.029839-4.2168-6.035807-1.9706-0.633898-3.9136-0.124023z" fill="#2196f3" stroke="#fff" stroke-width="1.32291663" style="font-feature-settings:normal;font-variant-caps:normal;font-variant-ligatures:normal;font-variant-numeric:normal"/>
   </g>
  </g>
 </g>
</svg>
