<?xml version="1.0" encoding="UTF-8"?>
<!-- Created with Inkscape (http://www.inkscape.org/) -->
<svg width="1170" height="511.99997" version="1.1" viewBox="0 0 309.56249 135.46666" xmlns="http://www.w3.org/2000/svg" xmlns:cc="http://creativecommons.org/ns#" xmlns:dc="http://purl.org/dc/elements/1.1/" xmlns:rdf="http://www.w3.org/1999/02/22-rdf-syntax-ns#">
 <metadata>
  <rdf:RDF>
   <cc:Work rdf:about="">
    <dc:format>image/svg+xml</dc:format>
    <dc:type rdf:resource="http://purl.org/dc/dcmitype/StillImage"/>
    <dc:title/>
   </cc:Work>
  </rdf:RDF>
 </metadata>
 <g transform="translate(56.923659,29.653984)">
  <g transform="translate(-1235.5959,378.47303)">
   <rect x="1178.6722" y="-408.12701" width="309.5625" height="135.46666" rx="9.3694143" ry="9.3694143" fill="#2196f3"/>
   <rect x="1185.7633" y="-402.97385" width="295.38028" height="125.1603" rx="8.9401665" ry="8.6565857" fill="#fff"/>
  </g>
  <g transform="matrix(.41666663 0 0 .41666665 -206.34639 -38.0774)">
   <g stroke-width=".24807221">
    <path d="m426.48573 151.30917c0-0.51456 0.19621-1.02861 0.58837-1.42135l18.18634-18.18974c0.78506-0.78473 2.05706-0.78473 2.84162 0 0.78482 0.78548 0.78408 2.05772 0 2.8422l-18.18633 18.18974c-0.78507 0.78472-2.05706 0.78472-2.84188 0-0.39191-0.39224-0.58812-0.90655-0.58812-1.42085z" fill="#365558"/>
    <path d="m520.44631 136.45684c10.2972-10.29926 15.96831-23.99298 15.96831-38.558511 0-14.56553-5.67111-28.259251-15.96831-38.558752-21.25716-21.261178-55.84488-21.261178-77.10204 0-10.29694 10.299501-15.96805 23.992969-15.96805 38.558752 0 14.565781 5.67111 28.259251 15.96805 38.558751 10.29769 10.2995 23.98841 15.9715 38.55127 15.9715s28.25334-5.67224 38.55077-15.97174z" fill="#4acfd9"/>
    <path d="m421.93778 169.8053 15.15495-15.15799c0.78433-0.78523 0.78433-2.05746 0-2.84244l-9.09316-9.09499c-0.78508-0.78499-2.05706-0.78499-2.84164 0l-15.15495 15.15798c-0.39216 0.39249-0.58837 0.90704-0.58837 1.42135 0 0.5143 0.19621 1.02861 0.58837 1.42135l9.09317 9.09499c0.78458 0.78424 2.05681 0.78424 2.84163-2.5e-4z" fill="#9baaab"/>
    <path d="m509.54637 125.55495c15.24648-15.24979 15.24648-40.062961 0-55.312994-7.38561-7.387345-17.2058-11.455888-27.65108-11.455888-10.44527 0-20.26547 4.068543-27.65108 11.455635-7.62323 7.624768-11.43523 17.640701-11.43523 27.656382 0 10.015925 3.81175 20.031605 11.43523 27.656615 15.24698 15.24979 40.05519 15.24979 55.30216 2.5e-4z" fill="#e2ebf6"/>
   </g>
   <g transform="matrix(0 -.21238622 .21234365 0 441.3283 149.59984)" fill="#fff">
    <path d="m399.033 227.894c-4.475 0-8.1-3.626-8.1-8.101 0-22.935-4.417-45.143-13.13-66.003-1.724-4.128 0.225-8.873 4.353-10.598 4.131-1.725 8.873 0.225 10.597 4.353 9.542 22.849 14.381 47.157 14.381 72.248-1e-3 4.476-3.626 8.101-8.101 8.101z"/>
    <path d="m366.072 124.211c-2.533 0-5.026-1.184-6.607-3.403-5.556-7.805-11.838-15.228-18.674-22.064-32.333-32.334-75.323-50.141-121.05-50.141-4.474 0-8.101-3.626-8.101-8.101s3.627-8.101 8.101-8.101c50.055 0 97.112 19.492 132.507 54.885 7.471 7.472 14.34 15.589 20.417 24.124 2.593 3.645 1.742 8.703-1.902 11.298-1.424 1.015-3.066 1.503-4.691 1.503z"/>
   </g>
  </g>
  <g transform="matrix(.41666663 0 0 .41666665 -152.76824 -38.0774)">
   <g stroke-width=".24807221">
    <path d="m426.48573 151.30917c0-0.51456 0.19621-1.02861 0.58837-1.42135l18.18634-18.18974c0.78506-0.78473 2.05706-0.78473 2.84162 0 0.78482 0.78548 0.78408 2.05772 0 2.8422l-18.18633 18.18974c-0.78507 0.78472-2.05706 0.78472-2.84188 0-0.39191-0.39224-0.58812-0.90655-0.58812-1.42085z" fill="#365558"/>
    <path d="m520.44631 136.45684c10.2972-10.29926 15.96831-23.99298 15.96831-38.558511 0-14.56553-5.67111-28.259251-15.96831-38.558752-21.25716-21.261178-55.84488-21.261178-77.10204 0-10.29694 10.299501-15.96805 23.992969-15.96805 38.558752 0 14.565781 5.67111 28.259251 15.96805 38.558751 10.29769 10.2995 23.98841 15.9715 38.55127 15.9715s28.25334-5.67224 38.55077-15.97174z" fill="#4acfd9"/>
    <path d="m421.93778 169.8053 15.15495-15.15799c0.78433-0.78523 0.78433-2.05746 0-2.84244l-9.09316-9.09499c-0.78508-0.78499-2.05706-0.78499-2.84164 0l-15.15495 15.15798c-0.39216 0.39249-0.58837 0.90704-0.58837 1.42135 0 0.5143 0.19621 1.02861 0.58837 1.42135l9.09317 9.09499c0.78458 0.78424 2.05681 0.78424 2.84163-2.5e-4z" fill="#9baaab"/>
    <path d="m509.54637 125.55495c15.24648-15.24979 15.24648-40.062961 0-55.312994-7.38561-7.387345-17.2058-11.455888-27.65108-11.455888-10.44527 0-20.26547 4.068543-27.65108 11.455635-7.62323 7.624768-11.43523 17.640701-11.43523 27.656382 0 10.015925 3.81175 20.031605 11.43523 27.656615 15.24698 15.24979 40.05519 15.24979 55.30216 2.5e-4z" fill="#e2ebf6"/>
   </g>
   <g transform="matrix(0 -.21238622 .21234365 0 441.3283 149.59984)" fill="#fff">
    <path d="m399.033 227.894c-4.475 0-8.1-3.626-8.1-8.101 0-22.935-4.417-45.143-13.13-66.003-1.724-4.128 0.225-8.873 4.353-10.598 4.131-1.725 8.873 0.225 10.597 4.353 9.542 22.849 14.381 47.157 14.381 72.248-1e-3 4.476-3.626 8.101-8.101 8.101z"/>
    <path d="m366.072 124.211c-2.533 0-5.026-1.184-6.607-3.403-5.556-7.805-11.838-15.228-18.674-22.064-32.333-32.334-75.323-50.141-121.05-50.141-4.474 0-8.101-3.626-8.101-8.101s3.627-8.101 8.101-8.101c50.055 0 97.112 19.492 132.507 54.885 7.471 7.472 14.34 15.589 20.417 24.124 2.593 3.645 1.742 8.703-1.902 11.298-1.424 1.015-3.066 1.503-4.691 1.503z"/>
   </g>
  </g>
 </g>
</svg>
