<?xml version="1.0" encoding="UTF-8"?>
<!-- Created with Inkscape (http://www.inkscape.org/) -->
<svg width="1220" height="562" version="1.1" viewBox="0 0 322.79166 148.69584" xmlns="http://www.w3.org/2000/svg" xmlns:cc="http://creativecommons.org/ns#" xmlns:dc="http://purl.org/dc/elements/1.1/" xmlns:rdf="http://www.w3.org/1999/02/22-rdf-syntax-ns#">
 <metadata>
  <rdf:RDF>
   <cc:Work rdf:about="">
    <dc:format>image/svg+xml</dc:format>
    <dc:type rdf:resource="http://purl.org/dc/dcmitype/StillImage"/>
    <dc:title/>
   </cc:Work>
  </rdf:RDF>
 </metadata>
 <g transform="translate(63.538284,-162.36299)">
  <rect x="-63.538284" y="162.36299" width="322.79166" height="148.69583" opacity="0" stroke-width=".91198415"/>
  <g transform="translate(-1235.5959,378.47303)">
   <rect x="1178.6722" y="-209.49544" width="309.5625" height="135.46666" rx="9.3694143" ry="9.3694143" fill="#2196f3"/>
   <rect x="1185.7633" y="-204.34227" width="295.38028" height="125.1603" rx="8.9401665" ry="8.6565857" fill="#fff"/>
  </g>
  <g transform="matrix(.94999994 0 0 .9500008 -276.80391 -190.00885)">
   <path d="m306.65029 413.99608c0 7.32029-4.81866 17.43682-10.64489 22.96336-2.58386 2.45428-5.3669 4.00289-8.0163 4.00289-1.67453 0-3.34475-0.26569-4.78161-0.69428-1.96874-0.58865-4.06245-0.58865-6.03119 0-1.43674 0.42859-3.10683 0.69428-4.78149 0.69428-2.77558 0-5.69982-1.7013-8.38784-4.36256-5.65821-5.59701-10.27335-15.4406-10.27335-22.60381 0-10.56864 6.39974-16.95391 12.41746-18.49516 2.88263-0.73836 6.22737-0.26272 8.92862 0.43156 2.7935 0.71923 5.69682 0.8396 8.52592 0.3611 0.57061-0.0968 1.13664-0.2172 1.69836-0.3611 2.70136-0.69428 6.04454-1.16992 8.92861-0.43156 6.01809 1.54136 12.4177 7.92663 12.4177 18.49528z" fill="#f94848" stroke-width=".11954888"/>
   <path d="m285.73349 399.90174c0 1.20224-1.91089 2.20332-4.44723 2.43075-0.35362 0.0323-0.71915 0.0485-1.09358 0.0485-0.39079 0-0.77112-0.0176-1.13821-0.0513-2.51265-0.23634-4.40116-1.23302-4.40116-2.4279 0 0 0.2513-1.10965 5.54009-0.83225 1.86486 0.0978 5.54009 0.8322 5.54009 0.8322z" fill="#e23d3d" stroke-width=".11954888"/>
   <g transform="matrix(.35127786 .11165278 -.11302245 .34702086 200.86382 241.85647)" stroke-width=".3259508">
    <path d="m406.42053 327.56896s-15.26999-23.89443-37.95853-22.56705c-21.69002 1.26784-29.41497 27.96897-36.85218 29.51898-0.33254 0.0758-0.66506 0.094-1.00046 0.0562-0.0127 1e-3 -0.0181-1e-3 -0.0181-1e-3l0.01 0.0131c0.54021 0.58596 17.95338 19.27552 37.62007 12.08979 19.97687-7.29971 26.49036-20.8701 38.19884-19.10997z" fill="#c7f492"/>
    <path d="m406.42053 327.56896s-18.22439-8.97297-34.72366-1.48259c-14.50837 6.58653-35.28352 8.15533-40.08736 8.43466-0.57608 0.036-0.91898 0.0503-1.00045 0.0562-0.0127 1e-3 -0.0181-1e-3 -0.0181-1e-3l0.01 0.0131c0.54021 0.58595 17.95336 19.27553 37.62008 12.0898 19.97715-7.29985 26.49064-20.87024 38.19912-19.11011z" fill="#a3e261"/>
   </g>
   <path d="m284.41991 389.75134-4.06389 6.09749c0.30455 1.23599 0.5676 2.59817 0.73852 4.05279 0.0936 0.7853 0.16045 1.5971 0.19172 2.43075-0.35362 0.0323-0.71915 0.0485-1.09358 0.0485-0.39079 0-0.77112-0.0176-1.13821-0.0513-0.0327-0.83378-0.10549-1.64403-0.20508-2.4279-0.72805-5.69979-2.02926-8.23345-2.05597-8.28038-0.2883-0.5372-0.0817-1.20367 0.46212-1.48837 0.54378-0.28624 1.21844-0.0822 1.50663 0.45509 0.0654 0.12334-0.0406 5e-3 0.78557 2.47057l3.01192-4.5181c0.33727-0.50785 1.02972-0.64735 1.54236-0.31262 0.51407 0.33317 0.65672 1.01569 0.31789 1.52353z" fill="#b25719" stroke-width=".11954888"/>
  </g>
  <g transform="matrix(.94999994 0 0 .9500008 -59.845588 -190.00885)">
   <path d="m306.65029 413.99608c0 7.32029-4.81866 17.43682-10.64489 22.96336-2.58386 2.45428-5.3669 4.00289-8.0163 4.00289-1.67453 0-3.34475-0.26569-4.78161-0.69428-1.96874-0.58865-4.06245-0.58865-6.03119 0-1.43674 0.42859-3.10683 0.69428-4.78149 0.69428-2.77558 0-5.69982-1.7013-8.38784-4.36256-5.65821-5.59701-10.27335-15.4406-10.27335-22.60381 0-10.56864 6.39974-16.95391 12.41746-18.49516 2.88263-0.73836 6.22737-0.26272 8.92862 0.43156 2.7935 0.71923 5.69682 0.8396 8.52592 0.3611 0.57061-0.0968 1.13664-0.2172 1.69836-0.3611 2.70136-0.69428 6.04454-1.16992 8.92861-0.43156 6.01809 1.54136 12.4177 7.92663 12.4177 18.49528z" fill="#f94848" stroke-width=".11954888"/>
   <path d="m285.73349 399.90174c0 1.20224-1.91089 2.20332-4.44723 2.43075-0.35362 0.0323-0.71915 0.0485-1.09358 0.0485-0.39079 0-0.77112-0.0176-1.13821-0.0513-2.51265-0.23634-4.40116-1.23302-4.40116-2.4279 0 0 0.2513-1.10965 5.54009-0.83225 1.86486 0.0978 5.54009 0.8322 5.54009 0.8322z" fill="#e23d3d" stroke-width=".11954888"/>
   <g transform="matrix(.35127786 .11165278 -.11302245 .34702086 200.86382 241.85647)" stroke-width=".3259508">
    <path d="m406.42053 327.56896s-15.26999-23.89443-37.95853-22.56705c-21.69002 1.26784-29.41497 27.96897-36.85218 29.51898-0.33254 0.0758-0.66506 0.094-1.00046 0.0562-0.0127 1e-3 -0.0181-1e-3 -0.0181-1e-3l0.01 0.0131c0.54021 0.58596 17.95338 19.27552 37.62007 12.08979 19.97687-7.29971 26.49036-20.8701 38.19884-19.10997z" fill="#c7f492"/>
    <path d="m406.42053 327.56896s-18.22439-8.97297-34.72366-1.48259c-14.50837 6.58653-35.28352 8.15533-40.08736 8.43466-0.57608 0.036-0.91898 0.0503-1.00045 0.0562-0.0127 1e-3 -0.0181-1e-3 -0.0181-1e-3l0.01 0.0131c0.54021 0.58595 17.95336 19.27553 37.62008 12.0898 19.97715-7.29985 26.49064-20.87024 38.19912-19.11011z" fill="#a3e261"/>
   </g>
   <path d="m284.41991 389.75134-4.06389 6.09749c0.30455 1.23599 0.5676 2.59817 0.73852 4.05279 0.0936 0.7853 0.16045 1.5971 0.19172 2.43075-0.35362 0.0323-0.71915 0.0485-1.09358 0.0485-0.39079 0-0.77112-0.0176-1.13821-0.0513-0.0327-0.83378-0.10549-1.64403-0.20508-2.4279-0.72805-5.69979-2.02926-8.23345-2.05597-8.28038-0.2883-0.5372-0.0817-1.20367 0.46212-1.48837 0.54378-0.28624 1.21844-0.0822 1.50663 0.45509 0.0654 0.12334-0.0406 5e-3 0.78557 2.47057l3.01192-4.5181c0.33727-0.50785 1.02972-0.64735 1.54236-0.31262 0.51407 0.33317 0.65672 1.01569 0.31789 1.52353z" fill="#b25719" stroke-width=".11954888"/>
  </g>
  <g transform="matrix(.94999994 0 0 .9500008 -114.08518 -190.00885)">
   <path d="m306.65029 413.99608c0 7.32029-4.81866 17.43682-10.64489 22.96336-2.58386 2.45428-5.3669 4.00289-8.0163 4.00289-1.67453 0-3.34475-0.26569-4.78161-0.69428-1.96874-0.58865-4.06245-0.58865-6.03119 0-1.43674 0.42859-3.10683 0.69428-4.78149 0.69428-2.77558 0-5.69982-1.7013-8.38784-4.36256-5.65821-5.59701-10.27335-15.4406-10.27335-22.60381 0-10.56864 6.39974-16.95391 12.41746-18.49516 2.88263-0.73836 6.22737-0.26272 8.92862 0.43156 2.7935 0.71923 5.69682 0.8396 8.52592 0.3611 0.57061-0.0968 1.13664-0.2172 1.69836-0.3611 2.70136-0.69428 6.04454-1.16992 8.92861-0.43156 6.01809 1.54136 12.4177 7.92663 12.4177 18.49528z" fill="#f94848" stroke-width=".11954888"/>
   <path d="m285.73349 399.90174c0 1.20224-1.91089 2.20332-4.44723 2.43075-0.35362 0.0323-0.71915 0.0485-1.09358 0.0485-0.39079 0-0.77112-0.0176-1.13821-0.0513-2.51265-0.23634-4.40116-1.23302-4.40116-2.4279 0 0 0.2513-1.10965 5.54009-0.83225 1.86486 0.0978 5.54009 0.8322 5.54009 0.8322z" fill="#e23d3d" stroke-width=".11954888"/>
   <g transform="matrix(.35127786 .11165278 -.11302245 .34702086 200.86382 241.85647)" stroke-width=".3259508">
    <path d="m406.42053 327.56896s-15.26999-23.89443-37.95853-22.56705c-21.69002 1.26784-29.41497 27.96897-36.85218 29.51898-0.33254 0.0758-0.66506 0.094-1.00046 0.0562-0.0127 1e-3 -0.0181-1e-3 -0.0181-1e-3l0.01 0.0131c0.54021 0.58596 17.95338 19.27552 37.62007 12.08979 19.97687-7.29971 26.49036-20.8701 38.19884-19.10997z" fill="#c7f492"/>
    <path d="m406.42053 327.56896s-18.22439-8.97297-34.72366-1.48259c-14.50837 6.58653-35.28352 8.15533-40.08736 8.43466-0.57608 0.036-0.91898 0.0503-1.00045 0.0562-0.0127 1e-3 -0.0181-1e-3 -0.0181-1e-3l0.01 0.0131c0.54021 0.58595 17.95336 19.27553 37.62008 12.0898 19.97715-7.29985 26.49064-20.87024 38.19912-19.11011z" fill="#a3e261"/>
   </g>
   <path d="m284.41991 389.75134-4.06389 6.09749c0.30455 1.23599 0.5676 2.59817 0.73852 4.05279 0.0936 0.7853 0.16045 1.5971 0.19172 2.43075-0.35362 0.0323-0.71915 0.0485-1.09358 0.0485-0.39079 0-0.77112-0.0176-1.13821-0.0513-0.0327-0.83378-0.10549-1.64403-0.20508-2.4279-0.72805-5.69979-2.02926-8.23345-2.05597-8.28038-0.2883-0.5372-0.0817-1.20367 0.46212-1.48837 0.54378-0.28624 1.21844-0.0822 1.50663 0.45509 0.0654 0.12334-0.0406 5e-3 0.78557 2.47057l3.01192-4.5181c0.33727-0.50785 1.02972-0.64735 1.54236-0.31262 0.51407 0.33317 0.65672 1.01569 0.31789 1.52353z" fill="#b25719" stroke-width=".11954888"/>
  </g>
  <g transform="matrix(.94999994 0 0 .9500008 -168.32476 -190.00885)">
   <path d="m306.65029 413.99608c0 7.32029-4.81866 17.43682-10.64489 22.96336-2.58386 2.45428-5.3669 4.00289-8.0163 4.00289-1.67453 0-3.34475-0.26569-4.78161-0.69428-1.96874-0.58865-4.06245-0.58865-6.03119 0-1.43674 0.42859-3.10683 0.69428-4.78149 0.69428-2.77558 0-5.69982-1.7013-8.38784-4.36256-5.65821-5.59701-10.27335-15.4406-10.27335-22.60381 0-10.56864 6.39974-16.95391 12.41746-18.49516 2.88263-0.73836 6.22737-0.26272 8.92862 0.43156 2.7935 0.71923 5.69682 0.8396 8.52592 0.3611 0.57061-0.0968 1.13664-0.2172 1.69836-0.3611 2.70136-0.69428 6.04454-1.16992 8.92861-0.43156 6.01809 1.54136 12.4177 7.92663 12.4177 18.49528z" fill="#f94848" stroke-width=".11954888"/>
   <path d="m285.73349 399.90174c0 1.20224-1.91089 2.20332-4.44723 2.43075-0.35362 0.0323-0.71915 0.0485-1.09358 0.0485-0.39079 0-0.77112-0.0176-1.13821-0.0513-2.51265-0.23634-4.40116-1.23302-4.40116-2.4279 0 0 0.2513-1.10965 5.54009-0.83225 1.86486 0.0978 5.54009 0.8322 5.54009 0.8322z" fill="#e23d3d" stroke-width=".11954888"/>
   <g transform="matrix(.35127786 .11165278 -.11302245 .34702086 200.86382 241.85647)" stroke-width=".3259508">
    <path d="m406.42053 327.56896s-15.26999-23.89443-37.95853-22.56705c-21.69002 1.26784-29.41497 27.96897-36.85218 29.51898-0.33254 0.0758-0.66506 0.094-1.00046 0.0562-0.0127 1e-3 -0.0181-1e-3 -0.0181-1e-3l0.01 0.0131c0.54021 0.58596 17.95338 19.27552 37.62007 12.08979 19.97687-7.29971 26.49036-20.8701 38.19884-19.10997z" fill="#c7f492"/>
    <path d="m406.42053 327.56896s-18.22439-8.97297-34.72366-1.48259c-14.50837 6.58653-35.28352 8.15533-40.08736 8.43466-0.57608 0.036-0.91898 0.0503-1.00045 0.0562-0.0127 1e-3 -0.0181-1e-3 -0.0181-1e-3l0.01 0.0131c0.54021 0.58595 17.95336 19.27553 37.62008 12.0898 19.97715-7.29985 26.49064-20.87024 38.19912-19.11011z" fill="#a3e261"/>
   </g>
   <path d="m284.41991 389.75134-4.06389 6.09749c0.30455 1.23599 0.5676 2.59817 0.73852 4.05279 0.0936 0.7853 0.16045 1.5971 0.19172 2.43075-0.35362 0.0323-0.71915 0.0485-1.09358 0.0485-0.39079 0-0.77112-0.0176-1.13821-0.0513-0.0327-0.83378-0.10549-1.64403-0.20508-2.4279-0.72805-5.69979-2.02926-8.23345-2.05597-8.28038-0.2883-0.5372-0.0817-1.20367 0.46212-1.48837 0.54378-0.28624 1.21844-0.0822 1.50663 0.45509 0.0654 0.12334-0.0406 5e-3 0.78557 2.47057l3.01192-4.5181c0.33727-0.50785 1.02972-0.64735 1.54236-0.31262 0.51407 0.33317 0.65672 1.01569 0.31789 1.52353z" fill="#b25719" stroke-width=".11954888"/>
  </g>
  <g transform="matrix(.94999994 0 0 .9500008 -222.56433 -190.00885)">
   <path d="m306.65029 413.99608c0 7.32029-4.81866 17.43682-10.64489 22.96336-2.58386 2.45428-5.3669 4.00289-8.0163 4.00289-1.67453 0-3.34475-0.26569-4.78161-0.69428-1.96874-0.58865-4.06245-0.58865-6.03119 0-1.43674 0.42859-3.10683 0.69428-4.78149 0.69428-2.77558 0-5.69982-1.7013-8.38784-4.36256-5.65821-5.59701-10.27335-15.4406-10.27335-22.60381 0-10.56864 6.39974-16.95391 12.41746-18.49516 2.88263-0.73836 6.22737-0.26272 8.92862 0.43156 2.7935 0.71923 5.69682 0.8396 8.52592 0.3611 0.57061-0.0968 1.13664-0.2172 1.69836-0.3611 2.70136-0.69428 6.04454-1.16992 8.92861-0.43156 6.01809 1.54136 12.4177 7.92663 12.4177 18.49528z" fill="#f94848" stroke-width=".11954888"/>
   <path d="m285.73349 399.90174c0 1.20224-1.91089 2.20332-4.44723 2.43075-0.35362 0.0323-0.71915 0.0485-1.09358 0.0485-0.39079 0-0.77112-0.0176-1.13821-0.0513-2.51265-0.23634-4.40116-1.23302-4.40116-2.4279 0 0 0.2513-1.10965 5.54009-0.83225 1.86486 0.0978 5.54009 0.8322 5.54009 0.8322z" fill="#e23d3d" stroke-width=".11954888"/>
   <g transform="matrix(.35127786 .11165278 -.11302245 .34702086 200.86382 241.85647)" stroke-width=".3259508">
    <path d="m406.42053 327.56896s-15.26999-23.89443-37.95853-22.56705c-21.69002 1.26784-29.41497 27.96897-36.85218 29.51898-0.33254 0.0758-0.66506 0.094-1.00046 0.0562-0.0127 1e-3 -0.0181-1e-3 -0.0181-1e-3l0.01 0.0131c0.54021 0.58596 17.95338 19.27552 37.62007 12.08979 19.97687-7.29971 26.49036-20.8701 38.19884-19.10997z" fill="#c7f492"/>
    <path d="m406.42053 327.56896s-18.22439-8.97297-34.72366-1.48259c-14.50837 6.58653-35.28352 8.15533-40.08736 8.43466-0.57608 0.036-0.91898 0.0503-1.00045 0.0562-0.0127 1e-3 -0.0181-1e-3 -0.0181-1e-3l0.01 0.0131c0.54021 0.58595 17.95336 19.27553 37.62008 12.0898 19.97715-7.29985 26.49064-20.87024 38.19912-19.11011z" fill="#a3e261"/>
   </g>
   <path d="m284.41991 389.75134-4.06389 6.09749c0.30455 1.23599 0.5676 2.59817 0.73852 4.05279 0.0936 0.7853 0.16045 1.5971 0.19172 2.43075-0.35362 0.0323-0.71915 0.0485-1.09358 0.0485-0.39079 0-0.77112-0.0176-1.13821-0.0513-0.0327-0.83378-0.10549-1.64403-0.20508-2.4279-0.72805-5.69979-2.02926-8.23345-2.05597-8.28038-0.2883-0.5372-0.0817-1.20367 0.46212-1.48837 0.54378-0.28624 1.21844-0.0822 1.50663 0.45509 0.0654 0.12334-0.0406 5e-3 0.78557 2.47057l3.01192-4.5181c0.33727-0.50785 1.02972-0.64735 1.54236-0.31262 0.51407 0.33317 0.65672 1.01569 0.31789 1.52353z" fill="#b25719" stroke-width=".11954888"/>
  </g>
  <g transform="matrix(.94999994 0 0 .9500008 -276.80391 -124.12761)">
   <path d="m306.65029 413.99608c0 7.32029-4.81866 17.43682-10.64489 22.96336-2.58386 2.45428-5.3669 4.00289-8.0163 4.00289-1.67453 0-3.34475-0.26569-4.78161-0.69428-1.96874-0.58865-4.06245-0.58865-6.03119 0-1.43674 0.42859-3.10683 0.69428-4.78149 0.69428-2.77558 0-5.69982-1.7013-8.38784-4.36256-5.65821-5.59701-10.27335-15.4406-10.27335-22.60381 0-10.56864 6.39974-16.95391 12.41746-18.49516 2.88263-0.73836 6.22737-0.26272 8.92862 0.43156 2.7935 0.71923 5.69682 0.8396 8.52592 0.3611 0.57061-0.0968 1.13664-0.2172 1.69836-0.3611 2.70136-0.69428 6.04454-1.16992 8.92861-0.43156 6.01809 1.54136 12.4177 7.92663 12.4177 18.49528z" fill="#f94848" stroke-width=".11954888"/>
   <path d="m285.73349 399.90174c0 1.20224-1.91089 2.20332-4.44723 2.43075-0.35362 0.0323-0.71915 0.0485-1.09358 0.0485-0.39079 0-0.77112-0.0176-1.13821-0.0513-2.51265-0.23634-4.40116-1.23302-4.40116-2.4279 0 0 0.2513-1.10965 5.54009-0.83225 1.86486 0.0978 5.54009 0.8322 5.54009 0.8322z" fill="#e23d3d" stroke-width=".11954888"/>
   <g transform="matrix(.35127786 .11165278 -.11302245 .34702086 200.86382 241.85647)" stroke-width=".3259508">
    <path d="m406.42053 327.56896s-15.26999-23.89443-37.95853-22.56705c-21.69002 1.26784-29.41497 27.96897-36.85218 29.51898-0.33254 0.0758-0.66506 0.094-1.00046 0.0562-0.0127 1e-3 -0.0181-1e-3 -0.0181-1e-3l0.01 0.0131c0.54021 0.58596 17.95338 19.27552 37.62007 12.08979 19.97687-7.29971 26.49036-20.8701 38.19884-19.10997z" fill="#c7f492"/>
    <path d="m406.42053 327.56896s-18.22439-8.97297-34.72366-1.48259c-14.50837 6.58653-35.28352 8.15533-40.08736 8.43466-0.57608 0.036-0.91898 0.0503-1.00045 0.0562-0.0127 1e-3 -0.0181-1e-3 -0.0181-1e-3l0.01 0.0131c0.54021 0.58595 17.95336 19.27553 37.62008 12.0898 19.97715-7.29985 26.49064-20.87024 38.19912-19.11011z" fill="#a3e261"/>
   </g>
   <path d="m284.41991 389.75134-4.06389 6.09749c0.30455 1.23599 0.5676 2.59817 0.73852 4.05279 0.0936 0.7853 0.16045 1.5971 0.19172 2.43075-0.35362 0.0323-0.71915 0.0485-1.09358 0.0485-0.39079 0-0.77112-0.0176-1.13821-0.0513-0.0327-0.83378-0.10549-1.64403-0.20508-2.4279-0.72805-5.69979-2.02926-8.23345-2.05597-8.28038-0.2883-0.5372-0.0817-1.20367 0.46212-1.48837 0.54378-0.28624 1.21844-0.0822 1.50663 0.45509 0.0654 0.12334-0.0406 5e-3 0.78557 2.47057l3.01192-4.5181c0.33727-0.50785 1.02972-0.64735 1.54236-0.31262 0.51407 0.33317 0.65672 1.01569 0.31789 1.52353z" fill="#b25719" stroke-width=".11954888"/>
  </g>
  <g transform="matrix(.94999994 0 0 .9500008 -168.32476 -124.12761)">
   <path d="m306.65029 413.99608c0 7.32029-4.81866 17.43682-10.64489 22.96336-2.58386 2.45428-5.3669 4.00289-8.0163 4.00289-1.67453 0-3.34475-0.26569-4.78161-0.69428-1.96874-0.58865-4.06245-0.58865-6.03119 0-1.43674 0.42859-3.10683 0.69428-4.78149 0.69428-2.77558 0-5.69982-1.7013-8.38784-4.36256-5.65821-5.59701-10.27335-15.4406-10.27335-22.60381 0-10.56864 6.39974-16.95391 12.41746-18.49516 2.88263-0.73836 6.22737-0.26272 8.92862 0.43156 2.7935 0.71923 5.69682 0.8396 8.52592 0.3611 0.57061-0.0968 1.13664-0.2172 1.69836-0.3611 2.70136-0.69428 6.04454-1.16992 8.92861-0.43156 6.01809 1.54136 12.4177 7.92663 12.4177 18.49528z" fill="#f94848" stroke-width=".11954888"/>
   <path d="m285.73349 399.90174c0 1.20224-1.91089 2.20332-4.44723 2.43075-0.35362 0.0323-0.71915 0.0485-1.09358 0.0485-0.39079 0-0.77112-0.0176-1.13821-0.0513-2.51265-0.23634-4.40116-1.23302-4.40116-2.4279 0 0 0.2513-1.10965 5.54009-0.83225 1.86486 0.0978 5.54009 0.8322 5.54009 0.8322z" fill="#e23d3d" stroke-width=".11954888"/>
   <g transform="matrix(.35127786 .11165278 -.11302245 .34702086 200.86382 241.85647)" stroke-width=".3259508">
    <path d="m406.42053 327.56896s-15.26999-23.89443-37.95853-22.56705c-21.69002 1.26784-29.41497 27.96897-36.85218 29.51898-0.33254 0.0758-0.66506 0.094-1.00046 0.0562-0.0127 1e-3 -0.0181-1e-3 -0.0181-1e-3l0.01 0.0131c0.54021 0.58596 17.95338 19.27552 37.62007 12.08979 19.97687-7.29971 26.49036-20.8701 38.19884-19.10997z" fill="#c7f492"/>
    <path d="m406.42053 327.56896s-18.22439-8.97297-34.72366-1.48259c-14.50837 6.58653-35.28352 8.15533-40.08736 8.43466-0.57608 0.036-0.91898 0.0503-1.00045 0.0562-0.0127 1e-3 -0.0181-1e-3 -0.0181-1e-3l0.01 0.0131c0.54021 0.58595 17.95336 19.27553 37.62008 12.0898 19.97715-7.29985 26.49064-20.87024 38.19912-19.11011z" fill="#a3e261"/>
   </g>
   <path d="m284.41991 389.75134-4.06389 6.09749c0.30455 1.23599 0.5676 2.59817 0.73852 4.05279 0.0936 0.7853 0.16045 1.5971 0.19172 2.43075-0.35362 0.0323-0.71915 0.0485-1.09358 0.0485-0.39079 0-0.77112-0.0176-1.13821-0.0513-0.0327-0.83378-0.10549-1.64403-0.20508-2.4279-0.72805-5.69979-2.02926-8.23345-2.05597-8.28038-0.2883-0.5372-0.0817-1.20367 0.46212-1.48837 0.54378-0.28624 1.21844-0.0822 1.50663 0.45509 0.0654 0.12334-0.0406 5e-3 0.78557 2.47057l3.01192-4.5181c0.33727-0.50785 1.02972-0.64735 1.54236-0.31262 0.51407 0.33317 0.65672 1.01569 0.31789 1.52353z" fill="#b25719" stroke-width=".11954888"/>
  </g>
  <g transform="matrix(.94999994 0 0 .9500008 -222.56433 -124.12761)">
   <path d="m306.65029 413.99608c0 7.32029-4.81866 17.43682-10.64489 22.96336-2.58386 2.45428-5.3669 4.00289-8.0163 4.00289-1.67453 0-3.34475-0.26569-4.78161-0.69428-1.96874-0.58865-4.06245-0.58865-6.03119 0-1.43674 0.42859-3.10683 0.69428-4.78149 0.69428-2.77558 0-5.69982-1.7013-8.38784-4.36256-5.65821-5.59701-10.27335-15.4406-10.27335-22.60381 0-10.56864 6.39974-16.95391 12.41746-18.49516 2.88263-0.73836 6.22737-0.26272 8.92862 0.43156 2.7935 0.71923 5.69682 0.8396 8.52592 0.3611 0.57061-0.0968 1.13664-0.2172 1.69836-0.3611 2.70136-0.69428 6.04454-1.16992 8.92861-0.43156 6.01809 1.54136 12.4177 7.92663 12.4177 18.49528z" fill="#f94848" stroke-width=".11954888"/>
   <path d="m285.73349 399.90174c0 1.20224-1.91089 2.20332-4.44723 2.43075-0.35362 0.0323-0.71915 0.0485-1.09358 0.0485-0.39079 0-0.77112-0.0176-1.13821-0.0513-2.51265-0.23634-4.40116-1.23302-4.40116-2.4279 0 0 0.2513-1.10965 5.54009-0.83225 1.86486 0.0978 5.54009 0.8322 5.54009 0.8322z" fill="#e23d3d" stroke-width=".11954888"/>
   <g transform="matrix(.35127786 .11165278 -.11302245 .34702086 200.86382 241.85647)" stroke-width=".3259508">
    <path d="m406.42053 327.56896s-15.26999-23.89443-37.95853-22.56705c-21.69002 1.26784-29.41497 27.96897-36.85218 29.51898-0.33254 0.0758-0.66506 0.094-1.00046 0.0562-0.0127 1e-3 -0.0181-1e-3 -0.0181-1e-3l0.01 0.0131c0.54021 0.58596 17.95338 19.27552 37.62007 12.08979 19.97687-7.29971 26.49036-20.8701 38.19884-19.10997z" fill="#c7f492"/>
    <path d="m406.42053 327.56896s-18.22439-8.97297-34.72366-1.48259c-14.50837 6.58653-35.28352 8.15533-40.08736 8.43466-0.57608 0.036-0.91898 0.0503-1.00045 0.0562-0.0127 1e-3 -0.0181-1e-3 -0.0181-1e-3l0.01 0.0131c0.54021 0.58595 17.95336 19.27553 37.62008 12.0898 19.97715-7.29985 26.49064-20.87024 38.19912-19.11011z" fill="#a3e261"/>
   </g>
   <path d="m284.41991 389.75134-4.06389 6.09749c0.30455 1.23599 0.5676 2.59817 0.73852 4.05279 0.0936 0.7853 0.16045 1.5971 0.19172 2.43075-0.35362 0.0323-0.71915 0.0485-1.09358 0.0485-0.39079 0-0.77112-0.0176-1.13821-0.0513-0.0327-0.83378-0.10549-1.64403-0.20508-2.4279-0.72805-5.69979-2.02926-8.23345-2.05597-8.28038-0.2883-0.5372-0.0817-1.20367 0.46212-1.48837 0.54378-0.28624 1.21844-0.0822 1.50663 0.45509 0.0654 0.12334-0.0406 5e-3 0.78557 2.47057l3.01192-4.5181c0.33727-0.50785 1.02972-0.64735 1.54236-0.31262 0.51407 0.33317 0.65672 1.01569 0.31789 1.52353z" fill="#b25719" stroke-width=".11954888"/>
  </g>
  <g fill="#2196f3" stroke="#fff" stroke-width="1.32291663">
   <g transform="translate(-1168.3868,242.56386)" style="font-feature-settings:normal;font-variant-caps:normal;font-variant-ligatures:normal;font-variant-numeric:normal" aria-label="1">
    <path d="m1160.2649-43.387707-4.4649 0.124024-1.2264 1.005968v4.230577l1.1024-0.509874 0.124 13.339409h4.8232z" fill="#2196f3" stroke="#fff" stroke-width="1.32291663" style="font-feature-settings:normal;font-variant-caps:normal;font-variant-ligatures:normal;font-variant-numeric:normal"/>
   </g>
   <g transform="translate(-1153.0236,241.0564)" style="font-feature-settings:normal;font-variant-caps:normal;font-variant-ligatures:normal;font-variant-numeric:normal" aria-label="2">
    <path d="m1201.0502-41.169313q-4.1479-2.52181-7.717-0.04134-1.7915 1.309136-3.1557 3.23839l2.7836 3.527777q0.3583-0.578776 1.006-1.074869 1.4331-1.43316 2.8801-1.129992 0.813 0.179145 0.6614 1.102431-0.124 0.785482-0.9232 2.053277-1.5021 2.356445-3.6656 3.789605-0.9371 0.799262-1.7364 1.405598l-0.3307 4.878256 11.2035 0.234266 0.014-4.671549-5.6637 0.261827q2.6872-2.480469 4.6027-5.40191 1.6812-2.54937 1.8741-4.478624 0.2618-2.411566-1.8328-3.693142z" fill="#2196f3" stroke="#fff" stroke-width="1.32291663" style="font-feature-settings:normal;font-variant-caps:normal;font-variant-ligatures:normal;font-variant-numeric:normal"/>
   </g>
   <g transform="translate(-1132.6538,240.77736)" style="font-feature-settings:normal;font-variant-caps:normal;font-variant-ligatures:normal;font-variant-numeric:normal" aria-label="3">
    <path d="m1224.1829-41.348458 0.1241 4.203017 5.3054-0.124024-4.4648 3.23839q1.2264-0.179145 2.4115 0.137804 2.3978 0.633897 2.3289 3.128146-0.083 2.50803-2.4115 2.466688-1.1714-0.02756-2.3289-0.551215l-1.0887 4.492405q1.9844 0.633897 4.3271 0.675238 4.6439 0.09646 6.3527-2.824978 2.3427-4.023871-0.041-6.807508-1.1989-1.391819-2.7423-2.122179l4.768-5.856662z" fill="#2196f3" stroke="#fff" stroke-width="1.32291663" style="font-feature-settings:normal;font-variant-caps:normal;font-variant-ligatures:normal;font-variant-numeric:normal"/>
   </g>
   <g transform="translate(-1113.6287,239.66989)" style="font-feature-settings:normal;font-variant-caps:normal;font-variant-ligatures:normal;font-variant-numeric:normal" aria-label="4">
    <path d="m1267.173-34.513513h-2.8801l0.124-6.173611-4.7542 0.137803v10.004557l7.2485 0.261828-0.5237 8.033962 4.9885 0.124024 0.3996-18.562174h-4.4786z" fill="#2196f3" stroke="#fff" stroke-width="1.32291663" style="font-feature-settings:normal;font-variant-caps:normal;font-variant-ligatures:normal;font-variant-numeric:normal"/>
   </g>
   <g transform="translate(-1095.4192,241.9495)" style="font-feature-settings:normal;font-variant-caps:normal;font-variant-ligatures:normal;font-variant-numeric:normal" aria-label="5">
    <path d="m1299.4831-38.523355 7.2347 0.303169 0.4272-4.065213-11.1759-0.427192 0.1791 8.516276q1.7088-0.35829 3.1833-0.220486 2.949 0.289388 3.0179 2.797417 0.083 2.52181-2.4805 2.86632-1.2816 0.179145-2.5907-0.151585l-0.248 4.161676q2.7285 0.330729 5.4294-0.35829 5.3882-1.350478 5.1263-6.380317-0.2342-5.029839-4.2168-6.035807-1.9706-0.633898-3.9136-0.124023z" fill="#2196f3" stroke="#fff" stroke-width="1.32291663" style="font-feature-settings:normal;font-variant-caps:normal;font-variant-ligatures:normal;font-variant-numeric:normal"/>
   </g>
   <g transform="translate(-1340.088,306.19777)" style="font-feature-settings:normal;font-variant-caps:normal;font-variant-ligatures:normal;font-variant-numeric:normal" aria-label="6">
    <path d="m1329.0109-27.623323q-0.4823 0.04134-0.7441-0.248047-0.2343-0.248046-0.2343-0.647677 0-0.399632 0.193-0.71658 0.2067-0.330729 0.5374-0.385851 0.7855-0.137804 1.1713 0.137804 0.3445 0.234266 0.3032 0.675239-0.041 0.413411-0.3721 0.757921-0.3583 0.37207-0.8544 0.427191zm-0.3307-6.297634q-0.1653-0.578776 0.1654-1.061089 0.689-0.978407 3.2246-0.537435l0.7304-4.285699q-0.6339-0.316949-1.7639-0.399631-2.2738-0.137804-4.7543 1.07487-1.2953 0.633897-2.4667 3.017903-1.1989 2.466689-1.4193 5.140083-0.2343 3.073025 1.0335 5.126302 1.4883 2.425347 4.8645 2.962782 2.9214 0.468533 4.892-1.157552 1.7777-1.460721 1.9844-3.844727 0.2067-2.397786-1.3643-4.092773-1.7777-1.915473-5.1263-1.943034z" fill="#2196f3" stroke="#fff" stroke-width="1.32291663" style="font-feature-settings:normal;font-variant-caps:normal;font-variant-ligatures:normal;font-variant-numeric:normal"/>
   </g>
   <g transform="translate(-1315.3171,304.1797)" style="font-feature-settings:normal;font-variant-caps:normal;font-variant-ligatures:normal;font-variant-numeric:normal" aria-label="7">
    <path d="m1352.7918-32.804996 4.4787-0.124023-4.1204 11.685763 5.5397 0.468533 6.0221-17.445963-12.1543 0.124024z" fill="#2196f3" stroke="#fff" stroke-width="1.32291663" style="font-feature-settings:normal;font-variant-caps:normal;font-variant-ligatures:normal;font-variant-numeric:normal"/>
   </g>
   <g transform="translate(-1296.1423,304.18592)" style="font-feature-settings:normal;font-variant-caps:normal;font-variant-ligatures:normal;font-variant-numeric:normal" aria-label="8">
    <path d="m1393.963-25.942366q-0.4547 0-0.7441-0.261827-0.248-0.220486-0.2894-0.564996-0.027-0.330729 0.1929-0.551215 0.2205-0.261827 0.6753-0.275607 0.6201-0.01378 0.9508 0.248046 0.2756 0.220486 0.2618 0.564996-0.014 0.330729-0.2893 0.578776-0.3032 0.261827-0.758 0.261827zm-0.5512-9.03993q0.441-0.09646 0.7028 0.0689 0.2343 0.165365 0.2481 0.468533 0.014 0.303168-0.1792 0.509874-0.2342 0.261827-0.6339 0.261827-0.3996 0-0.6339-0.179145-0.2342-0.151584-0.248-0.38585-0.069-0.551216 0.7441-0.744141zm3.3349 3.748264q1.0197-1.915473 1.1575-3.872287 0.317-3.899848-4.079-4.065213-1.695-0.0689-2.9765 0.840603-1.1714 0.826823-1.6812 2.204861-0.4823 1.364258-0.1378 2.673394 0.372 1.405599 1.5985 2.218642-1.1162 0.895725-2.0671 2.218641-1.9154 2.632053-1.1575 4.781793 0.6614 1.887912 2.2324 3.073025 1.4745 1.08865 3.3486 1.309136 1.8466 0.220486 3.514-0.496094 1.7639-0.771701 2.7699-2.397786 1.8052-2.907661-0.1792-5.994466-0.9921-1.543403-2.3426-2.494249z" fill="#2196f3" stroke="#fff" stroke-width="1.32291663" style="font-feature-settings:normal;font-variant-caps:normal;font-variant-ligatures:normal;font-variant-numeric:normal"/>
   </g>
  </g>
 </g>
</svg>
