<?xml version="1.0" encoding="UTF-8"?>
<!-- Created with Inkscape (http://www.inkscape.org/) -->
<svg width="1170" height="511.99997" version="1.1" viewBox="0 0 309.56249 135.46666" xmlns="http://www.w3.org/2000/svg" xmlns:cc="http://creativecommons.org/ns#" xmlns:dc="http://purl.org/dc/elements/1.1/" xmlns:rdf="http://www.w3.org/1999/02/22-rdf-syntax-ns#">
 <metadata>
  <rdf:RDF>
   <cc:Work rdf:about="">
    <dc:format>image/svg+xml</dc:format>
    <dc:type rdf:resource="http://purl.org/dc/dcmitype/StillImage"/>
    <dc:title/>
   </cc:Work>
  </rdf:RDF>
 </metadata>
 <g transform="translate(56.923659,29.653984)">
  <g transform="translate(-1235.5959,378.47303)">
   <rect x="1178.6722" y="-408.12701" width="309.5625" height="135.46666" rx="9.3694143" ry="9.3694143" fill="#2196f3"/>
   <rect x="1185.7633" y="-402.97385" width="295.38028" height="125.1603" rx="8.9401665" ry="8.6565857" fill="#fff"/>
  </g>
  <g transform="matrix(.37545254 0 0 .37499626 -129.96675 -139.08755)">
   <path d="m343.56116 445.01819s-10.50555 15.20534-37.32239 13.54666c-2.21165-0.27649-4.69979-0.27649-6.91145 0-27.09333 1.38245-37.59887-13.54666-37.59887-13.54666-22.94652-26.26387-2.21166-53.63369-2.21166-53.63369 6.91145-8.57038 16.58779-24.88168 16.58779-24.88168 6.63522-30.41094 26.54035-27.09333 26.54035-27.09333s19.9054-3.31761 26.54036 27.09333c0 0 9.67608 16.3113 16.58779 24.88168 0 0 20.7346 27.36982-2.21192 53.63369z" fill="#71c837" stroke-width=".26458332"/>
   <g transform="matrix(.26458333 0 0 .26458333 236.23055 325.86282)" fill="#c7f492">
    <circle cx="374.31201" cy="397.061" r="11.494"/>
    <circle cx="403.57001" cy="377.20801" r="11.494"/>
    <circle cx="374.31201" cy="360.48999" r="11.494"/>
   </g>
   <g transform="matrix(.84487328 .29157543 -.31013545 .79431194 29.929883 -70.322234)" stroke-width=".26458332">
    <path d="m503.53059 324.12341s-3.26866 22.78485-20.48377 29.4169c-16.45709 6.341-31.12638-10.80241-37.14353-9.4525-0.2712 0.0556-0.52309 0.15372-0.7583 0.29421-0.01 3e-3 -0.013 7e-3 -0.013 7e-3l3e-3 -0.013c0.20267-0.61436 6.80191-20.27131 23.74926-21.55931 17.21485-1.30783 26.58269 6.5368 34.64613 1.30705z" fill="#c7f492"/>
    <path d="m503.53059 324.12341s-10.45924 12.74736-25.16769 12.74736c-12.93363 0-28.81551 5.81157-32.45988 7.21704-0.43788 0.16668-0.69612 0.27119-0.75829 0.29421-0.01 3e-3 -0.013 7e-3 -0.013 7e-3l3e-3 -0.013c0.20267-0.61436 6.8019-20.27131 23.74926-21.55931 17.21511-1.30783 26.58295 6.5368 34.64639 1.30705z" fill="#a3e261"/>
   </g>
   <path d="m309.13115 345.74033c0 2.15582-2.16435 3.95092-5.03713 4.35873-0.40053 0.058-0.81454 0.0869-1.23864 0.0869-0.44263 0-0.8734-0.0316-1.28919-0.092-2.84594-0.42379-4.98495-2.21101-4.98495-4.35362 0 0 1.31419-0.9797 6.06502-0.9797 4.75083-1e-5 6.48489 0.97969 6.48489 0.97969z" fill="#56982a" stroke-width=".17037378"/>
   <path d="m311.25157 321.07645-8.23237 12.50339c0.61694 2.5345 1.14981 5.32775 1.49604 8.31057 0.18957 1.61032 0.32504 3.27497 0.38839 4.98445-0.71635 0.0663-1.45681 0.0994-2.21531 0.0994-0.79163 0-1.56208-0.0361-2.3057-0.10526-0.0663-1.70972-0.21369-3.3712-0.41544-4.9786-1.47484-11.68787-4.27137-17.37503-4.32547-17.47128-0.58403-1.10156-0.16544-2.46822 0.93612-3.05202 1.10157-0.58696 2.46823-0.1686 3.05202 0.9332 0.13256 0.25291 0.0783 0.50097 1.75199 5.55778l6.10136-9.26472c0.6832-1.04138 2.08593-1.32743 3.12439-0.64106 1.04137 0.68321 1.33035 2.08277 0.64398 3.12414z" fill="#b25719" stroke-width=".24365474"/>
  </g>
  <g transform="matrix(.37545254 0 0 .37499626 41.196842 -139.08755)">
   <path d="m343.56116 445.01819s-10.50555 15.20534-37.32239 13.54666c-2.21165-0.27649-4.69979-0.27649-6.91145 0-27.09333 1.38245-37.59887-13.54666-37.59887-13.54666-22.94652-26.26387-2.21166-53.63369-2.21166-53.63369 6.91145-8.57038 16.58779-24.88168 16.58779-24.88168 6.63522-30.41094 26.54035-27.09333 26.54035-27.09333s19.9054-3.31761 26.54036 27.09333c0 0 9.67608 16.3113 16.58779 24.88168 0 0 20.7346 27.36982-2.21192 53.63369z" fill="#71c837" stroke-width=".26458332"/>
   <g transform="matrix(.26458333 0 0 .26458333 236.23055 325.86282)" fill="#c7f492">
    <circle cx="374.31201" cy="397.061" r="11.494"/>
    <circle cx="403.57001" cy="377.20801" r="11.494"/>
    <circle cx="374.31201" cy="360.48999" r="11.494"/>
   </g>
   <g transform="matrix(.84487328 .29157543 -.31013545 .79431194 29.929883 -70.322234)" stroke-width=".26458332">
    <path d="m503.53059 324.12341s-3.26866 22.78485-20.48377 29.4169c-16.45709 6.341-31.12638-10.80241-37.14353-9.4525-0.2712 0.0556-0.52309 0.15372-0.7583 0.29421-0.01 3e-3 -0.013 7e-3 -0.013 7e-3l3e-3 -0.013c0.20267-0.61436 6.80191-20.27131 23.74926-21.55931 17.21485-1.30783 26.58269 6.5368 34.64613 1.30705z" fill="#c7f492"/>
    <path d="m503.53059 324.12341s-10.45924 12.74736-25.16769 12.74736c-12.93363 0-28.81551 5.81157-32.45988 7.21704-0.43788 0.16668-0.69612 0.27119-0.75829 0.29421-0.01 3e-3 -0.013 7e-3 -0.013 7e-3l3e-3 -0.013c0.20267-0.61436 6.8019-20.27131 23.74926-21.55931 17.21511-1.30783 26.58295 6.5368 34.64639 1.30705z" fill="#a3e261"/>
   </g>
   <path d="m309.13115 345.74033c0 2.15582-2.16435 3.95092-5.03713 4.35873-0.40053 0.058-0.81454 0.0869-1.23864 0.0869-0.44263 0-0.8734-0.0316-1.28919-0.092-2.84594-0.42379-4.98495-2.21101-4.98495-4.35362 0 0 1.31419-0.9797 6.06502-0.9797 4.75083-1e-5 6.48489 0.97969 6.48489 0.97969z" fill="#56982a" stroke-width=".17037378"/>
   <path d="m311.25157 321.07645-8.23237 12.50339c0.61694 2.5345 1.14981 5.32775 1.49604 8.31057 0.18957 1.61032 0.32504 3.27497 0.38839 4.98445-0.71635 0.0663-1.45681 0.0994-2.21531 0.0994-0.79163 0-1.56208-0.0361-2.3057-0.10526-0.0663-1.70972-0.21369-3.3712-0.41544-4.9786-1.47484-11.68787-4.27137-17.37503-4.32547-17.47128-0.58403-1.10156-0.16544-2.46822 0.93612-3.05202 1.10157-0.58696 2.46823-0.1686 3.05202 0.9332 0.13256 0.25291 0.0783 0.50097 1.75199 5.55778l6.10136-9.26472c0.6832-1.04138 2.08593-1.32743 3.12439-0.64106 1.04137 0.68321 1.33035 2.08277 0.64398 3.12414z" fill="#b25719" stroke-width=".24365474"/>
  </g>
  <g transform="matrix(.37545254 0 0 .37499626 -15.857695 -139.08755)">
   <path d="m343.56116 445.01819s-10.50555 15.20534-37.32239 13.54666c-2.21165-0.27649-4.69979-0.27649-6.91145 0-27.09333 1.38245-37.59887-13.54666-37.59887-13.54666-22.94652-26.26387-2.21166-53.63369-2.21166-53.63369 6.91145-8.57038 16.58779-24.88168 16.58779-24.88168 6.63522-30.41094 26.54035-27.09333 26.54035-27.09333s19.9054-3.31761 26.54036 27.09333c0 0 9.67608 16.3113 16.58779 24.88168 0 0 20.7346 27.36982-2.21192 53.63369z" fill="#71c837" stroke-width=".26458332"/>
   <g transform="matrix(.26458333 0 0 .26458333 236.23055 325.86282)" fill="#c7f492">
    <circle cx="374.31201" cy="397.061" r="11.494"/>
    <circle cx="403.57001" cy="377.20801" r="11.494"/>
    <circle cx="374.31201" cy="360.48999" r="11.494"/>
   </g>
   <g transform="matrix(.84487328 .29157543 -.31013545 .79431194 29.929883 -70.322234)" stroke-width=".26458332">
    <path d="m503.53059 324.12341s-3.26866 22.78485-20.48377 29.4169c-16.45709 6.341-31.12638-10.80241-37.14353-9.4525-0.2712 0.0556-0.52309 0.15372-0.7583 0.29421-0.01 3e-3 -0.013 7e-3 -0.013 7e-3l3e-3 -0.013c0.20267-0.61436 6.80191-20.27131 23.74926-21.55931 17.21485-1.30783 26.58269 6.5368 34.64613 1.30705z" fill="#c7f492"/>
    <path d="m503.53059 324.12341s-10.45924 12.74736-25.16769 12.74736c-12.93363 0-28.81551 5.81157-32.45988 7.21704-0.43788 0.16668-0.69612 0.27119-0.75829 0.29421-0.01 3e-3 -0.013 7e-3 -0.013 7e-3l3e-3 -0.013c0.20267-0.61436 6.8019-20.27131 23.74926-21.55931 17.21511-1.30783 26.58295 6.5368 34.64639 1.30705z" fill="#a3e261"/>
   </g>
   <path d="m309.13115 345.74033c0 2.15582-2.16435 3.95092-5.03713 4.35873-0.40053 0.058-0.81454 0.0869-1.23864 0.0869-0.44263 0-0.8734-0.0316-1.28919-0.092-2.84594-0.42379-4.98495-2.21101-4.98495-4.35362 0 0 1.31419-0.9797 6.06502-0.9797 4.75083-1e-5 6.48489 0.97969 6.48489 0.97969z" fill="#56982a" stroke-width=".17037378"/>
   <path d="m311.25157 321.07645-8.23237 12.50339c0.61694 2.5345 1.14981 5.32775 1.49604 8.31057 0.18957 1.61032 0.32504 3.27497 0.38839 4.98445-0.71635 0.0663-1.45681 0.0994-2.21531 0.0994-0.79163 0-1.56208-0.0361-2.3057-0.10526-0.0663-1.70972-0.21369-3.3712-0.41544-4.9786-1.47484-11.68787-4.27137-17.37503-4.32547-17.47128-0.58403-1.10156-0.16544-2.46822 0.93612-3.05202 1.10157-0.58696 2.46823-0.1686 3.05202 0.9332 0.13256 0.25291 0.0783 0.50097 1.75199 5.55778l6.10136-9.26472c0.6832-1.04138 2.08593-1.32743 3.12439-0.64106 1.04137 0.68321 1.33035 2.08277 0.64398 3.12414z" fill="#b25719" stroke-width=".24365474"/>
  </g>
  <g transform="matrix(.37545254 0 0 .37499626 -72.912224 -139.08755)">
   <path d="m343.56116 445.01819s-10.50555 15.20534-37.32239 13.54666c-2.21165-0.27649-4.69979-0.27649-6.91145 0-27.09333 1.38245-37.59887-13.54666-37.59887-13.54666-22.94652-26.26387-2.21166-53.63369-2.21166-53.63369 6.91145-8.57038 16.58779-24.88168 16.58779-24.88168 6.63522-30.41094 26.54035-27.09333 26.54035-27.09333s19.9054-3.31761 26.54036 27.09333c0 0 9.67608 16.3113 16.58779 24.88168 0 0 20.7346 27.36982-2.21192 53.63369z" fill="#71c837" stroke-width=".26458332"/>
   <g transform="matrix(.26458333 0 0 .26458333 236.23055 325.86282)" fill="#c7f492">
    <circle cx="374.31201" cy="397.061" r="11.494"/>
    <circle cx="403.57001" cy="377.20801" r="11.494"/>
    <circle cx="374.31201" cy="360.48999" r="11.494"/>
   </g>
   <g transform="matrix(.84487328 .29157543 -.31013545 .79431194 29.929883 -70.322234)" stroke-width=".26458332">
    <path d="m503.53059 324.12341s-3.26866 22.78485-20.48377 29.4169c-16.45709 6.341-31.12638-10.80241-37.14353-9.4525-0.2712 0.0556-0.52309 0.15372-0.7583 0.29421-0.01 3e-3 -0.013 7e-3 -0.013 7e-3l3e-3 -0.013c0.20267-0.61436 6.80191-20.27131 23.74926-21.55931 17.21485-1.30783 26.58269 6.5368 34.64613 1.30705z" fill="#c7f492"/>
    <path d="m503.53059 324.12341s-10.45924 12.74736-25.16769 12.74736c-12.93363 0-28.81551 5.81157-32.45988 7.21704-0.43788 0.16668-0.69612 0.27119-0.75829 0.29421-0.01 3e-3 -0.013 7e-3 -0.013 7e-3l3e-3 -0.013c0.20267-0.61436 6.8019-20.27131 23.74926-21.55931 17.21511-1.30783 26.58295 6.5368 34.64639 1.30705z" fill="#a3e261"/>
   </g>
   <path d="m309.13115 345.74033c0 2.15582-2.16435 3.95092-5.03713 4.35873-0.40053 0.058-0.81454 0.0869-1.23864 0.0869-0.44263 0-0.8734-0.0316-1.28919-0.092-2.84594-0.42379-4.98495-2.21101-4.98495-4.35362 0 0 1.31419-0.9797 6.06502-0.9797 4.75083-1e-5 6.48489 0.97969 6.48489 0.97969z" fill="#56982a" stroke-width=".17037378"/>
   <path d="m311.25157 321.07645-8.23237 12.50339c0.61694 2.5345 1.14981 5.32775 1.49604 8.31057 0.18957 1.61032 0.32504 3.27497 0.38839 4.98445-0.71635 0.0663-1.45681 0.0994-2.21531 0.0994-0.79163 0-1.56208-0.0361-2.3057-0.10526-0.0663-1.70972-0.21369-3.3712-0.41544-4.9786-1.47484-11.68787-4.27137-17.37503-4.32547-17.47128-0.58403-1.10156-0.16544-2.46822 0.93612-3.05202 1.10157-0.58696 2.46823-0.1686 3.05202 0.9332 0.13256 0.25291 0.0783 0.50097 1.75199 5.55778l6.10136-9.26472c0.6832-1.04138 2.08593-1.32743 3.12439-0.64106 1.04137 0.68321 1.33035 2.08277 0.64398 3.12414z" fill="#b25719" stroke-width=".24365474"/>
  </g>
 </g>
</svg>
