<?xml version="1.0" encoding="UTF-8"?>
<!-- Created with Inkscape (http://www.inkscape.org/) -->
<svg width="1220" height="562" version="1.1" viewBox="0 0 322.79166 148.69584" xmlns="http://www.w3.org/2000/svg" xmlns:cc="http://creativecommons.org/ns#" xmlns:dc="http://purl.org/dc/elements/1.1/" xmlns:rdf="http://www.w3.org/1999/02/22-rdf-syntax-ns#">
 <metadata>
  <rdf:RDF>
   <cc:Work rdf:about="">
    <dc:format>image/svg+xml</dc:format>
    <dc:type rdf:resource="http://purl.org/dc/dcmitype/StillImage"/>
    <dc:title/>
   </cc:Work>
  </rdf:RDF>
 </metadata>
 <g transform="translate(63.538284,-162.36299)">
  <rect x="-63.538284" y="162.36299" width="322.79166" height="148.69583" opacity="0" stroke-width=".91198415"/>
  <g transform="translate(-1235.5959,378.47303)">
   <rect x="1178.6722" y="-209.49544" width="309.5625" height="135.46666" rx="9.3694143" ry="9.3694143" fill="#2196f3"/>
   <rect x="1185.7633" y="-204.34227" width="295.38028" height="125.1603" rx="8.9401665" ry="8.6565857" fill="#fff"/>
  </g>
  <g transform="matrix(-.39062653 0 0 .39062665 113.25384 48.69841)">
   <g stroke-width=".26458332">
    <path d="m247.23726 466.86516c-1.64941-1.64941-1.64941-4.32276 0-5.97191l18.43961-18.43961c1.64941-1.64941 4.32276-1.64941 5.97191 0 1.64941 1.64941 1.64941 4.32276 0 5.97191l-18.43961 18.43961c-1.64915 1.64915-4.3225 1.64915-5.97191 0z" fill="#57565c"/>
    <path d="m265.67713 442.45364-17.06906 17.0688c0.80354 1.1258 1.71767 2.20451 2.7424 3.22951 1.02368 1.02367 2.10635 1.93304 3.23533 2.73685l17.06324-17.06325c1.64942-1.64941 1.64942-4.32276 0-5.97191-1.64941-1.64915-4.32276-1.64941-5.97191 0z" fill="#3e3d42"/>
    <path d="m369.77162 344.33053c-6.35344-6.35344-11.31199-9.60781-14.75184-11.24638-2.52413-1.20253-5.55943 0.11033-6.34101 2.7948-1.4679 5.04401-4.8334 9.28502-4.8334 9.28502l25.09282 25.09282s4.24074-3.3655 9.28502-4.83341c2.68446-0.78105 3.99759-3.81688 2.79479-6.341-1.63883-3.43985-4.89267-8.39841-11.24638-14.75185z" fill="#ffdaaa"/>
    <path d="m359.505 354.59716c-20.11575-20.11574-52.72935-20.11574-72.84509 0-14.88307 14.88308-17.12595 49.65832-32.82685 85.64271 0 0-4.43865 8.99187 3.29909 16.73014 7.73827 7.73826 16.73013 3.29909 16.73013 3.29909 35.98439-15.70064 70.75937-17.94352 85.64245-32.82659 20.11601-20.11575 20.11601-52.72987 2.7e-4 -72.84535z" fill="#ffdaaa"/>
    <path d="m311.69849 340.78035 61.62331 61.62331c3.7592-16.66398-0.84428-34.83398-13.81707-47.8065-12.97226-12.97252-31.14225-17.57601-47.80624-13.81681z" fill="#e91e63"/>
    <path d="m286.65965 354.59716c-5.33956 5.33956-9.05193 13.23975-12.34255 22.83724l62.35091 62.35092c9.59724-3.29089 17.49743-7.00326 22.83699-12.34281 1.14088-1.14089 2.21376-2.32384 3.22527-3.54092l-72.5297-72.5297c-1.21656 1.0115-2.39977 2.08439-3.54092 3.22527z" fill="#00ddc2"/>
    <path d="m312.54436 446.99442-45.43663-45.43689c-2.6797 9.36386-5.67213 19.40401-9.59855 29.67487l25.36031 25.36031c10.27086-3.92642 20.31101-6.91885 29.67487-9.59829z" fill="#e91e63"/>
   </g>
   <g transform="matrix(.26458333 0 0 .26458333 246.00007 332.63542)" fill="#fbc02d">
    <path d="m167.057 70.815 274.127 274.127c7.113-8.557 13.379-17.578 18.799-26.957l-265.97-265.969c-9.378 5.419-18.399 11.686-26.956 18.799z"/>
    <path d="m95.956 204.222 211.823 211.822c12.111-3.61 23.885-7.295 34.903-11.069l-235.657-235.656c-3.774 11.019-7.459 22.793-11.069 34.903z"/>
   </g>
  </g>
  <g transform="matrix(-.39062653 0 0 .39062665 327.56633 48.69841)">
   <g stroke-width=".26458332">
    <path d="m247.23726 466.86516c-1.64941-1.64941-1.64941-4.32276 0-5.97191l18.43961-18.43961c1.64941-1.64941 4.32276-1.64941 5.97191 0 1.64941 1.64941 1.64941 4.32276 0 5.97191l-18.43961 18.43961c-1.64915 1.64915-4.3225 1.64915-5.97191 0z" fill="#57565c"/>
    <path d="m265.67713 442.45364-17.06906 17.0688c0.80354 1.1258 1.71767 2.20451 2.7424 3.22951 1.02368 1.02367 2.10635 1.93304 3.23533 2.73685l17.06324-17.06325c1.64942-1.64941 1.64942-4.32276 0-5.97191-1.64941-1.64915-4.32276-1.64941-5.97191 0z" fill="#3e3d42"/>
    <path d="m369.77162 344.33053c-6.35344-6.35344-11.31199-9.60781-14.75184-11.24638-2.52413-1.20253-5.55943 0.11033-6.34101 2.7948-1.4679 5.04401-4.8334 9.28502-4.8334 9.28502l25.09282 25.09282s4.24074-3.3655 9.28502-4.83341c2.68446-0.78105 3.99759-3.81688 2.79479-6.341-1.63883-3.43985-4.89267-8.39841-11.24638-14.75185z" fill="#ffdaaa"/>
    <path d="m359.505 354.59716c-20.11575-20.11574-52.72935-20.11574-72.84509 0-14.88307 14.88308-17.12595 49.65832-32.82685 85.64271 0 0-4.43865 8.99187 3.29909 16.73014 7.73827 7.73826 16.73013 3.29909 16.73013 3.29909 35.98439-15.70064 70.75937-17.94352 85.64245-32.82659 20.11601-20.11575 20.11601-52.72987 2.7e-4 -72.84535z" fill="#ffdaaa"/>
    <path d="m311.69849 340.78035 61.62331 61.62331c3.7592-16.66398-0.84428-34.83398-13.81707-47.8065-12.97226-12.97252-31.14225-17.57601-47.80624-13.81681z" fill="#e91e63"/>
    <path d="m286.65965 354.59716c-5.33956 5.33956-9.05193 13.23975-12.34255 22.83724l62.35091 62.35092c9.59724-3.29089 17.49743-7.00326 22.83699-12.34281 1.14088-1.14089 2.21376-2.32384 3.22527-3.54092l-72.5297-72.5297c-1.21656 1.0115-2.39977 2.08439-3.54092 3.22527z" fill="#00ddc2"/>
    <path d="m312.54436 446.99442-45.43663-45.43689c-2.6797 9.36386-5.67213 19.40401-9.59855 29.67487l25.36031 25.36031c10.27086-3.92642 20.31101-6.91885 29.67487-9.59829z" fill="#e91e63"/>
   </g>
   <g transform="matrix(.26458333 0 0 .26458333 246.00007 332.63542)" fill="#fbc02d">
    <path d="m167.057 70.815 274.127 274.127c7.113-8.557 13.379-17.578 18.799-26.957l-265.97-265.969c-9.378 5.419-18.399 11.686-26.956 18.799z"/>
    <path d="m95.956 204.222 211.823 211.822c12.111-3.61 23.885-7.295 34.903-11.069l-235.657-235.656c-3.774 11.019-7.459 22.793-11.069 34.903z"/>
   </g>
  </g>
  <g transform="matrix(-.39062653 0 0 .39062665 273.98821 48.69841)">
   <g stroke-width=".26458332">
    <path d="m247.23726 466.86516c-1.64941-1.64941-1.64941-4.32276 0-5.97191l18.43961-18.43961c1.64941-1.64941 4.32276-1.64941 5.97191 0 1.64941 1.64941 1.64941 4.32276 0 5.97191l-18.43961 18.43961c-1.64915 1.64915-4.3225 1.64915-5.97191 0z" fill="#57565c"/>
    <path d="m265.67713 442.45364-17.06906 17.0688c0.80354 1.1258 1.71767 2.20451 2.7424 3.22951 1.02368 1.02367 2.10635 1.93304 3.23533 2.73685l17.06324-17.06325c1.64942-1.64941 1.64942-4.32276 0-5.97191-1.64941-1.64915-4.32276-1.64941-5.97191 0z" fill="#3e3d42"/>
    <path d="m369.77162 344.33053c-6.35344-6.35344-11.31199-9.60781-14.75184-11.24638-2.52413-1.20253-5.55943 0.11033-6.34101 2.7948-1.4679 5.04401-4.8334 9.28502-4.8334 9.28502l25.09282 25.09282s4.24074-3.3655 9.28502-4.83341c2.68446-0.78105 3.99759-3.81688 2.79479-6.341-1.63883-3.43985-4.89267-8.39841-11.24638-14.75185z" fill="#ffdaaa"/>
    <path d="m359.505 354.59716c-20.11575-20.11574-52.72935-20.11574-72.84509 0-14.88307 14.88308-17.12595 49.65832-32.82685 85.64271 0 0-4.43865 8.99187 3.29909 16.73014 7.73827 7.73826 16.73013 3.29909 16.73013 3.29909 35.98439-15.70064 70.75937-17.94352 85.64245-32.82659 20.11601-20.11575 20.11601-52.72987 2.7e-4 -72.84535z" fill="#ffdaaa"/>
    <path d="m311.69849 340.78035 61.62331 61.62331c3.7592-16.66398-0.84428-34.83398-13.81707-47.8065-12.97226-12.97252-31.14225-17.57601-47.80624-13.81681z" fill="#e91e63"/>
    <path d="m286.65965 354.59716c-5.33956 5.33956-9.05193 13.23975-12.34255 22.83724l62.35091 62.35092c9.59724-3.29089 17.49743-7.00326 22.83699-12.34281 1.14088-1.14089 2.21376-2.32384 3.22527-3.54092l-72.5297-72.5297c-1.21656 1.0115-2.39977 2.08439-3.54092 3.22527z" fill="#00ddc2"/>
    <path d="m312.54436 446.99442-45.43663-45.43689c-2.6797 9.36386-5.67213 19.40401-9.59855 29.67487l25.36031 25.36031c10.27086-3.92642 20.31101-6.91885 29.67487-9.59829z" fill="#e91e63"/>
   </g>
   <g transform="matrix(.26458333 0 0 .26458333 246.00007 332.63542)" fill="#fbc02d">
    <path d="m167.057 70.815 274.127 274.127c7.113-8.557 13.379-17.578 18.799-26.957l-265.97-265.969c-9.378 5.419-18.399 11.686-26.956 18.799z"/>
    <path d="m95.956 204.222 211.823 211.822c12.111-3.61 23.885-7.295 34.903-11.069l-235.657-235.656c-3.774 11.019-7.459 22.793-11.069 34.903z"/>
   </g>
  </g>
  <g transform="matrix(-.39062653 0 0 .39062665 220.41009 48.69841)">
   <g stroke-width=".26458332">
    <path d="m247.23726 466.86516c-1.64941-1.64941-1.64941-4.32276 0-5.97191l18.43961-18.43961c1.64941-1.64941 4.32276-1.64941 5.97191 0 1.64941 1.64941 1.64941 4.32276 0 5.97191l-18.43961 18.43961c-1.64915 1.64915-4.3225 1.64915-5.97191 0z" fill="#57565c"/>
    <path d="m265.67713 442.45364-17.06906 17.0688c0.80354 1.1258 1.71767 2.20451 2.7424 3.22951 1.02368 1.02367 2.10635 1.93304 3.23533 2.73685l17.06324-17.06325c1.64942-1.64941 1.64942-4.32276 0-5.97191-1.64941-1.64915-4.32276-1.64941-5.97191 0z" fill="#3e3d42"/>
    <path d="m369.77162 344.33053c-6.35344-6.35344-11.31199-9.60781-14.75184-11.24638-2.52413-1.20253-5.55943 0.11033-6.34101 2.7948-1.4679 5.04401-4.8334 9.28502-4.8334 9.28502l25.09282 25.09282s4.24074-3.3655 9.28502-4.83341c2.68446-0.78105 3.99759-3.81688 2.79479-6.341-1.63883-3.43985-4.89267-8.39841-11.24638-14.75185z" fill="#ffdaaa"/>
    <path d="m359.505 354.59716c-20.11575-20.11574-52.72935-20.11574-72.84509 0-14.88307 14.88308-17.12595 49.65832-32.82685 85.64271 0 0-4.43865 8.99187 3.29909 16.73014 7.73827 7.73826 16.73013 3.29909 16.73013 3.29909 35.98439-15.70064 70.75937-17.94352 85.64245-32.82659 20.11601-20.11575 20.11601-52.72987 2.7e-4 -72.84535z" fill="#ffdaaa"/>
    <path d="m311.69849 340.78035 61.62331 61.62331c3.7592-16.66398-0.84428-34.83398-13.81707-47.8065-12.97226-12.97252-31.14225-17.57601-47.80624-13.81681z" fill="#e91e63"/>
    <path d="m286.65965 354.59716c-5.33956 5.33956-9.05193 13.23975-12.34255 22.83724l62.35091 62.35092c9.59724-3.29089 17.49743-7.00326 22.83699-12.34281 1.14088-1.14089 2.21376-2.32384 3.22527-3.54092l-72.5297-72.5297c-1.21656 1.0115-2.39977 2.08439-3.54092 3.22527z" fill="#00ddc2"/>
    <path d="m312.54436 446.99442-45.43663-45.43689c-2.6797 9.36386-5.67213 19.40401-9.59855 29.67487l25.36031 25.36031c10.27086-3.92642 20.31101-6.91885 29.67487-9.59829z" fill="#e91e63"/>
   </g>
   <g transform="matrix(.26458333 0 0 .26458333 246.00007 332.63542)" fill="#fbc02d">
    <path d="m167.057 70.815 274.127 274.127c7.113-8.557 13.379-17.578 18.799-26.957l-265.97-265.969c-9.378 5.419-18.399 11.686-26.956 18.799z"/>
    <path d="m95.956 204.222 211.823 211.822c12.111-3.61 23.885-7.295 34.903-11.069l-235.657-235.656c-3.774 11.019-7.459 22.793-11.069 34.903z"/>
   </g>
  </g>
  <g transform="matrix(-.39062653 0 0 .39062665 166.83196 48.69841)">
   <g stroke-width=".26458332">
    <path d="m247.23726 466.86516c-1.64941-1.64941-1.64941-4.32276 0-5.97191l18.43961-18.43961c1.64941-1.64941 4.32276-1.64941 5.97191 0 1.64941 1.64941 1.64941 4.32276 0 5.97191l-18.43961 18.43961c-1.64915 1.64915-4.3225 1.64915-5.97191 0z" fill="#57565c"/>
    <path d="m265.67713 442.45364-17.06906 17.0688c0.80354 1.1258 1.71767 2.20451 2.7424 3.22951 1.02368 1.02367 2.10635 1.93304 3.23533 2.73685l17.06324-17.06325c1.64942-1.64941 1.64942-4.32276 0-5.97191-1.64941-1.64915-4.32276-1.64941-5.97191 0z" fill="#3e3d42"/>
    <path d="m369.77162 344.33053c-6.35344-6.35344-11.31199-9.60781-14.75184-11.24638-2.52413-1.20253-5.55943 0.11033-6.34101 2.7948-1.4679 5.04401-4.8334 9.28502-4.8334 9.28502l25.09282 25.09282s4.24074-3.3655 9.28502-4.83341c2.68446-0.78105 3.99759-3.81688 2.79479-6.341-1.63883-3.43985-4.89267-8.39841-11.24638-14.75185z" fill="#ffdaaa"/>
    <path d="m359.505 354.59716c-20.11575-20.11574-52.72935-20.11574-72.84509 0-14.88307 14.88308-17.12595 49.65832-32.82685 85.64271 0 0-4.43865 8.99187 3.29909 16.73014 7.73827 7.73826 16.73013 3.29909 16.73013 3.29909 35.98439-15.70064 70.75937-17.94352 85.64245-32.82659 20.11601-20.11575 20.11601-52.72987 2.7e-4 -72.84535z" fill="#ffdaaa"/>
    <path d="m311.69849 340.78035 61.62331 61.62331c3.7592-16.66398-0.84428-34.83398-13.81707-47.8065-12.97226-12.97252-31.14225-17.57601-47.80624-13.81681z" fill="#e91e63"/>
    <path d="m286.65965 354.59716c-5.33956 5.33956-9.05193 13.23975-12.34255 22.83724l62.35091 62.35092c9.59724-3.29089 17.49743-7.00326 22.83699-12.34281 1.14088-1.14089 2.21376-2.32384 3.22527-3.54092l-72.5297-72.5297c-1.21656 1.0115-2.39977 2.08439-3.54092 3.22527z" fill="#00ddc2"/>
    <path d="m312.54436 446.99442-45.43663-45.43689c-2.6797 9.36386-5.67213 19.40401-9.59855 29.67487l25.36031 25.36031c10.27086-3.92642 20.31101-6.91885 29.67487-9.59829z" fill="#e91e63"/>
   </g>
   <g transform="matrix(.26458333 0 0 .26458333 246.00007 332.63542)" fill="#fbc02d">
    <path d="m167.057 70.815 274.127 274.127c7.113-8.557 13.379-17.578 18.799-26.957l-265.97-265.969c-9.378 5.419-18.399 11.686-26.956 18.799z"/>
    <path d="m95.956 204.222 211.823 211.822c12.111-3.61 23.885-7.295 34.903-11.069l-235.657-235.656c-3.774 11.019-7.459 22.793-11.069 34.903z"/>
   </g>
  </g>
  <g fill="#2196f3" stroke="#fff" stroke-width="1.32291663">
   <g transform="translate(-1169.4453,235.68468)" style="font-feature-settings:normal;font-variant-caps:normal;font-variant-ligatures:normal;font-variant-numeric:normal" aria-label="1">
    <path d="m1160.2649-43.387707-4.4649 0.124024-1.2264 1.005968v4.230577l1.1024-0.509874 0.124 13.339409h4.8232z" fill="#2196f3" stroke="#fff" stroke-width="1.32291663" style="font-feature-settings:normal;font-variant-caps:normal;font-variant-ligatures:normal;font-variant-numeric:normal"/>
   </g>
   <g transform="translate(-1154.6113,234.17722)" style="font-feature-settings:normal;font-variant-caps:normal;font-variant-ligatures:normal;font-variant-numeric:normal" aria-label="2">
    <path d="m1201.0502-41.169313q-4.1479-2.52181-7.717-0.04134-1.7915 1.309136-3.1557 3.23839l2.7836 3.527777q0.3583-0.578776 1.006-1.074869 1.4331-1.43316 2.8801-1.129992 0.813 0.179145 0.6614 1.102431-0.124 0.785482-0.9232 2.053277-1.5021 2.356445-3.6656 3.789605-0.9371 0.799262-1.7364 1.405598l-0.3307 4.878256 11.2035 0.234266 0.014-4.671549-5.6637 0.261827q2.6872-2.480469 4.6027-5.40191 1.6812-2.54937 1.8741-4.478624 0.2618-2.411566-1.8328-3.693142z" fill="#2196f3" stroke="#fff" stroke-width="1.32291663" style="font-feature-settings:normal;font-variant-caps:normal;font-variant-ligatures:normal;font-variant-numeric:normal"/>
   </g>
   <g transform="translate(-1133.7123,233.89818)" style="font-feature-settings:normal;font-variant-caps:normal;font-variant-ligatures:normal;font-variant-numeric:normal" aria-label="3">
    <path d="m1224.1829-41.348458 0.1241 4.203017 5.3054-0.124024-4.4648 3.23839q1.2264-0.179145 2.4115 0.137804 2.3978 0.633897 2.3289 3.128146-0.083 2.50803-2.4115 2.466688-1.1714-0.02756-2.3289-0.551215l-1.0887 4.492405q1.9844 0.633897 4.3271 0.675238 4.6439 0.09646 6.3527-2.824978 2.3427-4.023871-0.041-6.807508-1.1989-1.391819-2.7423-2.122179l4.768-5.856662z" fill="#2196f3" stroke="#fff" stroke-width="1.32291663" style="font-feature-settings:normal;font-variant-caps:normal;font-variant-ligatures:normal;font-variant-numeric:normal"/>
   </g>
   <g transform="translate(-1116.804,232.79071)" style="font-feature-settings:normal;font-variant-caps:normal;font-variant-ligatures:normal;font-variant-numeric:normal" aria-label="4">
    <path d="m1267.173-34.513513h-2.8801l0.124-6.173611-4.7542 0.137803v10.004557l7.2485 0.261828-0.5237 8.033962 4.9885 0.124024 0.3996-18.562174h-4.4786z" fill="#2196f3" stroke="#fff" stroke-width="1.32291663" style="font-feature-settings:normal;font-variant-caps:normal;font-variant-ligatures:normal;font-variant-numeric:normal"/>
   </g>
   <g transform="translate(-1098.5945,235.07032)" style="font-feature-settings:normal;font-variant-caps:normal;font-variant-ligatures:normal;font-variant-numeric:normal" aria-label="5">
    <path d="m1299.4831-38.523355 7.2347 0.303169 0.4272-4.065213-11.1759-0.427192 0.1791 8.516276q1.7088-0.35829 3.1833-0.220486 2.949 0.289388 3.0179 2.797417 0.083 2.52181-2.4805 2.86632-1.2816 0.179145-2.5907-0.151585l-0.248 4.161676q2.7285 0.330729 5.4294-0.35829 5.3882-1.350478 5.1263-6.380317-0.2342-5.029839-4.2168-6.035807-1.9706-0.633898-3.9136-0.124023z" fill="#2196f3" stroke="#fff" stroke-width="1.32291663" style="font-feature-settings:normal;font-variant-caps:normal;font-variant-ligatures:normal;font-variant-numeric:normal"/>
   </g>
  </g>
 </g>
</svg>
