<?xml version="1.0" encoding="UTF-8"?>
<!-- Created with Inkscape (http://www.inkscape.org/) -->
<svg width="1170" height="511.99997" version="1.1" viewBox="0 0 309.56249 135.46666" xmlns="http://www.w3.org/2000/svg" xmlns:cc="http://creativecommons.org/ns#" xmlns:dc="http://purl.org/dc/elements/1.1/" xmlns:rdf="http://www.w3.org/1999/02/22-rdf-syntax-ns#">
 <metadata>
  <rdf:RDF>
   <cc:Work rdf:about="">
    <dc:format>image/svg+xml</dc:format>
    <dc:type rdf:resource="http://purl.org/dc/dcmitype/StillImage"/>
    <dc:title/>
   </cc:Work>
  </rdf:RDF>
 </metadata>
 <g transform="translate(56.923659,29.653984)">
  <g transform="translate(-1235.5959,378.47303)">
   <rect x="1178.6722" y="-408.12701" width="309.5625" height="135.46666" rx="9.3694143" ry="9.3694143" fill="#2196f3"/>
   <rect x="1185.7633" y="-402.97385" width="295.38028" height="125.1603" rx="8.9401665" ry="8.6565857" fill="#fff"/>
  </g>
  <g transform="translate(6.5635349,-369.45479)">
   <g transform="matrix(-.39062653 0 0 .39062665 106.69035 219.52164)">
    <g stroke-width=".26458332">
     <path d="m247.23726 466.86516c-1.64941-1.64941-1.64941-4.32276 0-5.97191l18.43961-18.43961c1.64941-1.64941 4.32276-1.64941 5.97191 0 1.64941 1.64941 1.64941 4.32276 0 5.97191l-18.43961 18.43961c-1.64915 1.64915-4.3225 1.64915-5.97191 0z" fill="#57565c"/>
     <path d="m265.67713 442.45364-17.06906 17.0688c0.80354 1.1258 1.71767 2.20451 2.7424 3.22951 1.02368 1.02367 2.10635 1.93304 3.23533 2.73685l17.06324-17.06325c1.64942-1.64941 1.64942-4.32276 0-5.97191-1.64941-1.64915-4.32276-1.64941-5.97191 0z" fill="#3e3d42"/>
     <path d="m369.77162 344.33053c-6.35344-6.35344-11.31199-9.60781-14.75184-11.24638-2.52413-1.20253-5.55943 0.11033-6.34101 2.7948-1.4679 5.04401-4.8334 9.28502-4.8334 9.28502l25.09282 25.09282s4.24074-3.3655 9.28502-4.83341c2.68446-0.78105 3.99759-3.81688 2.79479-6.341-1.63883-3.43985-4.89267-8.39841-11.24638-14.75185z" fill="#ffdaaa"/>
     <path d="m359.505 354.59716c-20.11575-20.11574-52.72935-20.11574-72.84509 0-14.88307 14.88308-17.12595 49.65832-32.82685 85.64271 0 0-4.43865 8.99187 3.29909 16.73014 7.73827 7.73826 16.73013 3.29909 16.73013 3.29909 35.98439-15.70064 70.75937-17.94352 85.64245-32.82659 20.11601-20.11575 20.11601-52.72987 2.7e-4 -72.84535z" fill="#ffdaaa"/>
     <path d="m311.69849 340.78035 61.62331 61.62331c3.7592-16.66398-0.84428-34.83398-13.81707-47.8065-12.97226-12.97252-31.14225-17.57601-47.80624-13.81681z" fill="#e91e63"/>
     <path d="m286.65965 354.59716c-5.33956 5.33956-9.05193 13.23975-12.34255 22.83724l62.35091 62.35092c9.59724-3.29089 17.49743-7.00326 22.83699-12.34281 1.14088-1.14089 2.21376-2.32384 3.22527-3.54092l-72.5297-72.5297c-1.21656 1.0115-2.39977 2.08439-3.54092 3.22527z" fill="#00ddc2"/>
     <path d="m312.54436 446.99442-45.43663-45.43689c-2.6797 9.36386-5.67213 19.40401-9.59855 29.67487l25.36031 25.36031c10.27086-3.92642 20.31101-6.91885 29.67487-9.59829z" fill="#e91e63"/>
    </g>
    <g transform="matrix(.26458333 0 0 .26458333 246.00007 332.63542)" fill="#fbc02d">
     <path d="m167.057 70.815 274.127 274.127c7.113-8.557 13.379-17.578 18.799-26.957l-265.97-265.969c-9.378 5.419-18.399 11.686-26.956 18.799z"/>
     <path d="m95.956 204.222 211.823 211.822c12.111-3.61 23.885-7.295 34.903-11.069l-235.657-235.656c-3.774 11.019-7.459 22.793-11.069 34.903z"/>
    </g>
   </g>
   <g transform="matrix(-.39062653 0 0 .39062665 321.00284 219.52164)">
    <g stroke-width=".26458332">
     <path d="m247.23726 466.86516c-1.64941-1.64941-1.64941-4.32276 0-5.97191l18.43961-18.43961c1.64941-1.64941 4.32276-1.64941 5.97191 0 1.64941 1.64941 1.64941 4.32276 0 5.97191l-18.43961 18.43961c-1.64915 1.64915-4.3225 1.64915-5.97191 0z" fill="#57565c"/>
     <path d="m265.67713 442.45364-17.06906 17.0688c0.80354 1.1258 1.71767 2.20451 2.7424 3.22951 1.02368 1.02367 2.10635 1.93304 3.23533 2.73685l17.06324-17.06325c1.64942-1.64941 1.64942-4.32276 0-5.97191-1.64941-1.64915-4.32276-1.64941-5.97191 0z" fill="#3e3d42"/>
     <path d="m369.77162 344.33053c-6.35344-6.35344-11.31199-9.60781-14.75184-11.24638-2.52413-1.20253-5.55943 0.11033-6.34101 2.7948-1.4679 5.04401-4.8334 9.28502-4.8334 9.28502l25.09282 25.09282s4.24074-3.3655 9.28502-4.83341c2.68446-0.78105 3.99759-3.81688 2.79479-6.341-1.63883-3.43985-4.89267-8.39841-11.24638-14.75185z" fill="#ffdaaa"/>
     <path d="m359.505 354.59716c-20.11575-20.11574-52.72935-20.11574-72.84509 0-14.88307 14.88308-17.12595 49.65832-32.82685 85.64271 0 0-4.43865 8.99187 3.29909 16.73014 7.73827 7.73826 16.73013 3.29909 16.73013 3.29909 35.98439-15.70064 70.75937-17.94352 85.64245-32.82659 20.11601-20.11575 20.11601-52.72987 2.7e-4 -72.84535z" fill="#ffdaaa"/>
     <path d="m311.69849 340.78035 61.62331 61.62331c3.7592-16.66398-0.84428-34.83398-13.81707-47.8065-12.97226-12.97252-31.14225-17.57601-47.80624-13.81681z" fill="#e91e63"/>
     <path d="m286.65965 354.59716c-5.33956 5.33956-9.05193 13.23975-12.34255 22.83724l62.35091 62.35092c9.59724-3.29089 17.49743-7.00326 22.83699-12.34281 1.14088-1.14089 2.21376-2.32384 3.22527-3.54092l-72.5297-72.5297c-1.21656 1.0115-2.39977 2.08439-3.54092 3.22527z" fill="#00ddc2"/>
     <path d="m312.54436 446.99442-45.43663-45.43689c-2.6797 9.36386-5.67213 19.40401-9.59855 29.67487l25.36031 25.36031c10.27086-3.92642 20.31101-6.91885 29.67487-9.59829z" fill="#e91e63"/>
    </g>
    <g transform="matrix(.26458333 0 0 .26458333 246.00007 332.63542)" fill="#fbc02d">
     <path d="m167.057 70.815 274.127 274.127c7.113-8.557 13.379-17.578 18.799-26.957l-265.97-265.969c-9.378 5.419-18.399 11.686-26.956 18.799z"/>
     <path d="m95.956 204.222 211.823 211.822c12.111-3.61 23.885-7.295 34.903-11.069l-235.657-235.656c-3.774 11.019-7.459 22.793-11.069 34.903z"/>
    </g>
   </g>
   <g transform="matrix(-.39062653 0 0 .39062665 267.42472 219.52164)">
    <g stroke-width=".26458332">
     <path d="m247.23726 466.86516c-1.64941-1.64941-1.64941-4.32276 0-5.97191l18.43961-18.43961c1.64941-1.64941 4.32276-1.64941 5.97191 0 1.64941 1.64941 1.64941 4.32276 0 5.97191l-18.43961 18.43961c-1.64915 1.64915-4.3225 1.64915-5.97191 0z" fill="#57565c"/>
     <path d="m265.67713 442.45364-17.06906 17.0688c0.80354 1.1258 1.71767 2.20451 2.7424 3.22951 1.02368 1.02367 2.10635 1.93304 3.23533 2.73685l17.06324-17.06325c1.64942-1.64941 1.64942-4.32276 0-5.97191-1.64941-1.64915-4.32276-1.64941-5.97191 0z" fill="#3e3d42"/>
     <path d="m369.77162 344.33053c-6.35344-6.35344-11.31199-9.60781-14.75184-11.24638-2.52413-1.20253-5.55943 0.11033-6.34101 2.7948-1.4679 5.04401-4.8334 9.28502-4.8334 9.28502l25.09282 25.09282s4.24074-3.3655 9.28502-4.83341c2.68446-0.78105 3.99759-3.81688 2.79479-6.341-1.63883-3.43985-4.89267-8.39841-11.24638-14.75185z" fill="#ffdaaa"/>
     <path d="m359.505 354.59716c-20.11575-20.11574-52.72935-20.11574-72.84509 0-14.88307 14.88308-17.12595 49.65832-32.82685 85.64271 0 0-4.43865 8.99187 3.29909 16.73014 7.73827 7.73826 16.73013 3.29909 16.73013 3.29909 35.98439-15.70064 70.75937-17.94352 85.64245-32.82659 20.11601-20.11575 20.11601-52.72987 2.7e-4 -72.84535z" fill="#ffdaaa"/>
     <path d="m311.69849 340.78035 61.62331 61.62331c3.7592-16.66398-0.84428-34.83398-13.81707-47.8065-12.97226-12.97252-31.14225-17.57601-47.80624-13.81681z" fill="#e91e63"/>
     <path d="m286.65965 354.59716c-5.33956 5.33956-9.05193 13.23975-12.34255 22.83724l62.35091 62.35092c9.59724-3.29089 17.49743-7.00326 22.83699-12.34281 1.14088-1.14089 2.21376-2.32384 3.22527-3.54092l-72.5297-72.5297c-1.21656 1.0115-2.39977 2.08439-3.54092 3.22527z" fill="#00ddc2"/>
     <path d="m312.54436 446.99442-45.43663-45.43689c-2.6797 9.36386-5.67213 19.40401-9.59855 29.67487l25.36031 25.36031c10.27086-3.92642 20.31101-6.91885 29.67487-9.59829z" fill="#e91e63"/>
    </g>
    <g transform="matrix(.26458333 0 0 .26458333 246.00007 332.63542)" fill="#fbc02d">
     <path d="m167.057 70.815 274.127 274.127c7.113-8.557 13.379-17.578 18.799-26.957l-265.97-265.969c-9.378 5.419-18.399 11.686-26.956 18.799z"/>
     <path d="m95.956 204.222 211.823 211.822c12.111-3.61 23.885-7.295 34.903-11.069l-235.657-235.656c-3.774 11.019-7.459 22.793-11.069 34.903z"/>
    </g>
   </g>
   <g transform="matrix(-.39062653 0 0 .39062665 213.8466 219.52164)">
    <g stroke-width=".26458332">
     <path d="m247.23726 466.86516c-1.64941-1.64941-1.64941-4.32276 0-5.97191l18.43961-18.43961c1.64941-1.64941 4.32276-1.64941 5.97191 0 1.64941 1.64941 1.64941 4.32276 0 5.97191l-18.43961 18.43961c-1.64915 1.64915-4.3225 1.64915-5.97191 0z" fill="#57565c"/>
     <path d="m265.67713 442.45364-17.06906 17.0688c0.80354 1.1258 1.71767 2.20451 2.7424 3.22951 1.02368 1.02367 2.10635 1.93304 3.23533 2.73685l17.06324-17.06325c1.64942-1.64941 1.64942-4.32276 0-5.97191-1.64941-1.64915-4.32276-1.64941-5.97191 0z" fill="#3e3d42"/>
     <path d="m369.77162 344.33053c-6.35344-6.35344-11.31199-9.60781-14.75184-11.24638-2.52413-1.20253-5.55943 0.11033-6.34101 2.7948-1.4679 5.04401-4.8334 9.28502-4.8334 9.28502l25.09282 25.09282s4.24074-3.3655 9.28502-4.83341c2.68446-0.78105 3.99759-3.81688 2.79479-6.341-1.63883-3.43985-4.89267-8.39841-11.24638-14.75185z" fill="#ffdaaa"/>
     <path d="m359.505 354.59716c-20.11575-20.11574-52.72935-20.11574-72.84509 0-14.88307 14.88308-17.12595 49.65832-32.82685 85.64271 0 0-4.43865 8.99187 3.29909 16.73014 7.73827 7.73826 16.73013 3.29909 16.73013 3.29909 35.98439-15.70064 70.75937-17.94352 85.64245-32.82659 20.11601-20.11575 20.11601-52.72987 2.7e-4 -72.84535z" fill="#ffdaaa"/>
     <path d="m311.69849 340.78035 61.62331 61.62331c3.7592-16.66398-0.84428-34.83398-13.81707-47.8065-12.97226-12.97252-31.14225-17.57601-47.80624-13.81681z" fill="#e91e63"/>
     <path d="m286.65965 354.59716c-5.33956 5.33956-9.05193 13.23975-12.34255 22.83724l62.35091 62.35092c9.59724-3.29089 17.49743-7.00326 22.83699-12.34281 1.14088-1.14089 2.21376-2.32384 3.22527-3.54092l-72.5297-72.5297c-1.21656 1.0115-2.39977 2.08439-3.54092 3.22527z" fill="#00ddc2"/>
     <path d="m312.54436 446.99442-45.43663-45.43689c-2.6797 9.36386-5.67213 19.40401-9.59855 29.67487l25.36031 25.36031c10.27086-3.92642 20.31101-6.91885 29.67487-9.59829z" fill="#e91e63"/>
    </g>
    <g transform="matrix(.26458333 0 0 .26458333 246.00007 332.63542)" fill="#fbc02d">
     <path d="m167.057 70.815 274.127 274.127c7.113-8.557 13.379-17.578 18.799-26.957l-265.97-265.969c-9.378 5.419-18.399 11.686-26.956 18.799z"/>
     <path d="m95.956 204.222 211.823 211.822c12.111-3.61 23.885-7.295 34.903-11.069l-235.657-235.656c-3.774 11.019-7.459 22.793-11.069 34.903z"/>
    </g>
   </g>
   <g transform="matrix(-.39062653 0 0 .39062665 160.26847 219.52164)">
    <g stroke-width=".26458332">
     <path d="m247.23726 466.86516c-1.64941-1.64941-1.64941-4.32276 0-5.97191l18.43961-18.43961c1.64941-1.64941 4.32276-1.64941 5.97191 0 1.64941 1.64941 1.64941 4.32276 0 5.97191l-18.43961 18.43961c-1.64915 1.64915-4.3225 1.64915-5.97191 0z" fill="#57565c"/>
     <path d="m265.67713 442.45364-17.06906 17.0688c0.80354 1.1258 1.71767 2.20451 2.7424 3.22951 1.02368 1.02367 2.10635 1.93304 3.23533 2.73685l17.06324-17.06325c1.64942-1.64941 1.64942-4.32276 0-5.97191-1.64941-1.64915-4.32276-1.64941-5.97191 0z" fill="#3e3d42"/>
     <path d="m369.77162 344.33053c-6.35344-6.35344-11.31199-9.60781-14.75184-11.24638-2.52413-1.20253-5.55943 0.11033-6.34101 2.7948-1.4679 5.04401-4.8334 9.28502-4.8334 9.28502l25.09282 25.09282s4.24074-3.3655 9.28502-4.83341c2.68446-0.78105 3.99759-3.81688 2.79479-6.341-1.63883-3.43985-4.89267-8.39841-11.24638-14.75185z" fill="#ffdaaa"/>
     <path d="m359.505 354.59716c-20.11575-20.11574-52.72935-20.11574-72.84509 0-14.88307 14.88308-17.12595 49.65832-32.82685 85.64271 0 0-4.43865 8.99187 3.29909 16.73014 7.73827 7.73826 16.73013 3.29909 16.73013 3.29909 35.98439-15.70064 70.75937-17.94352 85.64245-32.82659 20.11601-20.11575 20.11601-52.72987 2.7e-4 -72.84535z" fill="#ffdaaa"/>
     <path d="m311.69849 340.78035 61.62331 61.62331c3.7592-16.66398-0.84428-34.83398-13.81707-47.8065-12.97226-12.97252-31.14225-17.57601-47.80624-13.81681z" fill="#e91e63"/>
     <path d="m286.65965 354.59716c-5.33956 5.33956-9.05193 13.23975-12.34255 22.83724l62.35091 62.35092c9.59724-3.29089 17.49743-7.00326 22.83699-12.34281 1.14088-1.14089 2.21376-2.32384 3.22527-3.54092l-72.5297-72.5297c-1.21656 1.0115-2.39977 2.08439-3.54092 3.22527z" fill="#00ddc2"/>
     <path d="m312.54436 446.99442-45.43663-45.43689c-2.6797 9.36386-5.67213 19.40401-9.59855 29.67487l25.36031 25.36031c10.27086-3.92642 20.31101-6.91885 29.67487-9.59829z" fill="#e91e63"/>
    </g>
    <g transform="matrix(.26458333 0 0 .26458333 246.00007 332.63542)" fill="#fbc02d">
     <path d="m167.057 70.815 274.127 274.127c7.113-8.557 13.379-17.578 18.799-26.957l-265.97-265.969c-9.378 5.419-18.399 11.686-26.956 18.799z"/>
     <path d="m95.956 204.222 211.823 211.822c12.111-3.61 23.885-7.295 34.903-11.069l-235.657-235.656c-3.774 11.019-7.459 22.793-11.069 34.903z"/>
    </g>
   </g>
   <g transform="matrix(-.39062653 0 0 .39062665 106.69035 282.75705)">
    <g stroke-width=".26458332">
     <path d="m247.23726 466.86516c-1.64941-1.64941-1.64941-4.32276 0-5.97191l18.43961-18.43961c1.64941-1.64941 4.32276-1.64941 5.97191 0 1.64941 1.64941 1.64941 4.32276 0 5.97191l-18.43961 18.43961c-1.64915 1.64915-4.3225 1.64915-5.97191 0z" fill="#57565c"/>
     <path d="m265.67713 442.45364-17.06906 17.0688c0.80354 1.1258 1.71767 2.20451 2.7424 3.22951 1.02368 1.02367 2.10635 1.93304 3.23533 2.73685l17.06324-17.06325c1.64942-1.64941 1.64942-4.32276 0-5.97191-1.64941-1.64915-4.32276-1.64941-5.97191 0z" fill="#3e3d42"/>
     <path d="m369.77162 344.33053c-6.35344-6.35344-11.31199-9.60781-14.75184-11.24638-2.52413-1.20253-5.55943 0.11033-6.34101 2.7948-1.4679 5.04401-4.8334 9.28502-4.8334 9.28502l25.09282 25.09282s4.24074-3.3655 9.28502-4.83341c2.68446-0.78105 3.99759-3.81688 2.79479-6.341-1.63883-3.43985-4.89267-8.39841-11.24638-14.75185z" fill="#ffdaaa"/>
     <path d="m359.505 354.59716c-20.11575-20.11574-52.72935-20.11574-72.84509 0-14.88307 14.88308-17.12595 49.65832-32.82685 85.64271 0 0-4.43865 8.99187 3.29909 16.73014 7.73827 7.73826 16.73013 3.29909 16.73013 3.29909 35.98439-15.70064 70.75937-17.94352 85.64245-32.82659 20.11601-20.11575 20.11601-52.72987 2.7e-4 -72.84535z" fill="#ffdaaa"/>
     <path d="m311.69849 340.78035 61.62331 61.62331c3.7592-16.66398-0.84428-34.83398-13.81707-47.8065-12.97226-12.97252-31.14225-17.57601-47.80624-13.81681z" fill="#e91e63"/>
     <path d="m286.65965 354.59716c-5.33956 5.33956-9.05193 13.23975-12.34255 22.83724l62.35091 62.35092c9.59724-3.29089 17.49743-7.00326 22.83699-12.34281 1.14088-1.14089 2.21376-2.32384 3.22527-3.54092l-72.5297-72.5297c-1.21656 1.0115-2.39977 2.08439-3.54092 3.22527z" fill="#00ddc2"/>
     <path d="m312.54436 446.99442-45.43663-45.43689c-2.6797 9.36386-5.67213 19.40401-9.59855 29.67487l25.36031 25.36031c10.27086-3.92642 20.31101-6.91885 29.67487-9.59829z" fill="#e91e63"/>
    </g>
    <g transform="matrix(.26458333 0 0 .26458333 246.00007 332.63542)" fill="#fbc02d">
     <path d="m167.057 70.815 274.127 274.127c7.113-8.557 13.379-17.578 18.799-26.957l-265.97-265.969c-9.378 5.419-18.399 11.686-26.956 18.799z"/>
     <path d="m95.956 204.222 211.823 211.822c12.111-3.61 23.885-7.295 34.903-11.069l-235.657-235.656c-3.774 11.019-7.459 22.793-11.069 34.903z"/>
    </g>
   </g>
   <g transform="matrix(-.39062653 0 0 .39062665 321.00284 282.75705)">
    <g stroke-width=".26458332">
     <path d="m247.23726 466.86516c-1.64941-1.64941-1.64941-4.32276 0-5.97191l18.43961-18.43961c1.64941-1.64941 4.32276-1.64941 5.97191 0 1.64941 1.64941 1.64941 4.32276 0 5.97191l-18.43961 18.43961c-1.64915 1.64915-4.3225 1.64915-5.97191 0z" fill="#57565c"/>
     <path d="m265.67713 442.45364-17.06906 17.0688c0.80354 1.1258 1.71767 2.20451 2.7424 3.22951 1.02368 1.02367 2.10635 1.93304 3.23533 2.73685l17.06324-17.06325c1.64942-1.64941 1.64942-4.32276 0-5.97191-1.64941-1.64915-4.32276-1.64941-5.97191 0z" fill="#3e3d42"/>
     <path d="m369.77162 344.33053c-6.35344-6.35344-11.31199-9.60781-14.75184-11.24638-2.52413-1.20253-5.55943 0.11033-6.34101 2.7948-1.4679 5.04401-4.8334 9.28502-4.8334 9.28502l25.09282 25.09282s4.24074-3.3655 9.28502-4.83341c2.68446-0.78105 3.99759-3.81688 2.79479-6.341-1.63883-3.43985-4.89267-8.39841-11.24638-14.75185z" fill="#ffdaaa"/>
     <path d="m359.505 354.59716c-20.11575-20.11574-52.72935-20.11574-72.84509 0-14.88307 14.88308-17.12595 49.65832-32.82685 85.64271 0 0-4.43865 8.99187 3.29909 16.73014 7.73827 7.73826 16.73013 3.29909 16.73013 3.29909 35.98439-15.70064 70.75937-17.94352 85.64245-32.82659 20.11601-20.11575 20.11601-52.72987 2.7e-4 -72.84535z" fill="#ffdaaa"/>
     <path d="m311.69849 340.78035 61.62331 61.62331c3.7592-16.66398-0.84428-34.83398-13.81707-47.8065-12.97226-12.97252-31.14225-17.57601-47.80624-13.81681z" fill="#e91e63"/>
     <path d="m286.65965 354.59716c-5.33956 5.33956-9.05193 13.23975-12.34255 22.83724l62.35091 62.35092c9.59724-3.29089 17.49743-7.00326 22.83699-12.34281 1.14088-1.14089 2.21376-2.32384 3.22527-3.54092l-72.5297-72.5297c-1.21656 1.0115-2.39977 2.08439-3.54092 3.22527z" fill="#00ddc2"/>
     <path d="m312.54436 446.99442-45.43663-45.43689c-2.6797 9.36386-5.67213 19.40401-9.59855 29.67487l25.36031 25.36031c10.27086-3.92642 20.31101-6.91885 29.67487-9.59829z" fill="#e91e63"/>
    </g>
    <g transform="matrix(.26458333 0 0 .26458333 246.00007 332.63542)" fill="#fbc02d">
     <path d="m167.057 70.815 274.127 274.127c7.113-8.557 13.379-17.578 18.799-26.957l-265.97-265.969c-9.378 5.419-18.399 11.686-26.956 18.799z"/>
     <path d="m95.956 204.222 211.823 211.822c12.111-3.61 23.885-7.295 34.903-11.069l-235.657-235.656c-3.774 11.019-7.459 22.793-11.069 34.903z"/>
    </g>
   </g>
   <g transform="matrix(-.39062653 0 0 .39062665 267.42472 282.75705)">
    <g stroke-width=".26458332">
     <path d="m247.23726 466.86516c-1.64941-1.64941-1.64941-4.32276 0-5.97191l18.43961-18.43961c1.64941-1.64941 4.32276-1.64941 5.97191 0 1.64941 1.64941 1.64941 4.32276 0 5.97191l-18.43961 18.43961c-1.64915 1.64915-4.3225 1.64915-5.97191 0z" fill="#57565c"/>
     <path d="m265.67713 442.45364-17.06906 17.0688c0.80354 1.1258 1.71767 2.20451 2.7424 3.22951 1.02368 1.02367 2.10635 1.93304 3.23533 2.73685l17.06324-17.06325c1.64942-1.64941 1.64942-4.32276 0-5.97191-1.64941-1.64915-4.32276-1.64941-5.97191 0z" fill="#3e3d42"/>
     <path d="m369.77162 344.33053c-6.35344-6.35344-11.31199-9.60781-14.75184-11.24638-2.52413-1.20253-5.55943 0.11033-6.34101 2.7948-1.4679 5.04401-4.8334 9.28502-4.8334 9.28502l25.09282 25.09282s4.24074-3.3655 9.28502-4.83341c2.68446-0.78105 3.99759-3.81688 2.79479-6.341-1.63883-3.43985-4.89267-8.39841-11.24638-14.75185z" fill="#ffdaaa"/>
     <path d="m359.505 354.59716c-20.11575-20.11574-52.72935-20.11574-72.84509 0-14.88307 14.88308-17.12595 49.65832-32.82685 85.64271 0 0-4.43865 8.99187 3.29909 16.73014 7.73827 7.73826 16.73013 3.29909 16.73013 3.29909 35.98439-15.70064 70.75937-17.94352 85.64245-32.82659 20.11601-20.11575 20.11601-52.72987 2.7e-4 -72.84535z" fill="#ffdaaa"/>
     <path d="m311.69849 340.78035 61.62331 61.62331c3.7592-16.66398-0.84428-34.83398-13.81707-47.8065-12.97226-12.97252-31.14225-17.57601-47.80624-13.81681z" fill="#e91e63"/>
     <path d="m286.65965 354.59716c-5.33956 5.33956-9.05193 13.23975-12.34255 22.83724l62.35091 62.35092c9.59724-3.29089 17.49743-7.00326 22.83699-12.34281 1.14088-1.14089 2.21376-2.32384 3.22527-3.54092l-72.5297-72.5297c-1.21656 1.0115-2.39977 2.08439-3.54092 3.22527z" fill="#00ddc2"/>
     <path d="m312.54436 446.99442-45.43663-45.43689c-2.6797 9.36386-5.67213 19.40401-9.59855 29.67487l25.36031 25.36031c10.27086-3.92642 20.31101-6.91885 29.67487-9.59829z" fill="#e91e63"/>
    </g>
    <g transform="matrix(.26458333 0 0 .26458333 246.00007 332.63542)" fill="#fbc02d">
     <path d="m167.057 70.815 274.127 274.127c7.113-8.557 13.379-17.578 18.799-26.957l-265.97-265.969c-9.378 5.419-18.399 11.686-26.956 18.799z"/>
     <path d="m95.956 204.222 211.823 211.822c12.111-3.61 23.885-7.295 34.903-11.069l-235.657-235.656c-3.774 11.019-7.459 22.793-11.069 34.903z"/>
    </g>
   </g>
   <g transform="matrix(-.39062653 0 0 .39062665 213.8466 282.75705)">
    <g stroke-width=".26458332">
     <path d="m247.23726 466.86516c-1.64941-1.64941-1.64941-4.32276 0-5.97191l18.43961-18.43961c1.64941-1.64941 4.32276-1.64941 5.97191 0 1.64941 1.64941 1.64941 4.32276 0 5.97191l-18.43961 18.43961c-1.64915 1.64915-4.3225 1.64915-5.97191 0z" fill="#57565c"/>
     <path d="m265.67713 442.45364-17.06906 17.0688c0.80354 1.1258 1.71767 2.20451 2.7424 3.22951 1.02368 1.02367 2.10635 1.93304 3.23533 2.73685l17.06324-17.06325c1.64942-1.64941 1.64942-4.32276 0-5.97191-1.64941-1.64915-4.32276-1.64941-5.97191 0z" fill="#3e3d42"/>
     <path d="m369.77162 344.33053c-6.35344-6.35344-11.31199-9.60781-14.75184-11.24638-2.52413-1.20253-5.55943 0.11033-6.34101 2.7948-1.4679 5.04401-4.8334 9.28502-4.8334 9.28502l25.09282 25.09282s4.24074-3.3655 9.28502-4.83341c2.68446-0.78105 3.99759-3.81688 2.79479-6.341-1.63883-3.43985-4.89267-8.39841-11.24638-14.75185z" fill="#ffdaaa"/>
     <path d="m359.505 354.59716c-20.11575-20.11574-52.72935-20.11574-72.84509 0-14.88307 14.88308-17.12595 49.65832-32.82685 85.64271 0 0-4.43865 8.99187 3.29909 16.73014 7.73827 7.73826 16.73013 3.29909 16.73013 3.29909 35.98439-15.70064 70.75937-17.94352 85.64245-32.82659 20.11601-20.11575 20.11601-52.72987 2.7e-4 -72.84535z" fill="#ffdaaa"/>
     <path d="m311.69849 340.78035 61.62331 61.62331c3.7592-16.66398-0.84428-34.83398-13.81707-47.8065-12.97226-12.97252-31.14225-17.57601-47.80624-13.81681z" fill="#e91e63"/>
     <path d="m286.65965 354.59716c-5.33956 5.33956-9.05193 13.23975-12.34255 22.83724l62.35091 62.35092c9.59724-3.29089 17.49743-7.00326 22.83699-12.34281 1.14088-1.14089 2.21376-2.32384 3.22527-3.54092l-72.5297-72.5297c-1.21656 1.0115-2.39977 2.08439-3.54092 3.22527z" fill="#00ddc2"/>
     <path d="m312.54436 446.99442-45.43663-45.43689c-2.6797 9.36386-5.67213 19.40401-9.59855 29.67487l25.36031 25.36031c10.27086-3.92642 20.31101-6.91885 29.67487-9.59829z" fill="#e91e63"/>
    </g>
    <g transform="matrix(.26458333 0 0 .26458333 246.00007 332.63542)" fill="#fbc02d">
     <path d="m167.057 70.815 274.127 274.127c7.113-8.557 13.379-17.578 18.799-26.957l-265.97-265.969c-9.378 5.419-18.399 11.686-26.956 18.799z"/>
     <path d="m95.956 204.222 211.823 211.822c12.111-3.61 23.885-7.295 34.903-11.069l-235.657-235.656c-3.774 11.019-7.459 22.793-11.069 34.903z"/>
    </g>
   </g>
   <g transform="matrix(-.39062653 0 0 .39062665 160.26847 282.75705)">
    <g stroke-width=".26458332">
     <path d="m247.23726 466.86516c-1.64941-1.64941-1.64941-4.32276 0-5.97191l18.43961-18.43961c1.64941-1.64941 4.32276-1.64941 5.97191 0 1.64941 1.64941 1.64941 4.32276 0 5.97191l-18.43961 18.43961c-1.64915 1.64915-4.3225 1.64915-5.97191 0z" fill="#57565c"/>
     <path d="m265.67713 442.45364-17.06906 17.0688c0.80354 1.1258 1.71767 2.20451 2.7424 3.22951 1.02368 1.02367 2.10635 1.93304 3.23533 2.73685l17.06324-17.06325c1.64942-1.64941 1.64942-4.32276 0-5.97191-1.64941-1.64915-4.32276-1.64941-5.97191 0z" fill="#3e3d42"/>
     <path d="m369.77162 344.33053c-6.35344-6.35344-11.31199-9.60781-14.75184-11.24638-2.52413-1.20253-5.55943 0.11033-6.34101 2.7948-1.4679 5.04401-4.8334 9.28502-4.8334 9.28502l25.09282 25.09282s4.24074-3.3655 9.28502-4.83341c2.68446-0.78105 3.99759-3.81688 2.79479-6.341-1.63883-3.43985-4.89267-8.39841-11.24638-14.75185z" fill="#ffdaaa"/>
     <path d="m359.505 354.59716c-20.11575-20.11574-52.72935-20.11574-72.84509 0-14.88307 14.88308-17.12595 49.65832-32.82685 85.64271 0 0-4.43865 8.99187 3.29909 16.73014 7.73827 7.73826 16.73013 3.29909 16.73013 3.29909 35.98439-15.70064 70.75937-17.94352 85.64245-32.82659 20.11601-20.11575 20.11601-52.72987 2.7e-4 -72.84535z" fill="#ffdaaa"/>
     <path d="m311.69849 340.78035 61.62331 61.62331c3.7592-16.66398-0.84428-34.83398-13.81707-47.8065-12.97226-12.97252-31.14225-17.57601-47.80624-13.81681z" fill="#e91e63"/>
     <path d="m286.65965 354.59716c-5.33956 5.33956-9.05193 13.23975-12.34255 22.83724l62.35091 62.35092c9.59724-3.29089 17.49743-7.00326 22.83699-12.34281 1.14088-1.14089 2.21376-2.32384 3.22527-3.54092l-72.5297-72.5297c-1.21656 1.0115-2.39977 2.08439-3.54092 3.22527z" fill="#00ddc2"/>
     <path d="m312.54436 446.99442-45.43663-45.43689c-2.6797 9.36386-5.67213 19.40401-9.59855 29.67487l25.36031 25.36031c10.27086-3.92642 20.31101-6.91885 29.67487-9.59829z" fill="#e91e63"/>
    </g>
    <g transform="matrix(.26458333 0 0 .26458333 246.00007 332.63542)" fill="#fbc02d">
     <path d="m167.057 70.815 274.127 274.127c7.113-8.557 13.379-17.578 18.799-26.957l-265.97-265.969c-9.378 5.419-18.399 11.686-26.956 18.799z"/>
     <path d="m95.956 204.222 211.823 211.822c12.111-3.61 23.885-7.295 34.903-11.069l-235.657-235.656c-3.774 11.019-7.459 22.793-11.069 34.903z"/>
    </g>
   </g>
  </g>
 </g>
</svg>
