<?xml version="1.0" encoding="UTF-8"?>
<!-- Created with Inkscape (http://www.inkscape.org/) -->
<svg width="452.94138mm" height="218.28125mm" version="1.1" viewBox="0 0 452.94138 218.28126" xmlns="http://www.w3.org/2000/svg" xmlns:cc="http://creativecommons.org/ns#" xmlns:dc="http://purl.org/dc/elements/1.1/" xmlns:rdf="http://www.w3.org/1999/02/22-rdf-syntax-ns#">
 <metadata>
  <rdf:RDF>
   <cc:Work rdf:about="">
    <dc:format>image/svg+xml</dc:format>
    <dc:type rdf:resource="http://purl.org/dc/dcmitype/StillImage"/>
    <dc:title/>
   </cc:Work>
  </rdf:RDF>
 </metadata>
 <g fill="#f9eab0">
  <polygon transform="matrix(3.4969519,0,0,3.4969519,454.53799,432.75581)" points=""/>
  <polygon transform="matrix(3.4969519,0,0,3.4969519,1042.6954,575.90132)" points=""/>
  <polygon transform="matrix(3.4969519,0,0,3.4969519,455.26903,655.71169)" points=""/>
  <polygon transform="matrix(3.4969519,0,0,3.4969519,1043.4265,798.8572)" points=""/>
  <g transform="translate(-12.79578,310.10624)">
   <polygon transform="matrix(3.4969519,0,0,3.4969519,454.53799,432.75581)" points=""/>
   <polygon transform="matrix(3.4969519,0,0,3.4969519,1042.6954,575.90132)" points=""/>
   <polygon transform="matrix(3.4969519,0,0,3.4969519,290.18775,626.41733)" points=""/>
  </g>
  <polygon transform="matrix(3.4969519,0,0,3.4969519,479.13668,390.12445)" points=""/>
  <polygon transform="matrix(9.1061708,0,0,9.0930789,1307.0572,1362.1078)" points=""/>
  <g transform="translate(-2.9234564,305.16572)">
   <polygon transform="matrix(3.4969519,0,0,3.4969519,454.53799,116.97428)" points=""/>
   <polygon transform="matrix(9.1061708,0,0,9.0930789,1282.4585,1088.9576)" points=""/>
   <polygon transform="matrix(3.4969519,0,0,3.4969519,828.57006,-535.68054)" points=""/>
   <polygon transform="matrix(3.4969519,0,0,3.4969519,-1847.954,290.9635)" points=""/>
  </g>
 </g>
 <g transform="translate(-667.77311,288.24452)" letter-spacing="0px" word-spacing="0px">
  <text x="-1222.3983" y="-173.37076" font-family="sans-serif" font-size="10.58333302px" stroke-width=".26458332" style="line-height:1.25" xml:space="preserve"><tspan x="-1222.3983" y="-164.00699" stroke-width=".26458332"/></text>
  <text x="-2245.1282" y="-126.3082" font-family="'SC Gum Kids'" font-size="266.9718323px" stroke-width=".80091542" style="font-feature-settings:normal;font-variant-caps:normal;font-variant-ligatures:normal;font-variant-numeric:normal;line-height:1.25" xml:space="preserve"><tspan x="-2245.1282" y="114.67583" font-family="'SC Gum Kids'" font-size="266.9718323px" stroke-width=".80091542" style="font-feature-settings:normal;font-variant-caps:normal;font-variant-ligatures:normal;font-variant-numeric:normal"/></text>
  <text x="912.07428" y="386.35889" font-family="sans-serif" font-size="10.58333302px" stroke-width=".26458332" style="line-height:1.25" xml:space="preserve"><tspan x="912.07428" y="395.72266" stroke-width=".26458332"/></text>
 </g>
 <polygon transform="matrix(3.4969519,0,0,3.4969519,-1847.7462,630.71882)" points="" fill="#f9eab0"/>
 <g transform="translate(-2.9234564,305.16572)" letter-spacing="0px" word-spacing="0px">
  <text x="-1884.1167" y="-155.70239" font-family="sans-serif" font-size="10.58333302px" stroke-width=".26458332" style="line-height:1.25" xml:space="preserve"><tspan x="-1884.1167" y="-146.33862" stroke-width=".26458332"/></text>
  <text x="-2906.8464" y="-108.63977" font-family="'SC Gum Kids'" font-size="266.9718323px" stroke-width=".80091542" style="font-feature-settings:normal;font-variant-caps:normal;font-variant-ligatures:normal;font-variant-numeric:normal;line-height:1.25" xml:space="preserve"><tspan x="-2906.8464" y="132.34424" font-family="'SC Gum Kids'" font-size="266.9718323px" stroke-width=".80091542" style="font-feature-settings:normal;font-variant-caps:normal;font-variant-ligatures:normal;font-variant-numeric:normal"/></text>
  <text x="250.35588" y="404.02722" font-family="sans-serif" font-size="10.58333302px" stroke-width=".26458332" style="line-height:1.25" xml:space="preserve"><tspan x="250.35588" y="413.39099" stroke-width=".26458332"/></text>
 </g>
 <polygon transform="matrix(3.4969519,0,0,3.4969519,-1998.4308,601.98732)" points="" fill="#f9eab0"/>
 <g transform="translate(-2.9234564,305.16572)" letter-spacing="0px" word-spacing="0px">
  <text x="-2034.8013" y="-184.43384" font-family="sans-serif" font-size="10.58333302px" stroke-width=".26458332" style="line-height:1.25" xml:space="preserve"><tspan x="-2034.8013" y="-175.07007" stroke-width=".26458332"/></text>
  <text x="-3057.531" y="-137.37134" font-family="'SC Gum Kids'" font-size="266.9718323px" stroke-width=".80091542" style="font-feature-settings:normal;font-variant-caps:normal;font-variant-ligatures:normal;font-variant-numeric:normal;line-height:1.25" xml:space="preserve"><tspan x="-3057.531" y="103.61267" font-family="'SC Gum Kids'" font-size="266.9718323px" stroke-width=".80091542" style="font-feature-settings:normal;font-variant-caps:normal;font-variant-ligatures:normal;font-variant-numeric:normal"/></text>
  <text x="99.671333" y="375.29578" font-family="sans-serif" font-size="10.58333302px" stroke-width=".26458332" style="line-height:1.25" xml:space="preserve"><tspan x="99.671333" y="384.65955" stroke-width=".26458332"/></text>
 </g>
 <polygon transform="matrix(3.4969519,0,0,3.4969519,-1998.1868,656.22472)" points="" fill="#f9eab0"/>
 <g transform="translate(-14.821697,-77.54353)" letter-spacing="0px" word-spacing="0px">
  <text x="-2022.6592" y="252.51283" font-family="sans-serif" font-size="10.58333302px" stroke-width=".26458332" style="line-height:1.25" xml:space="preserve"><tspan x="-2022.6592" y="261.87659" stroke-width=".26458332"/></text>
  <text x="-3045.3889" y="299.57538" font-family="'SC Gum Kids'" font-size="266.9718323px" stroke-width=".80091542" style="font-feature-settings:normal;font-variant-caps:normal;font-variant-ligatures:normal;font-variant-numeric:normal;line-height:1.25" xml:space="preserve"><tspan x="-3045.3889" y="540.55945" font-family="'SC Gum Kids'" font-size="266.9718323px" stroke-width=".80091542" style="font-feature-settings:normal;font-variant-caps:normal;font-variant-ligatures:normal;font-variant-numeric:normal"/></text>
  <text x="111.81351" y="812.24249" font-family="sans-serif" font-size="10.58333302px" stroke-width=".26458332" style="line-height:1.25" xml:space="preserve"><tspan x="111.81351" y="821.60626" stroke-width=".26458332"/></text>
 </g>
 <polygon transform="matrix(3.4969519,0,0,3.4969519,-2149.3361,604.22462)" points="" fill="#f9eab0"/>
 <g transform="translate(-2.9234564,305.16572)" letter-spacing="0px" word-spacing="0px">
  <text x="-2185.7068" y="-182.19659" font-family="sans-serif" font-size="10.58333302px" stroke-width=".26458332" style="line-height:1.25" xml:space="preserve"><tspan x="-2185.7068" y="-172.83282" stroke-width=".26458332"/></text>
  <text x="-3208.4365" y="-135.13403" font-family="'SC Gum Kids'" font-size="266.9718323px" stroke-width=".80091542" style="font-feature-settings:normal;font-variant-caps:normal;font-variant-ligatures:normal;font-variant-numeric:normal;line-height:1.25" xml:space="preserve"><tspan x="-3208.4365" y="105.84998" font-family="'SC Gum Kids'" font-size="266.9718323px" stroke-width=".80091542" style="font-feature-settings:normal;font-variant-caps:normal;font-variant-ligatures:normal;font-variant-numeric:normal"/></text>
  <text x="-51.233967" y="377.53308" font-family="sans-serif" font-size="10.58333302px" stroke-width=".26458332" style="line-height:1.25" xml:space="preserve"><tspan x="-51.233967" y="386.89685" stroke-width=".26458332"/></text>
 </g>
 <polygon transform="matrix(3.4969519,0,0,3.4969519,-2144.4712,667.52692)" points="" fill="#f9eab0"/>
 <g transform="translate(-2.9234564,305.16572)" letter-spacing="0px" word-spacing="0px">
  <text x="-2180.8418" y="-118.89429" font-family="sans-serif" font-size="10.58333302px" stroke-width=".26458332" style="line-height:1.25" xml:space="preserve"><tspan x="-2180.8418" y="-109.53052" stroke-width=".26458332"/></text>
  <text x="-3203.5715" y="-71.831665" font-family="'SC Gum Kids'" font-size="266.9718323px" stroke-width=".80091542" style="font-feature-settings:normal;font-variant-caps:normal;font-variant-ligatures:normal;font-variant-numeric:normal;line-height:1.25" xml:space="preserve"><tspan x="-3203.5715" y="169.15234" font-family="'SC Gum Kids'" font-size="266.9718323px" stroke-width=".80091542" style="font-feature-settings:normal;font-variant-caps:normal;font-variant-ligatures:normal;font-variant-numeric:normal"/></text>
  <text x="-46.369076" y="440.83533" font-family="sans-serif" font-size="10.58333302px" stroke-width=".26458332" style="line-height:1.25" xml:space="preserve"><tspan x="-46.369076" y="450.1991" stroke-width=".26458332"/></text>
 </g>
 <polygon transform="matrix(3.4969519,0,0,3.4969519,-1850.8775,1602.8115)" points="" fill="#f9eab0"/>
 <g transform="translate(-2.9234564,305.16572)" letter-spacing="0px" word-spacing="0px">
  <text x="-1887.2479" y="816.39038" font-family="sans-serif" font-size="10.58333302px" stroke-width=".26458332" style="line-height:1.25" xml:space="preserve"><tspan x="-1887.2479" y="825.75415" stroke-width=".26458332"/></text>
  <text x="-2909.9778" y="863.45288" font-family="'SC Gum Kids'" font-size="266.9718323px" stroke-width=".80091542" style="font-feature-settings:normal;font-variant-caps:normal;font-variant-ligatures:normal;font-variant-numeric:normal;line-height:1.25" xml:space="preserve"><tspan x="-2909.9778" y="1104.437" font-family="'SC Gum Kids'" font-size="266.9718323px" stroke-width=".80091542" style="font-feature-settings:normal;font-variant-caps:normal;font-variant-ligatures:normal;font-variant-numeric:normal"/></text>
  <text x="247.22462" y="1376.1199" font-family="sans-serif" font-size="10.58333302px" stroke-width=".26458332" style="line-height:1.25" xml:space="preserve"><tspan x="247.22462" y="1385.4836" stroke-width=".26458332"/></text>
 </g>
 <polygon transform="matrix(3.4969519,0,0,3.4969519,-1847.7462,1637.4011)" points="" fill="#f9eab0"/>
 <g transform="translate(-2.9234564,305.16572)" letter-spacing="0px" word-spacing="0px">
  <text x="-1884.1167" y="850.97998" font-family="sans-serif" font-size="10.58333302px" stroke-width=".26458332" style="line-height:1.25" xml:space="preserve"><tspan x="-1884.1167" y="860.34375" stroke-width=".26458332"/></text>
  <text x="-2906.8464" y="898.04248" font-family="'SC Gum Kids'" font-size="266.9718323px" stroke-width=".80091542" style="font-feature-settings:normal;font-variant-caps:normal;font-variant-ligatures:normal;font-variant-numeric:normal;line-height:1.25" xml:space="preserve"><tspan x="-2906.8464" y="1139.0266" font-family="'SC Gum Kids'" font-size="266.9718323px" stroke-width=".80091542" style="font-feature-settings:normal;font-variant-caps:normal;font-variant-ligatures:normal;font-variant-numeric:normal"/></text>
  <text x="250.35588" y="1410.7095" font-family="sans-serif" font-size="10.58333302px" stroke-width=".26458332" style="line-height:1.25" xml:space="preserve"><tspan x="250.35588" y="1420.0732" stroke-width=".26458332"/></text>
 </g>
 <polygon transform="matrix(3.4969519,0,0,3.4969519,-1998.4308,1608.6696)" points="" fill="#f9eab0"/>
 <g transform="translate(-2.9234564,305.16572)" letter-spacing="0px" word-spacing="0px">
  <text x="-2034.8013" y="822.24841" font-family="sans-serif" font-size="10.58333302px" stroke-width=".26458332" style="line-height:1.25" xml:space="preserve"><tspan x="-2034.8013" y="831.61218" stroke-width=".26458332"/></text>
  <text x="-3057.531" y="869.31104" font-family="'SC Gum Kids'" font-size="266.9718323px" stroke-width=".80091542" style="font-feature-settings:normal;font-variant-caps:normal;font-variant-ligatures:normal;font-variant-numeric:normal;line-height:1.25" xml:space="preserve"><tspan x="-3057.531" y="1110.2949" font-family="'SC Gum Kids'" font-size="266.9718323px" stroke-width=".80091542" style="font-feature-settings:normal;font-variant-caps:normal;font-variant-ligatures:normal;font-variant-numeric:normal"/></text>
  <text x="99.671333" y="1381.978" font-family="sans-serif" font-size="10.58333302px" stroke-width=".26458332" style="line-height:1.25" xml:space="preserve"><tspan x="99.671333" y="1391.3418" stroke-width=".26458332"/></text>
 </g>
 <polygon transform="matrix(3.4969519,0,0,3.4969519,-1998.1868,1662.9071)" points="" fill="#f9eab0"/>
 <g transform="translate(-14.821697,929.13882)" letter-spacing="0px" word-spacing="0px">
  <text x="-2022.6592" y="252.51283" font-family="sans-serif" font-size="10.58333302px" stroke-width=".26458332" style="line-height:1.25" xml:space="preserve"><tspan x="-2022.6592" y="261.87659" stroke-width=".26458332"/></text>
  <text x="-3045.3889" y="299.57538" font-family="'SC Gum Kids'" font-size="266.9718323px" stroke-width=".80091542" style="font-feature-settings:normal;font-variant-caps:normal;font-variant-ligatures:normal;font-variant-numeric:normal;line-height:1.25" xml:space="preserve"><tspan x="-3045.3889" y="540.55945" font-family="'SC Gum Kids'" font-size="266.9718323px" stroke-width=".80091542" style="font-feature-settings:normal;font-variant-caps:normal;font-variant-ligatures:normal;font-variant-numeric:normal"/></text>
  <text x="111.81351" y="812.24249" font-family="sans-serif" font-size="10.58333302px" stroke-width=".26458332" style="line-height:1.25" xml:space="preserve"><tspan x="111.81351" y="821.60626" stroke-width=".26458332"/></text>
 </g>
 <polygon transform="matrix(3.4969519,0,0,3.4969519,-2149.3361,1610.9069)" points="" fill="#f9eab0"/>
 <g transform="translate(-2.9234564,305.16572)" letter-spacing="0px" word-spacing="0px">
  <text x="-2185.7068" y="824.48572" font-family="sans-serif" font-size="10.58333302px" stroke-width=".26458332" style="line-height:1.25" xml:space="preserve"><tspan x="-2185.7068" y="833.84949" stroke-width=".26458332"/></text>
  <text x="-3208.4365" y="871.54834" font-family="'SC Gum Kids'" font-size="266.9718323px" stroke-width=".80091542" style="font-feature-settings:normal;font-variant-caps:normal;font-variant-ligatures:normal;font-variant-numeric:normal;line-height:1.25" xml:space="preserve"><tspan x="-3208.4365" y="1112.5322" font-family="'SC Gum Kids'" font-size="266.9718323px" stroke-width=".80091542" style="font-feature-settings:normal;font-variant-caps:normal;font-variant-ligatures:normal;font-variant-numeric:normal"/></text>
  <text x="-51.233967" y="1384.2153" font-family="sans-serif" font-size="10.58333302px" stroke-width=".26458332" style="line-height:1.25" xml:space="preserve"><tspan x="-51.233967" y="1393.5791" stroke-width=".26458332"/></text>
 </g>
 <polygon transform="matrix(3.4969519,0,0,3.4969519,-2144.4712,1674.2092)" points="" fill="#f9eab0"/>
 <g transform="translate(630.34455,942.29642)" letter-spacing="0px" word-spacing="0px">
  <text x="-2814.1099" y="250.65732" font-family="sans-serif" font-size="10.58333302px" stroke-width=".26458332" style="line-height:1.25" xml:space="preserve"><tspan x="-2814.1099" y="260.02109" stroke-width=".26458332"/></text>
  <text x="-3836.8396" y="297.71988" font-family="'SC Gum Kids'" font-size="266.9718323px" stroke-width=".80091542" style="font-feature-settings:normal;font-variant-caps:normal;font-variant-ligatures:normal;font-variant-numeric:normal;line-height:1.25" xml:space="preserve"><tspan x="-3836.8396" y="538.70392" font-family="'SC Gum Kids'" font-size="266.9718323px" stroke-width=".80091542" style="font-feature-settings:normal;font-variant-caps:normal;font-variant-ligatures:normal;font-variant-numeric:normal"/></text>
  <text x="-679.63708" y="810.38696" font-family="sans-serif" font-size="10.58333302px" stroke-width=".26458332" style="line-height:1.25" xml:space="preserve"><tspan x="-679.63708" y="819.75073" stroke-width=".26458332"/></text>
 </g>
 <g transform="translate(-26.658261,303.22367)" fill="#f9eab0">
  <polygon transform="matrix(3.4969519,0,0,3.4969519,454.53799,116.97428)" points=""/>
  <polygon transform="matrix(9.1061708,0,0,9.0930789,1282.4585,1088.9576)" points=""/>
  <polygon transform="matrix(3.4969519,0,0,3.4969519,828.57006,-535.68054)" points=""/>
  <polygon transform="matrix(3.4969519,0,0,3.4969519,-1847.954,290.9635)" points=""/>
 </g>
 <g transform="translate(-691.50791,286.30247)" letter-spacing="0px" word-spacing="0px">
  <text x="-1222.3983" y="-173.37076" font-family="sans-serif" font-size="10.58333302px" stroke-width=".26458332" style="line-height:1.25" xml:space="preserve"><tspan x="-1222.3983" y="-164.00699" stroke-width=".26458332"/></text>
  <text x="-2245.1282" y="-126.3082" font-family="'SC Gum Kids'" font-size="266.9718323px" stroke-width=".80091542" style="font-feature-settings:normal;font-variant-caps:normal;font-variant-ligatures:normal;font-variant-numeric:normal;line-height:1.25" xml:space="preserve"><tspan x="-2245.1282" y="114.67583" font-family="'SC Gum Kids'" font-size="266.9718323px" stroke-width=".80091542" style="font-feature-settings:normal;font-variant-caps:normal;font-variant-ligatures:normal;font-variant-numeric:normal"/></text>
  <text x="912.07428" y="386.35889" font-family="sans-serif" font-size="10.58333302px" stroke-width=".26458332" style="line-height:1.25" xml:space="preserve"><tspan x="912.07428" y="395.72266" stroke-width=".26458332"/></text>
 </g>
 <polygon transform="matrix(3.4969519,0,0,3.4969519,-1871.481,628.77677)" points="" fill="#f9eab0"/>
 <g transform="translate(-26.658261,303.22367)" letter-spacing="0px" word-spacing="0px">
  <text x="-1884.1167" y="-155.70239" font-family="sans-serif" font-size="10.58333302px" stroke-width=".26458332" style="line-height:1.25" xml:space="preserve"><tspan x="-1884.1167" y="-146.33862" stroke-width=".26458332"/></text>
  <text x="-2906.8464" y="-108.63977" font-family="'SC Gum Kids'" font-size="266.9718323px" stroke-width=".80091542" style="font-feature-settings:normal;font-variant-caps:normal;font-variant-ligatures:normal;font-variant-numeric:normal;line-height:1.25" xml:space="preserve"><tspan x="-2906.8464" y="132.34424" font-family="'SC Gum Kids'" font-size="266.9718323px" stroke-width=".80091542" style="font-feature-settings:normal;font-variant-caps:normal;font-variant-ligatures:normal;font-variant-numeric:normal"/></text>
  <text x="250.35588" y="404.02722" font-family="sans-serif" font-size="10.58333302px" stroke-width=".26458332" style="line-height:1.25" xml:space="preserve"><tspan x="250.35588" y="413.39099" stroke-width=".26458332"/></text>
 </g>
 <polygon transform="matrix(3.4969519,0,0,3.4969519,-2022.1656,600.04527)" points="" fill="#f9eab0"/>
 <g transform="translate(-26.658261,303.22367)" letter-spacing="0px" word-spacing="0px">
  <text x="-2034.8013" y="-184.43384" font-family="sans-serif" font-size="10.58333302px" stroke-width=".26458332" style="line-height:1.25" xml:space="preserve"><tspan x="-2034.8013" y="-175.07007" stroke-width=".26458332"/></text>
  <text x="-3057.531" y="-137.37134" font-family="'SC Gum Kids'" font-size="266.9718323px" stroke-width=".80091542" style="font-feature-settings:normal;font-variant-caps:normal;font-variant-ligatures:normal;font-variant-numeric:normal;line-height:1.25" xml:space="preserve"><tspan x="-3057.531" y="103.61267" font-family="'SC Gum Kids'" font-size="266.9718323px" stroke-width=".80091542" style="font-feature-settings:normal;font-variant-caps:normal;font-variant-ligatures:normal;font-variant-numeric:normal"/></text>
  <text x="99.671333" y="375.29578" font-family="sans-serif" font-size="10.58333302px" stroke-width=".26458332" style="line-height:1.25" xml:space="preserve"><tspan x="99.671333" y="384.65955" stroke-width=".26458332"/></text>
 </g>
 <polygon transform="matrix(3.4969519,0,0,3.4969519,-2021.9216,654.28267)" points="" fill="#f9eab0"/>
 <g transform="translate(-38.556502,-79.48558)" letter-spacing="0px" word-spacing="0px">
  <text x="-2022.6592" y="252.51283" font-family="sans-serif" font-size="10.58333302px" stroke-width=".26458332" style="line-height:1.25" xml:space="preserve"><tspan x="-2022.6592" y="261.87659" stroke-width=".26458332"/></text>
  <text x="-3045.3889" y="299.57538" font-family="'SC Gum Kids'" font-size="266.9718323px" stroke-width=".80091542" style="font-feature-settings:normal;font-variant-caps:normal;font-variant-ligatures:normal;font-variant-numeric:normal;line-height:1.25" xml:space="preserve"><tspan x="-3045.3889" y="540.55945" font-family="'SC Gum Kids'" font-size="266.9718323px" stroke-width=".80091542" style="font-feature-settings:normal;font-variant-caps:normal;font-variant-ligatures:normal;font-variant-numeric:normal"/></text>
  <text x="111.81351" y="812.24249" font-family="sans-serif" font-size="10.58333302px" stroke-width=".26458332" style="line-height:1.25" xml:space="preserve"><tspan x="111.81351" y="821.60626" stroke-width=".26458332"/></text>
 </g>
 <polygon transform="matrix(3.4969519,0,0,3.4969519,-2173.0709,602.28257)" points="" fill="#f9eab0"/>
 <g transform="translate(-26.658261,303.22367)" letter-spacing="0px" word-spacing="0px">
  <text x="-2185.7068" y="-182.19659" font-family="sans-serif" font-size="10.58333302px" stroke-width=".26458332" style="line-height:1.25" xml:space="preserve"><tspan x="-2185.7068" y="-172.83282" stroke-width=".26458332"/></text>
  <text x="-3208.4365" y="-135.13403" font-family="'SC Gum Kids'" font-size="266.9718323px" stroke-width=".80091542" style="font-feature-settings:normal;font-variant-caps:normal;font-variant-ligatures:normal;font-variant-numeric:normal;line-height:1.25" xml:space="preserve"><tspan x="-3208.4365" y="105.84998" font-family="'SC Gum Kids'" font-size="266.9718323px" stroke-width=".80091542" style="font-feature-settings:normal;font-variant-caps:normal;font-variant-ligatures:normal;font-variant-numeric:normal"/></text>
  <text x="-51.233967" y="377.53308" font-family="sans-serif" font-size="10.58333302px" stroke-width=".26458332" style="line-height:1.25" xml:space="preserve"><tspan x="-51.233967" y="386.89685" stroke-width=".26458332"/></text>
 </g>
 <polygon transform="matrix(3.4969519,0,0,3.4969519,-2168.206,665.58487)" points="" fill="#f9eab0"/>
 <g transform="translate(-26.658261,303.22367)" letter-spacing="0px" word-spacing="0px">
  <text x="-2180.8418" y="-118.89429" font-family="sans-serif" font-size="10.58333302px" stroke-width=".26458332" style="line-height:1.25" xml:space="preserve"><tspan x="-2180.8418" y="-109.53052" stroke-width=".26458332"/></text>
  <text x="-3203.5715" y="-71.831665" font-family="'SC Gum Kids'" font-size="266.9718323px" stroke-width=".80091542" style="font-feature-settings:normal;font-variant-caps:normal;font-variant-ligatures:normal;font-variant-numeric:normal;line-height:1.25" xml:space="preserve"><tspan x="-3203.5715" y="169.15234" font-family="'SC Gum Kids'" font-size="266.9718323px" stroke-width=".80091542" style="font-feature-settings:normal;font-variant-caps:normal;font-variant-ligatures:normal;font-variant-numeric:normal"/></text>
  <text x="-46.369076" y="440.83533" font-family="sans-serif" font-size="10.58333302px" stroke-width=".26458332" style="line-height:1.25" xml:space="preserve"><tspan x="-46.369076" y="450.1991" stroke-width=".26458332"/></text>
 </g>
 <polygon transform="matrix(3.4969519,0,0,3.4969519,-1874.6123,1600.8695)" points="" fill="#f9eab0"/>
 <g transform="translate(-26.658261,303.22367)" letter-spacing="0px" word-spacing="0px">
  <text x="-1887.2479" y="816.39038" font-family="sans-serif" font-size="10.58333302px" stroke-width=".26458332" style="line-height:1.25" xml:space="preserve"><tspan x="-1887.2479" y="825.75415" stroke-width=".26458332"/></text>
  <text x="-2909.9778" y="863.45288" font-family="'SC Gum Kids'" font-size="266.9718323px" stroke-width=".80091542" style="font-feature-settings:normal;font-variant-caps:normal;font-variant-ligatures:normal;font-variant-numeric:normal;line-height:1.25" xml:space="preserve"><tspan x="-2909.9778" y="1104.437" font-family="'SC Gum Kids'" font-size="266.9718323px" stroke-width=".80091542" style="font-feature-settings:normal;font-variant-caps:normal;font-variant-ligatures:normal;font-variant-numeric:normal"/></text>
  <text x="247.22462" y="1376.1199" font-family="sans-serif" font-size="10.58333302px" stroke-width=".26458332" style="line-height:1.25" xml:space="preserve"><tspan x="247.22462" y="1385.4836" stroke-width=".26458332"/></text>
 </g>
 <polygon transform="matrix(3.4969519,0,0,3.4969519,-1871.481,1635.4591)" points="" fill="#f9eab0"/>
 <g transform="translate(-26.658261,303.22367)" letter-spacing="0px" word-spacing="0px">
  <text x="-1884.1167" y="850.97998" font-family="sans-serif" font-size="10.58333302px" stroke-width=".26458332" style="line-height:1.25" xml:space="preserve"><tspan x="-1884.1167" y="860.34375" stroke-width=".26458332"/></text>
  <text x="-2906.8464" y="898.04248" font-family="'SC Gum Kids'" font-size="266.9718323px" stroke-width=".80091542" style="font-feature-settings:normal;font-variant-caps:normal;font-variant-ligatures:normal;font-variant-numeric:normal;line-height:1.25" xml:space="preserve"><tspan x="-2906.8464" y="1139.0266" font-family="'SC Gum Kids'" font-size="266.9718323px" stroke-width=".80091542" style="font-feature-settings:normal;font-variant-caps:normal;font-variant-ligatures:normal;font-variant-numeric:normal"/></text>
  <text x="250.35588" y="1410.7095" font-family="sans-serif" font-size="10.58333302px" stroke-width=".26458332" style="line-height:1.25" xml:space="preserve"><tspan x="250.35588" y="1420.0732" stroke-width=".26458332"/></text>
 </g>
 <polygon transform="matrix(3.4969519,0,0,3.4969519,-2022.1656,1606.7276)" points="" fill="#f9eab0"/>
 <g transform="translate(-26.658261,303.22367)" letter-spacing="0px" word-spacing="0px">
  <text x="-2034.8013" y="822.24841" font-family="sans-serif" font-size="10.58333302px" stroke-width=".26458332" style="line-height:1.25" xml:space="preserve"><tspan x="-2034.8013" y="831.61218" stroke-width=".26458332"/></text>
  <text x="-3057.531" y="869.31104" font-family="'SC Gum Kids'" font-size="266.9718323px" stroke-width=".80091542" style="font-feature-settings:normal;font-variant-caps:normal;font-variant-ligatures:normal;font-variant-numeric:normal;line-height:1.25" xml:space="preserve"><tspan x="-3057.531" y="1110.2949" font-family="'SC Gum Kids'" font-size="266.9718323px" stroke-width=".80091542" style="font-feature-settings:normal;font-variant-caps:normal;font-variant-ligatures:normal;font-variant-numeric:normal"/></text>
  <text x="99.671333" y="1381.978" font-family="sans-serif" font-size="10.58333302px" stroke-width=".26458332" style="line-height:1.25" xml:space="preserve"><tspan x="99.671333" y="1391.3418" stroke-width=".26458332"/></text>
 </g>
 <polygon transform="matrix(3.4969519,0,0,3.4969519,-2021.9216,1660.9651)" points="" fill="#f9eab0"/>
 <g transform="translate(-38.556502,927.19677)" letter-spacing="0px" word-spacing="0px">
  <text x="-2022.6592" y="252.51283" font-family="sans-serif" font-size="10.58333302px" stroke-width=".26458332" style="line-height:1.25" xml:space="preserve"><tspan x="-2022.6592" y="261.87659" stroke-width=".26458332"/></text>
  <text x="-3045.3889" y="299.57538" font-family="'SC Gum Kids'" font-size="266.9718323px" stroke-width=".80091542" style="font-feature-settings:normal;font-variant-caps:normal;font-variant-ligatures:normal;font-variant-numeric:normal;line-height:1.25" xml:space="preserve"><tspan x="-3045.3889" y="540.55945" font-family="'SC Gum Kids'" font-size="266.9718323px" stroke-width=".80091542" style="font-feature-settings:normal;font-variant-caps:normal;font-variant-ligatures:normal;font-variant-numeric:normal"/></text>
  <text x="111.81351" y="812.24249" font-family="sans-serif" font-size="10.58333302px" stroke-width=".26458332" style="line-height:1.25" xml:space="preserve"><tspan x="111.81351" y="821.60626" stroke-width=".26458332"/></text>
 </g>
 <polygon transform="matrix(3.4969519,0,0,3.4969519,-2173.0709,1608.9649)" points="" fill="#f9eab0"/>
 <g transform="translate(-26.658261,303.22367)" letter-spacing="0px" word-spacing="0px">
  <text x="-2185.7068" y="824.48572" font-family="sans-serif" font-size="10.58333302px" stroke-width=".26458332" style="line-height:1.25" xml:space="preserve"><tspan x="-2185.7068" y="833.84949" stroke-width=".26458332"/></text>
  <text x="-3208.4365" y="871.54834" font-family="'SC Gum Kids'" font-size="266.9718323px" stroke-width=".80091542" style="font-feature-settings:normal;font-variant-caps:normal;font-variant-ligatures:normal;font-variant-numeric:normal;line-height:1.25" xml:space="preserve"><tspan x="-3208.4365" y="1112.5322" font-family="'SC Gum Kids'" font-size="266.9718323px" stroke-width=".80091542" style="font-feature-settings:normal;font-variant-caps:normal;font-variant-ligatures:normal;font-variant-numeric:normal"/></text>
  <text x="-51.233967" y="1384.2153" font-family="sans-serif" font-size="10.58333302px" stroke-width=".26458332" style="line-height:1.25" xml:space="preserve"><tspan x="-51.233967" y="1393.5791" stroke-width=".26458332"/></text>
 </g>
 <polygon transform="matrix(3.4969519,0,0,3.4969519,-2168.206,1672.2672)" points="" fill="#f9eab0"/>
 <g transform="translate(606.60975,940.35437)" letter-spacing="0px" word-spacing="0px">
  <text x="-2814.1099" y="250.65732" font-family="sans-serif" font-size="10.58333302px" stroke-width=".26458332" style="line-height:1.25" xml:space="preserve"><tspan x="-2814.1099" y="260.02109" stroke-width=".26458332"/></text>
  <text x="-3836.8396" y="297.71988" font-family="'SC Gum Kids'" font-size="266.9718323px" stroke-width=".80091542" style="font-feature-settings:normal;font-variant-caps:normal;font-variant-ligatures:normal;font-variant-numeric:normal;line-height:1.25" xml:space="preserve"><tspan x="-3836.8396" y="538.70392" font-family="'SC Gum Kids'" font-size="266.9718323px" stroke-width=".80091542" style="font-feature-settings:normal;font-variant-caps:normal;font-variant-ligatures:normal;font-variant-numeric:normal"/></text>
  <text x="-679.63708" y="810.38696" font-family="sans-serif" font-size="10.58333302px" stroke-width=".26458332" style="line-height:1.25" xml:space="preserve"><tspan x="-679.63708" y="819.75073" stroke-width=".26458332"/></text>
 </g>
 <rect x="5.1217259e-5" y="-3.5888672e-7" width="452.94128" height="218.28127" opacity="0" stroke-width=".35775721"/>
 <path d="m443.26684 71.73891h-81.33692c-4.78279 0-8.6332 3.92436-8.6332 8.79901v75.63361c0 4.87466 3.85041 8.79901 8.6332 8.79901h81.33692c4.78279 0 8.6332-3.92435 8.6332-8.79901l-16.63339-37.81681 16.63339-37.8168c1.95647-4.44815-3.85041-8.79901-8.6332-8.79901z" fill="#fff" stroke="#9c27b0" stroke-linecap="round" stroke-linejoin="round" stroke-width="1.3104434"/>
 <path d="m361.2116 71.55981c0.66677 0.0315 1.31076 0.26187 1.90041 0.73642 0 0 21.47401 14.96078 27.30036 20.24193 1.04754 0.94953 1.9879 1.73092 2.83236 2.40976h-39.90146v-13.80588c0-4.13507 4.26777-9.75218 7.86833-9.58223zm33.05077 116.27493c-1.30156 0.8041-2.72443 0.95334-4.0518 0z" fill="#9c27b0"/>
 <path d="m9.674543 71.73891h81.336926c4.78279 0 8.633196 3.92436 8.633196 8.79901v75.63361c0 4.87466-3.850406 8.79901-8.633196 8.79901h-81.336926c-4.78279 0-8.6331959-3.92435-8.6331959-8.79901l16.6333829-37.81681-16.6333829-37.8168c-1.95647452-4.44815 3.8504059-8.79901 8.6331959-8.79901z" fill="#fff" stroke="#9c27b0" stroke-linecap="round" stroke-linejoin="round" stroke-width="1.3104434"/>
 <path d="m91.729785 71.55981c-0.666771 0.0315-1.310758 0.26187-1.900407 0.73642 0 0-21.474014 14.96078-27.300364 20.24193-1.047537 0.94953-1.987893 1.73092-2.832357 2.40976h39.901467v-13.80588c0-4.13507-4.267775-9.75218-7.868339-9.58223zm-33.050768 116.27493c1.301555 0.8041 2.724424 0.95333 4.051803 0z" fill="#9c27b0"/>
 <g stroke="#9c27b0" stroke-linecap="round" stroke-linejoin="round">
  <rect x="54.690292" y="94.947906" width="343.80542" height="92.886826" ry="8.7664652" fill="#fff" stroke-width="1.3104434"/>
  <g transform="matrix(.71974789 0 0 .71974789 181.03411 -27.19562)" fill="#00c853" stroke-width="7.9375">
   <path d="m-33.222956 318.55025v18.84114"/>
   <path d="m-23.802386 327.97082h-18.84114"/>
  </g>
  <g transform="matrix(.71974789 0 0 .71974789 319.73159 -27.19562)" fill="#00c853" stroke-width="7.9375">
   <path d="m-33.222956 318.55025v18.84114"/>
   <path d="m-23.802386 327.97082h-18.84114"/>
  </g>
 </g>
 <g fill="#fff">
  <g stroke-width=".26458332" style="font-feature-settings:normal;font-variant-caps:normal;font-variant-ligatures:normal;font-variant-numeric:normal" aria-label="exercise">
   <path d="m179.24391 211.12304q-0.18603-1.67431 0.28939-3.32796 0.47542-1.67432 1.46761-2.97656 1.01286-1.32292 2.43913-2.1084 1.42627-0.80615 3.14193-0.76481 0.7028-0.0207 1.6123 0.31006 0.90951 0.33072 1.67432 0.93017 0.76481 0.57878 1.21956 1.36426 0.47542 0.76481 0.31006 1.63297 0.0207 0.43409-0.43408 0.72347-0.45476 0.26872-1.21957 0.43409-0.74414 0.16536-1.757 0.24804-0.99218 0.062-2.10839 0.10336-1.09554 0.0413-2.23243 0.0827-1.13688 0.0207-2.14974 0.10335-0.57877 1.59164-0.3514 2.62516 0.24805 1.01286 1.01286 1.5503 0.78548 0.53743 1.92237 0.64079 1.15755 0.0827 2.39778-0.16537 1.24024-0.24805 2.43913-0.78548 1.19889-0.55811 2.06706-1.32292 0.12402 0 0.31006 0.0827 0.2067 0.0827 0.39274 0.22738 0.18603 0.12402 0.31006 0.28939 0.14469 0.14469 0.14469 0.26872-0.51676 0.88883-1.57096 1.59163t-2.37712 1.13688-2.76986 0.53744q-1.42627 0.10335-2.68717-0.20671-1.26091-0.31006-2.21175-1.09554-0.95085-0.78548-1.28158-2.12907zm9.88054-5.51904q-0.10336-0.78548-0.62012-1.17822-0.51677-0.39275-1.21956-0.4961-0.7028-0.12402-1.48829 0.0207-0.78548 0.1447-1.46761 0.43408-0.66146 0.28939-1.11621 0.68213-0.43408 0.39274-0.45475 0.78549z" style="font-feature-settings:normal;font-variant-caps:normal;font-variant-ligatures:normal;font-variant-numeric:normal"/>
   <path d="m192.72113 203.64029q0-0.12402 0.10335-0.37207 0.10335-0.26871 0.28939-0.51676 0.2067-0.24805 0.49609-0.39274 0.28939-0.16537 0.68213-0.10335l4.25814 5.1263q0.3514-0.45475 0.78548-1.09554 0.43408-0.66146 0.93018-1.38493 0.49609-0.72347 1.01285-1.44694 0.51677-0.72347 1.0542-1.34359 0.31006 0 0.53744 0.12402 0.24805 0.12403 0.41341 0.31006 0.16536 0.16537 0.24805 0.37207 0.10335 0.20671 0.10335 0.39274l-3.38997 5.29167 4.46484 4.67155q0.14469 0.26872 0.062 0.57878-0.0827 0.31006-0.31006 0.5581-0.2067 0.22738-0.51676 0.33073t-0.64079-0.0413l-4.46484-4.65088q-0.37207 0.41341-0.90951 1.0542-0.53743 0.64079-1.13688 1.30225-0.57878 0.66146-1.13688 1.24023-0.55811 0.57878-0.95085 0.86817-0.24805 0.12402-0.5581 0.12402-0.28939 0-0.55811-0.12402-0.24805-0.10336-0.41341-0.31006-0.16537-0.20671-0.16537-0.47543 0.062-0.062 0.3514-0.3514 0.28939-0.31005 0.68213-0.74414 0.41341-0.43408 0.88884-0.97151 0.47542-0.53744 0.9095-1.0542 0.43409-0.53744 0.80616-1.03353 0.37207-0.4961 0.5581-0.8475-1.2609-1.40559-2.25309-2.52181-0.41341-0.47542-0.82682-0.93017-0.39275-0.45475-0.7028-0.80615-0.31006-0.37207-0.51677-0.59945-0.18603-0.22738-0.18603-0.22738z" style="font-feature-settings:normal;font-variant-caps:normal;font-variant-ligatures:normal;font-variant-numeric:normal"/>
   <path d="m205.33018 211.12304q-0.18604-1.67431 0.28939-3.32796 0.47542-1.67432 1.46761-2.97656 1.01285-1.32292 2.43912-2.1084 1.42627-0.80615 3.14193-0.76481 0.7028-0.0207 1.61231 0.31006 0.9095 0.33072 1.67431 0.93017 0.76481 0.57878 1.21957 1.36426 0.47542 0.76481 0.31005 1.63297 0.0207 0.43409-0.43408 0.72347-0.45475 0.26872-1.21956 0.43409-0.74414 0.16536-1.757 0.24804-0.99219 0.062-2.1084 0.10336-1.09554 0.0413-2.23242 0.0827-1.13688 0.0207-2.14974 0.10335-0.57878 1.59164-0.3514 2.62516 0.24805 1.01286 1.01286 1.5503 0.78548 0.53743 1.92236 0.64079 1.15755 0.0827 2.39779-0.16537 1.24023-0.24805 2.43913-0.78548 1.19889-0.55811 2.06705-1.32292 0.12403 0 0.31006 0.0827 0.20671 0.0827 0.39274 0.22738 0.18604 0.12402 0.31006 0.28939 0.1447 0.14469 0.1447 0.26872-0.51677 0.88883-1.57097 1.59163t-2.37711 1.13688q-1.32292 0.43408-2.76986 0.53744-1.42627 0.10335-2.68718-0.20671-1.2609-0.31006-2.21175-1.09554-0.95084-0.78548-1.28157-2.12907zm9.88053-5.51904q-0.10335-0.78548-0.62012-1.17822-0.51676-0.39275-1.21956-0.4961-0.7028-0.12402-1.48828 0.0207-0.78548 0.1447-1.46761 0.43408-0.66146 0.28939-1.11621 0.68213-0.43408 0.39274-0.45476 0.78549z" style="font-feature-settings:normal;font-variant-caps:normal;font-variant-ligatures:normal;font-variant-numeric:normal"/>
   <path d="m219.03477 202.21402q0.0413-0.39274 0.33073-0.47542 0.28938-0.10335 0.62011-0.062 0.53744 0.062 0.80616 0.5581 0.26871 0.47543 0.37207 1.07487 0.10335 0.59945 0.10335 1.17823 0 0.5581 0.0207 0.80615 0.57878-0.49609 1.28158-1.13688 0.72347-0.64079 1.73632-1.15755 1.03353-0.53744 2.4598-0.80616 1.44694-0.28938 3.47266-0.0413 0.49609 0.12403 0.72347 0.47543 0.24805 0.3514 0.24805 0.74414 0.0207 0.37207-0.20671 0.7028-0.20671 0.31005-0.59945 0.3514-0.49609-0.37207-1.32291-0.43409-0.82683-0.062-1.81901 0.1447-0.97152 0.2067-1.98438 0.66146-1.01286 0.45475-1.88102 1.13688-0.8475 0.68213-1.46761 1.57096-0.59945 0.88884-0.74414 1.94304v4.52685q-0.0413 0.10335-0.33073 0.31006-0.28939 0.18603-0.66146 0.26872-0.3514 0.10335-0.72347 0-0.3514-0.10336-0.53744-0.57878 0-0.14469 0-0.9095 0-0.78549 0-1.88103 0.0207-1.11621 0.0413-2.41845 0.0207-1.32292 0.0207-2.58383 0.0207-1.2609 0.0207-2.3151 0.0207-1.0542 0.0207-1.65365z" style="font-feature-settings:normal;font-variant-caps:normal;font-variant-ligatures:normal;font-variant-numeric:normal"/>
   <path d="m229.51475 210.44091q-0.10336-1.07487 0.49609-2.33577 0.62012-1.28158 1.65365-2.4598 1.0542-1.19889 2.39778-2.12907 1.36426-0.95085 2.74919-1.36426 1.4056-0.43408 2.68717-0.16536 1.30225 0.26872 2.2531 1.48828 0 0.26872-0.1447 0.47542-0.12402 0.20671-0.33073 0.39274-0.18603 0.18604-0.41341 0.33073-0.22737 0.1447-0.41341 0.28939-0.3514-0.74414-0.93017-1.03353-0.57878-0.28939-1.28158-0.22737-0.7028 0.0413-1.48828 0.39274-0.78548 0.33073-1.55029 0.86816-0.76482 0.51676-1.44694 1.17822-0.68213 0.64079-1.1989 1.34359-0.49609 0.68213-0.76481 1.36426-0.26872 0.66146-0.2067 1.19889 0 0.90951 0.35139 1.46761 0.3514 0.55811 0.90951 0.86817 0.57878 0.31006 1.30225 0.41341 0.74414 0.10335 1.50895 0.10335 1.57096-0.0413 2.8112-0.37207 1.2609-0.3514 2.17041-0.72347 0.9095-0.39274 1.50895-0.68213t0.86816-0.22737q0.16537 0 0.33073 0.0207 0.18604 0.0207 0.31006 0.12402 0.14469 0.0827 0.18604 0.26872 0.062 0.16536 0 0.47542-0.062 0.39274-0.53744 0.76481-0.47542 0.3514-1.21956 0.66146t-1.65365 0.57878q-0.9095 0.24804-1.81901 0.43408-0.9095 0.16536-1.73633 0.24804-0.80615 0.0827-1.34359 0.0414-0.9095 0-1.9637-0.20671t-1.9637-0.68213q-0.88884-0.47542-1.48829-1.24023-0.59944-0.78549-0.59944-1.94304z" style="font-feature-settings:normal;font-variant-caps:normal;font-variant-ligatures:normal;font-variant-numeric:normal"/>
   <path d="m247.35345 202.37939q0.18604 2.54248 0.33073 5.41569 0.1447 2.85254 0.24805 5.76709-0.10335 0.41341-0.43408 0.59945-0.31006 0.18603-0.68213 0.2067-0.37207 0-0.7028-0.12402-0.31006-0.12403-0.39274-0.33073v-11.53418zm-2.39778-3.514q0-0.47542 0.26871-0.68213 0.26872-0.2067 0.64079-0.22737 0.37207-0.0414 0.74414 0.062 0.37207 0.10335 0.53744 0.24804 0.18603 0.68213-0.062 0.99219-0.24804 0.31006-0.66145 0.3514-0.39274 0.0207-0.82683-0.18603-0.43408-0.20671-0.64078-0.55811z" style="font-feature-settings:normal;font-variant-caps:normal;font-variant-ligatures:normal;font-variant-numeric:normal"/>
   <path d="m249.91661 213.06608q1.86035-0.1447 3.3693-0.51677 1.52962-0.37207 2.56315-0.84749 1.0542-0.4961 1.57096-1.03353 0.51677-0.55811 0.37207-1.09554-0.16536-0.57878-1.65364-0.4961-1.46761 0.0827-4.36149 0.66146-0.8475-0.062-1.48828-0.39274-0.62012-0.33073-0.99219-0.78548-0.37207-0.47542-0.47542-0.99219-0.10336-0.51676 0.062-0.9095 0-0.68213 0.39274-1.32292 0.41341-0.66146 1.09554-1.19889 0.7028-0.55811 1.6123-0.99219 0.93018-0.45475 1.98438-0.7028 1.0542-0.26872 2.17041-0.33073 1.11621-0.062 2.21175 0.1447 0.53743 0.24804 0.86816 0.57877 0.3514 0.31006 0.47543 0.64079 0.12402 0.31006 0 0.59945-0.12403 0.28938-0.51677 0.49609-0.84749-0.37207-1.79834-0.53744-0.93017-0.18603-1.86035-0.14469-0.93017 0.0413-1.79834 0.28939-0.84749 0.22737-1.50895 0.66146-0.64079 0.41341-1.0542 1.03353-0.41341 0.62011-0.43408 1.40559 0 0.43409 0.33073 0.57878 0.3514 0.12402 0.80615 0.12402 0.47542-0.0207 0.97152-0.10335 0.51676-0.10335 0.82682-0.10335 2.04639-0.28939 3.3693-0.16537 1.34359 0.12403 2.04639 0.53744t0.82682 1.03353q0.12403 0.62011-0.24804 1.34358-0.3514 0.7028-1.15756 1.42627-0.80615 0.72347-1.9637 1.32292t-2.62516 1.01286q-1.44694 0.39274-3.10059 0.47542-0.39274 0.1447-0.66146-0.0413-0.24804-0.18603-0.37207-0.49609-0.12402-0.31006-0.10335-0.64079 0.0413-0.3514 0.24805-0.51676z" style="font-feature-settings:normal;font-variant-caps:normal;font-variant-ligatures:normal;font-variant-numeric:normal"/>
   <path d="m260.85134 211.12304q-0.18603-1.67431 0.28939-3.32796 0.47542-1.67432 1.46761-2.97656 1.01286-1.32292 2.43913-2.1084 1.42627-0.80615 3.14193-0.76481 0.70279-0.0207 1.6123 0.31006 0.90951 0.33072 1.67432 0.93017 0.76481 0.57878 1.21956 1.36426 0.47542 0.76481 0.31006 1.63297 0.0207 0.43409-0.43408 0.72347-0.45476 0.26872-1.21957 0.43409-0.74414 0.16536-1.757 0.24804-0.99218 0.062-2.10839 0.10336-1.09554 0.0413-2.23243 0.0827-1.13688 0.0207-2.14974 0.10335-0.57877 1.59164-0.3514 2.62516 0.24805 1.01286 1.01286 1.5503 0.78548 0.53743 1.92237 0.64079 1.15755 0.0827 2.39778-0.16537 1.24024-0.24805 2.43913-0.78548 1.19889-0.55811 2.06706-1.32292 0.12402 0 0.31006 0.0827 0.2067 0.0827 0.39274 0.22738 0.18603 0.12402 0.31006 0.28939 0.14469 0.14469 0.14469 0.26872-0.51676 0.88883-1.57096 1.59163t-2.37712 1.13688-2.76986 0.53744q-1.42627 0.10335-2.68717-0.20671-1.26091-0.31006-2.21175-1.09554-0.95085-0.78548-1.28158-2.12907zm9.88054-5.51904q-0.10336-0.78548-0.62012-1.17822-0.51677-0.39275-1.21957-0.4961-0.70279-0.12402-1.48828 0.0207-0.78548 0.1447-1.46761 0.43408-0.66146 0.28939-1.11621 0.68213-0.43408 0.39274-0.45475 0.78549z" style="font-feature-settings:normal;font-variant-caps:normal;font-variant-ligatures:normal;font-variant-numeric:normal"/>
  </g>
  <path d="m274.49559 36.05303 21.23864 0.89 1.25409-11.93409-32.80864-1.25409 0.52592 25.00091q5.01638-1.05182 9.34502-0.64728 8.65726 0.84955 8.85952 8.21228 0.24279 7.40318-7.28181 8.41455-3.76227 0.52591-7.60546-0.445l-0.72818 12.21727q8.01 0.97091 15.93909-1.05182 15.81771-3.96454 15.04908-18.73045-0.68772-14.76592-12.37908-17.71909-5.785-1.86091-11.48909-0.3641z" stroke="#9c27b0" stroke-width="3.10690904" style="font-feature-settings:normal;font-variant-caps:normal;font-variant-ligatures:normal;font-variant-numeric:normal"/>
  <path d="m176.53228 40.41506h-8.45502l0.36409-18.12365-13.95681 0.40455v29.36998l21.27908 0.76865-1.53727 23.58499 14.64455 0.36411 1.17316-54.49228h-13.14771z" stroke="#9c27b0" stroke-width="3.10690904" style="font-feature-settings:normal;font-variant-caps:normal;font-variant-ligatures:normal;font-variant-numeric:normal"/>
 </g>
 <g transform="matrix(.07287368 .06957025 -.06957025 .07287368 226.26713 19.62895)" fill="#9c27b0">
  <g fill="#9c27b0">
   <g fill="#9c27b0">
    <path d="m477.549 182.379h-148.531v-148.532c0-18.69-15.154-33.844-33.844-33.844h-78.954c-18.69 0-33.844 15.153-33.844 33.844v148.526h-148.532c-18.691 0-33.844 15.153-33.844 33.843v78.966c0 18.691 15.153 33.844 33.844 33.844h148.532v148.527c0 18.689 15.153 33.842 33.844 33.842h78.96c18.691 0 33.844-15.152 33.844-33.842v-148.527h148.533c18.689 0 33.842-15.152 33.842-33.844v-78.966c-6e-3 -18.69-15.153-33.837-33.85-33.837z" fill="#9c27b0"/>
   </g>
  </g>
 </g>
 <g transform="translate(-373.46896,-195.57655)" fill="#9c27b0" stroke-width=".26458335" style="font-feature-settings:normal;font-variant-caps:normal;font-variant-ligatures:normal;font-variant-numeric:normal" aria-label="2, 3, 4, 5 &amp; 10">
  <path d="m528.8671 307.11899q-5.18487-3.15226-9.64627-0.0517-2.23931 1.63642-3.94463 4.04799l3.47954 4.40972q0.44787-0.72347 1.25746-1.34359 1.79145-1.79145 3.60013-1.41249 1.0163 0.22394 0.82682 1.37804-0.15503 0.98185-1.15411 2.5666-1.87757 2.94556-4.58197 4.73701-1.17133 0.99907-2.17041 1.75699l-0.41341 6.09782 14.00431 0.29284 0.0172-5.83944-7.07968 0.32728q3.35897-3.10058 5.75331-6.75238 2.10151-3.18672 2.34267-5.59828 0.32728-3.01446-2.29099-4.61643z" style="font-feature-settings:normal;font-variant-caps:normal;font-variant-ligatures:normal;font-variant-numeric:normal"/>
  <path d="m532.70838 325.36077-0.84405 4.97816 2.92833 0.70625 1.37804-5.09875z" style="font-feature-settings:normal;font-variant-caps:normal;font-variant-ligatures:normal;font-variant-numeric:normal"/>
  <path d="m545.79974 306.89506 0.15503 5.25377 6.63181-0.15503-5.58105 4.04799q1.53307-0.22394 3.01446 0.17225 2.99723 0.79237 2.9111 3.91018-0.10335 3.13504-3.01446 3.08336-1.46416-0.0344-2.9111-0.68902l-1.36081 5.61551q2.48046 0.79237 5.4088 0.84405 5.80498 0.12058 7.94094-3.53122 2.92833-5.02984-0.0517-8.50939-1.49861-1.73977-3.42787-2.65272l5.96002-7.32083z" style="font-feature-settings:normal;font-variant-caps:normal;font-variant-ligatures:normal;font-variant-numeric:normal"/>
  <path d="m563.23193 325.36077-0.84405 4.97816 2.92833 0.70625 1.37804-5.09875z" style="font-feature-settings:normal;font-variant-caps:normal;font-variant-ligatures:normal;font-variant-numeric:normal"/>
  <path d="m585.55615 314.26756h-3.60013l0.15503-7.71701-5.94279 0.17225v12.5057l9.0606 0.32728-0.65457 10.04246 6.23563 0.15503 0.49954-23.20272h-5.59828z" style="font-feature-settings:normal;font-variant-caps:normal;font-variant-ligatures:normal;font-variant-numeric:normal"/>
  <path d="m592.72195 325.36077-0.84405 4.97816 2.92833 0.70625 1.37804-5.09875z" style="font-feature-settings:normal;font-variant-caps:normal;font-variant-ligatures:normal;font-variant-numeric:normal"/>
  <path d="m609.75795 311.59761 9.04337 0.37896 0.53399-5.08151-13.96986-0.53399 0.22393 10.64534q2.13596-0.44786 3.97909-0.27561 3.68625 0.36174 3.77238 3.49678 0.10335 3.15226-3.10059 3.5829-1.60197 0.22393-3.23839-0.18948l-0.31006 5.20209q3.41065 0.41341 6.78684-0.44786 6.73516-1.6881 6.40788-7.9754-0.29284-6.2873-5.271-7.54476-2.46324-0.79237-4.89204-0.15503z" style="font-feature-settings:normal;font-variant-caps:normal;font-variant-ligatures:normal;font-variant-numeric:normal"/>
  <path d="m637.69767 309.18604q-0.68902 0-1.03353 0.31006-0.0172 0.0172-0.0172 0.0344-0.0344 0.0689-0.0344 0.24116-0.0172 0.56844 0.34451 1.49862 0.20671 0.55121 0.55121 1.20578 0.63735-0.53399 1.06798-1.03353 0.75793-0.89572 0.75793-1.41249 0-0.0861-0.0345-0.17225-0.0861-0.12058-0.25838-0.25838-0.51676-0.41342-1.32636-0.41342zm-2.73886 11.60998q-0.44786 0.70624-0.46508 1.46416 0 1.24024 1.0163 2.23931 1.06798 1.05076 2.48047 1.05076 1.17133-0.0172 2.27376-0.77515-2.44602-2.68717-4.25469-5.08151-0.6718 0.51676-1.05076 1.10243zm3.03169 9.95632q-3.54845 0-6.11505-2.53214-2.56659-2.53215-2.58382-5.96002 0-2.30821 1.30914-4.30637 0.96462-1.46416 2.53214-2.60104-0.56844-1.05076-0.9474-2.03261-0.77514-1.92925-0.77514-3.54845 0-1.20578 0.41341-2.22209 0.48231-1.1541 1.42971-1.98093 1.84313-1.58474 4.44418-1.58474 1.8259 0 3.44509 0.8096 1.79145 0.93017 2.7044 2.54937 0.68902 1.24023 0.68902 2.68717 0 2.46325-2.01538 4.78869-0.89573 1.05075-2.13596 2.0326 0.82682 1.08521 1.80867 2.23931 0.6029 0.72347 1.27469 1.4814 0.91295-1.89481 1.56752-4.34082l5.01261 1.34358q-1.10243 4.11689-2.80775 6.97632 1.13688 1.15411 2.04983 2.01538 0.10335 0.0861 0.15503 0.12058l-3.53122 3.82406q0.0344 0.0517-0.56844-0.53399-0.72347-0.68902-1.46417-1.42972-2.73885 2.20486-5.85666 2.20486z" style="font-feature-settings:normal;font-variant-caps:normal;font-variant-ligatures:normal;font-variant-numeric:normal"/>
  <path d="m666.39531 306.68835-5.58106 0.15503-1.53306 1.25746v5.28822l1.37804-0.63734 0.15502 16.67426h6.02892z" style="font-feature-settings:normal;font-variant-caps:normal;font-variant-ligatures:normal;font-variant-numeric:normal"/>
  <path d="m676.47222 321.51949q-0.55121 0.10335-0.8785-0.8096-0.29283-0.82682-0.31006-2.10151-0.0172-1.25746 0.24116-2.11873 0.29283-0.96463 0.79237-0.89573 0.93018 0.10336 1.36081 0.99908 0.37896 0.79237 0.29284 1.9637-0.0861 1.08521-0.49954 1.94648-0.43064 0.89573-0.99908 1.01631zm-1.0852-15.58906q-2.51492 0.15503-4.75424 3.66903-2.15318 3.41064-2.73885 7.78591-0.63734 4.75423 1.06798 7.9754 1.99816 3.75515 6.73516 4.23747 4.75424 0.49953 7.2347-3.18672 2.18764-3.25561 1.87758-8.35435-0.29283-4.97817-2.75607-8.49216-2.68718-3.84129-6.66626-3.63458z" style="font-feature-settings:normal;font-variant-caps:normal;font-variant-ligatures:normal;font-variant-numeric:normal"/>
 </g>
 <rect transform="rotate(-45)" x="139.37007" y="194.63617" width="4.8313746" height="10.065364" ry="2.4156873" fill="#dc98e8"/>
 <rect transform="matrix(-.70710678 -.70710678 -.70710678 .70710678 0 0)" x="-223.1955" y="-126.58344" width="4.8313746" height="10.065364" ry="2.4156873" fill="#dc98e8"/>
 <g transform="translate(-.778065 -146.1265)" fill="#9c27b0" stroke-width=".26458335" style="font-feature-settings:normal;font-variant-caps:normal;font-variant-ligatures:normal;font-variant-numeric:normal" aria-label="times tables">
  <path d="m133.8753 293.16491-0.17225 5.56383-4.63366-0.25839-0.31006 5.52938 4.75424 0.22393-0.22394 13.09137 5.85667 0.31005 0.17225-13.16026 4.49585 0.0345 0.12058-5.56383-4.47862-0.0861 0.12057-5.35712z" style="font-feature-settings:normal;font-variant-caps:normal;font-variant-ligatures:normal;font-variant-numeric:normal"/>
  <path d="m147.93129 299.05602q1.72255-0.0517 2.6355-1.05075 0.84405-0.91295 0.77514-2.20487-0.0689-1.27468-0.96462-2.18763-0.96463-0.99908-2.51492-1.03353-1.39527-0.0517-2.32544 0.98185-0.84405 0.9474-0.93018 2.27377-0.0689 1.36081 0.72347 2.25653 0.91295 1.01631 2.60105 0.96463zm2.61827 1.10243-5.44325 0.0172-0.0689 16.94987 5.59828 0.1378z" style="font-feature-settings:normal;font-variant-caps:normal;font-variant-ligatures:normal;font-variant-numeric:normal"/>
  <path d="m173.39055 299.21105q-3.68626-0.0517-5.52938 2.80775-1.05076 1.60197-1.30914 3.60013 0.17226-1.67087-0.56844-3.13504-0.67179-2.58382-3.13504-3.27284-1.99815-0.56844-4.5303 1.79145l0.0344-2.06706-6.40787-0.0345 0.18948 18.41404 6.2873-0.17226 0.25838-5.09874q0.67179-6.09782 2.53214-5.99447 1.98093 0.0861 1.79145 5.49493-0.0861 2.7044-0.56844 5.4088l6.40788 0.0172q0.15503-2.87666 0.63734-5.63273 0.46509-5.39158 2.11874-4.92649 1.67087 0.44786 1.58474 5.59828-0.22393 2.68717-0.77515 5.25377l5.99447-0.31006q0.68902-4.40972 0.46509-8.81944-0.20671-3.85851-1.25746-6.0806-1.30914-2.79052-4.22024-2.8422z" style="font-feature-settings:normal;font-variant-caps:normal;font-variant-ligatures:normal;font-variant-numeric:normal"/>
  <path d="m188.7729 304.01696q1.51584-0.27561 2.20486 0.48231 0.34451 0.39619 0.37896 0.82682l-4.65088 0.44787q-0.0689-0.32729 0.1378-0.72347 0.43064-0.75793 1.92926-1.03353zm-0.70625 7.25192q-0.89572-0.49954-1.22301-1.37803-0.17225-0.43064-0.15503-0.77515l11.5583-1.37804q-0.39619-2.32544-1.98093-4.51307-3.20394-4.3925-9.26731-3.82406-3.46232 0.32728-5.4777 2.79053-1.8259 2.20486-1.99816 5.42602-0.18948 3.11781 1.22301 5.70164 1.51585 2.7733 4.23747 3.6518 4.71978 1.55029 9.07783-0.68902 2.18763-1.11966 3.41064-2.53215l-3.70348-3.8585q-0.80959 0.68901-1.92925 1.20578-2.22209 1.05075-3.77238 0.17225z" style="font-feature-settings:normal;font-variant-caps:normal;font-variant-ligatures:normal;font-variant-numeric:normal"/>
  <path d="m201.26137 309.87362q1.58474 0.68902 2.8422 1.22301 3.47955 1.73977 4.16857 1.11965 0.24115-0.36173 0.0689-0.62011-0.17226-0.25838-1.70532-0.86128-1.51585-0.62011-3.47955-1.24023-1.96371-0.62012-2.66995-2.04983-0.67179-1.37804-0.10335-2.91111 0.62011-1.65364 2.37711-2.61827 2.03261-1.10243 5.02984-0.91295 2.53215 0.15503 5.04707 1.15411 1.18856 0.65456 1.86035 1.29191l-2.17041 3.41064q-0.99908-0.65457-1.94648-0.9474-3.10059-1.13688-3.27284 0.0689-0.0172 0.32729 0.55121 0.68902 0.58567 0.34451 2.48047 0.86127 1.91203 0.49954 3.10059 1.06798 1.77422 0.8785 2.15318 2.80776 0.39619 1.9637-1.22301 4.03076-1.68809 1.98093-5.83943 1.99815-3.61735 0.0345-9.7324-2.7044z" style="font-feature-settings:normal;font-variant-caps:normal;font-variant-ligatures:normal;font-variant-numeric:normal"/>
  <path d="m230.40688 293.16491-0.17226 5.56383-4.63365-0.25839-0.31006 5.52938 4.75423 0.22393-0.22393 13.09137 5.85666 0.31005 0.17226-13.16026 4.49585 0.0345 0.12058-5.56383-4.47863-0.0861 0.12058-5.35712z" style="font-feature-settings:normal;font-variant-caps:normal;font-variant-ligatures:normal;font-variant-numeric:normal"/>
  <path d="m248.49363 312.78473q-0.58567-0.0861-0.96463-0.34451-0.36173-0.25839-0.39618-0.55122-0.0172-0.31006 0.32728-0.48231 0.39619-0.18948 1.15411-0.13781 0.53399 0.0517 0.84405 0.31006 0.2756 0.25838 0.25838 0.56844-0.0172 0.32729-0.32729 0.49954-0.32728 0.20671-0.89572 0.13781zm4.73701-12.04061q-4.51308-0.79238-7.73424-0.32729-1.6192 0.24116-2.32544 0.63735l0.99907 5.01261q1.92926-0.53399 4.06522-0.48231 4.27192 0.10335 5.27099 3.10058-1.61919-0.96462-3.70347-1.46416-4.20302-0.99908-6.61459 1.34358-1.42971 1.39527-1.77422 3.15227-0.34451 1.73977 0.48231 3.16948 0.8785 1.53307 2.7733 2.20486 2.11874 0.7407 5.09874 0.24116 2.4288-0.43064 3.87574-2.37711l-0.29284 2.06705h5.87389q1.05076-3.61735 0.82683-7.45863-0.18948-3.35897-1.58475-5.51215-1.72255-2.68718-5.23654-3.30729z" style="font-feature-settings:normal;font-variant-caps:normal;font-variant-ligatures:normal;font-variant-numeric:normal"/>
  <path d="m271.62744 310.23535q-0.86127-0.17225-1.18856-0.56844-0.29283-0.34451-0.1378-0.75792 0.15503-0.37896 0.60289-0.65457 0.48231-0.2756 0.99908-0.2756 1.15411 0.0344 1.67087 0.44786 0.46509 0.37896 0.32728 0.8785-0.15502 0.51676-0.74069 0.79237-0.67179 0.31006-1.53307 0.1378zm6.85574-7.32082q-3.16949-2.60105-7.06244-1.79145-1.96371 0.39618-3.32452 1.30913v-8.52661l-7.11412 0.32729v22.61705l6.51123 0.18948v-2.46324q0.34451 0.62011 0.99907 1.60196 1.6192 0.96463 3.94464 1.15411 2.92833 0.25838 5.06429-1.41249 2.08428-1.36081 3.25561-3.99631 0.8096-2.51492 0.31006-4.97816-0.82682-2.61827-2.58382-4.03076z" style="font-feature-settings:normal;font-variant-caps:normal;font-variant-ligatures:normal;font-variant-numeric:normal"/>
  <path d="m281.92828 294.19843v22.82376h7.07967l0.31006-23.13381z" style="font-feature-settings:normal;font-variant-caps:normal;font-variant-ligatures:normal;font-variant-numeric:normal"/>
  <path d="m299.08485 304.01696q1.51585-0.27561 2.20487 0.48231 0.34451 0.39619 0.37896 0.82682l-4.65088 0.44787q-0.0689-0.32729 0.1378-0.72347 0.43064-0.75793 1.92925-1.03353zm-0.70624 7.25192q-0.89573-0.49954-1.22301-1.37803-0.17225-0.43064-0.15503-0.77515l11.5583-1.37804q-0.39619-2.32544-1.98093-4.51307-3.20394-4.3925-9.26731-3.82406-3.46232 0.32728-5.4777 2.79053-1.8259 2.20486-1.99816 5.42602-0.18948 3.11781 1.22301 5.70164 1.51584 2.7733 4.23747 3.6518 4.71978 1.55029 9.07783-0.68902 2.18763-1.11966 3.41064-2.53215l-3.70348-3.8585q-0.80959 0.68901-1.92925 1.20578-2.22209 1.05075-3.77238 0.17225z" style="font-feature-settings:normal;font-variant-caps:normal;font-variant-ligatures:normal;font-variant-numeric:normal"/>
  <path d="m311.57333 309.87362q1.58475 0.68902 2.84221 1.22301 3.47954 1.73977 4.16856 1.11965 0.24116-0.36173 0.0689-0.62011-0.17225-0.25838-1.70532-0.86128-1.51584-0.62011-3.47955-1.24023-1.9637-0.62012-2.66994-2.04983-0.6718-1.37804-0.10336-2.91111 0.62012-1.65364 2.37712-2.61827 2.03261-1.10243 5.02984-0.91295 2.53214 0.15503 5.04706 1.15411 1.18856 0.65456 1.86035 1.29191l-2.17041 3.41064q-0.99907-0.65457-1.94647-0.9474-3.10059-1.13688-3.27285 0.0689-0.0172 0.32729 0.55122 0.68902 0.58567 0.34451 2.48047 0.86127 1.91203 0.49954 3.10058 1.06798 1.77423 0.8785 2.15319 2.80776 0.39619 1.9637-1.22301 4.03076-1.6881 1.98093-5.83944 1.99815-3.61735 0.0345-9.73239-2.7044z" style="font-feature-settings:normal;font-variant-caps:normal;font-variant-ligatures:normal;font-variant-numeric:normal"/>
 </g>
</svg>
