<?xml version="1.0" encoding="UTF-8"?>
<!-- Created with Inkscape (http://www.inkscape.org/) -->
<svg width="452.94138mm" height="218.28125mm" version="1.1" viewBox="0 0 452.94138 218.28126" xmlns="http://www.w3.org/2000/svg" xmlns:cc="http://creativecommons.org/ns#" xmlns:dc="http://purl.org/dc/elements/1.1/" xmlns:rdf="http://www.w3.org/1999/02/22-rdf-syntax-ns#">
 <metadata>
  <rdf:RDF>
   <cc:Work rdf:about="">
    <dc:format>image/svg+xml</dc:format>
    <dc:type rdf:resource="http://purl.org/dc/dcmitype/StillImage"/>
    <dc:title/>
   </cc:Work>
  </rdf:RDF>
 </metadata>
 <g fill="#f9eab0">
  <polygon transform="matrix(3.4969519,0,0,3.4969519,454.53799,432.75581)" points=""/>
  <polygon transform="matrix(3.4969519,0,0,3.4969519,1042.6954,575.90132)" points=""/>
  <polygon transform="matrix(3.4969519,0,0,3.4969519,455.26903,655.71169)" points=""/>
  <polygon transform="matrix(3.4969519,0,0,3.4969519,1043.4265,798.8572)" points=""/>
  <g transform="translate(-12.79578,310.10624)">
   <polygon transform="matrix(3.4969519,0,0,3.4969519,454.53799,432.75581)" points=""/>
   <polygon transform="matrix(3.4969519,0,0,3.4969519,1042.6954,575.90132)" points=""/>
   <polygon transform="matrix(3.4969519,0,0,3.4969519,290.18775,626.41733)" points=""/>
  </g>
  <polygon transform="matrix(3.4969519,0,0,3.4969519,479.13668,390.12445)" points=""/>
  <polygon transform="matrix(9.1061708,0,0,9.0930789,1307.0572,1362.1078)" points=""/>
  <g transform="translate(-2.9234564,305.16572)">
   <polygon transform="matrix(3.4969519,0,0,3.4969519,454.53799,116.97428)" points=""/>
   <polygon transform="matrix(9.1061708,0,0,9.0930789,1282.4585,1088.9576)" points=""/>
   <polygon transform="matrix(3.4969519,0,0,3.4969519,828.57006,-535.68054)" points=""/>
   <polygon transform="matrix(3.4969519,0,0,3.4969519,-1847.954,290.9635)" points=""/>
  </g>
 </g>
 <g transform="translate(-667.77311,288.24452)" letter-spacing="0px" word-spacing="0px">
  <text x="-1222.3983" y="-173.37076" font-family="sans-serif" font-size="10.58333302px" stroke-width=".26458332" style="line-height:1.25" xml:space="preserve"><tspan x="-1222.3983" y="-164.00699" stroke-width=".26458332"/></text>
  <text x="-2245.1282" y="-126.3082" font-family="'SC Gum Kids'" font-size="266.9718323px" stroke-width=".80091542" style="font-feature-settings:normal;font-variant-caps:normal;font-variant-ligatures:normal;font-variant-numeric:normal;line-height:1.25" xml:space="preserve"><tspan x="-2245.1282" y="114.67583" font-family="'SC Gum Kids'" font-size="266.9718323px" stroke-width=".80091542" style="font-feature-settings:normal;font-variant-caps:normal;font-variant-ligatures:normal;font-variant-numeric:normal"/></text>
  <text x="912.07428" y="386.35889" font-family="sans-serif" font-size="10.58333302px" stroke-width=".26458332" style="line-height:1.25" xml:space="preserve"><tspan x="912.07428" y="395.72266" stroke-width=".26458332"/></text>
 </g>
 <polygon transform="matrix(3.4969519,0,0,3.4969519,-1847.7462,630.71882)" points="" fill="#f9eab0"/>
 <g transform="translate(-2.9234564,305.16572)" letter-spacing="0px" word-spacing="0px">
  <text x="-1884.1167" y="-155.70239" font-family="sans-serif" font-size="10.58333302px" stroke-width=".26458332" style="line-height:1.25" xml:space="preserve"><tspan x="-1884.1167" y="-146.33862" stroke-width=".26458332"/></text>
  <text x="-2906.8464" y="-108.63977" font-family="'SC Gum Kids'" font-size="266.9718323px" stroke-width=".80091542" style="font-feature-settings:normal;font-variant-caps:normal;font-variant-ligatures:normal;font-variant-numeric:normal;line-height:1.25" xml:space="preserve"><tspan x="-2906.8464" y="132.34424" font-family="'SC Gum Kids'" font-size="266.9718323px" stroke-width=".80091542" style="font-feature-settings:normal;font-variant-caps:normal;font-variant-ligatures:normal;font-variant-numeric:normal"/></text>
  <text x="250.35588" y="404.02722" font-family="sans-serif" font-size="10.58333302px" stroke-width=".26458332" style="line-height:1.25" xml:space="preserve"><tspan x="250.35588" y="413.39099" stroke-width=".26458332"/></text>
 </g>
 <polygon transform="matrix(3.4969519,0,0,3.4969519,-1998.4308,601.98732)" points="" fill="#f9eab0"/>
 <g transform="translate(-2.9234564,305.16572)" letter-spacing="0px" word-spacing="0px">
  <text x="-2034.8013" y="-184.43384" font-family="sans-serif" font-size="10.58333302px" stroke-width=".26458332" style="line-height:1.25" xml:space="preserve"><tspan x="-2034.8013" y="-175.07007" stroke-width=".26458332"/></text>
  <text x="-3057.531" y="-137.37134" font-family="'SC Gum Kids'" font-size="266.9718323px" stroke-width=".80091542" style="font-feature-settings:normal;font-variant-caps:normal;font-variant-ligatures:normal;font-variant-numeric:normal;line-height:1.25" xml:space="preserve"><tspan x="-3057.531" y="103.61267" font-family="'SC Gum Kids'" font-size="266.9718323px" stroke-width=".80091542" style="font-feature-settings:normal;font-variant-caps:normal;font-variant-ligatures:normal;font-variant-numeric:normal"/></text>
  <text x="99.671333" y="375.29578" font-family="sans-serif" font-size="10.58333302px" stroke-width=".26458332" style="line-height:1.25" xml:space="preserve"><tspan x="99.671333" y="384.65955" stroke-width=".26458332"/></text>
 </g>
 <polygon transform="matrix(3.4969519,0,0,3.4969519,-1998.1868,656.22472)" points="" fill="#f9eab0"/>
 <g transform="translate(-14.821697,-77.54353)" letter-spacing="0px" word-spacing="0px">
  <text x="-2022.6592" y="252.51283" font-family="sans-serif" font-size="10.58333302px" stroke-width=".26458332" style="line-height:1.25" xml:space="preserve"><tspan x="-2022.6592" y="261.87659" stroke-width=".26458332"/></text>
  <text x="-3045.3889" y="299.57538" font-family="'SC Gum Kids'" font-size="266.9718323px" stroke-width=".80091542" style="font-feature-settings:normal;font-variant-caps:normal;font-variant-ligatures:normal;font-variant-numeric:normal;line-height:1.25" xml:space="preserve"><tspan x="-3045.3889" y="540.55945" font-family="'SC Gum Kids'" font-size="266.9718323px" stroke-width=".80091542" style="font-feature-settings:normal;font-variant-caps:normal;font-variant-ligatures:normal;font-variant-numeric:normal"/></text>
  <text x="111.81351" y="812.24249" font-family="sans-serif" font-size="10.58333302px" stroke-width=".26458332" style="line-height:1.25" xml:space="preserve"><tspan x="111.81351" y="821.60626" stroke-width=".26458332"/></text>
 </g>
 <polygon transform="matrix(3.4969519,0,0,3.4969519,-2149.3361,604.22462)" points="" fill="#f9eab0"/>
 <g transform="translate(-2.9234564,305.16572)" letter-spacing="0px" word-spacing="0px">
  <text x="-2185.7068" y="-182.19659" font-family="sans-serif" font-size="10.58333302px" stroke-width=".26458332" style="line-height:1.25" xml:space="preserve"><tspan x="-2185.7068" y="-172.83282" stroke-width=".26458332"/></text>
  <text x="-3208.4365" y="-135.13403" font-family="'SC Gum Kids'" font-size="266.9718323px" stroke-width=".80091542" style="font-feature-settings:normal;font-variant-caps:normal;font-variant-ligatures:normal;font-variant-numeric:normal;line-height:1.25" xml:space="preserve"><tspan x="-3208.4365" y="105.84998" font-family="'SC Gum Kids'" font-size="266.9718323px" stroke-width=".80091542" style="font-feature-settings:normal;font-variant-caps:normal;font-variant-ligatures:normal;font-variant-numeric:normal"/></text>
  <text x="-51.233967" y="377.53308" font-family="sans-serif" font-size="10.58333302px" stroke-width=".26458332" style="line-height:1.25" xml:space="preserve"><tspan x="-51.233967" y="386.89685" stroke-width=".26458332"/></text>
 </g>
 <polygon transform="matrix(3.4969519,0,0,3.4969519,-2144.4712,667.52692)" points="" fill="#f9eab0"/>
 <g transform="translate(-2.9234564,305.16572)" letter-spacing="0px" word-spacing="0px">
  <text x="-2180.8418" y="-118.89429" font-family="sans-serif" font-size="10.58333302px" stroke-width=".26458332" style="line-height:1.25" xml:space="preserve"><tspan x="-2180.8418" y="-109.53052" stroke-width=".26458332"/></text>
  <text x="-3203.5715" y="-71.831665" font-family="'SC Gum Kids'" font-size="266.9718323px" stroke-width=".80091542" style="font-feature-settings:normal;font-variant-caps:normal;font-variant-ligatures:normal;font-variant-numeric:normal;line-height:1.25" xml:space="preserve"><tspan x="-3203.5715" y="169.15234" font-family="'SC Gum Kids'" font-size="266.9718323px" stroke-width=".80091542" style="font-feature-settings:normal;font-variant-caps:normal;font-variant-ligatures:normal;font-variant-numeric:normal"/></text>
  <text x="-46.369076" y="440.83533" font-family="sans-serif" font-size="10.58333302px" stroke-width=".26458332" style="line-height:1.25" xml:space="preserve"><tspan x="-46.369076" y="450.1991" stroke-width=".26458332"/></text>
 </g>
 <polygon transform="matrix(3.4969519,0,0,3.4969519,-1850.8775,1602.8115)" points="" fill="#f9eab0"/>
 <g transform="translate(-2.9234564,305.16572)" letter-spacing="0px" word-spacing="0px">
  <text x="-1887.2479" y="816.39038" font-family="sans-serif" font-size="10.58333302px" stroke-width=".26458332" style="line-height:1.25" xml:space="preserve"><tspan x="-1887.2479" y="825.75415" stroke-width=".26458332"/></text>
  <text x="-2909.9778" y="863.45288" font-family="'SC Gum Kids'" font-size="266.9718323px" stroke-width=".80091542" style="font-feature-settings:normal;font-variant-caps:normal;font-variant-ligatures:normal;font-variant-numeric:normal;line-height:1.25" xml:space="preserve"><tspan x="-2909.9778" y="1104.437" font-family="'SC Gum Kids'" font-size="266.9718323px" stroke-width=".80091542" style="font-feature-settings:normal;font-variant-caps:normal;font-variant-ligatures:normal;font-variant-numeric:normal"/></text>
  <text x="247.22462" y="1376.1199" font-family="sans-serif" font-size="10.58333302px" stroke-width=".26458332" style="line-height:1.25" xml:space="preserve"><tspan x="247.22462" y="1385.4836" stroke-width=".26458332"/></text>
 </g>
 <polygon transform="matrix(3.4969519,0,0,3.4969519,-1847.7462,1637.4011)" points="" fill="#f9eab0"/>
 <g transform="translate(-2.9234564,305.16572)" letter-spacing="0px" word-spacing="0px">
  <text x="-1884.1167" y="850.97998" font-family="sans-serif" font-size="10.58333302px" stroke-width=".26458332" style="line-height:1.25" xml:space="preserve"><tspan x="-1884.1167" y="860.34375" stroke-width=".26458332"/></text>
  <text x="-2906.8464" y="898.04248" font-family="'SC Gum Kids'" font-size="266.9718323px" stroke-width=".80091542" style="font-feature-settings:normal;font-variant-caps:normal;font-variant-ligatures:normal;font-variant-numeric:normal;line-height:1.25" xml:space="preserve"><tspan x="-2906.8464" y="1139.0266" font-family="'SC Gum Kids'" font-size="266.9718323px" stroke-width=".80091542" style="font-feature-settings:normal;font-variant-caps:normal;font-variant-ligatures:normal;font-variant-numeric:normal"/></text>
  <text x="250.35588" y="1410.7095" font-family="sans-serif" font-size="10.58333302px" stroke-width=".26458332" style="line-height:1.25" xml:space="preserve"><tspan x="250.35588" y="1420.0732" stroke-width=".26458332"/></text>
 </g>
 <polygon transform="matrix(3.4969519,0,0,3.4969519,-1998.4308,1608.6696)" points="" fill="#f9eab0"/>
 <g transform="translate(-2.9234564,305.16572)" letter-spacing="0px" word-spacing="0px">
  <text x="-2034.8013" y="822.24841" font-family="sans-serif" font-size="10.58333302px" stroke-width=".26458332" style="line-height:1.25" xml:space="preserve"><tspan x="-2034.8013" y="831.61218" stroke-width=".26458332"/></text>
  <text x="-3057.531" y="869.31104" font-family="'SC Gum Kids'" font-size="266.9718323px" stroke-width=".80091542" style="font-feature-settings:normal;font-variant-caps:normal;font-variant-ligatures:normal;font-variant-numeric:normal;line-height:1.25" xml:space="preserve"><tspan x="-3057.531" y="1110.2949" font-family="'SC Gum Kids'" font-size="266.9718323px" stroke-width=".80091542" style="font-feature-settings:normal;font-variant-caps:normal;font-variant-ligatures:normal;font-variant-numeric:normal"/></text>
  <text x="99.671333" y="1381.978" font-family="sans-serif" font-size="10.58333302px" stroke-width=".26458332" style="line-height:1.25" xml:space="preserve"><tspan x="99.671333" y="1391.3418" stroke-width=".26458332"/></text>
 </g>
 <polygon transform="matrix(3.4969519,0,0,3.4969519,-1998.1868,1662.9071)" points="" fill="#f9eab0"/>
 <g transform="translate(-14.821697,929.13882)" letter-spacing="0px" word-spacing="0px">
  <text x="-2022.6592" y="252.51283" font-family="sans-serif" font-size="10.58333302px" stroke-width=".26458332" style="line-height:1.25" xml:space="preserve"><tspan x="-2022.6592" y="261.87659" stroke-width=".26458332"/></text>
  <text x="-3045.3889" y="299.57538" font-family="'SC Gum Kids'" font-size="266.9718323px" stroke-width=".80091542" style="font-feature-settings:normal;font-variant-caps:normal;font-variant-ligatures:normal;font-variant-numeric:normal;line-height:1.25" xml:space="preserve"><tspan x="-3045.3889" y="540.55945" font-family="'SC Gum Kids'" font-size="266.9718323px" stroke-width=".80091542" style="font-feature-settings:normal;font-variant-caps:normal;font-variant-ligatures:normal;font-variant-numeric:normal"/></text>
  <text x="111.81351" y="812.24249" font-family="sans-serif" font-size="10.58333302px" stroke-width=".26458332" style="line-height:1.25" xml:space="preserve"><tspan x="111.81351" y="821.60626" stroke-width=".26458332"/></text>
 </g>
 <polygon transform="matrix(3.4969519,0,0,3.4969519,-2149.3361,1610.9069)" points="" fill="#f9eab0"/>
 <g transform="translate(-2.9234564,305.16572)" letter-spacing="0px" word-spacing="0px">
  <text x="-2185.7068" y="824.48572" font-family="sans-serif" font-size="10.58333302px" stroke-width=".26458332" style="line-height:1.25" xml:space="preserve"><tspan x="-2185.7068" y="833.84949" stroke-width=".26458332"/></text>
  <text x="-3208.4365" y="871.54834" font-family="'SC Gum Kids'" font-size="266.9718323px" stroke-width=".80091542" style="font-feature-settings:normal;font-variant-caps:normal;font-variant-ligatures:normal;font-variant-numeric:normal;line-height:1.25" xml:space="preserve"><tspan x="-3208.4365" y="1112.5322" font-family="'SC Gum Kids'" font-size="266.9718323px" stroke-width=".80091542" style="font-feature-settings:normal;font-variant-caps:normal;font-variant-ligatures:normal;font-variant-numeric:normal"/></text>
  <text x="-51.233967" y="1384.2153" font-family="sans-serif" font-size="10.58333302px" stroke-width=".26458332" style="line-height:1.25" xml:space="preserve"><tspan x="-51.233967" y="1393.5791" stroke-width=".26458332"/></text>
 </g>
 <polygon transform="matrix(3.4969519,0,0,3.4969519,-2144.4712,1674.2092)" points="" fill="#f9eab0"/>
 <g transform="translate(630.34455,942.29642)" letter-spacing="0px" word-spacing="0px">
  <text x="-2814.1099" y="250.65732" font-family="sans-serif" font-size="10.58333302px" stroke-width=".26458332" style="line-height:1.25" xml:space="preserve"><tspan x="-2814.1099" y="260.02109" stroke-width=".26458332"/></text>
  <text x="-3836.8396" y="297.71988" font-family="'SC Gum Kids'" font-size="266.9718323px" stroke-width=".80091542" style="font-feature-settings:normal;font-variant-caps:normal;font-variant-ligatures:normal;font-variant-numeric:normal;line-height:1.25" xml:space="preserve"><tspan x="-3836.8396" y="538.70392" font-family="'SC Gum Kids'" font-size="266.9718323px" stroke-width=".80091542" style="font-feature-settings:normal;font-variant-caps:normal;font-variant-ligatures:normal;font-variant-numeric:normal"/></text>
  <text x="-679.63708" y="810.38696" font-family="sans-serif" font-size="10.58333302px" stroke-width=".26458332" style="line-height:1.25" xml:space="preserve"><tspan x="-679.63708" y="819.75073" stroke-width=".26458332"/></text>
 </g>
 <rect x="5.1217259e-5" y="-3.5888672e-7" width="452.94128" height="218.28127" opacity="0" stroke-width=".35775721"/>
 <path d="m443.26684 71.73891h-81.33692c-4.78279 0-8.6332 3.92436-8.6332 8.79901v75.63361c0 4.87466 3.85041 8.79901 8.6332 8.79901h81.33692c4.78279 0 8.6332-3.92435 8.6332-8.79901l-16.63339-37.81681 16.63339-37.8168c1.95647-4.44815-3.85041-8.79901-8.6332-8.79901z" fill="#fff" stroke="#9c27b0" stroke-linecap="round" stroke-linejoin="round" stroke-width="1.3104434"/>
 <path d="m361.2116 71.55981c0.66677 0.0315 1.31076 0.26187 1.90041 0.73642 0 0 21.47401 14.96078 27.30036 20.24193 1.04754 0.94953 1.9879 1.73092 2.83236 2.40976h-39.90146v-13.80588c0-4.13507 4.26777-9.75218 7.86833-9.58223zm33.05077 116.27493c-1.30156 0.8041-2.72443 0.95334-4.0518 0z" fill="#9c27b0"/>
 <path d="m9.674543 71.73891h81.336926c4.78279 0 8.633196 3.92436 8.633196 8.79901v75.63361c0 4.87466-3.850406 8.79901-8.633196 8.79901h-81.336926c-4.78279 0-8.6331959-3.92435-8.6331959-8.79901l16.6333829-37.81681-16.6333829-37.8168c-1.95647452-4.44815 3.8504059-8.79901 8.6331959-8.79901z" fill="#fff" stroke="#9c27b0" stroke-linecap="round" stroke-linejoin="round" stroke-width="1.3104434"/>
 <path d="m91.729785 71.55981c-0.666771 0.0315-1.310758 0.26187-1.900407 0.73642 0 0-21.474014 14.96078-27.300364 20.24193-1.047537 0.94953-1.987893 1.73092-2.832357 2.40976h39.901467v-13.80588c0-4.13507-4.267775-9.75218-7.868339-9.58223zm-33.050768 116.27493c1.301555 0.8041 2.724424 0.95333 4.051803 0z" fill="#9c27b0"/>
 <g stroke="#9c27b0" stroke-linecap="round" stroke-linejoin="round">
  <rect x="54.690292" y="94.947906" width="343.80542" height="92.886826" ry="8.7664652" fill="#fff" stroke-width="1.3104434"/>
  <g transform="matrix(.71974789 0 0 .71974789 181.15641 -27.19562)" fill="#00c853" stroke-width="7.9375">
   <path d="m-33.222956 318.55025v18.84114"/>
   <path d="m-23.802386 327.97082h-18.84114"/>
  </g>
  <g transform="matrix(.71974789 0 0 .71974789 319.85389 -27.19562)" fill="#00c853" stroke-width="7.9375">
   <path d="m-33.222956 318.55025v18.84114"/>
   <path d="m-23.802386 327.97082h-18.84114"/>
  </g>
 </g>
 <g fill="#fff" stroke-width=".26458332" style="font-feature-settings:normal;font-variant-caps:normal;font-variant-ligatures:normal;font-variant-numeric:normal" aria-label="exercise">
  <path d="m179.36621 211.12304q-0.18603-1.67431 0.28939-3.32796 0.47542-1.67432 1.46761-2.97656 1.01286-1.32292 2.43913-2.1084 1.42627-0.80615 3.14192-0.76481 0.7028-0.0207 1.61231 0.31006 0.9095 0.33072 1.67432 0.93017 0.76481 0.57878 1.21956 1.36426 0.47542 0.76481 0.31006 1.63297 0.0207 0.43409-0.43408 0.72347-0.45476 0.26872-1.21957 0.43409-0.74414 0.16536-1.757 0.24804-0.99218 0.062-2.10839 0.10336-1.09555 0.0413-2.23243 0.0827-1.13688 0.0207-2.14974 0.10335-0.57877 1.59164-0.3514 2.62516 0.24805 1.01286 1.01286 1.5503 0.78548 0.53743 1.92237 0.64079 1.15755 0.0827 2.39778-0.16537 1.24024-0.24805 2.43913-0.78548 1.19889-0.55811 2.06706-1.32292 0.12402 0 0.31006 0.0827 0.2067 0.0827 0.39274 0.22738 0.18603 0.12402 0.31006 0.28939 0.14469 0.14469 0.14469 0.26872-0.51677 0.88883-1.57096 1.59163-1.0542 0.7028-2.37712 1.13688t-2.76986 0.53744q-1.42627 0.10335-2.68717-0.20671-1.26091-0.31006-2.21175-1.09554-0.95085-0.78548-1.28158-2.12907zm9.88054-5.51904q-0.10336-0.78548-0.62012-1.17822-0.51677-0.39275-1.21957-0.4961-0.7028-0.12402-1.48828 0.0207-0.78548 0.1447-1.46761 0.43408-0.66146 0.28939-1.11621 0.68213-0.43408 0.39274-0.45475 0.78549z" style="font-feature-settings:normal;font-variant-caps:normal;font-variant-ligatures:normal;font-variant-numeric:normal"/>
  <path d="m192.84343 203.64029q0-0.12402 0.10335-0.37207 0.10335-0.26871 0.28939-0.51676 0.2067-0.24805 0.49609-0.39274 0.28939-0.16537 0.68213-0.10335l4.25814 5.1263q0.3514-0.45475 0.78548-1.09554 0.43408-0.66146 0.93018-1.38493 0.49609-0.72347 1.01285-1.44694 0.51677-0.72347 1.0542-1.34359 0.31006 0 0.53744 0.12402 0.24804 0.12403 0.41341 0.31006 0.16536 0.16537 0.24805 0.37207 0.10335 0.20671 0.10335 0.39274l-3.38998 5.29167 4.46485 4.67155q0.14469 0.26872 0.062 0.57878-0.0827 0.31006-0.31006 0.5581-0.2067 0.22738-0.51676 0.33073t-0.64079-0.0413l-4.46484-4.65088q-0.37207 0.41341-0.90951 1.0542-0.53743 0.64079-1.13688 1.30225-0.57878 0.66146-1.13688 1.24023-0.55811 0.57878-0.95085 0.86817-0.24805 0.12402-0.5581 0.12402-0.28939 0-0.55811-0.12402-0.24805-0.10336-0.41341-0.31006-0.16537-0.20671-0.16537-0.47543 0.062-0.062 0.3514-0.3514 0.28939-0.31005 0.68213-0.74414 0.41341-0.43408 0.88884-0.97151 0.47542-0.53744 0.9095-1.0542 0.43408-0.53744 0.80615-1.03353 0.37207-0.4961 0.55811-0.8475-1.2609-1.40559-2.25309-2.52181-0.41341-0.47542-0.82683-0.93017-0.39274-0.45475-0.7028-0.80615-0.31005-0.37207-0.51676-0.59945-0.18603-0.22738-0.18603-0.22738z" style="font-feature-settings:normal;font-variant-caps:normal;font-variant-ligatures:normal;font-variant-numeric:normal"/>
  <path d="m205.45248 211.12304q-0.18604-1.67431 0.28938-3.32796 0.47543-1.67432 1.46762-2.97656 1.01285-1.32292 2.43912-2.1084 1.42627-0.80615 3.14193-0.76481 0.7028-0.0207 1.61231 0.31006 0.9095 0.33072 1.67431 0.93017 0.76481 0.57878 1.21957 1.36426 0.47542 0.76481 0.31005 1.63297 0.0207 0.43409-0.43408 0.72347-0.45475 0.26872-1.21956 0.43409-0.74414 0.16536-1.757 0.24804-0.99219 0.062-2.1084 0.10336-1.09554 0.0413-2.23242 0.0827-1.13688 0.0207-2.14974 0.10335-0.57878 1.59164-0.3514 2.62516 0.24805 1.01286 1.01286 1.5503 0.78548 0.53743 1.92236 0.64079 1.15755 0.0827 2.39779-0.16537 1.24023-0.24805 2.43913-0.78548 1.19889-0.55811 2.06705-1.32292 0.12403 0 0.31006 0.0827 0.20671 0.0827 0.39274 0.22738 0.18604 0.12402 0.31006 0.28939 0.14469 0.14469 0.14469 0.26872-0.51676 0.88883-1.57096 1.59163t-2.37711 1.13688q-1.32292 0.43408-2.76986 0.53744-1.42627 0.10335-2.68718-0.20671-1.2609-0.31006-2.21175-1.09554-0.95084-0.78548-1.28157-2.12907zm9.88053-5.51904q-0.10335-0.78548-0.62012-1.17822-0.51676-0.39275-1.21956-0.4961-0.7028-0.12402-1.48828 0.0207-0.78548 0.1447-1.46761 0.43408-0.66146 0.28939-1.11621 0.68213-0.43409 0.39274-0.45476 0.78549z" style="font-feature-settings:normal;font-variant-caps:normal;font-variant-ligatures:normal;font-variant-numeric:normal"/>
  <path d="m219.15707 202.21402q0.0413-0.39274 0.33073-0.47542 0.28938-0.10335 0.62011-0.062 0.53744 0.062 0.80616 0.5581 0.26871 0.47543 0.37207 1.07487 0.10335 0.59945 0.10335 1.17823 0 0.5581 0.0207 0.80615 0.57878-0.49609 1.28157-1.13688 0.72347-0.64079 1.73633-1.15755 1.03353-0.53744 2.4598-0.80616 1.44694-0.28938 3.47266-0.0413 0.49609 0.12403 0.72347 0.47543 0.24804 0.3514 0.24804 0.74414 0.0207 0.37207-0.2067 0.7028-0.20671 0.31005-0.59945 0.3514-0.49609-0.37207-1.32291-0.43409-0.82683-0.062-1.81902 0.1447-0.97151 0.2067-1.98437 0.66146-1.01286 0.45475-1.88102 1.13688-0.8475 0.68213-1.46761 1.57096-0.59945 0.88884-0.74414 1.94304v4.52685q-0.0414 0.10335-0.33073 0.31006-0.28939 0.18603-0.66146 0.26872-0.3514 0.10335-0.72347 0-0.3514-0.10336-0.53744-0.57878 0-0.14469 0-0.9095 0-0.78549 0-1.88103 0.0207-1.11621 0.0413-2.41845 0.0207-1.32292 0.0207-2.58383 0.0207-1.2609 0.0207-2.3151 0.0207-1.0542 0.0207-1.65365z" style="font-feature-settings:normal;font-variant-caps:normal;font-variant-ligatures:normal;font-variant-numeric:normal"/>
  <path d="m229.63705 210.44091q-0.10336-1.07487 0.49609-2.33577 0.62012-1.28158 1.65365-2.4598 1.0542-1.19889 2.39778-2.12907 1.36426-0.95085 2.74919-1.36426 1.4056-0.43408 2.68717-0.16536 1.30225 0.26872 2.2531 1.48828 0 0.26872-0.1447 0.47542-0.12402 0.20671-0.33073 0.39274-0.18603 0.18604-0.41341 0.33073-0.22737 0.1447-0.41341 0.28939-0.3514-0.74414-0.93018-1.03353-0.57877-0.28939-1.28157-0.22737-0.7028 0.0413-1.48828 0.39274-0.78548 0.33073-1.5503 0.86816-0.76481 0.51676-1.44694 1.17822-0.68212 0.64079-1.19889 1.34359-0.49609 0.68213-0.76481 1.36426-0.26872 0.66146-0.20671 1.19889 0 0.90951 0.3514 1.46761 0.3514 0.55811 0.90951 0.86817 0.57878 0.31006 1.30225 0.41341 0.74414 0.10335 1.50895 0.10335 1.57096-0.0413 2.8112-0.37207 1.2609-0.3514 2.17041-0.72347 0.9095-0.39274 1.50895-0.68213 0.59944-0.28939 0.86816-0.22737 0.16537 0 0.33073 0.0207 0.18604 0.0207 0.31006 0.12402 0.14469 0.0827 0.18603 0.26872 0.062 0.16536 0 0.47542-0.062 0.39274-0.53743 0.76481-0.47542 0.3514-1.21956 0.66146t-1.65365 0.57878q-0.90951 0.24804-1.81901 0.43408-0.90951 0.16536-1.73633 0.24804-0.80615 0.0827-1.34359 0.0414-0.9095 0-1.9637-0.20671t-1.96371-0.68213q-0.88883-0.47542-1.48828-1.24023-0.59944-0.78549-0.59944-1.94304z" style="font-feature-settings:normal;font-variant-caps:normal;font-variant-ligatures:normal;font-variant-numeric:normal"/>
  <path d="m247.47575 202.37939q0.18604 2.54248 0.33073 5.41569 0.14469 2.85254 0.24805 5.76709-0.10336 0.41341-0.43408 0.59945-0.31006 0.18603-0.68213 0.2067-0.37207 0-0.7028-0.12402-0.31006-0.12403-0.39274-0.33073v-11.53418zm-2.39779-3.514q0-0.47542 0.26872-0.68213 0.26872-0.2067 0.64079-0.22737 0.37207-0.0414 0.74414 0.062 0.37207 0.10335 0.53744 0.24804 0.18603 0.68213-0.062 0.99219-0.24804 0.31006-0.66145 0.3514-0.39275 0.0207-0.82683-0.18603-0.43408-0.20671-0.64079-0.55811z" style="font-feature-settings:normal;font-variant-caps:normal;font-variant-ligatures:normal;font-variant-numeric:normal"/>
  <path d="m250.0389 213.06608q1.86036-0.1447 3.36931-0.51677 1.52962-0.37207 2.56315-0.84749 1.0542-0.4961 1.57096-1.03353 0.51677-0.55811 0.37207-1.09554-0.16536-0.57878-1.65364-0.4961-1.46761 0.0827-4.36149 0.66146-0.8475-0.062-1.48828-0.39274-0.62012-0.33073-0.99219-0.78548-0.37207-0.47542-0.47543-0.99219-0.10335-0.51676 0.062-0.9095 0-0.68213 0.39274-1.32292 0.41341-0.66146 1.09554-1.19889 0.7028-0.55811 1.6123-0.99219 0.93018-0.45475 1.98438-0.7028 1.0542-0.26872 2.17041-0.33073 1.11621-0.062 2.21175 0.1447 0.53743 0.24804 0.86816 0.57877 0.3514 0.31006 0.47543 0.64079 0.12402 0.31006 0 0.59945-0.12403 0.28938-0.51677 0.49609-0.84749-0.37207-1.79834-0.53744-0.93017-0.18603-1.86035-0.14469-0.93018 0.0413-1.79834 0.28939-0.84749 0.22737-1.50895 0.66146-0.64079 0.41341-1.0542 1.03353-0.41341 0.62011-0.43408 1.40559 0 0.43409 0.33073 0.57878 0.3514 0.12402 0.80615 0.12402 0.47542-0.0207 0.97152-0.10335 0.51676-0.10335 0.82682-0.10335 2.04639-0.28939 3.3693-0.16537 1.34359 0.12403 2.04639 0.53744t0.82682 1.03353q0.12403 0.62011-0.24804 1.34358-0.3514 0.7028-1.15756 1.42627-0.80615 0.72347-1.9637 1.32292t-2.62516 1.01286q-1.44694 0.39274-3.10059 0.47542-0.39274 0.1447-0.66146-0.0413-0.24805-0.18603-0.37207-0.49609t-0.10335-0.64079q0.0413-0.3514 0.24804-0.51676z" style="font-feature-settings:normal;font-variant-caps:normal;font-variant-ligatures:normal;font-variant-numeric:normal"/>
  <path d="m260.97364 211.12304q-0.18603-1.67431 0.28939-3.32796 0.47542-1.67432 1.46761-2.97656 1.01286-1.32292 2.43913-2.1084 1.42627-0.80615 3.14192-0.76481 0.7028-0.0207 1.61231 0.31006 0.9095 0.33072 1.67432 0.93017 0.76481 0.57878 1.21956 1.36426 0.47542 0.76481 0.31006 1.63297 0.0207 0.43409-0.43408 0.72347-0.45476 0.26872-1.21957 0.43409-0.74414 0.16536-1.757 0.24804-0.99218 0.062-2.1084 0.10336-1.09554 0.0413-2.23242 0.0827-1.13688 0.0207-2.14974 0.10335-0.57877 1.59164-0.3514 2.62516 0.24805 1.01286 1.01286 1.5503 0.78548 0.53743 1.92236 0.64079 1.15756 0.0827 2.39779-0.16537 1.24024-0.24805 2.43913-0.78548 1.19889-0.55811 2.06706-1.32292 0.12402 0 0.31006 0.0827 0.2067 0.0827 0.39274 0.22738 0.18603 0.12402 0.31005 0.28939 0.1447 0.14469 0.1447 0.26872-0.51677 0.88883-1.57096 1.59163-1.0542 0.7028-2.37712 1.13688t-2.76986 0.53744q-1.42627 0.10335-2.68717-0.20671-1.26091-0.31006-2.21175-1.09554-0.95085-0.78548-1.28158-2.12907zm9.88053-5.51904q-0.10335-0.78548-0.62011-1.17822-0.51677-0.39275-1.21957-0.4961-0.7028-0.12402-1.48828 0.0207-0.78548 0.1447-1.46761 0.43408-0.66146 0.28939-1.11621 0.68213-0.43408 0.39274-0.45475 0.78549z" style="font-feature-settings:normal;font-variant-caps:normal;font-variant-ligatures:normal;font-variant-numeric:normal"/>
 </g>
 <g transform="translate(2.8538855,-302.83905)" fill="#fff" stroke="#9c27b0" stroke-width="1.69274986">
  <path d="m229.35728 313.0363 11.57153 0.4849 0.68327-6.50209-17.87526-0.68328 0.28654 13.62135q2.73309-0.57306 5.09148-0.35266 4.71677 0.46287 4.82697 4.47433 0.13228 4.03351-3.96738 4.58453-2.04981 0.28653-4.14371-0.24245l-0.39674 6.65639q4.36412 0.52898 8.68416-0.57307 8.61803-2.16002 8.19925-10.20499-0.37469-8.04497-6.74454-9.65396-3.15187-1.01389-6.25965-0.19837z" style="font-feature-settings:normal;font-variant-caps:normal;font-variant-ligatures:normal;font-variant-numeric:normal"/>
  <path d="m244.86841 343.90682 0.19836 6.72251 8.48579-0.19837-7.14128 5.17963q1.96165-0.28653 3.85717 0.22041 3.83514 1.01389 3.72494 5.00332-0.13228 4.01146-3.85718 3.94534-1.87349-0.0441-3.72493-0.88164l-1.74124 7.18537q3.1739 1.01388 6.92088 1.08001 7.42781 0.15428 10.1609-4.51841 3.74698-6.43598-0.0661-10.88826-1.91756-2.22614-4.38615-3.39432l7.62619-9.36743z" style="font-feature-settings:normal;font-variant-caps:normal;font-variant-ligatures:normal;font-variant-numeric:normal"/>
  <path d="m261.41969 306.46723q-6.63433-4.0335-12.34296-0.0661-2.86533 2.09389-5.0474 5.17965l4.45229 5.64248q0.57307-0.92571 1.609-1.7192 2.29227-2.29226 4.60657-1.80736 1.30042 0.28654 1.05796 1.76328-0.19836 1.25634-1.47674 3.28412-2.40247 3.76901-5.86291 6.06127-1.49879 1.27839-2.77717 2.24819l-0.52898 7.80252 17.91934 0.37469 0.0221-7.47189-9.05886 0.41877q4.29801-3.96739 7.3617-8.64008 2.68901-4.07759 2.99758-7.16332 0.41878-3.85719-2.93145-5.90699z" style="font-feature-settings:normal;font-variant-caps:normal;font-variant-ligatures:normal;font-variant-numeric:normal"/>
  <path d="m234.66739 352.33239h-4.60658l0.19837-9.87438-7.60415 0.22041v16.00177l11.59357 0.41878-0.83756 12.84991 7.97885 0.19838 0.63918-29.68925h-7.16332z" style="font-feature-settings:normal;font-variant-caps:normal;font-variant-ligatures:normal;font-variant-numeric:normal"/>
 </g>
 <g transform="matrix(.05489211 0 0 .05489211 185.25055 42.08303)" fill="#00c853">
  <g fill="#00c853">
   <g fill="#00c853">
    <path d="m477.549 182.379h-148.531v-148.532c0-18.69-15.154-33.844-33.844-33.844h-78.954c-18.69 0-33.844 15.153-33.844 33.844v148.526h-148.532c-18.691 0-33.844 15.153-33.844 33.843v78.966c0 18.691 15.153 33.844 33.844 33.844h148.532v148.527c0 18.689 15.153 33.842 33.844 33.842h78.96c18.691 0 33.844-15.152 33.844-33.842v-148.527h148.533c18.689 0 33.842-15.152 33.842-33.844v-78.966c-6e-3 -18.69-15.153-33.837-33.85-33.837z" fill="#00c853"/>
   </g>
  </g>
 </g>
 <rect x="177.7715" y="73.744019" width="97.259247" height="6.23984" ry="1.4881111" fill="#2196f3" stroke-width="1.16072929"/>
 <rect x="199.52167" y="43.988136" width="2.162447" height="6.7756629" ry="1.0812235" fill="#c0ffda"/>
 <rect x="257.47519" y="75.12735" width="15.425446" height="2.1624458" ry="1.0812225" fill="#b4dbfb"/>
 <g transform="translate(35.389435 -.44700527)" fill="#9c27b0" stroke-width=".26458335">
  <g transform="translate(.43821994 -14.023038)">
   <path d="m116.17529 125.62347-0.0172 6.23563 5.42603 0.36173 0.0517 17.1738 6.63181 0.0172 0.24116-17.27715 5.11597-0.0172 0.18948-5.58106z" style="font-feature-settings:normal;font-variant-caps:normal;font-variant-ligatures:normal;font-variant-numeric:normal"/>
   <path d="m148.163 138.2842-3.35897-5.06429-3.49677 5.06429-1.65365-6.09782-6.27007 0.56844 5.83944 17.29438 5.44325-7.64811 5.82221 7.73424 5.77053-17.56999-6.68348-0.29283z" style="font-feature-settings:normal;font-variant-caps:normal;font-variant-ligatures:normal;font-variant-numeric:normal"/>
   <path d="m165.16455 142.71115q-1.01631-0.0172-1.53307-0.31006-0.49954-0.27561-0.49954-0.77515 0-0.51676 0.46509-0.84405 0.51676-0.37896 1.41249-0.37896 0.9474 0 1.49861 0.32729 0.55122 0.31006 0.55122 0.8096 0 0.48231-0.55122 0.82682-0.53399 0.36173-1.34358 0.34451zm-0.12058-10.28361q-4.3236 0-6.54568 2.9111-1.86036 2.4288-1.86036 6.18395 0 4.16857 1.94648 6.1495 2.15319 2.18763 7.14858 2.25653 3.54844 0.0517 5.92556-2.61827 2.30821-2.60105 2.30821-6.30452 0-3.73793-2.32543-6.09782-2.44602-2.48047-6.59736-2.48047z" style="font-feature-settings:normal;font-variant-caps:normal;font-variant-ligatures:normal;font-variant-numeric:normal"/>
   <path d="m174.48353 139.3005 9.16395-0.10335 0.25838-3.42787-9.56014-0.44786z" style="font-feature-settings:normal;font-variant-caps:normal;font-variant-ligatures:normal;font-variant-numeric:normal"/>
   <path d="m194.18947 142.71115q-0.80959 0.18948-1.46416-0.12058-0.55122-0.27561-0.70625-0.75792-0.12057-0.51677 0.31006-0.8785 0.51677-0.39619 1.60197-0.43064 0.49954 0 0.9474 0.25838 0.44787 0.27561 0.58567 0.65457 0.15503 0.39619-0.1378 0.7407-0.31006 0.37896-1.13689 0.53399zm-6.80406-7.18303q-1.757 1.34359-2.60105 3.84129-0.48231 2.37711 0.32729 4.77145 1.17133 2.53215 3.08336 3.97909 2.17041 1.61919 5.08151 1.36081 2.34267-0.18948 3.56568-1.11965 1.22301-0.93018 1.56752-1.51585v2.68718l6.3562 0.34451-0.15503-23.03047-6.97632-0.36173v8.73332q-1.36081-0.86128-3.32452-1.25746-3.92741-0.77515-6.92464 1.56751z" style="font-feature-settings:normal;font-variant-caps:normal;font-variant-ligatures:normal;font-variant-numeric:normal"/>
   <path d="m208.95171 131.37678q1.72254-0.0517 2.63549-1.05075 0.84405-0.91295 0.77515-2.20486-0.0689-1.27469-0.96463-2.18764-0.96462-0.99907-2.51492-1.03353-1.39526-0.0517-2.32544 0.98186-0.84404 0.9474-0.93017 2.27376-0.0689 1.36081 0.72347 2.25654 0.91295 1.0163 2.60105 0.96462zm2.61827 1.10243-5.44325 0.0172-0.0689 16.94987 5.59828 0.1378z" style="font-feature-settings:normal;font-variant-caps:normal;font-variant-ligatures:normal;font-variant-numeric:normal"/>
   <path d="m222.49093 138.07749q0.56844 0.12058 0.98186 0.53399 0.41341 0.39619 0.44786 0.8096 0.0344 0.46509-0.43064 0.7407-0.56844 0.32728-1.73977 0.29283-1.17133 0-1.63642-0.46509-0.43064-0.41341-0.20671-0.98185 0.22393-0.53399 0.91295-0.84405 0.75792-0.31006 1.67087-0.0861zm-8.95724 16.91542q7.92372 4.87481 14.03876 1.53307 3.61735-2.39434 4.37527-9.26731 1.0163-5.63273 0.53399-15.74408l-6.23562-0.25838 0.0172 1.67087q-1.99815-1.5503-4.56475-1.5503-3.7896 0-6.23562 2.46325-2.20486 2.25654-2.35989 5.42602-0.18948 3.22117 1.86035 5.39158 2.29099 2.42879 6.47678 2.32544 2.98001-0.0517 4.97816-1.36082 0.25839 1.63642-1.36081 4.01354-1.27468 1.87758-3.7896 1.70532-2.87666-0.2067-5.87389-2.37711z" style="font-feature-settings:normal;font-variant-caps:normal;font-variant-ligatures:normal;font-variant-numeric:normal"/>
   <path d="m236.58138 131.37678q1.72254-0.0517 2.63549-1.05075 0.84405-0.91295 0.77515-2.20486-0.0689-1.27469-0.96463-2.18764-0.96462-0.99907-2.51492-1.03353-1.39526-0.0517-2.32544 0.98186-0.84404 0.9474-0.93017 2.27376-0.0689 1.36081 0.72347 2.25654 0.91295 1.0163 2.60105 0.96462zm2.61827 1.10243-5.44325 0.0172-0.0689 16.94987 5.59828 0.1378z" style="font-feature-settings:normal;font-variant-caps:normal;font-variant-ligatures:normal;font-variant-numeric:normal"/>
   <path d="m245.88314 125.48567-0.17226 5.56383-4.63365-0.25838-0.31006 5.52938 4.75423 0.22393-0.22393 13.09136 5.85666 0.31006 0.17226-13.16027 4.49585 0.0345 0.12057-5.56383-4.47862-0.0861 0.12058-5.35713z" style="font-feature-settings:normal;font-variant-caps:normal;font-variant-ligatures:normal;font-variant-numeric:normal"/>
  </g>
  <g transform="translate(-65.73299,-103.85812)" style="font-feature-settings:normal;font-variant-caps:normal;font-variant-ligatures:normal;font-variant-numeric:normal" aria-label="additions">
   <path d="m192.52524 271.81991q-0.58567-0.0861-0.96463-0.34451-0.36173-0.25838-0.39618-0.55121-0.0172-0.31006 0.32728-0.48232 0.39619-0.18948 1.15411-0.1378 0.53399 0.0517 0.84404 0.31006 0.27561 0.25838 0.25839 0.56844-0.0172 0.32728-0.32729 0.49954-0.32728 0.2067-0.89572 0.1378zm4.737-12.04061q-4.51307-0.79237-7.73423-0.32728-1.6192 0.24116-2.32544 0.63734l0.99907 5.01262q1.92926-0.53399 4.06522-0.48232 4.27191 0.10336 5.27099 3.10059-1.61919-0.96463-3.70348-1.46417-4.20301-0.99907-6.61458 1.34359-1.42971 1.39526-1.77422 3.15226-0.34451 1.73978 0.48231 3.16949 0.8785 1.53307 2.7733 2.20486 2.11874 0.7407 5.09874 0.24116 2.4288-0.43064 3.87574-2.37712l-0.29284 2.06706h5.87389q1.05076-3.61735 0.82682-7.45863-0.18948-3.35897-1.58474-5.51215-1.72255-2.68718-5.23655-3.3073z" style="font-feature-settings:normal;font-variant-caps:normal;font-variant-ligatures:normal;font-variant-numeric:normal"/>
   <path d="m214.59107 269.42557q-0.80959 0.18948-1.46416-0.12058-0.55122-0.27561-0.70625-0.75792-0.12057-0.51676 0.31006-0.8785 0.51677-0.39618 1.60197-0.43063 0.49954 0 0.9474 0.25838 0.44787 0.2756 0.58567 0.65457 0.15503 0.39618-0.1378 0.74069-0.31006 0.37896-1.13689 0.53399zm-6.80406-7.18302q-1.757 1.34358-2.60105 3.84128-0.48231 2.37711 0.32729 4.77146 1.17133 2.53214 3.08336 3.97908 2.17041 1.6192 5.08151 1.36081 2.34267-0.18948 3.56568-1.11965 1.22301-0.93018 1.56752-1.51584v2.68717l6.3562 0.34451-0.15503-23.03046-6.97632-0.36174v8.73332q-1.36081-0.86128-3.32452-1.25746-3.92741-0.77515-6.92464 1.56752z" style="font-feature-settings:normal;font-variant-caps:normal;font-variant-ligatures:normal;font-variant-numeric:normal"/>
   <path d="m235.88177 269.42557q-0.8096 0.18948-1.46417-0.12058-0.55122-0.27561-0.70624-0.75792-0.12058-0.51676 0.31005-0.8785 0.51677-0.39618 1.60197-0.43063 0.49954 0 0.9474 0.25838 0.44787 0.2756 0.58567 0.65457 0.15503 0.39618-0.1378 0.74069-0.31006 0.37896-1.13688 0.53399zm-6.80407-7.18302q-1.757 1.34358-2.60105 3.84128-0.48231 2.37711 0.32729 4.77146 1.17133 2.53214 3.08336 3.97908 2.17041 1.6192 5.08152 1.36081 2.34266-0.18948 3.56567-1.11965 1.22301-0.93018 1.56752-1.51584v2.68717l6.3562 0.34451-0.15503-23.03046-6.97632-0.36174v8.73332q-1.36081-0.86128-3.32452-1.25746-3.9274-0.77515-6.92464 1.56752z" style="font-feature-settings:normal;font-variant-caps:normal;font-variant-ligatures:normal;font-variant-numeric:normal"/>
   <path d="m250.644 258.09121q1.72255-0.0517 2.6355-1.05076 0.84405-0.91295 0.77515-2.20486-0.0689-1.27468-0.96463-2.18763-0.96463-0.99908-2.51492-1.03353-1.39526-0.0517-2.32544 0.98185-0.84405 0.9474-0.93018 2.27376-0.0689 1.36081 0.72347 2.25654 0.91295 1.0163 2.60105 0.96463zm2.61827 1.10243-5.44325 0.0172-0.0689 16.94987 5.59828 0.13781z" style="font-feature-settings:normal;font-variant-caps:normal;font-variant-ligatures:normal;font-variant-numeric:normal"/>
   <path d="m259.94576 252.20009-0.17226 5.56383-4.63365-0.25838-0.31006 5.52938 4.75423 0.22393-0.22393 13.09136 5.85666 0.31006 0.17226-13.16026 4.49585 0.0345 0.12058-5.56383-4.47863-0.0861 0.12058-5.35712z" style="font-feature-settings:normal;font-variant-caps:normal;font-variant-ligatures:normal;font-variant-numeric:normal"/>
   <path d="m274.00175 258.09121q1.72255-0.0517 2.6355-1.05076 0.84404-0.91295 0.77514-2.20486-0.0689-1.27468-0.96462-2.18763-0.96463-0.99908-2.51492-1.03353-1.39527-0.0517-2.32544 0.98185-0.84405 0.9474-0.93018 2.27376-0.0689 1.36081 0.72347 2.25654 0.91295 1.0163 2.60105 0.96463zm2.61827 1.10243-5.44325 0.0172-0.0689 16.94987 5.59828 0.13781z" style="font-feature-settings:normal;font-variant-caps:normal;font-variant-ligatures:normal;font-variant-numeric:normal"/>
   <path d="m286.36964 269.42557q-1.0163-0.0172-1.53306-0.31006-0.49954-0.27561-0.49954-0.77514 0-0.51677 0.46508-0.84405 0.51677-0.37896 1.41249-0.37896 0.9474 0 1.49862 0.32728 0.55122 0.31006 0.55122 0.8096 0 0.48231-0.55122 0.82682-0.53399 0.36174-1.34359 0.34451zm-0.12058-10.28361q-4.32359 0-6.54568 2.91111-1.86035 2.42879-1.86035 6.18394 0 4.16857 1.94648 6.1495 2.15318 2.18763 7.14857 2.25654 3.54845 0.0517 5.92557-2.61828 2.30821-2.60104 2.30821-6.30452 0-3.73793-2.32544-6.09782-2.44602-2.48047-6.59736-2.48047z" style="font-feature-settings:normal;font-variant-caps:normal;font-variant-ligatures:normal;font-variant-numeric:normal"/>
   <path d="m306.78183 258.0223q-3.20394-0.32728-5.42603 1.15411l0.0344-1.17133-5.4088-0.15503-0.43063 18.55184h6.47678l0.0861-6.51123q-0.22393-5.61551 2.61828-5.73609 2.10151-0.0861 2.42879 5.77054 0.17225 2.7733-0.25838 5.71886l6.73516 0.15503q0.49954-4.37527-0.10335-8.62997-0.51677-3.87573-1.92926-6.14949-1.77422-2.84221-4.82313-2.99724z" style="font-feature-settings:normal;font-variant-caps:normal;font-variant-ligatures:normal;font-variant-numeric:normal"/>
   <path d="m317.13434 268.90881q1.58474 0.68902 2.8422 1.22301 3.47955 1.73977 4.16857 1.11965 0.24115-0.36173 0.0689-0.62012-0.17226-0.25838-1.70532-0.86127-1.51585-0.62012-3.47955-1.24023-1.96371-0.62012-2.66995-2.04984-0.67179-1.37803-0.10335-2.9111 0.62011-1.65365 2.37711-2.61827 2.03261-1.10243 5.02984-0.91295 2.53215 0.15502 5.04707 1.1541 1.18856 0.65457 1.86035 1.29191l-2.17041 3.41065q-0.99908-0.65457-1.94648-0.9474-3.10059-1.13688-3.27284 0.0689-0.0172 0.32728 0.55121 0.68902 0.58567 0.34451 2.48047 0.86127 1.91203 0.49954 3.10059 1.06798 1.77422 0.8785 2.15318 2.80775 0.39619 1.96371-1.223 4.03077-1.6881 1.98093-5.83944 1.99815-3.61735 0.0344-9.7324-2.7044z" style="font-feature-settings:normal;font-variant-caps:normal;font-variant-ligatures:normal;font-variant-numeric:normal"/>
  </g>
 </g>
</svg>
