<?xml version="1.0" encoding="UTF-8"?>
<!-- Created with Inkscape (http://www.inkscape.org/) -->
<svg width="452.94138mm" height="218.28125mm" version="1.1" viewBox="0 0 452.94138 218.28125" xmlns="http://www.w3.org/2000/svg" xmlns:cc="http://creativecommons.org/ns#" xmlns:dc="http://purl.org/dc/elements/1.1/" xmlns:rdf="http://www.w3.org/1999/02/22-rdf-syntax-ns#" xmlns:xlink="http://www.w3.org/1999/xlink">
 <defs>
  <pattern id="pattern19315" width="700.00001" height="699.99998" patternTransform="matrix(.26458333 0 0 .26458333 615.05186 -407.90118)" patternUnits="userSpaceOnUse">
   <path d="m0 0v52.7304l62.0019-13.7773 19.078101-38.9531zm200.8281 0 30.0098 43.1386-117.209-26.5117-19.535199 79.535201-94.093701-35.437501v128.1191l14.5586 4.9922 20.9316-75.3476 75.3477 71.1621 55.8144-129.7676 78.1387 62.791 40.4668-100.4648 62.789 16.7441 5.6661-38.9531zm171.793 0 47.9843 135.2324-122.791-58.605499-40.4648 119.999999-73.9531-80.9297-50.2325 128.3711-89.3027-50.2324-43.8613 68.5352v74.582l57.8144-102.6504 99.0703 101.8594-85.115199-26.5117 69.767599 120 5.5801-60 53.0234 83.7207-89.3027 6.9765 11.164 80.9317-96.2793-125.5821 69.767601 9.7676-26.5117-54.418-43.255901 8.3711 27.9063-72.5586-53.6289 40.8047v101.7442l42.4668 26.289-18.1407 26.5118 97.6758 65.58199-85.1172-19.53516 60.000001 82.32423-58.603501-33.48829 25.449201 102.90821h46.197299l-47.9258-66.6289 54.418 13.95312-19.535199 5.58203 26.511799 18.14063-13.9532 8.37109 6.0039 20.58203h35.6153l-38.8282-95.93165 78.1387 18.14064-27.9062-133.95317 97.6738 48.836 39.0703-107.4414 20.9297 138.14059 51.6289-69.76759 72.5566 89.30079 58.6055-161.85939 58.6035 89.3028 34.8848-78.1407 58.60551 120.00002s25.3676-31.70342 44.9746-52.50392v-39.5508l-40.7891 47.4043-40.46481-86.5117 41.85931 46.0469-25.1152-101.8613 43.2559 90.6972-2.7911-46.0449 24.045 25.9688v-28.5059l-71.4864-82.5801-16.74411 75.3496-48.8379-82.3261 30.6973 19.5351 25.1172-58.6055 71.16211 73.9532 10.0918-6.92v-76.3359l-37.9981-66.0449-22.3262 66.9766-51.62891-62.7911-4.1855 85.1153h-55.8145l46.0469 89.3027-136.7441-12.5586 1.3965 73.9551-62.7911-93.4883 126.9766-16.7441-43.2559-85.1172 55.8145 12.5586 69.7676-92.0938 43.25581 43.2559 36.2774-83.7207 35.209 50.666v-108.611299l-44.9746-20.193401-30.6993 104.6504-32.09181-68.373099-43.2558 111.628999-32.0938-97.6739-1.3945 115.8125-142.3262-32.0918 120-64.1855-55.8144-90.6992 62.791 23.7207 46.7129-57.0918zm177.5918 0-5.4219 145 40.4668-108.8379 34.88281 44.652301 16.6055-80.814401zm107.19721 0 42.5899 54.8613v-54.8613zm-253.54881 22.209 47.4414 83.7207 23.7227 11.1621-33.4903 6.9785zm-78.1387 93.4882 57.209 29.3028-33.4883 26.5117 2.791 37.6738 99.0684 30.6973-80.9297-4.1856 82.3262 53.0235-140.9297-33.4883 23.7207-100.4648-47.4434 27.9062zm-135.3496 73.9532 33.4883 73.9531 79.5352-61.3945-34.8829 80.9296 136.7442 22.3262-80.9317 41.8594 107.4434 128.373-150.6992-85.1172-12.5567 58.6055-75.3496-54.4179 55.8145 2.791-11.1641-66.9786 65.5821 32.0938-64.1856-69.7676 18.1387-27.9062-68.3711 48.8359 2.791-53.0215-47.4434 19.5332zm245.582 111.6289 37.6739 22.3242-66.9766 8.373 33.4883-13.9531zm-217.6738 13.9531 4.1856 57.209-92.0938-20.9297 72.5586-1.3965zm274.8828 78.1387 51.627 4.1875-19.5332 11.1621 27.9062 36.2793 20.9297-30.6973-15.3476 64.1856zm-20.9297 29.3027-37.6757 118.6055-47.4414-57.211 44.6523 26.5117zm-262.3261 11.1621 46.0468 43.2559-6.9765 37.6758-71.1641-40.4649 62.791 18.1387zm106.0468 0 47.4415 26.5117-32.0938 68.3731 15.3496-62.791zm-315.955 44.0664v37.5547l20.1406 10.4727zm142.9316 25.7012 22.3262 87.90819-79.535199-5.58203 57.208999-6.97656zm369.7676 19.5351-41.8613 147.90826-90.6973-117.21095-44.6504 69.76759-103.2559-66.97658 22.3243 94.88478-76.7442 4.18555-12.2539 44.30273h67.1778l41.3554-26.16406 1.3965-64.18556 86.5117 41.86134 29.3008-40.46485 45.9766 88.95313h62.0488l41.2773-118.25587 66.9766 68.37111 26.51171-50.23244 6.9766 62.79103 58.9297-19.64258v-110.63283l-37.9981 78.64845-44.65231-64.1875-4.1856 50.23242zm-512.6992 10.4512v34.46291l24.3261 8.10937zm0 57.57033v59.75196l29.9082 1.99414zm550.373 43.60743-42.209 65.23242h70.9121zm-246.9765 13.95313 23.8496 51.27929h38.5781zm87.9062 5.58203-7.6152 45.69726h43.8593zm-391.3027 6.95312v38.74414h41.5605zm620.14061 8.39453-10.31841 30.34961h26.98051zm79.8594 1.63477-16.8457 28.71484h16.8457z" fill="#bd39d3"/>
  </pattern>
  <pattern id="pattern46666" width="780" height="449.99989" patternTransform="matrix(.26458333 0 0 .26458333 617.6756 115.48758)" patternUnits="userSpaceOnUse">
   <path d="m751.14482 449.99989c15.98626 0 28.85518-12.86903 28.85518-28.85549v-233.74601l-128.47446-51.69332 44.45896-93.857385-40.68548-41.847685h-50.48239l-7.58589 161.66589 182.41776 87.84374-82.59553 200.49026zm-100.65638 0l46.22287-183.60741-194.75604-32.54687-8.66003-158.792886-212.40831 44.097636-45.15024-119.15036h-66.68976l23.98639 184.7636 196.32416-11.54899-31.75786 127.03529 242.51981-5.77542 1.48233 155.52541zm-108.30085 0l-52.21871-64.82812-210.32239-4.08401-20.20876-141.46874-106.82419 43.30666-63.517603-204.986531-57.74211 54.855681-31.353827-85.212846v221.052656l63.111685-60.7734 43.306585 132.80663 103.93738-20.20902 37.01178 129.54104zm-345.744 0l-29.39452-63.13671-86.615432 23.09764-43.306583-95.27539-37.127055 48.7285v57.73047c0 15.98646 12.871181 28.85549 28.857827 28.85549zm583.55641-315.71668v-105.425761c0-15.986646-12.86892-28.857449-28.85518-28.857449h-38.23824l44.82595 15.499842-63.39439 84.802768zm-419.51358-90.988344 217.54507-43.294866h-262.79092z" fill="#c042d5"/>
  </pattern>
 </defs>
 <metadata>
  <rdf:RDF>
   <cc:Work rdf:about="">
    <dc:format>image/svg+xml</dc:format>
    <dc:type rdf:resource="http://purl.org/dc/dcmitype/StillImage"/>
    <dc:title/>
   </cc:Work>
  </rdf:RDF>
 </metadata>
 <g fill="#f9eab0">
  <polygon transform="matrix(3.4969519,0,0,3.4969519,454.53799,116.97428)" points=""/>
  <polygon transform="matrix(9.1061708,0,0,9.0930789,1282.4585,1088.9576)" points=""/>
  <polygon transform="matrix(3.4969519,0,0,3.4969519,828.57006,-535.68054)" points=""/>
  <polygon transform="matrix(3.4969519,0,0,3.4969519,-1847.954,290.9635)" points=""/>
 </g>
 <g transform="translate(-664.84965,-16.9212)" letter-spacing="0px" word-spacing="0px">
  <text x="-1222.3983" y="-173.37076" font-family="sans-serif" font-size="10.58333302px" stroke-width=".26458332" style="line-height:1.25" xml:space="preserve"><tspan x="-1222.3983" y="-164.00699" stroke-width=".26458332"/></text>
  <text x="-2245.1282" y="-126.3082" font-family="'SC Gum Kids'" font-size="266.9718323px" stroke-width=".80091542" style="font-feature-settings:normal;font-variant-caps:normal;font-variant-ligatures:normal;font-variant-numeric:normal;line-height:1.25" xml:space="preserve"><tspan x="-2245.1282" y="114.67583" font-family="'SC Gum Kids'" font-size="266.9718323px" stroke-width=".80091542" style="font-feature-settings:normal;font-variant-caps:normal;font-variant-ligatures:normal;font-variant-numeric:normal"/></text>
  <text x="912.07428" y="386.35889" font-family="sans-serif" font-size="10.58333302px" stroke-width=".26458332" style="line-height:1.25" xml:space="preserve"><tspan x="912.07428" y="395.72266" stroke-width=".26458332"/></text>
 </g>
 <polygon transform="matrix(3.4969519,0,0,3.4969519,-1844.8227,325.5531)" points="" fill="#f9eab0"/>
 <g fill="#000000" letter-spacing="0px" word-spacing="0px">
  <text x="-1884.1167" y="-155.70239" font-family="sans-serif" font-size="10.58333302px" stroke-width=".26458332" style="line-height:1.25" xml:space="preserve"><tspan x="-1884.1167" y="-146.33862" stroke-width=".26458332"/></text>
  <text x="-2906.8464" y="-108.63977" font-family="'SC Gum Kids'" font-size="266.9718323px" stroke-width=".80091542" style="font-feature-settings:normal;font-variant-caps:normal;font-variant-ligatures:normal;font-variant-numeric:normal;line-height:1.25" xml:space="preserve"><tspan x="-2906.8464" y="132.34424" font-family="'SC Gum Kids'" font-size="266.9718323px" stroke-width=".80091542" style="font-feature-settings:normal;font-variant-caps:normal;font-variant-ligatures:normal;font-variant-numeric:normal"/></text>
  <text x="250.35588" y="404.02722" font-family="sans-serif" font-size="10.58333302px" stroke-width=".26458332" style="line-height:1.25" xml:space="preserve"><tspan x="250.35588" y="413.39099" stroke-width=".26458332"/></text>
 </g>
 <polygon transform="matrix(3.4969519,0,0,3.4969519,-1995.5073,296.8216)" points="" fill="#f9eab0"/>
 <g fill="#000000" letter-spacing="0px" word-spacing="0px">
  <text x="-2034.8013" y="-184.43384" font-family="sans-serif" font-size="10.58333302px" stroke-width=".26458332" style="line-height:1.25" xml:space="preserve"><tspan x="-2034.8013" y="-175.07007" stroke-width=".26458332"/></text>
  <text x="-3057.531" y="-137.37134" font-family="'SC Gum Kids'" font-size="266.9718323px" stroke-width=".80091542" style="font-feature-settings:normal;font-variant-caps:normal;font-variant-ligatures:normal;font-variant-numeric:normal;line-height:1.25" xml:space="preserve"><tspan x="-3057.531" y="103.61267" font-family="'SC Gum Kids'" font-size="266.9718323px" stroke-width=".80091542" style="font-feature-settings:normal;font-variant-caps:normal;font-variant-ligatures:normal;font-variant-numeric:normal"/></text>
  <text x="99.671333" y="375.29578" font-family="sans-serif" font-size="10.58333302px" stroke-width=".26458332" style="line-height:1.25" xml:space="preserve"><tspan x="99.671333" y="384.65955" stroke-width=".26458332"/></text>
 </g>
 <polygon transform="matrix(3.4969519,0,0,3.4969519,-1995.2633,351.059)" points="" fill="#f9eab0"/>
 <g transform="translate(-11.898241,-382.70925)" letter-spacing="0px" word-spacing="0px">
  <text x="-2022.6592" y="252.51283" font-family="sans-serif" font-size="10.58333302px" stroke-width=".26458332" style="line-height:1.25" xml:space="preserve"><tspan x="-2022.6592" y="261.87659" stroke-width=".26458332"/></text>
  <text x="-3045.3889" y="299.57538" font-family="'SC Gum Kids'" font-size="266.9718323px" stroke-width=".80091542" style="font-feature-settings:normal;font-variant-caps:normal;font-variant-ligatures:normal;font-variant-numeric:normal;line-height:1.25" xml:space="preserve"><tspan x="-3045.3889" y="540.55945" font-family="'SC Gum Kids'" font-size="266.9718323px" stroke-width=".80091542" style="font-feature-settings:normal;font-variant-caps:normal;font-variant-ligatures:normal;font-variant-numeric:normal"/></text>
  <text x="111.81351" y="812.24249" font-family="sans-serif" font-size="10.58333302px" stroke-width=".26458332" style="line-height:1.25" xml:space="preserve"><tspan x="111.81351" y="821.60626" stroke-width=".26458332"/></text>
 </g>
 <polygon transform="matrix(3.4969519,0,0,3.4969519,-2146.4126,299.0589)" points="" fill="#f9eab0"/>
 <g fill="#000000" letter-spacing="0px" word-spacing="0px">
  <text x="-2185.7068" y="-182.19659" font-family="sans-serif" font-size="10.58333302px" stroke-width=".26458332" style="line-height:1.25" xml:space="preserve"><tspan x="-2185.7068" y="-172.83282" stroke-width=".26458332"/></text>
  <text x="-3208.4365" y="-135.13403" font-family="'SC Gum Kids'" font-size="266.9718323px" stroke-width=".80091542" style="font-feature-settings:normal;font-variant-caps:normal;font-variant-ligatures:normal;font-variant-numeric:normal;line-height:1.25" xml:space="preserve"><tspan x="-3208.4365" y="105.84998" font-family="'SC Gum Kids'" font-size="266.9718323px" stroke-width=".80091542" style="font-feature-settings:normal;font-variant-caps:normal;font-variant-ligatures:normal;font-variant-numeric:normal"/></text>
  <text x="-51.233967" y="377.53308" font-family="sans-serif" font-size="10.58333302px" stroke-width=".26458332" style="line-height:1.25" xml:space="preserve"><tspan x="-51.233967" y="386.89685" stroke-width=".26458332"/></text>
 </g>
 <polygon transform="matrix(3.4969519,0,0,3.4969519,-2141.5477,362.3612)" points="" fill="#f9eab0"/>
 <g fill="#000000" letter-spacing="0px" word-spacing="0px">
  <text x="-2180.8418" y="-118.89429" font-family="sans-serif" font-size="10.58333302px" stroke-width=".26458332" style="line-height:1.25" xml:space="preserve"><tspan x="-2180.8418" y="-109.53052" stroke-width=".26458332"/></text>
  <text x="-3203.5715" y="-71.831665" font-family="'SC Gum Kids'" font-size="266.9718323px" stroke-width=".80091542" style="font-feature-settings:normal;font-variant-caps:normal;font-variant-ligatures:normal;font-variant-numeric:normal;line-height:1.25" xml:space="preserve"><tspan x="-3203.5715" y="169.15234" font-family="'SC Gum Kids'" font-size="266.9718323px" stroke-width=".80091542" style="font-feature-settings:normal;font-variant-caps:normal;font-variant-ligatures:normal;font-variant-numeric:normal"/></text>
  <text x="-46.369076" y="440.83533" font-family="sans-serif" font-size="10.58333302px" stroke-width=".26458332" style="line-height:1.25" xml:space="preserve"><tspan x="-46.369076" y="450.1991" stroke-width=".26458332"/></text>
 </g>
 <polygon transform="matrix(3.4969519,0,0,3.4969519,-1847.954,1297.6458)" points="" fill="#f9eab0"/>
 <g fill="#000000" letter-spacing="0px" word-spacing="0px">
  <text x="-1887.2479" y="816.39038" font-family="sans-serif" font-size="10.58333302px" stroke-width=".26458332" style="line-height:1.25" xml:space="preserve"><tspan x="-1887.2479" y="825.75415" stroke-width=".26458332"/></text>
  <text x="-2909.9778" y="863.45288" font-family="'SC Gum Kids'" font-size="266.9718323px" stroke-width=".80091542" style="font-feature-settings:normal;font-variant-caps:normal;font-variant-ligatures:normal;font-variant-numeric:normal;line-height:1.25" xml:space="preserve"><tspan x="-2909.9778" y="1104.437" font-family="'SC Gum Kids'" font-size="266.9718323px" stroke-width=".80091542" style="font-feature-settings:normal;font-variant-caps:normal;font-variant-ligatures:normal;font-variant-numeric:normal"/></text>
  <text x="247.22462" y="1376.1199" font-family="sans-serif" font-size="10.58333302px" stroke-width=".26458332" style="line-height:1.25" xml:space="preserve"><tspan x="247.22462" y="1385.4836" stroke-width=".26458332"/></text>
 </g>
 <polygon transform="matrix(3.4969519,0,0,3.4969519,-1844.8227,1332.2354)" points="" fill="#f9eab0"/>
 <g fill="#000000" letter-spacing="0px" word-spacing="0px">
  <text x="-1884.1167" y="850.97998" font-family="sans-serif" font-size="10.58333302px" stroke-width=".26458332" style="line-height:1.25" xml:space="preserve"><tspan x="-1884.1167" y="860.34375" stroke-width=".26458332"/></text>
  <text x="-2906.8464" y="898.04248" font-family="'SC Gum Kids'" font-size="266.9718323px" stroke-width=".80091542" style="font-feature-settings:normal;font-variant-caps:normal;font-variant-ligatures:normal;font-variant-numeric:normal;line-height:1.25" xml:space="preserve"><tspan x="-2906.8464" y="1139.0266" font-family="'SC Gum Kids'" font-size="266.9718323px" stroke-width=".80091542" style="font-feature-settings:normal;font-variant-caps:normal;font-variant-ligatures:normal;font-variant-numeric:normal"/></text>
  <text x="250.35588" y="1410.7095" font-family="sans-serif" font-size="10.58333302px" stroke-width=".26458332" style="line-height:1.25" xml:space="preserve"><tspan x="250.35588" y="1420.0732" stroke-width=".26458332"/></text>
 </g>
 <polygon transform="matrix(3.4969519,0,0,3.4969519,-1995.5073,1303.5039)" points="" fill="#f9eab0"/>
 <g fill="#000000" letter-spacing="0px" word-spacing="0px">
  <text x="-2034.8013" y="822.24841" font-family="sans-serif" font-size="10.58333302px" stroke-width=".26458332" style="line-height:1.25" xml:space="preserve"><tspan x="-2034.8013" y="831.61218" stroke-width=".26458332"/></text>
  <text x="-3057.531" y="869.31104" font-family="'SC Gum Kids'" font-size="266.9718323px" stroke-width=".80091542" style="font-feature-settings:normal;font-variant-caps:normal;font-variant-ligatures:normal;font-variant-numeric:normal;line-height:1.25" xml:space="preserve"><tspan x="-3057.531" y="1110.2949" font-family="'SC Gum Kids'" font-size="266.9718323px" stroke-width=".80091542" style="font-feature-settings:normal;font-variant-caps:normal;font-variant-ligatures:normal;font-variant-numeric:normal"/></text>
  <text x="99.671333" y="1381.978" font-family="sans-serif" font-size="10.58333302px" stroke-width=".26458332" style="line-height:1.25" xml:space="preserve"><tspan x="99.671333" y="1391.3418" stroke-width=".26458332"/></text>
 </g>
 <polygon transform="matrix(3.4969519,0,0,3.4969519,-1995.2633,1357.7414)" points="" fill="#f9eab0"/>
 <g transform="translate(-11.898241,623.9731)" letter-spacing="0px" word-spacing="0px">
  <text x="-2022.6592" y="252.51283" font-family="sans-serif" font-size="10.58333302px" stroke-width=".26458332" style="line-height:1.25" xml:space="preserve"><tspan x="-2022.6592" y="261.87659" stroke-width=".26458332"/></text>
  <text x="-3045.3889" y="299.57538" font-family="'SC Gum Kids'" font-size="266.9718323px" stroke-width=".80091542" style="font-feature-settings:normal;font-variant-caps:normal;font-variant-ligatures:normal;font-variant-numeric:normal;line-height:1.25" xml:space="preserve"><tspan x="-3045.3889" y="540.55945" font-family="'SC Gum Kids'" font-size="266.9718323px" stroke-width=".80091542" style="font-feature-settings:normal;font-variant-caps:normal;font-variant-ligatures:normal;font-variant-numeric:normal"/></text>
  <text x="111.81351" y="812.24249" font-family="sans-serif" font-size="10.58333302px" stroke-width=".26458332" style="line-height:1.25" xml:space="preserve"><tspan x="111.81351" y="821.60626" stroke-width=".26458332"/></text>
 </g>
 <polygon transform="matrix(3.4969519,0,0,3.4969519,-2146.4126,1305.7412)" points="" fill="#f9eab0"/>
 <g fill="#000000" letter-spacing="0px" word-spacing="0px">
  <text x="-2185.7068" y="824.48572" font-family="sans-serif" font-size="10.58333302px" stroke-width=".26458332" style="line-height:1.25" xml:space="preserve"><tspan x="-2185.7068" y="833.84949" stroke-width=".26458332"/></text>
  <text x="-3208.4365" y="871.54834" font-family="'SC Gum Kids'" font-size="266.9718323px" stroke-width=".80091542" style="font-feature-settings:normal;font-variant-caps:normal;font-variant-ligatures:normal;font-variant-numeric:normal;line-height:1.25" xml:space="preserve"><tspan x="-3208.4365" y="1112.5322" font-family="'SC Gum Kids'" font-size="266.9718323px" stroke-width=".80091542" style="font-feature-settings:normal;font-variant-caps:normal;font-variant-ligatures:normal;font-variant-numeric:normal"/></text>
  <text x="-51.233967" y="1384.2153" font-family="sans-serif" font-size="10.58333302px" stroke-width=".26458332" style="line-height:1.25" xml:space="preserve"><tspan x="-51.233967" y="1393.5791" stroke-width=".26458332"/></text>
 </g>
 <polygon transform="matrix(3.4969519,0,0,3.4969519,-2141.5477,1369.0435)" points="" fill="#f9eab0"/>
 <g transform="translate(633.26801,637.1307)" letter-spacing="0px" word-spacing="0px">
  <text x="-2814.1099" y="250.65732" font-family="sans-serif" font-size="10.58333302px" stroke-width=".26458332" style="line-height:1.25" xml:space="preserve"><tspan x="-2814.1099" y="260.02109" stroke-width=".26458332"/></text>
  <text x="-3836.8396" y="297.71988" font-family="'SC Gum Kids'" font-size="266.9718323px" stroke-width=".80091542" style="font-feature-settings:normal;font-variant-caps:normal;font-variant-ligatures:normal;font-variant-numeric:normal;line-height:1.25" xml:space="preserve"><tspan x="-3836.8396" y="538.70392" font-family="'SC Gum Kids'" font-size="266.9718323px" stroke-width=".80091542" style="font-feature-settings:normal;font-variant-caps:normal;font-variant-ligatures:normal;font-variant-numeric:normal"/></text>
  <text x="-679.63708" y="810.38696" font-family="sans-serif" font-size="10.58333302px" stroke-width=".26458332" style="line-height:1.25" xml:space="preserve"><tspan x="-679.63708" y="819.75073" stroke-width=".26458332"/></text>
 </g>
 <rect x="5.1217259e-5" y="4.280472e-9" width="452.94128" height="218.28125" opacity="0" stroke-width=".4087455"/>
 <g stroke="#9c27b0" stroke-linecap="round" stroke-width="1.32291675">
  <path d="m111.13504 68.89296-89.448762-23.96772 6.25914 42.76465-26.80291 33.90571 89.44876 23.96772z" fill="#fff"/>
  <path d="m341.80635 68.89296 89.44876-23.96772-6.25914 42.76465 26.80291 33.90571-89.44876 23.96772z" fill="#fff"/>
  <path d="m391.83528 78.89429-50.02892-10.00133 20.54376 76.67037 29.48516 12.70596z" fill="#9c27b0"/>
  <path d="m391.83528 78.89429-50.02892-10.00133 20.54376 76.67038 29.48516 12.70596z" fill="url(#pattern19315)"/>
  <path d="m61.106108 78.89429 50.028922-10.00133-20.543762 76.67037-29.48516 12.70596z" fill="#9c27b0"/>
  <path d="m61.10611 78.89429 50.02892-10.00133-20.54376 76.67037-29.48516 12.70596z" fill="url(#pattern46666)"/>
  <path d="m61.106108 78.89429s94.177372 18.67002 165.364592 18.67002 165.36458-18.67002 165.36458-18.67002v79.375s-92.48624 18.67002-165.36458 18.67002-165.364592-18.67002-165.364592-18.67002z" fill="#fff"/>
 </g>
 <g fill="#fff" stroke-width=".26458335" aria-label="Ejercicio">
  <path d="m186.40072 191.70512h2.13596q2.41157 0 2.82498 0.89572 0.20671 0.25839 0.20671 0.62012h0.0689q0 0.89573-2.34267 0.89573-3.03168 0.17225-3.03168 0.48231-0.75792 3.03168-0.75792 7.1658 0 1.10243 0.89572 1.10243h0.62012l2.61827-0.0689q1.01631 0 1.72255 0.96462v0.20671q0 0.60289-4.75423 1.44694-1.10243 0.46509-1.10243 0.75792v2.75608l0.0689 0.75792-0.1378 0.41341q0.24115 0 0.41341 3.44509 0.25838 1.24024 1.24023 1.24024l4.27192 0.34451q0.46509 0.29283 0.96463 0.89572-0.7407 1.03353-2.75608 1.03353l-0.0689 0.0689q-5.09874-0.1378-5.09874-0.82682-0.34451-0.1378-0.55122-0.89572l0.0689-2.82498v-0.34451l-0.2067-9.64627v-3.03168q0-6.66626 1.65364-7.57921 0.39619-0.27561 1.03353-0.27561z" style="font-feature-settings:normal;font-variant-caps:normal;font-variant-ligatures:normal;font-variant-numeric:normal"/>
  <path d="m202.43764 189.70696q1.03353 0 1.03353 1.17134l0.0689 0.82682q-0.43063 0-0.49954 10.30083-0.0517 10.30084-1.49861 12.3679-1.22301 2.75607-2.96278 2.75607h-0.27561q-2.72163 0-4.47863-1.99815l-0.55121-2.20486v-0.27561q0.55121-1.72255 1.24023-1.72255h0.20671q0.39618 0 0.75792 2.34267 0.49954 1.17133 2.48047 1.17133h0.68902q0.18948-0.0344 0.75792-1.17133 0.53399-0.25839 0.96463-1.79145 0.1378 0 0.1378-0.20671 0.34451-3.03168 0.44786-12.05783t0.86128-9.02615q0.34451-0.48232 0.62011-0.48232z" style="font-feature-settings:normal;font-variant-caps:normal;font-variant-ligatures:normal;font-variant-numeric:normal"/>
  <path d="m209.12113 190.75772q1.51584 0 3.5829 1.65364 0.34451 0.62012 0.34451 1.24024 0 3.08336-1.99816 4.27192-2.29099 0.68901-3.7896 0.68901-0.34451 0.36174-0.34451 1.10244v1.17133q0 3.73793 0.96462 8.40603 0 2.51492 1.92926 4.89204 0.60289 0.48231 0.89572 0.48231h0.48231q0.68902-0.25838 1.72255-0.89572l0.41341-0.0689q0.49954 0 0.75792 0.82683 0 1.55029-2.41156 3.10058l-1.10243 0.20671q-0.98185 0-3.4451-2.68718-1.30913-2.04983-1.30913-4.96093-0.89573-4.37528-1.03353-11.16211 0-2.75608 1.92925-6.89019 1.6192-1.37804 2.41157-1.37804zm-1.58475 5.51215 0.34451 0.20671q2.17041 0 2.89388-1.17134 0.20671-0.36173 0.20671-0.68902v-0.2756q0-1.03353-1.30914-1.03353-1.8259 0-2.13596 2.89388z" style="font-feature-settings:normal;font-variant-caps:normal;font-variant-ligatures:normal;font-variant-numeric:normal"/>
  <path d="m222.36752 195.18466q1.65365 0.56845 2.27376 1.79145l0.0689 0.34451q-0.24115 1.30914-1.10243 1.30914-0.51676 0-1.79145-1.17133h-0.55121q-1.56752 0-3.04891 1.60197t-0.43064 9.74962q1.06798 8.14765-0.15503 7.51031l-1.24023 0.0344q-0.67179-0.32729-0.82682-8.21656-0.13781-7.90649-0.46509-12.23009 0-1.10243 1.44694-1.10243 0.89572 0 0.89572 0.82683l-0.0689 1.03353q0.1378 0.31005 0.27561 0.34451h0.27561q1.58474-1.82591 4.44417-1.82591z" style="font-feature-settings:normal;font-variant-caps:normal;font-variant-ligatures:normal;font-variant-numeric:normal"/>
  <path d="m233.2368 190.9472q3.16948 0 3.16948 1.58474v0.0689q0 0.68902-1.10243 0.96463l-2.68717-0.1378q-1.27469 0-1.99816 1.72254-0.72347 0.43064-1.86035 4.20302-0.68902 2.5666-0.68902 4.75423v0.55122q0 1.99815 1.10243 6.20117 0 1.61919 2.48047 3.5829 0.63735 0.34451 1.03353 0.34451h0.55122q0.36173 0 1.37803-0.62012l0.34451-0.0689q0.89573 0.34451 0.89573 1.30914v0.0689q-0.72347 1.92925-3.514 1.92925-0.96462 0-3.44509-2.06706-0.89573-0.96462-1.10243-1.86035-1.92926-5.80498-1.92926-8.81944 0-4.30637 1.79145-9.30176 1.25746-2.46324 2.48047-3.514 1.37804-0.89572 3.10059-0.89572z" style="font-feature-settings:normal;font-variant-caps:normal;font-variant-ligatures:normal;font-variant-numeric:normal"/>
  <path d="m239.21404 190.2065q0.75792 0 1.17133 1.37804-0.34451 1.24023-1.37804 1.24023h-0.2067q-0.75792 0-0.96463-1.17133 0-0.89572 1.30914-1.44694zm0.24116 5.09874q0.75792 0 0.75792 3.16949l0.0689 3.37619q-0.17226 14.64166-0.48232 14.64166-0.75792 0.82682-1.37803 0.82682-0.75792 0-1.03353-1.92925l0.0689-0.0689v-0.0689l0.68902-6.27008 0.1378-6.75238-0.2067-5.1332q0.24115-1.79145 1.37804-1.79145z" style="font-feature-settings:normal;font-variant-caps:normal;font-variant-ligatures:normal;font-variant-numeric:normal"/>
  <path d="m249.29094 190.9472q3.16949 0 3.16949 1.58474v0.0689q0 0.68902-1.10243 0.96463l-2.68717-0.1378q-1.27469 0-1.99816 1.72254-0.72347 0.43064-1.86035 4.20302-0.68902 2.5666-0.68902 4.75423v0.55122q0 1.99815 1.10243 6.20117 0 1.61919 2.48047 3.5829 0.63734 0.34451 1.03353 0.34451h0.55121q0.36174 0 1.37804-0.62012l0.34451-0.0689q0.89573 0.34451 0.89573 1.30914v0.0689q-0.72347 1.92925-3.514 1.92925-0.96463 0-3.4451-2.06706-0.89572-0.96462-1.10243-1.86035-1.92925-5.80498-1.92925-8.81944 0-4.30637 1.79145-9.30176 1.25746-2.46324 2.48047-3.514 1.37803-0.89572 3.10058-0.89572z" style="font-feature-settings:normal;font-variant-caps:normal;font-variant-ligatures:normal;font-variant-numeric:normal"/>
  <path d="m255.26818 190.2065q0.75793 0 1.17134 1.37804-0.34451 1.24023-1.37804 1.24023h-0.20671q-0.75792 0-0.96462-1.17133 0-0.89572 1.30913-1.44694zm0.24116 5.09874q0.75792 0 0.75792 3.16949l0.0689 3.37619q-0.17225 14.64166-0.48231 14.64166-0.75792 0.82682-1.37804 0.82682-0.75792 0-1.03353-1.92925l0.0689-0.0689v-0.0689l0.68901-6.27008 0.13781-6.75238-0.20671-5.1332q0.24116-1.79145 1.37804-1.79145z" style="font-feature-settings:normal;font-variant-caps:normal;font-variant-ligatures:normal;font-variant-numeric:normal"/>
  <path d="m264.58716 194.70235q2.89388 0.56844 2.89388 1.92925 3.01446 4.49585 0.82683 14.81392-1.37804 3.60012-2.48047 4.61642-1.53307 1.92926-3.03169 1.92926-2.32544 0-3.5829-3.03169l-1.17133-5.78776v-1.03353q0-3.47954 1.17133-8.47493 0.18948-0.27561 0.34451-1.24024 1.6192-3.58289 3.10059-3.58289zm-1.30913 2.54937h-0.13781q-0.80959 0-1.10243 1.30914-1.44694 2.65272-1.44694 5.51215-0.2067 0.51677-0.2067 1.79145v2.34267q0 3.04891 1.10243 6.27007 0.51676 1.03353 1.03353 1.03353 0.82682 0 2.34266-1.99816 0.44786 0 1.44694-2.13596 0.41341-1.49861 0.82682-5.71885 0-4.15134-1.10243-6.68349-0.55121-1.49862-0.89572-1.79145z" style="font-feature-settings:normal;font-variant-caps:normal;font-variant-ligatures:normal;font-variant-numeric:normal"/>
 </g>
 <path d="m291.52802 212.11847c-1.29147 1.29147-5.11475-2.63191-6.91868-2.34619-1.80393 0.28571-4.22769 5.19852-5.85504 4.36934-1.62734-0.82917 0.92255-5.67771 0.0934-7.30506-0.82918-1.62735-6.25052-2.41434-5.96481-4.21827 0.28572-1.80393 5.68491-0.87711 6.97638-2.16858s0.36466-6.69067 2.16859-6.97639c1.80393-0.28571 2.59092 5.13563 4.21827 5.96481 1.62735 0.82917 6.47589-1.72072 7.30506-0.0934 0.82918 1.62734-4.08363 4.0511-4.36934 5.85503-0.28572 1.80393 3.63766 5.62721 2.34619 6.91868z" fill="#9c27b0"/>
 <path d="m161.41336 212.11847c1.29147 1.29147 5.11475-2.63191 6.91868-2.34619 1.80393 0.28571 4.22769 5.19852 5.85503 4.36934 1.62735-0.82917-0.92254-5.67771-0.0934-7.30506 0.82918-1.62735 6.25052-2.41434 5.96481-4.21827-0.28572-1.80393-5.68492-0.87711-6.97639-2.16858s-0.36465-6.69067-2.16858-6.97639c-1.80393-0.28571-2.59092 5.13563-4.21827 5.96481-1.62735 0.82917-6.47589-1.72072-7.30507-0.0934-0.82917 1.62734 4.08364 4.0511 4.36935 5.85503 0.28572 1.80393-3.63766 5.62721-2.34619 6.91868z" fill="#9c27b0"/>
 <g fill="#9c27b0" stroke-width=".26458332">
  <g transform="rotate(-.7853657 -2855.806 -342.12742)" style="font-feature-settings:normal;font-variant-caps:normal;font-variant-ligatures:normal;font-variant-numeric:normal" aria-label="Sumas de dos dígitos">
   <path d="m63.481774 152.49779q2.982426 1.17114 6.060759 1.96107 6.159994 1.56385 6.630163-0.37753 0.235085-0.97069-1.543595-1.74133-0.534146-0.24468-4.069221-1.33006-2.875462-0.8815-4.261713-1.77118-1.961185-1.25982-2.018279-3.07675-0.06838-2.88895 0.730359-4.56151 0.779385-1.65987 2.533242-2.29832 3.131307-1.15456 11.110544 0.90423 3.885474 1.00775 5.549292 1.68768l-1.184563 5.21926q-2.969733-1.15179-6.063467-2.02849-6.139402-1.74342-6.553833-0.39215-0.388423 1.30654 2.358241 2.24485 0.857916 0.29522 2.386053 0.66283 1.704381 0.40421 2.05021 0.50949 3.66991 1.07996 4.853177 4.23395 0.553553 1.51894 0.256072 3.11179-0.324108 1.72102-1.593522 3.24566-2.665537 3.25695-10.92296 1.49136-4.127048-0.89081-7.71978-2.42273z" style="font-feature-settings:normal;font-variant-caps:normal;font-variant-ligatures:normal;font-variant-numeric:normal"/>
   <path d="m93.252004 149.1726q0.0011 2.37558-0.357306 4.62202-0.719659 4.50902-2.213879 3.9329-1.494219-0.57611-1.052329-4.63522 0.23566-2.01868 0.858968-4.06945l-5.68288-1.32297q-1.369804 3.66478-1.401563 7.56283-0.09576 7.7905 6.52999 8.94563 6.625748 1.15514 8.744485-6.61489 1.040436-3.8717 0.777879-7.98718z" style="font-feature-settings:normal;font-variant-caps:normal;font-variant-ligatures:normal;font-variant-numeric:normal"/>
   <path d="m120.90347 151.65461q-3.45842-0.55254-5.58208 1.88367-1.20684 1.36238-1.72292 3.20554 0.39037-1.54725-0.1058-3.02499-0.27832-2.52093-2.49985-3.50544-1.80077-0.80757-4.5039 1.06482l0.31498-1.93856-6.01941-0.90842-2.339286 17.33716 5.934316 0.69761 0.93996-4.75807q1.46521-5.64078 3.20002-5.28929 1.85052 0.35179 0.93294 5.41076-0.45069 2.53066-1.27385 5.00716l6.02177 0.89223q0.53902-2.68318 1.36923-5.20826 1.17433-5.0051 2.66536-4.3418 1.50958 0.64947 0.72448 5.47967-0.57789 2.49563-1.44697 4.83316l5.67785 0.52802q1.25062-4.05143 1.64296-8.22768 0.33318-3.65569-0.35086-5.88835-0.84924-2.80238-3.57894-3.24894z" style="font-feature-settings:normal;font-variant-caps:normal;font-variant-ligatures:normal;font-variant-numeric:normal"/>
   <path d="m131.53693 165.97972q-0.54297-0.14641-0.87176-0.43235-0.31254-0.28402-0.31246-0.56413 0.0182-0.29444 0.36244-0.41863 0.39486-0.13469 1.10419-2e-3 0.49805 0.10816 0.76183 0.38643 0.23128 0.27443 0.18053 0.56505-0.0527 0.30686-0.36435 0.43488-0.33178 0.15861-0.86042 0.0304zm5.80875-10.83286q-4.16977-1.24967-7.26056-1.16924-1.55448 0.0474-2.26487 0.3426l0.38492 4.84036q1.87959-0.28916 3.88904-3e-3 4.0189 0.57277 4.62804 3.5117-1.42033-1.09023-3.3312-1.79341-3.85424-1.41019-6.3901 0.53173-1.50411 1.15732-2.02461 2.77666-0.51859 1.60308 0.10243 3.04395 0.65827 1.54413 2.37121 2.38874 1.91654 0.93454 4.78364 0.79478 2.33939-0.13608 3.92108-1.81153l-0.50625 1.91761 5.5418 0.65349q1.39379-3.29594 1.60987-6.94496 0.19493-3.19014-0.8819-5.37682-1.3262-2.72689-4.57254-3.70289z" style="font-feature-settings:normal;font-variant-caps:normal;font-variant-ligatures:normal;font-variant-numeric:normal"/>
   <path d="m145.67324 164.79765q1.4352 0.797 2.57517 1.41736 3.13037 1.9645 3.83881 1.4414 0.26123-0.3199 0.12208-0.58002-0.13916-0.26013-1.5334-0.97095-1.37638-0.72552-3.17624-1.49216-1.79985-0.76664-2.33638-2.18335-0.5087-1.36468 0.16954-2.76209 0.73817-1.50668 2.48807-2.25748 2.02315-0.8558 4.8398-0.40146 2.38004 0.37906 4.66631 1.55463 1.06375 0.72805 1.64045 1.39237l-2.36536 3.02569q-0.88459-0.71066-1.75352-1.07453-2.8274-1.35964-3.10098-0.23532-0.0463 0.30788 0.45795 0.70211 0.52215 0.37952 2.26634 1.04211 1.76207 0.64788 2.83372 1.29449 1.59697 0.99356 1.77818 2.85256 0.19433 1.89316-1.52648 3.69902-1.77806 1.71809-5.70495 1.35325-3.42356-0.29953-8.95421-3.45067z" style="font-feature-settings:normal;font-variant-caps:normal;font-variant-ligatures:normal;font-variant-numeric:normal"/>
   <path d="m177.23987 167.95798q-0.77928 0.1291-1.38043-0.20566-0.50533-0.29565-0.6222-0.76253-0.0821-0.49739 0.34874-0.81343 0.51458-0.34332 1.54545-0.30827 0.47354 0.0312 0.88197 0.30405 0.40735 0.2892 0.51434 0.65704 0.12224 0.38523-0.17685 0.69354-0.31756 0.33989-1.11102 0.43526zm-6.00173-7.23367q-1.74937 1.16403-2.70533 3.47905-0.60553 2.22329 0.0125 4.54352 0.95237 2.47342 2.6746 3.96435 1.95641 1.67033 4.73211 1.60703 2.23255-0.0334 3.44993-0.8389 1.21739-0.80545 1.58051-1.33913l-0.16766 2.5473 6.00385 0.72317 1.29001-21.84138-6.59063-0.77818-0.5449 8.27873q-1.23625-0.90135-3.07302-1.39943-3.67462-0.97985-6.66201 1.05387z" style="font-feature-settings:normal;font-variant-caps:normal;font-variant-ligatures:normal;font-variant-numeric:normal"/>
   <path d="m197.09532 162.98327q1.44999-0.19954 2.07293 0.54802 0.31076 0.39012 0.32584 0.80026l-4.43257 0.23472q-0.052-0.31345 0.16041-0.68102 0.43974-0.70173 1.87339-0.90198zm-0.96713 6.85403q-0.8297-0.51078-1.10438-1.35798-0.14586-0.41578-0.11541-0.74205l11.02659-0.83485q-0.28085-2.22333-1.69542-4.36452-2.86114-4.30013-8.63925-4.00878-3.29955 0.16892-5.3132 2.42434-1.82324 2.01794-2.11857 5.06815-0.30745 2.95142 0.92741 5.46158 1.32521 2.69424 3.87239 3.63943 4.41618 1.66459 8.64413-0.28241 2.12215-0.97315 3.34075-2.26371l-3.35711-3.81376q-0.79661 0.62083-1.88045 1.06547-2.15202 0.90634-3.58748 9e-3z" style="font-feature-settings:normal;font-variant-caps:normal;font-variant-ligatures:normal;font-variant-numeric:normal"/>
   <path d="m223.71387 169.75691q-0.77086 0.17242-1.38976-0.12825-0.52105-0.26698-0.66381-0.72661-0.1097-0.49203 0.30277-0.83163 0.49461-0.37152 1.52583-0.39408 0.47454 5e-3 0.89757 0.25432 0.42287 0.26601 0.55023 0.6273 0.14356 0.37781-0.13785 0.70233-0.29809 0.35709-1.08498 0.49662zm-6.39629-6.88725q-1.68165 1.25989-2.50684 3.62468-0.48044 2.25363 0.26622 4.53573 1.089 2.41639 2.89179 3.80882 2.04663 1.55848 4.81447 1.34029 2.22719-0.15806 3.39771-1.03023 1.17051-0.87217 1.50326-1.4253l-0.0252 2.55269 6.03487 0.38679 0.0684-21.87933-6.6238-0.40896-0.0818 8.29625q-1.28464-0.83091-3.14636-1.22566-3.7236-0.77313-6.59277 1.42423z" style="font-feature-settings:normal;font-variant-caps:normal;font-variant-ligatures:normal;font-variant-numeric:normal"/>
   <path d="m242.46515 169.73488q-0.96562-4e-3 -1.46017-0.2753-0.47798-0.25554-0.48425-0.73006-6e-3 -0.49088 0.43121-0.80761 0.48613-0.36646 1.33699-0.3777 0.89996-0.0119 1.42767 0.29209 0.5275 0.28762 0.53377 0.76214 6e-3 0.45816-0.51324 0.79233-0.50271 0.35031-1.27198 0.34411zm-0.24354-9.76707q-4.10706 0.0542-6.18134 2.84742-1.73671 2.33049-1.6896 5.89758 0.0523 3.95979 1.92614 5.81709 2.07279 2.05106 6.81886 2.05385 3.37138 5e-3 5.59595-2.56148 2.15998-2.49973 2.11352-6.01773-0.0469-3.55072-2.28547-5.76325-2.35463-2.32556-6.29806-2.27348z" style="font-feature-settings:normal;font-variant-caps:normal;font-variant-ligatures:normal;font-variant-numeric:normal"/>
   <path d="m253.53694 169.04253q1.52732 0.60191 2.7388 1.06742 3.36095 1.53704 3.99467 0.92556 0.21703-0.35139 0.045-0.59103-0.17206-0.23963-1.64748-0.76148-1.45964-0.53876-3.34448-1.06276-1.88485-0.52399-2.60253-1.85811-0.68326-1.28619-0.19413-2.76047 0.53422-1.59047 2.17055-2.56426 1.89346-1.11371 4.74536-1.03266 2.4092 0.0637 4.82988 0.92929 1.15004 0.58227 1.80888 1.16523l-1.94817 3.30973q-0.97014-0.58851-1.87928-0.83529-2.98128-0.97713-3.10505 0.17335-6e-3 0.3113 0.54606 0.636 0.56741 0.30777 2.38343 0.73591 1.8318 0.41122 2.979 0.91171 1.71347 0.77556 2.13689 2.59475 0.44091 1.85133-1.02823 3.86725-1.53739 1.93642-5.47822 2.08968-3.43328 0.15201-9.32939-2.24666z" style="font-feature-settings:normal;font-variant-caps:normal;font-variant-ligatures:normal;font-variant-numeric:normal"/>
   <path d="m285.21098 167.98134q-0.7545 0.23382-1.39557-0.0161-0.54082-0.22424-0.72005-0.67091-0.14889-0.48162 0.23495-0.85327 0.46316-0.41007 1.48922-0.51544 0.47338-0.0335 0.91511 0.18137 0.44288 0.23116 0.59886 0.58104 0.17346 0.36505-0.081 0.71114-0.26843 0.3799-1.04157 0.58221zm-6.92911-6.35091q-1.57495 1.39097-2.20742 3.81443-0.29776 2.28496 0.62989 4.49966 1.27968 2.32105 3.18855 3.56409 2.16526 1.38896 4.9066 0.94903 2.20729-0.33655 3.30392-1.29997 1.09663-0.96343 1.38386-1.54151l0.18007 2.54646 6.04644-0.0995-1.69025-21.81405-6.63524 0.12471 0.58525 8.27598q-1.34727-0.72498-3.23469-0.96882-3.77369-0.47137-6.45698 1.94947z" style="font-feature-settings:normal;font-variant-caps:normal;font-variant-ligatures:normal;font-variant-numeric:normal"/>
   <path d="m295.95283 157.5635 1.43319 15.79201 6.71446-0.60937-1.16055-16.04679zm3.47702-8.58058-4.69591 5.83212 1.64281 1.44476 5.78465-4.51782z" style="font-feature-settings:normal;font-variant-caps:normal;font-variant-ligatures:normal;font-variant-numeric:normal"/>
   <path d="m312.6846 161.09142q0.54936 0.0543 0.98302 0.40132 0.43185 0.33077 0.5077 0.7175 0.0813 0.43553-0.32901 0.74449-0.50243 0.36858-1.61202 0.45878-1.10597 0.12273-1.59384-0.26768-0.44993-0.34523-0.29805-0.90541 0.15549-0.52766 0.77358-0.89261 0.68314-0.37217 1.56862-0.25639zm-6.68516 16.91011q7.99237 3.77261 13.41609-0.0234 3.16465-2.63976 3.16017-9.20866 0.36943-5.42493-1.14539-14.92158l-5.91478 0.40937 0.19133 1.57584q-2.0491-1.25444-4.47249-0.98552-3.57816 0.39706-5.62962 2.97914-1.84541 2.36165-1.6597 5.37054 0.15859 3.06129 2.32145 4.89583 2.41764 2.05324 6.35906 1.51708 2.80832-0.36102 4.55782-1.80647 0.41542 1.51804-0.86437 3.93218-1.00684 1.90637-3.39948 2.00723-2.73781 0.10623-5.79522-1.62905z" style="font-feature-settings:normal;font-variant-caps:normal;font-variant-ligatures:normal;font-variant-numeric:normal"/>
   <path d="m324.94083 153.20335q1.61626-0.26079 2.35321-1.31433 0.68266-0.96392 0.45867-2.1724-0.22187-1.19225-1.17805-1.94193-1.03169-0.82234-2.49629-0.66388-1.32068 0.12313-2.06962 1.21125-0.67842 0.99637-0.59622 2.25639 0.10267 1.29035 0.95937 2.03654 0.98514 0.84492 2.56893 0.58836zm2.60213 0.71606-5.12534 0.68651 2.02233 15.97502 5.29047-0.55957z" style="font-feature-settings:normal;font-variant-caps:normal;font-variant-ligatures:normal;font-variant-numeric:normal"/>
   <path d="m332.58748 146.50797 0.61228 5.2526-4.39045 0.40192 0.47799 5.23941 4.49897-0.45108 1.61112 12.33383 5.54697-0.52352-1.66927-12.3914 4.22979-0.59318-0.66085-5.24542-4.22079 0.54223-0.63209-5.05116z" style="font-feature-settings:normal;font-variant-caps:normal;font-variant-ligatures:normal;font-variant-numeric:normal"/>
   <path d="m352.827 159.85533q-0.95399 0.14951-1.48536-0.0403-0.51244-0.17653-0.59386-0.64406-0.0842-0.48364 0.29773-0.86575 0.42188-0.4389 1.26021-0.58488 0.88668-0.1544 1.45592 0.0621 0.56642 0.20035 0.64783 0.66788 0.0786 0.4514-0.38114 0.86367-0.44081 0.42558-1.20133 0.54141zm-1.78884-9.60495q-4.04653 0.70465-5.65177 3.79135-1.3453 2.57634-0.73329 6.09085 0.67938 3.90142 2.82396 5.43818 2.37174 1.69652 7.05823 0.94687 3.32947-0.52995 5.11911-3.41621 1.73639-2.81054 1.13281-6.27669-0.6092-3.49838-3.17022-5.32805-2.69353-1.92287-6.57883-1.2463z" style="font-feature-settings:normal;font-variant-caps:normal;font-variant-ligatures:normal;font-variant-numeric:normal"/>
   <path d="m363.60435 157.40977q1.60553 0.34245 2.87709 0.60233 3.56801 0.9632 4.09251 0.2558 0.15627-0.38231-0.0529-0.59038-0.20914-0.20806-1.7503-0.48008-1.52838-0.2913-3.47375-0.49809-1.94536-0.20679-2.87274-1.40467-0.88554-1.15627-0.6456-2.69093 0.2653-1.65668 1.71914-2.88639 1.68445-1.41002 4.51083-1.79923 2.38686-0.33352 4.91696 0.12209 1.23015 0.38514 1.97592 0.85177l-1.37716 3.58513q-1.05373-0.4209-1.99109-0.51476-3.1014-0.47338-3.03423 0.68179 0.0457 0.30798 0.64325 0.5375 0.61031 0.21024 2.47202 0.3338 1.8745 0.10427 3.0884 0.40923 1.81771 0.48312 2.53463 2.20787 0.73946 1.75357-0.37803 3.98371-1.1979 2.16295-5.05983 2.96241-3.36149 0.71473-9.57188-0.68131z" style="font-feature-settings:normal;font-variant-caps:normal;font-variant-ligatures:normal;font-variant-numeric:normal"/>
  </g>
  <g transform="rotate(-7.6334958,154.4246,-585.69909)" style="font-feature-settings:normal;font-variant-caps:normal;font-variant-ligatures:normal;font-variant-numeric:normal" aria-label="sin llevar">
   <path d="m65.095084 152.19017q1.337001 0.9526 2.400391 1.69663 2.890876 2.30246 3.653399 1.86193 0.295393-0.28866 0.186222-0.56273-0.109171-0.27406-1.415118-1.13643-1.286544-0.87499-2.989305-1.83822-1.702761-0.96324-2.077389-2.43109-0.352793-1.41304 0.477562-2.72577 0.902139-1.41461 2.725062-1.96488 2.106209-0.62402 4.854325 0.14265 2.322678 0.64302 4.463035 2.06705 0.975597 0.84251 1.474339 1.56719l-2.689093 2.74199q-0.799506-0.80518-1.622264-1.264-2.657487-1.6675-3.055161-0.58085-0.0805 0.30076 0.376501 0.74894 0.476401 0.43557 2.135493 1.28918 1.678496 0.84099 2.671064 1.60346 1.475757 1.16603 1.447796 3.03363-0.01874 1.90302-1.930824 3.50497-1.959145 1.50833-5.820548 0.70635-3.36854-0.68076-8.51183-4.43101z" style="font-feature-settings:normal;font-variant-caps:normal;font-variant-ligatures:normal;font-variant-numeric:normal"/>
   <path d="m83.911645 145.52547q1.617276 0.25437 2.645133-0.51801 0.948399-0.70406 1.111026-1.92232 0.159602-1.20217-0.516279-2.21187-0.725078-1.10221-2.166404-1.40672-1.293562-0.29336-2.343554 0.50815-0.954451 0.73623-1.267868 1.95941-0.303388 1.25837 0.279027 2.23384 0.673806 1.10921 2.258919 1.35752zm2.250792 1.48921-5.084932-0.94015-3.041985 15.81256 5.202435 1.11213z" style="font-feature-settings:normal;font-variant-caps:normal;font-variant-ligatures:normal;font-variant-numeric:normal"/>
   <path d="m97.729149 147.90937q-2.948979-0.81521-5.265461 0.21955l0.218229-1.09165-5.041489-1.00391-3.348633 17.30804 6.066414 1.02825 1.11439-6.08501q0.681772-5.29526 3.363038-4.95697 1.982032 0.25296 1.358778 5.79051-0.278947 2.62493-1.149934 5.31549l6.283809 1.21448q1.16251-4.01875 1.27329-8.09958 0.13129-3.71221-0.83073-6.06615-1.21058-2.9438-4.041701-3.57305z" style="font-feature-settings:normal;font-variant-caps:normal;font-variant-ligatures:normal;font-variant-numeric:normal"/>
   <path d="m113.36066 145.75327-3.04132 21.46821 6.65919 0.94338 3.37429-21.71854z" style="font-feature-settings:normal;font-variant-caps:normal;font-variant-ligatures:normal;font-variant-numeric:normal"/>
   <path d="m120.42818 146.75374-2.85001 21.49445 6.66733 0.88404 3.18073-21.74773z" style="font-feature-settings:normal;font-variant-caps:normal;font-variant-ligatures:normal;font-variant-numeric:normal"/>
   <path d="m135.18646 158.02274q1.46074-0.0925 2.02709 0.69879 0.28127 0.4119 0.26618 0.82203l-4.43783-0.0915q-0.0288-0.31642 0.20999-0.6674 0.49009-0.66753 1.93457-0.76195zm-1.46791 6.76449q-0.78994-0.57034-1.00165-1.43542-0.11494-0.42537-0.0606-0.74852l11.05813-0.0227q-0.1168-2.23795-1.37029-4.47725-2.53758-4.49865-8.32149-4.63247-3.30305-0.0739-5.47691 2.02757-1.96652 1.87858-2.48508 4.89886-0.52338 2.92087 0.52379 5.51495 1.12374 2.78428 3.59463 3.914 4.28199 1.98444 8.64152 0.35322 2.1879-0.81465 3.49798-2.01223l-3.06794-4.05002q-0.84005 0.56064-1.95361 0.92448-2.21279 0.74584-3.57847-0.25442z" style="font-feature-settings:normal;font-variant-caps:normal;font-variant-ligatures:normal;font-variant-numeric:normal"/>
   <path d="m153.27177 166.7004-2.9146-10.81473-5.73817 0.70249 4.80326 15.31799 6.26868 0.97547 7.19125-16.29551-5.32533-1.90474z" style="font-feature-settings:normal;font-variant-caps:normal;font-variant-ligatures:normal;font-variant-numeric:normal"/>
   <path d="m169.00969 169.65469q-0.54889-0.1224-0.88994-0.39359-0.32473-0.27-0.33697-0.54984 5e-3 -0.29496 0.34367-0.43417 0.38857-0.15193 1.10305-0.0502 0.50233 0.0862 0.7781 0.35255 0.24312 0.264 0.20521 0.55656-0.0391 0.30888-0.34488 0.45049-0.32448 0.17305-0.85824 0.0682zm5.32666-11.07787q-4.2207-1.06506-7.30496-0.84877-1.55089 0.11571-2.24761 0.44188l0.59744 4.81876q1.86505-0.37156 3.88515-0.17383 4.04021 0.39546 4.77802 3.30475-1.46691-1.0267-3.40686-1.64516-3.91253-1.2393-6.36052 0.81228-1.45175 1.22235-1.90053 2.86301-0.44758 1.62435 0.23621 3.03651 0.72556 1.51368 2.47398 2.28214 1.9558 0.84933 4.81398 0.5836 2.33113-0.23884 3.8376-1.98224l-0.42141 1.93802 5.56517 0.40911q1.24748-3.35405 1.30286-7.00904 0.0544-3.19563-1.11754-5.33283-1.44486-2.66592-4.73098-3.49819z" style="font-feature-settings:normal;font-variant-caps:normal;font-variant-ligatures:normal;font-variant-numeric:normal"/>
   <path d="m186.54313 157.82311-5.23586-0.15605-0.51098 16.78688 5.36857 0.42556 0.16667-6.92332q0.90983-3.44092 4.12542-4.10038 1.60825-0.3379 3.0309 0.0187l0.32911-5.70164q-4.59772-0.13744-7.32139 1.7126z" style="font-feature-settings:normal;font-variant-caps:normal;font-variant-ligatures:normal;font-variant-numeric:normal"/>
  </g>
 </g>
 <g>
  <g transform="matrix(1.5994488,0,0,1.5994488,-168.06654,-121.87584)" fill="#fff" stroke="#9c27b0" stroke-width="1.05833328" style="font-feature-settings:normal;font-variant-caps:normal;font-variant-ligatures:normal;font-variant-numeric:normal" aria-label="53">
   <path d="m250.30328 81.11946 7.2347 0.303168 0.42719-4.065212-11.17589-0.427192 0.17915 8.516276q1.70877-0.35829 3.18327-0.220487 2.949 0.289388 3.0179 2.797418 0.0827 2.52181-2.48047 2.866319-1.28157 0.179145-2.59071-0.151584l-0.24805 4.161675q2.72852 0.330729 5.42947-0.35829 5.38813-1.350477 5.1263-6.380316-0.23426-5.02984-4.21679-6.035807-1.9706-0.633898-3.91363-0.124024z" style="font-feature-settings:normal;font-variant-caps:normal;font-variant-ligatures:normal;font-variant-numeric:normal"/>
   <path d="m259.32943 77.357416 0.12402 4.203016 5.30545-0.124023-4.46484 3.238389q1.22645-0.179145 2.41156 0.137804 2.39779 0.633898 2.32889 3.128147-0.0827 2.508029-2.41157 2.466688-1.17133-0.02756-2.32888-0.551215l-1.08865 4.492404q1.98437 0.633898 4.32704 0.675239 4.64398 0.09646 6.35275-2.824978 2.34267-4.023872-0.0413-6.807509-1.19889-1.391818-2.74229-2.122179l4.76801-5.856662z" style="font-feature-settings:normal;font-variant-caps:normal;font-variant-ligatures:normal;font-variant-numeric:normal"/>
  </g>
  <g transform="matrix(1.5994488,0,0,1.5994488,-168.06654,-121.87584)" fill="#fff" stroke="#9c27b0" stroke-width="1.05833328" style="font-feature-settings:normal;font-variant-caps:normal;font-variant-ligatures:normal;font-variant-numeric:normal" aria-label="24">
   <path d="m257.08323 99.969117q-4.14789-2.52181-7.71701-0.04134-1.79145 1.309133-3.15571 3.238393l2.78364 3.52777q0.35829-0.57877 1.00597-1.07487 1.43316-1.43316 2.8801-1.12999 0.81304 0.17915 0.66145 1.10243-0.12402 0.78548-0.92328 2.05328-1.50206 2.35644-3.66558 3.7896-0.93707 0.79927-1.73633 1.4056l-0.33073 4.87826 11.20345 0.23426 0.0138-4.67154-5.66374 0.26182q2.68718-2.48047 4.60265-5.40191 1.68121-2.54937 1.87413-4.47862 0.26183-2.41157-1.83279-3.693142z" style="font-feature-settings:normal;font-variant-caps:normal;font-variant-ligatures:normal;font-variant-numeric:normal"/>
   <path d="m267.26694 105.68798h-2.8801l0.12402-6.173616-4.75423 0.137804v10.004552l7.24848 0.26183-0.52366 8.03396 4.9885 0.12403 0.39963-18.562176h-4.47862z" style="font-feature-settings:normal;font-variant-caps:normal;font-variant-ligatures:normal;font-variant-numeric:normal"/>
  </g>
  <g transform="matrix(.05489211 0 0 .05489211 185.32012 39.756363)" fill="#ef5350">
   <g fill="#ef5350">
    <g fill="#ef5350">
     <path d="m477.549 182.379h-148.531v-148.532c0-18.69-15.154-33.844-33.844-33.844h-78.954c-18.69 0-33.844 15.153-33.844 33.844v148.526h-148.532c-18.691 0-33.844 15.153-33.844 33.843v78.966c0 18.691 15.153 33.844 33.844 33.844h148.532v148.527c0 18.689 15.153 33.842 33.844 33.842h78.96c18.691 0 33.844-15.152 33.844-33.842v-148.527h148.533c18.689 0 33.842-15.152 33.842-33.844v-78.966c-6e-3 -18.69-15.153-33.837-33.85-33.837z" fill="#ef5350"/>
    </g>
   </g>
  </g>
  <rect x="177.84108" y="71.417351" width="97.259247" height="4.6313925" ry=".70240653" fill="#ef5350"/>
 </g>
</svg>
