<?xml version="1.0" encoding="UTF-8"?>
<!-- Created with Inkscape (http://www.inkscape.org/) -->
<svg width="187.325mm" height="66.145836mm" version="1.1" viewBox="0 0 187.325 66.145837" xmlns="http://www.w3.org/2000/svg" xmlns:cc="http://creativecommons.org/ns#" xmlns:dc="http://purl.org/dc/elements/1.1/" xmlns:rdf="http://www.w3.org/1999/02/22-rdf-syntax-ns#" xmlns:xlink="http://www.w3.org/1999/xlink">
 <defs>
  <linearGradient id="linearGradient70941" x1="80.036751" x2="179.13971" y1="-58.026459" y2="83.426445" gradientTransform="translate(-2.5476959e-4,2.6245117e-6)" gradientUnits="userSpaceOnUse">
   <stop stop-color="#9c27b0" offset="0"/>
   <stop stop-color="#2196f3" offset="1"/>
  </linearGradient>
 </defs>
 <metadata>
  <rdf:RDF>
   <cc:Work rdf:about="">
    <dc:format>image/svg+xml</dc:format>
    <dc:type rdf:resource="http://purl.org/dc/dcmitype/StillImage"/>
    <dc:title/>
   </cc:Work>
  </rdf:RDF>
 </metadata>
 <polygon transform="matrix(3.4969519,0,0,3.4969519,110.31782,748.67566)" points="" fill="#f9eab0"/>
 <polygon transform="matrix(1.7446123,0,0,1.7416956,118.51707,115.07015)" points="" fill="#f9eab0"/>
 <rect y="-1.4210855e-14" width="187.325" height="66.145836" fill="url(#linearGradient70941)"/>
 <g fill="none" stroke="#ffc107" stroke-linecap="round" stroke-linejoin="round" stroke-width="2.64583325">
  <g transform="matrix(.47431711 0 0 .47431711 -6.3083649 24.143941)">
   <path d="m56.57125-16.80094v5.275133"/>
   <path d="m59.208816-14.163374h-5.275133"/>
  </g>
  <g transform="matrix(.47431711 0 0 .47431711 87.987961 59.961578)">
   <path d="m56.57125-16.80094v5.275133"/>
   <path d="m59.208816-14.163374h-5.275133"/>
  </g>
  <g transform="matrix(.38140616 0 0 .38140616 116.56049 17.493438)">
   <path d="m56.57125-16.80094v5.275133"/>
   <path d="m59.208816-14.163374h-5.275133"/>
  </g>
  <g transform="matrix(.38140616 0 0 .38140616 58.5907 25.470268)">
   <path d="m56.57125-16.80094v5.275133"/>
   <path d="m59.208816-14.163374h-5.275133"/>
  </g>
  <g transform="matrix(.41418467 0 0 .41418467 -7.6413331 60.447798)">
   <path d="m56.57125-16.80094v5.275133"/>
   <path d="m59.208816-14.163374h-5.275133"/>
  </g>
  <g transform="matrix(.32565959 0 0 .32565959 153.45076 55.361278)">
   <path d="m56.57125-16.80094v5.275133"/>
   <path d="m59.208816-14.163374h-5.275133"/>
  </g>
  <g transform="matrix(.23274864 0 0 .23274864 161.52365 17.76611)">
   <path d="m56.57125-16.80094v5.275133"/>
   <path d="m59.208816-14.163374h-5.275133"/>
  </g>
  <g transform="matrix(.28849521 0 0 .28849521 163.56216 27.861208)">
   <path d="m56.57125-16.80094v5.275133"/>
   <path d="m59.208816-14.163374h-5.275133"/>
  </g>
  <g transform="matrix(.32565959 0 0 .32565959 -8.0267276 13.214707)">
   <path d="m56.57125-16.80094v5.275133"/>
   <path d="m59.208816-14.163374h-5.275133"/>
  </g>
 </g>
 <g transform="translate(13.02762,75.046213)" fill="#f9eab0">
  <g transform="translate(48.817115,74.298015)">
   <polygon transform="matrix(3.4969519,0,0,3.4969519,113.27756,365.73105)" points=""/>
   <polygon transform="matrix(3.4969519,0,0,3.4969519,342.59567,411.52488)" points=""/>
   <polygon transform="matrix(3.4969519,0,0,3.4969519,289.53119,373.17891)" points=""/>
   <polygon transform="matrix(3.4969519,0,0,3.4969519,300.01292,440.20544)" points=""/>
  </g>
  <polygon transform="matrix(3.4969519,0,0,3.4969519,340.13844,508.97336)" points=""/>
  <polygon transform="matrix(3.4969519,0,0,3.4969519,148.51691,449.56802)" points=""/>
  <polygon transform="matrix(3.4969519,0,0,3.4969519,377.83502,495.36185)" points=""/>
  <polygon transform="matrix(3.4969519,0,0,3.4969519,324.77054,457.01588)" points=""/>
 </g>
 <g transform="matrix(.49548229 0 0 .49628258 28.114321 11.403413)">
  <g transform="translate(61.858247,101.92495)" fill="#f9eab0">
   <polygon transform="matrix(3.4969519,0,0,3.4969519,113.27756,365.73105)" points=""/>
   <polygon transform="matrix(3.4969519,0,0,3.4969519,342.59567,411.52488)" points=""/>
   <polygon transform="matrix(3.4969519,0,0,3.4969519,289.53119,373.17891)" points=""/>
   <polygon transform="matrix(3.4969519,0,0,3.4969519,300.01292,440.20544)" points=""/>
   <polygon transform="matrix(3.4969519,0,0,3.4969519,291.32132,434.67535)" points=""/>
   <polygon transform="matrix(3.4969519,0,0,3.4969519,307.33646,443.60248)" points=""/>
   <polygon transform="matrix(3.4969519,0,0,3.4969519,333.79178,451.09397)" points=""/>
  </g>
  <g transform="matrix(1.1475663,0,0,1.1475663,12.801943,-157.17484)" fill="#fff" stroke="#303f9f" stroke-width=".75379473">
   <path d="m102.39615 194.25717q-3.918053-0.61615-3.462214-5.42451 0.45584-4.80836 10.071894-5.6903l0.91168 5.46076q-4.76461-0.12082-5.11192 1.25645t3.64672 1.58265q3.99403 0.20539 3.9072 5.41243-0.0868 5.20705-10.51688 5.5574l-1.92104-5.71446q5.33984 0.64031 5.87166-0.59198 0.53181-1.24437-3.3971-1.84844z" style="font-feature-settings:normal;font-variant-caps:normal;font-variant-ligatures:normal;font-variant-numeric:normal"/>
   <path d="m117.8513 195.83982 0.39072 4.08348-4.15683 0.80945-1.88848-13.38609 4.62352-2.1988 0.52096 5.79903 4.16769-0.53158 0.0651-5.27953 7.23918 0.80945-2.76761 14.84793-4.65608-1.53433 0.0543-3.85394z" style="font-feature-settings:normal;font-variant-caps:normal;font-variant-ligatures:normal;font-variant-numeric:normal"/>
   <path d="m132.68781 198.52187-0.75973 2.41626-4.27622-2.87535 5.36155-14.03848 4.08086-0.31411 6.41432 14.53381-5.06851 2.69413-1.11789-3.39484zm3.71184-5.29161-1.21557-4.37344-1.43264 4.83253z" style="font-feature-settings:normal;font-variant-caps:normal;font-variant-ligatures:normal;font-variant-numeric:normal"/>
   <path d="m149.92291 196.06937 0.87912 3.61231-5.66544 1.25645-1.07448-16.17687q14.45665-2.59748 15.18381 5.3037 0 6.04065-9.32301 6.00441zm-1.48691-7.15214 0.60779 2.35586q5.8608 0 5.51349-1.71555-0.3473-1.71555-6.12128-0.64031z" style="font-feature-settings:normal;font-variant-caps:normal;font-variant-ligatures:normal;font-variant-numeric:normal"/>
   <path d="m171.28228 181.84966 0.28218 6.4031-6.75077 0.80945 0.0868 1.46183 4.42817-0.45908 0.39072 4.37343-4.62352 0.37452 0.076 1.18397 6.55541-0.55574 0.9768 5.49699-12.92632 0.49534 1.31326-17.43333z" style="font-feature-settings:normal;font-variant-caps:normal;font-variant-ligatures:normal;font-variant-numeric:normal"/>
   <path d="m176.0686 194.25717q-3.91805-0.61615-3.46222-5.42451 0.45584-4.80836 10.0719-5.6903l0.91168 5.46076q-4.76462-0.12082-5.11192 1.25645-0.34731 1.37727 3.64672 1.58265 3.99403 0.20539 3.9072 5.41243-0.0868 5.20705-10.51688 5.5574l-1.92104-5.71446q5.33984 0.64031 5.87165-0.59198 0.53182-1.24437-3.39709-1.84844z" style="font-feature-settings:normal;font-variant-caps:normal;font-variant-ligatures:normal;font-variant-numeric:normal"/>
  </g>
  <rect x=".11408447" y=".1140848" width="264.35516" height="87.084328" ry="3.035013" opacity="0" stroke-width=".22816895"/>
  <g transform="translate(0,-404.75884)" fill="#82d4fa" style="font-feature-settings:normal;font-variant-caps:normal;font-variant-ligatures:normal;font-variant-numeric:normal" aria-label="5">
   <path d="m238.29574 448.57315 22.60844 0.9474 1.33497-12.70379-34.92465-1.33497 0.55983 26.61336q5.33989-1.11966 9.94771-0.68902 9.21563 0.90434 9.43095 8.74193 0.25838 7.88065-7.75147 8.95725-4.00492 0.55982-8.09597-0.4737l-0.77515 13.00523q8.52661 1.03353 16.9671-1.11966 16.8379-4.22024 16.01969-19.93848-0.73208-15.71825-13.17749-18.8619-6.15811-1.98093-12.23009-0.38758z" fill="#82d4fa" stroke-width=".26458335" style="font-feature-settings:normal;font-variant-caps:normal;font-variant-ligatures:normal;font-variant-numeric:normal"/>
  </g>
  <g transform="matrix(1.0944155,0,0,1.0944155,66.499662,-181.70259)" fill="#fff" stroke="#303f9f" stroke-width=".75379473">
   <path d="m73.135554 193.03696q-3.918055 0.60406-3.234295 2.91159l5.719709-0.47117 1.291547 6.93467-13.642644-1.57057q-0.173654-10.41409 3.820374-10.61947t3.646721-1.58265-5.111921-1.25646l0.91168-5.46075q9.616056 0.88194 10.071896 5.6903t-3.473067 5.42451z" style="font-feature-settings:normal;font-variant-caps:normal;font-variant-ligatures:normal;font-variant-numeric:normal"/>
   <path d="m78.290888 200.93813-0.694613-16.91383q14.803951 0 14.803951 8.45692 0 8.45691-14.109338 8.45691zm3.863788-12.43166 0.727174 5.84735q4.699495 0.0242 4.699495-2.9116 0-2.93575-5.426669-2.93575z" style="font-feature-settings:normal;font-variant-caps:normal;font-variant-ligatures:normal;font-variant-numeric:normal"/>
  </g>
  <g transform="matrix(.79946021 0 0 .79946021 107.1158 -11.449447)">
   <g stroke-linecap="round" stroke-width="3.96875">
    <g transform="translate(-142.52222,-91.722223)" fill="#fff" stroke="#ef5350">
     <path d="m66.13164 137.91749 49.15865-21.54484"/>
     <path d="m66.13164 146.41405 49.15865-21.54484"/>
    </g>
    <path d="m-42.58926 54.22298 32.165525 27.6138" fill="none" stroke="#ffc107"/>
    <path d="m-32.575465 49.9747 17.60001 47.6414" fill="none" stroke="#ffc107"/>
   </g>
   <path d="m-74.788888 84.490272c-1.792352 1.996028-51.663302-8.533926-52.495742-11.084162-0.83243-2.550237 33.222251-40.474772 35.847038-39.920564s18.441056 49.008698 16.648704 51.004726z" fill="#29b6f6"/>
   <rect x="-89.840744" y="65.675446" width="50.799999" height="50.799999" ry="3.5593865" fill="#00c853"/>
   <rect x="-49.859257" y="71.319893" width="4.7037039" height="24.459259" ry="2.3518519" fill="#78ffb0"/>
   <rect transform="rotate(-14.854285)" x="-102.83092" y="17.040432" width="4.7037039" height="20.225925" ry="2.3518519" fill="#94dafa"/>
  </g>
 </g>
</svg>
