<?xml version="1.0" encoding="UTF-8"?>
<!-- Created with Inkscape (http://www.inkscape.org/) -->
<svg width="1e3" height="330.15625" version="1.1" viewBox="0 0 264.58333 87.353844" xmlns="http://www.w3.org/2000/svg" xmlns:cc="http://creativecommons.org/ns#" xmlns:dc="http://purl.org/dc/elements/1.1/" xmlns:rdf="http://www.w3.org/1999/02/22-rdf-syntax-ns#">
 <metadata>
  <rdf:RDF>
   <cc:Work rdf:about="">
    <dc:format>image/svg+xml</dc:format>
    <dc:type rdf:resource="http://purl.org/dc/dcmitype/StillImage"/>
    <dc:title/>
   </cc:Work>
  </rdf:RDF>
 </metadata>
 <rect x=".11408447" y=".11408447" width="264.35516" height="87.084328" ry="3.035013" opacity="0" stroke-width=".22816895"/>
 <g fill="#73ffad" style="font-feature-settings:normal;font-variant-caps:normal;font-variant-ligatures:normal;font-variant-numeric:normal" aria-label="1">
  <path d="m252.80249 30.509766-13.95264 0.387573-3.83267 3.14365v13.220553l3.4451-1.593356 0.38757 41.685654h15.0723z" fill="#73ffad" stroke-width=".26458335" style="font-feature-settings:normal;font-variant-caps:normal;font-variant-ligatures:normal;font-variant-numeric:normal"/>
 </g>
 <polygon transform="matrix(3.4969519,0,0,3.4969519,132.20555,473.70658)" points="" fill="#f9eab0"/>
 <g transform="matrix(1.0633553,0,0,1.1533581,118.96551,-59.913173)" fill="#fff" stroke="#00c853" stroke-width=".79374999" style="font-feature-settings:normal;font-variant-caps:normal;font-variant-ligatures:normal;font-variant-numeric:normal" aria-label="Numbers">
  <path d="m6.43785 89.749435 1.1937256 6.909139-6.0168593 1.531345-1.21784131-15.831937 6.04097501-1.049032l5.95657 7.885824 0.07235-7.885824 7.475857-0.771701-2.652723 17.65267-4.78696 0.699354z" style="font-feature-settings:normal;font-variant-caps:normal;font-variant-ligatures:normal;font-variant-numeric:normal"/>
  <path d="m21.377507 82.152999 6.426826 1.254015q-3.207384 9.85125 0.916395 9.959771 4.895481-0.03617 2.833591-10.200928l5.884223-1.856907q2.700955 16.736275-8.717814 16.880969-11.539347-0.108521-7.343221-16.03692z" style="font-feature-settings:normal;font-variant-caps:normal;font-variant-ligatures:normal;font-variant-numeric:normal"/>
  <path d="m57.840396 81.30895 1.012858 15.904284-6.149496 0.518487-0.325561-8.139038-1.241957 5.594835-5.522488 0.771701-2.242758-5.775702 0.807875 6.848849-5.631008 1.157553 0.771701-16.880969 5.534546-0.735527 3.06269 9.646267 3.713813-9.356879z" style="font-feature-settings:normal;font-variant-caps:normal;font-variant-ligatures:normal;font-variant-numeric:normal"/>
  <path d="m64.146646 87.229347q3.737929-0.699354 3.665582-2.122179-0.07235-1.422824-3.822334-0.44614zm0.578776 7.162354q5.462199-0.217041 5.474257-1.905138 0.02412-1.688097-5.655124-1.61575zm-5.245158 3.798218 0.44614-15.614896q8.621352-3.50883 11.852851-0.337619 3.2315 3.17121-0.819932 6.390652 6.149495 1.89308 3.967027 6.185669-2.17041 4.280531-15.446086 3.376194z" style="font-feature-settings:normal;font-variant-caps:normal;font-variant-ligatures:normal;font-variant-numeric:normal"/>
  <path d="m89.046069 79.13854 0.313503 6.390652-7.499972 0.807875 0.09646 1.458998 4.919597-0.458197 0.434082 4.364936-5.136638 0.373793 0.08441 1.181667 7.282932-0.55466 1.085205 5.486315-14.360881 0.494371 1.458998-17.399455z" style="font-feature-settings:normal;font-variant-caps:normal;font-variant-ligatures:normal;font-variant-numeric:normal"/>
  <path d="m97.124824 85.288036 0.16881 3.255615q6.028916 0 6.028916-1.205783 0-1.205784-6.197726-2.049832zm0.807875 11.925198-6.716213 0.940511 1.398708-18.002347q15.530486 1.157552 16.048976 6.221843 0.53055 5.052232-5.34162 6.993544l4.82313 2.61655-4.94371 4.376995-5.655121-6.993545z" style="font-feature-settings:normal;font-variant-caps:normal;font-variant-ligatures:normal;font-variant-numeric:normal"/>
  <path d="m114.13843 91.521936q-4.35288-0.614949-3.84645-5.413967 0.50642-4.799019 11.18967-5.67924l1.01285 5.450141q-5.29339-0.120579-5.67924 1.254014-0.38585 1.374594 4.05144 1.579577 4.43728 0.204983 4.34082 5.40191-0.0965 5.196926-11.68404 5.546603l-2.13424-5.703355q5.93245 0.639065 6.52329-0.590834 0.59083-1.241957-3.7741-1.844849z" style="font-feature-settings:normal;font-variant-caps:normal;font-variant-ligatures:normal;font-variant-numeric:normal"/>
 </g>
 <g transform="translate(-15.200282,-107.23192)">
  <path d="m64.198514 109.36556a20.539663 20.539663 0 0 0 -20.539826 20.53979 20.539663 20.539663 0 0 0 6.627341 15.07561l-6.730859 6.73086a20.539663 20.539663 0 0 0 -3.886248 -0.38005 20.539663 20.539663 0 0 0 -20.539189 20.53916 20.539663 20.539663 0 0 0 20.539189 20.53983 20.539663 20.539663 0 0 0 20.539793 -20.53983 20.539663 20.539663 0 0 0 -11.641378 -18.48381l5.581385-5.58135a20.539663 20.539663 0 0 0 10.049792 2.63937 20.539663 20.539663 0 0 0 10.509208 -2.91901l5.795881 5.79588a20.539663 20.539663 0 0 0 -11.132959 18.25382 20.539663 20.539663 0 0 0 20.539191 20.53916 20.539663 20.539663 0 0 0 20.539785 -20.53916 20.539663 20.539663 0 0 0 -20.539785 -20.53982 20.539663 20.539663 0 0 0 -4.483301 0.52144l-6.918125-6.91812a20.539663 20.539663 0 0 0 6.229896 -14.73398 20.539663 20.539663 0 0 0 -20.539791 -20.53979z" fill="#00c853" stroke-width="1.19979894"/>
  <g fill="#fff" stroke-width=".54055142">
   <circle cx="39.669144" cy="171.87122" r="15.000125"/>
   <circle cx="64.198532" cy="129.9053" r="15.000125"/>
   <circle cx="89.910065" cy="171.57565" r="15.000125"/>
  </g>
  <g transform="matrix(1.199799,0,0,1.199799,-841.04264,-225.14465)" fill="#2196f3">
   <path d="m736.60132 322.19803-4.27285 0.11869-1.17372 0.96271v4.04866l1.05503-0.48795 0.11869 12.7658h4.61573z" stroke-width=".13504311" style="font-feature-settings:normal;font-variant-caps:normal;font-variant-ligatures:normal;font-variant-numeric:normal"/>
   <path d="m749.36321 287.46965 0.11869 4.02228 5.0773-0.11869-4.27285 3.09914q1.17372-0.17144 2.30787 0.13187 2.29468 0.60665 2.22874 2.99364-0.0791 2.40018-2.30787 2.36061-1.12096-0.0264-2.22874-0.52751l-1.04183 4.29923q1.89904 0.60664 4.14097 0.6462 4.44429 0.0923 6.07958-2.7035 2.24192-3.85084-0.0396-6.51478-1.14733-1.33197-2.62437-2.03092l4.56298-5.60481z" stroke-width=".19405742" style="font-feature-settings:normal;font-variant-caps:normal;font-variant-ligatures:normal;font-variant-numeric:normal"/>
   <path d="m780.2356 322.65894q-3.96953-2.41336-7.38517-0.0396-1.71442 1.25284-3.02001 3.09913l2.66394 3.37608q0.34288-0.55388 0.96271-1.02865 1.37153-1.37153 2.75625-1.0814 0.77808 0.17144 0.63301 1.05502-0.11869 0.75171-0.88358 1.96499-1.43747 2.25511-3.50796 3.62665-0.89677 0.76488-1.66166 1.34515l-0.31651 4.66848 10.72169 0.22419 0.0131-4.47066-5.42019 0.25057q2.57162-2.3738 4.40472-5.16962 1.60892-2.43975 1.79355-4.28604 0.25057-2.30786-1.75398-3.53433z" stroke-width=".13504311" style="font-feature-settings:normal;font-variant-caps:normal;font-variant-ligatures:normal;font-variant-numeric:normal"/>
  </g>
  <g fill="none" stroke="#b9ffd6" stroke-linecap="round" stroke-width="2.50637579">
   <path d="m69.253519 113.00561s11.697937 2.29237 12.70864 16.49027"/>
   <path d="m95.049253 155.07722s11.697937 2.29237 12.708637 16.49027"/>
   <path d="m44.671176 155.07722s11.697937 2.29237 12.708637 16.49027"/>
  </g>
 </g>
</svg>
