<?xml version="1.0" encoding="UTF-8" standalone="no"?>
<!-- Created with Inkscape (http://www.inkscape.org/) -->

<svg
   xmlns:dc="http://purl.org/dc/elements/1.1/"
   xmlns:cc="http://creativecommons.org/ns#"
   xmlns:rdf="http://www.w3.org/1999/02/22-rdf-syntax-ns#"
   xmlns:svg="http://www.w3.org/2000/svg"
   xmlns="http://www.w3.org/2000/svg"
   xmlns:sodipodi="http://sodipodi.sourceforge.net/DTD/sodipodi-0.dtd"
   xmlns:inkscape="http://www.inkscape.org/namespaces/inkscape"
   width="512"
   height="512"
   version="1.1"
   viewBox="0 0 135.46667 135.46667"
   id="svg5027"
   sodipodi:docname="Logo.svg"
   inkscape:version="0.92.2 5c3e80d, 2017-08-06">
  <defs
     id="defs5031" />
  <sodipodi:namedview
     pagecolor="#ffffff"
     bordercolor="#666666"
     borderopacity="1"
     objecttolerance="10"
     gridtolerance="10"
     guidetolerance="10"
     inkscape:pageopacity="0"
     inkscape:pageshadow="2"
     inkscape:window-width="1921"
     inkscape:window-height="1034"
     id="namedview5029"
     showgrid="false"
     inkscape:zoom="0.79463383"
     inkscape:cx="202.789"
     inkscape:cy="284.23311"
     inkscape:window-x="0"
     inkscape:window-y="0"
     inkscape:window-maximized="0"
     inkscape:current-layer="svg5027"
     fit-margin-top="0"
     fit-margin-left="0"
     fit-margin-right="0"
     fit-margin-bottom="0" />
  <metadata
     id="metadata4989">
    <rdf:RDF>
      <cc:Work
         rdf:about="">
        <dc:format>image/svg+xml</dc:format>
        <dc:type
           rdf:resource="http://purl.org/dc/dcmitype/StillImage" />
        <dc:title></dc:title>
      </cc:Work>
    </rdf:RDF>
  </metadata>
  <g
     id="g5937"
     transform="translate(-2.6637011,5.9260087)">
    <g
       id="g5916">
      <g
         id="g5896">
        <rect
           y="-5.9260087"
           x="2.6637011"
           height="135.46667"
           width="135.46667"
           id="rect5877"
           style="opacity:0;fill:#008000;fill-opacity:1;stroke:none;stroke-width:3.53782177;stroke-linecap:round;stroke-miterlimit:4;stroke-dasharray:none;stroke-opacity:1" />
        <g
           inkscape:label="Layer 1"
           id="layer1"
           transform="matrix(10.621831,0,0,10.621831,-594.24547,-498.24706)">
          <text
             x="71.955925"
             y="57.819172"
             font-size="10.58333302px"
             letter-spacing="0px"
             word-spacing="0px"
             style="font-size:2.63973093px;line-height:1.25;font-family:sans-serif;letter-spacing:0px;word-spacing:0px;fill:#000000;stroke-width:0.06599327"
             xml:space="preserve"
             id="text4077"><tspan
               style="stroke-width:0.06599327"
               x="71.955925"
               y="57.819172"
               id="tspan4075" /></text>
          <text
             x="123.56664"
             y="77.464844"
             font-size="10.58333302px"
             letter-spacing="0px"
             word-spacing="0px"
             style="font-size:2.63973093px;line-height:1.25;font-family:sans-serif;letter-spacing:0px;word-spacing:0px;fill:#000000;stroke-width:0.06599327"
             xml:space="preserve"
             id="text4081"><tspan
               style="stroke-width:0.06599327"
               x="123.56664"
               y="77.464844"
               id="tspan4079" /></text>
          <g
             id="g4968">
            <rect
               y="46.376728"
               x="56.223251"
               height="12.7"
               width="12.7"
               id="rect4946"
               style="opacity:0;fill:#008000;fill-opacity:1;stroke:none;stroke-width:0.83600181;stroke-linecap:round;stroke-miterlimit:4;stroke-dasharray:none;stroke-opacity:1" />
            <g
               transform="matrix(0.17829357,0,0,0.1759294,50.546255,41.073031)"
               id="g4956">
              <g
                 style="fill:#e91e63"
                 transform="matrix(0.60589536,0,0,0.60589536,115.2062,15.877104)"
                 id="g4073">
                <path
                   inkscape:connector-curvature="0"
                   d="m -74.215624,43.661456 c 0,0 2.778125,-2.778125 1.058334,-4.7625 0,0 0.529165,3.704169 -5.291669,1.190627 -5.820833,-2.513541 -5.55625,4.894792 -5.55625,4.894792 0,0 -0.132291,3.307292 -4.101041,2.910417 0,0 0.926041,1.984375 4.7625,2.38125 0,0 -6.614584,1.719791 2.513541,15.610416 9.128125,13.890625 14.336946,21.31009 6.482292,26.19375 C -86.905145,99.887711 -98.821875,84.275 -92.075,79.644792 c 6.746875,-4.630209 10.583333,2.38125 8.334375,3.571875 -2.248958,1.190625 -3.307292,-0.396875 -2.645834,-1.719792 0,0 -4.101042,5.423958 4.365625,3.175 3.062073,-1.575503 2.294374,-9.748157 -6.482291,-9.392708 -12.345255,0.499974 -8.752594,15.528678 -2.778125,19.579166 7.805208,5.291667 21.844486,4.303032 25.267708,-5.423958 1.947683,-5.534286 2.38125,-11.244792 -5.953125,-20.769792 -7.700168,-8.800192 -11.641667,-12.567708 -9.260417,-19.711458 0,0 3.439584,-2.645833 6.350001,-0.661458 2.910416,1.984375 8.334375,-0.529167 8.863541,-1.058334 0.529167,-0.529166 2.513542,-6.35 0.661458,-6.085416 -1.852083,0.264583 -4.365622,3.968745 -8.86354,2.513539 z"
                   id="path4063" />
                <path
                   inkscape:connector-curvature="0"
                   d="m -80.565624,39.95729 c 0,0 1.455208,-4.497917 -3.571875,-5.953125 -5.027083,-1.455208 -2.645833,-4.233333 -2.645833,-4.233333 0,0 -1.45521,2.381251 5.556248,4.233335 7.011459,1.852083 2.248959,6.879166 2.248959,6.879166 z"
                   id="path4065" />
                <path
                   inkscape:connector-curvature="0"
                   d="m -82.897471,40.949837 c 0,0 -4.813378,1.48104 -5.553898,-4.072858 -0.74052,-5.553898 -4.566538,-3.826018 -4.566538,-3.826018 0,0 3.085498,-0.123418 3.455758,5.06022 0.370259,5.183638 3.208918,5.677317 5.800737,5.430477 2.591819,-0.246839 0.863941,-2.591821 0.863941,-2.591821 z"
                   id="path4067" />
                <path
                   inkscape:connector-curvature="0"
                   d="m -82.285416,62.446873 c 0,0 -12.832291,-2.248958 -14.155208,-16.404167 0,0 -2.24896,-2.381248 -4.630206,-0.661456 0,0 4.23333,-0.132292 2.910413,1.984375 -1.322917,2.116667 -7.805213,2.38125 -7.805213,2.38125 0,0 -10.58333,5.027083 -13.75833,13.758333 0,0 6.08542,-2.910416 5.42396,6.35 0,0 6.87917,-0.926041 9.525,6.35 0,0 6.614583,-8.598958 10.847916,-1.322916 0,0 0.926042,-16.271875 11.773959,-10.583334 10.847916,5.688542 -0.132291,-1.852085 -0.132291,-1.852085 z"
                   id="path4069" />
                <path
                   inkscape:connector-curvature="0"
                   d="m -75.317478,60.381008 c 0,0 12.648817,-3.119764 13.002282,-17.332263 0,0 2.081148,-2.529227 4.574248,-0.976014 0,0 -4.232482,0.157024 -2.768151,2.178438 1.464334,2.021414 7.949569,1.842837 7.949569,1.842837 0,0 10.901835,4.292836 14.665504,12.78696 0,0 -6.269914,-2.488177 -4.977794,6.705476 0,0 -6.926341,-0.454244 -9.069267,6.985451 0,0 -7.186197,-8.127322 -10.912923,-0.579249 0,0 -2.034751,-16.170691 -12.469008,-9.754841 -10.434248,6.415851 -3.698667,-0.401587 -3.698667,-0.401587 z"
                   id="path4071" />
              </g>
              <g
                 aria-label="W"
                 style="font-style:normal;font-weight:normal;font-size:10.58333302px;line-height:1.25;font-family:sans-serif;letter-spacing:0px;word-spacing:0px;fill:#1a1a1a;fill-opacity:1;stroke:none;stroke-width:0.26458332"
                 id="text4165"
                 transform="matrix(8.892916,0,0,4.4644479,-1382.7499,-168.41041)">
                <path
                   d="m 161.01758,59.681773 1.94303,-2.459798 1.72083,2.578654 2.39778,-6.645589 h -2.28409 l -0.93535,2.847371 -0.78548,-1.049032 -0.93534,1.080038 -0.78549,-2.96106 -2.28409,-0.04651 z"
                   style="font-style:normal;font-variant:normal;font-weight:normal;font-stretch:normal;font-size:10.58333302px;font-family:'SC Gum Kids';-inkscape-font-specification:'SC Gum Kids, Normal';font-variant-ligatures:normal;font-variant-caps:normal;font-variant-numeric:normal;font-feature-settings:normal;text-align:start;writing-mode:lr-tb;text-anchor:start;fill:#1a1a1a;stroke-width:0.26458332"
                   id="path4167"
                   inkscape:connector-curvature="0" />
              </g>
            </g>
          </g>
        </g>
      </g>
    </g>
  </g>
</svg>
