<?xml version="1.0" encoding="UTF-8" standalone="no"?>
<!-- Created with Inkscape (http://www.inkscape.org/) -->

<svg
   xmlns:dc="http://purl.org/dc/elements/1.1/"
   xmlns:cc="http://creativecommons.org/ns#"
   xmlns:rdf="http://www.w3.org/1999/02/22-rdf-syntax-ns#"
   xmlns:svg="http://www.w3.org/2000/svg"
   xmlns="http://www.w3.org/2000/svg"
   xmlns:sodipodi="http://sodipodi.sourceforge.net/DTD/sodipodi-0.dtd"
   xmlns:inkscape="http://www.inkscape.org/namespaces/inkscape"
   width="205.71835mm"
   height="134.94653mm"
   viewBox="0 0 205.71835 134.94654"
   version="1.1"
   id="svg8"
   sodipodi:docname="logoW&amp;D.svg"
   inkscape:version="0.92.2 5c3e80d, 2017-08-06">
  <defs
     id="defs2" />
  <sodipodi:namedview
     id="base"
     pagecolor="#ffffff"
     bordercolor="#666666"
     borderopacity="1.0"
     inkscape:pageopacity="0.0"
     inkscape:pageshadow="2"
     inkscape:zoom="0.86748872"
     inkscape:cx="426.20021"
     inkscape:cy="148.8163"
     inkscape:document-units="px"
     inkscape:current-layer="layer1"
     showgrid="false"
     inkscape:snap-global="false"
     inkscape:window-width="1920"
     inkscape:window-height="1031"
     inkscape:window-x="0"
     inkscape:window-y="1"
     inkscape:window-maximized="1"
     fit-margin-top="0"
     fit-margin-left="0"
     fit-margin-right="0"
     fit-margin-bottom="0" />
  <metadata
     id="metadata5">
    <rdf:RDF>
      <cc:Work
         rdf:about="">
        <dc:format>image/svg+xml</dc:format>
        <dc:type
           rdf:resource="http://purl.org/dc/dcmitype/StillImage" />
        <dc:title />
      </cc:Work>
    </rdf:RDF>
  </metadata>
  <g
     inkscape:label="Layer 1"
     inkscape:groupmode="layer"
     id="layer1"
     transform="translate(-2.5079675,-2.4924898)">
    <path
       style="opacity:1;fill:#000000;fill-opacity:0.99607843;stroke:#000000;stroke-width:0.125;stroke-linecap:round;stroke-miterlimit:4;stroke-dasharray:none;stroke-opacity:1"
       d=""
       id="path911"
       inkscape:connector-curvature="0"
       transform="scale(0.26458333)" />
    <text
       xml:space="preserve"
       style="font-style:normal;font-weight:normal;font-size:10.58333302px;line-height:1.25;font-family:sans-serif;letter-spacing:0px;word-spacing:0px;fill:#000000;fill-opacity:1;stroke:none;stroke-width:0.26458332"
       x="123.47852"
       y="100.3698"
       id="text957"><tspan
         sodipodi:role="line"
         id="tspan955"
         x="123.47852"
         y="109.73357"
         style="stroke-width:0.26458332" /></text>
    <text
       id="text1172"
       y="179.13414"
       x="330.39859"
       style="font-style:normal;font-weight:normal;font-size:10.58333302px;line-height:1.25;font-family:sans-serif;letter-spacing:0px;word-spacing:0px;fill:#000000;fill-opacity:1;stroke:none;stroke-width:0.26458332"
       xml:space="preserve"><tspan
         style="stroke-width:0.26458332"
         y="188.49791"
         x="330.39859"
         id="tspan1170"
         sodipodi:role="line" /></text>
    <g
       transform="matrix(1.5854284,0,0,1.5854284,-59.277934,-292.79356)"
       id="g1162">
      <g
         id="g1138"
         transform="matrix(0.81031938,0,0,0.81031938,20.44935,46.834911)">
        <g
           id="g1132">
          <path
             d="m 44.712528,227.15 14.55209,-2.11667 m 0.13205,-0.0263 c 0,0 -9.02168,-2.49877 -13.25411,-4.44951 -4.7102,-2.171 -13.34629,-7.99807 -13.34629,-7.99807 l -0.3556,11.37229 -8.95205,8.5181 c 0,0 8.63608,5.82711 13.34629,7.99807 4.23243,1.95075 13.25411,4.44951 13.25411,4.44951 z"
             style="opacity:1;fill:#fff8e1;fill-opacity:1;stroke:#000000;stroke-width:0.79374999;stroke-linecap:round;stroke-miterlimit:4;stroke-dasharray:none;stroke-opacity:1"
             id="path1126"
             inkscape:connector-curvature="0" />
          <path
             id="path1128"
             style="opacity:1;fill:#fff8e1;fill-opacity:1;stroke:#000000;stroke-width:0.79374999;stroke-linecap:round;stroke-miterlimit:4;stroke-dasharray:none;stroke-opacity:1"
             d="m 161.13125,227.15 -14.55209,-2.11667 m -0.13205,-0.0263 c 0,0 9.02168,-2.49877 13.25411,-4.44951 4.7102,-2.171 13.34629,-7.99807 13.34629,-7.99807 l 0.3556,11.37229 8.95205,8.5181 c 0,0 -8.63608,5.82711 -13.34629,7.99807 -4.23243,1.95075 -13.25411,4.44951 -13.25411,4.44951 z"
             inkscape:connector-curvature="0" />
          <path
             style="opacity:1;fill:#fff8e1;fill-opacity:1;stroke:#000000;stroke-width:0.79374999;stroke-linecap:round;stroke-miterlimit:4;stroke-dasharray:none;stroke-opacity:1"
             d="m 44.450001,227.15001 c 0,0 30.361394,15.55852 59.266669,15.61042 28.82874,0.0518 57.67916,-15.61042 57.67916,-15.61042 v 19.31458 c 0,0 -26.47017,15.48197 -57.67916,15.61042 -28.90587,0.11896 -59.266669,-15.61042 -59.266669,-15.61042 z"
             id="path1130"
             inkscape:connector-curvature="0"
             sodipodi:nodetypes="csccscc" />
        </g>
        <path
           transform="scale(0.26458333)"
           inkscape:connector-curvature="0"
           id="path1134"
           d="m 562.55647,864.97495 c -2.74949,-5.82892 -4.74474,-10.85236 -4.43389,-11.16322 0.51418,-0.51417 36.79835,4.18303 42.479,5.49916 2.3006,0.53302 2.24291,0.64179 -1.30611,2.46254 -4.83338,2.47967 -30.38738,13.79954 -31.15173,13.79954 -0.32351,0 -2.83779,-4.76911 -5.58727,-10.59802 z"
           style="opacity:1;fill:#d81a5f;fill-opacity:0.99607843;stroke:#000000;stroke-width:2;stroke-linecap:round;stroke-miterlimit:4;stroke-dasharray:none;stroke-opacity:1" />
        <path
           transform="scale(0.26458333)"
           inkscape:connector-curvature="0"
           id="path1136"
           d="m 195.69468,868.96317 c -6.875,-3.03253 -14.20617,-6.21723 -16.29148,-7.07712 -2.08532,-0.85989 -3.59094,-1.76399 -3.34583,-2.0091 0.24512,-0.24512 10.4001,-1.89281 22.56664,-3.66155 18.83985,-2.73888 22.03579,-2.98794 21.54668,-1.67916 -3.07875,8.23832 -9.23772,19.97163 -10.47601,19.9576 -0.825,-0.009 -7.125,-2.49815 -14,-5.53067 z"
           style="opacity:1;fill:#d81a5f;fill-opacity:0.99607843;stroke:#000000;stroke-width:2;stroke-linecap:round;stroke-miterlimit:4;stroke-dasharray:none;stroke-opacity:1" />
      </g>
      <path
         style="opacity:1;fill:#000000;fill-opacity:0.99607843;stroke:#000000;stroke-width:0.125;stroke-linecap:round;stroke-miterlimit:4;stroke-dasharray:none;stroke-opacity:1"
         d="m 218.44398,873.76587 c -0.37813,-0.18403 -0.65938,-0.33674 -0.625,-0.33935 0.0344,-0.003 0.32969,-0.0459 0.65625,-0.0963 0.32656,-0.0503 0.6576,-0.092 0.73564,-0.0926 l 0.1419,-10e-4 -0.13224,0.25921 c -0.0867,0.16986 -0.11995,0.32067 -0.0966,0.4375 0.0196,0.0981 0.0293,0.17581 0.0216,0.17277 -0.008,-0.003 -0.32344,-0.15608 -0.70156,-0.34011 z"
         id="path1140"
         inkscape:connector-curvature="0"
         transform="scale(0.26458333)" />
      <path
         style="opacity:1;fill:#000000;fill-opacity:0.99607843;stroke:#000000;stroke-width:0.125;stroke-linecap:round;stroke-miterlimit:4;stroke-dasharray:none;stroke-opacity:1"
         d="m 256.41674,868.74619 c -0.14587,-0.35217 -0.7488,-0.68599 -1.27182,-0.70417 -0.11052,-0.004 0.25923,-0.0757 0.82165,-0.1597 0.56243,-0.084 1.03507,-0.14024 1.05031,-0.125 0.0152,0.0152 -0.0945,0.29005 -0.2438,0.61069 l -0.27151,0.58298 z"
         id="path1142"
         inkscape:connector-curvature="0"
         transform="scale(0.26458333)" />
      <path
         style="opacity:1;fill:#000000;fill-opacity:0.99607843;stroke:#000000;stroke-width:0.125;stroke-linecap:round;stroke-miterlimit:4;stroke-dasharray:none;stroke-opacity:1"
         d="m 247.8346,886.5657 c -0.1289,-0.0529 -0.23348,-0.11344 -0.2324,-0.13455 10e-4,-0.0211 0.12536,-0.11323 0.27615,-0.20469 0.1508,-0.0915 0.42403,-0.34938 0.60718,-0.57315 0.18314,-0.22377 0.34187,-0.39797 0.35273,-0.38711 0.0443,0.0443 -0.63666,1.40733 -0.70032,1.40173 -0.0379,-0.003 -0.17443,-0.0494 -0.30334,-0.10223 z"
         id="path1144"
         inkscape:connector-curvature="0"
         transform="scale(0.26458333)" />
      <path
         style="fill:none;stroke:#000000;stroke-width:0.26458332px;stroke-linecap:butt;stroke-linejoin:miter;stroke-opacity:1"
         d="m 57.546874,230.93684 c -0.318672,0.92003 1.752706,-0.21908 0,0 z"
         id="path1146"
         inkscape:connector-curvature="0" />
      <path
         style="fill:none;stroke:#000000;stroke-width:0.26458332px;stroke-linecap:butt;stroke-linejoin:miter;stroke-opacity:1"
         d="m 65.881249,233.91341 c -0.192373,0.26364 -0.286448,0.3325 -0.529166,0.41341 -0.35622,0.11874 0.4007,0.41341 0.545703,0.41341 0.0078,0 0.03307,-0.24854 0.03307,-0.31419 0,-0.23553 0.365199,-0.46078 -0.04961,-0.51263 z"
         id="path1148"
         inkscape:connector-curvature="0" />
      <path
         style="fill:none;stroke:#000000;stroke-width:0.26458332px;stroke-linecap:butt;stroke-linejoin:miter;stroke-opacity:1"
         d="m 66.377343,233.15273 -0.628385,1.25677"
         id="path1150"
         inkscape:connector-curvature="0" />
      <path
         style="fill:#000000;fill-opacity:0.99607843;stroke:#000000;stroke-width:0.26458332;stroke-linecap:butt;stroke-linejoin:miter;stroke-miterlimit:4;stroke-dasharray:none;stroke-opacity:1"
         d="m 67.601041,229.38242 c -0.353449,-0.14855 -0.431155,0.34726 -0.446485,0.34726 -0.01728,0 0.211799,0.12912 0.264584,0.1819 0.05859,0.0586 0.248047,-0.0994 0.248047,-0.0165 0,0.0261 0.259905,-0.47188 -0.06615,-0.51263 z"
         id="path1152"
         inkscape:connector-curvature="0" />
      <path
         style="fill:#000000;fill-opacity:0.99607843;stroke:#000000;stroke-width:0.26458332px;stroke-linecap:butt;stroke-linejoin:miter;stroke-opacity:1"
         d="m 68.047525,229.33281 c -0.142814,-0.0544 -0.214974,-0.0276 -0.214974,0.14883 0,0.71721 0.640342,0.17134 0.463021,0.0827 -0.05952,-0.0298 -0.17612,-0.1452 -0.248047,-0.23151 z"
         id="path1154"
         inkscape:connector-curvature="0" />
      <path
         style="fill:#000000;fill-opacity:0.99607843;stroke:#000000;stroke-width:0.26458332px;stroke-linecap:butt;stroke-linejoin:miter;stroke-opacity:1"
         d="m 139.46291,229.39083 c -0.0204,0.26566 0.1314,0.47327 0.25724,0.72497 0.28574,0.57147 0.24228,-0.21048 0.43265,-0.21048 1.1104,0 0.30403,-0.63873 -0.68989,-0.51449 z"
         id="path1156"
         inkscape:connector-curvature="0" />
      <path
         style="fill:#000000;fill-opacity:0.99607843;stroke:#000000;stroke-width:0.26458332px;stroke-linecap:butt;stroke-linejoin:miter;stroke-opacity:1"
         d="m 149.49554,230.9577 c 0.21188,0.0852 0.18073,0.54055 0.26894,0.58465 0.78737,0.39368 0.49369,-1.22018 -0.26894,-0.58465 z"
         id="path1158"
         inkscape:connector-curvature="0" />
      <path
         style="fill:#000000;fill-opacity:0.99607843;stroke:#000000;stroke-width:0.26458332px;stroke-linecap:butt;stroke-linejoin:miter;stroke-opacity:1"
         d="m 142.08215,234.51238 c -0.0582,-0.0373 -0.21048,-0.0539 -0.21048,0.0234 0,0.79475 0.97582,0.41102 0.72497,0.3274 -0.21006,-0.07 -0.41815,-0.23517 -0.51449,-0.35079 z"
         id="path1160"
         inkscape:connector-curvature="0" />
    </g>
    <g
       transform="matrix(0.70064479,0,0,0.70064479,160.57823,-18.305967)"
       id="g5383"
       style="fill:#e91d63;fill-opacity:0.96078431">
      <g
         id="g5377"
         style="fill:#e91d63;fill-opacity:0.96078431">
        <path
           sodipodi:nodetypes="ccscccssssccsssscscsc"
           inkscape:connector-curvature="0"
           id="path5371"
           d="m -74.215624,43.661456 c 0,0 2.778125,-2.778125 1.058334,-4.7625 0,0 0.529165,3.704169 -5.291669,1.190627 -5.820833,-2.513541 -5.55625,4.894792 -5.55625,4.894792 0,0 -0.132291,3.307292 -4.101041,2.910417 0,0 0.926041,1.984375 4.7625,2.38125 0,0 -6.614584,1.719791 2.513541,15.610416 9.128125,13.890625 14.336946,21.31009 6.482292,26.19375 C -86.905145,99.887711 -98.821875,84.275 -92.075,79.644792 c 6.746875,-4.630209 10.583333,2.38125 8.334375,3.571875 -2.248958,1.190625 -3.307292,-0.396875 -2.645834,-1.719792 0,0 -4.101042,5.423958 4.365625,3.175 3.062073,-1.575503 2.294374,-9.748157 -6.482291,-9.392708 -12.345255,0.499974 -8.752594,15.528678 -2.778125,19.579166 7.805208,5.291667 21.844486,4.303032 25.267708,-5.423958 1.947683,-5.534286 2.38125,-11.244792 -5.953125,-20.769792 -7.700168,-8.800192 -11.641667,-12.567708 -9.260417,-19.711458 0,0 3.439584,-2.645833 6.350001,-0.661458 2.910416,1.984375 8.334375,-0.529167 8.863541,-1.058334 0.529167,-0.529166 2.513542,-6.35 0.661458,-6.085416 -1.852083,0.264583 -4.365622,3.968745 -8.86354,2.513539 z"
           style="opacity:1;fill:#e91d63;fill-opacity:0.96078431;stroke:#d81b5f;stroke-width:0.26458332;stroke-linecap:round;stroke-miterlimit:4;stroke-dasharray:none;stroke-opacity:1" />
        <path
           inkscape:connector-curvature="0"
           id="path5373"
           d="m -80.565624,39.95729 c 0,0 1.455208,-4.497917 -3.571875,-5.953125 -5.027083,-1.455208 -2.645833,-4.233333 -2.645833,-4.233333 0,0 -1.45521,2.381251 5.556248,4.233335 7.011459,1.852083 2.248959,6.879166 2.248959,6.879166 z"
           style="opacity:1;fill:#e91d63;fill-opacity:0.96078431;stroke:#d81b5f;stroke-width:0.26458332;stroke-linecap:round;stroke-miterlimit:4;stroke-dasharray:none;stroke-opacity:1" />
        <path
           inkscape:connector-curvature="0"
           id="path5375"
           d="m -82.897471,40.949837 c 0,0 -4.813378,1.48104 -5.553898,-4.072858 -0.74052,-5.553898 -4.566538,-3.826018 -4.566538,-3.826018 0,0 3.085498,-0.123418 3.455758,5.06022 0.370259,5.183638 3.208918,5.677317 5.800737,5.430477 2.591819,-0.246839 0.863941,-2.591821 0.863941,-2.591821 z"
           style="opacity:1;fill:#e91d63;fill-opacity:0.96078431;stroke:#d81b5f;stroke-width:0.2468399;stroke-linecap:round;stroke-miterlimit:4;stroke-dasharray:none;stroke-opacity:1" />
      </g>
      <path
         style="opacity:1;fill:#e91d63;fill-opacity:0.96078431;stroke:#d81b5f;stroke-width:0.26458332;stroke-linecap:round;stroke-miterlimit:4;stroke-dasharray:none;stroke-opacity:1"
         d="m -82.285416,62.446873 c 0,0 -12.832291,-2.248958 -14.155208,-16.404167 0,0 -2.24896,-2.381248 -4.630206,-0.661456 0,0 4.23333,-0.132292 2.910413,1.984375 -1.322917,2.116667 -7.805213,2.38125 -7.805213,2.38125 0,0 -10.58333,5.027083 -13.75833,13.758333 0,0 6.08542,-2.910416 5.42396,6.35 0,0 6.87917,-0.926041 9.525,6.35 0,0 6.614583,-8.598958 10.847916,-1.322916 0,0 0.926042,-16.271875 11.773959,-10.583334 10.847916,5.688542 -0.132291,-1.852085 -0.132291,-1.852085 z"
         id="path5379"
         inkscape:connector-curvature="0" />
      <path
         inkscape:connector-curvature="0"
         id="path5381"
         d="m -75.317478,60.381008 c 0,0 12.648817,-3.119764 13.002282,-17.332263 0,0 2.081148,-2.529227 4.574248,-0.976014 0,0 -4.232482,0.157024 -2.768151,2.178438 1.464334,2.021414 7.949569,1.842837 7.949569,1.842837 0,0 10.901835,4.292836 14.665504,12.78696 0,0 -6.269914,-2.488177 -4.977794,6.705476 0,0 -6.926341,-0.454244 -9.069267,6.985451 0,0 -7.186197,-8.127322 -10.912923,-0.579249 0,0 -2.034751,-16.170691 -12.469008,-9.754841 -10.434248,6.415851 -3.698667,-0.401587 -3.698667,-0.401587 z"
         style="opacity:1;fill:#e91d63;fill-opacity:0.96078431;stroke:#d81b5f;stroke-width:0.26458332;stroke-linecap:round;stroke-miterlimit:4;stroke-dasharray:none;stroke-opacity:1"
         sodipodi:nodetypes="cccscccccscc" />
    </g>
    <g
       aria-label="WIZARDS"
       style="font-style:normal;font-weight:normal;font-size:10.58333302px;line-height:1.25;font-family:sans-serif;letter-spacing:0px;word-spacing:0px;fill:#000000;fill-opacity:1;stroke:none;stroke-width:0.26458332"
       id="text5387"
       transform="matrix(1.5854284,0,0,1.5854284,-60.927476,-21.318845)">
      <path
         inkscape:connector-curvature="0"
         d="m 78.65477,59.721672 2.590712,-3.279731 2.294433,3.438205 3.197049,-8.860785 h -3.045465 l -1.247124,3.796495 -1.047309,-1.398709 -1.247125,1.44005 -1.047309,-3.948079 -3.045464,-0.06201 z"
         style="font-style:normal;font-variant:normal;font-weight:normal;font-stretch:normal;font-size:14.11111069px;font-family:'SC Gum Kids';-inkscape-font-specification:'SC Gum Kids, Normal';font-variant-ligatures:normal;font-variant-caps:normal;font-variant-numeric:normal;font-feature-settings:normal;text-align:start;writing-mode:lr-tb;text-anchor:start;stroke-width:0.26458332"
         id="path5753" />
      <path
         inkscape:connector-curvature="0"
         d="m 90.058036,50.847106 -3.169488,0.04823 0.04823,8.936578 3.024794,0.04823 z"
         style="font-style:normal;font-variant:normal;font-weight:normal;font-stretch:normal;font-size:14.11111069px;font-family:'SC Gum Kids';-inkscape-font-specification:'SC Gum Kids, Normal';font-variant-ligatures:normal;font-variant-caps:normal;font-variant-numeric:normal;font-feature-settings:normal;text-align:start;writing-mode:lr-tb;text-anchor:start;stroke-width:0.26458332"
         id="path5755" />
      <path
         inkscape:connector-curvature="0"
         d="m 90.650592,50.709302 -0.0689,2.487359 4.416613,-0.08957 -4.802463,6.724826 8.536946,0.04823 v -2.280653 l -4.016981,0.04823 3.941189,-6.938422 z"
         style="font-style:normal;font-variant:normal;font-weight:normal;font-stretch:normal;font-size:14.11111069px;font-family:'SC Gum Kids';-inkscape-font-specification:'SC Gum Kids, Normal';font-variant-ligatures:normal;font-variant-caps:normal;font-variant-numeric:normal;font-feature-settings:normal;text-align:start;writing-mode:lr-tb;text-anchor:start;stroke-width:0.26458332"
         id="path5757" />
      <path
         inkscape:connector-curvature="0"
         d="m 101.94362,50.847106 -2.797422,9.03304 2.632052,-0.0069 0.53744,-1.646756 2.68717,0.02756 0.34451,1.598524 2.84565,0.01378 -2.1773,-8.991699 z m 1.12999,5.098741 0.85438,-2.604492 0.57878,2.645833 z"
         style="font-style:normal;font-variant:normal;font-weight:normal;font-stretch:normal;font-size:14.11111069px;font-family:'SC Gum Kids';-inkscape-font-specification:'SC Gum Kids, Normal';font-variant-ligatures:normal;font-variant-caps:normal;font-variant-numeric:normal;font-feature-settings:normal;text-align:start;writing-mode:lr-tb;text-anchor:start;stroke-width:0.26458332"
         id="path5759" />
      <path
         inkscape:connector-curvature="0"
         d="m 111.08001,52.962394 q 0.51676,-0.0069 1.04042,0.05512 1.0473,0.117133 1.10243,0.454753 0.0482,0.330729 -1.04042,0.399631 -0.54433,0.03445 -1.10243,0.0069 z m 3.59668,2.735406 q 1.79145,-0.72347 1.79145,-2.618272 0,-2.17041 -3.99632,-2.452908 -1.99126,-0.137804 -3.98942,0.151584 l 0.0896,9.067491 2.21175,-0.04134 0.0413,-3.513997 q 0.70969,-0.02756 1.61919,-0.117134 l 1.76389,3.720703 h 2.48736 z"
         style="font-style:normal;font-variant:normal;font-weight:normal;font-stretch:normal;font-size:14.11111069px;font-family:'SC Gum Kids';-inkscape-font-specification:'SC Gum Kids, Normal';font-variant-ligatures:normal;font-variant-caps:normal;font-variant-numeric:normal;font-feature-settings:normal;text-align:start;writing-mode:lr-tb;text-anchor:start;stroke-width:0.26458332"
         id="path5761" />
      <path
         inkscape:connector-curvature="0"
         d="m 116.76442,50.881557 q 1.93614,-0.172255 3.96875,0.268717 1.77767,0.392741 2.83186,1.233344 1.30914,1.047309 1.39871,2.742296 0.16537,3.024794 -3.63113,4.189236 -1.8948,0.585667 -4.09966,0.564996 z m 2.69406,6.366536 q 3.27284,-0.523654 2.82498,-2.418457 -0.90951,-1.860351 -3.02479,-1.371148 z"
         style="font-style:normal;font-variant:normal;font-weight:normal;font-stretch:normal;font-size:14.11111069px;font-family:'SC Gum Kids';-inkscape-font-specification:'SC Gum Kids, Normal';font-variant-ligatures:normal;font-variant-caps:normal;font-variant-numeric:normal;font-feature-settings:normal;text-align:start;writing-mode:lr-tb;text-anchor:start;stroke-width:0.26458332"
         id="path5763" />
      <path
         inkscape:connector-curvature="0"
         d="m 125.70788,57.248093 q 1.32981,0.227376 2.66651,0.289388 2.67339,0.117133 2.70095,-0.72347 0.0138,-0.420302 -0.78548,-0.585666 -0.24116,-0.05512 -1.79145,-0.199816 -1.26091,-0.117133 -1.90858,-0.36518 -0.9164,-0.351399 -1.09554,-1.09554 -0.27561,-1.185113 -0.0896,-1.943034 0.17915,-0.751031 0.8475,-1.164442 1.192,-0.744141 4.65777,-0.578776 1.68809,0.08268 2.43223,0.220486 l -0.0413,2.253092 q -1.32291,-0.220486 -2.67339,-0.316948 -2.68029,-0.192926 -2.73541,0.399631 -0.0482,0.571885 1.16444,0.72347 0.37897,0.04823 1.04042,0.0689 0.73725,0.02067 0.88884,0.03445 1.60541,0.130913 2.36333,1.329806 0.35829,0.578776 0.37207,1.260905 0.0138,0.737251 -0.37896,1.474501 -0.81993,1.570964 -4.37527,1.550293 -1.77767,-0.01378 -3.38997,-0.337619 z"
         style="font-style:normal;font-variant:normal;font-weight:normal;font-stretch:normal;font-size:14.11111069px;font-family:'SC Gum Kids';-inkscape-font-specification:'SC Gum Kids, Normal';font-variant-ligatures:normal;font-variant-caps:normal;font-variant-numeric:normal;font-feature-settings:normal;text-align:start;writing-mode:lr-tb;text-anchor:start;stroke-width:0.26458332"
         id="path5765" />
    </g>
    <g
       aria-label="&amp;"
       style="font-style:normal;font-weight:normal;font-size:10.58333302px;line-height:1.25;font-family:sans-serif;letter-spacing:0px;word-spacing:0px;fill:#e91d63;fill-opacity:0.96078431;stroke:none;stroke-width:0.26458332"
       id="text5402"
       transform="matrix(1.5854284,0,0,1.5854284,-60.927487,-21.013846)">
      <path
         inkscape:connector-curvature="0"
         d="m 104.49495,65.035367 q -0.13781,0 -0.20671,0.06201 -0.003,0.0034 -0.003,0.0069 -0.007,0.01378 -0.007,0.04823 -0.003,0.113688 0.0689,0.299723 0.0413,0.110243 0.11024,0.241157 0.12747,-0.106798 0.2136,-0.206706 0.15158,-0.179145 0.15158,-0.282498 0,-0.01722 -0.007,-0.03445 -0.0172,-0.02411 -0.0517,-0.05168 -0.10335,-0.08268 -0.26527,-0.08268 z m -0.54777,2.321995 q -0.0896,0.141249 -0.093,0.292833 0,0.248047 0.20326,0.447862 0.2136,0.210151 0.49609,0.210151 0.23427,-0.0034 0.45476,-0.155029 -0.48921,-0.537435 -0.85094,-1.016303 -0.13436,0.103352 -0.21015,0.220486 z m 0.60633,1.991265 q -0.70969,0 -1.22301,-0.506429 -0.51331,-0.506429 -0.51676,-1.192003 0,-0.461643 0.26183,-0.861274 0.19292,-0.292833 0.50643,-0.520209 -0.11369,-0.210151 -0.18948,-0.406522 -0.15503,-0.38585 -0.15503,-0.709689 0,-0.241157 0.0827,-0.444418 0.0965,-0.230821 0.28594,-0.396186 0.36863,-0.316948 0.88884,-0.316948 0.36518,0 0.68902,0.161919 0.35829,0.186035 0.54088,0.509874 0.1378,0.248047 0.1378,0.537435 0,0.492649 -0.40308,0.957737 -0.17914,0.21015 -0.42719,0.406521 0.16537,0.217041 0.36174,0.447862 0.12057,0.144694 0.25493,0.296278 0.18259,-0.37896 0.31351,-0.868164 l 1.00252,0.268718 q -0.22049,0.823378 -0.56155,1.395264 0.22738,0.230821 0.40997,0.403076 0.0207,0.01722 0.031,0.02411 l -0.70624,0.764812 q 0.007,0.01033 -0.11369,-0.106798 -0.14469,-0.137804 -0.29283,-0.285943 -0.54777,0.440972 -1.17134,0.440972 z"
         style="font-style:normal;font-variant:normal;font-weight:normal;font-stretch:normal;font-size:7.05555534px;font-family:'SC Gum Kids';-inkscape-font-specification:'SC Gum Kids, Normal';font-variant-ligatures:normal;font-variant-caps:normal;font-variant-numeric:normal;font-feature-settings:normal;text-align:start;writing-mode:lr-tb;text-anchor:start;fill:#e91d63;fill-opacity:0.96078431;stroke-width:0.26458332"
         id="path5768" />
    </g>
    <path
       style="opacity:1;fill:#d81b5f;fill-opacity:1;stroke:#000000;stroke-width:0.41947791;stroke-linecap:round;stroke-miterlimit:4;stroke-dasharray:none;stroke-opacity:1"
       d="m 67.115813,122.70483 76.502637,0.0242"
       id="path5404"
       inkscape:connector-curvature="0" />
    <path
       inkscape:connector-curvature="0"
       id="path5406"
       d="m 74.674997,137.19359 61.384263,0.0503"
       style="opacity:1;fill:#d81b5f;fill-opacity:1;stroke:#000000;stroke-width:0.39020875;stroke-linecap:round;stroke-miterlimit:4;stroke-dasharray:none;stroke-opacity:1" />
    <g
       aria-label="A C A D E M Y"
       style="font-style:normal;font-variant:normal;font-weight:normal;font-stretch:normal;font-size:7.05555534px;line-height:1.25;font-family:sans-serif;-inkscape-font-specification:'sans-serif, Normal';font-variant-ligatures:normal;font-variant-caps:normal;font-variant-numeric:normal;font-feature-settings:normal;text-align:start;letter-spacing:0px;word-spacing:0px;writing-mode:lr-tb;text-anchor:start;fill:#000000;fill-opacity:1;stroke:none;stroke-width:0.26458332"
       id="text5410"
       transform="matrix(1.5854284,0,0,1.5854284,-60.927476,-21.318845)">
      <path
         inkscape:connector-curvature="0"
         d="m 94.102666,96.691562 -0.172881,1.082387 h -0.740382 l 0.800515,-4.709133 h 0.977154 l 0.78924,4.709133 h -0.744141 l -0.169122,-1.082387 z m 0.37207,-2.548117 -0.26308,1.856593 h 0.52616 z"
         style="font-style:normal;font-variant:normal;font-weight:normal;font-stretch:normal;font-size:5.29166651px;font-family:Bebas;-inkscape-font-specification:'Bebas, Normal';font-variant-ligatures:normal;font-variant-caps:normal;font-variant-numeric:normal;font-feature-settings:normal;text-align:start;writing-mode:lr-tb;text-anchor:start;stroke-width:0.26458332"
         id="path5771" />
      <path
         inkscape:connector-curvature="0"
         d="m 97.861892,97.834081 q -0.469786,0 -0.800515,-0.326971 -0.326971,-0.330729 -0.326971,-0.796756 v -2.570668 q 0,-0.469786 0.330729,-0.796756 0.330729,-0.33073 0.796757,-0.33073 0.469785,0 0.796756,0.33073 0.326971,0.330729 0.326971,0.796756 v 0.537435 h -0.736624 v -0.552468 q 0,-0.169123 -0.120265,-0.289388 Q 98.008465,93.715 97.839342,93.715 q -0.169123,0 -0.289388,0.120265 -0.116507,0.120265 -0.116507,0.289388 v 2.578184 q 0,0.169123 0.116507,0.289388 0.120265,0.116507 0.289388,0.116507 0.169123,0 0.289388,-0.116507 0.120265,-0.120265 0.120265,-0.289388 v -0.650183 h 0.736624 v 0.6577 q 0,0.469786 -0.330729,0.796756 -0.330729,0.326971 -0.792998,0.326971 z"
         style="font-style:normal;font-variant:normal;font-weight:normal;font-stretch:normal;font-size:5.29166651px;font-family:Bebas;-inkscape-font-specification:'Bebas, Normal';font-variant-ligatures:normal;font-variant-caps:normal;font-variant-numeric:normal;font-feature-settings:normal;text-align:start;writing-mode:lr-tb;text-anchor:start;stroke-width:0.26458332"
         id="path5773" />
      <path
         inkscape:connector-curvature="0"
         d="m 100.87228,96.691562 -0.17288,1.082387 h -0.740385 l 0.800515,-4.709133 h 0.97715 l 0.78924,4.709133 h -0.74414 l -0.16912,-1.082387 z m 0.37207,-2.548117 -0.26308,1.856593 h 0.52616 z"
         style="font-style:normal;font-variant:normal;font-weight:normal;font-stretch:normal;font-size:5.29166651px;font-family:Bebas;-inkscape-font-specification:'Bebas, Normal';font-variant-ligatures:normal;font-variant-caps:normal;font-variant-numeric:normal;font-feature-settings:normal;text-align:start;writing-mode:lr-tb;text-anchor:start;stroke-width:0.26458332"
         id="path5775" />
      <path
         inkscape:connector-curvature="0"
         d="m 105.73644,96.646463 q 0,0.466027 -0.32697,0.796757 -0.32697,0.330729 -0.78924,0.330729 h -1.11621 v -4.712891 h 1.11621 q 0.46603,0 0.78924,0.330729 0.32697,0.330729 0.32697,0.792999 z m -1.52211,0.424686 h 0.42845 q 0.16912,0 0.28563,-0.120265 0.11651,-0.124023 0.11651,-0.289388 v -2.465435 q 0,-0.169123 -0.12027,-0.289388 -0.11651,-0.120266 -0.28187,-0.120266 h -0.42845 z"
         style="font-style:normal;font-variant:normal;font-weight:normal;font-stretch:normal;font-size:5.29166651px;font-family:Bebas;-inkscape-font-specification:'Bebas, Normal';font-variant-ligatures:normal;font-variant-caps:normal;font-variant-numeric:normal;font-feature-settings:normal;text-align:start;writing-mode:lr-tb;text-anchor:start;stroke-width:0.26458332"
         id="path5777" />
      <path
         inkscape:connector-curvature="0"
         d="m 106.70796,97.773949 v -4.712891 h 2.02195 v 0.710316 h -1.31164 v 1.289092 h 0.95837 v 0.714075 h -0.95837 v 1.289092 h 1.31164 v 0.710316 z"
         style="font-style:normal;font-variant:normal;font-weight:normal;font-stretch:normal;font-size:5.29166651px;font-family:Bebas;-inkscape-font-specification:'Bebas, Normal';font-variant-ligatures:normal;font-variant-caps:normal;font-variant-numeric:normal;font-feature-settings:normal;text-align:start;writing-mode:lr-tb;text-anchor:start;stroke-width:0.26458332"
         id="path5779" />
      <path
         inkscape:connector-curvature="0"
         d="m 110.41551,97.773949 h -0.71032 v -4.712891 h 1.0185 l 0.66145,3.378699 0.63515,-3.378699 h 0.98092 v 4.712891 h -0.71032 v -2.96153 l -0.61636,2.96153 h -0.57126 l -0.68776,-2.954013 z"
         style="font-style:normal;font-variant:normal;font-weight:normal;font-stretch:normal;font-size:5.29166651px;font-family:Bebas;-inkscape-font-specification:'Bebas, Normal';font-variant-ligatures:normal;font-variant-caps:normal;font-variant-numeric:normal;font-feature-settings:normal;text-align:start;writing-mode:lr-tb;text-anchor:start;stroke-width:0.26458332"
         id="path5781" />
      <path
         inkscape:connector-curvature="0"
         d="m 114.92451,95.800849 -0.95085,-2.739791 h 0.78173 l 0.52616,1.691229 0.5224,-1.691229 h 0.78548 l -0.95461,2.739791 v 1.9731 h -0.71031 z"
         style="font-style:normal;font-variant:normal;font-weight:normal;font-stretch:normal;font-size:5.29166651px;font-family:Bebas;-inkscape-font-specification:'Bebas, Normal';font-variant-ligatures:normal;font-variant-caps:normal;font-variant-numeric:normal;font-feature-settings:normal;text-align:start;writing-mode:lr-tb;text-anchor:start;stroke-width:0.26458332"
         id="path5783" />
    </g>
    <text
       xml:space="preserve"
       style="font-style:normal;font-weight:normal;font-size:16.77911758px;line-height:1.25;font-family:sans-serif;letter-spacing:0px;word-spacing:0px;fill:#000000;fill-opacity:1;stroke:none;stroke-width:0.41947791"
       x="103.62695"
       y="132.94238"
       id="text5418"><tspan
         sodipodi:role="line"
         id="tspan5416"
         x="103.62695"
         y="147.78796"
         style="stroke-width:0.41947791" /></text>
    <path
       sodipodi:type="star"
       style="opacity:1;fill:#e91d63;fill-opacity:0.96078431;stroke:none;stroke-width:0.35356328;stroke-linecap:round;stroke-miterlimit:4;stroke-dasharray:none;stroke-opacity:1"
       id="path5420"
       sodipodi:sides="5"
       sodipodi:cx="79.386055"
       sodipodi:cy="130.36571"
       sodipodi:r1="3.5438163"
       sodipodi:r2="1.293493"
       sodipodi:arg1="0.94531129"
       sodipodi:arg2="1.5736298"
       inkscape:flatsided="false"
       inkscape:rounded="0"
       inkscape:randomized="0"
       d="m 81.460926,133.23861 -2.078536,-1.57941 -2.087453,1.5676 0.859805,-2.46487 -2.13594,-1.50087 2.609925,0.056 0.767369,-2.49519 0.753217,2.4995 2.610201,-0.0412 -2.144412,1.48874 z"
       inkscape:transform-center-x="-0.0019521248"
       inkscape:transform-center-y="-0.21158585" />
    <path
       inkscape:transform-center-y="-0.21158585"
       inkscape:transform-center-x="-0.0019521248"
       d="m 133.41339,133.23861 -2.07854,-1.57941 -2.08745,1.5676 0.8598,-2.46487 -2.13594,-1.50087 2.60993,0.056 0.76737,-2.49519 0.75321,2.4995 2.61021,-0.0412 -2.14442,1.48874 z"
       inkscape:randomized="0"
       inkscape:rounded="0"
       inkscape:flatsided="false"
       sodipodi:arg2="1.5736298"
       sodipodi:arg1="0.94531129"
       sodipodi:r2="1.293493"
       sodipodi:r1="3.5438163"
       sodipodi:cy="130.36571"
       sodipodi:cx="131.33852"
       sodipodi:sides="5"
       id="path5426"
       style="opacity:1;fill:#e91d63;fill-opacity:0.96078431;stroke:none;stroke-width:0.35356328;stroke-linecap:round;stroke-miterlimit:4;stroke-dasharray:none;stroke-opacity:1"
       sodipodi:type="star" />
    <g
       id="g2288">
      <path
         d="m 60.104063,90.33602 q 2.956815,0.695353 5.755557,2.347787 2.444237,1.455679 3.595271,3.220436 1.427708,2.196603 0.728135,4.755057 -1.24024,4.56842 -7.444122,4.43128 -3.098522,-0.0618 -6.359221,-1.17529 z m 0.869802,10.7677 q 5.112349,0.83055 5.378543,-2.200296 -0.43556,-3.206458 -3.813793,-3.51961 z"
         style="font-style:normal;font-variant:normal;font-weight:normal;font-stretch:normal;font-size:26.01668549px;line-height:1.25;font-family:'SC Gum Kids';-inkscape-font-specification:'SC Gum Kids, Normal';font-variant-ligatures:normal;font-variant-caps:normal;font-variant-numeric:normal;font-feature-settings:normal;text-align:start;letter-spacing:0px;word-spacing:0px;writing-mode:lr-tb;text-anchor:start;fill:#000000;fill-opacity:1;stroke:none;stroke-width:0.55127031"
         id="path2243"
         inkscape:connector-curvature="0" />
      <path
         d="m 76.128946,98.64295 q 0.788458,0.17478 1.562694,0.456823 1.550943,0.55361 1.513748,1.086887 -0.04521,0.52032 -1.72572,0.23484 -0.840257,-0.14274 -1.679244,-0.38474 z m 4.489847,5.44988 q 2.984116,-0.45816 3.663391,-3.34011 0.77808,-3.301149 -5.198951,-5.163476 -2.979269,-0.923453 -6.122165,-1.199626 l -3.114403,13.823582 3.378848,0.73001 1.322625,-5.32989 q 1.089304,0.2125 2.504753,0.40231 l 1.348987,6.29145 3.783221,0.8917 z"
         style="font-style:normal;font-variant:normal;font-weight:normal;font-stretch:normal;font-size:26.01668549px;line-height:1.25;font-family:'SC Gum Kids';-inkscape-font-specification:'SC Gum Kids, Normal';font-variant-ligatures:normal;font-variant-caps:normal;font-variant-numeric:normal;font-feature-settings:normal;text-align:start;letter-spacing:0px;word-spacing:0px;writing-mode:lr-tb;text-anchor:start;fill:#000000;fill-opacity:1;stroke:none;stroke-width:0.55127031"
         id="path2245"
         inkscape:connector-curvature="0" />
      <path
         d="m 89.747387,98.613881 -6.237991,13.395709 4.076754,0.54489 1.179718,-2.43629 4.15483,0.60987 0.196006,2.54777 4.40311,0.62198 -1.473265,-14.381737 z m 0.673386,8.133069 1.872616,-3.85228 0.33767,4.2188 z"
         style="font-style:normal;font-variant:normal;font-weight:normal;font-stretch:normal;font-size:26.01668549px;line-height:1.25;font-family:'SC Gum Kids';-inkscape-font-specification:'SC Gum Kids, Normal';font-variant-ligatures:normal;font-variant-caps:normal;font-variant-numeric:normal;font-feature-settings:normal;text-align:start;letter-spacing:0px;word-spacing:0px;writing-mode:lr-tb;text-anchor:start;fill:#000000;fill-opacity:1;stroke:none;stroke-width:0.55127031"
         id="path2247"
         inkscape:connector-curvature="0" />
      <path
         d="m 112.34964,105.90536 -6.84922,-0.41252 -0.34192,3.10272 3.211,0.32366 q -0.9918,1.44566 -2.61819,1.43939 -1.33547,-0.008 -2.28802,-0.92042 -0.85833,-0.82317 -1.16385,-2.1143 -0.30617,-1.26962 0.0718,-2.36766 0.39173,-1.19457 1.4298,-1.68012 2.05463,-0.97175 4.00675,0.0139 0.97606,0.49282 1.53696,1.1777 l 2.09024,-2.5003 q -0.45622,-0.58476 -1.37488,-1.19432 -1.83766,-1.208368 -4.15964,-1.365007 -2.26883,-0.133482 -4.43795,1.416487 -2.621137,1.89172 -2.806192,5.15001 -0.188321,3.3659 1.761802,5.48253 1.71043,1.85082 4.20429,2.02345 2.27894,0.15534 3.46084,-0.45511 0.58019,-0.30556 0.71945,-0.63526 l -0.0349,1.15154 3.22666,0.16255 0.24224,-5.85259 z"
         style="font-style:normal;font-variant:normal;font-weight:normal;font-stretch:normal;font-size:26.01668549px;line-height:1.25;font-family:'SC Gum Kids';-inkscape-font-specification:'SC Gum Kids, Normal';font-variant-ligatures:normal;font-variant-caps:normal;font-variant-numeric:normal;font-feature-settings:normal;text-align:start;letter-spacing:0px;word-spacing:0px;writing-mode:lr-tb;text-anchor:start;fill:#000000;fill-opacity:1;stroke:none;stroke-width:0.55127031"
         id="path2249"
         inkscape:connector-curvature="0" />
      <path
         d="m 121.46081,108.46991 q -1.63287,0.1123 -2.53941,-0.66681 -0.86009,-0.73969 -0.97537,-2.14545 -0.11793,-1.43796 0.56477,-2.46622 0.74004,-1.11941 2.16727,-1.23644 1.54525,-0.12672 2.53307,0.72133 0.94225,0.81939 1.05665,2.21442 0.11353,1.3843 -0.66576,2.42049 -0.80881,1.07101 -2.14122,1.15868 z m -1.18628,-10.381768 q -3.57343,0.293046 -5.21129,2.847278 -1.36997,2.13253 -1.11652,5.22305 0.28337,3.45538 2.02678,4.95448 1.91757,1.64687 6.04355,1.37333 2.93308,-0.19732 4.71555,-2.56896 1.735,-2.29211 1.48419,-5.35043 -0.25344,-3.09052 -2.34431,-4.874419 -2.1855,-1.884176 -5.59795,-1.604329 z"
         style="font-style:normal;font-variant:normal;font-weight:normal;font-stretch:normal;font-size:26.01668549px;line-height:1.25;font-family:'SC Gum Kids';-inkscape-font-specification:'SC Gum Kids, Normal';font-variant-ligatures:normal;font-variant-caps:normal;font-variant-numeric:normal;font-feature-settings:normal;text-align:start;letter-spacing:0px;word-spacing:0px;writing-mode:lr-tb;text-anchor:start;fill:#000000;fill-opacity:1;stroke:none;stroke-width:0.55127031"
         id="path2251"
         inkscape:connector-curvature="0" />
      <path
         d="m 137.56329,95.169516 1.50689,8.559754 -6.45176,-7.425958 -3.75831,0.753233 2.67031,13.652425 4.23551,-0.78299 -1.30561,-6.89802 5.64873,5.88483 4.30098,-0.78513 -2.6091,-13.730575 z"
         style="font-style:normal;font-variant:normal;font-weight:normal;font-stretch:normal;font-size:26.01668549px;line-height:1.25;font-family:'SC Gum Kids';-inkscape-font-specification:'SC Gum Kids, Normal';font-variant-ligatures:normal;font-variant-caps:normal;font-variant-numeric:normal;font-feature-settings:normal;text-align:start;letter-spacing:0px;word-spacing:0px;writing-mode:lr-tb;text-anchor:start;fill:#000000;fill-opacity:1;stroke:none;stroke-width:0.55127031"
         id="path2253"
         inkscape:connector-curvature="0" />
      <path
         d="m 146.66404,102.17628 q 2.08695,-0.29842 4.105,-0.84612 4.03279,-1.10566 3.67134,-2.369254 -0.18072,-0.631808 -1.4488,-0.495138 -0.38512,0.03348 -2.76046,0.560426 -1.9317,0.429418 -3.01387,0.37053 -1.53139,-0.08399 -2.15413,-1.105148 -0.97734,-1.630917 -1.06347,-2.8474 -0.0931,-1.202932 0.70318,-2.137859 1.41687,-1.677589 6.6514,-3.090843 2.55065,-0.685187 3.72354,-0.836459 l 1.01717,3.371294 q -2.07341,0.305371 -4.12843,0.808423 -4.07932,0.996208 -3.87763,1.904031 0.20205,0.873779 2.07848,0.518691 0.5868,-0.109682 1.58062,-0.395608 1.10657,-0.322208 1.33865,-0.374281 2.45075,-0.573857 4.15214,0.846654 0.81004,0.689409 1.15711,1.697485 0.37346,1.090069 0.14221,2.374766 -0.46755,2.72937 -5.76606,4.40074 -2.65091,0.83056 -5.20427,1.12075 z"
         style="font-style:normal;font-variant:normal;font-weight:normal;font-stretch:normal;font-size:26.01668549px;line-height:1.25;font-family:'SC Gum Kids';-inkscape-font-specification:'SC Gum Kids, Normal';font-variant-ligatures:normal;font-variant-caps:normal;font-variant-numeric:normal;font-feature-settings:normal;text-align:start;letter-spacing:0px;word-spacing:0px;writing-mode:lr-tb;text-anchor:start;fill:#000000;fill-opacity:1;stroke:none;stroke-width:0.55127031"
         id="path2255"
         inkscape:connector-curvature="0" />
    </g>
    <path
       style="opacity:0;fill:#e91c63;fill-opacity:0.96078431;stroke:none;stroke-width:0.26458335;stroke-linecap:round;stroke-miterlimit:4;stroke-dasharray:none;stroke-opacity:1"
       d="m 30.248113,98.093727 c 0,0 74.462237,43.614473 150.240697,0"
       id="path2112"
       inkscape:connector-curvature="0" />
  </g>
</svg>
