<?xml version="1.0" encoding="UTF-8"?>
<!-- Created with Inkscape (http://www.inkscape.org/) -->
<svg width="658.49695" height="591.0271" version="1.1" viewBox="0 0 174.22731 156.37593" xmlns="http://www.w3.org/2000/svg" xmlns:cc="http://creativecommons.org/ns#" xmlns:dc="http://purl.org/dc/elements/1.1/" xmlns:rdf="http://www.w3.org/1999/02/22-rdf-syntax-ns#">
 <metadata>
  <rdf:RDF>
   <cc:Work rdf:about="">
    <dc:format>image/svg+xml</dc:format>
    <dc:type rdf:resource="http://purl.org/dc/dcmitype/StillImage"/>
    <dc:title/>
   </cc:Work>
  </rdf:RDF>
 </metadata>
 <g transform="matrix(.34680809 0 0 .34680809 -121.63806 30.150278)">
  <circle transform="scale(-1,1)" cx="-543.45386" cy="16.708469" r="103.64496" fill="#2b398f" stroke-width="1.54749382"/>
  <circle transform="scale(-1,1)" cx="-758.56262" cy="179.46431" r="94.547157" fill="#3647b3" stroke-width="1.55846941"/>
  <circle transform="scale(-1,1)" cx="-711.13074" cy="49.50425" r="87.433418" fill="#303f9f" stroke-width="1.18520558"/>
  <ellipse transform="scale(-1,1)" cx="-645.66321" cy="172.87349" rx="87.771858" ry="104.46548" fill="#293688" stroke-width="1.57838845"/>
  <circle transform="scale(-1,1)" cx="-473.86432" cy="194.75903" r="123.12839" fill="#3343aa" stroke-width="1.83839548"/>
  <g fill="#1e2864">
   <circle transform="scale(-1,1)" cx="-801.37067" cy="213.94966" r="4.853334"/>
   <circle transform="scale(-1,1)" cx="-671.61957" cy="6.6452551" r="5.0960007"/>
   <circle transform="scale(-1,1)" cx="-537.50806" cy="-24.538406" r="10.677335"/>
  </g>
  <circle transform="scale(-1,1)" cx="-787.6297" cy="107.70219" r="14.074669" fill="#232f74"/>
  <g fill="#1e2864">
   <circle transform="scale(-1,1)" cx="-428.19565" cy="217.05621" r="14.074669"/>
   <circle transform="scale(-1,1)" cx="-508.78305" cy="-20.225891" r="7.5226674"/>
   <circle transform="scale(-1,1)" cx="-508.54034" cy="-40.367226" r="5.8240004"/>
  </g>
  <circle transform="scale(-1,1)" cx="-803.64569" cy="81.705406" r="7.2800012" fill="#232f74"/>
  <circle transform="scale(-1,1)" cx="-821.78284" cy="94.915016" r="5.0960007" fill="#232f74"/>
  <g fill="#1e2864">
   <circle transform="scale(-1,1)" cx="-696.09113" cy="-12.507591" r="11.648002"/>
   <circle transform="scale(-1,1)" cx="-401.28586" cy="198.21646" r="8.4933348"/>
   <circle transform="scale(-1,1)" cx="-404.98236" cy="226.47781" r="6.3093343"/>
   <circle transform="scale(-1,1)" cx="-779.02509" cy="251.00352" r="6.552001"/>
   <circle transform="scale(-1,1)" cx="-802.80646" cy="246.15019" r="11.890669"/>
  </g>
  <g fill="#ffc107">
   <g transform="matrix(-.71875 0 0 .71875 818.47 68.976182)">
    <rect x="120.36269" y="145.09064" width="3.8826673" height="15.530669" ry="1.9413337"/>
    <rect transform="rotate(90)" x="150.91464" y="-130.06937" width="3.8826673" height="15.530669" ry="1.9413337"/>
   </g>
   <g transform="matrix(-.5625 0 0 .5625 814.42215 -67.174754)">
    <rect x="120.36269" y="145.09064" width="3.8826673" height="15.530669" ry="1.9413337"/>
    <rect transform="rotate(90)" x="150.91464" y="-130.06937" width="3.8826673" height="15.530669" ry="1.9413337"/>
   </g>
   <g transform="matrix(-.5625 0 0 .5625 555.18905 22.890052)">
    <rect x="120.36269" y="145.09064" width="3.8826673" height="15.530669" ry="1.9413337"/>
    <rect transform="rotate(90)" x="150.91464" y="-130.06937" width="3.8826673" height="15.530669" ry="1.9413337"/>
   </g>
   <g transform="matrix(-.5625 0 0 .5625 590.09612 105.13417)">
    <rect x="120.36269" y="145.09064" width="3.8826673" height="15.530669" ry="1.9413337"/>
    <rect transform="rotate(90)" x="150.91464" y="-130.06937" width="3.8826673" height="15.530669" ry="1.9413337"/>
   </g>
   <g transform="matrix(-.375 0 0 .375 446.85983 82.363008)">
    <rect x="120.36269" y="145.09064" width="3.8826673" height="15.530669" ry="1.9413337"/>
    <rect transform="rotate(90)" x="150.91464" y="-130.06937" width="3.8826673" height="15.530669" ry="1.9413337"/>
   </g>
   <g transform="matrix(-.46875 0 0 .46875 623.61705 1.1523667)">
    <rect x="120.36269" y="145.09064" width="3.8826673" height="15.530669" ry="1.9413337"/>
    <rect transform="rotate(90)" x="150.91464" y="-130.06937" width="3.8826673" height="15.530669" ry="1.9413337"/>
   </g>
   <g transform="matrix(-.375 0 0 .375 867.84111 177.90918)">
    <rect x="120.36269" y="145.09064" width="3.8826673" height="15.530669" ry="1.9413337"/>
    <rect transform="rotate(90)" x="150.91464" y="-130.06937" width="3.8826673" height="15.530669" ry="1.9413337"/>
   </g>
   <g transform="matrix(-.375 0 0 .375 498.88342 134.44341)">
    <rect x="120.36269" y="145.09064" width="3.8826673" height="15.530669" ry="1.9413337"/>
    <rect transform="rotate(90)" x="150.91464" y="-130.06937" width="3.8826673" height="15.530669" ry="1.9413337"/>
   </g>
   <g transform="matrix(-.375 0 0 .375 866.53391 61.574177)">
    <rect x="120.36269" y="145.09064" width="3.8826673" height="15.530669" ry="1.9413337"/>
    <rect transform="rotate(90)" x="150.91464" y="-130.06937" width="3.8826673" height="15.530669" ry="1.9413337"/>
   </g>
   <g transform="matrix(-.375 0 0 .375 722.7433 29.858659)">
    <rect x="120.36269" y="145.09064" width="3.8826673" height="15.530669" ry="1.9413337"/>
    <rect transform="rotate(90)" x="150.91464" y="-130.06937" width="3.8826673" height="15.530669" ry="1.9413337"/>
   </g>
  </g>
  <ellipse cx="598.09637" cy="298.19064" rx="167.67813" ry="65.773331" fill="#64dd17"/>
  <rect x="547.29285" y="298.47717" width="116.74095" height="25.855377" ry="12.927689" fill="#56be14"/>
  <rect x="459.72949" y="279.73691" width="34.256954" height="15.571344" ry="7.7856722" fill="#56be14"/>
  <rect x="486.82361" y="273.50836" width="25.537003" height="12.457075" ry="6.2285376" fill="#56be14"/>
  <rect x="475.09622" y="242.0385" width="13.319438" height="44.659294" ry="6.659719" fill="#761e85"/>
  <rect x="492.86862" y="247.4749" width="10.968948" height="33.690342" ry="5.4844742" fill="#8c239e"/>
  <rect x="465.84055" y="261.73413" width="10.968948" height="29.772861" ry="5.4844685" fill="#9c27b0"/>
  <g fill="#d37be2">
   <rect x="483.48526" y="245.74736" width="3.205152" height="18.773033" ry="1.602576"/>
   <rect x="499.05313" y="250.09721" width="3.205152" height="11.446972" ry="1.602576"/>
   <rect x="471.58041" y="264.97827" width="3.205152" height="11.446972" ry="1.602576"/>
  </g>
  <g transform="matrix(-.5625 0 0 .5625 652.80424 -108.28473)" fill="#ffc107">
   <rect x="120.36269" y="145.09064" width="3.8826673" height="15.530669" ry="1.9413337"/>
   <rect transform="rotate(90)" x="150.91464" y="-130.06937" width="3.8826673" height="15.530669" ry="1.9413337"/>
  </g>
  <g transform="matrix(-.71875 0 0 .71875 554.03737 -125.51405)" fill="#ffc107">
   <rect x="120.36269" y="145.09064" width="3.8826673" height="15.530669" ry="1.9413337"/>
   <rect transform="rotate(90)" x="150.91464" y="-130.06937" width="3.8826673" height="15.530669" ry="1.9413337"/>
  </g>
  <rect transform="scale(-1,1)" x="-753.75134" y="279.60513" width="25.854912" height="11.752234" ry="5.8761168" fill="#56be14"/>
  <rect transform="scale(-1,1)" x="-733.30243" y="274.90421" width="19.273663" height="9.4017868" ry="4.7008934" fill="#56be14"/>
  <rect transform="scale(-1,1)" x="-742.1535" y="251.15283" width="10.052642" height="33.705917" ry="5.0263209" fill="#751d84"/>
  <rect transform="scale(-1,1)" x="-728.34265" y="255.25587" width="8.2786455" height="25.427269" ry="4.1393228" fill="#8c239e"/>
  <rect transform="scale(-1,1)" x="-749.1391" y="266.01779" width="8.2786455" height="22.470612" ry="4.1393185" fill="#9626aa"/>
  <g fill="#d37be2">
   <rect transform="scale(-1,1)" x="-740.11389" y="254.12372" width="2.4190395" height="14.168659" ry="1.2095197"/>
   <rect transform="scale(-1,1)" x="-726.47583" y="257.23502" width="2.4190395" height="8.6394272" ry="1.2095197"/>
   <rect transform="scale(-1,1)" x="-747.21045" y="268.46628" width="2.4190395" height="8.6394272" ry="1.2095197"/>
  </g>
  <rect transform="scale(-1,1)" x="-677.79761" y="202.57816" width="6.4578285" height="8.9934578" ry="3.1871643" fill="#f9f9f9"/>
  <g transform="matrix(1.2931919,0,0,1.2931919,570.56563,-90.70191)">
   <g transform="matrix(.61602699 0 0 .51340999 -181.75435 129.14503)">
    <rect x="294.20703" y="244.71202" width="41.830383" height="94.815536" ry="11.296386" fill="#ececec"/>
    <path transform="scale(.26458333)" d="m1098.7891 1108.8086v23.7148c0 19.2737 15.5153 34.7911 34.789 34.7911h114.8692c19.2737 0 34.791-15.5174 34.791-34.7911v-23.7148c0 19.2737-15.5173 34.791-34.791 34.791h-114.8692c-19.2737 0-34.789-15.5173-34.789-34.791z" fill="#cfcfcf"/>
    <rect x="290.72116" y="273.29608" width="48.802116" height="29.281267" ry="9.2048674" fill="#f9f9f9"/>
    <rect x="290.72116" y="319.30951" width="48.802116" height="38.344517" ry="13.639463" fill="#f9f9f9"/>
    <rect x="287.23529" y="343.0134" width="55.773846" height="14.640635" ry="7.3203173" fill="#999"/>
    <rect x="301.44266" y="323.13773" width="28.617973" height="3.6249433" ry="1.8124716" fill="#fff"/>
   </g>
   <g transform="matrix(.61602699 0 0 .51340999 -149.39544 129.14503)">
    <rect x="294.20703" y="244.71202" width="41.830383" height="94.815536" ry="11.296386" fill="#ececec"/>
    <path transform="scale(.26458333)" d="m1098.7891 1108.8086v23.7148c0 19.2737 15.5153 34.7911 34.789 34.7911h114.8692c19.2737 0 34.791-15.5174 34.791-34.7911v-23.7148c0 19.2737-15.5173 34.791-34.791 34.791h-114.8692c-19.2737 0-34.789-15.5173-34.789-34.791z" fill="#cfcfcf"/>
    <rect x="290.72116" y="273.29608" width="48.802116" height="29.281267" ry="9.2048674" fill="#f9f9f9"/>
    <rect x="290.72116" y="319.30951" width="48.802116" height="38.344517" ry="13.639463" fill="#f9f9f9"/>
    <rect x="287.23529" y="343.0134" width="55.773846" height="14.640635" ry="7.3203173" fill="#999"/>
    <rect x="301.44266" y="323.13773" width="28.617973" height="3.6249433" ry="1.8124716" fill="#fff"/>
   </g>
  </g>
  <rect x="543.10614" y="202.57816" width="6.4578285" height="8.9934578" ry="3.1871643" fill="#f9f9f9"/>
  <circle cx="607.42035" cy="139.24559" r="43.730812" fill="#f9f9f9"/>
  <g transform="matrix(.49435471 0 0 .49435471 93.134992 -85.688809)">
   <rect x="963.44025" y="416.48779" width="153.75258" height="105.31" ry="52.654999" fill="#d5f6ff"/>
   <path d="m1052.6184 416.48788-83.50708 76.49712c1.46021 2.88415 3.179 5.6134 5.12424 8.1592l92.36694-84.61344c-0.6815-0.0259-1.3655-0.0429-2.0536-0.0429zm-42.4579 0.33329c-22.86593 2.54804-41.21838 19.62036-45.67267 41.8388zm69.6443 1.89706-98.36969 90.11283c9.2493 8.08067 21.36799 12.96667 34.67129 12.96667h48.4425c29.1709 0 52.6547-23.48381 52.6547-52.65467 0-23.86087-15.7138-43.91377-37.3988-50.42483z" fill="#87aade"/>
  </g>
  <rect x="557.58936" y="132.2634" width="9.5052204" height="23.763052" ry="4.7526102" fill="#ccc"/>
  <rect x="647.34589" y="132.2634" width="9.5052204" height="23.763052" ry="4.7526102" fill="#ccc"/>
  <path d="m549.75254 164.08922c-2.87303 0.084-5.33287 2.74243-5.06269 5.66024l4.41651 47.69638-4.41651 47.69638c0 3.12563 2.53309 5.96503 5.64199 5.642l54.64594-5.67815c2.44799-0.25436 4.53798-1.66889 5.31637-3.78453 0.77839 2.11564 2.8684 3.53017 5.31638 3.78453l54.64593 5.67815c3.1089 0.32303 5.64201-2.51637 5.64201-5.642l-4.41652-47.69638 4.41652-47.69638c0.28818-3.11233-2.52962-5.92947-5.64201-5.642l-54.64593 5.04716c-2.4504 0.22632-4.53853 1.65653-5.31638 3.7798-0.77784-2.12327-2.86598-3.55348-5.31637-3.7798l-54.64594-5.04716c-0.19452-0.018-0.38776-0.0238-0.5793-0.0182zm117.76618 7.14614c2.69438 0.0728 5.00092 2.37523 4.74755 4.90226l-4.14156 41.30855 4.14156 41.30856c0 2.70702-2.37545 5.16581-5.29103 4.88603l-51.24785-4.91744c-2.35672-0.22616-4.36013-1.51098-5.04175-3.42479-0.68161 1.91381-2.68467 3.19863-5.04142 3.42479l-51.24817 4.91744c-2.91558 0.27978-5.29103-2.17901-5.29103-4.88603l4.14156-41.30856-4.14156-41.30855c-0.25337-2.52703 2.05315-4.82914 4.74755-4.90192 0.17962-5e-3 0.36105-2e-5 0.54348 0.0156l51.24817 4.37125c2.35903 0.20122 4.36025 1.50128 5.04142 3.42141 0.68118-1.92013 2.68275-3.22019 5.04175-3.42141l51.24785-4.37125c0.18243-0.0156 0.36386-0.0207 0.54348-0.0159z" fill="#ff9324"/>
  <path d="m553.85256 171.2357c-2.6944 0.0728-5.00091 2.37489-4.74755 4.90192l4.14157 41.30855-4.14157 41.30855c0 2.70703 2.37546 5.16582 5.29103 4.88604l51.24818-4.91745c2.35674-0.22615 4.35981-1.51098 5.04142-3.42479 0.68161 1.91381 2.68503 3.19864 5.04175 3.42479l51.24785 4.91745c2.91557 0.27978 5.29103-2.17901 5.29103-4.88604l-4.14157-41.30855 4.14157-41.30855c0.27026-2.6955-2.37219-5.13535-5.29103-4.88638l-51.24785 4.37125c-2.35901 0.20122-4.36057 1.50129-5.04175 3.42141-0.68118-1.92012-2.6824-3.22019-5.04142-3.42141l-51.24818-4.37125c-0.18242-0.0156-0.36386-0.0204-0.54348-0.0155z" fill="#293688"/>
  <circle cx="580.66107" cy="197.59581" r="4.4387431" fill="#08a"/>
  <path d="m580.66108 193.15717a4.4387429 4.4387429 0 0 0 -4.43881 4.43848 4.4387429 4.4387429 0 0 0 4.43881 4.43881 4.4387429 4.4387429 0 0 0 4.43881 -4.43881 4.4387429 4.4387429 0 0 0 -4.43881 -4.43848zm2.11047 1.09239a0.20290996 0.20290996 0 0 1 0.203 0.20267 0.20290996 0.20290996 0 0 1 -0.203 0.20301 0.20290996 0.20290996 0 0 1 -0.203 -0.20301 0.20290996 0.20290996 0 0 1 0.203 -0.20267zm-1.75851 0.27057a0.37200161 0.37200161 0 0 1 0.37191 0.3719 0.37200161 0.37200161 0 0 1 -0.37191 0.3719 0.37200161 0.37200161 0 0 1 -0.37223 -0.3719 0.37200161 0.37200161 0 0 1 0.37223 -0.3719zm-1.75848 0.20267a0.81163971 0.81163971 0 0 1 0.81135 0.81169 0.81163971 0.81163971 0 0 1 -0.81135 0.8117 0.81163971 0.81163971 0 0 1 -0.81171 -0.8117 0.81163971 0.81163971 0 0 1 0.81171 -0.81169zm4.92048 1.14981a0.5918206 0.5918206 0 0 1 0.5918 0.5918 0.5918206 0.5918206 0 0 1 -0.5918 0.59214 0.5918206 0.5918206 0 0 1 -0.59179 -0.59214 0.5918206 0.5918206 0 0 1 0.59179 -0.5918zm-1.06536 0.0679a0.37200161 0.37200161 0 0 1 0.3719 0.3719 0.37200161 0.37200161 0 0 1 -0.3719 0.3719 0.37200161 0.37200161 0 0 1 -0.37191 -0.3719 0.37200161 0.37200161 0 0 1 0.37191 -0.3719zm-2.14729 0.87925a0.38891075 0.38891075 0 0 1 0.38878 0.38879 0.38891075 0.38891075 0 0 1 -0.38878 0.38879 0.38891075 0.38891075 0 0 1 -0.38913 -0.38879 0.38891075 0.38891075 0 0 1 0.38913 -0.38879zm-0.87925 0.67624a1.2343689 1.2343689 0 0 1 1.23425 1.23426 1.2343689 1.2343689 0 0 1 -1.23425 1.2346 1.2343689 1.2343689 0 0 1 -1.23461 -1.2346 1.2343689 1.2343689 0 0 1 1.23461 -1.23426zm-2.41819 0.50735a0.30436494 0.30436494 0 0 1 0.30433 0.30434 0.30436494 0.30436494 0 0 1 -0.30433 0.30435 0.30436494 0.30436494 0 0 1 -0.30435 -0.30435 0.30436494 0.30436494 0 0 1 0.30435 -0.30434zm0.49045 1.25115a0.25363745 0.25363745 0 0 1 0.25368 0.25368 0.25363745 0.25363745 0 0 1 -0.25368 0.25367 0.25363745 0.25363745 0 0 1 -0.25367 -0.25367 0.25363745 0.25363745 0 0 1 0.25367 -0.25368zm4.19325 0.60869a0.59182067 0.59182067 0 0 1 0.59213 0.5918 0.59182067 0.59182067 0 0 1 -0.59213 0.59213 0.59182067 0.59182067 0 0 1 -0.5918 -0.59213 0.59182067 0.59182067 0 0 1 0.5918 -0.5918z" fill="#00e0ff"/>
  <g fill="#ffc107">
   <g transform="matrix(.29510418 0 0 .29510418 468.9703 139.12517)">
    <rect x="335.89169" y="150.28868" width="1.9304121" height="9.6520605" ry=".96520603"/>
    <rect transform="rotate(-90)" x="-156.07991" y="332.03088" width="1.9304121" height="9.6520605" ry=".96520603"/>
   </g>
   <g transform="matrix(.29510418 0 0 .29510418 547.51348 186.97331)">
    <rect x="335.89169" y="150.28868" width="1.9304121" height="9.6520605" ry=".96520603"/>
    <rect transform="rotate(-90)" x="-156.07991" y="332.03088" width="1.9304121" height="9.6520605" ry=".96520603"/>
   </g>
   <g transform="matrix(.35746014 0 0 .35746014 474.11091 166.85822)">
    <rect x="335.89169" y="150.28868" width="1.9304121" height="9.6520605" ry=".96520603"/>
    <rect transform="rotate(-90)" x="-156.07991" y="332.03088" width="1.9304121" height="9.6520605" ry=".96520603"/>
   </g>
   <g transform="matrix(.29510418 0 0 .29510418 463.55353 208.94133)">
    <rect x="335.89169" y="150.28868" width="1.9304121" height="9.6520605" ry=".96520603"/>
    <rect transform="rotate(-90)" x="-156.07991" y="332.03088" width="1.9304121" height="9.6520605" ry=".96520603"/>
   </g>
   <g transform="matrix(.29510418 0 0 .29510418 504.63071 142.58588)">
    <rect x="335.89169" y="150.28868" width="1.9304121" height="9.6520605" ry=".96520603"/>
    <rect transform="rotate(-90)" x="-156.07991" y="332.03088" width="1.9304121" height="9.6520605" ry=".96520603"/>
   </g>
   <g transform="matrix(.26392621 0 0 .26392621 573.36351 141.70434)">
    <rect x="335.89169" y="150.28868" width="1.9304121" height="9.6520605" ry=".96520603"/>
    <rect transform="rotate(-90)" x="-156.07991" y="332.03088" width="1.9304121" height="9.6520605" ry=".96520603"/>
   </g>
   <g transform="matrix(.26392621 0 0 .26392621 577.57656 214.22889)">
    <rect x="335.89169" y="150.28868" width="1.9304121" height="9.6520605" ry=".96520603"/>
    <rect transform="rotate(-90)" x="-156.07991" y="332.03088" width="1.9304121" height="9.6520605" ry=".96520603"/>
   </g>
  </g>
  <circle cx="609.8515" cy="220.46658" r=".52663058" fill="#2196f3"/>
  <circle cx="628.35876" cy="239.57574" r="5.7929358" fill="#ef5350"/>
  <circle cx="650.02588" cy="181.94733" r="2.1817551" fill="#9c27b0"/>
  <circle cx="572.21124" cy="231.82303" r="2.4826868" fill="#ffd5d5"/>
  <circle cx="658.151" cy="215.54472" r="3.6864135" fill="#00ff23"/>
  <path d="m661.26981 213.53678a3.6864136 3.6864136 0 0 1 -0.0294 0.41386 1.4158081 5.0074891 75 0 1 1.83899 0.58572 1.4158081 5.0074891 75 0 1 -4.47028 2.66339 1.4158081 5.0074891 75 0 1 -5.20341 -0.0713 1.4158081 5.0074891 75 0 1 1.26589 -1.40824 3.6864136 3.6864136 0 0 1 -0.23767 -0.34406 1.7467762 6.1780707 75 0 0 -2.15876 2.05522 1.7467762 6.1780707 75 0 0 6.41962 0.0882 1.7467762 6.1780707 75 0 0 5.51547 -3.28616 1.7467762 6.1780707 75 0 0 -2.94052 -0.69656z" fill="#dbdbe3"/>
  <path d="m623.53865 242.78162a5.792936 5.792936 0 0 0 1.62473 1.62136h6.39153a5.792936 5.792936 0 0 0 1.62474 -1.62136z" fill="#c83737"/>
  <path d="m623.51161 236.41271a5.792936 5.792936 0 0 0 -0.69482 1.48219h11.08032a5.792936 5.792936 0 0 0 -0.68739 -1.48219z" fill="#faa"/>
  <path d="m622.77525 238.05704a5.792936 5.792936 0 0 0 -0.16416 0.83365h11.49274a5.792936 5.792936 0 0 0 -0.15639 -0.83365z" fill="#ff6e0d"/>
  <path d="m622.6219 240.32661a5.792936 5.792936 0 0 0 0.46005 1.62136h10.55642a5.792936 5.792936 0 0 0 0.45837 -1.62136z" fill="#ff8080"/>
  <path d="m625.71769 234.4208a5.792936 5.792936 0 0 0 -1.4562 1.06537h8.19497a5.792936 5.792936 0 0 0 -1.46801 -1.06537z" fill="#c83737"/>
  <ellipse cx="630.87396" cy="241.50795" rx="1.7219385" ry="1.3201528" fill="#e9afaf"/>
  <ellipse cx="630.87396" cy="241.50795" rx="1.3896346" ry="1.0653865" fill="#c83737"/>
  <g fill="none" stroke="#cfcfcf" stroke-linecap="round">
   <g stroke-dasharray="3.82004707, 1.27334902" stroke-width=".63667452">
    <path d="m552.97464 235.47557s57.99603 13.87182 62.57078 20.95532"/>
    <path d="m578.94741 260.41534s48.69896-69.80184 90.31442-57.40574"/>
    <path d="m671.03271 248.60953s-46.04265-45.15721-32.90869-74.67172"/>
    <path d="m669.40941 232.52412s-50.02711 12.98638-25.23491 29.36695"/>
    <path d="m581.30857 173.64265s-8.11649 13.13397 44.27179 60.65234"/>
   </g>
   <path d="m550.76106 190.90865s38.36886 9.00193 46.04264-14.75726" stroke-dasharray="3.820047, 1.273349" stroke-width=".63667446"/>
  </g>
  <g transform="matrix(.667025 0 0 .667025 578.5988 76.327934)">
   <rect x="-60.077045" y="197.94167" width="26.598997" height="33.707348" ry="7.9109159" fill="#f9f9f9"/>
   <path d="m-55.267363 197.94192c-2.664473 0-4.809589 2.30061-4.809589 5.15886v23.38875c0 2.85825 2.145116 5.15938 4.809589 5.15938h7.802093v-33.70699z" fill="#cfcfcf"/>
  </g>
  <g transform="matrix(-.667025 0 0 .667025 642.30494 76.327934)">
   <rect x="-60.077045" y="197.94167" width="26.598997" height="33.707348" ry="7.9109159" fill="#f9f9f9"/>
   <path d="m-55.267363 197.94192c-2.664473 0-4.809589 2.30061-4.809589 5.15886v23.38875c0 2.85825 2.145116 5.15938 4.809589 5.15938h7.802093v-33.70699z" fill="#cfcfcf"/>
  </g>
 </g>
</svg>
