<?xml version="1.0" encoding="UTF-8"?>
<!-- Created with Inkscape (http://www.inkscape.org/) -->
<svg width="130.34863mm" height="18.190104mm" version="1.1" viewBox="0 0 130.34863 18.190104" xmlns="http://www.w3.org/2000/svg" xmlns:cc="http://creativecommons.org/ns#" xmlns:dc="http://purl.org/dc/elements/1.1/" xmlns:rdf="http://www.w3.org/1999/02/22-rdf-syntax-ns#">
 <metadata>
  <rdf:RDF>
   <cc:Work rdf:about="">
    <dc:format>image/svg+xml</dc:format>
    <dc:type rdf:resource="http://purl.org/dc/dcmitype/StillImage"/>
    <dc:title/>
   </cc:Work>
  </rdf:RDF>
 </metadata>
 <g transform="translate(-42.968747,-12.34297)">
  <g stroke-width=".26458332" style="font-feature-settings:normal;font-variant-caps:normal;font-variant-ligatures:normal;font-variant-numeric:normal" aria-label="Our dream">
   <g fill="#2196f3" stroke-width=".26458332">
    <path d="m51.392006 28.672722q-3.493327 0-5.96346-2.118734-2.459799-2.118733-2.459799-5.115966t2.459799-5.115967q2.470133-2.118734 5.96346-2.118734 3.482991 0 5.942789 2.118734 2.470134 2.118734 2.470134 5.115967t-2.470134 5.115966q-2.459798 2.118734-5.942789 2.118734zm-0.578776-4.51652q1.488281 0 2.54248-0.909505 1.064535-0.909506 1.064535-2.191081 0-1.281576-1.064535-2.191081-1.054199-0.909505-2.54248-0.909505-1.498617 0-2.563151 0.909505-1.0542 0.909505-1.0542 2.191081 0 1.281575 1.0542 2.191081 1.064534 0.909505 2.563151 0.909505z" style="font-feature-settings:normal;font-variant-caps:normal;font-variant-ligatures:normal;font-variant-numeric:normal"/>
    <path d="m61.613604 14.926791 5.508707 1.07487q-2.749186 8.443929 0.785482 8.536946 4.196126-0.03101 2.428792-8.743652l5.04362-1.591634q2.315104 14.345377-7.472412 14.469401-9.890869-0.09302-6.294189-13.745931z" style="font-feature-settings:normal;font-variant-caps:normal;font-variant-ligatures:normal;font-variant-numeric:normal"/>
    <path d="m81.395342 17.613966 0.144694 2.790527q5.167643 0 5.167643-1.033529 0-1.033528-5.312337-1.756998zm0.692465 10.221598-5.756755 0.806152 1.198893-15.430582q13.311849 0.992187 13.756266 5.333007 0.454753 4.330485-4.578532 5.994466l4.134115 2.242757-4.237467 3.751709-4.84725-5.994466z" style="font-feature-settings:normal;font-variant-caps:normal;font-variant-ligatures:normal;font-variant-numeric:normal"/>
   </g>
   <g fill="#00c853">
    <path d="m98.159175 28.672722-0.661459-14.469401q14.097334 0 14.097334 7.234701 0 7.2347-13.435875 7.2347zm3.679365-10.63501 0.69246 5.002279q4.47518 0.02067 4.47518-2.490804 0-2.511475-5.16764-2.511475z"/>
    <path d="m117.19677 17.613966 0.1447 2.790527q5.16764 0 5.16764-1.033529 0-1.033528-5.31234-1.756998zm0.69247 10.221598-5.75676 0.806152 1.1989-15.430582q13.31184 0.992187 13.75626 5.333007 0.45475 4.330485-4.57853 5.994466l4.13411 2.242757-4.23746 3.751709-4.84725-5.994466z"/>
    <path d="m138.42545 12.34297 0.26872 5.477701-6.42855 0.692465 0.0827 1.250569 4.2168-0.392741 0.37207 3.741374-4.40284 0.320394 0.0724 1.012858 6.24251-0.475423 0.93018 4.702555-12.30933 0.423747 1.25057-14.913818z"/>
    <path d="m145.08137 26.605665-0.72347 2.067057-4.0721-2.459798 5.10563-12.009603 3.88607-0.268717 6.10816 12.433349-4.82658 2.304769-1.06454-2.904216zm3.53467-4.526856-1.15755-3.741373-1.36426 4.134114z"/>
    <path d="m172.44921 14.203321 0.86817 13.632243-5.271 0.444417-0.27905-6.976318-1.06454 4.795573-4.73356 0.661458-1.92236-4.950602 0.69246 5.870442-4.82657 0.992188 0.66145-14.469401 4.7439-0.630452 2.62516 8.268229 3.18327-8.020182z"/>
   </g>
  </g>
 </g>
</svg>
