<?xml version="1.0" encoding="UTF-8"?>
<!-- Created with Inkscape (http://www.inkscape.org/) -->
<svg width="236.71678mm" height="96.279305mm" version="1.1" viewBox="0 0 236.71678 96.279303" xmlns="http://www.w3.org/2000/svg" xmlns:cc="http://creativecommons.org/ns#" xmlns:dc="http://purl.org/dc/elements/1.1/" xmlns:rdf="http://www.w3.org/1999/02/22-rdf-syntax-ns#">
 <metadata>
  <rdf:RDF>
   <cc:Work rdf:about="">
    <dc:format>image/svg+xml</dc:format>
    <dc:type rdf:resource="http://purl.org/dc/dcmitype/StillImage"/>
    <dc:title/>
   </cc:Work>
  </rdf:RDF>
 </metadata>
 <g transform="translate(-.84454523 17.657167)">
  <g stroke-width=".26458332" style="font-feature-settings:normal;font-variant-caps:normal;font-variant-ligatures:normal;font-variant-numeric:normal" aria-label="Let's help them ">
   <g fill="#2196f3" stroke-width=".26458332">
    <path d="m41.58547 13.514016 5.095296 0.268718-1.674317 10.273274 5.188314-0.806152-1.147217 5.508707-8.175211-0.56844z" style="font-feature-settings:normal;font-variant-caps:normal;font-variant-ligatures:normal;font-variant-numeric:normal"/>
    <path d="m61.66693 11.86037 0.268718 5.477702-6.428548 0.692464 0.08268 1.25057 4.216797-0.392741 0.37207 3.741374-4.402832 0.320394 0.07235 1.012858 6.242513-0.475424 0.930176 4.702556-12.309326 0.423746 1.25057-14.913818z" style="font-feature-settings:normal;font-variant-caps:normal;font-variant-ligatures:normal;font-variant-numeric:normal"/>
    <path d="m71.18573 18.123554 0.506429 8.805664-5.601725 1.44694 0.961181-10.521322-4.227132-0.361735 0.330729-3.824055 12.123291-0.72347 0.444417 5.653401z" style="font-feature-settings:normal;font-variant-caps:normal;font-variant-ligatures:normal;font-variant-numeric:normal"/>
    <path d="m81.944762 13.65871-1.436605 6.500895-3.534668-0.237711-0.713135-5.632731z" style="font-feature-settings:normal;font-variant-caps:normal;font-variant-ligatures:normal;font-variant-numeric:normal"/>
    <path d="m85.572447 22.474709q-3.731038-0.527099-3.296956-4.640543t9.591146-4.86792l0.868164 4.671549q-4.537191-0.103352-4.86792 1.07487-0.330729 1.178223 3.472656 1.353923t3.720703 4.630208q-0.08268 4.454508-10.014892 4.754232l-1.829346-4.888591q5.084961 0.54777 5.59139-0.506429 0.506429-1.064534-3.234945-1.581299z" style="font-feature-settings:normal;font-variant-caps:normal;font-variant-ligatures:normal;font-variant-numeric:normal"/>
   </g>
   <g fill="#00c853">
    <path d="m106.28436 23.828632 0.37207 3.493327-3.95841 0.692464-1.79834-11.451497 4.40283-1.881022 0.49609 4.960937 3.96875-0.454753 0.062-4.51652 6.89363 0.692464-2.6355 12.702067-4.43383-1.312581 0.0517-3.296956z"/>
    <path d="m127.52337 11.86037 0.26872 5.477702-6.42855 0.692464 0.0827 1.25057 4.2168-0.392741 0.37207 3.741374-4.40283 0.320394 0.0723 1.012858 6.24252-0.475424 0.93017 4.702556-12.30932 0.423746 1.25057-14.913818z"/>
    <path d="m130.09686 13.514016 5.0953 0.268718-1.67432 10.273274 5.18831-0.806152-1.14721 5.508707-8.17521-0.56844z"/>
    <path d="m144.80398 24.025002 0.83715 3.090251-5.39502 1.07487-1.02319-13.838949q13.7666-2.222086 14.45907 4.537191 0 5.167643-8.87801 5.136637zm-1.41594-6.118489 0.57878 2.015381q5.58105 0 5.25032-1.467611t-5.8291-0.54777z"/>
   </g>
   <g fill="#2196f3" stroke-width=".26458332">
    <path d="m167.79999 18.123554 0.50643 8.805664-5.60173 1.44694 0.96118-10.521322-4.22713-0.361735 0.33073-3.824055 12.12329-0.72347 0.44442 5.653401z" style="font-feature-settings:normal;font-variant-caps:normal;font-variant-ligatures:normal;font-variant-numeric:normal"/>
    <path d="m178.25929 23.828632 0.37207 3.493327-3.95841 0.692464-1.79834-11.451497 4.40283-1.881022 0.49609 4.960937 3.96875-0.454753 0.062-4.51652 6.89363 0.692464-2.6355 12.702067-4.43383-1.312581 0.0517-3.296956z" style="font-feature-settings:normal;font-variant-caps:normal;font-variant-ligatures:normal;font-variant-numeric:normal"/>
    <path d="m199.4983 11.86037 0.26872 5.477702-6.42855 0.692464 0.0827 1.25057 4.2168-0.392741 0.37207 3.741374-4.40283 0.320394 0.0723 1.012858 6.24252-0.475424 0.93017 4.702556-12.30932 0.423746 1.25057-14.913818z" style="font-feature-settings:normal;font-variant-caps:normal;font-variant-ligatures:normal;font-variant-numeric:normal"/>
    <path d="m217.89512 13.720722 0.86816 13.632242-5.27099 0.444418-0.27905-6.976318-1.06454 4.795572-4.73356 0.661459-1.92236-4.950602 0.69246 5.870442-4.82658 0.992188 0.66146-14.469401 4.7439-0.630452 2.62516 8.268228 3.18327-8.020182z" style="font-feature-settings:normal;font-variant-caps:normal;font-variant-ligatures:normal;font-variant-numeric:normal"/>
   </g>
  </g>
  <g stroke-width=".26458332" style="font-feature-settings:normal;font-variant-caps:normal;font-variant-ligatures:normal;font-variant-numeric:normal" aria-label="reach the stars!">
   <g fill="#9c27b0">
    <path d="m33.554951 40.778913 0.144694 2.790527q5.167643 0 5.167643-1.033528 0-1.033529-5.312337-1.756999zm0.692464 10.221598-5.756754 0.806153 1.198893-15.430583q13.311849 0.992188 13.756266 5.333008 0.454753 4.330485-4.578532 5.994466l4.134115 2.242757-4.237468 3.751709-4.847249-5.994466z"/>
    <path d="m54.783629 35.507917 0.268717 5.477702-6.428548 0.692464 0.08268 1.25057 4.216796-0.392741 0.372071 3.741373-4.402832 0.320394 0.07235 1.012858 6.242512-0.475423 0.930176 4.702555-12.309326 0.423747 1.25057-14.913818z"/>
    <path d="m61.439554 49.770612-0.72347 2.067057-4.072103-2.459798 5.105632-12.009602 3.886067-0.268718 6.108154 12.43335-4.826578 2.304768-1.064535-2.904215zm3.534668-4.526855-1.157552-3.741374-1.364258 4.134115z"/>
    <path d="m85.30373 49.718936q-2.449463 2.118733-5.911783 2.118733-3.462321 0-5.911784-2.118733-2.449463-2.118734-2.449463-5.115967t2.449463-5.115967q2.449463-2.118733 5.911784-2.118733 3.46232 0 5.911783 2.118733 1.229899 1.064535 1.850016 2.356446l-4.960937 1.250569q-0.248047-0.661458-0.868164-1.198893-1.054199-0.909505-2.532145-0.909505t-2.532145 0.909505-1.054199 2.191081q0 1.281575 1.054199 2.19108 1.054199 0.909506 2.532145 0.909506t2.532145-0.909506q0.568441-0.496093 0.837158-1.11621l4.981608 2.201415q-0.609782 1.291911-1.839681 2.356446z"/>
    <path d="m93.075865 47.476179 0.37207 3.493326-3.958415 0.692465-1.798339-11.451498 4.402831-1.881022 0.496094 4.960938 3.96875-0.454753 0.06201-4.51652 6.893632 0.692464-2.63549 12.702067-4.433842-1.312581 0.05168-3.296957z"/>
   </g>
   <g fill="#2196f3" stroke-width=".26458332">
    <path d="m117.6325 41.771101 0.50643 8.805663-5.60172 1.446941 0.96118-10.521322-4.22714-0.361735 0.33073-3.824056 12.12329-0.72347 0.44442 5.653402z" style="font-feature-settings:normal;font-variant-caps:normal;font-variant-ligatures:normal;font-variant-numeric:normal"/>
    <path d="m128.09181 47.476179 0.37207 3.493326-3.95841 0.692465-1.79834-11.451498 4.40283-1.881022 0.4961 4.960938 3.96875-0.454753 0.062-4.51652 6.89363 0.692464-2.6355 12.702067-4.43383-1.312581 0.0517-3.296957z" style="font-feature-settings:normal;font-variant-caps:normal;font-variant-ligatures:normal;font-variant-numeric:normal"/>
    <path d="m149.33083 35.507917 0.26872 5.477702-6.42855 0.692464 0.0827 1.25057 4.2168-0.392741 0.37207 3.741373-4.40283 0.320394 0.0723 1.012858 6.24252-0.475423 0.93017 4.702555-12.30932 0.423747 1.25057-14.913818z" style="font-feature-settings:normal;font-variant-caps:normal;font-variant-ligatures:normal;font-variant-numeric:normal"/>
    <path d="m160.17254 46.122256q-3.73104-0.527099-3.29695-4.640543 0.43408-4.113444 9.59114-4.86792l0.86817 4.671549q-4.53719-0.103353-4.86792 1.07487t3.47265 1.353922q3.80339 0.1757 3.72071 4.630209-0.0827 4.454508-10.0149 4.754231l-1.82934-4.88859q5.08496 0.54777 5.59139-0.506429 0.50643-1.064535-3.23495-1.581299z" style="font-feature-settings:normal;font-variant-caps:normal;font-variant-ligatures:normal;font-variant-numeric:normal"/>
    <path d="m176.58497 41.771101 0.50643 8.805663-5.60173 1.446941 0.96119-10.521322-4.22714-0.361735 0.33073-3.824056 12.12329-0.72347 0.44442 5.653402z" style="font-feature-settings:normal;font-variant-caps:normal;font-variant-ligatures:normal;font-variant-numeric:normal"/>
    <path d="m183.85069 49.770612-0.72347 2.067057-4.07211-2.459798 5.10564-12.009602 3.88606-0.268718 6.10816 12.43335-4.82658 2.304768-1.06454-2.904215zm3.53466-4.526855-1.15755-3.741374-1.36426 4.134115z" style="font-feature-settings:normal;font-variant-caps:normal;font-variant-ligatures:normal;font-variant-numeric:normal"/>
    <path d="m199.74636 40.778913 0.14469 2.790527q5.16764 0 5.16764-1.033528 0-1.033529-5.31233-1.756999zm0.69246 10.221598-5.75675 0.806153 1.19889-15.430583q13.31185 0.992188 13.75627 5.333008 0.45475 4.330485-4.57854 5.994466l4.13412 2.242757-4.23747 3.751709-4.84725-5.994466z" style="font-feature-settings:normal;font-variant-caps:normal;font-variant-ligatures:normal;font-variant-numeric:normal"/>
    <path d="m214.32944 46.122256q-3.73104-0.527099-3.29695-4.640543 0.43408-4.113444 9.59114-4.86792l0.86816 4.671549q-4.53719-0.103353-4.86791 1.07487-0.33073 1.178223 3.47265 1.353922 3.80339 0.1757 3.7207 4.630209-0.0827 4.454508-10.01489 4.754231l-1.82934-4.88859q5.08496 0.54777 5.59139-0.506429 0.50643-1.064535-3.23495-1.581299z" style="font-feature-settings:normal;font-variant-caps:normal;font-variant-ligatures:normal;font-variant-numeric:normal"/>
   </g>
   <path d="m225.33652 46.79405-0.93018-9.18807 7.01766-0.837158-2.55282 10.262939zm1.86035 5.043619q-0.85783 0-1.46761-0.599446-0.59945-0.609782-0.59945-1.467611t0.59945-1.457275q0.60978-0.609782 1.46761-0.609782t1.45727 0.609782q0.60979 0.599446 0.60979 1.457275t-0.60979 1.467611q-0.59944 0.599446-1.45727 0.599446z" fill="#e91e63"/>
  </g>
  <g transform="translate(-6.9977437,2.4130151)" fill="#9c27b0">
   <rect x="160.08121" y="-4.3855824" width="1.9750975" height="8.2042513" ry=".98754877"/>
   <rect transform="rotate(90)" x="-1.2710042" y="-165.17088" width="1.9750975" height="8.2042513" ry=".98754877"/>
  </g>
  <g transform="matrix(.84000001 0 0 .84000001 12.557331 -2.3521958)" fill="#9c27b0">
   <rect x="21.956203" y="19.985868" width="1.4522777" height="6.0325379" ry=".72613883"/>
   <rect transform="rotate(90)" x="22.276001" y="-25.698612" width="1.4522777" height="6.0325379" ry=".72613883"/>
  </g>
  <g transform="translate(2.6543166,-6.5151407)" fill="#9c27b0">
   <rect x="109.78996" y="67.039665" width="1.4522777" height="6.0325379" ry=".72613883"/>
   <rect transform="rotate(90)" x="69.329796" y="-113.53236" width="1.4522777" height="6.0325379" ry=".72613883"/>
  </g>
  <g fill="#ffc107">
   <rect x="233.81894" y="23.122791" width="1.4522777" height="6.0325379" ry=".72613883"/>
   <rect transform="rotate(90)" x="25.412922" y="-237.56133" width="1.4522777" height="6.0325379" ry=".72613883"/>
   <rect transform="rotate(90)" x="25.412922" y="-237.56133" width="1.4522777" height="6.0325379" ry=".72613883"/>
  </g>
  <g transform="translate(-10.617266,3.8608241)" fill="#ffc107">
   <rect x="66.688599" y="-17.415861" width="1.5103687" height="6.2738395" ry=".75518435"/>
   <rect transform="rotate(90)" x="-15.034126" y="-70.580681" width="1.5103687" height="6.2738395" ry=".75518435"/>
   <rect transform="rotate(90)" x="-15.034126" y="-70.580681" width="1.5103687" height="6.2738395" ry=".75518435"/>
  </g>
  <g transform="translate(26.301864,15.201995)" fill="#ffc107">
   <rect x="42.250111" y="58.111511" width="1.1618221" height="4.8260303" ry=".58091104"/>
   <rect transform="rotate(90)" x="59.943615" y="-45.244022" width="1.1618221" height="4.8260303" ry=".58091104"/>
   <rect transform="rotate(90)" x="59.943615" y="-45.244022" width="1.1618221" height="4.8260303" ry=".58091104"/>
  </g>
  <g transform="matrix(.75 0 0 .75 40.629138 4.9361424)" fill="#ffc107">
   <rect x="189.44403" y="80.552551" width="1.1618221" height="4.8260303" ry=".58091104"/>
   <rect transform="rotate(90)" x="82.384659" y="-192.43794" width="1.1618221" height="4.8260303" ry=".58091104"/>
   <rect transform="rotate(90)" x="82.384659" y="-192.43794" width="1.1618221" height="4.8260303" ry=".58091104"/>
  </g>
  <g transform="translate(-1.9304121 .48260302)" fill="#00c853">
   <rect x="205.61124" y="-3.9029765" width="1.1618221" height="4.8260303" ry=".58091104"/>
   <rect transform="rotate(90)" x="-2.070869" y="-208.60515" width="1.1618221" height="4.8260303" ry=".58091104"/>
   <rect transform="rotate(90)" x="-2.070869" y="-208.60515" width="1.1618221" height="4.8260303" ry=".58091104"/>
  </g>
  <g transform="translate(-10.375965,6.5151407)" fill="#00c853">
   <rect x="22.704693" y="-18.139765" width="1.1618221" height="4.8260303" ry=".58091104"/>
   <rect transform="rotate(90)" x="-16.307657" y="-25.698605" width="1.1618221" height="4.8260303" ry=".58091104"/>
   <rect transform="rotate(90)" x="-16.307657" y="-25.698605" width="1.1618221" height="4.8260303" ry=".58091104"/>
  </g>
  <g transform="matrix(.75 0 0 .75 34.415625 15.674059)" fill="#00c853">
   <rect x="88.338699" y="55.939796" width="1.1618221" height="4.8260303" ry=".58091104"/>
   <rect transform="rotate(90)" x="57.771904" y="-91.332611" width="1.1618221" height="4.8260303" ry=".58091104"/>
   <rect transform="rotate(90)" x="57.771904" y="-91.332611" width="1.1618221" height="4.8260303" ry=".58091104"/>
  </g>
  <g transform="translate(10.134664,-1.689111)" fill="#00c853">
   <rect x="-5.768889" y="69.21138" width="1.1618221" height="4.8260303" ry=".58091104"/>
   <rect transform="rotate(90)" x="71.043488" y="2.7749772" width="1.1618221" height="4.8260303" ry=".58091104"/>
   <rect transform="rotate(90)" x="71.043488" y="2.7749772" width="1.1618221" height="4.8260303" ry=".58091104"/>
  </g>
  <g transform="matrix(1.2,0,0,1.2,-14.067876,-16.593113)" fill="#e91e63">
   <rect x="14.259136" y="38.324787" width="1.1618221" height="4.8260303" ry=".58091104"/>
   <rect transform="rotate(90)" x="40.156895" y="-17.253048" width="1.1618221" height="4.8260303" ry=".58091104"/>
   <rect transform="rotate(90)" x="40.156895" y="-17.253048" width="1.1618221" height="4.8260303" ry=".58091104"/>
  </g>
  <g transform="translate(8.6868543,2.6543166)" fill="#e91e63">
   <rect x="105.01308" y="-4.6268811" width=".87136656" height="3.6195228" ry=".43568328"/>
   <rect transform="rotate(90)" x="-3.2528007" y="-107.25851" width=".87136656" height="3.6195228" ry=".43568328"/>
   <rect transform="rotate(90)" x="-3.2528007" y="-107.25851" width=".87136656" height="3.6195228" ry=".43568328"/>
  </g>
  <g transform="matrix(1.8,0,0,1.8,-38.994308,80.435385)" fill="#e91e63">
   <rect x="105.01308" y="-4.6268811" width=".87136656" height="3.6195228" ry=".43568328"/>
   <rect transform="rotate(90)" x="-3.2528007" y="-107.25851" width=".87136656" height="3.6195228" ry=".43568328"/>
   <rect transform="rotate(90)" x="-3.2528007" y="-107.25851" width=".87136656" height="3.6195228" ry=".43568328"/>
  </g>
  <g transform="matrix(1.9333333,0,0,1.9333333,24.162342,-5.0923359)" fill="#e91e63">
   <rect x="105.01308" y="-4.6268811" width=".87136656" height="3.6195228" ry=".43568328"/>
   <rect transform="rotate(90)" x="-3.2528007" y="-107.25851" width=".87136656" height="3.6195228" ry=".43568328"/>
   <rect transform="rotate(90)" x="-3.2528007" y="-107.25851" width=".87136656" height="3.6195228" ry=".43568328"/>
  </g>
  <g fill="#2196f3">
   <g transform="matrix(.84000001 0 0 .84000001 62.506743 -17.795492)">
    <rect x="21.956203" y="19.985868" width="1.4522777" height="6.0325379" ry=".72613883"/>
    <rect transform="rotate(90)" x="22.276001" y="-25.698612" width="1.4522777" height="6.0325379" ry=".72613883"/>
   </g>
   <g transform="matrix(.72000001 0 0 .72000001 170.55673 -32.046992)">
    <rect x="21.956203" y="19.985868" width="1.4522777" height="6.0325379" ry=".72613883"/>
    <rect transform="rotate(90)" x="22.276001" y="-25.698612" width="1.4522777" height="6.0325379" ry=".72613883"/>
   </g>
   <g transform="matrix(1.12,0,0,1.12,193.09429,48.275013)">
    <rect x="21.956203" y="19.985868" width="1.4522777" height="6.0325379" ry=".72613883"/>
    <rect transform="rotate(90)" x="22.276001" y="-25.698612" width="1.4522777" height="6.0325379" ry=".72613883"/>
   </g>
   <g transform="matrix(.88000001 0 0 .88000001 8.8750667 41.247847)">
    <rect x="21.956203" y="19.985868" width="1.4522777" height="6.0325379" ry=".72613883"/>
    <rect transform="rotate(90)" x="22.276001" y="-25.698612" width="1.4522777" height="6.0325379" ry=".72613883"/>
   </g>
  </g>
 </g>
</svg>
