<?xml version="1.0" encoding="UTF-8"?>
<!-- Created with Inkscape (http://www.inkscape.org/) -->
<svg width="237.90968mm" height="28.818481mm" version="1.1" viewBox="0 0 237.90968 28.818481" xmlns="http://www.w3.org/2000/svg" xmlns:cc="http://creativecommons.org/ns#" xmlns:dc="http://purl.org/dc/elements/1.1/" xmlns:rdf="http://www.w3.org/1999/02/22-rdf-syntax-ns#">
 <metadata>
  <rdf:RDF>
   <cc:Work rdf:about="">
    <dc:format>image/svg+xml</dc:format>
    <dc:type rdf:resource="http://purl.org/dc/dcmitype/StillImage"/>
    <dc:title/>
   </cc:Work>
  </rdf:RDF>
 </metadata>
 <g transform="translate(31.877783,-14.862028)">
  <g fill="#2196f3">
   <path d="m-21.628624 30.606756-1.722547 6.028918-3.402032 0.447862-5.12458-10.137194 4.220242-2.368503 2.583822 6.890191 2.023993-5.443251 3.445096 0.473701 1.421102 4.96955 2.067057-7.13996 4.68533 2.566596-5.029839 9.741008-3.849895-0.826823z" style="font-feature-settings:normal;font-variant-caps:normal;font-variant-ligatures:normal;font-variant-numeric:normal"/>
   <path d="m-2.3533136 23.027546 0.2239312 4.564752-5.3571236 0.577053 0.068902 1.042142 3.5139974-0.327285 0.3100586 3.117812-3.6690267 0.266995 0.060289 0.844048 5.2020944-0.396186 0.7751465 3.918797-10.2577722 0.353122 1.042142-12.428182z" style="font-feature-settings:normal;font-variant-caps:normal;font-variant-ligatures:normal;font-variant-numeric:normal"/>
   <path d="m7.8872343 30.606756 0.8526611 4.9351-4.2977567 1.093818-0.8698866-11.308527 4.3149822-0.749308 4.2546927 5.632731 0.05168-5.632731 5.339898-0.551215-1.894803 12.60905-3.419257 0.499538z" style="font-feature-settings:normal;font-variant-caps:normal;font-variant-ligatures:normal;font-variant-numeric:normal"/>
   <path d="m26.344333 23.027546 0.223932 4.564752-5.357124 0.577053 0.0689 1.042142 3.513997-0.327285 0.310059 3.117812-3.669027 0.266995 0.06029 0.844048 5.202095-0.396186 0.775146 3.918797-10.257772 0.353122 1.042142-12.428182z" style="font-feature-settings:normal;font-variant-caps:normal;font-variant-ligatures:normal;font-variant-numeric:normal"/>
   <path d="m37.024128 23.027546 0.223931 4.564752-5.357124 0.577053 0.0689 1.042142 3.513998-0.327285 0.310058 3.117812-3.669026 0.266995 0.06029 0.844048 5.202094-0.396186 0.775147 3.918797-10.257772 0.353122 1.042141-12.428182z" style="font-feature-settings:normal;font-variant-caps:normal;font-variant-ligatures:normal;font-variant-numeric:normal"/>
   <path d="m39.125634 36.635674-0.551215-12.057835q11.747776 0 11.747776 6.028917 0 6.028918-11.196561 6.028918zm3.066135-8.862509 0.577054 4.168566q3.729316 0.01722 3.729316-2.07567 0-2.092896-4.30637-2.092896z" style="font-feature-settings:normal;font-variant-caps:normal;font-variant-ligatures:normal;font-variant-numeric:normal"/>
   <path d="m59.201934 31.46803-4.0566-4.091051 3.42787-2.79914 2.351278 3.445096 1.955092-4.289144 4.573364 1.567518-4.805908 6.166721 0.370347 4.840359-4.194403-0.56844z" style="font-feature-settings:normal;font-variant-caps:normal;font-variant-ligatures:normal;font-variant-numeric:normal"/>
   <path d="m72.810056 36.635674q-2.911106 0-4.96955-1.765612-2.049832-1.765611-2.049832-4.263306 0-2.497694 2.049832-4.263305 2.058444-1.765612 4.96955-1.765612 2.902493 0 4.952325 1.765612 2.058445 1.765611 2.058445 4.263305 0 2.497695-2.058445 4.263306-2.049832 1.765612-4.952325 1.765612zm-0.482313-3.763767q1.240234 0 2.118734-0.757921 0.887112-0.757921 0.887112-1.825901t-0.887112-1.825901q-0.8785-0.757921-2.118734-0.757921-1.248847 0-2.135959 0.757921-0.8785 0.757921-0.8785 1.825901t0.8785 1.825901q0.887112 0.757921 2.135959 0.757921z" style="font-feature-settings:normal;font-variant-caps:normal;font-variant-ligatures:normal;font-variant-numeric:normal"/>
   <path d="m81.328061 25.180731 4.590589 0.895725q-2.290988 7.036607 0.654569 7.114122 3.496772-0.02584 2.023993-7.286377l4.203017-1.326362q1.929253 11.954482-6.22701 12.057835-8.242391-0.07751-5.245158-11.454943z" style="font-feature-settings:normal;font-variant-caps:normal;font-variant-ligatures:normal;font-variant-numeric:normal"/>
   <path d="m97.812842 27.420043 0.120578 2.325439q4.30637 0 4.30637-0.861274 0-0.861273-4.426948-1.464165zm0.577053 8.517999-4.797295 0.671793 0.999077-12.858819q11.093213 0.826823 11.463553 4.444173 0.37896 3.608738-3.81544 4.995389l3.4451 1.868964-3.53123 3.126425-4.039372-4.995389z" style="font-feature-settings:normal;font-variant-caps:normal;font-variant-ligatures:normal;font-variant-numeric:normal"/>
  </g>
  <g fill="#00c853">
   <path d="m114.34068 31.872829q-3.10919-0.43925-2.74746-3.86712 0.36174-3.42787 7.99262-4.0566l0.72347 3.892958q-3.78099-0.08613-4.0566 0.895725-0.27561 0.981852 2.89388 1.128269 3.16949 0.146416 3.10059 3.858507-0.0689 3.71209-8.34575 3.96186l-1.52445-4.073826q4.23747 0.456475 4.65949-0.422024 0.42203-0.887112-2.69579-1.317749z" style="font-feature-settings:normal;font-variant-caps:normal;font-variant-ligatures:normal;font-variant-numeric:normal"/>
   <path d="m123.77164 25.180731 4.59059 0.895725q-2.29099 7.036607 0.65457 7.114122 3.49677-0.02584 2.02399-7.286377l4.20302-1.326362q1.92925 11.954482-6.22701 12.057835-8.24239-0.07751-5.24516-11.454943z" style="font-feature-settings:normal;font-variant-caps:normal;font-variant-ligatures:normal;font-variant-numeric:normal"/>
   <path d="m140.96266 33.16474 0.69763 2.575209-4.49585 0.895725-0.85266-11.532458q11.47217-1.851739 12.04922 3.780992 0 4.30637-7.39834 4.280532zm-1.17995-5.098742 0.48231 1.679484q4.65088 0 4.37528-1.223009-0.27561-1.223008-4.85759-0.456475z" style="font-feature-settings:normal;font-variant-caps:normal;font-variant-ligatures:normal;font-variant-numeric:normal"/>
   <path d="m153.43391 33.16474 0.69763 2.575209-4.49585 0.895725-0.85266-11.532458q11.47217-1.851739 12.04922 3.780992 0 4.30637-7.39834 4.280532zm-1.17995-5.098742 0.48232 1.679484q4.65088 0 4.37527-1.223009-0.27561-1.223008-4.85759-0.456475z" style="font-feature-settings:normal;font-variant-caps:normal;font-variant-ligatures:normal;font-variant-numeric:normal"/>
   <path d="m168.27365 36.635674q-2.91111 0-4.96955-1.765612-2.04983-1.765611-2.04983-4.263306 0-2.497694 2.04983-4.263305 2.05844-1.765612 4.96955-1.765612 2.90249 0 4.95232 1.765612 2.05845 1.765611 2.05845 4.263305 0 2.497695-2.05845 4.263306-2.04983 1.765612-4.95232 1.765612zm-0.48231-3.763767q1.24023 0 2.11873-0.757921 0.88711-0.757921 0.88711-1.825901t-0.88711-1.825901q-0.8785-0.757921-2.11873-0.757921-1.24885 0-2.13596 0.757921-0.8785 0.757921-0.8785 1.825901t0.8785 1.825901q0.88711 0.757921 2.13596 0.757921z" style="font-feature-settings:normal;font-variant-caps:normal;font-variant-ligatures:normal;font-variant-numeric:normal"/>
   <path d="m179.94391 27.420043 0.12058 2.325439q4.30637 0 4.30637-0.861274 0-0.861273-4.42695-1.464165zm0.57706 8.517999-4.7973 0.671793 0.99908-12.858819q11.09321 0.826823 11.46356 4.444173 0.37896 3.608738-3.81545 4.995389l3.4451 1.868964-3.53122 3.126425-4.03938-4.995389z" style="font-feature-settings:normal;font-variant-caps:normal;font-variant-ligatures:normal;font-variant-numeric:normal"/>
   <path d="m195.955 28.246866 0.42203 7.338053-4.66811 1.205784 0.80099-8.767768-3.52261-0.301446 0.27561-3.186714 10.10274-0.602891 0.37035 4.711168z" style="font-feature-settings:normal;font-variant-caps:normal;font-variant-ligatures:normal;font-variant-numeric:normal"/>
  </g>
  <path d="m200.95899 32.432657-0.77514-7.656725 5.84805-0.697632-2.12735 8.55245zm1.5503 4.203017q-0.71486 0-1.22301-0.499539-0.49954-0.508152-0.49954-1.223009 0-0.714858 0.49954-1.214396 0.50815-0.508152 1.22301-0.508152 0.71485 0 1.21439 0.508152 0.50815 0.499538 0.50815 1.214396 0 0.714857-0.50815 1.223009-0.49954 0.499539-1.21439 0.499539z" fill="#e91e63" style="font-feature-settings:normal;font-variant-caps:normal;font-variant-ligatures:normal;font-variant-numeric:normal"/>
  <g transform="matrix(.04694288 -.01257831 .01257831 .04694288 120.8201 12.994598)">
   <g transform="translate(-6.7560144,68.314206)">
    <text x="123.47852" y="100.3698" fill="#000000" font-family="sans-serif" font-size="10.58333302px" letter-spacing="0px" stroke-width=".26458332" word-spacing="0px" style="line-height:1.25" xml:space="preserve"><tspan x="123.47852" y="109.73357" stroke-width=".26458332"/></text>
    <text x="330.39859" y="179.13414" fill="#000000" font-family="sans-serif" font-size="10.58333302px" letter-spacing="0px" stroke-width=".26458332" word-spacing="0px" style="line-height:1.25" xml:space="preserve"><tspan x="330.39859" y="188.49791" stroke-width=".26458332"/></text>
    <path d="m64.06885 11.174618c-7.95292 0.0042-16.761523 2.439374-26.204571 8.794997-40.290313 27.117332-22.524338 75.958167 5.654699 105.687675 22.864815 24.1229 63.377142 46.42115 63.377142 46.42115s40.51237-22.29825 63.37717-46.42115c28.17906-29.729508 45.94502-78.570343 5.65471-105.687675-40.29029-27.1173472-69.03188 17.130585-69.03188 17.130585s-16.847764-25.937444-42.82727-25.925582z" fill="#e91e63"/>
   </g>
   <path d="m134.243 93.747639s48.00961-0.954087 42.74827 55.019021" fill="none" stroke="#fff" stroke-linecap="round" stroke-width="7.52193689"/>
   <path transform="scale(.26458333)" d="m216.61523 300.42969c-30.05828 0.0159-63.35075 9.22093-99.04101 33.24219-152.278351 102.49069-85.130403 287.08571 21.37305 399.44921 86.41819 91.17317 239.53515 175.44922 239.53515 175.44922s-18.89302 11.3314 0 0c-46.59304-39.81025-125.51374-103.13384-187.94512-169.00037-106.503445-112.3635-163.331272-303.40737-11.05292-405.89806 23.85845-16.05789 46.64187-25.48787 68.10742-29.98438-9.88635-2.08973-20.22419-3.26272-30.97657-3.25781z" fill="#d21555"/>
  </g>
  <g transform="matrix(-.03322049 -.01436182 -.01436182 .03322049 192.43855 15.209859)">
   <g transform="translate(-6.7560144,68.314206)">
    <text x="123.47852" y="100.3698" fill="#000000" font-family="sans-serif" font-size="10.58333302px" letter-spacing="0px" stroke-width=".26458332" word-spacing="0px" style="line-height:1.25" xml:space="preserve"><tspan x="123.47852" y="109.73357" stroke-width=".26458332"/></text>
    <text x="330.39859" y="179.13414" fill="#000000" font-family="sans-serif" font-size="10.58333302px" letter-spacing="0px" stroke-width=".26458332" word-spacing="0px" style="line-height:1.25" xml:space="preserve"><tspan x="330.39859" y="188.49791" stroke-width=".26458332"/></text>
    <path d="m64.06885 11.174618c-7.95292 0.0042-16.761523 2.439374-26.204571 8.794997-40.290313 27.117332-22.524338 75.958167 5.654699 105.687675 22.864815 24.1229 63.377142 46.42115 63.377142 46.42115s40.51237-22.29825 63.37717-46.42115c28.17906-29.729508 45.94502-78.570343 5.65471-105.687675-40.29029-27.1173472-69.03188 17.130585-69.03188 17.130585s-16.847764-25.937444-42.82727-25.925582z" fill="#e91e63"/>
   </g>
   <path d="m134.243 93.747639s48.00961-0.954087 42.74827 55.019021" fill="none" stroke="#fff" stroke-linecap="round" stroke-width="7.52193689"/>
   <path transform="scale(.26458333)" d="m216.61523 300.42969c-30.05828 0.0159-63.35075 9.22093-99.04101 33.24219-152.278351 102.49069-85.130403 287.08571 21.37305 399.44921 86.41819 91.17317 239.53515 175.44922 239.53515 175.44922s-18.89302 11.3314 0 0c-46.59304-39.81025-125.51374-103.13384-187.94512-169.00037-106.503445-112.3635-163.331272-303.40737-11.05292-405.89806 23.85845-16.05789 46.64187-25.48787 68.10742-29.98438-9.88635-2.08973-20.22419-3.26272-30.97657-3.25781z" fill="#d21555"/>
  </g>
  <path d="m112.0879 43.28226s41.34601-10.11752 85.91501-1.89984" fill="none" stroke="#e91e63" stroke-linecap="round" stroke-width=".79374999"/>
 </g>
</svg>
