<?xml version="1.0" encoding="UTF-8"?>
<!-- Created with Inkscape (http://www.inkscape.org/) -->
<svg width="164.67239mm" height="25.114855mm" version="1.1" viewBox="0 0 164.67239 25.114855" xmlns="http://www.w3.org/2000/svg" xmlns:cc="http://creativecommons.org/ns#" xmlns:dc="http://purl.org/dc/elements/1.1/" xmlns:rdf="http://www.w3.org/1999/02/22-rdf-syntax-ns#">
 <metadata>
  <rdf:RDF>
   <cc:Work rdf:about="">
    <dc:format>image/svg+xml</dc:format>
    <dc:type rdf:resource="http://purl.org/dc/dcmitype/StillImage"/>
    <dc:title/>
   </cc:Work>
  </rdf:RDF>
 </metadata>
 <g transform="translate(-6.5298585,-14.291977)">
  <g stroke-width=".26458332" style="font-feature-settings:normal;font-variant-caps:normal;font-variant-ligatures:normal;font-variant-numeric:normal" aria-label="Thank you!">
   <g fill="#2196f3" stroke-width=".26458332">
    <path d="m29.130256 28.740816 0.506429 8.805664-5.601725 1.44694 0.961182-10.521322-4.227132-0.361735 0.330729-3.824056 12.123291-0.72347 0.444417 5.653402z" style="font-feature-settings:normal;font-variant-caps:normal;font-variant-ligatures:normal;font-variant-numeric:normal"/>
    <path d="m39.589566 34.445894 0.37207 3.493326-3.958414 0.692465-1.79834-11.451497 4.402832-1.881023 0.496094 4.960938 3.968749-0.454753 0.06201-4.51652 6.893636 0.692464-2.635498 12.702067-4.433838-1.312581 0.05168-3.296957z" style="font-feature-settings:normal;font-variant-caps:normal;font-variant-ligatures:normal;font-variant-numeric:normal"/>
    <path d="m53.717903 36.740327-0.72347 2.067057-4.072103-2.459798 5.105632-12.009602 3.886067-0.268718 6.108154 12.43335-4.826578 2.304768-1.064535-2.904215zm3.534668-4.526855-1.157552-3.741374-1.364258 4.134115z" style="font-feature-settings:normal;font-variant-caps:normal;font-variant-ligatures:normal;font-variant-numeric:normal"/>
    <path d="m69.727262 31.572684 1.023193 5.922119-5.157308 1.312581-1.043864-13.57023 5.177979-0.89917 5.105631 6.759277 0.06201-6.759277 6.407877-0.661458-2.273763 15.130858-4.103108 0.599447z" style="font-feature-settings:normal;font-variant-caps:normal;font-variant-ligatures:normal;font-variant-numeric:normal"/>
    <path d="m85.60226 29.660656 3.327963-6.252848 6.33553 0.930176-5.932454 7.2347 5.508707 3.431315-4.743896 3.803385-4.134115-5.167643 0.723471 4.237468-4.857585 0.930175v-14.4694l3.296956 0.361735z" style="font-feature-settings:normal;font-variant-caps:normal;font-variant-ligatures:normal;font-variant-numeric:normal"/>
   </g>
   <g fill="#00c853">
    <path d="m105.92143 32.606213-4.86792-4.909261 4.11344-3.358968 2.82154 4.134114 2.34611-5.146972 5.48803 1.881022-5.76709 7.400065 0.44442 5.808431-5.03328-0.682129z"/>
    <path d="m122.25118 38.807384q-3.49332 0-5.96346-2.118733-2.4598-2.118734-2.4598-5.115967t2.4598-5.115966q2.47014-2.118734 5.96346-2.118734 3.48299 0 5.94279 2.118734 2.47014 2.118733 2.47014 5.115966t-2.47014 5.115967q-2.4598 2.118733-5.94279 2.118733zm-0.57877-4.51652q1.48828 0 2.54248-0.909505 1.06453-0.909505 1.06453-2.19108 0-1.281576-1.06453-2.191081-1.0542-0.909505-2.54248-0.909505-1.49862 0-2.56315 0.909505-1.0542 0.909505-1.0542 2.191081 0 1.281575 1.0542 2.19108 1.06453 0.909505 2.56315 0.909505z"/>
    <path d="m132.47278 25.061454 5.50871 1.07487q-2.74919 8.443928 0.78548 8.536946 4.19613-0.03101 2.42879-8.743652l5.04362-1.591634q2.31511 14.345377-7.47241 14.4694-9.89087-0.09302-6.29419-13.74593z"/>
   </g>
   <path d="m150.02209 33.763765-0.93017-9.18807 7.01766-0.837158-2.55282 10.262939zm1.86035 5.043619q-0.85783 0-1.46761-0.599446-0.59944-0.609782-0.59944-1.467611 0-0.857828 0.59944-1.457275 0.60978-0.609782 1.46761-0.609782t1.45728 0.609782q0.60978 0.599447 0.60978 1.457275 0 0.857829-0.60978 1.467611-0.59945 0.599446-1.45728 0.599446z" fill="#e91e63"/>
  </g>
  <g transform="matrix(.06166252 -.02338273 .02338273 .06166252 3.2300181 13.147897)">
   <g transform="translate(-6.7560144,68.314206)">
    <text x="123.47852" y="100.3698" fill="#000000" font-family="sans-serif" font-size="10.58333302px" letter-spacing="0px" stroke-width=".26458332" word-spacing="0px" style="line-height:1.25" xml:space="preserve"><tspan x="123.47852" y="109.73357" stroke-width=".26458332"/></text>
    <text x="330.39859" y="179.13414" fill="#000000" font-family="sans-serif" font-size="10.58333302px" letter-spacing="0px" stroke-width=".26458332" word-spacing="0px" style="line-height:1.25" xml:space="preserve"><tspan x="330.39859" y="188.49791" stroke-width=".26458332"/></text>
    <path d="m64.06885 11.174618c-7.95292 0.0042-16.761523 2.439374-26.204571 8.794997-40.290313 27.117332-22.524338 75.958167 5.654699 105.687675 22.864815 24.1229 63.377142 46.42115 63.377142 46.42115s40.51237-22.29825 63.37717-46.42115c28.17906-29.729508 45.94502-78.570343 5.65471-105.687675-40.29029-27.1173472-69.03188 17.130585-69.03188 17.130585s-16.847764-25.937444-42.82727-25.925582z" fill="#e91e63"/>
   </g>
   <path d="m134.243 93.747639s48.00961-0.954087 42.74827 55.019021" fill="none" stroke="#fff" stroke-linecap="round" stroke-width="7.52193689"/>
   <path transform="scale(.26458333)" d="m216.61523 300.42969c-30.05828 0.0159-63.35075 9.22093-99.04101 33.24219-152.278351 102.49069-85.130403 287.08571 21.37305 399.44921 86.41819 91.17317 239.53515 175.44922 239.53515 175.44922s-18.89302 11.3314 0 0c-46.59304-39.81025-125.51374-103.13384-187.94512-169.00037-106.503445-112.3635-163.331272-303.40737-11.05292-405.89806 23.85845-16.05789 46.64187-25.48787 68.10742-29.98438-9.88635-2.08973-20.22419-3.26272-30.97657-3.25781z" fill="#d21555"/>
  </g>
  <g transform="matrix(-.06166252 -.02338273 -.02338273 .06166252 174.5021 12.906596)">
   <g transform="translate(-6.7560144,68.314206)">
    <text x="123.47852" y="100.3698" fill="#000000" font-family="sans-serif" font-size="10.58333302px" letter-spacing="0px" stroke-width=".26458332" word-spacing="0px" style="line-height:1.25" xml:space="preserve"><tspan x="123.47852" y="109.73357" stroke-width=".26458332"/></text>
    <text x="330.39859" y="179.13414" fill="#000000" font-family="sans-serif" font-size="10.58333302px" letter-spacing="0px" stroke-width=".26458332" word-spacing="0px" style="line-height:1.25" xml:space="preserve"><tspan x="330.39859" y="188.49791" stroke-width=".26458332"/></text>
    <path d="m64.06885 11.174618c-7.95292 0.0042-16.761523 2.439374-26.204571 8.794997-40.290313 27.117332-22.524338 75.958167 5.654699 105.687675 22.864815 24.1229 63.377142 46.42115 63.377142 46.42115s40.51237-22.29825 63.37717-46.42115c28.17906-29.729508 45.94502-78.570343 5.65471-105.687675-40.29029-27.1173472-69.03188 17.130585-69.03188 17.130585s-16.847764-25.937444-42.82727-25.925582z" fill="#e91e63"/>
   </g>
   <path d="m134.243 93.747639s48.00961-0.954087 42.74827 55.019021" fill="none" stroke="#fff" stroke-linecap="round" stroke-width="7.52193689"/>
   <path transform="scale(.26458333)" d="m216.61523 300.42969c-30.05828 0.0159-63.35075 9.22093-99.04101 33.24219-152.278351 102.49069-85.130403 287.08571 21.37305 399.44921 86.41819 91.17317 239.53515 175.44922 239.53515 175.44922s-18.89302 11.3314 0 0c-46.59304-39.81025-125.51374-103.13384-187.94512-169.00037-106.503445-112.3635-163.331272-303.40737-11.05292-405.89806 23.85845-16.05789 46.64187-25.48787 68.10742-29.98438-9.88635-2.08973-20.22419-3.26272-30.97657-3.25781z" fill="#d21555"/>
  </g>
 </g>
</svg>
