<?xml version="1.0" encoding="UTF-8"?>
<!-- Created with Inkscape (http://www.inkscape.org/) -->
<svg width="120.08569mm" height="18.190104mm" version="1.1" viewBox="0 0 120.08569 18.190104" xmlns="http://www.w3.org/2000/svg" xmlns:cc="http://creativecommons.org/ns#" xmlns:dc="http://purl.org/dc/elements/1.1/" xmlns:rdf="http://www.w3.org/1999/02/22-rdf-syntax-ns#">
 <metadata>
  <rdf:RDF>
   <cc:Work rdf:about="">
    <dc:format>image/svg+xml</dc:format>
    <dc:type rdf:resource="http://purl.org/dc/dcmitype/StillImage"/>
    <dc:title/>
   </cc:Work>
  </rdf:RDF>
 </metadata>
 <g transform="translate(-39.590528,-1.4844016)">
  <g stroke-width=".26458332" style="font-feature-settings:normal;font-variant-caps:normal;font-variant-ligatures:normal;font-variant-numeric:normal" aria-label="Your help">
   <g fill="#2196f3" stroke-width=".26458332">
    <path d="m44.458448 11.612982-4.86792-4.9092609 4.113444-3.358968 2.821533 4.1341144 2.34611-5.1469725 5.488037 1.8810221-5.76709 7.4000649 0.444417 5.808431-5.033284-0.682129z" style="font-feature-settings:normal;font-variant-caps:normal;font-variant-ligatures:normal;font-variant-numeric:normal"/>
    <path d="m60.7882 17.814154q-3.493327 0-5.96346-2.118734-2.459798-2.118734-2.459798-5.115967 0-2.9972326 2.459798-5.1159663 2.470133-2.1187336 5.96346-2.1187336 3.482992 0 5.94279 2.1187336 2.470133 2.1187337 2.470133 5.1159663 0 2.997233-2.470133 5.115967-2.459798 2.118734-5.94279 2.118734zm-0.578776-4.51652q1.488281 0 2.54248-0.909506 1.064535-0.909505 1.064535-2.19108 0-1.2815757-1.064535-2.1910809-1.054199-0.9095052-2.54248-0.9095052-1.498616 0-2.563151 0.9095052-1.054199 0.9095052-1.054199 2.1910809 0 1.281575 1.054199 2.19108 1.064535 0.909506 2.563151 0.909506z" style="font-feature-settings:normal;font-variant-caps:normal;font-variant-ligatures:normal;font-variant-numeric:normal"/>
    <path d="m71.009797 4.0682231 5.508708 1.0748698q-2.749186 8.4439291 0.785482 8.5369461 4.196126-0.03101 2.428792-8.7436519l5.043619-1.591634q2.315105 14.3453769-7.472411 14.4694009-9.890869-0.093018-6.29419-13.7459309z" style="font-feature-settings:normal;font-variant-caps:normal;font-variant-ligatures:normal;font-variant-numeric:normal"/>
    <path d="m90.791537 6.7553975 0.144694 2.7905273q5.167643 0 5.167643-1.0335287 0-1.0335286-5.312337-1.7569986zm0.692464 10.2215975-5.756754 0.806153 1.198893-15.4305824q13.31185 0.9921875 13.75627 5.3330076 0.45475 4.3304848-4.578536 5.9944658l4.134116 2.242757-4.237469 3.751709-4.847249-5.994466z" style="font-feature-settings:normal;font-variant-caps:normal;font-variant-ligatures:normal;font-variant-numeric:normal"/>
   </g>
   <g fill="#00c853">
    <path d="m112.27859 13.452663 0.37208 3.493327-3.95842 0.692464-1.79834-11.4514972 4.40283-1.8810221 0.4961 4.9609373 3.96875-0.4547526 0.062-4.51652 6.89363 0.6924642-2.63549 12.7020664-4.43384-1.312581 0.0517-3.296956z"/>
    <path d="m133.51761 1.4844016 0.26872 5.4777016-6.42855 0.6924642 0.0827 1.2505696 4.2168-0.3927409 0.37207 3.7413739-4.40283 0.320394 0.0723 1.012858 6.24252-0.475424 0.93017 4.702556-12.30932 0.423746 1.25057-14.9138175z"/>
    <path d="m136.09109 3.1380473 5.0953 0.2687175-1.67432 10.2732742 5.18832-0.806152-1.14722 5.508707-8.17521-0.56844z"/>
    <path d="m150.79821 13.649033 0.83716 3.090251-5.39502 1.07487-1.0232-13.8389485q13.7666-2.2220865 14.45907 4.5371906 0 5.1676429-8.87801 5.1366369zm-1.41594-6.118489 0.57878 2.0153808q5.58105 0 5.25032-1.4676107-0.33072-1.4676106-5.8291-0.5477701z"/>
   </g>
  </g>
 </g>
</svg>
