<?xml version="1.0" encoding="UTF-8"?>
<!-- Created with Inkscape (http://www.inkscape.org/) -->
<svg width="512" height="511.99997" version="1.1" viewBox="0 0 135.46667 135.46666" xmlns="http://www.w3.org/2000/svg" xmlns:cc="http://creativecommons.org/ns#" xmlns:dc="http://purl.org/dc/elements/1.1/" xmlns:rdf="http://www.w3.org/1999/02/22-rdf-syntax-ns#">
 <metadata>
  <rdf:RDF>
   <cc:Work rdf:about="">
    <dc:format>image/svg+xml</dc:format>
    <dc:type rdf:resource="http://purl.org/dc/dcmitype/StillImage"/>
    <dc:title/>
   </cc:Work>
  </rdf:RDF>
 </metadata>
 <g transform="translate(401.44955,29.967789)">
  <rect x="-401.44955" y="-29.967789" width="135.46666" height="135.46666" opacity="0" stroke-width=".60224169"/>
  <g transform="matrix(.83239868 0 0 .82825158 -641.24874 13.759043)">
   <g transform="matrix(1.2668747,0,0,1.2668747,-162.53303,14.086655)">
    <path d="m429.87042 36.784462c16.76267 0 30.35141-13.588736 30.35141-30.3514125 0-22.0937665-13.58874-48.3107995-30.35141-48.3107995-16.76268 0-30.35142 26.217033-30.35142 48.3107995 0 16.7626765 13.58874 30.3514125 30.35142 30.3514125z" fill="#eaeaea" stroke-width=".26458332"/>
    <g transform="matrix(.26458333 0 0 .26458333 379.8811 -51.125695)" opacity=".1">
     <circle cx="215.63901" cy="113.07" r="7.4809999"/>
     <circle cx="126.769" cy="161.64999" r="7.4809999"/>
     <circle cx="145.019" cy="255.10001" r="7.4809999"/>
     <circle cx="168.939" cy="218.06" r="7.4809999"/>
     <circle cx="266.13901" cy="203.10001" r="7.4809999"/>
    </g>
   </g>
   <g fill="#d3d3d3" stroke-width=".26458335">
    <circle transform="rotate(65.949241)" cx="167.75479" cy="-366.79385" r="1.9534187"/>
    <circle transform="rotate(65.949241)" cx="129.12503" cy="-355.61081" r="1.9534187"/>
    <circle transform="rotate(65.949241)" cx="186.87071" cy="-351.07291" r="1.9534187"/>
   </g>
   <g transform="matrix(.26458333 0 0 .26458333 315.35797 -19.453643)" fill="#493625">
    <path d="m23.208 154.418c-3.658 0-7.03-2.398-8.101-6.088-1.301-4.476 1.274-9.159 5.75-10.458 27.746-8.061 63.941-0.476 65.468-0.149 4.558 0.976 7.462 5.462 6.487 10.018-0.976 4.556-5.46 7.458-10.014 6.488-0.332-0.071-33.61-7.009-57.233-0.15-0.785 0.231-1.578 0.339-2.357 0.339z"/>
    <path d="m481.049 154.418c-1.294 0-2.606-0.299-3.838-0.928-24.817-12.7-57.472-2.911-57.8-2.809-4.453 1.367-9.174-1.129-10.547-5.576-1.374-4.447 1.106-9.165 5.552-10.547 1.597-0.496 39.459-11.97 70.484 3.906 4.149 2.123 5.792 7.207 3.668 11.357-1.492 2.918-4.452 4.597-7.519 4.597z"/>
   </g>
   <g stroke-width=".26458332">
    <path d="m418.17056 70.439334c-0.55431-0.47704-1.30705-0.65325-2.01613-0.47016-6.06557 1.56765-13.08735 2.62572-20.86954 3.14589-0.48921 0.0328-0.95409 0.22569-1.32292 0.54875-8.32564 7.29668-7.1964 20.67851-7.14427 21.24445 0.0579 0.63024 0.381 1.20677 0.88873 1.58512 0.38894 0.28999 0.85778 0.44265 1.33482 0.44265 0.14579 0 0.29263-0.0143 0.43789-0.0431 10.8704-2.17434 18.98809-6.41747 24.12762-12.61215 4.21375-5.07895 5.12921-10.02613 5.32738-11.91684 0.0762-0.72787-0.20902-1.447-0.76358-1.92458z" fill="#8dce55"/>
    <path d="m418.17056 70.439334c-0.55431-0.47704-1.30705-0.65325-2.01613-0.47016-1.89944 0.49107-3.89281 0.9316-5.97376 1.32159 0.13599 0.33496 0.19209 0.70274 0.15293 1.07315-0.19791 1.89098-1.11363 6.83816-5.32739 11.91684-4.13808 4.98792-10.20842 8.70955-18.09062 11.10562 0.14076 0.43868 0.41487 0.82708 0.79005 1.10728 0.38893 0.28998 0.85778 0.44265 1.33482 0.44265 0.14579 0 0.29263-0.0143 0.43789-0.0431 10.8704-2.17435 18.98808-6.41747 24.12761-12.61216 4.21376-5.07894 5.12922-10.02612 5.32739-11.91683 0.077-0.72814-0.20823-1.44727-0.76279-1.92485z" fill="#6dc82a"/>
    <path d="m450.29124 88.390254c-3.02155-8.24071-7.13132-14.18404-12.21449-17.6649-3.92748-2.68896-8.32829-3.88197-13.08577-3.5396-0.22754 0.0164-0.45111 0.0672-0.66304 0.15134-2.31669 0.91784-4.83182 1.74255-7.47633 2.4511-0.62098 0.16643-1.14062 0.59241-1.42505 1.16946-2.41485 4.8985-2.46142 9.11701-0.13838 12.53755 2.90963 4.28545 9.45595 6.90192 19.45561 7.77716 2.74214 0.24024 5.35675 0.31512 7.54962 0.31512 3.49462 0 5.91873-0.18997 6.08013-0.20294 0.69559-0.0561 1.32529-0.43391 1.70153-1.02182 0.3765-0.58737 0.45667-1.31709 0.21617-1.97247z" fill="#8dce55"/>
    <path d="m450.29124 88.390254c-3.02155-8.24071-7.13132-14.18404-12.21449-17.6649-3.92748-2.68896-8.32829-3.88197-13.08577-3.5396-0.22754 0.0164-0.45111 0.0672-0.66304 0.15134-0.52917 0.20955-1.06998 0.41381-1.61899 0.61357 2.02116 0.59928 3.95261 1.52321 5.78035 2.77495 5.15409 3.52928 9.30672 9.58956 12.33964 18.0094 0.18918 1.4687-0.8255 2.55243-2.04232 2.65006-0.0664 5e-3 -0.51832 0.0405-1.26391 0.0802 1.71556 0.0897 3.33454 0.12303 4.7707 0.12303 3.49462 0 5.91873-0.18997 6.08013-0.20293 0.69559-0.0561 1.32529-0.43392 1.70153-1.02182 0.3765-0.58817 0.45667-1.31789 0.21617-1.97327z" fill="#6dc82a"/>
   </g>
   <path d="m422.61275 13.749676c-0.76782-0.174889-1.57162 0.068-2.11455 0.638969-0.54266 0.571235-0.74427 1.386152-0.53022 2.144448 2.01324 12.196031-3.58863 20.039051-3.58863 20.039051-0.30824 1.07421 0.42306-0.93716 0 0-24.53601 5.92851-45.61886 5.40802-69.62854-0.17304-0.39317-0.89217 0.28786 1.00409 0 0-2.38818-5.24803-3.91802-14.09464-2.70543-18.95266 0.19103-0.765705-0.0362-1.57533-0.59743-2.129632-0.56145-0.554037-1.37398-0.771525-2.13704-0.570441-22.60468 5.948893-25.95291 16.634643-25.95291 24.048803 0 10.95348 4.77308 20.20623 13.80331 26.75837 11.35644 8.23992 29.50077 12.41742 53.93001 12.41742 24.42898 0 42.57384-4.17777 53.93002-12.41742 9.03023-6.55188 13.80332-15.80489 13.80332-26.75837 0-7.88273-2.91587-19.28631-28.21189-25.045498z" fill="#b79274" stroke-width=".26458332"/>
   <g transform="matrix(.26458333 0 0 .26458333 315.35797 -19.453643)" fill="#493625">
    <path d="m318.994 322.882c-19.194 0-37.999-0.76-56.382-2.283-52.628-4.36-101.908-14.948-146.474-31.472-76.392-28.322-112.213-63.993-113.7-65.499-3.277-3.314-3.246-8.658 0.069-11.935 3.314-3.276 8.657-3.245 11.934 0.068 0.709 0.707 35.727 35.115 108.643 61.939 43.082 15.849 90.777 25.993 141.761 30.148 63.844 5.203 133.059 0.982 205.724-12.548 4.584-0.86 8.989 2.17 9.842 6.752s-2.17 8.989-6.752 9.842c-53.588 9.976-105.391 14.988-154.665 14.988z"/>
    <path d="m177.634 307.249c-4.502 0-8.242-3.556-8.426-8.095-0.19-4.658 3.432-8.587 8.088-8.777 232.85-9.487 318.214-85.689 319.049-86.458 3.429-3.156 8.768-2.934 11.926 0.494 3.156 3.43 2.935 8.768-0.494 11.926-0.92 0.847-23.162 21.012-75.244 42.297-47.409 19.375-130.054 43.536-254.548 48.607-0.118 3e-3 -0.235 6e-3 -0.351 6e-3z"/>
    <path d="m301.022 294.641c-0.266 0-0.533-0.014-0.803-0.038-0.271-0.025-27.479-2.623-57.731-7.851-41.565-7.182-69.048-15.801-81.686-25.619-3.681-2.859-4.347-8.162-1.488-11.841 2.859-3.683 8.159-4.348 11.842-1.488 21.211 16.477 101.502 27.238 130.649 29.994 4.641 0.439 8.047 4.556 7.608 9.197-0.412 4.37-4.09 7.646-8.391 7.646z"/>
   </g>
   <path d="m381.38712 44.782424c-8.15842 0-15.36567-0.59954-21.38574-1.41128-18.97512-2.55879-30.33368-7.59751-30.80808-7.81024-1.12475-0.50588-1.6264-1.82774-1.12104-2.95249 0.50588-1.12421 1.82748-1.6256 2.95222-1.12103 0.18468 0.0823 11.43106 5.03422 29.75716 7.48294 16.94338 2.26325 43.58984 2.78871 74.31193-7.56206 1.16866-0.39422 2.43522 0.23443 2.82892 1.40309 0.39397 1.16866-0.23468 2.43549-1.40308 2.82893-20.71423 6.97917-39.63697 9.14214-55.13229 9.14214z" fill="#493625" stroke-width=".26458332"/>
   <g transform="translate(-12.65163,-174.63226)" stroke-width=".26458332">
    <path d="m326.04868 256.31412v1.56792c0 1.35732 1.10041 2.45745 2.45745 2.45745h7.74806c5.3176 0 9.66814-4.3508 9.66814-9.66814v-4.02537h-10.20577c-5.31733 0-9.66788 4.35055-9.66788 9.66814z" fill="#8dce55"/>
    <path d="m331.67875 257.88204v-1.56792c0-5.31759 4.35081-9.66814 9.66814-9.66814h-5.63033c-5.3176 0-9.66814 4.35055-9.66814 9.66814v1.56792c0 1.35732 1.1004 2.45745 2.45745 2.45745h5.63033c-1.35705 0-2.45745-1.10013-2.45745-2.45745z" fill="#6dc82a"/>
    <path d="m406.89186 246.73488c-1.39727-2.07142-4.20953-2.61726-6.28121-1.21999-14.32957 9.66787-34.12808 3.74862-48.93892-5.57742-2.40454-5.42581-1.20253-11.21092-1.16576-11.38237 0.55404-2.42676-0.95726-4.8477-3.38428-5.41311-2.43417-0.56939-4.86595 0.94615-5.43322 3.37952-0.0452 0.19394-0.56938 2.5318-0.55827 5.89148-21.38574-15.56623-35.15704-16.09143-35.75923-16.10625-2.54-0.0579-4.57465 1.94786-4.63577 4.41008-0.0624 2.49819 1.91215 4.57358 4.41008 4.63576 0.0796 2e-3 5.36601 0.30877 14.49705 4.62068-3.43985 0.88662-7.80971 2.69875-12.03484 6.39313-0.85011 0.74322-0.93662 2.03465-0.19341 2.88475 0.74321 0.85037 2.03491 0.93636 2.88475 0.19341 7.02151-6.13912 14.61453-6.2304 15.54665-6.21585 3.84678 2.21403 8.15446 5.04666 12.86246 8.67489 19.5453 15.06326 46.74473 24.75415 66.96339 11.11303 2.07169-1.39832 2.61779-4.21031 1.22053-6.28174z" fill="#ba7958"/>
    <path d="m406.36163 252.44353c0.0286-0.0288 0.24606-0.26987 0.29104-0.32517 0.0384-0.0474 0.22119-0.29607 0.2548-0.34687 0.0442-0.0667 0.18997-0.31274 0.21775-0.36486 0.0489-0.0913 0.15769-0.32464 0.18071-0.37968 0.0471-0.11191 0.12382-0.32861 0.14393-0.39184 0.0389-0.12356 0.0881-0.31565 0.10663-0.40058 0.0291-0.13388 0.0566-0.30427 0.0696-0.40693 0.0169-0.13706 0.0283-0.29025 0.0323-0.41064 5e-3 -0.13864 3e-3 -0.2794-5e-3 -0.41169-7e-3 -0.12197-0.0188-0.24394-0.0357-0.36539-2e-3 -0.0151-4e-3 -0.0302-7e-3 -0.0455-0.019-0.12647-0.0431-0.25241-0.073-0.37782-2e-3 -0.01-5e-3 -0.0198-7e-3 -0.0296-0.0317-0.12938-0.0693-0.25797-0.11298-0.3855-2e-3 -6e-3 -4e-3 -0.0114-6e-3 -0.0169-0.0455-0.13071-0.0968-0.26009-0.15505-0.38762-1e-3 -2e-3 -2e-3 -5e-3 -3e-3 -7e-3 -0.0595-0.13017-0.12542-0.2585-0.19844-0.38444-0.33285 0.57732-0.79402 1.09194-1.38351 1.48987-20.01811 13.50592-47.05826 4.22778-66.96339-11.11303-4.22831-3.25861-8.13382-5.87534-11.67236-7.97851-1.56633-0.93107-3.00329-0.78925-8.56959 0.90091-4.04442 1.2311-7.67345 3.29274-10.79632 6.00868-0.77259 0.68554-0.97552 1.83489-0.43974 2.68738 0.67839 1.06071 2.1299 1.26418 3.0689 0.44317 7.02151-6.13912 14.61453-6.2304 15.54665-6.21585 3.84678 2.21403 8.15446 5.04666 12.86246 8.67489 19.5453 15.06326 46.74473 24.75415 66.96339 11.11303 0.12674-0.0855 0.24739-0.17648 0.36248-0.27225 0.0233-0.0188 0.26935-0.2413 0.32782-0.30031z" fill="#996459"/>
   </g>
  </g>
 </g>
</svg>
