<?xml version="1.0" encoding="UTF-8"?>
<!-- Created with Inkscape (http://www.inkscape.org/) -->
<svg width="511.99997" height="512" version="1.1" viewBox="0 0 135.46666 135.46667" xmlns="http://www.w3.org/2000/svg" xmlns:cc="http://creativecommons.org/ns#" xmlns:dc="http://purl.org/dc/elements/1.1/" xmlns:rdf="http://www.w3.org/1999/02/22-rdf-syntax-ns#">
 <metadata>
  <rdf:RDF>
   <cc:Work rdf:about="">
    <dc:format>image/svg+xml</dc:format>
    <dc:type rdf:resource="http://purl.org/dc/dcmitype/StillImage"/>
    <dc:title/>
   </cc:Work>
  </rdf:RDF>
 </metadata>
 <g transform="translate(247.7216,29.967792)">
  <rect x="-247.7216" y="-29.967789" width="135.46666" height="135.46666" opacity="0" stroke-width=".60224169"/>
  <g transform="matrix(.94979903 0 0 .95700311 -140.79714 -3.1577753)">
   <g>
    <path d="m-63.315767-14.652946h39.758381c4.114026 0 5.444946-17.596838 9.001358-12.279953 18.0289712 46.691499 47.858938 90.924582-2.065431 133.990379h-49.110733c-47.553708-39.819587-20.26218-87.072348-6.059821-133.990379 2.963644-5.585679 4.36222 12.279953 8.476246 12.279953z" fill="#baf496"/>
    <g transform="matrix(.26458333 0 0 .26458333 -108.99589 -21.92821)" fill="#baf496">
     <path d="m492.557 188.675c19.489 19.489 0.952 69.625-25.958 96.536-19.489 19.489-51.088 19.489-70.577 0s-19.489-51.088 0-70.577c26.91-26.911 77.046-45.448 96.535-25.959z"/>
     <path d="m19.442 188.675c-19.489 19.489-0.952 69.625 25.958 96.536 19.489 19.489 51.088 19.489 70.577 0s19.489-51.088 0-70.577c-26.91-26.911-77.046-45.448-96.535-25.959z"/>
    </g>
    <path d="m21.326481 27.99205c5.156465 5.156464 0.251884 18.421614-6.868054 25.541816-5.1564643 5.156465-13.51703297 5.156465-18.6734975 0-5.1564645-5.156464-5.1564645-13.517033 0-18.673498 7.1199374-7.120202 20.3850875-12.024783 25.5415515-6.868318z" enable-background="new" fill="#11a992" opacity=".35" stroke-width=".26458332"/>
    <path d="m-103.85186 27.99205c-5.15647 5.156464-0.25188 18.421614 6.868053 25.541816 5.156465 5.156465 13.517033 5.156465 18.673498 0 5.156464-5.156464 5.156464-13.517033 0-18.673498-7.119938-7.120202-20.385087-12.024783-25.541551-6.868318z" enable-background="new" fill="#11a992" opacity=".35" stroke-width=".26458332"/>
   </g>
   <path d="m18.658158 41.001612-19.32834103 10.16344c-2.43892917 1.282435-5.34617077 1.312068-7.81076447 0.079375l-26.7753035-13.392679c-3.780896-1.891242-8.231717-1.891242-12.012613 0l-26.775304 13.392414c-2.464593 1.232694-5.371835 1.20306-7.810764-0.07938l-19.328338-10.163434c-3.54939-1.866107-7.81103 0.706966-7.81262 4.716991v0.08678c0 37.408115 30.325218 67.733331 67.733332 67.733331 37.4081146 0 67.733333-30.325216 67.733333-67.733331v-0.08678c-0.0016-4.010025-4.263231-6.583098-7.812617-4.716727z" fill="#eaeaea" stroke-width=".26458332"/>
   <g fill="#d3d3d3">
    <g stroke-width=".33519393">
     <circle cx="-83.554176" cy="67.345665" r="2.5075858"/>
     <circle cx="-46.192928" cy="90.965096" r="2.5075858"/>
     <circle cx="-57.004204" cy="101.97471" r="2.5075858"/>
     <circle cx="-56.886341" cy="69.809143" r="2.5075858"/>
     <circle transform="rotate(22.85137)" cx="32.361927" cy="71.012344" r="2.5075858"/>
    </g>
    <g stroke-width=".26458335">
     <circle transform="rotate(88.800611)" cx="63.653614" cy="-1.972863" r="1.9534187"/>
     <circle transform="rotate(65.949241)" cx="32.275337" cy="67.703934" r="1.9534187"/>
     <circle transform="rotate(88.800611)" cx="82.769531" cy="13.748086" r="1.9534187"/>
    </g>
   </g>
   <path d="m-30.920518-9.0666221a15.42089 19.400475 0 0 0 -12.60354 8.24211465 14.142666 17.792388 0 0 0 -9.750595 -4.93589655 14.142666 17.792388 0 0 0 -14.14336 17.793431 14.142666 17.792388 0 0 0 14.14336 17.791498 14.142666 17.792388 0 0 0 10.92107 -6.504949 15.42089 19.400475 0 0 0 11.433065 6.415043 15.42089 19.400475 0 0 0 15.421241 -19.399629 15.42089 19.400475 0 0 0 -15.421241 -19.4016121z" fill="#fff"/>
   <path transform="matrix(1.0580855,1.2861999,-1.2201246,1.003729,379.01238,133.20522)" d="m-206.31278 166.69718c-0.87768 1.00307-8.28701-0.46213-8.71686-1.72376-0.42984-1.26164 4.54372-6.94571 5.85125-6.68715 1.30753 0.25857 3.7433 7.40783 2.86561 8.41091z" fill="#fbc02d" stroke="#b68304" stroke-linecap="round" stroke-width=".63064355"/>
   <g transform="matrix(1.3784078,0,0,1.3784078,15.688274,-10.141289)">
    <ellipse cx="-37.286976" cy="14.678169" rx="4.2262621" ry="6.7620187" fill="#4d4d4d" stroke="#4d4d4d" stroke-linecap="round" stroke-width="1.85361195"/>
    <g fill="#fff">
     <ellipse transform="rotate(-12.407948)" cx="-38.064377" cy="4.1266189" rx="2.1751833" ry="3.9153302"/>
     <ellipse transform="matrix(-.93618155 .35151686 .35151686 .93618155 0 0)" cx="38.086285" cy="3.7988646" rx=".79097581" ry=".75142699"/>
     <circle transform="matrix(-.93618155 .35151686 .35151686 .93618155 0 0)" cx="36.702068" cy="2.9287932" r=".43503669"/>
    </g>
   </g>
   <g transform="matrix(1.3784078,0,0,1.3784078,15.688274,-10.141289)">
    <ellipse cx="-48.34087" cy="14.678169" rx="4.2262621" ry="6.7620187" fill="#4d4d4d" stroke="#4d4d4d" stroke-linecap="round" stroke-width="1.85361195"/>
    <g fill="#fff">
     <ellipse transform="matrix(-.97664248 -.21487081 -.21487081 .97664248 0 0)" cx="45.942318" cy="22.608906" rx="2.1751833" ry="3.9153302"/>
     <ellipse transform="rotate(20.580121)" cx="-42.440132" cy="34.034874" rx=".79097581" ry=".75142699"/>
     <circle transform="rotate(20.580121)" cx="-43.824348" cy="33.164803" r=".43503669"/>
    </g>
   </g>
  </g>
 </g>
</svg>
