<?xml version="1.0" encoding="UTF-8"?>
<!-- Created with Inkscape (http://www.inkscape.org/) -->
<svg width="3910.8728" height="239.3501" version="1.1" viewBox="0 0 1034.7518 63.328047" xmlns="http://www.w3.org/2000/svg" xmlns:cc="http://creativecommons.org/ns#" xmlns:dc="http://purl.org/dc/elements/1.1/" xmlns:rdf="http://www.w3.org/1999/02/22-rdf-syntax-ns#">
 <metadata>
  <rdf:RDF>
   <cc:Work rdf:about="">
    <dc:format>image/svg+xml</dc:format>
    <dc:type rdf:resource="http://purl.org/dc/dcmitype/StillImage"/>
    <dc:title/>
   </cc:Work>
  </rdf:RDF>
 </metadata>
 <g transform="translate(-375.53581,-488.90425)">
  <g fill="#616161" stroke-width=".26458332" style="font-feature-settings:normal;font-variant-caps:normal;font-variant-ligatures:normal;font-variant-numeric:normal" aria-label="The best place to practice what you learned in class">
   <path d="m385.45773 492.76276-9.19841-0.55122q-0.17225 0-0.31005-0.1378-0.13781-0.17226-0.24116-0.41341-0.0689-0.24116-0.1378-0.48232-0.0345-0.24115-0.0345-0.41341 0-0.58567 0.37897-1.13688 0.37896-0.58567 0.93017-0.58567 3.13504 0.13781 6.30453 0.41341 3.16948 0.27561 6.33897 0.41342 3.20394 0.1378 6.33898 0.0344 3.16949-0.10336 6.27007-0.68902 0.24116 0.0689 0.41341 0.41341 0.17226 0.34451 0.27561 0.79237t0.1378 0.93018q0.0689 0.44786 0.0689 0.68902-2.13596 0.62011-3.75516 0.75792-1.58474 0.10335-3.10058 0.0689-1.51585-0.0344-3.13504-0.0689-1.58474-0.0344-3.68625 0.2756-0.0689 1.10243-0.24116 3.03169-0.1378 1.92925-0.31006 4.27192-0.17225 2.34266-0.34451 4.92648-0.17225 2.54937-0.27561 4.99539-0.10335 2.41157-0.1378 4.47863-0.0344 2.06705 0.10335 3.41064l-4.03076 0.31006z" style="font-feature-settings:normal;font-variant-caps:normal;font-variant-ligatures:normal;font-variant-numeric:normal"/>
   <path d="m420.90776 517.6708q0-1.10243-0.0344-2.54937-0.0344-1.4814-0.17225-3.06614-0.10335-1.58474-0.37896-3.16949-0.24116-1.58474-0.65457-2.89388-0.41341-1.30913-1.03353-2.20486-0.58567-0.93017-1.44694-1.20578-1.92925-0.37896-3.68625 0.0689-1.72255 0.44786-2.99723 2.20486-1.24024 1.72255-1.92926 4.92649t-0.51676 8.33713q-0.41341 0.17225-0.86128 0.31006-0.41341 0.1378-0.89572 0.17225-0.44786 0.0344-0.93018-0.0689-0.44786-0.0689-0.96462-0.34451 0.1378-4.51307 0.0344-8.54384-0.0689-4.03076-0.17226-7.54476-0.10335-3.51399-0.10335-6.47677 0.0344-2.99724 0.37896-5.37435 0.34451-0.68902 0.89572-0.99908 0.58567-0.31006 1.13689-0.31006 0.58566 0 0.99907 0.31006 0.44787 0.31006 0.48232 0.86127-0.0345 0.37896-0.10336 1.27469-0.0689 0.86127-0.1378 2.06705-0.0689 1.17134-0.1378 2.54938-0.0344 1.37803-0.0689 2.75607 0 1.34359 0.0345 2.58382 0.0689 1.24024 0.24115 2.13596 0.82683-0.82682 1.72255-1.72254 0.93018-0.93018 2.10151-1.58475 1.20578-0.68902 2.75608-0.93017 1.58474-0.27561 3.75515 0.17225 1.48139 0.34451 2.51492 1.51584 1.03353 1.13688 1.6881 2.79053 0.65456 1.61919 1.03352 3.54845 0.37897 1.92925 0.55122 3.89296 0.20671 1.92925 0.24116 3.7207 0.0689 1.757 0.1378 3.03168-0.17225 0.31006-0.75792 0.55122-0.55122 0.24116-1.17133 0.27561-0.58567 0.0344-1.06798-0.20671-0.48232-0.24116-0.48232-0.86127z" style="font-feature-settings:normal;font-variant-caps:normal;font-variant-ligatures:normal;font-variant-numeric:normal"/>
   <path d="m425.76535 512.84766q-0.31006-2.79052 0.48231-5.5466 0.79238-2.79053 2.44602-4.96094 1.6881-2.20486 4.06521-3.514 2.37712-1.34358 5.23655-1.27468 1.17133-0.0344 2.68717 0.51676 1.51585 0.55122 2.79053 1.5503 1.27469 0.96462 2.03261 2.27376 0.79237 1.27468 0.51676 2.72162 0.0344 0.72347-0.72347 1.20579-0.75792 0.44786-2.0326 0.72347-1.24024 0.27561-2.92834 0.41341-1.65364 0.10335-3.51399 0.17225-1.8259 0.0689-3.72071 0.13781-1.8948 0.0344-3.5829 0.17225-0.96462 2.65273-0.58566 4.37527 0.41341 1.6881 1.6881 2.58383 1.30913 0.89572 3.20393 1.06798 1.92926 0.1378 3.99631-0.27561 2.06706-0.41341 4.06522-1.30914 1.99815-0.93017 3.44509-2.20486 0.20671 0 0.51677 0.1378 0.34451 0.13781 0.65457 0.37896 0.31005 0.20671 0.51676 0.48232 0.24116 0.24115 0.24116 0.44786-0.86128 1.48139-2.61828 2.65272-1.75699 1.17134-3.96186 1.89481-2.20486 0.72347-4.61642 0.89572-2.37712 0.17226-4.47863-0.34451-2.10151-0.51676-3.68625-1.8259-1.58474-1.30913-2.13596-3.54845zm16.46756-9.1984q-0.17226-1.30914-1.03353-1.96371-0.86128-0.65456-2.03261-0.82682-1.17133-0.20671-2.48047 0.0344-1.30913 0.24116-2.44601 0.72347-1.10244 0.48231-1.86036 1.13688-0.72347 0.65457-0.75792 1.30914z" style="font-feature-settings:normal;font-variant-caps:normal;font-variant-ligatures:normal;font-variant-numeric:normal"/>
   <path d="m489.15511 502.51238q-0.13781 2.20486-1.34359 4.37527-1.20578 2.13596-3.06614 4.06521-1.8259 1.8948-4.13411 3.4451-2.30821 1.51584-4.75423 2.48046-2.41157 0.93018-4.71978 1.20579-2.30822 0.24115-4.16857-0.44786-0.27561-2.96279-0.34451-6.33898t-0.0689-6.89019 0-6.99355q0.0344-3.51399-0.0689-6.71793-0.13781-0.96463 0.37896-1.37804 0.55121-0.41341 1.20578-0.41341 0.68902 0 1.24024 0.37896 0.55121 0.34451 0.44786 0.96463l0.34451 16.2264q1.34359-1.757 3.27284-3.4451 1.9637-1.6881 4.06521-2.96278 2.13596-1.30914 4.20302-2.03261 2.10151-0.72347 3.75515-0.55121 1.6881 0.1378 2.72163 1.34358 1.03353 1.17134 1.03353 3.68626zm-2.82498 0.58566q-0.17226-1.20578-0.96463-1.68809-0.79237-0.48232-1.9637-0.34451-1.17134 0.10335-2.61828 0.75792-1.41248 0.62011-2.89388 1.65364-1.48139 0.99908-2.85942 2.30822-1.37804 1.30913-2.44602 2.75607t-1.72255 2.99724q-0.62012 1.51584-0.58567 2.96278-0.17225 0.55121 0.72347 0.58567 0.89573 0.0344 2.41157-0.41342 1.51584-0.48231 3.41064-1.44694 1.89481-0.96462 3.72071-2.41156 1.86035-1.48139 3.41064-3.3762 1.5503-1.92925 2.37712-4.34082z" style="font-feature-settings:normal;font-variant-caps:normal;font-variant-ligatures:normal;font-variant-numeric:normal"/>
   <path d="m489.0862 512.84766q-0.31005-2.79052 0.48232-5.5466 0.79237-2.79053 2.44602-4.96094 1.68809-2.20486 4.06521-3.514 2.37711-1.34358 5.23654-1.27468 1.17134-0.0344 2.68718 0.51676 1.51584 0.55122 2.79053 1.5503 1.27468 0.96462 2.0326 2.27376 0.79237 1.27468 0.51677 2.72162 0.0344 0.72347-0.72347 1.20579-0.75792 0.44786-2.03261 0.72347-1.24023 0.27561-2.92833 0.41341-1.65365 0.10335-3.514 0.17225-1.8259 0.0689-3.7207 0.13781-1.8948 0.0344-3.5829 0.17225-0.96463 2.65273-0.58567 4.37527 0.41341 1.6881 1.6881 2.58383 1.30914 0.89572 3.20394 1.06798 1.92925 0.1378 3.99631-0.27561t4.06521-1.30914q1.99816-0.93017 3.4451-2.20486 0.2067 0 0.51676 0.1378 0.34451 0.13781 0.65457 0.37896 0.31006 0.20671 0.51676 0.48232 0.24116 0.24115 0.24116 0.44786-0.86127 1.48139-2.61827 2.65272-1.757 1.17134-3.96186 1.89481t-4.61643 0.89572q-2.37712 0.17226-4.47862-0.34451-2.10151-0.51676-3.68626-1.8259-1.58474-1.30913-2.13596-3.54845zm16.46756-9.1984q-0.17225-1.30914-1.03353-1.96371-0.86127-0.65456-2.0326-0.82682-1.17134-0.20671-2.48047 0.0344-1.30914 0.24116-2.44602 0.72347-1.10243 0.48231-1.86035 1.13688-0.72347 0.65457-0.75792 1.30914z" style="font-feature-settings:normal;font-variant-caps:normal;font-variant-ligatures:normal;font-variant-numeric:normal"/>
   <path d="m513.51193 516.08605q3.10059-0.24115 5.61551-0.86127 2.54937-0.62012 4.27192-1.41249 1.757-0.82682 2.61827-1.72255 0.86127-0.93017 0.62012-1.8259-0.27561-0.96463-2.75608-0.82682-2.44602 0.1378-7.26915 1.10243-1.41249-0.10335-2.48047-0.65457-1.03353-0.55121-1.65364-1.30914-0.62012-0.79237-0.79238-1.65364-0.17225-0.86128 0.10336-1.51584 0-1.13689 0.65456-2.20486 0.68902-1.10244 1.82591-1.99816 1.17133-0.93018 2.68717-1.65365 1.55029-0.75792 3.30729-1.17133 1.757-0.44786 3.61735-0.55121 1.86035-0.10336 3.68625 0.24115 0.89573 0.41341 1.44694 0.96463 0.58567 0.51676 0.79238 1.06798 0.2067 0.51676 0 0.99908-0.20671 0.48231-0.86128 0.82682-1.41249-0.62012-2.99723-0.89572-1.55029-0.31006-3.10059-0.24116-1.55029 0.0689-2.99723 0.48231-1.41249 0.37896-2.51492 1.10243-1.06798 0.68902-1.757 1.72255t-0.72347 2.34267q0 0.72347 0.55122 0.96462 0.58566 0.20671 1.34358 0.20671 0.79238-0.0345 1.6192-0.17226 0.86127-0.17225 1.37804-0.17225 3.41064-0.48232 5.6155-0.27561 2.23932 0.20671 3.41065 0.89573 1.17133 0.68901 1.37804 1.72254 0.2067 1.03353-0.41342 2.23932-0.58566 1.17133-1.92925 2.37711t-3.27284 2.20486-4.37527 1.6881q-2.41157 0.65457-5.16764 0.79237-0.65457 0.24116-1.10244-0.0689-0.41341-0.31006-0.62011-0.82682-0.20671-0.51677-0.17226-1.06798 0.0689-0.58567 0.41341-0.86128z" style="font-feature-settings:normal;font-variant-caps:normal;font-variant-ligatures:normal;font-variant-numeric:normal"/>
   <path d="m531.70203 503.89041q-0.82682-0.2067-1.06798-0.68901-0.27561-0.48232-0.17225-0.96463 0.10335-0.51677 0.44786-0.89573t0.72347-0.41341h6.44233l-0.13781-10.7487q0.13781-0.41341 0.58567-0.68902 0.44786-0.2756 0.96463-0.31005 0.51676-0.0689 1.03352 0.1378 0.51677 0.17225 0.82683 0.68902l0.31006 10.7487 6.09782-0.13781q0.62011 0.34451 0.82682 0.86128 0.24115 0.48231 0.2067 0.96462-0.0344 0.44787-0.2756 0.82683-0.20671 0.34451-0.48232 0.41341l-6.37342 0.1378q-0.0344 2.13596 0.0344 3.85851 0.10335 1.6881 0.2067 3.30729 0.13781 1.58475 0.20671 3.30729 0.10335 1.6881 0.10335 3.78961-0.99908 0.68902-2.03261 0.65457-1.03352-0.0344-1.41248-0.86128l-0.37896-13.98709h-6.68349z" style="font-feature-settings:normal;font-variant-caps:normal;font-variant-ligatures:normal;font-variant-numeric:normal"/>
   <path d="m566.73866 498.61942q0.13781-0.13781 0.55122-0.31006 0.44786-0.17226 0.93018-0.1378 0.51676 0 0.96462 0.31005 0.44786 0.31006 0.62012 1.06798 4.71978-1.61919 8.09597-1.79145 3.3762-0.17225 5.51216 0.65457 2.17041 0.79237 3.13503 2.41157 0.96463 1.58474 0.82683 3.5829-0.13781 1.9637-1.34359 4.09966t-3.37619 4.03076q-2.17041 1.86036-5.30545 3.27285-3.10059 1.37803-7.06245 1.86035 0.0344 0.48231 0.0344 1.58474t0 2.51492 0 2.96278q0.0344 1.58475 0.0689 2.99724 0.0344 1.44694 0.0689 2.58382 0.0344 1.13688 0.10335 1.65364 0.10335 0.79238-0.1378 1.30914-0.24116 0.51676-0.72347 0.79237-0.48232 0.31006-1.13688 0.37896-0.65457 0.10335-1.37804 0.0344zm12.40235 1.757q-1.34359 0.0344-2.99723 0.34451-1.6192 0.2756-3.03169 0.99907-1.37804 0.72347-2.30821 1.96371-0.89573 1.24023-0.79237 3.10058l0.0689 7.99263q3.7896-0.48232 6.54568-1.72255 2.75608-1.27469 4.51307-2.89388 1.757-1.6192 2.48047-3.3762 0.75792-1.75699 0.48232-3.16948-0.24116-1.44694-1.4814-2.34267-1.24023-0.93017-3.47954-0.89572z" style="font-feature-settings:normal;font-variant-caps:normal;font-variant-ligatures:normal;font-variant-numeric:normal"/>
   <path d="m589.02843 490.24784q0.24116-0.55122 0.65457-0.82683 0.44786-0.31006 0.89572-0.37896 0.44787-0.10335 0.82683 0.0689 0.41341 0.13781 0.65456 0.51677l0.79238 27.62967q0 0.62011-0.37896 0.89572t-0.86128 0.31006q-0.48231 0-0.99908-0.20671-0.51676-0.2067-0.79237-0.62011z" style="font-feature-settings:normal;font-variant-caps:normal;font-variant-ligatures:normal;font-variant-numeric:normal"/>
   <path d="m611.93831 511.36627q-0.99907 1.55029-2.30821 2.82498-1.30914 1.24023-2.89388 2.13596-1.55029 0.86127-3.41064 1.27468-1.82591 0.41342-3.85851 0.24116-0.72347 0-1.55029-0.17225-0.82683-0.17226-1.5503-0.55122-0.68902-0.37896-1.13688-0.99908-0.44786-0.62011-0.44786-1.55029-0.37896-1.92925 0.17225-3.99631 0.58567-2.10151 1.757-4.06521 1.20579-1.99816 2.89388-3.72071 1.72255-1.75699 3.6518-2.96278 1.92926-1.24023 3.92741-1.79145 2.03261-0.58566 3.89296-0.24115 1.41249 0 2.17041 0.93017 0.79237 0.93018 1.17133 2.51492 0.41341 1.55029 0.48232 3.61735 0.10335 2.03261 0.10335 4.27192 0.0344 2.20486 0.10335 4.44417 0.0689 2.20486 0.37896 4.09967-0.0344 0.0689-0.34451 0.41341-0.2756 0.34451-0.72347 0.55121-0.44786 0.20671-1.03353 0.0689-0.55121-0.10336-1.10243-0.96463-0.2067-0.34451-0.2756-1.20578-0.0344-0.89573-0.0344-1.89481 0.0344-0.99908 0.0344-1.92925 0.0344-0.93018-0.0689-1.34359zm-2.17041-10.47309q-1.34358-0.10335-2.79052 0.41341-1.44694 0.51677-2.82498 1.48139-1.34359 0.93018-2.54937 2.20486-1.20579 1.24024-2.10151 2.61828-0.89573 1.34358-1.41249 2.68717-0.48231 1.34359-0.44786 2.48047 0.0689 1.10243 0.72347 1.8948 0.68902 0.75792 2.13596 0.99908 1.99815 0.0344 3.82405-0.99908 1.8259-1.06798 3.30729-2.65272 1.4814-1.58474 2.48047-3.4451 1.03353-1.8948 1.37804-3.54844 0.37896-1.65365 0-2.79053-0.37896-1.17133-1.72255-1.34359z" style="font-feature-settings:normal;font-variant-caps:normal;font-variant-ligatures:normal;font-variant-numeric:normal"/>
   <path d="m617.24376 511.71078q-0.17226-1.79145 0.82682-3.89296 1.03353-2.13596 2.75608-4.09966 1.757-1.99816 3.99631-3.54845 2.27376-1.58474 4.58198-2.27376 2.34266-0.72347 4.47862-0.27561 2.17041 0.44786 3.75515 2.48047 0 0.44786-0.24115 0.79237-0.20671 0.34451-0.55122 0.65457-0.31006 0.31006-0.68902 0.55121-0.37896 0.24116-0.68902 0.48232-0.58566-1.24024-1.55029-1.72255t-2.13596-0.37896q-1.17133 0.0689-2.48047 0.65457-1.30913 0.55121-2.58382 1.44694-1.27468 0.86127-2.41156 1.9637-1.13689 1.06798-1.99816 2.23931-0.82682 1.13689-1.27469 2.27377-0.44786 1.10243-0.34451 1.99815 0 1.51585 0.58567 2.44602 0.58567 0.93018 1.51584 1.44694 0.96463 0.51677 2.17041 0.68902 1.24024 0.17226 2.51492 0.17226 2.61828-0.0689 4.68533-0.62012 2.10151-0.58567 3.61735-1.20579 1.51585-0.65456 2.51492-1.13688 0.99908-0.48231 1.44694-0.37896 0.27561 0 0.55122 0.0344 0.31006 0.0344 0.51676 0.20671 0.24116 0.1378 0.31006 0.44786 0.10335 0.27561 0 0.79237-0.10335 0.65457-0.89572 1.27469-0.79238 0.58567-2.03261 1.10243t-2.75608 0.96463q-1.51584 0.41341-3.03168 0.72347-1.51584 0.2756-2.89388 0.41341-1.34359 0.1378-2.23931 0.0689-1.51584 0-3.27284-0.34451t-3.27284-1.13688q-1.4814-0.79237-2.48047-2.06706-0.99908-1.30914-0.99908-3.23839z" style="font-feature-settings:normal;font-variant-caps:normal;font-variant-ligatures:normal;font-variant-numeric:normal"/>
   <path d="m642.87527 512.84766q-0.31005-2.79052 0.48232-5.5466 0.79237-2.79053 2.44602-4.96094 1.68809-2.20486 4.06521-3.514 2.37711-1.34358 5.23654-1.27468 1.17134-0.0344 2.68718 0.51676 1.51584 0.55122 2.79053 1.5503 1.27468 0.96462 2.0326 2.27376 0.79237 1.27468 0.51677 2.72162 0.0344 0.72347-0.72347 1.20579-0.75792 0.44786-2.03261 0.72347-1.24023 0.27561-2.92833 0.41341-1.65365 0.10335-3.514 0.17225-1.8259 0.0689-3.7207 0.13781-1.8948 0.0344-3.5829 0.17225-0.96463 2.65273-0.58567 4.37527 0.41341 1.6881 1.6881 2.58383 1.30914 0.89572 3.20394 1.06798 1.92925 0.1378 3.99631-0.27561t4.06521-1.30914q1.99816-0.93017 3.4451-2.20486 0.2067 0 0.51676 0.1378 0.34451 0.13781 0.65457 0.37896 0.31006 0.20671 0.51676 0.48232 0.24116 0.24115 0.24116 0.44786-0.86127 1.48139-2.61827 2.65272-1.757 1.17134-3.96186 1.89481t-4.61643 0.89572q-2.37712 0.17226-4.47862-0.34451-2.10151-0.51676-3.68626-1.8259-1.58474-1.30913-2.13596-3.54845zm16.46756-9.1984q-0.17225-1.30914-1.03353-1.96371-0.86127-0.65456-2.0326-0.82682-1.17134-0.20671-2.48047 0.0344-1.30914 0.24116-2.44602 0.72347-1.10243 0.48231-1.86035 1.13688-0.72347 0.65457-0.75792 1.30914z" style="font-feature-settings:normal;font-variant-caps:normal;font-variant-ligatures:normal;font-variant-numeric:normal"/>
   <path d="m683.21735 503.89041q-0.82682-0.2067-1.06798-0.68901-0.27561-0.48232-0.17225-0.96463 0.10335-0.51677 0.44786-0.89573t0.72347-0.41341h6.44233l-0.13781-10.7487q0.13781-0.41341 0.58567-0.68902 0.44786-0.2756 0.96463-0.31005 0.51676-0.0689 1.03352 0.1378 0.51677 0.17225 0.82683 0.68902l0.31006 10.7487 6.09781-0.13781q0.62012 0.34451 0.82683 0.86128 0.24115 0.48231 0.2067 0.96462-0.0344 0.44787-0.2756 0.82683-0.20671 0.34451-0.48232 0.41341l-6.37342 0.1378q-0.0345 2.13596 0.0344 3.85851 0.10335 1.6881 0.2067 3.30729 0.13781 1.58475 0.20671 3.30729 0.10335 1.6881 0.10335 3.78961-0.99908 0.68902-2.03261 0.65457-1.03352-0.0344-1.41248-0.86128l-0.37896-13.98709h-6.68349z" style="font-feature-settings:normal;font-variant-caps:normal;font-variant-ligatures:normal;font-variant-numeric:normal"/>
   <path d="m700.89068 510.33274q0-2.82498 0.99907-5.09874 0.99908-2.30821 2.61828-3.96186 1.61919-1.65364 3.61735-2.61827 1.99815-0.96463 4.03076-1.17133 2.27376-0.31006 4.27192 0.41341 1.99815 0.68902 3.44509 2.13596 1.44694 1.41249 2.23931 3.44509 0.82683 2.03261 0.72347 4.40973-0.31005 2.82497-1.48139 4.85758-1.17133 1.99816-2.99723 3.30729-1.79145 1.27469-4.16857 1.8948-2.34266 0.58567-5.02983 0.58567-4.06522 0-6.16673-1.8948-2.1015-1.8948-2.1015-6.30453zm2.96278 1.03353q0.1378 2.06706 1.34359 3.13504 1.24023 1.03353 2.99723 1.24023 1.79145 0.20671 3.82405-0.31006 2.06706-0.55121 3.82406-1.65364 1.757-1.13688 2.96278-2.72163 1.20579-1.61919 1.27469-3.54845 0.0344-0.89572-0.24116-2.06705-0.27561-1.20579-1.03353-2.30822-0.72347-1.10243-2.0326-1.9637-1.27469-0.86127-3.27284-1.10243-0.72347 0.0345-1.757 0.27561-1.03353 0.2067-2.17041 0.72347-1.10243 0.51676-2.20486 1.37803-1.06798 0.86128-1.89481 2.10151-0.82682 1.24024-1.30913 2.92833-0.44787 1.6881-0.31006 3.89296z" style="font-feature-settings:normal;font-variant-caps:normal;font-variant-ligatures:normal;font-variant-numeric:normal"/>
   <path d="m741.47389 498.61942q0.13781-0.13781 0.55122-0.31006 0.44786-0.17226 0.93018-0.1378 0.51676 0 0.96462 0.31005 0.44786 0.31006 0.62012 1.06798 4.71978-1.61919 8.09597-1.79145 3.3762-0.17225 5.51216 0.65457 2.17041 0.79237 3.13503 2.41157 0.96463 1.58474 0.82683 3.5829-0.13781 1.9637-1.34359 4.09966t-3.37619 4.03076q-2.17041 1.86036-5.30545 3.27285-3.10059 1.37803-7.06245 1.86035 0.0344 0.48231 0.0344 1.58474t0 2.51492 0 2.96278q0.0344 1.58475 0.0689 2.99724 0.0344 1.44694 0.0689 2.58382 0.0344 1.13688 0.10335 1.65364 0.10335 0.79238-0.1378 1.30914-0.24116 0.51676-0.72347 0.79237-0.48232 0.31006-1.13689 0.37896-0.65456 0.10335-1.37803 0.0344zm12.40235 1.757q-1.34359 0.0344-2.99724 0.34451-1.61919 0.2756-3.03168 0.99907-1.37804 0.72347-2.30821 1.96371-0.89573 1.24023-0.79238 3.10058l0.0689 7.99263q3.7896-0.48232 6.54568-1.72255 2.75607-1.27469 4.51307-2.89388 1.757-1.6192 2.48047-3.3762 0.75792-1.75699 0.48232-3.16948-0.24116-1.44694-1.4814-2.34267-1.24023-0.93017-3.47954-0.89572z" style="font-feature-settings:normal;font-variant-caps:normal;font-variant-ligatures:normal;font-variant-numeric:normal"/>
   <path d="m763.90148 497.9993q0.0689-0.65457 0.55121-0.79237 0.48232-0.17226 1.03353-0.10335 0.89573 0.10335 1.34359 0.93017 0.44786 0.79237 0.62012 1.79145 0.17225 0.99908 0.17225 1.96371 0 0.93017 0.0344 1.34358 0.96463-0.82682 2.13596-1.8948 1.20579-1.06798 2.89388-1.92925 1.72255-0.89573 4.09967-1.34359 2.41156-0.48231 5.78776-0.0689 0.82682 0.2067 1.20578 0.79237 0.41341 0.58567 0.41341 1.24023 0.0344 0.62012-0.34451 1.17134-0.34451 0.51676-0.99908 0.58566-0.82682-0.62011-2.20486-0.72347-1.37803-0.10335-3.03168 0.24116-1.6192 0.34451-3.30729 1.10243-1.6881 0.75792-3.13504 1.8948-1.41249 1.13688-2.44602 2.61828-0.99907 1.48139-1.24023 3.23839v7.54475q-0.0689 0.17226-0.55122 0.51677-0.48231 0.31006-1.10243 0.44786-0.58566 0.17226-1.20578 0-0.58567-0.17225-0.89573-0.96463 0-0.24115 0-1.51584 0-1.30913 0-3.13503 0.0345-1.86036 0.0689-4.03077 0.0344-2.20486 0.0344-4.30637 0.0344-2.1015 0.0344-3.8585 0.0344-1.757 0.0344-2.75608z" style="font-feature-settings:normal;font-variant-caps:normal;font-variant-ligatures:normal;font-variant-numeric:normal"/>
   <path d="m798.52468 511.36627q-0.99908 1.55029-2.30822 2.82498-1.30913 1.24023-2.89388 2.13596-1.55029 0.86127-3.41064 1.27468-1.8259 0.41342-3.85851 0.24116-0.72347 0-1.55029-0.17225-0.82682-0.17226-1.55029-0.55122-0.68902-0.37896-1.13688-0.99908-0.44787-0.62011-0.44787-1.55029-0.37896-1.92925 0.17226-3.99631 0.58566-2.10151 1.757-4.06521 1.20578-1.99816 2.89388-3.72071 1.72254-1.75699 3.6518-2.96278 1.92925-1.24023 3.92741-1.79145 2.0326-0.58566 3.89296-0.24115 1.41248 0 2.17041 0.93017 0.79237 0.93018 1.17133 2.51492 0.41341 1.55029 0.48231 3.61735 0.10335 2.03261 0.10335 4.27192 0.0344 2.20486 0.10336 4.44417 0.0689 2.20486 0.37896 4.09967-0.0344 0.0689-0.34451 0.41341-0.27561 0.34451-0.72347 0.55121-0.44786 0.20671-1.03353 0.0689-0.55122-0.10336-1.10243-0.96463-0.20671-0.34451-0.27561-1.20578-0.0344-0.89573-0.0344-1.89481 0.0344-0.99908 0.0344-1.92925 0.0344-0.93018-0.0689-1.34359zm-2.17041-10.47309q-1.34359-0.10335-2.79053 0.41341-1.44694 0.51677-2.82498 1.48139-1.34358 0.93018-2.54937 2.20486-1.20578 1.24024-2.10151 2.61828-0.89572 1.34358-1.41249 2.68717-0.48231 1.34359-0.44786 2.48047 0.0689 1.10243 0.72347 1.8948 0.68902 0.75792 2.13596 0.99908 1.99816 0.0344 3.82406-0.99908 1.8259-1.06798 3.30729-2.65272t2.48047-3.4451q1.03353-1.8948 1.37804-3.54844 0.37896-1.65365 0-2.79053-0.37896-1.17133-1.72255-1.34359z" style="font-feature-settings:normal;font-variant-caps:normal;font-variant-ligatures:normal;font-variant-numeric:normal"/>
   <path d="m803.83014 511.71078q-0.17226-1.79145 0.82682-3.89296 1.03353-2.13596 2.75608-4.09966 1.757-1.99816 3.99631-3.54845 2.27376-1.58474 4.58198-2.27376 2.34266-0.72347 4.47862-0.27561 2.17041 0.44786 3.75515 2.48047 0 0.44786-0.24115 0.79237-0.20671 0.34451-0.55122 0.65457-0.31006 0.31006-0.68902 0.55121-0.37896 0.24116-0.68902 0.48232-0.58566-1.24024-1.55029-1.72255t-2.13596-0.37896q-1.17133 0.0689-2.48047 0.65457-1.30913 0.55121-2.58382 1.44694-1.27468 0.86127-2.41156 1.9637-1.13689 1.06798-1.99816 2.23931-0.82682 1.13689-1.27469 2.27377-0.44786 1.10243-0.34451 1.99815 0 1.51585 0.58567 2.44602 0.58567 0.93018 1.51584 1.44694 0.96463 0.51677 2.17041 0.68902 1.24024 0.17226 2.51492 0.17226 2.61828-0.0689 4.68533-0.62012 2.10151-0.58567 3.61735-1.20579 1.51585-0.65456 2.51492-1.13688 0.99908-0.48231 1.44694-0.37896 0.27561 0 0.55122 0.0344 0.31006 0.0344 0.51676 0.20671 0.24116 0.1378 0.31006 0.44786 0.10335 0.27561 0 0.79237-0.10335 0.65457-0.89572 1.27469-0.79238 0.58567-2.03261 1.10243t-2.75608 0.96463q-1.51584 0.41341-3.03168 0.72347-1.51584 0.2756-2.89388 0.41341-1.34359 0.1378-2.23931 0.0689-1.51584 0-3.27284-0.34451t-3.27284-1.13688q-1.4814-0.79237-2.48047-2.06706-0.99908-1.30914-0.99908-3.23839z" style="font-feature-settings:normal;font-variant-caps:normal;font-variant-ligatures:normal;font-variant-numeric:normal"/>
   <path d="m827.77356 503.89041q-0.82682-0.2067-1.06798-0.68901-0.2756-0.48232-0.17225-0.96463 0.10335-0.51677 0.44786-0.89573t0.72347-0.41341h6.44233l-0.1378-10.7487q0.1378-0.41341 0.58566-0.68902 0.44786-0.2756 0.96463-0.31005 0.51676-0.0689 1.03353 0.1378 0.51676 0.17225 0.82682 0.68902l0.31006 10.7487 6.09782-0.13781q0.62012 0.34451 0.82682 0.86128 0.24116 0.48231 0.20671 0.96462-0.0344 0.44787-0.27561 0.82683-0.20671 0.34451-0.48231 0.41341l-6.37343 0.1378q-0.0344 2.13596 0.0344 3.85851 0.10335 1.6881 0.20671 3.30729 0.1378 1.58475 0.2067 3.30729 0.10335 1.6881 0.10335 3.78961-0.99907 0.68902-2.0326 0.65457-1.03353-0.0344-1.41249-0.86128l-0.37896-13.98709h-6.68349z" style="font-feature-settings:normal;font-variant-caps:normal;font-variant-ligatures:normal;font-variant-numeric:normal"/>
   <path d="m849.75326 498.27491q0.31006 4.23747 0.55121 9.02615 0.24116 4.75423 0.41342 9.61182-0.17226 0.68901-0.72347 0.99907-0.51677 0.31006-1.13689 0.34451-0.62011 0-1.17133-0.2067-0.51676-0.20671-0.65457-0.55122v-19.22363zm-3.99631-5.85666q0-0.79238 0.44786-1.13689 0.44786-0.3445 1.06798-0.37896 0.62012-0.0689 1.24023 0.10336 0.62012 0.17225 0.89573 0.41341 0.31006 1.13688-0.10335 1.65364-0.41342 0.51677-1.10243 0.58567-0.65457 0.0344-1.37804-0.31006-0.72347-0.34451-1.06798-0.93017z" style="font-feature-settings:normal;font-variant-caps:normal;font-variant-ligatures:normal;font-variant-numeric:normal"/>
   <path d="m852.33707 511.71078q-0.17226-1.79145 0.82682-3.89296 1.03353-2.13596 2.75608-4.09966 1.75699-1.99816 3.99631-3.54845 2.27376-1.58474 4.58197-2.27376 2.34267-0.72347 4.47863-0.27561 2.17041 0.44786 3.75515 2.48047 0 0.44786-0.24115 0.79237-0.20671 0.34451-0.55122 0.65457-0.31006 0.31006-0.68902 0.55121-0.37896 0.24116-0.68902 0.48232-0.58566-1.24024-1.55029-1.72255t-2.13596-0.37896q-1.17133 0.0689-2.48047 0.65457-1.30914 0.55121-2.58382 1.44694-1.27469 0.86127-2.41157 1.9637-1.13688 1.06798-1.99815 2.23931-0.82683 1.13689-1.27469 2.27377-0.44786 1.10243-0.34451 1.99815 0 1.51585 0.58567 2.44602 0.58566 0.93018 1.51584 1.44694 0.96463 0.51677 2.17041 0.68902 1.24024 0.17226 2.51492 0.17226 2.61827-0.0689 4.68533-0.62012 2.10151-0.58567 3.61735-1.20579 1.51584-0.65456 2.51492-1.13688 0.99908-0.48231 1.44694-0.37896 0.27561 0 0.55122 0.0344 0.31005 0.0344 0.51676 0.20671 0.24116 0.1378 0.31006 0.44786 0.10335 0.27561 0 0.79237-0.10335 0.65457-0.89573 1.27469-0.79237 0.58567-2.0326 1.10243-1.24024 0.51676-2.75608 0.96463-1.51584 0.41341-3.03168 0.72347-1.51584 0.2756-2.89388 0.41341-1.34359 0.1378-2.23932 0.0689-1.51584 0-3.27284-0.34451-1.75699-0.34451-3.27284-1.13688-1.48139-0.79237-2.48047-2.06706-0.99907-1.30914-0.99907-3.23839z" style="font-feature-settings:normal;font-variant-caps:normal;font-variant-ligatures:normal;font-variant-numeric:normal"/>
   <path d="m877.9686 512.84766q-0.31006-2.79052 0.48231-5.5466 0.79237-2.79053 2.44602-4.96094 1.6881-2.20486 4.06521-3.514 2.37712-1.34358 5.23655-1.27468 1.17133-0.0344 2.68717 0.51676 1.51584 0.55122 2.79053 1.5503 1.27468 0.96462 2.03261 2.27376 0.79237 1.27468 0.51676 2.72162 0.0344 0.72347-0.72347 1.20579-0.75792 0.44786-2.03261 0.72347-1.24023 0.27561-2.92833 0.41341-1.65364 0.10335-3.514 0.17225-1.8259 0.0689-3.7207 0.13781-1.8948 0.0344-3.5829 0.17225-0.96463 2.65273-0.58566 4.37527 0.41341 1.6881 1.68809 2.58383 1.30914 0.89572 3.20394 1.06798 1.92925 0.1378 3.99631-0.27561t4.06521-1.30914q1.99816-0.93017 3.4451-2.20486 0.20671 0 0.51676 0.1378 0.34451 0.13781 0.65457 0.37896 0.31006 0.20671 0.51677 0.48232 0.24115 0.24115 0.24115 0.44786-0.86127 1.48139-2.61827 2.65272-1.757 1.17134-3.96186 1.89481t-4.61643 0.89572q-2.37711 0.17226-4.47862-0.34451-2.10151-0.51676-3.68625-1.8259-1.58475-1.30913-2.13596-3.54845zm16.46755-9.1984q-0.17225-1.30914-1.03352-1.96371-0.86128-0.65456-2.03261-0.82682-1.17133-0.20671-2.48047 0.0344-1.30914 0.24116-2.44602 0.72347-1.10243 0.48231-1.86035 1.13688-0.72347 0.65457-0.75792 1.30914z" style="font-feature-settings:normal;font-variant-caps:normal;font-variant-ligatures:normal;font-variant-numeric:normal"/>
   <path d="m932.40108 506.09528q-0.93017 3.13503-1.61919 5.78776-0.65457 2.61827-1.34359 4.30637-0.65457 1.68809-1.51584 2.27376-0.82682 0.55121-2.13596-0.44786-0.68902-0.75792-1.55029-2.27377-0.86128-1.55029-1.757-3.47954-0.86128-1.92926-1.6881-4.03077-0.82682-2.1015-1.48139-3.96186-0.62012-1.86035-1.03353-3.27284-0.37896-1.44694-0.37896-2.0326 0-0.79237 0.34451-1.17133 0.37896-0.37897 0.86127-0.37897 0.51677-0.0344 0.99908 0.27561 0.48231 0.27561 0.68902 0.82683 0.31006 0.44786 0.82682 1.9637 0.51677 1.51584 1.24024 3.6518 0.75792 2.13596 1.72255 4.65088 0.96462 2.51492 2.17041 4.99539 0.37896-0.79237 0.75792-2.06706 0.41341-1.27468 0.82682-2.75608 0.41341-1.48139 0.82682-2.96278 0.41341-1.51584 0.86128-2.72162 0.48231-1.24024 0.99907-1.99816 0.51677-0.79237 1.06798-0.82682 0.37896-0.24116 1.03353 0.55121 0.68902 0.75793 1.51584 2.10151 0.82683 1.34359 1.72255 3.03169 0.93018 1.68809 1.79145 3.27284 0.86128 1.58474 1.5503 2.85943 0.72347 1.27468 1.13688 1.79145l5.44325-15.91635q0.27561-0.37896 0.72347-0.51676t0.86127-0.0344q0.44786 0.10335 0.75792 0.48231 0.34451 0.37896 0.34451 1.03353-0.44786 1.51584-0.99908 3.61735-0.55121 2.06706-1.17133 4.30637-0.62012 2.20486-1.27468 4.34082-0.65457 2.13596-1.37804 3.78961-0.68902 1.65364-1.41249 2.61827-0.72347 0.93018-1.44694 0.75792-0.41341 0.20671-0.99908-0.31006-0.58566-0.51676-1.30913-1.51584-0.68902-0.99908-1.51585-2.34267-0.79237-1.37803-1.65364-2.82497-0.82683-1.44694-1.72255-2.85943-0.86127-1.44694-1.6881-2.58382z" style="font-feature-settings:normal;font-variant-caps:normal;font-variant-ligatures:normal;font-variant-numeric:normal"/>
   <path d="m967.43775 517.6708q0-1.10243-0.0345-2.54937-0.0344-1.4814-0.17225-3.06614-0.10336-1.58474-0.37896-3.16949-0.24116-1.58474-0.65457-2.89388-0.41341-1.30913-1.03353-2.20486-0.58567-0.93017-1.44694-1.20578-1.92926-0.37896-3.68625 0.0689-1.72255 0.44786-2.99724 2.20486-1.24023 1.72255-1.92925 4.92649t-0.51677 8.33713q-0.41341 0.17225-0.86127 0.31006-0.41341 0.1378-0.89572 0.17225-0.44787 0.0344-0.93018-0.0689-0.44786-0.0689-0.96463-0.34451 0.13781-4.51307 0.0344-8.54384-0.0689-4.03076-0.17225-7.54476-0.10335-3.51399-0.10335-6.47677 0.0345-2.99724 0.37896-5.37435 0.34451-0.68902 0.89572-0.99908 0.58567-0.31006 1.13688-0.31006 0.58567 0 0.99908 0.31006 0.44786 0.31006 0.48231 0.86127-0.0344 0.37896-0.10335 1.27469-0.0689 0.86127-0.1378 2.06705-0.0689 1.17134-0.13781 2.54938-0.0344 1.37803-0.0689 2.75607 0 1.34359 0.0344 2.58382 0.0689 1.24024 0.24116 2.13596 0.82682-0.82682 1.72255-1.72254 0.93017-0.93018 2.10151-1.58475 1.20578-0.68902 2.75607-0.93017 1.58475-0.27561 3.75516 0.17225 1.48139 0.34451 2.51492 1.51584 1.03353 1.13688 1.68809 2.79053 0.65457 1.61919 1.03353 3.54845 0.37896 1.92925 0.55122 3.89296 0.2067 1.92925 0.24115 3.7207 0.0689 1.757 0.13781 3.03168-0.17226 0.31006-0.75792 0.55122-0.55122 0.24116-1.17134 0.27561-0.58566 0.0344-1.06798-0.20671-0.48231-0.24116-0.48231-0.86127z" style="font-feature-settings:normal;font-variant-caps:normal;font-variant-ligatures:normal;font-variant-numeric:normal"/>
   <path d="m989.45186 511.36627q-0.99907 1.55029-2.30821 2.82498-1.30914 1.24023-2.89388 2.13596-1.55029 0.86127-3.41064 1.27468-1.82591 0.41342-3.85851 0.24116-0.72347 0-1.55029-0.17225-0.82683-0.17226-1.5503-0.55122-0.68902-0.37896-1.13688-0.99908-0.44786-0.62011-0.44786-1.55029-0.37896-1.92925 0.17225-3.99631 0.58567-2.10151 1.757-4.06521 1.20579-1.99816 2.89388-3.72071 1.72255-1.75699 3.6518-2.96278 1.92926-1.24023 3.92741-1.79145 2.03261-0.58566 3.89296-0.24115 1.41249 0 2.17041 0.93017 0.79237 0.93018 1.17133 2.51492 0.41341 1.55029 0.48232 3.61735 0.10335 2.03261 0.10335 4.27192 0.0344 2.20486 0.10335 4.44417 0.0689 2.20486 0.37896 4.09967-0.0344 0.0689-0.34451 0.41341-0.2756 0.34451-0.72347 0.55121-0.44786 0.20671-1.03353 0.0689-0.55121-0.10336-1.10243-0.96463-0.2067-0.34451-0.2756-1.20578-0.0345-0.89573-0.0345-1.89481 0.0345-0.99908 0.0345-1.92925 0.0344-0.93018-0.0689-1.34359zm-2.17041-10.47309q-1.34358-0.10335-2.79052 0.41341-1.44694 0.51677-2.82498 1.48139-1.34359 0.93018-2.54937 2.20486-1.20579 1.24024-2.10151 2.61828-0.89573 1.34358-1.41249 2.68717-0.48231 1.34359-0.44786 2.48047 0.0689 1.10243 0.72347 1.8948 0.68902 0.75792 2.13596 0.99908 1.99815 0.0344 3.82405-0.99908 1.8259-1.06798 3.30729-2.65272 1.4814-1.58474 2.48047-3.4451 1.03353-1.8948 1.37804-3.54844 0.37896-1.65365 0-2.79053-0.37896-1.17133-1.72255-1.34359z" style="font-feature-settings:normal;font-variant-caps:normal;font-variant-ligatures:normal;font-variant-numeric:normal"/>
   <path d="m994.72287 503.89041q-0.82682-0.2067-1.06798-0.68901-0.2756-0.48232-0.17225-0.96463 0.10335-0.51677 0.44786-0.89573t0.72347-0.41341h6.44233l-0.1378-10.7487q0.1378-0.41341 0.5857-0.68902 0.4478-0.2756 0.9646-0.31005 0.5168-0.0689 1.0335 0.1378 0.5168 0.17225 0.8268 0.68902l0.3101 10.7487 6.0978-0.13781q0.6201 0.34451 0.8268 0.86128 0.2412 0.48231 0.2067 0.96462-0.034 0.44787-0.2756 0.82683-0.2067 0.34451-0.4823 0.41341l-6.3734 0.1378q-0.035 2.13596 0.034 3.85851 0.1033 1.6881 0.2067 3.30729 0.1378 1.58475 0.2067 3.30729 0.1033 1.6881 0.1033 3.78961-0.9991 0.68902-2.0326 0.65457-1.0335-0.0344-1.4125-0.86128l-0.3789-13.98709h-6.68353z" style="font-feature-settings:normal;font-variant-caps:normal;font-variant-ligatures:normal;font-variant-numeric:normal"/>
   <path d="m1029.6217 500.58312q-0.1033-0.44786 0.069-0.86127 0.2067-0.41341 0.5512-0.75792t0.7924-0.58567 0.8268-0.31006l11.5411 16.77762 7.3725-17.01877q0.069-0.17226 0.4823-0.20671 0.4134-0.0689 0.8613 0.0689 0.4823 0.10336 0.8268 0.48232 0.379 0.37896 0.3101 1.06798l-13.1603 34.93326q-0.3445 0.72347-0.9646 0.93018t-1.2058 0.0689q-0.5857-0.1378-0.9646-0.55121-0.379-0.37896-0.2756-0.82683l5.3398-14.84836z" style="font-feature-settings:normal;font-variant-caps:normal;font-variant-ligatures:normal;font-variant-numeric:normal"/>
   <path d="m1052.9795 510.33274q0-2.82498 0.999-5.09874 0.9991-2.30821 2.6183-3.96186 1.6192-1.65364 3.6174-2.61827 1.9981-0.96463 4.0307-1.17133 2.2738-0.31006 4.2719 0.41341 1.9982 0.68902 3.4451 2.13596 1.447 1.41249 2.2393 3.44509 0.8269 2.03261 0.7235 4.40973-0.31 2.82497-1.4814 4.85758-1.1713 1.99816-2.9972 3.30729-1.7915 1.27469-4.1686 1.8948-2.3426 0.58567-5.0298 0.58567-4.0652 0-6.1667-1.8948t-2.1015-6.30453zm2.9627 1.03353q0.1378 2.06706 1.3436 3.13504 1.2403 1.03353 2.9973 1.24023 1.7914 0.20671 3.824-0.31006 2.0671-0.55121 3.8241-1.65364 1.757-1.13688 2.9627-2.72163 1.2058-1.61919 1.2747-3.54845 0.034-0.89572-0.2411-2.06705-0.2756-1.20579-1.0336-2.30822-0.7234-1.10243-2.0326-1.9637-1.2746-0.86127-3.2728-1.10243-0.7235 0.0345-1.757 0.27561-1.0335 0.2067-2.1704 0.72347-1.1024 0.51676-2.2049 1.37803-1.0679 0.86128-1.8948 2.10151-0.8268 1.24024-1.3091 2.92833-0.4479 1.6881-0.3101 3.89296z" style="font-feature-settings:normal;font-variant-caps:normal;font-variant-ligatures:normal;font-variant-numeric:normal"/>
   <path d="m1076.2338 512.84766q-0.1378-0.89572-0.1722-2.20486-0.034-1.34359 0.034-2.82498 0.1034-1.51584 0.2756-3.06613 0.2067-1.58475 0.4823-2.92833 0.2756-1.37804 0.6201-2.41157 0.3446-1.06798 0.758-1.58474 1.0679-0.58567 1.7914-0.13781 0.7235 0.41341 0.6201 1.41249-0.1033 0.89573-0.4823 2.34267-0.3789 1.41249-0.7579 3.20394-0.3445 1.79145-0.5168 3.82405-0.1378 1.99816 0.2412 4.03076 0.3101 1.24024 1.2402 1.92926 0.9647 0.65457 2.2738 0.86127 1.3091 0.17226 2.7905-0.0344 1.5159-0.24116 2.9283-0.75792 1.4125-0.55122 2.5839-1.30914 1.1713-0.79237 1.8259-1.68809 0.069-1.27469 0.034-2.85943 0-1.6192-0.069-3.3762-0.034-1.757-0.069-3.61735 0-1.86035 0.069-3.68625 0.6546-0.79237 1.5503-0.62012 0.9302 0.13781 1.4125 0.86128l0.9991 19.84375q-0.3101 0.31006-0.7235 0.55121-0.379 0.24116-0.7924 0.31006-0.4134 0.10335-0.7923-0.0344-0.379-0.10335-0.6546-0.51676l-0.5512-3.27284q-0.5512 0.48231-1.9293 1.20578-1.378 0.68902-3.1695 1.27468-1.757 0.55122-3.7207 0.82683-1.9637 0.24115-3.6518-0.17226t-2.9283-1.65364q-1.2402-1.27469-1.5503-3.72071z" style="font-feature-settings:normal;font-variant-caps:normal;font-variant-ligatures:normal;font-variant-numeric:normal"/>
   <path d="m1115.5768 490.24784q0.2412-0.55122 0.6546-0.82683 0.4478-0.31006 0.8957-0.37896 0.4479-0.10335 0.8268 0.0689 0.4134 0.13781 0.6546 0.51677l0.7924 27.62967q0 0.62011-0.379 0.89572-0.3789 0.27561-0.8613 0.31006-0.4823 0-0.999-0.20671-0.5168-0.2067-0.7924-0.62011z" style="font-feature-settings:normal;font-variant-caps:normal;font-variant-ligatures:normal;font-variant-numeric:normal"/>
   <path d="m1121.3301 512.84766q-0.31-2.79052 0.4824-5.5466 0.7923-2.79053 2.446-4.96094 1.6881-2.20486 4.0652-3.514 2.3771-1.34358 5.2365-1.27468 1.1714-0.0344 2.6872 0.51676 1.5158 0.55122 2.7905 1.5503 1.2747 0.96462 2.0326 2.27376 0.7924 1.27468 0.5168 2.72162 0.034 0.72347-0.7235 1.20579-0.7579 0.44786-2.0326 0.72347-1.2402 0.27561-2.9283 0.41341-1.6537 0.10335-3.514 0.17225-1.8259 0.0689-3.7207 0.13781-1.8948 0.0344-3.5829 0.17225-0.9646 2.65273-0.5857 4.37527 0.4134 1.6881 1.6881 2.58383 1.3092 0.89572 3.204 1.06798 1.9292 0.1378 3.9963-0.27561 2.067-0.41341 4.0652-1.30914 1.9981-0.93017 3.4451-2.20486 0.2067 0 0.5167 0.1378 0.3446 0.13781 0.6546 0.37896 0.3101 0.20671 0.5168 0.48232 0.2411 0.24115 0.2411 0.44786-0.8612 1.48139-2.6182 2.65272-1.757 1.17134-3.9619 1.89481t-4.6164 0.89572q-2.3771 0.17226-4.4786-0.34451-2.1016-0.51676-3.6863-1.8259-1.5847-1.30913-2.136-3.54845zm16.4676-9.1984q-0.1723-1.30914-1.0335-1.96371-0.8613-0.65456-2.0326-0.82682-1.1714-0.20671-2.4805 0.0344-1.3091 0.24116-2.446 0.72347-1.1025 0.48231-1.8604 1.13688-0.7234 0.65457-0.7579 1.30914z" style="font-feature-settings:normal;font-variant-caps:normal;font-variant-ligatures:normal;font-variant-numeric:normal"/>
   <path d="m1161.2243 511.36627q-0.9991 1.55029-2.3082 2.82498-1.3091 1.24023-2.8939 2.13596-1.5503 0.86127-3.4106 1.27468-1.8259 0.41342-3.8585 0.24116-0.7235 0-1.5503-0.17225-0.8268-0.17226-1.5503-0.55122-0.689-0.37896-1.1369-0.99908-0.4479-0.62011-0.4479-1.55029-0.3789-1.92925 0.1723-3.99631 0.5857-2.10151 1.757-4.06521 1.2058-1.99816 2.8939-3.72071 1.7225-1.75699 3.6518-2.96278 1.9292-1.24023 3.9274-1.79145 2.0326-0.58566 3.893-0.24115 1.4124 0 2.1704 0.93017 0.7923 0.93018 1.1713 2.51492 0.4134 1.55029 0.4823 3.61735 0.1034 2.03261 0.1034 4.27192 0.034 2.20486 0.1033 4.44417 0.069 2.20486 0.379 4.09967-0.034 0.0689-0.3445 0.41341-0.2756 0.34451-0.7235 0.55121-0.4479 0.20671-1.0335 0.0689-0.5513-0.10336-1.1025-0.96463-0.2067-0.34451-0.2756-1.20578-0.034-0.89573-0.034-1.89481 0.034-0.99908 0.034-1.92925 0.034-0.93018-0.069-1.34359zm-2.1704-10.47309q-1.3436-0.10335-2.7905 0.41341-1.447 0.51677-2.825 1.48139-1.3436 0.93018-2.5494 2.20486-1.2057 1.24024-2.1015 2.61828-0.8957 1.34358-1.4125 2.68717-0.4823 1.34359-0.4478 2.48047 0.069 1.10243 0.7234 1.8948 0.6891 0.75792 2.136 0.99908 1.9982 0.0344 3.8241-0.99908 1.8259-1.06798 3.3073-2.65272 1.4813-1.58474 2.4804-3.4451 1.0336-1.8948 1.3781-3.54844 0.3789-1.65365 0-2.79053-0.379-1.17133-1.7226-1.34359z" style="font-feature-settings:normal;font-variant-caps:normal;font-variant-ligatures:normal;font-variant-numeric:normal"/>
   <path d="m1166.6331 497.9993q0.069-0.65457 0.5513-0.79237 0.4823-0.17226 1.0335-0.10335 0.8957 0.10335 1.3436 0.93017 0.4478 0.79237 0.6201 1.79145 0.1722 0.99908 0.1722 1.96371 0 0.93017 0.034 1.34358 0.9646-0.82682 2.136-1.8948 1.2057-1.06798 2.8938-1.92925 1.7226-0.89573 4.0997-1.34359 2.4116-0.48231 5.7878-0.0689 0.8268 0.2067 1.2057 0.79237 0.4135 0.58567 0.4135 1.24023 0.034 0.62012-0.3446 1.17134-0.3445 0.51676-0.999 0.58566-0.8269-0.62011-2.2049-0.72347-1.378-0.10335-3.0317 0.24116-1.6192 0.34451-3.3073 1.10243t-3.135 1.8948q-1.4125 1.13688-2.446 2.61828-0.9991 1.48139-1.2403 3.23839v7.54475q-0.069 0.17226-0.5512 0.51677-0.4823 0.31006-1.1024 0.44786-0.5857 0.17226-1.2058 0-0.5857-0.17225-0.8957-0.96463 0-0.24115 0-1.51584 0-1.30913 0-3.13503 0.034-1.86036 0.069-4.03077 0.034-2.20486 0.034-4.30637 0.034-2.1015 0.034-3.8585 0.034-1.757 0.034-2.75608z" style="font-feature-settings:normal;font-variant-caps:normal;font-variant-ligatures:normal;font-variant-numeric:normal"/>
   <path d="m1191.3 518.11866q-0.1033 0.27561-0.4823 0.41341-0.3789 0.1378-0.8957 0.1378-0.4823 0-0.9646-0.1378t-0.7924-0.48231l-0.069-19.56815q1.2747-0.75792 1.8948-0.58566 0.6546 0.17225 0.9302 0.89572 0.2756 0.68902 0.3445 1.72255 0.069 0.99908 0.2067 1.92925 3.5485-2.58382 6.1323-3.68625 2.5838-1.13688 4.3408-1.13688 1.7914 0 2.8594 0.96463 1.1025 0.96462 1.7226 2.61827 0.6201 1.61919 0.8612 3.75515 0.2412 2.10151 0.3101 4.40973 0.069 2.27376 0.069 4.58197 0.035 2.30822 0.2067 4.30637-0.4479 0.41341-1.1369 0.44787-0.689 0.0689-1.2747-0.0345-0.5856-0.0689-0.8957-0.2067-0.31-0.13781 0-0.10335-0.1033-0.89573-0.1378-2.23932-0.034-1.37803-0.034-2.92833 0-1.58474 0-3.23839 0-1.68809-0.034-3.20394-0.034-1.51584-0.1722-2.75607-0.1034-1.24024-0.3446-1.99816-0.2756-0.65457-1.0335-0.93017-0.7234-0.31006-1.7914-0.24116-1.068 0.0344-2.3427 0.41341-1.2402 0.34451-2.5494 0.96463-1.2746 0.62011-2.5149 1.51584-1.2058 0.86127-2.1359 1.92925l-0.2757 12.47125z" style="font-feature-settings:normal;font-variant-caps:normal;font-variant-ligatures:normal;font-variant-numeric:normal"/>
   <path d="m1209.6624 512.84766q-0.31-2.79052 0.4823-5.5466 0.7924-2.79053 2.446-4.96094 1.6881-2.20486 4.0653-3.514 2.3771-1.34358 5.2365-1.27468 1.1713-0.0344 2.6872 0.51676 1.5158 0.55122 2.7905 1.5503 1.2747 0.96462 2.0326 2.27376 0.7924 1.27468 0.5168 2.72162 0.034 0.72347-0.7235 1.20579-0.7579 0.44786-2.0326 0.72347-1.2402 0.27561-2.9283 0.41341-1.6537 0.10335-3.514 0.17225-1.8259 0.0689-3.7207 0.13781-1.8948 0.0344-3.5829 0.17225-0.9647 2.65273-0.5857 4.37527 0.4134 1.6881 1.6881 2.58383 1.3091 0.89572 3.2039 1.06798 1.9293 0.1378 3.9963-0.27561 2.0671-0.41341 4.0653-1.30914 1.9981-0.93017 3.4451-2.20486 0.2067 0 0.5167 0.1378 0.3445 0.13781 0.6546 0.37896 0.31 0.20671 0.5168 0.48232 0.2411 0.24115 0.2411 0.44786-0.8613 1.48139-2.6183 2.65272-1.757 1.17134-3.9618 1.89481-2.2049 0.72347-4.6164 0.89572-2.3772 0.17226-4.4787-0.34451-2.1015-0.51676-3.6862-1.8259-1.5848-1.30913-2.136-3.54845zm16.4676-9.1984q-0.1723-1.30914-1.0336-1.96371-0.8612-0.65456-2.0326-0.82682-1.1713-0.20671-2.4804 0.0344-1.3092 0.24116-2.4461 0.72347-1.1024 0.48231-1.8603 1.13688-0.7235 0.65457-0.7579 1.30914z" style="font-feature-settings:normal;font-variant-caps:normal;font-variant-ligatures:normal;font-variant-numeric:normal"/>
   <path d="m1249.1432 513.74339q-1.5848 1.20578-3.3418 2.17041-1.757 0.96462-3.4795 1.58474-1.7225 0.58567-3.3762 0.79237-1.6192 0.17226-2.9972-0.17225-1.3436-0.34451-2.3771-1.27469-1.0336-0.96462-1.5159-2.65272-0.4823-2.23931 0.069-4.23747 0.5512-1.99815 1.8259-3.6518 1.2747-1.65364 3.1006-2.85943 1.8259-1.24023 3.893-1.92925 2.067-0.68902 4.2374-0.75792 2.2049-0.0689 4.203 0.58566 0-0.75792 0-1.9637 0.034-1.24024 0.034-2.54937 0.034-1.30914 0.069-2.51492 0.034-1.20578 0.1034-1.96371 0.2067-1.75699 0.8268-2.68717 0.6201-0.96463 2.1704-0.65457 0.069 2.68718 0.034 4.92649-0.034 2.20486-0.1033 4.23747-0.069 1.99815-0.1378 3.96186-0.069 1.92925-0.069 4.13411 0 2.17041 0.069 4.71978 0.1033 2.54937 0.3445 5.71886 0 0.99908-0.379 1.41249-0.3445 0.41341-1.2058 0.41341-0.8268 0-1.2746-0.51676-0.4135-0.55122-0.5857-1.27469-0.1378-0.75792-0.1378-1.58474 0-0.82683 0-1.41249zm-14.0905-1.34359q0.069 1.58474 0.8958 2.27376 0.8612 0.65457 2.3771 0.37896 0.7235 0 2.2048-0.37896 1.5159-0.41341 3.1006-1.03353 1.6192-0.65456 3.0317-1.41248 1.4125-0.79238 1.9982-1.58475v-5.71886q-0.8957-0.96462-2.2738-1.20578-1.378-0.27561-2.9283 0.0344-1.5503 0.31006-3.1006 1.13688-1.5158 0.79237-2.7216 1.96371-1.2058 1.13688-1.9293 2.58382-0.7235 1.41249-0.6546 2.96278z" style="font-feature-settings:normal;font-variant-caps:normal;font-variant-ligatures:normal;font-variant-numeric:normal"/>
   <path d="m1276.8073 498.27491q0.3101 4.23747 0.5512 9.02615 0.2412 4.75423 0.4134 9.61182-0.1722 0.68901-0.7234 0.99907-0.5168 0.31006-1.1369 0.34451-0.6201 0-1.1714-0.2067-0.5167-0.20671-0.6545-0.55122v-19.22363zm-3.9963-5.85666q0-0.79238 0.4479-1.13689 0.4478-0.3445 1.0679-0.37896 0.6202-0.0689 1.2403 0.10336 0.6201 0.17225 0.8957 0.41341 0.3101 1.13688-0.1034 1.65364-0.4134 0.51677-1.1024 0.58567-0.6546 0.0344-1.378-0.31006-0.7235-0.34451-1.068-0.93017z" style="font-feature-settings:normal;font-variant-caps:normal;font-variant-ligatures:normal;font-variant-numeric:normal"/>
   <path d="m1282.1816 518.11866q-0.1033 0.27561-0.4823 0.41341-0.3789 0.1378-0.8957 0.1378-0.4823 0-0.9646-0.1378t-0.7924-0.48231l-0.069-19.56815q1.2747-0.75792 1.8948-0.58566 0.6546 0.17225 0.9302 0.89572 0.2756 0.68902 0.3445 1.72255 0.069 0.99908 0.2067 1.92925 3.5484-2.58382 6.1323-3.68625 2.5838-1.13688 4.3408-1.13688 1.7914 0 2.8594 0.96463 1.1024 0.96462 1.7226 2.61827 0.6201 1.61919 0.8612 3.75515 0.2412 2.10151 0.3101 4.40973 0.069 2.27376 0.069 4.58197 0.034 2.30822 0.2067 4.30637-0.4479 0.41341-1.1369 0.44787-0.689 0.0689-1.2747-0.0345-0.5856-0.0689-0.8957-0.2067-0.31-0.13781 0-0.10335-0.1033-0.89573-0.1378-2.23932-0.034-1.37803-0.034-2.92833 0-1.58474 0-3.23839 0-1.68809-0.035-3.20394-0.034-1.51584-0.1722-2.75607-0.1034-1.24024-0.3446-1.99816-0.2756-0.65457-1.0335-0.93017-0.7235-0.31006-1.7914-0.24116-1.068 0.0344-2.3427 0.41341-1.2402 0.34451-2.5494 0.96463-1.2747 0.62011-2.5149 1.51584-1.2058 0.86127-2.136 1.92925l-0.2756 12.47125z" style="font-feature-settings:normal;font-variant-caps:normal;font-variant-ligatures:normal;font-variant-numeric:normal"/>
   <path d="m1318.1829 511.71078q-0.1722-1.79145 0.8268-3.89296 1.0336-2.13596 2.7561-4.09966 1.757-1.99816 3.9963-3.54845 2.2738-1.58474 4.582-2.27376 2.3427-0.72347 4.4786-0.27561 2.1704 0.44786 3.7552 2.48047 0 0.44786-0.2412 0.79237-0.2067 0.34451-0.5512 0.65457-0.31 0.31006-0.689 0.55121-0.379 0.24116-0.689 0.48232-0.5857-1.24024-1.5503-1.72255t-2.136-0.37896q-1.1713 0.0689-2.4804 0.65457-1.3092 0.55121-2.5839 1.44694-1.2747 0.86127-2.4115 1.9637-1.1369 1.06798-1.9982 2.23931-0.8268 1.13689-1.2747 2.27377-0.4478 1.10243-0.3445 1.99815 0 1.51585 0.5857 2.44602 0.5857 0.93018 1.5158 1.44694 0.9647 0.51677 2.1704 0.68902 1.2403 0.17226 2.515 0.17226 2.6182-0.0689 4.6853-0.62012 2.1015-0.58567 3.6173-1.20579 1.5159-0.65456 2.515-1.13688 0.999-0.48231 1.4469-0.37896 0.2756 0 0.5512 0.0344 0.3101 0.0344 0.5168 0.20671 0.2411 0.1378 0.31 0.44786 0.1034 0.27561 0 0.79237-0.1033 0.65457-0.8957 1.27469-0.7924 0.58567-2.0326 1.10243t-2.7561 0.96463q-1.5158 0.41341-3.0317 0.72347-1.5158 0.2756-2.8938 0.41341-1.3436 0.1378-2.2393 0.0689-1.5159 0-3.2729-0.34451t-3.2728-1.13688q-1.4814-0.79237-2.4805-2.06706-0.9991-1.30914-0.9991-3.23839z" style="font-feature-settings:normal;font-variant-caps:normal;font-variant-ligatures:normal;font-variant-numeric:normal"/>
   <path d="m1343.7799 490.24784q0.2412-0.55122 0.6546-0.82683 0.4479-0.31006 0.8957-0.37896 0.4479-0.10335 0.8269 0.0689 0.4134 0.13781 0.6545 0.51677l0.7924 27.62967q0 0.62011-0.379 0.89572-0.3789 0.27561-0.8612 0.31006-0.4824 0-0.9991-0.20671-0.5168-0.2067-0.7924-0.62011z" style="font-feature-settings:normal;font-variant-caps:normal;font-variant-ligatures:normal;font-variant-numeric:normal"/>
   <path d="m1366.6898 511.36627q-0.999 1.55029-2.3082 2.82498-1.3091 1.24023-2.8939 2.13596-1.5502 0.86127-3.4106 1.27468-1.8259 0.41342-3.8585 0.24116-0.7235 0-1.5503-0.17225-0.8268-0.17226-1.5503-0.55122-0.689-0.37896-1.1369-0.99908-0.4478-0.62011-0.4478-1.55029-0.379-1.92925 0.1722-3.99631 0.5857-2.10151 1.757-4.06521 1.2058-1.99816 2.8939-3.72071 1.7225-1.75699 3.6518-2.96278 1.9293-1.24023 3.9274-1.79145 2.0326-0.58566 3.893-0.24115 1.4125 0 2.1704 0.93017 0.7923 0.93018 1.1713 2.51492 0.4134 1.55029 0.4823 3.61735 0.1034 2.03261 0.1034 4.27192 0.034 2.20486 0.1033 4.44417 0.069 2.20486 0.379 4.09967-0.034 0.0689-0.3445 0.41341-0.2756 0.34451-0.7235 0.55121-0.4479 0.20671-1.0335 0.0689-0.5512-0.10336-1.1025-0.96463-0.2067-0.34451-0.2756-1.20578-0.034-0.89573-0.034-1.89481 0.034-0.99908 0.034-1.92925 0.034-0.93018-0.069-1.34359zm-2.1704-10.47309q-1.3436-0.10335-2.7905 0.41341-1.4469 0.51677-2.825 1.48139-1.3436 0.93018-2.5493 2.20486-1.2058 1.24024-2.1016 2.61828-0.8957 1.34358-1.4124 2.68717-0.4824 1.34359-0.4479 2.48047 0.069 1.10243 0.7235 1.8948 0.689 0.75792 2.1359 0.99908 1.9982 0.0344 3.8241-0.99908 1.8259-1.06798 3.3073-2.65272t2.4804-3.4451q1.0336-1.8948 1.3781-3.54844 0.3789-1.65365 0-2.79053-0.379-1.17133-1.7226-1.34359z" style="font-feature-settings:normal;font-variant-caps:normal;font-variant-ligatures:normal;font-variant-numeric:normal"/>
   <path d="m1373.6834 516.08605q3.1006-0.24115 5.6155-0.86127 2.5494-0.62012 4.2719-1.41249 1.757-0.82682 2.6183-1.72255 0.8613-0.93017 0.6201-1.8259-0.2756-0.96463-2.7561-0.82682-2.446 0.1378-7.2691 1.10243-1.4125-0.10335-2.4805-0.65457-1.0335-0.55121-1.6536-1.30914-0.6201-0.79237-0.7924-1.65364-0.1723-0.86128 0.1033-1.51584 0-1.13689 0.6546-2.20486 0.689-1.10244 1.8259-1.99816 1.1714-0.93018 2.6872-1.65365 1.5503-0.75792 3.3073-1.17133 1.757-0.44786 3.6173-0.55121 1.8604-0.10336 3.6863 0.24115 0.8957 0.41341 1.4469 0.96463 0.5857 0.51676 0.7924 1.06798 0.2067 0.51676 0 0.99908-0.2067 0.48231-0.8613 0.82682-1.4125-0.62012-2.9972-0.89572-1.5503-0.31006-3.1006-0.24116t-2.9972 0.48231q-1.4125 0.37896-2.5149 1.10243-1.068 0.68902-1.757 1.72255-0.6891 1.03353-0.7235 2.34267 0 0.72347 0.5512 0.96462 0.5857 0.20671 1.3436 0.20671 0.7924-0.0345 1.6192-0.17226 0.8613-0.17225 1.378-0.17225 3.4107-0.48232 5.6155-0.27561 2.2393 0.20671 3.4107 0.89573 1.1713 0.68901 1.378 1.72254t-0.4134 2.23932q-0.5857 1.17133-1.9293 2.37711-1.3435 1.20578-3.2728 2.20486t-4.3753 1.6881q-2.4115 0.65457-5.1676 0.79237-0.6546 0.24116-1.1024-0.0689-0.4135-0.31006-0.6202-0.82682-0.2067-0.51677-0.1722-1.06798 0.069-0.58567 0.4134-0.86128z" style="font-feature-settings:normal;font-variant-caps:normal;font-variant-ligatures:normal;font-variant-numeric:normal"/>
   <path d="m1393.5961 516.08605q3.1005-0.24115 5.6155-0.86127 2.5493-0.62012 4.2719-1.41249 1.757-0.82682 2.6183-1.72255 0.8612-0.93017 0.6201-1.8259-0.2756-0.96463-2.7561-0.82682-2.446 0.1378-7.2692 1.10243-1.4124-0.10335-2.4804-0.65457-1.0336-0.55121-1.6537-1.30914-0.6201-0.79237-0.7923-1.65364-0.1723-0.86128 0.1033-1.51584 0-1.13689 0.6546-2.20486 0.689-1.10244 1.8259-1.99816 1.1713-0.93018 2.6872-1.65365 1.5502-0.75792 3.3072-1.17133 1.757-0.44786 3.6174-0.55121 1.8603-0.10336 3.6862 0.24115 0.8958 0.41341 1.447 0.96463 0.5857 0.51676 0.7924 1.06798 0.2067 0.51676 0 0.99908-0.2067 0.48231-0.8613 0.82682-1.4125-0.62012-2.9972-0.89572-1.5503-0.31006-3.1006-0.24116t-2.9973 0.48231q-1.4125 0.37896-2.5149 1.10243-1.068 0.68902-1.757 1.72255t-0.7235 2.34267q0 0.72347 0.5513 0.96462 0.5856 0.20671 1.3435 0.20671 0.7924-0.0345 1.6192-0.17226 0.8613-0.17225 1.3781-0.17225 3.4106-0.48232 5.6155-0.27561 2.2393 0.20671 3.4106 0.89573 1.1714 0.68901 1.3781 1.72254t-0.4134 2.23932q-0.5857 1.17133-1.9293 2.37711t-3.2728 2.20486q-1.9293 0.99908-4.3753 1.6881-2.4116 0.65457-5.1677 0.79237-0.6545 0.24116-1.1024-0.0689-0.4134-0.31006-0.6201-0.82682-0.2067-0.51677-0.1723-1.06798 0.069-0.58567 0.4135-0.86128z" style="font-feature-settings:normal;font-variant-caps:normal;font-variant-ligatures:normal;font-variant-numeric:normal"/>
  </g>
  <path d="m729.55392 549.56918s83.63181-42.7056 177.93999-16.01459" fill="none" stroke="#e91e63" stroke-linecap="round" stroke-width="5.29166651"/>
 </g>
</svg>
