<?xml version="1.0" encoding="UTF-8"?>
<!-- Created with Inkscape (http://www.inkscape.org/) -->
<svg width="135.46667mm" height="135.46667mm" version="1.1" viewBox="0 0 135.46668 135.46667" xmlns="http://www.w3.org/2000/svg" xmlns:cc="http://creativecommons.org/ns#" xmlns:dc="http://purl.org/dc/elements/1.1/" xmlns:rdf="http://www.w3.org/1999/02/22-rdf-syntax-ns#">
 <defs>
  <pattern id="pattern18997" width="700.00095" height="700.00073" patternTransform="matrix(.26458333 0 0 .26458333 -425.26726 -183.73309)" patternUnits="userSpaceOnUse">
   <path d="m0 7.1811025e-4v39.59569189l21.67578 12.042974 5.867187-51.63866589zm40.310514 0l39.648455 50.14257789 33.429691-50.14257789zm94.511736 0l19.86134 127.8554819 45.9707-127.8554819zm71.24999 0l63.68557 91.98829789v-83.6894757l86.67965 50.8105337 14.5352-59.10935589zm176.42386 0l11.30271 99.46091589-76.21875-23.912089-26.90041 109.097655-55.2949-101.625-25.40625 98.63479-13.45119-61.27348s-28.39514 109.09641-34.37303 115.07426c-5.97789 5.97789-53.80078-188.302758-53.80078-188.302758l-41.843754 65.757808-22.417966-52.30662-10.460938 64.26168-33.630842-46.957v90.20311l38.113248-17.83986-4.482406 47.82229 67.251968-73.22854-29.890657 85.18557 70.240257 26.90041-82.195319 13.44922 16.439471-22.41604-75.476562 54.44141v88.67385l15.697248-4.13087 25.406249-94.15038 44.834004 65.75585 40.349599-76.21679 79.20703 28.39453 37.36327-94.15234 28.39454 92.65818 52.30666-91.16406 50.81249 46.32813 2.98829-112.08397 64.26172 13.44922 23.91209-112.08401 67.25197 70.24025 53.80078-67.251967 34.37303 76.218747 79.04103-40.796863v-72.11523889h-15.86135l-36.27927 72.56054289-22.41797-52.306659 19.42772 11.955099 29.59767-32.20898289h-90.68947l-30.07029 44.16600989-7.47266-23.912126-25.40625 40.351598-15.15043-60.60548189zm135.87889 0l11.41992 14.27538889 25.37888-14.27538889zm181.62501 79.50391389-88.00781 93.185538-23.91213-70.24022-80.70115 68.7461-22.41801-89.667973-40.34959 144.962873l-29.89062-62.7676-25.40625 158.41411-41.84376-67.25001-85.18552 89.66794-26.90041-68.74606-17.9336 70.24022-73.23046-50.8125-59.77735 109.09766-32.878904-70.24022-26.900372 86.67969-24.664064-30.58402v146.7676l56.046842-104.22852 38.857437 46.32813 53.800781-88.17381 41.84572 46.32808 14.94335-58.28318 41.84572 74.72266 76.21875-130.01953 19.42771 131.51369 56.78907 5.97849-89.66797 55.29494 8.96678-146.45707-70.24022 146.45707-38.85547-73.22853-20.92188 49.31837-32.8789-58.28519-67.251973 138.98635-19.427717-61.27344-69.49803 55.8086v56.07812l53.058559-38.6582 22.418003 85.18555 68.744128-113.58008 64.26369 38.85547-50.8125 43.33984-5.97854-47.82226-11.95506 61.27343 116.56835 2.98828-24.15625 44.59571h59.25974l-17.1699-46.08985 46.32813 28.39454 29.89062-59.7793 16.43947 52.30664 43.33984-26.90039-15.36329 52.06836h78.23044l10.36135-38.61719-44.83396 11.95508 17.93359-71.73438-77.71291 14.94531 8.96682-65.75781-76.21875 71.73438-19.42776-38.85547-13.44922 41.8457-77.71291-82.19726 64.26172 31.38476 22.41801-52.30664 25.40625 44.83399 137.49022-92.65624-43.33985 106.10741 71.73438-16.43946 2.99025 65.75586 61.27344-28.39453-61.95315 98.39649h218.70705v-111.6211c-20.10554 29.56663-43.35742 63.8418-46.16409 68.51953-4.48339 7.47236-16.43944-47.82226-16.43944-47.82226l-74.72266 56.78906-1.49412-147.95116-44.834 49.3164 5.97656-83.68946-56.78906 46.32813 23.91212-109.09569-53.80078 5.97656-67.25197-25.40625 153.92969-68.74416-85.1836-31.38475 91.16214-37.36135-50.8125-50.8125 116.56834 49.31838-22.416-52.30666 58.28515 28.39453 32.87694-67.25193 37.19728 59.13475zm-700 126.222658v59.05466l23.169903-42.7734zm665.79297 37.2031-31.38478 52.30666-82.19532-20.92188 28.39454 43.33985-124.041 82.19531 77.71287-20.92187 16.43947 116.56838 32.87694-44.83401 17.93359 143.46876 47.82422-59.7793 7.47266 56.79102l43.17384-25.3418v-98.39257l-80.53712 63.95507 35.86719-77.71289-77.71095-44.83401 76.21679-20.92184-32.87694-38.85743 79.04103-25.0918v-68.07228zm-304.87306 88.17385 14.94531 20.92384 74.72266-11.95702-91.1621 32.8789zm339.08009 7.96093-17.76956 23.42385 17.76956 10.49998zm0 52.43362-46.16409 29.27539l46.16409 20.51758zm-675.335936 259.42381-24.664064 2.125v46.95313h29.476536zm82.195276 20.92188-38.048806 28.15625h94.363276zm239.11526 8.9668-16.86327 19.18945h29.16404zm-345.9736551-680.81128h700.0000051v700.00002h-700.0000051z" fill="#43a6f5"/>
  </pattern>
 </defs>
 <metadata>
  <rdf:RDF>
   <cc:Work rdf:about="">
    <dc:format>image/svg+xml</dc:format>
    <dc:type rdf:resource="http://purl.org/dc/dcmitype/StillImage"/>
    <dc:title/>
   </cc:Work>
  </rdf:RDF>
 </metadata>
 <polygon transform="matrix(3.4969519,0,0,3.4969519,-590.65362,880.88536)" points="" fill="#f9eab0"/>
 <text x="-629.94769" y="399.62991" fill="#000000" font-family="sans-serif" font-size="10.58333302px" letter-spacing="0px" stroke-width=".26458332" word-spacing="0px" style="line-height:1.25" xml:space="preserve"><tspan x="-629.94769" y="408.99368" stroke-width=".26458332"/></text>
 <text x="-1652.6775" y="446.69254" fill="#000000" font-family="'SC Gum Kids'" font-size="266.9718323px" letter-spacing="0px" stroke-width=".80091542" word-spacing="0px" style="font-feature-settings:normal;font-variant-caps:normal;font-variant-ligatures:normal;font-variant-numeric:normal;line-height:1.25" xml:space="preserve"><tspan x="-1652.6775" y="687.67657" font-family="'SC Gum Kids'" font-size="266.9718323px" stroke-width=".80091542" style="font-feature-settings:normal;font-variant-caps:normal;font-variant-ligatures:normal;font-variant-numeric:normal"/></text>
 <circle cx="67.733337" cy="67.733337" r="67.733337" opacity="0" stroke-width=".77663916"/>
 <g transform="matrix(.64029182 0 0 .64047744 26.14305 24.521124)">
  <g transform="matrix(1.4834303,0,0,1.4806452,747.69008,-229.66089)" stroke-width=".26458332">
   <g fill="#2196f3" style="font-feature-settings:normal;font-variant-caps:normal;font-variant-ligatures:normal;font-variant-numeric:normal" aria-label="1.1">
    <path d="m-475.57129 155.10866-22.32422 0.62011-6.13227 5.02984v21.15289l5.51216-2.54937 0.62011 66.69705h24.11567z" style="font-feature-settings:normal;font-variant-caps:normal;font-variant-ligatures:normal;font-variant-numeric:normal"/>
    <path d="m-461.99761 246.19698q-4.61643 0.41342-7.37251-2.89388-2.48047-2.89388-2.61827-7.4414-0.1378-4.40972 2.06706-7.51031 2.41156-3.37619 6.61458-3.16949 7.85482 0.34451 11.50662 3.5829 3.10059 2.75608 2.48047 6.89019-0.68902 3.85851-4.20302 6.89019-3.6518 3.23839-8.47493 3.6518z" style="font-feature-settings:normal;font-variant-caps:normal;font-variant-ligatures:normal;font-variant-numeric:normal"/>
    <path d="m-418.2449 155.10866-22.32422 0.62011-6.13227 5.02984v21.15289l5.51215-2.54937 0.62012 66.69705h24.11567z" style="font-feature-settings:normal;font-variant-caps:normal;font-variant-ligatures:normal;font-variant-numeric:normal"/>
   </g>
   <g fill="url(#pattern18997)" style="font-feature-settings:normal;font-variant-caps:normal;font-variant-ligatures:normal;font-variant-numeric:normal" aria-label="1.1">
    <path d="m-475.57129 155.10866-22.32422 0.62011-6.13227 5.02984v21.15289l5.51216-2.54937 0.62011 66.69705h24.11567z" style="font-feature-settings:normal;font-variant-caps:normal;font-variant-ligatures:normal;font-variant-numeric:normal"/>
    <path d="m-461.99761 246.19698q-4.61643 0.41342-7.37251-2.89388-2.48047-2.89388-2.61827-7.4414-0.1378-4.40972 2.06706-7.51031 2.41156-3.37619 6.61458-3.16949 7.85482 0.34451 11.50662 3.5829 3.10059 2.75608 2.48047 6.89019-0.68902 3.85851-4.20302 6.89019-3.6518 3.23839-8.47493 3.6518z" style="font-feature-settings:normal;font-variant-caps:normal;font-variant-ligatures:normal;font-variant-numeric:normal"/>
    <path d="m-418.2449 155.10866-22.32422 0.62011-6.13227 5.02984v21.15289l5.51215-2.54937 0.62012 66.69705h24.11567z" style="font-feature-settings:normal;font-variant-caps:normal;font-variant-ligatures:normal;font-variant-numeric:normal"/>
   </g>
  </g>
 </g>
</svg>
