<?xml version="1.0" encoding="UTF-8"?>
<!-- Created with Inkscape (http://www.inkscape.org/) -->
<svg width="135.46669mm" height="135.46669mm" version="1.1" viewBox="0 0 135.4667 135.46669" xmlns="http://www.w3.org/2000/svg" xmlns:cc="http://creativecommons.org/ns#" xmlns:dc="http://purl.org/dc/elements/1.1/" xmlns:rdf="http://www.w3.org/1999/02/22-rdf-syntax-ns#">
 <defs>
  <pattern id="pattern19016-1" width="700.00004" height="700" patternTransform="matrix(.26458333 0 0 .26458333 -641.01794 -218.52937)" patternUnits="userSpaceOnUse">
   <path d="m0 0v39.595692l21.67578 12.042974 5.867187-51.638666zm40.310552 0 39.648417 50.142577 33.429691-50.142577zm94.511698 0 19.86134 127.85549 45.9707-127.85549zm71.24999 0 63.68557 91.988298v-83.6894758l86.67969 50.8105708 14.53516-59.109393zm176.42386 0 11.30271 99.460953-76.21875-23.912126-26.90037 109.097653-55.29494-101.624998-25.40625 98.634788-13.45115-61.27344s-28.39518 109.09637-34.37307 115.07422c-5.97789 5.97789-53.80078-188.302756-53.80078-188.302756l-41.843754 65.757806-22.417966-52.306618-10.460938 64.261718-33.630842-46.957038v90.203118l38.113286-17.83983-4.482444 47.82225 67.251968-73.2285-29.89062 85.18553 70.24022 26.90041-82.195319 13.44922 16.439471-22.41604-75.476562 54.44141v88.67385l15.697248-4.13088 25.406249-94.15037 44.834004 65.75584 40.349599-76.21678 79.20703 28.39453 37.36327-94.15234 28.39454 92.65818 52.30666-91.16406 50.81249 46.32813 2.98829-112.08397 64.26172 13.44922 23.91213-112.084008 67.25197 70.240248 53.80078-67.251965 34.37302 76.218745 79.04104-40.796861v-72.115239h-15.86135l-36.27928 72.560543-22.41796-52.306621 19.42772 11.955061 29.59767-32.208983h-90.68947l-30.0703 44.16601-7.47265-23.912088-25.40625 40.35156-15.15043-60.605482zm135.87893 0 11.41992 14.275389 25.37888-14.275389zm181.62501 79.503913-88.00781 93.185537-23.91213-70.24021-80.70115 68.74609-22.41801-89.667971-40.34959 144.962871-29.89066-62.76756-25.40625 158.41407-41.84376-67.25001-85.18552 89.66797-26.90041-68.74609-17.9336 70.24022-73.23046-50.8125-59.77735 109.09765-32.878904-70.24022-26.900372 86.67969-24.664064-30.58397v146.76756l56.04688-104.22853 38.857399 46.32813 53.800781-88.17381 41.84572 46.32813 14.94335-58.28323 41.84572 74.72266 76.21875-130.01953 19.42771 131.51369 56.78907 5.9785-89.66797 55.29494 8.96681-146.45704-70.24025 146.45704-38.85547-73.22854-20.92188 49.31838-32.8789-58.28516-67.251935 138.98631-19.427755-61.27344-69.49803 55.80862v56.0781l53.058596-38.65818 22.417966 85.18553 68.744128-113.58006 64.26369 38.85547-50.8125 43.33984-5.97854-47.82228-11.95506 61.27343 116.56835 2.98829-24.15625 44.5957h59.25978l-17.16994-46.08983 46.32813 28.39454 29.89062-59.77932 16.43947 52.30666 43.33984-26.90041-15.36329 52.06836h78.23048l10.36135-38.61717-44.834 11.95506 17.93363-71.73438-77.71295 14.94532 8.96682-65.75781-76.21875 71.73437-19.42776-38.85547-13.44922 41.84572-77.71287-82.19728 64.26172 31.38478 22.41797-52.30666 25.40625 44.83401 137.49025-92.65626-43.33988 106.10741 71.73442-16.43944 2.99025 65.75585 61.27343-28.39454-61.95314 98.39649h218.70705v-111.62109c-20.10554 29.56664-43.35742 63.84182-46.1641 68.51955-4.48338 7.47235-16.43943-47.82229-16.43943-47.82229l-74.72266 56.78907-1.49412-147.95116-44.83401 49.31641 5.97657-83.68948-56.78906 46.32813 23.91212-109.09569-53.80082 5.97657-67.25197-25.40625 153.92973-68.74417-85.18364-31.38474 91.16217-37.36135-50.8125-50.8125 116.56835 49.31838-22.416-52.30666 58.28515 28.39453 32.87694-67.25193 37.19728 59.13475zm-700.00004 126.222657v59.0547l23.169903-42.77344zm665.79301 37.20314-31.38478 52.30662-82.19532-20.92188 28.39454 43.33984-124.041 82.19532 77.71287-20.92188 16.43947 116.56838 32.87694-44.834 17.93359 143.46875 47.82422-59.77928 7.47265 56.791 43.17385-25.34177v-98.3926l-80.53712 63.95509 35.86718-77.71291-77.71094-44.83397 76.21678-20.92187-32.87694-38.85744 79.04104-25.09179v-68.07228zm-304.8731 88.17381 14.94531 20.92384 74.72269-11.95703-91.16213 32.87891zm339.08013 7.96093-17.76956 23.42385 17.76956 10.49998zm0 52.43361-46.1641 29.27539 46.1641 20.51758zm-675.335976 259.42383-24.664064 2.125v46.95311h29.476536zm82.195316 20.92188-38.048846 28.15623h94.363276zm239.11522 8.96678-16.86327 19.18945h29.16404z" fill="#fccf5f"/>
  </pattern>
 </defs>
 <metadata>
  <rdf:RDF>
   <cc:Work rdf:about="">
    <dc:format>image/svg+xml</dc:format>
    <dc:type rdf:resource="http://purl.org/dc/dcmitype/StillImage"/>
    <dc:title/>
   </cc:Work>
  </rdf:RDF>
 </metadata>
 <polygon transform="matrix(3.4969519,0,0,3.4969519,-590.65362,720.55403)" points="" fill="#f9eab0"/>
 <text x="-629.94769" y="239.29858" fill="#000000" font-family="sans-serif" font-size="10.58333302px" letter-spacing="0px" stroke-width=".26458332" word-spacing="0px" style="line-height:1.25" xml:space="preserve"><tspan x="-629.94769" y="248.66235" stroke-width=".26458332"/></text>
 <text x="-1652.6775" y="286.36121" fill="#000000" font-family="'SC Gum Kids'" font-size="266.9718323px" letter-spacing="0px" stroke-width=".80091542" word-spacing="0px" style="font-feature-settings:normal;font-variant-caps:normal;font-variant-ligatures:normal;font-variant-numeric:normal;line-height:1.25" xml:space="preserve"><tspan x="-1652.6775" y="527.34521" font-family="'SC Gum Kids'" font-size="266.9718323px" stroke-width=".80091542" style="font-feature-settings:normal;font-variant-caps:normal;font-variant-ligatures:normal;font-variant-numeric:normal"/></text>
 <g transform="translate(0,-160.33133)">
  <circle cx="67.733337" cy="228.06467" r="67.733337" opacity="0" stroke-width=".77663916"/>
  <g transform="matrix(.64574067 0 0 .64592779 13.060625 184.48472)">
   <polygon transform="matrix(3.4969519,0,0,3.4969519,-1173.7407,877.18718)" points="" fill="#f9eab0"/>
   <text x="-1213.0347" y="395.93176" fill="#000000" font-family="sans-serif" font-size="10.58333302px" letter-spacing="0px" stroke-width=".26458332" word-spacing="0px" style="line-height:1.25" xml:space="preserve"><tspan x="-1213.0347" y="405.29553" stroke-width=".26458332"/></text>
   <text x="-2235.7644" y="442.99435" fill="#000000" font-family="'SC Gum Kids'" font-size="266.9718323px" letter-spacing="0px" stroke-width=".80091542" word-spacing="0px" style="font-feature-settings:normal;font-variant-caps:normal;font-variant-ligatures:normal;font-variant-numeric:normal;line-height:1.25" xml:space="preserve"><tspan x="-2235.7644" y="683.97839" font-family="'SC Gum Kids'" font-size="266.9718323px" stroke-width=".80091542" style="font-feature-settings:normal;font-variant-caps:normal;font-variant-ligatures:normal;font-variant-numeric:normal"/></text>
   <g transform="matrix(1.399456,0,0,1.4016041,714.21853,-397.12083)" stroke-width=".26458332">
    <g transform="translate(-177.14471,42.704528)" fill="#fbc02d" style="font-feature-settings:normal;font-variant-caps:normal;font-variant-ligatures:normal;font-variant-numeric:normal" aria-label="1.2">
     <path d="m-304.7532 245.26265-22.32422 0.62012-6.13227 5.02984v21.15288l5.51215-2.54937 0.62012 66.69705h24.11567z" style="font-feature-settings:normal;font-variant-caps:normal;font-variant-ligatures:normal;font-variant-numeric:normal"/>
     <path d="m-291.17953 336.35098q-4.61643 0.41341-7.3725-2.89388-2.48047-2.89388-2.61827-7.44141-0.13781-4.40972 2.06705-7.51031 2.41157-3.37619 6.61459-3.16949 7.85481 0.34451 11.50662 3.5829 3.10058 2.75608 2.48046 6.89019-0.68901 3.85851-4.20301 6.89019-3.6518 3.23839-8.47494 3.65181z" style="font-feature-settings:normal;font-variant-caps:normal;font-variant-ligatures:normal;font-variant-numeric:normal"/>
     <path d="m-221.5197 246.9852q-20.73947-12.60905-38.58507-0.20671-8.95724 6.54568-15.77853 16.19195l13.91818 17.63889q1.79145-2.89388 5.02984-5.37435 7.1658-7.1658 14.4005-5.64996 4.06521 0.89573 3.30729 5.51216-0.62011 3.92741-4.61642 10.26638-7.51031 11.78223-18.32791 18.94803-4.68533 3.99631-8.68164 7.02799l-1.65365 24.39128 56.01725 1.17133 0.0689-23.35775-28.31869 1.30914q13.43587-12.40234 23.01324-27.00955 8.40603-12.74685 9.37066-22.39312 1.30913-12.05784-9.16396-18.46571z" style="font-feature-settings:normal;font-variant-caps:normal;font-variant-ligatures:normal;font-variant-numeric:normal"/>
    </g>
    <g transform="translate(-177.14471,42.704528)" fill="url(#pattern19016-1)" style="font-feature-settings:normal;font-variant-caps:normal;font-variant-ligatures:normal;font-variant-numeric:normal" aria-label="1.2">
     <path d="m-304.7532 245.26265-22.32422 0.62012-6.13227 5.02984v21.15288l5.51215-2.54937 0.62012 66.69705h24.11567z" style="font-feature-settings:normal;font-variant-caps:normal;font-variant-ligatures:normal;font-variant-numeric:normal"/>
     <path d="m-291.17953 336.35098q-4.61643 0.41341-7.3725-2.89388-2.48047-2.89388-2.61827-7.44141-0.13781-4.40972 2.06705-7.51031 2.41157-3.37619 6.61459-3.16949 7.85481 0.34451 11.50662 3.5829 3.10058 2.75608 2.48046 6.89019-0.68901 3.85851-4.20301 6.89019-3.6518 3.23839-8.47494 3.65181z" style="font-feature-settings:normal;font-variant-caps:normal;font-variant-ligatures:normal;font-variant-numeric:normal"/>
     <path d="m-221.5197 246.9852q-20.73947-12.60905-38.58507-0.20671-8.95724 6.54568-15.77853 16.19195l13.91818 17.63889q1.79145-2.89388 5.02984-5.37435 7.1658-7.1658 14.4005-5.64996 4.06521 0.89573 3.30729 5.51216-0.62011 3.92741-4.61642 10.26638-7.51031 11.78223-18.32791 18.94803-4.68533 3.99631-8.68164 7.02799l-1.65365 24.39128 56.01725 1.17133 0.0689-23.35775-28.31869 1.30914q13.43587-12.40234 23.01324-27.00955 8.40603-12.74685 9.37066-22.39312 1.30913-12.05784-9.16396-18.46571z" style="font-feature-settings:normal;font-variant-caps:normal;font-variant-ligatures:normal;font-variant-numeric:normal"/>
    </g>
   </g>
  </g>
 </g>
</svg>
