<?xml version="1.0" encoding="UTF-8"?>
<!-- Created with Inkscape (http://www.inkscape.org/) -->
<svg width="1185" height="1185" version="1.1" viewBox="0 0 313.53124 313.53126" xmlns="http://www.w3.org/2000/svg" xmlns:cc="http://creativecommons.org/ns#" xmlns:dc="http://purl.org/dc/elements/1.1/" xmlns:rdf="http://www.w3.org/1999/02/22-rdf-syntax-ns#">
 <metadata>
  <rdf:RDF>
   <cc:Work rdf:about="">
    <dc:format>image/svg+xml</dc:format>
    <dc:type rdf:resource="http://purl.org/dc/dcmitype/StillImage"/>
    <dc:title/>
   </cc:Work>
  </rdf:RDF>
 </metadata>
 <g transform="translate(282.9743,-437.71436)">
  <rect x="-282.9743" y="437.71436" width="313.53125" height="313.53125" opacity="0" stroke-width="1.1926415"/>
  <path d="m-45.765103 711.60103c-0.44268 1.47471-36.58677 19.35466-38.04642 18.82101-1.45963-0.53365 6.95133-28.55304 8.85366-29.49409 1.90232-0.94106 29.63544 9.19838 29.19276 10.67308z" fill="#00c853"/>
  <path d="m-175.43639 716.76015c-0.87379 0.35822-23.34747-9.96857-23.6565-10.8703-0.30903-0.90171 16.29301-7.70771 17.47585-7.16419 1.18283 0.5435 7.05444 17.67629 6.18065 18.03449z" fill="#2196f3"/>
  <g transform="rotate(-4.3103428,5503.7996,333.37307)" fill="#616161" stroke-width=".26458332" style="font-feature-settings:normal;font-variant-caps:normal;font-variant-ligatures:normal;font-variant-numeric:normal" aria-label="anterior">
   <path d="m-160.06999 313.78369q-0.083 0.29731-0.55021 0.16686-0.50967-0.14231-0.49726-0.59668-3e-3 -0.0696 0.21001-0.83415 0.0593-0.21236 0.0312-0.35757-1.43234 0.53864-2.81271 0.15323-0.95563-0.26683-1.69932-1.04677-0.85332-0.87924-0.60428-1.77116 0.2431-0.87069 1.68482-1.36093 1.31776-0.45618 2.25216-0.19528l2.10239 0.58702q0.163-0.0918 0.25194-0.41039 0.39728-1.42284 0.36528-2.2101-0.0443-1.3172-1.1698-1.63146-0.80699-0.22532-1.77116 0.60428-0.87675 0.76245-1.11393 1.6119-0.0119 0.0425-0.0356 0.12742-0.0237 0.0849-0.0297 0.10618-0.0474 0.16989-0.21732 0.12246-0.21237-0.0593-0.39605-0.38529t-0.13032-0.51712q0.16603-0.59461 0.77608-1.38574 0.61599-0.81236 1.17116-1.16097 0.69101-0.42515 1.47675-0.20576 1.21048 0.33798 2.01636 1.3871 0.8518 1.13063 0.54692 2.30455zm-0.18274-3.69084q0.23718-0.84945-1.07947-1.21708-1.04059-0.29055-1.92713-0.14892-1.12856 0.18852-1.38945 1.12292-0.1601 0.57338 0.28187 1.04016 0.36888 0.40059 0.98473 0.57255 0.91316 0.25496 1.88617-0.11433 0.99424-0.36337 1.24328-1.2553z"/>
   <path d="m-151.49983 315.09073q-0.17966 0.20988-0.41693 0.15964-0.23728-0.0502-0.7126-0.4664l0.0365-0.17256q0.0411-0.19414 0.14488-0.57784 0.10377-0.3837 0.14031-0.55626 1.51625-7.16139-0.27409-7.54045-0.56083-0.11874-1.38149 0.56392-2.06866 1.68053-2.72174 4.7651-0.0868 0.40984-0.12633 1.23535-0.0134 0.8085-0.1002 1.21834-0.0685 0.32356-0.52148 0.22765-0.86282-0.18268-0.5751-1.54162l1.03672-4.89648q0.0411-0.19414 0.16188-0.5517 0.12078-0.35757 0.16189-0.5517 0.0594-0.28041 0.0873-0.83794 0.0495-0.55297 0.10427-0.81181 0.0365-0.17256 0.34105-0.33346 0.33065-0.17791 0.48165-0.14594 0.28041 0.0594 0.45375 0.4116-0.36157 1.38837-0.41181 1.62565-0.0685 0.32355-0.11087 0.63011 0.20784-0.0236 0.6684-0.60222 0.58339-0.7329 0.92774-0.97552 0.64557-0.49436 1.31425-0.35278 0.25885 0.0548 0.73544 0.35855 1.07346 0.67802 1.35949 1.7753 0.48046 1.88218-0.11326 4.68634z"/>
   <path d="m-145.26603 308.94876q-0.19574 0.10149-0.86269 0.0797-0.73221-0.0326-0.85183 0.0145-0.0616 0.23561-0.42418 2.41046-0.28278 1.69638-0.33718 2.29084-0.0399 0.23923-0.0182 0.77932 0.0217 0.5401-0.0254 0.82283-0.029 0.17398-0.27549 0.31172-0.24649 0.13773-0.42048 0.10873-0.43497-0.0725-0.5473-1.00771-0.0652-0.68146 0.0327-1.26867 0.5112-3.06653 0.7976-4.51643-0.11236-0.1305-1.00043-0.16677-0.71045-0.029-0.61256-0.61624 0.13777-0.82644 1.88852-0.46753l0.93894-3.88934q0.0109-0.0652-0.0326-0.20662-0.0181-0.15949-7e-3 -0.22473 0.0217-0.13049 0.21387-0.21023 0.19574-0.10149 0.43134-0.0399 0.75032 0.19214 0.63431 0.88809-0.0906 0.54371-0.42415 1.60576-0.33352 1.06204-0.42053 1.58401-0.0435 0.26098-0.0399 0.50746l1.20704 0.13416q0.60896 0.10152 0.5292 0.57998-0.058 0.34798-0.37337 0.49658z"/>
   <path d="m-139.17708 314.51487q-0.11841 0.96289-1.50374 1.57004-1.24596 0.55766-2.2745 0.43117-2.93242-0.36061-2.47493-4.08085 0.20183-1.64128 1.02413-3.45062 1.08922-2.3541 2.31471-2.2034 1.05042 0.12917 2.16593 1.35487 1.1182 1.20381 0.98903 2.25423-0.16685 1.3568-1.38483 2.2289-1.21798 0.87209-2.59666 0.70255-0.1313-0.0161-0.54206-0.2888-0.38888-0.26997-0.54207-0.28881-0.28449-0.035-0.30602 0.14009-0.30948 2.51663 1.35369 2.72115 0.85347 0.10496 1.6456-0.37521 0.47804-0.27444 1.08937-0.91013 0.48307-0.49597 0.61437-0.47982 0.50333 0.0619 0.42798 0.67464zm-1.01482-4.2123q0.0942-0.76593-0.26275-1.47626-0.35425-0.73222-1.07642-0.82103-0.87535-0.10764-1.557 0.91927-0.57259 0.8626-0.69368 1.84737-0.0781 0.63463 0.26204 1.12074 0.36466 0.46693 0.99929 0.54497 0.89723 0.11034 1.58228-0.58294 0.63321-0.633 0.74624-1.55212z"/>
   <path d="m-132.99282 309.30238q-7e-3 0.0879-0.0503 0.3721-0.31908 0.41809-0.58291 0.39812-0.17589-0.0133-0.29117-0.24314 0.0388-1.3901-1.03846-1.4716-0.70355-0.0532-1.58139 2.48952-0.33536 0.92543-0.45513 2.5084-0.15304 2.02269-0.078 2.49271 0.017 0.0676 0.0883 0.29413 0.073 0.20453 0.0647 0.31446-0.0366 0.48369-0.69617 0.43378-0.74751-0.0565-0.68929-0.82606 8e-3 -0.10993 0.0673-0.30447 0.0826-0.21487 0.0909-0.3248 0.0915-1.20921 0.16454-3.63597 0.0731-2.42675 0.16454-3.63597 0.0333-0.43971 0.19383-0.51601 0.16221-0.0983 0.60193-0.065 0.54964 0.0416 0.60765 0.44399-0.0113 0.44138-0.0209 0.86077 0.63817-0.83618 0.73443-0.93946 0.52527-0.51305 1.05293-0.47312 0.39575 0.0299 0.77319 0.30172 0.20988 0.14855 0.54205 0.72648 0.35416 0.57958 0.33752 0.79944z"/>
   <path d="m-129.95018 305.34224q-0.0334 0.74891-0.73821 0.71752-0.41851-0.0186-0.7572-0.34271-0.3387-0.32407-0.32104-0.72056 0.0333-0.74891 0.78226-0.71555 0.44054 0.0196 0.73616 0.3197 0.31765 0.30106 0.29803 0.7416zm-0.56566 3.28538q-0.0177 0.39648-0.22919 1.18159-0.21153 0.78512-0.22919 1.1816l-0.2168 4.86792q-0.0216 0.48459 0.13938 1.33044-0.096 0.17229-0.25014 0.16542-1.07931-0.0481-1.03321-1.08333l0.36003-8.08383q0.29322-0.14143 0.55754-0.12966 0.26432 0.0118 0.5438 0.17871 0.36759 0.17087 0.35778 0.39114z"/>
   <path d="m-122.89607 313.00387q-8e-3 1.89617-0.85109 3.30391-0.99899 1.69375-2.76286 1.68669-1.78592-7e-3 -2.6623-1.39974-0.723-1.14944-0.7154-3.0456 8e-3 -1.87412 0.85259-3.67874 1.06725-2.22265 2.69883-2.21611 0.41893 2e-3 1.18868 0.48984 2.26533 1.4202 2.25155 4.85975zm-1.05824-0.0263q6e-3 -1.4111-0.36466-2.53707-0.54494-1.56765-1.69146-1.57224-1.3229-5e-3 -2.07953 1.73352-0.57865 1.34266-0.58483 2.88605-6e-3 1.38905 0.3875 2.33872 0.56805 1.30316 1.78071 1.30802 1.32291 5e-3 2.01242-1.49126 0.53384-1.16644 0.53985-2.66574z"/>
   <path d="m-117.32874 309.19975q5e-3 0.0881-2e-3 0.37547-0.26314 0.45537-0.52736 0.46923-0.17615 9e-3 -0.3198-0.20402-0.1388-1.38369-1.2177-1.32711-0.70459 0.0369-1.25091 2.67091-0.21457 0.96064-0.13143 2.54596 0.10623 2.02569 0.24057 2.48231 0.0255 0.0649 0.1251 0.28046 0.0985 0.19355 0.10424 0.30364 0.0254 0.4844-0.63515 0.51904-0.74862 0.0393-0.78904-0.73138-6e-3 -0.11009 0.0279-0.31057 0.0545-0.22364 0.0487-0.33374-0.0635-1.21101-0.30061-3.62725-0.23711-2.41625-0.30061-3.62726-0.0231-0.44036 0.12641-0.53652 0.14836-0.11818 0.58872-0.14127 0.55046-0.0289 0.65932 0.36285 0.0451 0.43921 0.0891 0.8564 0.52629-0.91075 0.60859-1.02546 0.45554-0.57586 0.98398-0.60358 0.39633-0.0208 0.80536 0.20064 0.22711 0.12056 0.63029 0.65139 0.4252 0.52968 0.43674 0.74986z"/>
  </g>
  <g transform="matrix(.91721033 .39840332 .39840332 -.91721033 -312.53952 688.02282)" fill="none" stroke="#ffc107" stroke-linecap="round" stroke-width="2.64583325">
   <g transform="rotate(-26.301235,280.87683,257.93987)">
    <path d="m311.01879 55.61079-10.7041-6.274815"/>
    <path d="m312.14537 43.254339-1.12658 12.356451"/>
   </g>
   <path d="m148.16068 32.100827s36.96218 2.270005 70.08762 31.100082"/>
  </g>
  <path d="m-126.92895 489.91918a98.933613 98.933613 0 0 0 -33.81034 6.08749l7.72408 0.66921-4.72271 6.92671a90.72936 90.72936 0 0 1 30.80897 -5.47874 90.72936 90.72936 0 0 1 90.729337 90.72935 90.72936 90.72936 0 0 1 -90.729337 90.72935 90.72936 90.72936 0 0 1 -90.72934 -90.72935 90.72936 90.72936 0 0 1 42.67646 -76.90177l-3.50676-7.39025a98.933613 98.933613 0 0 0 -47.37385 84.29202 98.933613 98.933613 0 0 0 98.93349 98.9335 98.933613 98.933613 0 0 0 98.932977 -98.9335 98.933613 98.933613 0 0 0 -98.932977 -98.93402z" fill="#ff5252"/>
  <g stroke="#fff" stroke-width=".5291667">
   <g transform="translate(-740.47474,442.94625)" fill="#0d47a1" style="font-feature-settings:normal;font-variant-caps:normal;font-variant-ligatures:normal;font-variant-numeric:normal" aria-label="Martes">
    <path d="m660.20104 77.49603-3.64319 0.06029-0.27561 11.119046h3.52261l0.16364-7.372504 2.68718 4.358045 2.62688-3.970472-0.1378 7.036607 3.60012 0.06029 0.27561-11.153497-3.66041-0.05168-2.59244 4.185791z" style="font-feature-settings:normal;font-variant-caps:normal;font-variant-ligatures:normal;font-variant-numeric:normal"/>
    <path d="m672.96512 86.634146q-0.29284-0.04306-0.48232-0.172255-0.18087-0.129191-0.19809-0.275608-9e-3 -0.155029 0.16364-0.241156 0.19809-0.09474 0.57705-0.0689 0.267 0.02584 0.42203 0.155029 0.1378 0.129191 0.12919 0.284221-9e-3 0.163642-0.16364 0.249769-0.16364 0.103353-0.44786 0.0689zm2.3685-6.020305q-2.25654-0.396186-3.86712-0.163642-0.8096 0.120579-1.16272 0.318672l0.49954 2.506307q0.96462-0.266995 2.0326-0.241157 2.13596 0.05168 2.6355 1.550293-0.80959-0.482313-1.85174-0.732083-2.1015-0.499539-3.30729 0.671794-0.71486 0.697632-0.88711 1.576131-0.17225 0.869887 0.24116 1.584744 0.43925 0.766534 1.38665 1.102431 1.05936 0.370347 2.54937 0.120578 1.21439-0.215319 1.93786-1.188558l-0.14641 1.033529h2.93694q0.52538-1.808676 0.41341-3.729316-0.0947-1.679484-0.79237-2.756077-0.86127-1.343587-2.61827-1.653646z" style="font-feature-settings:normal;font-variant-caps:normal;font-variant-ligatures:normal;font-variant-numeric:normal"/>
    <path d="m681.8793 79.812857-2.75608 0.0689 0.21532 8.83667 2.83359 0.0689-0.11196-3.643189q0.37896-1.834513 2.04983-2.273763 0.83544-0.223931 1.59336-0.07752l9e-3 -3.005846q-2.42018 0.06029-3.79822 1.111044z" style="font-feature-settings:normal;font-variant-caps:normal;font-variant-ligatures:normal;font-variant-numeric:normal"/>
    <path d="m688.76088 76.824236-0.0861 2.781915-2.31683-0.129191-0.15502 2.764689 2.37711 0.111966-0.11196 6.545681 2.92833 0.15503 0.0861-6.580133 2.24793 0.01722 0.0603-2.781914-2.23931-0.04306 0.0603-2.678562z" style="font-feature-settings:normal;font-variant-caps:normal;font-variant-ligatures:normal;font-variant-numeric:normal"/>
    <path d="m698.81194 82.250262q0.75792-0.137804 1.10243 0.241156 0.17226 0.198093 0.18948 0.413412l-2.32544 0.223931q-0.0344-0.163642 0.0689-0.361735 0.21531-0.37896 0.96462-0.516764zm-0.35312 3.625963q-0.44786-0.24977-0.6115-0.689019-0.0861-0.215319-0.0775-0.387573l5.77915-0.68902q-0.19809-1.162719-0.99047-2.256537-1.60196-2.196249-4.63365-1.912028-1.73116 0.163642-2.73885 1.395263-0.91295 1.102431-0.99908 2.713013-0.0947 1.558906 0.61151 2.850817 0.75792 1.386651 2.11873 1.8259 2.35989 0.775147 4.53891-0.344509 1.09382-0.559828 1.70533-1.266073l-1.85174-1.929253q-0.4048 0.344509-0.96463 0.602891-1.11104 0.525378-1.88619 0.08613z" style="font-feature-settings:normal;font-variant-caps:normal;font-variant-ligatures:normal;font-variant-numeric:normal"/>
    <path d="m705.05618 85.178593q0.79237 0.34451 1.4211 0.611504 1.73978 0.869887 2.08429 0.559829 0.12058-0.180868 0.0344-0.310059-0.0861-0.129191-0.85266-0.430637-0.75792-0.310059-1.73978-0.620117-0.98185-0.310059-1.33497-1.024916-0.3359-0.689019-0.0517-1.455553 0.31006-0.826823 1.18856-1.309136 1.0163-0.551216 2.51492-0.456476 1.26607 0.07752 2.52353 0.577054 0.59428 0.327284 0.93018 0.645955l-1.08521 1.705323q-0.49954-0.327284-0.97324-0.473701-1.55029-0.568441-1.63642 0.03445-9e-3 0.163642 0.27561 0.34451 0.29283 0.172254 1.24024 0.430637 0.95601 0.249769 1.55029 0.533989 0.88711 0.43925 1.07659 1.403877 0.19809 0.981852-0.6115 2.015381-0.84405 0.990465-2.91972 0.999077-1.80868 0.01723-4.8662-1.3522z" style="font-feature-settings:normal;font-variant-caps:normal;font-variant-ligatures:normal;font-variant-numeric:normal"/>
   </g>
   <g transform="translate(-760.20508,455.63005)" fill="#1565c0" style="font-feature-settings:normal;font-variant-caps:normal;font-variant-ligatures:normal;font-variant-numeric:normal" aria-label="Miércoles">
    <path d="m677.86638 148.51496-3.64319 0.0603-0.27561 11.11904h3.52261l0.16365-7.3725 2.68717 4.35804 2.62689-3.97047-0.13781 7.03661 3.60013 0.0603 0.27561-11.1535-3.66042-0.0517-2.59243 4.18579z" style="font-feature-settings:normal;font-variant-caps:normal;font-variant-ligatures:normal;font-variant-numeric:normal"/>
    <path d="m688.61508 150.78872q0.86127-0.0258 1.31775-0.52538 0.42202-0.45647 0.38757-1.10243-0.0344-0.63734-0.48231-1.09381-0.48232-0.49954-1.25746-0.51677-0.69763-0.0258-1.16272 0.49093-0.42203 0.4737-0.46509 1.13688-0.0344 0.68041 0.36174 1.12827 0.45647 0.50815 1.30052 0.48231zm1.30914 0.55122-2.72163 9e-3 -0.0344 8.47493 2.79914 0.0689z" style="font-feature-settings:normal;font-variant-caps:normal;font-variant-ligatures:normal;font-variant-numeric:normal"/>
    <path d="m695.2555 153.26919q0.75792-0.1378 1.10243 0.24116 0.17226 0.19809 0.18948 0.41341l-2.32544 0.22393q-0.0345-0.16364 0.0689-0.36174 0.21532-0.37896 0.96463-0.51676zm-0.35312 3.62596q-0.44786-0.24977-0.61151-0.68902-0.0861-0.21531-0.0775-0.38757l5.77915-0.68902q-0.1981-1.16272-0.99047-2.25654-1.60197-2.19624-4.63365-1.91202-1.73116 0.16364-2.73885 1.39526-0.91295 1.10243-0.99908 2.71301-0.0947 1.55891 0.6115 2.85082 0.75793 1.38665 2.11874 1.8259 2.35989 0.77515 4.53891-0.34451 1.09382-0.55983 1.70532-1.26607l-1.85173-1.92926q-0.4048 0.34451-0.96463 0.6029-1.11104 0.52537-1.88619 0.0861zm0.79237-9.70655-2.73885 2.83359 0.79237 0.83543 3.247-2.09289z" style="font-feature-settings:normal;font-variant-caps:normal;font-variant-ligatures:normal;font-variant-numeric:normal"/>
    <path d="m703.02419 150.83179-2.75608 0.0689 0.21532 8.83667 2.83359 0.0689-0.11196-3.64319q0.37896-1.83451 2.04983-2.27376 0.83544-0.22393 1.59336-0.0775l9e-3 -3.00584q-2.42018 0.0603-3.79822 1.11104z" style="font-feature-settings:normal;font-variant-caps:normal;font-variant-ligatures:normal;font-variant-numeric:normal"/>
    <path d="m713.17861 154.68168q-0.31006-0.31006-0.74069-0.4737-0.85267-0.32729-1.41249 0.39618-0.31867 0.42203-0.20671 0.86128 0.0861 0.4048 0.49093 0.68041 0.41341 0.26699 0.93879 0.25838 0.57705-0.0258 1.07659-0.4048l2.15318 1.6881q-0.6115 0.91295-1.72255 1.52445-2.23069 1.2144-4.737-0.28422-1.31775-0.79237-1.58475-2.6355-0.24976-1.77422 0.6029-3.32452 0.91295-1.68809 2.63549-2.0326 2.00677-0.38758 4.51308 1.2833z" style="font-feature-settings:normal;font-variant-caps:normal;font-variant-ligatures:normal;font-variant-numeric:normal"/>
    <path d="m720.05158 156.4559q-0.50815-9e-3 -0.76654-0.15503-0.24977-0.1378-0.24977-0.38757 0-0.25838 0.23255-0.42202 0.25838-0.18948 0.70624-0.18948 0.4737 0 0.74931 0.16364 0.27561 0.15503 0.27561 0.4048 0 0.24115-0.27561 0.41341-0.26699 0.18087-0.67179 0.17225zm-0.0603-5.1418q-2.1618 0-3.27284 1.45555-0.93018 1.2144-0.93018 3.09197 0 2.08429 0.97324 3.07475 1.07659 1.09382 3.57429 1.12827 1.77422 0.0258 2.96278-1.30913 1.15411-1.30053 1.15411-3.15227 0-1.86896-1.16272-3.04891-1.22301-1.24023-3.29868-1.24023z" style="font-feature-settings:normal;font-variant-caps:normal;font-variant-ligatures:normal;font-variant-numeric:normal"/>
    <path d="m724.64217 148.35993v11.41188h3.53983l0.15503-11.56691z" style="font-feature-settings:normal;font-variant-caps:normal;font-variant-ligatures:normal;font-variant-numeric:normal"/>
    <path d="m733.22046 153.26919q0.75792-0.1378 1.10243 0.24116 0.17225 0.19809 0.18948 0.41341l-2.32544 0.22393q-0.0344-0.16364 0.0689-0.36174 0.21532-0.37896 0.96463-0.51676zm-0.35313 3.62596q-0.44786-0.24977-0.6115-0.68902-0.0861-0.21531-0.0775-0.38757l5.77915-0.68902q-0.19809-1.16272-0.99046-2.25654-1.60197-2.19624-4.63366-1.91202-1.73116 0.16364-2.73885 1.39526-0.91295 1.10243-0.99908 2.71301-0.0947 1.55891 0.61151 2.85082 0.75792 1.38665 2.11873 1.8259 2.35989 0.77515 4.53892-0.34451 1.09381-0.55983 1.70532-1.26607l-1.85174-1.92926q-0.4048 0.34451-0.96463 0.6029-1.11104 0.52537-1.88619 0.0861z" style="font-feature-settings:normal;font-variant-caps:normal;font-variant-ligatures:normal;font-variant-numeric:normal"/>
    <path d="m739.46469 156.19752q0.79237 0.34451 1.4211 0.61151 1.73978 0.86988 2.08429 0.55982 0.12057-0.18086 0.0344-0.31005-0.0861-0.1292-0.85267-0.43064-0.75792-0.31006-1.73977-0.62012t-1.33497-1.02491q-0.3359-0.68902-0.0517-1.45556 0.31006-0.82682 1.18856-1.30913 1.0163-0.55122 2.51492-0.45648 1.26607 0.0775 2.52353 0.57705 0.59428 0.32729 0.93018 0.64596l-1.08521 1.70532q-0.49954-0.32728-0.97324-0.4737-1.55029-0.56844-1.63642 0.0344-9e-3 0.16364 0.27561 0.34451 0.29283 0.17226 1.24023 0.43064 0.95602 0.24977 1.5503 0.53399 0.88711 0.43925 1.07659 1.40388 0.19809 0.98185-0.61151 2.01538-0.84404 0.99046-2.91971 0.99907-1.80868 0.0172-4.8662-1.3522z" style="font-feature-settings:normal;font-variant-caps:normal;font-variant-ligatures:normal;font-variant-numeric:normal"/>
   </g>
   <g transform="translate(-718.8653,455.63005)" fill="#2196f3" style="font-feature-settings:normal;font-variant-caps:normal;font-variant-ligatures:normal;font-variant-numeric:normal" aria-label="Sábado">
    <path d="m479.4848 156.51958q1.66226 0.28422 3.33313 0.36174 3.34174 0.14641 3.3762-0.90434 0.0172-0.52538-0.98186-0.73209-0.30144-0.0689-2.23931-0.24976-1.57613-0.14642-2.38573-0.45648-1.14549-0.43925-1.36942-1.36943-0.34451-1.48139-0.11197-2.42879 0.22393-0.93879 1.05937-1.45555 1.49-0.93018 5.82221-0.72347 2.11012 0.10335 3.0403 0.27561l-0.0517 2.81636q-1.65365-0.2756-3.34174-0.39618-3.35036-0.24116-3.41926 0.49954-0.0603 0.71485 1.45555 0.90433 0.4737 0.0603 1.30053 0.0861 0.92156 0.0258 1.11104 0.0431 2.00677 0.16365 2.95417 1.66226 0.44786 0.72347 0.46509 1.57613 0.0172 0.92157-0.4737 1.84313-1.02492 1.9637-5.46909 1.93787-2.22209-0.0172-4.23747-0.42203z" style="font-feature-settings:normal;font-variant-caps:normal;font-variant-ligatures:normal;font-variant-numeric:normal"/>
    <path d="m493.61831 157.65646q-0.29284-0.0431-0.48232-0.17225-0.18086-0.12919-0.19809-0.27561-9e-3 -0.15503 0.16364-0.24116 0.1981-0.0947 0.57706-0.0689 0.26699 0.0258 0.42202 0.15503 0.1378 0.12919 0.12919 0.28422-9e-3 0.16364-0.16364 0.24977-0.16364 0.10335-0.44786 0.0689zm2.3685-6.0203q-2.25654-0.39619-3.86712-0.16364-0.8096 0.12057-1.16272 0.31867l0.49954 2.5063q0.96463-0.26699 2.03261-0.24115 2.13596 0.0517 2.63549 1.55029-0.80959-0.48231-1.85173-0.73208-2.10151-0.49954-3.3073 0.67179-0.71485 0.69763-0.88711 1.57613-0.17225 0.86989 0.24116 1.58475 0.43925 0.76653 1.38665 1.10243 1.05937 0.37034 2.54937 0.12057 1.2144-0.21531 1.93787-1.18855l-0.14642 1.03353h2.93694q0.52538-1.80868 0.41342-3.72932-0.0948-1.67948-0.79238-2.75608-0.86127-1.34358-2.61827-1.65364zm-0.0431-4.44418-2.73885 2.8336 0.79237 0.83543 3.247-2.09289z" style="font-feature-settings:normal;font-variant-caps:normal;font-variant-ligatures:normal;font-variant-numeric:normal"/>
    <path d="m505.18522 156.38178q-0.43064-0.0861-0.59428-0.28422-0.14642-0.17226-0.0689-0.37896 0.0775-0.18948 0.30145-0.32729 0.24116-0.1378 0.49954-0.1378 0.57705 0.0172 0.83543 0.22393 0.23255 0.18948 0.16365 0.43925-0.0775 0.25838-0.37035 0.39618-0.3359 0.15503-0.76653 0.0689zm3.42787-3.66042q-1.58475-1.30052-3.53123-0.89572-0.98185 0.19809-1.66226 0.65457v-4.26331l-3.55706 0.16364v11.30853l3.25562 0.0947v-1.23162q0.17225 0.31006 0.49954 0.80098 0.80959 0.48231 1.97231 0.57705 1.46417 0.1292 2.53215-0.70624 1.04214-0.68041 1.62781-1.99816 0.4048-1.25745 0.15503-2.48908-0.41342-1.30913-1.29191-2.01538z" style="font-feature-settings:normal;font-variant-caps:normal;font-variant-ligatures:normal;font-variant-numeric:normal"/>
    <path d="m514.04772 157.65646q-0.29283-0.0431-0.48231-0.17225-0.18087-0.12919-0.19809-0.27561-9e-3 -0.15503 0.16364-0.24116 0.19809-0.0947 0.57705-0.0689 0.267 0.0258 0.42203 0.15503 0.1378 0.12919 0.12919 0.28422-9e-3 0.16364-0.16364 0.24977-0.16365 0.10335-0.44787 0.0689zm2.36851-6.0203q-2.25654-0.39619-3.86712-0.16364-0.8096 0.12057-1.16272 0.31867l0.49954 2.5063q0.96462-0.26699 2.0326-0.24115 2.13596 0.0517 2.6355 1.55029-0.8096-0.48231-1.85174-0.73208-2.10151-0.49954-3.30729 0.67179-0.71486 0.69763-0.88711 1.57613-0.17226 0.86989 0.24115 1.58475 0.43925 0.76653 1.38666 1.10243 1.05936 0.37034 2.54937 0.12057 1.21439-0.21531 1.93786-1.18855l-0.14641 1.03353h2.93694q0.52538-1.80868 0.41341-3.72932-0.0947-1.67948-0.79237-2.75608-0.86127-1.34358-2.61827-1.65364z" style="font-feature-settings:normal;font-variant-caps:normal;font-variant-ligatures:normal;font-variant-numeric:normal"/>
    <path d="m525.08064 156.45929q-0.4048 0.0947-0.73208-0.0603-0.27561-0.1378-0.35312-0.37896-0.0603-0.25838 0.15503-0.43925 0.25838-0.19809 0.80098-0.21532 0.24977 0 0.4737 0.12919 0.22393 0.13781 0.29283 0.32729 0.0775 0.19809-0.0689 0.37035-0.15503 0.18948-0.56844 0.26699zm-3.40203-3.59151q-0.8785 0.67179-1.30052 1.92064-0.24116 1.18856 0.16364 2.38573 0.58566 1.26607 1.54168 1.98954 1.0852 0.8096 2.54076 0.68041 1.17133-0.0947 1.78283-0.55983 0.61151-0.46509 0.78376-0.75792v1.34359l3.1781 0.17225-0.0775-11.51523-3.48816-0.18087v4.36666q-0.68041-0.43064-1.66226-0.62873-1.9637-0.38757-3.46232 0.78376z" style="font-feature-settings:normal;font-variant-caps:normal;font-variant-ligatures:normal;font-variant-numeric:normal"/>
    <path d="m535.02836 156.45929q-0.50815-9e-3 -0.76654-0.15503-0.24977-0.1378-0.24977-0.38757 0-0.25838 0.23255-0.42203 0.25838-0.18948 0.70624-0.18948 0.4737 0 0.74931 0.16365 0.27561 0.15503 0.27561 0.40479 0 0.24116-0.27561 0.41342-0.26699 0.18086-0.67179 0.17225zm-0.0603-5.1418q-2.1618 0-3.27284 1.45555-0.93018 1.2144-0.93018 3.09197 0 2.08428 0.97324 3.07475 1.07659 1.09382 3.57429 1.12827 1.77422 0.0258 2.96278-1.30914 1.15411-1.30052 1.15411-3.15226 0-1.86896-1.16272-3.04891-1.22301-1.24023-3.29868-1.24023z" style="font-feature-settings:normal;font-variant-caps:normal;font-variant-ligatures:normal;font-variant-numeric:normal"/>
   </g>
   <g transform="translate(-753.15853,454.69051)" fill="#1976d2" style="font-feature-settings:normal;font-variant-caps:normal;font-variant-ligatures:normal;font-variant-numeric:normal" aria-label="Jueves">
    <path d="m644.25496 216.52735q0.29283 0.83543 0.57705 1.14549 0.55983 0.62873 1.17995 0.18087 0.99046-0.56844 0.21531-8.30268l3.53984-0.0344q0.32728 2.86804 0.0258 5.71024-0.24977 2.48047-1.0163 3.88435-0.94741 1.74838-2.64412 1.69671-2.32543-0.0775-3.58289-1.65365-0.62012-0.79237-0.78376-1.91203z" style="font-feature-settings:normal;font-variant-caps:normal;font-variant-ligatures:normal;font-variant-numeric:normal"/>
    <path d="m655.08978 212.80664q0.21532 1.23162 0.23255 2.42879 0.0344 2.40296-0.79237 2.23932-0.82683-0.16365-0.96463-2.30822-0.0603-1.06798 0.0775-2.18763l-3.06613-0.17226q-0.37896 2.024-0.0431 4.04799 0.65457 4.04799 4.19441 4.04799 3.53983 0 3.93602-4.22025 0.18948-2.1015-0.31867-4.21162z" style="font-feature-settings:normal;font-variant-caps:normal;font-variant-ligatures:normal;font-variant-numeric:normal"/>
    <path d="m663.81449 214.27081q0.75792-0.13781 1.10243 0.24115 0.17225 0.1981 0.18948 0.41342l-2.32544 0.22393q-0.0345-0.16364 0.0689-0.36174 0.21532-0.37896 0.96463-0.51676zm-0.35312 3.62596q-0.44787-0.24977-0.61151-0.68902-0.0861-0.21532-0.0775-0.38757l5.77914-0.68902q-0.19809-1.16272-0.99046-2.25654-1.60197-2.19625-4.63365-1.91203-1.73117 0.16365-2.73886 1.39527-0.91295 1.10243-0.99907 2.71301-0.0947 1.55891 0.6115 2.85082 0.75792 1.38665 2.11874 1.8259 2.35989 0.77514 4.53891-0.34451 1.09382-0.55983 1.70532-1.26607l-1.85174-1.92926q-0.4048 0.34451-0.96462 0.60289-1.11105 0.52538-1.88619 0.0861z" style="font-feature-settings:normal;font-variant-caps:normal;font-variant-ligatures:normal;font-variant-numeric:normal"/>
    <path d="m673.86555 217.81064-2.06705-5.52076-2.9714 0.65457 3.28145 7.78591 3.33313 0.19809 2.95417-8.89695-2.88526-0.73209z" style="font-feature-settings:normal;font-variant-caps:normal;font-variant-ligatures:normal;font-variant-numeric:normal"/>
    <path d="m683.31373 214.27081q0.75792-0.13781 1.10243 0.24115 0.17225 0.1981 0.18948 0.41342l-2.32544 0.22393q-0.0344-0.16364 0.0689-0.36174 0.21532-0.37896 0.96463-0.51676zm-0.35312 3.62596q-0.44787-0.24977-0.61151-0.68902-0.0861-0.21532-0.0775-0.38757l5.77914-0.68902q-0.19809-1.16272-0.99046-2.25654-1.60197-2.19625-4.63365-1.91203-1.73116 0.16365-2.73885 1.39527-0.91295 1.10243-0.99908 2.71301-0.0947 1.55891 0.6115 2.85082 0.75792 1.38665 2.11874 1.8259 2.35989 0.77514 4.53891-0.34451 1.09382-0.55983 1.70532-1.26607l-1.85174-1.92926q-0.4048 0.34451-0.96462 0.60289-1.11105 0.52538-1.88619 0.0861z" style="font-feature-settings:normal;font-variant-caps:normal;font-variant-ligatures:normal;font-variant-numeric:normal"/>
    <path d="m689.55796 217.19914q0.79238 0.34451 1.42111 0.6115 1.73977 0.86989 2.08428 0.55983 0.12058-0.18087 0.0344-0.31006-0.0861-0.12919-0.85266-0.43063-0.75792-0.31006-1.73978-0.62012-0.98185-0.31006-1.33497-1.02492-0.3359-0.68902-0.0517-1.45555 0.31006-0.82682 1.18856-1.30914 1.0163-0.55121 2.51492-0.45647 1.26607 0.0775 2.52353 0.57705 0.59428 0.32729 0.93018 0.64596l-1.08521 1.70532q-0.49953-0.32728-0.97323-0.4737-1.5503-0.56844-1.63643 0.0344-9e-3 0.16364 0.27561 0.34451 0.29284 0.17225 1.24024 0.43064 0.95601 0.24977 1.55029 0.53399 0.88711 0.43925 1.07659 1.40387 0.1981 0.98185-0.6115 2.01538-0.84405 0.99047-2.91972 0.99908-1.80868 0.0172-4.8662-1.3522z" style="font-feature-settings:normal;font-variant-caps:normal;font-variant-ligatures:normal;font-variant-numeric:normal"/>
   </g>
   <g transform="translate(-726.38163,452.75893)" fill="#1976d2" style="font-feature-settings:normal;font-variant-caps:normal;font-variant-ligatures:normal;font-variant-numeric:normal" aria-label="Viernes">
    <path d="m530.16676 211.92991-2.19625 8.02707-3.41926-7.86343-2.67856 1.06798 4.71117 10.05968h2.93694l3.42787-10.37835z" style="font-feature-settings:normal;font-variant-caps:normal;font-variant-ligatures:normal;font-variant-numeric:normal"/>
    <path d="m534.83486 214.20367q0.86127-0.0258 1.31775-0.52538 0.42202-0.45647 0.38757-1.10243-0.0344-0.63734-0.48231-1.09382-0.48231-0.49954-1.25746-0.51676-0.69763-0.0258-1.16272 0.49093-0.42203 0.4737-0.46509 1.13688-0.0344 0.6804 0.36174 1.12827 0.45647 0.50815 1.30052 0.48231zm1.30914 0.55121-2.72163 9e-3 -0.0344 8.47493 2.79914 0.0689z" style="font-feature-settings:normal;font-variant-caps:normal;font-variant-ligatures:normal;font-variant-numeric:normal"/>
    <path d="m541.47528 216.68414q0.75792-0.13781 1.10243 0.24115 0.17226 0.1981 0.18948 0.41342l-2.32544 0.22393q-0.0344-0.16364 0.0689-0.36174 0.21531-0.37896 0.96462-0.51676zm-0.35312 3.62596q-0.44786-0.24977-0.6115-0.68902-0.0861-0.21532-0.0775-0.38757l5.77915-0.68902q-0.19809-1.16272-0.99047-2.25654-1.60197-2.19625-4.63365-1.91203-1.73116 0.16365-2.73885 1.39527-0.91295 1.10243-0.99908 2.71301-0.0947 1.55891 0.61151 2.85082 0.75792 1.38665 2.11873 1.8259 2.35989 0.77514 4.53891-0.34451 1.09382-0.55983 1.70532-1.26607l-1.85173-1.92926q-0.4048 0.34451-0.96463 0.60289-1.11104 0.52538-1.88619 0.0861z" style="font-feature-settings:normal;font-variant-caps:normal;font-variant-ligatures:normal;font-variant-numeric:normal"/>
    <path d="m549.24397 214.24673-2.75607 0.0689 0.21531 8.83667 2.8336 0.0689-0.11197-3.64319q0.37896-1.83452 2.04983-2.27376 0.83544-0.22394 1.59336-0.0775l9e-3 -3.00585q-2.42018 0.0603-3.79822 1.11105z" style="font-feature-settings:normal;font-variant-caps:normal;font-variant-ligatures:normal;font-variant-numeric:normal"/>
    <path d="m559.01082 214.16922q-1.60197-0.16364-2.71301 0.57705l0.0172-0.58566-2.7044-0.0775-0.21532 9.27592h3.23839l0.0431-3.25561q-0.11197-2.80776 1.30913-2.86805 1.05076-0.0431 1.2144 2.88527 0.0861 1.38665-0.12919 2.85943l3.36758 0.0775q0.24977-2.18763-0.0517-4.31498-0.25838-1.93786-0.96462-3.07475-0.88712-1.4211-2.41157-1.49861z" style="font-feature-settings:normal;font-variant-caps:normal;font-variant-ligatures:normal;font-variant-numeric:normal"/>
    <path d="m567.58911 216.68414q0.75792-0.13781 1.10243 0.24115 0.17225 0.1981 0.18948 0.41342l-2.32544 0.22393q-0.0344-0.16364 0.0689-0.36174 0.21532-0.37896 0.96463-0.51676zm-0.35312 3.62596q-0.44787-0.24977-0.61151-0.68902-0.0861-0.21532-0.0775-0.38757l5.77914-0.68902q-0.19809-1.16272-0.99046-2.25654-1.60197-2.19625-4.63365-1.91203-1.73117 0.16365-2.73886 1.39527-0.91295 1.10243-0.99907 2.71301-0.0947 1.55891 0.6115 2.85082 0.75792 1.38665 2.11874 1.8259 2.35989 0.77514 4.53891-0.34451 1.09382-0.55983 1.70532-1.26607l-1.85174-1.92926q-0.4048 0.34451-0.96462 0.60289-1.11105 0.52538-1.88619 0.0861z" style="font-feature-settings:normal;font-variant-caps:normal;font-variant-ligatures:normal;font-variant-numeric:normal"/>
    <path d="m573.83334 219.61247q0.79237 0.34451 1.4211 0.6115 1.73978 0.86989 2.08429 0.55983 0.12058-0.18087 0.0344-0.31006-0.0861-0.12919-0.85266-0.43063-0.75792-0.31006-1.73978-0.62012-0.98185-0.31006-1.33497-1.02492-0.3359-0.68902-0.0517-1.45555 0.31006-0.82682 1.18856-1.30914 1.0163-0.55121 2.51492-0.45647 1.26607 0.0775 2.52353 0.57705 0.59428 0.32729 0.93018 0.64596l-1.08521 1.70532q-0.49953-0.32728-0.97324-0.4737-1.55029-0.56844-1.63642 0.0344-9e-3 0.16364 0.27561 0.34451 0.29283 0.17225 1.24024 0.43064 0.95601 0.24977 1.55029 0.53399 0.88711 0.43925 1.07659 1.40387 0.19809 0.98186-0.6115 2.01538-0.84405 0.99047-2.91972 0.99908-1.80868 0.0172-4.8662-1.3522z" style="font-feature-settings:normal;font-variant-caps:normal;font-variant-ligatures:normal;font-variant-numeric:normal"/>
   </g>
  </g>
  <g transform="translate(-736.2468,444.35556)" fill="#1a237e" stroke-opacity="0" style="font-feature-settings:normal;font-variant-caps:normal;font-variant-ligatures:normal;font-variant-numeric:normal" aria-label="Lunes ">
   <path d="m588.86243 33.366468v11.2913l8.25101-0.120578v-3.031684l-4.96955 0.241156-0.0689-8.380194z" style="font-feature-settings:normal;font-variant-caps:normal;font-variant-ligatures:normal;font-variant-numeric:normal"/>
   <path d="m602.11744 36.656534q0.21532 1.231621 0.23254 2.428792 0.0344 2.402954-0.79237 2.239312-0.82682-0.163642-0.96463-2.308214-0.0603-1.067979 0.0775-2.187635l-3.06614-0.172255q-0.37896 2.023993-0.0431 4.047987 0.65457 4.047987 4.1944 4.047987 3.53984 0 3.93603-4.220242 0.18948-2.101508-0.31868-4.211629z" style="font-feature-settings:normal;font-variant-caps:normal;font-variant-ligatures:normal;font-variant-numeric:normal"/>
   <path d="m611.73787 35.60578q-1.60197-0.163642-2.71301 0.577053l0.0172-0.585666-2.7044-0.07751-0.21532 9.27592h3.23839l0.0431-3.255615q-0.11197-2.807753 1.30913-2.868042 1.05076-0.04306 1.2144 2.885267 0.0861 1.386651-0.12919 2.85943l3.36758 0.07751q0.24977-2.187635-0.0517-4.314982-0.25838-1.937866-0.96462-3.074748-0.88712-1.421102-2.41157-1.498616z" style="font-feature-settings:normal;font-variant-caps:normal;font-variant-ligatures:normal;font-variant-numeric:normal"/>
   <path d="m620.31615 38.120699q0.75793-0.137803 1.10244 0.241157 0.17225 0.198093 0.18948 0.413412l-2.32544 0.223931q-0.0345-0.163642 0.0689-0.361735 0.21532-0.378961 0.96462-0.516765zm-0.35312 3.625963q-0.44786-0.249769-0.6115-0.689019-0.0861-0.215318-0.0775-0.387573l5.77915-0.689019q-0.19809-1.16272-0.99046-2.256538-1.60197-2.196248-4.63366-1.912028-1.73116 0.163642-2.73885 1.395264-0.91295 1.102431-0.99908 2.713013-0.0947 1.558906 0.61151 2.850816 0.75792 1.386651 2.11873 1.825901 2.35989 0.775147 4.53892-0.344509 1.09381-0.559829 1.70532-1.266073l-1.85174-1.929254q-0.4048 0.34451-0.96463 0.602892-1.11104 0.525377-1.88619 0.08613z" style="font-feature-settings:normal;font-variant-caps:normal;font-variant-ligatures:normal;font-variant-numeric:normal"/>
   <path d="m626.56039 41.049031q0.79238 0.344509 1.42111 0.611504 1.73977 0.869887 2.08428 0.559828 0.12058-0.180867 0.0344-0.310058-0.0861-0.129192-0.85266-0.430637-0.75792-0.310059-1.73978-0.620118-0.98185-0.310058-1.33497-1.024916-0.3359-0.689019-0.0517-1.455552 0.31006-0.826823 1.18856-1.309137 1.0163-0.551215 2.51492-0.456475 1.26607 0.07751 2.52353 0.577054 0.59428 0.327284 0.93018 0.645955l-1.08521 1.705322q-0.49953-0.327284-0.97323-0.4737-1.5503-0.568441-1.63643 0.03445-9e-3 0.163642 0.27561 0.344509 0.29284 0.172255 1.24024 0.430637 0.95601 0.24977 1.55029 0.53399 0.88711 0.43925 1.07659 1.403876 0.1981 0.981853-0.6115 2.015381-0.84405 0.990465-2.91972 0.999078-1.80868 0.01723-4.8662-1.3522z" style="font-feature-settings:normal;font-variant-caps:normal;font-variant-ligatures:normal;font-variant-numeric:normal"/>
  </g>
  <path d="m-188.80726 501.80403 28.91279-1.98323-18.30983 22.77706z" fill="#ff5252"/>
  <g transform="translate(-717.45598,442.94625)" fill="#42a5f5" stroke="#fff" stroke-width=".5291667" style="font-feature-settings:normal;font-variant-caps:normal;font-variant-ligatures:normal;font-variant-numeric:normal" aria-label="Domingo">
   <path d="m496.29005 76.804703q2.42018-0.215318 4.96093 0.335897 2.22209 0.490926 3.53984 1.54168 1.63642 1.309137 1.74839 3.427871 0.2067 3.780992-4.53892 5.236545-2.3685 0.732083-5.12458 0.706244zm3.36758 7.958171q4.09105-0.654568 3.53122-3.023071-1.13688-2.32544-3.78099-1.713935z" style="font-feature-settings:normal;font-variant-caps:normal;font-variant-ligatures:normal;font-variant-numeric:normal"/>
   <path d="m511.1987 84.702585q-0.50815-0.0086-0.76654-0.155029-0.24977-0.137804-0.24977-0.387574 0-0.258382 0.23255-0.422024 0.25838-0.18948 0.70624-0.18948 0.4737 0 0.74931 0.163642 0.27561 0.155029 0.27561 0.404799 0 0.241156-0.27561 0.413411-0.26699 0.180868-0.67179 0.172255zm-0.0603-5.141805q-2.1618 0-3.27284 1.455553-0.93018 1.214396-0.93018 3.091973 0 2.084283 0.97324 3.074748 1.07659 1.093818 3.57429 1.128269 1.77422 0.02584 2.96278-1.309137 1.15411-1.300523 1.15411-3.152262 0-1.868965-1.16272-3.04891-1.22301-1.240234-3.29868-1.240234z" style="font-feature-settings:normal;font-variant-caps:normal;font-variant-ligatures:normal;font-variant-numeric:normal"/>
   <path d="m526.59827 79.112917q-1.84312-0.02584-2.76469 1.403877-0.52537 0.800985-0.65456 1.800062 0.0861-0.835435-0.28422-1.567518-0.3359-1.291911-1.56752-1.636421-0.99908-0.28422-2.26515 0.895725l0.0172-1.033528-3.20394-0.01723 0.0947 9.207018 3.14365-0.08613 0.1292-2.549371q0.33589-3.04891 1.26607-2.997233 0.99046 0.04306 0.89572 2.747463-0.0431 1.3522-0.28422 2.7044l3.20394 0.0086q0.0775-1.438327 0.31867-2.816365 0.23255-2.695788 1.05937-2.463244 0.83543 0.223931 0.79237 2.79914-0.11196 1.343588-0.38757 2.626886l2.99723-0.15503q0.34451-2.204861 0.23255-4.409722-0.10336-1.929253-0.62873-3.040297-0.65457-1.395263-2.11013-1.421102z" style="font-feature-settings:normal;font-variant-caps:normal;font-variant-ligatures:normal;font-variant-numeric:normal"/>
   <path d="m531.26638 79.035403q0.86127-0.02584 1.31775-0.525377 0.42202-0.456476 0.38757-1.102431-0.0345-0.637343-0.48231-1.093818-0.48231-0.499539-1.25746-0.516764-0.69763-0.02584-1.16272 0.490926-0.42202 0.473701-0.46509 1.136882-0.0344 0.680406 0.36174 1.128268 0.45647 0.508152 1.30052 0.482314zm1.30914 0.551215-2.72163 0.0086-0.0344 8.474935 2.79914 0.0689z" style="font-feature-settings:normal;font-variant-caps:normal;font-variant-ligatures:normal;font-variant-numeric:normal"/>
   <path d="m538.80252 79.000952q-1.60197-0.163642-2.71301 0.577053l0.0172-0.585666-2.7044-0.07752-0.21532 9.27592h3.23839l0.0431-3.255615q-0.11196-2.807753 1.30914-2.868042 1.05075-0.04306 1.21439 2.885267 0.0861 1.386651-0.12919 2.85943l3.36758 0.07751q0.24977-2.187635-0.0517-4.314982-0.25838-1.937866-0.96463-3.074748-0.88711-1.421102-2.41157-1.498616z" style="font-feature-settings:normal;font-variant-caps:normal;font-variant-ligatures:normal;font-variant-numeric:normal"/>
   <path d="m547.51 82.385758q0.28423 0.06029 0.49093 0.266995 0.20671 0.198093 0.22393 0.404799 0.0172 0.232544-0.21532 0.370348-0.28422 0.163642-0.86988 0.146416-0.58567 0-0.81821-0.232544-0.21532-0.206706-0.10336-0.490926 0.11197-0.266995 0.45648-0.422024 0.37896-0.155029 0.83543-0.04306zm-4.47862 8.45771q3.96186 2.437405 7.01938 0.766534 1.80868-1.197171 2.18764-4.633654 0.50815-2.816366 0.26699-7.872043l-3.11781-0.129191 9e-3 0.835435q-0.99907-0.775146-2.28237-0.775146-1.8948 0-3.11781 1.231621-1.10243 1.128269-1.17995 2.713013-0.0947 1.610582 0.93018 2.695787 1.14549 1.214397 3.23839 1.16272 1.49-0.02584 2.48908-0.680406 0.12919 0.81821-0.68041 2.006768-0.63734 0.938789-1.8948 0.852661-1.43833-0.103353-2.93694-1.188558z" style="font-feature-settings:normal;font-variant-caps:normal;font-variant-ligatures:normal;font-variant-numeric:normal"/>
   <path d="m557.12182 84.702585q-0.50815-0.0086-0.76653-0.155029-0.24977-0.137804-0.24977-0.387574 0-0.258382 0.23254-0.422024 0.25838-0.18948 0.70625-0.18948 0.4737 0 0.74931 0.163642 0.2756 0.155029 0.2756 0.404799 0 0.241156-0.2756 0.413411-0.267 0.180868-0.6718 0.172255zm-0.0603-5.141805q-2.1618 0-3.27284 1.455553-0.93017 1.214396-0.93017 3.091973 0 2.084283 0.97324 3.074748 1.07659 1.093818 3.57428 1.128269 1.77423 0.02584 2.96278-1.309137 1.15411-1.300523 1.15411-3.152262 0-1.868965-1.16272-3.04891-1.22301-1.240234-3.29868-1.240234z" style="font-feature-settings:normal;font-variant-caps:normal;font-variant-ligatures:normal;font-variant-numeric:normal"/>
  </g>
 </g>
</svg>
