<?xml version="1.0" encoding="UTF-8"?>
<!-- Created with Inkscape (http://www.inkscape.org/) -->
<svg width="1185" height="1185" version="1.1" viewBox="0 0 313.53124 313.53126" xmlns="http://www.w3.org/2000/svg" xmlns:cc="http://creativecommons.org/ns#" xmlns:dc="http://purl.org/dc/elements/1.1/" xmlns:rdf="http://www.w3.org/1999/02/22-rdf-syntax-ns#">
 <metadata>
  <rdf:RDF>
   <cc:Work rdf:about="">
    <dc:format>image/svg+xml</dc:format>
    <dc:type rdf:resource="http://purl.org/dc/dcmitype/StillImage"/>
    <dc:title/>
   </cc:Work>
  </rdf:RDF>
 </metadata>
 <rect y="5.8619776e-14" width="313.53125" height="313.53125" opacity="0" stroke-width="1.1926415"/>
 <path d="m156.64376 52.087697a98.933613 98.933613 0 0 0 -33.81034 6.08749l7.72408 0.66921-4.72271 6.92671a90.72936 90.72936 0 0 1 30.80897 -5.47874 90.72936 90.72936 0 0 1 90.72933 90.729353 90.72936 90.72936 0 0 1 -90.72933 90.72935 90.72936 90.72936 0 0 1 -90.72934 -90.72935 90.72936 90.72936 0 0 1 42.67646 -76.901773l-3.50676-7.39025a98.933613 98.933613 0 0 0 -47.37385 84.292023 98.933613 98.933613 0 0 0 98.93349 98.9335 98.933613 98.933613 0 0 0 98.93297 -98.9335 98.933613 98.933613 0 0 0 -98.93297 -98.934023z" fill="#ff5252"/>
 <g stroke="#fff" stroke-width=".5291667">
  <g transform="translate(-456.90203,5.1147657)" fill="#0d47a1" style="font-feature-settings:normal;font-variant-caps:normal;font-variant-ligatures:normal;font-variant-numeric:normal" aria-label="Martes">
   <path d="m660.20104 77.49603-3.64319 0.06029-0.27561 11.119046h3.52261l0.16364-7.372504 2.68718 4.358045 2.62688-3.970472-0.1378 7.036607 3.60012 0.06029 0.27561-11.153497-3.66041-0.05168-2.59244 4.185791z" style="font-feature-settings:normal;font-variant-caps:normal;font-variant-ligatures:normal;font-variant-numeric:normal"/>
   <path d="m672.96512 86.634146q-0.29284-0.04306-0.48232-0.172255-0.18087-0.129191-0.19809-0.275608-9e-3 -0.155029 0.16364-0.241156 0.19809-0.09474 0.57705-0.0689 0.267 0.02584 0.42203 0.155029 0.1378 0.129191 0.12919 0.284221-9e-3 0.163642-0.16364 0.249769-0.16364 0.103353-0.44786 0.0689zm2.3685-6.020305q-2.25654-0.396186-3.86712-0.163642-0.8096 0.120579-1.16272 0.318672l0.49954 2.506307q0.96462-0.266995 2.0326-0.241157 2.13596 0.05168 2.6355 1.550293-0.80959-0.482313-1.85174-0.732083-2.1015-0.499539-3.30729 0.671794-0.71486 0.697632-0.88711 1.576131-0.17225 0.869887 0.24116 1.584744 0.43925 0.766534 1.38665 1.102431 1.05936 0.370347 2.54937 0.120578 1.21439-0.215319 1.93786-1.188558l-0.14641 1.033529h2.93694q0.52538-1.808676 0.41341-3.729316-0.0947-1.679484-0.79237-2.756077-0.86127-1.343587-2.61827-1.653646z" style="font-feature-settings:normal;font-variant-caps:normal;font-variant-ligatures:normal;font-variant-numeric:normal"/>
   <path d="m681.8793 79.812857-2.75608 0.0689 0.21532 8.83667 2.83359 0.0689-0.11196-3.643189q0.37896-1.834513 2.04983-2.273763 0.83544-0.223931 1.59336-0.07752l9e-3 -3.005846q-2.42018 0.06029-3.79822 1.111044z" style="font-feature-settings:normal;font-variant-caps:normal;font-variant-ligatures:normal;font-variant-numeric:normal"/>
   <path d="m688.76088 76.824236-0.0861 2.781915-2.31683-0.129191-0.15502 2.764689 2.37711 0.111966-0.11196 6.545681 2.92833 0.15503 0.0861-6.580133 2.24793 0.01722 0.0603-2.781914-2.23931-0.04306 0.0603-2.678562z" style="font-feature-settings:normal;font-variant-caps:normal;font-variant-ligatures:normal;font-variant-numeric:normal"/>
   <path d="m698.81194 82.250262q0.75792-0.137804 1.10243 0.241156 0.17226 0.198093 0.18948 0.413412l-2.32544 0.223931q-0.0344-0.163642 0.0689-0.361735 0.21531-0.37896 0.96462-0.516764zm-0.35312 3.625963q-0.44786-0.24977-0.6115-0.689019-0.0861-0.215319-0.0775-0.387573l5.77915-0.68902q-0.19809-1.162719-0.99047-2.256537-1.60196-2.196249-4.63365-1.912028-1.73116 0.163642-2.73885 1.395263-0.91295 1.102431-0.99908 2.713013-0.0947 1.558906 0.61151 2.850817 0.75792 1.386651 2.11873 1.8259 2.35989 0.775147 4.53891-0.344509 1.09382-0.559828 1.70533-1.266073l-1.85174-1.929253q-0.4048 0.344509-0.96463 0.602891-1.11104 0.525378-1.88619 0.08613z" style="font-feature-settings:normal;font-variant-caps:normal;font-variant-ligatures:normal;font-variant-numeric:normal"/>
   <path d="m705.05618 85.178593q0.79237 0.34451 1.4211 0.611504 1.73978 0.869887 2.08429 0.559829 0.12058-0.180868 0.0344-0.310059-0.0861-0.129191-0.85266-0.430637-0.75792-0.310059-1.73978-0.620117-0.98185-0.310059-1.33497-1.024916-0.3359-0.689019-0.0517-1.455553 0.31006-0.826823 1.18856-1.309136 1.0163-0.551216 2.51492-0.456476 1.26607 0.07752 2.52353 0.577054 0.59428 0.327284 0.93018 0.645955l-1.08521 1.705323q-0.49954-0.327284-0.97324-0.473701-1.55029-0.568441-1.63642 0.03445-9e-3 0.163642 0.27561 0.34451 0.29283 0.172254 1.24024 0.430637 0.95601 0.249769 1.55029 0.533989 0.88711 0.43925 1.07659 1.403877 0.19809 0.981852-0.6115 2.015381-0.84405 0.990465-2.91972 0.999077-1.80868 0.01723-4.8662-1.3522z" style="font-feature-settings:normal;font-variant-caps:normal;font-variant-ligatures:normal;font-variant-numeric:normal"/>
  </g>
  <g transform="translate(-476.63237,17.798566)" fill="#1565c0" style="font-feature-settings:normal;font-variant-caps:normal;font-variant-ligatures:normal;font-variant-numeric:normal" aria-label="Miércoles">
   <path d="m677.86638 148.51496-3.64319 0.0603-0.27561 11.11904h3.52261l0.16365-7.3725 2.68717 4.35804 2.62689-3.97047-0.13781 7.03661 3.60013 0.0603 0.27561-11.1535-3.66042-0.0517-2.59243 4.18579z" style="font-feature-settings:normal;font-variant-caps:normal;font-variant-ligatures:normal;font-variant-numeric:normal"/>
   <path d="m688.61508 150.78872q0.86127-0.0258 1.31775-0.52538 0.42202-0.45647 0.38757-1.10243-0.0344-0.63734-0.48231-1.09381-0.48232-0.49954-1.25746-0.51677-0.69763-0.0258-1.16272 0.49093-0.42203 0.4737-0.46509 1.13688-0.0344 0.68041 0.36174 1.12827 0.45647 0.50815 1.30052 0.48231zm1.30914 0.55122-2.72163 9e-3 -0.0344 8.47493 2.79914 0.0689z" style="font-feature-settings:normal;font-variant-caps:normal;font-variant-ligatures:normal;font-variant-numeric:normal"/>
   <path d="m695.2555 153.26919q0.75792-0.1378 1.10243 0.24116 0.17226 0.19809 0.18948 0.41341l-2.32544 0.22393q-0.0345-0.16364 0.0689-0.36174 0.21532-0.37896 0.96463-0.51676zm-0.35312 3.62596q-0.44786-0.24977-0.61151-0.68902-0.0861-0.21531-0.0775-0.38757l5.77915-0.68902q-0.1981-1.16272-0.99047-2.25654-1.60197-2.19624-4.63365-1.91202-1.73116 0.16364-2.73885 1.39526-0.91295 1.10243-0.99908 2.71301-0.0947 1.55891 0.6115 2.85082 0.75793 1.38665 2.11874 1.8259 2.35989 0.77515 4.53891-0.34451 1.09382-0.55983 1.70532-1.26607l-1.85173-1.92926q-0.4048 0.34451-0.96463 0.6029-1.11104 0.52537-1.88619 0.0861zm0.79237-9.70655-2.73885 2.83359 0.79237 0.83543 3.247-2.09289z" style="font-feature-settings:normal;font-variant-caps:normal;font-variant-ligatures:normal;font-variant-numeric:normal"/>
   <path d="m703.02419 150.83179-2.75608 0.0689 0.21532 8.83667 2.83359 0.0689-0.11196-3.64319q0.37896-1.83451 2.04983-2.27376 0.83544-0.22393 1.59336-0.0775l9e-3 -3.00584q-2.42018 0.0603-3.79822 1.11104z" style="font-feature-settings:normal;font-variant-caps:normal;font-variant-ligatures:normal;font-variant-numeric:normal"/>
   <path d="m713.17861 154.68168q-0.31006-0.31006-0.74069-0.4737-0.85267-0.32729-1.41249 0.39618-0.31867 0.42203-0.20671 0.86128 0.0861 0.4048 0.49093 0.68041 0.41341 0.26699 0.93879 0.25838 0.57705-0.0258 1.07659-0.4048l2.15318 1.6881q-0.6115 0.91295-1.72255 1.52445-2.23069 1.2144-4.737-0.28422-1.31775-0.79237-1.58475-2.6355-0.24976-1.77422 0.6029-3.32452 0.91295-1.68809 2.63549-2.0326 2.00677-0.38758 4.51308 1.2833z" style="font-feature-settings:normal;font-variant-caps:normal;font-variant-ligatures:normal;font-variant-numeric:normal"/>
   <path d="m720.05158 156.4559q-0.50815-9e-3 -0.76654-0.15503-0.24977-0.1378-0.24977-0.38757 0-0.25838 0.23255-0.42202 0.25838-0.18948 0.70624-0.18948 0.4737 0 0.74931 0.16364 0.27561 0.15503 0.27561 0.4048 0 0.24115-0.27561 0.41341-0.26699 0.18087-0.67179 0.17225zm-0.0603-5.1418q-2.1618 0-3.27284 1.45555-0.93018 1.2144-0.93018 3.09197 0 2.08429 0.97324 3.07475 1.07659 1.09382 3.57429 1.12827 1.77422 0.0258 2.96278-1.30913 1.15411-1.30053 1.15411-3.15227 0-1.86896-1.16272-3.04891-1.22301-1.24023-3.29868-1.24023z" style="font-feature-settings:normal;font-variant-caps:normal;font-variant-ligatures:normal;font-variant-numeric:normal"/>
   <path d="m724.64217 148.35993v11.41188h3.53983l0.15503-11.56691z" style="font-feature-settings:normal;font-variant-caps:normal;font-variant-ligatures:normal;font-variant-numeric:normal"/>
   <path d="m733.22046 153.26919q0.75792-0.1378 1.10243 0.24116 0.17225 0.19809 0.18948 0.41341l-2.32544 0.22393q-0.0344-0.16364 0.0689-0.36174 0.21532-0.37896 0.96463-0.51676zm-0.35313 3.62596q-0.44786-0.24977-0.6115-0.68902-0.0861-0.21531-0.0775-0.38757l5.77915-0.68902q-0.19809-1.16272-0.99046-2.25654-1.60197-2.19624-4.63366-1.91202-1.73116 0.16364-2.73885 1.39526-0.91295 1.10243-0.99908 2.71301-0.0947 1.55891 0.61151 2.85082 0.75792 1.38665 2.11873 1.8259 2.35989 0.77515 4.53892-0.34451 1.09381-0.55983 1.70532-1.26607l-1.85174-1.92926q-0.4048 0.34451-0.96463 0.6029-1.11104 0.52537-1.88619 0.0861z" style="font-feature-settings:normal;font-variant-caps:normal;font-variant-ligatures:normal;font-variant-numeric:normal"/>
   <path d="m739.46469 156.19752q0.79237 0.34451 1.4211 0.61151 1.73978 0.86988 2.08429 0.55982 0.12057-0.18086 0.0344-0.31005-0.0861-0.1292-0.85267-0.43064-0.75792-0.31006-1.73977-0.62012t-1.33497-1.02491q-0.3359-0.68902-0.0517-1.45556 0.31006-0.82682 1.18856-1.30913 1.0163-0.55122 2.51492-0.45648 1.26607 0.0775 2.52353 0.57705 0.59428 0.32729 0.93018 0.64596l-1.08521 1.70532q-0.49954-0.32728-0.97324-0.4737-1.55029-0.56844-1.63642 0.0344-9e-3 0.16364 0.27561 0.34451 0.29283 0.17226 1.24023 0.43064 0.95602 0.24977 1.5503 0.53399 0.88711 0.43925 1.07659 1.40388 0.19809 0.98185-0.61151 2.01538-0.84404 0.99046-2.91971 0.99907-1.80868 0.0172-4.8662-1.3522z" style="font-feature-settings:normal;font-variant-caps:normal;font-variant-ligatures:normal;font-variant-numeric:normal"/>
  </g>
  <g transform="translate(-435.29259,17.798566)" fill="#2196f3" style="font-feature-settings:normal;font-variant-caps:normal;font-variant-ligatures:normal;font-variant-numeric:normal" aria-label="Sábado">
   <path d="m479.4848 156.51958q1.66226 0.28422 3.33313 0.36174 3.34174 0.14641 3.3762-0.90434 0.0172-0.52538-0.98186-0.73209-0.30144-0.0689-2.23931-0.24976-1.57613-0.14642-2.38573-0.45648-1.14549-0.43925-1.36942-1.36943-0.34451-1.48139-0.11197-2.42879 0.22393-0.93879 1.05937-1.45555 1.49-0.93018 5.82221-0.72347 2.11012 0.10335 3.0403 0.27561l-0.0517 2.81636q-1.65365-0.2756-3.34174-0.39618-3.35036-0.24116-3.41926 0.49954-0.0603 0.71485 1.45555 0.90433 0.4737 0.0603 1.30053 0.0861 0.92156 0.0258 1.11104 0.0431 2.00677 0.16365 2.95417 1.66226 0.44786 0.72347 0.46509 1.57613 0.0172 0.92157-0.4737 1.84313-1.02492 1.9637-5.46909 1.93787-2.22209-0.0172-4.23747-0.42203z" style="font-feature-settings:normal;font-variant-caps:normal;font-variant-ligatures:normal;font-variant-numeric:normal"/>
   <path d="m493.61831 157.65646q-0.29284-0.0431-0.48232-0.17225-0.18086-0.12919-0.19809-0.27561-9e-3 -0.15503 0.16364-0.24116 0.1981-0.0947 0.57706-0.0689 0.26699 0.0258 0.42202 0.15503 0.1378 0.12919 0.12919 0.28422-9e-3 0.16364-0.16364 0.24977-0.16364 0.10335-0.44786 0.0689zm2.3685-6.0203q-2.25654-0.39619-3.86712-0.16364-0.8096 0.12057-1.16272 0.31867l0.49954 2.5063q0.96463-0.26699 2.03261-0.24115 2.13596 0.0517 2.63549 1.55029-0.80959-0.48231-1.85173-0.73208-2.10151-0.49954-3.3073 0.67179-0.71485 0.69763-0.88711 1.57613-0.17225 0.86989 0.24116 1.58475 0.43925 0.76653 1.38665 1.10243 1.05937 0.37034 2.54937 0.12057 1.2144-0.21531 1.93787-1.18855l-0.14642 1.03353h2.93694q0.52538-1.80868 0.41342-3.72932-0.0948-1.67948-0.79238-2.75608-0.86127-1.34358-2.61827-1.65364zm-0.0431-4.44418-2.73885 2.8336 0.79237 0.83543 3.247-2.09289z" style="font-feature-settings:normal;font-variant-caps:normal;font-variant-ligatures:normal;font-variant-numeric:normal"/>
   <path d="m505.18522 156.38178q-0.43064-0.0861-0.59428-0.28422-0.14642-0.17226-0.0689-0.37896 0.0775-0.18948 0.30145-0.32729 0.24116-0.1378 0.49954-0.1378 0.57705 0.0172 0.83543 0.22393 0.23255 0.18948 0.16365 0.43925-0.0775 0.25838-0.37035 0.39618-0.3359 0.15503-0.76653 0.0689zm3.42787-3.66042q-1.58475-1.30052-3.53123-0.89572-0.98185 0.19809-1.66226 0.65457v-4.26331l-3.55706 0.16364v11.30853l3.25562 0.0947v-1.23162q0.17225 0.31006 0.49954 0.80098 0.80959 0.48231 1.97231 0.57705 1.46417 0.1292 2.53215-0.70624 1.04214-0.68041 1.62781-1.99816 0.4048-1.25745 0.15503-2.48908-0.41342-1.30913-1.29191-2.01538z" style="font-feature-settings:normal;font-variant-caps:normal;font-variant-ligatures:normal;font-variant-numeric:normal"/>
   <path d="m514.04772 157.65646q-0.29283-0.0431-0.48231-0.17225-0.18087-0.12919-0.19809-0.27561-9e-3 -0.15503 0.16364-0.24116 0.19809-0.0947 0.57705-0.0689 0.267 0.0258 0.42203 0.15503 0.1378 0.12919 0.12919 0.28422-9e-3 0.16364-0.16364 0.24977-0.16365 0.10335-0.44787 0.0689zm2.36851-6.0203q-2.25654-0.39619-3.86712-0.16364-0.8096 0.12057-1.16272 0.31867l0.49954 2.5063q0.96462-0.26699 2.0326-0.24115 2.13596 0.0517 2.6355 1.55029-0.8096-0.48231-1.85174-0.73208-2.10151-0.49954-3.30729 0.67179-0.71486 0.69763-0.88711 1.57613-0.17226 0.86989 0.24115 1.58475 0.43925 0.76653 1.38666 1.10243 1.05936 0.37034 2.54937 0.12057 1.21439-0.21531 1.93786-1.18855l-0.14641 1.03353h2.93694q0.52538-1.80868 0.41341-3.72932-0.0947-1.67948-0.79237-2.75608-0.86127-1.34358-2.61827-1.65364z" style="font-feature-settings:normal;font-variant-caps:normal;font-variant-ligatures:normal;font-variant-numeric:normal"/>
   <path d="m525.08064 156.45929q-0.4048 0.0947-0.73208-0.0603-0.27561-0.1378-0.35312-0.37896-0.0603-0.25838 0.15503-0.43925 0.25838-0.19809 0.80098-0.21532 0.24977 0 0.4737 0.12919 0.22393 0.13781 0.29283 0.32729 0.0775 0.19809-0.0689 0.37035-0.15503 0.18948-0.56844 0.26699zm-3.40203-3.59151q-0.8785 0.67179-1.30052 1.92064-0.24116 1.18856 0.16364 2.38573 0.58566 1.26607 1.54168 1.98954 1.0852 0.8096 2.54076 0.68041 1.17133-0.0947 1.78283-0.55983 0.61151-0.46509 0.78376-0.75792v1.34359l3.1781 0.17225-0.0775-11.51523-3.48816-0.18087v4.36666q-0.68041-0.43064-1.66226-0.62873-1.9637-0.38757-3.46232 0.78376z" style="font-feature-settings:normal;font-variant-caps:normal;font-variant-ligatures:normal;font-variant-numeric:normal"/>
   <path d="m535.02836 156.45929q-0.50815-9e-3 -0.76654-0.15503-0.24977-0.1378-0.24977-0.38757 0-0.25838 0.23255-0.42203 0.25838-0.18948 0.70624-0.18948 0.4737 0 0.74931 0.16365 0.27561 0.15503 0.27561 0.40479 0 0.24116-0.27561 0.41342-0.26699 0.18086-0.67179 0.17225zm-0.0603-5.1418q-2.1618 0-3.27284 1.45555-0.93018 1.2144-0.93018 3.09197 0 2.08428 0.97324 3.07475 1.07659 1.09382 3.57429 1.12827 1.77422 0.0258 2.96278-1.30914 1.15411-1.30052 1.15411-3.15226 0-1.86896-1.16272-3.04891-1.22301-1.24023-3.29868-1.24023z" style="font-feature-settings:normal;font-variant-caps:normal;font-variant-ligatures:normal;font-variant-numeric:normal"/>
  </g>
  <g transform="translate(-433.88327,5.1147657)" fill="#42a5f5" style="font-feature-settings:normal;font-variant-caps:normal;font-variant-ligatures:normal;font-variant-numeric:normal" aria-label="Domingo">
   <path d="m496.29005 76.804703q2.42018-0.215318 4.96093 0.335897 2.22209 0.490926 3.53984 1.54168 1.63642 1.309137 1.74839 3.427871 0.2067 3.780992-4.53892 5.236545-2.3685 0.732083-5.12458 0.706244zm3.36758 7.958171q4.09105-0.654568 3.53122-3.023071-1.13688-2.32544-3.78099-1.713935z" style="font-feature-settings:normal;font-variant-caps:normal;font-variant-ligatures:normal;font-variant-numeric:normal"/>
   <path d="m511.1987 84.702585q-0.50815-0.0086-0.76654-0.155029-0.24977-0.137804-0.24977-0.387574 0-0.258382 0.23255-0.422024 0.25838-0.18948 0.70624-0.18948 0.4737 0 0.74931 0.163642 0.27561 0.155029 0.27561 0.404799 0 0.241156-0.27561 0.413411-0.26699 0.180868-0.67179 0.172255zm-0.0603-5.141805q-2.1618 0-3.27284 1.455553-0.93018 1.214396-0.93018 3.091973 0 2.084283 0.97324 3.074748 1.07659 1.093818 3.57429 1.128269 1.77422 0.02584 2.96278-1.309137 1.15411-1.300523 1.15411-3.152262 0-1.868965-1.16272-3.04891-1.22301-1.240234-3.29868-1.240234z" style="font-feature-settings:normal;font-variant-caps:normal;font-variant-ligatures:normal;font-variant-numeric:normal"/>
   <path d="m526.59827 79.112917q-1.84312-0.02584-2.76469 1.403877-0.52537 0.800985-0.65456 1.800062 0.0861-0.835435-0.28422-1.567518-0.3359-1.291911-1.56752-1.636421-0.99908-0.28422-2.26515 0.895725l0.0172-1.033528-3.20394-0.01723 0.0947 9.207018 3.14365-0.08613 0.1292-2.549371q0.33589-3.04891 1.26607-2.997233 0.99046 0.04306 0.89572 2.747463-0.0431 1.3522-0.28422 2.7044l3.20394 0.0086q0.0775-1.438327 0.31867-2.816365 0.23255-2.695788 1.05937-2.463244 0.83543 0.223931 0.79237 2.79914-0.11196 1.343588-0.38757 2.626886l2.99723-0.15503q0.34451-2.204861 0.23255-4.409722-0.10336-1.929253-0.62873-3.040297-0.65457-1.395263-2.11013-1.421102z" style="font-feature-settings:normal;font-variant-caps:normal;font-variant-ligatures:normal;font-variant-numeric:normal"/>
   <path d="m531.26638 79.035403q0.86127-0.02584 1.31775-0.525377 0.42202-0.456476 0.38757-1.102431-0.0345-0.637343-0.48231-1.093818-0.48231-0.499539-1.25746-0.516764-0.69763-0.02584-1.16272 0.490926-0.42202 0.473701-0.46509 1.136882-0.0344 0.680406 0.36174 1.128268 0.45647 0.508152 1.30052 0.482314zm1.30914 0.551215-2.72163 0.0086-0.0344 8.474935 2.79914 0.0689z" style="font-feature-settings:normal;font-variant-caps:normal;font-variant-ligatures:normal;font-variant-numeric:normal"/>
   <path d="m538.80252 79.000952q-1.60197-0.163642-2.71301 0.577053l0.0172-0.585666-2.7044-0.07752-0.21532 9.27592h3.23839l0.0431-3.255615q-0.11196-2.807753 1.30914-2.868042 1.05075-0.04306 1.21439 2.885267 0.0861 1.386651-0.12919 2.85943l3.36758 0.07751q0.24977-2.187635-0.0517-4.314982-0.25838-1.937866-0.96463-3.074748-0.88711-1.421102-2.41157-1.498616z" style="font-feature-settings:normal;font-variant-caps:normal;font-variant-ligatures:normal;font-variant-numeric:normal"/>
   <path d="m547.51 82.385758q0.28423 0.06029 0.49093 0.266995 0.20671 0.198093 0.22393 0.404799 0.0172 0.232544-0.21532 0.370348-0.28422 0.163642-0.86988 0.146416-0.58567 0-0.81821-0.232544-0.21532-0.206706-0.10336-0.490926 0.11197-0.266995 0.45648-0.422024 0.37896-0.155029 0.83543-0.04306zm-4.47862 8.45771q3.96186 2.437405 7.01938 0.766534 1.80868-1.197171 2.18764-4.633654 0.50815-2.816366 0.26699-7.872043l-3.11781-0.129191 9e-3 0.835435q-0.99907-0.775146-2.28237-0.775146-1.8948 0-3.11781 1.231621-1.10243 1.128269-1.17995 2.713013-0.0947 1.610582 0.93018 2.695787 1.14549 1.214397 3.23839 1.16272 1.49-0.02584 2.48908-0.680406 0.12919 0.81821-0.68041 2.006768-0.63734 0.938789-1.8948 0.852661-1.43833-0.103353-2.93694-1.188558z" style="font-feature-settings:normal;font-variant-caps:normal;font-variant-ligatures:normal;font-variant-numeric:normal"/>
   <path d="m557.12182 84.702585q-0.50815-0.0086-0.76653-0.155029-0.24977-0.137804-0.24977-0.387574 0-0.258382 0.23254-0.422024 0.25838-0.18948 0.70625-0.18948 0.4737 0 0.74931 0.163642 0.2756 0.155029 0.2756 0.404799 0 0.241156-0.2756 0.413411-0.267 0.180868-0.6718 0.172255zm-0.0603-5.141805q-2.1618 0-3.27284 1.455553-0.93017 1.214396-0.93017 3.091973 0 2.084283 0.97324 3.074748 1.07659 1.093818 3.57428 1.128269 1.77423 0.02584 2.96278-1.309137 1.15411-1.300523 1.15411-3.152262 0-1.868965-1.16272-3.04891-1.22301-1.240234-3.29868-1.240234z" style="font-feature-settings:normal;font-variant-caps:normal;font-variant-ligatures:normal;font-variant-numeric:normal"/>
  </g>
  <g transform="translate(-469.58582,16.859025)" fill="#1976d2" style="font-feature-settings:normal;font-variant-caps:normal;font-variant-ligatures:normal;font-variant-numeric:normal" aria-label="Jueves">
   <path d="m644.25496 216.52735q0.29283 0.83543 0.57705 1.14549 0.55983 0.62873 1.17995 0.18087 0.99046-0.56844 0.21531-8.30268l3.53984-0.0344q0.32728 2.86804 0.0258 5.71024-0.24977 2.48047-1.0163 3.88435-0.94741 1.74838-2.64412 1.69671-2.32543-0.0775-3.58289-1.65365-0.62012-0.79237-0.78376-1.91203z" style="font-feature-settings:normal;font-variant-caps:normal;font-variant-ligatures:normal;font-variant-numeric:normal"/>
   <path d="m655.08978 212.80664q0.21532 1.23162 0.23255 2.42879 0.0344 2.40296-0.79237 2.23932-0.82683-0.16365-0.96463-2.30822-0.0603-1.06798 0.0775-2.18763l-3.06613-0.17226q-0.37896 2.024-0.0431 4.04799 0.65457 4.04799 4.19441 4.04799 3.53983 0 3.93602-4.22025 0.18948-2.1015-0.31867-4.21162z" style="font-feature-settings:normal;font-variant-caps:normal;font-variant-ligatures:normal;font-variant-numeric:normal"/>
   <path d="m663.81449 214.27081q0.75792-0.13781 1.10243 0.24115 0.17225 0.1981 0.18948 0.41342l-2.32544 0.22393q-0.0345-0.16364 0.0689-0.36174 0.21532-0.37896 0.96463-0.51676zm-0.35312 3.62596q-0.44787-0.24977-0.61151-0.68902-0.0861-0.21532-0.0775-0.38757l5.77914-0.68902q-0.19809-1.16272-0.99046-2.25654-1.60197-2.19625-4.63365-1.91203-1.73117 0.16365-2.73886 1.39527-0.91295 1.10243-0.99907 2.71301-0.0947 1.55891 0.6115 2.85082 0.75792 1.38665 2.11874 1.8259 2.35989 0.77514 4.53891-0.34451 1.09382-0.55983 1.70532-1.26607l-1.85174-1.92926q-0.4048 0.34451-0.96462 0.60289-1.11105 0.52538-1.88619 0.0861z" style="font-feature-settings:normal;font-variant-caps:normal;font-variant-ligatures:normal;font-variant-numeric:normal"/>
   <path d="m673.86555 217.81064-2.06705-5.52076-2.9714 0.65457 3.28145 7.78591 3.33313 0.19809 2.95417-8.89695-2.88526-0.73209z" style="font-feature-settings:normal;font-variant-caps:normal;font-variant-ligatures:normal;font-variant-numeric:normal"/>
   <path d="m683.31373 214.27081q0.75792-0.13781 1.10243 0.24115 0.17225 0.1981 0.18948 0.41342l-2.32544 0.22393q-0.0344-0.16364 0.0689-0.36174 0.21532-0.37896 0.96463-0.51676zm-0.35312 3.62596q-0.44787-0.24977-0.61151-0.68902-0.0861-0.21532-0.0775-0.38757l5.77914-0.68902q-0.19809-1.16272-0.99046-2.25654-1.60197-2.19625-4.63365-1.91203-1.73116 0.16365-2.73885 1.39527-0.91295 1.10243-0.99908 2.71301-0.0947 1.55891 0.6115 2.85082 0.75792 1.38665 2.11874 1.8259 2.35989 0.77514 4.53891-0.34451 1.09382-0.55983 1.70532-1.26607l-1.85174-1.92926q-0.4048 0.34451-0.96462 0.60289-1.11105 0.52538-1.88619 0.0861z" style="font-feature-settings:normal;font-variant-caps:normal;font-variant-ligatures:normal;font-variant-numeric:normal"/>
   <path d="m689.55796 217.19914q0.79238 0.34451 1.42111 0.6115 1.73977 0.86989 2.08428 0.55983 0.12058-0.18087 0.0344-0.31006-0.0861-0.12919-0.85266-0.43063-0.75792-0.31006-1.73978-0.62012-0.98185-0.31006-1.33497-1.02492-0.3359-0.68902-0.0517-1.45555 0.31006-0.82682 1.18856-1.30914 1.0163-0.55121 2.51492-0.45647 1.26607 0.0775 2.52353 0.57705 0.59428 0.32729 0.93018 0.64596l-1.08521 1.70532q-0.49953-0.32728-0.97323-0.4737-1.5503-0.56844-1.63643 0.0344-9e-3 0.16364 0.27561 0.34451 0.29284 0.17225 1.24024 0.43064 0.95601 0.24977 1.55029 0.53399 0.88711 0.43925 1.07659 1.40387 0.1981 0.98185-0.6115 2.01538-0.84405 0.99047-2.91972 0.99908-1.80868 0.0172-4.8662-1.3522z" style="font-feature-settings:normal;font-variant-caps:normal;font-variant-ligatures:normal;font-variant-numeric:normal"/>
  </g>
  <g transform="translate(-442.80892,14.927447)" fill="#1976d2" style="font-feature-settings:normal;font-variant-caps:normal;font-variant-ligatures:normal;font-variant-numeric:normal" aria-label="Viernes">
   <path d="m530.16676 211.92991-2.19625 8.02707-3.41926-7.86343-2.67856 1.06798 4.71117 10.05968h2.93694l3.42787-10.37835z" style="font-feature-settings:normal;font-variant-caps:normal;font-variant-ligatures:normal;font-variant-numeric:normal"/>
   <path d="m534.83486 214.20367q0.86127-0.0258 1.31775-0.52538 0.42202-0.45647 0.38757-1.10243-0.0344-0.63734-0.48231-1.09382-0.48231-0.49954-1.25746-0.51676-0.69763-0.0258-1.16272 0.49093-0.42203 0.4737-0.46509 1.13688-0.0344 0.6804 0.36174 1.12827 0.45647 0.50815 1.30052 0.48231zm1.30914 0.55121-2.72163 9e-3 -0.0344 8.47493 2.79914 0.0689z" style="font-feature-settings:normal;font-variant-caps:normal;font-variant-ligatures:normal;font-variant-numeric:normal"/>
   <path d="m541.47528 216.68414q0.75792-0.13781 1.10243 0.24115 0.17226 0.1981 0.18948 0.41342l-2.32544 0.22393q-0.0344-0.16364 0.0689-0.36174 0.21531-0.37896 0.96462-0.51676zm-0.35312 3.62596q-0.44786-0.24977-0.6115-0.68902-0.0861-0.21532-0.0775-0.38757l5.77915-0.68902q-0.19809-1.16272-0.99047-2.25654-1.60197-2.19625-4.63365-1.91203-1.73116 0.16365-2.73885 1.39527-0.91295 1.10243-0.99908 2.71301-0.0947 1.55891 0.61151 2.85082 0.75792 1.38665 2.11873 1.8259 2.35989 0.77514 4.53891-0.34451 1.09382-0.55983 1.70532-1.26607l-1.85173-1.92926q-0.4048 0.34451-0.96463 0.60289-1.11104 0.52538-1.88619 0.0861z" style="font-feature-settings:normal;font-variant-caps:normal;font-variant-ligatures:normal;font-variant-numeric:normal"/>
   <path d="m549.24397 214.24673-2.75607 0.0689 0.21531 8.83667 2.8336 0.0689-0.11197-3.64319q0.37896-1.83452 2.04983-2.27376 0.83544-0.22394 1.59336-0.0775l9e-3 -3.00585q-2.42018 0.0603-3.79822 1.11105z" style="font-feature-settings:normal;font-variant-caps:normal;font-variant-ligatures:normal;font-variant-numeric:normal"/>
   <path d="m559.01082 214.16922q-1.60197-0.16364-2.71301 0.57705l0.0172-0.58566-2.7044-0.0775-0.21532 9.27592h3.23839l0.0431-3.25561q-0.11197-2.80776 1.30913-2.86805 1.05076-0.0431 1.2144 2.88527 0.0861 1.38665-0.12919 2.85943l3.36758 0.0775q0.24977-2.18763-0.0517-4.31498-0.25838-1.93786-0.96462-3.07475-0.88712-1.4211-2.41157-1.49861z" style="font-feature-settings:normal;font-variant-caps:normal;font-variant-ligatures:normal;font-variant-numeric:normal"/>
   <path d="m567.58911 216.68414q0.75792-0.13781 1.10243 0.24115 0.17225 0.1981 0.18948 0.41342l-2.32544 0.22393q-0.0344-0.16364 0.0689-0.36174 0.21532-0.37896 0.96463-0.51676zm-0.35312 3.62596q-0.44787-0.24977-0.61151-0.68902-0.0861-0.21532-0.0775-0.38757l5.77914-0.68902q-0.19809-1.16272-0.99046-2.25654-1.60197-2.19625-4.63365-1.91203-1.73117 0.16365-2.73886 1.39527-0.91295 1.10243-0.99907 2.71301-0.0947 1.55891 0.6115 2.85082 0.75792 1.38665 2.11874 1.8259 2.35989 0.77514 4.53891-0.34451 1.09382-0.55983 1.70532-1.26607l-1.85174-1.92926q-0.4048 0.34451-0.96462 0.60289-1.11105 0.52538-1.88619 0.0861z" style="font-feature-settings:normal;font-variant-caps:normal;font-variant-ligatures:normal;font-variant-numeric:normal"/>
   <path d="m573.83334 219.61247q0.79237 0.34451 1.4211 0.6115 1.73978 0.86989 2.08429 0.55983 0.12058-0.18087 0.0344-0.31006-0.0861-0.12919-0.85266-0.43063-0.75792-0.31006-1.73978-0.62012-0.98185-0.31006-1.33497-1.02492-0.3359-0.68902-0.0517-1.45555 0.31006-0.82682 1.18856-1.30914 1.0163-0.55121 2.51492-0.45647 1.26607 0.0775 2.52353 0.57705 0.59428 0.32729 0.93018 0.64596l-1.08521 1.70532q-0.49953-0.32728-0.97324-0.4737-1.55029-0.56844-1.63642 0.0344-9e-3 0.16364 0.27561 0.34451 0.29283 0.17225 1.24024 0.43064 0.95601 0.24977 1.55029 0.53399 0.88711 0.43925 1.07659 1.40387 0.19809 0.98186-0.6115 2.01538-0.84405 0.99047-2.91972 0.99908-1.80868 0.0172-4.8662-1.3522z" style="font-feature-settings:normal;font-variant-caps:normal;font-variant-ligatures:normal;font-variant-numeric:normal"/>
  </g>
 </g>
 <g transform="translate(-452.67409,6.5240767)" fill="#1a237e" stroke-opacity="0" style="font-feature-settings:normal;font-variant-caps:normal;font-variant-ligatures:normal;font-variant-numeric:normal" aria-label="Lunes ">
  <path d="m588.86243 33.366468v11.2913l8.25101-0.120578v-3.031684l-4.96955 0.241156-0.0689-8.380194z" style="font-feature-settings:normal;font-variant-caps:normal;font-variant-ligatures:normal;font-variant-numeric:normal"/>
  <path d="m602.11744 36.656534q0.21532 1.231621 0.23254 2.428792 0.0344 2.402954-0.79237 2.239312-0.82682-0.163642-0.96463-2.308214-0.0603-1.067979 0.0775-2.187635l-3.06614-0.172255q-0.37896 2.023993-0.0431 4.047987 0.65457 4.047987 4.1944 4.047987 3.53984 0 3.93603-4.220242 0.18948-2.101508-0.31868-4.211629z" style="font-feature-settings:normal;font-variant-caps:normal;font-variant-ligatures:normal;font-variant-numeric:normal"/>
  <path d="m611.73787 35.60578q-1.60197-0.163642-2.71301 0.577053l0.0172-0.585666-2.7044-0.07751-0.21532 9.27592h3.23839l0.0431-3.255615q-0.11197-2.807753 1.30913-2.868042 1.05076-0.04306 1.2144 2.885267 0.0861 1.386651-0.12919 2.85943l3.36758 0.07751q0.24977-2.187635-0.0517-4.314982-0.25838-1.937866-0.96462-3.074748-0.88712-1.421102-2.41157-1.498616z" style="font-feature-settings:normal;font-variant-caps:normal;font-variant-ligatures:normal;font-variant-numeric:normal"/>
  <path d="m620.31615 38.120699q0.75793-0.137803 1.10244 0.241157 0.17225 0.198093 0.18948 0.413412l-2.32544 0.223931q-0.0345-0.163642 0.0689-0.361735 0.21532-0.378961 0.96462-0.516765zm-0.35312 3.625963q-0.44786-0.249769-0.6115-0.689019-0.0861-0.215318-0.0775-0.387573l5.77915-0.689019q-0.19809-1.16272-0.99046-2.256538-1.60197-2.196248-4.63366-1.912028-1.73116 0.163642-2.73885 1.395264-0.91295 1.102431-0.99908 2.713013-0.0947 1.558906 0.61151 2.850816 0.75792 1.386651 2.11873 1.825901 2.35989 0.775147 4.53892-0.344509 1.09381-0.559829 1.70532-1.266073l-1.85174-1.929254q-0.4048 0.34451-0.96463 0.602892-1.11104 0.525377-1.88619 0.08613z" style="font-feature-settings:normal;font-variant-caps:normal;font-variant-ligatures:normal;font-variant-numeric:normal"/>
  <path d="m626.56039 41.049031q0.79238 0.344509 1.42111 0.611504 1.73977 0.869887 2.08428 0.559828 0.12058-0.180867 0.0344-0.310058-0.0861-0.129192-0.85266-0.430637-0.75792-0.310059-1.73978-0.620118-0.98185-0.310058-1.33497-1.024916-0.3359-0.689019-0.0517-1.455552 0.31006-0.826823 1.18856-1.309137 1.0163-0.551215 2.51492-0.456475 1.26607 0.07751 2.52353 0.577054 0.59428 0.327284 0.93018 0.645955l-1.08521 1.705322q-0.49953-0.327284-0.97323-0.4737-1.5503-0.568441-1.63643 0.03445-9e-3 0.163642 0.27561 0.344509 0.29284 0.172255 1.24024 0.430637 0.95601 0.24977 1.55029 0.53399 0.88711 0.43925 1.07659 1.403876 0.1981 0.981853-0.6115 2.015381-0.84405 0.990465-2.91972 0.999078-1.80868 0.01723-4.8662-1.3522z" style="font-feature-settings:normal;font-variant-caps:normal;font-variant-ligatures:normal;font-variant-numeric:normal"/>
 </g>
 <path d="m94.76545 63.972542 28.91279-1.983223-18.30983 22.77706z" fill="#ff5252"/>
 <path d="m257.98762 44.325258c1.53649 0.09959 27.08883 31.295196 26.89721 32.837479-0.19163 1.542263-29.38493-0.350128-30.7298-1.992009-1.34487-1.641868 2.29611-30.945077 3.83259-30.84547z" fill="#00c853"/>
 <g transform="rotate(1.5799363,589.41916,1102.6265)" fill="none" stroke="#ffc107" stroke-linecap="round" stroke-width="2.64583325">
  <g transform="rotate(-26.301235,280.87683,257.93987)">
   <path d="m311.01879 55.61079-10.7041-6.274815"/>
   <path d="m312.14537 43.254339-1.12658 12.356451"/>
  </g>
  <path d="m148.16068 32.100827s36.96218 2.270005 70.08762 31.100082"/>
 </g>
 <path d="m145.35991 14.691404c0.63445-0.699499 25.36466-1.053857 26.03179-0.373014 0.66713 0.680834-11.38758 13.971193-12.68918 13.989845-1.30159 0.01866-13.97707-12.917347-13.34261-13.616831z" fill="#2196f3"/>
 <g transform="rotate(5.8861801,96.621333,2913.0794)" fill="#616161" stroke-width=".26458332" style="font-feature-settings:normal;font-variant-caps:normal;font-variant-ligatures:normal;font-variant-numeric:normal" aria-label="mañana">
  <path d="m-90.640892 20.153464q-0.506889 0.19902-0.745498 0.155559-0.151842-0.02766-0.406177-0.230864 0.08491-0.343116 0.235049-1.167401 0.159979-0.755259 0.235049-1.167401 1.216925-6.681048-0.171344-6.933916-0.824285-0.15014-1.810955 1.821635-0.781449 1.583338-0.990855 2.732999l-0.395106 2.169172q-0.03161 0.173533-0.0041 0.514713 0.05314 0.32344 0.02549 0.475282-0.03161 0.173533-0.301826 0.303605-0.270217 0.130072-0.443751 0.09846-0.195225-0.03556-0.386421-0.339322-0.187245-0.325454-0.151686-0.520679l0.794163-4.360034q0.126434-0.694135 0.08143-1.800491-0.05872-1.400201-0.492553-1.479222-0.238609-0.04346-0.826456 0.476983-2.00618 1.786075-2.559328 4.822915-0.06717 0.368759-0.114737 1.122082-0.04362 0.73163-0.106835 1.078698-0.118532 0.650751-0.660825 0.551975-0.260306-0.04741-0.416016-0.29989-0.067-0.124262-0.0174-1.011686 0.0338-0.800657 0.0851-1.082649l0.932456-5.119245q0.403008-2.2125545 0.923609-2.1177291 0.216917 0.039511 0.394323 0.2959383 0.20305 0.238687 0.163539 0.4556041-0.08297 0.4555257-0.347458 1.1693377-0.303997 0.930729-0.369151 1.165387l0.0887 0.128214q0.582038-0.857674 1.164076-1.715347 0.802984-1.0863659 1.605578-0.9401768 1.127969 0.205455 1.509735 2.7850668 0.26433-0.22079 0.739846-0.985809t0.799033-1.064674q0.506968-0.4455309 1.114336-0.3349013 0.585677 0.1066786 1.159265 1.0179653 1.066376 1.650976 0.394696 5.338567z" style="font-feature-settings:normal;font-variant-caps:normal;font-variant-ligatures:normal;font-variant-numeric:normal"/>
  <path d="m-83.278141 22.768947q-0.08151 0.297725-0.549363 0.169638-0.510384-0.139732-0.500272-0.594163-0.0038-0.06962 0.205798-0.835197 0.05822-0.21266 0.02936-0.357723-1.429605 0.545867-2.811897 0.167428-0.956971-0.261996-1.704591-1.038177-0.85775-0.874911-0.61322-1.768084 0.238708-0.871908 1.677935-1.369421 1.315431-0.462825 2.251136-0.206651l2.105337 0.576392q0.162529-0.09266 0.249861-0.411654 0.390083-1.424824 0.35411-2.211912-0.05093-1.316963-1.178026-1.625536-0.808109-0.221241-1.768085 0.613219-0.872889 0.766864-1.105775 1.617505-0.01164 0.04253-0.03493 0.127596-0.02329 0.08506-0.02911 0.10633-0.04658 0.170128-0.216705 0.123551-0.212661-0.05822-0.397987-0.383279-0.185327-0.325058-0.132928-0.516453 0.16302-0.595448 0.769073-1.389645 0.611874-0.815463 1.165282-1.166873 0.688848-0.428629 1.475691-0.21321 1.212164 0.331862 2.023336 1.376902 0.857504 1.126304 0.558552 2.301758zm-0.201379-3.689871q0.232885-0.850642-1.085608-1.211614-1.042036-0.285285-1.927855-0.139182-1.127591 0.194212-1.383765 1.129917-0.157198 0.574183 0.287121 1.038727 0.370899 0.398723 0.987614 0.567565 0.914439 0.250352 1.885568-0.123855 0.992395-0.368385 1.236925-1.261558z" style="font-feature-settings:normal;font-variant-caps:normal;font-variant-ligatures:normal;font-variant-numeric:normal"/>
  <path d="m-72.599639 13.588174q-0.09946 0.292216-0.937458 0.496088-0.837993 0.203872-1.171954 0.0902-0.500943-0.170511-0.853571-0.639902-0.345523-0.490263-0.637739-0.589728-0.375707-0.127883-0.892624 0.02224-0.48894 0.136355-0.48894 0.136355-0.271343-0.09236-0.178983-0.363704 0.106569-0.313089 0.902376-0.461447 0.823784-0.162127 1.157745-0.04845 0.459197 0.156302 0.755871 0.653229 0.303778 0.476054 0.63774 0.589728 0.354834 0.120778 0.906832-0.06399 0.559104-0.205637 0.600849-0.191428 0.292216 0.09947 0.199856 0.370809zm-2.978515 11.213883q-0.203387 0.186971-0.432985 0.10882-0.229599-0.07815-0.651949-0.547983l0.05684-0.166981q0.06394-0.187854 0.212697-0.556456 0.148756-0.368602 0.205593-0.535583 2.358736-6.929704 0.62631-7.519388-0.542687-0.18472-1.438841 0.3953-2.254153 1.422073-3.270115 4.406855-0.134988 0.396579-0.272623 1.211494-0.116763 0.822018-0.244647 1.197725-0.106569 0.313089-0.544894 0.163892-0.834904-0.284185-0.387312-1.599159l1.61275-4.738081q0.06394-0.187853 0.226466-0.528478 0.162524-0.340625 0.226465-0.528479 0.09236-0.271344 0.186486-0.821577 0.114998-0.543129 0.200253-0.7936 0.05684-0.166981 0.378355-0.290452 0.349494-0.137238 0.495603-0.08751 0.271343 0.09236 0.401477 0.462728-0.524418 1.335405-0.602569 1.565004-0.10657 0.313089-0.185162 0.61241 0.209167 0.0013 0.735395-0.518285 0.666556-0.658171 1.037364-0.858027 0.699872-0.413922 1.346923-0.193679 0.250471 0.08526 0.687472 0.44362 0.985028 0.801102 1.138285 1.924648 0.252766 1.926016-0.670836 4.639455z" style="font-feature-settings:normal;font-variant-caps:normal;font-variant-ligatures:normal;font-variant-numeric:normal"/>
  <path d="m-68.523115 28.22711q-0.11701 0.285644-0.565879 0.101771-0.489675-0.200589-0.424533-0.650441 0.0047-0.06957 0.305554-0.80408 0.08358-0.204031 0.07252-0.351523-1.485248 0.368487-2.81145-0.174774-0.918141-0.376105-1.566125-1.237213-0.745329-0.972465-0.394299-1.829396 0.342673-0.836528 1.831608-1.155851 1.361845-0.299903 2.259582 0.06784l2.019909 0.827429q0.172566-0.07227 0.297934-0.378318 0.559978-1.367009 0.619711-2.152652 0.109142-1.313419-0.972223-1.756386-0.775319-0.317599-1.829396 0.394298-0.959437 0.655359-1.293752 1.471484-0.01672 0.04081-0.05015 0.122419-0.03343 0.08161-0.04179 0.102016-0.06686 0.163225-0.230088 0.09636-0.204031-0.08358-0.348574-0.428711-0.144543-0.345132-0.06932-0.52876 0.234021-0.571287 0.931904-1.286135 0.706242-0.73525 1.298177-1.016961 0.735741-0.341938 1.490656-0.0327 1.162978 0.476398 1.841444 1.612088 0.714603 1.221973 0.275323 2.352503zm0.247536-3.687063q0.334315-0.816125-0.930678-1.334313-0.999753-0.409535-1.896752-0.371924-1.14282 0.05605-1.510566 0.953786-0.225663 0.550885 0.159047 1.065878 0.319813 0.440756 0.911504 0.683134 0.877334 0.359389 1.886673 0.1057 1.029742-0.24533 1.380772-1.102261z" style="font-feature-settings:normal;font-variant-caps:normal;font-variant-ligatures:normal;font-variant-numeric:normal"/>
  <path d="m-60.550256 31.426636q-0.224634 0.160822-0.443012 0.0553-0.218377-0.105519-0.580393-0.62327l0.07674-0.15882q0.08633-0.178673 0.278853-0.526426 0.19252-0.347753 0.269261-0.506573 3.184756-6.591037 1.536996-7.387226-0.516165-0.249408-1.476261 0.217208-2.410499 1.137097-3.782246 3.976008-0.182261 0.377198-0.418073 1.169297-0.206367 0.781839-0.388627 1.159037-0.14389 0.297788-0.560793 0.09634-0.794101-0.383705-0.189765-1.634414l2.177529-4.506522q0.08633-0.178673 0.289113-0.496981 0.20278-0.318307 0.289114-0.49698 0.124704-0.258083 0.28511-0.792766 0.180258-0.525091 0.29537-0.763321 0.07674-0.158821 0.410898-0.242234 0.363602-0.09367 0.502569-0.02652 0.258083 0.124704 0.342164 0.508158-0.683079 1.261636-0.788598 1.480014-0.14389 0.297788-0.258334 0.585316 0.207451 0.02678 0.793017-0.42491 0.741719-0.572136 1.134098-0.725367 0.745055-0.325647 1.360483-0.02828 0.23823 0.115112 0.628357 0.524008 0.880183 0.915053 0.89553 2.048899 0.01643 1.942462-1.230613 4.52329z" style="font-feature-settings:normal;font-variant-caps:normal;font-variant-ligatures:normal;font-variant-numeric:normal"/>
  <path d="m-53.847054 35.746333q-0.150699 0.269395-0.574034 0.03258-0.46182-0.258341-0.342748-0.697012 0.01305-0.06849 0.400562-0.761221 0.107642-0.192425 0.1145-0.340172-1.518912 0.186146-2.769673-0.513528-0.865912-0.484389-1.404991-1.417548-0.622241-1.055471-0.170144-1.863656 0.441332-0.788941 1.957958-0.925838 1.38812-0.132991 2.23479 0.340634l1.905005 1.065657q0.18004-0.05087 0.341504-0.339507 0.721201-1.289246 0.875517-2.061897 0.267195-1.290577-0.752656-1.86108-0.731214-0.40904-1.863656 0.170144-1.031657 0.534508-1.462225 1.304207-0.02153 0.03849-0.06459 0.115455-0.04306 0.07697-0.05382 0.09621-0.08611 0.15394-0.240053 0.06783-0.192425-0.107642-0.294164-0.467722t-0.0049-0.533263q0.301398-0.538789 1.080617-1.163982 0.789983-0.644435 1.411646-0.852485 0.771695-0.250442 1.483667 0.147834 1.096822 0.613559 1.632949 1.822971 0.561563 1.299431-0.01123 2.368532zm0.691657-3.630057q0.430568-0.769699-0.762465-1.43708-0.942882-0.527447-1.837845-0.5986-1.14121-0.08258-1.614835 0.764086-0.290633 0.519547 0.02897 1.077289 0.264157 0.476201 0.822189 0.788363 0.827427 0.462861 1.860039 0.333111 1.051854-0.118985 1.503951-0.927169z" style="font-feature-settings:normal;font-variant-caps:normal;font-variant-ligatures:normal;font-variant-numeric:normal"/>
 </g>
</svg>
