<?xml version="1.0" encoding="UTF-8"?>
<!-- Created with Inkscape (http://www.inkscape.org/) -->
<svg width="452.94138mm" height="218.28125mm" version="1.1" viewBox="0 0 452.94138 218.28126" xmlns="http://www.w3.org/2000/svg" xmlns:cc="http://creativecommons.org/ns#" xmlns:dc="http://purl.org/dc/elements/1.1/" xmlns:rdf="http://www.w3.org/1999/02/22-rdf-syntax-ns#">
 <metadata>
  <rdf:RDF>
   <cc:Work rdf:about="">
    <dc:format>image/svg+xml</dc:format>
    <dc:type rdf:resource="http://purl.org/dc/dcmitype/StillImage"/>
    <dc:title/>
   </cc:Work>
  </rdf:RDF>
 </metadata>
 <g fill="#f9eab0">
  <polygon transform="matrix(3.4969519,0,0,3.4969519,454.53799,432.75581)" points=""/>
  <polygon transform="matrix(3.4969519,0,0,3.4969519,1042.6954,575.90132)" points=""/>
  <polygon transform="matrix(3.4969519,0,0,3.4969519,455.26903,655.71169)" points=""/>
  <polygon transform="matrix(3.4969519,0,0,3.4969519,1043.4265,798.8572)" points=""/>
  <g transform="translate(-12.79578,310.10624)">
   <polygon transform="matrix(3.4969519,0,0,3.4969519,454.53799,432.75581)" points=""/>
   <polygon transform="matrix(3.4969519,0,0,3.4969519,1042.6954,575.90132)" points=""/>
   <polygon transform="matrix(3.4969519,0,0,3.4969519,290.18775,626.41733)" points=""/>
  </g>
  <polygon transform="matrix(3.4969519,0,0,3.4969519,479.13668,390.12445)" points=""/>
  <polygon transform="matrix(9.1061708,0,0,9.0930789,1307.0572,1362.1078)" points=""/>
 </g>
 <rect x="5.1217259e-5" y="-3.5888672e-7" width="452.94128" height="218.28127" opacity="0" stroke-width=".35775721"/>
 <path d="m443.26684 71.73891h-81.33692c-4.78279 0-8.6332 3.92436-8.6332 8.79901v75.63361c0 4.87466 3.85041 8.79901 8.6332 8.79901h81.33692c4.78279 0 8.6332-3.92435 8.6332-8.79901l-16.63339-37.81681 16.63339-37.8168c1.95647-4.44815-3.85041-8.79901-8.6332-8.79901z" fill="#fff" stroke="#ffc107" stroke-linecap="round" stroke-linejoin="round" stroke-width="1.3104434"/>
 <path d="m361.2116 71.55981c0.66677 0.0315 1.31076 0.26187 1.90041 0.73642 0 0 21.47401 14.96078 27.30036 20.24193 1.04754 0.94953 1.9879 1.73092 2.83236 2.40976h-39.90146v-13.80588c0-4.13507 4.26777-9.75218 7.86833-9.58223zm33.05077 116.27493c-1.30156 0.8041-2.72443 0.95334-4.0518 0z" fill="#ffc107"/>
 <path d="m9.674543 71.73891h81.336926c4.78279 0 8.633196 3.92436 8.633196 8.79901v75.63361c0 4.87466-3.850406 8.79901-8.633196 8.79901h-81.336926c-4.78279 0-8.6331959-3.92435-8.6331959-8.79901l16.6333829-37.81681-16.6333829-37.8168c-1.95647452-4.44815 3.8504059-8.79901 8.6331959-8.79901z" fill="#fff" stroke="#ffc107" stroke-linecap="round" stroke-linejoin="round" stroke-width="1.3104434"/>
 <path d="m91.729785 71.55981c-0.666771 0.0315-1.310758 0.26187-1.900407 0.73642 0 0-21.474014 14.96078-27.300364 20.24193-1.047537 0.94953-1.987893 1.73092-2.832357 2.40976h39.901467v-13.80588c0-4.13507-4.267775-9.75218-7.868339-9.58223zm-33.050768 116.27493c1.301555 0.8041 2.724424 0.95333 4.051803 0z" fill="#ffc107"/>
 <g stroke="#ffc107" stroke-linecap="round" stroke-linejoin="round">
  <rect x="54.498417" y="94.948158" width="343.80542" height="92.886826" ry="8.7664652" fill="#fff" stroke-width="1.3104434"/>
  <g transform="matrix(.71974789 0 0 .71974789 181.03411 -27.19562)" fill="#00c853" stroke-width="7.9375">
   <path d="m-33.222956 318.55025v18.84114"/>
   <path d="m-23.802386 327.97082h-18.84114"/>
  </g>
  <g transform="matrix(.71974789 0 0 .71974789 319.73159 -27.19562)" fill="#00c853" stroke-width="7.9375">
   <path d="m-33.222956 318.55025v18.84114"/>
   <path d="m-23.802386 327.97082h-18.84114"/>
  </g>
 </g>
 <g fill="#fff" stroke-width=".26458332" style="font-feature-settings:normal;font-variant-caps:normal;font-variant-ligatures:normal;font-variant-numeric:normal" aria-label="exercise">
  <path d="m179.24391 211.12304q-0.18603-1.67431 0.28939-3.32796 0.47542-1.67432 1.46761-2.97656 1.01286-1.32292 2.43913-2.1084 1.42627-0.80615 3.14193-0.76481 0.7028-0.0207 1.6123 0.31006 0.90951 0.33072 1.67432 0.93017 0.76481 0.57878 1.21956 1.36426 0.47542 0.76481 0.31006 1.63297 0.0207 0.43409-0.43408 0.72347-0.45476 0.26872-1.21957 0.43409-0.74414 0.16536-1.757 0.24804-0.99218 0.062-2.10839 0.10336-1.09554 0.0413-2.23243 0.0827-1.13688 0.0207-2.14974 0.10335-0.57877 1.59164-0.3514 2.62516 0.24805 1.01286 1.01286 1.5503 0.78548 0.53743 1.92237 0.64079 1.15755 0.0827 2.39778-0.16537 1.24024-0.24805 2.43913-0.78548 1.19889-0.55811 2.06706-1.32292 0.12402 0 0.31006 0.0827 0.2067 0.0827 0.39274 0.22738 0.18603 0.12402 0.31006 0.28939 0.14469 0.14469 0.14469 0.26872-0.51676 0.88883-1.57096 1.59163t-2.37712 1.13688-2.76986 0.53744q-1.42627 0.10335-2.68717-0.20671-1.26091-0.31006-2.21175-1.09554-0.95085-0.78548-1.28158-2.12907zm9.88054-5.51904q-0.10336-0.78548-0.62012-1.17822-0.51677-0.39275-1.21956-0.4961-0.7028-0.12402-1.48829 0.0207-0.78548 0.1447-1.46761 0.43408-0.66146 0.28939-1.11621 0.68213-0.43408 0.39274-0.45475 0.78549z" style="font-feature-settings:normal;font-variant-caps:normal;font-variant-ligatures:normal;font-variant-numeric:normal"/>
  <path d="m192.72113 203.64029q0-0.12402 0.10335-0.37207 0.10335-0.26871 0.28939-0.51676 0.2067-0.24805 0.49609-0.39274 0.28939-0.16537 0.68213-0.10335l4.25814 5.1263q0.3514-0.45475 0.78548-1.09554 0.43408-0.66146 0.93018-1.38493 0.49609-0.72347 1.01285-1.44694 0.51677-0.72347 1.0542-1.34359 0.31006 0 0.53744 0.12402 0.24805 0.12403 0.41341 0.31006 0.16536 0.16537 0.24805 0.37207 0.10335 0.20671 0.10335 0.39274l-3.38997 5.29167 4.46484 4.67155q0.14469 0.26872 0.062 0.57878-0.0827 0.31006-0.31006 0.5581-0.2067 0.22738-0.51676 0.33073t-0.64079-0.0413l-4.46484-4.65088q-0.37207 0.41341-0.90951 1.0542-0.53743 0.64079-1.13688 1.30225-0.57878 0.66146-1.13688 1.24023-0.55811 0.57878-0.95085 0.86817-0.24805 0.12402-0.5581 0.12402-0.28939 0-0.55811-0.12402-0.24805-0.10336-0.41341-0.31006-0.16537-0.20671-0.16537-0.47543 0.062-0.062 0.3514-0.3514 0.28939-0.31005 0.68213-0.74414 0.41341-0.43408 0.88884-0.97151 0.47542-0.53744 0.9095-1.0542 0.43409-0.53744 0.80616-1.03353 0.37207-0.4961 0.5581-0.8475-1.2609-1.40559-2.25309-2.52181-0.41341-0.47542-0.82682-0.93017-0.39275-0.45475-0.7028-0.80615-0.31006-0.37207-0.51677-0.59945-0.18603-0.22738-0.18603-0.22738z" style="font-feature-settings:normal;font-variant-caps:normal;font-variant-ligatures:normal;font-variant-numeric:normal"/>
  <path d="m205.33018 211.12304q-0.18604-1.67431 0.28939-3.32796 0.47542-1.67432 1.46761-2.97656 1.01285-1.32292 2.43912-2.1084 1.42627-0.80615 3.14193-0.76481 0.7028-0.0207 1.61231 0.31006 0.9095 0.33072 1.67431 0.93017 0.76481 0.57878 1.21957 1.36426 0.47542 0.76481 0.31005 1.63297 0.0207 0.43409-0.43408 0.72347-0.45475 0.26872-1.21956 0.43409-0.74414 0.16536-1.757 0.24804-0.99219 0.062-2.1084 0.10336-1.09554 0.0413-2.23242 0.0827-1.13688 0.0207-2.14974 0.10335-0.57878 1.59164-0.3514 2.62516 0.24805 1.01286 1.01286 1.5503 0.78548 0.53743 1.92236 0.64079 1.15755 0.0827 2.39779-0.16537 1.24023-0.24805 2.43913-0.78548 1.19889-0.55811 2.06705-1.32292 0.12403 0 0.31006 0.0827 0.20671 0.0827 0.39274 0.22738 0.18604 0.12402 0.31006 0.28939 0.1447 0.14469 0.1447 0.26872-0.51677 0.88883-1.57097 1.59163t-2.37711 1.13688q-1.32292 0.43408-2.76986 0.53744-1.42627 0.10335-2.68718-0.20671-1.2609-0.31006-2.21175-1.09554-0.95084-0.78548-1.28157-2.12907zm9.88053-5.51904q-0.10335-0.78548-0.62012-1.17822-0.51676-0.39275-1.21956-0.4961-0.7028-0.12402-1.48828 0.0207-0.78548 0.1447-1.46761 0.43408-0.66146 0.28939-1.11621 0.68213-0.43408 0.39274-0.45476 0.78549z" style="font-feature-settings:normal;font-variant-caps:normal;font-variant-ligatures:normal;font-variant-numeric:normal"/>
  <path d="m219.03477 202.21402q0.0413-0.39274 0.33073-0.47542 0.28938-0.10335 0.62011-0.062 0.53744 0.062 0.80616 0.5581 0.26871 0.47543 0.37207 1.07487 0.10335 0.59945 0.10335 1.17823 0 0.5581 0.0207 0.80615 0.57878-0.49609 1.28158-1.13688 0.72347-0.64079 1.73632-1.15755 1.03353-0.53744 2.4598-0.80616 1.44694-0.28938 3.47266-0.0413 0.49609 0.12403 0.72347 0.47543 0.24805 0.3514 0.24805 0.74414 0.0207 0.37207-0.20671 0.7028-0.20671 0.31005-0.59945 0.3514-0.49609-0.37207-1.32291-0.43409-0.82683-0.062-1.81901 0.1447-0.97152 0.2067-1.98438 0.66146-1.01286 0.45475-1.88102 1.13688-0.8475 0.68213-1.46761 1.57096-0.59945 0.88884-0.74414 1.94304v4.52685q-0.0413 0.10335-0.33073 0.31006-0.28939 0.18603-0.66146 0.26872-0.3514 0.10335-0.72347 0-0.3514-0.10336-0.53744-0.57878 0-0.14469 0-0.9095 0-0.78549 0-1.88103 0.0207-1.11621 0.0413-2.41845 0.0207-1.32292 0.0207-2.58383 0.0207-1.2609 0.0207-2.3151 0.0207-1.0542 0.0207-1.65365z" style="font-feature-settings:normal;font-variant-caps:normal;font-variant-ligatures:normal;font-variant-numeric:normal"/>
  <path d="m229.51475 210.44091q-0.10336-1.07487 0.49609-2.33577 0.62012-1.28158 1.65365-2.4598 1.0542-1.19889 2.39778-2.12907 1.36426-0.95085 2.74919-1.36426 1.4056-0.43408 2.68717-0.16536 1.30225 0.26872 2.2531 1.48828 0 0.26872-0.1447 0.47542-0.12402 0.20671-0.33073 0.39274-0.18603 0.18604-0.41341 0.33073-0.22737 0.1447-0.41341 0.28939-0.3514-0.74414-0.93017-1.03353-0.57878-0.28939-1.28158-0.22737-0.7028 0.0413-1.48828 0.39274-0.78548 0.33073-1.55029 0.86816-0.76482 0.51676-1.44694 1.17822-0.68213 0.64079-1.1989 1.34359-0.49609 0.68213-0.76481 1.36426-0.26872 0.66146-0.2067 1.19889 0 0.90951 0.35139 1.46761 0.3514 0.55811 0.90951 0.86817 0.57878 0.31006 1.30225 0.41341 0.74414 0.10335 1.50895 0.10335 1.57096-0.0413 2.8112-0.37207 1.2609-0.3514 2.17041-0.72347 0.9095-0.39274 1.50895-0.68213t0.86816-0.22737q0.16537 0 0.33073 0.0207 0.18604 0.0207 0.31006 0.12402 0.14469 0.0827 0.18604 0.26872 0.062 0.16536 0 0.47542-0.062 0.39274-0.53744 0.76481-0.47542 0.3514-1.21956 0.66146t-1.65365 0.57878q-0.9095 0.24804-1.81901 0.43408-0.9095 0.16536-1.73633 0.24804-0.80615 0.0827-1.34359 0.0414-0.9095 0-1.9637-0.20671t-1.9637-0.68213q-0.88884-0.47542-1.48829-1.24023-0.59944-0.78549-0.59944-1.94304z" style="font-feature-settings:normal;font-variant-caps:normal;font-variant-ligatures:normal;font-variant-numeric:normal"/>
  <path d="m247.35345 202.37939q0.18604 2.54248 0.33073 5.41569 0.1447 2.85254 0.24805 5.76709-0.10335 0.41341-0.43408 0.59945-0.31006 0.18603-0.68213 0.2067-0.37207 0-0.7028-0.12402-0.31006-0.12403-0.39274-0.33073v-11.53418zm-2.39778-3.514q0-0.47542 0.26871-0.68213 0.26872-0.2067 0.64079-0.22737 0.37207-0.0414 0.74414 0.062 0.37207 0.10335 0.53744 0.24804 0.18603 0.68213-0.062 0.99219-0.24804 0.31006-0.66145 0.3514-0.39274 0.0207-0.82683-0.18603-0.43408-0.20671-0.64078-0.55811z" style="font-feature-settings:normal;font-variant-caps:normal;font-variant-ligatures:normal;font-variant-numeric:normal"/>
  <path d="m249.91661 213.06608q1.86035-0.1447 3.3693-0.51677 1.52962-0.37207 2.56315-0.84749 1.0542-0.4961 1.57096-1.03353 0.51677-0.55811 0.37207-1.09554-0.16536-0.57878-1.65364-0.4961-1.46761 0.0827-4.36149 0.66146-0.8475-0.062-1.48828-0.39274-0.62012-0.33073-0.99219-0.78548-0.37207-0.47542-0.47542-0.99219-0.10336-0.51676 0.062-0.9095 0-0.68213 0.39274-1.32292 0.41341-0.66146 1.09554-1.19889 0.7028-0.55811 1.6123-0.99219 0.93018-0.45475 1.98438-0.7028 1.0542-0.26872 2.17041-0.33073 1.11621-0.062 2.21175 0.1447 0.53743 0.24804 0.86816 0.57877 0.3514 0.31006 0.47543 0.64079 0.12402 0.31006 0 0.59945-0.12403 0.28938-0.51677 0.49609-0.84749-0.37207-1.79834-0.53744-0.93017-0.18603-1.86035-0.14469-0.93017 0.0413-1.79834 0.28939-0.84749 0.22737-1.50895 0.66146-0.64079 0.41341-1.0542 1.03353-0.41341 0.62011-0.43408 1.40559 0 0.43409 0.33073 0.57878 0.3514 0.12402 0.80615 0.12402 0.47542-0.0207 0.97152-0.10335 0.51676-0.10335 0.82682-0.10335 2.04639-0.28939 3.3693-0.16537 1.34359 0.12403 2.04639 0.53744t0.82682 1.03353q0.12403 0.62011-0.24804 1.34358-0.3514 0.7028-1.15756 1.42627-0.80615 0.72347-1.9637 1.32292t-2.62516 1.01286q-1.44694 0.39274-3.10059 0.47542-0.39274 0.1447-0.66146-0.0413-0.24804-0.18603-0.37207-0.49609-0.12402-0.31006-0.10335-0.64079 0.0413-0.3514 0.24805-0.51676z" style="font-feature-settings:normal;font-variant-caps:normal;font-variant-ligatures:normal;font-variant-numeric:normal"/>
  <path d="m260.85134 211.12304q-0.18603-1.67431 0.28939-3.32796 0.47542-1.67432 1.46761-2.97656 1.01286-1.32292 2.43913-2.1084 1.42627-0.80615 3.14193-0.76481 0.70279-0.0207 1.6123 0.31006 0.90951 0.33072 1.67432 0.93017 0.76481 0.57878 1.21956 1.36426 0.47542 0.76481 0.31006 1.63297 0.0207 0.43409-0.43408 0.72347-0.45476 0.26872-1.21957 0.43409-0.74414 0.16536-1.757 0.24804-0.99218 0.062-2.10839 0.10336-1.09554 0.0413-2.23243 0.0827-1.13688 0.0207-2.14974 0.10335-0.57877 1.59164-0.3514 2.62516 0.24805 1.01286 1.01286 1.5503 0.78548 0.53743 1.92237 0.64079 1.15755 0.0827 2.39778-0.16537 1.24024-0.24805 2.43913-0.78548 1.19889-0.55811 2.06706-1.32292 0.12402 0 0.31006 0.0827 0.2067 0.0827 0.39274 0.22738 0.18603 0.12402 0.31006 0.28939 0.14469 0.14469 0.14469 0.26872-0.51676 0.88883-1.57096 1.59163t-2.37712 1.13688-2.76986 0.53744q-1.42627 0.10335-2.68717-0.20671-1.26091-0.31006-2.21175-1.09554-0.95085-0.78548-1.28158-2.12907zm9.88054-5.51904q-0.10336-0.78548-0.62012-1.17822-0.51677-0.39275-1.21957-0.4961-0.70279-0.12402-1.48828 0.0207-0.78548 0.1447-1.46761 0.43408-0.66146 0.28939-1.11621 0.68213-0.43408 0.39274-0.45475 0.78549z" style="font-feature-settings:normal;font-variant-caps:normal;font-variant-ligatures:normal;font-variant-numeric:normal"/>
 </g>
 <g transform="translate(-31.773058,-424.11653)" fill="#ffc107" stroke-width=".26458335" style="font-feature-settings:normal;font-variant-caps:normal;font-variant-ligatures:normal;font-variant-numeric:normal" aria-label="Days of the week">
  <path d="m120.37102 548.51756q4.84036-0.43063 9.92188 0.6718 4.44417 0.98185 7.07967 3.08336 3.27284 2.61827 3.49677 6.85574 0.41341 7.56198-9.07782 10.47309-4.73701 1.46416-10.24916 1.41249zm6.73517 15.91635q8.1821-1.30914 7.06244-6.04615-2.27376-4.65088-7.56198-3.42787z" style="font-feature-settings:normal;font-variant-caps:normal;font-variant-ligatures:normal;font-variant-numeric:normal"/>
  <path d="m149.0859 566.70767q-0.58567-0.0861-0.96463-0.34451-0.36174-0.25838-0.39619-0.55122-0.0172-0.31005 0.32729-0.48231 0.39618-0.18948 1.1541-0.1378 0.53399 0.0517 0.84405 0.31006 0.27561 0.25838 0.25838 0.56844-0.0172 0.32728-0.32728 0.49953-0.32728 0.20671-0.89572 0.13781zm4.737-12.04061q-4.51307-0.79237-7.73424-0.32728-1.61919 0.24115-2.32544 0.63734l0.99908 5.01261q1.92925-0.53399 4.06521-0.48231 4.27192 0.10335 5.271 3.10058-1.6192-0.96462-3.70348-1.46416-4.20301-0.99908-6.61458 1.34359-1.42972 1.39526-1.77423 3.15226-0.34451 1.73977 0.48232 3.16949 0.8785 1.53306 2.7733 2.20486 2.11873 0.74069 5.09874 0.24115 2.42879-0.43063 3.87573-2.37711l-0.29283 2.06706h5.87389q1.05075-3.61735 0.82682-7.45864-0.18948-3.35896-1.58474-5.51215-1.72255-2.68717-5.23655-3.30729z" style="font-feature-settings:normal;font-variant-caps:normal;font-variant-ligatures:normal;font-variant-numeric:normal"/>
  <path d="m172.89151 553.2718q0.77514 4.08243 0.49953 7.68256-0.75792 6.11504-3.8585 4.37527-1.49862-0.70624-1.6881-6.20117 0.0861-2.82498 0.46509-5.52938l-6.45956-0.0689q-0.62011 3.56567-0.32728 7.49308 0.60289 7.85482 5.21932 9.66349 2.46324 0.96463 5.23654 0.25839 1.37804-0.34451 2.27377-0.8785 0.34451 2.27376-0.36174 4.32359-1.39526 4.11689-6.64903 2.92833l-1.11966 6.1495q0.96463 0.31006 2.41157 0.41341 2.89388 0.24116 5.20209-0.75792 7.38973-3.15226 6.2873-17.32883-0.63734-8.00985 0.37896-12.26454z" style="font-feature-settings:normal;font-variant-caps:normal;font-variant-ligatures:normal;font-variant-numeric:normal"/>
  <path d="m184.12252 563.79656q1.58474 0.68902 2.8422 1.22301 3.47955 1.73978 4.16857 1.11966 0.24115-0.36174 0.0689-0.62012t-1.70532-0.86127q-1.51584-0.62012-3.47955-1.24024-1.9637-0.62011-2.66995-2.04983-0.67179-1.37804-0.10335-2.91111 0.62012-1.65364 2.37712-2.61827 2.0326-1.10243 5.02983-0.91295 2.53215 0.15503 5.04707 1.15411 1.18856 0.65457 1.86035 1.29191l-2.17041 3.41064q-0.99908-0.65456-1.94648-0.9474-3.10058-1.13688-3.27284 0.0689-0.0172 0.32729 0.55122 0.68902 0.58566 0.34451 2.48047 0.86128 1.91202 0.49954 3.10058 1.06798 1.77423 0.8785 2.15319 2.80775 0.39618 1.9637-1.22301 4.03076-1.6881 1.98093-5.83944 1.99816-3.61735 0.0344-9.73239-2.7044z" style="font-feature-settings:normal;font-variant-caps:normal;font-variant-ligatures:normal;font-variant-numeric:normal"/>
  <path d="m216.33416 564.31333q-1.0163-0.0172-1.53307-0.31006-0.49954-0.27561-0.49954-0.77515 0-0.51676 0.46509-0.84405 0.51676-0.37896 1.41249-0.37896 0.9474 0 1.49862 0.32729 0.55121 0.31006 0.55121 0.80959 0 0.48232-0.55121 0.82683-0.53399 0.36173-1.34359 0.34451zm-0.12058-10.28361q-4.32359 0-6.54568 2.9111-1.86035 2.4288-1.86035 6.18395 0 4.16856 1.94648 6.14949 2.15318 2.18764 7.14857 2.25654 3.54845 0.0517 5.92556-2.61827 2.30822-2.60105 2.30822-6.30453 0-3.73792-2.32544-6.09781-2.44602-2.48047-6.59736-2.48047z" style="font-feature-settings:normal;font-variant-caps:normal;font-variant-ligatures:normal;font-variant-numeric:normal"/>
  <path d="m235.78173 554.33978q0.34451-1.05076 0.91295-0.63735 0.2756 0.20671 0.48231 0.63735l4.49585-3.65181q-0.27561-0.74069-1.27469-1.46416-1.9637-1.42972-5.46047-1.34359-4.92649 0.12058-5.68441 8.66442l-3.56567-0.0172 0.10335 5.82221 3.39342-0.10335q0.24115 4.99539 1.11965 9.35343l6.02892-0.84404q-0.32728-4.42695-0.55121-8.7161l2.79052-0.0861 0.0517-5.37435-2.99723-0.0172q0-1.77422 0.15503-2.22208z" style="font-feature-settings:normal;font-variant-caps:normal;font-variant-ligatures:normal;font-variant-numeric:normal"/>
  <path d="m256.05611 547.08785-0.17226 5.56383-4.63365-0.25838-0.31006 5.52937 4.75423 0.22394-0.22393 13.09136 5.85667 0.31006 0.17225-13.16027 4.49585 0.0344 0.12058-5.56383-4.47863-0.0861 0.12058-5.35713z" style="font-feature-settings:normal;font-variant-caps:normal;font-variant-ligatures:normal;font-variant-numeric:normal"/>
  <path d="m267.06319 547.32901v23.85728l8.06152-0.18948q-0.34451-2.49769-0.29283-5.01261 0.0861-5.04707 1.87758-5.15042 1.80867-0.10335 2.06705 5.09874 0.13781 2.61827-0.1378 5.25377l7.3725 0.34451q0.82683-4.56475 0.18949-9.18118-0.55122-4.04798-2.34267-6.4251-2.22209-2.46324-6.27007-2.6355-1.77423-0.0861-2.91111 1.18856-0.56844 0.89572-0.77515 1.79145l0.18948-8.76777z" style="font-feature-settings:normal;font-variant-caps:normal;font-variant-ligatures:normal;font-variant-numeric:normal"/>
  <path d="m296.2087 557.9399q1.51584-0.27561 2.20486 0.48231 0.34451 0.39619 0.37896 0.82683l-4.65088 0.44786q-0.0689-0.32728 0.13781-0.72347 0.43064-0.75792 1.92925-1.03353zm-0.70624 7.25193q-0.89573-0.49954-1.22301-1.37804-0.17226-0.43064-0.15503-0.77515l11.5583-1.37804q-0.39619-2.32544-1.98093-4.51307-3.20394-4.3925-9.26731-3.82406-3.46232 0.32729-5.4777 2.79053-1.8259 2.20486-1.99816 5.42603-0.18948 3.11781 1.22301 5.70163 1.51584 2.7733 4.23747 3.6518 4.71978 1.55029 9.07782-0.68902 2.18764-1.11966 3.41065-2.53214l-3.70348-3.85851q-0.8096 0.68902-1.92925 1.20578-2.22209 1.05076-3.77238 0.17226z" style="font-feature-settings:normal;font-variant-caps:normal;font-variant-ligatures:normal;font-variant-numeric:normal"/>
  <path d="m329.59168 559.88638-3.35897-5.06429-3.49677 5.06429-1.65365-6.09782-6.27007 0.56844 5.83943 17.29438 5.44325-7.64811 5.82222 7.73424 5.77053-17.56999-6.68348-0.29283z" style="font-feature-settings:normal;font-variant-caps:normal;font-variant-ligatures:normal;font-variant-numeric:normal"/>
  <path d="m347.47172 557.9399q1.51584-0.27561 2.20486 0.48231 0.34451 0.39619 0.37896 0.82683l-4.65088 0.44786q-0.0689-0.32728 0.1378-0.72347 0.43064-0.75792 1.92926-1.03353zm-0.70625 7.25193q-0.89572-0.49954-1.22301-1.37804-0.17225-0.43064-0.15502-0.77515l11.55829-1.37804q-0.39619-2.32544-1.98093-4.51307-3.20394-4.3925-9.26731-3.82406-3.46232 0.32729-5.4777 2.79053-1.8259 2.20486-1.99815 5.42603-0.18948 3.11781 1.22301 5.70163 1.51584 2.7733 4.23746 3.6518 4.71978 1.55029 9.07783-0.68902 2.18764-1.11966 3.41064-2.53214l-3.70347-3.85851q-0.8096 0.68902-1.92926 1.20578-2.22208 1.05076-3.77238 0.17226z" style="font-feature-settings:normal;font-variant-caps:normal;font-variant-ligatures:normal;font-variant-numeric:normal"/>
  <path d="m366.76426 557.9399q1.51584-0.27561 2.20486 0.48231 0.34451 0.39619 0.37896 0.82683l-4.65088 0.44786q-0.0689-0.32728 0.13781-0.72347 0.43063-0.75792 1.92925-1.03353zm-0.70625 7.25193q-0.89572-0.49954-1.223-1.37804-0.17226-0.43064-0.15503-0.77515l11.55829-1.37804q-0.39618-2.32544-1.98093-4.51307-3.20394-4.3925-9.2673-3.82406-3.46233 0.32729-5.47771 2.79053-1.8259 2.20486-1.99815 5.42603-0.18948 3.11781 1.22301 5.70163 1.51584 2.7733 4.23746 3.6518 4.71979 1.55029 9.07783-0.68902 2.18764-1.11966 3.41065-2.53214l-3.70348-3.85851q-0.8096 0.68902-1.92926 1.20578-2.22208 1.05076-3.77238 0.17226z" style="font-feature-settings:normal;font-variant-caps:normal;font-variant-ligatures:normal;font-variant-numeric:normal"/>
  <path d="m383.40408 548.68982-6.78684-0.0172 0.31006 22.5137h5.90834l0.18948-4.04798 1.53306-1.98093 3.65181 5.78776 7.42418-0.0344-6.2184-9.09506 6.70071-8.21655-7.76869-0.15503-4.94371 5.21932z" style="font-feature-settings:normal;font-variant-caps:normal;font-variant-ligatures:normal;font-variant-numeric:normal"/>
 </g>
 <rect x="186.79163" y="7.674859" width="79.358124" height="24.206867" ry="7.6982436" fill="#ffc107"/>
 <path transform="scale(.26458334)" d="m705.98438 100.23438v186.23828c-1e-5 5.40142 4.34857 9.75 9.75 9.75h280.43554c5.40138 0 9.74998-4.34858 9.74998-9.75v-186.23828h-299.93552z" fill="#fff" stroke-width="5.35215139"/>
 <g transform="matrix(.95256542 0 0 .95119597 -47.029624 -674.86113)" fill="#2196f3" stroke-width="1.10757232" aria-label="18">
  <path d="m278.41771 743.58647-9.34514 0.25959-2.56703 2.10554v8.85481l2.30744-1.06719 0.25959 27.92005h10.09506z" style="font-feature-settings:normal;font-variant-caps:normal;font-variant-ligatures:normal;font-variant-numeric:normal"/>
  <path d="m294.82939 770.29512q-0.95182 0-1.55752-0.54802-0.51918-0.46149-0.60571-1.18256-0.0577-0.69224 0.40381-1.15372 0.46149-0.54802 1.4133-0.57686 1.29794-0.0289 1.99017 0.51917 0.57686 0.46149 0.54802 1.18256-0.0288 0.69224-0.6057 1.21141-0.63455 0.54802-1.58637 0.54802zm-1.15372-18.92103q0.92298-0.2019 1.47099 0.14422 0.49034 0.34611 0.51918 0.98066 0.0288 0.63455-0.37496 1.06719-0.49033 0.54802-1.32678 0.54802t-1.32678-0.37496q-0.49033-0.31727-0.51917-0.8076-0.14422-1.15373 1.55752-1.55753zm6.98001 7.84531q2.13439-4.00919 2.42282-8.1049 0.66339-8.16257-8.53754-8.50869-3.54769-0.14421-6.23009 1.75943-2.45166 1.73058-3.51885 4.61488-1.00951 2.85546-0.28843 5.59555 0.77876 2.94199 3.34579 4.64373-2.33629 1.87479-4.32646 4.64372-4.00918 5.50902-2.42281 10.00853 1.38447 3.9515 4.67257 6.432 3.0862 2.2786 7.00886 2.74009 3.86496 0.46149 7.35497-1.03835 3.69191-1.61521 5.79745-5.01869 3.77843-6.08588-0.37496-12.54672-2.0767-3.23042-4.90332-5.22058z" style="font-feature-settings:normal;font-variant-caps:normal;font-variant-ligatures:normal;font-variant-numeric:normal"/>
 </g>
 <g transform="matrix(.95188045 0 0 .95188045 -47.029624 -674.86113)" stroke-width="1.4876765">
  <path d="m300.72502 709.60658c-1.68226 0-3.21867 0.58126-4.46625 1.52377 0.795 0.60207 1.4575 1.3558 1.95772 2.22247 0.71609-0.48761 1.57956-0.77303 2.50853-0.77303 2.46239 0 4.46625 2.00098 4.46625 4.45983 0 2.45884-2.00386 4.45982-4.46625 4.45982-0.82326 0-1.48873 0.6645-1.48873 1.48659 0 0.82212 0.66547 1.48662 1.48873 1.48662 4.1045 0 7.44374-3.33447 7.44374-7.43303 0-4.0986-3.33924-7.43304-7.44374-7.43304z" fill="#afb6bb"/>
  <path d="m294.30108 713.35282c-0.63121 1.09118-1.0198 2.33845-1.0198 3.6868h2.97749c0-1.53121-0.7771-2.88254-1.95769-3.6868z" fill="#839594"/>
  <path d="m285.36861 713.35282c-0.63124 1.09118-1.01979 2.33845-1.01979 3.6868h2.97748c0-1.53121-0.77712-2.88254-1.95769-3.6868z" fill="#839594"/>
  <path d="m298.21649 713.35282c-0.50169-0.86667-1.16272-1.6204-1.95772-2.22247-1.24754-0.94251-2.78395-1.52377-4.46622-1.52377-1.68229 0-3.21866 0.58126-4.46625 1.52377 0.795 0.60207 1.45747 1.3558 1.95771 2.22247 0.71609-0.48761 1.57955-0.77303 2.50854-0.77303 0.92898 0 1.79244 0.28542 2.50853 0.77303 1.18059 0.80426 1.95769 2.15559 1.95769 3.6868 0 2.45884-2.00383 4.45982-4.46622 4.45982-0.82329 0-1.48875 0.6645-1.48875 1.48659 0 0.82212 0.66546 1.48662 1.48875 1.48662 4.10447 0 7.44374-3.33447 7.44374-7.43303 0-1.34835-0.38858-2.59562-1.0198-3.6868z" fill="#afb6bb"/>
  <path d="m276.43611 713.35282c-0.63121 1.09118-1.01979 2.33845-1.01979 3.6868h2.97749c0-1.53121-0.7771-2.88254-1.9577-3.6868z" fill="#839594"/>
  <path d="m289.28401 713.35282c-0.50171-0.86667-1.16271-1.6204-1.95771-2.22247-1.24757-0.94251-2.78395-1.52377-4.46624-1.52377-1.68227 0-3.21867 0.58126-4.46625 1.52377 0.795 0.60207 1.4575 1.3558 1.95773 2.22247 0.71606-0.48761 1.57955-0.77303 2.50852-0.77303s1.79246 0.28542 2.50855 0.77303c1.18057 0.80426 1.95769 2.15559 1.95769 3.6868 0 2.45884-2.00385 4.45982-4.46624 4.45982-0.82327 0-1.48873 0.6645-1.48873 1.48659 0 0.82212 0.66546 1.48662 1.48873 1.48662 4.10449 0 7.44374-3.33447 7.44374-7.43303 0-1.34835-0.38855-2.59562-1.01979-3.6868z" fill="#afb6bb"/>
  <path d="m280.35154 713.35282c-0.50171-0.86667-1.16273-1.6204-1.95773-2.22247-1.24755-0.94251-2.78395-1.52377-4.46621-1.52377-4.1045 0-7.44374 3.33444-7.44374 7.43304h2.97749c0-2.45885 2.00386-4.45983 4.46625-4.45983 0.92896 0 1.79242 0.28542 2.50851 0.77303 1.1806 0.80426 1.9577 2.15559 1.9577 3.6868 0 2.45884-2.00383 4.45982-4.46621 4.45982-0.82331 0-1.48877 0.6645-1.48877 1.48659 0 0.82212 0.66546 1.48662 1.48877 1.48662 4.10445 0 7.44373-3.33447 7.44373-7.43303 0-1.34835-0.38858-2.59562-1.01979-3.6868z" fill="#afb6bb"/>
 </g>
 <rect x="249.03995" y="10.747973" width="12.867064" height="5.8109317" ry="2.9054658" fill="#ffe9a9"/>
</svg>
