<?xml version="1.0" encoding="UTF-8" standalone="no"?>
<!-- Created with Inkscape (http://www.inkscape.org/) -->

<svg
   xmlns:dc="http://purl.org/dc/elements/1.1/"
   xmlns:cc="http://creativecommons.org/ns#"
   xmlns:rdf="http://www.w3.org/1999/02/22-rdf-syntax-ns#"
   xmlns:svg="http://www.w3.org/2000/svg"
   xmlns="http://www.w3.org/2000/svg"
   xmlns:xlink="http://www.w3.org/1999/xlink"
   xmlns:sodipodi="http://sodipodi.sourceforge.net/DTD/sodipodi-0.dtd"
   xmlns:inkscape="http://www.inkscape.org/namespaces/inkscape"
   width="452.94138mm"
   height="218.28125mm"
   version="1.1"
   viewBox="0 0 452.94138 218.28125"
   id="svg2963"
   sodipodi:docname="diasSemana.svg"
   inkscape:version="0.92.2 5c3e80d, 2017-08-06">
  <sodipodi:namedview
     pagecolor="#ffffff"
     bordercolor="#666666"
     borderopacity="1"
     objecttolerance="10"
     gridtolerance="10"
     guidetolerance="10"
     inkscape:pageopacity="0"
     inkscape:pageshadow="2"
     inkscape:window-width="1920"
     inkscape:window-height="1031"
     id="namedview2965"
     showgrid="false"
     fit-margin-top="0"
     fit-margin-left="0"
     fit-margin-right="0"
     fit-margin-bottom="0"
     inkscape:zoom="0.25798937"
     inkscape:cx="572.78283"
     inkscape:cy="326.95608"
     inkscape:window-x="0"
     inkscape:window-y="0"
     inkscape:window-maximized="0"
     inkscape:current-layer="svg2963" />
  <defs
     id="defs2861">
    <pattern
       inkscape:collect="always"
       xlink:href="#pattern16540"
       id="pattern16697"
       patternTransform="matrix(0.26458333,0,0,0.26458333,705.97861,326.9417)" />
    <pattern
       inkscape:collect="always"
       xlink:href="#pattern16540"
       id="pattern16695"
       patternTransform="matrix(0.26458333,0,0,0.26458333,583.73428,266.31062)" />
    <pattern
       id="pattern3065"
       patternTransform="matrix(0.26458334,0,0,0.26458334,232.56312,291.67823)"
       xlink:href="#pattern2268" />
    <pattern
       id="pattern3063"
       patternTransform="matrix(0.26458334,0,0,0.26458334,110.31879,231.04716)"
       xlink:href="#pattern2268" />
    <pattern
       id="pattern2268"
       width="707.99999"
       height="249.99998"
       patternTransform="matrix(.26458334 0 0 .26458334 253.21913 717.17254)"
       patternUnits="userSpaceOnUse">
      <path
         d="m0 0v32.734374l13.640579-32.734374zm29.974601 0 13.584 16.111332l12.413971-16.111332zm45.615193 0 7.876989 28.083968-21.093808-15.392579-24.515602 51.880855-5.132788-37.6289-32.724585 13.294942v44.57227l46.978506 44.187474 18.814488-77.539045 38.199196 50.742195-7.457086-102.20118zm42.236406 0 25.50388 33.214828 36.8183-33.214828zm100.07607 0 95.89651 61.152339-118.58588-42.75976-54.7324 78.107413-22.2364-46.749996 1.711 113.455064-47.890698-78.107411-22.234318 78.677741-37.6289-45.61134-12.201184 9.03908v80.64647l82.326197-45.78516 25.085893 68.98631 74.68751-155.646455 112.31637 104.333965 51.88089-91.790999 41.6191 20.525409 18.81453-96.921905 116.8769 66.134777 6.27148-59.292963 72.40622 17.103496 20.17776-35.496075h-119.92576l7.38667 40.626935-15.39258-18.24412-1.14059 16.533203-45.6113-26.794922 30.78709 7.412107-1.70899-15.3945448 22.23439 9.6933538 0.2657-13.832012h-176.99799l40.47069 36.636699-68.4141 86.089851-73.54688-47.890621 67.8438 17.103534 61.57421-51.882821-62.14261-17.673827 29.07621-1.140623-5.40042-21.242192zm416.95509 0 10.75782 112.4629-93.50192-57.582044 18.81441 75.257804-152.22458-48.462882-8.55081 90.652342-46.75188-35.34962-72.4063 91.22071-85.51952-72.40626s-63.25531 67.36747-91.2031 94.20703h74.832c-2.0516-14.3913-7.70498-39.45902-6.43359-37.76368 1.71039 2.28053 39.33789 18.24416 39.33789 18.24416l2.85162-21.09377 37.84569 40.61329h89.83589c4.58861-27.93947 13.14059-80.52344 13.14059-80.52344l7.41211 37.62891 21.0938-19.38475-34.94728 62.27928h44.5059l37.19327-62.27928 54.1621 41.61914 3.99031-89.50976s47.89089 87.22953 49.03121 84.3789c1.14017-2.85067 54.73247-69.55468 54.73247-69.55468l17.1035 64.99411 75.82813-26.79685-24.26763 57.14842h36.48053v-137.95506l-23.04492 54.01172 0.5703-36.48828-45.61142 43.89842 48.46103-90.080085-18.2442 1.710954 37.86921-59.509757v-25.587892zm73.14263 64.787111-6.51171 35.703119 6.51171-6.511712zm-641.06641 130.915989-45.841776 54.29688h76.068282c-8.989303-18.76664-30.226506-54.29688-30.226506-54.29688zm515.96681 27.93555-19.5391 26.36133h22.34377zm-132.2696 3.42187-31.50391 22.93946h53.43561zm205.81637 5.13086-26.82607 17.8086h28.44529zm-137.97067 2.84961-6.21672 14.95899h17.72262z"
         fill="#00e760"
         id="path2858" />
    </pattern>
    <pattern
       id="pattern19411"
       width="700.00004"
       height="700.00068"
       patternTransform="matrix(.26458333 0 0 .26458333 816.11346 -407.95013)"
       patternUnits="userSpaceOnUse">
      <path
         d="m3.7795276e-5 6.8031497e-4v65.61717269l54.2657022-3.945297-34.691377-61.67187569zm60.9102252 0l29.599597 16.97072169-2.951206-16.97072169zm38.728479 0l25.908208 53.21484169-66.449198-25.371099 45.910108 67.656266-65.240199-3.625021-1.208996 70.074252-38.5586272-18.36136v40.91407l32.5176192 7.65041-32.5176192 34.55078v33.45898l140.0450322-177.951195-16.91611 154.644555 108.7344-68.86523 4.83398 102.69336 47.11722-83.3633 57.9922 57.9922 70.07218-32.6211-82.15427 77.32225-22.95504-49.53513-97.86138 91.8203 1.209-95.44335-138.937519 61.61522 22.955112-125.64843-94.1348052 93.14256v89.8125l53.0567062-88.71874-14.498079 79.73828 118.400395-60.40819-108.734404 95.44532 97.859374 19.33005-113.566373 12.08206 26.580095 22.95507-59.0977142 17.20509v75.05859l97.7578222-80.18359c6.05e-4 0 90.61217 76.11387 91.82037 71.28125 1.20813-4.83262 93.02733-218.6758 93.02733-218.6758s84.5723 175.18228 84.5723 170.34962c0-4.83261 96.65231-128.06445 96.65231-128.06445l-89.40431 268.21093-103.90042-147.39451-45.91008 153.43551-105.10942-44.70115-14.5449 127.27733h31.91792c-0.912-31.53037-1.66791-100.6992-1.66791-100.6992l13.29101 61.61719 10.87299-38.66212 21.01179 77.74413h36.80069l-44.52336-53.58006 72.49017 21.74608 37.45122-97.86134 72.49021 102.69336 113.56638-96.65231 4.83208 93.02929 96.65231-33.82813-4.47458 64.45311h70.40429c4.2209-36.25844 12.60162-98.28321 12.60162-98.28321l-124.43951 13.29105 84.5703-167.9336-117.1914 2.41599 94.2364-109.94336-236.7989-31.41015 146.18748-126.85742-193.3047 3.62498 93.02741-90.611301-198.13671 18.121101 119.38469-112.4140797h-25.65037l-28.49412 24.21875969 12.74612-24.21875969h-32.87702l-66.85739 74.96092169 73.69732-32.619138-91.81841 77.322296 8.45711 44.70115 48.3261-3.62498-68.86523 31.41211 2.14651-192.1523597zm59.988318 0l14.2461 27.84374269 53.30079-27.84374269zm244.4902 0l-74.39259 62.88087069 109.94147-12.082054-19.33009 86.986323 166.72649-12.08005-143.77138 154.64258 90.6113-28.99612-20.53912 51.9512 100.2774-13.28909-8.45711 113.56642 94.81641 10.6094v-77.18166l-48.90618 25.49412-2.41599-90.6113-70.07233-7.24804 43.4922-43.49416-78.52929 3.62498 106.31641-125.648429h-85.77732l16.91403-35.03709-105.10942 32.621103 36.6172-96.70900369h-24.45309l-35.11911 88.25197069 18.1211-65.240241-50.7422 3.623017 16.82218-26.63474669zm48.29889 0l1.74799 10.92967569 12.21483-10.92967569zm82.87892 0l15.52138 35.09178069 26.46289-35.09178069zm74.45499 0 3.89068 44.75780869 86.3593 10.160164v-22.744139l-62.1953-1.914066 6.05079-30.25976769zm45.93169 0 9.91011 21.80273469 34.40818 7.373064v-29.17579869zm-655.6817122 90.31642369v30.148426l14.3965232-2.00977zm700.0000022 10.281226l-82.73428 92.76366 76.11319-37.45311-41.0761 90.61134 47.69719-15.14064zm-599.82419 8.19337-33.830097 20.53712-13.289009 41.0781 2.415988-51.95116zm224.71681 15.70507-68.86523 72.49025 7.248-36.24609-82.15427-35.03516 84.5703 16.91406zm-324.8926222 64.03321v32.41603l11.9804982-23.95899zm700.0000022 85.60744l-25.95107 47.28903 25.95107-5.19141zm-398.0625 12.25194 44.70119 79.73828-7.248-39.86914 36.24413 28.99608-6.04101-36.24412 48.32621 30.20312 26.57998-9.66603-25.3711 27.78905-32.6211-31.41211 4.83212 48.32621-27.78712-33.82813v74.9043zm-106.3183 21.74804-24.16411 109.9414 76.11531-95.44532-67.65631 148.60354-62.82417-37.45315 37.45118 2.41799 7.25001-74.90627-60.40831 7.24808zm291.166 38.66015 68.86523 1.209-57.9922 9.66406-22.955 38.66211-2.4161-4.83398zm16.91411 32.61914-38.66219 126.85742 43.4942-31.4121-4.83201 56.7832 59.19919-55.57421-68.8653 131.68751-21.74607-82.1543-51.95112 35.03709zm196.30069 100.90235-100.85738 74.28125 90.61131-3.62498-10.87302 82.15427 21.11909-8.63864zm-700.0000022 130.62305v89.05859h68.1446192zm436.0430122 28.22853-55.22661 60.83006h56.12111zm-144.97849 15.70704-27.4981 45.12302h64.02538zm408.93548 1.60936c-15.69498 15.20867-31.6345 30.88388-43.94328 43.51366h43.94328zm-543.04098 12.88868-12.89651 30.62498h32.14651zm382.98441 3.62302-57.37894 27.00196h70.55082zm-539.94347-672.99872h700.00004v699.99996h-700.00004z"
         fill="#00e760"
         id="path17369" />
    </pattern>
    <pattern
       id="pattern19411-0"
       width="700.00004"
       height="700.00068"
       patternTransform="matrix(.26458333 0 0 .26458333 816.11346 -407.95013)"
       patternUnits="userSpaceOnUse">
      <path
         d="m3.7795276e-5 6.8031497e-4v65.61717269l54.2657022-3.945297-34.691377-61.67187569zm60.9102252 0l29.599597 16.97072169-2.951206-16.97072169zm38.728479 0l25.908208 53.21484169-66.449198-25.371099 45.910108 67.656266-65.240199-3.625021-1.208996 70.074252-38.5586272-18.36136v40.91407l32.5176192 7.65041-32.5176192 34.55078v33.45898l140.0450322-177.951195-16.91611 154.644555 108.7344-68.86523 4.83398 102.69336 47.11722-83.3633 57.9922 57.9922 70.07218-32.6211-82.15427 77.32225-22.95504-49.53513-97.86138 91.8203 1.209-95.44335-138.937519 61.61522 22.955112-125.64843-94.1348052 93.14256v89.8125l53.0567062-88.71874-14.498079 79.73828 118.400395-60.40819-108.734404 95.44532 97.859374 19.33005-113.566373 12.08206 26.580095 22.95507-59.0977142 17.20509v75.05859l97.7578222-80.18359c6.05e-4 0 90.61217 76.11387 91.82037 71.28125 1.20813-4.83262 93.02733-218.6758 93.02733-218.6758s84.5723 175.18228 84.5723 170.34962c0-4.83261 96.65231-128.06445 96.65231-128.06445l-89.40431 268.21093-103.90042-147.39451-45.91008 153.43551-105.10942-44.70115-14.5449 127.27733h31.91792c-0.912-31.53037-1.66791-100.6992-1.66791-100.6992l13.29101 61.61719 10.87299-38.66212 21.01179 77.74413h36.80069l-44.52336-53.58006 72.49017 21.74608 37.45122-97.86134 72.49021 102.69336 113.56638-96.65231 4.83208 93.02929 96.65231-33.82813-4.47458 64.45311h70.40429c4.2209-36.25844 12.60162-98.28321 12.60162-98.28321l-124.43951 13.29105 84.5703-167.9336-117.1914 2.41599 94.2364-109.94336-236.7989-31.41015 146.18748-126.85742-193.3047 3.62498 93.02741-90.611301-198.13671 18.121101 119.38469-112.4140797h-25.65037l-28.49412 24.21875969 12.74612-24.21875969h-32.87702l-66.85739 74.96092169 73.69732-32.619138-91.81841 77.322296 8.45711 44.70115 48.3261-3.62498-68.86523 31.41211 2.14651-192.1523597zm59.988318 0l14.2461 27.84374269 53.30079-27.84374269zm244.4902 0l-74.39259 62.88087069 109.94147-12.082054-19.33009 86.986323 166.72649-12.08005-143.77138 154.64258 90.6113-28.99612-20.53912 51.9512 100.2774-13.28909-8.45711 113.56642 94.81641 10.6094v-77.18166l-48.90618 25.49412-2.41599-90.6113-70.07233-7.24804 43.4922-43.49416-78.52929 3.62498 106.31641-125.648429h-85.77732l16.91403-35.03709-105.10942 32.621103 36.6172-96.70900369h-24.45309l-35.11911 88.25197069 18.1211-65.240241-50.7422 3.623017 16.82218-26.63474669zm48.29889 0l1.74799 10.92967569 12.21483-10.92967569zm82.87892 0l15.52138 35.09178069 26.46289-35.09178069zm74.45499 0 3.89068 44.75780869 86.3593 10.160164v-22.744139l-62.1953-1.914066 6.05079-30.25976769zm45.93169 0 9.91011 21.80273469 34.40818 7.373064v-29.17579869zm-655.6817122 90.31642369v30.148426l14.3965232-2.00977zm700.0000022 10.281226l-82.73428 92.76366 76.11319-37.45311-41.0761 90.61134 47.69719-15.14064zm-599.82419 8.19337-33.830097 20.53712-13.289009 41.0781 2.415988-51.95116zm224.71681 15.70507-68.86523 72.49025 7.248-36.24609-82.15427-35.03516 84.5703 16.91406zm-324.8926222 64.03321v32.41603l11.9804982-23.95899zm700.0000022 85.60744l-25.95107 47.28903 25.95107-5.19141zm-398.0625 12.25194 44.70119 79.73828-7.248-39.86914 36.24413 28.99608-6.04101-36.24412 48.32621 30.20312 26.57998-9.66603-25.3711 27.78905-32.6211-31.41211 4.83212 48.32621-27.78712-33.82813v74.9043zm-106.3183 21.74804-24.16411 109.9414 76.11531-95.44532-67.65631 148.60354-62.82417-37.45315 37.45118 2.41799 7.25001-74.90627-60.40831 7.24808zm291.166 38.66015 68.86523 1.209-57.9922 9.66406-22.955 38.66211-2.4161-4.83398zm16.91411 32.61914-38.66219 126.85742 43.4942-31.4121-4.83201 56.7832 59.19919-55.57421-68.8653 131.68751-21.74607-82.1543-51.95112 35.03709zm196.30069 100.90235-100.85738 74.28125 90.61131-3.62498-10.87302 82.15427 21.11909-8.63864zm-700.0000022 130.62305v89.05859h68.1446192zm436.0430122 28.22853-55.22661 60.83006h56.12111zm-144.97849 15.70704-27.4981 45.12302h64.02538zm408.93548 1.60936c-15.69498 15.20867-31.6345 30.88388-43.94328 43.51366h43.94328zm-543.04098 12.88868-12.89651 30.62498h32.14651zm382.98441 3.62302-57.37894 27.00196h70.55082zm-539.94347-672.99872h700.00004v699.99996h-700.00004z"
         fill="#00e760"
         id="path17492" />
    </pattern>
    <pattern
       id="pattern8046"
       patternTransform="matrix(-.26458333 0 0 .26458333 3423.5761 115.27505)"
       xlink:href="#pattern7944" />
    <pattern
       id="pattern7944"
       patternTransform="matrix(-.26458333 0 0 .26458333 3423.5761 -218.52939)"
       xlink:href="#pattern19016" />
    <pattern
       id="pattern19016"
       width="700.00004"
       height="700"
       patternTransform="matrix(.26458333 0 0 .26458333 -641.01794 -218.52937)"
       patternUnits="userSpaceOnUse">
      <path
         d="m0 0v39.595692l21.67578 12.042974 5.867187-51.638666zm40.310552 0 39.648417 50.142577 33.429691-50.142577zm94.511698 0 19.86134 127.85549 45.9707-127.85549zm71.24999 0 63.68557 91.988298v-83.6894758l86.67969 50.8105708 14.53516-59.109393zm176.42386 0 11.30271 99.460953-76.21875-23.912126-26.90037 109.097653-55.29494-101.624998-25.40625 98.634788-13.45115-61.27344s-28.39518 109.09637-34.37307 115.07422c-5.97789 5.97789-53.80078-188.302756-53.80078-188.302756l-41.843754 65.757806-22.417966-52.306618-10.460938 64.261718-33.630842-46.957038v90.203118l38.113286-17.83983-4.482444 47.82225 67.251968-73.2285-29.89062 85.18553 70.24022 26.90041-82.195319 13.44922 16.439471-22.41604-75.476562 54.44141v88.67385l15.697248-4.13088 25.406249-94.15037 44.834004 65.75584 40.349599-76.21678 79.20703 28.39453 37.36327-94.15234 28.39454 92.65818 52.30666-91.16406 50.81249 46.32813 2.98829-112.08397 64.26172 13.44922 23.91213-112.084008 67.25197 70.240248 53.80078-67.251965 34.37302 76.218745 79.04104-40.796861v-72.115239h-15.86135l-36.27928 72.560543-22.41796-52.306621 19.42772 11.955061 29.59767-32.208983h-90.68947l-30.0703 44.16601-7.47265-23.912088-25.40625 40.35156-15.15043-60.605482zm135.87893 0 11.41992 14.275389 25.37888-14.275389zm181.62501 79.503913-88.00781 93.185537-23.91213-70.24021-80.70115 68.74609-22.41801-89.667971-40.34959 144.962871-29.89066-62.76756-25.40625 158.41407-41.84376-67.25001-85.18552 89.66797-26.90041-68.74609-17.9336 70.24022-73.23046-50.8125-59.77735 109.09765-32.878904-70.24022-26.900372 86.67969-24.664064-30.58397v146.76756l56.04688-104.22853 38.857399 46.32813 53.800781-88.17381 41.84572 46.32813 14.94335-58.28323 41.84572 74.72266 76.21875-130.01953 19.42771 131.51369 56.78907 5.9785-89.66797 55.29494 8.96681-146.45704-70.24025 146.45704-38.85547-73.22854-20.92188 49.31838-32.8789-58.28516-67.251935 138.98631-19.427755-61.27344-69.49803 55.80862v56.0781l53.058596-38.65818 22.417966 85.18553 68.744128-113.58006 64.26369 38.85547-50.8125 43.33984-5.97854-47.82228-11.95506 61.27343 116.56835 2.98829-24.15625 44.5957h59.25978l-17.16994-46.08983 46.32813 28.39454 29.89062-59.77932 16.43947 52.30666 43.33984-26.90041-15.36329 52.06836h78.23048l10.36135-38.61717-44.834 11.95506 17.93363-71.73438-77.71295 14.94532 8.96682-65.75781-76.21875 71.73437-19.42776-38.85547-13.44922 41.84572-77.71287-82.19728 64.26172 31.38478 22.41797-52.30666 25.40625 44.83401 137.49025-92.65626-43.33988 106.10741 71.73442-16.43944 2.99025 65.75585 61.27343-28.39454-61.95314 98.39649h218.70705v-111.62109c-20.10554 29.56664-43.35742 63.84182-46.1641 68.51955-4.48338 7.47235-16.43943-47.82229-16.43943-47.82229l-74.72266 56.78907-1.49412-147.95116-44.83401 49.31641 5.97657-83.68948-56.78906 46.32813 23.91212-109.09569-53.80082 5.97657-67.25197-25.40625 153.92973-68.74417-85.18364-31.38474 91.16217-37.36135-50.8125-50.8125 116.56835 49.31838-22.416-52.30666 58.28515 28.39453 32.87694-67.25193 37.19728 59.13475zm-700.00004 126.222657v59.0547l23.169903-42.77344zm665.79301 37.20314-31.38478 52.30662-82.19532-20.92188 28.39454 43.33984-124.041 82.19532 77.71287-20.92188 16.43947 116.56838 32.87694-44.834 17.93359 143.46875 47.82422-59.77928 7.47265 56.791 43.17385-25.34177v-98.3926l-80.53712 63.95509 35.86718-77.71291-77.71094-44.83397 76.21678-20.92187-32.87694-38.85744 79.04104-25.09179v-68.07228zm-304.8731 88.17381 14.94531 20.92384 74.72269-11.95703-91.16213 32.87891zm339.08013 7.96093-17.76956 23.42385 17.76956 10.49998zm0 52.43361-46.1641 29.27539 46.1641 20.51758zm-675.335976 259.42383-24.664064 2.125v46.95311h29.476536zm82.195316 20.92188-38.048846 28.15623h94.363276zm239.11522 8.96678-16.86327 19.18945h29.16404z"
         fill="#fccf5f"
         id="path17623" />
    </pattern>
    <pattern
       id="pattern8046-1"
       patternTransform="matrix(-.26458333 0 0 .26458333 3423.5761 115.27505)"
       xlink:href="#pattern7944-7" />
    <pattern
       id="pattern7944-7"
       patternTransform="matrix(-.26458333 0 0 .26458333 3423.5761 -218.52939)"
       xlink:href="#pattern19016-6" />
    <pattern
       id="pattern19016-6"
       width="700.00004"
       height="700"
       patternTransform="matrix(.26458333 0 0 .26458333 -641.01794 -218.52937)"
       patternUnits="userSpaceOnUse">
      <path
         d="m0 0v39.595692l21.67578 12.042974 5.867187-51.638666zm40.310552 0 39.648417 50.142577 33.429691-50.142577zm94.511698 0 19.86134 127.85549 45.9707-127.85549zm71.24999 0 63.68557 91.988298v-83.6894758l86.67969 50.8105708 14.53516-59.109393zm176.42386 0 11.30271 99.460953-76.21875-23.912126-26.90037 109.097653-55.29494-101.624998-25.40625 98.634788-13.45115-61.27344s-28.39518 109.09637-34.37307 115.07422c-5.97789 5.97789-53.80078-188.302756-53.80078-188.302756l-41.843754 65.757806-22.417966-52.306618-10.460938 64.261718-33.630842-46.957038v90.203118l38.113286-17.83983-4.482444 47.82225 67.251968-73.2285-29.89062 85.18553 70.24022 26.90041-82.195319 13.44922 16.439471-22.41604-75.476562 54.44141v88.67385l15.697248-4.13088 25.406249-94.15037 44.834004 65.75584 40.349599-76.21678 79.20703 28.39453 37.36327-94.15234 28.39454 92.65818 52.30666-91.16406 50.81249 46.32813 2.98829-112.08397 64.26172 13.44922 23.91213-112.084008 67.25197 70.240248 53.80078-67.251965 34.37302 76.218745 79.04104-40.796861v-72.115239h-15.86135l-36.27928 72.560543-22.41796-52.306621 19.42772 11.955061 29.59767-32.208983h-90.68947l-30.0703 44.16601-7.47265-23.912088-25.40625 40.35156-15.15043-60.605482zm135.87893 0 11.41992 14.275389 25.37888-14.275389zm181.62501 79.503913-88.00781 93.185537-23.91213-70.24021-80.70115 68.74609-22.41801-89.667971-40.34959 144.962871-29.89066-62.76756-25.40625 158.41407-41.84376-67.25001-85.18552 89.66797-26.90041-68.74609-17.9336 70.24022-73.23046-50.8125-59.77735 109.09765-32.878904-70.24022-26.900372 86.67969-24.664064-30.58397v146.76756l56.04688-104.22853 38.857399 46.32813 53.800781-88.17381 41.84572 46.32813 14.94335-58.28323 41.84572 74.72266 76.21875-130.01953 19.42771 131.51369 56.78907 5.9785-89.66797 55.29494 8.96681-146.45704-70.24025 146.45704-38.85547-73.22854-20.92188 49.31838-32.8789-58.28516-67.251935 138.98631-19.427755-61.27344-69.49803 55.80862v56.0781l53.058596-38.65818 22.417966 85.18553 68.744128-113.58006 64.26369 38.85547-50.8125 43.33984-5.97854-47.82228-11.95506 61.27343 116.56835 2.98829-24.15625 44.5957h59.25978l-17.16994-46.08983 46.32813 28.39454 29.89062-59.77932 16.43947 52.30666 43.33984-26.90041-15.36329 52.06836h78.23048l10.36135-38.61717-44.834 11.95506 17.93363-71.73438-77.71295 14.94532 8.96682-65.75781-76.21875 71.73437-19.42776-38.85547-13.44922 41.84572-77.71287-82.19728 64.26172 31.38478 22.41797-52.30666 25.40625 44.83401 137.49025-92.65626-43.33988 106.10741 71.73442-16.43944 2.99025 65.75585 61.27343-28.39454-61.95314 98.39649h218.70705v-111.62109c-20.10554 29.56664-43.35742 63.84182-46.1641 68.51955-4.48338 7.47235-16.43943-47.82229-16.43943-47.82229l-74.72266 56.78907-1.49412-147.95116-44.83401 49.31641 5.97657-83.68948-56.78906 46.32813 23.91212-109.09569-53.80082 5.97657-67.25197-25.40625 153.92973-68.74417-85.18364-31.38474 91.16217-37.36135-50.8125-50.8125 116.56835 49.31838-22.416-52.30666 58.28515 28.39453 32.87694-67.25193 37.19728 59.13475zm-700.00004 126.222657v59.0547l23.169903-42.77344zm665.79301 37.20314-31.38478 52.30662-82.19532-20.92188 28.39454 43.33984-124.041 82.19532 77.71287-20.92188 16.43947 116.56838 32.87694-44.834 17.93359 143.46875 47.82422-59.77928 7.47265 56.791 43.17385-25.34177v-98.3926l-80.53712 63.95509 35.86718-77.71291-77.71094-44.83397 76.21678-20.92187-32.87694-38.85744 79.04104-25.09179v-68.07228zm-304.8731 88.17381 14.94531 20.92384 74.72269-11.95703-91.16213 32.87891zm339.08013 7.96093-17.76956 23.42385 17.76956 10.49998zm0 52.43361-46.1641 29.27539 46.1641 20.51758zm-675.335976 259.42383-24.664064 2.125v46.95311h29.476536zm82.195316 20.92188-38.048846 28.15623h94.363276zm239.11522 8.96678-16.86327 19.18945h29.16404z"
         fill="#fccf5f"
         id="path17756" />
    </pattern>
    <pattern
       id="pattern19315"
       width="700.00001"
       height="699.99998"
       patternTransform="matrix(.26458333 0 0 .26458333 615.05186 -407.90118)"
       patternUnits="userSpaceOnUse">
      <path
         d="m0 0v52.7304l62.0019-13.7773 19.078101-38.9531zm200.8281 0 30.0098 43.1386-117.209-26.5117-19.535199 79.535201-94.093701-35.437501v128.1191l14.5586 4.9922 20.9316-75.3476 75.3477 71.1621 55.8144-129.7676 78.1387 62.791 40.4668-100.4648 62.789 16.7441 5.6661-38.9531zm171.793 0 47.9843 135.2324-122.791-58.605499-40.4648 119.999999-73.9531-80.9297-50.2325 128.3711-89.3027-50.2324-43.8613 68.5352v74.582l57.8144-102.6504 99.0703 101.8594-85.115199-26.5117 69.767599 120 5.5801-60 53.0234 83.7207-89.3027 6.9765 11.164 80.9317-96.2793-125.5821 69.767601 9.7676-26.5117-54.418-43.255901 8.3711 27.9063-72.5586-53.6289 40.8047v101.7442l42.4668 26.289-18.1407 26.5118 97.6758 65.58199-85.1172-19.53516 60.000001 82.32423-58.603501-33.48829 25.449201 102.90821h46.197299l-47.9258-66.6289 54.418 13.95312-19.535199 5.58203 26.511799 18.14063-13.9532 8.37109 6.0039 20.58203h35.6153l-38.8282-95.93165 78.1387 18.14064-27.9062-133.95317 97.6738 48.836 39.0703-107.4414 20.9297 138.14059 51.6289-69.76759 72.5566 89.30079 58.6055-161.85939 58.6035 89.3028 34.8848-78.1407 58.60551 120.00002s25.3676-31.70342 44.9746-52.50392v-39.5508l-40.7891 47.4043-40.46481-86.5117 41.85931 46.0469-25.1152-101.8613 43.2559 90.6972-2.7911-46.0449 24.045 25.9688v-28.5059l-71.4864-82.5801-16.74411 75.3496-48.8379-82.3261 30.6973 19.5351 25.1172-58.6055 71.16211 73.9532 10.0918-6.92v-76.3359l-37.9981-66.0449-22.3262 66.9766-51.62891-62.7911-4.1855 85.1153h-55.8145l46.0469 89.3027-136.7441-12.5586 1.3965 73.9551-62.7911-93.4883 126.9766-16.7441-43.2559-85.1172 55.8145 12.5586 69.7676-92.0938 43.25581 43.2559 36.2774-83.7207 35.209 50.666v-108.611299l-44.9746-20.193401-30.6993 104.6504-32.09181-68.373099-43.2558 111.628999-32.0938-97.6739-1.3945 115.8125-142.3262-32.0918 120-64.1855-55.8144-90.6992 62.791 23.7207 46.7129-57.0918zm177.5918 0-5.4219 145 40.4668-108.8379 34.88281 44.652301 16.6055-80.814401zm107.19721 0 42.5899 54.8613v-54.8613zm-253.54881 22.209 47.4414 83.7207 23.7227 11.1621-33.4903 6.9785zm-78.1387 93.4882 57.209 29.3028-33.4883 26.5117 2.791 37.6738 99.0684 30.6973-80.9297-4.1856 82.3262 53.0235-140.9297-33.4883 23.7207-100.4648-47.4434 27.9062zm-135.3496 73.9532 33.4883 73.9531 79.5352-61.3945-34.8829 80.9296 136.7442 22.3262-80.9317 41.8594 107.4434 128.373-150.6992-85.1172-12.5567 58.6055-75.3496-54.4179 55.8145 2.791-11.1641-66.9786 65.5821 32.0938-64.1856-69.7676 18.1387-27.9062-68.3711 48.8359 2.791-53.0215-47.4434 19.5332zm245.582 111.6289 37.6739 22.3242-66.9766 8.373 33.4883-13.9531zm-217.6738 13.9531 4.1856 57.209-92.0938-20.9297 72.5586-1.3965zm274.8828 78.1387 51.627 4.1875-19.5332 11.1621 27.9062 36.2793 20.9297-30.6973-15.3476 64.1856zm-20.9297 29.3027-37.6757 118.6055-47.4414-57.211 44.6523 26.5117zm-262.3261 11.1621 46.0468 43.2559-6.9765 37.6758-71.1641-40.4649 62.791 18.1387zm106.0468 0 47.4415 26.5117-32.0938 68.3731 15.3496-62.791zm-315.955 44.0664v37.5547l20.1406 10.4727zm142.9316 25.7012 22.3262 87.90819-79.535199-5.58203 57.208999-6.97656zm369.7676 19.5351-41.8613 147.90826-90.6973-117.21095-44.6504 69.76759-103.2559-66.97658 22.3243 94.88478-76.7442 4.18555-12.2539 44.30273h67.1778l41.3554-26.16406 1.3965-64.18556 86.5117 41.86134 29.3008-40.46485 45.9766 88.95313h62.0488l41.2773-118.25587 66.9766 68.37111 26.51171-50.23244 6.9766 62.79103 58.9297-19.64258v-110.63283l-37.9981 78.64845-44.65231-64.1875-4.1856 50.23242zm-512.6992 10.4512v34.46291l24.3261 8.10937zm0 57.57033v59.75196l29.9082 1.99414zm550.373 43.60743-42.209 65.23242h70.9121zm-246.9765 13.95313 23.8496 51.27929h38.5781zm87.9062 5.58203-7.6152 45.69726h43.8593zm-391.3027 6.95312v38.74414h41.5605zm620.14061 8.39453-10.31841 30.34961h26.98051zm79.8594 1.63477-16.8457 28.71484h16.8457z"
         fill="#bd39d3"
         id="path17890" />
    </pattern>
    <pattern
       id="pattern19315-4"
       width="700.00001"
       height="699.99998"
       patternTransform="matrix(.26458333 0 0 .26458333 615.05186 -407.90118)"
       patternUnits="userSpaceOnUse">
      <path
         d="m0 0v52.7304l62.0019-13.7773 19.078101-38.9531zm200.8281 0 30.0098 43.1386-117.209-26.5117-19.535199 79.535201-94.093701-35.437501v128.1191l14.5586 4.9922 20.9316-75.3476 75.3477 71.1621 55.8144-129.7676 78.1387 62.791 40.4668-100.4648 62.789 16.7441 5.6661-38.9531zm171.793 0 47.9843 135.2324-122.791-58.605499-40.4648 119.999999-73.9531-80.9297-50.2325 128.3711-89.3027-50.2324-43.8613 68.5352v74.582l57.8144-102.6504 99.0703 101.8594-85.115199-26.5117 69.767599 120 5.5801-60 53.0234 83.7207-89.3027 6.9765 11.164 80.9317-96.2793-125.5821 69.767601 9.7676-26.5117-54.418-43.255901 8.3711 27.9063-72.5586-53.6289 40.8047v101.7442l42.4668 26.289-18.1407 26.5118 97.6758 65.58199-85.1172-19.53516 60.000001 82.32423-58.603501-33.48829 25.449201 102.90821h46.197299l-47.9258-66.6289 54.418 13.95312-19.535199 5.58203 26.511799 18.14063-13.9532 8.37109 6.0039 20.58203h35.6153l-38.8282-95.93165 78.1387 18.14064-27.9062-133.95317 97.6738 48.836 39.0703-107.4414 20.9297 138.14059 51.6289-69.76759 72.5566 89.30079 58.6055-161.85939 58.6035 89.3028 34.8848-78.1407 58.60551 120.00002s25.3676-31.70342 44.9746-52.50392v-39.5508l-40.7891 47.4043-40.46481-86.5117 41.85931 46.0469-25.1152-101.8613 43.2559 90.6972-2.7911-46.0449 24.045 25.9688v-28.5059l-71.4864-82.5801-16.74411 75.3496-48.8379-82.3261 30.6973 19.5351 25.1172-58.6055 71.16211 73.9532 10.0918-6.92v-76.3359l-37.9981-66.0449-22.3262 66.9766-51.62891-62.7911-4.1855 85.1153h-55.8145l46.0469 89.3027-136.7441-12.5586 1.3965 73.9551-62.7911-93.4883 126.9766-16.7441-43.2559-85.1172 55.8145 12.5586 69.7676-92.0938 43.25581 43.2559 36.2774-83.7207 35.209 50.666v-108.611299l-44.9746-20.193401-30.6993 104.6504-32.09181-68.373099-43.2558 111.628999-32.0938-97.6739-1.3945 115.8125-142.3262-32.0918 120-64.1855-55.8144-90.6992 62.791 23.7207 46.7129-57.0918zm177.5918 0-5.4219 145 40.4668-108.8379 34.88281 44.652301 16.6055-80.814401zm107.19721 0 42.5899 54.8613v-54.8613zm-253.54881 22.209 47.4414 83.7207 23.7227 11.1621-33.4903 6.9785zm-78.1387 93.4882 57.209 29.3028-33.4883 26.5117 2.791 37.6738 99.0684 30.6973-80.9297-4.1856 82.3262 53.0235-140.9297-33.4883 23.7207-100.4648-47.4434 27.9062zm-135.3496 73.9532 33.4883 73.9531 79.5352-61.3945-34.8829 80.9296 136.7442 22.3262-80.9317 41.8594 107.4434 128.373-150.6992-85.1172-12.5567 58.6055-75.3496-54.4179 55.8145 2.791-11.1641-66.9786 65.5821 32.0938-64.1856-69.7676 18.1387-27.9062-68.3711 48.8359 2.791-53.0215-47.4434 19.5332zm245.582 111.6289 37.6739 22.3242-66.9766 8.373 33.4883-13.9531zm-217.6738 13.9531 4.1856 57.209-92.0938-20.9297 72.5586-1.3965zm274.8828 78.1387 51.627 4.1875-19.5332 11.1621 27.9062 36.2793 20.9297-30.6973-15.3476 64.1856zm-20.9297 29.3027-37.6757 118.6055-47.4414-57.211 44.6523 26.5117zm-262.3261 11.1621 46.0468 43.2559-6.9765 37.6758-71.1641-40.4649 62.791 18.1387zm106.0468 0 47.4415 26.5117-32.0938 68.3731 15.3496-62.791zm-315.955 44.0664v37.5547l20.1406 10.4727zm142.9316 25.7012 22.3262 87.90819-79.535199-5.58203 57.208999-6.97656zm369.7676 19.5351-41.8613 147.90826-90.6973-117.21095-44.6504 69.76759-103.2559-66.97658 22.3243 94.88478-76.7442 4.18555-12.2539 44.30273h67.1778l41.3554-26.16406 1.3965-64.18556 86.5117 41.86134 29.3008-40.46485 45.9766 88.95313h62.0488l41.2773-118.25587 66.9766 68.37111 26.51171-50.23244 6.9766 62.79103 58.9297-19.64258v-110.63283l-37.9981 78.64845-44.65231-64.1875-4.1856 50.23242zm-512.6992 10.4512v34.46291l24.3261 8.10937zm0 57.57033v59.75196l29.9082 1.99414zm550.373 43.60743-42.209 65.23242h70.9121zm-246.9765 13.95313 23.8496 51.27929h38.5781zm87.9062 5.58203-7.6152 45.69726h43.8593zm-391.3027 6.95312v38.74414h41.5605zm620.14061 8.39453-10.31841 30.34961h26.98051zm79.8594 1.63477-16.8457 28.71484h16.8457z"
         fill="#bd39d3"
         id="path18010" />
    </pattern>
    <path
       style="opacity:1;fill:none;fill-opacity:1;stroke:#000000;stroke-width:0.01322917;stroke-linecap:round;stroke-miterlimit:4;stroke-dasharray:none;stroke-opacity:1"
       d="m 60.897362,191.38296 c 0,0 39.475708,27.78266 85.405978,0"
       id="path5386-9"
       inkscape:connector-curvature="0" />
    <pattern
       id="pattern33148"
       patternTransform="matrix(0.26458334,0,0,0.26458334,-994.51788,2127.1355)"
       height="904.293"
       width="1044.2422"
       patternUnits="userSpaceOnUse">
      <path
         inkscape:connector-curvature="0"
         style="opacity:1;fill:#f27572;fill-opacity:1;stroke:none;stroke-width:10.10801601;stroke-linecap:round;stroke-miterlimit:4;stroke-dasharray:none;stroke-opacity:1"
         d="M 0,0 V 106.9512 L 140.9024,156.8926 72.9571,0 Z M 204.1934,0 341.7481,82.3516 361.6934,0 Z m 223.9121,0 29.5957,243.8574 c 0,0 -200.8463,-111.8118 -211.1992,-115.9531 -10.3528,-4.1412 8.2832,178.0703 8.2832,178.0703 L 95.3497,237.6446 132.6211,395.0078 0,267.9141 v 257.9961 l 151.2559,74.0859 33.1289,-229.834 196.7051,72.4688 L 416.2891,303.9024 762.0743,283.1973 784.6016,0 h -43.248 L 712.3809,204.5156 697.8868,115.4805 612.9942,208.6563 596.4297,61.6465 513.6055,167.2461 473.8653,0 Z M 494.8692,0 534.3126,53.3633 558.1348,0 Z M 603.7481,0 635.7696,113.4102 716.3497,0 Z m 299.5117,0 140.9824,102.0586 V 0 Z M 863.5333,98.916 977.4141,446.7735 762.0743,347.3848 635.7696,583.4317 528.0997,405.3614 505.3243,494.3965 256.8555,479.9024 366.5958,691.0996 0,681.2989 v 131.5644 l 118.127,-63.7871 -12.4238,97.3184 138.7285,-97.3184 -18.6348,126.3047 55.9043,-43.4805 10.1485,72.3926 h 72.1367 l -51.2266,-186.2754 95.2461,86.9648 51.7656,-265.0332 161.5039,169.7872 202.9161,-289.8809 55.9062,279.5273 164.1445,-82.0722 v -60.6231 l -143.4394,64.0137 143.4394,-125.0918 v -70.4688 l -54.4043,-63.2617 54.4043,-6.4765 v -43.6719 l -97.8867,-119.6387 97.8867,45.4473 V 142.6817 Z M 743.4395,676.6074 650.459,904.293 H 758.877 Z M 528.0997,763.5703 472.709,904.293 h 79.9473 z m 432.75,12.4239 -92.4942,128.2988 H 973.2657 Z M 51.8672,842.252 0,849.1172 v 55.1758 h 28.754 z m 149.0821,0 L 90.25,904.293 h 79.6797 z m 192.5625,22.7773 -4.8067,39.2637 h 29.2383 z"
         id="rect33127" />
    </pattern>
    <pattern
       id="pattern4847"
       patternTransform="matrix(0.26458334,0,0,0.26458334,1316.5307,1162.5829)"
       height="449.99999"
       width="779.9996"
       patternUnits="userSpaceOnUse">
      <path
         id="path2186"
         d="m 751.14442,449.99999 c 15.98627,0 28.85518,-12.8708 28.85518,-28.85745 v -89.87489 c -12.32957,23.69045 -28.93681,53.35105 -31.89429,52.36535 -4.80152,-1.60063 -116.0383,-56.81915 -117.63855,-52.01764 -1.4041,4.21229 -23.01241,93.82828 -28.93002,118.38463 z m -225.37322,0 79.88674,-192.80844 128.84371,75.22469 45.49795,-71.16434 v -56.16378 l -59.10349,-28.7229 -26.40794,88.02747 -32.01184,-102.83376 -128.04094,89.2301 60.01965,-150.449 8.00202,70.42167 92.03111,-77.624694 64.82003,60.019274 20.6914,-75.101479 V 28.855558 C 779.9996,12.869291 767.13069,0 751.14442,0 H 689.97844 L 717.69523,68.328187 529.63274,53.123148 462.41007,245.18777 323.16396,116.34368 125.49997,227.58198 20.16,1.3262362 C 8.4502675,4.999181 0,15.903118 0,28.855558 V 116.49222 L 36.669731,95.537384 23.064188,126.74834 51.074267,200.37316 0,233.53738 v 102.16781 l 43.872755,-63.3086 60.820535,72.02343 136.04485,-51.21675 43.21285,126.44145 90.42973,-67.22268 45.20314,97.57795 h 66.87307 l 0.76158,-147.19332 -180.85946,56.81839 -16.80454,-110.43741 -111.23829,-5.60164 141.64648,-76.82419 42.41613,124.84195 169.65429,-9.60378 -43.7246,168 z m -119.67193,0 -50.12296,-36.75779 -48.31068,36.75779 z m -138.9275,0 L 187.11911,348.42179 81.484345,424.44736 52.675652,341.21876 0,357.60755 v 63.53499 c 0,15.98665 12.870803,28.85745 28.857448,28.85745 z M 0,222.66028 27.06633,177.16422 0,142.13669 Z M 421.5976,126.74834 474.79293,0 H 39.581857 L 146.30664,63.527432 312.76157,31.51559 Z M 632.86714,25.91433 663.6718,0 H 562.08566 Z"
         style="opacity:1;fill:#ffa84e;fill-opacity:1;stroke:none;stroke-width:11.4872694;stroke-linecap:round;stroke-miterlimit:4;stroke-dasharray:none;stroke-opacity:1"
         inkscape:connector-curvature="0" />
    </pattern>
    <pattern
       id="pattern4928"
       patternTransform="matrix(0.26458334,0,0,0.26458334,1759.5356,749.56714)"
       height="449.99995"
       width="779.99998"
       patternUnits="userSpaceOnUse">
      <path
         id="path4858"
         d="M 28.85518,0 C 12.868913,0 0,12.870992 0,28.857486 V 118.7325 C 12.329575,95.042077 28.936818,65.381365 31.894299,66.36718 36.69581,67.967772 147.9326,123.18637 149.53323,118.38478 150.93732,114.17257 172.54526,24.556497 178.46286,0 Z M 254.2284,0 174.34167,192.80859 45.497952,117.58397 0,188.74809 v 56.16397 l 59.103495,28.72271 26.407936,-88.02728 32.011839,102.83388 128.04095,-89.23038 -60.01928,150.4492 -8.00201,-70.42193 -92.031499,77.62503 -64.82003,-60.0195 L 0,371.94538 v 49.1992 c 0,15.98638 12.868913,28.85537 28.85518,28.85537 h 61.166361 l -27.716786,-68.32807 188.062485,15.20508 67.2223,-192.06448 139.2461,128.84379 197.66438,-111.2383 105.33959,226.2559 c 11.71011,-3.67299 20.16037,-14.57681 20.16037,-27.52929 v -87.63681 l -36.67011,20.9551 13.60555,-31.21088 -28.0097,-73.62501 51.07426,-33.16411 V 114.29499 L 736.12685,177.60359 675.30632,105.58008 539.26147,156.79687 496.04862,30.355464 405.61889,97.578177 360.41574,0 h -66.87307 l -0.76157,147.1934 180.85946,-56.818435 16.80453,110.437525 111.2383,5.6016 L 460.0369,283.23828 417.62116,158.39648 247.96686,168 291.69146,0 Z M 373.90034,0 424.0233,36.757794 472.33397,0 Z m 138.92749,0 80.05266,101.57816 105.63515,-76.025379 28.80831,83.228479 52.67603,-16.38867 V 28.857486 C 779.99998,12.870992 767.1288,0 751.14253,0 Z m 267.17215,227.33986 -27.06671,45.4961 27.06671,35.0273 z m -421.59797,95.91213 -53.19496,126.74796 h 435.2107 l -106.72441,-63.52728 -166.4553,32.01169 z m -211.26916,100.83397 -30.80504,25.91399 h 101.58614 z"
         style="opacity:1;fill:#606fcf;fill-opacity:0.94117647;stroke:none;stroke-width:11.4872694;stroke-linecap:round;stroke-miterlimit:4;stroke-dasharray:none;stroke-opacity:1"
         inkscape:connector-curvature="0" />
    </pattern>
    <pattern
       patternUnits="userSpaceOnUse"
       width="779.99996"
       height="449.99995"
       patternTransform="matrix(0.26458333,0,0,0.26458333,623.93389,234.64138)"
       id="pattern16540">
      <g
         inkscape:label="Layer 1"
         id="layer1"
         transform="matrix(3.7795275,0,0,3.7795275,-944.44426,-10.300658)">
        <polygon
           id="polygon4546"
           points=""
           style="fill:#f9eab0"
           transform="matrix(3.4969519,0,0,3.4969519,814.41726,644.53626)" />
        <g
           id="g5180"
           transform="matrix(0.26458333,0,0,0.26458333,-318.46128,761.25535)" />
        <g
           id="g5182"
           transform="matrix(0.26458333,0,0,0.26458333,-318.46128,761.25535)" />
        <g
           id="g5184"
           transform="matrix(0.26458333,0,0,0.26458333,-318.46128,761.25535)" />
        <g
           id="g5186"
           transform="matrix(0.26458333,0,0,0.26458333,-318.46128,761.25535)" />
        <g
           id="g5188"
           transform="matrix(0.26458333,0,0,0.26458333,-318.46128,761.25535)" />
        <g
           id="g5190"
           transform="matrix(0.26458333,0,0,0.26458333,-318.46128,761.25535)" />
        <g
           id="g5192"
           transform="matrix(0.26458333,0,0,0.26458333,-318.46128,761.25535)" />
        <g
           id="g5194"
           transform="matrix(0.26458333,0,0,0.26458333,-318.46128,761.25535)" />
        <g
           id="g5196"
           transform="matrix(0.26458333,0,0,0.26458333,-318.46128,761.25535)" />
        <g
           id="g5198"
           transform="matrix(0.26458333,0,0,0.26458333,-318.46128,761.25535)" />
        <g
           id="g5200"
           transform="matrix(0.26458333,0,0,0.26458333,-318.46128,761.25535)" />
        <g
           id="g5202"
           transform="matrix(0.26458333,0,0,0.26458333,-318.46128,761.25535)" />
        <g
           id="g5204"
           transform="matrix(0.26458333,0,0,0.26458333,-318.46128,761.25535)" />
        <g
           id="g5206"
           transform="matrix(0.26458333,0,0,0.26458333,-318.46128,761.25535)" />
        <g
           id="g5208"
           transform="matrix(0.26458333,0,0,0.26458333,-318.46128,761.25535)" />
        <g
           id="g5976"
           transform="matrix(-0.6349272,0.09797609,-0.09797609,-0.6349272,829.15689,1176.4121)" />
        <g
           id="g5978"
           transform="matrix(-0.6349272,0.09797609,-0.09797609,-0.6349272,829.15689,1176.4121)" />
        <g
           id="g5980"
           transform="matrix(-0.6349272,0.09797609,-0.09797609,-0.6349272,829.15689,1176.4121)" />
        <g
           id="g5982"
           transform="matrix(-0.6349272,0.09797609,-0.09797609,-0.6349272,829.15689,1176.4121)" />
        <g
           id="g5984"
           transform="matrix(-0.6349272,0.09797609,-0.09797609,-0.6349272,829.15689,1176.4121)" />
        <g
           id="g5986"
           transform="matrix(-0.6349272,0.09797609,-0.09797609,-0.6349272,829.15689,1176.4121)" />
        <g
           id="g5988"
           transform="matrix(-0.6349272,0.09797609,-0.09797609,-0.6349272,829.15689,1176.4121)" />
        <g
           id="g5990"
           transform="matrix(-0.6349272,0.09797609,-0.09797609,-0.6349272,829.15689,1176.4121)" />
        <g
           id="g5992"
           transform="matrix(-0.6349272,0.09797609,-0.09797609,-0.6349272,829.15689,1176.4121)" />
        <g
           id="g5994"
           transform="matrix(-0.6349272,0.09797609,-0.09797609,-0.6349272,829.15689,1176.4121)" />
        <g
           id="g5996"
           transform="matrix(-0.6349272,0.09797609,-0.09797609,-0.6349272,829.15689,1176.4121)" />
        <g
           id="g5998"
           transform="matrix(-0.6349272,0.09797609,-0.09797609,-0.6349272,829.15689,1176.4121)" />
        <g
           id="g6000"
           transform="matrix(-0.6349272,0.09797609,-0.09797609,-0.6349272,829.15689,1176.4121)" />
        <g
           id="g6002"
           transform="matrix(-0.6349272,0.09797609,-0.09797609,-0.6349272,829.15689,1176.4121)" />
        <g
           id="g6004"
           transform="matrix(-0.6349272,0.09797609,-0.09797609,-0.6349272,829.15689,1176.4121)" />
        <path
           inkscape:connector-curvature="0"
           style="opacity:1;fill:#fcd26a;fill-opacity:1;stroke:none;stroke-width:3.03934002;stroke-linecap:round;stroke-miterlimit:4;stroke-dasharray:none;stroke-opacity:1"
           d="m 257.51886,2.7253825 c -4.22973,0 -7.63465,3.40492 -7.63465,7.6346705 v 24.19801 l 5.02292,-11.67474 32.5727,17.91518 47.96245,-38.0731205 H 315.47193 L 285.5802,25.326583 261.95167,2.7253825 Z m 13.67359,0 15.47347,6.85746 23.3159,-6.85746 z m 70.67113,0 26.77719,57.8884405 45.33005,-11.94345 40.62698,70.244807 c 1.03958,-1.30415 1.6614,-2.95764 1.6614,-4.7625 V 86.415883 l -11.34401,-14.13041 11.34401,-5.44515 v -25.26719 l -14.32988,11.16883 -1.62883,-40.44456 -14.11491,17.10076 -36.64427,-16.28634 -12.21478,30.94385 -15.34374,-41.3302905 z m 23.69109,0 13.12941,10.3864405 7.94216,-10.3864405 z m 30.16506,0 27.47997,14.7293305 6.78048,-14.7293305 z m -68.60923,22.3293805 -38.27312,33.93024 -18.72962,-14.65803 -20.22355,26.87691 v 18.20717 l 25.65267,-2.73939 -3.25768,20.901047 25.51575,4.6142 -6.1841,9.60096 h 27.41692 l -8.47545,-12.0437 9.50071,-16.829457 -28.50161,-7.60007 23.8869,-30.94436 -1.62882,25.24393 18.18647,6.24356 5.42915,33.658417 43.4304,-21.443657 9.77151,16.286337 21.98677,-14.929317 13.59038,22.358317 h 10.39421 l -28.8706,-54.931017 -62.70262,36.915597 z m -67.31736,71.38891 -9.90893,1.56427 v 16.144737 c 0,4.22974 3.40492,7.63519 7.63465,7.63519 h 27.57456 l -1.95646,-5.25756 -25.51525,2.71404 z m 114.27624,18.186507 -12.56564,7.15769 h 14.89625 z m 33.11581,1.90013 -15.77319,5.25756 h 26.82782 z"
           id="rect2115" />
        <g
           id="g16398"
           transform="matrix(0.26458334,0,0,0.26458334,12.105053,642.86498)" />
        <g
           id="g16400"
           transform="matrix(0.26458334,0,0,0.26458334,12.105053,642.86498)" />
        <g
           id="g16402"
           transform="matrix(0.26458334,0,0,0.26458334,12.105053,642.86498)" />
        <g
           id="g16404"
           transform="matrix(0.26458334,0,0,0.26458334,12.105053,642.86498)" />
        <g
           id="g16406"
           transform="matrix(0.26458334,0,0,0.26458334,12.105053,642.86498)" />
        <g
           id="g16408"
           transform="matrix(0.26458334,0,0,0.26458334,12.105053,642.86498)" />
        <g
           id="g16410"
           transform="matrix(0.26458334,0,0,0.26458334,12.105053,642.86498)" />
        <g
           id="g16412"
           transform="matrix(0.26458334,0,0,0.26458334,12.105053,642.86498)" />
        <g
           id="g16414"
           transform="matrix(0.26458334,0,0,0.26458334,12.105053,642.86498)" />
        <g
           id="g16416"
           transform="matrix(0.26458334,0,0,0.26458334,12.105053,642.86498)" />
        <g
           id="g16418"
           transform="matrix(0.26458334,0,0,0.26458334,12.105053,642.86498)" />
        <g
           id="g16420"
           transform="matrix(0.26458334,0,0,0.26458334,12.105053,642.86498)" />
        <g
           id="g16422"
           transform="matrix(0.26458334,0,0,0.26458334,12.105053,642.86498)" />
        <g
           id="g16424"
           transform="matrix(0.26458334,0,0,0.26458334,12.105053,642.86498)" />
        <g
           id="g16426"
           transform="matrix(0.26458334,0,0,0.26458334,12.105053,642.86498)" />
        <polygon
           style="fill:#f9eab0"
           transform="matrix(3.4969519,0,0,3.4969519,-1862.1068,1471.1803)"
           points=""
           id="polygon17376" />
        <g
           style="letter-spacing:0px;word-spacing:0px;fill:#000000"
           letter-spacing="0px"
           word-spacing="0px"
           id="g17390"
           transform="translate(-679.00245,1163.2956)">
          <text
             x="-1222.3983"
             y="-173.37076"
             font-size="10.58333302px"
             style="font-size:10.58333302px;line-height:1.25;font-family:sans-serif;stroke-width:0.26458332"
             xml:space="preserve"
             id="text17380"><tspan
               style="stroke-width:0.26458332"
               x="-1222.3983"
               y="-164.00699"
               id="tspan17378" /></text>
          <text
             x="-2245.1282"
             y="-126.3082"
             font-size="266.9718323px"
             style="font-size:266.97183228px;line-height:1.25;font-family:'SC Gum Kids';font-variant-ligatures:normal;font-variant-caps:normal;font-variant-numeric:normal;font-feature-settings:normal;stroke-width:0.80091542"
             xml:space="preserve"
             id="text17384"><tspan
               x="-2245.1282"
               y="114.67583"
               font-size="266.9718323px"
               style="font-size:266.97183228px;font-family:'SC Gum Kids';font-variant-ligatures:normal;font-variant-caps:normal;font-variant-numeric:normal;font-feature-settings:normal;stroke-width:0.80091542"
               id="tspan17382" /></text>
          <text
             x="912.07428"
             y="386.35889"
             font-size="10.58333302px"
             style="font-size:10.58333302px;line-height:1.25;font-family:sans-serif;stroke-width:0.26458332"
             xml:space="preserve"
             id="text17388"><tspan
               style="stroke-width:0.26458332"
               x="912.07428"
               y="395.72266"
               id="tspan17386" /></text>
        </g>
        <polygon
           style="fill:#f9eab0"
           transform="matrix(3.4969519,0,0,3.4969519,-1858.9755,1505.7699)"
           points=""
           id="polygon17499" />
        <text
           id="text17503"
           xml:space="preserve"
           style="font-size:10.58333302px;line-height:1.25;font-family:sans-serif;letter-spacing:0px;word-spacing:0px;fill:#000000;stroke-width:0.26458332"
           font-size="10.58333302px"
           y="1024.5144"
           x="-1898.2695"><tspan
             id="tspan17501"
             y="1033.8782"
             x="-1898.2695"
             style="stroke-width:0.26458332" /></text>
        <text
           id="text17507"
           xml:space="preserve"
           style="font-size:266.97183228px;line-height:1.25;font-family:'SC Gum Kids';font-variant-ligatures:normal;font-variant-caps:normal;font-variant-numeric:normal;font-feature-settings:normal;letter-spacing:0px;word-spacing:0px;fill:#000000;stroke-width:0.80091542"
           font-size="266.9718323px"
           y="1071.577"
           x="-2920.9993"><tspan
             id="tspan17505"
             style="font-size:266.97183228px;font-family:'SC Gum Kids';font-variant-ligatures:normal;font-variant-caps:normal;font-variant-numeric:normal;font-feature-settings:normal;stroke-width:0.80091542"
             font-size="266.9718323px"
             y="1312.561"
             x="-2920.9993" /></text>
        <text
           id="text17511"
           xml:space="preserve"
           style="font-size:10.58333302px;line-height:1.25;font-family:sans-serif;letter-spacing:0px;word-spacing:0px;fill:#000000;stroke-width:0.26458332"
           font-size="10.58333302px"
           y="1584.244"
           x="236.20308"><tspan
             id="tspan17509"
             y="1593.6078"
             x="236.20308"
             style="stroke-width:0.26458332" /></text>
        <polygon
           style="fill:#f9eab0"
           transform="matrix(3.4969519,0,0,3.4969519,-2009.6601,1477.0384)"
           points=""
           id="polygon17630" />
        <text
           id="text17634"
           xml:space="preserve"
           style="font-size:10.58333302px;line-height:1.25;font-family:sans-serif;letter-spacing:0px;word-spacing:0px;fill:#000000;stroke-width:0.26458332"
           font-size="10.58333302px"
           y="995.78296"
           x="-2048.9541"><tspan
             id="tspan17632"
             y="1005.1467"
             x="-2048.9541"
             style="stroke-width:0.26458332" /></text>
        <text
           id="text17638"
           xml:space="preserve"
           style="font-size:266.97183228px;line-height:1.25;font-family:'SC Gum Kids';font-variant-ligatures:normal;font-variant-caps:normal;font-variant-numeric:normal;font-feature-settings:normal;letter-spacing:0px;word-spacing:0px;fill:#000000;stroke-width:0.80091542"
           font-size="266.9718323px"
           y="1042.8455"
           x="-3071.6838"><tspan
             id="tspan17636"
             style="font-size:266.97183228px;font-family:'SC Gum Kids';font-variant-ligatures:normal;font-variant-caps:normal;font-variant-numeric:normal;font-feature-settings:normal;stroke-width:0.80091542"
             font-size="266.9718323px"
             y="1283.8295"
             x="-3071.6838" /></text>
        <text
           id="text17642"
           xml:space="preserve"
           style="font-size:10.58333302px;line-height:1.25;font-family:sans-serif;letter-spacing:0px;word-spacing:0px;fill:#000000;stroke-width:0.26458332"
           font-size="10.58333302px"
           y="1555.5126"
           x="85.518532"><tspan
             id="tspan17640"
             y="1564.8763"
             x="85.518532"
             style="stroke-width:0.26458332" /></text>
        <polygon
           style="fill:#f9eab0"
           transform="matrix(3.4969519,0,0,3.4969519,-2009.4161,1531.2758)"
           points=""
           id="polygon17763" />
        <g
           style="letter-spacing:0px;word-spacing:0px;fill:#000000"
           letter-spacing="0px"
           word-spacing="0px"
           id="g17777"
           transform="translate(-26.051039,797.50755)">
          <text
             x="-2022.6592"
             y="252.51283"
             font-size="10.58333302px"
             style="font-size:10.58333302px;line-height:1.25;font-family:sans-serif;stroke-width:0.26458332"
             xml:space="preserve"
             id="text17767"><tspan
               style="stroke-width:0.26458332"
               x="-2022.6592"
               y="261.87659"
               id="tspan17765" /></text>
          <text
             x="-3045.3889"
             y="299.57538"
             font-size="266.9718323px"
             style="font-size:266.97183228px;line-height:1.25;font-family:'SC Gum Kids';font-variant-ligatures:normal;font-variant-caps:normal;font-variant-numeric:normal;font-feature-settings:normal;stroke-width:0.80091542"
             xml:space="preserve"
             id="text17771"><tspan
               x="-3045.3889"
               y="540.55945"
               font-size="266.9718323px"
               style="font-size:266.97183228px;font-family:'SC Gum Kids';font-variant-ligatures:normal;font-variant-caps:normal;font-variant-numeric:normal;font-feature-settings:normal;stroke-width:0.80091542"
               id="tspan17769" /></text>
          <text
             x="111.81351"
             y="812.24249"
             font-size="10.58333302px"
             style="font-size:10.58333302px;line-height:1.25;font-family:sans-serif;stroke-width:0.26458332"
             xml:space="preserve"
             id="text17775"><tspan
               style="stroke-width:0.26458332"
               x="111.81351"
               y="821.60626"
               id="tspan17773" /></text>
        </g>
        <polygon
           style="fill:#f9eab0"
           transform="matrix(3.4969519,0,0,3.4969519,-2160.5654,1479.2757)"
           points=""
           id="polygon17897" />
        <text
           id="text17901"
           xml:space="preserve"
           style="font-size:10.58333302px;line-height:1.25;font-family:sans-serif;letter-spacing:0px;word-spacing:0px;fill:#000000;stroke-width:0.26458332"
           font-size="10.58333302px"
           y="998.0202"
           x="-2199.8596"><tspan
             id="tspan17899"
             y="1007.384"
             x="-2199.8596"
             style="stroke-width:0.26458332" /></text>
        <text
           id="text17905"
           xml:space="preserve"
           style="font-size:266.97183228px;line-height:1.25;font-family:'SC Gum Kids';font-variant-ligatures:normal;font-variant-caps:normal;font-variant-numeric:normal;font-feature-settings:normal;letter-spacing:0px;word-spacing:0px;fill:#000000;stroke-width:0.80091542"
           font-size="266.9718323px"
           y="1045.0828"
           x="-3222.5894"><tspan
             id="tspan17903"
             style="font-size:266.97183228px;font-family:'SC Gum Kids';font-variant-ligatures:normal;font-variant-caps:normal;font-variant-numeric:normal;font-feature-settings:normal;stroke-width:0.80091542"
             font-size="266.9718323px"
             y="1286.0668"
             x="-3222.5894" /></text>
        <text
           id="text17909"
           xml:space="preserve"
           style="font-size:10.58333302px;line-height:1.25;font-family:sans-serif;letter-spacing:0px;word-spacing:0px;fill:#000000;stroke-width:0.26458332"
           font-size="10.58333302px"
           y="1557.7499"
           x="-65.386765"><tspan
             id="tspan17907"
             y="1567.1136"
             x="-65.386765"
             style="stroke-width:0.26458332" /></text>
        <polygon
           style="fill:#f9eab0"
           transform="matrix(3.4969519,0,0,3.4969519,-2155.7005,1542.578)"
           points=""
           id="polygon18017" />
        <text
           id="text18021"
           xml:space="preserve"
           style="font-size:10.58333302px;line-height:1.25;font-family:sans-serif;letter-spacing:0px;word-spacing:0px;fill:#000000;stroke-width:0.26458332"
           font-size="10.58333302px"
           y="1061.3225"
           x="-2194.9946"><tspan
             id="tspan18019"
             y="1070.6863"
             x="-2194.9946"
             style="stroke-width:0.26458332" /></text>
        <text
           id="text18025"
           xml:space="preserve"
           style="font-size:266.97183228px;line-height:1.25;font-family:'SC Gum Kids';font-variant-ligatures:normal;font-variant-caps:normal;font-variant-numeric:normal;font-feature-settings:normal;letter-spacing:0px;word-spacing:0px;fill:#000000;stroke-width:0.80091542"
           font-size="266.9718323px"
           y="1108.3851"
           x="-3217.7244"><tspan
             id="tspan18023"
             style="font-size:266.97183228px;font-family:'SC Gum Kids';font-variant-ligatures:normal;font-variant-caps:normal;font-variant-numeric:normal;font-feature-settings:normal;stroke-width:0.80091542"
             font-size="266.9718323px"
             y="1349.3691"
             x="-3217.7244" /></text>
        <text
           id="text18029"
           xml:space="preserve"
           style="font-size:10.58333302px;line-height:1.25;font-family:sans-serif;letter-spacing:0px;word-spacing:0px;fill:#000000;stroke-width:0.26458332"
           font-size="10.58333302px"
           y="1621.0521"
           x="-60.521873"><tspan
             id="tspan18027"
             y="1630.4159"
             x="-60.521873"
             style="stroke-width:0.26458332" /></text>
        <polygon
           id="polygon18232"
           points=""
           transform="matrix(3.4969519,0,0,3.4969519,-1862.1068,2477.8626)"
           style="fill:#f9eab0" />
        <text
           x="-1901.4008"
           y="1996.6072"
           font-size="10.58333302px"
           style="font-size:10.58333302px;line-height:1.25;font-family:sans-serif;letter-spacing:0px;word-spacing:0px;fill:#000000;stroke-width:0.26458332"
           xml:space="preserve"
           id="text18236"><tspan
             style="stroke-width:0.26458332"
             x="-1901.4008"
             y="2005.9709"
             id="tspan18234" /></text>
        <text
           x="-2924.1306"
           y="2043.6697"
           font-size="266.9718323px"
           style="font-size:266.97183228px;line-height:1.25;font-family:'SC Gum Kids';font-variant-ligatures:normal;font-variant-caps:normal;font-variant-numeric:normal;font-feature-settings:normal;letter-spacing:0px;word-spacing:0px;fill:#000000;stroke-width:0.80091542"
           xml:space="preserve"
           id="text18240"><tspan
             x="-2924.1306"
             y="2284.6538"
             font-size="266.9718323px"
             style="font-size:266.97183228px;font-family:'SC Gum Kids';font-variant-ligatures:normal;font-variant-caps:normal;font-variant-numeric:normal;font-feature-settings:normal;stroke-width:0.80091542"
             id="tspan18238" /></text>
        <text
           x="233.07182"
           y="2556.3367"
           font-size="10.58333302px"
           style="font-size:10.58333302px;line-height:1.25;font-family:sans-serif;letter-spacing:0px;word-spacing:0px;fill:#000000;stroke-width:0.26458332"
           xml:space="preserve"
           id="text18244"><tspan
             style="stroke-width:0.26458332"
             x="233.07182"
             y="2565.7004"
             id="tspan18242" /></text>
        <polygon
           id="polygon18306"
           points=""
           transform="matrix(3.4969519,0,0,3.4969519,-1858.9755,2512.4522)"
           style="fill:#f9eab0" />
        <text
           x="-1898.2695"
           y="2031.1968"
           font-size="10.58333302px"
           style="font-size:10.58333302px;line-height:1.25;font-family:sans-serif;letter-spacing:0px;word-spacing:0px;fill:#000000;stroke-width:0.26458332"
           xml:space="preserve"
           id="text18310"><tspan
             style="stroke-width:0.26458332"
             x="-1898.2695"
             y="2040.5605"
             id="tspan18308" /></text>
        <text
           x="-2920.9993"
           y="2078.2593"
           font-size="266.9718323px"
           style="font-size:266.97183228px;line-height:1.25;font-family:'SC Gum Kids';font-variant-ligatures:normal;font-variant-caps:normal;font-variant-numeric:normal;font-feature-settings:normal;letter-spacing:0px;word-spacing:0px;fill:#000000;stroke-width:0.80091542"
           xml:space="preserve"
           id="text18314"><tspan
             x="-2920.9993"
             y="2319.2434"
             font-size="266.9718323px"
             style="font-size:266.97183228px;font-family:'SC Gum Kids';font-variant-ligatures:normal;font-variant-caps:normal;font-variant-numeric:normal;font-feature-settings:normal;stroke-width:0.80091542"
             id="tspan18312" /></text>
        <text
           x="236.20308"
           y="2590.9263"
           font-size="10.58333302px"
           style="font-size:10.58333302px;line-height:1.25;font-family:sans-serif;letter-spacing:0px;word-spacing:0px;fill:#000000;stroke-width:0.26458332"
           xml:space="preserve"
           id="text18318"><tspan
             style="stroke-width:0.26458332"
             x="236.20308"
             y="2600.29"
             id="tspan18316" /></text>
        <polygon
           id="polygon18384"
           points=""
           transform="matrix(3.4969519,0,0,3.4969519,-2009.6601,2483.7207)"
           style="fill:#f9eab0" />
        <text
           x="-2048.9541"
           y="2002.4652"
           font-size="10.58333302px"
           style="font-size:10.58333302px;line-height:1.25;font-family:sans-serif;letter-spacing:0px;word-spacing:0px;fill:#000000;stroke-width:0.26458332"
           xml:space="preserve"
           id="text18388"><tspan
             style="stroke-width:0.26458332"
             x="-2048.9541"
             y="2011.829"
             id="tspan18386" /></text>
        <text
           x="-3071.6838"
           y="2049.5278"
           font-size="266.9718323px"
           style="font-size:266.97183228px;line-height:1.25;font-family:'SC Gum Kids';font-variant-ligatures:normal;font-variant-caps:normal;font-variant-numeric:normal;font-feature-settings:normal;letter-spacing:0px;word-spacing:0px;fill:#000000;stroke-width:0.80091542"
           xml:space="preserve"
           id="text18392"><tspan
             x="-3071.6838"
             y="2290.5117"
             font-size="266.9718323px"
             style="font-size:266.97183228px;font-family:'SC Gum Kids';font-variant-ligatures:normal;font-variant-caps:normal;font-variant-numeric:normal;font-feature-settings:normal;stroke-width:0.80091542"
             id="tspan18390" /></text>
        <text
           x="85.518532"
           y="2562.1948"
           font-size="10.58333302px"
           style="font-size:10.58333302px;line-height:1.25;font-family:sans-serif;letter-spacing:0px;word-spacing:0px;fill:#000000;stroke-width:0.26458332"
           xml:space="preserve"
           id="text18396"><tspan
             style="stroke-width:0.26458332"
             x="85.518532"
             y="2571.5586"
             id="tspan18394" /></text>
        <polygon
           id="polygon18462"
           points=""
           transform="matrix(3.4969519,0,0,3.4969519,-2009.4161,2537.9582)"
           style="fill:#f9eab0" />
        <g
           id="g18476"
           word-spacing="0px"
           letter-spacing="0px"
           style="letter-spacing:0px;word-spacing:0px;fill:#000000"
           transform="translate(-26.051039,1804.1899)">
          <text
             id="text18466"
             xml:space="preserve"
             style="font-size:10.58333302px;line-height:1.25;font-family:sans-serif;stroke-width:0.26458332"
             font-size="10.58333302px"
             y="252.51283"
             x="-2022.6592"><tspan
               id="tspan18464"
               y="261.87659"
               x="-2022.6592"
               style="stroke-width:0.26458332" /></text>
          <text
             id="text18470"
             xml:space="preserve"
             style="font-size:266.97183228px;line-height:1.25;font-family:'SC Gum Kids';font-variant-ligatures:normal;font-variant-caps:normal;font-variant-numeric:normal;font-feature-settings:normal;stroke-width:0.80091542"
             font-size="266.9718323px"
             y="299.57538"
             x="-3045.3889"><tspan
               id="tspan18468"
               style="font-size:266.97183228px;font-family:'SC Gum Kids';font-variant-ligatures:normal;font-variant-caps:normal;font-variant-numeric:normal;font-feature-settings:normal;stroke-width:0.80091542"
               font-size="266.9718323px"
               y="540.55945"
               x="-3045.3889" /></text>
          <text
             id="text18474"
             xml:space="preserve"
             style="font-size:10.58333302px;line-height:1.25;font-family:sans-serif;stroke-width:0.26458332"
             font-size="10.58333302px"
             y="812.24249"
             x="111.81351"><tspan
               id="tspan18472"
               y="821.60626"
               x="111.81351"
               style="stroke-width:0.26458332" /></text>
        </g>
        <polygon
           id="polygon18542"
           points=""
           transform="matrix(3.4969519,0,0,3.4969519,-2160.5654,2485.958)"
           style="fill:#f9eab0" />
        <text
           x="-2199.8596"
           y="2004.7025"
           font-size="10.58333302px"
           style="font-size:10.58333302px;line-height:1.25;font-family:sans-serif;letter-spacing:0px;word-spacing:0px;fill:#000000;stroke-width:0.26458332"
           xml:space="preserve"
           id="text18546"><tspan
             style="stroke-width:0.26458332"
             x="-2199.8596"
             y="2014.0663"
             id="tspan18544" /></text>
        <text
           x="-3222.5894"
           y="2051.7651"
           font-size="266.9718323px"
           style="font-size:266.97183228px;line-height:1.25;font-family:'SC Gum Kids';font-variant-ligatures:normal;font-variant-caps:normal;font-variant-numeric:normal;font-feature-settings:normal;letter-spacing:0px;word-spacing:0px;fill:#000000;stroke-width:0.80091542"
           xml:space="preserve"
           id="text18550"><tspan
             x="-3222.5894"
             y="2292.749"
             font-size="266.9718323px"
             style="font-size:266.97183228px;font-family:'SC Gum Kids';font-variant-ligatures:normal;font-variant-caps:normal;font-variant-numeric:normal;font-feature-settings:normal;stroke-width:0.80091542"
             id="tspan18548" /></text>
        <text
           x="-65.386765"
           y="2564.4321"
           font-size="10.58333302px"
           style="font-size:10.58333302px;line-height:1.25;font-family:sans-serif;letter-spacing:0px;word-spacing:0px;fill:#000000;stroke-width:0.26458332"
           xml:space="preserve"
           id="text18554"><tspan
             style="stroke-width:0.26458332"
             x="-65.386765"
             y="2573.7959"
             id="tspan18552" /></text>
        <polygon
           id="polygon18614"
           points=""
           transform="matrix(3.4969519,0,0,3.4969519,-2155.7005,2549.2603)"
           style="fill:#f9eab0" />
        <g
           id="g18628"
           word-spacing="0px"
           letter-spacing="0px"
           style="letter-spacing:0px;word-spacing:0px;fill:#000000"
           transform="translate(619.11521,1817.3475)">
          <text
             id="text18618"
             xml:space="preserve"
             style="font-size:10.58333302px;line-height:1.25;font-family:sans-serif;stroke-width:0.26458332"
             font-size="10.58333302px"
             y="250.65732"
             x="-2814.1099"><tspan
               id="tspan18616"
               y="260.02109"
               x="-2814.1099"
               style="stroke-width:0.26458332" /></text>
          <text
             id="text18622"
             xml:space="preserve"
             style="font-size:266.97183228px;line-height:1.25;font-family:'SC Gum Kids';font-variant-ligatures:normal;font-variant-caps:normal;font-variant-numeric:normal;font-feature-settings:normal;stroke-width:0.80091542"
             font-size="266.9718323px"
             y="297.71988"
             x="-3836.8396"><tspan
               id="tspan18620"
               style="font-size:266.97183228px;font-family:'SC Gum Kids';font-variant-ligatures:normal;font-variant-caps:normal;font-variant-numeric:normal;font-feature-settings:normal;stroke-width:0.80091542"
               font-size="266.9718323px"
               y="538.70392"
               x="-3836.8396" /></text>
          <text
             id="text18626"
             xml:space="preserve"
             style="font-size:10.58333302px;line-height:1.25;font-family:sans-serif;stroke-width:0.26458332"
             font-size="10.58333302px"
             y="810.38696"
             x="-679.63708"><tspan
               id="tspan18624"
               y="819.75073"
               x="-679.63708"
               style="stroke-width:0.26458332" /></text>
        </g>
        <g
           id="g1059"
           transform="matrix(0.26458334,0,0,0.26458334,1202.2405,1659.237)" />
        <g
           id="g1061"
           transform="matrix(0.26458334,0,0,0.26458334,1202.2405,1659.237)" />
        <g
           id="g1063"
           transform="matrix(0.26458334,0,0,0.26458334,1202.2405,1659.237)" />
        <g
           id="g1065"
           transform="matrix(0.26458334,0,0,0.26458334,1202.2405,1659.237)" />
        <g
           id="g1067"
           transform="matrix(0.26458334,0,0,0.26458334,1202.2405,1659.237)" />
        <g
           id="g1069"
           transform="matrix(0.26458334,0,0,0.26458334,1202.2405,1659.237)" />
        <g
           id="g1071"
           transform="matrix(0.26458334,0,0,0.26458334,1202.2405,1659.237)" />
        <g
           id="g1073"
           transform="matrix(0.26458334,0,0,0.26458334,1202.2405,1659.237)" />
        <g
           id="g1075"
           transform="matrix(0.26458334,0,0,0.26458334,1202.2405,1659.237)" />
        <g
           id="g1077"
           transform="matrix(0.26458334,0,0,0.26458334,1202.2405,1659.237)" />
        <g
           id="g1079"
           transform="matrix(0.26458334,0,0,0.26458334,1202.2405,1659.237)" />
        <g
           id="g1081"
           transform="matrix(0.26458334,0,0,0.26458334,1202.2405,1659.237)" />
        <g
           id="g1083"
           transform="matrix(0.26458334,0,0,0.26458334,1202.2405,1659.237)" />
        <g
           id="g1085"
           transform="matrix(0.26458334,0,0,0.26458334,1202.2405,1659.237)" />
        <g
           id="g1087"
           transform="matrix(0.26458334,0,0,0.26458334,1202.2405,1659.237)" />
      </g>
    </pattern>
  </defs>
  <metadata
     id="metadata2863">
    <rdf:RDF>
      <cc:Work
         rdf:about="">
        <dc:format>image/svg+xml</dc:format>
        <dc:type
           rdf:resource="http://purl.org/dc/dcmitype/StillImage" />
        <dc:title />
      </cc:Work>
    </rdf:RDF>
  </metadata>
  <polygon
     transform="matrix(3.4969519,0,0,3.4969519,454.53799,116.97428)"
     points=""
     id="polygon2865"
     style="fill:#f9eab0" />
  <polygon
     transform="matrix(9.1061708,0,0,9.0930789,1282.4585,1088.9576)"
     points=""
     id="polygon2867"
     style="fill:#f9eab0" />
  <g
     id="g1603">
    <rect
       y="4.280472e-09"
       x="5.1217259e-05"
       height="218.28125"
       width="452.94128"
       id="rect5107"
       style="opacity:0;fill:#2196f3;fill-opacity:1;stroke:none;stroke-width:0.4087455;stroke-linecap:round;stroke-miterlimit:4;stroke-dasharray:none;stroke-opacity:1" />
    <path
       style="fill:#ffffff;stroke:#ffc107;stroke-width:1.32291675;stroke-linecap:round;stroke-opacity:1"
       inkscape:connector-curvature="0"
       d="m 111.13504,68.89296 -89.448762,-23.96772 6.25914,42.76465 -26.80291,33.90571 89.44876,23.96772 z"
       id="path2869" />
    <path
       style="fill:#ffffff;stroke:#ffc107;stroke-width:1.32291675;stroke-linecap:round;stroke-opacity:1"
       inkscape:connector-curvature="0"
       d="m 341.80635,68.89296 89.44876,-23.96772 -6.25914,42.76465 26.80291,33.90571 -89.44876,23.96772 z"
       id="path2871" />
    <path
       style="fill:#ffc107;fill-opacity:1;stroke:#ffc107;stroke-width:1.32291675;stroke-linecap:round;stroke-opacity:1"
       inkscape:connector-curvature="0"
       d="m 391.83528,78.89429 -50.02892,-10.00133 20.54376,76.67037 29.48516,12.70596 z"
       id="path2873" />
    <path
       style="fill:url(#pattern16697);fill-opacity:1;stroke:#ffc107;stroke-width:1.32291675;stroke-linecap:round;stroke-opacity:1"
       inkscape:connector-curvature="0"
       d="m 391.83528,78.89429 -50.02892,-10.00133 20.54376,76.67038 29.48516,12.70596 z"
       id="path2875" />
    <path
       style="fill:#ffc107;fill-opacity:1;stroke:#ffc107;stroke-width:1.32291675;stroke-linecap:round;stroke-opacity:1"
       inkscape:connector-curvature="0"
       d="M 61.106108,78.89429 111.13503,68.89296 90.591268,145.56333 61.106108,158.26929 Z"
       id="path2877" />
    <path
       style="fill:url(#pattern16695);fill-opacity:1;stroke:#ffc107;stroke-width:1.32291675;stroke-linecap:round;stroke-opacity:1"
       inkscape:connector-curvature="0"
       d="M 61.10611,78.89429 111.13503,68.89296 90.59127,145.56333 61.10611,158.26929 Z"
       id="path2879" />
    <path
       style="fill:#ffffff;stroke:#ffc107;stroke-width:1.32291675;stroke-linecap:round;stroke-opacity:1"
       inkscape:connector-curvature="0"
       d="m 61.106108,78.89429 c 0,0 94.177372,18.67002 165.364592,18.67002 71.18722,0 165.36458,-18.67002 165.36458,-18.67002 v 79.375 c 0,0 -92.48624,18.67002 -165.36458,18.67002 -72.87834,0 -165.364592,-18.67002 -165.364592,-18.67002 z"
       id="path2881" />
    <g
       id="text2887"
       style="font-size:10.58333397px;line-height:1.25;font-family:sans-serif;letter-spacing:0px;word-spacing:0px;fill:#ffffff;stroke-width:0.26458335"
       aria-label="Ejercicio">
      <path
         id="path1531"
         style="font-size:35.27777863px;font-family:'king cooL KC';font-variant-ligatures:normal;font-variant-caps:normal;font-variant-numeric:normal;font-feature-settings:normal;fill:#ffffff;stroke-width:0.26458335"
         d="m 186.40072,191.70512 h 2.13596 q 2.41157,0 2.82498,0.89572 0.20671,0.25839 0.20671,0.62012 h 0.0689 q 0,0.89573 -2.34267,0.89573 -3.03168,0.17225 -3.03168,0.48231 -0.75792,3.03168 -0.75792,7.1658 0,1.10243 0.89572,1.10243 h 0.62012 l 2.61827,-0.0689 q 1.01631,0 1.72255,0.96462 v 0.20671 q 0,0.60289 -4.75423,1.44694 -1.10243,0.46509 -1.10243,0.75792 v 2.75608 l 0.0689,0.75792 -0.1378,0.41341 q 0.24115,0 0.41341,3.44509 0.25838,1.24024 1.24023,1.24024 l 4.27192,0.34451 q 0.46509,0.29283 0.96463,0.89572 -0.7407,1.03353 -2.75608,1.03353 l -0.0689,0.0689 q -5.09874,-0.1378 -5.09874,-0.82682 -0.34451,-0.1378 -0.55122,-0.89572 l 0.0689,-2.82498 v -0.34451 l -0.2067,-9.64627 v -3.03168 q 0,-6.66626 1.65364,-7.57921 0.39619,-0.27561 1.03353,-0.27561 z" />
      <path
         id="path1533"
         style="font-size:35.27777863px;font-family:'king cooL KC';font-variant-ligatures:normal;font-variant-caps:normal;font-variant-numeric:normal;font-feature-settings:normal;fill:#ffffff;stroke-width:0.26458335"
         d="m 202.43764,189.70696 q 1.03353,0 1.03353,1.17134 l 0.0689,0.82682 q -0.43063,0 -0.49954,10.30083 -0.0517,10.30084 -1.49861,12.3679 -1.22301,2.75607 -2.96278,2.75607 h -0.27561 q -2.72163,0 -4.47863,-1.99815 l -0.55121,-2.20486 v -0.27561 q 0.55121,-1.72255 1.24023,-1.72255 h 0.20671 q 0.39618,0 0.75792,2.34267 0.49954,1.17133 2.48047,1.17133 h 0.68902 q 0.18948,-0.0344 0.75792,-1.17133 0.53399,-0.25839 0.96463,-1.79145 0.1378,0 0.1378,-0.20671 0.34451,-3.03168 0.44786,-12.05783 0.10335,-9.02615 0.86128,-9.02615 0.34451,-0.48232 0.62011,-0.48232 z" />
      <path
         id="path1535"
         style="font-size:35.27777863px;font-family:'king cooL KC';font-variant-ligatures:normal;font-variant-caps:normal;font-variant-numeric:normal;font-feature-settings:normal;fill:#ffffff;stroke-width:0.26458335"
         d="m 209.12113,190.75772 q 1.51584,0 3.5829,1.65364 0.34451,0.62012 0.34451,1.24024 0,3.08336 -1.99816,4.27192 -2.29099,0.68901 -3.7896,0.68901 -0.34451,0.36174 -0.34451,1.10244 v 1.17133 q 0,3.73793 0.96462,8.40603 0,2.51492 1.92926,4.89204 0.60289,0.48231 0.89572,0.48231 h 0.48231 q 0.68902,-0.25838 1.72255,-0.89572 l 0.41341,-0.0689 q 0.49954,0 0.75792,0.82683 0,1.55029 -2.41156,3.10058 l -1.10243,0.20671 q -0.98185,0 -3.4451,-2.68718 -1.30913,-2.04983 -1.30913,-4.96093 -0.89573,-4.37528 -1.03353,-11.16211 0,-2.75608 1.92925,-6.89019 1.6192,-1.37804 2.41157,-1.37804 z m -1.58475,5.51215 0.34451,0.20671 q 2.17041,0 2.89388,-1.17134 0.20671,-0.36173 0.20671,-0.68902 v -0.2756 q 0,-1.03353 -1.30914,-1.03353 -1.8259,0 -2.13596,2.89388 z" />
      <path
         id="path1537"
         style="font-size:35.27777863px;font-family:'king cooL KC';font-variant-ligatures:normal;font-variant-caps:normal;font-variant-numeric:normal;font-feature-settings:normal;fill:#ffffff;stroke-width:0.26458335"
         d="m 222.36752,195.18466 q 1.65365,0.56845 2.27376,1.79145 l 0.0689,0.34451 q -0.24115,1.30914 -1.10243,1.30914 -0.51676,0 -1.79145,-1.17133 h -0.55121 q -1.56752,0 -3.04891,1.60197 -1.48139,1.60197 -0.43064,9.74962 1.06798,8.14765 -0.15503,7.51031 l -1.24023,0.0344 q -0.67179,-0.32729 -0.82682,-8.21656 -0.13781,-7.90649 -0.46509,-12.23009 0,-1.10243 1.44694,-1.10243 0.89572,0 0.89572,0.82683 l -0.0689,1.03353 q 0.1378,0.31005 0.27561,0.34451 h 0.27561 q 1.58474,-1.82591 4.44417,-1.82591 z" />
      <path
         id="path1539"
         style="font-size:35.27777863px;font-family:'king cooL KC';font-variant-ligatures:normal;font-variant-caps:normal;font-variant-numeric:normal;font-feature-settings:normal;fill:#ffffff;stroke-width:0.26458335"
         d="m 233.2368,190.9472 q 3.16948,0 3.16948,1.58474 v 0.0689 q 0,0.68902 -1.10243,0.96463 l -2.68717,-0.1378 q -1.27469,0 -1.99816,1.72254 -0.72347,0.43064 -1.86035,4.20302 -0.68902,2.5666 -0.68902,4.75423 v 0.55122 q 0,1.99815 1.10243,6.20117 0,1.61919 2.48047,3.5829 0.63735,0.34451 1.03353,0.34451 h 0.55122 q 0.36173,0 1.37803,-0.62012 l 0.34451,-0.0689 q 0.89573,0.34451 0.89573,1.30914 v 0.0689 q -0.72347,1.92925 -3.514,1.92925 -0.96462,0 -3.44509,-2.06706 -0.89573,-0.96462 -1.10243,-1.86035 -1.92926,-5.80498 -1.92926,-8.81944 0,-4.30637 1.79145,-9.30176 1.25746,-2.46324 2.48047,-3.514 1.37804,-0.89572 3.10059,-0.89572 z" />
      <path
         id="path1541"
         style="font-size:35.27777863px;font-family:'king cooL KC';font-variant-ligatures:normal;font-variant-caps:normal;font-variant-numeric:normal;font-feature-settings:normal;fill:#ffffff;stroke-width:0.26458335"
         d="m 239.21404,190.2065 q 0.75792,0 1.17133,1.37804 -0.34451,1.24023 -1.37804,1.24023 h -0.2067 q -0.75792,0 -0.96463,-1.17133 0,-0.89572 1.30914,-1.44694 z m 0.24116,5.09874 q 0.75792,0 0.75792,3.16949 l 0.0689,3.37619 q -0.17226,14.64166 -0.48232,14.64166 -0.75792,0.82682 -1.37803,0.82682 -0.75792,0 -1.03353,-1.92925 l 0.0689,-0.0689 v -0.0689 l 0.68902,-6.27008 0.1378,-6.75238 -0.2067,-5.1332 q 0.24115,-1.79145 1.37804,-1.79145 z" />
      <path
         id="path1543"
         style="font-size:35.27777863px;font-family:'king cooL KC';font-variant-ligatures:normal;font-variant-caps:normal;font-variant-numeric:normal;font-feature-settings:normal;fill:#ffffff;stroke-width:0.26458335"
         d="m 249.29094,190.9472 q 3.16949,0 3.16949,1.58474 v 0.0689 q 0,0.68902 -1.10243,0.96463 l -2.68717,-0.1378 q -1.27469,0 -1.99816,1.72254 -0.72347,0.43064 -1.86035,4.20302 -0.68902,2.5666 -0.68902,4.75423 v 0.55122 q 0,1.99815 1.10243,6.20117 0,1.61919 2.48047,3.5829 0.63734,0.34451 1.03353,0.34451 h 0.55121 q 0.36174,0 1.37804,-0.62012 l 0.34451,-0.0689 q 0.89573,0.34451 0.89573,1.30914 v 0.0689 q -0.72347,1.92925 -3.514,1.92925 -0.96463,0 -3.4451,-2.06706 -0.89572,-0.96462 -1.10243,-1.86035 -1.92925,-5.80498 -1.92925,-8.81944 0,-4.30637 1.79145,-9.30176 1.25746,-2.46324 2.48047,-3.514 1.37803,-0.89572 3.10058,-0.89572 z" />
      <path
         id="path1545"
         style="font-size:35.27777863px;font-family:'king cooL KC';font-variant-ligatures:normal;font-variant-caps:normal;font-variant-numeric:normal;font-feature-settings:normal;fill:#ffffff;stroke-width:0.26458335"
         d="m 255.26818,190.2065 q 0.75793,0 1.17134,1.37804 -0.34451,1.24023 -1.37804,1.24023 h -0.20671 q -0.75792,0 -0.96462,-1.17133 0,-0.89572 1.30913,-1.44694 z m 0.24116,5.09874 q 0.75792,0 0.75792,3.16949 l 0.0689,3.37619 q -0.17225,14.64166 -0.48231,14.64166 -0.75792,0.82682 -1.37804,0.82682 -0.75792,0 -1.03353,-1.92925 l 0.0689,-0.0689 v -0.0689 l 0.68901,-6.27008 0.13781,-6.75238 -0.20671,-5.1332 q 0.24116,-1.79145 1.37804,-1.79145 z" />
      <path
         id="path1547"
         style="font-size:35.27777863px;font-family:'king cooL KC';font-variant-ligatures:normal;font-variant-caps:normal;font-variant-numeric:normal;font-feature-settings:normal;fill:#ffffff;stroke-width:0.26458335"
         d="m 264.58716,194.70235 q 2.89388,0.56844 2.89388,1.92925 3.01446,4.49585 0.82683,14.81392 -1.37804,3.60012 -2.48047,4.61642 -1.53307,1.92926 -3.03169,1.92926 -2.32544,0 -3.5829,-3.03169 l -1.17133,-5.78776 v -1.03353 q 0,-3.47954 1.17133,-8.47493 0.18948,-0.27561 0.34451,-1.24024 1.6192,-3.58289 3.10059,-3.58289 z m -1.30913,2.54937 h -0.13781 q -0.80959,0 -1.10243,1.30914 -1.44694,2.65272 -1.44694,5.51215 -0.2067,0.51677 -0.2067,1.79145 v 2.34267 q 0,3.04891 1.10243,6.27007 0.51676,1.03353 1.03353,1.03353 0.82682,0 2.34266,-1.99816 0.44786,0 1.44694,-2.13596 0.41341,-1.49861 0.82682,-5.71885 0,-4.15134 -1.10243,-6.68349 -0.55121,-1.49862 -0.89572,-1.79145 z" />
    </g>
    <path
       id="path2889"
       d="m 291.52802,212.11847 c -1.29147,1.29147 -5.11475,-2.63191 -6.91868,-2.34619 -1.80393,0.28571 -4.22769,5.19852 -5.85504,4.36934 -1.62734,-0.82917 0.92255,-5.67771 0.0934,-7.30506 -0.82918,-1.62735 -6.25052,-2.41434 -5.96481,-4.21827 0.28572,-1.80393 5.68491,-0.87711 6.97638,-2.16858 1.29147,-1.29147 0.36466,-6.69067 2.16859,-6.97639 1.80393,-0.28571 2.59092,5.13563 4.21827,5.96481 1.62735,0.82917 6.47589,-1.72072 7.30506,-0.0934 0.82918,1.62734 -4.08363,4.0511 -4.36934,5.85503 -0.28572,1.80393 3.63766,5.62721 2.34619,6.91868 z"
       inkscape:connector-curvature="0"
       style="fill:#ffc107;fill-opacity:1" />
    <path
       id="path2891"
       d="m 161.41336,212.11847 c 1.29147,1.29147 5.11475,-2.63191 6.91868,-2.34619 1.80393,0.28571 4.22769,5.19852 5.85503,4.36934 1.62735,-0.82917 -0.92254,-5.67771 -0.0934,-7.30506 0.82918,-1.62735 6.25052,-2.41434 5.96481,-4.21827 -0.28572,-1.80393 -5.68492,-0.87711 -6.97639,-2.16858 -1.29147,-1.29147 -0.36465,-6.69067 -2.16858,-6.97639 -1.80393,-0.28571 -2.59092,5.13563 -4.21827,5.96481 -1.62735,0.82917 -6.47589,-1.72072 -7.30507,-0.0934 -0.82917,1.62734 4.08364,4.0511 4.36935,5.85503 0.28572,1.80393 -3.63766,5.62721 -2.34619,6.91868 z"
       inkscape:connector-curvature="0"
       style="fill:#ffc107;fill-opacity:1" />
    <rect
       style="fill:#ffffff;stroke-width:1.4876765"
       x="184.7858"
       y="24.020018"
       width="83.369835"
       height="57.977669"
       ry="2.710057"
       id="rect2895" />
    <polygon
       style="fill:#ffc107;fill-opacity:1"
       transform="matrix(1.4887472,0,0,1.4866068,184.04139,0.29005)"
       points="56.5,18 56.5,5 41.5,5 15.5,5 0.5,5 0.5,18 "
       id="polygon2897" />
    <g
       transform="translate(-60.855622,-709.31653)"
       style="fill:#596e7d;stroke-width:1.4876765"
       id="g2907">
      <ellipse
         cx="273.92761"
         cy="722.98602"
         rx="2.977494"
         ry="2.9732134"
         id="ellipse2899" />
      <ellipse
         cx="282.86005"
         cy="722.98602"
         rx="2.977494"
         ry="2.9732134"
         id="ellipse2901" />
      <ellipse
         cx="291.79254"
         cy="722.98602"
         rx="2.977494"
         ry="2.9732134"
         id="ellipse2903" />
      <ellipse
         cx="300.72498"
         cy="722.98602"
         rx="2.977494"
         ry="2.9732134"
         id="ellipse2905" />
    </g>
    <g
       transform="translate(-60.855622,-709.31653)"
       style="stroke-width:1.4876765"
       id="g2923">
      <path
         style="fill:#afb6bb"
         inkscape:connector-curvature="0"
         d="m 300.72502,709.60658 c -1.68226,0 -3.21867,0.58126 -4.46625,1.52377 0.795,0.60207 1.4575,1.3558 1.95772,2.22247 0.71609,-0.48761 1.57956,-0.77303 2.50853,-0.77303 2.46239,0 4.46625,2.00098 4.46625,4.45983 0,2.45884 -2.00386,4.45982 -4.46625,4.45982 -0.82326,0 -1.48873,0.6645 -1.48873,1.48659 0,0.82212 0.66547,1.48662 1.48873,1.48662 4.1045,0 7.44374,-3.33447 7.44374,-7.43303 0,-4.0986 -3.33924,-7.43304 -7.44374,-7.43304 z"
         id="path2909" />
      <path
         style="fill:#839594"
         inkscape:connector-curvature="0"
         d="m 294.30108,713.35282 c -0.63121,1.09118 -1.0198,2.33845 -1.0198,3.6868 h 2.97749 c 0,-1.53121 -0.7771,-2.88254 -1.95769,-3.6868 z"
         id="path2911" />
      <path
         style="fill:#839594"
         inkscape:connector-curvature="0"
         d="m 285.36861,713.35282 c -0.63124,1.09118 -1.01979,2.33845 -1.01979,3.6868 h 2.97748 c 0,-1.53121 -0.77712,-2.88254 -1.95769,-3.6868 z"
         id="path2913" />
      <path
         style="fill:#afb6bb"
         inkscape:connector-curvature="0"
         d="m 298.21649,713.35282 c -0.50169,-0.86667 -1.16272,-1.6204 -1.95772,-2.22247 -1.24754,-0.94251 -2.78395,-1.52377 -4.46622,-1.52377 -1.68229,0 -3.21866,0.58126 -4.46625,1.52377 0.795,0.60207 1.45747,1.3558 1.95771,2.22247 0.71609,-0.48761 1.57955,-0.77303 2.50854,-0.77303 0.92898,0 1.79244,0.28542 2.50853,0.77303 1.18059,0.80426 1.95769,2.15559 1.95769,3.6868 0,2.45884 -2.00383,4.45982 -4.46622,4.45982 -0.82329,0 -1.48875,0.6645 -1.48875,1.48659 0,0.82212 0.66546,1.48662 1.48875,1.48662 4.10447,0 7.44374,-3.33447 7.44374,-7.43303 0,-1.34835 -0.38858,-2.59562 -1.0198,-3.6868 z"
         id="path2915" />
      <path
         style="fill:#839594"
         inkscape:connector-curvature="0"
         d="m 276.43611,713.35282 c -0.63121,1.09118 -1.01979,2.33845 -1.01979,3.6868 h 2.97749 c 0,-1.53121 -0.7771,-2.88254 -1.9577,-3.6868 z"
         id="path2917" />
      <path
         style="fill:#afb6bb"
         inkscape:connector-curvature="0"
         d="m 289.28401,713.35282 c -0.50171,-0.86667 -1.16271,-1.6204 -1.95771,-2.22247 -1.24757,-0.94251 -2.78395,-1.52377 -4.46624,-1.52377 -1.68227,0 -3.21867,0.58126 -4.46625,1.52377 0.795,0.60207 1.4575,1.3558 1.95773,2.22247 0.71606,-0.48761 1.57955,-0.77303 2.50852,-0.77303 0.92897,0 1.79246,0.28542 2.50855,0.77303 1.18057,0.80426 1.95769,2.15559 1.95769,3.6868 0,2.45884 -2.00385,4.45982 -4.46624,4.45982 -0.82327,0 -1.48873,0.6645 -1.48873,1.48659 0,0.82212 0.66546,1.48662 1.48873,1.48662 4.10449,0 7.44374,-3.33447 7.44374,-7.43303 0,-1.34835 -0.38855,-2.59562 -1.01979,-3.6868 z"
         id="path2919" />
      <path
         style="fill:#afb6bb"
         inkscape:connector-curvature="0"
         d="m 280.35154,713.35282 c -0.50171,-0.86667 -1.16273,-1.6204 -1.95773,-2.22247 -1.24755,-0.94251 -2.78395,-1.52377 -4.46621,-1.52377 -4.1045,0 -7.44374,3.33444 -7.44374,7.43304 h 2.97749 c 0,-2.45885 2.00386,-4.45983 4.46625,-4.45983 0.92896,0 1.79242,0.28542 2.50851,0.77303 1.1806,0.80426 1.9577,2.15559 1.9577,3.6868 0,2.45884 -2.00383,4.45982 -4.46621,4.45982 -0.82331,0 -1.48877,0.6645 -1.48877,1.48659 0,0.82212 0.66546,1.48662 1.48877,1.48662 4.10445,0 7.44373,-3.33447 7.44373,-7.43303 0,-1.34835 -0.38858,-2.59562 -1.01979,-3.6868 z"
         id="path2921" />
    </g>
    <g
       style="fill:#2196f3;stroke-width:1.10757232"
       transform="matrix(1.0007196,0,0,0.99928092,-60.855622,-709.31653)"
       aria-label="18"
       id="g2929">
      <path
         inkscape:connector-curvature="0"
         d="m 278.41771,743.58647 -9.34514,0.25959 -2.56703,2.10554 v 8.85481 l 2.30744,-1.06719 0.25959,27.92005 h 10.09506 z"
         style="font-variant-ligatures:normal;font-variant-caps:normal;font-variant-numeric:normal;font-feature-settings:normal"
         id="path2925" />
      <path
         inkscape:connector-curvature="0"
         d="m 294.82939,770.29512 q -0.95182,0 -1.55752,-0.54802 -0.51918,-0.46149 -0.60571,-1.18256 -0.0577,-0.69224 0.40381,-1.15372 0.46149,-0.54802 1.4133,-0.57686 1.29794,-0.0289 1.99017,0.51917 0.57686,0.46149 0.54802,1.18256 -0.0288,0.69224 -0.6057,1.21141 -0.63455,0.54802 -1.58637,0.54802 z m -1.15372,-18.92103 q 0.92298,-0.2019 1.47099,0.14422 0.49034,0.34611 0.51918,0.98066 0.0288,0.63455 -0.37496,1.06719 -0.49033,0.54802 -1.32678,0.54802 -0.83645,0 -1.32678,-0.37496 -0.49033,-0.31727 -0.51917,-0.8076 -0.14422,-1.15373 1.55752,-1.55753 z m 6.98001,7.84531 q 2.13439,-4.00919 2.42282,-8.1049 0.66339,-8.16257 -8.53754,-8.50869 -3.54769,-0.14421 -6.23009,1.75943 -2.45166,1.73058 -3.51885,4.61488 -1.00951,2.85546 -0.28843,5.59555 0.77876,2.94199 3.34579,4.64373 -2.33629,1.87479 -4.32646,4.64372 -4.00918,5.50902 -2.42281,10.00853 1.38447,3.9515 4.67257,6.432 3.0862,2.2786 7.00886,2.74009 3.86496,0.46149 7.35497,-1.03835 3.69191,-1.61521 5.79745,-5.01869 3.77843,-6.08588 -0.37496,-12.54672 -2.0767,-3.23042 -4.90332,-5.22058 z"
         style="font-variant-ligatures:normal;font-variant-caps:normal;font-variant-numeric:normal;font-feature-settings:normal"
         id="path2927" />
    </g>
    <g
       transform="rotate(-1.7801891,-23425.815,1679.1726)"
       style="font-variant-ligatures:normal;font-variant-caps:normal;font-variant-numeric:normal;font-feature-settings:normal;fill:#ffc107;fill-opacity:1;stroke-width:0.26458335"
       aria-label="Das de la semana"
       id="g2959">
      <path
         inkscape:connector-curvature="0"
         d="m 126.70189,845.73272 q 4.82577,0.57137 9.57311,2.69268 4.14828,1.87257 6.29667,4.46998 2.66619,3.23393 2.01617,7.42723 -1.14649,7.48599 -11.03304,8.38835 -4.93661,0.46138 -10.32096,-0.71985 z m 3.32719,16.95943 q 8.27666,0.39701 8.15246,-4.46894 -1.27142,-5.01838 -6.69807,-4.90609 z"
         style="font-variant-ligatures:normal;font-variant-caps:normal;font-variant-numeric:normal;font-feature-settings:normal;fill:#ffc107;fill-opacity:1"
         id="path2931" />
      <path
         inkscape:connector-curvature="0"
         d="m 146.89185,855.67383 -2.93708,16.43105 6.98616,1.24879 3.28474,-16.61388 z m 5.91641,-7.74418 -6.38945,4.61488 1.26601,1.92366 7.12922,-2.97777 z"
         style="font-variant-ligatures:normal;font-variant-caps:normal;font-variant-numeric:normal;font-feature-settings:normal;fill:#ffc107;fill-opacity:1"
         id="path2933" />
      <path
         inkscape:connector-curvature="0"
         d="m 159.57218,870.4828 q -0.56522,-0.17593 -0.89951,-0.48997 -0.31728,-0.31137 -0.30589,-0.606 0.0311,-0.30898 0.39814,-0.42571 0.42079,-0.12573 1.16152,0.0429 0.51951,0.13389 0.78573,0.43724 0.23219,0.29801 0.16708,0.60164 -0.0678,0.32065 -0.40082,0.44273 -0.35538,0.15343 -0.90625,-0.003 z m 6.54745,-11.16003 q -4.33553,-1.48287 -7.58985,-1.52309 -1.637,-0.0129 -2.39616,0.2689 l 0.20941,5.10691 q 1.98873,-0.22825 4.09082,0.15414 4.20418,0.76478 4.72622,3.88071 -1.44996,-1.20412 -3.43152,-2.02094 -3.99716,-1.63897 -6.74294,0.30124 -1.62885,1.1566 -2.24174,2.83888 -0.61022,1.66528 -0.0152,3.20594 0.63005,1.65079 2.39771,2.60838 1.97819,1.0604 4.99961,1.02918 2.46619,-0.0487 4.19757,-1.74713 l -0.60994,1.99661 5.80278,0.91118 q 1.59917,-3.41056 1.97383,-7.24008 0.33387,-3.3477 -0.7105,-5.69126 -1.28485,-2.92186 -4.66011,-4.07957 z"
         style="font-variant-ligatures:normal;font-variant-caps:normal;font-variant-numeric:normal;font-feature-settings:normal;fill:#ffc107;fill-opacity:1"
         id="path2935" />
      <path
         inkscape:connector-curvature="0"
         d="m 174.45733,869.78621 q 1.48142,0.88969 2.65856,1.58302 3.22311,2.17844 3.98708,1.65342 0.28624,-0.32722 0.14913,-0.60585 -0.13711,-0.27863 -1.57852,-1.07619 -1.42209,-0.8124 -3.28822,-1.68316 -1.86613,-0.87077 -2.38,-2.38034 -0.48646,-1.45384 0.27694,-2.89975 0.83036,-1.55871 2.6981,-2.28611 2.15895,-0.82811 5.10592,-0.2496 2.49034,0.48374 4.85359,1.80208 1.09311,0.8039 1.67611,1.52336 l -2.59643,3.09867 q -0.90524,-0.7792 -1.8064,-1.19302 -2.92596,-1.5313 -3.2539,-0.35825 -0.0597,0.32225 0.45671,0.75499 0.53577,0.4179 2.34706,1.17722 1.83061,0.74448 2.93494,1.46298 1.64459,1.10225 1.76887,3.06444 0.13686,1.99859 -1.73793,3.83698 -1.93189,1.74401 -6.05006,1.22002 -3.59098,-0.43731 -9.2969,-3.94981 z"
         style="font-variant-ligatures:normal;font-variant-caps:normal;font-variant-numeric:normal;font-feature-settings:normal;fill:#ffc107;fill-opacity:1"
         id="path2937" />
      <path
         inkscape:connector-curvature="0"
         d="m 207.53435,874.17477 q -0.824,0.11128 -1.44595,-0.25989 -0.52237,-0.32701 -0.63061,-0.82193 -0.0707,-0.52592 0.39256,-0.84486 0.55225,-0.34501 1.63578,-0.27563 0.49725,0.0477 0.91839,0.3477 0.41948,0.31714 0.52045,0.70753 0.11648,0.40918 -0.20793,0.72414 -0.34484,0.34761 -1.18269,0.42294 z m -6.08676,-7.80016 q -1.87731,1.1696 -2.95611,3.57524 -0.70719,2.32017 -0.13002,4.7809 0.92408,2.63246 2.68914,4.25544 2.0058,1.81913 4.92828,1.84002 2.35005,0.0352 3.65632,-0.77391 1.30628,-0.80908 1.70516,-1.35916 l -0.2567,2.67488 6.29422,0.95014 2.04576,-22.93995 -6.90986,-1.02652 -0.83428,8.69338 q -1.27232,-0.98734 -3.18919,-1.5693 -3.8354,-1.14678 -7.04272,0.89884 z"
         style="font-variant-ligatures:normal;font-variant-caps:normal;font-variant-numeric:normal;font-feature-settings:normal;fill:#ffc107;fill-opacity:1"
         id="path2939" />
      <path
         inkscape:connector-curvature="0"
         d="m 228.56049,869.54617 q 1.53164,-0.16675 2.16483,0.6384 0.31536,0.41976 0.319,0.85176 l -4.67098,0.11488 q -0.0454,-0.33137 0.18907,-0.7118 0.48362,-0.72526 1.99808,-0.89324 z m -1.22187,7.18305 q -0.8578,-0.56217 -1.12157,-1.46178 -0.14109,-0.44183 -0.0993,-0.78424 l 11.62716,-0.54984 q -0.22925,-2.34778 -1.65387,-4.64291 -2.88237,-4.6099 -8.97084,-4.47553 -3.47685,0.0794 -5.66285,2.39258 -1.97856,2.06896 -2.38021,5.26963 -0.41145,3.09634 0.81308,5.77436 1.31411,2.87439 3.96611,3.94484 4.59714,1.88309 9.10386,-0.0396 2.26194,-0.96072 3.58262,-2.28235 l -3.41874,-4.11291 q -0.85669,0.6295 -2.01037,1.06506 -2.29139,0.88953 -3.77505,-0.0973 z"
         style="font-variant-ligatures:normal;font-variant-caps:normal;font-variant-numeric:normal;font-feature-settings:normal;fill:#ffc107;fill-opacity:1"
         id="path2941" />
      <path
         inkscape:connector-curvature="0"
         d="m 247.2305,860.84955 -1.02991,22.80051 7.07246,0.31947 1.35365,-23.09626 z"
         style="font-variant-ligatures:normal;font-variant-caps:normal;font-variant-numeric:normal;font-feature-settings:normal;fill:#ffc107;fill-opacity:1"
         id="path2943" />
      <path
         inkscape:connector-curvature="0"
         d="m 261.45397,880.02335 q -0.58292,-0.1031 -0.95421,-0.37239 -0.35408,-0.26878 -0.38,-0.56249 -0.008,-0.31043 0.34116,-0.4726 0.40152,-0.17789 1.15762,-0.10421 0.53226,0.0672 0.83468,0.33445 0.26799,0.26628 0.24176,0.57571 -0.0267,0.32664 -0.34166,0.48982 -0.33315,0.1971 -0.89935,0.11171 z m 5.08487,-11.89788 q -4.48815,-0.92317 -7.72147,-0.55188 -1.62552,0.19401 -2.34297,0.56951 l 0.853,5.03952 q 1.94396,-0.4777 4.07751,-0.36398 4.26711,0.22743 5.17868,3.25243 -1.59048,-1.01127 -3.65937,-1.57116 -4.17221,-1.12078 -6.65083,1.15083 -1.46965,1.35313 -1.86507,3.09937 -0.39492,1.72903 0.39001,3.18217 0.83359,1.55794 2.70807,2.28451 2.09631,0.80195 5.08958,0.38921 2.44028,-0.35988 3.94317,-2.2635 l -0.35278,2.05768 5.87141,0.17067 q 1.15542,-3.58529 1.0432,-7.43145 -0.0918,-3.36306 -1.42391,-5.55588 -1.64374,-2.73609 -5.13823,-3.45805 z"
         style="font-variant-ligatures:normal;font-variant-caps:normal;font-variant-numeric:normal;font-feature-settings:normal;fill:#ffc107;fill-opacity:1"
         id="path2945" />
      <path
         inkscape:connector-curvature="0"
         d="m 284.8292,877.54642 q 1.58703,0.68374 2.84626,1.21355 3.48531,1.72819 4.17226,1.10578 0.23996,-0.36253 0.0668,-0.62034 -0.17311,-0.25781 -1.70817,-0.8556 -1.5179,-0.61507 -3.48366,-1.22865 -1.96575,-0.61358 -2.67675,-2.04094 -0.67637,-1.3758 -0.11303,-2.91075 0.61461,-1.6557 2.36839,-2.62616 2.02893,-1.10919 5.02677,-0.92968 2.53265,0.14661 5.05088,1.13731 1.19073,0.65062 1.86464,1.28572 l -2.15905,3.41785 q -1.00125,-0.65125 -1.94962,-0.94093 -3.10435,-1.12656 -3.2726,0.0798 -0.0161,0.32734 0.55351,0.68718 0.58681,0.34256 2.48332,0.85302 1.91368,0.49318 3.10412,1.05766 1.77713,0.8726 2.16251,2.80058 0.40271,1.96237 -1.2096,4.03481 -1.68149,1.98653 -5.83275,2.01756 -3.61722,0.0465 -9.74134,-2.67201 z"
         style="font-variant-ligatures:normal;font-variant-caps:normal;font-variant-numeric:normal;font-feature-settings:normal;fill:#ffc107;fill-opacity:1"
         id="path2947" />
      <path
         inkscape:connector-curvature="0"
         d="m 308.89089,871.41032 q 1.50833,-0.31412 2.21643,0.42601 0.35449,0.38729 0.39989,0.81691 l -4.63796,0.56615 q -0.0772,-0.32543 0.11933,-0.72675 0.4112,-0.76864 1.90231,-1.08232 z m -0.52135,7.26756 q -0.90815,-0.47657 -1.2577,-1.34645 -0.18317,-0.42611 -0.17472,-0.77095 l 11.51946,-1.67191 q -0.45528,-2.31459 -2.09521,-4.46117 -3.31475,-4.30948 -9.36168,-3.58683 -3.45286,0.41534 -5.40487,2.92911 -1.76916,2.25064 -1.85934,5.47514 -0.11002,3.12163 1.3678,5.66865 1.58597,2.7338 4.32909,3.54271 4.75772,1.42961 9.05733,-0.91995 2.15842,-1.175 3.34506,-2.61818 l -3.80053,-3.76295 q -0.79179,0.70941 -1.89792,1.25452 -2.19461,1.107 -3.76677,0.26826 z"
         style="font-variant-ligatures:normal;font-variant-caps:normal;font-variant-numeric:normal;font-feature-settings:normal;fill:#ffc107;fill-opacity:1"
         id="path2949" />
      <path
         inkscape:connector-curvature="0"
         d="m 339.6978,865.26247 q -3.68365,0.14771 -5.36948,3.10261 -0.96261,1.65643 -1.11258,3.66564 0.0817,-1.67774 -0.73711,-3.09972 -0.81051,-2.54372 -3.3074,-3.09855 -2.02597,-0.45958 -4.42682,2.03376 l -0.0774,-2.06589 -6.40037,0.31205 1.18479,18.37686 6.26879,-0.51194 -0.0177,-5.10525 q 0.34112,-6.12522 2.20434,-6.12261 1.98269,-0.0211 2.08592,5.39004 0.0602,2.7051 -0.27517,5.43162 l 6.39943,-0.32925 q -7.3e-4,-2.88083 0.33187,-5.65896 0.1729,-5.40883 1.84927,-5.03383 1.69265,0.35687 1.88511,5.50441 -0.0783,2.69535 -0.48996,5.288 l 5.96894,-0.63371 q 0.44959,-4.44053 -0.0124,-8.83169 -0.41502,-3.84169 -1.58438,-6.00371 -1.4581,-2.71567 -4.36774,-2.60988 z"
         style="font-variant-ligatures:normal;font-variant-caps:normal;font-variant-numeric:normal;font-feature-settings:normal;fill:#ffc107;fill-opacity:1"
         id="path2951" />
      <path
         inkscape:connector-curvature="0"
         d="m 353.63697,877.82265 q -0.59081,-0.037 -0.99,-0.26286 -0.38203,-0.22731 -0.44078,-0.51625 -0.043,-0.30755 0.28592,-0.50793 0.379,-0.22186 1.13859,-0.23358 0.53644,0.007 0.86697,0.23859 0.2962,0.23449 0.30489,0.54491 0.0101,0.32758 -0.28448,0.52509 -0.30891,0.23328 -0.88111,0.21203 z m 3.71631,-12.39373 q -4.56343,-0.41322 -7.73459,0.31889 -1.59344,0.37536 -2.26418,0.82907 l 1.41365,4.91182 q 1.878,-0.69302 4.01082,-0.81967 4.26566,-0.25328 5.51123,2.65019 -1.69401,-0.82623 -3.81269,-1.1502 -4.2717,-0.64506 -6.47949,1.89056 -1.30836,1.50965 -1.50514,3.28925 -0.19821,1.76245 0.74497,3.11823 1.0033,1.45446 2.94752,1.96588 2.17313,0.56141 5.1011,-0.18492 2.38441,-0.63169 3.66397,-2.69207 l -0.11942,2.08428 5.85343,-0.48988 q 0.7454,-3.69238 0.20189,-7.50161 -0.46896,-3.33146 -2.03894,-5.36078 -1.94065,-2.53415 -5.49413,-2.85904 z"
         style="font-variant-ligatures:normal;font-variant-caps:normal;font-variant-numeric:normal;font-feature-settings:normal;fill:#ffc107;fill-opacity:1"
         id="path2953" />
      <path
         inkscape:connector-curvature="0"
         d="m 375.31026,861.88435 q -3.22055,0.0203 -5.26984,1.73276 l -0.0921,-1.16821 -5.39395,0.42941 1.57337,18.49002 6.43898,-0.69876 -0.61685,-6.48252 q -0.82846,-5.55857 1.98414,-5.98508 2.07995,-0.31235 3.03718,5.47482 0.47045,2.73853 0.36011,5.71336 l 6.71258,-0.57251 q 0.0246,-4.40363 -1.03381,-8.56844 -0.93188,-3.79736 -2.58144,-5.90547 -2.0705,-2.63419 -5.11834,-2.45938 z"
         style="font-variant-ligatures:normal;font-variant-caps:normal;font-variant-numeric:normal;font-feature-settings:normal;fill:#ffc107;fill-opacity:1"
         id="path2955" />
      <path
         inkscape:connector-curvature="0"
         d="m 391.72255,873.79639 q -0.59192,-0.008 -1.00185,-0.21331 -0.39285,-0.20803 -0.4659,-0.49369 -0.0583,-0.30502 0.26031,-0.52152 0.3675,-0.24043 1.12557,-0.28991 0.53612,-0.0197 0.87775,0.19518 0.3075,0.21947 0.33161,0.52907 0.0264,0.32667 -0.25801,0.53859 -0.29692,0.24836 -0.86948,0.25559 z m 3.09539,-12.56321 q -4.57834,-0.18577 -7.70916,0.70314 -1.57281,0.45413 -2.22016,0.94063 l 1.65616,4.83545 q 1.84121,-0.78556 3.9651,-1.01811 4.24779,-0.4651 5.6362,2.37283 -1.733,-0.74096 -3.86517,-0.95917 -4.29849,-0.43184 -6.37745,2.21045 -1.23168,1.57283 -1.33971,3.36003 -0.11032,1.77012 0.89911,3.07731 1.07439,1.40277 3.04164,1.81688 2.19836,0.45265 5.08559,-0.43836 2.35005,-0.74949 3.52557,-2.87095 l -0.0156,2.08764 5.82182,-0.78036 q 0.56086,-3.72488 -0.17141,-7.50237 -0.63405,-3.30402 -2.303,-5.25275 -2.06428,-2.43451 -5.62951,-2.58229 z"
         style="font-variant-ligatures:normal;font-variant-caps:normal;font-variant-numeric:normal;font-feature-settings:normal;fill:#ffc107;fill-opacity:1"
         id="path2957" />
    </g>
  </g>
</svg>
