<?xml version="1.0" encoding="UTF-8"?>
<!-- Created with Inkscape (http://www.inkscape.org/) -->
<svg width="512" height="512" version="1.1" viewBox="0 0 135.46667 135.46667" xmlns="http://www.w3.org/2000/svg" xmlns:cc="http://creativecommons.org/ns#" xmlns:dc="http://purl.org/dc/elements/1.1/" xmlns:rdf="http://www.w3.org/1999/02/22-rdf-syntax-ns#">
 <metadata>
  <rdf:RDF>
   <cc:Work rdf:about="">
    <dc:format>image/svg+xml</dc:format>
    <dc:type rdf:resource="http://purl.org/dc/dcmitype/StillImage"/>
    <dc:title/>
   </cc:Work>
  </rdf:RDF>
 </metadata>
 <rect x="-5.8593751e-6" y="-1.8554688e-6" width="135.46667" height="135.46667" ry="2.061909" opacity="0" stroke-width=".82785952"/>
 <path d="m67.19 25.08049a44.046681 44.039973 0 0 0 -15.0528 2.70983l3.4388 0.2979-2.1026 3.0834a40.394028 40.387877 0 0 1 13.7166 -2.43884 40.394028 40.387877 0 0 1 40.394 40.38787 40.394028 40.387877 0 0 1 -40.394 40.38787 40.394028 40.387877 0 0 1 -40.394 -40.38787 40.394028 40.387877 0 0 1 19.0002 -34.23257l-1.5613-3.28975a44.046681 44.039973 0 0 0 -21.0915 37.52232 44.046681 44.039973 0 0 0 44.0466 44.03992 44.046681 44.039973 0 0 0 44.0464 -44.03992 44.046681 44.039973 0 0 0 -44.0464 -44.04016z" fill="#ff5252" stroke-width=".44518062"/>
 <path d="m39.6409 30.37099 12.8724-0.88282-8.1518 10.13913z" fill="#ff5252" stroke-width=".44518062"/>
 <ellipse cx="64.900627" cy="65.691101" rx="55.424374" ry="50.397133" opacity="0" stroke-width="2.35574746"/>
 <g fill="#1565c0" stroke="#fff" stroke-width=".11778737">
  <g transform="scale(1.0000762 .99992383)" style="font-feature-settings:normal;font-variant-caps:normal;font-variant-ligatures:normal;font-variant-numeric:normal" aria-label="Monday">
   <path d="m62.696211 20.137124 0.25766 4.045874-1.564363 0.131897-0.08282-2.070481-0.31594 1.423264-1.40486 0.196312-0.570532-1.469274 0.205514 1.742271-1.432466 0.294469 0.196312-4.294332 1.407928-0.18711 0.779114 2.453904 0.944753-2.380287z" style="font-feature-settings:normal;font-variant-caps:normal;font-variant-ligatures:normal;font-variant-numeric:normal"/>
   <path d="m65.613289 24.431456q-1.036774 0-1.769878-0.628813-0.730036-0.628813-0.730036-1.518353t0.730036-1.518353q0.733104-0.628813 1.769878-0.628813 1.033707 0 1.763743 0.628813 0.733104 0.628813 0.733104 1.518353t-0.733104 1.518353q-0.730036 0.628813-1.763743 0.628813zm-0.171773-1.340445q0.441702 0 0.754575-0.26993 0.31594-0.269929 0.31594-0.650284t-0.31594-0.650285q-0.312873-0.269929-0.754575-0.269929-0.44477 0-0.76071 0.269929-0.312873 0.26993-0.312873 0.650285t0.312873 0.650284q0.31594 0.26993 0.76071 0.26993z" style="font-feature-settings:normal;font-variant-caps:normal;font-variant-ligatures:normal;font-variant-numeric:normal"/>
   <path d="m69.80333 22.28429 0.30367 1.757608-1.530622 0.389558-0.309806-4.02747 1.536758-0.266862 1.515285 2.006066 0.0184-2.006066 1.901776-0.196312-0.674824 4.490644-1.217749 0.177908z" style="font-feature-settings:normal;font-variant-caps:normal;font-variant-ligatures:normal;font-variant-numeric:normal"/>
   <path d="m73.591543 24.431456-0.196312-4.294332q4.183906 0 4.183906 2.147166t-3.987594 2.147166zm1.091987-3.156334 0.205515 1.484612q1.328175 0.0061 1.328175-0.739239 0-0.745373-1.53369-0.745373z" style="font-feature-settings:normal;font-variant-caps:normal;font-variant-ligatures:normal;font-variant-numeric:normal"/>
   <path d="m78.904245 23.81798-0.214716 0.613476-1.208548-0.730037 1.515286-3.564295 1.153335-0.07975 1.812821 3.690058-1.432466 0.684026-0.31594-0.861934zm1.049044-1.343513-0.343546-1.110391-0.404894 1.226952z" style="font-feature-settings:normal;font-variant-caps:normal;font-variant-ligatures:normal;font-variant-numeric:normal"/>
   <path d="m82.42253 22.591028-1.444736-1.457005 1.220817-0.996899 0.837395 1.226952 0.696295-1.527555 1.628779 0.558263-1.711598 2.196244 0.131897 1.723867-1.493814-0.202447z" style="font-feature-settings:normal;font-variant-caps:normal;font-variant-ligatures:normal;font-variant-numeric:normal"/>
  </g>
  <g transform="scale(1.0000762 .99992383)" style="font-feature-settings:normal;font-variant-caps:normal;font-variant-ligatures:normal;font-variant-numeric:normal" aria-label="Tuesday">
   <path d="m86.763448 45.655313 0.150302 2.613407-1.66252 0.429433 0.285266-3.122592-1.254558-0.107358 0.09816-1.134931 3.598036-0.214716 0.131898 1.677856z" style="font-feature-settings:normal;font-variant-caps:normal;font-variant-ligatures:normal;font-variant-numeric:normal"/>
   <path d="m88.662156 44.563326 1.634913 0.319007q-0.815923 2.506049 0.233121 2.533656 1.245356-0.0092 0.720834-2.595003l1.496882-0.472377q0.687093 4.257523-2.217716 4.294332-2.935482-0.02761-1.868034-4.079615z" style="font-feature-settings:normal;font-variant-caps:normal;font-variant-ligatures:normal;font-variant-numeric:normal"/>
   <path d="m96.183372 43.796481 0.07975 1.625711-1.90791 0.205514 0.02454 0.371153 1.251491-0.11656 0.110426 1.110391-1.306704 0.09509 0.02147 0.300603 1.852697-0.141099 0.276064 1.395658-3.653249 0.125762 0.371153-4.426229z" style="font-feature-settings:normal;font-variant-caps:normal;font-variant-ligatures:normal;font-variant-numeric:normal"/>
   <path d="m97.536086 46.94668q-1.107324-0.156437-0.978494-1.377254t2.846528-1.444736l0.25766 1.386456q-1.34658-0.03067-1.444736 0.319007-0.09816 0.349682 1.03064 0.401827 1.128796 0.05215 1.104256 1.374186-0.0245 1.322041-2.97229 1.410995l-0.542927-1.450871q1.509151 0.162571 1.659453-0.150301 0.150301-0.31594-0.96009-0.469309z" style="font-feature-settings:normal;font-variant-caps:normal;font-variant-ligatures:normal;font-variant-numeric:normal"/>
   <path d="m100.72309 48.642941-0.19631-4.294332q4.18391 0 4.18391 2.147166t-3.9876 2.147166zm1.09199-3.156334 0.20551 1.484612q1.32818 0.0061 1.32818-0.739239 0-0.745373-1.53369-0.745373z" style="font-feature-settings:normal;font-variant-caps:normal;font-variant-ligatures:normal;font-variant-numeric:normal"/>
   <path d="m106.0358 48.029465-0.21472 0.613476-1.20855-0.730037 1.51529-3.564295 1.15333-0.07975 1.81282 3.690058-1.43246 0.684026-0.31594-0.861934zm1.04904-1.343513-0.34355-1.110391-0.40489 1.226952z" style="font-feature-settings:normal;font-variant-caps:normal;font-variant-ligatures:normal;font-variant-numeric:normal"/>
   <path d="m109.55408 46.802513-1.44474-1.457006 1.22082-0.996898 0.83739 1.226952 0.6963-1.527555 1.62878 0.558263-1.7116 2.196244 0.1319 1.723867-1.49382-0.202447z" style="font-feature-settings:normal;font-variant-caps:normal;font-variant-ligatures:normal;font-variant-numeric:normal"/>
  </g>
  <g transform="scale(1.0000762 .99992383)" style="font-feature-settings:normal;font-variant-caps:normal;font-variant-ligatures:normal;font-variant-numeric:normal" aria-label="Wednesday">
   <path d="m82.004263 73.256948-0.613476 2.147166-1.211615 0.159504-1.82509-3.610306 1.503016-0.84353 0.920214 2.453904 0.720834-1.938584 1.226952 0.168706 0.506117 1.769878 0.736171-2.542858 1.668655 0.914079-1.79135 3.469207-1.371119-0.294469z" style="font-feature-settings:normal;font-variant-caps:normal;font-variant-ligatures:normal;font-variant-numeric:normal"/>
   <path d="m88.869059 70.557654 0.07975 1.625711-1.90791 0.205515 0.02454 0.371153 1.251491-0.116561 0.110425 1.110392-1.306703 0.09509 0.02147 0.300604 1.852698-0.1411 0.276064 1.395658-3.653249 0.125762 0.371153-4.426228z" style="font-feature-settings:normal;font-variant-caps:normal;font-variant-ligatures:normal;font-variant-numeric:normal"/>
   <path d="m89.6175 75.404114-0.196312-4.294332q4.183906 0 4.183906 2.147166t-3.987594 2.147166zm1.091987-3.156334 0.205515 1.484612q1.328175 0.0061 1.328175-0.739239 0-0.745373-1.53369-0.745373z" style="font-feature-settings:normal;font-variant-caps:normal;font-variant-ligatures:normal;font-variant-numeric:normal"/>
   <path d="m95.301354 73.256948 0.30367 1.757609-1.530622 0.389557-0.309806-4.02747 1.536758-0.266862 1.515285 2.006067 0.0184-2.006067 1.901776-0.196312-0.674824 4.490644-1.217749 0.177908z" style="font-feature-settings:normal;font-variant-caps:normal;font-variant-ligatures:normal;font-variant-numeric:normal"/>
   <path d="m101.87475 70.557654 0.0797 1.625711-1.90791 0.205515 0.0245 0.371153 1.25149-0.116561 0.11043 1.110392-1.30671 0.09509 0.0215 0.300604 1.8527-0.1411 0.27607 1.395658-3.653253 0.125762 0.371153-4.426228z" style="font-feature-settings:normal;font-variant-caps:normal;font-variant-ligatures:normal;font-variant-numeric:normal"/>
   <path d="m103.22746 73.707853q-1.10732-0.156436-0.97849-1.377254 0.12883-1.220817 2.84653-1.444735l0.25766 1.386455q-1.34658-0.03067-1.44474 0.319008-0.0982 0.349681 1.03064 0.401826 1.1288 0.05215 1.10426 1.374186-0.0245 1.322041-2.97229 1.410995l-0.54293-1.45087q1.50915 0.162571 1.65945-0.150302 0.15031-0.31594-0.96009-0.469309z" style="font-feature-settings:normal;font-variant-caps:normal;font-variant-ligatures:normal;font-variant-numeric:normal"/>
   <path d="m106.41447 75.404114-0.19631-4.294332q4.1839 0 4.1839 2.147166t-3.98759 2.147166zm1.09199-3.156334 0.20551 1.484612q1.32818 0.0061 1.32818-0.739239 0-0.745373-1.53369-0.745373z" style="font-feature-settings:normal;font-variant-caps:normal;font-variant-ligatures:normal;font-variant-numeric:normal"/>
   <path d="m111.72717 74.790638-0.21472 0.613476-1.20854-0.730037 1.51528-3.564295 1.15334-0.07975 1.81282 3.690058-1.43247 0.684026-0.31594-0.861934zm1.04904-1.343512-0.34354-1.110392-0.4049 1.226952z" style="font-feature-settings:normal;font-variant-caps:normal;font-variant-ligatures:normal;font-variant-numeric:normal"/>
   <path d="m115.24546 73.563686-1.44474-1.457005 1.22082-0.996899 0.83739 1.226952 0.6963-1.527555 1.62878 0.558263-1.7116 2.196244 0.1319 1.723867-1.49382-0.202447z" style="font-feature-settings:normal;font-variant-caps:normal;font-variant-ligatures:normal;font-variant-numeric:normal"/>
  </g>
  <g transform="scale(1.0000762 .99992383)" style="font-feature-settings:normal;font-variant-caps:normal;font-variant-ligatures:normal;font-variant-numeric:normal" aria-label="Thursday">
   <path d="m71.389913 101.2661 0.150302 2.6134-1.66252 0.42944 0.285266-3.1226-1.254558-0.10735 0.09816-1.134935 3.598036-0.214717 0.131898 1.677852z" style="font-feature-settings:normal;font-variant-caps:normal;font-variant-ligatures:normal;font-variant-numeric:normal"/>
   <path d="m74.494101 102.95929 0.110426 1.03677-1.174807 0.20552-0.533724-3.39866 1.306704-0.55826 0.147234 1.47234 1.177874-0.13496 0.0184-1.34045 2.045942 0.20552-0.782181 3.7698-1.315906-0.38955 0.01534-0.9785z" style="font-feature-settings:normal;font-variant-caps:normal;font-variant-ligatures:normal;font-variant-numeric:normal"/>
   <path d="m78.036924 100.17411 1.634914 0.31901q-0.815923 2.50604 0.233121 2.53365 1.245356-9e-3 0.720834-2.595l1.496881-0.472378q0.687093 4.257518-2.217715 4.294328-2.935483-0.0276-1.868035-4.07961z" style="font-feature-settings:normal;font-variant-caps:normal;font-variant-ligatures:normal;font-variant-numeric:normal"/>
   <path d="m83.907889 100.97163 0.04294 0.82819q1.533689 0 1.533689-0.30674t-1.576633-0.52145zm0.205515 3.03364-1.708531 0.23925 0.355816-4.579597q3.950785 0.294469 4.082683 1.582767 0.134964 1.28523-1.35885 1.77908l1.226952 0.66562-1.257625 1.11346-1.438601-1.77908z" style="font-feature-settings:normal;font-variant-caps:normal;font-variant-ligatures:normal;font-variant-numeric:normal"/>
   <path d="m88.235961 102.55746q-1.107324-0.15643-0.978494-1.37725 0.12883-1.220818 2.846528-1.444737l0.25766 1.386457q-1.34658-0.0307-1.444736 0.31901-0.09816 0.34968 1.03064 0.40182 1.128795 0.0521 1.104256 1.37419-0.02454 1.32204-2.97229 1.41099l-0.542927-1.45087q1.509151 0.16257 1.659453-0.1503 0.150301-0.31594-0.96009-0.46931z" style="font-feature-settings:normal;font-variant-caps:normal;font-variant-ligatures:normal;font-variant-numeric:normal"/>
   <path d="m91.42297 104.25372-0.196313-4.294328q4.183906 0 4.183906 2.147168 0 2.14716-3.987593 2.14716zm1.091987-3.15633 0.205514 1.48461q1.328176 6e-3 1.328176-0.73924 0-0.74537-1.53369-0.74537z" style="font-feature-settings:normal;font-variant-caps:normal;font-variant-ligatures:normal;font-variant-numeric:normal"/>
   <path d="m96.73567 103.64025-0.214716 0.61347-1.208548-0.73003 1.515286-3.564298 1.153334-0.07975 1.812822 3.69006-1.432467 0.68402-0.31594-0.86193zm1.049044-1.34352-0.343546-1.11039-0.404895 1.22696z" style="font-feature-settings:normal;font-variant-caps:normal;font-variant-ligatures:normal;font-variant-numeric:normal"/>
   <path d="m100.25395 102.4133-1.444731-1.45701 1.220821-0.996898 0.83739 1.226948 0.6963-1.527551 1.62877 0.558261-1.71159 2.19625 0.13189 1.72386-1.49381-0.20244z" style="font-feature-settings:normal;font-variant-caps:normal;font-variant-ligatures:normal;font-variant-numeric:normal"/>
  </g>
  <g transform="scale(1.0000762 .99992383)" style="font-feature-settings:normal;font-variant-caps:normal;font-variant-ligatures:normal;font-variant-numeric:normal" aria-label="Friday">
   <path d="m35.440788 99.572892-0.260727 1.779078-1.493814-0.0797 0.06135 0.30674 1.187076 0.13496-0.162571 1.27603-0.818991-0.18404 0.276065 1.33124-1.503016 0.20245-0.337412-4.02747z" style="font-feature-settings:normal;font-variant-caps:normal;font-variant-ligatures:normal;font-variant-numeric:normal"/>
   <path d="m36.897794 101.0575 0.04294 0.8282q1.53369 0 1.53369-0.30674t-1.576633-0.52146zm0.205514 3.03364-1.70853 0.23926 0.355816-4.5796q3.950785 0.29447 4.082682 1.58277 0.134965 1.28523-1.358849 1.77908l1.226952 0.66562-1.257626 1.11346-1.438601-1.77908z" style="font-feature-settings:normal;font-variant-caps:normal;font-variant-ligatures:normal;font-variant-numeric:normal"/>
   <path d="m41.541806 100.06981 0.312873 4.13789-1.736137 0.32821 0.07975-4.35874z" style="font-feature-settings:normal;font-variant-caps:normal;font-variant-ligatures:normal;font-variant-numeric:normal"/>
   <path d="m42.204361 104.3396-0.196312-4.29433q4.183905 0 4.183905 2.14716 0 2.14717-3.987593 2.14717zm1.091987-3.15633 0.205514 1.48461q1.328176 6e-3 1.328176-0.73924 0-0.74537-1.53369-0.74537z" style="font-feature-settings:normal;font-variant-caps:normal;font-variant-ligatures:normal;font-variant-numeric:normal"/>
   <path d="m47.517061 103.72612-0.214716 0.61348-1.208548-0.73004 1.515286-3.56429 1.153334-0.07975 1.812822 3.690054-1.432466 0.68403-0.315941-0.86193zm1.049044-1.34351-0.343546-1.11039-0.404894 1.22695z" style="font-feature-settings:normal;font-variant-caps:normal;font-variant-ligatures:normal;font-variant-numeric:normal"/>
   <path d="m51.035346 102.49917-1.444736-1.457 1.220817-0.9969 0.837395 1.22695 0.696295-1.527555 1.628778 0.558265-1.711597 2.19624 0.131897 1.72387-1.493814-0.20245z" style="font-feature-settings:normal;font-variant-caps:normal;font-variant-ligatures:normal;font-variant-numeric:normal"/>
  </g>
  <g transform="scale(1.0000762 .99992383)" style="font-feature-settings:normal;font-variant-caps:normal;font-variant-ligatures:normal;font-variant-numeric:normal" aria-label="Saturday">
   <path d="m18.571631 73.493131q-1.107324-0.156436-0.978494-1.377253t2.846529-1.444736l0.257659 1.386456q-1.346579-0.03067-1.444735 0.319007-0.09816 0.349681 1.030639 0.401827 1.128796 0.05215 1.104257 1.374186-0.02454 1.32204-2.972291 1.410994l-0.542926-1.45087q1.509151 0.162571 1.659452-0.150302 0.150302-0.31594-0.96009-0.469309z" style="font-feature-settings:normal;font-variant-caps:normal;font-variant-ligatures:normal;font-variant-numeric:normal"/>
   <path d="m22.985591 74.575916-0.214717 0.613476-1.208548-0.730036 1.515286-3.564295 1.153335-0.07975 1.812821 3.690057-1.432466 0.684026-0.31594-0.861934zm1.049043-1.343512-0.343546-1.110391-0.404894 1.226951z" style="font-feature-settings:normal;font-variant-caps:normal;font-variant-ligatures:normal;font-variant-numeric:normal"/>
   <path d="m27.736962 72.201764 0.150301 2.613408-1.662519 0.429433 0.285266-3.122592-1.254558-0.107359 0.09816-1.13493 3.598036-0.214717 0.131897 1.677857z" style="font-feature-settings:normal;font-variant-caps:normal;font-variant-ligatures:normal;font-variant-numeric:normal"/>
   <path d="m29.63567 71.109777 1.634913 0.319008q-0.815923 2.506049 0.233121 2.533655 1.245356-0.0092 0.720834-2.595003l1.496881-0.472376q0.687093 4.257523-2.217715 4.294331-2.935482-0.02761-1.868034-4.079615z" style="font-feature-settings:normal;font-variant-caps:normal;font-variant-ligatures:normal;font-variant-numeric:normal"/>
   <path d="m35.506634 71.907296 0.04294 0.828192q1.53369 0 1.53369-0.306738 0-0.306737-1.576633-0.521454zm0.205514 3.033638-1.70853 0.239256 0.355816-4.579598q3.950785 0.294469 4.082682 1.582768 0.134965 1.285232-1.358849 1.77908l1.226952 0.665622-1.257626 1.113458-1.438601-1.77908z" style="font-feature-settings:normal;font-variant-caps:normal;font-variant-ligatures:normal;font-variant-numeric:normal"/>
   <path d="m38.923694 75.189392-0.196312-4.294331q4.183906 0 4.183906 2.147165 0 2.147166-3.987594 2.147166zm1.091988-3.156334 0.205514 1.484612q1.328175 0.0061 1.328175-0.739238 0-0.745374-1.533689-0.745374z" style="font-feature-settings:normal;font-variant-caps:normal;font-variant-ligatures:normal;font-variant-numeric:normal"/>
   <path d="m44.236397 74.575916-0.214717 0.613476-1.208547-0.730036 1.515285-3.564295 1.153335-0.07975 1.812821 3.690057-1.432466 0.684026-0.31594-0.861934zm1.049044-1.343512-0.343547-1.110391-0.404894 1.226951z" style="font-feature-settings:normal;font-variant-caps:normal;font-variant-ligatures:normal;font-variant-numeric:normal"/>
   <path d="m47.754681 73.348964-1.444735-1.457005 1.220817-0.996898 0.837394 1.226952 0.696295-1.527556 1.628779 0.558264-1.711598 2.196243 0.131898 1.723868-1.493814-0.202447z" style="font-feature-settings:normal;font-variant-caps:normal;font-variant-ligatures:normal;font-variant-numeric:normal"/>
  </g>
  <g transform="scale(1.0000762 .99992383)" style="font-feature-settings:normal;font-variant-caps:normal;font-variant-ligatures:normal;font-variant-numeric:normal" aria-label="Sunday ">
   <path d="m21.30271 46.820947q-1.107324-0.156436-0.978494-1.377253t2.846529-1.444736l0.25766 1.386456q-1.34658-0.03067-1.444736 0.319007-0.09816 0.349681 1.030639 0.401827 1.128796 0.05214 1.104257 1.374186-0.02454 1.32204-2.972291 1.410994l-0.542926-1.45087q1.509151 0.162571 1.659452-0.150302 0.150302-0.31594-0.96009-0.469309z" style="font-feature-settings:normal;font-variant-caps:normal;font-variant-ligatures:normal;font-variant-numeric:normal"/>
   <path d="m24.661491 44.437593 1.634913 0.319008q-0.815923 2.506049 0.233121 2.533655 1.245356-0.0092 0.720834-2.595003l1.496882-0.472376q0.687093 4.257523-2.217716 4.294331-2.935482-0.02761-1.868034-4.079615z" style="font-feature-settings:normal;font-variant-caps:normal;font-variant-ligatures:normal;font-variant-numeric:normal"/>
   <path d="m30.664353 46.370042 0.30367 1.757609-1.530622 0.389557-0.309806-4.027469 1.536758-0.266862 1.515285 2.006066 0.0184-2.006066 1.901776-0.196313-0.674824 4.490644-1.217749 0.177908z" style="font-feature-settings:normal;font-variant-caps:normal;font-variant-ligatures:normal;font-variant-numeric:normal"/>
   <path d="m34.452567 48.517208-0.196312-4.294331q4.183905 0 4.183905 2.147165 0 2.147166-3.987593 2.147166zm1.091987-3.156333 0.205515 1.484611q1.328175 0.0061 1.328175-0.739238 0-0.745373-1.53369-0.745373z" style="font-feature-settings:normal;font-variant-caps:normal;font-variant-ligatures:normal;font-variant-numeric:normal"/>
   <path d="m39.765268 47.903732-0.214716 0.613476-1.208548-0.730036 1.515286-3.564295 1.153335-0.07975 1.812821 3.690057-1.432466 0.684026-0.31594-0.861934zm1.049044-1.343512-0.343546-1.110391-0.404894 1.226951z" style="font-feature-settings:normal;font-variant-caps:normal;font-variant-ligatures:normal;font-variant-numeric:normal"/>
   <path d="m43.283553 46.67678-1.444736-1.457005 1.220817-0.996898 0.837395 1.226952 0.696295-1.527556 1.628779 0.558264-1.711598 2.196243 0.131897 1.723868-1.493814-0.202447z" style="font-feature-settings:normal;font-variant-caps:normal;font-variant-ligatures:normal;font-variant-numeric:normal"/>
  </g>
 </g>
 <g transform="matrix(.44521452 0 0 .44514672 -138.8961 -2.71375)">
  <path d="m314.35777 182.73271c-0.21894-0.9199 0.34537-1.83673 1.26528-2.05568l5.65511-1.34599c-1.17756-5.64888-1.92103-9.92672-1.64739-10.33389 0.85883-1.27795 26.29412 13.72225 26.77396 15.78966 0.47986 2.0674-15.83829 26.34785-17.17698 25.55837-0.42591-0.25119-1.64078-4.411-3.06963-9.99114l-5.53798 1.3181c-0.91991 0.21895-1.83675-0.34535-2.0557-1.26525z" fill="#00c853"/>
  <rect transform="matrix(-.45467777 .89065601 .87959369 .4757257 0 0)" x="-.14260454" y="373.23715" width="3.9317675" height="14.258574" ry="1.9595118" fill="#a0ffc7"/>
 </g>
 <g transform="matrix(-.27666346 .34876388 .348817 .27662133 142.4314 -137.59608)">
  <path transform="scale(.26458333)" d="m1729.8105 73.541016c-2.733 0-4.9335 2.200566-4.9335 4.933593v14.388672c-10.1526 0.470168-17.3718 1.077655-18.0118 1.783203-2.3979 2.643719 45.5084 51.537326 50.4278 51.466796 4.9194-0.0705 50.4804-50.301768 47.959-52.874999-0.6711-0.684879-7.8758-1.085882-18-1.265625v-13.498047c0-2.733027-2.1987-4.933593-4.9317-4.933593z" fill="#2196f3"/>
  <rect transform="rotate(-43.436588)" x="312.67651" y="335.33032" width="2.7792709" height="8.6303663" ry="1.3896354" fill="#c8e5fc"/>
 </g>
 <g transform="translate(-1330.469,-509.7381)" fill="#fff">
  <ellipse cx="1398.5831" cy="536.66565" rx="1.5764668" ry="1.5762267"/>
  <ellipse cx="1429.5868" cy="551.22174" rx="1.5764668" ry="1.5762267"/>
  <ellipse cx="1438.8809" cy="587.78198" rx="1.5764668" ry="1.5762267"/>
  <ellipse cx="1416.4006" cy="616.71948" rx="1.5764668" ry="1.5762267"/>
  <ellipse transform="scale(-1,1)" cx="-1366.0042" cy="551.22174" rx="1.5764668" ry="1.5762267"/>
  <ellipse transform="scale(-1,1)" cx="-1356.7098" cy="587.78198" rx="1.5764668" ry="1.5762267"/>
  <ellipse transform="scale(-1,1)" cx="-1379.1902" cy="616.71948" rx="1.5764668" ry="1.5762267"/>
 </g>
 <g transform="matrix(-.08402871 -.43714635 .43721293 -.08401591 7.7351 139.63733)" fill="none" stroke="#ffc107" stroke-linecap="round" stroke-width="2.64583325">
  <g transform="rotate(-26.301235,280.87683,257.93987)">
   <path d="m311.01879 55.61079-10.7041-6.274815"/>
   <path d="m312.14537 43.254339-1.12658 12.356451"/>
  </g>
  <path d="m148.16068 32.100827s36.96218 2.270005 70.08762 31.100082"/>
 </g>
 <g transform="matrix(.18682388 -.98232132 .98247094 .18679544 0 0)" fill="#616161" stroke-width=".11778737" style="font-feature-settings:normal;font-variant-caps:normal;font-variant-ligatures:normal;font-variant-numeric:normal" aria-label="after">
  <path d="m-60.962555 17.409798q-0.177908 0.276064-0.411029 0.50305-0.233121 0.220852-0.51532 0.380355-0.276064 0.153369-0.607341 0.226986-0.325142 0.07362-0.687093 0.04294-0.12883 0-0.276064-0.03067t-0.276064-0.09816q-0.122696-0.06748-0.202447-0.177908-0.07975-0.110426-0.07975-0.276064-0.06748-0.343547 0.03067-0.711632 0.104291-0.374221 0.312873-0.723902 0.214717-0.355816 0.51532-0.662554 0.306738-0.312873 0.650284-0.527589 0.343547-0.220852 0.699363-0.319008 0.361951-0.104291 0.693228-0.04294 0.251525 0 0.38649 0.165638 0.141099 0.165639 0.208581 0.447838 0.07362 0.276064 0.08589 0.64415 0.0184 0.36195 0.0184 0.76071 0.0061 0.392624 0.01841 0.791384 0.01227 0.392624 0.06748 0.730036-0.0061 0.01227-0.06135 0.07362-0.04908 0.06135-0.12883 0.09816t-0.184042 0.01227q-0.09816-0.0184-0.196313-0.171773-0.03681-0.06135-0.04908-0.214717-0.0061-0.159504-0.0061-0.337412 0.0061-0.177908 0.0061-0.343546 0.0061-0.165639-0.01227-0.239256zm-0.38649-1.864967q-0.239256-0.0184-0.496916 0.07362-0.257659 0.09202-0.50305 0.263795-0.239255 0.165639-0.453972 0.392625-0.214717 0.220851-0.37422 0.466241-0.159504 0.239256-0.251525 0.478512-0.08589 0.239255-0.07975 0.441702 0.01227 0.196312 0.12883 0.337412 0.122695 0.134965 0.380355 0.177908 0.355816 0.0061 0.680958-0.177908 0.325142-0.190178 0.588937-0.472377 0.263794-0.282198 0.441702-0.613475 0.184043-0.337412 0.245391-0.631881 0.06748-0.294468 0-0.496915-0.06748-0.208582-0.306738-0.239256z" style="font-feature-settings:normal;font-variant-caps:normal;font-variant-ligatures:normal;font-variant-numeric:normal"/>
  <path d="m-59.876703 17.170542q-0.04908 0-0.104291-0.04294-0.04908-0.04908-0.09202-0.11656-0.04294-0.07362-0.07362-0.159504-0.02454-0.08589-0.02454-0.159504l1.257625-0.177908q-0.110425-0.717767-0.11656-1.226952-0.0061-0.509185 0.05521-0.852731 0.06748-0.349681 0.196312-0.552128 0.12883-0.208582 0.282199-0.312873 0.159504-0.110426 0.337412-0.1411 0.177908-0.03681 0.343546-0.04294 0.202447-0.0061 0.423298 0.04294 0.220852 0.04908 0.435568 0.147235 0.214717 0.09202 0.404895 0.226986 0.190177 0.12883 0.337411 0.282199t0.233121 0.319007q0.08589 0.159504 0.08589 0.319008 0 0.0184-0.03067 0.05521t-0.06748 0.07975q-0.03681 0.03681-0.07362 0.07362-0.03067 0.03681-0.03681 0.04908-0.134965-0.177908-0.325142-0.380355-0.190178-0.208581-0.417164-0.380355-0.226986-0.171773-0.478511-0.282199-0.251525-0.11656-0.50305-0.11656-0.226986 0.06135-0.368086 0.233121-0.141099 0.165638-0.214717 0.398759-0.07362 0.233121-0.09202 0.509185-0.01227 0.26993 0.01227 0.533724 0.02454 0.263795 0.07975 0.496916 0.06135 0.233121 0.134965 0.392624 0.331277 0 0.613476-0.03067 0.288334-0.03067 0.570533-0.06748 0.282199-0.04294 0.576667-0.07975 0.300603-0.03681 0.656419-0.04294 0.0184 0 0.02454 0.04908 0.01227 0.04294 0.01227 0.11656t0 0.159504q0.0061 0.08589 0.0184 0.165639l-2.349613 0.276064 0.1411 1.699328-0.625746-0.02454q0-0.404894-0.04294-0.791384-0.03681-0.392624-0.104291-0.791384z" style="font-feature-settings:normal;font-variant-caps:normal;font-variant-ligatures:normal;font-variant-numeric:normal"/>
  <path d="m-55.447407 16.078555q-0.147234-0.03681-0.190178-0.122695-0.04908-0.08589-0.03067-0.171773 0.0184-0.09202 0.07975-0.159504 0.06135-0.06748 0.12883-0.07362h1.147199l-0.02454-1.914045q0.02454-0.07362 0.104291-0.122695 0.07975-0.04908 0.171774-0.05521 0.09202-0.01227 0.184042 0.02454 0.09202 0.03067 0.147235 0.122695l0.05521 1.914045 1.085853-0.02454q0.110425 0.06135 0.147234 0.153369 0.04294 0.08589 0.03681 0.171773-0.0061 0.07975-0.04908 0.147235-0.03681 0.06135-0.08589 0.07362l-1.134931 0.02454q-0.0061 0.380355 0.0061 0.687093 0.0184 0.300603 0.03681 0.588937 0.02454 0.282199 0.03681 0.588937 0.01841 0.300603 0.01841 0.674823-0.177908 0.122695-0.361951 0.116561-0.184043-0.0061-0.251525-0.153369l-0.06748-2.490713h-1.190143z" style="font-feature-settings:normal;font-variant-caps:normal;font-variant-ligatures:normal;font-variant-numeric:normal"/>
  <path d="m-52.263467 17.673593q-0.05521-0.496916 0.08589-0.987697 0.1411-0.496915 0.435568-0.883405 0.300603-0.392624 0.723902-0.625745 0.423298-0.239256 0.932483-0.226986 0.208582-0.0061 0.478511 0.09202 0.26993 0.09816 0.496916 0.276064 0.226986 0.171773 0.361951 0.404894 0.141099 0.226986 0.09202 0.484646 0.0061 0.12883-0.12883 0.214717-0.134965 0.07975-0.361951 0.12883-0.220851 0.04908-0.521454 0.07362-0.294469 0.0184-0.625746 0.03067-0.325142 0.01227-0.662554 0.02454-0.337411 0.0061-0.638015 0.03067-0.171773 0.472376-0.10429 0.779114 0.07362 0.300603 0.300603 0.460107 0.233121 0.159504 0.570532 0.190177 0.343547 0.02454 0.711632-0.04908 0.368086-0.07362 0.723902-0.233121 0.355816-0.165638 0.613476-0.392624 0.03681 0 0.09202 0.02454 0.06135 0.02454 0.116561 0.06748 0.05521 0.03681 0.09202 0.08589 0.04294 0.04294 0.04294 0.07975-0.153369 0.263794-0.466241 0.472376-0.312873 0.208582-0.705498 0.337412-0.392624 0.12883-0.822057 0.159504-0.423299 0.03067-0.797519-0.06135t-0.656419-0.325142q-0.282199-0.233121-0.380355-0.63188zm2.932415-1.637981q-0.03067-0.233121-0.184043-0.349681-0.153369-0.116561-0.361951-0.147234-0.208582-0.03681-0.441703 0.0061-0.23312 0.04294-0.435568 0.12883-0.196312 0.08589-0.331277 0.202447-0.128829 0.116561-0.134964 0.233121z" style="font-feature-settings:normal;font-variant-caps:normal;font-variant-ligatures:normal;font-variant-numeric:normal"/>
  <path d="m-48.196121 15.029512q0.01227-0.116561 0.09816-0.1411 0.08589-0.03067 0.184043-0.0184 0.159503 0.0184 0.239255 0.165638 0.07975 0.1411 0.110426 0.319008 0.03067 0.177908 0.03067 0.349681 0 0.165639 0.0061 0.239256 0.171774-0.147235 0.380355-0.337412 0.214717-0.190178 0.51532-0.343547 0.306738-0.159503 0.730037-0.239255 0.429433-0.08589 1.030639-0.01227 0.147234 0.03681 0.214717 0.1411 0.07362 0.104291 0.07362 0.220851 0.0061 0.110426-0.06135 0.208582-0.06135 0.09202-0.177908 0.104291-0.147234-0.110426-0.392624-0.12883-0.245391-0.0184-0.539859 0.04294-0.288334 0.06135-0.588937 0.196312-0.300603 0.134965-0.558263 0.337412-0.251525 0.202447-0.435568 0.466242-0.177908 0.263795-0.220851 0.576667v1.343512q-0.01227 0.03067-0.09816 0.09202-0.08589 0.05521-0.196312 0.07975-0.104291 0.03067-0.214716 0-0.104291-0.03067-0.159504-0.171774 0-0.04294 0-0.269929 0-0.233121 0-0.558263 0.0061-0.331277 0.01227-0.717767 0.0061-0.392624 0.0061-0.766845 0.0061-0.37422 0.0061-0.687093 0.0061-0.312872 0.0061-0.49078z" style="font-feature-settings:normal;font-variant-caps:normal;font-variant-ligatures:normal;font-variant-numeric:normal"/>
 </g>
</svg>
