<?xml version="1.0" encoding="UTF-8"?>
<!-- Created with Inkscape (http://www.inkscape.org/) -->
<svg width="512" height="512" version="1.1" viewBox="0 0 135.46667 135.46667" xmlns="http://www.w3.org/2000/svg" xmlns:cc="http://creativecommons.org/ns#" xmlns:dc="http://purl.org/dc/elements/1.1/" xmlns:rdf="http://www.w3.org/1999/02/22-rdf-syntax-ns#">
 <metadata>
  <rdf:RDF>
   <cc:Work rdf:about="">
    <dc:format>image/svg+xml</dc:format>
    <dc:type rdf:resource="http://purl.org/dc/dcmitype/StillImage"/>
    <dc:title/>
   </cc:Work>
  </rdf:RDF>
 </metadata>
 <rect x="-4.8828124e-6" y="-1.8554688e-6" width="135.46667" height="135.46667" ry="2.061909" opacity="0" stroke-width=".82785952"/>
 <g transform="matrix(-.10485536 .4326249 -.43269079 -.10483939 185.30475 -115.38266)">
  <path transform="scale(.26458333)" d="m1729.8105 73.541016c-2.733 0-4.9335 2.200566-4.9335 4.933593v14.388672c-10.1526 0.470168-17.3718 1.077655-18.0118 1.783203-2.3979 2.643719 45.5084 51.537326 50.4278 51.466796 4.9194-0.0705 50.4804-50.301768 47.959-52.874999-0.6711-0.684879-7.8758-1.085882-18-1.265625v-13.498047c0-2.733027-2.1987-4.933593-4.9317-4.933593z" fill="#2196f3"/>
  <rect transform="rotate(-43.436588)" x="312.67651" y="335.33032" width="2.7792709" height="8.6303663" ry="1.3896354" fill="#c8e5fc"/>
 </g>
 <g transform="matrix(.44521452 0 0 .44514672 -138.89611 -2.71375)">
  <path d="m578.37303 62.134107c-0.58761-0.740855-1.6571-0.864226-2.39797-0.276609l-4.55444 3.612343c-3.71158-4.418215-6.61402-7.647549-7.10322-7.684233-1.53541-0.115171-5.47291 29.150097-4.14474 30.805512 1.32816 1.655421 30.50069 3.843047 30.70792 2.302781 0.0659-0.490054-2.45227-4.016887-5.95446-8.590105l4.4601-3.53752c0.74087-0.587618 0.86424-1.65711 0.27664-2.397965z" fill="#00c853"/>
  <rect transform="matrix(.9811304 .19334719 -.16996492 .98545011 0 0)" x="569.35431" y="-40.814171" width="3.9317675" height="14.258574" ry="1.9595118" fill="#a0ffc7"/>
 </g>
 <path d="m67.19001 25.08049a44.046681 44.039973 0 0 0 -15.05286 2.70983l3.43888 0.2979-2.10262 3.0834a40.394028 40.387877 0 0 1 13.7166 -2.43884 40.394028 40.387877 0 0 1 40.39402 40.38787 40.394028 40.387877 0 0 1 -40.39402 40.38787 40.394028 40.387877 0 0 1 -40.39402 -40.38787 40.394028 40.387877 0 0 1 19.00018 -34.23257l-1.56126-3.28975a44.046681 44.039973 0 0 0 -21.09153 37.52232 44.046681 44.039973 0 0 0 44.04663 44.03992 44.046681 44.039973 0 0 0 44.0464 -44.03992 44.046681 44.039973 0 0 0 -44.0464 -44.04016z" fill="#ff5252" stroke-width=".44518062"/>
 <path d="m39.64088 30.37099 12.8724-0.88282-8.1518 10.13913z" fill="#ff5252" stroke-width=".44518062"/>
 <ellipse cx="64.900566" cy="65.691101" rx="55.424374" ry="50.397133" opacity="0" stroke-width="2.35574746"/>
 <g fill="#1565c0" stroke="#fff" stroke-width=".11778737">
  <g transform="scale(1.0000762 .99992383)" style="font-feature-settings:normal;font-variant-caps:normal;font-variant-ligatures:normal;font-variant-numeric:normal" aria-label="Monday">
   <path d="m62.696162 20.137124 0.25766 4.045874-1.564364 0.131897-0.08282-2.070481-0.31594 1.423264-1.40486 0.196312-0.570533-1.469274 0.205515 1.742271-1.432467 0.294469 0.196313-4.294332 1.407927-0.18711 0.779114 2.453904 0.944753-2.380287z" style="font-feature-settings:normal;font-variant-caps:normal;font-variant-ligatures:normal;font-variant-numeric:normal"/>
   <path d="m65.613239 24.431456q-1.036774 0-1.769878-0.628813-0.730036-0.628813-0.730036-1.518353t0.730036-1.518353q0.733104-0.628813 1.769878-0.628813 1.033707 0 1.763744 0.628813 0.733103 0.628813 0.733103 1.518353t-0.733103 1.518353q-0.730037 0.628813-1.763744 0.628813zm-0.171773-1.340445q0.441703 0 0.754576-0.26993 0.31594-0.269929 0.31594-0.650284t-0.31594-0.650285q-0.312873-0.269929-0.754576-0.269929-0.44477 0-0.76071 0.269929-0.312873 0.26993-0.312873 0.650285t0.312873 0.650284q0.31594 0.26993 0.76071 0.26993z" style="font-feature-settings:normal;font-variant-caps:normal;font-variant-ligatures:normal;font-variant-numeric:normal"/>
   <path d="m69.80328 22.28429 0.303671 1.757608-1.530623 0.389558-0.309805-4.02747 1.536757-0.266862 1.515286 2.006066 0.0184-2.006066 1.901775-0.196312-0.674823 4.490644-1.21775 0.177908z" style="font-feature-settings:normal;font-variant-caps:normal;font-variant-ligatures:normal;font-variant-numeric:normal"/>
   <path d="m73.591493 24.431456-0.196312-4.294332q4.183906 0 4.183906 2.147166t-3.987594 2.147166zm1.091988-3.156334 0.205514 1.484612q1.328175 0.0061 1.328175-0.739239 0-0.745373-1.533689-0.745373z" style="font-feature-settings:normal;font-variant-caps:normal;font-variant-ligatures:normal;font-variant-numeric:normal"/>
   <path d="m78.904196 23.81798-0.214717 0.613476-1.208547-0.730037 1.515285-3.564295 1.153335-0.07975 1.812821 3.690058-1.432466 0.684026-0.31594-0.861934zm1.049044-1.343513-0.343547-1.110391-0.404894 1.226952z" style="font-feature-settings:normal;font-variant-caps:normal;font-variant-ligatures:normal;font-variant-numeric:normal"/>
   <path d="m82.42248 22.591028-1.444735-1.457005 1.220817-0.996899 0.837394 1.226952 0.696295-1.527555 1.628779 0.558263-1.711598 2.196244 0.131898 1.723867-1.493814-0.202447z" style="font-feature-settings:normal;font-variant-caps:normal;font-variant-ligatures:normal;font-variant-numeric:normal"/>
  </g>
  <g transform="scale(1.0000762 .99992383)" style="font-feature-settings:normal;font-variant-caps:normal;font-variant-ligatures:normal;font-variant-numeric:normal" aria-label="Tuesday">
   <path d="m86.763395 45.655313 0.150301 2.613407-1.662519 0.429433 0.285266-3.122592-1.254558-0.107358 0.09816-1.134931 3.598036-0.214716 0.131897 1.677856z" style="font-feature-settings:normal;font-variant-caps:normal;font-variant-ligatures:normal;font-variant-numeric:normal"/>
   <path d="m88.662103 44.563326 1.634913 0.319007q-0.815923 2.506049 0.233121 2.533656 1.245356-0.0092 0.720834-2.595003l1.496881-0.472377q0.687093 4.257523-2.217715 4.294332-2.935482-0.02761-1.868034-4.079615z" style="font-feature-settings:normal;font-variant-caps:normal;font-variant-ligatures:normal;font-variant-numeric:normal"/>
   <path d="m96.183318 43.796481 0.07975 1.625711-1.90791 0.205514 0.02454 0.371153 1.251491-0.11656 0.110425 1.110391-1.306703 0.09509 0.02147 0.300603 1.852698-0.141099 0.276064 1.395658-3.653249 0.125762 0.371153-4.426229z" style="font-feature-settings:normal;font-variant-caps:normal;font-variant-ligatures:normal;font-variant-numeric:normal"/>
   <path d="m97.536033 46.94668q-1.107324-0.156437-0.978494-1.377254 0.128829-1.220817 2.846528-1.444736l0.25766 1.386456q-1.34658-0.03067-1.444736 0.319007-0.09816 0.349682 1.030639 0.401827 1.1288 0.05215 1.10426 1.374186-0.0245 1.322041-2.972294 1.410995l-0.542926-1.450871q1.509151 0.162571 1.659452-0.150301 0.150302-0.31594-0.960089-0.469309z" style="font-feature-settings:normal;font-variant-caps:normal;font-variant-ligatures:normal;font-variant-numeric:normal"/>
   <path d="m100.72304 48.642941-0.19631-4.294332q4.1839 0 4.1839 2.147166t-3.98759 2.147166zm1.09199-3.156334 0.20551 1.484612q1.32818 0.0061 1.32818-0.739239 0-0.745373-1.53369-0.745373z" style="font-feature-settings:normal;font-variant-caps:normal;font-variant-ligatures:normal;font-variant-numeric:normal"/>
   <path d="m106.03574 48.029465-0.21471 0.613476-1.20855-0.730037 1.51528-3.564295 1.15334-0.07975 1.81282 3.690058-1.43247 0.684026-0.31594-0.861934zm1.04905-1.343513-0.34355-1.110391-0.40489 1.226952z" style="font-feature-settings:normal;font-variant-caps:normal;font-variant-ligatures:normal;font-variant-numeric:normal"/>
   <path d="m109.55402 46.802513-1.44473-1.457006 1.22082-0.996898 0.83739 1.226952 0.6963-1.527555 1.62877 0.558263-1.71159 2.196244 0.13189 1.723867-1.49381-0.202447z" style="font-feature-settings:normal;font-variant-caps:normal;font-variant-ligatures:normal;font-variant-numeric:normal"/>
  </g>
  <g transform="scale(1.0000762 .99992383)" style="font-feature-settings:normal;font-variant-caps:normal;font-variant-ligatures:normal;font-variant-numeric:normal" aria-label="Wednesday">
   <path d="m82.004271 73.256948-0.613476 2.147166-1.211615 0.159504-1.825091-3.610306 1.503016-0.84353 0.920214 2.453904 0.720834-1.938584 1.226952 0.168706 0.506118 1.769878 0.736171-2.542858 1.668654 0.914079-1.791349 3.469207-1.371119-0.294469z" style="font-feature-settings:normal;font-variant-caps:normal;font-variant-ligatures:normal;font-variant-numeric:normal"/>
   <path d="m88.869067 70.557654 0.07975 1.625711-1.907911 0.205515 0.02454 0.371153 1.251491-0.116561 0.110426 1.110392-1.306704 0.09509 0.02147 0.300604 1.852697-0.1411 0.276064 1.395658-3.653249 0.125762 0.371153-4.426228z" style="font-feature-settings:normal;font-variant-caps:normal;font-variant-ligatures:normal;font-variant-numeric:normal"/>
   <path d="m89.617508 75.404114-0.196312-4.294332q4.183905 0 4.183905 2.147166t-3.987593 2.147166zm1.091987-3.156334 0.205514 1.484612q1.328176 0.0061 1.328176-0.739239 0-0.745373-1.53369-0.745373z" style="font-feature-settings:normal;font-variant-caps:normal;font-variant-ligatures:normal;font-variant-numeric:normal"/>
   <path d="m95.301361 73.256948 0.303671 1.757609-1.530623 0.389557-0.309805-4.02747 1.536757-0.266862 1.515286 2.006067 0.0184-2.006067 1.901775-0.196312-0.674823 4.490644-1.21775 0.177908z" style="font-feature-settings:normal;font-variant-caps:normal;font-variant-ligatures:normal;font-variant-numeric:normal"/>
   <path d="m101.87476 70.557654 0.0798 1.625711-1.90791 0.205515 0.0245 0.371153 1.25149-0.116561 0.11042 1.110392-1.3067 0.09509 0.0215 0.300604 1.8527-0.1411 0.27606 1.395658-3.653246 0.125762 0.371153-4.426228z" style="font-feature-settings:normal;font-variant-caps:normal;font-variant-ligatures:normal;font-variant-numeric:normal"/>
   <path d="m103.22747 73.707853q-1.10732-0.156436-0.97849-1.377254 0.12883-1.220817 2.84653-1.444735l0.25766 1.386455q-1.34658-0.03067-1.44474 0.319008-0.0982 0.349681 1.03064 0.401826 1.12879 0.05215 1.10426 1.374186-0.0245 1.322041-2.9723 1.410995l-0.54292-1.45087q1.50915 0.162571 1.65945-0.150302 0.1503-0.31594-0.96009-0.469309z" style="font-feature-settings:normal;font-variant-caps:normal;font-variant-ligatures:normal;font-variant-numeric:normal"/>
   <path d="m106.41448 75.404114-0.19631-4.294332q4.1839 0 4.1839 2.147166t-3.98759 2.147166zm1.09199-3.156334 0.20551 1.484612q1.32818 0.0061 1.32818-0.739239 0-0.745373-1.53369-0.745373z" style="font-feature-settings:normal;font-variant-caps:normal;font-variant-ligatures:normal;font-variant-numeric:normal"/>
   <path d="m111.72718 74.790638-0.21472 0.613476-1.20855-0.730037 1.51529-3.564295 1.15333-0.07975 1.81283 3.690058-1.43247 0.684026-0.31594-0.861934zm1.04904-1.343512-0.34354-1.110392-0.4049 1.226952z" style="font-feature-settings:normal;font-variant-caps:normal;font-variant-ligatures:normal;font-variant-numeric:normal"/>
   <path d="m115.24547 73.563686-1.44474-1.457005 1.22082-0.996899 0.83739 1.226952 0.6963-1.527555 1.62877 0.558263-1.71159 2.196244 0.13189 1.723867-1.49381-0.202447z" style="font-feature-settings:normal;font-variant-caps:normal;font-variant-ligatures:normal;font-variant-numeric:normal"/>
  </g>
  <g transform="scale(1.0000762 .99992383)" style="font-feature-settings:normal;font-variant-caps:normal;font-variant-ligatures:normal;font-variant-numeric:normal" aria-label="Thursday">
   <path d="m71.389921 101.2661 0.150301 2.6134-1.662519 0.42944 0.285266-3.1226-1.254558-0.10735 0.09816-1.134935 3.598036-0.214717 0.131897 1.677852z" style="font-feature-settings:normal;font-variant-caps:normal;font-variant-ligatures:normal;font-variant-numeric:normal"/>
   <path d="m74.494109 102.95929 0.110425 1.03677-1.174806 0.20552-0.533724-3.39866 1.306704-0.55826 0.147234 1.47234 1.177874-0.13496 0.0184-1.34045 2.045942 0.20552-0.782182 3.7698-1.315906-0.38955 0.01534-0.9785z" style="font-feature-settings:normal;font-variant-caps:normal;font-variant-ligatures:normal;font-variant-numeric:normal"/>
   <path d="m78.036932 100.17411 1.634913 0.31901q-0.815923 2.50604 0.233121 2.53365 1.245356-9e-3 0.720834-2.595l1.496882-0.472378q0.687093 4.257518-2.217716 4.294328-2.935482-0.0276-1.868034-4.07961z" style="font-feature-settings:normal;font-variant-caps:normal;font-variant-ligatures:normal;font-variant-numeric:normal"/>
   <path d="m83.907897 100.97163 0.04294 0.82819q1.53369 0 1.53369-0.30674t-1.576633-0.52145zm0.205514 3.03364-1.70853 0.23925 0.355816-4.579597q3.950785 0.294469 4.082682 1.582767 0.134965 1.28523-1.358849 1.77908l1.226952 0.66562-1.257626 1.11346-1.438601-1.77908z" style="font-feature-settings:normal;font-variant-caps:normal;font-variant-ligatures:normal;font-variant-numeric:normal"/>
   <path d="m88.235969 102.55746q-1.107325-0.15643-0.978495-1.37725 0.12883-1.220818 2.846529-1.444737l0.25766 1.386457q-1.34658-0.0307-1.444736 0.31901-0.09816 0.34968 1.030639 0.40182 1.128796 0.0521 1.104257 1.37419-0.02454 1.32204-2.972291 1.41099l-0.542926-1.45087q1.509151 0.16257 1.659452-0.1503 0.150302-0.31594-0.960089-0.46931z" style="font-feature-settings:normal;font-variant-caps:normal;font-variant-ligatures:normal;font-variant-numeric:normal"/>
   <path d="m91.422977 104.25372-0.196312-4.294328q4.183906 0 4.183906 2.147168 0 2.14716-3.987594 2.14716zm1.091987-3.15633 0.205515 1.48461q1.328175 6e-3 1.328175-0.73924 0-0.74537-1.53369-0.74537z" style="font-feature-settings:normal;font-variant-caps:normal;font-variant-ligatures:normal;font-variant-numeric:normal"/>
   <path d="m96.735678 103.64025-0.214717 0.61347-1.208547-0.73003 1.515285-3.564298 1.153335-0.07975 1.812821 3.69006-1.432466 0.68402-0.31594-0.86193zm1.049044-1.34352-0.343547-1.11039-0.404894 1.22696z" style="font-feature-settings:normal;font-variant-caps:normal;font-variant-ligatures:normal;font-variant-numeric:normal"/>
   <path d="m100.25396 102.4133-1.444733-1.45701 1.220813-0.996898 0.8374 1.226948 0.69629-1.527551 1.62878 0.558261-1.7116 2.19625 0.1319 1.72386-1.49381-0.20244z" style="font-feature-settings:normal;font-variant-caps:normal;font-variant-ligatures:normal;font-variant-numeric:normal"/>
  </g>
  <g transform="scale(1.0000762 .99992383)" style="font-feature-settings:normal;font-variant-caps:normal;font-variant-ligatures:normal;font-variant-numeric:normal" aria-label="Friday">
   <path d="m35.440739 99.572892-0.260727 1.779078-1.493814-0.0797 0.06135 0.30674 1.187076 0.13496-0.162571 1.27603-0.81899-0.18404 0.276064 1.33124-1.503016 0.20245-0.337412-4.02747z" style="font-feature-settings:normal;font-variant-caps:normal;font-variant-ligatures:normal;font-variant-numeric:normal"/>
   <path d="m36.897744 101.0575 0.04294 0.8282q1.533689 0 1.533689-0.30674t-1.576633-0.52146zm0.205515 3.03364-1.708531 0.23926 0.355816-4.5796q3.950785 0.29447 4.082682 1.58277 0.134965 1.28523-1.358849 1.77908l1.226952 0.66562-1.257625 1.11346-1.438602-1.77908z" style="font-feature-settings:normal;font-variant-caps:normal;font-variant-ligatures:normal;font-variant-numeric:normal"/>
   <path d="m41.541757 100.06981 0.312872 4.13789-1.736136 0.32821 0.07975-4.35874z" style="font-feature-settings:normal;font-variant-caps:normal;font-variant-ligatures:normal;font-variant-numeric:normal"/>
   <path d="m42.204311 104.3396-0.196312-4.29433q4.183906 0 4.183906 2.14716 0 2.14717-3.987594 2.14717zm1.091987-3.15633 0.205515 1.48461q1.328175 6e-3 1.328175-0.73924 0-0.74537-1.53369-0.74537z" style="font-feature-settings:normal;font-variant-caps:normal;font-variant-ligatures:normal;font-variant-numeric:normal"/>
   <path d="m47.517012 103.72612-0.214717 0.61348-1.208547-0.73004 1.515285-3.56429 1.153335-0.07975 1.812821 3.690054-1.432466 0.68403-0.31594-0.86193zm1.049044-1.34351-0.343547-1.11039-0.404894 1.22695z" style="font-feature-settings:normal;font-variant-caps:normal;font-variant-ligatures:normal;font-variant-numeric:normal"/>
   <path d="m51.035296 102.49917-1.444736-1.457 1.220818-0.9969 0.837394 1.22695 0.696295-1.527555 1.628779 0.558265-1.711598 2.19624 0.131897 1.72387-1.493813-0.20245z" style="font-feature-settings:normal;font-variant-caps:normal;font-variant-ligatures:normal;font-variant-numeric:normal"/>
  </g>
  <g transform="scale(1.0000762 .99992383)" style="font-feature-settings:normal;font-variant-caps:normal;font-variant-ligatures:normal;font-variant-numeric:normal" aria-label="Saturday">
   <path d="m18.571641 73.493131q-1.107324-0.156436-0.978494-1.377253t2.846528-1.444736l0.25766 1.386456q-1.34658-0.03067-1.444736 0.319007-0.09816 0.349681 1.03064 0.401827 1.128795 0.05215 1.104256 1.374186-0.02454 1.32204-2.97229 1.410994l-0.542927-1.45087q1.509151 0.162571 1.659453-0.150302 0.150301-0.31594-0.96009-0.469309z" style="font-feature-settings:normal;font-variant-caps:normal;font-variant-ligatures:normal;font-variant-numeric:normal"/>
   <path d="m22.9856 74.575916-0.214716 0.613476-1.208548-0.730036 1.515285-3.564295 1.153335-0.07975 1.812822 3.690057-1.432467 0.684026-0.31594-0.861934zm1.049044-1.343512-0.343547-1.110391-0.404894 1.226951z" style="font-feature-settings:normal;font-variant-caps:normal;font-variant-ligatures:normal;font-variant-numeric:normal"/>
   <path d="m27.736971 72.201764 0.150302 2.613408-1.66252 0.429433 0.285266-3.122592-1.254558-0.107359 0.09816-1.13493 3.598037-0.214717 0.131897 1.677857z" style="font-feature-settings:normal;font-variant-caps:normal;font-variant-ligatures:normal;font-variant-numeric:normal"/>
   <path d="m29.635679 71.109777 1.634914 0.319008q-0.815923 2.506049 0.23312 2.533655 1.245356-0.0092 0.720835-2.595003l1.496881-0.472376q0.687093 4.257523-2.217716 4.294331-2.935482-0.02761-1.868034-4.079615z" style="font-feature-settings:normal;font-variant-caps:normal;font-variant-ligatures:normal;font-variant-numeric:normal"/>
   <path d="m35.506643 71.907296 0.04294 0.828192q1.533689 0 1.533689-0.306738 0-0.306737-1.576633-0.521454zm0.205515 3.033638-1.708531 0.239256 0.355816-4.579598q3.950785 0.294469 4.082683 1.582768 0.134964 1.285232-1.35885 1.77908l1.226952 0.665622-1.257625 1.113458-1.438601-1.77908z" style="font-feature-settings:normal;font-variant-caps:normal;font-variant-ligatures:normal;font-variant-numeric:normal"/>
   <path d="m38.923704 75.189392-0.196312-4.294331q4.183905 0 4.183905 2.147165 0 2.147166-3.987593 2.147166zm1.091987-3.156334 0.205515 1.484612q1.328175 0.0061 1.328175-0.739238 0-0.745374-1.53369-0.745374z" style="font-feature-settings:normal;font-variant-caps:normal;font-variant-ligatures:normal;font-variant-numeric:normal"/>
   <path d="m44.236406 74.575916-0.214716 0.613476-1.208548-0.730036 1.515286-3.564295 1.153335-0.07975 1.812821 3.690057-1.432466 0.684026-0.31594-0.861934zm1.049044-1.343512-0.343546-1.110391-0.404894 1.226951z" style="font-feature-settings:normal;font-variant-caps:normal;font-variant-ligatures:normal;font-variant-numeric:normal"/>
   <path d="m47.754691 73.348964-1.444736-1.457005 1.220817-0.996898 0.837395 1.226952 0.696295-1.527556 1.628779 0.558264-1.711598 2.196243 0.131897 1.723868-1.493814-0.202447z" style="font-feature-settings:normal;font-variant-caps:normal;font-variant-ligatures:normal;font-variant-numeric:normal"/>
  </g>
  <g transform="scale(1.0000762 .99992383)" style="font-feature-settings:normal;font-variant-caps:normal;font-variant-ligatures:normal;font-variant-numeric:normal" aria-label="Sunday ">
   <path d="m21.302722 46.820947q-1.107324-0.156436-0.978494-1.377253t2.846528-1.444736l0.25766 1.386456q-1.34658-0.03067-1.444736 0.319007-0.09816 0.349681 1.03064 0.401827 1.128795 0.05214 1.104256 1.374186-0.02454 1.32204-2.97229 1.410994l-0.542927-1.45087q1.509151 0.162571 1.659453-0.150302 0.150301-0.31594-0.96009-0.469309z" style="font-feature-settings:normal;font-variant-caps:normal;font-variant-ligatures:normal;font-variant-numeric:normal"/>
   <path d="m24.661503 44.437593 1.634913 0.319008q-0.815923 2.506049 0.233121 2.533655 1.245356-0.0092 0.720834-2.595003l1.496881-0.472376q0.687093 4.257523-2.217715 4.294331-2.935483-0.02761-1.868034-4.079615z" style="font-feature-settings:normal;font-variant-caps:normal;font-variant-ligatures:normal;font-variant-numeric:normal"/>
   <path d="m30.664364 46.370042 0.303671 1.757609-1.530623 0.389557-0.309805-4.027469 1.536757-0.266862 1.515286 2.006066 0.0184-2.006066 1.901775-0.196313-0.674823 4.490644-1.21775 0.177908z" style="font-feature-settings:normal;font-variant-caps:normal;font-variant-ligatures:normal;font-variant-numeric:normal"/>
   <path d="m34.452578 48.517208-0.196312-4.294331q4.183906 0 4.183906 2.147165 0 2.147166-3.987594 2.147166zm1.091988-3.156333 0.205514 1.484611q1.328175 0.0061 1.328175-0.739238 0-0.745373-1.533689-0.745373z" style="font-feature-settings:normal;font-variant-caps:normal;font-variant-ligatures:normal;font-variant-numeric:normal"/>
   <path d="m39.76528 47.903732-0.214717 0.613476-1.208547-0.730036 1.515285-3.564295 1.153335-0.07975 1.812821 3.690057-1.432466 0.684026-0.31594-0.861934zm1.049044-1.343512-0.343547-1.110391-0.404894 1.226951z" style="font-feature-settings:normal;font-variant-caps:normal;font-variant-ligatures:normal;font-variant-numeric:normal"/>
   <path d="m43.283564 46.67678-1.444735-1.457005 1.220817-0.996898 0.837394 1.226952 0.696295-1.527556 1.628779 0.558264-1.711598 2.196243 0.131898 1.723868-1.493814-0.202447z" style="font-feature-settings:normal;font-variant-caps:normal;font-variant-ligatures:normal;font-variant-numeric:normal"/>
  </g>
 </g>
 <g fill="#fff">
  <ellipse cx="68.114067" cy="26.927549" rx="1.5764668" ry="1.5762267"/>
  <ellipse cx="99.117729" cy="41.483643" rx="1.5764668" ry="1.5762267"/>
  <ellipse cx="108.41192" cy="78.043884" rx="1.5764668" ry="1.5762267"/>
  <ellipse cx="85.931633" cy="106.98138" rx="1.5764668" ry="1.5762267"/>
  <ellipse transform="scale(-1,1)" cx="-35.382244" cy="41.391933" rx="1.5764668" ry="1.5762267"/>
  <ellipse transform="scale(-1,1)" cx="-25.929987" cy="78.043884" rx="1.5764668" ry="1.5762267"/>
  <ellipse transform="scale(-1,1)" cx="-48.721127" cy="106.98138" rx="1.5764668" ry="1.5762267"/>
 </g>
 <g transform="matrix(.26720524 .35605997 -.3561142 .26716455 91.43684 -21.28545)" fill="none" stroke="#ffc107" stroke-linecap="round" stroke-width="2.64583325">
  <g transform="rotate(-26.301235,280.87683,257.93987)">
   <path d="m311.01879 55.61079-10.7041-6.274815"/>
   <path d="m312.14537 43.254339-1.12658 12.356451"/>
  </g>
  <path d="m148.16068 32.100827s36.96218 2.270005 70.08762 31.100082"/>
 </g>
 <g transform="matrix(.19642854 .98044648 -.98059581 .19639862 0 0)" fill="#616161" stroke-width=".11778737" style="font-feature-settings:normal;font-variant-caps:normal;font-variant-ligatures:normal;font-variant-numeric:normal" aria-label="after">
  <path d="m73.22628-115.66054q-0.177908 0.27607-0.411029 0.50305-0.233121 0.22086-0.51532 0.38036-0.276064 0.15337-0.607341 0.22699-0.325142 0.0736-0.687093 0.0429-0.12883 0-0.276064-0.0307t-0.276064-0.0982q-0.122695-0.0675-0.202447-0.17791-0.07975-0.11042-0.07975-0.27606-0.06748-0.34355 0.03067-0.71163 0.104291-0.37423 0.312872-0.72391 0.214717-0.35581 0.51532-0.66255 0.306738-0.31287 0.650285-0.52759 0.343546-0.22085 0.699362-0.31901 0.361951-0.10429 0.693228-0.0429 0.251525 0 0.38649 0.16564 0.141099 0.16564 0.208582 0.44784 0.07362 0.27606 0.08589 0.64415 0.0184 0.36195 0.0184 0.76071 0.0061 0.39262 0.01841 0.79138 0.01227 0.39262 0.06748 0.73004-0.0061 0.0123-0.06135 0.0736-0.04908 0.0613-0.128829 0.0982-0.07975 0.0368-0.184043 0.0123-0.09816-0.0184-0.196313-0.17177-0.03681-0.0614-0.04908-0.21472-0.0061-0.15951-0.0061-0.33741 0.0061-0.17791 0.0061-0.34355 0.0061-0.16564-0.01227-0.23926zm-0.38649-1.86496q-0.239256-0.0184-0.496915 0.0736-0.25766 0.092-0.503051 0.2638-0.239255 0.16564-0.453972 0.39262-0.214716 0.22086-0.37422 0.46625-0.159504 0.23925-0.251525 0.47851-0.08589 0.23925-0.07975 0.4417 0.01227 0.19631 0.12883 0.33741 0.122695 0.13497 0.380355 0.17791 0.355816 6e-3 0.680958-0.17791 0.325142-0.19018 0.588937-0.47237 0.263795-0.2822 0.441703-0.61348 0.184042-0.33741 0.24539-0.63188 0.06748-0.29447 0-0.49692-0.06748-0.20858-0.306738-0.23925z" style="font-feature-settings:normal;font-variant-caps:normal;font-variant-ligatures:normal;font-variant-numeric:normal"/>
  <path d="m74.312132-115.89979q-0.04908 0-0.104291-0.0429-0.04908-0.0491-0.09202-0.11656-0.04294-0.0736-0.07362-0.15951-0.02454-0.0859-0.02454-0.1595l1.257625-0.17791q-0.110425-0.71777-0.11656-1.22695-0.0061-0.50919 0.05521-0.85273 0.06748-0.34968 0.196312-0.55213 0.12883-0.20858 0.282199-0.31287 0.159504-0.11043 0.337412-0.1411 0.177908-0.0368 0.343546-0.0429 0.202447-6e-3 0.423299 0.0429 0.220851 0.0491 0.435568 0.14723 0.214716 0.092 0.404894 0.22699 0.190177 0.12883 0.337411 0.2822 0.147235 0.15336 0.233121 0.319 0.08589 0.15951 0.08589 0.31901 0 0.0184-0.03067 0.0552t-0.06748 0.0798q-0.03681 0.0368-0.07362 0.0736-0.03067 0.0368-0.03681 0.0491-0.134965-0.17791-0.325142-0.38036-0.190178-0.20858-0.417164-0.38035t-0.478511-0.2822q-0.251525-0.11656-0.50305-0.11656-0.226986 0.0614-0.368086 0.23312-0.141099 0.16564-0.214716 0.39876-0.07362 0.23312-0.09202 0.50919-0.01227 0.26993 0.01227 0.53372t0.07975 0.49692q0.06135 0.23312 0.134964 0.39262 0.331277 0 0.613476-0.0307 0.288334-0.0307 0.570533-0.0675 0.282199-0.0429 0.576667-0.0798 0.300603-0.0368 0.656419-0.0429 0.01841 0 0.02454 0.0491 0.01227 0.0429 0.01227 0.11656 0 0.0736 0 0.1595 0.0061 0.0859 0.0184 0.16564l-2.349612 0.27606 0.141099 1.69933-0.625745-0.0245q0-0.40489-0.04294-0.79138-0.03681-0.39263-0.104291-0.79139z" style="font-feature-settings:normal;font-variant-caps:normal;font-variant-ligatures:normal;font-variant-numeric:normal"/>
  <path d="m78.741428-116.99178q-0.147234-0.0368-0.190177-0.12269-0.04908-0.0859-0.03067-0.17178 0.0184-0.092 0.07975-0.1595t0.12883-0.0736h1.1472l-0.02454-1.91404q0.02454-0.0736 0.10429-0.1227t0.171774-0.0552q0.09202-0.0123 0.184043 0.0245 0.09202 0.0307 0.147234 0.12269l0.05521 1.91405 1.085852-0.0245q0.110426 0.0614 0.147234 0.15337 0.04294 0.0859 0.03681 0.17177-0.0061 0.0798-0.04908 0.14724-0.03681 0.0613-0.08589 0.0736l-1.13493 0.0245q-0.0061 0.38036 0.0061 0.6871 0.0184 0.3006 0.03681 0.58893 0.02454 0.2822 0.03681 0.58894 0.01841 0.3006 0.01841 0.67482-0.177908 0.1227-0.361951 0.11656-0.184043-6e-3 -0.251525-0.15337l-0.06748-2.49071h-1.190143z" style="font-feature-settings:normal;font-variant-caps:normal;font-variant-ligatures:normal;font-variant-numeric:normal"/>
  <path d="m81.925368-115.39674q-0.05521-0.49692 0.08589-0.9877 0.141099-0.49691 0.435567-0.8834 0.300604-0.39263 0.723902-0.62575 0.423298-0.23925 0.932483-0.22698 0.208582-6e-3 0.478512 0.092 0.269929 0.0981 0.496915 0.27606 0.226986 0.17177 0.361951 0.4049 0.141099 0.22698 0.09202 0.48464 0.0061 0.12883-0.12883 0.21472-0.134964 0.0798-0.36195 0.12883-0.220852 0.0491-0.521455 0.0736-0.294468 0.0184-0.625745 0.0307-0.325143 0.0123-0.662554 0.0245-0.337412 6e-3 -0.638015 0.0307-0.171774 0.47238-0.104291 0.77912 0.07362 0.3006 0.300603 0.4601 0.233121 0.15951 0.570533 0.19018 0.343546 0.0245 0.711632-0.0491 0.368085-0.0736 0.723901-0.23312 0.355816-0.16564 0.613476-0.39262 0.03681 0 0.09202 0.0245 0.06135 0.0245 0.116561 0.0675 0.05521 0.0368 0.09202 0.0859 0.04294 0.0429 0.04294 0.0797-0.153369 0.26379-0.466242 0.47237-0.312873 0.20859-0.705497 0.33742-0.392625 0.12883-0.822058 0.1595-0.423299 0.0307-0.797519-0.0613t-0.656419-0.32514q-0.282199-0.23312-0.380355-0.63188zm2.932415-1.63798q-0.03067-0.23312-0.184043-0.34968-0.153369-0.11656-0.361951-0.14724-0.208582-0.0368-0.441702 6e-3 -0.233121 0.0429-0.435568 0.12883-0.196313 0.0859-0.331277 0.20244-0.12883 0.11657-0.134965 0.23313z" style="font-feature-settings:normal;font-variant-caps:normal;font-variant-ligatures:normal;font-variant-numeric:normal"/>
  <path d="m85.992714-118.04082q0.01227-0.11656 0.09816-0.1411 0.08589-0.0307 0.184043-0.0184 0.159503 0.0184 0.239255 0.16564 0.07975 0.1411 0.110426 0.31901 0.03067 0.17791 0.03067 0.34968 0 0.16564 0.0061 0.23926 0.171773-0.14724 0.380355-0.33741 0.214716-0.19018 0.515319-0.34355 0.306738-0.1595 0.730037-0.23926 0.429433-0.0859 1.030639-0.0123 0.147234 0.0368 0.214717 0.1411 0.07362 0.10429 0.07362 0.22085 0.0061 0.11043-0.06135 0.20859-0.06135 0.092-0.177908 0.10429-0.147234-0.11043-0.392624-0.12883-0.245391-0.0184-0.539859 0.0429-0.288334 0.0614-0.588937 0.19631-0.300603 0.13497-0.558263 0.33741-0.251525 0.20245-0.435568 0.46625-0.177908 0.26379-0.220851 0.57666v1.34352q-0.01227 0.0307-0.09816 0.092-0.08589 0.0552-0.196313 0.0797-0.104291 0.0307-0.214716 0-0.104291-0.0307-0.159504-0.17177 0-0.043 0-0.26993 0-0.23312 0-0.55827 0.0061-0.33127 0.01227-0.71776 0.0061-0.39263 0.0061-0.76685 0.0061-0.37422 0.0061-0.68709 0.0061-0.31287 0.0061-0.49078z" style="font-feature-settings:normal;font-variant-caps:normal;font-variant-ligatures:normal;font-variant-numeric:normal"/>
 </g>
</svg>
