<?xml version="1.0" encoding="UTF-8"?>
<!-- Created with Inkscape (http://www.inkscape.org/) -->
<svg width="512" height="512" version="1.1" viewBox="0 0 135.46667 135.46667" xmlns="http://www.w3.org/2000/svg" xmlns:cc="http://creativecommons.org/ns#" xmlns:dc="http://purl.org/dc/elements/1.1/" xmlns:rdf="http://www.w3.org/1999/02/22-rdf-syntax-ns#">
 <metadata>
  <rdf:RDF>
   <cc:Work rdf:about="">
    <dc:format>image/svg+xml</dc:format>
    <dc:type rdf:resource="http://purl.org/dc/dcmitype/StillImage"/>
    <dc:title/>
   </cc:Work>
  </rdf:RDF>
 </metadata>
 <rect x="5.6640624e-6" y="-1.8554688e-6" width="135.46667" height="135.46667" ry="2.061909" opacity="0" stroke-width=".82785952"/>
 <g transform="matrix(.40322777 .1887127 .18874145 -.40316637 -151.06364 43.91176)">
  <path transform="scale(.26458333)" d="m1729.8105 73.541016c-2.733 0-4.9335 2.200566-4.9335 4.933593v14.388672c-10.1526 0.470168-17.3718 1.077655-18.0118 1.783203-2.3979 2.643719 45.5084 51.537326 50.4278 51.466796 4.9194-0.0705 50.4804-50.301768 47.959-52.874999-0.6711-0.684879-7.8758-1.085882-18-1.265625v-13.498047c0-2.733027-2.1987-4.933593-4.9317-4.933593z" fill="#2196f3"/>
  <rect transform="rotate(-43.436588)" x="312.67651" y="335.33032" width="2.7792709" height="8.6303663" ry="1.3896354" fill="#c8e5fc"/>
 </g>
 <g transform="matrix(.44521452 0 0 .44514672 -138.8961 -2.71375)">
  <path d="m535.90319 293.57605c0.85642-0.40087 1.22316-1.41307 0.82229-2.2695l-2.46436-5.26487c5.15521-2.59235 8.96695-4.67161 9.11549-5.13916 0.46624-1.46743-27.10156-12.04932-29.0187-11.13882-1.91714 0.91049-10.77495 28.79169-9.32403 29.34862 0.46163 0.17719 4.47423-1.45957 9.73196-3.81241l2.41332 5.15581c0.40087 0.85644 1.41306 1.22318 2.26948 0.82231z" fill="#00c853"/>
  <rect transform="matrix(-.41444888 .91007259 -.91966936 -.3926936 0 0)" x="48.235729" y="-599.49005" width="3.9317675" height="14.258574" ry="1.9595118" fill="#a0ffc7"/>
 </g>
 <path transform="scale(.26458334)" d="m253.94727 94.792969a166.47564 166.45029 0 0 0 -56.89258 10.242191l12.99609 1.125-7.94726 11.65429a152.67034 152.64709 0 0 1 51.84375 -9.21875 152.67034 152.64709 0 0 1 152.66992 152.64844 152.67034 152.64709 0 0 1 -152.66992 152.64648 152.67034 152.64709 0 0 1 -152.67188 -152.64648 152.67034 152.64709 0 0 1 61.09375 -121.85742l5.29688 10.38672 30.80859-38.32227-48.65039 3.33594 6.23242 12.22266a166.47564 166.45029 0 0 0 -68.585937 134.23437 166.47564 166.45029 0 0 0 166.476567 166.44922 166.47564 166.45029 0 0 0 166.47461 -166.44922 166.47564 166.45029 0 0 0 -166.47461 -166.451171zm3.49218 1.023437a5.9582996 5.9573921 0 0 1 5.95703 5.957034 5.9582996 5.9573921 0 0 1 -5.95703 5.95703 5.9582996 5.9573921 0 0 1 -5.95898 -5.95703 5.9582996 5.9573921 0 0 1 5.95898 -5.957034zm-123.13281 55.015624a5.9582996 5.9573921 0 0 1 5.95703 5.95703 5.9582996 5.9573921 0 0 1 -5.95703 5.95703 5.9582996 5.9573921 0 0 1 -5.95898 -5.95703 5.9582996 5.9573921 0 0 1 5.95898 -5.95703zm240.31055 0a5.9582996 5.9573921 0 0 1 5.95898 5.95703 5.9582996 5.9573921 0 0 1 -5.95898 5.95703 5.9582996 5.9573921 0 0 1 -5.95703 -5.95703 5.9582996 5.9573921 0 0 1 5.95703 -5.95703zm-276.832034 138.17969a5.9582996 5.9573921 0 0 1 5.957034 5.95703 5.9582996 5.9573921 0 0 1 -5.957034 5.95703 5.9582996 5.9573921 0 0 1 -5.958984 -5.95703 5.9582996 5.9573921 0 0 1 5.958984 -5.95703zm311.960934 0a5.9582996 5.9573921 0 0 1 5.95703 5.95703 5.9582996 5.9573921 0 0 1 -5.95703 5.95703 5.9582996 5.9573921 0 0 1 -5.95898 -5.95703 5.9582996 5.9573921 0 0 1 5.95898 -5.95703zm-225.60351 109.36914a5.9582996 5.9573921 0 0 1 5.95898 5.95898 5.9582996 5.9573921 0 0 1 -5.95898 5.95704 5.9582996 5.9573921 0 0 1 -5.95703 -5.95704 5.9582996 5.9573921 0 0 1 5.95703 -5.95898zm140.63867 0a5.9582996 5.9573921 0 0 1 5.95898 5.95898 5.9582996 5.9573921 0 0 1 -5.95898 5.95704 5.9582996 5.9573921 0 0 1 -5.95898 -5.95704 5.9582996 5.9573921 0 0 1 5.95898 -5.95898z" fill="#ff5252" stroke-width="1.68257236"/>
 <ellipse cx="64.900642" cy="65.691101" rx="55.424374" ry="50.397133" opacity="0" stroke-width="2.35574746"/>
 <g fill="#1565c0" stroke="#fff" stroke-width=".11778737">
  <g transform="scale(1.0000762 .99992383)" style="font-feature-settings:normal;font-variant-caps:normal;font-variant-ligatures:normal;font-variant-numeric:normal" aria-label="Monday">
   <path d="m62.696139 20.137124 0.25766 4.045874-1.564364 0.131897-0.08282-2.070481-0.31594 1.423264-1.40486 0.196312-0.570533-1.469274 0.205515 1.742271-1.432466 0.294469 0.196312-4.294332 1.407927-0.18711 0.779114 2.453904 0.944753-2.380287z" style="font-feature-settings:normal;font-variant-caps:normal;font-variant-ligatures:normal;font-variant-numeric:normal"/>
   <path d="m65.613217 24.431456q-1.036775 0-1.769878-0.628813-0.730037-0.628813-0.730037-1.518353t0.730037-1.518353q0.733103-0.628813 1.769878-0.628813 1.033707 0 1.763743 0.628813 0.733104 0.628813 0.733104 1.518353t-0.733104 1.518353q-0.730036 0.628813-1.763743 0.628813zm-0.171774-1.340445q0.441703 0 0.754576-0.26993 0.31594-0.269929 0.31594-0.650284t-0.31594-0.650285q-0.312873-0.269929-0.754576-0.269929-0.44477 0-0.76071 0.269929-0.312873 0.26993-0.312873 0.650285t0.312873 0.650284q0.31594 0.26993 0.76071 0.26993z" style="font-feature-settings:normal;font-variant-caps:normal;font-variant-ligatures:normal;font-variant-numeric:normal"/>
   <path d="m69.803257 22.28429 0.303671 1.757608-1.530623 0.389558-0.309805-4.02747 1.536757-0.266862 1.515286 2.006066 0.0184-2.006066 1.901775-0.196312-0.674823 4.490644-1.21775 0.177908z" style="font-feature-settings:normal;font-variant-caps:normal;font-variant-ligatures:normal;font-variant-numeric:normal"/>
   <path d="m73.591471 24.431456-0.196313-4.294332q4.183906 0 4.183906 2.147166t-3.987593 2.147166zm1.091987-3.156334 0.205514 1.484612q1.328176 0.0061 1.328176-0.739239 0-0.745373-1.53369-0.745373z" style="font-feature-settings:normal;font-variant-caps:normal;font-variant-ligatures:normal;font-variant-numeric:normal"/>
   <path d="m78.904173 23.81798-0.214717 0.613476-1.208547-0.730037 1.515285-3.564295 1.153335-0.07975 1.812821 3.690058-1.432466 0.684026-0.31594-0.861934zm1.049044-1.343513-0.343547-1.110391-0.404894 1.226952z" style="font-feature-settings:normal;font-variant-caps:normal;font-variant-ligatures:normal;font-variant-numeric:normal"/>
   <path d="m82.422457 22.591028-1.444735-1.457005 1.220817-0.996899 0.837394 1.226952 0.696296-1.527555 1.628778 0.558263-1.711598 2.196244 0.131898 1.723867-1.493814-0.202447z" style="font-feature-settings:normal;font-variant-caps:normal;font-variant-ligatures:normal;font-variant-numeric:normal"/>
  </g>
  <g transform="scale(1.0000762 .99992383)" style="font-feature-settings:normal;font-variant-caps:normal;font-variant-ligatures:normal;font-variant-numeric:normal" aria-label="Tuesday">
   <path d="m86.763372 45.655313 0.150301 2.613407-1.662519 0.429433 0.285266-3.122592-1.254558-0.107358 0.09816-1.134931 3.598036-0.214716 0.131898 1.677856z" style="font-feature-settings:normal;font-variant-caps:normal;font-variant-ligatures:normal;font-variant-numeric:normal"/>
   <path d="m88.66208 44.563326 1.634913 0.319007q-0.815923 2.506049 0.233121 2.533656 1.245356-0.0092 0.720834-2.595003l1.496881-0.472377q0.687093 4.257523-2.217715 4.294332-2.935482-0.02761-1.868034-4.079615z" style="font-feature-settings:normal;font-variant-caps:normal;font-variant-ligatures:normal;font-variant-numeric:normal"/>
   <path d="m96.183295 43.796481 0.07975 1.625711-1.90791 0.205514 0.02454 0.371153 1.251491-0.11656 0.110426 1.110391-1.306704 0.09509 0.02147 0.300603 1.852697-0.141099 0.276064 1.395658-3.653249 0.125762 0.371153-4.426229z" style="font-feature-settings:normal;font-variant-caps:normal;font-variant-ligatures:normal;font-variant-numeric:normal"/>
   <path d="m97.53601 46.94668q-1.107324-0.156437-0.978494-1.377254t2.846528-1.444736l0.25766 1.386456q-1.34658-0.03067-1.444736 0.319007-0.09816 0.349682 1.03064 0.401827 1.128792 0.05215 1.104252 1.374186-0.0245 1.322041-2.972287 1.410995l-0.542926-1.450871q1.509151 0.162571 1.659453-0.150301 0.150301-0.31594-0.96009-0.469309z" style="font-feature-settings:normal;font-variant-caps:normal;font-variant-ligatures:normal;font-variant-numeric:normal"/>
   <path d="m100.72302 48.642941-0.19632-4.294332q4.18391 0 4.18391 2.147166t-3.98759 2.147166zm1.09198-3.156334 0.20552 1.484612q1.32817 0.0061 1.32817-0.739239 0-0.745373-1.53369-0.745373z" style="font-feature-settings:normal;font-variant-caps:normal;font-variant-ligatures:normal;font-variant-numeric:normal"/>
   <path d="m106.03572 48.029465-0.21472 0.613476-1.20855-0.730037 1.51529-3.564295 1.15334-0.07975 1.81282 3.690058-1.43247 0.684026-0.31594-0.861934zm1.04904-1.343513-0.34354-1.110391-0.4049 1.226952z" style="font-feature-settings:normal;font-variant-caps:normal;font-variant-ligatures:normal;font-variant-numeric:normal"/>
   <path d="m109.554 46.802513-1.44473-1.457006 1.22081-0.996898 0.8374 1.226952 0.69629-1.527555 1.62878 0.558263-1.7116 2.196244 0.1319 1.723867-1.49381-0.202447z" style="font-feature-settings:normal;font-variant-caps:normal;font-variant-ligatures:normal;font-variant-numeric:normal"/>
  </g>
  <g transform="scale(1.0000762 .99992383)" style="font-feature-settings:normal;font-variant-caps:normal;font-variant-ligatures:normal;font-variant-numeric:normal" aria-label="Wednesday">
   <path d="m82.004309 73.256948-0.613476 2.147166-1.211615 0.159504-1.825091-3.610306 1.503016-0.84353 0.920214 2.453904 0.720834-1.938584 1.226952 0.168706 0.506118 1.769878 0.736171-2.542858 1.668655 0.914079-1.79135 3.469207-1.371119-0.294469z" style="font-feature-settings:normal;font-variant-caps:normal;font-variant-ligatures:normal;font-variant-numeric:normal"/>
   <path d="m88.869105 70.557654 0.07975 1.625711-1.90791 0.205515 0.02454 0.371153 1.251491-0.116561 0.110425 1.110392-1.306704 0.09509 0.02147 0.300604 1.852697-0.1411 0.276065 1.395658-3.65325 0.125762 0.371153-4.426228z" style="font-feature-settings:normal;font-variant-caps:normal;font-variant-ligatures:normal;font-variant-numeric:normal"/>
   <path d="m89.617546 75.404114-0.196312-4.294332q4.183905 0 4.183905 2.147166t-3.987593 2.147166zm1.091987-3.156334 0.205515 1.484612q1.328175 0.0061 1.328175-0.739239 0-0.745373-1.53369-0.745373z" style="font-feature-settings:normal;font-variant-caps:normal;font-variant-ligatures:normal;font-variant-numeric:normal"/>
   <path d="m95.301399 73.256948 0.303671 1.757609-1.530622 0.389557-0.309806-4.02747 1.536757-0.266862 1.515286 2.006067 0.0184-2.006067 1.901776-0.196312-0.674824 4.490644-1.21775 0.177908z" style="font-feature-settings:normal;font-variant-caps:normal;font-variant-ligatures:normal;font-variant-numeric:normal"/>
   <path d="m101.87479 70.557654 0.0798 1.625711-1.90791 0.205515 0.0245 0.371153 1.25149-0.116561 0.11042 1.110392-1.3067 0.09509 0.0215 0.300604 1.8527-0.1411 0.27606 1.395658-3.653247 0.125762 0.371152-4.426228z" style="font-feature-settings:normal;font-variant-caps:normal;font-variant-ligatures:normal;font-variant-numeric:normal"/>
   <path d="m103.22751 73.707853q-1.10732-0.156436-0.97849-1.377254 0.12883-1.220817 2.84652-1.444735l0.25766 1.386455q-1.34658-0.03067-1.44473 0.319008-0.0982 0.349681 1.03064 0.401826 1.12879 0.05215 1.10425 1.374186-0.0245 1.322041-2.97229 1.410995l-0.54292-1.45087q1.50915 0.162571 1.65945-0.150302 0.1503-0.31594-0.96009-0.469309z" style="font-feature-settings:normal;font-variant-caps:normal;font-variant-ligatures:normal;font-variant-numeric:normal"/>
   <path d="m106.41452 75.404114-0.19632-4.294332q4.18391 0 4.18391 2.147166t-3.98759 2.147166zm1.09198-3.156334 0.20552 1.484612q1.32817 0.0061 1.32817-0.739239 0-0.745373-1.53369-0.745373z" style="font-feature-settings:normal;font-variant-caps:normal;font-variant-ligatures:normal;font-variant-numeric:normal"/>
   <path d="m111.72722 74.790638-0.21472 0.613476-1.20855-0.730037 1.51529-3.564295 1.15333-0.07975 1.81282 3.690058-1.43246 0.684026-0.31594-0.861934zm1.04904-1.343512-0.34355-1.110392-0.40489 1.226952z" style="font-feature-settings:normal;font-variant-caps:normal;font-variant-ligatures:normal;font-variant-numeric:normal"/>
   <path d="m115.2455 73.563686-1.44473-1.457005 1.22081-0.996899 0.8374 1.226952 0.69629-1.527555 1.62878 0.558263-1.71159 2.196244 0.13189 1.723867-1.49381-0.202447z" style="font-feature-settings:normal;font-variant-caps:normal;font-variant-ligatures:normal;font-variant-numeric:normal"/>
  </g>
  <g transform="scale(1.0000762 .99992383)" style="font-feature-settings:normal;font-variant-caps:normal;font-variant-ligatures:normal;font-variant-numeric:normal" aria-label="Thursday">
   <path d="m71.389959 101.2661 0.150301 2.6134-1.662519 0.42944 0.285266-3.1226-1.254558-0.10735 0.09816-1.134935 3.598036-0.214717 0.131897 1.677852z" style="font-feature-settings:normal;font-variant-caps:normal;font-variant-ligatures:normal;font-variant-numeric:normal"/>
   <path d="m74.494147 102.95929 0.110426 1.03677-1.174807 0.20552-0.533724-3.39866 1.306704-0.55826 0.147234 1.47234 1.177874-0.13496 0.0184-1.34045 2.045942 0.20552-0.782182 3.7698-1.315905-0.38955 0.01534-0.9785z" style="font-feature-settings:normal;font-variant-caps:normal;font-variant-ligatures:normal;font-variant-numeric:normal"/>
   <path d="m78.03697 100.17411 1.634913 0.31901q-0.815923 2.50604 0.233121 2.53365 1.245356-9e-3 0.720834-2.595l1.496882-0.472378q0.687093 4.257518-2.217716 4.294328-2.935482-0.0276-1.868034-4.07961z" style="font-feature-settings:normal;font-variant-caps:normal;font-variant-ligatures:normal;font-variant-numeric:normal"/>
   <path d="m83.907935 100.97163 0.04294 0.82819q1.53369 0 1.53369-0.30674t-1.576633-0.52145zm0.205515 3.03364-1.708531 0.23925 0.355816-4.579597q3.950785 0.294469 4.082682 1.582767 0.134965 1.28523-1.358849 1.77908l1.226952 0.66562-1.257626 1.11346-1.438601-1.77908z" style="font-feature-settings:normal;font-variant-caps:normal;font-variant-ligatures:normal;font-variant-numeric:normal"/>
   <path d="m88.236007 102.55746q-1.107324-0.15643-0.978494-1.37725 0.12883-1.220818 2.846528-1.444737l0.25766 1.386457q-1.34658-0.0307-1.444736 0.31901-0.09816 0.34968 1.030639 0.40182 1.128796 0.0521 1.104257 1.37419-0.02454 1.32204-2.972291 1.41099l-0.542926-1.45087q1.509151 0.16257 1.659452-0.1503 0.150302-0.31594-0.960089-0.46931z" style="font-feature-settings:normal;font-variant-caps:normal;font-variant-ligatures:normal;font-variant-numeric:normal"/>
   <path d="m91.423015 104.25372-0.196312-4.294328q4.183906 0 4.183906 2.147168 0 2.14716-3.987594 2.14716zm1.091988-3.15633 0.205514 1.48461q1.328175 6e-3 1.328175-0.73924 0-0.74537-1.533689-0.74537z" style="font-feature-settings:normal;font-variant-caps:normal;font-variant-ligatures:normal;font-variant-numeric:normal"/>
   <path d="m96.735716 103.64025-0.214717 0.61347-1.208547-0.73003 1.515285-3.564298 1.153335-0.07975 1.812821 3.69006-1.432466 0.68402-0.31594-0.86193zm1.049044-1.34352-0.343547-1.11039-0.404894 1.22696z" style="font-feature-settings:normal;font-variant-caps:normal;font-variant-ligatures:normal;font-variant-numeric:normal"/>
   <path d="m100.254 102.4133-1.444735-1.45701 1.220815-0.996898 0.8374 1.226948 0.69629-1.527551 1.62878 0.558261-1.7116 2.19625 0.1319 1.72386-1.49381-0.20244z" style="font-feature-settings:normal;font-variant-caps:normal;font-variant-ligatures:normal;font-variant-numeric:normal"/>
  </g>
  <g transform="scale(1.0000762 .99992383)" style="font-feature-settings:normal;font-variant-caps:normal;font-variant-ligatures:normal;font-variant-numeric:normal" aria-label="Friday">
   <path d="m35.440712 99.572892-0.260727 1.779078-1.493814-0.0797 0.06135 0.30674 1.187076 0.13496-0.162572 1.27603-0.81899-0.18404 0.276064 1.33124-1.503016 0.20245-0.337411-4.02747z" style="font-feature-settings:normal;font-variant-caps:normal;font-variant-ligatures:normal;font-variant-numeric:normal"/>
   <path d="m36.897717 101.0575 0.04294 0.8282q1.53369 0 1.53369-0.30674t-1.576634-0.52146zm0.205515 3.03364-1.708531 0.23926 0.355817-4.5796q3.950784 0.29447 4.082682 1.58277 0.134964 1.28523-1.358849 1.77908l1.226951 0.66562-1.257625 1.11346-1.438601-1.77908z" style="font-feature-settings:normal;font-variant-caps:normal;font-variant-ligatures:normal;font-variant-numeric:normal"/>
   <path d="m41.54173 100.06981 0.312873 4.13789-1.736137 0.32821 0.07975-4.35874z" style="font-feature-settings:normal;font-variant-caps:normal;font-variant-ligatures:normal;font-variant-numeric:normal"/>
   <path d="m42.204285 104.3396-0.196313-4.29433q4.183906 0 4.183906 2.14716 0 2.14717-3.987593 2.14717zm1.091987-3.15633 0.205514 1.48461q1.328175 6e-3 1.328175-0.73924 0-0.74537-1.533689-0.74537z" style="font-feature-settings:normal;font-variant-caps:normal;font-variant-ligatures:normal;font-variant-numeric:normal"/>
   <path d="m47.516985 103.72612-0.214717 0.61348-1.208547-0.73004 1.515285-3.56429 1.153335-0.07975 1.812822 3.690054-1.432467 0.68403-0.31594-0.86193zm1.049044-1.34351-0.343547-1.11039-0.404894 1.22695z" style="font-feature-settings:normal;font-variant-caps:normal;font-variant-ligatures:normal;font-variant-numeric:normal"/>
   <path d="m51.03527 102.49917-1.444736-1.457 1.220817-0.9969 0.837394 1.22695 0.696296-1.527555 1.628778 0.558265-1.711598 2.19624 0.131898 1.72387-1.493814-0.20245z" style="font-feature-settings:normal;font-variant-caps:normal;font-variant-ligatures:normal;font-variant-numeric:normal"/>
  </g>
  <g transform="scale(1.0000762 .99992383)" style="font-feature-settings:normal;font-variant-caps:normal;font-variant-ligatures:normal;font-variant-numeric:normal" aria-label="Saturday">
   <path d="m18.571679 73.493131q-1.107324-0.156436-0.978494-1.377253t2.846528-1.444736l0.25766 1.386456q-1.34658-0.03067-1.444736 0.319007-0.09816 0.349681 1.03064 0.401827 1.128796 0.05215 1.104256 1.374186-0.02454 1.32204-2.97229 1.410994l-0.542927-1.45087q1.509151 0.162571 1.659453-0.150302 0.150301-0.31594-0.96009-0.469309z" style="font-feature-settings:normal;font-variant-caps:normal;font-variant-ligatures:normal;font-variant-numeric:normal"/>
   <path d="m22.985638 74.575916-0.214716 0.613476-1.208548-0.730036 1.515286-3.564295 1.153334-0.07975 1.812822 3.690057-1.432467 0.684026-0.31594-0.861934zm1.049044-1.343512-0.343546-1.110391-0.404895 1.226951z" style="font-feature-settings:normal;font-variant-caps:normal;font-variant-ligatures:normal;font-variant-numeric:normal"/>
   <path d="m27.737009 72.201764 0.150302 2.613408-1.66252 0.429433 0.285267-3.122592-1.254559-0.107359 0.09816-1.13493 3.598036-0.214717 0.131897 1.677857z" style="font-feature-settings:normal;font-variant-caps:normal;font-variant-ligatures:normal;font-variant-numeric:normal"/>
   <path d="m29.635717 71.109777 1.634914 0.319008q-0.815923 2.506049 0.233121 2.533655 1.245356-0.0092 0.720834-2.595003l1.496881-0.472376q0.687093 4.257523-2.217715 4.294331-2.935483-0.02761-1.868035-4.079615z" style="font-feature-settings:normal;font-variant-caps:normal;font-variant-ligatures:normal;font-variant-numeric:normal"/>
   <path d="m35.506681 71.907296 0.04294 0.828192q1.53369 0 1.53369-0.306738 0-0.306737-1.576634-0.521454zm0.205515 3.033638-1.708531 0.239256 0.355816-4.579598q3.950785 0.294469 4.082683 1.582768 0.134964 1.285232-1.358849 1.77908l1.226951 0.665622-1.257625 1.113458-1.438601-1.77908z" style="font-feature-settings:normal;font-variant-caps:normal;font-variant-ligatures:normal;font-variant-numeric:normal"/>
   <path d="m38.923742 75.189392-0.196312-4.294331q4.183906 0 4.183906 2.147165 0 2.147166-3.987594 2.147166zm1.091987-3.156334 0.205515 1.484612q1.328175 0.0061 1.328175-0.739238 0-0.745374-1.53369-0.745374z" style="font-feature-settings:normal;font-variant-caps:normal;font-variant-ligatures:normal;font-variant-numeric:normal"/>
   <path d="m44.236445 74.575916-0.214717 0.613476-1.208548-0.730036 1.515286-3.564295 1.153335-0.07975 1.812821 3.690057-1.432466 0.684026-0.31594-0.861934zm1.049043-1.343512-0.343546-1.110391-0.404894 1.226951z" style="font-feature-settings:normal;font-variant-caps:normal;font-variant-ligatures:normal;font-variant-numeric:normal"/>
   <path d="m47.754729 73.348964-1.444736-1.457005 1.220817-0.996898 0.837395 1.226952 0.696295-1.527556 1.628779 0.558264-1.711598 2.196243 0.131897 1.723868-1.493814-0.202447z" style="font-feature-settings:normal;font-variant-caps:normal;font-variant-ligatures:normal;font-variant-numeric:normal"/>
  </g>
  <g transform="scale(1.0000762 .99992383)" style="font-feature-settings:normal;font-variant-caps:normal;font-variant-ligatures:normal;font-variant-numeric:normal" aria-label="Sunday ">
   <path d="m21.302758 46.820947q-1.107324-0.156436-0.978494-1.377253t2.846528-1.444736l0.25766 1.386456q-1.346579-0.03067-1.444736 0.319007-0.09816 0.349681 1.03064 0.401827 1.128796 0.05214 1.104257 1.374186-0.02454 1.32204-2.972291 1.410994l-0.542926-1.45087q1.50915 0.162571 1.659452-0.150302 0.150302-0.31594-0.96009-0.469309z" style="font-feature-settings:normal;font-variant-caps:normal;font-variant-ligatures:normal;font-variant-numeric:normal"/>
   <path d="m24.661539 44.437593 1.634913 0.319008q-0.815923 2.506049 0.233121 2.533655 1.245356-0.0092 0.720834-2.595003l1.496881-0.472376q0.687093 4.257523-2.217715 4.294331-2.935482-0.02761-1.868034-4.079615z" style="font-feature-settings:normal;font-variant-caps:normal;font-variant-ligatures:normal;font-variant-numeric:normal"/>
   <path d="m30.6644 46.370042 0.303671 1.757609-1.530623 0.389557-0.309805-4.027469 1.536757-0.266862 1.515286 2.006066 0.0184-2.006066 1.901775-0.196313-0.674823 4.490644-1.21775 0.177908z" style="font-feature-settings:normal;font-variant-caps:normal;font-variant-ligatures:normal;font-variant-numeric:normal"/>
   <path d="m34.452615 48.517208-0.196313-4.294331q4.183906 0 4.183906 2.147165 0 2.147166-3.987593 2.147166zm1.091987-3.156333 0.205514 1.484611q1.328176 0.0061 1.328176-0.739238 0-0.745373-1.53369-0.745373z" style="font-feature-settings:normal;font-variant-caps:normal;font-variant-ligatures:normal;font-variant-numeric:normal"/>
   <path d="m39.765316 47.903732-0.214716 0.613476-1.208548-0.730036 1.515286-3.564295 1.153334-0.07975 1.812822 3.690057-1.432467 0.684026-0.31594-0.861934zm1.049044-1.343512-0.343547-1.110391-0.404894 1.226951z" style="font-feature-settings:normal;font-variant-caps:normal;font-variant-ligatures:normal;font-variant-numeric:normal"/>
   <path d="m43.283601 46.67678-1.444736-1.457005 1.220817-0.996898 0.837395 1.226952 0.696295-1.527556 1.628778 0.558264-1.711598 2.196243 0.131898 1.723868-1.493814-0.202447z" style="font-feature-settings:normal;font-variant-caps:normal;font-variant-ligatures:normal;font-variant-numeric:normal"/>
  </g>
 </g>
 <g transform="matrix(-.40835536 .17734793 -.17737494 -.40829317 150.4544 112.36185)" fill="none" stroke="#ffc107" stroke-linecap="round" stroke-width="2.64583325">
  <g transform="rotate(-26.301235,280.87683,257.93987)">
   <path d="m311.01879 55.61079-10.7041-6.274815"/>
   <path d="m312.14537 43.254339-1.12658 12.356451"/>
  </g>
  <path d="m148.16068 32.100827s36.96218 2.270005 70.08762 31.100082"/>
 </g>
 <g transform="matrix(.99998143 -.01376277 .01376486 .99982913 0 0)" fill="#616161" stroke-width=".11778737" style="font-feature-settings:normal;font-variant-caps:normal;font-variant-ligatures:normal;font-variant-numeric:normal" aria-label="after">
  <path d="m59.774151 134.48158q-0.177909 0.27607-0.411029 0.50306-0.233121 0.22085-0.51532 0.38035-0.276064 0.15337-0.607341 0.22699-0.325143 0.0736-0.687093 0.0429-0.12883 0-0.276064-0.0307-0.147235-0.0307-0.276065-0.0982-0.122695-0.0675-0.202447-0.17791-0.07975-0.11042-0.07975-0.27606-0.06748-0.34355 0.03067-0.71163 0.104291-0.37422 0.312873-0.72391 0.214717-0.35581 0.51532-0.66255 0.306738-0.31287 0.650284-0.52759 0.343547-0.22085 0.699363-0.31901 0.361951-0.10429 0.693228-0.0429 0.251525 0 0.386489 0.16564 0.1411 0.16564 0.208582 0.44784 0.07362 0.27606 0.08589 0.64415 0.0184 0.36195 0.0184 0.76071 0.0061 0.39262 0.0184 0.79138 0.01227 0.39262 0.06748 0.73004-0.0061 0.0123-0.06135 0.0736-0.04908 0.0614-0.12883 0.0982t-0.184043 0.0123q-0.09816-0.0184-0.196312-0.17177-0.03681-0.0614-0.04908-0.21472-0.0061-0.1595-0.0061-0.33741 0.0061-0.17791 0.0061-0.34355 0.0061-0.16564-0.01227-0.23926zm-0.38649-1.86496q-0.239256-0.0184-0.496916 0.0736t-0.50305 0.26379q-0.239256 0.16564-0.453972 0.39262-0.214717 0.22086-0.374221 0.46625-0.159503 0.23925-0.251525 0.47851-0.08589 0.23925-0.07975 0.4417 0.01227 0.19631 0.12883 0.33741 0.122696 0.13497 0.380355 0.17791 0.355816 6e-3 0.680959-0.17791 0.325142-0.19018 0.588937-0.47237 0.263794-0.2822 0.441702-0.61348 0.184043-0.33741 0.245391-0.63188 0.06748-0.29447 0-0.49692-0.06748-0.20858-0.306738-0.23925z" style="font-feature-settings:normal;font-variant-caps:normal;font-variant-ligatures:normal;font-variant-numeric:normal"/>
  <path d="m60.860003 134.24233q-0.04908 0-0.104291-0.0429-0.04908-0.0491-0.09202-0.11656-0.04294-0.0736-0.07362-0.15951-0.02454-0.0859-0.02454-0.1595l1.257626-0.17791q-0.110426-0.71777-0.11656-1.22695-0.0061-0.50919 0.05521-0.85273 0.06748-0.34968 0.196313-0.55213 0.12883-0.20858 0.282199-0.31287 0.159503-0.11043 0.337411-0.1411 0.177908-0.0368 0.343547-0.043 0.202447-6e-3 0.423298 0.043 0.220852 0.0491 0.435568 0.14723 0.214717 0.092 0.404894 0.22699 0.190178 0.12883 0.337412 0.2822 0.147234 0.15336 0.233121 0.319 0.08589 0.15951 0.08589 0.31901 0 0.0184-0.03067 0.0552t-0.06748 0.0798q-0.03681 0.0368-0.07362 0.0736-0.03067 0.0368-0.03681 0.0491-0.134965-0.17791-0.325143-0.38035-0.190177-0.20859-0.417163-0.38036t-0.478511-0.2822q-0.251525-0.11656-0.503051-0.11656-0.226986 0.0614-0.368085 0.23312-0.1411 0.16564-0.214717 0.39876-0.07362 0.23312-0.09202 0.50919-0.01227 0.26993 0.01227 0.53372t0.07975 0.49692q0.06135 0.23312 0.134965 0.39262 0.331277 0 0.613476-0.0307 0.288334-0.0307 0.570532-0.0675 0.282199-0.0429 0.576668-0.0798 0.300603-0.0368 0.656419-0.0429 0.0184 0 0.02454 0.0491 0.01227 0.0429 0.01227 0.11656 0 0.0736 0 0.1595 0.0061 0.0859 0.0184 0.16564l-2.349613 0.27606 0.1411 1.69933-0.625746-0.0245q0-0.40489-0.04294-0.79138-0.03681-0.39263-0.104291-0.79138z" style="font-feature-settings:normal;font-variant-caps:normal;font-variant-ligatures:normal;font-variant-numeric:normal"/>
  <path d="m65.289299 133.15034q-0.147234-0.0368-0.190178-0.12269-0.04908-0.0859-0.03067-0.17178 0.0184-0.092 0.07975-0.1595t0.12883-0.0736h1.1472l-0.02454-1.91404q0.02454-0.0736 0.104291-0.1227 0.07975-0.0491 0.171773-0.0552 0.09202-0.0123 0.184043 0.0245 0.09202 0.0307 0.147234 0.12269l0.05521 1.91405 1.085853-0.0245q0.110425 0.0614 0.147234 0.15337 0.04294 0.0859 0.03681 0.17177-0.0061 0.0797-0.04908 0.14724-0.03681 0.0613-0.08589 0.0736l-1.134931 0.0245q-0.0061 0.38036 0.0061 0.6871 0.0184 0.3006 0.03681 0.58893 0.02454 0.2822 0.03681 0.58894 0.0184 0.3006 0.0184 0.67482-0.177908 0.1227-0.36195 0.11656-0.184043-6e-3 -0.251526-0.15337l-0.06748-2.49071h-1.190143z" style="font-feature-settings:normal;font-variant-caps:normal;font-variant-ligatures:normal;font-variant-numeric:normal"/>
  <path d="m68.473239 134.74538q-0.05521-0.49692 0.08589-0.9877 0.1411-0.49691 0.435568-0.8834 0.300603-0.39263 0.723902-0.62575 0.423298-0.23925 0.932483-0.22698 0.208582-6e-3 0.478511 0.092 0.26993 0.0982 0.496916 0.27606 0.226986 0.17178 0.361951 0.4049 0.141099 0.22698 0.09202 0.48464 0.0061 0.12883-0.12883 0.21472-0.134965 0.0798-0.361951 0.12883-0.220851 0.0491-0.521454 0.0736-0.294469 0.0184-0.625746 0.0307-0.325142 0.0123-0.662554 0.0245-0.337412 6e-3 -0.638015 0.0307-0.171773 0.47238-0.104291 0.77912 0.07362 0.3006 0.300604 0.4601 0.23312 0.15951 0.570532 0.19018 0.343547 0.0245 0.711632-0.0491 0.368086-0.0736 0.723902-0.23312 0.355816-0.16564 0.613476-0.39262 0.03681 0 0.09202 0.0245 0.06135 0.0245 0.116561 0.0675 0.05521 0.0368 0.09202 0.0859 0.04294 0.0429 0.04294 0.0797-0.153369 0.26379-0.466241 0.47237-0.312873 0.20859-0.705498 0.33742-0.392624 0.12883-0.822057 0.1595-0.423299 0.0307-0.797519-0.0613t-0.656419-0.32514q-0.282199-0.23312-0.380355-0.63188zm2.932414-1.63798q-0.03067-0.23312-0.184042-0.34968-0.153369-0.11656-0.361951-0.14724-0.208582-0.0368-0.441703 6e-3 -0.233121 0.0429-0.435568 0.12883-0.196312 0.0859-0.331277 0.20245-0.12883 0.11656-0.134964 0.23312z" style="font-feature-settings:normal;font-variant-caps:normal;font-variant-ligatures:normal;font-variant-numeric:normal"/>
  <path d="m72.540584 132.1013q0.01227-0.11656 0.09816-0.1411 0.08589-0.0307 0.184042-0.0184 0.159504 0.0184 0.239256 0.16564 0.07975 0.1411 0.110426 0.31901 0.03067 0.17791 0.03067 0.34968 0 0.16564 0.0061 0.23926 0.171773-0.14724 0.380355-0.33741 0.214717-0.19018 0.51532-0.34355 0.306738-0.1595 0.730036-0.23926 0.429433-0.0859 1.03064-0.0123 0.147234 0.0368 0.214716 0.1411 0.07362 0.10429 0.07362 0.22085 0.0061 0.11043-0.06135 0.20859-0.06135 0.092-0.177908 0.10429-0.147234-0.11043-0.392625-0.12883-0.24539-0.0184-0.539858 0.0429-0.288334 0.0614-0.588937 0.19631-0.300604 0.13497-0.558263 0.33742-0.251526 0.20244-0.435568 0.46624-0.177908 0.26379-0.220852 0.57666v1.34352q-0.01227 0.0307-0.09816 0.092-0.08589 0.0552-0.196312 0.0797-0.104291 0.0307-0.214717 0-0.104291-0.0307-0.159503-0.17177 0-0.043 0-0.26993 0-0.23312 0-0.55827 0.0061-0.33127 0.01227-0.71776 0.0061-0.39263 0.0061-0.76685 0.0061-0.37422 0.0061-0.68709 0.0061-0.31287 0.0061-0.49078z" style="font-feature-settings:normal;font-variant-caps:normal;font-variant-ligatures:normal;font-variant-numeric:normal"/>
 </g>
</svg>
