<?xml version="1.0" encoding="UTF-8"?>
<!-- Created with Inkscape (http://www.inkscape.org/) -->
<svg width="512" height="512" version="1.1" viewBox="0 0 135.46667 135.46667" xmlns="http://www.w3.org/2000/svg" xmlns:cc="http://creativecommons.org/ns#" xmlns:dc="http://purl.org/dc/elements/1.1/" xmlns:rdf="http://www.w3.org/1999/02/22-rdf-syntax-ns#">
 <metadata>
  <rdf:RDF>
   <cc:Work rdf:about="">
    <dc:format>image/svg+xml</dc:format>
    <dc:type rdf:resource="http://purl.org/dc/dcmitype/StillImage"/>
    <dc:title/>
   </cc:Work>
  </rdf:RDF>
 </metadata>
 <rect x="8.7890623e-7" y="9.0820311e-7" width="135.46667" height="135.46667" ry="2.061909" opacity="0" stroke-width=".82785952"/>
 <g transform="matrix(.44268775 0 0 .44268775 -137.34494 -2.69611)">
  <path d="m455.89205 7.156669c-0.94559 0-1.70685 0.7612626-1.70685 1.7068726v5.8130814c-5.76802 0.162403-10.10177 0.429648-10.43451 0.790133-1.04436 1.131396 19.43759 22.402254 21.55992 22.390364 2.12233-0.01188 21.96457-21.508568 20.88658-22.628076-0.34298-0.35618-4.67103-0.574851-10.43038-0.672827v-5.6926754c0-0.94561-0.76126-1.7068726-1.70685-1.7068726z" fill="#00c853"/>
  <rect transform="matrix(.02354975 -.99972267 .99999997 -.00022657028 0 0)" x="-12.619456" y="460.1387" width="3.9317675" height="14.258574" ry="1.9595118" fill="#a0ffc7"/>
 </g>
 <path d="m67.57155 24.9446a43.796699 43.796699 0 0 0 -14.96742 2.69486l3.41936 0.29625-2.09069 3.06637a40.164776 40.164776 0 0 1 13.63875 -2.42537 40.164776 40.164776 0 0 1 40.16477 40.16477 40.164776 40.164776 0 0 1 -40.16477 40.16477 40.164776 40.164776 0 0 1 -40.16476 -40.16477 40.164776 40.164776 0 0 1 18.89234 -34.04347l-1.5524-3.27158a43.796699 43.796699 0 0 0 -20.97182 37.31505 43.796699 43.796699 0 0 0 43.79664 43.79665 43.796699 43.796699 0 0 0 43.79642 -43.79665 43.796699 43.796699 0 0 0 -43.79642 -43.79688z" fill="#ff5252" stroke-width=".44268775"/>
 <path d="m40.17878 30.20587 12.79934-0.87794-8.10554 10.08312z" fill="#ff5252" stroke-width=".44268775"/>
 <ellipse cx="65.295105" cy="65.330841" rx="55.109818" ry="50.11874" opacity="0" stroke-width="2.342556"/>
 <g transform="matrix(-.44268774 9.4455265e-5 9.4455265e-5 .44268774 125.87947 -3.52828)" fill="none" stroke="#ffc107" stroke-linecap="round" stroke-width="2.64583325">
  <g transform="rotate(-26.301235,280.87683,257.93987)">
   <path d="m311.01879 55.61079-10.7041-6.274815"/>
   <path d="m312.14537 43.254339-1.12658 12.356451"/>
  </g>
  <path d="m148.16068 32.100827s36.96218 2.270005 70.08762 31.100082"/>
 </g>
 <g fill="#1565c0" stroke="#fff" stroke-width=".11712779">
  <g style="font-feature-settings:normal;font-variant-caps:normal;font-variant-ligatures:normal;font-variant-numeric:normal" aria-label="Monday">
   <path d="m63.107886 20.027048 0.256217 4.023218-1.555603 0.131159-0.08236-2.058887-0.314171 1.415294-1.396993 0.195213-0.567337-1.461047 0.204363 1.732515-1.424445 0.29282 0.195213-4.270285 1.400044-0.186062 0.774751 2.440162 0.939463-2.366957z" style="font-feature-settings:normal;font-variant-caps:normal;font-variant-ligatures:normal;font-variant-numeric:normal"/>
   <path d="m66.00863 24.297333q-1.030969 0-1.759968-0.625292-0.725948-0.625292-0.725948-1.50985 0-0.884559 0.725948-1.509851 0.728999-0.625292 1.759968-0.625292 1.027918 0 1.753866 0.625292 0.728999 0.625292 0.728999 1.509851 0 0.884558-0.728999 1.50985-0.725948 0.625292-1.753866 0.625292zm-0.170812-1.332939q0.439229 0 0.75035-0.268418 0.314171-0.268418 0.314171-0.646643t-0.314171-0.646643q-0.311121-0.268418-0.75035-0.268418-0.442279 0-0.75645 0.268418-0.311121 0.268418-0.311121 0.646643t0.311121 0.646643q0.314171 0.268418 0.75645 0.268418z" style="font-feature-settings:normal;font-variant-caps:normal;font-variant-ligatures:normal;font-variant-numeric:normal"/>
   <path d="m70.175208 22.162191 0.30197 1.747766-1.522052 0.387376-0.30807-4.004917 1.528152-0.265368 1.5068 1.994833 0.0183-1.994833 1.891126-0.195213-0.671044 4.465498-1.210931 0.176912z" style="font-feature-settings:normal;font-variant-caps:normal;font-variant-ligatures:normal;font-variant-numeric:normal"/>
   <path d="m73.942208 24.297333-0.195213-4.270285q4.160477 0 4.160477 2.135143 0 2.135142-3.965264 2.135142zm1.085873-3.138659 0.204363 1.476298q1.320738 0.0061 1.320738-0.735099t-1.525101-0.741199z" style="font-feature-settings:normal;font-variant-caps:normal;font-variant-ligatures:normal;font-variant-numeric:normal"/>
   <path d="m79.22516 23.687292-0.213515 0.610041-1.20178-0.725949 1.506801-3.544336 1.146876-0.07931 1.80267 3.669394-1.424445 0.680196-0.314171-0.857107zm1.043169-1.335989-0.341623-1.104173-0.402627 1.220081z" style="font-feature-settings:normal;font-variant-caps:normal;font-variant-ligatures:normal;font-variant-numeric:normal"/>
   <path d="m82.723743 22.467211-1.436646-1.448847 1.213981-0.991316 0.832706 1.220082 0.692396-1.519002 1.619658 0.555137-1.702014 2.183946 0.131159 1.714214-1.485449-0.201313z" style="font-feature-settings:normal;font-variant-caps:normal;font-variant-ligatures:normal;font-variant-numeric:normal"/>
  </g>
  <g style="font-feature-settings:normal;font-variant-caps:normal;font-variant-ligatures:normal;font-variant-numeric:normal" aria-label="Tuesday">
   <path d="m87.04039 45.402332 0.14946 2.598773-1.65321 0.427029 0.283669-3.105107-1.247533-0.106757 0.09761-1.128576 3.577888-0.213514 0.131159 1.668461z" style="font-feature-settings:normal;font-variant-caps:normal;font-variant-ligatures:normal;font-variant-numeric:normal"/>
   <path d="m88.928466 44.31646 1.625759 0.317221q-0.811354 2.492016 0.231815 2.519468 1.238383-0.0092 0.716798-2.580472l1.488499-0.469732q0.683245 4.233683-2.205297 4.270285-2.919044-0.02745-1.857574-4.05677z" style="font-feature-settings:normal;font-variant-caps:normal;font-variant-ligatures:normal;font-variant-numeric:normal"/>
   <path d="m96.407564 43.553909 0.07931 1.616608-1.897227 0.204363 0.0244 0.369075 1.244483-0.115908 0.109807 1.104174-1.299386 0.09456 0.02135 0.29892 1.842323-0.140309 0.274518 1.387842-3.632792 0.125058 0.369075-4.401443z" style="font-feature-settings:normal;font-variant-caps:normal;font-variant-ligatures:normal;font-variant-numeric:normal"/>
   <path d="m97.752704 46.686468q-1.101123-0.155561-0.973014-1.369542 0.128108-1.213981 2.830588-1.436645l0.256217 1.378692q-1.339039-0.0305-1.436645 0.317221-0.09761 0.347723 1.024868 0.399576 1.122472 0.05185 1.098072 1.366491-0.0244 1.314638-2.955646 1.403094l-0.539886-1.442746q1.5007 0.16166 1.65016-0.14946 0.14946-0.314171-0.954714-0.466681z" style="font-feature-settings:normal;font-variant-caps:normal;font-variant-ligatures:normal;font-variant-numeric:normal"/>
   <path d="m100.92186 48.37323-0.19521-4.270285q4.16048 0 4.16048 2.135143 0 2.135142-3.96527 2.135142zm1.08588-3.138659 0.20436 1.476298q1.32074 0.0061 1.32074-0.735099t-1.5251-0.741199z" style="font-feature-settings:normal;font-variant-caps:normal;font-variant-ligatures:normal;font-variant-numeric:normal"/>
   <path d="m106.20482 47.763189-0.21352 0.610041-1.20178-0.725948 1.5068-3.544337 1.14688-0.0793 1.80267 3.669395-1.42444 0.680195-0.31418-0.857107zm1.04317-1.335989-0.34163-1.104173-0.40262 1.220081z" style="font-feature-settings:normal;font-variant-caps:normal;font-variant-ligatures:normal;font-variant-numeric:normal"/>
   <path d="m109.7034 46.543108-1.43665-1.448846 1.21398-0.991317 0.83271 1.220082 0.6924-1.519001 1.61965 0.555137-1.70201 2.183945 0.13116 1.714214-1.48545-0.201313z" style="font-feature-settings:normal;font-variant-caps:normal;font-variant-ligatures:normal;font-variant-numeric:normal"/>
  </g>
  <g style="font-feature-settings:normal;font-variant-caps:normal;font-variant-ligatures:normal;font-variant-numeric:normal" aria-label="Wednesday">
   <path d="m82.307926 72.849416-0.610041 2.135142-1.20483 0.158611-1.814871-3.590089 1.494599-0.838806 0.915061 2.440162 0.716798-1.927728 1.220081 0.167761 0.503284 1.759967 0.732049-2.528618 1.65931 0.90896-1.781318 3.44978-1.363441-0.292819z" style="font-feature-settings:normal;font-variant-caps:normal;font-variant-ligatures:normal;font-variant-numeric:normal"/>
   <path d="m89.134281 70.165237 0.07931 1.616608-1.897227 0.204363 0.0244 0.369075 1.244483-0.115908 0.109807 1.104174-1.299386 0.09456 0.02135 0.29892 1.842323-0.140309 0.274518 1.387842-3.632792 0.125058 0.369075-4.401443z" style="font-feature-settings:normal;font-variant-caps:normal;font-variant-ligatures:normal;font-variant-numeric:normal"/>
   <path d="m89.87853 74.984558-0.195213-4.270284q4.160478 0 4.160478 2.135142t-3.965265 2.135142zm1.085873-3.138659 0.204363 1.476298q1.320738 0.0061 1.320738-0.735099t-1.525101-0.741199z" style="font-feature-settings:normal;font-variant-caps:normal;font-variant-ligatures:normal;font-variant-numeric:normal"/>
   <path d="m95.530556 72.849416 0.30197 1.747766-1.522051 0.387376-0.308071-4.004917 1.528152-0.265367 1.506801 1.994833 0.0183-1.994833 1.891126-0.195213-0.671045 4.465497-1.210931 0.176912z" style="font-feature-settings:normal;font-variant-caps:normal;font-variant-ligatures:normal;font-variant-numeric:normal"/>
   <path d="m102.06714 70.165237 0.0793 1.616608-1.89723 0.204363 0.0244 0.369075 1.24449-0.115908 0.1098 1.104174-1.29938 0.09456 0.0213 0.29892 1.84232-0.140309 0.27452 1.387842-3.632794 0.125058 0.369075-4.401443z" style="font-feature-settings:normal;font-variant-caps:normal;font-variant-ligatures:normal;font-variant-numeric:normal"/>
   <path d="m103.41228 73.297796q-1.10112-0.155561-0.97301-1.369542 0.12811-1.21398 2.83059-1.436645l0.25621 1.378692q-1.33904-0.0305-1.43664 0.317221-0.0976 0.347723 1.02487 0.399576 1.12247 0.05185 1.09807 1.366491-0.0244 1.314638-2.95565 1.403094l-0.53988-1.442746q1.5007 0.161661 1.65016-0.14946 0.14946-0.314171-0.95472-0.466681z" style="font-feature-settings:normal;font-variant-caps:normal;font-variant-ligatures:normal;font-variant-numeric:normal"/>
   <path d="m106.58144 74.984558-0.19521-4.270284q4.16048 0 4.16048 2.135142t-3.96527 2.135142zm1.08588-3.138659 0.20436 1.476298q1.32074 0.0061 1.32074-0.735099t-1.5251-0.741199z" style="font-feature-settings:normal;font-variant-caps:normal;font-variant-ligatures:normal;font-variant-numeric:normal"/>
   <path d="m111.86439 74.374517-0.21351 0.610041-1.20178-0.725948 1.5068-3.544336 1.14688-0.07931 1.80267 3.669395-1.42445 0.680195-0.31417-0.857107zm1.04317-1.335989-0.34162-1.104173-0.40263 1.220081z" style="font-feature-settings:normal;font-variant-caps:normal;font-variant-ligatures:normal;font-variant-numeric:normal"/>
   <path d="m115.36298 73.154436-1.43665-1.448846 1.21398-0.991316 0.83271 1.220081 0.6924-1.519001 1.61965 0.555137-1.70201 2.183945 0.13116 1.714214-1.48545-0.201313z" style="font-feature-settings:normal;font-variant-caps:normal;font-variant-ligatures:normal;font-variant-numeric:normal"/>
  </g>
  <g style="font-feature-settings:normal;font-variant-caps:normal;font-variant-ligatures:normal;font-variant-numeric:normal" aria-label="Thursday">
   <path d="m71.753037 100.70168 0.14946 2.59877-1.65321 0.42703 0.283669-3.10511-1.247533-0.10675 0.09761-1.128579 3.577888-0.213514 0.131159 1.668463z" style="font-feature-settings:normal;font-variant-caps:normal;font-variant-ligatures:normal;font-variant-numeric:normal"/>
   <path d="m74.839843 102.38539 0.109807 1.03097-1.168228 0.20436-0.530735-3.37962 1.299386-0.555139 0.14641 1.464099 1.171278-0.13421 0.0183-1.332939 2.034486 0.204364-0.777802 3.748695-1.308537-0.38737 0.01525-0.97302z" style="font-feature-settings:normal;font-variant-caps:normal;font-variant-ligatures:normal;font-variant-numeric:normal"/>
   <path d="m78.362827 99.615807 1.625759 0.317221q-0.811354 2.492012 0.231815 2.519472 1.238383-9e-3 0.716798-2.580476l1.488499-0.469732q0.683245 4.233678-2.205297 4.270288-2.919044-0.0275-1.857574-4.056773z" style="font-feature-settings:normal;font-variant-caps:normal;font-variant-ligatures:normal;font-variant-numeric:normal"/>
   <path d="m84.200916 100.40886 0.0427 0.82355q1.525101 0 1.525101-0.30502t-1.567804-0.51853zm0.204363 3.01665-1.698963 0.23792 0.353824-4.553957q3.928662 0.292819 4.05982 1.573907 0.134209 1.27803-1.35124 1.76912l1.220082 0.66189-1.250584 1.10722-1.430545-1.76911z" style="font-feature-settings:normal;font-variant-caps:normal;font-variant-ligatures:normal;font-variant-numeric:normal"/>
   <path d="m88.504752 101.98581q-1.101123-0.15556-0.973015-1.36954 0.128109-1.213978 2.830589-1.436642l0.256217 1.378692q-1.339039-0.0305-1.436646 0.31722-0.09761 0.34772 1.024868 0.39958 1.122475 0.0519 1.098073 1.36649-0.0244 1.31464-2.955646 1.40309l-0.539886-1.44274q1.5007 0.16166 1.65016-0.14946 0.149459-0.31418-0.954714-0.46669z" style="font-feature-settings:normal;font-variant-caps:normal;font-variant-ligatures:normal;font-variant-numeric:normal"/>
   <path d="m91.673913 103.67258-0.195213-4.270288q4.160477 0 4.160477 2.135138 0 2.13515-3.965264 2.13515zm1.085872-3.13866 0.204364 1.4763q1.320738 6e-3 1.320738-0.7351 0-0.7412-1.525102-0.7412z" style="font-feature-settings:normal;font-variant-caps:normal;font-variant-ligatures:normal;font-variant-numeric:normal"/>
   <path d="m96.956866 103.06254-0.213514 0.61004-1.20178-0.72595 1.5068-3.544338 1.146877-0.07931 1.80267 3.669393-1.424445 0.6802-0.314171-0.85711zm1.04317-1.33599-0.341623-1.10418-0.402627 1.22008z" style="font-feature-settings:normal;font-variant-caps:normal;font-variant-ligatures:normal;font-variant-numeric:normal"/>
   <path d="m100.45545 101.84245-1.436648-1.44884 1.213978-0.991318 0.83271 1.220078 0.69239-1.518997 1.61966 0.555136-1.70201 2.183941 0.13116 1.71422-1.48545-0.20131z" style="font-feature-settings:normal;font-variant-caps:normal;font-variant-ligatures:normal;font-variant-numeric:normal"/>
  </g>
  <g style="font-feature-settings:normal;font-variant-caps:normal;font-variant-ligatures:normal;font-variant-numeric:normal" aria-label="Friday">
   <path d="m36.005128 99.017987-0.259267 1.769123-1.485449-0.0793 0.061 0.30502 1.180429 0.13421-0.161661 1.26888-0.814404-0.18301 0.274518 1.32379-1.4946 0.20131-0.335522-4.004914z" style="font-feature-settings:normal;font-variant-caps:normal;font-variant-ligatures:normal;font-variant-numeric:normal"/>
   <path d="m37.453975 100.49429 0.0427 0.82355q1.525101 0 1.525101-0.30502t-1.567804-0.51853zm0.204363 3.01665-1.698963 0.23791 0.353824-4.553951q3.928661 0.29282 4.05982 1.573901 0.134209 1.27804-1.35124 1.76912l1.220081 0.6619-1.250583 1.10722-1.430545-1.76912z" style="font-feature-settings:normal;font-variant-caps:normal;font-variant-ligatures:normal;font-variant-numeric:normal"/>
   <path d="m42.071982 99.51212 0.311121 4.11472-1.726415 0.32638 0.0793-4.334343z" style="font-feature-settings:normal;font-variant-caps:normal;font-variant-ligatures:normal;font-variant-numeric:normal"/>
   <path d="m42.730826 103.758-0.195213-4.270281q4.160477 0 4.160477 2.135141 0 2.13514-3.965264 2.13514zm1.085873-3.13866 0.204363 1.4763q1.320738 6e-3 1.320738-0.7351 0-0.7412-1.525101-0.7412z" style="font-feature-settings:normal;font-variant-caps:normal;font-variant-ligatures:normal;font-variant-numeric:normal"/>
   <path d="m48.013778 103.14796-0.213515 0.61004-1.20178-0.72595 1.506801-3.544331 1.146876-0.07931 1.80267 3.669397-1.424445 0.68019-0.314171-0.8571zm1.043169-1.33599-0.341623-1.10417-0.402626 1.22008z" style="font-feature-settings:normal;font-variant-caps:normal;font-variant-ligatures:normal;font-variant-numeric:normal"/>
   <path d="m51.512361 101.92788-1.436646-1.44885 1.213981-0.991311 0.832706 1.220081 0.692396-1.519001 1.619658 0.555137-1.702014 2.183944 0.131159 1.71422-1.485449-0.20132z" style="font-feature-settings:normal;font-variant-caps:normal;font-variant-ligatures:normal;font-variant-numeric:normal"/>
  </g>
  <g style="font-feature-settings:normal;font-variant-caps:normal;font-variant-ligatures:normal;font-variant-numeric:normal" aria-label="Saturday">
   <path d="m19.230479 73.084264q-1.101123-0.15556-0.973015-1.369541 0.128109-1.213981 2.830589-1.436646l0.256217 1.378692q-1.339039-0.0305-1.436646 0.317221-0.09761 0.347723 1.024868 0.399577 1.122475 0.05185 1.098074 1.366491-0.0244 1.314638-2.955647 1.403093l-0.539886-1.442746q1.5007 0.161661 1.65016-0.14946 0.14946-0.314171-0.954714-0.466681z" style="font-feature-settings:normal;font-variant-caps:normal;font-variant-ligatures:normal;font-variant-numeric:normal"/>
   <path d="m23.619721 74.160986-0.213514 0.610041-1.20178-0.725949 1.5068-3.544336 1.146877-0.07931 1.80267 3.669394-1.424445 0.680196-0.314171-0.857107zm1.04317-1.335989-0.341623-1.104174-0.402627 1.220082z" style="font-feature-settings:normal;font-variant-caps:normal;font-variant-ligatures:normal;font-variant-numeric:normal"/>
   <path d="m28.344486 71.800129 0.14946 2.598773-1.65321 0.427028 0.283668-3.105107-1.247533-0.106757 0.09761-1.128575 3.577888-0.213514 0.131159 1.668461z" style="font-feature-settings:normal;font-variant-caps:normal;font-variant-ligatures:normal;font-variant-numeric:normal"/>
   <path d="m30.232562 70.714256 1.625758 0.317221q-0.811354 2.492017 0.231816 2.519468 1.238382-0.0092 0.716798-2.580472l1.488499-0.469731q0.683245 4.233682-2.205297 4.270285-2.919045-0.02745-1.857574-4.056771z" style="font-feature-settings:normal;font-variant-caps:normal;font-variant-ligatures:normal;font-variant-numeric:normal"/>
   <path d="m36.070651 71.507309 0.0427 0.823555q1.525102 0 1.525102-0.30502 0-0.305021-1.567804-0.518535zm0.204363 3.016651-1.698963 0.237916 0.353824-4.553953q3.928661 0.292819 4.05982 1.573904 0.134209 1.278036-1.35124 1.769118l1.220081 0.661894-1.250583 1.107224-1.430545-1.769118z" style="font-feature-settings:normal;font-variant-caps:normal;font-variant-ligatures:normal;font-variant-numeric:normal"/>
   <path d="m39.468577 74.771027-0.195213-4.270285q4.160477 0 4.160477 2.135142 0 2.135143-3.965264 2.135143zm1.085873-3.138659 0.204363 1.476298q1.320738 0.0061 1.320738-0.735099t-1.525101-0.741199z" style="font-feature-settings:normal;font-variant-caps:normal;font-variant-ligatures:normal;font-variant-numeric:normal"/>
   <path d="m44.751529 74.160986-0.213515 0.610041-1.20178-0.725949 1.506801-3.544336 1.146876-0.07931 1.80267 3.669394-1.424445 0.680196-0.314171-0.857107zm1.043169-1.335989-0.341623-1.104174-0.402626 1.220082z" style="font-feature-settings:normal;font-variant-caps:normal;font-variant-ligatures:normal;font-variant-numeric:normal"/>
   <path d="m48.250112 72.940905-1.436646-1.448847 1.213981-0.991316 0.832706 1.220081 0.692396-1.519001 1.619658 0.555137-1.702014 2.183946 0.131159 1.714214-1.485449-0.201314z" style="font-feature-settings:normal;font-variant-caps:normal;font-variant-ligatures:normal;font-variant-numeric:normal"/>
  </g>
  <g style="font-feature-settings:normal;font-variant-caps:normal;font-variant-ligatures:normal;font-variant-numeric:normal" aria-label="Sunday ">
   <path d="m21.946238 46.561407q-1.101123-0.155561-0.973015-1.369542 0.128109-1.213981 2.830589-1.436645l0.256217 1.378691q-1.339039-0.0305-1.436646 0.317222-0.09761 0.347723 1.024869 0.399576 1.122474 0.05185 1.098073 1.366491-0.0244 1.314638-2.955647 1.403094l-0.539886-1.442746q1.5007 0.16166 1.65016-0.14946 0.14946-0.314171-0.954714-0.466681z" style="font-feature-settings:normal;font-variant-caps:normal;font-variant-ligatures:normal;font-variant-numeric:normal"/>
   <path d="m25.286211 44.191399 1.625758 0.317221q-0.811354 2.492016 0.231815 2.519468 1.238383-0.0092 0.716798-2.580472l1.488499-0.469732q0.683246 4.233683-2.205297 4.270285-2.919044-0.02745-1.857573-4.05677z" style="font-feature-settings:normal;font-variant-caps:normal;font-variant-ligatures:normal;font-variant-numeric:normal"/>
   <path d="m31.255458 46.113027 0.301971 1.747766-1.522052 0.387376-0.30807-4.004917 1.528151-0.265368 1.506801 1.994833 0.0183-1.994833 1.891126-0.195213-0.671045 4.465498-1.21093 0.176912z" style="font-feature-settings:normal;font-variant-caps:normal;font-variant-ligatures:normal;font-variant-numeric:normal"/>
   <path d="m35.02246 48.248169-0.195213-4.270285q4.160477 0 4.160477 2.135143 0 2.135142-3.965264 2.135142zm1.085872-3.138659 0.204364 1.476298q1.320738 0.0061 1.320738-0.735099t-1.525102-0.741199z" style="font-feature-settings:normal;font-variant-caps:normal;font-variant-ligatures:normal;font-variant-numeric:normal"/>
   <path d="m40.305411 47.638128-0.213514 0.610041-1.20178-0.725948 1.5068-3.544337 1.146877-0.07931 1.80267 3.669395-1.424445 0.680195-0.314171-0.857107zm1.04317-1.335989-0.341623-1.104173-0.402627 1.220081z" style="font-feature-settings:normal;font-variant-caps:normal;font-variant-ligatures:normal;font-variant-numeric:normal"/>
   <path d="m43.803995 46.418047-1.436646-1.448846 1.213981-0.991317 0.832705 1.220082 0.692396-1.519001 1.619658 0.555137-1.702013 2.183945 0.131159 1.714214-1.485449-0.201313z" style="font-feature-settings:normal;font-variant-caps:normal;font-variant-ligatures:normal;font-variant-numeric:normal"/>
  </g>
 </g>
 <g transform="matrix(-.27509329 .34683732 .34683732 .27509329 142.38587 -136.83335)">
  <path transform="scale(.26458333)" d="m1729.8105 73.541016c-2.733 0-4.9335 2.200566-4.9335 4.933593v14.388672c-10.1526 0.470168-17.3718 1.077655-18.0118 1.783203-2.3979 2.643719 45.5084 51.537326 50.4278 51.466796 4.9194-0.0705 50.4804-50.301768 47.959-52.874999-0.6711-0.684879-7.8758-1.085882-18-1.265625v-13.498047c0-2.733027-2.1987-4.933593-4.9317-4.933593z" fill="#2196f3"/>
  <rect transform="rotate(-43.436588)" x="312.67651" y="335.33032" width="2.7792709" height="8.6303663" ry="1.3896354" fill="#c8e5fc"/>
 </g>
 <g transform="translate(-562.6109,-348.62918)" fill="#fff">
  <circle cx="631.10126" cy="375.41061" r="1.5675197"/>
  <circle cx="661.92896" cy="389.88632" r="1.5675197"/>
  <circle cx="671.17041" cy="426.2446" r="1.5675197"/>
  <circle cx="648.81775" cy="455.02225" r="1.5675197"/>
  <circle transform="scale(-1,1)" cx="-598.70715" cy="389.88632" r="1.5675197"/>
  <circle transform="scale(-1,1)" cx="-589.46576" cy="426.2446" r="1.5675197"/>
  <circle transform="scale(-1,1)" cx="-611.81842" cy="455.02225" r="1.5675197"/>
 </g>
 <g transform="rotate(-22.935544)" fill="#616161" stroke-width=".11712779" style="font-feature-settings:normal;font-variant-caps:normal;font-variant-ligatures:normal;font-variant-numeric:normal" aria-label="before">
  <path d="m28.861353 26.762252q-0.0244 0.390426-0.237916 0.774751-0.213514 0.378225-0.542936 0.719848-0.323322 0.335523-0.732049 0.610041-0.408727 0.268418-0.841856 0.439229-0.427028 0.164711-0.835756 0.213514-0.408727 0.0427-0.738149-0.07931-0.0488-0.524635-0.061-1.122475t-0.0122-1.220081 0-1.238383q0.0061-0.622241-0.0122-1.189579-0.0244-0.170811 0.0671-0.244016 0.09761-0.0732 0.213514-0.0732 0.122008 0 0.219615 0.0671 0.09761 0.061 0.07931 0.170811l0.061 2.873291q0.237916-0.31112 0.579539-0.61004 0.347723-0.29892 0.719848-0.524635 0.378225-0.231816 0.744249-0.359924 0.372125-0.128109 0.664945-0.09761 0.29892 0.0244 0.481932 0.237916 0.183012 0.207414 0.183012 0.652744zm-0.500233 0.103707q-0.0305-0.213515-0.170812-0.29892-0.140309-0.08541-0.347723-0.061-0.207414 0.0183-0.463631 0.134208-0.250116 0.109808-0.512434 0.29282-0.262317 0.176912-0.506334 0.408727-0.244016 0.231816-0.433128 0.488033-0.189113 0.256217-0.305021 0.530735-0.109807 0.268418-0.103707 0.524635-0.0305 0.09761 0.128109 0.103707 0.15861 0.0061 0.427028-0.07321 0.268418-0.08541 0.603941-0.256217 0.335522-0.170811 0.658843-0.427028 0.329422-0.262318 0.603941-0.59784 0.274518-0.341623 0.420928-0.768651z" style="font-feature-settings:normal;font-variant-caps:normal;font-variant-ligatures:normal;font-variant-numeric:normal"/>
  <path d="m28.849152 28.592374q-0.0549-0.494133 0.08541-0.982166 0.140309-0.494133 0.433129-0.878458 0.29892-0.390426 0.719848-0.622242 0.420928-0.237916 0.927261-0.225715 0.207414-0.0061 0.475832 0.09151t0.494133 0.274518q0.225715 0.170812 0.359924 0.402627 0.140309 0.225715 0.09151 0.481932 0.0061 0.128109-0.128109 0.213515-0.134208 0.0793-0.359923 0.128108-0.219615 0.0488-0.518535 0.0732-0.29282 0.0183-0.622241 0.0305-0.323322 0.0122-0.658844 0.0244-0.335523 0.0061-0.634443 0.0305-0.170811 0.469731-0.103707 0.774751 0.07321 0.29892 0.29892 0.457531 0.231816 0.15861 0.567338 0.189112 0.341623 0.0244 0.707647-0.0488 0.366025-0.0732 0.719848-0.231815 0.353824-0.164711 0.610041-0.390426 0.0366 0 0.09151 0.0244 0.061 0.0244 0.115908 0.0671 0.0549 0.0366 0.09151 0.08541 0.0427 0.0427 0.0427 0.0793-0.152511 0.262317-0.463631 0.469731-0.311121 0.207414-0.701547 0.335522-0.390426 0.128109-0.817454 0.158611-0.420928 0.0305-0.793053-0.061-0.372125-0.09151-0.652744-0.323322-0.280618-0.231815-0.378225-0.628341zm2.915994-1.628809q-0.0305-0.231815-0.183012-0.347723-0.15251-0.115908-0.359924-0.14641-0.207414-0.0366-0.439229 0.0061-0.231816 0.0427-0.433129 0.128108-0.195213 0.08541-0.329422 0.201313-0.128108 0.115908-0.134209 0.231816z" style="font-feature-settings:normal;font-variant-caps:normal;font-variant-ligatures:normal;font-variant-numeric:normal"/>
  <path d="m33.015729 28.09214q-0.0488 0-0.103707-0.0427-0.0488-0.0488-0.09151-0.115907-0.0427-0.07321-0.0732-0.158611-0.0244-0.08541-0.0244-0.15861l1.250584-0.176912q-0.109808-0.713748-0.115908-1.220082-0.0061-0.506333 0.0549-0.847956 0.0671-0.347723 0.195213-0.549037 0.128108-0.207413 0.280618-0.31112 0.158611-0.109808 0.335523-0.14031 0.176912-0.0366 0.341622-0.0427 0.201314-0.0061 0.420929 0.0427 0.219614 0.0488 0.433128 0.14641 0.213515 0.09151 0.402627 0.225715 0.189113 0.128109 0.335523 0.280619 0.146409 0.15251 0.231815 0.317221 0.08541 0.15861 0.08541 0.317221 0 0.0183-0.0305 0.0549t-0.06711 0.07931q-0.0366 0.0366-0.07321 0.0732-0.0305 0.0366-0.0366 0.0488-0.134209-0.176912-0.323322-0.378225-0.189112-0.207414-0.414827-0.378225-0.225715-0.170812-0.475832-0.280619-0.250117-0.115908-0.500233-0.115908-0.225715 0.061-0.366025 0.231816-0.140309 0.164711-0.213514 0.396526-0.07321 0.231816-0.09151 0.506334-0.0122 0.268418 0.0122 0.530735 0.0244 0.262318 0.0793 0.494133 0.061 0.231816 0.134209 0.390426 0.329422 0 0.610041-0.0305 0.286719-0.0305 0.567337-0.0671 0.280619-0.0427 0.573439-0.07931 0.29892-0.0366 0.652743-0.0427 0.0183 0 0.0244 0.0488 0.0122 0.0427 0.0122 0.115908 0 0.0732 0 0.15861 0.0061 0.08541 0.0183 0.164711l-2.336456 0.274518 0.140309 1.689813-0.622241-0.0244q0-0.402627-0.0427-0.786952-0.0366-0.390426-0.103707-0.786953z" style="font-feature-settings:normal;font-variant-caps:normal;font-variant-ligatures:normal;font-variant-numeric:normal"/>
  <path d="m37.38972 28.147044q0-0.500233 0.176912-0.90286 0.176912-0.408728 0.463631-0.701547 0.286719-0.29282 0.640543-0.463631 0.353823-0.170811 0.713747-0.207414 0.402627-0.0549 0.756451 0.07321 0.353823 0.122008 0.61004 0.378225 0.256217 0.250117 0.396527 0.610041 0.14641 0.359924 0.128108 0.780852-0.0549 0.500233-0.262317 0.860157-0.207414 0.353824-0.530735 0.585639-0.317222 0.225715-0.73815 0.335523-0.414827 0.103707-0.890659 0.103707-0.719848 0-1.091973-0.335523-0.372125-0.335522-0.372125-1.116374zm0.524635 0.183012q0.0244 0.366024 0.237916 0.555137 0.219615 0.183012 0.530736 0.219615 0.317221 0.0366 0.677145-0.0549 0.366024-0.09761 0.677145-0.292819 0.311121-0.201314 0.524635-0.481933 0.213514-0.286719 0.225715-0.628341 0.0061-0.158611-0.0427-0.366025-0.0488-0.213514-0.183012-0.408727-0.128109-0.195213-0.359924-0.347723-0.225715-0.15251-0.579539-0.195213-0.128108 0.0061-0.311121 0.0488-0.183012 0.0366-0.384325 0.128109-0.195213 0.09151-0.390426 0.244016-0.189113 0.15251-0.335522 0.372125-0.14641 0.219614-0.231816 0.518534-0.0793 0.29892-0.0549 0.689346z" style="font-feature-settings:normal;font-variant-caps:normal;font-variant-ligatures:normal;font-variant-numeric:normal"/>
  <path d="m41.556299 25.963098q0.0122-0.115907 0.09761-0.140309 0.08541-0.0305 0.183012-0.0183 0.158611 0.0183 0.237916 0.164711 0.0793 0.140309 0.109807 0.317221 0.0305 0.176912 0.0305 0.347723 0 0.164711 0.0061 0.237916 0.170811-0.14641 0.378225-0.335522 0.213514-0.189113 0.512434-0.341623 0.30502-0.158611 0.725948-0.237916 0.427029-0.08541 1.024869-0.0122 0.146409 0.0366 0.213514 0.14031 0.07321 0.103706 0.07321 0.219614 0.0061 0.109807-0.061 0.207414-0.061 0.09151-0.176912 0.103707-0.14641-0.109807-0.390426-0.128109-0.244016-0.0183-0.536836 0.0427-0.286719 0.061-0.585639 0.195213-0.29892 0.134209-0.555137 0.335523-0.250117 0.201313-0.433129 0.46363-0.176911 0.262318-0.219614 0.573439v1.335989q-0.0122 0.0305-0.09761 0.09151-0.08541 0.0549-0.195213 0.07931-0.103707 0.0305-0.213514 0-0.103707-0.0305-0.158611-0.170811 0-0.0427 0-0.268418 0-0.231816 0-0.555137 0.0061-0.329422 0.0122-0.713748 0.0061-0.390426 0.0061-0.762551 0.0061-0.372124 0.0061-0.683245 0.0061-0.311121 0.0061-0.488033z" style="font-feature-settings:normal;font-variant-caps:normal;font-variant-ligatures:normal;font-variant-numeric:normal"/>
  <path d="m45.039631 28.592374q-0.0549-0.494133 0.08541-0.982166 0.140309-0.494133 0.433128-0.878458 0.29892-0.390426 0.719848-0.622242 0.420928-0.237916 0.927262-0.225715 0.207414-0.0061 0.475832 0.09151t0.494133 0.274518q0.225715 0.170812 0.359924 0.402627 0.140309 0.225715 0.09151 0.481932 0.0061 0.128109-0.128109 0.213515-0.134209 0.0793-0.359924 0.128108-0.219614 0.0488-0.518534 0.0732-0.29282 0.0183-0.622242 0.0305-0.323321 0.0122-0.658844 0.0244-0.335522 0.0061-0.634442 0.0305-0.170811 0.469731-0.103707 0.774751 0.07321 0.29892 0.29892 0.457531 0.231816 0.15861 0.567338 0.189112 0.341623 0.0244 0.707647-0.0488t0.719848-0.231815q0.353824-0.164711 0.610041-0.390426 0.0366 0 0.09151 0.0244 0.061 0.0244 0.115908 0.0671 0.0549 0.0366 0.09151 0.08541 0.0427 0.0427 0.0427 0.0793-0.15251 0.262317-0.46363 0.469731-0.311121 0.207414-0.701547 0.335522-0.390426 0.128109-0.817455 0.158611-0.420928 0.0305-0.793052-0.061-0.372125-0.09151-0.652744-0.323322-0.280619-0.231815-0.378225-0.628341zm2.915994-1.628809q-0.0305-0.231815-0.183012-0.347723-0.15251-0.115908-0.359924-0.14641-0.207414-0.0366-0.439229 0.0061-0.231816 0.0427-0.433129 0.128108-0.195213 0.08541-0.329422 0.201313-0.128109 0.115909-0.134209 0.231817z" style="font-feature-settings:normal;font-variant-caps:normal;font-variant-ligatures:normal;font-variant-numeric:normal"/>
 </g>
</svg>
