<?xml version="1.0" encoding="UTF-8"?>
<!-- Created with Inkscape (http://www.inkscape.org/) -->
<svg width="512" height="512" version="1.1" viewBox="0 0 135.46667 135.46667" xmlns="http://www.w3.org/2000/svg" xmlns:cc="http://creativecommons.org/ns#" xmlns:dc="http://purl.org/dc/elements/1.1/" xmlns:rdf="http://www.w3.org/1999/02/22-rdf-syntax-ns#">
 <metadata>
  <rdf:RDF>
   <cc:Work rdf:about="">
    <dc:format>image/svg+xml</dc:format>
    <dc:type rdf:resource="http://purl.org/dc/dcmitype/StillImage"/>
    <dc:title/>
   </cc:Work>
  </rdf:RDF>
 </metadata>
 <rect x="-4.8828124e-6" y="9.0820311e-7" width="135.46667" height="135.46667" ry="2.061909" opacity="0" stroke-width=".82785952"/>
 <g transform="matrix(.44268775 0 0 .44268775 -137.34495 -2.69611)">
  <path d="m578.37303 62.134107c-0.58761-0.740855-1.6571-0.864226-2.39797-0.276609l-4.55444 3.612343c-3.71158-4.418215-6.61402-7.647549-7.10322-7.684233-1.53541-0.115171-5.47291 29.150097-4.14474 30.805512 1.32816 1.655421 30.50069 3.843047 30.70792 2.302781 0.0659-0.490054-2.45227-4.016887-5.95446-8.590105l4.4601-3.53752c0.74087-0.587618 0.86424-1.65711 0.27664-2.397965z" fill="#00c853"/>
  <rect transform="matrix(.9811304 .19334719 -.16996492 .98545011 0 0)" x="569.35431" y="-40.814171" width="3.9317675" height="14.258574" ry="1.9595118" fill="#a0ffc7"/>
 </g>
 <g transform="matrix(.44268775 0 0 .44268775 -137.34495 -2.69611)">
  <path d="m457.67902 19.457727c-0.7231 0-1.30532 0.582233-1.30532 1.305346v3.807003c-2.68621 0.124399-4.59629 0.28513-4.76562 0.471806-0.63445 0.699484 12.04076 13.635917 13.34235 13.617256 1.30159-0.01865 13.35628-13.309009 12.68916-13.989843-0.17757-0.181208-2.08381-0.287306-4.7625-0.334863v-3.571359c0-0.723113-0.58174-1.305346-1.30485-1.305346z" fill="#2196f3"/>
  <rect transform="rotate(-90.182225)" x="-25.150606" y="462.50531" width="2.7792709" height="8.6303663" ry="1.3896354" fill="#c8e5fc"/>
 </g>
 <path d="m67.57154 24.9446a43.796699 43.796699 0 0 0 -14.96742 2.69486l3.41936 0.29625-2.09069 3.06637a40.164776 40.164776 0 0 1 13.63875 -2.42537 40.164776 40.164776 0 0 1 40.16477 40.16477 40.164776 40.164776 0 0 1 -40.16477 40.16477 40.164776 40.164776 0 0 1 -40.16476 -40.16477 40.164776 40.164776 0 0 1 18.89234 -34.04347l-1.5524-3.27158a43.796699 43.796699 0 0 0 -20.97182 37.31505 43.796699 43.796699 0 0 0 43.79664 43.79665 43.796699 43.796699 0 0 0 43.79642 -43.79665 43.796699 43.796699 0 0 0 -43.79642 -43.79688z" fill="#ff5252" stroke-width=".44268775"/>
 <path d="m40.17877 30.20587 12.79934-0.87794-8.10554 10.08312z" fill="#ff5252" stroke-width=".44268775"/>
 <ellipse cx="65.295097" cy="65.330841" rx="55.109818" ry="50.11874" opacity="0" stroke-width="2.342556"/>
 <g transform="matrix(-.27780516 -.34466903 -.34466903 .27780516 160.65584 68.41564)" fill="none" stroke="#ffc107" stroke-linecap="round" stroke-width="2.64583325">
  <g transform="rotate(-26.301235,280.87683,257.93987)">
   <path d="m311.01879 55.61079-10.7041-6.274815"/>
   <path d="m312.14537 43.254339-1.12658 12.356451"/>
  </g>
  <path d="m148.16068 32.100827s36.96218 2.270005 70.08762 31.100082"/>
 </g>
 <g fill="#1565c0" stroke="#fff" stroke-width=".11712779">
  <g style="font-feature-settings:normal;font-variant-caps:normal;font-variant-ligatures:normal;font-variant-numeric:normal" aria-label="Monday">
   <path d="m63.107883 20.027048 0.256217 4.023218-1.555604 0.131159-0.08236-2.058887-0.31417 1.415294-1.396994 0.195213-0.567337-1.461047 0.204363 1.732515-1.424445 0.29282 0.195213-4.270285 1.400044-0.186062 0.774751 2.440162 0.939463-2.366957z" style="font-feature-settings:normal;font-variant-caps:normal;font-variant-ligatures:normal;font-variant-numeric:normal"/>
   <path d="m66.008626 24.297333q-1.030969 0-1.759968-0.625292-0.725948-0.625292-0.725948-1.50985 0-0.884559 0.725948-1.509851 0.728999-0.625292 1.759968-0.625292 1.027918 0 1.753867 0.625292 0.728998 0.625292 0.728998 1.509851 0 0.884558-0.728998 1.50985-0.725949 0.625292-1.753867 0.625292zm-0.170812-1.332939q0.43923 0 0.75035-0.268418 0.314171-0.268418 0.314171-0.646643t-0.314171-0.646643q-0.31112-0.268418-0.75035-0.268418-0.442279 0-0.75645 0.268418-0.311121 0.268418-0.311121 0.646643t0.311121 0.646643q0.314171 0.268418 0.75645 0.268418z" style="font-feature-settings:normal;font-variant-caps:normal;font-variant-ligatures:normal;font-variant-numeric:normal"/>
   <path d="m70.175204 22.162191 0.30197 1.747766-1.522051 0.387376-0.308071-4.004917 1.528152-0.265368 1.5068 1.994833 0.0183-1.994833 1.891126-0.195213-0.671044 4.465498-1.210931 0.176912z" style="font-feature-settings:normal;font-variant-caps:normal;font-variant-ligatures:normal;font-variant-numeric:normal"/>
   <path d="m73.942204 24.297333-0.195213-4.270285q4.160478 0 4.160478 2.135143 0 2.135142-3.965265 2.135142zm1.085873-3.138659 0.204363 1.476298q1.320738 0.0061 1.320738-0.735099t-1.525101-0.741199z" style="font-feature-settings:normal;font-variant-caps:normal;font-variant-ligatures:normal;font-variant-numeric:normal"/>
   <path d="m79.225156 23.687292-0.213515 0.610041-1.20178-0.725949 1.506801-3.544336 1.146876-0.07931 1.80267 3.669394-1.424445 0.680196-0.314171-0.857107zm1.043169-1.335989-0.341623-1.104173-0.402626 1.220081z" style="font-feature-settings:normal;font-variant-caps:normal;font-variant-ligatures:normal;font-variant-numeric:normal"/>
   <path d="m82.723739 22.467211-1.436646-1.448847 1.213981-0.991316 0.832706 1.220082 0.692396-1.519002 1.619658 0.555137-1.702014 2.183946 0.131159 1.714214-1.485449-0.201313z" style="font-feature-settings:normal;font-variant-caps:normal;font-variant-ligatures:normal;font-variant-numeric:normal"/>
  </g>
  <g style="font-feature-settings:normal;font-variant-caps:normal;font-variant-ligatures:normal;font-variant-numeric:normal" aria-label="Tuesday">
   <path d="m87.040383 45.402332 0.14946 2.598773-1.65321 0.427029 0.283669-3.105107-1.247534-0.106757 0.09761-1.128576 3.577888-0.213514 0.131159 1.668461z" style="font-feature-settings:normal;font-variant-caps:normal;font-variant-ligatures:normal;font-variant-numeric:normal"/>
   <path d="m88.928459 44.31646 1.625758 0.317221q-0.811354 2.492016 0.231815 2.519468 1.238383-0.0092 0.716798-2.580472l1.488499-0.469732q0.683246 4.233683-2.205297 4.270285-2.919044-0.02745-1.857573-4.05677z" style="font-feature-settings:normal;font-variant-caps:normal;font-variant-ligatures:normal;font-variant-numeric:normal"/>
   <path d="m96.407557 43.553909 0.07931 1.616608-1.897226 0.204363 0.0244 0.369075 1.244483-0.115908 0.109808 1.104174-1.299387 0.09456 0.02135 0.29892 1.842323-0.140309 0.274518 1.387842-3.632792 0.125058 0.369075-4.401443z" style="font-feature-settings:normal;font-variant-caps:normal;font-variant-ligatures:normal;font-variant-numeric:normal"/>
   <path d="m97.752697 46.686468q-1.101124-0.155561-0.973015-1.369542 0.128108-1.213981 2.830589-1.436645l0.256217 1.378692q-1.33904-0.0305-1.436646 0.317221-0.09761 0.347723 1.024868 0.399576 1.12247 0.05185 1.09807 1.366491-0.0244 1.314638-2.955644 1.403094l-0.539886-1.442746q1.5007 0.16166 1.65016-0.14946 0.14946-0.314171-0.954713-0.466681z" style="font-feature-settings:normal;font-variant-caps:normal;font-variant-ligatures:normal;font-variant-numeric:normal"/>
   <path d="m100.92186 48.37323-0.19522-4.270285q4.16048 0 4.16048 2.135143 0 2.135142-3.96526 2.135142zm1.08587-3.138659 0.20436 1.476298q1.32074 0.0061 1.32074-0.735099t-1.5251-0.741199z" style="font-feature-settings:normal;font-variant-caps:normal;font-variant-ligatures:normal;font-variant-numeric:normal"/>
   <path d="m106.20481 47.763189-0.21351 0.610041-1.20178-0.725948 1.5068-3.544337 1.14687-0.0793 1.80267 3.669395-1.42444 0.680195-0.31417-0.857107zm1.04317-1.335989-0.34162-1.104173-0.40263 1.220081z" style="font-feature-settings:normal;font-variant-caps:normal;font-variant-ligatures:normal;font-variant-numeric:normal"/>
   <path d="m109.70339 46.543108-1.43664-1.448846 1.21398-0.991317 0.8327 1.220082 0.6924-1.519001 1.61966 0.555137-1.70202 2.183945 0.13116 1.714214-1.48545-0.201313z" style="font-feature-settings:normal;font-variant-caps:normal;font-variant-ligatures:normal;font-variant-numeric:normal"/>
  </g>
  <g style="font-feature-settings:normal;font-variant-caps:normal;font-variant-ligatures:normal;font-variant-numeric:normal" aria-label="Wednesday">
   <path d="m82.307918 72.849416-0.610041 2.135142-1.20483 0.158611-1.814871-3.590089 1.4946-0.838806 0.915061 2.440162 0.716797-1.927728 1.220082 0.167761 0.503283 1.759967 0.732049-2.528618 1.659311 0.90896-1.781319 3.44978-1.363441-0.292819z" style="font-feature-settings:normal;font-variant-caps:normal;font-variant-ligatures:normal;font-variant-numeric:normal"/>
   <path d="m89.134273 70.165237 0.07931 1.616608-1.897226 0.204363 0.0244 0.369075 1.244483-0.115908 0.109808 1.104174-1.299387 0.09456 0.02135 0.29892 1.842323-0.140309 0.274518 1.387842-3.632792 0.125058 0.369075-4.401443z" style="font-feature-settings:normal;font-variant-caps:normal;font-variant-ligatures:normal;font-variant-numeric:normal"/>
   <path d="m89.878523 74.984558-0.195213-4.270284q4.160477 0 4.160477 2.135142t-3.965264 2.135142zm1.085872-3.138659 0.204364 1.476298q1.320738 0.0061 1.320738-0.735099t-1.525102-0.741199z" style="font-feature-settings:normal;font-variant-caps:normal;font-variant-ligatures:normal;font-variant-numeric:normal"/>
   <path d="m95.530549 72.849416 0.30197 1.747766-1.522052 0.387376-0.30807-4.004917 1.528152-0.265367 1.5068 1.994833 0.0183-1.994833 1.891126-0.195213-0.671044 4.465497-1.210931 0.176912z" style="font-feature-settings:normal;font-variant-caps:normal;font-variant-ligatures:normal;font-variant-numeric:normal"/>
   <path d="m102.06713 70.165237 0.0793 1.616608-1.89723 0.204363 0.0244 0.369075 1.24449-0.115908 0.1098 1.104174-1.29938 0.09456 0.0213 0.29892 1.84232-0.140309 0.27452 1.387842-3.632791 0.125058 0.369074-4.401443z" style="font-feature-settings:normal;font-variant-caps:normal;font-variant-ligatures:normal;font-variant-numeric:normal"/>
   <path d="m103.41227 73.297796q-1.10112-0.155561-0.97301-1.369542 0.12811-1.21398 2.83059-1.436645l0.25621 1.378692q-1.33903-0.0305-1.43664 0.317221-0.0976 0.347723 1.02487 0.399576 1.12247 0.05185 1.09807 1.366491-0.0244 1.314638-2.95565 1.403094l-0.53988-1.442746q1.5007 0.161661 1.65016-0.14946 0.14946-0.314171-0.95472-0.466681z" style="font-feature-settings:normal;font-variant-caps:normal;font-variant-ligatures:normal;font-variant-numeric:normal"/>
   <path d="m106.58144 74.984558-0.19522-4.270284q4.16048 0 4.16048 2.135142t-3.96526 2.135142zm1.08587-3.138659 0.20436 1.476298q1.32074 0.0061 1.32074-0.735099t-1.5251-0.741199z" style="font-feature-settings:normal;font-variant-caps:normal;font-variant-ligatures:normal;font-variant-numeric:normal"/>
   <path d="m111.86439 74.374517-0.21352 0.610041-1.20178-0.725948 1.5068-3.544336 1.14688-0.07931 1.80267 3.669395-1.42445 0.680195-0.31417-0.857107zm1.04317-1.335989-0.34163-1.104173-0.40262 1.220081z" style="font-feature-settings:normal;font-variant-caps:normal;font-variant-ligatures:normal;font-variant-numeric:normal"/>
   <path d="m115.36297 73.154436-1.43664-1.448846 1.21398-0.991316 0.8327 1.220081 0.6924-1.519001 1.61966 0.555137-1.70202 2.183945 0.13116 1.714214-1.48545-0.201313z" style="font-feature-settings:normal;font-variant-caps:normal;font-variant-ligatures:normal;font-variant-numeric:normal"/>
  </g>
  <g style="font-feature-settings:normal;font-variant-caps:normal;font-variant-ligatures:normal;font-variant-numeric:normal" aria-label="Thursday">
   <path d="m71.752968 100.70168 0.14946 2.59877-1.65321 0.42703 0.283669-3.10511-1.247533-0.10675 0.09761-1.128579 3.577889-0.213514 0.131158 1.668463z" style="font-feature-settings:normal;font-variant-caps:normal;font-variant-ligatures:normal;font-variant-numeric:normal"/>
   <path d="m74.839774 102.38539 0.109807 1.03097-1.168228 0.20436-0.530735-3.37962 1.299387-0.555139 0.146409 1.464099 1.171278-0.13421 0.0183-1.332939 2.034485 0.204364-0.777802 3.748695-1.308537-0.38737 0.01525-0.97302z" style="font-feature-settings:normal;font-variant-caps:normal;font-variant-ligatures:normal;font-variant-numeric:normal"/>
   <path d="m78.362759 99.615807 1.625758 0.317221q-0.811354 2.492012 0.231815 2.519472 1.238383-9e-3 0.716798-2.580476l1.488499-0.469732q0.683246 4.233678-2.205297 4.270288-2.919044-0.0275-1.857573-4.056773z" style="font-feature-settings:normal;font-variant-caps:normal;font-variant-ligatures:normal;font-variant-numeric:normal"/>
   <path d="m84.200847 100.40886 0.0427 0.82355q1.525102 0 1.525102-0.30502t-1.567805-0.51853zm0.204364 3.01665-1.698963 0.23792 0.353823-4.553957q3.928662 0.292819 4.059821 1.573907 0.134209 1.27803-1.35124 1.76912l1.220081 0.66189-1.250583 1.10722-1.430546-1.76911z" style="font-feature-settings:normal;font-variant-caps:normal;font-variant-ligatures:normal;font-variant-numeric:normal"/>
   <path d="m88.504683 101.98581q-1.101123-0.15556-0.973015-1.36954 0.128109-1.213978 2.830589-1.436642l0.256217 1.378692q-1.339039-0.0305-1.436646 0.31722-0.09761 0.34772 1.024869 0.39958 1.122474 0.0519 1.098073 1.36649-0.0244 1.31464-2.955647 1.40309l-0.539886-1.44274q1.5007 0.16166 1.65016-0.14946 0.14946-0.31418-0.954714-0.46669z" style="font-feature-settings:normal;font-variant-caps:normal;font-variant-ligatures:normal;font-variant-numeric:normal"/>
   <path d="m91.673844 103.67258-0.195213-4.270288q4.160477 0 4.160477 2.135138 0 2.13515-3.965264 2.13515zm1.085873-3.13866 0.204363 1.4763q1.320738 6e-3 1.320738-0.7351 0-0.7412-1.525101-0.7412z" style="font-feature-settings:normal;font-variant-caps:normal;font-variant-ligatures:normal;font-variant-numeric:normal"/>
   <path d="m96.956797 103.06254-0.213514 0.61004-1.20178-0.72595 1.506801-3.544338 1.146876-0.07931 1.80267 3.669393-1.424445 0.6802-0.314171-0.85711zm1.04317-1.33599-0.341623-1.10418-0.402627 1.22008z" style="font-feature-settings:normal;font-variant-caps:normal;font-variant-ligatures:normal;font-variant-numeric:normal"/>
   <path d="m100.45538 101.84245-1.436647-1.44884 1.213977-0.991318 0.83271 1.220078 0.6924-1.518997 1.61965 0.555136-1.70201 2.183941 0.13116 1.71422-1.48545-0.20131z" style="font-feature-settings:normal;font-variant-caps:normal;font-variant-ligatures:normal;font-variant-numeric:normal"/>
  </g>
  <g style="font-feature-settings:normal;font-variant-caps:normal;font-variant-ligatures:normal;font-variant-numeric:normal" aria-label="Friday">
   <path d="m36.005124 99.017987-0.259267 1.769123-1.485449-0.0793 0.061 0.30502 1.180429 0.13421-0.161661 1.26888-0.814404-0.18301 0.274518 1.32379-1.494599 0.20131-0.335523-4.004914z" style="font-feature-settings:normal;font-variant-caps:normal;font-variant-ligatures:normal;font-variant-numeric:normal"/>
   <path d="m37.453971 100.49429 0.0427 0.82355q1.525101 0 1.525101-0.30502t-1.567804-0.51853zm0.204364 3.01665-1.698964 0.23791 0.353824-4.553951q3.928662 0.29282 4.05982 1.573901 0.134209 1.27804-1.35124 1.76912l1.220082 0.6619-1.250584 1.10722-1.430545-1.76912z" style="font-feature-settings:normal;font-variant-caps:normal;font-variant-ligatures:normal;font-variant-numeric:normal"/>
   <path d="m42.071978 99.51212 0.311121 4.11472-1.726415 0.32638 0.0793-4.334343z" style="font-feature-settings:normal;font-variant-caps:normal;font-variant-ligatures:normal;font-variant-numeric:normal"/>
   <path d="m42.730822 103.758-0.195213-4.270281q4.160478 0 4.160478 2.135141 0 2.13514-3.965265 2.13514zm1.085873-3.13866 0.204363 1.4763q1.320738 6e-3 1.320738-0.7351 0-0.7412-1.525101-0.7412z" style="font-feature-settings:normal;font-variant-caps:normal;font-variant-ligatures:normal;font-variant-numeric:normal"/>
   <path d="m48.013774 103.14796-0.213514 0.61004-1.20178-0.72595 1.5068-3.544331 1.146876-0.07931 1.80267 3.669397-1.424445 0.68019-0.31417-0.8571zm1.043169-1.33599-0.341622-1.10417-0.402627 1.22008z" style="font-feature-settings:normal;font-variant-caps:normal;font-variant-ligatures:normal;font-variant-numeric:normal"/>
   <path d="m51.512357 101.92788-1.436646-1.44885 1.213981-0.991311 0.832706 1.220081 0.692396-1.519001 1.619658 0.555137-1.702014 2.183944 0.131159 1.71422-1.485449-0.20132z" style="font-feature-settings:normal;font-variant-caps:normal;font-variant-ligatures:normal;font-variant-numeric:normal"/>
  </g>
  <g style="font-feature-settings:normal;font-variant-caps:normal;font-variant-ligatures:normal;font-variant-numeric:normal" aria-label="Saturday">
   <path d="m19.230473 73.084264q-1.101123-0.15556-0.973015-1.369541 0.128109-1.213981 2.830589-1.436646l0.256217 1.378692q-1.339039-0.0305-1.436646 0.317221-0.09761 0.347723 1.024869 0.399577 1.122474 0.05185 1.098073 1.366491-0.0244 1.314638-2.955647 1.403093l-0.539886-1.442746q1.5007 0.161661 1.65016-0.14946 0.14946-0.314171-0.954714-0.466681z" style="font-feature-settings:normal;font-variant-caps:normal;font-variant-ligatures:normal;font-variant-numeric:normal"/>
   <path d="m23.619716 74.160986-0.213515 0.610041-1.20178-0.725949 1.506801-3.544336 1.146876-0.07931 1.80267 3.669394-1.424445 0.680196-0.314171-0.857107zm1.043169-1.335989-0.341623-1.104174-0.402627 1.220082z" style="font-feature-settings:normal;font-variant-caps:normal;font-variant-ligatures:normal;font-variant-numeric:normal"/>
   <path d="m28.34448 71.800129 0.14946 2.598773-1.65321 0.427028 0.283669-3.105107-1.247533-0.106757 0.09761-1.128575 3.577888-0.213514 0.131159 1.668461z" style="font-feature-settings:normal;font-variant-caps:normal;font-variant-ligatures:normal;font-variant-numeric:normal"/>
   <path d="m30.232556 70.714256 1.625759 0.317221q-0.811354 2.492017 0.231815 2.519468 1.238383-0.0092 0.716798-2.580472l1.488499-0.469731q0.683245 4.233682-2.205297 4.270285-2.919044-0.02745-1.857574-4.056771z" style="font-feature-settings:normal;font-variant-caps:normal;font-variant-ligatures:normal;font-variant-numeric:normal"/>
   <path d="m36.070645 71.507309 0.0427 0.823555q1.525101 0 1.525101-0.30502 0-0.305021-1.567804-0.518535zm0.204363 3.016651-1.698963 0.237916 0.353824-4.553953q3.928662 0.292819 4.05982 1.573904 0.134209 1.278036-1.35124 1.769118l1.220082 0.661894-1.250584 1.107224-1.430545-1.769118z" style="font-feature-settings:normal;font-variant-caps:normal;font-variant-ligatures:normal;font-variant-numeric:normal"/>
   <path d="m39.468572 74.771027-0.195213-4.270285q4.160477 0 4.160477 2.135142 0 2.135143-3.965264 2.135143zm1.085872-3.138659 0.204364 1.476298q1.320738 0.0061 1.320738-0.735099t-1.525102-0.741199z" style="font-feature-settings:normal;font-variant-caps:normal;font-variant-ligatures:normal;font-variant-numeric:normal"/>
   <path d="m44.751523 74.160986-0.213514 0.610041-1.20178-0.725949 1.5068-3.544336 1.146876-0.07931 1.80267 3.669394-1.424444 0.680196-0.314171-0.857107zm1.043169-1.335989-0.341622-1.104174-0.402627 1.220082z" style="font-feature-settings:normal;font-variant-caps:normal;font-variant-ligatures:normal;font-variant-numeric:normal"/>
   <path d="m48.250106 72.940905-1.436645-1.448847 1.21398-0.991316 0.832706 1.220081 0.692396-1.519001 1.619658 0.555137-1.702013 2.183946 0.131158 1.714214-1.485449-0.201314z" style="font-feature-settings:normal;font-variant-caps:normal;font-variant-ligatures:normal;font-variant-numeric:normal"/>
  </g>
  <g style="font-feature-settings:normal;font-variant-caps:normal;font-variant-ligatures:normal;font-variant-numeric:normal" aria-label="Sunday ">
   <path d="m21.946233 46.561407q-1.101124-0.155561-0.973015-1.369542 0.128108-1.213981 2.830588-1.436645l0.256217 1.378691q-1.339039-0.0305-1.436645 0.317222-0.09761 0.347723 1.024868 0.399576 1.122475 0.05185 1.098073 1.366491-0.0244 1.314638-2.955647 1.403094l-0.539886-1.442746q1.5007 0.16166 1.65016-0.14946 0.14946-0.314171-0.954713-0.466681z" style="font-feature-settings:normal;font-variant-caps:normal;font-variant-ligatures:normal;font-variant-numeric:normal"/>
   <path d="m25.286205 44.191399 1.625758 0.317221q-0.811354 2.492016 0.231816 2.519468 1.238382-0.0092 0.716798-2.580472l1.488499-0.469732q0.683245 4.233683-2.205297 4.270285-2.919045-0.02745-1.857574-4.05677z" style="font-feature-settings:normal;font-variant-caps:normal;font-variant-ligatures:normal;font-variant-numeric:normal"/>
   <path d="m31.255453 46.113027 0.30197 1.747766-1.522052 0.387376-0.30807-4.004917 1.528152-0.265368 1.5068 1.994833 0.0183-1.994833 1.891126-0.195213-0.671044 4.465498-1.210931 0.176912z" style="font-feature-settings:normal;font-variant-caps:normal;font-variant-ligatures:normal;font-variant-numeric:normal"/>
   <path d="m35.022454 48.248169-0.195213-4.270285q4.160477 0 4.160477 2.135143 0 2.135142-3.965264 2.135142zm1.085873-3.138659 0.204363 1.476298q1.320738 0.0061 1.320738-0.735099t-1.525101-0.741199z" style="font-feature-settings:normal;font-variant-caps:normal;font-variant-ligatures:normal;font-variant-numeric:normal"/>
   <path d="m40.305405 47.638128-0.213514 0.610041-1.20178-0.725948 1.506801-3.544337 1.146876-0.07931 1.80267 3.669395-1.424445 0.680195-0.314171-0.857107zm1.04317-1.335989-0.341623-1.104173-0.402627 1.220081z" style="font-feature-settings:normal;font-variant-caps:normal;font-variant-ligatures:normal;font-variant-numeric:normal"/>
   <path d="m43.803989 46.418047-1.436646-1.448846 1.213981-0.991317 0.832706 1.220082 0.692396-1.519001 1.619658 0.555137-1.702014 2.183945 0.131159 1.714214-1.485449-0.201313z" style="font-feature-settings:normal;font-variant-caps:normal;font-variant-ligatures:normal;font-variant-numeric:normal"/>
  </g>
 </g>
 <g transform="rotate(29.472734)" fill="#616161" stroke-width=".1171278" style="font-feature-settings:normal;font-variant-caps:normal;font-variant-ligatures:normal;font-variant-numeric:normal" aria-label="before">
  <path d="m85.665678-37.073127q-0.0244 0.390426-0.237916 0.774752-0.213514 0.378225-0.542936 0.719848-0.323321 0.335522-0.732049 0.61004-0.408727 0.268418-0.841856 0.439229-0.427028 0.164711-0.835755 0.213515-0.408728 0.0427-0.73815-0.07931-0.0488-0.524635-0.061-1.122474-0.0122-0.59784-0.0122-1.220082 0-0.622241 0-1.238382 0.0061-0.622242-0.0122-1.189579-0.0244-0.170812 0.0671-0.244017 0.09761-0.07321 0.213514-0.07321 0.122009 0 0.219615 0.0671 0.09761 0.061 0.07931 0.170811l0.061 2.873292q0.237916-0.311121 0.579539-0.610041 0.347723-0.29892 0.719848-0.524635 0.378225-0.231815 0.74425-0.359924 0.372124-0.128108 0.664944-0.09761 0.29892 0.0244 0.481932 0.237915 0.183012 0.207414 0.183012 0.652744zm-0.500233 0.103707q-0.0305-0.213514-0.170812-0.29892-0.140309-0.08541-0.347723-0.061-0.207414 0.0183-0.463631 0.134209-0.250116 0.109807-0.512434 0.292819-0.262317 0.176912-0.506333 0.408728-0.244017 0.231815-0.433129 0.488032-0.189113 0.256217-0.305021 0.530735-0.109807 0.268418-0.103707 0.524635-0.0305 0.09761 0.128109 0.103707 0.158611 0.0061 0.427028-0.0732 0.268418-0.08541 0.603941-0.256217 0.335522-0.170811 0.658844-0.427028 0.329421-0.262318 0.60394-0.59784 0.274518-0.341623 0.420928-0.768651z" style="font-feature-settings:normal;font-variant-caps:normal;font-variant-ligatures:normal;font-variant-numeric:normal"/>
  <path d="m85.653477-35.243005q-0.0549-0.494133 0.08541-0.982166 0.140309-0.494132 0.433129-0.878458 0.29892-0.390426 0.719848-0.622242 0.420928-0.237915 0.927261-0.225715 0.207414-0.0061 0.475832 0.09151t0.494133 0.274518q0.225715 0.170811 0.359924 0.402627 0.140309 0.225715 0.09151 0.481932 0.0061 0.128108-0.128108 0.213514-0.134209 0.0793-0.359924 0.128109-0.219615 0.0488-0.518535 0.0732-0.292819 0.0183-0.622241 0.0305-0.323322 0.0122-0.658844 0.0244-0.335523 0.0061-0.634443 0.0305-0.170811 0.469731-0.103706 0.774752 0.0732 0.29892 0.298919 0.45753 0.231816 0.158611 0.567338 0.189113 0.341623 0.0244 0.707647-0.0488 0.366025-0.07321 0.719848-0.231816 0.353824-0.164711 0.610041-0.390426 0.0366 0 0.09151 0.0244 0.061 0.0244 0.115908 0.0671 0.0549 0.0366 0.09151 0.08541 0.0427 0.0427 0.0427 0.07931-0.15251 0.262318-0.463631 0.469731-0.311121 0.207414-0.701547 0.335523-0.390426 0.128108-0.817454 0.15861-0.420928 0.0305-0.793053-0.061-0.372125-0.09151-0.652744-0.323321-0.280618-0.231816-0.378225-0.628342zm2.915994-1.628809q-0.0305-0.231815-0.183012-0.347723-0.15251-0.115907-0.359924-0.14641-0.207414-0.0366-0.439229 0.0061t-0.433129 0.128108q-0.195213 0.08541-0.329422 0.201314-0.128108 0.115908-0.134209 0.231815z" style="font-feature-settings:normal;font-variant-caps:normal;font-variant-ligatures:normal;font-variant-numeric:normal"/>
  <path d="m89.820054-35.743238q-0.0488 0-0.103707-0.0427-0.0488-0.0488-0.09151-0.115908-0.0427-0.07321-0.07321-0.158611-0.0244-0.08541-0.0244-0.15861l1.250583-0.176912q-0.109807-0.713747-0.115908-1.220081-0.0061-0.506334 0.0549-0.847957 0.0671-0.347723 0.195213-0.549036 0.128108-0.207414 0.280618-0.311121 0.158611-0.109807 0.335523-0.140309 0.176912-0.0366 0.341623-0.0427 0.201313-0.0061 0.420928 0.0427 0.219614 0.0488 0.433128 0.146409 0.213515 0.09151 0.402627 0.225715 0.189113 0.128109 0.335523 0.280619 0.146409 0.15251 0.231815 0.317221 0.08541 0.158611 0.08541 0.317221 0 0.0183-0.0305 0.0549t-0.0671 0.0793q-0.0366 0.0366-0.07321 0.07321-0.0305 0.0366-0.0366 0.0488-0.134209-0.176911-0.323322-0.378225-0.189112-0.207414-0.414827-0.378225t-0.475832-0.280619q-0.250117-0.115907-0.500233-0.115907-0.225715 0.061-0.366025 0.231815-0.140309 0.164711-0.213514 0.396527-0.07321 0.231815-0.09151 0.506333-0.0122 0.268418 0.0122 0.530736 0.0244 0.262317 0.07931 0.494133 0.061 0.231815 0.134209 0.390426 0.329422 0 0.610041-0.0305 0.286719-0.0305 0.567338-0.0671 0.280618-0.0427 0.573438-0.07931 0.29892-0.0366 0.652743-0.0427 0.0183 0 0.0244 0.0488 0.0122 0.0427 0.0122 0.115908 0 0.07321 0 0.15861 0.0061 0.08541 0.0183 0.164711l-2.336456 0.274519 0.14031 1.689812-0.622242-0.0244q0-0.402627-0.0427-0.786953-0.0366-0.390426-0.103707-0.786952z" style="font-feature-settings:normal;font-variant-caps:normal;font-variant-ligatures:normal;font-variant-numeric:normal"/>
  <path d="m94.194046-35.688335q0-0.500233 0.176911-0.90286 0.176912-0.408727 0.463631-0.701547 0.286719-0.292819 0.640543-0.463631 0.353823-0.170811 0.713747-0.207413 0.402627-0.0549 0.756451 0.07321 0.353823 0.122008 0.610041 0.378225 0.256217 0.250116 0.396526 0.61004 0.14641 0.359924 0.128108 0.780852-0.0549 0.500234-0.262317 0.860158-0.207414 0.353823-0.530735 0.585639-0.317222 0.225715-0.73815 0.335522-0.414827 0.103707-0.890659 0.103707-0.719848 0-1.091973-0.335522-0.372124-0.335523-0.372124-1.116375zm0.524635 0.183012q0.0244 0.366025 0.237915 0.555137 0.219615 0.183013 0.530736 0.219615 0.317221 0.0366 0.677145-0.0549 0.366024-0.09761 0.677145-0.292819 0.311121-0.201314 0.524635-0.481932 0.213514-0.286719 0.225715-0.628342 0.0061-0.158611-0.0427-0.366024-0.0488-0.213515-0.183012-0.408728-0.128109-0.195213-0.359924-0.347723-0.225715-0.15251-0.579539-0.195213-0.128108 0.0061-0.31112 0.0488-0.183013 0.0366-0.384326 0.128109-0.195213 0.09151-0.390426 0.244016-0.189113 0.15251-0.335522 0.372125-0.14641 0.219615-0.231816 0.518534-0.07931 0.29892-0.0549 0.689346z" style="font-feature-settings:normal;font-variant-caps:normal;font-variant-ligatures:normal;font-variant-numeric:normal"/>
  <path d="m98.360624-37.87228q0.0122-0.115908 0.09761-0.14031 0.08541-0.0305 0.183012-0.0183 0.158611 0.0183 0.237916 0.164711 0.07931 0.140309 0.109807 0.317221 0.0305 0.176912 0.0305 0.347723 0 0.164711 0.0061 0.237916 0.170811-0.146409 0.378225-0.335522 0.213514-0.189113 0.512434-0.341623 0.305022-0.15861 0.725952-0.237916 0.42702-0.08541 1.02486-0.0122 0.14641 0.0366 0.21352 0.140309 0.0732 0.103707 0.0732 0.219614 6e-3 0.109808-0.061 0.207414-0.061 0.09151-0.17691 0.103707-0.14641-0.109807-0.39043-0.128108-0.24401-0.0183-0.53683 0.0427-0.28672 0.061-0.58564 0.195213-0.298923 0.134208-0.55514 0.335522-0.250116 0.201313-0.433129 0.463631-0.176911 0.262317-0.219614 0.573438v1.335989q-0.0122 0.0305-0.09761 0.09151-0.0854 0.0549-0.195213 0.0793-0.103707 0.0305-0.213514 0-0.103707-0.0305-0.158611-0.170811 0-0.0427 0-0.268418 0-0.231815 0-0.555137 0.0061-0.329422 0.0122-0.713747 0.0061-0.390426 0.0061-0.762551 0.0061-0.372125 0.0061-0.683246 0.0061-0.31112 0.0061-0.488032z" style="font-feature-settings:normal;font-variant-caps:normal;font-variant-ligatures:normal;font-variant-numeric:normal"/>
  <path d="m101.84396-35.243005q-0.0549-0.494133 0.0854-0.982166 0.14031-0.494132 0.43313-0.878458 0.29892-0.390426 0.71985-0.622242 0.42093-0.237915 0.92726-0.225715 0.20741-0.0061 0.47583 0.09151t0.49413 0.274518q0.22572 0.170811 0.35993 0.402627 0.14031 0.225715 0.0915 0.481932 6e-3 0.128108-0.1281 0.213514-0.13421 0.0793-0.35993 0.128109-0.21961 0.0488-0.51853 0.0732-0.29282 0.0183-0.62224 0.0305-0.32333 0.0122-0.65885 0.0244-0.33552 0.0061-0.63444 0.0305-0.17081 0.469731-0.10371 0.774752 0.0732 0.29892 0.29892 0.45753 0.23182 0.158611 0.56734 0.189113 0.34162 0.0244 0.70765-0.0488 0.36602-0.07321 0.71985-0.231816 0.35382-0.164711 0.61004-0.390426 0.0366 0 0.0915 0.0244 0.061 0.0244 0.11591 0.0671 0.0549 0.0366 0.0915 0.08541 0.0427 0.0427 0.0427 0.07931-0.15251 0.262318-0.46363 0.469731-0.31112 0.207414-0.70155 0.335523-0.39042 0.128108-0.81745 0.15861-0.42093 0.0305-0.79306-0.061-0.37212-0.09151-0.65274-0.323321-0.28062-0.231816-0.37822-0.628342zm2.91599-1.628809q-0.0305-0.231815-0.18301-0.347723-0.15251-0.115907-0.35993-0.14641-0.20741-0.0366-0.43923 0.0061-0.23181 0.0427-0.43312 0.128108-0.19522 0.08541-0.32943 0.201314-0.1281 0.115908-0.1342 0.231815z" style="font-feature-settings:normal;font-variant-caps:normal;font-variant-ligatures:normal;font-variant-numeric:normal"/>
 </g>
 <g transform="translate(-716.1825,-348.62918)" fill="#fff">
  <circle cx="784.67285" cy="375.41061" r="1.5675197"/>
  <circle cx="815.50055" cy="389.88632" r="1.5675197"/>
  <circle cx="824.742" cy="426.2446" r="1.5675197"/>
  <circle cx="802.38928" cy="455.02225" r="1.5675197"/>
  <circle transform="scale(-1,1)" cx="-752.27875" cy="389.88632" r="1.5675197"/>
  <circle transform="scale(-1,1)" cx="-743.03735" cy="426.2446" r="1.5675197"/>
  <circle transform="scale(-1,1)" cx="-765.39001" cy="455.02225" r="1.5675197"/>
 </g>
</svg>
