<?xml version="1.0" encoding="UTF-8"?>
<!-- Created with Inkscape (http://www.inkscape.org/) -->
<svg width="512" height="512" version="1.1" viewBox="0 0 135.46667 135.46667" xmlns="http://www.w3.org/2000/svg" xmlns:cc="http://creativecommons.org/ns#" xmlns:dc="http://purl.org/dc/elements/1.1/" xmlns:rdf="http://www.w3.org/1999/02/22-rdf-syntax-ns#">
 <metadata>
  <rdf:RDF>
   <cc:Work rdf:about="">
    <dc:format>image/svg+xml</dc:format>
    <dc:type rdf:resource="http://purl.org/dc/dcmitype/StillImage"/>
    <dc:title/>
   </cc:Work>
  </rdf:RDF>
 </metadata>
 <rect x="5.6640624e-6" y="9.0820311e-7" width="135.46667" height="135.46667" ry="2.061909" opacity="0" stroke-width=".82785952"/>
 <g transform="matrix(.44268775 0 0 .44268775 -137.34494 -2.69611)">
  <path d="m535.90319 293.57605c0.85642-0.40087 1.22316-1.41307 0.82229-2.2695l-2.46436-5.26487c5.15521-2.59235 8.96695-4.67161 9.11549-5.13916 0.46624-1.46743-27.10156-12.04932-29.0187-11.13882-1.91714 0.91049-10.77495 28.79169-9.32403 29.34862 0.46163 0.17719 4.47423-1.45957 9.73196-3.81241l2.41332 5.15581c0.40087 0.85644 1.41306 1.22318 2.26948 0.82231z" fill="#00c853"/>
  <rect transform="matrix(-.41444888 .91007259 -.91966936 -.3926936 0 0)" x="48.235729" y="-599.49005" width="3.9317675" height="14.258574" ry="1.9595118" fill="#a0ffc7"/>
 </g>
 <g transform="matrix(-.10426026 .4302351 -.4302351 -.10426026 185.0159 -114.74264)">
  <path transform="scale(.26458333)" d="m1729.8105 73.541016c-2.733 0-4.9335 2.200566-4.9335 4.933593v14.388672c-10.1526 0.470168-17.3718 1.077655-18.0118 1.783203-2.3979 2.643719 45.5084 51.537326 50.4278 51.466796 4.9194-0.0705 50.4804-50.301768 47.959-52.874999-0.6711-0.684879-7.8758-1.085882-18-1.265625v-13.498047c0-2.733027-2.1987-4.933593-4.9317-4.933593z" fill="#2196f3"/>
  <rect transform="rotate(-43.436588)" x="312.67651" y="335.33032" width="2.7792709" height="8.6303663" ry="1.3896354" fill="#c8e5fc"/>
 </g>
 <path d="m67.5716 24.9446a43.796699 43.796699 0 0 0 -14.9675 2.69486l3.4194 0.29625-2.0907 3.06637a40.164776 40.164776 0 0 1 13.6388 -2.42537 40.164776 40.164776 0 0 1 40.1647 40.16477 40.164776 40.164776 0 0 1 -40.1647 40.16477 40.164776 40.164776 0 0 1 -40.1648 -40.16477 40.164776 40.164776 0 0 1 18.8923 -34.04347l-1.5524-3.27158a43.796699 43.796699 0 0 0 -20.9718 37.31505 43.796699 43.796699 0 0 0 43.7967 43.79665 43.796699 43.796699 0 0 0 43.7964 -43.79665 43.796699 43.796699 0 0 0 -43.7964 -43.79688z" fill="#ff5252" stroke-width=".44268775"/>
 <path d="m40.1788 30.20587 12.7993-0.87794-8.1055 10.08312z" fill="#ff5252" stroke-width=".44268775"/>
 <ellipse cx="65.295052" cy="65.330841" rx="55.109818" ry="50.11874" opacity="0" stroke-width="2.342556"/>
 <g transform="matrix(.39876872 -.1922393 -.1922393 -.39876872 47.4209 159.00781)" fill="none" stroke="#ffc107" stroke-linecap="round" stroke-width="2.64583325">
  <g transform="rotate(-26.301235,280.87683,257.93987)">
   <path d="m311.01879 55.61079-10.7041-6.274815"/>
   <path d="m312.14537 43.254339-1.12658 12.356451"/>
  </g>
  <path d="m148.16068 32.100827s36.96218 2.270005 70.08762 31.100082"/>
 </g>
 <g fill="#1565c0" stroke="#fff" stroke-width=".11712779">
  <g style="font-feature-settings:normal;font-variant-caps:normal;font-variant-ligatures:normal;font-variant-numeric:normal" aria-label="Monday">
   <path d="m63.107951 20.027048 0.256217 4.023218-1.555603 0.131159-0.08236-2.058887-0.314171 1.415294-1.396993 0.195213-0.567338-1.461047 0.204364 1.732515-1.424445 0.29282 0.195213-4.270285 1.400043-0.186062 0.774752 2.440162 0.939463-2.366957z" style="font-feature-settings:normal;font-variant-caps:normal;font-variant-ligatures:normal;font-variant-numeric:normal"/>
   <path d="m66.008694 24.297333q-1.030968 0-1.759967-0.625292-0.725948-0.625292-0.725948-1.50985 0-0.884559 0.725948-1.509851 0.728999-0.625292 1.759967-0.625292 1.027919 0 1.753867 0.625292 0.728999 0.625292 0.728999 1.509851 0 0.884558-0.728999 1.50985-0.725948 0.625292-1.753867 0.625292zm-0.170811-1.332939q0.439229 0 0.75035-0.268418 0.314171-0.268418 0.314171-0.646643t-0.314171-0.646643q-0.311121-0.268418-0.75035-0.268418-0.442279 0-0.75645 0.268418-0.311121 0.268418-0.311121 0.646643t0.311121 0.646643q0.314171 0.268418 0.75645 0.268418z" style="font-feature-settings:normal;font-variant-caps:normal;font-variant-ligatures:normal;font-variant-numeric:normal"/>
   <path d="m70.175273 22.162191 0.30197 1.747766-1.522052 0.387376-0.30807-4.004917 1.528152-0.265368 1.5068 1.994833 0.0183-1.994833 1.891126-0.195213-0.671045 4.465498-1.21093 0.176912z" style="font-feature-settings:normal;font-variant-caps:normal;font-variant-ligatures:normal;font-variant-numeric:normal"/>
   <path d="m73.942273 24.297333-0.195213-4.270285q4.160477 0 4.160477 2.135143 0 2.135142-3.965264 2.135142zm1.085872-3.138659 0.204364 1.476298q1.320738 0.0061 1.320738-0.735099t-1.525102-0.741199z" style="font-feature-settings:normal;font-variant-caps:normal;font-variant-ligatures:normal;font-variant-numeric:normal"/>
   <path d="m79.225224 23.687292-0.213514 0.610041-1.20178-0.725949 1.5068-3.544336 1.146877-0.07931 1.80267 3.669394-1.424445 0.680196-0.314171-0.857107zm1.04317-1.335989-0.341623-1.104173-0.402627 1.220081z" style="font-feature-settings:normal;font-variant-caps:normal;font-variant-ligatures:normal;font-variant-numeric:normal"/>
   <path d="m82.723808 22.467211-1.436646-1.448847 1.213981-0.991316 0.832705 1.220082 0.692397-1.519002 1.619657 0.555137-1.702013 2.183946 0.131159 1.714214-1.485449-0.201313z" style="font-feature-settings:normal;font-variant-caps:normal;font-variant-ligatures:normal;font-variant-numeric:normal"/>
  </g>
  <g style="font-feature-settings:normal;font-variant-caps:normal;font-variant-ligatures:normal;font-variant-numeric:normal" aria-label="Tuesday">
   <path d="m87.040337 45.402332 0.14946 2.598773-1.65321 0.427029 0.283669-3.105107-1.247533-0.106757 0.09761-1.128576 3.577889-0.213514 0.131158 1.668461z" style="font-feature-settings:normal;font-variant-caps:normal;font-variant-ligatures:normal;font-variant-numeric:normal"/>
   <path d="m88.928413 44.31646 1.625758 0.317221q-0.811354 2.492016 0.231816 2.519468 1.238382-0.0092 0.716797-2.580472l1.4885-0.469732q0.683245 4.233683-2.205297 4.270285-2.919045-0.02745-1.857574-4.05677z" style="font-feature-settings:normal;font-variant-caps:normal;font-variant-ligatures:normal;font-variant-numeric:normal"/>
   <path d="m96.407511 43.553909 0.07931 1.616608-1.897226 0.204363 0.0244 0.369075 1.244482-0.115908 0.109808 1.104174-1.299387 0.09456 0.02135 0.29892 1.842322-0.140309 0.274519 1.387842-3.632792 0.125058 0.369074-4.401443z" style="font-feature-settings:normal;font-variant-caps:normal;font-variant-ligatures:normal;font-variant-numeric:normal"/>
   <path d="m97.752651 46.686468q-1.101123-0.155561-0.973015-1.369542 0.128109-1.213981 2.830589-1.436645l0.256217 1.378692q-1.339039-0.0305-1.436646 0.317221-0.09761 0.347723 1.024868 0.399576 1.122476 0.05185 1.098076 1.366491-0.0244 1.314638-2.955649 1.403094l-0.539886-1.442746q1.5007 0.16166 1.65016-0.14946 0.14946-0.314171-0.954714-0.466681z" style="font-feature-settings:normal;font-variant-caps:normal;font-variant-ligatures:normal;font-variant-numeric:normal"/>
   <path d="m100.92181 48.37323-0.19521-4.270285q4.16048 0 4.16048 2.135143 0 2.135142-3.96527 2.135142zm1.08587-3.138659 0.20437 1.476298q1.32073 0.0061 1.32073-0.735099t-1.5251-0.741199z" style="font-feature-settings:normal;font-variant-caps:normal;font-variant-ligatures:normal;font-variant-numeric:normal"/>
   <path d="m106.20476 47.763189-0.21351 0.610041-1.20178-0.725948 1.5068-3.544337 1.14688-0.0793 1.80267 3.669395-1.42445 0.680195-0.31417-0.857107zm1.04317-1.335989-0.34162-1.104173-0.40263 1.220081z" style="font-feature-settings:normal;font-variant-caps:normal;font-variant-ligatures:normal;font-variant-numeric:normal"/>
   <path d="m109.70335 46.543108-1.43665-1.448846 1.21398-0.991317 0.83271 1.220082 0.69239-1.519001 1.61966 0.555137-1.70201 2.183945 0.13116 1.714214-1.48545-0.201313z" style="font-feature-settings:normal;font-variant-caps:normal;font-variant-ligatures:normal;font-variant-numeric:normal"/>
  </g>
  <g style="font-feature-settings:normal;font-variant-caps:normal;font-variant-ligatures:normal;font-variant-numeric:normal" aria-label="Wednesday">
   <path d="m82.307933 72.849416-0.61004 2.135142-1.204831 0.158611-1.814871-3.590089 1.4946-0.838806 0.915061 2.440162 0.716798-1.927728 1.220081 0.167761 0.503284 1.759967 0.732048-2.528618 1.659311 0.90896-1.781319 3.44978-1.363441-0.292819z" style="font-feature-settings:normal;font-variant-caps:normal;font-variant-ligatures:normal;font-variant-numeric:normal"/>
   <path d="m89.134288 70.165237 0.07931 1.616608-1.897226 0.204363 0.0244 0.369075 1.244483-0.115908 0.109807 1.104174-1.299387 0.09456 0.02135 0.29892 1.842322-0.140309 0.274519 1.387842-3.632792 0.125058 0.369074-4.401443z" style="font-feature-settings:normal;font-variant-caps:normal;font-variant-ligatures:normal;font-variant-numeric:normal"/>
   <path d="m89.878538 74.984558-0.195213-4.270284q4.160477 0 4.160477 2.135142t-3.965264 2.135142zm1.085872-3.138659 0.204364 1.476298q1.320738 0.0061 1.320738-0.735099t-1.525102-0.741199z" style="font-feature-settings:normal;font-variant-caps:normal;font-variant-ligatures:normal;font-variant-numeric:normal"/>
   <path d="m95.530564 72.849416 0.30197 1.747766-1.522051 0.387376-0.308071-4.004917 1.528152-0.265367 1.5068 1.994833 0.0183-1.994833 1.891126-0.195213-0.671044 4.465497-1.210931 0.176912z" style="font-feature-settings:normal;font-variant-caps:normal;font-variant-ligatures:normal;font-variant-numeric:normal"/>
   <path d="m102.06715 70.165237 0.0793 1.616608-1.89722 0.204363 0.0244 0.369075 1.24448-0.115908 0.10981 1.104174-1.29939 0.09456 0.0214 0.29892 1.84232-0.140309 0.27452 1.387842-3.632796 0.125058 0.369075-4.401443z" style="font-feature-settings:normal;font-variant-caps:normal;font-variant-ligatures:normal;font-variant-numeric:normal"/>
   <path d="m103.41229 73.297796q-1.10112-0.155561-0.97302-1.369542 0.12811-1.21398 2.83059-1.436645l0.25622 1.378692q-1.33904-0.0305-1.43665 0.317221-0.0976 0.347723 1.02487 0.399576 1.12248 0.05185 1.09808 1.366491-0.0244 1.314638-2.95565 1.403094l-0.53989-1.442746q1.5007 0.161661 1.65016-0.14946 0.14946-0.314171-0.95471-0.466681z" style="font-feature-settings:normal;font-variant-caps:normal;font-variant-ligatures:normal;font-variant-numeric:normal"/>
   <path d="m106.58145 74.984558-0.19521-4.270284q4.16047 0 4.16047 2.135142t-3.96526 2.135142zm1.08587-3.138659 0.20437 1.476298q1.32073 0.0061 1.32073-0.735099t-1.5251-0.741199z" style="font-feature-settings:normal;font-variant-caps:normal;font-variant-ligatures:normal;font-variant-numeric:normal"/>
   <path d="m111.8644 74.374517-0.21351 0.610041-1.20178-0.725948 1.5068-3.544336 1.14687-0.07931 1.80267 3.669395-1.42444 0.680195-0.31417-0.857107zm1.04317-1.335989-0.34162-1.104173-0.40263 1.220081z" style="font-feature-settings:normal;font-variant-caps:normal;font-variant-ligatures:normal;font-variant-numeric:normal"/>
   <path d="m115.36299 73.154436-1.43665-1.448846 1.21398-0.991316 0.83271 1.220081 0.69239-1.519001 1.61966 0.555137-1.70201 2.183945 0.13116 1.714214-1.48545-0.201313z" style="font-feature-settings:normal;font-variant-caps:normal;font-variant-ligatures:normal;font-variant-numeric:normal"/>
  </g>
  <g style="font-feature-settings:normal;font-variant-caps:normal;font-variant-ligatures:normal;font-variant-numeric:normal" aria-label="Thursday">
   <path d="m71.752984 100.70168 0.14946 2.59877-1.653211 0.42703 0.283669-3.10511-1.247533-0.10675 0.09761-1.128579 3.577888-0.213514 0.131159 1.668463z" style="font-feature-settings:normal;font-variant-caps:normal;font-variant-ligatures:normal;font-variant-numeric:normal"/>
   <path d="m74.839789 102.38539 0.109807 1.03097-1.168227 0.20436-0.530736-3.37962 1.299387-0.555139 0.14641 1.464099 1.171278-0.13421 0.0183-1.332939 2.034485 0.204364-0.777801 3.748695-1.308538-0.38737 0.01525-0.97302z" style="font-feature-settings:normal;font-variant-caps:normal;font-variant-ligatures:normal;font-variant-numeric:normal"/>
   <path d="m78.362774 99.615807 1.625758 0.317221q-0.811354 2.492012 0.231816 2.519472 1.238382-9e-3 0.716797-2.580476l1.4885-0.469732q0.683245 4.233678-2.205297 4.270288-2.919045-0.0275-1.857574-4.056773z" style="font-feature-settings:normal;font-variant-caps:normal;font-variant-ligatures:normal;font-variant-numeric:normal"/>
   <path d="m84.200862 100.40886 0.0427 0.82355q1.525102 0 1.525102-0.30502t-1.567805-0.51853zm0.204364 3.01665-1.698963 0.23792 0.353823-4.553957q3.928662 0.292819 4.059821 1.573907 0.134209 1.27803-1.35124 1.76912l1.220081 0.66189-1.250583 1.10722-1.430545-1.76911z" style="font-feature-settings:normal;font-variant-caps:normal;font-variant-ligatures:normal;font-variant-numeric:normal"/>
   <path d="m88.504699 101.98581q-1.101124-0.15556-0.973015-1.36954 0.128108-1.213978 2.830588-1.436642l0.256217 1.378692q-1.339039-0.0305-1.436645 0.31722-0.09761 0.34772 1.024868 0.39958 1.122475 0.0519 1.098073 1.36649-0.0244 1.31464-2.955647 1.40309l-0.539886-1.44274q1.5007 0.16166 1.65016-0.14946 0.14946-0.31418-0.954713-0.46669z" style="font-feature-settings:normal;font-variant-caps:normal;font-variant-ligatures:normal;font-variant-numeric:normal"/>
   <path d="m91.67386 103.67258-0.195213-4.270288q4.160477 0 4.160477 2.135138 0 2.13515-3.965264 2.13515zm1.085872-3.13866 0.204363 1.4763q1.320738 6e-3 1.320738-0.7351 0-0.7412-1.525101-0.7412z" style="font-feature-settings:normal;font-variant-caps:normal;font-variant-ligatures:normal;font-variant-numeric:normal"/>
   <path d="m96.956813 103.06254-0.213514 0.61004-1.201781-0.72595 1.506801-3.544338 1.146876-0.07931 1.80267 3.669393-1.424445 0.6802-0.314171-0.85711zm1.043169-1.33599-0.341623-1.10418-0.402626 1.22008z" style="font-feature-settings:normal;font-variant-caps:normal;font-variant-ligatures:normal;font-variant-numeric:normal"/>
   <path d="m100.45539 101.84245-1.436641-1.44884 1.213981-0.991318 0.8327 1.220078 0.6924-1.518997 1.61966 0.555136-1.70201 2.183941 0.13115 1.71422-1.48544-0.20131z" style="font-feature-settings:normal;font-variant-caps:normal;font-variant-ligatures:normal;font-variant-numeric:normal"/>
  </g>
  <g style="font-feature-settings:normal;font-variant-caps:normal;font-variant-ligatures:normal;font-variant-numeric:normal" aria-label="Friday">
   <path d="m36.005132 99.017987-0.259267 1.769123-1.485449-0.0793 0.061 0.30502 1.180428 0.13421-0.16166 1.26888-0.814405-0.18301 0.274519 1.32379-1.4946 0.20131-0.335522-4.004914z" style="font-feature-settings:normal;font-variant-caps:normal;font-variant-ligatures:normal;font-variant-numeric:normal"/>
   <path d="m37.453979 100.49429 0.0427 0.82355q1.525102 0 1.525102-0.30502t-1.567804-0.51853zm0.204363 3.01665-1.698963 0.23791 0.353824-4.553951q3.928661 0.29282 4.05982 1.573901 0.134209 1.27804-1.35124 1.76912l1.220081 0.6619-1.250583 1.10722-1.430545-1.76912z" style="font-feature-settings:normal;font-variant-caps:normal;font-variant-ligatures:normal;font-variant-numeric:normal"/>
   <path d="m42.071986 99.51212 0.311121 4.11472-1.726415 0.32638 0.0793-4.334343z" style="font-feature-settings:normal;font-variant-caps:normal;font-variant-ligatures:normal;font-variant-numeric:normal"/>
   <path d="m42.73083 103.758-0.195213-4.270281q4.160477 0 4.160477 2.135141 0 2.13514-3.965264 2.13514zm1.085872-3.13866 0.204364 1.4763q1.320738 6e-3 1.320738-0.7351 0-0.7412-1.525102-0.7412z" style="font-feature-settings:normal;font-variant-caps:normal;font-variant-ligatures:normal;font-variant-numeric:normal"/>
   <path d="m48.013781 103.14796-0.213514 0.61004-1.20178-0.72595 1.506801-3.544331 1.146876-0.07931 1.80267 3.669397-1.424445 0.68019-0.314171-0.8571zm1.04317-1.33599-0.341623-1.10417-0.402627 1.22008z" style="font-feature-settings:normal;font-variant-caps:normal;font-variant-ligatures:normal;font-variant-numeric:normal"/>
   <path d="m51.512365 101.92788-1.436646-1.44885 1.213981-0.991311 0.832705 1.220081 0.692397-1.519001 1.619657 0.555137-1.702013 2.183944 0.131159 1.71422-1.485449-0.20132z" style="font-feature-settings:normal;font-variant-caps:normal;font-variant-ligatures:normal;font-variant-numeric:normal"/>
  </g>
  <g style="font-feature-settings:normal;font-variant-caps:normal;font-variant-ligatures:normal;font-variant-numeric:normal" aria-label="Saturday">
   <path d="m19.230485 73.084264q-1.101124-0.15556-0.973015-1.369541 0.128108-1.213981 2.830588-1.436646l0.256218 1.378692q-1.33904-0.0305-1.436646 0.317221-0.09761 0.347723 1.024868 0.399577 1.122475 0.05185 1.098073 1.366491-0.0244 1.314638-2.955647 1.403093l-0.539886-1.442746q1.5007 0.161661 1.65016-0.14946 0.14946-0.314171-0.954713-0.466681z" style="font-feature-settings:normal;font-variant-caps:normal;font-variant-ligatures:normal;font-variant-numeric:normal"/>
   <path d="m23.619727 74.160986-0.213514 0.610041-1.20178-0.725949 1.5068-3.544336 1.146877-0.07931 1.80267 3.669394-1.424445 0.680196-0.314171-0.857107zm1.04317-1.335989-0.341623-1.104174-0.402627 1.220082z" style="font-feature-settings:normal;font-variant-caps:normal;font-variant-ligatures:normal;font-variant-numeric:normal"/>
   <path d="m28.344491 71.800129 0.14946 2.598773-1.65321 0.427028 0.283669-3.105107-1.247533-0.106757 0.09761-1.128575 3.577888-0.213514 0.131159 1.668461z" style="font-feature-settings:normal;font-variant-caps:normal;font-variant-ligatures:normal;font-variant-numeric:normal"/>
   <path d="m30.232568 70.714256 1.625758 0.317221q-0.811354 2.492017 0.231816 2.519468 1.238382-0.0092 0.716797-2.580472l1.488499-0.469731q0.683246 4.233682-2.205296 4.270285-2.919045-0.02745-1.857574-4.056771z" style="font-feature-settings:normal;font-variant-caps:normal;font-variant-ligatures:normal;font-variant-numeric:normal"/>
   <path d="m36.070656 71.507309 0.0427 0.823555q1.525102 0 1.525102-0.30502 0-0.305021-1.567805-0.518535zm0.204364 3.016651-1.698963 0.237916 0.353823-4.553953q3.928662 0.292819 4.059821 1.573904 0.134209 1.278036-1.35124 1.769118l1.220081 0.661894-1.250583 1.107224-1.430546-1.769118z" style="font-feature-settings:normal;font-variant-caps:normal;font-variant-ligatures:normal;font-variant-numeric:normal"/>
   <path d="m39.468583 74.771027-0.195213-4.270285q4.160477 0 4.160477 2.135142 0 2.135143-3.965264 2.135143zm1.085872-3.138659 0.204364 1.476298q1.320738 0.0061 1.320738-0.735099t-1.525102-0.741199z" style="font-feature-settings:normal;font-variant-caps:normal;font-variant-ligatures:normal;font-variant-numeric:normal"/>
   <path d="m44.751534 74.160986-0.213514 0.610041-1.20178-0.725949 1.5068-3.544336 1.146877-0.07931 1.80267 3.669394-1.424445 0.680196-0.314171-0.857107zm1.04317-1.335989-0.341623-1.104174-0.402627 1.220082z" style="font-feature-settings:normal;font-variant-caps:normal;font-variant-ligatures:normal;font-variant-numeric:normal"/>
   <path d="m48.250118 72.940905-1.436646-1.448847 1.213981-0.991316 0.832705 1.220081 0.692397-1.519001 1.619657 0.555137-1.702013 2.183946 0.131159 1.714214-1.485449-0.201314z" style="font-feature-settings:normal;font-variant-caps:normal;font-variant-ligatures:normal;font-variant-numeric:normal"/>
  </g>
  <g style="font-feature-settings:normal;font-variant-caps:normal;font-variant-ligatures:normal;font-variant-numeric:normal" aria-label="Sunday ">
   <path d="m21.946305 46.561407q-1.101123-0.155561-0.973015-1.369542 0.128109-1.213981 2.830589-1.436645l0.256217 1.378691q-1.339039-0.0305-1.436646 0.317222-0.09761 0.347723 1.024868 0.399576 1.122475 0.05185 1.098074 1.366491-0.0244 1.314638-2.955647 1.403094l-0.539886-1.442746q1.5007 0.16166 1.65016-0.14946 0.14946-0.314171-0.954714-0.466681z" style="font-feature-settings:normal;font-variant-caps:normal;font-variant-ligatures:normal;font-variant-numeric:normal"/>
   <path d="m25.286277 44.191399 1.625759 0.317221q-0.811354 2.492016 0.231815 2.519468 1.238383-0.0092 0.716798-2.580472l1.488499-0.469732q0.683246 4.233683-2.205297 4.270285-2.919044-0.02745-1.857574-4.05677z" style="font-feature-settings:normal;font-variant-caps:normal;font-variant-ligatures:normal;font-variant-numeric:normal"/>
   <path d="m31.255525 46.113027 0.30197 1.747766-1.522051 0.387376-0.308071-4.004917 1.528152-0.265368 1.506801 1.994833 0.0183-1.994833 1.891126-0.195213-0.671045 4.465498-1.210931 0.176912z" style="font-feature-settings:normal;font-variant-caps:normal;font-variant-ligatures:normal;font-variant-numeric:normal"/>
   <path d="m35.022527 48.248169-0.195213-4.270285q4.160477 0 4.160477 2.135143 0 2.135142-3.965264 2.135142zm1.085872-3.138659 0.204364 1.476298q1.320738 0.0061 1.320738-0.735099t-1.525102-0.741199z" style="font-feature-settings:normal;font-variant-caps:normal;font-variant-ligatures:normal;font-variant-numeric:normal"/>
   <path d="m40.305478 47.638128-0.213514 0.610041-1.20178-0.725948 1.5068-3.544337 1.146876-0.07931 1.802671 3.669395-1.424445 0.680195-0.314171-0.857107zm1.043169-1.335989-0.341622-1.104173-0.402627 1.220081z" style="font-feature-settings:normal;font-variant-caps:normal;font-variant-ligatures:normal;font-variant-numeric:normal"/>
   <path d="m43.804061 46.418047-1.436645-1.448846 1.213981-0.991317 0.832705 1.220082 0.692396-1.519001 1.619658 0.555137-1.702013 2.183945 0.131158 1.714214-1.485449-0.201313z" style="font-feature-settings:normal;font-variant-caps:normal;font-variant-ligatures:normal;font-variant-numeric:normal"/>
  </g>
 </g>
 <g transform="translate(-1023.3258,-348.62918)" fill="#fff">
  <circle cx="1091.8162" cy="375.41061" r="1.5675197"/>
  <circle cx="1122.6438" cy="389.88632" r="1.5675197"/>
  <circle cx="1131.8853" cy="426.2446" r="1.5675197"/>
  <circle cx="1109.5326" cy="455.02225" r="1.5675197"/>
  <circle transform="scale(-1,1)" cx="-1059.4221" cy="389.88632" r="1.5675197"/>
  <circle transform="scale(-1,1)" cx="-1050.1807" cy="426.2446" r="1.5675197"/>
  <circle transform="scale(-1,1)" cx="-1072.5333" cy="455.02225" r="1.5675197"/>
 </g>
 <g transform="rotate(-46.035037)" fill="#616161" stroke-width=".11712779" style="font-feature-settings:normal;font-variant-caps:normal;font-variant-ligatures:normal;font-variant-numeric:normal" aria-label="before">
  <path d="m-6.6433543 159.82668q-0.024402 0.39043-0.2379158 0.77476-0.2135143 0.37822-0.5429362 0.71984-0.3233216 0.33553-0.7320488 0.61004-0.4087272 0.26842-0.8418561 0.43923-0.4270284 0.16471-0.8357556 0.21352-0.4087272 0.0427-0.7381492-0.0793-0.0488-0.52463-0.061-1.12247t-0.0122-1.22008q0-0.62225 0-1.23839 0.0061-0.62224-0.0122-1.18958-0.0244-0.17081 0.0671-0.24401 0.09761-0.0732 0.213514-0.0732 0.122008 0 0.219615 0.0671 0.09761 0.061 0.0793 0.17081l0.061 2.87329q0.2379158-0.31112 0.5795386-0.61004 0.3477231-0.29892 0.7198479-0.52464 0.3782252-0.23181 0.7442496-0.35992 0.3721248-0.12811 0.6649443-0.0976 0.2989199 0.0244 0.4819321 0.23792 0.1830122 0.20741 0.1830122 0.65274zm-0.5002333 0.10371q-0.030502-0.21351-0.1708114-0.29892-0.1403093-0.0854-0.3477232-0.061-0.2074138 0.0183-0.4636309 0.13421-0.2501166 0.1098-0.5124341 0.29282-0.2623175 0.17691-0.5063337 0.40872-0.2440163 0.23182-0.4331289 0.48803-0.1891126 0.25622-0.3050203 0.53074-0.1098073 0.26842-0.1037069 0.52464-0.030502 0.0976 0.1281085 0.1037 0.1586106 6e-3 0.4270285-0.0732 0.2684179-0.0854 0.6039402-0.25622 0.3355224-0.17081 0.6588439-0.42703 0.3294219-0.26232 0.6039402-0.59784 0.2745183-0.34162 0.4209281-0.76865z" style="font-feature-settings:normal;font-variant-caps:normal;font-variant-ligatures:normal;font-variant-numeric:normal"/>
  <path d="m-6.6555553 161.65681q-0.054904-0.49414 0.085406-0.98217 0.1403094-0.49413 0.4331289-0.87846 0.2989199-0.39042 0.7198479-0.62224 0.4209281-0.23792 0.9272618-0.22571 0.2074138-6e-3 0.4758317 0.0915 0.2684179 0.0976 0.4941329 0.27452 0.2257151 0.17081 0.359924 0.40263 0.1403093 0.22571 0.091506 0.48193 0.0061 0.12811-0.1281085 0.21351-0.134209 0.0793-0.359924 0.12811-0.2196147 0.0488-0.5185346 0.0732-0.2928195 0.0183-0.6222414 0.0305-0.3233216 0.0122-0.6588439 0.0244-0.3355224 6e-3 -0.6344423 0.0305-0.1708114 0.46973-0.1037069 0.77475 0.073205 0.29892 0.2989199 0.45753 0.2318155 0.15861 0.5673378 0.18912 0.3416228 0.0244 0.7076472-0.0488t0.7198479-0.23181q0.3538236-0.16471 0.6100407-0.39043 0.036602 0 0.091506 0.0244 0.061004 0.0244 0.1159077 0.0671 0.054904 0.0366 0.091506 0.0854 0.042703 0.0427 0.042703 0.0793-0.1525101 0.26232-0.4636309 0.46973-0.3111207 0.20741-0.7015467 0.33552t-0.8174545 0.15861q-0.420928 0.0305-0.7930528-0.061t-0.6527435-0.32332-0.3782252-0.62834zm2.9159943-1.62881q-0.030502-0.23182-0.1830122-0.34773-0.1525102-0.1159-0.359924-0.14641-0.2074138-0.0366-0.4392292 6e-3 -0.2318155 0.0427-0.4331289 0.12811-0.195213 0.0854-0.3294219 0.20132-0.1281086 0.1159-0.134209 0.23181z" style="font-feature-settings:normal;font-variant-caps:normal;font-variant-ligatures:normal;font-variant-numeric:normal"/>
  <path d="m-2.4889784 161.15657q-0.048803 0-0.1037069-0.0427-0.048803-0.0488-0.091506-0.11591-0.042703-0.0732-0.073205-0.15861-0.024402-0.0854-0.024402-0.15861l1.2505833-0.17691q-0.1098073-0.71375-0.1159077-1.22008-0.0061-0.50634 0.054904-0.84796 0.067105-0.34772 0.195213-0.54904 0.1281086-0.20741 0.2806187-0.31112 0.15861061-0.1098 0.3355224-0.14031 0.17691178-0.0366 0.34162275-0.0427 0.20131342-6e-3 0.42092805 0.0427 0.21961463 0.0488 0.43312885 0.14641 0.21351422 0.0915 0.40262682 0.22572 0.18911263 0.12811 0.33552233 0.28062 0.1464098 0.15251 0.2318155 0.31722 0.085406 0.15861 0.085406 0.31722 0 0.0183-0.030502 0.0549t-0.067104 0.0793q-0.036602 0.0366-0.073205 0.0732-0.030502 0.0366-0.036603 0.0488-0.1342089-0.17691-0.3233215-0.37823-0.1891126-0.20741-0.41482763-0.37822-0.22571504-0.17081-0.4758317-0.28062-0.25011667-0.11591-0.50023333-0.11591-0.22571504 0.061-0.36602438 0.23182-0.14030935 0.16471-0.21351426 0.39652-0.073205 0.23182-0.091506 0.50634-0.012201 0.26841 0.012201 0.53073t0.079305 0.49413q0.0610041 0.23182 0.13420897 0.39043 0.32942195 0 0.61004064-0.0305 0.286719105-0.0305 0.5673378-0.0671 0.28061869-0.0427 0.5734382-0.0793 0.29891989-0.0366 0.65274349-0.0427 0.018301 0 0.024402 0.0488 0.012201 0.0427 0.012201 0.11591 0 0.0732 0 0.15861 0.0061 0.0854 0.018301 0.16471l-2.3364557 0.27452 0.14030935 1.68981-0.62224145-0.0244q0-0.40263-0.042703-0.78695-0.036602-0.39043-0.103707-0.78696z" style="font-feature-settings:normal;font-variant-caps:normal;font-variant-ligatures:normal;font-variant-numeric:normal"/>
  <path d="m1.8850131 161.21148q0-0.50024 0.1769118-0.90286 0.1769118-0.40873 0.4636309-0.70155t0.6405427-0.46363 0.7137475-0.20742q0.4026269-0.0549 0.7564504 0.0732 0.3538236 0.12201 0.6100407 0.37822 0.256217 0.25012 0.3965264 0.61005 0.1464097 0.35992 0.1281085 0.78085-0.054904 0.50023-0.2623175 0.86015-0.2074138 0.35383-0.5307353 0.58564-0.3172211 0.22572-0.7381492 0.33553-0.4148276 0.1037-0.8906593 0.1037-0.719848 0-1.0919728-0.33552t-0.3721248-1.11637zm0.524635 0.18301q0.024402 0.36602 0.2379158 0.55514 0.2196147 0.18301 0.5307354 0.21961 0.3172211 0.0366 0.6771451-0.0549 0.3660244-0.0976 0.6771451-0.29282 0.3111207-0.20132 0.524635-0.48194 0.2135142-0.28671 0.225715-0.62834 0.0061-0.15861-0.042703-0.36602-0.048803-0.21352-0.1830122-0.40873-0.1281086-0.19521-0.359924-0.34772-0.225715-0.15251-0.5795386-0.19522-0.1281086 6e-3 -0.3111207 0.0488-0.1830122 0.0366-0.3843256 0.12811-0.1952131 0.0915-0.3904261 0.24401-0.1891126 0.15251-0.3355223 0.37213-0.1464098 0.21961-0.2318155 0.51853-0.079305 0.29892-0.054904 0.68935z" style="font-feature-settings:normal;font-variant-caps:normal;font-variant-ligatures:normal;font-variant-numeric:normal"/>
  <path d="m6.0515921 159.02753q0.012201-0.11591 0.097607-0.14031 0.085406-0.0305 0.1830122-0.0183 0.1586105 0.0183 0.2379158 0.16471 0.079305 0.14031 0.1098073 0.31722 0.030502 0.17691 0.030502 0.34773 0 0.16471 0.0061 0.23791 0.1708113-0.14641 0.3782252-0.33552 0.2135142-0.18911 0.5124341-0.34162 0.3050203-0.15861 0.7259484-0.23792 0.4270284-0.0854 1.0248682-0.0122 0.1464098 0.0366 0.2135143 0.14031 0.073205 0.10371 0.073205 0.21961 0.0061 0.10981-0.061004 0.20742-0.061004 0.0915-0.1769118 0.1037-0.1464098-0.1098-0.390426-0.1281-0.2440163-0.0183-0.5368358 0.0427-0.2867191 0.061-0.585639 0.19521t-0.555137 0.33552q-0.2501167 0.20132-0.4331288 0.46363-0.1769118 0.26232-0.2196147 0.57344v1.33599q-0.012201 0.0305-0.097607 0.0915-0.085406 0.0549-0.195213 0.0793-0.1037069 0.0305-0.2135142 0-0.1037069-0.0305-0.1586106-0.17081 0-0.0427 0-0.26842 0-0.23181 0-0.55513 0.0061-0.32943 0.012201-0.71375 0.0061-0.39043 0.0061-0.76255 0.0061-0.37213 0.0061-0.68325 0.0061-0.31112 0.0061-0.48803z" style="font-feature-settings:normal;font-variant-caps:normal;font-variant-ligatures:normal;font-variant-numeric:normal"/>
  <path d="m9.5349235 161.65681q-0.054904-0.49414 0.085406-0.98217 0.1403094-0.49413 0.4331288-0.87846 0.29892-0.39042 0.719848-0.62224 0.420928-0.23792 0.927262-0.22571 0.207414-6e-3 0.475832 0.0915 0.268417 0.0976 0.494132 0.27452 0.225715 0.17081 0.359924 0.40263 0.14031 0.22571 0.09151 0.48193 0.0061 0.12811-0.128108 0.21351-0.134209 0.0793-0.359924 0.12811-0.219615 0.0488-0.518535 0.0732-0.292819 0.0183-0.622241 0.0305-0.323322 0.0122-0.658844 0.0244-0.335522 6e-3 -0.634442 0.0305-0.170812 0.46973-0.103707 0.77475 0.0732 0.29892 0.29892 0.45753 0.231815 0.15861 0.567338 0.18912 0.341622 0.0244 0.707647-0.0488 0.366024-0.0732 0.719848-0.23181 0.353823-0.16471 0.61004-0.39043 0.0366 0 0.09151 0.0244 0.061 0.0244 0.115908 0.0671 0.0549 0.0366 0.09151 0.0854 0.0427 0.0427 0.0427 0.0793-0.15251 0.26232-0.463631 0.46973-0.31112 0.20741-0.701546 0.33552-0.390427 0.12811-0.817455 0.15861-0.420928 0.0305-0.793053-0.061t-0.6527433-0.32332q-0.280628-0.2318-0.3782345-0.62832zm2.9159945-1.62881q-0.0305-0.23182-0.183012-0.34773-0.152511-0.1159-0.359924-0.14641-0.207414-0.0366-0.43923 6e-3 -0.231815 0.0427-0.433128 0.12811-0.195214 0.0854-0.329422 0.20132-0.128109 0.1159-0.134209 0.23181z" style="font-feature-settings:normal;font-variant-caps:normal;font-variant-ligatures:normal;font-variant-numeric:normal"/>
 </g>
</svg>
