<?xml version="1.0" encoding="UTF-8"?>
<!-- Created with Inkscape (http://www.inkscape.org/) -->
<svg width="512" height="512" version="1.1" viewBox="0 0 135.46667 135.46667" xmlns="http://www.w3.org/2000/svg" xmlns:cc="http://creativecommons.org/ns#" xmlns:dc="http://purl.org/dc/elements/1.1/" xmlns:rdf="http://www.w3.org/1999/02/22-rdf-syntax-ns#">
 <metadata>
  <rdf:RDF>
   <cc:Work rdf:about="">
    <dc:format>image/svg+xml</dc:format>
    <dc:type rdf:resource="http://purl.org/dc/dcmitype/StillImage"/>
    <dc:title/>
   </cc:Work>
  </rdf:RDF>
 </metadata>
 <g transform="translate(-614.28656,-686.63293)">
  <rect x="614.28656" y="686.63293" width="135.46667" height="135.46667" ry="2.061909" opacity="0" stroke-width=".82785952"/>
  <g transform="matrix(.44521452 0 0 .44514672 475.3905 683.91916)">
   <path d="m388.60268 291.52817c-0.85642-0.40087-1.22316-1.41307-0.82229-2.2695l2.46436-5.26487c-5.15521-2.59235-8.96695-4.67161-9.11549-5.13916-0.46624-1.46743 27.10156-12.04932 29.0187-11.13882 1.91714 0.91049 10.77495 28.79169 9.32403 29.34862-0.46163 0.17719-4.47423-1.45957-9.73196-3.81241l-2.41332 5.15581c-0.40087 0.85644-1.41307 1.22318-2.26948 0.82231z" fill="#00c853"/>
   <rect transform="matrix(.41444889 .91007259 .91966936 -.3926936 0 0)" x="409.50201" y="242.96431" width="3.9317675" height="14.258574" ry="1.9595118" fill="#a0ffc7"/>
  </g>
  <path d="m681.4766 711.7134a44.046681 44.039973 0 0 0 -15.0529 2.70983l3.4389 0.2979-2.1026 3.0834a40.394028 40.387877 0 0 1 13.7166 -2.43884 40.394028 40.387877 0 0 1 40.394 40.38787 40.394028 40.387877 0 0 1 -40.394 40.38787 40.394028 40.387877 0 0 1 -40.3941 -40.38787 40.394028 40.387877 0 0 1 19.0002 -34.23257l-1.5612-3.28975a44.046681 44.039973 0 0 0 -21.0916 37.52232 44.046681 44.039973 0 0 0 44.0467 44.03992 44.046681 44.039973 0 0 0 44.0464 -44.03992 44.046681 44.039973 0 0 0 -44.0464 -44.04016z" fill="#ff5252" stroke-width=".44518062"/>
  <path d="m653.9274 717.0039 12.8724-0.88282-8.1518 10.13913z" fill="#ff5252" stroke-width=".44518062"/>
  <ellipse cx="679.18719" cy="752.32404" rx="55.424374" ry="50.397133" opacity="0" stroke-width="2.35574746"/>
  <g fill="#1565c0" stroke="#fff" stroke-width=".11778737">
   <g transform="scale(1.0000762 .99992383)" style="font-feature-settings:normal;font-variant-caps:normal;font-variant-ligatures:normal;font-variant-numeric:normal" aria-label="Monday">
    <path d="m676.93591 706.82237 0.25766 4.04587-1.56437 0.1319-0.0828-2.07048-0.31594 1.42326-1.40486 0.19631-0.57053-1.46927 0.20552 1.74227-1.43247 0.29447 0.19631-4.29433 1.40793-0.18711 0.77911 2.4539 0.94476-2.38029z" style="font-feature-settings:normal;font-variant-caps:normal;font-variant-ligatures:normal;font-variant-numeric:normal"/>
    <path d="m679.85299 711.1167q-1.03678 0-1.76988-0.62881-0.73004-0.62882-0.73004-1.51836t0.73004-1.51835q0.7331-0.62881 1.76988-0.62881 1.0337 0 1.76374 0.62881 0.7331 0.62881 0.7331 1.51835t-0.7331 1.51836q-0.73004 0.62881-1.76374 0.62881zm-0.17178-1.34045q0.4417 0 0.75458-0.26993 0.31594-0.26992 0.31594-0.65028 0-0.38035-0.31594-0.65028-0.31288-0.26993-0.75458-0.26993-0.44477 0-0.76071 0.26993-0.31287 0.26993-0.31287 0.65028 0 0.38036 0.31287 0.65028 0.31594 0.26993 0.76071 0.26993z" style="font-feature-settings:normal;font-variant-caps:normal;font-variant-ligatures:normal;font-variant-numeric:normal"/>
    <path d="m684.04303 708.96953 0.30367 1.75761-1.53063 0.38956-0.3098-4.02747 1.53676-0.26686 1.51528 2.00606 0.0184-2.00606 1.90177-0.19631-0.67482 4.49064-1.21775 0.17791z" style="font-feature-settings:normal;font-variant-caps:normal;font-variant-ligatures:normal;font-variant-numeric:normal"/>
    <path d="m687.83124 711.1167-0.19631-4.29433q4.1839 0 4.1839 2.14716 0 2.14717-3.98759 2.14717zm1.09199-3.15633 0.20551 1.48461q1.32818 6e-3 1.32818-0.73924 0-0.74537-1.53369-0.74537z" style="font-feature-settings:normal;font-variant-caps:normal;font-variant-ligatures:normal;font-variant-numeric:normal"/>
    <path d="m693.14394 710.50322-0.21471 0.61348-1.20855-0.73004 1.51528-3.56429 1.15334-0.0797 1.81282 3.69005-1.43247 0.68403-0.31594-0.86193zm1.04905-1.34351-0.34355-1.11039-0.40489 1.22695z" style="font-feature-settings:normal;font-variant-caps:normal;font-variant-ligatures:normal;font-variant-numeric:normal"/>
    <path d="m696.66223 709.27627-1.44474-1.457 1.22082-0.9969 0.83739 1.22695 0.6963-1.52756 1.62878 0.55827-1.7116 2.19624 0.1319 1.72387-1.49382-0.20245z" style="font-feature-settings:normal;font-variant-caps:normal;font-variant-ligatures:normal;font-variant-numeric:normal"/>
   </g>
   <g transform="scale(1.0000762 .99992383)" style="font-feature-settings:normal;font-variant-caps:normal;font-variant-ligatures:normal;font-variant-numeric:normal" aria-label="Tuesday">
    <path d="m701.00326 732.34056 0.1503 2.61341-1.66252 0.42943 0.28527-3.12259-1.25456-0.10736 0.0982-1.13493 3.59804-0.21472 0.13189 1.67786z" style="font-feature-settings:normal;font-variant-caps:normal;font-variant-ligatures:normal;font-variant-numeric:normal"/>
    <path d="m702.90197 731.24857 1.63491 0.31901q-0.81592 2.50605 0.23313 2.53365 1.24535-9e-3 0.72083-2.595l1.49688-0.47238q0.68709 4.25753-2.21771 4.29434-2.93549-0.0276-1.86804-4.07962z" style="font-feature-settings:normal;font-variant-caps:normal;font-variant-ligatures:normal;font-variant-numeric:normal"/>
    <path d="m710.42319 730.48173 0.0797 1.62571-1.90791 0.20551 0.0245 0.37115 1.25149-0.11656 0.11042 1.1104-1.3067 0.0951 0.0215 0.30061 1.8527-0.1411 0.27606 1.39566-3.65325 0.12576 0.37116-4.42623z" style="font-feature-settings:normal;font-variant-caps:normal;font-variant-ligatures:normal;font-variant-numeric:normal"/>
    <path d="m711.7759 733.63193q-1.10732-0.15644-0.97849-1.37726t2.84652-1.44473l0.25766 1.38645q-1.34657-0.0307-1.44473 0.31901-0.0982 0.34968 1.03064 0.40183 1.12879 0.0521 1.10426 1.37418-0.0245 1.32204-2.9723 1.411l-0.54292-1.45087q1.50915 0.16257 1.65945-0.15031 0.1503-0.31594-0.96009-0.4693z" style="font-feature-settings:normal;font-variant-caps:normal;font-variant-ligatures:normal;font-variant-numeric:normal"/>
    <path d="m714.96291 735.32819-0.19631-4.29434q4.1839 0 4.1839 2.14717t-3.98759 2.14717zm1.09198-3.15634 0.20552 1.48461q1.32817 6e-3 1.32817-0.73923 0-0.74538-1.53369-0.74538z" style="font-feature-settings:normal;font-variant-caps:normal;font-variant-ligatures:normal;font-variant-numeric:normal"/>
    <path d="m720.27561 734.71471-0.21472 0.61348-1.20854-0.73004 1.51528-3.5643 1.15334-0.0797 1.81282 3.69006-1.43247 0.68403-0.31594-0.86194zm1.04904-1.34351-0.34354-1.11039-0.4049 1.22695z" style="font-feature-settings:normal;font-variant-caps:normal;font-variant-ligatures:normal;font-variant-numeric:normal"/>
    <path d="m723.79389 733.48776-1.44473-1.45701 1.22081-0.9969 0.8374 1.22696 0.69629-1.52756 1.62878 0.55826-1.7116 2.19625 0.1319 1.72387-1.49381-0.20245z" style="font-feature-settings:normal;font-variant-caps:normal;font-variant-ligatures:normal;font-variant-numeric:normal"/>
   </g>
   <g transform="scale(1.0000762 .99992383)" style="font-feature-settings:normal;font-variant-caps:normal;font-variant-ligatures:normal;font-variant-numeric:normal" aria-label="Wednesday">
    <path d="m696.24408 759.94219-0.61348 2.14717-1.21161 0.1595-1.82509-3.61031 1.50301-0.84353 0.92022 2.45391 0.72083-1.93859 1.22695 0.16871 0.50612 1.76988 0.73617-2.54286 1.66866 0.91408-1.79135 3.46921-1.37112-0.29447z" style="font-feature-settings:normal;font-variant-caps:normal;font-variant-ligatures:normal;font-variant-numeric:normal"/>
    <path d="m703.10887 757.2429 0.0798 1.62571-1.90791 0.20551 0.0245 0.37115 1.2515-0.11656 0.11042 1.1104-1.3067 0.0951 0.0215 0.30061 1.8527-0.1411 0.27606 1.39566-3.65325 0.12576 0.37115-4.42623z" style="font-feature-settings:normal;font-variant-caps:normal;font-variant-ligatures:normal;font-variant-numeric:normal"/>
    <path d="m703.85731 762.08936-0.19631-4.29434q4.18391 0 4.18391 2.14717t-3.9876 2.14717zm1.09199-3.15634 0.20552 1.48461q1.32817 6e-3 1.32817-0.73923 0-0.74538-1.53369-0.74538z" style="font-feature-settings:normal;font-variant-caps:normal;font-variant-ligatures:normal;font-variant-numeric:normal"/>
    <path d="m709.54117 759.94219 0.30367 1.75761-1.53062 0.38956-0.30981-4.02747 1.53676-0.26687 1.51528 2.00607 0.0184-2.00607 1.90177-0.19631-0.67482 4.49065-1.21775 0.1779z" style="font-feature-settings:normal;font-variant-caps:normal;font-variant-ligatures:normal;font-variant-numeric:normal"/>
    <path d="m716.11456 757.2429 0.0798 1.62571-1.90791 0.20551 0.0245 0.37115 1.2515-0.11656 0.11042 1.1104-1.3067 0.0951 0.0215 0.30061 1.8527-0.1411 0.27606 1.39566-3.65325 0.12576 0.37115-4.42623z" style="font-feature-settings:normal;font-variant-caps:normal;font-variant-ligatures:normal;font-variant-numeric:normal"/>
    <path d="m717.46728 760.39309q-1.10733-0.15643-0.9785-1.37725t2.84653-1.44473l0.25766 1.38645q-1.34658-0.0307-1.44473 0.31901-0.0982 0.34968 1.03064 0.40183 1.12879 0.0521 1.10425 1.37418-0.0245 1.32204-2.97229 1.411l-0.54292-1.45087q1.50915 0.16257 1.65945-0.15031 0.1503-0.31594-0.96009-0.46931z" style="font-feature-settings:normal;font-variant-caps:normal;font-variant-ligatures:normal;font-variant-numeric:normal"/>
    <path d="m720.65429 762.08936-0.19632-4.29434q4.18391 0 4.18391 2.14717t-3.98759 2.14717zm1.09198-3.15634 0.20552 1.48461q1.32817 6e-3 1.32817-0.73923 0-0.74538-1.53369-0.74538z" style="font-feature-settings:normal;font-variant-caps:normal;font-variant-ligatures:normal;font-variant-numeric:normal"/>
    <path d="m725.96699 761.47588-0.21472 0.61348-1.20855-0.73004 1.51529-3.5643 1.15333-0.0797 1.81282 3.69006-1.43246 0.68403-0.31594-0.86194zm1.04904-1.34351-0.34355-1.11039-0.40489 1.22695z" style="font-feature-settings:normal;font-variant-caps:normal;font-variant-ligatures:normal;font-variant-numeric:normal"/>
    <path d="m729.48527 760.24893-1.44473-1.45701 1.22081-0.9969 0.8374 1.22696 0.69629-1.52756 1.62878 0.55826-1.7116 2.19625 0.1319 1.72387-1.49381-0.20245z" style="font-feature-settings:normal;font-variant-caps:normal;font-variant-ligatures:normal;font-variant-numeric:normal"/>
   </g>
   <g transform="scale(1.0000762 .99992383)" style="font-feature-settings:normal;font-variant-caps:normal;font-variant-ligatures:normal;font-variant-numeric:normal" aria-label="Thursday">
    <path d="m685.62973 787.95134 0.1503 2.6134-1.66252 0.42944 0.28527-3.12259-1.25456-0.10736 0.0981-1.13493 3.59804-0.21472 0.1319 1.67786z" style="font-feature-settings:normal;font-variant-caps:normal;font-variant-ligatures:normal;font-variant-numeric:normal"/>
    <path d="m688.73392 789.64453 0.11042 1.03677-1.1748 0.20552-0.53373-3.39866 1.3067-0.55826 0.14724 1.47234 1.17787-0.13496 0.0184-1.34045 2.04594 0.20552-0.78218 3.76981-1.31591-0.38956 0.0153-0.9785z" style="font-feature-settings:normal;font-variant-caps:normal;font-variant-ligatures:normal;font-variant-numeric:normal"/>
    <path d="m692.27674 786.85935 1.63491 0.31901q-0.81592 2.50605 0.23312 2.53365 1.24536-9e-3 0.72084-2.595l1.49688-0.47238q0.68709 4.25753-2.21772 4.29433-2.93548-0.0276-1.86803-4.07961z" style="font-feature-settings:normal;font-variant-caps:normal;font-variant-ligatures:normal;font-variant-numeric:normal"/>
    <path d="m698.1477 787.65687 0.043 0.82819q1.53369 0 1.53369-0.30674 0-0.30673-1.57664-0.52145zm0.20552 3.03364-1.70853 0.23925 0.35581-4.5796q3.95079 0.29447 4.08269 1.58277 0.13496 1.28523-1.35885 1.77908l1.22695 0.66562-1.25763 1.11346-1.4386-1.77908z" style="font-feature-settings:normal;font-variant-caps:normal;font-variant-ligatures:normal;font-variant-numeric:normal"/>
    <path d="m702.47578 789.2427q-1.10733-0.15643-0.9785-1.37725t2.84653-1.44474l0.25766 1.38646q-1.34658-0.0307-1.44474 0.31901-0.0982 0.34968 1.03064 0.40182 1.1288 0.0521 1.10426 1.37419-0.0245 1.32204-2.97229 1.411l-0.54293-1.45088q1.50915 0.16258 1.65946-0.1503 0.1503-0.31594-0.96009-0.46931z" style="font-feature-settings:normal;font-variant-caps:normal;font-variant-ligatures:normal;font-variant-numeric:normal"/>
    <path d="m705.66278 790.93896-0.19631-4.29433q4.18391 0 4.18391 2.14717 0 2.14716-3.9876 2.14716zm1.09199-3.15633 0.20552 1.48461q1.32817 6e-3 1.32817-0.73924 0-0.74537-1.53369-0.74537z" style="font-feature-settings:normal;font-variant-caps:normal;font-variant-ligatures:normal;font-variant-numeric:normal"/>
    <path d="m710.97548 790.32549-0.21471 0.61347-1.20855-0.73003 1.51529-3.5643 1.15333-0.0797 1.81282 3.69006-1.43246 0.68402-0.31594-0.86193zm1.04905-1.34351-0.34355-1.11039-0.40489 1.22695z" style="font-feature-settings:normal;font-variant-caps:normal;font-variant-ligatures:normal;font-variant-numeric:normal"/>
    <path d="m714.49377 789.09854-1.44474-1.45701 1.22082-0.9969 0.8374 1.22696 0.69629-1.52756 1.62878 0.55826-1.7116 2.19625 0.1319 1.72386-1.49382-0.20244z" style="font-feature-settings:normal;font-variant-caps:normal;font-variant-ligatures:normal;font-variant-numeric:normal"/>
   </g>
   <g transform="scale(1.0000762 .99992383)" style="font-feature-settings:normal;font-variant-caps:normal;font-variant-ligatures:normal;font-variant-numeric:normal" aria-label="Friday">
    <path d="m649.68061 786.25813-0.26073 1.77908-1.49381-0.0797 0.0613 0.30674 1.18708 0.13496-0.16257 1.27603-0.81899-0.18404 0.27606 1.33124-1.50301 0.20245-0.33742-4.02747z" style="font-feature-settings:normal;font-variant-caps:normal;font-variant-ligatures:normal;font-variant-numeric:normal"/>
    <path d="m651.13761 787.74275 0.043 0.82819q1.53369 0 1.53369-0.30674t-1.57664-0.52145zm0.20552 3.03363-1.70853 0.23926 0.35581-4.5796q3.95079 0.29447 4.08268 1.58277 0.13497 1.28523-1.35884 1.77908l1.22695 0.66562-1.25763 1.11346-1.4386-1.77908z" style="font-feature-settings:normal;font-variant-caps:normal;font-variant-ligatures:normal;font-variant-numeric:normal"/>
    <path d="m655.78162 786.75505 0.31288 4.13789-1.73614 0.32821 0.0798-4.35874z" style="font-feature-settings:normal;font-variant-caps:normal;font-variant-ligatures:normal;font-variant-numeric:normal"/>
    <path d="m656.44418 791.02484-0.19631-4.29433q4.1839 0 4.1839 2.14717 0 2.14716-3.98759 2.14716zm1.09199-3.15633 0.20551 1.48461q1.32818 6e-3 1.32818-0.73924 0-0.74537-1.53369-0.74537z" style="font-feature-settings:normal;font-variant-caps:normal;font-variant-ligatures:normal;font-variant-numeric:normal"/>
    <path d="m661.75688 790.41137-0.21472 0.61347-1.20854-0.73004 1.51528-3.56429 1.15334-0.0797 1.81282 3.69006-1.43247 0.68402-0.31594-0.86193zm1.04904-1.34352-0.34354-1.11039-0.4049 1.22695z" style="font-feature-settings:normal;font-variant-caps:normal;font-variant-ligatures:normal;font-variant-numeric:normal"/>
    <path d="m665.27516 789.18441-1.44473-1.457 1.22082-0.9969 0.83739 1.22695 0.6963-1.52755 1.62877 0.55826-1.71159 2.19624 0.13189 1.72387-1.49381-0.20245z" style="font-feature-settings:normal;font-variant-caps:normal;font-variant-ligatures:normal;font-variant-numeric:normal"/>
   </g>
   <g transform="scale(1.0000762 .99992383)" style="font-feature-settings:normal;font-variant-caps:normal;font-variant-ligatures:normal;font-variant-numeric:normal" aria-label="Saturday">
    <path d="m632.81145 760.17837q-1.10732-0.15643-0.97849-1.37725t2.84652-1.44474l0.25766 1.38646q-1.34658-0.0307-1.44473 0.31901-0.0982 0.34968 1.03064 0.40182 1.12879 0.0521 1.10425 1.37419-0.0245 1.32204-2.97229 1.41099l-0.54292-1.45087q1.50915 0.16257 1.65945-0.1503 0.1503-0.31594-0.96009-0.46931z" style="font-feature-settings:normal;font-variant-caps:normal;font-variant-ligatures:normal;font-variant-numeric:normal"/>
    <path d="m637.22541 761.26116-0.21472 0.61347-1.20854-0.73003 1.51528-3.5643 1.15334-0.0797 1.81282 3.69006-1.43247 0.68402-0.31594-0.86193zm1.04904-1.34351-0.34354-1.1104-0.4049 1.22696z" style="font-feature-settings:normal;font-variant-caps:normal;font-variant-ligatures:normal;font-variant-numeric:normal"/>
    <path d="m641.97678 758.88701 0.1503 2.6134-1.66252 0.42944 0.28527-3.1226-1.25456-0.10735 0.0982-1.13493 3.59803-0.21472 0.1319 1.67786z" style="font-feature-settings:normal;font-variant-caps:normal;font-variant-ligatures:normal;font-variant-numeric:normal"/>
    <path d="m643.87549 757.79502 1.63491 0.31901q-0.81592 2.50605 0.23312 2.53365 1.24536-9e-3 0.72084-2.595l1.49688-0.47238q0.68709 4.25753-2.21772 4.29433-2.93548-0.0276-1.86803-4.07961z" style="font-feature-settings:normal;font-variant-caps:normal;font-variant-ligatures:normal;font-variant-numeric:normal"/>
    <path d="m649.74645 758.59254 0.043 0.82819q1.53369 0 1.53369-0.30674t-1.57664-0.52145zm0.20552 3.03364-1.70853 0.23925 0.35581-4.5796q3.95079 0.29447 4.08268 1.58277 0.13497 1.28523-1.35884 1.77908l1.22695 0.66562-1.25763 1.11346-1.4386-1.77908z" style="font-feature-settings:normal;font-variant-caps:normal;font-variant-ligatures:normal;font-variant-numeric:normal"/>
    <path d="m653.16351 761.87463-0.19631-4.29433q4.18391 0 4.18391 2.14717 0 2.14716-3.9876 2.14716zm1.09199-3.15633 0.20551 1.48461q1.32818 6e-3 1.32818-0.73924 0-0.74537-1.53369-0.74537z" style="font-feature-settings:normal;font-variant-caps:normal;font-variant-ligatures:normal;font-variant-numeric:normal"/>
    <path d="m658.47622 761.26116-0.21472 0.61347-1.20855-0.73003 1.51529-3.5643 1.15333-0.0797 1.81282 3.69006-1.43246 0.68402-0.31594-0.86193zm1.04904-1.34351-0.34355-1.1104-0.40489 1.22696z" style="font-feature-settings:normal;font-variant-caps:normal;font-variant-ligatures:normal;font-variant-numeric:normal"/>
    <path d="m661.9945 760.03421-1.44474-1.45701 1.22082-0.9969 0.8374 1.22695 0.69629-1.52755 1.62878 0.55826-1.7116 2.19625 0.1319 1.72386-1.49381-0.20244z" style="font-feature-settings:normal;font-variant-caps:normal;font-variant-ligatures:normal;font-variant-numeric:normal"/>
   </g>
   <g transform="scale(1.0000762 .99992383)" style="font-feature-settings:normal;font-variant-caps:normal;font-variant-ligatures:normal;font-variant-numeric:normal" aria-label="Sunday ">
    <path d="m635.54253 733.50619q-1.10733-0.15643-0.9785-1.37725t2.84653-1.44474l0.25766 1.38646q-1.34658-0.0307-1.44473 0.31901-0.0982 0.34968 1.03064 0.40182 1.12879 0.0522 1.10425 1.37419-0.0245 1.32204-2.97229 1.41099l-0.54292-1.45087q1.50915 0.16257 1.65945-0.1503 0.1503-0.31594-0.96009-0.46931z" style="font-feature-settings:normal;font-variant-caps:normal;font-variant-ligatures:normal;font-variant-numeric:normal"/>
    <path d="m638.90131 731.12284 1.63491 0.31901q-0.81592 2.50605 0.23312 2.53365 1.24536-9e-3 0.72084-2.595l1.49688-0.47238q0.68709 4.25753-2.21772 4.29433-2.93548-0.0276-1.86803-4.07961z" style="font-feature-settings:normal;font-variant-caps:normal;font-variant-ligatures:normal;font-variant-numeric:normal"/>
    <path d="m644.90417 733.05529 0.30367 1.75761-1.53062 0.38955-0.30981-4.02747 1.53676-0.26686 1.51529 2.00607 0.0184-2.00607 1.90178-0.19631-0.67483 4.49064-1.21775 0.17791z" style="font-feature-settings:normal;font-variant-caps:normal;font-variant-ligatures:normal;font-variant-numeric:normal"/>
    <path d="m648.69239 735.20245-0.19632-4.29433q4.18391 0 4.18391 2.14717 0 2.14716-3.98759 2.14716zm1.09198-3.15633 0.20552 1.48461q1.32817 6e-3 1.32817-0.73924 0-0.74537-1.53369-0.74537z" style="font-feature-settings:normal;font-variant-caps:normal;font-variant-ligatures:normal;font-variant-numeric:normal"/>
    <path d="m654.00509 734.58898-0.21472 0.61347-1.20855-0.73003 1.51529-3.5643 1.15333-0.0798 1.81282 3.69006-1.43246 0.68402-0.31594-0.86193zm1.04904-1.34351-0.34355-1.1104-0.40489 1.22696z" style="font-feature-settings:normal;font-variant-caps:normal;font-variant-ligatures:normal;font-variant-numeric:normal"/>
    <path d="m657.52337 733.36203-1.44473-1.45701 1.22081-0.9969 0.8374 1.22695 0.69629-1.52755 1.62878 0.55826-1.7116 2.19625 0.1319 1.72386-1.49381-0.20244z" style="font-feature-settings:normal;font-variant-caps:normal;font-variant-ligatures:normal;font-variant-numeric:normal"/>
   </g>
  </g>
  <g transform="matrix(.10308676 .4330496 .43311556 -.10307106 565.251 568.5758)">
   <path transform="scale(.26458333)" d="m1729.8105 73.541016c-2.733 0-4.9335 2.200566-4.9335 4.933593v14.388672c-10.1526 0.470168-17.3718 1.077655-18.0118 1.783203-2.3979 2.643719 45.5084 51.537326 50.4278 51.466796 4.9194-0.0705 50.4804-50.301768 47.959-52.874999-0.6711-0.684879-7.8758-1.085882-18-1.265625v-13.498047c0-2.733027-2.1987-4.933593-4.9317-4.933593z" fill="#2196f3"/>
   <rect transform="rotate(-43.436588)" x="312.67651" y="335.33032" width="2.7792709" height="8.6303663" ry="1.3896354" fill="#c8e5fc"/>
  </g>
  <g fill="#fff">
   <ellipse cx="682.40057" cy="713.56049" rx="1.5764668" ry="1.5762267"/>
   <ellipse cx="713.40424" cy="728.11658" rx="1.5764668" ry="1.5762267"/>
   <ellipse cx="722.69843" cy="764.67682" rx="1.5764668" ry="1.5762267"/>
   <ellipse cx="700.2182" cy="793.61432" rx="1.5764668" ry="1.5762267"/>
   <ellipse transform="scale(-1,1)" cx="-649.82159" cy="728.11658" rx="1.5764668" ry="1.5762267"/>
   <ellipse transform="scale(-1,1)" cx="-640.22736" cy="764.67682" rx="1.5764668" ry="1.5762267"/>
   <ellipse transform="scale(-1,1)" cx="-663.00775" cy="793.61432" rx="1.5764668" ry="1.5762267"/>
  </g>
  <g transform="matrix(-.39560533 -.20420501 .20423611 -.39554509 700.7532 846.73246)" fill="none" stroke="#ffc107" stroke-linecap="round" stroke-width="2.64583325">
   <g transform="rotate(-26.301235,280.87683,257.93987)">
    <path d="m311.01879 55.61079-10.7041-6.274815"/>
    <path d="m312.14537 43.254339-1.12658 12.356451"/>
   </g>
   <path d="m148.16068 32.100827s36.96218 2.270005 70.08762 31.100082"/>
  </g>
  <g transform="matrix(.63576145 .77184813 -.77198236 .63568948 0 0)" fill="#616161" stroke-width=".11778737" style="font-feature-settings:normal;font-variant-caps:normal;font-variant-ligatures:normal;font-variant-numeric:normal" aria-label="tomorrow">
   <path d="m998.84786 16.391074q-0.14724-0.03681-0.19018-0.122695-0.0491-0.08589-0.0307-0.171773 0.0184-0.09202 0.0797-0.159504 0.0613-0.06748 0.12883-0.07362h1.1472l-0.0245-1.914045q0.0245-0.07362 0.10429-0.122695 0.08-0.04908 0.1718-0.05521 0.092-0.01227 0.1841 0.02454 0.092 0.03067 0.1472 0.122695l0.055 1.914045 1.0859-0.02454q0.1104 0.06135 0.1472 0.153369 0.043 0.08589 0.037 0.171774-0.01 0.07975-0.049 0.147234-0.037 0.06135-0.086 0.07362l-1.1349 0.02454q-0.01 0.380355 0.01 0.687093 0.018 0.300603 0.037 0.588937 0.025 0.282199 0.037 0.588937 0.018 0.300603 0.018 0.674823-0.1779 0.122695-0.362 0.116561-0.184-0.0061-0.2515-0.153369l-0.067-2.490713h-1.19018z" style="font-feature-settings:normal;font-variant-caps:normal;font-variant-ligatures:normal;font-variant-numeric:normal"/>
   <path d="m1001.995 17.538274q0-0.50305 0.1779-0.907944 0.1779-0.411029 0.4662-0.705497 0.2884-0.294469 0.6442-0.466242t0.7178-0.208582q0.4048-0.05521 0.7607 0.07362 0.3558 0.122695 0.6134 0.380355 0.2577 0.251526 0.3988 0.613476 0.1472 0.361951 0.1288 0.785249-0.055 0.503051-0.2638 0.865002-0.2085 0.355816-0.5337 0.588936-0.319 0.226986-0.7423 0.337412-0.4172 0.104291-0.8957 0.104291-0.7239 0-1.0981-0.337412-0.3742-0.337411-0.3742-1.122661zm0.5276 0.184043q0.024 0.368086 0.2392 0.558263 0.2209 0.184043 0.5338 0.220852 0.319 0.03681 0.6809-0.05521 0.3681-0.09816 0.681-0.294469 0.3128-0.202447 0.5276-0.484646 0.2147-0.288333 0.227-0.63188 0.01-0.159504-0.043-0.368085-0.049-0.214717-0.184-0.411029-0.1289-0.196313-0.362-0.349682-0.227-0.153369-0.5828-0.196312-0.1288 0.0061-0.3129 0.04908-0.184 0.03681-0.3865 0.12883-0.1963 0.09202-0.3926 0.245391-0.1902 0.153369-0.3374 0.37422t-0.2331 0.521454q-0.08 0.300604-0.055 0.693228z" style="font-feature-settings:normal;font-variant-caps:normal;font-variant-ligatures:normal;font-variant-numeric:normal"/>
   <path d="m1006.2034 18.869517q-0.01-0.165638 0-0.417164 0.012-0.251525 0.018-0.545993 0.012-0.300603 0.018-0.63188 0.012-0.331277 0.012-0.65642 0.01-0.325142-0.01-0.625745-0.012-0.306738-0.043-0.552128 0-0.06748 0.043-0.110426 0.049-0.04294 0.1165-0.06748 0.074-0.02454 0.1534-0.03067 0.08-0.01227 0.1472-0.01227 0.049 0 0.061 0.116561 0.012 0.11656 0.012 0.269929 0 0.147234-0.01 0.300603 0 0.147235 0.018 0.214717 0.092-0.190178 0.2945-0.361951 0.2024-0.171773 0.454-0.288333 0.2515-0.116561 0.5276-0.159504 0.276-0.04908 0.5214 0.01227 0.2454 0.05521 0.4233 0.233121 0.1841 0.177908 0.2454 0.509185 0.1902-0.184043 0.4417-0.349681 0.2577-0.165639 0.5337-0.276064 0.2822-0.116561 0.5644-0.159504 0.2822-0.04908 0.5215 0.0061 0.2454 0.05521 0.4171 0.226986 0.178 0.165638 0.2516 0.484646l0.1165 2.938549q0 0.01227-0.1043 0.03681-0.098 0.0184-0.2208 0.02454-0.1227 0.0061-0.227-0.0061-0.1043-0.0184-0.1043-0.07975-0.012-0.220851-0.01-0.515319 0.012-0.300604 0.018-0.613476 0.012-0.319008 0.018-0.63188 0.01-0.319008-0.01-0.582803-0.01-0.263794-0.043-0.447837-0.037-0.184043-0.1043-0.24539-0.2086-0.06748-0.4417-0.06748t-0.4601 0.09816-0.4356 0.306738q-0.2024 0.208582-0.3558 0.564398-0.1533 0.349682-0.2392 0.865001-0.086 0.509185-0.067 1.214683-0.031 0.10429-0.1473 0.134964-0.1104 0.03067-0.2331 0.01841-0.1227-0.01227-0.2147-0.05521-0.086-0.04908-0.067-0.09816 0.061-0.319008 0.086-0.662554 0.031-0.343547 0.031-0.674824 0-0.337412-0.025-0.638015t-0.067-0.533724q-0.043-0.233121-0.1105-0.37422-0.061-0.1411-0.1411-0.159504-0.3558-0.03067-0.6073 0.09816-0.2515 0.122695-0.4294 0.355816-0.1718 0.233121-0.2822 0.545994-0.1043 0.312873-0.1595 0.662554-0.049 0.343546-0.067 0.705497-0.012 0.361951 0 0.687093-0.098 0.03681-0.2209 0.08589-0.1165 0.04294-0.2331 0.04294-0.067 0-0.1043-0.02454-0.037-0.02454-0.086-0.104291z" style="font-feature-settings:normal;font-variant-caps:normal;font-variant-ligatures:normal;font-variant-numeric:normal"/>
   <path d="m1012.24 17.538274q0-0.50305 0.1779-0.907944 0.178-0.411029 0.4663-0.705497 0.2883-0.294469 0.6441-0.466242 0.3559-0.171773 0.7178-0.208582 0.4049-0.05521 0.7607 0.07362 0.3558 0.122695 0.6135 0.380355 0.2576 0.251526 0.3987 0.613476 0.1473 0.361951 0.1289 0.785249-0.055 0.503051-0.2638 0.865002-0.2086 0.355816-0.5337 0.588936-0.319 0.226986-0.7423 0.337412-0.4172 0.104291-0.8957 0.104291-0.7239 0-1.0981-0.337412-0.3743-0.337411-0.3743-1.122661zm0.5276 0.184043q0.025 0.368086 0.2393 0.558263 0.2208 0.184043 0.5337 0.220852 0.319 0.03681 0.681-0.05521 0.368-0.09816 0.6809-0.294469 0.3129-0.202447 0.5276-0.484646 0.2147-0.288333 0.227-0.63188 0.01-0.159504-0.043-0.368085-0.049-0.214717-0.1841-0.411029-0.1288-0.196313-0.3619-0.349682-0.227-0.153369-0.5828-0.196312-0.1289 0.0061-0.3129 0.04908-0.1841 0.03681-0.3865 0.12883-0.1963 0.09202-0.3926 0.245391-0.1902 0.153369-0.3374 0.37422-0.1473 0.220851-0.2332 0.521454-0.08 0.300604-0.055 0.693228z" style="font-feature-settings:normal;font-variant-caps:normal;font-variant-ligatures:normal;font-variant-numeric:normal"/>
   <path d="m1016.4301 15.342031q0.012-0.116561 0.098-0.1411 0.086-0.03067 0.1841-0.0184 0.1595 0.0184 0.2392 0.165638 0.08 0.1411 0.1105 0.319008 0.031 0.177908 0.031 0.349681 0 0.165639 0.01 0.239256 0.1717-0.147235 0.3803-0.337412 0.2147-0.190178 0.5153-0.343547 0.3068-0.159503 0.7301-0.239255 0.4294-0.08589 1.0306-0.01227 0.1473 0.03681 0.2147 0.1411 0.074 0.104291 0.074 0.220851 0.01 0.110426-0.061 0.208582-0.061 0.09202-0.1779 0.104291-0.1472-0.110426-0.3926-0.12883-0.2454-0.0184-0.5399 0.04294-0.2883 0.06135-0.5889 0.196312-0.3006 0.134965-0.5583 0.337412-0.2515 0.202447-0.4356 0.466242-0.1779 0.263795-0.2208 0.576667v1.343513q-0.012 0.03067-0.098 0.09202-0.086 0.05521-0.1963 0.07975-0.1043 0.03067-0.2147 0-0.1043-0.03067-0.1595-0.171773 0-0.04294 0-0.26993 0-0.233121 0-0.558263 0.01-0.331277 0.012-0.717767 0.01-0.392624 0.01-0.766845 0.01-0.37422 0.01-0.687093 0.01-0.312872 0.01-0.49078z" style="font-feature-settings:normal;font-variant-caps:normal;font-variant-ligatures:normal;font-variant-numeric:normal"/>
   <path d="m1020.3441 15.342031q0.012-0.116561 0.098-0.1411 0.086-0.03067 0.1841-0.0184 0.1595 0.0184 0.2392 0.165638 0.08 0.1411 0.1104 0.319008 0.031 0.177908 0.031 0.349681 0 0.165639 0.01 0.239256 0.1718-0.147235 0.3804-0.337412 0.2147-0.190178 0.5153-0.343547 0.3068-0.159503 0.7301-0.239255 0.4294-0.08589 1.0306-0.01227 0.1472 0.03681 0.2147 0.1411 0.074 0.104291 0.074 0.220851 0.01 0.110426-0.061 0.208582-0.061 0.09202-0.1779 0.104291-0.1473-0.110426-0.3927-0.12883-0.2453-0.0184-0.5398 0.04294-0.2883 0.06135-0.5889 0.196312-0.3007 0.134965-0.5583 0.337412-0.2515 0.202447-0.4356 0.466242-0.1779 0.263795-0.2208 0.576667v1.343513q-0.012 0.03067-0.098 0.09202-0.086 0.05521-0.1963 0.07975-0.1043 0.03067-0.2147 0-0.1043-0.03067-0.1595-0.171773 0-0.04294 0-0.26993 0-0.233121 0-0.558263 0.01-0.331277 0.012-0.717767 0.01-0.392624 0.01-0.766845 0.01-0.37422 0.01-0.687093 0.01-0.312872 0.01-0.49078z" style="font-feature-settings:normal;font-variant-caps:normal;font-variant-ligatures:normal;font-variant-numeric:normal"/>
   <path d="m1023.712 17.538274q0-0.50305 0.1779-0.907944 0.178-0.411029 0.4663-0.705497 0.2883-0.294469 0.6441-0.466242 0.3559-0.171773 0.7178-0.208582 0.4049-0.05521 0.7607 0.07362 0.3558 0.122695 0.6135 0.380355 0.2576 0.251526 0.3987 0.613476 0.1473 0.361951 0.1289 0.785249-0.055 0.503051-0.2638 0.865002-0.2086 0.355816-0.5337 0.588936-0.319 0.226986-0.7423 0.337412-0.4172 0.104291-0.8957 0.104291-0.7239 0-1.0981-0.337412-0.3743-0.337411-0.3743-1.122661zm0.5276 0.184043q0.025 0.368086 0.2393 0.558263 0.2208 0.184043 0.5337 0.220852 0.319 0.03681 0.681-0.05521 0.368-0.09816 0.6809-0.294469 0.3129-0.202447 0.5276-0.484646 0.2147-0.288333 0.227-0.63188 0.01-0.159504-0.043-0.368085-0.049-0.214717-0.1841-0.411029-0.1288-0.196313-0.3619-0.349682-0.227-0.153369-0.5828-0.196312-0.1289 0.0061-0.3129 0.04908-0.1841 0.03681-0.3865 0.12883-0.1963 0.09202-0.3926 0.245391-0.1902 0.153369-0.3374 0.37422-0.1473 0.220851-0.2332 0.521454-0.08 0.300604-0.055 0.693228z" style="font-feature-settings:normal;font-variant-caps:normal;font-variant-ligatures:normal;font-variant-numeric:normal"/>
   <path d="m1030.3867 16.783699q-0.1657 0.558263-0.2884 1.03064-0.1165 0.466241-0.2392 0.766844-0.1166 0.300604-0.27 0.404895-0.1472 0.09816-0.3803-0.07975-0.1227-0.134965-0.2761-0.404894-0.1534-0.276065-0.3129-0.619611-0.1533-0.343547-0.3006-0.717767-0.1472-0.37422-0.2638-0.705497-0.1104-0.331277-0.184-0.582802-0.067-0.25766-0.067-0.361951 0-0.1411 0.061-0.208582 0.068-0.06748 0.1533-0.06748 0.092-0.0061 0.1779 0.04908 0.086 0.04908 0.1227 0.147234 0.055 0.07975 0.1473 0.349681 0.092 0.26993 0.2208 0.650285 0.135 0.380355 0.3068 0.828192 0.1717 0.447838 0.3865 0.88954 0.067-0.141099 0.1349-0.368085 0.074-0.226986 0.1473-0.490781 0.074-0.263795 0.1472-0.527589 0.074-0.26993 0.1534-0.484646 0.086-0.220852 0.1779-0.355816 0.092-0.1411 0.1901-0.147235 0.067-0.04294 0.1841 0.09816 0.1227 0.134964 0.2699 0.37422t0.3068 0.539859q0.1656 0.300603 0.319 0.582802 0.1533 0.282199 0.276 0.509185 0.1289 0.226986 0.2025 0.319007l0.9693-2.834258q0.049-0.06748 0.1288-0.09202 0.08-0.02454 0.1534-0.0061 0.08 0.0184 0.1349 0.08589 0.061 0.06748 0.061 0.184043-0.08 0.269929-0.1779 0.64415-0.098 0.368085-0.2086 0.766844-0.1104 0.392625-0.227 0.77298t-0.2454 0.674824q-0.1227 0.294468-0.2515 0.466241-0.1288 0.165639-0.2577 0.134965-0.074 0.03681-0.1779-0.05521-0.1043-0.09202-0.2331-0.269929-0.1227-0.177908-0.2699-0.417164-0.1411-0.24539-0.2945-0.50305-0.1472-0.25766-0.3067-0.509185-0.1534-0.25766-0.3006-0.460107z" style="font-feature-settings:normal;font-variant-caps:normal;font-variant-ligatures:normal;font-variant-numeric:normal"/>
  </g>
 </g>
</svg>
