<?xml version="1.0" encoding="UTF-8"?>
<!-- Created with Inkscape (http://www.inkscape.org/) -->
<svg width="512" height="512" version="1.1" viewBox="0 0 135.46667 135.46667" xmlns="http://www.w3.org/2000/svg" xmlns:cc="http://creativecommons.org/ns#" xmlns:dc="http://purl.org/dc/elements/1.1/" xmlns:rdf="http://www.w3.org/1999/02/22-rdf-syntax-ns#">
 <metadata>
  <rdf:RDF>
   <cc:Work rdf:about="">
    <dc:format>image/svg+xml</dc:format>
    <dc:type rdf:resource="http://purl.org/dc/dcmitype/StillImage"/>
    <dc:title/>
   </cc:Work>
  </rdf:RDF>
 </metadata>
 <g transform="translate(-8.7890623e-7,-686.63293)">
  <rect x="8.7890623e-7" y="686.63293" width="135.46667" height="135.46667" ry="2.061909" opacity="0" stroke-width=".82785952"/>
  <g transform="matrix(.90166591 .43254353 -.43260942 .90152859 0 0)" fill="#616161" stroke-width=".11778737" style="font-feature-settings:normal;font-variant-caps:normal;font-variant-ligatures:normal;font-variant-numeric:normal" aria-label="tomorrow">
   <path d="m371.26052 587.12488q-0.14724-0.0368-0.19018-0.1227-0.0491-0.0859-0.0307-0.17177 0.0184-0.092 0.0797-0.15951 0.0614-0.0675 0.12883-0.0736h1.1472l-0.0245-1.91405q0.0245-0.0736 0.10429-0.12269 0.0798-0.0491 0.17177-0.0552 0.092-0.0123 0.18405 0.0245 0.092 0.0307 0.14723 0.1227l0.0552 1.91404 1.08585-0.0245q0.11043 0.0614 0.14724 0.15337 0.0429 0.0859 0.0368 0.17178-6e-3 0.0797-0.0491 0.14723-0.0368 0.0613-0.0859 0.0736l-1.13493 0.0245q-6e-3 0.38035 6e-3 0.68709 0.0184 0.3006 0.0368 0.58894 0.0245 0.28219 0.0368 0.58893 0.0184 0.30061 0.0184 0.67483-0.17791 0.12269-0.36195 0.11656-0.18405-6e-3 -0.25153-0.15337l-0.0675-2.49071h-1.19014z" style="font-feature-settings:normal;font-variant-caps:normal;font-variant-ligatures:normal;font-variant-numeric:normal"/>
   <path d="m374.40765 588.27208q0-0.50305 0.17791-0.90795 0.1779-0.41103 0.46624-0.7055 0.28833-0.29446 0.64415-0.46624 0.35581-0.17177 0.71776-0.20858 0.4049-0.0552 0.76071 0.0736 0.35582 0.12269 0.61348 0.38035 0.25766 0.25153 0.39876 0.61348 0.14723 0.36195 0.12883 0.78525-0.0552 0.50305-0.26379 0.865-0.20859 0.35581-0.53373 0.58894-0.31901 0.22698-0.7423 0.33741-0.41717 0.10429-0.89568 0.10429-0.7239 0-1.09812-0.33741-0.37422-0.33742-0.37422-1.12266zm0.52759 0.18404q0.0245 0.36808 0.23925 0.55826 0.22085 0.18404 0.53373 0.22085 0.319 0.0368 0.68096-0.0552 0.36808-0.0982 0.68095-0.29447 0.31288-0.20245 0.52759-0.48464 0.21472-0.28834 0.22699-0.63188 6e-3 -0.15951-0.0429-0.36809-0.0491-0.21472-0.18405-0.41103-0.12883-0.19631-0.36195-0.34968-0.22698-0.15337-0.5828-0.19631-0.12883 6e-3 -0.31287 0.0491-0.18405 0.0368-0.38649 0.12883-0.19631 0.092-0.39263 0.24539-0.19017 0.15336-0.33741 0.37422-0.14723 0.22085-0.23312 0.52145-0.0797 0.3006-0.0552 0.69323z" style="font-feature-settings:normal;font-variant-caps:normal;font-variant-ligatures:normal;font-variant-numeric:normal"/>
   <path d="m378.61609 589.60332q-6e-3 -0.16564 0-0.41717 0.0123-0.25152 0.0184-0.54599 0.0123-0.3006 0.0184-0.63188 0.0123-0.33128 0.0123-0.65642 6e-3 -0.32514-6e-3 -0.62574-0.0123-0.30674-0.043-0.55213 0-0.0675 0.043-0.11043 0.0491-0.0429 0.11656-0.0675 0.0736-0.0245 0.15337-0.0307 0.0797-0.0123 0.14723-0.0123 0.0491 0 0.0614 0.11656t0.0123 0.26993q0 0.14723-6e-3 0.3006 0 0.14723 0.0184 0.21472 0.092-0.19018 0.29446-0.36195 0.20245-0.17178 0.45398-0.28834 0.25152-0.11656 0.52759-0.1595 0.27606-0.0491 0.52145 0.0123 0.24539 0.0552 0.4233 0.23312 0.18404 0.17791 0.24539 0.50918 0.19018-0.18404 0.4417-0.34968 0.25766-0.16564 0.53373-0.27606 0.2822-0.11656 0.56439-0.15951 0.2822-0.0491 0.52146 6e-3 0.24539 0.0552 0.41716 0.22698 0.17791 0.16564 0.25153 0.48465l0.11656 2.93855q0 0.0123-0.10429 0.0368-0.0982 0.0184-0.22085 0.0245-0.1227 6e-3 -0.22699-6e-3 -0.10429-0.0184-0.10429-0.0797-0.0123-0.22085-6e-3 -0.51532 0.0123-0.3006 0.0184-0.61347 0.0123-0.31901 0.0184-0.63188 6e-3 -0.31901-6e-3 -0.58281-6e-3 -0.26379-0.043-0.44783-0.0368-0.18405-0.10429-0.24539-0.20858-0.0675-0.4417-0.0675t-0.46011 0.0982q-0.22698 0.0982-0.43556 0.30674-0.20245 0.20858-0.35582 0.5644-0.15337 0.34968-0.23926 0.865-0.0859 0.50918-0.0675 1.21468-0.0307 0.10429-0.14723 0.13496-0.11043 0.0307-0.23312 0.0184-0.1227-0.0123-0.21472-0.0552-0.0859-0.0491-0.0675-0.0982 0.0614-0.31901 0.0859-0.66256 0.0307-0.34354 0.0307-0.67482 0-0.33741-0.0245-0.63801-0.0245-0.30061-0.0675-0.53373t-0.11043-0.37422q-0.0614-0.1411-0.1411-0.1595-0.35581-0.0307-0.60734 0.0981-0.25152 0.1227-0.42943 0.35582-0.17178 0.23312-0.2822 0.54599-0.10429 0.31288-0.15951 0.66256-0.0491 0.34354-0.0675 0.70549-0.0123 0.36196 0 0.6871-0.0982 0.0368-0.22085 0.0859-0.11656 0.043-0.23312 0.043-0.0675 0-0.10429-0.0245-0.0368-0.0245-0.0859-0.10429z" style="font-feature-settings:normal;font-variant-caps:normal;font-variant-ligatures:normal;font-variant-numeric:normal"/>
   <path d="m384.6527 588.27208q0-0.50305 0.1779-0.90795 0.17791-0.41103 0.46625-0.7055 0.28833-0.29446 0.64415-0.46624 0.35581-0.17177 0.71776-0.20858 0.4049-0.0552 0.76071 0.0736 0.35582 0.12269 0.61348 0.38035 0.25766 0.25153 0.39876 0.61348 0.14723 0.36195 0.12883 0.78525-0.0552 0.50305-0.2638 0.865-0.20858 0.35581-0.53372 0.58894-0.31901 0.22698-0.74231 0.33741-0.41716 0.10429-0.89567 0.10429-0.7239 0-1.09812-0.33741-0.37422-0.33742-0.37422-1.12266zm0.52758 0.18404q0.0245 0.36808 0.23926 0.55826 0.22085 0.18404 0.53372 0.22085 0.31901 0.0368 0.68096-0.0552 0.36809-0.0982 0.68096-0.29447 0.31287-0.20245 0.52759-0.48464 0.21472-0.28834 0.22699-0.63188 6e-3 -0.15951-0.0429-0.36809-0.0491-0.21472-0.18404-0.41103-0.12883-0.19631-0.36195-0.34968-0.22699-0.15337-0.5828-0.19631-0.12883 6e-3 -0.31288 0.0491-0.18404 0.0368-0.38649 0.12883-0.19631 0.092-0.39262 0.24539-0.19018 0.15336-0.33741 0.37422-0.14724 0.22085-0.23312 0.52145-0.0797 0.3006-0.0552 0.69323z" style="font-feature-settings:normal;font-variant-caps:normal;font-variant-ligatures:normal;font-variant-numeric:normal"/>
   <path d="m388.84274 586.07583q0.0123-0.11656 0.0982-0.1411 0.0859-0.0307 0.18405-0.0184 0.1595 0.0184 0.23925 0.16564 0.0797 0.1411 0.11043 0.319 0.0307 0.17791 0.0307 0.34968 0 0.16564 6e-3 0.23926 0.17178-0.14723 0.38036-0.33741 0.21472-0.19018 0.51532-0.34355 0.30674-0.1595 0.73004-0.23925 0.42943-0.0859 1.03064-0.0123 0.14723 0.0368 0.21471 0.1411 0.0736 0.10429 0.0736 0.22085 6e-3 0.11042-0.0614 0.20858-0.0614 0.092-0.17791 0.10429-0.14723-0.11042-0.39262-0.12883-0.24539-0.0184-0.53986 0.0429-0.28833 0.0614-0.58894 0.19632-0.3006 0.13496-0.55826 0.33741-0.25152 0.20245-0.43557 0.46624-0.17791 0.26379-0.22085 0.57667v1.34351q-0.0123 0.0307-0.0982 0.092-0.0859 0.0552-0.19631 0.0797-0.10429 0.0307-0.21471 0-0.10429-0.0307-0.15951-0.17177 0-0.0429 0-0.26993 0-0.23312 0-0.55826 6e-3 -0.33128 0.0123-0.71777 6e-3 -0.39262 6e-3 -0.76684 6e-3 -0.37423 6e-3 -0.6871 6e-3 -0.31287 6e-3 -0.49078z" style="font-feature-settings:normal;font-variant-caps:normal;font-variant-ligatures:normal;font-variant-numeric:normal"/>
   <path d="m392.75671 586.07583q0.0123-0.11656 0.0982-0.1411 0.0859-0.0307 0.18404-0.0184 0.15951 0.0184 0.23926 0.16564 0.0797 0.1411 0.11042 0.319 0.0307 0.17791 0.0307 0.34968 0 0.16564 6e-3 0.23926 0.17177-0.14723 0.38036-0.33741 0.21471-0.19018 0.51532-0.34355 0.30673-0.1595 0.73003-0.23925 0.42944-0.0859 1.03064-0.0123 0.14724 0.0368 0.21472 0.1411 0.0736 0.10429 0.0736 0.22085 6e-3 0.11042-0.0614 0.20858-0.0614 0.092-0.17791 0.10429-0.14723-0.11042-0.39262-0.12883-0.24539-0.0184-0.53986 0.0429-0.28834 0.0614-0.58894 0.19632-0.3006 0.13496-0.55826 0.33741-0.25153 0.20245-0.43557 0.46624-0.17791 0.26379-0.22085 0.57667v1.34351q-0.0123 0.0307-0.0982 0.092-0.0859 0.0552-0.19631 0.0797-0.10429 0.0307-0.21472 0-0.10429-0.0307-0.1595-0.17177 0-0.0429 0-0.26993 0-0.23312 0-0.55826 6e-3 -0.33128 0.0123-0.71777 6e-3 -0.39262 6e-3 -0.76684 6e-3 -0.37423 6e-3 -0.6871 6e-3 -0.31287 6e-3 -0.49078z" style="font-feature-settings:normal;font-variant-caps:normal;font-variant-ligatures:normal;font-variant-numeric:normal"/>
   <path d="m396.12469 588.27208q0-0.50305 0.17791-0.90795 0.17791-0.41103 0.46624-0.7055 0.28834-0.29446 0.64415-0.46624 0.35582-0.17177 0.71777-0.20858 0.4049-0.0552 0.76071 0.0736 0.35582 0.12269 0.61348 0.38035 0.25766 0.25153 0.39876 0.61348 0.14723 0.36195 0.12883 0.78525-0.0552 0.50305-0.2638 0.865-0.20858 0.35581-0.53372 0.58894-0.31901 0.22698-0.74231 0.33741-0.41716 0.10429-0.89567 0.10429-0.7239 0-1.09812-0.33741-0.37423-0.33742-0.37423-1.12266zm0.52759 0.18404q0.0245 0.36808 0.23926 0.55826 0.22085 0.18404 0.53372 0.22085 0.31901 0.0368 0.68096-0.0552 0.36809-0.0982 0.68096-0.29447 0.31287-0.20245 0.52759-0.48464 0.21472-0.28834 0.22699-0.63188 6e-3 -0.15951-0.043-0.36809-0.0491-0.21472-0.18404-0.41103-0.12883-0.19631-0.36195-0.34968-0.22699-0.15337-0.5828-0.19631-0.12883 6e-3 -0.31288 0.0491-0.18404 0.0368-0.38649 0.12883-0.19631 0.092-0.39262 0.24539-0.19018 0.15336-0.33741 0.37422-0.14724 0.22085-0.23312 0.52145-0.0797 0.3006-0.0552 0.69323z" style="font-feature-settings:normal;font-variant-caps:normal;font-variant-ligatures:normal;font-variant-numeric:normal"/>
   <path d="m402.79931 587.5175q-0.16563 0.55826-0.28833 1.03064-0.11656 0.46624-0.23926 0.76684-0.11656 0.30061-0.26993 0.4049-0.14723 0.0982-0.38035-0.0797-0.1227-0.13497-0.27606-0.4049-0.15337-0.27606-0.31288-0.61961-0.15337-0.34354-0.3006-0.71777-0.14723-0.37422-0.26379-0.70549-0.11043-0.33128-0.18405-0.5828-0.0675-0.25766-0.0675-0.36196 0-0.14109 0.0614-0.20858 0.0675-0.0675 0.15337-0.0675 0.092-6e-3 0.1779 0.0491 0.0859 0.0491 0.1227 0.14723 0.0552 0.0797 0.14723 0.34968 0.092 0.26993 0.22086 0.65029 0.13496 0.38035 0.30673 0.82819 0.17178 0.44784 0.38649 0.88954 0.0675-0.1411 0.13497-0.36808 0.0736-0.22699 0.14723-0.49079 0.0736-0.26379 0.14724-0.52758 0.0736-0.26993 0.15337-0.48465 0.0859-0.22085 0.1779-0.35582 0.092-0.1411 0.19018-0.14723 0.0675-0.0429 0.18404 0.0982 0.1227 0.13496 0.26993 0.37422 0.14724 0.23925 0.30674 0.53985 0.16564 0.30061 0.31901 0.58281t0.27606 0.50918q0.12883 0.22699 0.20245 0.31901l0.96929-2.83426q0.0491-0.0675 0.12883-0.092 0.0798-0.0245 0.15337-6e-3 0.0798 0.0184 0.13497 0.0859 0.0613 0.0675 0.0613 0.18404-0.0797 0.26993-0.17791 0.64415-0.0982 0.36809-0.20858 0.76685-0.11042 0.39262-0.22698 0.77298-0.11656 0.38035-0.24539 0.67482-0.1227 0.29447-0.25153 0.46624-0.12883 0.16564-0.25766 0.13497-0.0736 0.0368-0.17791-0.0552-0.10429-0.092-0.23312-0.26993-0.12269-0.17791-0.26993-0.41717-0.1411-0.24539-0.29447-0.50305-0.14723-0.25766-0.30673-0.50918-0.15337-0.25766-0.30061-0.46011z" style="font-feature-settings:normal;font-variant-caps:normal;font-variant-ligatures:normal;font-variant-numeric:normal"/>
  </g>
  <g transform="matrix(.27666346 .34876388 -.348817 .27662133 -5.02835 550.59959)">
   <path transform="scale(.26458333)" d="m1729.8105 73.541016c-2.733 0-4.9335 2.200566-4.9335 4.933593v14.388672c-10.1526 0.470168-17.3718 1.077655-18.0118 1.783203-2.3979 2.643719 45.5084 51.537326 50.4278 51.466796 4.9194-0.0705 50.4804-50.301768 47.959-52.874999-0.6711-0.684879-7.8758-1.085882-18-1.265625v-13.498047c0-2.733027-2.1987-4.933593-4.9317-4.933593z" fill="#2196f3"/>
   <rect transform="rotate(-43.436588)" x="312.67651" y="335.33032" width="2.7792709" height="8.6303663" ry="1.3896354" fill="#c8e5fc"/>
  </g>
  <g transform="matrix(.44521452 0 0 .44514672 -138.89611 683.91916)">
   <path d="m455.89205 7.156669c-0.94559 0-1.70685 0.7612626-1.70685 1.7068726v5.8130814c-5.76802 0.162403-10.10177 0.429648-10.43451 0.790133-1.04436 1.131396 19.43759 22.402254 21.55992 22.390364 2.12233-0.01188 21.96457-21.508568 20.88658-22.628076-0.34298-0.35618-4.67103-0.574851-10.43038-0.672827v-5.6926754c0-0.94561-0.76126-1.7068726-1.70685-1.7068726z" fill="#00c853"/>
   <rect transform="matrix(.02354975 -.99972267 .99999997 -.00022657028 0 0)" x="-12.619456" y="460.1387" width="3.9317675" height="14.258574" ry="1.9595118" fill="#a0ffc7"/>
  </g>
  <path d="m67.19001 711.7134a44.046681 44.039973 0 0 0 -15.05286 2.70983l3.43888 0.2979-2.10262 3.0834a40.394028 40.387877 0 0 1 13.7166 -2.43884 40.394028 40.387877 0 0 1 40.39402 40.38787 40.394028 40.387877 0 0 1 -40.39402 40.38787 40.394028 40.387877 0 0 1 -40.39402 -40.38787 40.394028 40.387877 0 0 1 19.00018 -34.23257l-1.56126-3.28975a44.046681 44.039973 0 0 0 -21.09153 37.52232 44.046681 44.039973 0 0 0 44.04663 44.03992 44.046681 44.039973 0 0 0 44.0464 -44.03992 44.046681 44.039973 0 0 0 -44.0464 -44.04016z" fill="#ff5252" stroke-width=".44518062"/>
  <path d="m39.64088 717.0039 12.8724-0.88282-8.1518 10.13913z" fill="#ff5252" stroke-width=".44518062"/>
  <ellipse cx="64.900574" cy="752.32404" rx="55.424374" ry="50.397133" opacity="0" stroke-width="2.35574746"/>
  <g fill="#1565c0" stroke="#fff" stroke-width=".11778737">
   <g transform="scale(1.0000762 .99992383)" style="font-feature-settings:normal;font-variant-caps:normal;font-variant-ligatures:normal;font-variant-numeric:normal" aria-label="Monday">
    <path d="m62.696124 706.82237 0.257659 4.04587-1.564363 0.1319-0.08282-2.07048-0.31594 1.42326-1.40486 0.19631-0.570533-1.46927 0.205515 1.74227-1.432467 0.29447 0.196313-4.29433 1.407927-0.18711 0.779114 2.4539 0.944753-2.38029z" style="font-feature-settings:normal;font-variant-caps:normal;font-variant-ligatures:normal;font-variant-numeric:normal"/>
    <path d="m65.613201 711.1167q-1.036774 0-1.769878-0.62881-0.730036-0.62882-0.730036-1.51836t0.730036-1.51835q0.733104-0.62881 1.769878-0.62881 1.033707 0 1.763744 0.62881 0.733103 0.62881 0.733103 1.51835t-0.733103 1.51836q-0.730037 0.62881-1.763744 0.62881zm-0.171773-1.34045q0.441703 0 0.754575-0.26993 0.315941-0.26992 0.315941-0.65028 0-0.38035-0.315941-0.65028-0.312872-0.26993-0.754575-0.26993-0.44477 0-0.76071 0.26993-0.312873 0.26993-0.312873 0.65028 0 0.38036 0.312873 0.65028 0.31594 0.26993 0.76071 0.26993z" style="font-feature-settings:normal;font-variant-caps:normal;font-variant-ligatures:normal;font-variant-numeric:normal"/>
    <path d="m69.803242 708.96953 0.303671 1.75761-1.530623 0.38956-0.309805-4.02747 1.536757-0.26686 1.515285 2.00606 0.01841-2.00606 1.901775-0.19631-0.674823 4.49064-1.21775 0.17791z" style="font-feature-settings:normal;font-variant-caps:normal;font-variant-ligatures:normal;font-variant-numeric:normal"/>
    <path d="m73.591455 711.1167-0.196312-4.29433q4.183906 0 4.183906 2.14716 0 2.14717-3.987594 2.14717zm1.091987-3.15633 0.205515 1.48461q1.328175 6e-3 1.328175-0.73924 0-0.74537-1.53369-0.74537z" style="font-feature-settings:normal;font-variant-caps:normal;font-variant-ligatures:normal;font-variant-numeric:normal"/>
    <path d="m78.904158 710.50322-0.214717 0.61348-1.208547-0.73004 1.515285-3.56429 1.153335-0.0797 1.812821 3.69005-1.432466 0.68403-0.31594-0.86193zm1.049044-1.34351-0.343547-1.11039-0.404894 1.22695z" style="font-feature-settings:normal;font-variant-caps:normal;font-variant-ligatures:normal;font-variant-numeric:normal"/>
    <path d="m82.422442 709.27627-1.444736-1.457 1.220818-0.9969 0.837394 1.22695 0.696295-1.52756 1.628779 0.55827-1.711598 2.19624 0.131897 1.72387-1.493813-0.20245z" style="font-feature-settings:normal;font-variant-caps:normal;font-variant-ligatures:normal;font-variant-numeric:normal"/>
   </g>
   <g transform="scale(1.0000762 .99992383)" style="font-feature-settings:normal;font-variant-caps:normal;font-variant-ligatures:normal;font-variant-numeric:normal" aria-label="Tuesday">
    <path d="m86.763357 732.34056 0.150301 2.61341-1.66252 0.42943 0.285267-3.12259-1.254558-0.10736 0.09816-1.13493 3.598036-0.21472 0.131897 1.67786z" style="font-feature-settings:normal;font-variant-caps:normal;font-variant-ligatures:normal;font-variant-numeric:normal"/>
    <path d="m88.662065 731.24857 1.634913 0.31901q-0.815923 2.50605 0.233121 2.53365 1.245356-9e-3 0.720834-2.595l1.496881-0.47238q0.687093 4.25753-2.217715 4.29434-2.935483-0.0276-1.868034-4.07962z" style="font-feature-settings:normal;font-variant-caps:normal;font-variant-ligatures:normal;font-variant-numeric:normal"/>
    <path d="m96.18328 730.48173 0.07975 1.62571-1.90791 0.20551 0.02454 0.37115 1.251491-0.11656 0.110425 1.1104-1.306703 0.0951 0.02147 0.30061 1.852698-0.1411 0.276064 1.39566-3.653249 0.12576 0.371153-4.42623z" style="font-feature-settings:normal;font-variant-caps:normal;font-variant-ligatures:normal;font-variant-numeric:normal"/>
    <path d="m97.535994 733.63193q-1.107324-0.15644-0.978494-1.37726t2.846529-1.44473l0.25766 1.38645q-1.34658-0.0307-1.444736 0.31901-0.09816 0.34968 1.030639 0.40183 1.128798 0.0521 1.104258 1.37418-0.0245 1.32204-2.972292 1.411l-0.542926-1.45087q1.509151 0.16257 1.659452-0.15031 0.150302-0.31594-0.96009-0.4693z" style="font-feature-settings:normal;font-variant-caps:normal;font-variant-ligatures:normal;font-variant-numeric:normal"/>
    <path d="m100.723 735.32819-0.19631-4.29434q4.1839 0 4.1839 2.14717t-3.98759 2.14717zm1.09199-3.15634 0.20551 1.48461q1.32818 6e-3 1.32818-0.73923 0-0.74538-1.53369-0.74538z" style="font-feature-settings:normal;font-variant-caps:normal;font-variant-ligatures:normal;font-variant-numeric:normal"/>
    <path d="m106.0357 734.71471-0.21471 0.61348-1.20855-0.73004 1.51529-3.5643 1.15333-0.0797 1.81282 3.69006-1.43247 0.68403-0.31594-0.86194zm1.04905-1.34351-0.34355-1.11039-0.40489 1.22695z" style="font-feature-settings:normal;font-variant-caps:normal;font-variant-ligatures:normal;font-variant-numeric:normal"/>
    <path d="m109.55399 733.48776-1.44474-1.45701 1.22082-0.9969 0.83739 1.22696 0.6963-1.52756 1.62878 0.55826-1.7116 2.19625 0.1319 1.72387-1.49382-0.20245z" style="font-feature-settings:normal;font-variant-caps:normal;font-variant-ligatures:normal;font-variant-numeric:normal"/>
   </g>
   <g transform="scale(1.0000762 .99992383)" style="font-feature-settings:normal;font-variant-caps:normal;font-variant-ligatures:normal;font-variant-numeric:normal" aria-label="Wednesday">
    <path d="m82.004233 759.94219-0.613476 2.14717-1.211615 0.1595-1.825091-3.61031 1.503016-0.84353 0.920214 2.45391 0.720834-1.93859 1.226952 0.16871 0.506118 1.76988 0.736171-2.54286 1.668654 0.91408-1.791349 3.46921-1.371119-0.29447z" style="font-feature-settings:normal;font-variant-caps:normal;font-variant-ligatures:normal;font-variant-numeric:normal"/>
    <path d="m88.869029 757.2429 0.07975 1.62571-1.90791 0.20551 0.02454 0.37115 1.251491-0.11656 0.110426 1.1104-1.306704 0.0951 0.02147 0.30061 1.852697-0.1411 0.276064 1.39566-3.653249 0.12576 0.371153-4.42623z" style="font-feature-settings:normal;font-variant-caps:normal;font-variant-ligatures:normal;font-variant-numeric:normal"/>
    <path d="m89.61747 762.08936-0.196313-4.29434q4.183906 0 4.183906 2.14717t-3.987593 2.14717zm1.091987-3.15634 0.205514 1.48461q1.328176 6e-3 1.328176-0.73923 0-0.74538-1.53369-0.74538z" style="font-feature-settings:normal;font-variant-caps:normal;font-variant-ligatures:normal;font-variant-numeric:normal"/>
    <path d="m95.301323 759.94219 0.303671 1.75761-1.530623 0.38956-0.309805-4.02747 1.536757-0.26687 1.515286 2.00607 0.0184-2.00607 1.901775-0.19631-0.674823 4.49065-1.21775 0.1779z" style="font-feature-settings:normal;font-variant-caps:normal;font-variant-ligatures:normal;font-variant-numeric:normal"/>
    <path d="m101.87472 757.2429 0.0798 1.62571-1.90791 0.20551 0.0245 0.37115 1.25149-0.11656 0.11043 1.1104-1.30671 0.0951 0.0215 0.30061 1.8527-0.1411 0.27607 1.39566-3.653254 0.12576 0.371153-4.42623z" style="font-feature-settings:normal;font-variant-caps:normal;font-variant-ligatures:normal;font-variant-numeric:normal"/>
    <path d="m103.22743 760.39309q-1.10732-0.15643-0.97849-1.37725t2.84653-1.44473l0.25766 1.38645q-1.34658-0.0307-1.44474 0.31901-0.0982 0.34968 1.03064 0.40183 1.1288 0.0521 1.10426 1.37418-0.0245 1.32204-2.97229 1.411l-0.54293-1.45087q1.50915 0.16257 1.65945-0.15031 0.1503-0.31594-0.96009-0.46931z" style="font-feature-settings:normal;font-variant-caps:normal;font-variant-ligatures:normal;font-variant-numeric:normal"/>
    <path d="m106.41444 762.08936-0.19631-4.29434q4.1839 0 4.1839 2.14717t-3.98759 2.14717zm1.09199-3.15634 0.20551 1.48461q1.32818 6e-3 1.32818-0.73923 0-0.74538-1.53369-0.74538z" style="font-feature-settings:normal;font-variant-caps:normal;font-variant-ligatures:normal;font-variant-numeric:normal"/>
    <path d="m111.72714 761.47588-0.21472 0.61348-1.20854-0.73004 1.51528-3.5643 1.15334-0.0797 1.81282 3.69006-1.43247 0.68403-0.31594-0.86194zm1.04904-1.34351-0.34354-1.11039-0.4049 1.22695z" style="font-feature-settings:normal;font-variant-caps:normal;font-variant-ligatures:normal;font-variant-numeric:normal"/>
    <path d="m115.24543 760.24893-1.44474-1.45701 1.22082-0.9969 0.83739 1.22696 0.6963-1.52756 1.62878 0.55826-1.7116 2.19625 0.1319 1.72387-1.49382-0.20245z" style="font-feature-settings:normal;font-variant-caps:normal;font-variant-ligatures:normal;font-variant-numeric:normal"/>
   </g>
   <g transform="scale(1.0000762 .99992383)" style="font-feature-settings:normal;font-variant-caps:normal;font-variant-ligatures:normal;font-variant-numeric:normal" aria-label="Thursday">
    <path d="m71.389944 787.95134 0.150301 2.6134-1.66252 0.42944 0.285267-3.12259-1.254559-0.10736 0.09816-1.13493 3.598036-0.21472 0.131897 1.67786z" style="font-feature-settings:normal;font-variant-caps:normal;font-variant-ligatures:normal;font-variant-numeric:normal"/>
    <path d="m74.494132 789.64453 0.110425 1.03677-1.174806 0.20552-0.533724-3.39866 1.306704-0.55826 0.147234 1.47234 1.177874-0.13496 0.0184-1.34045 2.045942 0.20552-0.782182 3.76981-1.315906-0.38956 0.01534-0.9785z" style="font-feature-settings:normal;font-variant-caps:normal;font-variant-ligatures:normal;font-variant-numeric:normal"/>
    <path d="m78.036955 786.85935 1.634913 0.31901q-0.815923 2.50605 0.233121 2.53365 1.245356-9e-3 0.720834-2.595l1.496881-0.47238q0.687093 4.25753-2.217715 4.29433-2.935482-0.0276-1.868034-4.07961z" style="font-feature-settings:normal;font-variant-caps:normal;font-variant-ligatures:normal;font-variant-numeric:normal"/>
    <path d="m83.90792 787.65687 0.04294 0.82819q1.53369 0 1.53369-0.30674 0-0.30673-1.576633-0.52145zm0.205514 3.03364-1.70853 0.23925 0.355816-4.5796q3.950785 0.29447 4.082682 1.58277 0.134965 1.28523-1.358849 1.77908l1.226952 0.66562-1.257626 1.11346-1.438601-1.77908z" style="font-feature-settings:normal;font-variant-caps:normal;font-variant-ligatures:normal;font-variant-numeric:normal"/>
    <path d="m88.235991 789.2427q-1.107324-0.15643-0.978494-1.37725t2.846529-1.44474l0.257659 1.38646q-1.346579-0.0307-1.444735 0.31901-0.09816 0.34968 1.030639 0.40182 1.128796 0.0521 1.104257 1.37419-0.02454 1.32204-2.972291 1.411l-0.542926-1.45088q1.509151 0.16258 1.659452-0.1503 0.150302-0.31594-0.96009-0.46931z" style="font-feature-settings:normal;font-variant-caps:normal;font-variant-ligatures:normal;font-variant-numeric:normal"/>
    <path d="m91.423 790.93896-0.196312-4.29433q4.183906 0 4.183906 2.14717 0 2.14716-3.987594 2.14716zm1.091987-3.15633 0.205515 1.48461q1.328175 6e-3 1.328175-0.73924 0-0.74537-1.53369-0.74537z" style="font-feature-settings:normal;font-variant-caps:normal;font-variant-ligatures:normal;font-variant-numeric:normal"/>
    <path d="m96.735701 790.32549-0.214717 0.61347-1.208547-0.73003 1.515285-3.5643 1.153335-0.0797 1.812821 3.69006-1.432466 0.68402-0.31594-0.86193zm1.049044-1.34351-0.343547-1.11039-0.404894 1.22695z" style="font-feature-settings:normal;font-variant-caps:normal;font-variant-ligatures:normal;font-variant-numeric:normal"/>
    <path d="m100.25399 789.09854-1.444741-1.45701 1.220821-0.9969 0.83739 1.22696 0.6963-1.52756 1.62877 0.55826-1.71159 2.19625 0.13189 1.72386-1.49381-0.20244z" style="font-feature-settings:normal;font-variant-caps:normal;font-variant-ligatures:normal;font-variant-numeric:normal"/>
   </g>
   <g transform="scale(1.0000762 .99992383)" style="font-feature-settings:normal;font-variant-caps:normal;font-variant-ligatures:normal;font-variant-numeric:normal" aria-label="Friday">
    <path d="m35.440701 786.25813-0.260728 1.77908-1.493813-0.0797 0.06135 0.30674 1.187076 0.13496-0.162571 1.27603-0.81899-0.18404 0.276064 1.33124-1.503016 0.20245-0.337412-4.02747z" style="font-feature-settings:normal;font-variant-caps:normal;font-variant-ligatures:normal;font-variant-numeric:normal"/>
    <path d="m36.897706 787.74275 0.04294 0.82819q1.53369 0 1.53369-0.30674t-1.576633-0.52145zm0.205514 3.03363-1.70853 0.23926 0.355816-4.5796q3.950785 0.29447 4.082682 1.58277 0.134965 1.28523-1.358849 1.77908l1.226952 0.66562-1.257626 1.11346-1.438601-1.77908z" style="font-feature-settings:normal;font-variant-caps:normal;font-variant-ligatures:normal;font-variant-numeric:normal"/>
    <path d="m41.541719 786.75505 0.312872 4.13789-1.736137 0.32821 0.07975-4.35874z" style="font-feature-settings:normal;font-variant-caps:normal;font-variant-ligatures:normal;font-variant-numeric:normal"/>
    <path d="m42.204273 791.02484-0.196312-4.29433q4.183906 0 4.183906 2.14717 0 2.14716-3.987594 2.14716zm1.091987-3.15633 0.205515 1.48461q1.328175 6e-3 1.328175-0.73924 0-0.74537-1.53369-0.74537z" style="font-feature-settings:normal;font-variant-caps:normal;font-variant-ligatures:normal;font-variant-numeric:normal"/>
    <path d="m47.516974 790.41137-0.214717 0.61347-1.208548-0.73004 1.515286-3.56429 1.153335-0.0797 1.812821 3.69006-1.432466 0.68402-0.31594-0.86193zm1.049043-1.34352-0.343546-1.11039-0.404894 1.22695z" style="font-feature-settings:normal;font-variant-caps:normal;font-variant-ligatures:normal;font-variant-numeric:normal"/>
    <path d="m51.035258 789.18441-1.444736-1.457 1.220817-0.9969 0.837395 1.22695 0.696295-1.52755 1.628779 0.55826-1.711598 2.19624 0.131897 1.72387-1.493814-0.20245z" style="font-feature-settings:normal;font-variant-caps:normal;font-variant-ligatures:normal;font-variant-numeric:normal"/>
   </g>
   <g transform="scale(1.0000762 .99992383)" style="font-feature-settings:normal;font-variant-caps:normal;font-variant-ligatures:normal;font-variant-numeric:normal" aria-label="Saturday">
    <path d="m18.571666 760.17837q-1.107324-0.15643-0.978494-1.37725t2.846528-1.44474l0.25766 1.38646q-1.34658-0.0307-1.444736 0.31901-0.09816 0.34968 1.030639 0.40182 1.128796 0.0521 1.104257 1.37419-0.02454 1.32204-2.972291 1.41099l-0.542926-1.45087q1.509151 0.16257 1.659452-0.1503 0.150302-0.31594-0.960089-0.46931z" style="font-feature-settings:normal;font-variant-caps:normal;font-variant-ligatures:normal;font-variant-numeric:normal"/>
    <path d="m22.985625 761.26116-0.214717 0.61347-1.208547-0.73003 1.515285-3.5643 1.153335-0.0797 1.812821 3.69006-1.432466 0.68402-0.31594-0.86193zm1.049044-1.34351-0.343547-1.1104-0.404894 1.22696z" style="font-feature-settings:normal;font-variant-caps:normal;font-variant-ligatures:normal;font-variant-numeric:normal"/>
    <path d="m27.736996 758.88701 0.150302 2.6134-1.66252 0.42944 0.285266-3.1226-1.254558-0.10735 0.09816-1.13493 3.598036-0.21472 0.131898 1.67786z" style="font-feature-settings:normal;font-variant-caps:normal;font-variant-ligatures:normal;font-variant-numeric:normal"/>
    <path d="m29.635704 757.79502 1.634913 0.31901q-0.815923 2.50605 0.233121 2.53365 1.245356-9e-3 0.720834-2.595l1.496882-0.47238q0.687093 4.25753-2.217716 4.29433-2.935482-0.0276-1.868034-4.07961z" style="font-feature-settings:normal;font-variant-caps:normal;font-variant-ligatures:normal;font-variant-numeric:normal"/>
    <path d="m35.506668 758.59254 0.04294 0.82819q1.53369 0 1.53369-0.30674t-1.576633-0.52145zm0.205515 3.03364-1.708531 0.23925 0.355816-4.5796q3.950785 0.29447 4.082682 1.58277 0.134965 1.28523-1.358849 1.77908l1.226952 0.66562-1.257626 1.11346-1.438601-1.77908z" style="font-feature-settings:normal;font-variant-caps:normal;font-variant-ligatures:normal;font-variant-numeric:normal"/>
    <path d="m38.923729 761.87463-0.196312-4.29433q4.183905 0 4.183905 2.14717 0 2.14716-3.987593 2.14716zm1.091987-3.15633 0.205514 1.48461q1.328176 6e-3 1.328176-0.73924 0-0.74537-1.53369-0.74537z" style="font-feature-settings:normal;font-variant-caps:normal;font-variant-ligatures:normal;font-variant-numeric:normal"/>
    <path d="m44.236431 761.26116-0.214716 0.61347-1.208548-0.73003 1.515286-3.5643 1.153334-0.0797 1.812822 3.69006-1.432467 0.68402-0.31594-0.86193zm1.049044-1.34351-0.343546-1.1104-0.404895 1.22696z" style="font-feature-settings:normal;font-variant-caps:normal;font-variant-ligatures:normal;font-variant-numeric:normal"/>
    <path d="m47.754716 760.03421-1.444736-1.45701 1.220817-0.9969 0.837395 1.22695 0.696295-1.52755 1.628778 0.55826-1.711597 2.19625 0.131897 1.72386-1.493814-0.20244z" style="font-feature-settings:normal;font-variant-caps:normal;font-variant-ligatures:normal;font-variant-numeric:normal"/>
   </g>
   <g transform="scale(1.0000762 .99992383)" style="font-feature-settings:normal;font-variant-caps:normal;font-variant-ligatures:normal;font-variant-numeric:normal" aria-label="Sunday ">
    <path d="m21.302745 733.50619q-1.107324-0.15643-0.978494-1.37725t2.846528-1.44474l0.25766 1.38646q-1.34658-0.0307-1.444736 0.31901-0.09816 0.34968 1.03064 0.40182 1.128795 0.0522 1.104256 1.37419-0.02454 1.32204-2.972291 1.41099l-0.542926-1.45087q1.509151 0.16257 1.659453-0.1503 0.150301-0.31594-0.96009-0.46931z" style="font-feature-settings:normal;font-variant-caps:normal;font-variant-ligatures:normal;font-variant-numeric:normal"/>
    <path d="m24.661525 731.12284 1.634914 0.31901q-0.815923 2.50605 0.233121 2.53365 1.245356-9e-3 0.720834-2.595l1.496881-0.47238q0.687093 4.25753-2.217715 4.29433-2.935483-0.0276-1.868035-4.07961z" style="font-feature-settings:normal;font-variant-caps:normal;font-variant-ligatures:normal;font-variant-numeric:normal"/>
    <path d="m30.664387 733.05529 0.303671 1.75761-1.530623 0.38955-0.309805-4.02747 1.536757-0.26686 1.515285 2.00607 0.01841-2.00607 1.901775-0.19631-0.674823 4.49064-1.21775 0.17791z" style="font-feature-settings:normal;font-variant-caps:normal;font-variant-ligatures:normal;font-variant-numeric:normal"/>
    <path d="m34.452601 735.20245-0.196312-4.29433q4.183906 0 4.183906 2.14717 0 2.14716-3.987594 2.14716zm1.091987-3.15633 0.205515 1.48461q1.328175 6e-3 1.328175-0.73924 0-0.74537-1.53369-0.74537z" style="font-feature-settings:normal;font-variant-caps:normal;font-variant-ligatures:normal;font-variant-numeric:normal"/>
    <path d="m39.765303 734.58898-0.214717 0.61347-1.208547-0.73003 1.515285-3.5643 1.153335-0.0798 1.812821 3.69006-1.432466 0.68402-0.31594-0.86193zm1.049044-1.34351-0.343547-1.1104-0.404894 1.22696z" style="font-feature-settings:normal;font-variant-caps:normal;font-variant-ligatures:normal;font-variant-numeric:normal"/>
    <path d="m43.283587 733.36203-1.444736-1.45701 1.220818-0.9969 0.837394 1.22695 0.696295-1.52755 1.628779 0.55826-1.711598 2.19625 0.131897 1.72386-1.493813-0.20244z" style="font-feature-settings:normal;font-variant-caps:normal;font-variant-ligatures:normal;font-variant-numeric:normal"/>
   </g>
  </g>
  <g fill="#fff">
   <ellipse cx="68.114075" cy="713.56049" rx="1.5764668" ry="1.5762267"/>
   <ellipse cx="99.117737" cy="728.11658" rx="1.5764668" ry="1.5762267"/>
   <ellipse cx="108.41193" cy="764.67682" rx="1.5764668" ry="1.5762267"/>
   <ellipse cx="85.931641" cy="793.61432" rx="1.5764668" ry="1.5762267"/>
   <ellipse transform="scale(-1,1)" cx="-35.535095" cy="728.11658" rx="1.5764668" ry="1.5762267"/>
   <ellipse transform="scale(-1,1)" cx="-25.896332" cy="764.67682" rx="1.5764668" ry="1.5762267"/>
   <ellipse transform="scale(-1,1)" cx="-48.72113" cy="793.61432" rx="1.5764668" ry="1.5762267"/>
  </g>
  <g transform="matrix(.44504526 .01227341 -.01227527 .44497749 12.0619 681.19632)" fill="none" stroke="#ffc107" stroke-linecap="round" stroke-width="2.64583325">
   <g transform="rotate(-26.301235,280.87683,257.93987)">
    <path d="m311.01879 55.61079-10.7041-6.274815"/>
    <path d="m312.14537 43.254339-1.12658 12.356451"/>
   </g>
   <path d="m148.16068 32.100827s36.96218 2.270005 70.08762 31.100082"/>
  </g>
 </g>
</svg>
