<?xml version="1.0" encoding="UTF-8"?>
<!-- Created with Inkscape (http://www.inkscape.org/) -->
<svg width="512" height="512" version="1.1" viewBox="0 0 135.46667 135.46667" xmlns="http://www.w3.org/2000/svg" xmlns:cc="http://creativecommons.org/ns#" xmlns:dc="http://purl.org/dc/elements/1.1/" xmlns:rdf="http://www.w3.org/1999/02/22-rdf-syntax-ns#">
 <metadata>
  <rdf:RDF>
   <cc:Work rdf:about="">
    <dc:format>image/svg+xml</dc:format>
    <dc:type rdf:resource="http://purl.org/dc/dcmitype/StillImage"/>
    <dc:title/>
   </cc:Work>
  </rdf:RDF>
 </metadata>
 <g transform="translate(-921.42975,-686.63293)">
  <rect x="921.42975" y="686.63293" width="135.46667" height="135.46667" ry="2.061909" opacity="0" stroke-width=".82785952"/>
  <g transform="matrix(.44521452 0 0 .44514672 782.5336 683.91916)">
   <path d="m457.67902 19.457727c-0.7231 0-1.30532 0.582233-1.30532 1.305346v3.807003c-2.68621 0.124399-4.59629 0.28513-4.76562 0.471806-0.63445 0.699484 12.04076 13.635917 13.34235 13.617256 1.30159-0.01865 13.35628-13.309009 12.68916-13.989843-0.17757-0.181208-2.08381-0.287306-4.7625-0.334863v-3.571359c0-0.723113-0.58174-1.305346-1.30485-1.305346z" fill="#2196f3"/>
   <rect transform="rotate(-90.182225)" x="-25.150606" y="462.50531" width="2.7792709" height="8.6303663" ry="1.3896354" fill="#c8e5fc"/>
  </g>
  <path d="m988.6197 711.7134a44.046681 44.039973 0 0 0 -15.0528 2.70983l3.4388 0.2979-2.1026 3.0834a40.394028 40.387877 0 0 1 13.7166 -2.43884 40.394028 40.387877 0 0 1 40.394 40.38787 40.394028 40.387877 0 0 1 -40.394 40.38787 40.394028 40.387877 0 0 1 -40.394 -40.38787 40.394028 40.387877 0 0 1 19.0002 -34.23257l-1.5613-3.28975a44.046681 44.039973 0 0 0 -21.0915 37.52232 44.046681 44.039973 0 0 0 44.0466 44.03992 44.046681 44.039973 0 0 0 44.0464 -44.03992 44.046681 44.039973 0 0 0 -44.0464 -44.04016z" fill="#ff5252" stroke-width=".44518062"/>
  <path d="m961.0706 717.0039 12.8724-0.88282-8.1518 10.13913z" fill="#ff5252" stroke-width=".44518062"/>
  <ellipse cx="986.33026" cy="752.32404" rx="55.424374" ry="50.397133" opacity="0" stroke-width="2.35574746"/>
  <g fill="#1565c0" stroke="#fff" stroke-width=".11778737">
   <g transform="scale(1.0000762 .99992383)" style="font-feature-settings:normal;font-variant-caps:normal;font-variant-ligatures:normal;font-variant-numeric:normal" aria-label="Monday">
    <path d="m984.05566 706.82237 0.25766 4.04587-1.56436 0.1319-0.0828-2.07048-0.31594 1.42326-1.40486 0.19631-0.57054-1.46927 0.20552 1.74227-1.43247 0.29447 0.19631-4.29433 1.40793-0.18711 0.77912 2.4539 0.94475-2.38029z" style="font-feature-settings:normal;font-variant-caps:normal;font-variant-ligatures:normal;font-variant-numeric:normal"/>
    <path d="m986.97274 711.1167q-1.03678 0-1.76988-0.62881-0.73004-0.62882-0.73004-1.51836t0.73004-1.51835q0.7331-0.62881 1.76988-0.62881 1.0337 0 1.76374 0.62881 0.7331 0.62881 0.7331 1.51835t-0.7331 1.51836q-0.73004 0.62881-1.76374 0.62881zm-0.17178-1.34045q0.44171 0 0.75458-0.26993 0.31594-0.26992 0.31594-0.65028 0-0.38035-0.31594-0.65028-0.31287-0.26993-0.75458-0.26993-0.44477 0-0.76071 0.26993-0.31287 0.26993-0.31287 0.65028 0 0.38036 0.31287 0.65028 0.31594 0.26993 0.76071 0.26993z" style="font-feature-settings:normal;font-variant-caps:normal;font-variant-ligatures:normal;font-variant-numeric:normal"/>
    <path d="m991.16278 708.96953 0.30367 1.75761-1.53062 0.38956-0.30981-4.02747 1.53676-0.26686 1.51528 2.00606 0.0184-2.00606 1.90177-0.19631-0.67482 4.49064-1.21775 0.17791z" style="font-feature-settings:normal;font-variant-caps:normal;font-variant-ligatures:normal;font-variant-numeric:normal"/>
    <path d="m994.95099 711.1167-0.19631-4.29433q4.1839 0 4.1839 2.14716 0 2.14717-3.98759 2.14717zm1.09199-3.15633 0.20551 1.48461q1.32818 6e-3 1.32818-0.73924 0-0.74537-1.53369-0.74537z" style="font-feature-settings:normal;font-variant-caps:normal;font-variant-ligatures:normal;font-variant-numeric:normal"/>
    <path d="m1000.2637 710.50322-0.2147 0.61348-1.20857-0.73004 1.51527-3.56429 1.1533-0.0797 1.8129 3.69005-1.4325 0.68403-0.3159-0.86193zm1.049-1.34351-0.3435-1.11039-0.4049 1.22695z" style="font-feature-settings:normal;font-variant-caps:normal;font-variant-ligatures:normal;font-variant-numeric:normal"/>
    <path d="m1003.782 709.27627-1.4448-1.457 1.2209-0.9969 0.8374 1.22695 0.6962-1.52756 1.6288 0.55827-1.7116 2.19624 0.1319 1.72387-1.4938-0.20245z" style="font-feature-settings:normal;font-variant-caps:normal;font-variant-ligatures:normal;font-variant-numeric:normal"/>
   </g>
   <g transform="scale(1.0000762 .99992383)" style="font-feature-settings:normal;font-variant-caps:normal;font-variant-ligatures:normal;font-variant-numeric:normal" aria-label="Tuesday">
    <path d="m1008.123 732.34056 0.1503 2.61341-1.6625 0.42943 0.2853-3.12259-1.2546-0.10736 0.098-1.13493 3.598-0.21472 0.1319 1.67786z" style="font-feature-settings:normal;font-variant-caps:normal;font-variant-ligatures:normal;font-variant-numeric:normal"/>
    <path d="m1010.0217 731.24857 1.6349 0.31901q-0.8159 2.50605 0.2332 2.53365 1.2453-9e-3 0.7208-2.595l1.4969-0.47238q0.6871 4.25753-2.2177 4.29434-2.9355-0.0276-1.8681-4.07962z" style="font-feature-settings:normal;font-variant-caps:normal;font-variant-ligatures:normal;font-variant-numeric:normal"/>
    <path d="m1017.5429 730.48173 0.08 1.62571-1.9079 0.20551 0.024 0.37115 1.2515-0.11656 0.1104 1.1104-1.3067 0.0951 0.022 0.30061 1.8527-0.1411 0.2761 1.39566-3.6533 0.12576 0.3712-4.42623z" style="font-feature-settings:normal;font-variant-caps:normal;font-variant-ligatures:normal;font-variant-numeric:normal"/>
    <path d="m1018.8957 733.63193q-1.1074-0.15644-0.9785-1.37726 0.1288-1.22082 2.8465-1.44473l0.2576 1.38645q-1.3465-0.0307-1.4447 0.31901-0.098 0.34968 1.0306 0.40183 1.1288 0.0521 1.1043 1.37418-0.024 1.32204-2.9723 1.411l-0.5429-1.45087q1.5091 0.16257 1.6594-0.15031 0.1503-0.31594-0.96-0.4693z" style="font-feature-settings:normal;font-variant-caps:normal;font-variant-ligatures:normal;font-variant-numeric:normal"/>
    <path d="m1022.0827 735.32819-0.1964-4.29434q4.184 0 4.184 2.14717t-3.9876 2.14717zm1.0919-3.15634 0.2056 1.48461q1.3281 6e-3 1.3281-0.73923 0-0.74538-1.5337-0.74538z" style="font-feature-settings:normal;font-variant-caps:normal;font-variant-ligatures:normal;font-variant-numeric:normal"/>
    <path d="m1027.3954 734.71471-0.2148 0.61348-1.2085-0.73004 1.5153-3.5643 1.1533-0.0797 1.8128 3.69006-1.4324 0.68403-0.316-0.86194zm1.049-1.34351-0.3435-1.11039-0.4049 1.22695z" style="font-feature-settings:normal;font-variant-caps:normal;font-variant-ligatures:normal;font-variant-numeric:normal"/>
    <path d="m1030.9136 733.48776-1.4447-1.45701 1.2208-0.9969 0.8374 1.22696 0.6963-1.52756 1.6288 0.55826-1.7116 2.19625 0.1319 1.72387-1.4938-0.20245z" style="font-feature-settings:normal;font-variant-caps:normal;font-variant-ligatures:normal;font-variant-numeric:normal"/>
   </g>
   <g transform="scale(1.0000762 .99992383)" style="font-feature-settings:normal;font-variant-caps:normal;font-variant-ligatures:normal;font-variant-numeric:normal" aria-label="Wednesday">
    <path d="m1003.3638 759.94219-0.6134 2.14717-1.2117 0.1595-1.82505-3.61031 1.50305-0.84353 0.9202 2.45391 0.7208-1.93859 1.227 0.16871 0.5061 1.76988 0.7362-2.54286 1.6686 0.91408-1.7913 3.46921-1.3712-0.29447z" style="font-feature-settings:normal;font-variant-caps:normal;font-variant-ligatures:normal;font-variant-numeric:normal"/>
    <path d="m1010.2286 757.2429 0.08 1.62571-1.9079 0.20551 0.024 0.37115 1.2515-0.11656 0.1104 1.1104-1.3067 0.0951 0.022 0.30061 1.8527-0.1411 0.2761 1.39566-3.6533 0.12576 0.3712-4.42623z" style="font-feature-settings:normal;font-variant-caps:normal;font-variant-ligatures:normal;font-variant-numeric:normal"/>
    <path d="m1010.9771 762.08936-0.1963-4.29434q4.1839 0 4.1839 2.14717t-3.9876 2.14717zm1.092-3.15634 0.2055 1.48461q1.3281 6e-3 1.3281-0.73923 0-0.74538-1.5336-0.74538z" style="font-feature-settings:normal;font-variant-caps:normal;font-variant-ligatures:normal;font-variant-numeric:normal"/>
    <path d="m1016.6609 759.94219 0.3037 1.75761-1.5306 0.38956-0.3098-4.02747 1.5367-0.26687 1.5153 2.00607 0.018-2.00607 1.9018-0.19631-0.6748 4.49065-1.2178 0.1779z" style="font-feature-settings:normal;font-variant-caps:normal;font-variant-ligatures:normal;font-variant-numeric:normal"/>
    <path d="m1023.2343 757.2429 0.08 1.62571-1.9079 0.20551 0.024 0.37115 1.2515-0.11656 0.1104 1.1104-1.3067 0.0951 0.021 0.30061 1.8527-0.1411 0.276 1.39566-3.6532 0.12576 0.3711-4.42623z" style="font-feature-settings:normal;font-variant-caps:normal;font-variant-ligatures:normal;font-variant-numeric:normal"/>
    <path d="m1024.587 760.39309q-1.1073-0.15643-0.9785-1.37725 0.1289-1.22082 2.8466-1.44473l0.2576 1.38645q-1.3466-0.0307-1.4447 0.31901-0.098 0.34968 1.0306 0.40183 1.1288 0.0521 1.1043 1.37418-0.025 1.32204-2.9723 1.411l-0.5429-1.45087q1.5091 0.16257 1.6594-0.15031 0.1503-0.31594-0.9601-0.46931z" style="font-feature-settings:normal;font-variant-caps:normal;font-variant-ligatures:normal;font-variant-numeric:normal"/>
    <path d="m1027.774 762.08936-0.1963-4.29434q4.1839 0 4.1839 2.14717t-3.9876 2.14717zm1.092-3.15634 0.2055 1.48461q1.3282 6e-3 1.3282-0.73923 0-0.74538-1.5337-0.74538z" style="font-feature-settings:normal;font-variant-caps:normal;font-variant-ligatures:normal;font-variant-numeric:normal"/>
    <path d="m1033.0867 761.47588-0.2147 0.61348-1.2085-0.73004 1.5153-3.5643 1.1533-0.0797 1.8128 3.69006-1.4325 0.68403-0.3159-0.86194zm1.0491-1.34351-0.3436-1.11039-0.4049 1.22695z" style="font-feature-settings:normal;font-variant-caps:normal;font-variant-ligatures:normal;font-variant-numeric:normal"/>
    <path d="m1036.605 760.24893-1.4447-1.45701 1.2208-0.9969 0.8374 1.22696 0.6963-1.52756 1.6288 0.55826-1.7116 2.19625 0.1319 1.72387-1.4938-0.20245z" style="font-feature-settings:normal;font-variant-caps:normal;font-variant-ligatures:normal;font-variant-numeric:normal"/>
   </g>
   <g transform="scale(1.0000762 .99992383)" style="font-feature-settings:normal;font-variant-caps:normal;font-variant-ligatures:normal;font-variant-numeric:normal" aria-label="Thursday">
    <path d="m992.74948 787.95134 0.1503 2.6134-1.66252 0.42944 0.28527-3.12259-1.25456-0.10736 0.0982-1.13493 3.59804-0.21472 0.1319 1.67786z" style="font-feature-settings:normal;font-variant-caps:normal;font-variant-ligatures:normal;font-variant-numeric:normal"/>
    <path d="m995.85367 789.64453 0.11042 1.03677-1.1748 0.20552-0.53373-3.39866 1.30671-0.55826 0.14723 1.47234 1.17787-0.13496 0.0184-1.34045 2.04594 0.20552-0.78218 3.76981-1.31591-0.38956 0.0153-0.9785z" style="font-feature-settings:normal;font-variant-caps:normal;font-variant-ligatures:normal;font-variant-numeric:normal"/>
    <path d="m999.39649 786.85935 1.63491 0.31901q-0.8159 2.50605 0.2331 2.53365 1.2454-9e-3 0.7209-2.595l1.4968-0.47238q0.6871 4.25753-2.2177 4.29433-2.93546-0.0276-1.86801-4.07961z" style="font-feature-settings:normal;font-variant-caps:normal;font-variant-ligatures:normal;font-variant-numeric:normal"/>
    <path d="m1005.2675 787.65687 0.043 0.82819q1.5337 0 1.5337-0.30674 0-0.30673-1.5766-0.52145zm0.2055 3.03364-1.7086 0.23925 0.3559-4.5796q3.9507 0.29447 4.0826 1.58277 0.135 1.28523-1.3588 1.77908l1.2269 0.66562-1.2576 1.11346-1.4386-1.77908z" style="font-feature-settings:normal;font-variant-caps:normal;font-variant-ligatures:normal;font-variant-numeric:normal"/>
    <path d="m1009.5955 789.2427q-1.1073-0.15643-0.9785-1.37725 0.1289-1.22082 2.8466-1.44474l0.2576 1.38646q-1.3466-0.0307-1.4447 0.31901-0.098 0.34968 1.0306 0.40182 1.1288 0.0521 1.1043 1.37419-0.025 1.32204-2.9723 1.411l-0.5429-1.45088q1.5091 0.16258 1.6594-0.1503 0.1503-0.31594-0.9601-0.46931z" style="font-feature-settings:normal;font-variant-caps:normal;font-variant-ligatures:normal;font-variant-numeric:normal"/>
    <path d="m1012.7825 790.93896-0.1963-4.29433q4.1839 0 4.1839 2.14717 0 2.14716-3.9876 2.14716zm1.092-3.15633 0.2055 1.48461q1.3282 6e-3 1.3282-0.73924 0-0.74537-1.5337-0.74537z" style="font-feature-settings:normal;font-variant-caps:normal;font-variant-ligatures:normal;font-variant-numeric:normal"/>
    <path d="m1018.0952 790.32549-0.2147 0.61347-1.2085-0.73003 1.5153-3.5643 1.1533-0.0797 1.8128 3.69006-1.4325 0.68402-0.3159-0.86193zm1.0491-1.34351-0.3436-1.11039-0.4049 1.22695z" style="font-feature-settings:normal;font-variant-caps:normal;font-variant-ligatures:normal;font-variant-numeric:normal"/>
    <path d="m1021.6135 789.09854-1.4447-1.45701 1.2208-0.9969 0.8374 1.22696 0.6963-1.52756 1.6288 0.55826-1.7116 2.19625 0.1319 1.72386-1.4938-0.20244z" style="font-feature-settings:normal;font-variant-caps:normal;font-variant-ligatures:normal;font-variant-numeric:normal"/>
   </g>
   <g transform="scale(1.0000762 .99992383)" style="font-feature-settings:normal;font-variant-caps:normal;font-variant-ligatures:normal;font-variant-numeric:normal" aria-label="Friday">
    <path d="m956.80036 786.25813-0.26073 1.77908-1.49381-0.0797 0.0613 0.30674 1.18708 0.13496-0.16257 1.27603-0.81899-0.18404 0.27606 1.33124-1.50301 0.20245-0.33741-4.02747z" style="font-feature-settings:normal;font-variant-caps:normal;font-variant-ligatures:normal;font-variant-numeric:normal"/>
    <path d="m958.25736 787.74275 0.043 0.82819q1.53369 0 1.53369-0.30674t-1.57664-0.52145zm0.20552 3.03363-1.70853 0.23926 0.35581-4.5796q3.95079 0.29447 4.08269 1.58277 0.13496 1.28523-1.35885 1.77908l1.22695 0.66562-1.25763 1.11346-1.4386-1.77908z" style="font-feature-settings:normal;font-variant-caps:normal;font-variant-ligatures:normal;font-variant-numeric:normal"/>
    <path d="m962.90138 786.75505 0.31287 4.13789-1.73614 0.32821 0.0797-4.35874z" style="font-feature-settings:normal;font-variant-caps:normal;font-variant-ligatures:normal;font-variant-numeric:normal"/>
    <path d="m963.56393 791.02484-0.19631-4.29433q4.1839 0 4.1839 2.14717 0 2.14716-3.98759 2.14716zm1.09199-3.15633 0.20551 1.48461q1.32818 6e-3 1.32818-0.73924 0-0.74537-1.53369-0.74537z" style="font-feature-settings:normal;font-variant-caps:normal;font-variant-ligatures:normal;font-variant-numeric:normal"/>
    <path d="m968.87663 790.41137-0.21472 0.61347-1.20854-0.73004 1.51528-3.56429 1.15334-0.0797 1.81282 3.69006-1.43247 0.68402-0.31594-0.86193zm1.04904-1.34352-0.34354-1.11039-0.4049 1.22695z" style="font-feature-settings:normal;font-variant-caps:normal;font-variant-ligatures:normal;font-variant-numeric:normal"/>
    <path d="m972.39492 789.18441-1.44474-1.457 1.22082-0.9969 0.83739 1.22695 0.6963-1.52755 1.62878 0.55826-1.7116 2.19624 0.13189 1.72387-1.49381-0.20245z" style="font-feature-settings:normal;font-variant-caps:normal;font-variant-ligatures:normal;font-variant-numeric:normal"/>
   </g>
   <g transform="scale(1.0000762 .99992383)" style="font-feature-settings:normal;font-variant-caps:normal;font-variant-ligatures:normal;font-variant-numeric:normal" aria-label="Saturday">
    <path d="m939.9312 760.17837q-1.10732-0.15643-0.97849-1.37725t2.84653-1.44474l0.25765 1.38646q-1.34657-0.0307-1.44473 0.31901-0.0982 0.34968 1.03064 0.40182 1.12879 0.0521 1.10426 1.37419-0.0245 1.32204-2.9723 1.41099l-0.54292-1.45087q1.50915 0.16257 1.65945-0.1503 0.1503-0.31594-0.96009-0.46931z" style="font-feature-settings:normal;font-variant-caps:normal;font-variant-ligatures:normal;font-variant-numeric:normal"/>
    <path d="m944.34516 761.26116-0.21472 0.61347-1.20854-0.73003 1.51528-3.5643 1.15334-0.0797 1.81282 3.69006-1.43247 0.68402-0.31594-0.86193zm1.04904-1.34351-0.34354-1.1104-0.4049 1.22696z" style="font-feature-settings:normal;font-variant-caps:normal;font-variant-ligatures:normal;font-variant-numeric:normal"/>
    <path d="m949.09653 758.88701 0.1503 2.6134-1.66252 0.42944 0.28527-3.1226-1.25456-0.10735 0.0982-1.13493 3.59803-0.21472 0.1319 1.67786z" style="font-feature-settings:normal;font-variant-caps:normal;font-variant-ligatures:normal;font-variant-numeric:normal"/>
    <path d="m950.99524 757.79502 1.63491 0.31901q-0.81592 2.50605 0.23312 2.53365 1.24536-9e-3 0.72084-2.595l1.49688-0.47238q0.68709 4.25753-2.21772 4.29433-2.93548-0.0276-1.86803-4.07961z" style="font-feature-settings:normal;font-variant-caps:normal;font-variant-ligatures:normal;font-variant-numeric:normal"/>
    <path d="m956.8662 758.59254 0.0429 0.82819q1.53369 0 1.53369-0.30674t-1.57664-0.52145zm0.20552 3.03364-1.70853 0.23925 0.35581-4.5796q3.95079 0.29447 4.08269 1.58277 0.13496 1.28523-1.35885 1.77908l1.22695 0.66562-1.25763 1.11346-1.4386-1.77908z" style="font-feature-settings:normal;font-variant-caps:normal;font-variant-ligatures:normal;font-variant-numeric:normal"/>
    <path d="m960.28326 761.87463-0.19631-4.29433q4.18391 0 4.18391 2.14717 0 2.14716-3.9876 2.14716zm1.09199-3.15633 0.20552 1.48461q1.32817 6e-3 1.32817-0.73924 0-0.74537-1.53369-0.74537z" style="font-feature-settings:normal;font-variant-caps:normal;font-variant-ligatures:normal;font-variant-numeric:normal"/>
    <path d="m965.59597 761.26116-0.21472 0.61347-1.20855-0.73003 1.51529-3.5643 1.15333-0.0797 1.81282 3.69006-1.43246 0.68402-0.31594-0.86193zm1.04904-1.34351-0.34355-1.1104-0.40489 1.22696z" style="font-feature-settings:normal;font-variant-caps:normal;font-variant-ligatures:normal;font-variant-numeric:normal"/>
    <path d="m969.11425 760.03421-1.44473-1.45701 1.22081-0.9969 0.8374 1.22695 0.69629-1.52755 1.62878 0.55826-1.7116 2.19625 0.1319 1.72386-1.49381-0.20244z" style="font-feature-settings:normal;font-variant-caps:normal;font-variant-ligatures:normal;font-variant-numeric:normal"/>
   </g>
   <g transform="scale(1.0000762 .99992383)" style="font-feature-settings:normal;font-variant-caps:normal;font-variant-ligatures:normal;font-variant-numeric:normal" aria-label="Sunday ">
    <path d="m942.66228 733.50619q-1.10732-0.15643-0.97849-1.37725t2.84652-1.44474l0.25766 1.38646q-1.34658-0.0307-1.44473 0.31901-0.0982 0.34968 1.03064 0.40182 1.12879 0.0522 1.10425 1.37419-0.0245 1.32204-2.97229 1.41099l-0.54292-1.45087q1.50915 0.16257 1.65945-0.1503 0.1503-0.31594-0.96009-0.46931z" style="font-feature-settings:normal;font-variant-caps:normal;font-variant-ligatures:normal;font-variant-numeric:normal"/>
    <path d="m946.02106 731.12284 1.63491 0.31901q-0.81592 2.50605 0.23312 2.53365 1.24536-9e-3 0.72084-2.595l1.49688-0.47238q0.68709 4.25753-2.21772 4.29433-2.93548-0.0276-1.86803-4.07961z" style="font-feature-settings:normal;font-variant-caps:normal;font-variant-ligatures:normal;font-variant-numeric:normal"/>
    <path d="m952.02392 733.05529 0.30367 1.75761-1.53062 0.38955-0.30981-4.02747 1.53676-0.26686 1.51529 2.00607 0.0184-2.00607 1.90178-0.19631-0.67483 4.49064-1.21775 0.17791z" style="font-feature-settings:normal;font-variant-caps:normal;font-variant-ligatures:normal;font-variant-numeric:normal"/>
    <path d="m955.81214 735.20245-0.19632-4.29433q4.18391 0 4.18391 2.14717 0 2.14716-3.98759 2.14716zm1.09198-3.15633 0.20552 1.48461q1.32817 6e-3 1.32817-0.73924 0-0.74537-1.53369-0.74537z" style="font-feature-settings:normal;font-variant-caps:normal;font-variant-ligatures:normal;font-variant-numeric:normal"/>
    <path d="m961.12484 734.58898-0.21472 0.61347-1.20855-0.73003 1.51529-3.5643 1.15333-0.0798 1.81283 3.69006-1.43247 0.68402-0.31594-0.86193zm1.04904-1.34351-0.34354-1.1104-0.4049 1.22696z" style="font-feature-settings:normal;font-variant-caps:normal;font-variant-ligatures:normal;font-variant-numeric:normal"/>
    <path d="m964.64312 733.36203-1.44473-1.45701 1.22081-0.9969 0.8374 1.22695 0.69629-1.52755 1.62878 0.55826-1.7116 2.19625 0.1319 1.72386-1.49381-0.20244z" style="font-feature-settings:normal;font-variant-caps:normal;font-variant-ligatures:normal;font-variant-numeric:normal"/>
   </g>
  </g>
  <g transform="matrix(.44521452 0 0 .44514672 782.5336 683.91916)">
   <path d="m354.20037 58.623457c0.58761-0.740855 1.6571-0.864226 2.39797-0.276609l4.55444 3.612343c3.71158-4.418215 6.61402-7.647549 7.10322-7.684233 1.53541-0.115171 5.47291 29.150097 4.14474 30.805512-1.32816 1.655421-30.50069 3.843047-30.70792 2.302781-0.0659-0.490054 2.45227-4.016887 5.95446-8.590105l-4.4601-3.53752c-0.74087-0.587618-0.86424-1.65711-0.27664-2.397965z" fill="#00c853"/>
   <rect transform="matrix(-.9811304 .19334719 .16996491 .98545011 0 0)" x="-350.50699" y="136.10188" width="3.9317675" height="14.258574" ry="1.9595118" fill="#a0ffc7"/>
  </g>
  <g fill="#fff">
   <ellipse cx="989.54376" cy="713.56049" rx="1.5764668" ry="1.5762267"/>
   <ellipse cx="1020.5474" cy="728.11658" rx="1.5764668" ry="1.5762267"/>
   <ellipse cx="1029.8417" cy="764.67682" rx="1.5764668" ry="1.5762267"/>
   <ellipse cx="1007.3614" cy="793.61432" rx="1.5764668" ry="1.5762267"/>
   <ellipse transform="scale(-1,1)" cx="-956.96478" cy="728.11658" rx="1.5764668" ry="1.5762267"/>
   <ellipse transform="scale(-1,1)" cx="-947.67059" cy="764.67682" rx="1.5764668" ry="1.5762267"/>
   <ellipse transform="scale(-1,1)" cx="-970.15082" cy="793.61432" rx="1.5764668" ry="1.5762267"/>
  </g>
  <g transform="matrix(.28876962 -.33881131 .33886292 .28872564 896.5503 752.55607)" fill="none" stroke="#ffc107" stroke-linecap="round" stroke-width="2.64583325">
   <g transform="rotate(-26.301235,280.87683,257.93987)">
    <path d="m311.01879 55.61079-10.7041-6.274815"/>
    <path d="m312.14537 43.254339-1.12658 12.356451"/>
   </g>
   <path d="m148.16068 32.100827s36.96218 2.270005 70.08762 31.100082"/>
  </g>
  <g transform="matrix(.88152804 -.47222101 .47229293 .88139381 0 0)" fill="#616161" stroke-width=".11778737" style="font-feature-settings:normal;font-variant-caps:normal;font-variant-ligatures:normal;font-variant-numeric:normal" aria-label="tomorrow">
   <path d="m500.39464 1069.5052q-0.14723-0.037-0.19018-0.1227-0.0491-0.086-0.0307-0.1718 0.0184-0.092 0.0797-0.1595 0.0614-0.068 0.12883-0.074h1.1472l-0.0245-1.914q0.0245-0.074 0.10429-0.1227 0.0798-0.049 0.17178-0.055 0.092-0.012 0.18404 0.025 0.092 0.031 0.14723 0.1227l0.0552 1.914 1.08585-0.024q0.11043 0.061 0.14723 0.1534 0.043 0.086 0.0368 0.1717-6e-3 0.08-0.0491 0.1473-0.0368 0.061-0.0859 0.074l-1.13493 0.024q-6e-3 0.3804 6e-3 0.6871 0.0184 0.3006 0.0368 0.5889 0.0245 0.2822 0.0368 0.589 0.0184 0.3006 0.0184 0.6748-0.1779 0.1227-0.36195 0.1166-0.18404-0.01-0.25152-0.1534l-0.0675-2.4907h-1.19014z" style="font-feature-settings:normal;font-variant-caps:normal;font-variant-ligatures:normal;font-variant-numeric:normal"/>
   <path d="m503.54177 1070.6524q0-0.5031 0.17791-0.908 0.17791-0.411 0.46624-0.7055 0.28834-0.2944 0.64415-0.4662 0.35582-0.1718 0.71777-0.2086 0.40489-0.055 0.76071 0.074 0.35582 0.1227 0.61348 0.3804 0.25766 0.2515 0.39875 0.6135 0.14724 0.3619 0.12883 0.7852-0.0552 0.5031-0.26379 0.865-0.20858 0.3558-0.53372 0.589-0.31901 0.2269-0.74231 0.3374-0.41716 0.1043-0.89567 0.1043-0.72391 0-1.09813-0.3375-0.37422-0.3374-0.37422-1.1226zm0.52759 0.184q0.0245 0.3681 0.23926 0.5583 0.22085 0.184 0.53372 0.2208 0.31901 0.037 0.68096-0.055 0.36809-0.098 0.68096-0.2944 0.31287-0.2025 0.52759-0.4847 0.21471-0.2883 0.22698-0.6319 6e-3 -0.1595-0.0429-0.3681-0.0491-0.2147-0.18404-0.411-0.12883-0.1963-0.36195-0.3497-0.22699-0.1533-0.58281-0.1963-0.12883 0.01-0.31287 0.049-0.18404 0.037-0.38649 0.1288-0.19631 0.092-0.39262 0.2454-0.19018 0.1534-0.33741 0.3742-0.14724 0.2209-0.23312 0.5215-0.0798 0.3006-0.0552 0.6932z" style="font-feature-settings:normal;font-variant-caps:normal;font-variant-ligatures:normal;font-variant-numeric:normal"/>
   <path d="m507.75022 1071.9836q-6e-3 -0.1656 0-0.4171 0.0123-0.2516 0.0184-0.546 0.0123-0.3006 0.0184-0.6319 0.0123-0.3313 0.0123-0.6564 6e-3 -0.3252-6e-3 -0.6258-0.0123-0.3067-0.0429-0.5521 0-0.068 0.0429-0.1104 0.0491-0.043 0.11656-0.067 0.0736-0.025 0.15337-0.031 0.0797-0.012 0.14723-0.012 0.0491 0 0.0613 0.1166 0.0123 0.1166 0.0123 0.2699 0 0.1473-6e-3 0.3006 0 0.1473 0.0184 0.2148 0.092-0.1902 0.29447-0.362 0.20245-0.1718 0.45397-0.2883 0.25153-0.1166 0.52759-0.1595 0.27607-0.049 0.52146 0.012 0.24539 0.055 0.42329 0.2332 0.18405 0.1779 0.24539 0.5091 0.19018-0.184 0.44171-0.3496 0.25766-0.1657 0.53372-0.2761 0.2822-0.1166 0.5644-0.1595 0.2822-0.049 0.52145 0.01 0.24539 0.055 0.41717 0.227 0.17791 0.1657 0.25152 0.4847l0.11656 2.9385q0 0.012-0.10429 0.037-0.0982 0.018-0.22085 0.025-0.12269 0.01-0.22699-0.01-0.10429-0.018-0.10429-0.08-0.0123-0.2209-6e-3 -0.5153 0.0123-0.3007 0.0184-0.6135 0.0123-0.319 0.0184-0.6319 6e-3 -0.319-6e-3 -0.5828-6e-3 -0.2638-0.0429-0.4478-0.0368-0.1841-0.10429-0.2454-0.20858-0.068-0.4417-0.068-0.23313 0-0.46011 0.098-0.22699 0.098-0.43557 0.3068-0.20245 0.2086-0.35582 0.5644-0.15336 0.3497-0.23925 0.865-0.0859 0.5092-0.0675 1.2147-0.0307 0.1042-0.14724 0.1349-0.11042 0.031-0.23312 0.018-0.12269-0.012-0.21471-0.055-0.0859-0.049-0.0675-0.098 0.0614-0.319 0.0859-0.6626 0.0307-0.3435 0.0307-0.6748 0-0.3374-0.0245-0.638t-0.0675-0.5338q-0.0429-0.2331-0.11042-0.3742-0.0614-0.1411-0.1411-0.1595-0.35582-0.031-0.60734 0.098-0.25153 0.1227-0.42944 0.3558-0.17177 0.2331-0.2822 0.546-0.10429 0.3129-0.1595 0.6625-0.0491 0.3436-0.0675 0.7055-0.0123 0.362 0 0.6871-0.0982 0.037-0.22085 0.086-0.11656 0.043-0.23312 0.043-0.0675 0-0.1043-0.025-0.0368-0.024-0.0859-0.1043z" style="font-feature-settings:normal;font-variant-caps:normal;font-variant-ligatures:normal;font-variant-numeric:normal"/>
   <path d="m513.78682 1070.6524q0-0.5031 0.17791-0.908 0.17791-0.411 0.46624-0.7055 0.28833-0.2944 0.64415-0.4662t0.71777-0.2086q0.40489-0.055 0.76071 0.074 0.35581 0.1227 0.61347 0.3804 0.25766 0.2515 0.39876 0.6135 0.14724 0.3619 0.12883 0.7852-0.0552 0.5031-0.26379 0.865-0.20858 0.3558-0.53373 0.589-0.319 0.2269-0.7423 0.3374-0.41717 0.1043-0.89568 0.1043-0.7239 0-1.09812-0.3375-0.37422-0.3374-0.37422-1.1226zm0.52759 0.184q0.0245 0.3681 0.23926 0.5583 0.22085 0.184 0.53372 0.2208 0.31901 0.037 0.68096-0.055 0.36808-0.098 0.68096-0.2944 0.31287-0.2025 0.52759-0.4847 0.21471-0.2883 0.22698-0.6319 6e-3 -0.1595-0.0429-0.3681-0.0491-0.2147-0.18404-0.411-0.12883-0.1963-0.36196-0.3497-0.22698-0.1533-0.5828-0.1963-0.12883 0.01-0.31287 0.049-0.18404 0.037-0.38649 0.1288-0.19631 0.092-0.39262 0.2454-0.19018 0.1534-0.33742 0.3742-0.14723 0.2209-0.23312 0.5215-0.0798 0.3006-0.0552 0.6932z" style="font-feature-settings:normal;font-variant-caps:normal;font-variant-ligatures:normal;font-variant-numeric:normal"/>
   <path d="m517.97686 1068.4561q0.0123-0.1165 0.0982-0.1411 0.0859-0.031 0.18404-0.018 0.1595 0.018 0.23926 0.1657 0.0797 0.1411 0.11042 0.319 0.0307 0.1779 0.0307 0.3497 0 0.1656 6e-3 0.2392 0.17177-0.1472 0.38035-0.3374 0.21472-0.1902 0.51532-0.3435 0.30674-0.1595 0.73004-0.2393 0.42943-0.086 1.03064-0.012 0.14723 0.037 0.21472 0.1411 0.0736 0.1043 0.0736 0.2209 6e-3 0.1104-0.0613 0.2086-0.0614 0.092-0.17791 0.1043-0.14724-0.1105-0.39263-0.1289-0.24539-0.018-0.53986 0.043-0.28833 0.061-0.58893 0.1963-0.30061 0.135-0.55826 0.3374-0.25153 0.2024-0.43557 0.4662-0.17791 0.2638-0.22085 0.5767v1.3435q-0.0123 0.031-0.0982 0.092-0.0859 0.055-0.19631 0.08-0.10429 0.031-0.21472 0-0.10429-0.031-0.1595-0.1718 0-0.043 0-0.2699 0-0.2331 0-0.5583 6e-3 -0.3312 0.0123-0.7177 6e-3 -0.3927 6e-3 -0.7669 6e-3 -0.3742 6e-3 -0.6871 6e-3 -0.3129 6e-3 -0.4908z" style="font-feature-settings:normal;font-variant-caps:normal;font-variant-ligatures:normal;font-variant-numeric:normal"/>
   <path d="m521.89084 1068.4561q0.0123-0.1165 0.0981-0.1411 0.0859-0.031 0.18405-0.018 0.1595 0.018 0.23925 0.1657 0.0797 0.1411 0.11043 0.319 0.0307 0.1779 0.0307 0.3497 0 0.1656 6e-3 0.2392 0.17177-0.1472 0.38035-0.3374 0.21472-0.1902 0.51532-0.3435 0.30674-0.1595 0.73004-0.2393 0.42943-0.086 1.03064-0.012 0.14723 0.037 0.21471 0.1411 0.0736 0.1043 0.0736 0.2209 6e-3 0.1104-0.0613 0.2086-0.0613 0.092-0.1779 0.1043-0.14724-0.1105-0.39263-0.1289-0.24539-0.018-0.53986 0.043-0.28833 0.061-0.58894 0.1963-0.3006 0.135-0.55826 0.3374-0.25152 0.2024-0.43557 0.4662-0.1779 0.2638-0.22085 0.5767v1.3435q-0.0123 0.031-0.0982 0.092-0.0859 0.055-0.19632 0.08-0.10429 0.031-0.21471 0-0.10429-0.031-0.15951-0.1718 0-0.043 0-0.2699 0-0.2331 0-0.5583 6e-3 -0.3312 0.0123-0.7177 6e-3 -0.3927 6e-3 -0.7669 6e-3 -0.3742 6e-3 -0.6871 6e-3 -0.3129 6e-3 -0.4908z" style="font-feature-settings:normal;font-variant-caps:normal;font-variant-ligatures:normal;font-variant-numeric:normal"/>
   <path d="m525.25882 1070.6524q0-0.5031 0.17791-0.908 0.17791-0.411 0.46624-0.7055 0.28833-0.2944 0.64415-0.4662t0.71777-0.2086q0.40489-0.055 0.76071 0.074 0.35581 0.1227 0.61347 0.3804 0.25766 0.2515 0.39876 0.6135 0.14724 0.3619 0.12883 0.7852-0.0552 0.5031-0.26379 0.865-0.20859 0.3558-0.53373 0.589-0.31901 0.2269-0.7423 0.3374-0.41717 0.1043-0.89568 0.1043-0.7239 0-1.09812-0.3375-0.37422-0.3374-0.37422-1.1226zm0.52759 0.184q0.0245 0.3681 0.23925 0.5583 0.22086 0.184 0.53373 0.2208 0.31901 0.037 0.68096-0.055 0.36808-0.098 0.68096-0.2944 0.31287-0.2025 0.52758-0.4847 0.21472-0.2883 0.22699-0.6319 6e-3 -0.1595-0.0429-0.3681-0.0491-0.2147-0.18405-0.411-0.12883-0.1963-0.36195-0.3497-0.22698-0.1533-0.5828-0.1963-0.12883 0.01-0.31287 0.049-0.18404 0.037-0.38649 0.1288-0.19631 0.092-0.39263 0.2454-0.19017 0.1534-0.33741 0.3742-0.14723 0.2209-0.23312 0.5215-0.0797 0.3006-0.0552 0.6932z" style="font-feature-settings:normal;font-variant-caps:normal;font-variant-ligatures:normal;font-variant-numeric:normal"/>
   <path d="m531.93344 1069.8978q-0.16564 0.5583-0.28834 1.0306-0.11656 0.4663-0.23925 0.7669-0.11656 0.3006-0.26993 0.4049-0.14723 0.098-0.38036-0.08-0.12269-0.1349-0.27606-0.4049-0.15337-0.276-0.31287-0.6196-0.15337-0.3435-0.30061-0.7177-0.14723-0.3743-0.26379-0.7055-0.11043-0.3313-0.18404-0.5828-0.0675-0.2577-0.0675-0.362 0-0.1411 0.0614-0.2086 0.0675-0.067 0.15337-0.067 0.092-0.01 0.17791 0.049 0.0859 0.049 0.12269 0.1473 0.0552 0.08 0.14724 0.3496 0.092 0.27 0.22085 0.6503 0.13496 0.3804 0.30674 0.8282 0.17177 0.4479 0.38649 0.8896 0.0675-0.1411 0.13496-0.3681 0.0736-0.227 0.14724-0.4908 0.0736-0.2638 0.14723-0.5276 0.0736-0.2699 0.15337-0.4846 0.0859-0.2209 0.17791-0.3559 0.092-0.1411 0.19018-0.1472 0.0675-0.043 0.18404 0.098 0.12269 0.1349 0.26993 0.3742 0.14723 0.2392 0.30674 0.5398 0.16563 0.3006 0.319 0.5828t0.27607 0.5092q0.12883 0.227 0.20244 0.319l0.9693-2.8342q0.0491-0.068 0.12883-0.092 0.0797-0.025 0.15337-0.01 0.0797 0.018 0.13496 0.086 0.0614 0.068 0.0614 0.1841-0.0797 0.2699-0.17791 0.6441-0.0982 0.3681-0.20858 0.7668-0.11043 0.3927-0.22699 0.773-0.11656 0.3804-0.24539 0.6749-0.12269 0.2944-0.25152 0.4662-0.12883 0.1656-0.25766 0.135-0.0736 0.037-0.17791-0.055-0.10429-0.092-0.23312-0.2699-0.1227-0.1779-0.26993-0.4171-0.1411-0.2454-0.29447-0.5031-0.14723-0.2577-0.30674-0.5092-0.15337-0.2576-0.3006-0.4601z" style="font-feature-settings:normal;font-variant-caps:normal;font-variant-ligatures:normal;font-variant-numeric:normal"/>
  </g>
 </g>
</svg>
