<?xml version="1.0" encoding="UTF-8"?>
<!-- Created with Inkscape (http://www.inkscape.org/) -->
<svg width="512" height="512" version="1.1" viewBox="0 0 135.46667 135.46667" xmlns="http://www.w3.org/2000/svg" xmlns:cc="http://creativecommons.org/ns#" xmlns:dc="http://purl.org/dc/elements/1.1/" xmlns:rdf="http://www.w3.org/1999/02/22-rdf-syntax-ns#">
 <metadata>
  <rdf:RDF>
   <cc:Work rdf:about="">
    <dc:format>image/svg+xml</dc:format>
    <dc:type rdf:resource="http://purl.org/dc/dcmitype/StillImage"/>
    <dc:title/>
   </cc:Work>
  </rdf:RDF>
 </metadata>
 <g transform="translate(-460.7149,-686.63293)">
  <rect x="460.7149" y="686.63293" width="135.46667" height="135.46667" ry="2.061909" opacity="0" stroke-width=".82785952"/>
  <g transform="matrix(.40322777 .1887127 .18874145 -.40316637 309.65126 730.54467)">
   <path transform="scale(.26458333)" d="m1729.8105 73.541016c-2.733 0-4.9335 2.200566-4.9335 4.933593v14.388672c-10.1526 0.470168-17.3718 1.077655-18.0118 1.783203-2.3979 2.643719 45.5084 51.537326 50.4278 51.466796 4.9194-0.0705 50.4804-50.301768 47.959-52.874999-0.6711-0.684879-7.8758-1.085882-18-1.265625v-13.498047c0-2.733027-2.1987-4.933593-4.9317-4.933593z" fill="#2196f3"/>
   <rect transform="rotate(-43.436588)" x="312.67651" y="335.33032" width="2.7792709" height="8.6303663" ry="1.3896354" fill="#c8e5fc"/>
  </g>
  <g transform="matrix(.44521452 0 0 .44514672 321.8188 683.91916)">
   <path d="m535.90319 293.57605c0.85642-0.40087 1.22316-1.41307 0.82229-2.2695l-2.46436-5.26487c5.15521-2.59235 8.96695-4.67161 9.11549-5.13916 0.46624-1.46743-27.10156-12.04932-29.0187-11.13882-1.91714 0.91049-10.77495 28.79169-9.32403 29.34862 0.46163 0.17719 4.47423-1.45957 9.73196-3.81241l2.41332 5.15581c0.40087 0.85644 1.41306 1.22318 2.26948 0.82231z" fill="#00c853"/>
   <rect transform="matrix(-.41444888 .91007259 -.91966936 -.3926936 0 0)" x="48.235729" y="-599.49005" width="3.9317675" height="14.258574" ry="1.9595118" fill="#a0ffc7"/>
  </g>
  <path d="m527.9049 711.7134a44.046681 44.039973 0 0 0 -15.0528 2.70983l3.4388 0.2979-2.1026 3.0834a40.394028 40.387877 0 0 1 13.7166 -2.43884 40.394028 40.387877 0 0 1 40.394 40.38787 40.394028 40.387877 0 0 1 -40.394 40.38787 40.394028 40.387877 0 0 1 -40.394 -40.38787 40.394028 40.387877 0 0 1 19.0002 -34.23257l-1.5613-3.28975a44.046681 44.039973 0 0 0 -21.0915 37.52232 44.046681 44.039973 0 0 0 44.0466 44.03992 44.046681 44.039973 0 0 0 44.0464 -44.03992 44.046681 44.039973 0 0 0 -44.0464 -44.04016z" fill="#ff5252" stroke-width=".44518062"/>
  <path d="m500.3558 717.0039 12.8724-0.88282-8.1518 10.13913z" fill="#ff5252" stroke-width=".44518062"/>
  <ellipse cx="525.61554" cy="752.32404" rx="55.424374" ry="50.397133" opacity="0" stroke-width="2.35574746"/>
  <g fill="#1565c0" stroke="#fff" stroke-width=".11778737">
   <g transform="scale(1.0000762 .99992383)" style="font-feature-settings:normal;font-variant-caps:normal;font-variant-ligatures:normal;font-variant-numeric:normal" aria-label="Monday">
    <path d="m523.37597 706.82237 0.25766 4.04587-1.56436 0.1319-0.0828-2.07048-0.31594 1.42326-1.40486 0.19631-0.57053-1.46927 0.20551 1.74227-1.43247 0.29447 0.19632-4.29433 1.40792-0.18711 0.77912 2.4539 0.94475-2.38029z" style="font-feature-settings:normal;font-variant-caps:normal;font-variant-ligatures:normal;font-variant-numeric:normal"/>
    <path d="m526.29305 711.1167q-1.03678 0-1.76988-0.62881-0.73004-0.62882-0.73004-1.51836t0.73004-1.51835q0.7331-0.62881 1.76988-0.62881 1.03371 0 1.76374 0.62881 0.73311 0.62881 0.73311 1.51835t-0.73311 1.51836q-0.73003 0.62881-1.76374 0.62881zm-0.17177-1.34045q0.4417 0 0.75457-0.26993 0.31594-0.26992 0.31594-0.65028 0-0.38035-0.31594-0.65028-0.31287-0.26993-0.75457-0.26993-0.44477 0-0.76071 0.26993-0.31288 0.26993-0.31288 0.65028 0 0.38036 0.31288 0.65028 0.31594 0.26993 0.76071 0.26993z" style="font-feature-settings:normal;font-variant-caps:normal;font-variant-ligatures:normal;font-variant-numeric:normal"/>
    <path d="m530.48309 708.96953 0.30367 1.75761-1.53062 0.38956-0.30981-4.02747 1.53676-0.26686 1.51529 2.00606 0.0184-2.00606 1.90177-0.19631-0.67482 4.49064-1.21775 0.17791z" style="font-feature-settings:normal;font-variant-caps:normal;font-variant-ligatures:normal;font-variant-numeric:normal"/>
    <path d="m534.2713 711.1167-0.19631-4.29433q4.18391 0 4.18391 2.14716 0 2.14717-3.9876 2.14717zm1.09199-3.15633 0.20551 1.48461q1.32818 6e-3 1.32818-0.73924 0-0.74537-1.53369-0.74537z" style="font-feature-settings:normal;font-variant-caps:normal;font-variant-ligatures:normal;font-variant-numeric:normal"/>
    <path d="m539.58401 710.50322-0.21472 0.61348-1.20855-0.73004 1.51529-3.56429 1.15333-0.0797 1.81282 3.69005-1.43246 0.68403-0.31594-0.86193zm1.04904-1.34351-0.34355-1.11039-0.40489 1.22695z" style="font-feature-settings:normal;font-variant-caps:normal;font-variant-ligatures:normal;font-variant-numeric:normal"/>
    <path d="m543.10229 709.27627-1.44474-1.457 1.22082-0.9969 0.8374 1.22695 0.69629-1.52756 1.62878 0.55827-1.7116 2.19624 0.1319 1.72387-1.49381-0.20245z" style="font-feature-settings:normal;font-variant-caps:normal;font-variant-ligatures:normal;font-variant-numeric:normal"/>
   </g>
   <g transform="scale(1.0000762 .99992383)" style="font-feature-settings:normal;font-variant-caps:normal;font-variant-ligatures:normal;font-variant-numeric:normal" aria-label="Tuesday">
    <path d="m547.4432 732.34056 0.15031 2.61341-1.66252 0.42943 0.28526-3.12259-1.25456-0.10736 0.0982-1.13493 3.59804-0.21472 0.13189 1.67786z" style="font-feature-settings:normal;font-variant-caps:normal;font-variant-ligatures:normal;font-variant-numeric:normal"/>
    <path d="m549.34191 731.24857 1.63492 0.31901q-0.81593 2.50605 0.23312 2.53365 1.24535-9e-3 0.72083-2.595l1.49688-0.47238q0.68709 4.25753-2.21771 4.29434-2.93549-0.0276-1.86804-4.07962z" style="font-feature-settings:normal;font-variant-caps:normal;font-variant-ligatures:normal;font-variant-numeric:normal"/>
    <path d="m556.86313 730.48173 0.0797 1.62571-1.90791 0.20551 0.0245 0.37115 1.25149-0.11656 0.11043 1.1104-1.30671 0.0951 0.0215 0.30061 1.8527-0.1411 0.27606 1.39566-3.65324 0.12576 0.37115-4.42623z" style="font-feature-settings:normal;font-variant-caps:normal;font-variant-ligatures:normal;font-variant-numeric:normal"/>
    <path d="m558.21584 733.63193q-1.10732-0.15644-0.97849-1.37726t2.84653-1.44473l0.25766 1.38645q-1.34658-0.0307-1.44474 0.31901-0.0982 0.34968 1.03064 0.40183 1.1288 0.0521 1.10426 1.37418-0.0245 1.32204-2.97229 1.411l-0.54293-1.45087q1.50915 0.16257 1.65945-0.15031 0.1503-0.31594-0.96009-0.4693z" style="font-feature-settings:normal;font-variant-caps:normal;font-variant-ligatures:normal;font-variant-numeric:normal"/>
    <path d="m561.40285 735.32819-0.19631-4.29434q4.1839 0 4.1839 2.14717t-3.98759 2.14717zm1.09199-3.15634 0.20551 1.48461q1.32818 6e-3 1.32818-0.73923 0-0.74538-1.53369-0.74538z" style="font-feature-settings:normal;font-variant-caps:normal;font-variant-ligatures:normal;font-variant-numeric:normal"/>
    <path d="m566.71555 734.71471-0.21472 0.61348-1.20854-0.73004 1.51528-3.5643 1.15334-0.0797 1.81282 3.69006-1.43247 0.68403-0.31594-0.86194zm1.04905-1.34351-0.34355-1.11039-0.4049 1.22695z" style="font-feature-settings:normal;font-variant-caps:normal;font-variant-ligatures:normal;font-variant-numeric:normal"/>
    <path d="m570.23383 733.48776-1.44473-1.45701 1.22082-0.9969 0.83739 1.22696 0.6963-1.52756 1.62877 0.55826-1.71159 2.19625 0.13189 1.72387-1.49381-0.20245z" style="font-feature-settings:normal;font-variant-caps:normal;font-variant-ligatures:normal;font-variant-numeric:normal"/>
   </g>
   <g transform="scale(1.0000762 .99992383)" style="font-feature-settings:normal;font-variant-caps:normal;font-variant-ligatures:normal;font-variant-numeric:normal" aria-label="Wednesday">
    <path d="m542.68414 759.94219-0.61347 2.14717-1.21162 0.1595-1.82509-3.61031 1.50302-0.84353 0.92021 2.45391 0.72083-1.93859 1.22696 0.16871 0.50611 1.76988 0.73617-2.54286 1.66866 0.91408-1.79135 3.46921-1.37112-0.29447z" style="font-feature-settings:normal;font-variant-caps:normal;font-variant-ligatures:normal;font-variant-numeric:normal"/>
    <path d="m549.54894 757.2429 0.0797 1.62571-1.90791 0.20551 0.0245 0.37115 1.25149-0.11656 0.11042 1.1104-1.3067 0.0951 0.0215 0.30061 1.8527-0.1411 0.27606 1.39566-3.65325 0.12576 0.37116-4.42623z" style="font-feature-settings:normal;font-variant-caps:normal;font-variant-ligatures:normal;font-variant-numeric:normal"/>
    <path d="m550.29738 762.08936-0.19631-4.29434q4.1839 0 4.1839 2.14717t-3.98759 2.14717zm1.09199-3.15634 0.20551 1.48461q1.32818 6e-3 1.32818-0.73923 0-0.74538-1.53369-0.74538z" style="font-feature-settings:normal;font-variant-caps:normal;font-variant-ligatures:normal;font-variant-numeric:normal"/>
    <path d="m555.98123 759.94219 0.30367 1.75761-1.53062 0.38956-0.30981-4.02747 1.53676-0.26687 1.51529 2.00607 0.0184-2.00607 1.90178-0.19631-0.67483 4.49065-1.21775 0.1779z" style="font-feature-settings:normal;font-variant-caps:normal;font-variant-ligatures:normal;font-variant-numeric:normal"/>
    <path d="m562.55463 757.2429 0.0797 1.62571-1.90791 0.20551 0.0245 0.37115 1.25149-0.11656 0.11042 1.1104-1.3067 0.0951 0.0215 0.30061 1.8527-0.1411 0.27606 1.39566-3.65324 0.12576 0.37115-4.42623z" style="font-feature-settings:normal;font-variant-caps:normal;font-variant-ligatures:normal;font-variant-numeric:normal"/>
    <path d="m563.90734 760.39309q-1.10732-0.15643-0.97849-1.37725t2.84653-1.44473l0.25766 1.38645q-1.34658-0.0307-1.44474 0.31901-0.0982 0.34968 1.03064 0.40183 1.1288 0.0521 1.10426 1.37418-0.0245 1.32204-2.97229 1.411l-0.54293-1.45087q1.50915 0.16257 1.65945-0.15031 0.1503-0.31594-0.96009-0.46931z" style="font-feature-settings:normal;font-variant-caps:normal;font-variant-ligatures:normal;font-variant-numeric:normal"/>
    <path d="m567.09435 762.08936-0.19631-4.29434q4.1839 0 4.1839 2.14717t-3.98759 2.14717zm1.09199-3.15634 0.20551 1.48461q1.32818 6e-3 1.32818-0.73923 0-0.74538-1.53369-0.74538z" style="font-feature-settings:normal;font-variant-caps:normal;font-variant-ligatures:normal;font-variant-numeric:normal"/>
    <path d="m572.40705 761.47588-0.21472 0.61348-1.20854-0.73004 1.51528-3.5643 1.15334-0.0797 1.81282 3.69006-1.43247 0.68403-0.31594-0.86194zm1.04904-1.34351-0.34354-1.11039-0.4049 1.22695z" style="font-feature-settings:normal;font-variant-caps:normal;font-variant-ligatures:normal;font-variant-numeric:normal"/>
    <path d="m575.92534 760.24893-1.44474-1.45701 1.22082-0.9969 0.83739 1.22696 0.6963-1.52756 1.62878 0.55826-1.7116 2.19625 0.13189 1.72387-1.49381-0.20245z" style="font-feature-settings:normal;font-variant-caps:normal;font-variant-ligatures:normal;font-variant-numeric:normal"/>
   </g>
   <g transform="scale(1.0000762 .99992383)" style="font-feature-settings:normal;font-variant-caps:normal;font-variant-ligatures:normal;font-variant-numeric:normal" aria-label="Thursday">
    <path d="m532.06979 787.95134 0.1503 2.6134-1.66252 0.42944 0.28527-3.12259-1.25456-0.10736 0.0982-1.13493 3.59803-0.21472 0.1319 1.67786z" style="font-feature-settings:normal;font-variant-caps:normal;font-variant-ligatures:normal;font-variant-numeric:normal"/>
    <path d="m535.17398 789.64453 0.11043 1.03677-1.17481 0.20552-0.53373-3.39866 1.30671-0.55826 0.14723 1.47234 1.17788-0.13496 0.0184-1.34045 2.04594 0.20552-0.78218 3.76981-1.3159-0.38956 0.0153-0.9785z" style="font-feature-settings:normal;font-variant-caps:normal;font-variant-ligatures:normal;font-variant-numeric:normal"/>
    <path d="m538.7168 786.85935 1.63492 0.31901q-0.81593 2.50605 0.23312 2.53365 1.24535-9e-3 0.72083-2.595l1.49688-0.47238q0.6871 4.25753-2.21771 4.29433-2.93549-0.0276-1.86804-4.07961z" style="font-feature-settings:normal;font-variant-caps:normal;font-variant-ligatures:normal;font-variant-numeric:normal"/>
    <path d="m544.58777 787.65687 0.0429 0.82819q1.53369 0 1.53369-0.30674 0-0.30673-1.57663-0.52145zm0.20551 3.03364-1.70853 0.23925 0.35582-4.5796q3.95078 0.29447 4.08268 1.58277 0.13496 1.28523-1.35885 1.77908l1.22695 0.66562-1.25762 1.11346-1.4386-1.77908z" style="font-feature-settings:normal;font-variant-caps:normal;font-variant-ligatures:normal;font-variant-numeric:normal"/>
    <path d="m548.91584 789.2427q-1.10732-0.15643-0.97849-1.37725 0.12882-1.22082 2.84652-1.44474l0.25766 1.38646q-1.34658-0.0307-1.44473 0.31901-0.0982 0.34968 1.03064 0.40182 1.12879 0.0521 1.10425 1.37419-0.0245 1.32204-2.97229 1.411l-0.54292-1.45088q1.50915 0.16258 1.65945-0.1503 0.1503-0.31594-0.96009-0.46931z" style="font-feature-settings:normal;font-variant-caps:normal;font-variant-ligatures:normal;font-variant-numeric:normal"/>
    <path d="m552.10285 790.93896-0.19631-4.29433q4.1839 0 4.1839 2.14717 0 2.14716-3.98759 2.14716zm1.09199-3.15633 0.20551 1.48461q1.32817 6e-3 1.32817-0.73924 0-0.74537-1.53368-0.74537z" style="font-feature-settings:normal;font-variant-caps:normal;font-variant-ligatures:normal;font-variant-numeric:normal"/>
    <path d="m557.41555 790.32549-0.21472 0.61347-1.20855-0.73003 1.51529-3.5643 1.15333-0.0797 1.81283 3.69006-1.43247 0.68402-0.31594-0.86193zm1.04904-1.34351-0.34354-1.11039-0.4049 1.22695z" style="font-feature-settings:normal;font-variant-caps:normal;font-variant-ligatures:normal;font-variant-numeric:normal"/>
    <path d="m560.93383 789.09854-1.44473-1.45701 1.22081-0.9969 0.8374 1.22696 0.69629-1.52756 1.62878 0.55826-1.7116 2.19625 0.1319 1.72386-1.49381-0.20244z" style="font-feature-settings:normal;font-variant-caps:normal;font-variant-ligatures:normal;font-variant-numeric:normal"/>
   </g>
   <g transform="scale(1.0000762 .99992383)" style="font-feature-settings:normal;font-variant-caps:normal;font-variant-ligatures:normal;font-variant-numeric:normal" aria-label="Friday">
    <path d="m496.12052 786.25813-0.26073 1.77908-1.49381-0.0797 0.0613 0.30674 1.18708 0.13496-0.16257 1.27603-0.81899-0.18404 0.27606 1.33124-1.50301 0.20245-0.33741-4.02747z" style="font-feature-settings:normal;font-variant-caps:normal;font-variant-ligatures:normal;font-variant-numeric:normal"/>
    <path d="m497.57752 787.74275 0.043 0.82819q1.53369 0 1.53369-0.30674t-1.57664-0.52145zm0.20552 3.03363-1.70853 0.23926 0.35581-4.5796q3.95079 0.29447 4.08269 1.58277 0.13496 1.28523-1.35885 1.77908l1.22695 0.66562-1.25763 1.11346-1.4386-1.77908z" style="font-feature-settings:normal;font-variant-caps:normal;font-variant-ligatures:normal;font-variant-numeric:normal"/>
    <path d="m502.22154 786.75505 0.31287 4.13789-1.73614 0.32821 0.0797-4.35874z" style="font-feature-settings:normal;font-variant-caps:normal;font-variant-ligatures:normal;font-variant-numeric:normal"/>
    <path d="m502.88409 791.02484-0.19631-4.29433q4.1839 0 4.1839 2.14717 0 2.14716-3.98759 2.14716zm1.09199-3.15633 0.20551 1.48461q1.32818 6e-3 1.32818-0.73924 0-0.74537-1.53369-0.74537z" style="font-feature-settings:normal;font-variant-caps:normal;font-variant-ligatures:normal;font-variant-numeric:normal"/>
    <path d="m508.19679 790.41137-0.21472 0.61347-1.20854-0.73004 1.51528-3.56429 1.15334-0.0797 1.81282 3.69006-1.43247 0.68402-0.31594-0.86193zm1.04904-1.34352-0.34354-1.11039-0.4049 1.22695z" style="font-feature-settings:normal;font-variant-caps:normal;font-variant-ligatures:normal;font-variant-numeric:normal"/>
    <path d="m511.71508 789.18441-1.44474-1.457 1.22082-0.9969 0.83739 1.22695 0.6963-1.52755 1.62877 0.55826-1.71159 2.19624 0.13189 1.72387-1.49381-0.20245z" style="font-feature-settings:normal;font-variant-caps:normal;font-variant-ligatures:normal;font-variant-numeric:normal"/>
   </g>
   <g transform="scale(1.0000762 .99992383)" style="font-feature-settings:normal;font-variant-caps:normal;font-variant-ligatures:normal;font-variant-numeric:normal" aria-label="Saturday">
    <path d="m479.25148 760.17837q-1.10732-0.15643-0.97849-1.37725t2.84653-1.44474l0.25766 1.38646q-1.34658-0.0307-1.44474 0.31901-0.0981 0.34968 1.03064 0.40182 1.1288 0.0521 1.10426 1.37419-0.0245 1.32204-2.97229 1.41099l-0.54293-1.45087q1.50915 0.16257 1.65945-0.1503 0.1503-0.31594-0.96009-0.46931z" style="font-feature-settings:normal;font-variant-caps:normal;font-variant-ligatures:normal;font-variant-numeric:normal"/>
    <path d="m483.66544 761.26116-0.21471 0.61347-1.20855-0.73003 1.51528-3.5643 1.15334-0.0797 1.81282 3.69006-1.43247 0.68402-0.31594-0.86193zm1.04905-1.34351-0.34355-1.1104-0.40489 1.22696z" style="font-feature-settings:normal;font-variant-caps:normal;font-variant-ligatures:normal;font-variant-numeric:normal"/>
    <path d="m488.41681 758.88701 0.1503 2.6134-1.66251 0.42944 0.28526-3.1226-1.25456-0.10735 0.0982-1.13493 3.59804-0.21472 0.13189 1.67786z" style="font-feature-settings:normal;font-variant-caps:normal;font-variant-ligatures:normal;font-variant-numeric:normal"/>
    <path d="m490.31552 757.79502 1.63491 0.31901q-0.81592 2.50605 0.23313 2.53365 1.24535-9e-3 0.72083-2.595l1.49688-0.47238q0.68709 4.25753-2.21771 4.29433-2.93549-0.0276-1.86804-4.07961z" style="font-feature-settings:normal;font-variant-caps:normal;font-variant-ligatures:normal;font-variant-numeric:normal"/>
    <path d="m496.18649 758.59254 0.0429 0.82819q1.53369 0 1.53369-0.30674t-1.57663-0.52145zm0.20551 3.03364-1.70853 0.23925 0.35582-4.5796q3.95078 0.29447 4.08268 1.58277 0.13496 1.28523-1.35885 1.77908l1.22695 0.66562-1.25763 1.11346-1.4386-1.77908z" style="font-feature-settings:normal;font-variant-caps:normal;font-variant-ligatures:normal;font-variant-numeric:normal"/>
    <path d="m499.60355 761.87463-0.19632-4.29433q4.18391 0 4.18391 2.14717 0 2.14716-3.98759 2.14716zm1.09198-3.15633 0.20552 1.48461q1.32817 6e-3 1.32817-0.73924 0-0.74537-1.53369-0.74537z" style="font-feature-settings:normal;font-variant-caps:normal;font-variant-ligatures:normal;font-variant-numeric:normal"/>
    <path d="m504.91625 761.26116-0.21472 0.61347-1.20855-0.73003 1.51529-3.5643 1.15333-0.0797 1.81283 3.69006-1.43247 0.68402-0.31594-0.86193zm1.04904-1.34351-0.34354-1.1104-0.4049 1.22696z" style="font-feature-settings:normal;font-variant-caps:normal;font-variant-ligatures:normal;font-variant-numeric:normal"/>
    <path d="m508.43453 760.03421-1.44473-1.45701 1.22081-0.9969 0.8374 1.22695 0.69629-1.52755 1.62878 0.55826-1.7116 2.19625 0.1319 1.72386-1.49381-0.20244z" style="font-feature-settings:normal;font-variant-caps:normal;font-variant-ligatures:normal;font-variant-numeric:normal"/>
   </g>
   <g transform="scale(1.0000762 .99992383)" style="font-feature-settings:normal;font-variant-caps:normal;font-variant-ligatures:normal;font-variant-numeric:normal" aria-label="Sunday ">
    <path d="m481.98256 733.50619q-1.10732-0.15643-0.97849-1.37725t2.84653-1.44474l0.25766 1.38646q-1.34658-0.0307-1.44474 0.31901-0.0982 0.34968 1.03064 0.40182 1.1288 0.0522 1.10426 1.37419-0.0245 1.32204-2.97229 1.41099l-0.54293-1.45087q1.50915 0.16257 1.65945-0.1503 0.1503-0.31594-0.96009-0.46931z" style="font-feature-settings:normal;font-variant-caps:normal;font-variant-ligatures:normal;font-variant-numeric:normal"/>
    <path d="m485.34134 731.12284 1.63492 0.31901q-0.81593 2.50605 0.23312 2.53365 1.24535-9e-3 0.72083-2.595l1.49688-0.47238q0.6871 4.25753-2.21771 4.29433-2.93549-0.0276-1.86804-4.07961z" style="font-feature-settings:normal;font-variant-caps:normal;font-variant-ligatures:normal;font-variant-numeric:normal"/>
    <path d="m491.3442 733.05529 0.30367 1.75761-1.53062 0.38955-0.3098-4.02747 1.53675-0.26686 1.51529 2.00607 0.0184-2.00607 1.90178-0.19631-0.67482 4.49064-1.21775 0.17791z" style="font-feature-settings:normal;font-variant-caps:normal;font-variant-ligatures:normal;font-variant-numeric:normal"/>
    <path d="m495.13242 735.20245-0.19631-4.29433q4.1839 0 4.1839 2.14717 0 2.14716-3.98759 2.14716zm1.09199-3.15633 0.20551 1.48461q1.32818 6e-3 1.32818-0.73924 0-0.74537-1.53369-0.74537z" style="font-feature-settings:normal;font-variant-caps:normal;font-variant-ligatures:normal;font-variant-numeric:normal"/>
    <path d="m500.44512 734.58898-0.21472 0.61347-1.20854-0.73003 1.51528-3.5643 1.15334-0.0798 1.81282 3.69006-1.43247 0.68402-0.31594-0.86193zm1.04904-1.34351-0.34354-1.1104-0.4049 1.22696z" style="font-feature-settings:normal;font-variant-caps:normal;font-variant-ligatures:normal;font-variant-numeric:normal"/>
    <path d="m503.9634 733.36203-1.44473-1.45701 1.22082-0.9969 0.83739 1.22695 0.6963-1.52755 1.62877 0.55826-1.71159 2.19625 0.13189 1.72386-1.49381-0.20244z" style="font-feature-settings:normal;font-variant-caps:normal;font-variant-ligatures:normal;font-variant-numeric:normal"/>
   </g>
  </g>
  <g fill="#fff">
   <ellipse cx="528.82892" cy="713.56049" rx="1.5764668" ry="1.5762267"/>
   <ellipse cx="559.83258" cy="728.11658" rx="1.5764668" ry="1.5762267"/>
   <ellipse cx="569.12677" cy="764.67682" rx="1.5764668" ry="1.5762267"/>
   <ellipse cx="546.64655" cy="793.61432" rx="1.5764668" ry="1.5762267"/>
   <ellipse transform="scale(-1,1)" cx="-496.25006" cy="728.11658" rx="1.5764668" ry="1.5762267"/>
   <ellipse transform="scale(-1,1)" cx="-486.59839" cy="764.67682" rx="1.5764668" ry="1.5762267"/>
   <ellipse transform="scale(-1,1)" cx="-509.4361" cy="793.61432" rx="1.5764668" ry="1.5762267"/>
  </g>
  <g transform="matrix(-.40835536 .17734793 -.17737494 -.40829317 611.1693 795.93937)" fill="none" stroke="#ffc107" stroke-linecap="round" stroke-width="2.64583325">
   <g transform="rotate(-26.301235,280.87683,257.93987)">
    <path d="m311.01879 55.61079-10.7041-6.274815"/>
    <path d="m312.14537 43.254339-1.12658 12.356451"/>
   </g>
   <path d="m148.16068 32.100827s36.96218 2.270005 70.08762 31.100082"/>
  </g>
  <g transform="matrix(.99998143 -.01376277 .01376486 .99982913 0 0)" fill="#616161" stroke-width=".11778737" style="font-feature-settings:normal;font-variant-caps:normal;font-variant-ligatures:normal;font-variant-numeric:normal" aria-label="tomorrow">
   <path d="m499.44463 823.61804q-0.14723-0.0368-0.19018-0.1227-0.0491-0.0859-0.0307-0.17177 0.0184-0.092 0.0798-0.1595t0.12883-0.0736h1.1472l-0.0245-1.91404q0.0245-0.0736 0.10429-0.1227 0.0797-0.0491 0.17178-0.0552 0.092-0.0123 0.18404 0.0245 0.092 0.0307 0.14723 0.12269l0.0552 1.91405 1.08586-0.0245q0.11042 0.0613 0.14723 0.15337 0.0429 0.0859 0.0368 0.17177-6e-3 0.0797-0.0491 0.14723-0.0368 0.0613-0.0859 0.0736l-1.13494 0.0245q-6e-3 0.38035 6e-3 0.68709 0.0184 0.30061 0.0368 0.58894 0.0245 0.2822 0.0368 0.58894 0.0184 0.3006 0.0184 0.67482-0.17791 0.1227-0.36195 0.11656-0.18404-6e-3 -0.25152-0.15337l-0.0675-2.49071h-1.19014z" style="font-feature-settings:normal;font-variant-caps:normal;font-variant-ligatures:normal;font-variant-numeric:normal"/>
   <path d="m502.59176 824.76524q0-0.50305 0.17791-0.90795 0.17791-0.41102 0.46624-0.70549t0.64415-0.46624q0.35582-0.17178 0.71777-0.20859 0.40489-0.0552 0.76071 0.0736 0.35581 0.1227 0.61347 0.38036 0.25766 0.25152 0.39876 0.61347 0.14724 0.36195 0.12883 0.78525-0.0552 0.50305-0.26379 0.865-0.20858 0.35582-0.53373 0.58894-0.319 0.22699-0.7423 0.33741-0.41717 0.10429-0.89568 0.10429-0.7239 0-1.09812-0.33741t-0.37422-1.12266zm0.52759 0.18404q0.0245 0.36809 0.23926 0.55827 0.22085 0.18404 0.53372 0.22085 0.31901 0.0368 0.68096-0.0552 0.36808-0.0982 0.68096-0.29446 0.31287-0.20245 0.52759-0.48465 0.21471-0.28833 0.22698-0.63188 6e-3 -0.1595-0.0429-0.36809-0.0491-0.21471-0.18404-0.41103-0.12883-0.19631-0.36196-0.34968-0.22698-0.15337-0.5828-0.19631-0.12883 6e-3 -0.31287 0.0491-0.18404 0.0368-0.38649 0.12883-0.19631 0.092-0.39262 0.24539-0.19018 0.15337-0.33742 0.37422-0.14723 0.22085-0.23312 0.52145-0.0797 0.30061-0.0552 0.69323z" style="font-feature-settings:normal;font-variant-caps:normal;font-variant-ligatures:normal;font-variant-numeric:normal"/>
   <path d="m506.80021 826.09648q-6e-3 -0.16564 0-0.41716 0.0123-0.25153 0.0184-0.546 0.0123-0.3006 0.0184-0.63188 0.0123-0.33127 0.0123-0.65641 6e-3 -0.32515-6e-3 -0.62575-0.0123-0.30674-0.0429-0.55213 0-0.0675 0.0429-0.11042 0.0491-0.043 0.11656-0.0675 0.0736-0.0245 0.15337-0.0307 0.0797-0.0123 0.14723-0.0123 0.0491 0 0.0614 0.11656t0.0123 0.26993q0 0.14723-6e-3 0.3006 0 0.14724 0.0184 0.21472 0.092-0.19018 0.29447-0.36195 0.20244-0.17177 0.45397-0.28833 0.25152-0.11656 0.52759-0.15951 0.27606-0.0491 0.52145 0.0123 0.24539 0.0552 0.4233 0.23312 0.18404 0.17791 0.24539 0.50919 0.19018-0.18405 0.4417-0.34968 0.25766-0.16564 0.53373-0.27607 0.2822-0.11656 0.5644-0.1595 0.2822-0.0491 0.52145 6e-3 0.24539 0.0552 0.41716 0.22699 0.17791 0.16564 0.25153 0.48464l0.11656 2.93855q0 0.0123-0.10429 0.0368-0.0982 0.0184-0.22085 0.0245-0.1227 6e-3 -0.22699-6e-3 -0.10429-0.0184-0.10429-0.0798-0.0123-0.22086-6e-3 -0.51532 0.0123-0.30061 0.0184-0.61348 0.0123-0.31901 0.0184-0.63188 6e-3 -0.31901-6e-3 -0.5828-6e-3 -0.2638-0.0429-0.44784-0.0368-0.18404-0.10429-0.24539-0.20859-0.0675-0.44171-0.0675t-0.4601 0.0981q-0.22699 0.0982-0.43557 0.30674-0.20245 0.20858-0.35582 0.5644-0.15337 0.34968-0.23925 0.865-0.0859 0.50919-0.0675 1.21468-0.0307 0.10429-0.14723 0.13497-0.11043 0.0307-0.23312 0.0184-0.1227-0.0123-0.21472-0.0552-0.0859-0.0491-0.0675-0.0982 0.0614-0.319 0.0859-0.66255 0.0307-0.34355 0.0307-0.67482 0-0.33742-0.0245-0.63802t-0.0675-0.53372q-0.0429-0.23312-0.11043-0.37422-0.0613-0.1411-0.1411-0.15951-0.35581-0.0307-0.60734 0.0982-0.25152 0.12269-0.42943 0.35581-0.17177 0.23313-0.2822 0.546-0.10429 0.31287-0.1595 0.66255-0.0491 0.34355-0.0675 0.7055-0.0123 0.36195 0 0.68709-0.0982 0.0368-0.22086 0.0859-0.11656 0.0429-0.23312 0.0429-0.0675 0-0.10429-0.0245-0.0368-0.0245-0.0859-0.10429z" style="font-feature-settings:normal;font-variant-caps:normal;font-variant-ligatures:normal;font-variant-numeric:normal"/>
   <path d="m512.83681 824.76524q0-0.50305 0.17791-0.90795 0.1779-0.41102 0.46624-0.70549 0.28833-0.29447 0.64415-0.46624 0.35581-0.17178 0.71776-0.20859 0.4049-0.0552 0.76071 0.0736 0.35582 0.1227 0.61348 0.38036 0.25766 0.25152 0.39876 0.61347 0.14723 0.36195 0.12883 0.78525-0.0552 0.50305-0.26379 0.865-0.20859 0.35582-0.53373 0.58894-0.31901 0.22699-0.7423 0.33741-0.41717 0.10429-0.89568 0.10429-0.7239 0-1.09812-0.33741t-0.37422-1.12266zm0.52759 0.18404q0.0245 0.36809 0.23925 0.55827 0.22085 0.18404 0.53373 0.22085 0.319 0.0368 0.68096-0.0552 0.36808-0.0982 0.68095-0.29446 0.31288-0.20245 0.52759-0.48465 0.21472-0.28833 0.22699-0.63188 6e-3 -0.1595-0.0429-0.36809-0.0491-0.21471-0.18405-0.41103-0.12883-0.19631-0.36195-0.34968-0.22698-0.15337-0.5828-0.19631-0.12883 6e-3 -0.31287 0.0491-0.18405 0.0368-0.38649 0.12883-0.19631 0.092-0.39263 0.24539-0.19017 0.15337-0.33741 0.37422-0.14723 0.22085-0.23312 0.52145-0.0797 0.30061-0.0552 0.69323z" style="font-feature-settings:normal;font-variant-caps:normal;font-variant-ligatures:normal;font-variant-numeric:normal"/>
   <path d="m517.02685 822.569q0.0123-0.11656 0.0982-0.1411 0.0859-0.0307 0.18405-0.0184 0.1595 0.0184 0.23925 0.16564 0.0798 0.1411 0.11043 0.31901 0.0307 0.17791 0.0307 0.34968 0 0.16564 6e-3 0.23925 0.17177-0.14723 0.38035-0.33741 0.21472-0.19017 0.51532-0.34354 0.30674-0.15951 0.73004-0.23926 0.42943-0.0859 1.03064-0.0123 0.14723 0.0368 0.21471 0.1411 0.0736 0.10429 0.0736 0.22085 6e-3 0.11043-0.0613 0.20858-0.0613 0.092-0.1779 0.10429-0.14724-0.11042-0.39263-0.12883-0.24539-0.0184-0.53986 0.043-0.28833 0.0613-0.58893 0.19631-0.30061 0.13497-0.55827 0.33741-0.25152 0.20245-0.43557 0.46624-0.1779 0.2638-0.22085 0.57667v1.34351q-0.0123 0.0307-0.0982 0.092-0.0859 0.0552-0.19631 0.0798-0.1043 0.0307-0.21472 0-0.10429-0.0307-0.15951-0.17178 0-0.0429 0-0.26993 0-0.23312 0-0.55826 6e-3 -0.33128 0.0123-0.71777 6e-3 -0.39262 6e-3 -0.76684 6e-3 -0.37422 6e-3 -0.68709 6e-3 -0.31288 6e-3 -0.49078z" style="font-feature-settings:normal;font-variant-caps:normal;font-variant-ligatures:normal;font-variant-numeric:normal"/>
   <path d="m520.94083 822.569q0.0123-0.11656 0.0982-0.1411 0.0859-0.0307 0.18404-0.0184 0.15951 0.0184 0.23926 0.16564 0.0797 0.1411 0.11043 0.31901 0.0307 0.17791 0.0307 0.34968 0 0.16564 6e-3 0.23925 0.17178-0.14723 0.38036-0.33741 0.21472-0.19017 0.51532-0.34354 0.30674-0.15951 0.73004-0.23926 0.42943-0.0859 1.03063-0.0123 0.14724 0.0368 0.21472 0.1411 0.0736 0.10429 0.0736 0.22085 6e-3 0.11043-0.0614 0.20858-0.0613 0.092-0.17791 0.10429-0.14723-0.11042-0.39262-0.12883-0.24539-0.0184-0.53986 0.043-0.28833 0.0613-0.58894 0.19631-0.3006 0.13497-0.55826 0.33741-0.25153 0.20245-0.43557 0.46624-0.17791 0.2638-0.22085 0.57667v1.34351q-0.0123 0.0307-0.0982 0.092-0.0859 0.0552-0.19631 0.0798-0.10429 0.0307-0.21471 0-0.1043-0.0307-0.15951-0.17178 0-0.0429 0-0.26993 0-0.23312 0-0.55826 6e-3 -0.33128 0.0123-0.71777 6e-3 -0.39262 6e-3 -0.76684 6e-3 -0.37422 6e-3 -0.68709 6e-3 -0.31288 6e-3 -0.49078z" style="font-feature-settings:normal;font-variant-caps:normal;font-variant-ligatures:normal;font-variant-numeric:normal"/>
   <path d="m524.30881 824.76524q0-0.50305 0.17791-0.90795 0.1779-0.41102 0.46624-0.70549 0.28833-0.29447 0.64415-0.46624 0.35581-0.17178 0.71776-0.20859 0.4049-0.0552 0.76071 0.0736 0.35582 0.1227 0.61348 0.38036 0.25766 0.25152 0.39876 0.61347 0.14723 0.36195 0.12883 0.78525-0.0552 0.50305-0.2638 0.865-0.20858 0.35582-0.53372 0.58894-0.31901 0.22699-0.74231 0.33741-0.41716 0.10429-0.89567 0.10429-0.7239 0-1.09812-0.33741t-0.37422-1.12266zm0.52759 0.18404q0.0245 0.36809 0.23925 0.55827 0.22085 0.18404 0.53373 0.22085 0.319 0.0368 0.68095-0.0552 0.36809-0.0982 0.68096-0.29446 0.31288-0.20245 0.52759-0.48465 0.21472-0.28833 0.22699-0.63188 6e-3 -0.1595-0.043-0.36809-0.0491-0.21471-0.18404-0.41103-0.12883-0.19631-0.36195-0.34968-0.22698-0.15337-0.5828-0.19631-0.12883 6e-3 -0.31287 0.0491-0.18405 0.0368-0.38649 0.12883-0.19632 0.092-0.39263 0.24539-0.19018 0.15337-0.33741 0.37422t-0.23312 0.52145q-0.0797 0.30061-0.0552 0.69323z" style="font-feature-settings:normal;font-variant-caps:normal;font-variant-ligatures:normal;font-variant-numeric:normal"/>
   <path d="m530.98343 824.01066q-0.16564 0.55827-0.28834 1.03064-0.11656 0.46625-0.23925 0.76685-0.11656 0.3006-0.26993 0.40489-0.14724 0.0982-0.38036-0.0797-0.12269-0.13496-0.27606-0.40489-0.15337-0.27607-0.31287-0.61961-0.15337-0.34355-0.30061-0.71777-0.14723-0.37422-0.26379-0.7055-0.11043-0.33128-0.18405-0.5828-0.0675-0.25766-0.0675-0.36195 0-0.1411 0.0613-0.20858 0.0675-0.0675 0.15337-0.0675 0.092-6e-3 0.17791 0.0491 0.0859 0.0491 0.12269 0.14724 0.0552 0.0797 0.14724 0.34968 0.092 0.26993 0.22085 0.65028 0.13496 0.38036 0.30674 0.8282 0.17177 0.44783 0.38649 0.88954 0.0675-0.1411 0.13496-0.36809 0.0736-0.22699 0.14723-0.49078 0.0736-0.2638 0.14724-0.52759 0.0736-0.26993 0.15337-0.48465 0.0859-0.22085 0.17791-0.35581 0.092-0.1411 0.19017-0.14724 0.0675-0.0429 0.18405 0.0982 0.12269 0.13496 0.26993 0.37422 0.14723 0.23926 0.30673 0.53986 0.16564 0.3006 0.31901 0.5828t0.27607 0.50919q0.12883 0.22698 0.20244 0.319l0.96929-2.83426q0.0491-0.0675 0.12883-0.092 0.0798-0.0245 0.15337-6e-3 0.0797 0.0184 0.13497 0.0859 0.0614 0.0675 0.0614 0.18404-0.0798 0.26993-0.17791 0.64415-0.0982 0.36808-0.20858 0.76684-0.11043 0.39263-0.22699 0.77298-0.11656 0.38036-0.24539 0.67483-0.1227 0.29446-0.25153 0.46624-0.12883 0.16564-0.25766 0.13496-0.0736 0.0368-0.1779-0.0552-0.10429-0.092-0.23312-0.26993-0.1227-0.17791-0.26993-0.41716-0.1411-0.24539-0.29447-0.50305-0.14724-0.25766-0.30674-0.50919-0.15337-0.25766-0.3006-0.46011z" style="font-feature-settings:normal;font-variant-caps:normal;font-variant-ligatures:normal;font-variant-numeric:normal"/>
  </g>
 </g>
</svg>
