<?xml version="1.0" encoding="UTF-8"?>
<!-- Created with Inkscape (http://www.inkscape.org/) -->
<svg width="512" height="512" version="1.1" viewBox="0 0 135.46667 135.46667" xmlns="http://www.w3.org/2000/svg" xmlns:cc="http://creativecommons.org/ns#" xmlns:dc="http://purl.org/dc/elements/1.1/" xmlns:rdf="http://www.w3.org/1999/02/22-rdf-syntax-ns#">
 <metadata>
  <rdf:RDF>
   <cc:Work rdf:about="">
    <dc:format>image/svg+xml</dc:format>
    <dc:type rdf:resource="http://purl.org/dc/dcmitype/StillImage"/>
    <dc:title/>
   </cc:Work>
  </rdf:RDF>
 </metadata>
 <g transform="translate(-614.28656,-525.52399)">
  <rect x="614.28656" y="525.52399" width="135.46667" height="135.46667" ry="2.061909" opacity="0" stroke-width=".82785952"/>
  <g transform="matrix(.44268775 0 0 .44268775 476.9416 522.82788)">
   <path d="m388.60268 291.52817c-0.85642-0.40087-1.22316-1.41307-0.82229-2.2695l2.46436-5.26487c-5.15521-2.59235-8.96695-4.67161-9.11549-5.13916-0.46624-1.46743 27.10156-12.04932 29.0187-11.13882 1.91714 0.91049 10.77495 28.79169 9.32403 29.34862-0.46163 0.17719-4.47423-1.45957-9.73196-3.81241l-2.41332 5.15581c-0.40087 0.85644-1.41307 1.22318-2.26948 0.82231z" fill="#00c853"/>
   <rect transform="matrix(.41444889 .91007259 .91966936 -.3926936 0 0)" x="409.50201" y="242.96431" width="3.9317675" height="14.258574" ry="1.9595118" fill="#a0ffc7"/>
  </g>
  <g transform="matrix(-.40093929 .18767026 -.18767026 -.40093929 898.3075 570.1024)">
   <path transform="scale(.26458333)" d="m1729.8105 73.541016c-2.733 0-4.9335 2.200566-4.9335 4.933593v14.388672c-10.1526 0.470168-17.3718 1.077655-18.0118 1.783203-2.3979 2.643719 45.5084 51.537326 50.4278 51.466796 4.9194-0.0705 50.4804-50.301768 47.959-52.874999-0.6711-0.684879-7.8758-1.085882-18-1.265625v-13.498047c0-2.733027-2.1987-4.933593-4.9317-4.933593z" fill="#2196f3"/>
   <rect transform="rotate(-43.436588)" x="312.67651" y="335.33032" width="2.7792709" height="8.6303663" ry="1.3896354" fill="#c8e5fc"/>
  </g>
  <path d="m681.8581 550.46859a43.796699 43.796699 0 0 0 -14.9674 2.69486l3.4193 0.29625-2.0907 3.06637a40.164776 40.164776 0 0 1 13.6388 -2.42537 40.164776 40.164776 0 0 1 40.1648 40.16477 40.164776 40.164776 0 0 1 -40.1648 40.16477 40.164776 40.164776 0 0 1 -40.1648 -40.16477 40.164776 40.164776 0 0 1 18.8924 -34.04347l-1.5524-3.27158a43.796699 43.796699 0 0 0 -20.9719 37.31505 43.796699 43.796699 0 0 0 43.7967 43.79665 43.796699 43.796699 0 0 0 43.7964 -43.79665 43.796699 43.796699 0 0 0 -43.7964 -43.79688z" fill="#ff5252" stroke-width=".44268775"/>
  <path d="m654.4653 555.72986 12.7994-0.87794-8.1056 10.08312z" fill="#ff5252" stroke-width=".44268775"/>
  <ellipse cx="679.5816" cy="590.85486" rx="55.109818" ry="50.11874" opacity="0" stroke-width="2.342556"/>
  <g transform="matrix(.40106066 .18741076 .18741076 -.40106066 599.4055 631.29798)" fill="none" stroke="#ffc107" stroke-linecap="round" stroke-width="2.64583325">
   <g transform="rotate(-26.301235,280.87683,257.93987)">
    <path d="m311.01879 55.61079-10.7041-6.274815"/>
    <path d="m312.14537 43.254339-1.12658 12.356451"/>
   </g>
   <path d="m148.16068 32.100827s36.96218 2.270005 70.08762 31.100082"/>
  </g>
  <g fill="#1565c0" stroke="#fff" stroke-width=".11712779">
   <g style="font-feature-settings:normal;font-variant-caps:normal;font-variant-ligatures:normal;font-variant-numeric:normal" aria-label="Monday">
    <path d="m677.39439 545.55107 0.25621 4.02321-1.5556 0.13116-0.0824-2.05888-0.31417 1.41529-1.39699 0.19521-0.56734-1.46104 0.20437 1.73251-1.42445 0.29282 0.19521-4.27028 1.40005-0.18607 0.77475 2.44017 0.93946-2.36696z" style="font-feature-settings:normal;font-variant-caps:normal;font-variant-ligatures:normal;font-variant-numeric:normal"/>
    <path d="m680.29513 549.82135q-1.03097 0-1.75997-0.62529-0.72595-0.62529-0.72595-1.50985t0.72595-1.50985q0.729-0.62529 1.75997-0.62529 1.02792 0 1.75387 0.62529 0.72899 0.62529 0.72899 1.50985t-0.72899 1.50985q-0.72595 0.62529-1.75387 0.62529zm-0.17081-1.33294q0.43923 0 0.75035-0.26842 0.31417-0.26841 0.31417-0.64664 0-0.37822-0.31417-0.64664-0.31112-0.26842-0.75035-0.26842-0.44228 0-0.75645 0.26842-0.31112 0.26842-0.31112 0.64664 0 0.37823 0.31112 0.64664 0.31417 0.26842 0.75645 0.26842z" style="font-feature-settings:normal;font-variant-caps:normal;font-variant-ligatures:normal;font-variant-numeric:normal"/>
    <path d="m684.46171 547.68621 0.30197 1.74776-1.52205 0.38738-0.30808-4.00492 1.52816-0.26536 1.5068 1.99483 0.0183-1.99483 1.89112-0.19522-0.67104 4.4655-1.21093 0.17691z" style="font-feature-settings:normal;font-variant-caps:normal;font-variant-ligatures:normal;font-variant-numeric:normal"/>
    <path d="m688.22871 549.82135-0.19522-4.27028q4.16048 0 4.16048 2.13514t-3.96526 2.13514zm1.08587-3.13866 0.20436 1.4763q1.32074 6e-3 1.32074-0.7351 0-0.7412-1.5251-0.7412z" style="font-feature-settings:normal;font-variant-caps:normal;font-variant-ligatures:normal;font-variant-numeric:normal"/>
    <path d="m693.51166 549.21131-0.21352 0.61004-1.20178-0.72595 1.5068-3.54433 1.14688-0.0793 1.80267 3.66939-1.42444 0.6802-0.31417-0.85711zm1.04317-1.33599-0.34162-1.10417-0.40263 1.22008z" style="font-feature-settings:normal;font-variant-caps:normal;font-variant-ligatures:normal;font-variant-numeric:normal"/>
    <path d="m697.01024 547.99123-1.43664-1.44885 1.21398-0.99131 0.8327 1.22008 0.6924-1.519 1.61966 0.55513-1.70202 2.18395 0.13116 1.71421-1.48545-0.20131z" style="font-feature-settings:normal;font-variant-caps:normal;font-variant-ligatures:normal;font-variant-numeric:normal"/>
   </g>
   <g style="font-feature-settings:normal;font-variant-caps:normal;font-variant-ligatures:normal;font-variant-numeric:normal" aria-label="Tuesday">
    <path d="m701.32689 570.92632 0.14946 2.59877-1.65321 0.42703 0.28367-3.10511-1.24753-0.10675 0.0976-1.12858 3.57789-0.21351 0.13116 1.66846z" style="font-feature-settings:normal;font-variant-caps:normal;font-variant-ligatures:normal;font-variant-numeric:normal"/>
    <path d="m703.21497 569.84045 1.62575 0.31722q-0.81135 2.49201 0.23182 2.51947 1.23838-9e-3 0.7168-2.58048l1.4885-0.46973q0.68324 4.23368-2.2053 4.27029-2.91905-0.0275-1.85757-4.05677z" style="font-feature-settings:normal;font-variant-caps:normal;font-variant-ligatures:normal;font-variant-numeric:normal"/>
    <path d="m710.69406 569.0779 0.0793 1.6166-1.89723 0.20437 0.0244 0.36907 1.24449-0.11591 0.1098 1.10418-1.29938 0.0946 0.0213 0.29892 1.84232-0.14031 0.27452 1.38785-3.63279 0.12506 0.36907-4.40145z" style="font-feature-settings:normal;font-variant-caps:normal;font-variant-ligatures:normal;font-variant-numeric:normal"/>
    <path d="m712.0392 572.21045q-1.10112-0.15556-0.97301-1.36954t2.83059-1.43664l0.25621 1.37869q-1.33903-0.0305-1.43664 0.31722-0.0976 0.34772 1.02487 0.39958 1.12247 0.0518 1.09807 1.36649-0.0244 1.31464-2.95565 1.40309l-0.53988-1.44274q1.5007 0.16166 1.65016-0.14946 0.14946-0.31418-0.95472-0.46669z" style="font-feature-settings:normal;font-variant-caps:normal;font-variant-ligatures:normal;font-variant-numeric:normal"/>
    <path d="m715.20836 573.89722-0.19521-4.27029q4.16048 0 4.16048 2.13514 0 2.13515-3.96527 2.13515zm1.08588-3.13866 0.20436 1.4763q1.32074 6e-3 1.32074-0.7351 0-0.7412-1.5251-0.7412z" style="font-feature-settings:normal;font-variant-caps:normal;font-variant-ligatures:normal;font-variant-numeric:normal"/>
    <path d="m720.49132 573.28718-0.21352 0.61004-1.20178-0.72595 1.5068-3.54434 1.14688-0.0793 1.80267 3.66939-1.42445 0.6802-0.31417-0.85711zm1.04317-1.33599-0.34163-1.10418-0.40262 1.22008z" style="font-feature-settings:normal;font-variant-caps:normal;font-variant-ligatures:normal;font-variant-numeric:normal"/>
    <path d="m723.9899 572.06709-1.43665-1.44884 1.21398-0.99132 0.83271 1.22008 0.69239-1.519 1.61966 0.55514-1.70201 2.18394 0.13116 1.71422-1.48545-0.20131z" style="font-feature-settings:normal;font-variant-caps:normal;font-variant-ligatures:normal;font-variant-numeric:normal"/>
   </g>
   <g style="font-feature-settings:normal;font-variant-caps:normal;font-variant-ligatures:normal;font-variant-numeric:normal" aria-label="Wednesday">
    <path d="m696.59449 598.3734-0.61004 2.13514-1.20484 0.15862-1.81487-3.59009 1.4946-0.83881 0.91506 2.44016 0.7168-1.92773 1.22008 0.16777 0.50329 1.75996 0.73205-2.52862 1.65931 0.90897-1.78132 3.44977-1.36344-0.29281z" style="font-feature-settings:normal;font-variant-caps:normal;font-variant-ligatures:normal;font-variant-numeric:normal"/>
    <path d="m703.42084 595.68922 0.0793 1.61661-1.89723 0.20437 0.0244 0.36907 1.24448-0.11591 0.10981 1.10418-1.29939 0.0946 0.0214 0.29892 1.84232-0.14031 0.27452 1.38784-3.63279 0.12506 0.36907-4.40144z" style="font-feature-settings:normal;font-variant-caps:normal;font-variant-ligatures:normal;font-variant-numeric:normal"/>
    <path d="m704.16509 600.50854-0.19521-4.27028q4.16047 0 4.16047 2.13514t-3.96526 2.13514zm1.08587-3.13865 0.20437 1.47629q1.32073 6e-3 1.32073-0.73509 0-0.7412-1.5251-0.7412z" style="font-feature-settings:normal;font-variant-caps:normal;font-variant-ligatures:normal;font-variant-numeric:normal"/>
    <path d="m709.81712 598.3734 0.30197 1.74777-1.52205 0.38737-0.30808-4.00491 1.52816-0.26537 1.5068 1.99483 0.0183-1.99483 1.89112-0.19521-0.67104 4.46549-1.21093 0.17692z" style="font-feature-settings:normal;font-variant-caps:normal;font-variant-ligatures:normal;font-variant-numeric:normal"/>
    <path d="m716.3537 595.68922 0.0793 1.61661-1.89723 0.20437 0.0244 0.36907 1.24449-0.11591 0.1098 1.10418-1.29938 0.0946 0.0213 0.29892 1.84232-0.14031 0.27452 1.38784-3.63279 0.12506 0.36907-4.40144z" style="font-feature-settings:normal;font-variant-caps:normal;font-variant-ligatures:normal;font-variant-numeric:normal"/>
    <path d="m717.69884 598.82178q-1.10112-0.15556-0.97301-1.36954t2.83059-1.43664l0.25621 1.37869q-1.33904-0.0305-1.43664 0.31722t1.02487 0.39958q1.12247 0.0519 1.09807 1.36649-0.0244 1.31463-2.95565 1.40309l-0.53988-1.44275q1.5007 0.16166 1.65016-0.14946 0.14946-0.31417-0.95472-0.46668z" style="font-feature-settings:normal;font-variant-caps:normal;font-variant-ligatures:normal;font-variant-numeric:normal"/>
    <path d="m720.868 600.50854-0.19521-4.27028q4.16048 0 4.16048 2.13514t-3.96527 2.13514zm1.08588-3.13865 0.20436 1.47629q1.32074 6e-3 1.32074-0.73509 0-0.7412-1.5251-0.7412z" style="font-feature-settings:normal;font-variant-caps:normal;font-variant-ligatures:normal;font-variant-numeric:normal"/>
    <path d="m726.15095 599.8985-0.21351 0.61004-1.20178-0.72594 1.5068-3.54434 1.14688-0.0793 1.80267 3.66939-1.42445 0.68019-0.31417-0.8571zm1.04317-1.33598-0.34162-1.10418-0.40263 1.22008z" style="font-feature-settings:normal;font-variant-caps:normal;font-variant-ligatures:normal;font-variant-numeric:normal"/>
    <path d="m729.64954 598.67842-1.43665-1.44884 1.21398-0.99132 0.83271 1.22008 0.6924-1.519 1.61965 0.55514-1.70201 2.18394 0.13116 1.71422-1.48545-0.20132z" style="font-feature-settings:normal;font-variant-caps:normal;font-variant-ligatures:normal;font-variant-numeric:normal"/>
   </g>
   <g style="font-feature-settings:normal;font-variant-caps:normal;font-variant-ligatures:normal;font-variant-numeric:normal" aria-label="Thursday">
    <path d="m686.03954 626.2257 0.14946 2.59877-1.65321 0.42703 0.28366-3.10511-1.24753-0.10676 0.0976-1.12857 3.57789-0.21352 0.13116 1.66847z" style="font-feature-settings:normal;font-variant-caps:normal;font-variant-ligatures:normal;font-variant-numeric:normal"/>
    <path d="m689.12634 627.90941 0.10981 1.03097-1.16823 0.20436-0.53073-3.37962 1.29938-0.55514 0.14641 1.4641 1.17128-0.13421 0.0183-1.33294 2.03449 0.20436-0.77781 3.7487-1.30853-0.38737 0.0152-0.97302z" style="font-feature-settings:normal;font-variant-caps:normal;font-variant-ligatures:normal;font-variant-numeric:normal"/>
    <path d="m692.64933 625.13982 1.62575 0.31723q-0.81135 2.49201 0.23182 2.51946 1.23838-9e-3 0.7168-2.58047l1.4885-0.46973q0.68324 4.23368-2.2053 4.27028-2.91904-0.0275-1.85757-4.05677z" style="font-feature-settings:normal;font-variant-caps:normal;font-variant-ligatures:normal;font-variant-numeric:normal"/>
    <path d="m698.48741 625.93288 0.0427 0.82355q1.5251 0 1.5251-0.30502t-1.56781-0.51853zm0.20437 3.01665-1.69896 0.23791 0.35382-4.55395q3.92866 0.29282 4.05982 1.57391 0.13421 1.27803-1.35124 1.76911l1.22008 0.6619-1.25058 1.10722-1.43055-1.76912z" style="font-feature-settings:normal;font-variant-caps:normal;font-variant-ligatures:normal;font-variant-numeric:normal"/>
    <path d="m702.79125 627.50983q-1.10112-0.15556-0.97301-1.36954 0.1281-1.21398 2.83058-1.43665l0.25622 1.3787q-1.33904-0.0305-1.43664 0.31722t1.02486 0.39957q1.12248 0.0519 1.09808 1.3665-0.0244 1.31463-2.95565 1.40309l-0.53989-1.44275q1.5007 0.16166 1.65016-0.14946 0.14946-0.31417-0.95471-0.46668z" style="font-feature-settings:normal;font-variant-caps:normal;font-variant-ligatures:normal;font-variant-numeric:normal"/>
    <path d="m705.96041 629.19659-0.19521-4.27028q4.16048 0 4.16048 2.13514t-3.96527 2.13514zm1.08587-3.13865 0.20437 1.47629q1.32074 6e-3 1.32074-0.7351 0-0.74119-1.52511-0.74119z" style="font-feature-settings:normal;font-variant-caps:normal;font-variant-ligatures:normal;font-variant-numeric:normal"/>
    <path d="m711.24337 628.58655-0.21352 0.61004-1.20178-0.72594 1.5068-3.54434 1.14688-0.0793 1.80267 3.6694-1.42445 0.68019-0.31417-0.8571zm1.04316-1.33599-0.34162-1.10417-0.40262 1.22008z" style="font-feature-settings:normal;font-variant-caps:normal;font-variant-ligatures:normal;font-variant-numeric:normal"/>
    <path d="m714.74195 627.36647-1.43665-1.44884 1.21398-0.99132 0.83271 1.22008 0.69239-1.519 1.61966 0.55514-1.70201 2.18394 0.13116 1.71422-1.48545-0.20132z" style="font-feature-settings:normal;font-variant-caps:normal;font-variant-ligatures:normal;font-variant-numeric:normal"/>
   </g>
   <g style="font-feature-settings:normal;font-variant-caps:normal;font-variant-ligatures:normal;font-variant-numeric:normal" aria-label="Friday">
    <path d="m650.29169 624.54197-0.25927 1.76911-1.48545-0.0793 0.061 0.30502 1.18042 0.13421-0.16166 1.26888-0.8144-0.18301 0.27452 1.32379-1.4946 0.20131-0.33552-4.00491z" style="font-feature-settings:normal;font-variant-caps:normal;font-variant-ligatures:normal;font-variant-numeric:normal"/>
    <path d="m651.74053 626.01826 0.0427 0.82356q1.5251 0 1.5251-0.30502t-1.56781-0.51854zm0.20437 3.01666-1.69896 0.23791 0.35382-4.55395q3.92866 0.29282 4.05982 1.5739 0.13421 1.27804-1.35124 1.76912l1.22008 0.6619-1.25058 1.10722-1.43055-1.76912z" style="font-feature-settings:normal;font-variant-caps:normal;font-variant-ligatures:normal;font-variant-numeric:normal"/>
    <path d="m656.35854 625.0361 0.31112 4.11472-1.72641 0.32638 0.0793-4.33434z" style="font-feature-settings:normal;font-variant-caps:normal;font-variant-ligatures:normal;font-variant-numeric:normal"/>
    <path d="m657.01739 629.28198-0.19522-4.27028q4.16048 0 4.16048 2.13514t-3.96526 2.13514zm1.08587-3.13866 0.20436 1.4763q1.32074 6e-3 1.32074-0.7351 0-0.7412-1.5251-0.7412z" style="font-feature-settings:normal;font-variant-caps:normal;font-variant-ligatures:normal;font-variant-numeric:normal"/>
    <path d="m662.30034 628.67194-0.21352 0.61004-1.20178-0.72595 1.5068-3.54433 1.14688-0.0793 1.80267 3.6694-1.42444 0.68019-0.31418-0.8571zm1.04317-1.33599-0.34163-1.10417-0.40262 1.22008z" style="font-feature-settings:normal;font-variant-caps:normal;font-variant-ligatures:normal;font-variant-numeric:normal"/>
    <path d="m665.79892 627.45186-1.43664-1.44885 1.21398-0.99131 0.8327 1.22008 0.6924-1.519 1.61966 0.55514-1.70202 2.18394 0.13116 1.71421-1.48545-0.20131z" style="font-feature-settings:normal;font-variant-caps:normal;font-variant-ligatures:normal;font-variant-numeric:normal"/>
   </g>
   <g style="font-feature-settings:normal;font-variant-caps:normal;font-variant-ligatures:normal;font-variant-numeric:normal" aria-label="Saturday">
    <path d="m633.51704 598.60828q-1.10112-0.15556-0.97302-1.36954 0.12811-1.21398 2.83059-1.43665l0.25622 1.3787q-1.33904-0.0305-1.43665 0.31722-0.0976 0.34772 1.02487 0.39957 1.12248 0.0519 1.09808 1.3665-0.0244 1.31463-2.95565 1.40309l-0.53989-1.44275q1.5007 0.16166 1.65016-0.14946 0.14946-0.31417-0.95471-0.46668z" style="font-feature-settings:normal;font-variant-caps:normal;font-variant-ligatures:normal;font-variant-numeric:normal"/>
    <path d="m637.90628 599.685-0.21351 0.61004-1.20178-0.72594 1.5068-3.54434 1.14687-0.0793 1.80267 3.6694-1.42444 0.68019-0.31417-0.8571zm1.04317-1.33599-0.34162-1.10417-0.40263 1.22008z" style="font-feature-settings:normal;font-variant-caps:normal;font-variant-ligatures:normal;font-variant-numeric:normal"/>
    <path d="m642.63105 597.32415 0.14946 2.59877-1.65321 0.42703 0.28366-3.10511-1.24753-0.10676 0.0976-1.12857 3.57789-0.21352 0.13115 1.66847z" style="font-feature-settings:normal;font-variant-caps:normal;font-variant-ligatures:normal;font-variant-numeric:normal"/>
    <path d="m644.51912 596.23827 1.62576 0.31722q-0.81135 2.49202 0.23182 2.51947 1.23838-9e-3 0.71679-2.58047l1.4885-0.46973q0.68325 4.23368-2.20529 4.27028-2.91905-0.0274-1.85758-4.05677z" style="font-feature-settings:normal;font-variant-caps:normal;font-variant-ligatures:normal;font-variant-numeric:normal"/>
    <path d="m650.35721 597.03133 0.0427 0.82355q1.52511 0 1.52511-0.30502t-1.56781-0.51853zm0.20436 3.01665-1.69896 0.23791 0.35382-4.55395q3.92867 0.29282 4.05983 1.5739 0.1342 1.27804-1.35124 1.76912l1.22008 0.6619-1.25059 1.10722-1.43054-1.76912z" style="font-feature-settings:normal;font-variant-caps:normal;font-variant-ligatures:normal;font-variant-numeric:normal"/>
    <path d="m653.75514 600.29504-0.19522-4.27028q4.16048 0 4.16048 2.13514t-3.96526 2.13514zm1.08587-3.13866 0.20436 1.4763q1.32074 6e-3 1.32074-0.7351 0-0.7412-1.5251-0.7412z" style="font-feature-settings:normal;font-variant-caps:normal;font-variant-ligatures:normal;font-variant-numeric:normal"/>
    <path d="m659.03809 599.685-0.21352 0.61004-1.20178-0.72594 1.5068-3.54434 1.14688-0.0793 1.80267 3.6694-1.42444 0.68019-0.31417-0.8571zm1.04317-1.33599-0.34162-1.10417-0.40263 1.22008z" style="font-feature-settings:normal;font-variant-caps:normal;font-variant-ligatures:normal;font-variant-numeric:normal"/>
    <path d="m662.53667 598.46492-1.43664-1.44884 1.21398-0.99132 0.8327 1.22008 0.6924-1.519 1.61966 0.55514-1.70202 2.18394 0.13116 1.71422-1.48545-0.20132z" style="font-feature-settings:normal;font-variant-caps:normal;font-variant-ligatures:normal;font-variant-numeric:normal"/>
   </g>
   <g style="font-feature-settings:normal;font-variant-caps:normal;font-variant-ligatures:normal;font-variant-numeric:normal" aria-label="Sunday ">
    <path d="m636.23286 572.08539q-1.10112-0.15556-0.97302-1.36954 0.12811-1.21398 2.83059-1.43664l0.25622 1.37869q-1.33904-0.0305-1.43665 0.31722-0.0976 0.34772 1.02487 0.39958 1.12248 0.0519 1.09808 1.36649-0.0244 1.31463-2.95565 1.40309l-0.53989-1.44275q1.5007 0.16167 1.65016-0.14946 0.14946-0.31417-0.95471-0.46668z" style="font-feature-settings:normal;font-variant-caps:normal;font-variant-ligatures:normal;font-variant-numeric:normal"/>
    <path d="m639.57283 569.71539 1.62576 0.31722q-0.81135 2.49201 0.23182 2.51946 1.23838-9e-3 0.71679-2.58047l1.4885-0.46973q0.68325 4.23368-2.20529 4.27029-2.91905-0.0275-1.85758-4.05677z" style="font-feature-settings:normal;font-variant-caps:normal;font-variant-ligatures:normal;font-variant-numeric:normal"/>
    <path d="m645.54208 571.63701 0.30197 1.74777-1.52205 0.38738-0.30807-4.00492 1.52815-0.26537 1.5068 1.99483 0.0183-1.99483 1.89113-0.19521-0.67105 4.4655-1.21093 0.17691z" style="font-feature-settings:normal;font-variant-caps:normal;font-variant-ligatures:normal;font-variant-numeric:normal"/>
    <path d="m649.30908 573.77216-0.19521-4.27029q4.16048 0 4.16048 2.13514 0 2.13515-3.96527 2.13515zm1.08587-3.13866 0.20437 1.4763q1.32073 6e-3 1.32073-0.7351 0-0.7412-1.5251-0.7412z" style="font-feature-settings:normal;font-variant-caps:normal;font-variant-ligatures:normal;font-variant-numeric:normal"/>
    <path d="m654.59203 573.16212-0.21351 0.61004-1.20178-0.72595 1.5068-3.54434 1.14687-0.0793 1.80267 3.66939-1.42444 0.6802-0.31417-0.85711zm1.04317-1.33599-0.34162-1.10418-0.40263 1.22008z" style="font-feature-settings:normal;font-variant-caps:normal;font-variant-ligatures:normal;font-variant-numeric:normal"/>
    <path d="m658.09062 571.94203-1.43665-1.44884 1.21398-0.99132 0.83271 1.22008 0.69239-1.519 1.61966 0.55514-1.70201 2.18394 0.13116 1.71422-1.48545-0.20132z" style="font-feature-settings:normal;font-variant-caps:normal;font-variant-ligatures:normal;font-variant-numeric:normal"/>
   </g>
  </g>
  <g fill="#fff">
   <circle cx="682.77692" cy="552.30542" r="1.5675197"/>
   <circle cx="713.60455" cy="566.78113" r="1.5675197"/>
   <circle cx="722.84601" cy="603.1394" r="1.5675197"/>
   <circle cx="700.49335" cy="631.91705" r="1.5675197"/>
   <circle transform="scale(-1,1)" cx="-650.38287" cy="566.78113" r="1.5675197"/>
   <circle transform="scale(-1,1)" cx="-640.80865" cy="603.1394" r="1.5675197"/>
   <circle transform="scale(-1,1)" cx="-663.49408" cy="631.91705" r="1.5675197"/>
  </g>
  <g transform="rotate(1.8384297,125.80229,-2.0184602)" fill="#616161" stroke-width=".11712779" style="font-feature-settings:normal;font-variant-caps:normal;font-variant-ligatures:normal;font-variant-numeric:normal" aria-label="yesterday">
   <path d="m686.13962 634.57706q-0.0183-0.0793 0.0122-0.15251 0.0366-0.0732 0.0976-0.13421 0.061-0.061 0.14031-0.10371 0.0793-0.0427 0.14641-0.0549l2.04363 2.97089 1.30549-3.0136q0.0122-0.0305 0.0854-0.0366 0.0732-0.0122 0.15251 0.0122 0.0854 0.0183 0.14641 0.0854 0.0671 0.0671 0.0549 0.18911l-2.33036 6.18581q-0.061 0.12811-0.17081 0.16471-0.1098 0.0366-0.21351 0.0122t-0.17081-0.0976q-0.0671-0.0671-0.0488-0.14641l0.94557-2.62928z" style="font-feature-settings:normal;font-variant-caps:normal;font-variant-ligatures:normal;font-variant-numeric:normal"/>
   <path d="m690.21469 636.7488q-0.0549-0.49413 0.0854-0.98216 0.14031-0.49414 0.43313-0.87846 0.29892-0.39043 0.71984-0.62224 0.42093-0.23792 0.92727-0.22572 0.20741-6e-3 0.47583 0.0915 0.26842 0.0976 0.49413 0.27451 0.22572 0.17082 0.35992 0.40263 0.14031 0.22572 0.0915 0.48193 6e-3 0.12811-0.12811 0.21352-0.13421 0.0793-0.35992 0.12811-0.21962 0.0488-0.51854 0.0732-0.29282 0.0183-0.62224 0.0305-0.32332 0.0122-0.65884 0.0244-0.33552 6e-3 -0.63444 0.0305-0.17082 0.46973-0.10371 0.77475 0.0732 0.29892 0.29892 0.45753 0.23181 0.15861 0.56734 0.18911 0.34162 0.0244 0.70764-0.0488 0.36603-0.0732 0.71985-0.23182 0.35383-0.16471 0.61004-0.39042 0.0366 0 0.0915 0.0244 0.061 0.0244 0.11591 0.0671 0.0549 0.0366 0.0915 0.0854 0.0427 0.0427 0.0427 0.0793-0.15251 0.26232-0.46364 0.46974-0.31112 0.20741-0.70154 0.33552-0.39043 0.12811-0.81746 0.15861-0.42092 0.0305-0.79305-0.061-0.37212-0.0915-0.65274-0.32332-0.28062-0.23181-0.37823-0.62834zm2.916-1.62881q-0.0305-0.23181-0.18302-0.34772-0.15251-0.11591-0.35992-0.14641-0.20741-0.0366-0.43923 6e-3 -0.23181 0.0427-0.43313 0.12811-0.19521 0.0854-0.32942 0.20131-0.12811 0.11591-0.13421 0.23182z" style="font-feature-settings:normal;font-variant-caps:normal;font-variant-ligatures:normal;font-variant-numeric:normal"/>
   <path d="m694.53988 637.32224q0.54904-0.0427 0.99437-0.15251 0.45143-0.10981 0.75645-0.25012 0.31112-0.14641 0.46363-0.30502 0.15251-0.16471 0.1098-0.32332-0.0488-0.17081-0.48803-0.14641-0.43313 0.0244-1.28718 0.19521-0.25012-0.0183-0.43923-0.1159-0.18301-0.0976-0.29282-0.23182-0.10981-0.14031-0.14031-0.29282t0.0183-0.26842q0-0.20131 0.11591-0.39042 0.12201-0.19522 0.32332-0.35383 0.20741-0.16471 0.47583-0.29282 0.27452-0.1342 0.58564-0.20741 0.31112-0.0793 0.64054-0.0976t0.65275 0.0427q0.15861 0.0732 0.25621 0.17081 0.10371 0.0915 0.14031 0.18911 0.0366 0.0915 0 0.17691-0.0366 0.0854-0.15251 0.14641-0.25011-0.10981-0.53073-0.15861-0.27452-0.0549-0.54904-0.0427t-0.53074 0.0854q-0.25011 0.0671-0.44532 0.19522-0.18912 0.12201-0.31113 0.30502-0.122 0.18301-0.1281 0.41483 0 0.1281 0.0976 0.17081 0.10371 0.0366 0.23792 0.0366 0.14031-6e-3 0.28672-0.0305 0.15251-0.0305 0.24401-0.0305 0.60394-0.0854 0.99437-0.0488 0.39653 0.0366 0.60394 0.15861t0.24402 0.30502q0.0366 0.18301-0.0732 0.39653-0.10371 0.20741-0.34162 0.42093-0.23792 0.21351-0.57954 0.39042t-0.77475 0.29892q-0.42703 0.11591-0.91506 0.14031-0.11591 0.0427-0.19522-0.0122-0.0732-0.0549-0.1098-0.14641-0.0366-0.0915-0.0305-0.18911 0.0122-0.10371 0.0732-0.15251z" style="font-feature-settings:normal;font-variant-caps:normal;font-variant-ligatures:normal;font-variant-numeric:normal"/>
   <path d="m697.76089 635.1627q-0.14641-0.0366-0.18911-0.12201-0.0488-0.0854-0.0305-0.17081 0.0183-0.0915 0.0793-0.15861 0.061-0.0671 0.12811-0.0732h1.14078l-0.0244-1.90333q0.0244-0.0732 0.1037-0.122t0.17082-0.0549q0.0915-0.0122 0.18301 0.0244 0.0915 0.0305 0.14641 0.12201l0.0549 1.90333 1.07977-0.0244q0.10981 0.061 0.14641 0.15251 0.0427 0.0854 0.0366 0.17081-6e-3 0.0793-0.0488 0.14641-0.0366 0.061-0.0854 0.0732l-1.12858 0.0244q-6e-3 0.37823 6e-3 0.68325 0.0183 0.29892 0.0366 0.58564 0.0244 0.28062 0.0366 0.58564 0.0183 0.29892 0.0183 0.67104-0.17691 0.12201-0.35993 0.11591-0.18301-6e-3 -0.25011-0.15251l-0.0671-2.47676h-1.18348z" style="font-feature-settings:normal;font-variant-caps:normal;font-variant-ligatures:normal;font-variant-numeric:normal"/>
   <path d="m700.92701 636.7488q-0.0549-0.49413 0.0854-0.98216 0.14031-0.49414 0.43313-0.87846 0.29892-0.39043 0.71985-0.62224 0.42093-0.23792 0.92726-0.22572 0.20741-6e-3 0.47583 0.0915 0.26842 0.0976 0.49413 0.27451 0.22572 0.17082 0.35993 0.40263 0.14031 0.22572 0.0915 0.48193 6e-3 0.12811-0.1281 0.21352-0.13421 0.0793-0.35993 0.12811-0.21961 0.0488-0.51853 0.0732-0.29282 0.0183-0.62224 0.0305-0.32333 0.0122-0.65885 0.0244-0.33552 6e-3 -0.63444 0.0305-0.17081 0.46973-0.10371 0.77475 0.0732 0.29892 0.29892 0.45753 0.23182 0.15861 0.56734 0.18911 0.34162 0.0244 0.70765-0.0488 0.36602-0.0732 0.71985-0.23182 0.35382-0.16471 0.61004-0.39042 0.0366 0 0.0915 0.0244 0.061 0.0244 0.11591 0.0671 0.0549 0.0366 0.0915 0.0854 0.0427 0.0427 0.0427 0.0793-0.15251 0.26232-0.46363 0.46974-0.31112 0.20741-0.70155 0.33552-0.39042 0.12811-0.81745 0.15861-0.42093 0.0305-0.79306-0.061-0.37212-0.0915-0.65274-0.32332-0.28062-0.23181-0.37822-0.62834zm2.91599-1.62881q-0.0305-0.23181-0.18301-0.34772t-0.35993-0.14641q-0.20741-0.0366-0.43923 6e-3 -0.23181 0.0427-0.43312 0.12811-0.19522 0.0854-0.32943 0.20131-0.1281 0.11591-0.13421 0.23182z" style="font-feature-settings:normal;font-variant-caps:normal;font-variant-ligatures:normal;font-variant-numeric:normal"/>
   <path d="m704.97157 634.11953q0.0122-0.11591 0.0976-0.14031 0.0854-0.0305 0.18301-0.0183 0.15861 0.0183 0.23792 0.16471 0.0793 0.14031 0.10981 0.31722 0.0305 0.17691 0.0305 0.34772 0 0.16471 6e-3 0.23792 0.17081-0.14641 0.37822-0.33553 0.21352-0.18911 0.51244-0.34162 0.30502-0.15861 0.72595-0.23791 0.42703-0.0854 1.02487-0.0122 0.1464 0.0366 0.21351 0.14031 0.0732 0.10371 0.0732 0.21962 6e-3 0.10981-0.061 0.20741-0.061 0.0915-0.17691 0.10371-0.14641-0.10981-0.39043-0.12811-0.24401-0.0183-0.53683 0.0427-0.28672 0.061-0.58564 0.19522-0.29892 0.13421-0.55514 0.33552-0.25012 0.20131-0.43313 0.46363-0.17691 0.26232-0.21961 0.57344v1.33599q-0.0122 0.0305-0.0976 0.0915-0.0854 0.0549-0.19521 0.0793-0.10371 0.0305-0.21352 0-0.1037-0.0305-0.15861-0.17081 0-0.0427 0-0.26842 0-0.23182 0-0.55514 6e-3 -0.32942 0.0122-0.71375 6e-3 -0.39042 6e-3 -0.76255 6e-3 -0.37212 6e-3 -0.68324 6e-3 -0.31112 6e-3 -0.48803z" style="font-feature-settings:normal;font-variant-caps:normal;font-variant-ligatures:normal;font-variant-numeric:normal"/>
   <path d="m711.12688 636.90741q-0.28061 0.21352-0.59174 0.38433-0.31112 0.17081-0.61614 0.28062-0.30502 0.1037-0.59784 0.14031-0.28672 0.0305-0.53073-0.0305-0.23792-0.061-0.42093-0.22571-0.18301-0.17081-0.26842-0.46973-0.0854-0.39653 0.0122-0.75035 0.0976-0.35383 0.32332-0.64665t0.54904-0.50633q0.32332-0.21961 0.68935-0.34162 0.36602-0.12201 0.75035-0.13421 0.39042-0.0122 0.74425 0.10371 0-0.13421 0-0.34773 6e-3 -0.21961 6e-3 -0.45143 6e-3 -0.23181 0.0122-0.44533 6e-3 -0.21351 0.0183-0.34772 0.0366-0.31112 0.14641-0.47583 0.10981-0.17081 0.38432-0.11591 0.0122 0.47583 6e-3 0.87236-6e-3 0.39042-0.0183 0.75035-0.0122 0.35382-0.0244 0.70154-0.0122 0.34163-0.0122 0.73205 0 0.38433 0.0122 0.83576 0.0183 0.45143 0.061 1.01267 0 0.17691-0.0671 0.25011-0.061 0.0732-0.21351 0.0732-0.14641 0-0.22572-0.0915-0.0732-0.0976-0.1037-0.22571-0.0244-0.13421-0.0244-0.28062t0-0.25012zm-2.49506-0.23791q0.0122 0.28061 0.15861 0.40262 0.15251 0.11591 0.42093 0.0671 0.1281 0 0.39042-0.0671 0.26842-0.0732 0.54904-0.18301 0.28672-0.11591 0.53683-0.25012 0.25012-0.14031 0.35383-0.28062v-1.01266q-0.15861-0.17081-0.40263-0.21352-0.24401-0.0488-0.51853 6e-3 -0.27452 0.0549-0.54904 0.20132-0.26842 0.14031-0.48193 0.34772-0.21352 0.20131-0.34162 0.45753-0.12811 0.25012-0.11591 0.52464z" style="font-feature-settings:normal;font-variant-caps:normal;font-variant-ligatures:normal;font-variant-numeric:normal"/>
   <path d="m715.21416 636.48648q-0.17691 0.27452-0.40873 0.50024-0.23182 0.21961-0.51243 0.37822-0.27452 0.15251-0.60394 0.22572-0.32333 0.0732-0.68325 0.0427-0.12811 0-0.27452-0.0305t-0.27452-0.0976q-0.122-0.0671-0.20131-0.17691-0.0793-0.10981-0.0793-0.27452-0.0671-0.34162 0.0305-0.70765 0.1037-0.37212 0.31112-0.71984 0.21351-0.35383 0.51243-0.65885 0.30502-0.31112 0.64665-0.52463 0.34162-0.21962 0.69544-0.31722 0.35993-0.10371 0.68935-0.0427 0.25011 0 0.38432 0.16471 0.14031 0.16472 0.20742 0.44533 0.0732 0.27452 0.0854 0.64055 0.0183 0.35992 0.0183 0.75645 6e-3 0.39042 0.0183 0.78695 0.0122 0.39043 0.0671 0.72595-6e-3 0.0122-0.061 0.0732-0.0488 0.061-0.12811 0.0976-0.0793 0.0366-0.18302 0.0122-0.0976-0.0183-0.19521-0.17081-0.0366-0.061-0.0488-0.21352-6e-3 -0.15861-6e-3 -0.33552 6e-3 -0.17691 6e-3 -0.34162 6e-3 -0.16471-0.0122-0.23792zm-0.38433-1.85452q-0.23791-0.0183-0.49413 0.0732t-0.50023 0.26232q-0.23792 0.16471-0.45143 0.39043-0.21352 0.21961-0.37213 0.46363-0.15861 0.23792-0.25012 0.47583-0.0854 0.23792-0.0793 0.43923 0.0122 0.19521 0.12811 0.33552 0.12201 0.13421 0.37822 0.17691 0.35383 6e-3 0.67715-0.17691 0.32332-0.18911 0.58564-0.46973 0.26231-0.28062 0.43923-0.61004 0.18301-0.33552 0.24401-0.62834 0.0671-0.29282 0-0.49413-0.0671-0.20742-0.30502-0.23792z" style="font-feature-settings:normal;font-variant-caps:normal;font-variant-ligatures:normal;font-variant-numeric:normal"/>
   <path d="m716.04381 634.57706q-0.0183-0.0793 0.0122-0.15251 0.0366-0.0732 0.0976-0.13421 0.061-0.061 0.14031-0.10371 0.0793-0.0427 0.14641-0.0549l2.04363 2.97089 1.30549-3.0136q0.0122-0.0305 0.0854-0.0366 0.0732-0.0122 0.15251 0.0122 0.0854 0.0183 0.14641 0.0854 0.0671 0.0671 0.0549 0.18911l-2.33035 6.18581q-0.061 0.12811-0.17082 0.16471-0.1098 0.0366-0.21351 0.0122t-0.17081-0.0976q-0.0671-0.0671-0.0488-0.14641l0.94556-2.62928z" style="font-feature-settings:normal;font-variant-caps:normal;font-variant-ligatures:normal;font-variant-numeric:normal"/>
  </g>
 </g>
</svg>
