<?xml version="1.0" encoding="UTF-8"?>
<!-- Created with Inkscape (http://www.inkscape.org/) -->
<svg width="512" height="512" version="1.1" viewBox="0 0 135.46667 135.46667" xmlns="http://www.w3.org/2000/svg" xmlns:cc="http://creativecommons.org/ns#" xmlns:dc="http://purl.org/dc/elements/1.1/" xmlns:rdf="http://www.w3.org/1999/02/22-rdf-syntax-ns#">
 <metadata>
  <rdf:RDF>
   <cc:Work rdf:about="">
    <dc:format>image/svg+xml</dc:format>
    <dc:type rdf:resource="http://purl.org/dc/dcmitype/StillImage"/>
    <dc:title/>
   </cc:Work>
  </rdf:RDF>
 </metadata>
 <g transform="translate(-8.7890623e-7,-525.52399)">
  <rect x="8.7890623e-7" y="525.52399" width="135.46667" height="135.46667" ry="2.061909" opacity="0" stroke-width=".82785952"/>
  <g transform="matrix(.44268775 0 0 .44268775 -137.34494 522.82788)">
   <path d="m455.89205 7.156669c-0.94559 0-1.70685 0.7612626-1.70685 1.7068726v5.8130814c-5.76802 0.162403-10.10177 0.429648-10.43451 0.790133-1.04436 1.131396 19.43759 22.402254 21.55992 22.390364 2.12233-0.01188 21.96457-21.508568 20.88658-22.628076-0.34298-0.35618-4.67103-0.574851-10.43038-0.672827v-5.6926754c0-0.94561-0.76126-1.7068726-1.70685-1.7068726z" fill="#00c853"/>
   <rect transform="matrix(.02354975 -.99972267 .99999997 -.00022657028 0 0)" x="-12.619456" y="460.1387" width="3.9317675" height="14.258574" ry="1.9595118" fill="#a0ffc7"/>
  </g>
  <path d="m67.57155 550.46859a43.796699 43.796699 0 0 0 -14.96742 2.69486l3.41936 0.29625-2.09069 3.06637a40.164776 40.164776 0 0 1 13.63875 -2.42537 40.164776 40.164776 0 0 1 40.16477 40.16477 40.164776 40.164776 0 0 1 -40.16477 40.16477 40.164776 40.164776 0 0 1 -40.16476 -40.16477 40.164776 40.164776 0 0 1 18.89234 -34.04347l-1.5524-3.27158a43.796699 43.796699 0 0 0 -20.97182 37.31505 43.796699 43.796699 0 0 0 43.79664 43.79665 43.796699 43.796699 0 0 0 43.79642 -43.79665 43.796699 43.796699 0 0 0 -43.79642 -43.79688z" fill="#ff5252" stroke-width=".44268775"/>
  <path d="m40.17878 555.72986 12.79934-0.87794-8.10554 10.08312z" fill="#ff5252" stroke-width=".44268775"/>
  <ellipse cx="65.295105" cy="590.85486" rx="55.109818" ry="50.11874" opacity="0" stroke-width="2.342556"/>
  <g transform="matrix(-.44268774 9.4455265e-5 9.4455265e-5 .44268774 125.87947 521.99571)" fill="none" stroke="#ffc107" stroke-linecap="round" stroke-width="2.64583325">
   <g transform="rotate(-26.301235,280.87683,257.93987)">
    <path d="m311.01879 55.61079-10.7041-6.274815"/>
    <path d="m312.14537 43.254339-1.12658 12.356451"/>
   </g>
   <path d="m148.16068 32.100827s36.96218 2.270005 70.08762 31.100082"/>
  </g>
  <g fill="#1565c0" stroke="#fff" stroke-width=".11712779">
   <g style="font-feature-settings:normal;font-variant-caps:normal;font-variant-ligatures:normal;font-variant-numeric:normal" aria-label="Monday">
    <path d="m63.107886 545.55107 0.256217 4.02321-1.555603 0.13116-0.08236-2.05888-0.314171 1.41529-1.396993 0.19521-0.567337-1.46104 0.204363 1.73251-1.424445 0.29282 0.195213-4.27028 1.400044-0.18607 0.774751 2.44017 0.939463-2.36696z" style="font-feature-settings:normal;font-variant-caps:normal;font-variant-ligatures:normal;font-variant-numeric:normal"/>
    <path d="m66.00863 549.82135q-1.030969 0-1.759968-0.62529-0.725948-0.62529-0.725948-1.50985t0.725948-1.50985q0.728999-0.62529 1.759968-0.62529 1.027918 0 1.753866 0.62529 0.728999 0.62529 0.728999 1.50985t-0.728999 1.50985q-0.725948 0.62529-1.753866 0.62529zm-0.170812-1.33294q0.439229 0 0.75035-0.26842 0.314171-0.26841 0.314171-0.64664 0-0.37822-0.314171-0.64664-0.311121-0.26842-0.75035-0.26842-0.442279 0-0.75645 0.26842-0.311121 0.26842-0.311121 0.64664 0 0.37823 0.311121 0.64664 0.314171 0.26842 0.75645 0.26842z" style="font-feature-settings:normal;font-variant-caps:normal;font-variant-ligatures:normal;font-variant-numeric:normal"/>
    <path d="m70.175208 547.68621 0.30197 1.74776-1.522052 0.38738-0.30807-4.00492 1.528152-0.26536 1.5068 1.99483 0.0183-1.99483 1.891126-0.19522-0.671044 4.4655-1.210931 0.17691z" style="font-feature-settings:normal;font-variant-caps:normal;font-variant-ligatures:normal;font-variant-numeric:normal"/>
    <path d="m73.942208 549.82135-0.195213-4.27028q4.160477 0 4.160477 2.13514t-3.965264 2.13514zm1.085873-3.13866 0.204363 1.4763q1.320738 6e-3 1.320738-0.7351 0-0.7412-1.525101-0.7412z" style="font-feature-settings:normal;font-variant-caps:normal;font-variant-ligatures:normal;font-variant-numeric:normal"/>
    <path d="m79.22516 549.21131-0.213515 0.61004-1.20178-0.72595 1.506801-3.54433 1.146876-0.0793 1.80267 3.66939-1.424445 0.6802-0.314171-0.85711zm1.043169-1.33599-0.341623-1.10417-0.402627 1.22008z" style="font-feature-settings:normal;font-variant-caps:normal;font-variant-ligatures:normal;font-variant-numeric:normal"/>
    <path d="m82.723743 547.99123-1.436646-1.44885 1.213981-0.99131 0.832706 1.22008 0.692396-1.519 1.619658 0.55513-1.702014 2.18395 0.131159 1.71421-1.485449-0.20131z" style="font-feature-settings:normal;font-variant-caps:normal;font-variant-ligatures:normal;font-variant-numeric:normal"/>
   </g>
   <g style="font-feature-settings:normal;font-variant-caps:normal;font-variant-ligatures:normal;font-variant-numeric:normal" aria-label="Tuesday">
    <path d="m87.04039 570.92632 0.14946 2.59877-1.65321 0.42703 0.283669-3.10511-1.247533-0.10675 0.09761-1.12858 3.577888-0.21351 0.131159 1.66846z" style="font-feature-settings:normal;font-variant-caps:normal;font-variant-ligatures:normal;font-variant-numeric:normal"/>
    <path d="m88.928466 569.84045 1.625759 0.31722q-0.811354 2.49201 0.231815 2.51947 1.238383-9e-3 0.716798-2.58048l1.488499-0.46973q0.683245 4.23368-2.205297 4.27029-2.919044-0.0275-1.857574-4.05677z" style="font-feature-settings:normal;font-variant-caps:normal;font-variant-ligatures:normal;font-variant-numeric:normal"/>
    <path d="m96.407564 569.0779 0.07931 1.6166-1.897227 0.20437 0.0244 0.36907 1.244483-0.11591 0.109807 1.10418-1.299386 0.0946 0.02135 0.29892 1.842323-0.14031 0.274518 1.38785-3.632792 0.12506 0.369075-4.40145z" style="font-feature-settings:normal;font-variant-caps:normal;font-variant-ligatures:normal;font-variant-numeric:normal"/>
    <path d="m97.752704 572.21045q-1.101123-0.15556-0.973014-1.36954 0.128108-1.21398 2.830588-1.43664l0.256217 1.37869q-1.339039-0.0305-1.436645 0.31722-0.09761 0.34772 1.024868 0.39958 1.122472 0.0518 1.098072 1.36649-0.0244 1.31464-2.955646 1.40309l-0.539886-1.44274q1.5007 0.16166 1.65016-0.14946 0.14946-0.31418-0.954714-0.46669z" style="font-feature-settings:normal;font-variant-caps:normal;font-variant-ligatures:normal;font-variant-numeric:normal"/>
    <path d="m100.92186 573.89722-0.19521-4.27029q4.16048 0 4.16048 2.13514 0 2.13515-3.96527 2.13515zm1.08588-3.13866 0.20436 1.4763q1.32074 6e-3 1.32074-0.7351 0-0.7412-1.5251-0.7412z" style="font-feature-settings:normal;font-variant-caps:normal;font-variant-ligatures:normal;font-variant-numeric:normal"/>
    <path d="m106.20482 573.28718-0.21352 0.61004-1.20178-0.72595 1.5068-3.54434 1.14688-0.0793 1.80267 3.66939-1.42444 0.6802-0.31418-0.85711zm1.04317-1.33599-0.34163-1.10418-0.40262 1.22008z" style="font-feature-settings:normal;font-variant-caps:normal;font-variant-ligatures:normal;font-variant-numeric:normal"/>
    <path d="m109.7034 572.06709-1.43665-1.44884 1.21398-0.99132 0.83271 1.22008 0.6924-1.519 1.61965 0.55514-1.70201 2.18394 0.13116 1.71422-1.48545-0.20131z" style="font-feature-settings:normal;font-variant-caps:normal;font-variant-ligatures:normal;font-variant-numeric:normal"/>
   </g>
   <g style="font-feature-settings:normal;font-variant-caps:normal;font-variant-ligatures:normal;font-variant-numeric:normal" aria-label="Wednesday">
    <path d="m82.307926 598.3734-0.610041 2.13514-1.20483 0.15862-1.814871-3.59009 1.494599-0.83881 0.915061 2.44016 0.716798-1.92773 1.220081 0.16777 0.503284 1.75996 0.732049-2.52862 1.65931 0.90897-1.781318 3.44977-1.363441-0.29281z" style="font-feature-settings:normal;font-variant-caps:normal;font-variant-ligatures:normal;font-variant-numeric:normal"/>
    <path d="m89.134281 595.68922 0.07931 1.61661-1.897227 0.20437 0.0244 0.36907 1.244483-0.11591 0.109807 1.10418-1.299386 0.0946 0.02135 0.29892 1.842323-0.14031 0.274518 1.38784-3.632792 0.12506 0.369075-4.40144z" style="font-feature-settings:normal;font-variant-caps:normal;font-variant-ligatures:normal;font-variant-numeric:normal"/>
    <path d="m89.87853 600.50854-0.195213-4.27028q4.160478 0 4.160478 2.13514t-3.965265 2.13514zm1.085873-3.13865 0.204363 1.47629q1.320738 6e-3 1.320738-0.73509 0-0.7412-1.525101-0.7412z" style="font-feature-settings:normal;font-variant-caps:normal;font-variant-ligatures:normal;font-variant-numeric:normal"/>
    <path d="m95.530556 598.3734 0.30197 1.74777-1.522051 0.38737-0.308071-4.00491 1.528152-0.26537 1.506801 1.99483 0.0183-1.99483 1.891126-0.19521-0.671045 4.46549-1.210931 0.17692z" style="font-feature-settings:normal;font-variant-caps:normal;font-variant-ligatures:normal;font-variant-numeric:normal"/>
    <path d="m102.06714 595.68922 0.0793 1.61661-1.89723 0.20437 0.0244 0.36907 1.24449-0.11591 0.1098 1.10418-1.29938 0.0946 0.0213 0.29892 1.84232-0.14031 0.27452 1.38784-3.632794 0.12506 0.369075-4.40144z" style="font-feature-settings:normal;font-variant-caps:normal;font-variant-ligatures:normal;font-variant-numeric:normal"/>
    <path d="m103.41228 598.82178q-1.10112-0.15556-0.97301-1.36954t2.83059-1.43664l0.25621 1.37869q-1.33904-0.0305-1.43664 0.31722t1.02487 0.39958q1.12247 0.0519 1.09807 1.36649-0.0244 1.31463-2.95565 1.40309l-0.53988-1.44275q1.5007 0.16166 1.65016-0.14946 0.14946-0.31417-0.95472-0.46668z" style="font-feature-settings:normal;font-variant-caps:normal;font-variant-ligatures:normal;font-variant-numeric:normal"/>
    <path d="m106.58144 600.50854-0.19521-4.27028q4.16048 0 4.16048 2.13514t-3.96527 2.13514zm1.08588-3.13865 0.20436 1.47629q1.32074 6e-3 1.32074-0.73509 0-0.7412-1.5251-0.7412z" style="font-feature-settings:normal;font-variant-caps:normal;font-variant-ligatures:normal;font-variant-numeric:normal"/>
    <path d="m111.86439 599.8985-0.21351 0.61004-1.20178-0.72594 1.5068-3.54434 1.14688-0.0793 1.80267 3.66939-1.42445 0.68019-0.31417-0.8571zm1.04317-1.33598-0.34162-1.10418-0.40263 1.22008z" style="font-feature-settings:normal;font-variant-caps:normal;font-variant-ligatures:normal;font-variant-numeric:normal"/>
    <path d="m115.36298 598.67842-1.43665-1.44884 1.21398-0.99132 0.83271 1.22008 0.6924-1.519 1.61965 0.55514-1.70201 2.18394 0.13116 1.71422-1.48545-0.20132z" style="font-feature-settings:normal;font-variant-caps:normal;font-variant-ligatures:normal;font-variant-numeric:normal"/>
   </g>
   <g style="font-feature-settings:normal;font-variant-caps:normal;font-variant-ligatures:normal;font-variant-numeric:normal" aria-label="Thursday">
    <path d="m71.753037 626.2257 0.14946 2.59877-1.65321 0.42703 0.283669-3.10511-1.247533-0.10676 0.09761-1.12857 3.577888-0.21352 0.131159 1.66847z" style="font-feature-settings:normal;font-variant-caps:normal;font-variant-ligatures:normal;font-variant-numeric:normal"/>
    <path d="m74.839843 627.90941 0.109807 1.03097-1.168228 0.20436-0.530735-3.37962 1.299386-0.55514 0.14641 1.4641 1.171278-0.13421 0.0183-1.33294 2.034486 0.20436-0.777802 3.7487-1.308537-0.38737 0.01525-0.97302z" style="font-feature-settings:normal;font-variant-caps:normal;font-variant-ligatures:normal;font-variant-numeric:normal"/>
    <path d="m78.362827 625.13982 1.625759 0.31723q-0.811354 2.49201 0.231815 2.51946 1.238383-9e-3 0.716798-2.58047l1.488499-0.46973q0.683245 4.23368-2.205297 4.27028-2.919044-0.0275-1.857574-4.05677z" style="font-feature-settings:normal;font-variant-caps:normal;font-variant-ligatures:normal;font-variant-numeric:normal"/>
    <path d="m84.200916 625.93288 0.0427 0.82355q1.525101 0 1.525101-0.30502t-1.567804-0.51853zm0.204363 3.01665-1.698963 0.23791 0.353824-4.55395q3.928662 0.29282 4.05982 1.57391 0.134209 1.27803-1.35124 1.76911l1.220082 0.6619-1.250584 1.10722-1.430545-1.76912z" style="font-feature-settings:normal;font-variant-caps:normal;font-variant-ligatures:normal;font-variant-numeric:normal"/>
    <path d="m88.504752 627.50983q-1.101123-0.15556-0.973015-1.36954 0.128109-1.21398 2.830589-1.43665l0.256217 1.3787q-1.339039-0.0305-1.436646 0.31722-0.09761 0.34772 1.024868 0.39957 1.122475 0.0519 1.098073 1.3665-0.0244 1.31463-2.955646 1.40309l-0.539886-1.44275q1.5007 0.16166 1.65016-0.14946 0.149459-0.31417-0.954714-0.46668z" style="font-feature-settings:normal;font-variant-caps:normal;font-variant-ligatures:normal;font-variant-numeric:normal"/>
    <path d="m91.673913 629.19659-0.195213-4.27028q4.160477 0 4.160477 2.13514t-3.965264 2.13514zm1.085872-3.13865 0.204364 1.47629q1.320738 6e-3 1.320738-0.7351 0-0.74119-1.525102-0.74119z" style="font-feature-settings:normal;font-variant-caps:normal;font-variant-ligatures:normal;font-variant-numeric:normal"/>
    <path d="m96.956866 628.58655-0.213514 0.61004-1.20178-0.72594 1.5068-3.54434 1.146877-0.0793 1.80267 3.6694-1.424445 0.68019-0.314171-0.8571zm1.04317-1.33599-0.341623-1.10417-0.402627 1.22008z" style="font-feature-settings:normal;font-variant-caps:normal;font-variant-ligatures:normal;font-variant-numeric:normal"/>
    <path d="m100.45545 627.36647-1.436648-1.44884 1.213978-0.99132 0.83271 1.22008 0.69239-1.519 1.61966 0.55514-1.70201 2.18394 0.13116 1.71422-1.48545-0.20132z" style="font-feature-settings:normal;font-variant-caps:normal;font-variant-ligatures:normal;font-variant-numeric:normal"/>
   </g>
   <g style="font-feature-settings:normal;font-variant-caps:normal;font-variant-ligatures:normal;font-variant-numeric:normal" aria-label="Friday">
    <path d="m36.005128 624.54197-0.259267 1.76911-1.485449-0.0793 0.061 0.30502 1.180429 0.13421-0.161661 1.26888-0.814404-0.18301 0.274518 1.32379-1.4946 0.20131-0.335522-4.00491z" style="font-feature-settings:normal;font-variant-caps:normal;font-variant-ligatures:normal;font-variant-numeric:normal"/>
    <path d="m37.453975 626.01826 0.0427 0.82356q1.525101 0 1.525101-0.30502t-1.567804-0.51854zm0.204363 3.01666-1.698963 0.23791 0.353824-4.55395q3.928661 0.29282 4.05982 1.5739 0.134209 1.27804-1.35124 1.76912l1.220081 0.6619-1.250583 1.10722-1.430545-1.76912z" style="font-feature-settings:normal;font-variant-caps:normal;font-variant-ligatures:normal;font-variant-numeric:normal"/>
    <path d="m42.071982 625.0361 0.311121 4.11472-1.726415 0.32638 0.0793-4.33434z" style="font-feature-settings:normal;font-variant-caps:normal;font-variant-ligatures:normal;font-variant-numeric:normal"/>
    <path d="m42.730826 629.28198-0.195213-4.27028q4.160477 0 4.160477 2.13514t-3.965264 2.13514zm1.085873-3.13866 0.204363 1.4763q1.320738 6e-3 1.320738-0.7351 0-0.7412-1.525101-0.7412z" style="font-feature-settings:normal;font-variant-caps:normal;font-variant-ligatures:normal;font-variant-numeric:normal"/>
    <path d="m48.013778 628.67194-0.213515 0.61004-1.20178-0.72595 1.506801-3.54433 1.146876-0.0793 1.80267 3.6694-1.424445 0.68019-0.314171-0.8571zm1.043169-1.33599-0.341623-1.10417-0.402626 1.22008z" style="font-feature-settings:normal;font-variant-caps:normal;font-variant-ligatures:normal;font-variant-numeric:normal"/>
    <path d="m51.512361 627.45186-1.436646-1.44885 1.213981-0.99131 0.832706 1.22008 0.692396-1.519 1.619658 0.55514-1.702014 2.18394 0.131159 1.71421-1.485449-0.20131z" style="font-feature-settings:normal;font-variant-caps:normal;font-variant-ligatures:normal;font-variant-numeric:normal"/>
   </g>
   <g style="font-feature-settings:normal;font-variant-caps:normal;font-variant-ligatures:normal;font-variant-numeric:normal" aria-label="Saturday">
    <path d="m19.230479 598.60828q-1.101123-0.15556-0.973015-1.36954 0.128109-1.21398 2.830589-1.43665l0.256217 1.3787q-1.339039-0.0305-1.436646 0.31722-0.09761 0.34772 1.024868 0.39957 1.122475 0.0519 1.098074 1.3665-0.0244 1.31463-2.955647 1.40309l-0.539886-1.44275q1.5007 0.16166 1.65016-0.14946 0.14946-0.31417-0.954714-0.46668z" style="font-feature-settings:normal;font-variant-caps:normal;font-variant-ligatures:normal;font-variant-numeric:normal"/>
    <path d="m23.619721 599.685-0.213514 0.61004-1.20178-0.72594 1.5068-3.54434 1.146877-0.0793 1.80267 3.6694-1.424445 0.68019-0.314171-0.8571zm1.04317-1.33599-0.341623-1.10417-0.402627 1.22008z" style="font-feature-settings:normal;font-variant-caps:normal;font-variant-ligatures:normal;font-variant-numeric:normal"/>
    <path d="m28.344486 597.32415 0.14946 2.59877-1.65321 0.42703 0.283668-3.10511-1.247533-0.10676 0.09761-1.12857 3.577888-0.21352 0.131159 1.66847z" style="font-feature-settings:normal;font-variant-caps:normal;font-variant-ligatures:normal;font-variant-numeric:normal"/>
    <path d="m30.232562 596.23827 1.625758 0.31722q-0.811354 2.49202 0.231816 2.51947 1.238382-9e-3 0.716798-2.58047l1.488499-0.46973q0.683245 4.23368-2.205297 4.27028-2.919045-0.0274-1.857574-4.05677z" style="font-feature-settings:normal;font-variant-caps:normal;font-variant-ligatures:normal;font-variant-numeric:normal"/>
    <path d="m36.070651 597.03133 0.0427 0.82355q1.525102 0 1.525102-0.30502t-1.567804-0.51853zm0.204363 3.01665-1.698963 0.23791 0.353824-4.55395q3.928661 0.29282 4.05982 1.5739 0.134209 1.27804-1.35124 1.76912l1.220081 0.6619-1.250583 1.10722-1.430545-1.76912z" style="font-feature-settings:normal;font-variant-caps:normal;font-variant-ligatures:normal;font-variant-numeric:normal"/>
    <path d="m39.468577 600.29504-0.195213-4.27028q4.160477 0 4.160477 2.13514t-3.965264 2.13514zm1.085873-3.13866 0.204363 1.4763q1.320738 6e-3 1.320738-0.7351 0-0.7412-1.525101-0.7412z" style="font-feature-settings:normal;font-variant-caps:normal;font-variant-ligatures:normal;font-variant-numeric:normal"/>
    <path d="m44.751529 599.685-0.213515 0.61004-1.20178-0.72594 1.506801-3.54434 1.146876-0.0793 1.80267 3.6694-1.424445 0.68019-0.314171-0.8571zm1.043169-1.33599-0.341623-1.10417-0.402626 1.22008z" style="font-feature-settings:normal;font-variant-caps:normal;font-variant-ligatures:normal;font-variant-numeric:normal"/>
    <path d="m48.250112 598.46492-1.436646-1.44884 1.213981-0.99132 0.832706 1.22008 0.692396-1.519 1.619658 0.55514-1.702014 2.18394 0.131159 1.71422-1.485449-0.20132z" style="font-feature-settings:normal;font-variant-caps:normal;font-variant-ligatures:normal;font-variant-numeric:normal"/>
   </g>
   <g style="font-feature-settings:normal;font-variant-caps:normal;font-variant-ligatures:normal;font-variant-numeric:normal" aria-label="Sunday ">
    <path d="m21.946238 572.08539q-1.101123-0.15556-0.973015-1.36954 0.128109-1.21398 2.830589-1.43664l0.256217 1.37869q-1.339039-0.0305-1.436646 0.31722-0.09761 0.34772 1.024869 0.39958 1.122474 0.0519 1.098073 1.36649-0.0244 1.31463-2.955647 1.40309l-0.539886-1.44275q1.5007 0.16167 1.65016-0.14946 0.14946-0.31417-0.954714-0.46668z" style="font-feature-settings:normal;font-variant-caps:normal;font-variant-ligatures:normal;font-variant-numeric:normal"/>
    <path d="m25.286211 569.71539 1.625758 0.31722q-0.811354 2.49201 0.231815 2.51946 1.238383-9e-3 0.716798-2.58047l1.488499-0.46973q0.683246 4.23368-2.205297 4.27029-2.919044-0.0275-1.857573-4.05677z" style="font-feature-settings:normal;font-variant-caps:normal;font-variant-ligatures:normal;font-variant-numeric:normal"/>
    <path d="m31.255458 571.63701 0.301971 1.74777-1.522052 0.38738-0.30807-4.00492 1.528151-0.26537 1.506801 1.99483 0.0183-1.99483 1.891126-0.19521-0.671045 4.4655-1.21093 0.17691z" style="font-feature-settings:normal;font-variant-caps:normal;font-variant-ligatures:normal;font-variant-numeric:normal"/>
    <path d="m35.02246 573.77216-0.195213-4.27029q4.160477 0 4.160477 2.13514 0 2.13515-3.965264 2.13515zm1.085872-3.13866 0.204364 1.4763q1.320738 6e-3 1.320738-0.7351 0-0.7412-1.525102-0.7412z" style="font-feature-settings:normal;font-variant-caps:normal;font-variant-ligatures:normal;font-variant-numeric:normal"/>
    <path d="m40.305411 573.16212-0.213514 0.61004-1.20178-0.72595 1.5068-3.54434 1.146877-0.0793 1.80267 3.66939-1.424445 0.6802-0.314171-0.85711zm1.04317-1.33599-0.341623-1.10418-0.402627 1.22008z" style="font-feature-settings:normal;font-variant-caps:normal;font-variant-ligatures:normal;font-variant-numeric:normal"/>
    <path d="m43.803995 571.94203-1.436646-1.44884 1.213981-0.99132 0.832705 1.22008 0.692396-1.519 1.619658 0.55514-1.702013 2.18394 0.131159 1.71422-1.485449-0.20132z" style="font-feature-settings:normal;font-variant-caps:normal;font-variant-ligatures:normal;font-variant-numeric:normal"/>
   </g>
  </g>
  <g transform="matrix(-.27509329 .34683732 .34683732 .27509329 142.38587 388.69064)">
   <path transform="scale(.26458333)" d="m1729.8105 73.541016c-2.733 0-4.9335 2.200566-4.9335 4.933593v14.388672c-10.1526 0.470168-17.3718 1.077655-18.0118 1.783203-2.3979 2.643719 45.5084 51.537326 50.4278 51.466796 4.9194-0.0705 50.4804-50.301768 47.959-52.874999-0.6711-0.684879-7.8758-1.085882-18-1.265625v-13.498047c0-2.733027-2.1987-4.933593-4.9317-4.933593z" fill="#2196f3"/>
   <rect transform="rotate(-43.436588)" x="312.67651" y="335.33032" width="2.7792709" height="8.6303663" ry="1.3896354" fill="#c8e5fc"/>
  </g>
  <g fill="#fff">
   <circle cx="68.490356" cy="552.30542" r="1.5675197"/>
   <circle cx="99.318054" cy="566.78113" r="1.5675197"/>
   <circle cx="108.55951" cy="603.1394" r="1.5675197"/>
   <circle cx="86.206848" cy="631.91705" r="1.5675197"/>
   <circle transform="scale(-1,1)" cx="-36.096252" cy="566.78113" r="1.5675197"/>
   <circle transform="scale(-1,1)" cx="-26.546913" cy="603.1394" r="1.5675197"/>
   <circle transform="scale(-1,1)" cx="-49.20752" cy="631.91705" r="1.5675197"/>
  </g>
  <g transform="rotate(-24.359948)" fill="#616161" stroke-width=".11712779" style="font-feature-settings:normal;font-variant-caps:normal;font-variant-ligatures:normal;font-variant-numeric:normal" aria-label="yesterday">
   <path d="m-201.20727 503.32739q-0.0183-0.0793 0.0122-0.15251 0.0366-0.0732 0.0976-0.13421 0.061-0.061 0.14031-0.1037 0.0793-0.0427 0.14641-0.0549l2.04364 2.9709 1.30549-3.0136q0.0122-0.0305 0.0854-0.0366 0.0732-0.0122 0.15251 0.0122 0.0854 0.0183 0.14641 0.0854 0.0671 0.0671 0.0549 0.18912l-2.33036 6.18581q-0.061 0.12811-0.17081 0.16471t-0.21351 0.0122q-0.10371-0.0244-0.17082-0.0976-0.0671-0.0671-0.0488-0.14641l0.94556-2.62927z" style="font-feature-settings:normal;font-variant-caps:normal;font-variant-ligatures:normal;font-variant-numeric:normal"/>
   <path d="m-197.1322 505.49914q-0.0549-0.49414 0.0854-0.98217 0.14031-0.49413 0.43313-0.87846 0.29892-0.39042 0.71985-0.62224 0.42093-0.23791 0.92726-0.22571 0.20742-6e-3 0.47583 0.0915 0.26842 0.0976 0.49414 0.27452 0.22571 0.17081 0.35992 0.40263 0.14031 0.22571 0.0915 0.48193 6e-3 0.12811-0.12811 0.21351-0.13421 0.0793-0.35993 0.12811-0.21961 0.0488-0.51853 0.0732-0.29282 0.0183-0.62224 0.0305-0.32332 0.0122-0.65884 0.0244-0.33553 6e-3 -0.63445 0.0305-0.17081 0.46973-0.1037 0.77475 0.0732 0.29892 0.29892 0.45753 0.23181 0.15862 0.56733 0.18912 0.34163 0.0244 0.70765-0.0488 0.36603-0.0732 0.71985-0.23181 0.35382-0.16471 0.61004-0.39043 0.0366 0 0.0915 0.0244 0.061 0.0244 0.1159 0.0671 0.0549 0.0366 0.0915 0.0854 0.0427 0.0427 0.0427 0.0793-0.15251 0.26232-0.46363 0.46973t-0.70155 0.33552q-0.39042 0.12811-0.81745 0.15861-0.42093 0.0305-0.79305-0.061-0.37213-0.0915-0.65275-0.32332-0.28061-0.23182-0.37822-0.62834zm2.91599-1.62881q-0.0305-0.23182-0.18301-0.34773-0.15251-0.1159-0.35992-0.1464-0.20742-0.0366-0.43923 6e-3 -0.23182 0.0427-0.43313 0.1281-0.19521 0.0854-0.32942 0.20132-0.12811 0.11591-0.13421 0.23181z" style="font-feature-settings:normal;font-variant-caps:normal;font-variant-ligatures:normal;font-variant-numeric:normal"/>
   <path d="m-192.80701 506.07257q0.54903-0.0427 0.99436-0.15251 0.45143-0.1098 0.75645-0.25011 0.31112-0.14641 0.46363-0.30502 0.15251-0.16471 0.10981-0.32332-0.0488-0.17082-0.48803-0.14641-0.43313 0.0244-1.28719 0.19521-0.25011-0.0183-0.43923-0.11591-0.18301-0.0976-0.29282-0.23181-0.1098-0.14031-0.1403-0.29282t0.0183-0.26842q0-0.20131 0.1159-0.39043 0.12201-0.19521 0.32333-0.35382 0.20741-0.16471 0.47583-0.29282 0.27452-0.13421 0.58564-0.20741 0.31112-0.0793 0.64054-0.0976t0.65274 0.0427q0.15861 0.0732 0.25622 0.17081 0.10371 0.0915 0.14031 0.18912 0.0366 0.0915 0 0.17691-0.0366 0.0854-0.15251 0.14641-0.25012-0.10981-0.53074-0.15861-0.27451-0.0549-0.54903-0.0427t-0.53074 0.0854q-0.25012 0.0671-0.44533 0.19521-0.18911 0.12201-0.31112 0.30502-0.12201 0.18302-0.12811 0.41483 0 0.12811 0.0976 0.17081 0.10371 0.0366 0.23791 0.0366 0.14031-6e-3 0.28672-0.0305 0.15251-0.0305 0.24402-0.0305 0.60394-0.0854 0.99437-0.0488 0.39652 0.0366 0.60394 0.15861 0.20741 0.12201 0.24401 0.30502t-0.0732 0.39652q-0.10371 0.20742-0.34162 0.42093-0.23792 0.21352-0.57954 0.39043-0.34163 0.17691-0.77475 0.29892-0.42703 0.11591-0.91507 0.14031-0.1159 0.0427-0.19521-0.0122-0.0732-0.0549-0.10981-0.14641-0.0366-0.0915-0.0305-0.18912 0.0122-0.1037 0.0732-0.15251z" style="font-feature-settings:normal;font-variant-caps:normal;font-variant-ligatures:normal;font-variant-numeric:normal"/>
   <path d="m-189.586 503.91303q-0.14641-0.0366-0.18911-0.12201-0.0488-0.0854-0.0305-0.17081 0.0183-0.0915 0.0793-0.15861 0.061-0.0671 0.12811-0.0732h1.14078l-0.0244-1.90333q0.0244-0.0732 0.10371-0.12201 0.0793-0.0488 0.17081-0.0549 0.0915-0.0122 0.18301 0.0244 0.0915 0.0305 0.14641 0.12201l0.0549 1.90332 1.07977-0.0244q0.10981 0.061 0.14641 0.15251 0.0427 0.0854 0.0366 0.17081-6e-3 0.0793-0.0488 0.14641-0.0366 0.061-0.0854 0.0732l-1.12857 0.0244q-6e-3 0.37823 6e-3 0.68325 0.0183 0.29892 0.0366 0.58563 0.0244 0.28062 0.0366 0.58564 0.0183 0.29892 0.0183 0.67105-0.17691 0.12201-0.35992 0.11591-0.18301-6e-3 -0.25012-0.15251l-0.0671-2.47677h-1.18348z" style="font-feature-settings:normal;font-variant-caps:normal;font-variant-ligatures:normal;font-variant-numeric:normal"/>
   <path d="m-186.41989 505.49914q-0.0549-0.49414 0.0854-0.98217 0.14031-0.49413 0.43313-0.87846 0.29892-0.39042 0.71984-0.62224 0.42093-0.23791 0.92727-0.22571 0.20741-6e-3 0.47583 0.0915 0.26842 0.0976 0.49413 0.27452 0.22572 0.17081 0.35993 0.40263 0.1403 0.22571 0.0915 0.48193 6e-3 0.12811-0.12811 0.21351-0.13421 0.0793-0.35992 0.12811-0.21962 0.0488-0.51854 0.0732-0.29282 0.0183-0.62224 0.0305-0.32332 0.0122-0.65884 0.0244-0.33552 6e-3 -0.63444 0.0305-0.17081 0.46973-0.10371 0.77475 0.0732 0.29892 0.29892 0.45753 0.23182 0.15862 0.56734 0.18912 0.34162 0.0244 0.70764-0.0488 0.36603-0.0732 0.71985-0.23181 0.35383-0.16471 0.61004-0.39043 0.0366 0 0.0915 0.0244 0.061 0.0244 0.11591 0.0671 0.0549 0.0366 0.0915 0.0854 0.0427 0.0427 0.0427 0.0793-0.15251 0.26232-0.46363 0.46973-0.31113 0.20741-0.70155 0.33552-0.39043 0.12811-0.81746 0.15861-0.42092 0.0305-0.79305-0.061-0.37212-0.0915-0.65274-0.32332t-0.37823-0.62834zm2.916-1.62881q-0.0305-0.23182-0.18302-0.34773-0.15251-0.1159-0.35992-0.1464-0.20741-0.0366-0.43923 6e-3 -0.23181 0.0427-0.43313 0.1281-0.19521 0.0854-0.32942 0.20132-0.12811 0.11591-0.13421 0.23181z" style="font-feature-settings:normal;font-variant-caps:normal;font-variant-ligatures:normal;font-variant-numeric:normal"/>
   <path d="m-182.37532 502.86986q0.0122-0.11591 0.0976-0.14031 0.0854-0.0305 0.18301-0.0183 0.15861 0.0183 0.23792 0.16471 0.0793 0.14031 0.1098 0.31722t0.0305 0.34773q0 0.16471 6e-3 0.23791 0.17081-0.14641 0.37822-0.33552 0.21352-0.18911 0.51244-0.34162 0.30502-0.15861 0.72594-0.23792 0.42703-0.0854 1.02487-0.0122 0.14641 0.0366 0.21352 0.14031 0.0732 0.10371 0.0732 0.21961 6e-3 0.10981-0.061 0.20742-0.061 0.0915-0.17691 0.1037-0.14641-0.1098-0.39043-0.1281t-0.53684 0.0427q-0.28672 0.061-0.58564 0.19521t-0.55513 0.33552q-0.25012 0.20132-0.43313 0.46364-0.17691 0.26231-0.21962 0.57343v1.33599q-0.0122 0.0305-0.0976 0.0915-0.0854 0.0549-0.19522 0.0793-0.1037 0.0305-0.21351 0-0.10371-0.0305-0.15861-0.17081 0-0.0427 0-0.26842 0-0.23181 0-0.55513 6e-3 -0.32942 0.0122-0.71375 6e-3 -0.39043 6e-3 -0.76255 6e-3 -0.37213 6e-3 -0.68325 6e-3 -0.31112 6e-3 -0.48803z" style="font-feature-settings:normal;font-variant-caps:normal;font-variant-ligatures:normal;font-variant-numeric:normal"/>
   <path d="m-176.22001 505.65775q-0.28062 0.21351-0.59174 0.38432t-0.61614 0.28062q-0.30502 0.10371-0.59784 0.14031-0.28672 0.0305-0.53073-0.0305-0.23792-0.061-0.42093-0.22572-0.18302-0.17081-0.26842-0.46973-0.0854-0.39652 0.0122-0.75035 0.0976-0.35382 0.32332-0.64664t0.54904-0.50633q0.32332-0.21962 0.68934-0.34163 0.36603-0.12201 0.75035-0.13421 0.39043-0.0122 0.74425 0.10371 0-0.13421 0-0.34772 6e-3 -0.21962 6e-3 -0.45143 6e-3 -0.23182 0.0122-0.44533 6e-3 -0.21352 0.0183-0.34773 0.0366-0.31112 0.14641-0.47583 0.1098-0.17081 0.38432-0.1159 0.0122 0.47583 6e-3 0.87235-6e-3 0.39043-0.0183 0.75035-0.0122 0.35383-0.0244 0.70155-0.0122 0.34162-0.0122 0.73205 0 0.38432 0.0122 0.83575 0.0183 0.45143 0.061 1.01267 0 0.17691-0.0671 0.25012-0.061 0.0732-0.21352 0.0732-0.14641 0-0.22571-0.0915-0.0732-0.0976-0.10371-0.22572-0.0244-0.13421-0.0244-0.28062t0-0.25011zm-2.49507-0.23792q0.0122 0.28062 0.15862 0.40263 0.15251 0.11591 0.42092 0.0671 0.12811 0 0.39043-0.0671 0.26842-0.0732 0.54904-0.18301 0.28671-0.11591 0.53683-0.25012 0.25012-0.14031 0.35382-0.28062v-1.01267q-0.15861-0.17081-0.40262-0.21351-0.24402-0.0488-0.51854 6e-3 -0.27451 0.0549-0.54903 0.20131-0.26842 0.14031-0.48194 0.34773-0.21351 0.20131-0.34162 0.45753-0.12811 0.25011-0.11591 0.52463z" style="font-feature-settings:normal;font-variant-caps:normal;font-variant-ligatures:normal;font-variant-numeric:normal"/>
   <path d="m-172.13274 505.23682q-0.17691 0.27452-0.40872 0.50023-0.23182 0.21962-0.51244 0.37823-0.27452 0.15251-0.60394 0.22571-0.32332 0.0732-0.68324 0.0427-0.12811 0-0.27452-0.0305t-0.27452-0.0976q-0.12201-0.0671-0.20131-0.17691t-0.0793-0.27452q-0.0671-0.34163 0.0305-0.70765 0.10371-0.37212 0.31112-0.71985 0.21352-0.35382 0.51244-0.65884 0.30502-0.31112 0.64664-0.52464 0.34162-0.21961 0.69545-0.31722 0.35992-0.10371 0.68934-0.0427 0.25012 0 0.38433 0.16471 0.14031 0.16471 0.20741 0.44533 0.0732 0.27452 0.0854 0.64054 0.0183 0.35993 0.0183 0.75645 6e-3 0.39043 0.0183 0.78696 0.0122 0.39042 0.0671 0.72594-6e-3 0.0122-0.061 0.0732-0.0488 0.061-0.12811 0.0976-0.0793 0.0366-0.18301 0.0122-0.0976-0.0183-0.19521-0.17082-0.0366-0.061-0.0488-0.21351-6e-3 -0.15861-6e-3 -0.33552 6e-3 -0.17691 6e-3 -0.34163 6e-3 -0.16471-0.0122-0.23791zm-0.38432-1.85452q-0.23792-0.0183-0.49413 0.0732-0.25622 0.0915-0.50024 0.26232-0.23791 0.16471-0.45143 0.39042-0.21351 0.21962-0.37212 0.46363-0.15861 0.23792-0.25012 0.47584-0.0854 0.23791-0.0793 0.43923 0.0122 0.19521 0.1281 0.33552 0.12201 0.13421 0.37823 0.17691 0.35382 6e-3 0.67714-0.17691 0.32333-0.18911 0.58564-0.46973 0.26232-0.28062 0.43923-0.61004 0.18301-0.33553 0.24402-0.62835 0.0671-0.29282 0-0.49413-0.0671-0.20741-0.30502-0.23791z" style="font-feature-settings:normal;font-variant-caps:normal;font-variant-ligatures:normal;font-variant-numeric:normal"/>
   <path d="m-171.30308 503.32739q-0.0183-0.0793 0.0122-0.15251 0.0366-0.0732 0.0976-0.13421 0.061-0.061 0.14031-0.1037 0.0793-0.0427 0.14641-0.0549l2.04363 2.9709 1.30549-3.0136q0.0122-0.0305 0.0854-0.0366 0.0732-0.0122 0.15251 0.0122 0.0854 0.0183 0.14641 0.0854 0.0671 0.0671 0.0549 0.18912l-2.33036 6.18581q-0.061 0.12811-0.17081 0.16471t-0.21351 0.0122q-0.10371-0.0244-0.17081-0.0976-0.0671-0.0671-0.0488-0.14641l0.94557-2.62927z" style="font-feature-settings:normal;font-variant-caps:normal;font-variant-ligatures:normal;font-variant-numeric:normal"/>
  </g>
 </g>
</svg>
