<?xml version="1.0" encoding="UTF-8"?>
<!-- Created with Inkscape (http://www.inkscape.org/) -->
<svg width="512" height="512" version="1.1" viewBox="0 0 135.46667 135.46667" xmlns="http://www.w3.org/2000/svg" xmlns:cc="http://creativecommons.org/ns#" xmlns:dc="http://purl.org/dc/elements/1.1/" xmlns:rdf="http://www.w3.org/1999/02/22-rdf-syntax-ns#">
 <metadata>
  <rdf:RDF>
   <cc:Work rdf:about="">
    <dc:format>image/svg+xml</dc:format>
    <dc:type rdf:resource="http://purl.org/dc/dcmitype/StillImage"/>
    <dc:title/>
   </cc:Work>
  </rdf:RDF>
 </metadata>
 <g transform="translate(-921.42975,-525.52399)">
  <rect x="921.42975" y="525.52399" width="135.46667" height="135.46667" ry="2.061909" opacity="0" stroke-width=".82785952"/>
  <path d="m989.0013 550.46859a43.796699 43.796699 0 0 0 -14.9674 2.69486l3.4193 0.29625-2.0907 3.06637a40.164776 40.164776 0 0 1 13.6388 -2.42537 40.164776 40.164776 0 0 1 40.1648 40.16477 40.164776 40.164776 0 0 1 -40.1648 40.16477 40.164776 40.164776 0 0 1 -40.1648 -40.16477 40.164776 40.164776 0 0 1 18.8924 -34.04347l-1.5524-3.27158a43.796699 43.796699 0 0 0 -20.9719 37.31505 43.796699 43.796699 0 0 0 43.7967 43.79665 43.796699 43.796699 0 0 0 43.7964 -43.79665 43.796699 43.796699 0 0 0 -43.7964 -43.79688z" fill="#ff5252" stroke-width=".44268775"/>
  <path d="m961.6085 555.72986 12.7994-0.87794-8.1056 10.08312z" fill="#ff5252" stroke-width=".44268775"/>
  <ellipse cx="986.72479" cy="590.85486" rx="55.109818" ry="50.11874" opacity="0" stroke-width="2.342556"/>
  <g transform="matrix(-.27527669 .34669178 .34669178 .27527669 970.98074 505.14868)" fill="none" stroke="#ffc107" stroke-linecap="round" stroke-width="2.64583325">
   <g transform="rotate(-26.301235,280.87683,257.93987)">
    <path d="m311.01879 55.61079-10.7041-6.274815"/>
    <path d="m312.14537 43.254339-1.12658 12.356451"/>
   </g>
   <path d="m148.16068 32.100827s36.96218 2.270005 70.08762 31.100082"/>
  </g>
  <g fill="#1565c0" stroke="#fff" stroke-width=".11712779">
   <g style="font-feature-settings:normal;font-variant-caps:normal;font-variant-ligatures:normal;font-variant-numeric:normal" aria-label="Monday">
    <path d="m984.5377 545.55107 0.25621 4.02321-1.5556 0.13116-0.0824-2.05888-0.31417 1.41529-1.39699 0.19521-0.56734-1.46104 0.20437 1.73251-1.42445 0.29282 0.19521-4.27028 1.40005-0.18607 0.77475 2.44017 0.93946-2.36696z" style="font-feature-settings:normal;font-variant-caps:normal;font-variant-ligatures:normal;font-variant-numeric:normal"/>
    <path d="m987.43844 549.82135q-1.03097 0-1.75997-0.62529-0.72595-0.62529-0.72595-1.50985t0.72595-1.50985q0.729-0.62529 1.75997-0.62529 1.02792 0 1.75387 0.62529 0.72899 0.62529 0.72899 1.50985t-0.72899 1.50985q-0.72595 0.62529-1.75387 0.62529zm-0.17081-1.33294q0.43923 0 0.75035-0.26842 0.31417-0.26841 0.31417-0.64664 0-0.37822-0.31417-0.64664-0.31112-0.26842-0.75035-0.26842-0.44228 0-0.75645 0.26842-0.31112 0.26842-0.31112 0.64664 0 0.37823 0.31112 0.64664 0.31417 0.26842 0.75645 0.26842z" style="font-feature-settings:normal;font-variant-caps:normal;font-variant-ligatures:normal;font-variant-numeric:normal"/>
    <path d="m991.60502 547.68621 0.30197 1.74776-1.52205 0.38738-0.30807-4.00492 1.52815-0.26536 1.5068 1.99483 0.0183-1.99483 1.89112-0.19522-0.67104 4.4655-1.21093 0.17691z" style="font-feature-settings:normal;font-variant-caps:normal;font-variant-ligatures:normal;font-variant-numeric:normal"/>
    <path d="m995.37202 549.82135-0.19522-4.27028q4.16048 0 4.16048 2.13514t-3.96526 2.13514zm1.08587-3.13866 0.20436 1.4763q1.32074 6e-3 1.32074-0.7351 0-0.7412-1.5251-0.7412z" style="font-feature-settings:normal;font-variant-caps:normal;font-variant-ligatures:normal;font-variant-numeric:normal"/>
    <path d="m1000.655 549.21131-0.2135 0.61004-1.20183-0.72595 1.50683-3.54433 1.1469-0.0793 1.8026 3.66939-1.4244 0.6802-0.3142-0.85711zm1.0431-1.33599-0.3416-1.10417-0.4026 1.22008z" style="font-feature-settings:normal;font-variant-caps:normal;font-variant-ligatures:normal;font-variant-numeric:normal"/>
    <path d="m1004.1536 547.99123-1.4367-1.44885 1.214-0.99131 0.8327 1.22008 0.6924-1.519 1.6196 0.55513-1.702 2.18395 0.1312 1.71421-1.4855-0.20131z" style="font-feature-settings:normal;font-variant-caps:normal;font-variant-ligatures:normal;font-variant-numeric:normal"/>
   </g>
   <g style="font-feature-settings:normal;font-variant-caps:normal;font-variant-ligatures:normal;font-variant-numeric:normal" aria-label="Tuesday">
    <path d="m1008.4701 570.92632 0.1494 2.59877-1.6532 0.42703 0.2837-3.10511-1.2475-0.10675 0.098-1.12858 3.5779-0.21351 0.1311 1.66846z" style="font-feature-settings:normal;font-variant-caps:normal;font-variant-ligatures:normal;font-variant-numeric:normal"/>
    <path d="m1010.3582 569.84045 1.6257 0.31722q-0.8113 2.49201 0.2318 2.51947 1.2384-9e-3 0.7168-2.58048l1.4885-0.46973q0.6833 4.23368-2.2053 4.27029-2.919-0.0275-1.8575-4.05677z" style="font-feature-settings:normal;font-variant-caps:normal;font-variant-ligatures:normal;font-variant-numeric:normal"/>
    <path d="m1017.8373 569.0779 0.079 1.6166-1.8973 0.20437 0.024 0.36907 1.2445-0.11591 0.1098 1.10418-1.2994 0.0946 0.021 0.29892 1.8423-0.14031 0.2745 1.38785-3.6328 0.12506 0.3691-4.40145z" style="font-feature-settings:normal;font-variant-caps:normal;font-variant-ligatures:normal;font-variant-numeric:normal"/>
    <path d="m1019.1824 572.21045q-1.1011-0.15556-0.973-1.36954t2.8306-1.43664l0.2562 1.37869q-1.3391-0.0305-1.4367 0.31722-0.098 0.34772 1.0249 0.39958 1.1225 0.0518 1.0981 1.36649-0.024 1.31464-2.9557 1.40309l-0.5399-1.44274q1.5007 0.16166 1.6502-0.14946 0.1495-0.31418-0.9547-0.46669z" style="font-feature-settings:normal;font-variant-caps:normal;font-variant-ligatures:normal;font-variant-numeric:normal"/>
    <path d="m1022.3516 573.89722-0.1953-4.27029q4.1605 0 4.1605 2.13514 0 2.13515-3.9652 2.13515zm1.0858-3.13866 0.2044 1.4763q1.3207 6e-3 1.3207-0.7351 0-0.7412-1.5251-0.7412z" style="font-feature-settings:normal;font-variant-caps:normal;font-variant-ligatures:normal;font-variant-numeric:normal"/>
    <path d="m1027.6345 573.28718-0.2135 0.61004-1.2018-0.72595 1.5068-3.54434 1.1469-0.0793 1.8027 3.66939-1.4245 0.6802-0.3142-0.85711zm1.0432-1.33599-0.3416-1.10418-0.4027 1.22008z" style="font-feature-settings:normal;font-variant-caps:normal;font-variant-ligatures:normal;font-variant-numeric:normal"/>
    <path d="m1031.1331 572.06709-1.4367-1.44884 1.214-0.99132 0.8327 1.22008 0.6924-1.519 1.6197 0.55514-1.702 2.18394 0.1311 1.71422-1.4854-0.20131z" style="font-feature-settings:normal;font-variant-caps:normal;font-variant-ligatures:normal;font-variant-numeric:normal"/>
   </g>
   <g style="font-feature-settings:normal;font-variant-caps:normal;font-variant-ligatures:normal;font-variant-numeric:normal" aria-label="Wednesday">
    <path d="m1003.7377 598.3734-0.6101 2.13514-1.2048 0.15862-1.8149-3.59009 1.4946-0.83881 0.9151 2.44016 0.7168-1.92773 1.2201 0.16777 0.5033 1.75996 0.732-2.52862 1.6593 0.90897-1.7813 3.44977-1.3634-0.29281z" style="font-feature-settings:normal;font-variant-caps:normal;font-variant-ligatures:normal;font-variant-numeric:normal"/>
    <path d="m1010.564 595.68922 0.079 1.61661-1.8972 0.20437 0.024 0.36907 1.2445-0.11591 0.1098 1.10418-1.2994 0.0946 0.021 0.29892 1.8423-0.14031 0.2745 1.38784-3.6328 0.12506 0.3691-4.40144z" style="font-feature-settings:normal;font-variant-caps:normal;font-variant-ligatures:normal;font-variant-numeric:normal"/>
    <path d="m1011.3083 600.50854-0.1952-4.27028q4.1604 0 4.1604 2.13514t-3.9652 2.13514zm1.0859-3.13865 0.2043 1.47629q1.3208 6e-3 1.3208-0.73509 0-0.7412-1.5251-0.7412z" style="font-feature-settings:normal;font-variant-caps:normal;font-variant-ligatures:normal;font-variant-numeric:normal"/>
    <path d="m1016.9603 598.3734 0.302 1.74777-1.5221 0.38737-0.308-4.00491 1.5281-0.26537 1.5068 1.99483 0.018-1.99483 1.8911-0.19521-0.671 4.46549-1.2109 0.17692z" style="font-feature-settings:normal;font-variant-caps:normal;font-variant-ligatures:normal;font-variant-numeric:normal"/>
    <path d="m1023.4969 595.68922 0.079 1.61661-1.8972 0.20437 0.024 0.36907 1.2445-0.11591 0.1098 1.10418-1.2994 0.0946 0.021 0.29892 1.8423-0.14031 0.2746 1.38784-3.6328 0.12506 0.369-4.40144z" style="font-feature-settings:normal;font-variant-caps:normal;font-variant-ligatures:normal;font-variant-numeric:normal"/>
    <path d="m1024.842 598.82178q-1.1011-0.15556-0.973-1.36954t2.8306-1.43664l0.2562 1.37869q-1.339-0.0305-1.4366 0.31722-0.098 0.34772 1.0248 0.39958 1.1225 0.0519 1.0981 1.36649-0.024 1.31463-2.9556 1.40309l-0.5399-1.44275q1.5007 0.16166 1.6501-0.14946 0.1495-0.31417-0.9547-0.46668z" style="font-feature-settings:normal;font-variant-caps:normal;font-variant-ligatures:normal;font-variant-numeric:normal"/>
    <path d="m1028.0112 600.50854-0.1952-4.27028q4.1605 0 4.1605 2.13514t-3.9653 2.13514zm1.0859-3.13865 0.2043 1.47629q1.3208 6e-3 1.3208-0.73509 0-0.7412-1.5251-0.7412z" style="font-feature-settings:normal;font-variant-caps:normal;font-variant-ligatures:normal;font-variant-numeric:normal"/>
    <path d="m1033.2941 599.8985-0.2135 0.61004-1.2018-0.72594 1.5068-3.54434 1.1469-0.0793 1.8027 3.66939-1.4244 0.68019-0.3142-0.8571zm1.0432-1.33598-0.3416-1.10418-0.4026 1.22008z" style="font-feature-settings:normal;font-variant-caps:normal;font-variant-ligatures:normal;font-variant-numeric:normal"/>
    <path d="m1036.7927 598.67842-1.4366-1.44884 1.214-0.99132 0.8327 1.22008 0.6924-1.519 1.6196 0.55514-1.702 2.18394 0.1312 1.71422-1.4855-0.20132z" style="font-feature-settings:normal;font-variant-caps:normal;font-variant-ligatures:normal;font-variant-numeric:normal"/>
   </g>
   <g style="font-feature-settings:normal;font-variant-caps:normal;font-variant-ligatures:normal;font-variant-numeric:normal" aria-label="Thursday">
    <path d="m993.18272 626.2257 0.14946 2.59877-1.65321 0.42703 0.28367-3.10511-1.24753-0.10676 0.0976-1.12857 3.57788-0.21352 0.13116 1.66847z" style="font-feature-settings:normal;font-variant-caps:normal;font-variant-ligatures:normal;font-variant-numeric:normal"/>
    <path d="m996.26953 627.90941 0.10981 1.03097-1.16823 0.20436-0.53074-3.37962 1.29939-0.55514 0.14641 1.4641 1.17128-0.13421 0.0183-1.33294 2.03449 0.20436-0.77781 3.7487-1.30853-0.38737 0.0152-0.97302z" style="font-feature-settings:normal;font-variant-caps:normal;font-variant-ligatures:normal;font-variant-numeric:normal"/>
    <path d="m999.79251 625.13982 1.62579 0.31723q-0.8114 2.49201 0.2318 2.51946 1.2384-9e-3 0.7168-2.58047l1.4885-0.46973q0.6832 4.23368-2.2053 4.27028-2.91906-0.0275-1.85759-4.05677z" style="font-feature-settings:normal;font-variant-caps:normal;font-variant-ligatures:normal;font-variant-numeric:normal"/>
    <path d="m1005.6306 625.93288 0.043 0.82355q1.5251 0 1.5251-0.30502t-1.5678-0.51853zm0.2044 3.01665-1.699 0.23791 0.3538-4.55395q3.9287 0.29282 4.0598 1.57391 0.1343 1.27803-1.3512 1.76911l1.2201 0.6619-1.2506 1.10722-1.4305-1.76912z" style="font-feature-settings:normal;font-variant-caps:normal;font-variant-ligatures:normal;font-variant-numeric:normal"/>
    <path d="m1009.9344 627.50983q-1.1011-0.15556-0.973-1.36954t2.8306-1.43665l0.2562 1.3787q-1.339-0.0305-1.4366 0.31722-0.098 0.34772 1.0249 0.39957 1.1224 0.0519 1.098 1.3665-0.024 1.31463-2.9556 1.40309l-0.5399-1.44275q1.5007 0.16166 1.6502-0.14946 0.1494-0.31417-0.9548-0.46668z" style="font-feature-settings:normal;font-variant-caps:normal;font-variant-ligatures:normal;font-variant-numeric:normal"/>
    <path d="m1013.1036 629.19659-0.1952-4.27028q4.1605 0 4.1605 2.13514t-3.9653 2.13514zm1.0859-3.13865 0.2043 1.47629q1.3208 6e-3 1.3208-0.7351 0-0.74119-1.5251-0.74119z" style="font-feature-settings:normal;font-variant-caps:normal;font-variant-ligatures:normal;font-variant-numeric:normal"/>
    <path d="m1018.3866 628.58655-0.2136 0.61004-1.2017-0.72594 1.5068-3.54434 1.1468-0.0793 1.8027 3.6694-1.4244 0.68019-0.3142-0.8571zm1.0431-1.33599-0.3416-1.10417-0.4026 1.22008z" style="font-feature-settings:normal;font-variant-caps:normal;font-variant-ligatures:normal;font-variant-numeric:normal"/>
    <path d="m1021.8851 627.36647-1.4366-1.44884 1.214-0.99132 0.8327 1.22008 0.6924-1.519 1.6196 0.55514-1.702 2.18394 0.1312 1.71422-1.4855-0.20132z" style="font-feature-settings:normal;font-variant-caps:normal;font-variant-ligatures:normal;font-variant-numeric:normal"/>
   </g>
   <g style="font-feature-settings:normal;font-variant-caps:normal;font-variant-ligatures:normal;font-variant-numeric:normal" aria-label="Friday">
    <path d="m957.43488 624.54197-0.25927 1.76911-1.48545-0.0793 0.061 0.30502 1.18043 0.13421-0.16166 1.26888-0.8144-0.18301 0.27452 1.32379-1.4946 0.20131-0.33553-4.00491z" style="font-feature-settings:normal;font-variant-caps:normal;font-variant-ligatures:normal;font-variant-numeric:normal"/>
    <path d="m958.88372 626.01826 0.0427 0.82356q1.5251 0 1.5251-0.30502t-1.56781-0.51854zm0.20437 3.01666-1.69897 0.23791 0.35383-4.55395q3.92866 0.29282 4.05982 1.5739 0.13421 1.27804-1.35124 1.76912l1.22008 0.6619-1.25058 1.10722-1.43055-1.76912z" style="font-feature-settings:normal;font-variant-caps:normal;font-variant-ligatures:normal;font-variant-numeric:normal"/>
    <path d="m963.50173 625.0361 0.31112 4.11472-1.72641 0.32638 0.0793-4.33434z" style="font-feature-settings:normal;font-variant-caps:normal;font-variant-ligatures:normal;font-variant-numeric:normal"/>
    <path d="m964.16057 629.28198-0.19521-4.27028q4.16048 0 4.16048 2.13514t-3.96527 2.13514zm1.08588-3.13866 0.20436 1.4763q1.32074 6e-3 1.32074-0.7351 0-0.7412-1.5251-0.7412z" style="font-feature-settings:normal;font-variant-caps:normal;font-variant-ligatures:normal;font-variant-numeric:normal"/>
    <path d="m969.44353 628.67194-0.21352 0.61004-1.20178-0.72595 1.5068-3.54433 1.14688-0.0793 1.80267 3.6694-1.42445 0.68019-0.31417-0.8571zm1.04317-1.33599-0.34163-1.10417-0.40262 1.22008z" style="font-feature-settings:normal;font-variant-caps:normal;font-variant-ligatures:normal;font-variant-numeric:normal"/>
    <path d="m972.94211 627.45186-1.43665-1.44885 1.21398-0.99131 0.83271 1.22008 0.6924-1.519 1.61965 0.55514-1.70201 2.18394 0.13116 1.71421-1.48545-0.20131z" style="font-feature-settings:normal;font-variant-caps:normal;font-variant-ligatures:normal;font-variant-numeric:normal"/>
   </g>
   <g style="font-feature-settings:normal;font-variant-caps:normal;font-variant-ligatures:normal;font-variant-numeric:normal" aria-label="Saturday">
    <path d="m940.66023 598.60828q-1.10113-0.15556-0.97302-1.36954t2.83059-1.43665l0.25622 1.3787q-1.33904-0.0305-1.43665 0.31722-0.0976 0.34772 1.02487 0.39957 1.12248 0.0519 1.09807 1.3665-0.0244 1.31463-2.95564 1.40309l-0.53989-1.44275q1.5007 0.16166 1.65016-0.14946 0.14946-0.31417-0.95471-0.46668z" style="font-feature-settings:normal;font-variant-caps:normal;font-variant-ligatures:normal;font-variant-numeric:normal"/>
    <path d="m945.04947 599.685-0.21351 0.61004-1.20178-0.72594 1.5068-3.54434 1.14687-0.0793 1.80267 3.6694-1.42444 0.68019-0.31417-0.8571zm1.04317-1.33599-0.34162-1.10417-0.40263 1.22008z" style="font-feature-settings:normal;font-variant-caps:normal;font-variant-ligatures:normal;font-variant-numeric:normal"/>
    <path d="m949.77423 597.32415 0.14946 2.59877-1.65321 0.42703 0.28367-3.10511-1.24753-0.10676 0.0976-1.12857 3.57788-0.21352 0.13116 1.66847z" style="font-feature-settings:normal;font-variant-caps:normal;font-variant-ligatures:normal;font-variant-numeric:normal"/>
    <path d="m951.66231 596.23827 1.62576 0.31722q-0.81136 2.49202 0.23181 2.51947 1.23839-9e-3 0.7168-2.58047l1.4885-0.46973q0.68325 4.23368-2.2053 4.27028-2.91904-0.0274-1.85757-4.05677z" style="font-feature-settings:normal;font-variant-caps:normal;font-variant-ligatures:normal;font-variant-numeric:normal"/>
    <path d="m957.5004 597.03133 0.0427 0.82355q1.5251 0 1.5251-0.30502t-1.5678-0.51853zm0.20436 3.01665-1.69896 0.23791 0.35382-4.55395q3.92866 0.29282 4.05982 1.5739 0.13421 1.27804-1.35124 1.76912l1.22008 0.6619-1.25058 1.10722-1.43054-1.76912z" style="font-feature-settings:normal;font-variant-caps:normal;font-variant-ligatures:normal;font-variant-numeric:normal"/>
    <path d="m960.89833 600.29504-0.19522-4.27028q4.16048 0 4.16048 2.13514t-3.96526 2.13514zm1.08587-3.13866 0.20436 1.4763q1.32074 6e-3 1.32074-0.7351 0-0.7412-1.5251-0.7412z" style="font-feature-settings:normal;font-variant-caps:normal;font-variant-ligatures:normal;font-variant-numeric:normal"/>
    <path d="m966.18128 599.685-0.21352 0.61004-1.20178-0.72594 1.5068-3.54434 1.14688-0.0793 1.80267 3.6694-1.42445 0.68019-0.31417-0.8571zm1.04317-1.33599-0.34163-1.10417-0.40262 1.22008z" style="font-feature-settings:normal;font-variant-caps:normal;font-variant-ligatures:normal;font-variant-numeric:normal"/>
    <path d="m969.67986 598.46492-1.43665-1.44884 1.21399-0.99132 0.8327 1.22008 0.6924-1.519 1.61966 0.55514-1.70202 2.18394 0.13116 1.71422-1.48545-0.20132z" style="font-feature-settings:normal;font-variant-caps:normal;font-variant-ligatures:normal;font-variant-numeric:normal"/>
   </g>
   <g style="font-feature-settings:normal;font-variant-caps:normal;font-variant-ligatures:normal;font-variant-numeric:normal" aria-label="Sunday ">
    <path d="m943.37605 572.08539q-1.10113-0.15556-0.97302-1.36954t2.83059-1.43664l0.25622 1.37869q-1.33904-0.0305-1.43665 0.31722-0.0976 0.34772 1.02487 0.39958 1.12248 0.0519 1.09807 1.36649-0.0244 1.31463-2.95564 1.40309l-0.53989-1.44275q1.5007 0.16167 1.65016-0.14946 0.14946-0.31417-0.95471-0.46668z" style="font-feature-settings:normal;font-variant-caps:normal;font-variant-ligatures:normal;font-variant-numeric:normal"/>
    <path d="m946.71602 569.71539 1.62576 0.31722q-0.81136 2.49201 0.23181 2.51946 1.23839-9e-3 0.7168-2.58047l1.4885-0.46973q0.68325 4.23368-2.2053 4.27029-2.91904-0.0275-1.85757-4.05677z" style="font-feature-settings:normal;font-variant-caps:normal;font-variant-ligatures:normal;font-variant-numeric:normal"/>
    <path d="m952.68527 571.63701 0.30197 1.74777-1.52205 0.38738-0.30807-4.00492 1.52815-0.26537 1.5068 1.99483 0.0183-1.99483 1.89113-0.19521-0.67105 4.4655-1.21093 0.17691z" style="font-feature-settings:normal;font-variant-caps:normal;font-variant-ligatures:normal;font-variant-numeric:normal"/>
    <path d="m956.45227 573.77216-0.19521-4.27029q4.16047 0 4.16047 2.13514 0 2.13515-3.96526 2.13515zm1.08587-3.13866 0.20437 1.4763q1.32073 6e-3 1.32073-0.7351 0-0.7412-1.5251-0.7412z" style="font-feature-settings:normal;font-variant-caps:normal;font-variant-ligatures:normal;font-variant-numeric:normal"/>
    <path d="m961.73522 573.16212-0.21351 0.61004-1.20178-0.72595 1.5068-3.54434 1.14687-0.0793 1.80267 3.66939-1.42444 0.6802-0.31417-0.85711zm1.04317-1.33599-0.34162-1.10418-0.40263 1.22008z" style="font-feature-settings:normal;font-variant-caps:normal;font-variant-ligatures:normal;font-variant-numeric:normal"/>
    <path d="m965.2338 571.94203-1.43664-1.44884 1.21398-0.99132 0.8327 1.22008 0.6924-1.519 1.61966 0.55514-1.70201 2.18394 0.13115 1.71422-1.48544-0.20132z" style="font-feature-settings:normal;font-variant-caps:normal;font-variant-ligatures:normal;font-variant-numeric:normal"/>
   </g>
  </g>
  <g transform="matrix(.1025017 .43065745 .43065745 -.1025017 873.4354 408.12168)">
   <path transform="scale(.26458333)" d="m1729.8105 73.541016c-2.733 0-4.9335 2.200566-4.9335 4.933593v14.388672c-10.1526 0.470168-17.3718 1.077655-18.0118 1.783203-2.3979 2.643719 45.5084 51.537326 50.4278 51.466796 4.9194-0.0705 50.4804-50.301768 47.959-52.874999-0.6711-0.684879-7.8758-1.085882-18-1.265625v-13.498047c0-2.733027-2.1987-4.933593-4.9317-4.933593z" fill="#2196f3"/>
   <rect transform="rotate(-43.436588)" x="312.67651" y="335.33032" width="2.7792709" height="8.6303663" ry="1.3896354" fill="#c8e5fc"/>
  </g>
  <g transform="matrix(.44268775 0 0 .44268775 784.0848 522.82788)">
   <path d="m354.20037 58.623457c0.58761-0.740855 1.6571-0.864226 2.39797-0.276609l4.55444 3.612343c3.71158-4.418215 6.61402-7.647549 7.10322-7.684233 1.53541-0.115171 5.47291 29.150097 4.14474 30.805512-1.32816 1.655421-30.50069 3.843047-30.70792 2.302781-0.0659-0.490054 2.45227-4.016887 5.95446-8.590105l-4.4601-3.53752c-0.74087-0.587618-0.86424-1.65711-0.27664-2.397965z" fill="#00c853"/>
   <rect transform="matrix(-.9811304 .19334719 .16996491 .98545011 0 0)" x="-350.50699" y="136.10188" width="3.9317675" height="14.258574" ry="1.9595118" fill="#a0ffc7"/>
  </g>
  <g fill="#fff">
   <circle cx="989.9201" cy="552.30542" r="1.5675197"/>
   <circle cx="1020.7477" cy="566.78113" r="1.5675197"/>
   <circle cx="1029.9893" cy="603.1394" r="1.5675197"/>
   <circle cx="1007.6365" cy="631.91705" r="1.5675197"/>
   <circle transform="scale(-1,1)" cx="-957.52606" cy="566.78113" r="1.5675197"/>
   <circle transform="scale(-1,1)" cx="-947.97003" cy="603.1394" r="1.5675197"/>
   <circle transform="scale(-1,1)" cx="-970.63727" cy="631.91705" r="1.5675197"/>
  </g>
  <g transform="rotate(-72.808219 1.7915496 -.91405511)" fill="#616161" stroke-width=".11712779" style="font-feature-settings:normal;font-variant-caps:normal;font-variant-ligatures:normal;font-variant-numeric:normal" aria-label="yesterday">
   <path d="m-295.42364 1055.46q-0.0183-0.079 0.0122-0.1525 0.0366-0.073 0.0976-0.1342 0.061-0.061 0.14031-0.1037 0.0793-0.043 0.14641-0.055l2.04364 2.9709 1.30549-3.0136q0.0122-0.031 0.0854-0.037 0.0732-0.012 0.15251 0.012 0.0854 0.018 0.14641 0.085 0.0671 0.067 0.0549 0.1891l-2.33036 6.1858q-0.061 0.1281-0.17081 0.1647-0.10981 0.037-0.21351 0.012-0.10371-0.024-0.17082-0.098-0.0671-0.067-0.0488-0.1464l0.94556-2.6293z" style="font-feature-settings:normal;font-variant-caps:normal;font-variant-ligatures:normal;font-variant-numeric:normal"/>
   <path d="m-291.34857 1057.6317q-0.0549-0.4941 0.0854-0.9821 0.14031-0.4942 0.43313-0.8785 0.29892-0.3904 0.71985-0.6222 0.42093-0.2379 0.92726-0.2257 0.20742-0.01 0.47583 0.091 0.26842 0.098 0.49414 0.2745 0.22571 0.1708 0.35992 0.4026 0.14031 0.2257 0.0915 0.4819 6e-3 0.1281-0.12811 0.2136-0.13421 0.079-0.35992 0.1281-0.21962 0.049-0.51854 0.073-0.29282 0.018-0.62224 0.03-0.32332 0.012-0.65884 0.024-0.33553 0.01-0.63445 0.031-0.17081 0.4697-0.1037 0.7747 0.0732 0.2989 0.29892 0.4576 0.23181 0.1586 0.56733 0.1891 0.34163 0.024 0.70765-0.049 0.36603-0.073 0.71985-0.2319 0.35382-0.1647 0.61004-0.3904 0.0366 0 0.0915 0.024 0.061 0.024 0.1159 0.067 0.0549 0.037 0.0915 0.085 0.0427 0.043 0.0427 0.079-0.15251 0.2624-0.46363 0.4698t-0.70155 0.3355q-0.39042 0.1281-0.81745 0.1586-0.42093 0.031-0.79305-0.061-0.37213-0.091-0.65275-0.3233-0.28061-0.2318-0.37822-0.6284zm2.91599-1.6288q-0.0305-0.2318-0.18301-0.3477t-0.35992-0.1464q-0.20742-0.037-0.43923 0.01-0.23182 0.043-0.43313 0.1281-0.19521 0.085-0.32942 0.2013-0.12811 0.1159-0.13421 0.2318z" style="font-feature-settings:normal;font-variant-caps:normal;font-variant-ligatures:normal;font-variant-numeric:normal"/>
   <path d="m-287.02338 1058.2052q0.54903-0.043 0.99436-0.1525 0.45143-0.1098 0.75645-0.2502 0.31112-0.1464 0.46363-0.305 0.15251-0.1647 0.10981-0.3233-0.0488-0.1708-0.48803-0.1464-0.43313 0.024-1.28719 0.1952-0.25011-0.018-0.43923-0.1159-0.18301-0.098-0.29282-0.2318-0.1098-0.1403-0.1403-0.2928t0.0183-0.2685q0-0.2013 0.1159-0.3904 0.12201-0.1952 0.32333-0.3538 0.20741-0.1647 0.47583-0.2928 0.27452-0.1342 0.58564-0.2074 0.31112-0.079 0.64054-0.098 0.32942-0.018 0.65274 0.043 0.15861 0.073 0.25622 0.1708 0.10371 0.091 0.14031 0.1891 0.0366 0.091 0 0.1769-0.0366 0.085-0.15251 0.1464-0.25012-0.1098-0.53074-0.1586-0.27451-0.055-0.54903-0.043t-0.53074 0.085q-0.25011 0.067-0.44533 0.1952-0.18911 0.122-0.31112 0.305t-0.12811 0.4149q0 0.1281 0.0976 0.1708 0.10371 0.037 0.23792 0.037 0.1403-0.01 0.28671-0.031 0.15251-0.031 0.24402-0.031 0.60394-0.085 0.99437-0.049 0.39652 0.037 0.60394 0.1586 0.20741 0.122 0.24401 0.305t-0.0732 0.3965q-0.10371 0.2074-0.34162 0.421-0.23792 0.2135-0.57954 0.3904-0.34163 0.1769-0.77475 0.2989-0.42703 0.1159-0.91507 0.1403-0.1159 0.043-0.19521-0.012-0.0732-0.055-0.10981-0.1464-0.0366-0.091-0.0305-0.1891 0.0122-0.1037 0.0732-0.1525z" style="font-feature-settings:normal;font-variant-caps:normal;font-variant-ligatures:normal;font-variant-numeric:normal"/>
   <path d="m-283.80237 1056.0456q-0.14641-0.037-0.18911-0.122-0.0488-0.085-0.0305-0.1708 0.0183-0.091 0.0793-0.1586 0.061-0.067 0.12811-0.073h1.14078l-0.0244-1.9033q0.0244-0.073 0.10371-0.122 0.0793-0.049 0.17081-0.055 0.0915-0.012 0.18302 0.024 0.0915 0.03 0.1464 0.122l0.0549 1.9033 1.07977-0.024q0.10981 0.061 0.14641 0.1525 0.0427 0.085 0.0366 0.1708-6e-3 0.079-0.0488 0.1464-0.0366 0.061-0.0854 0.073l-1.12857 0.024q-6e-3 0.3783 6e-3 0.6833 0.0183 0.2989 0.0366 0.5856 0.0244 0.2806 0.0366 0.5857 0.0183 0.2989 0.0183 0.671-0.17692 0.122-0.35993 0.1159-0.18301-0.01-0.25012-0.1525l-0.0671-2.4768h-1.18348z" style="font-feature-settings:normal;font-variant-caps:normal;font-variant-ligatures:normal;font-variant-numeric:normal"/>
   <path d="m-280.63626 1057.6317q-0.0549-0.4941 0.0854-0.9821 0.14031-0.4942 0.43313-0.8785 0.29892-0.3904 0.71985-0.6222 0.42092-0.2379 0.92726-0.2257 0.20741-0.01 0.47583 0.091 0.26842 0.098 0.49413 0.2745 0.22572 0.1708 0.35993 0.4026 0.14031 0.2257 0.0915 0.4819 6e-3 0.1281-0.12811 0.2136-0.13421 0.079-0.35992 0.1281-0.21962 0.049-0.51854 0.073-0.29281 0.018-0.62224 0.03-0.32332 0.012-0.65884 0.024-0.33552 0.01-0.63444 0.031-0.17081 0.4697-0.10371 0.7747 0.0732 0.2989 0.29892 0.4576 0.23182 0.1586 0.56734 0.1891 0.34162 0.024 0.70765-0.049 0.36602-0.073 0.71984-0.2319 0.35383-0.1647 0.61004-0.3904 0.0366 0 0.0915 0.024 0.061 0.024 0.11591 0.067 0.0549 0.037 0.0915 0.085 0.0427 0.043 0.0427 0.079-0.15251 0.2624-0.46363 0.4698-0.31113 0.2074-0.70155 0.3355-0.39043 0.1281-0.81746 0.1586-0.42092 0.031-0.79305-0.061-0.37212-0.091-0.65274-0.3233-0.28062-0.2318-0.37823-0.6284zm2.916-1.6288q-0.0305-0.2318-0.18302-0.3477-0.15251-0.1159-0.35992-0.1464-0.20741-0.037-0.43923 0.01-0.23181 0.043-0.43313 0.1281-0.19521 0.085-0.32942 0.2013-0.12811 0.1159-0.13421 0.2318z" style="font-feature-settings:normal;font-variant-caps:normal;font-variant-ligatures:normal;font-variant-numeric:normal"/>
   <path d="m-276.59169 1055.0025q0.0122-0.1159 0.0976-0.1403 0.0854-0.031 0.18301-0.018 0.15861 0.018 0.23792 0.1648 0.0793 0.1403 0.1098 0.3172t0.0305 0.3477q0 0.1647 6e-3 0.2379 0.17081-0.1464 0.37822-0.3355 0.21352-0.1891 0.51244-0.3416 0.30502-0.1586 0.72594-0.2379 0.42703-0.085 1.02487-0.012 0.14641 0.037 0.21352 0.1403 0.0732 0.1037 0.0732 0.2196 6e-3 0.1098-0.061 0.2074-0.061 0.091-0.17691 0.1037-0.14641-0.1098-0.39043-0.1281-0.24402-0.018-0.53684 0.043-0.28672 0.061-0.58564 0.1952t-0.55513 0.3355q-0.25012 0.2013-0.43313 0.4637-0.17691 0.2623-0.21962 0.5734v1.336q-0.0122 0.031-0.0976 0.091-0.0854 0.055-0.19522 0.079-0.1037 0.031-0.21351 0-0.10371-0.03-0.15861-0.1708 0-0.043 0-0.2684 0-0.2318 0-0.5552 6e-3 -0.3294 0.0122-0.7137 6e-3 -0.3904 6e-3 -0.7626 6e-3 -0.3721 6e-3 -0.6832 6e-3 -0.3111 6e-3 -0.488z" style="font-feature-settings:normal;font-variant-caps:normal;font-variant-ligatures:normal;font-variant-numeric:normal"/>
   <path d="m-270.43638 1057.7903q-0.28062 0.2136-0.59174 0.3844t-0.61614 0.2806q-0.30502 0.1037-0.59784 0.1403-0.28672 0.03-0.53073-0.031-0.23792-0.061-0.42093-0.2257-0.18301-0.1708-0.26842-0.4697-0.0854-0.3966 0.0122-0.7504t0.32332-0.6466q0.22572-0.2929 0.54904-0.5064 0.32332-0.2196 0.68934-0.3416 0.36603-0.122 0.75035-0.1342 0.39043-0.012 0.74425 0.1037 0-0.1342 0-0.3477 6e-3 -0.2196 6e-3 -0.4515 6e-3 -0.2318 0.0122-0.4453 6e-3 -0.2135 0.0183-0.3477 0.0366-0.3111 0.14641-0.4758 0.1098-0.1708 0.38432-0.1159 0.0122 0.4758 6e-3 0.8723-6e-3 0.3904-0.0183 0.7504-0.0122 0.3538-0.0244 0.7015-0.0122 0.3416-0.0122 0.7321 0 0.3843 0.0122 0.8357 0.0183 0.4514 0.061 1.0127 0 0.1769-0.0671 0.2501-0.061 0.073-0.21352 0.073-0.14641 0-0.22571-0.091-0.0732-0.098-0.10371-0.2257-0.0244-0.1342-0.0244-0.2806t0-0.2502zm-2.49507-0.2379q0.0122 0.2806 0.15862 0.4027 0.15251 0.1159 0.42092 0.067 0.12811 0 0.39043-0.067 0.26842-0.073 0.54904-0.1831 0.28672-0.1159 0.53683-0.2501 0.25012-0.1403 0.35383-0.2806v-1.0127q-0.15862-0.1708-0.40263-0.2135-0.24402-0.049-0.51854 0.01-0.27451 0.055-0.54903 0.2013-0.26842 0.1404-0.48193 0.3478-0.21352 0.2013-0.34163 0.4575-0.12811 0.2501-0.11591 0.5246z" style="font-feature-settings:normal;font-variant-caps:normal;font-variant-ligatures:normal;font-variant-numeric:normal"/>
   <path d="m-266.34911 1057.3694q-0.17691 0.2745-0.40872 0.5003-0.23182 0.2196-0.51244 0.3782-0.27452 0.1525-0.60394 0.2257-0.32332 0.073-0.68324 0.043-0.12811 0-0.27452-0.031-0.14641-0.03-0.27452-0.098-0.12201-0.067-0.20131-0.1769-0.0793-0.1098-0.0793-0.2745-0.0671-0.3417 0.0305-0.7077 0.10371-0.3721 0.31112-0.7198 0.21352-0.3539 0.51244-0.6589 0.30502-0.3111 0.64664-0.5246 0.34162-0.2196 0.69545-0.3172 0.35992-0.1037 0.68934-0.043 0.25012 0 0.38433 0.1647 0.14031 0.1647 0.20741 0.4453 0.0732 0.2745 0.0854 0.6405 0.0183 0.36 0.0183 0.7565 6e-3 0.3904 0.0183 0.7869 0.0122 0.3905 0.0671 0.726-6e-3 0.012-0.061 0.073-0.0488 0.061-0.12811 0.098-0.0793 0.037-0.18301 0.012-0.0976-0.018-0.19521-0.1708-0.0366-0.061-0.0488-0.2135-6e-3 -0.1586-6e-3 -0.3355 6e-3 -0.177 6e-3 -0.3417 6e-3 -0.1647-0.0122-0.2379zm-0.38432-1.8545q-0.23792-0.018-0.49413 0.073-0.25622 0.091-0.50024 0.2623-0.23791 0.1647-0.45143 0.3904-0.21351 0.2197-0.37212 0.4637-0.15861 0.2379-0.25012 0.4758-0.0854 0.2379-0.0793 0.4392 0.0122 0.1952 0.1281 0.3356 0.12201 0.1342 0.37823 0.1769 0.35382 0.01 0.67714-0.1769 0.32333-0.1892 0.58564-0.4698 0.26232-0.2806 0.43923-0.61 0.18302-0.3355 0.24402-0.6284 0.0671-0.2928 0-0.4941-0.0671-0.2074-0.30502-0.2379z" style="font-feature-settings:normal;font-variant-caps:normal;font-variant-ligatures:normal;font-variant-numeric:normal"/>
   <path d="m-265.51945 1055.46q-0.0183-0.079 0.0122-0.1525 0.0366-0.073 0.0976-0.1342 0.061-0.061 0.14031-0.1037 0.0793-0.043 0.14641-0.055l2.04363 2.9709 1.30549-3.0136q0.0122-0.031 0.0854-0.037 0.0732-0.012 0.15251 0.012 0.0854 0.018 0.14641 0.085 0.0671 0.067 0.0549 0.1891l-2.33036 6.1858q-0.061 0.1281-0.17081 0.1647-0.10981 0.037-0.21351 0.012-0.10371-0.024-0.17081-0.098-0.0671-0.067-0.0488-0.1464l0.94557-2.6293z" style="font-feature-settings:normal;font-variant-caps:normal;font-variant-ligatures:normal;font-variant-numeric:normal"/>
  </g>
 </g>
</svg>
