<?xml version="1.0" encoding="UTF-8"?>
<!-- Created with Inkscape (http://www.inkscape.org/) -->
<svg width="512" height="512" version="1.1" viewBox="0 0 135.46667 135.46667" xmlns="http://www.w3.org/2000/svg" xmlns:cc="http://creativecommons.org/ns#" xmlns:dc="http://purl.org/dc/elements/1.1/" xmlns:rdf="http://www.w3.org/1999/02/22-rdf-syntax-ns#">
 <metadata>
  <rdf:RDF>
   <cc:Work rdf:about="">
    <dc:format>image/svg+xml</dc:format>
    <dc:type rdf:resource="http://purl.org/dc/dcmitype/StillImage"/>
    <dc:title/>
   </cc:Work>
  </rdf:RDF>
 </metadata>
 <g transform="translate(-460.7149,-525.52399)">
  <rect x="460.7149" y="525.52399" width="135.46667" height="135.46667" ry="2.061909" opacity="0" stroke-width=".82785952"/>
  <g transform="matrix(.44268775 0 0 .44268775 323.36996 522.82788)">
   <path d="m535.90319 293.57605c0.85642-0.40087 1.22316-1.41307 0.82229-2.2695l-2.46436-5.26487c5.15521-2.59235 8.96695-4.67161 9.11549-5.13916 0.46624-1.46743-27.10156-12.04932-29.0187-11.13882-1.91714 0.91049-10.77495 28.79169-9.32403 29.34862 0.46163 0.17719 4.47423-1.45957 9.73196-3.81241l2.41332 5.15581c0.40087 0.85644 1.41306 1.22318 2.26948 0.82231z" fill="#00c853"/>
   <rect transform="matrix(-.41444888 .91007259 -.91966936 -.3926936 0 0)" x="48.235729" y="-599.49005" width="3.9317675" height="14.258574" ry="1.9595118" fill="#a0ffc7"/>
  </g>
  <g transform="matrix(-.10426026 .4302351 -.4302351 -.10426026 645.7308 410.78135)">
   <path transform="scale(.26458333)" d="m1729.8105 73.541016c-2.733 0-4.9335 2.200566-4.9335 4.933593v14.388672c-10.1526 0.470168-17.3718 1.077655-18.0118 1.783203-2.3979 2.643719 45.5084 51.537326 50.4278 51.466796 4.9194-0.0705 50.4804-50.301768 47.959-52.874999-0.6711-0.684879-7.8758-1.085882-18-1.265625v-13.498047c0-2.733027-2.1987-4.933593-4.9317-4.933593z" fill="#2196f3"/>
   <rect transform="rotate(-43.436588)" x="312.67651" y="335.33032" width="2.7792709" height="8.6303663" ry="1.3896354" fill="#c8e5fc"/>
  </g>
  <path d="m528.2865 550.46859a43.796699 43.796699 0 0 0 -14.9675 2.69486l3.4194 0.29625-2.0907 3.06637a40.164776 40.164776 0 0 1 13.6388 -2.42537 40.164776 40.164776 0 0 1 40.1647 40.16477 40.164776 40.164776 0 0 1 -40.1647 40.16477 40.164776 40.164776 0 0 1 -40.1648 -40.16477 40.164776 40.164776 0 0 1 18.8923 -34.04347l-1.5524-3.27158a43.796699 43.796699 0 0 0 -20.9718 37.31505 43.796699 43.796699 0 0 0 43.7967 43.79665 43.796699 43.796699 0 0 0 43.7964 -43.79665 43.796699 43.796699 0 0 0 -43.7964 -43.79688z" fill="#ff5252" stroke-width=".44268775"/>
  <path d="m500.8937 555.72986 12.7993-0.87794-8.1055 10.08312z" fill="#ff5252" stroke-width=".44268775"/>
  <ellipse cx="526.00995" cy="590.85486" rx="55.109818" ry="50.11874" opacity="0" stroke-width="2.342556"/>
  <g transform="matrix(.39876872 -.1922393 -.1922393 -.39876872 508.1358 684.5318)" fill="none" stroke="#ffc107" stroke-linecap="round" stroke-width="2.64583325">
   <g transform="rotate(-26.301235,280.87683,257.93987)">
    <path d="m311.01879 55.61079-10.7041-6.274815"/>
    <path d="m312.14537 43.254339-1.12658 12.356451"/>
   </g>
   <path d="m148.16068 32.100827s36.96218 2.270005 70.08762 31.100082"/>
  </g>
  <g fill="#1565c0" stroke="#fff" stroke-width=".11712779">
   <g style="font-feature-settings:normal;font-variant-caps:normal;font-variant-ligatures:normal;font-variant-numeric:normal" aria-label="Monday">
    <path d="m523.82285 545.55107 0.25622 4.02321-1.5556 0.13116-0.0824-2.05888-0.31417 1.41529-1.39699 0.19521-0.56734-1.46104 0.20436 1.73251-1.42444 0.29282 0.19521-4.27028 1.40004-0.18607 0.77475 2.44017 0.93947-2.36696z" style="font-feature-settings:normal;font-variant-caps:normal;font-variant-ligatures:normal;font-variant-numeric:normal"/>
    <path d="m526.7236 549.82135q-1.03097 0-1.75997-0.62529-0.72595-0.62529-0.72595-1.50985t0.72595-1.50985q0.729-0.62529 1.75997-0.62529 1.02791 0 1.75386 0.62529 0.729 0.62529 0.729 1.50985t-0.729 1.50985q-0.72595 0.62529-1.75386 0.62529zm-0.17082-1.33294q0.43923 0 0.75035-0.26842 0.31417-0.26841 0.31417-0.64664 0-0.37822-0.31417-0.64664-0.31112-0.26842-0.75035-0.26842-0.44228 0-0.75645 0.26842-0.31112 0.26842-0.31112 0.64664 0 0.37823 0.31112 0.64664 0.31417 0.26842 0.75645 0.26842z" style="font-feature-settings:normal;font-variant-caps:normal;font-variant-ligatures:normal;font-variant-numeric:normal"/>
    <path d="m530.89017 547.68621 0.30197 1.74776-1.52205 0.38738-0.30807-4.00492 1.52815-0.26536 1.5068 1.99483 0.0183-1.99483 1.89112-0.19522-0.67104 4.4655-1.21093 0.17691z" style="font-feature-settings:normal;font-variant-caps:normal;font-variant-ligatures:normal;font-variant-numeric:normal"/>
    <path d="m534.65717 549.82135-0.19521-4.27028q4.16048 0 4.16048 2.13514t-3.96527 2.13514zm1.08588-3.13866 0.20436 1.4763q1.32074 6e-3 1.32074-0.7351 0-0.7412-1.5251-0.7412z" style="font-feature-settings:normal;font-variant-caps:normal;font-variant-ligatures:normal;font-variant-numeric:normal"/>
    <path d="m539.94013 549.21131-0.21352 0.61004-1.20178-0.72595 1.5068-3.54433 1.14688-0.0793 1.80267 3.66939-1.42445 0.6802-0.31417-0.85711zm1.04316-1.33599-0.34162-1.10417-0.40262 1.22008z" style="font-feature-settings:normal;font-variant-caps:normal;font-variant-ligatures:normal;font-variant-numeric:normal"/>
    <path d="m543.43871 547.99123-1.43665-1.44885 1.21398-0.99131 0.83271 1.22008 0.6924-1.519 1.61965 0.55513-1.70201 2.18395 0.13116 1.71421-1.48545-0.20131z" style="font-feature-settings:normal;font-variant-caps:normal;font-variant-ligatures:normal;font-variant-numeric:normal"/>
   </g>
   <g style="font-feature-settings:normal;font-variant-caps:normal;font-variant-ligatures:normal;font-variant-numeric:normal" aria-label="Tuesday">
    <path d="m547.75523 570.92632 0.14946 2.59877-1.65321 0.42703 0.28367-3.10511-1.24753-0.10675 0.0976-1.12858 3.57788-0.21351 0.13116 1.66846z" style="font-feature-settings:normal;font-variant-caps:normal;font-variant-ligatures:normal;font-variant-numeric:normal"/>
    <path d="m549.64331 569.84045 1.62576 0.31722q-0.81136 2.49201 0.23181 2.51947 1.23839-9e-3 0.7168-2.58048l1.4885-0.46973q0.68325 4.23368-2.2053 4.27029-2.91904-0.0275-1.85757-4.05677z" style="font-feature-settings:normal;font-variant-caps:normal;font-variant-ligatures:normal;font-variant-numeric:normal"/>
    <path d="m557.12241 569.0779 0.0793 1.6166-1.89722 0.20437 0.0244 0.36907 1.24448-0.11591 0.10981 1.10418-1.29939 0.0946 0.0213 0.29892 1.84233-0.14031 0.27451 1.38785-3.63279 0.12506 0.36908-4.40145z" style="font-feature-settings:normal;font-variant-caps:normal;font-variant-ligatures:normal;font-variant-numeric:normal"/>
    <path d="m558.46755 572.21045q-1.10113-0.15556-0.97302-1.36954t2.83059-1.43664l0.25622 1.37869q-1.33904-0.0305-1.43665 0.31722-0.0976 0.34772 1.02487 0.39958 1.12248 0.0518 1.09807 1.36649-0.0244 1.31464-2.95564 1.40309l-0.53989-1.44274q1.5007 0.16166 1.65016-0.14946 0.14946-0.31418-0.95471-0.46669z" style="font-feature-settings:normal;font-variant-caps:normal;font-variant-ligatures:normal;font-variant-numeric:normal"/>
    <path d="m561.63671 573.89722-0.19521-4.27029q4.16047 0 4.16047 2.13514 0 2.13515-3.96526 2.13515zm1.08587-3.13866 0.20436 1.4763q1.32074 6e-3 1.32074-0.7351 0-0.7412-1.5251-0.7412z" style="font-feature-settings:normal;font-variant-caps:normal;font-variant-ligatures:normal;font-variant-numeric:normal"/>
    <path d="m566.91966 573.28718-0.21351 0.61004-1.20178-0.72595 1.5068-3.54434 1.14687-0.0793 1.80267 3.66939-1.42444 0.6802-0.31417-0.85711zm1.04317-1.33599-0.34162-1.10418-0.40263 1.22008z" style="font-feature-settings:normal;font-variant-caps:normal;font-variant-ligatures:normal;font-variant-numeric:normal"/>
    <path d="m570.41824 572.06709-1.43664-1.44884 1.21398-0.99132 0.8327 1.22008 0.6924-1.519 1.61966 0.55514-1.70202 2.18394 0.13116 1.71422-1.48545-0.20131z" style="font-feature-settings:normal;font-variant-caps:normal;font-variant-ligatures:normal;font-variant-numeric:normal"/>
   </g>
   <g style="font-feature-settings:normal;font-variant-caps:normal;font-variant-ligatures:normal;font-variant-numeric:normal" aria-label="Wednesday">
    <path d="m543.02283 598.3734-0.61004 2.13514-1.20483 0.15862-1.81487-3.59009 1.4946-0.83881 0.91506 2.44016 0.7168-1.92773 1.22008 0.16777 0.50328 1.75996 0.73205-2.52862 1.65931 0.90897-1.78132 3.44977-1.36344-0.29281z" style="font-feature-settings:normal;font-variant-caps:normal;font-variant-ligatures:normal;font-variant-numeric:normal"/>
    <path d="m549.84919 595.68922 0.0793 1.61661-1.89723 0.20437 0.0244 0.36907 1.24448-0.11591 0.10981 1.10418-1.29939 0.0946 0.0213 0.29892 1.84232-0.14031 0.27452 1.38784-3.63279 0.12506 0.36907-4.40144z" style="font-feature-settings:normal;font-variant-caps:normal;font-variant-ligatures:normal;font-variant-numeric:normal"/>
    <path d="m550.59344 600.50854-0.19522-4.27028q4.16048 0 4.16048 2.13514t-3.96526 2.13514zm1.08587-3.13865 0.20436 1.47629q1.32074 6e-3 1.32074-0.73509 0-0.7412-1.5251-0.7412z" style="font-feature-settings:normal;font-variant-caps:normal;font-variant-ligatures:normal;font-variant-numeric:normal"/>
    <path d="m556.24546 598.3734 0.30197 1.74777-1.52205 0.38737-0.30807-4.00491 1.52815-0.26537 1.5068 1.99483 0.0183-1.99483 1.89113-0.19521-0.67105 4.46549-1.21093 0.17692z" style="font-feature-settings:normal;font-variant-caps:normal;font-variant-ligatures:normal;font-variant-numeric:normal"/>
    <path d="m562.78205 595.68922 0.0793 1.61661-1.89722 0.20437 0.0244 0.36907 1.24448-0.11591 0.10981 1.10418-1.29939 0.0946 0.0214 0.29892 1.84232-0.14031 0.27452 1.38784-3.63279 0.12506 0.36908-4.40144z" style="font-feature-settings:normal;font-variant-caps:normal;font-variant-ligatures:normal;font-variant-numeric:normal"/>
    <path d="m564.12719 598.82178q-1.10113-0.15556-0.97302-1.36954t2.83059-1.43664l0.25622 1.37869q-1.33904-0.0305-1.43665 0.31722-0.0976 0.34772 1.02487 0.39958 1.12247 0.0519 1.09807 1.36649-0.0244 1.31463-2.95564 1.40309l-0.53989-1.44275q1.5007 0.16166 1.65016-0.14946 0.14946-0.31417-0.95471-0.46668z" style="font-feature-settings:normal;font-variant-caps:normal;font-variant-ligatures:normal;font-variant-numeric:normal"/>
    <path d="m567.29635 600.50854-0.19522-4.27028q4.16048 0 4.16048 2.13514t-3.96526 2.13514zm1.08587-3.13865 0.20436 1.47629q1.32074 6e-3 1.32074-0.73509 0-0.7412-1.5251-0.7412z" style="font-feature-settings:normal;font-variant-caps:normal;font-variant-ligatures:normal;font-variant-numeric:normal"/>
    <path d="m572.5793 599.8985-0.21352 0.61004-1.20178-0.72594 1.5068-3.54434 1.14688-0.0793 1.80267 3.66939-1.42444 0.68019-0.31417-0.8571zm1.04317-1.33598-0.34162-1.10418-0.40263 1.22008z" style="font-feature-settings:normal;font-variant-caps:normal;font-variant-ligatures:normal;font-variant-numeric:normal"/>
    <path d="m576.07788 598.67842-1.43664-1.44884 1.21398-0.99132 0.8327 1.22008 0.6924-1.519 1.61966 0.55514-1.70201 2.18394 0.13115 1.71422-1.48544-0.20132z" style="font-feature-settings:normal;font-variant-caps:normal;font-variant-ligatures:normal;font-variant-numeric:normal"/>
   </g>
   <g style="font-feature-settings:normal;font-variant-caps:normal;font-variant-ligatures:normal;font-variant-numeric:normal" aria-label="Thursday">
    <path d="m532.46788 626.2257 0.14946 2.59877-1.65321 0.42703 0.28367-3.10511-1.24753-0.10676 0.0976-1.12857 3.57789-0.21352 0.13116 1.66847z" style="font-feature-settings:normal;font-variant-caps:normal;font-variant-ligatures:normal;font-variant-numeric:normal"/>
    <path d="m535.55469 627.90941 0.1098 1.03097-1.16822 0.20436-0.53074-3.37962 1.29939-0.55514 0.14641 1.4641 1.17127-0.13421 0.0183-1.33294 2.03448 0.20436-0.7778 3.7487-1.30854-0.38737 0.0153-0.97302z" style="font-feature-settings:normal;font-variant-caps:normal;font-variant-ligatures:normal;font-variant-numeric:normal"/>
    <path d="m539.07767 625.13982 1.62576 0.31723q-0.81135 2.49201 0.23181 2.51946 1.23839-9e-3 0.7168-2.58047l1.4885-0.46973q0.68325 4.23368-2.2053 4.27028-2.91904-0.0275-1.85757-4.05677z" style="font-feature-settings:normal;font-variant-caps:normal;font-variant-ligatures:normal;font-variant-numeric:normal"/>
    <path d="m544.91576 625.93288 0.0427 0.82355q1.5251 0 1.5251-0.30502t-1.5678-0.51853zm0.20436 3.01665-1.69896 0.23791 0.35382-4.55395q3.92867 0.29282 4.05982 1.57391 0.13421 1.27803-1.35124 1.76911l1.22009 0.6619-1.25059 1.10722-1.43054-1.76912z" style="font-feature-settings:normal;font-variant-caps:normal;font-variant-ligatures:normal;font-variant-numeric:normal"/>
    <path d="m549.2196 627.50983q-1.10113-0.15556-0.97302-1.36954t2.83059-1.43665l0.25622 1.3787q-1.33904-0.0305-1.43665 0.31722-0.0976 0.34772 1.02487 0.39957 1.12247 0.0519 1.09807 1.3665-0.0244 1.31463-2.95564 1.40309l-0.53989-1.44275q1.5007 0.16166 1.65016-0.14946 0.14946-0.31417-0.95471-0.46668z" style="font-feature-settings:normal;font-variant-caps:normal;font-variant-ligatures:normal;font-variant-numeric:normal"/>
    <path d="m552.38876 629.19659-0.19522-4.27028q4.16048 0 4.16048 2.13514t-3.96526 2.13514zm1.08587-3.13865 0.20436 1.47629q1.32074 6e-3 1.32074-0.7351 0-0.74119-1.5251-0.74119z" style="font-feature-settings:normal;font-variant-caps:normal;font-variant-ligatures:normal;font-variant-numeric:normal"/>
    <path d="m557.67171 628.58655-0.21351 0.61004-1.20178-0.72594 1.5068-3.54434 1.14687-0.0793 1.80267 3.6694-1.42444 0.68019-0.31417-0.8571zm1.04317-1.33599-0.34162-1.10417-0.40263 1.22008z" style="font-feature-settings:normal;font-variant-caps:normal;font-variant-ligatures:normal;font-variant-numeric:normal"/>
    <path d="m561.17029 627.36647-1.43664-1.44884 1.21398-0.99132 0.8327 1.22008 0.6924-1.519 1.61966 0.55514-1.70202 2.18394 0.13116 1.71422-1.48545-0.20132z" style="font-feature-settings:normal;font-variant-caps:normal;font-variant-ligatures:normal;font-variant-numeric:normal"/>
   </g>
   <g style="font-feature-settings:normal;font-variant-caps:normal;font-variant-ligatures:normal;font-variant-numeric:normal" aria-label="Friday">
    <path d="m496.72003 624.54197-0.25926 1.76911-1.48545-0.0793 0.061 0.30502 1.18043 0.13421-0.16166 1.26888-0.81441-0.18301 0.27452 1.32379-1.4946 0.20131-0.33552-4.00491z" style="font-feature-settings:normal;font-variant-caps:normal;font-variant-ligatures:normal;font-variant-numeric:normal"/>
    <path d="m498.16888 626.01826 0.0427 0.82356q1.5251 0 1.5251-0.30502t-1.5678-0.51854zm0.20436 3.01666-1.69896 0.23791 0.35382-4.55395q3.92867 0.29282 4.05982 1.5739 0.13421 1.27804-1.35124 1.76912l1.22009 0.6619-1.25059 1.10722-1.43054-1.76912z" style="font-feature-settings:normal;font-variant-caps:normal;font-variant-ligatures:normal;font-variant-numeric:normal"/>
    <path d="m502.78689 625.0361 0.31112 4.11472-1.72642 0.32638 0.0793-4.33434z" style="font-feature-settings:normal;font-variant-caps:normal;font-variant-ligatures:normal;font-variant-numeric:normal"/>
    <path d="m503.44573 629.28198-0.19521-4.27028q4.16048 0 4.16048 2.13514t-3.96527 2.13514zm1.08587-3.13866 0.20437 1.4763q1.32074 6e-3 1.32074-0.7351 0-0.7412-1.52511-0.7412z" style="font-feature-settings:normal;font-variant-caps:normal;font-variant-ligatures:normal;font-variant-numeric:normal"/>
    <path d="m508.72868 628.67194-0.21351 0.61004-1.20178-0.72595 1.5068-3.54433 1.14687-0.0793 1.80267 3.6694-1.42444 0.68019-0.31417-0.8571zm1.04317-1.33599-0.34162-1.10417-0.40263 1.22008z" style="font-feature-settings:normal;font-variant-caps:normal;font-variant-ligatures:normal;font-variant-numeric:normal"/>
    <path d="m512.22727 627.45186-1.43665-1.44885 1.21398-0.99131 0.83271 1.22008 0.69239-1.519 1.61966 0.55514-1.70201 2.18394 0.13116 1.71421-1.48545-0.20131z" style="font-feature-settings:normal;font-variant-caps:normal;font-variant-ligatures:normal;font-variant-numeric:normal"/>
   </g>
   <g style="font-feature-settings:normal;font-variant-caps:normal;font-variant-ligatures:normal;font-variant-numeric:normal" aria-label="Saturday">
    <path d="m479.94538 598.60828q-1.10112-0.15556-0.97301-1.36954t2.83059-1.43665l0.25621 1.3787q-1.33903-0.0305-1.43664 0.31722-0.0976 0.34772 1.02487 0.39957 1.12247 0.0519 1.09807 1.3665-0.0244 1.31463-2.95565 1.40309l-0.53988-1.44275q1.5007 0.16166 1.65016-0.14946 0.14946-0.31417-0.95472-0.46668z" style="font-feature-settings:normal;font-variant-caps:normal;font-variant-ligatures:normal;font-variant-numeric:normal"/>
    <path d="m484.33463 599.685-0.21352 0.61004-1.20178-0.72594 1.5068-3.54434 1.14688-0.0793 1.80267 3.6694-1.42445 0.68019-0.31417-0.8571zm1.04317-1.33599-0.34163-1.10417-0.40262 1.22008z" style="font-feature-settings:normal;font-variant-caps:normal;font-variant-ligatures:normal;font-variant-numeric:normal"/>
    <path d="m489.05939 597.32415 0.14946 2.59877-1.65321 0.42703 0.28367-3.10511-1.24753-0.10676 0.0976-1.12857 3.57789-0.21352 0.13116 1.66847z" style="font-feature-settings:normal;font-variant-caps:normal;font-variant-ligatures:normal;font-variant-numeric:normal"/>
    <path d="m490.94747 596.23827 1.62576 0.31722q-0.81136 2.49202 0.23181 2.51947 1.23838-9e-3 0.7168-2.58047l1.4885-0.46973q0.68324 4.23368-2.2053 4.27028-2.91904-0.0274-1.85757-4.05677z" style="font-feature-settings:normal;font-variant-caps:normal;font-variant-ligatures:normal;font-variant-numeric:normal"/>
    <path d="m496.78556 597.03133 0.0427 0.82355q1.5251 0 1.5251-0.30502t-1.5678-0.51853zm0.20436 3.01665-1.69896 0.23791 0.35382-4.55395q3.92866 0.29282 4.05982 1.5739 0.13421 1.27804-1.35124 1.76912l1.22008 0.6619-1.25058 1.10722-1.43055-1.76912z" style="font-feature-settings:normal;font-variant-caps:normal;font-variant-ligatures:normal;font-variant-numeric:normal"/>
    <path d="m500.18348 600.29504-0.19521-4.27028q4.16048 0 4.16048 2.13514t-3.96527 2.13514zm1.08587-3.13866 0.20437 1.4763q1.32074 6e-3 1.32074-0.7351 0-0.7412-1.52511-0.7412z" style="font-feature-settings:normal;font-variant-caps:normal;font-variant-ligatures:normal;font-variant-numeric:normal"/>
    <path d="m505.46643 599.685-0.21351 0.61004-1.20178-0.72594 1.5068-3.54434 1.14688-0.0793 1.80267 3.6694-1.42445 0.68019-0.31417-0.8571zm1.04317-1.33599-0.34162-1.10417-0.40263 1.22008z" style="font-feature-settings:normal;font-variant-caps:normal;font-variant-ligatures:normal;font-variant-numeric:normal"/>
    <path d="m508.96502 598.46492-1.43665-1.44884 1.21398-0.99132 0.83271 1.22008 0.69239-1.519 1.61966 0.55514-1.70201 2.18394 0.13116 1.71422-1.48545-0.20132z" style="font-feature-settings:normal;font-variant-caps:normal;font-variant-ligatures:normal;font-variant-numeric:normal"/>
   </g>
   <g style="font-feature-settings:normal;font-variant-caps:normal;font-variant-ligatures:normal;font-variant-numeric:normal" aria-label="Sunday ">
    <path d="m482.6612 572.08539q-1.10112-0.15556-0.97301-1.36954t2.83059-1.43664l0.25621 1.37869q-1.33903-0.0305-1.43664 0.31722-0.0976 0.34772 1.02487 0.39958 1.12247 0.0519 1.09807 1.36649-0.0244 1.31463-2.95565 1.40309l-0.53988-1.44275q1.5007 0.16167 1.65016-0.14946 0.14946-0.31417-0.95472-0.46668z" style="font-feature-settings:normal;font-variant-caps:normal;font-variant-ligatures:normal;font-variant-numeric:normal"/>
    <path d="m486.00118 569.71539 1.62575 0.31722q-0.81135 2.49201 0.23182 2.51946 1.23838-9e-3 0.7168-2.58047l1.4885-0.46973q0.68324 4.23368-2.2053 4.27029-2.91904-0.0275-1.85757-4.05677z" style="font-feature-settings:normal;font-variant-caps:normal;font-variant-ligatures:normal;font-variant-numeric:normal"/>
    <path d="m491.97042 571.63701 0.30197 1.74777-1.52205 0.38738-0.30807-4.00492 1.52815-0.26537 1.5068 1.99483 0.0183-1.99483 1.89112-0.19521-0.67104 4.4655-1.21093 0.17691z" style="font-feature-settings:normal;font-variant-caps:normal;font-variant-ligatures:normal;font-variant-numeric:normal"/>
    <path d="m495.73743 573.77216-0.19522-4.27029q4.16048 0 4.16048 2.13514 0 2.13515-3.96526 2.13515zm1.08587-3.13866 0.20436 1.4763q1.32074 6e-3 1.32074-0.7351 0-0.7412-1.5251-0.7412z" style="font-feature-settings:normal;font-variant-caps:normal;font-variant-ligatures:normal;font-variant-numeric:normal"/>
    <path d="m501.02038 573.16212-0.21352 0.61004-1.20178-0.72595 1.5068-3.54434 1.14688-0.0793 1.80267 3.66939-1.42445 0.6802-0.31417-0.85711zm1.04317-1.33599-0.34163-1.10418-0.40262 1.22008z" style="font-feature-settings:normal;font-variant-caps:normal;font-variant-ligatures:normal;font-variant-numeric:normal"/>
    <path d="m504.51896 571.94203-1.43665-1.44884 1.21399-0.99132 0.8327 1.22008 0.6924-1.519 1.61966 0.55514-1.70202 2.18394 0.13116 1.71422-1.48545-0.20132z" style="font-feature-settings:normal;font-variant-caps:normal;font-variant-ligatures:normal;font-variant-numeric:normal"/>
   </g>
  </g>
  <g fill="#fff">
   <circle cx="529.20526" cy="552.30542" r="1.5675197"/>
   <circle cx="560.0329" cy="566.78113" r="1.5675197"/>
   <circle cx="569.27435" cy="603.1394" r="1.5675197"/>
   <circle cx="546.92169" cy="631.91705" r="1.5675197"/>
   <circle transform="scale(-1,1)" cx="-496.81122" cy="566.78113" r="1.5675197"/>
   <circle transform="scale(-1,1)" cx="-487.23624" cy="603.1394" r="1.5675197"/>
   <circle transform="scale(-1,1)" cx="-509.92242" cy="631.91705" r="1.5675197"/>
  </g>
  <g transform="rotate(-46.035037)" fill="#616161" stroke-width=".11712779" style="font-feature-settings:normal;font-variant-caps:normal;font-variant-ligatures:normal;font-variant-numeric:normal" aria-label="yesterday">
   <path d="m-73.117917 855.14304q-0.0183-0.0793 0.0122-0.15251 0.0366-0.0732 0.09761-0.13421 0.061-0.061 0.140309-0.10371 0.07931-0.0427 0.14641-0.0549l2.043636 2.97089 1.305487-3.0136q0.0122-0.0305 0.08541-0.0366 0.07321-0.0122 0.15251 0.0122 0.08541 0.0183 0.14641 0.0854 0.0671 0.0671 0.0549 0.18911l-2.330355 6.18581q-0.061 0.12811-0.170811 0.16471-0.109808 0.0366-0.213514 0.0122-0.103707-0.0244-0.170812-0.0976-0.0671-0.0671-0.0488-0.14641l0.945563-2.62928z" style="font-feature-settings:normal;font-variant-caps:normal;font-variant-ligatures:normal;font-variant-numeric:normal"/>
   <path d="m-69.042846 857.31478q-0.0549-0.49413 0.08541-0.98217 0.140309-0.49413 0.433129-0.87845 0.298919-0.39043 0.719848-0.62225 0.420928-0.23791 0.927261-0.22571 0.207414-6e-3 0.475832 0.0915 0.268418 0.0976 0.494133 0.27451 0.225715 0.17082 0.359924 0.40263 0.140309 0.22572 0.09151 0.48193 0.0061 0.12811-0.128109 0.21352-0.134208 0.0793-0.359924 0.12811-0.219614 0.0488-0.518534 0.0732-0.29282 0.0183-0.622242 0.0305-0.323321 0.0122-0.658843 0.0244-0.335523 6e-3 -0.634443 0.0305-0.170811 0.46973-0.103707 0.77475 0.07321 0.29892 0.29892 0.45753 0.231816 0.15861 0.567338 0.18911 0.341623 0.0244 0.707647-0.0488 0.366025-0.0732 0.719848-0.23182 0.353824-0.16471 0.610041-0.39042 0.0366 0 0.09151 0.0244 0.061 0.0244 0.115908 0.0671 0.0549 0.0366 0.09151 0.0854 0.0427 0.0427 0.0427 0.0793-0.152511 0.26232-0.463631 0.46973-0.311121 0.20742-0.701547 0.33553t-0.817454 0.15861q-0.420929 0.0305-0.793053-0.061-0.372125-0.0915-0.652744-0.32332-0.280618-0.23181-0.378225-0.62834zm2.915994-1.62881q-0.0305-0.23181-0.183012-0.34772-0.15251-0.11591-0.359924-0.14641-0.207414-0.0366-0.439229 6e-3 -0.231816 0.0427-0.433129 0.12811-0.195213 0.0854-0.329422 0.20131-0.128108 0.11591-0.134209 0.23182z" style="font-feature-settings:normal;font-variant-caps:normal;font-variant-ligatures:normal;font-variant-numeric:normal"/>
   <path d="m-64.717658 857.88822q0.549037-0.0427 0.994366-0.15251 0.45143-0.10981 0.756451-0.25012 0.311121-0.14641 0.463631-0.30502 0.15251-0.16471 0.109807-0.32332-0.0488-0.17081-0.488033-0.14641-0.433128 0.0244-1.287185 0.19521-0.250117-0.0183-0.43923-0.11591-0.183012-0.0976-0.292819-0.23181-0.109807-0.14031-0.140309-0.29282-0.0305-0.15251 0.0183-0.26842 0-0.20131 0.115908-0.39042 0.122008-0.19522 0.323321-0.35383 0.207414-0.16471 0.475832-0.29282 0.274518-0.13421 0.585639-0.20741 0.311121-0.0793 0.640542-0.0976 0.329422-0.0183 0.652744 0.0427 0.158611 0.0732 0.256217 0.17081 0.103707 0.0915 0.140309 0.18911 0.0366 0.0915 0 0.17691-0.0366 0.0854-0.15251 0.14641-0.250116-0.10981-0.530735-0.15861-0.274518-0.0549-0.549037-0.0427-0.274518 0.0122-0.530735 0.0854-0.250117 0.0671-0.44533 0.19522-0.189112 0.122-0.31112 0.30502-0.122009 0.18301-0.128109 0.41482 0 0.12811 0.09761 0.17082 0.103706 0.0366 0.237915 0.0366 0.14031-6e-3 0.286719-0.0305 0.152511-0.0305 0.244017-0.0305 0.60394-0.0854 0.994366-0.0488 0.396526 0.0366 0.60394 0.15861t0.244016 0.30502q0.0366 0.18301-0.0732 0.39653-0.103707 0.20741-0.341623 0.42093-0.237916 0.21351-0.579539 0.39042t-0.774751 0.29892q-0.427029 0.11591-0.915061 0.14031-0.115908 0.0427-0.195213-0.0122-0.07321-0.0549-0.109808-0.14641-0.0366-0.0915-0.0305-0.18911 0.0122-0.10371 0.07321-0.15251z" style="font-feature-settings:normal;font-variant-caps:normal;font-variant-ligatures:normal;font-variant-numeric:normal"/>
   <path d="m-61.496644 855.72867q-0.14641-0.0366-0.189112-0.122-0.0488-0.0854-0.0305-0.17082 0.0183-0.0915 0.07931-0.15861 0.061-0.0671 0.128108-0.0732h1.140776l-0.0244-1.90333q0.0244-0.0732 0.103707-0.12201 0.07931-0.0488 0.170811-0.0549 0.09151-0.0122 0.183012 0.0244 0.09151 0.0305 0.14641 0.12201l0.0549 1.90333 1.079772-0.0244q0.109807 0.061 0.146409 0.15251 0.0427 0.0854 0.0366 0.17081-0.0061 0.0793-0.0488 0.14641-0.0366 0.061-0.08541 0.0732l-1.128575 0.0244q-0.0061 0.37823 0.0061 0.68325 0.0183 0.29892 0.0366 0.58564 0.0244 0.28062 0.0366 0.58564 0.0183 0.29892 0.0183 0.67104-0.176912 0.12201-0.359924 0.11591-0.183012-6e-3 -0.250116-0.15251l-0.0671-2.47677z" style="font-feature-settings:normal;font-variant-caps:normal;font-variant-ligatures:normal;font-variant-numeric:normal"/>
   <path d="m-58.330532 857.31478q-0.0549-0.49413 0.08541-0.98217 0.140309-0.49413 0.433128-0.87845 0.29892-0.39043 0.719848-0.62225 0.420928-0.23791 0.927262-0.22571 0.207414-6e-3 0.475832 0.0915 0.268418 0.0976 0.494133 0.27451 0.225715 0.17082 0.359924 0.40263 0.140309 0.22572 0.09151 0.48193 0.0061 0.12811-0.128109 0.21352-0.134209 0.0793-0.359924 0.12811-0.219614 0.0488-0.518534 0.0732-0.29282 0.0183-0.622242 0.0305-0.323321 0.0122-0.658844 0.0244-0.335522 6e-3 -0.634442 0.0305-0.170811 0.46973-0.103707 0.77475 0.07321 0.29892 0.29892 0.45753 0.231816 0.15861 0.567338 0.18911 0.341623 0.0244 0.707647-0.0488 0.366025-0.0732 0.719848-0.23182 0.353824-0.16471 0.610041-0.39042 0.0366 0 0.09151 0.0244 0.061 0.0244 0.115908 0.0671 0.0549 0.0366 0.09151 0.0854 0.0427 0.0427 0.0427 0.0793-0.15251 0.26232-0.46363 0.46973-0.311121 0.20742-0.701547 0.33553t-0.817455 0.15861q-0.420928 0.0305-0.793052-0.061-0.372125-0.0915-0.652744-0.32332-0.280619-0.23181-0.378225-0.62834zm2.915994-1.62881q-0.0305-0.23181-0.183012-0.34772-0.15251-0.11591-0.359924-0.14641-0.207414-0.0366-0.439229 6e-3 -0.231816 0.0427-0.433129 0.12811-0.195213 0.0854-0.329422 0.20131-0.128109 0.11591-0.134209 0.23182z" style="font-feature-settings:normal;font-variant-caps:normal;font-variant-ligatures:normal;font-variant-numeric:normal"/>
   <path d="m-54.285963 854.6855q0.0122-0.1159 0.09761-0.1403 0.08541-0.0305 0.183012-0.0183 0.15861 0.0183 0.237916 0.16472 0.07931 0.1403 0.109807 0.31722 0.0305 0.17691 0.0305 0.34772 0 0.16471 0.0061 0.23792 0.170812-0.14641 0.378226-0.33553 0.213514-0.18911 0.512434-0.34162 0.30502-0.15861 0.725948-0.23792 0.427029-0.0854 1.024868-0.0122 0.14641 0.0366 0.213515 0.14031 0.0732 0.10371 0.0732 0.21962 0.0061 0.1098-0.061 0.20741-0.061 0.0915-0.176911 0.10371-0.14641-0.10981-0.390426-0.12811-0.244017-0.0183-0.536836 0.0427-0.286719 0.061-0.585639 0.19522-0.29892 0.1342-0.555137 0.33552-0.250117 0.20131-0.433129 0.46363-0.176912 0.26232-0.219615 0.57344v1.33599q-0.0122 0.0305-0.09761 0.0915-0.08541 0.0549-0.195213 0.0793-0.103707 0.0305-0.213514 0-0.103707-0.0305-0.158611-0.17081 0-0.0427 0-0.26842 0-0.23182 0-0.55514 0.0061-0.32942 0.0122-0.71375 0.0061-0.39042 0.0061-0.76255 0.0061-0.37212 0.0061-0.68324 0.0061-0.31112 0.0061-0.48804z" style="font-feature-settings:normal;font-variant-caps:normal;font-variant-ligatures:normal;font-variant-numeric:normal"/>
   <path d="m-48.130654 857.47339q-0.280619 0.21351-0.591739 0.38433-0.311121 0.17081-0.616141 0.28061-0.305021 0.10371-0.59784 0.14031-0.286719 0.0305-0.530736-0.0305-0.237915-0.061-0.420928-0.22571-0.183012-0.17081-0.268417-0.46973-0.08541-0.39653 0.0122-0.75035 0.09761-0.35383 0.323322-0.64665 0.225715-0.29282 0.549036-0.50633 0.323322-0.21962 0.689346-0.34162 0.366025-0.12201 0.75035-0.13421 0.390426-0.0122 0.74425 0.1037 0-0.1342 0-0.34772 0.0061-0.21961 0.0061-0.45143 0.0061-0.23181 0.0122-0.44533 0.0061-0.21351 0.0183-0.34772 0.0366-0.31112 0.14641-0.47583 0.109807-0.17081 0.384326-0.11591 0.0122 0.47583 0.0061 0.87236-0.0061 0.39042-0.0183 0.75035-0.0122 0.35382-0.0244 0.70154-0.0122 0.34163-0.0122 0.73205 0 0.38433 0.0122 0.83576 0.0183 0.45143 0.061 1.01267 0 0.17691-0.0671 0.25011-0.061 0.0732-0.213514 0.0732-0.14641 0-0.225715-0.0915-0.07321-0.0976-0.103707-0.22571-0.0244-0.13421-0.0244-0.28062t0-0.25012zm-2.495066-0.23792q0.0122 0.28062 0.15861 0.40263 0.152511 0.11591 0.420929 0.0671 0.128108 0 0.390426-0.0671 0.268417-0.0732 0.549036-0.18301 0.286719-0.11591 0.536836-0.25012 0.250117-0.14031 0.353823-0.28062v-1.01266q-0.15861-0.17081-0.402626-0.21352-0.244017-0.0488-0.518535 6e-3 -0.274518 0.0549-0.549037 0.20132-0.268417 0.14031-0.481932 0.34772-0.213514 0.20131-0.341622 0.45753-0.128109 0.25012-0.115908 0.52463z" style="font-feature-settings:normal;font-variant-caps:normal;font-variant-ligatures:normal;font-variant-numeric:normal"/>
   <path d="m-44.04338 857.05246q-0.176912 0.27452-0.408728 0.50024-0.231815 0.21961-0.512434 0.37822-0.274518 0.15251-0.60394 0.22572-0.323322 0.0732-0.683246 0.0427-0.128108 0-0.274518-0.0305t-0.274518-0.0976q-0.122008-0.0671-0.201313-0.17691-0.07931-0.10981-0.07931-0.27452-0.0671-0.34162 0.0305-0.70765 0.103707-0.37212 0.311121-0.71984 0.213514-0.35383 0.512434-0.65885 0.30502-0.31112 0.646643-0.52463 0.341623-0.21962 0.695447-0.31722 0.359924-0.10371 0.689345-0.0427 0.250117 0 0.384326 0.16471 0.140309 0.16471 0.207414 0.44533 0.07321 0.27452 0.08541 0.64055 0.0183 0.35992 0.0183 0.75645 0.0061 0.39042 0.0183 0.78695 0.0122 0.39042 0.0671 0.72595-0.0061 0.0122-0.061 0.0732-0.0488 0.061-0.128108 0.0976-0.0793 0.0366-0.183012 0.0122-0.09761-0.0183-0.195213-0.17081-0.0366-0.061-0.0488-0.21352-0.0061-0.15861-0.0061-0.33552 0.0061-0.17691 0.0061-0.34162 0.0061-0.16471-0.0122-0.23792zm-0.384326-1.85452q-0.237916-0.0183-0.494133 0.0732t-0.500233 0.26232q-0.237916 0.16471-0.45143 0.39043-0.213515 0.21961-0.372125 0.46363-0.158611 0.23791-0.250117 0.47583-0.08541 0.23792-0.0793 0.43923 0.0122 0.19521 0.128108 0.33552 0.122009 0.13421 0.378226 0.17691 0.353823 6e-3 0.677145-0.17691 0.323321-0.18911 0.585639-0.46973 0.262317-0.28062 0.439229-0.61004 0.183012-0.33552 0.244016-0.62834 0.06711-0.29282 0-0.49414-0.0671-0.20741-0.30502-0.23791z" style="font-feature-settings:normal;font-variant-caps:normal;font-variant-ligatures:normal;font-variant-numeric:normal"/>
   <path d="m-43.213725 855.14304q-0.0183-0.0793 0.0122-0.15251 0.0366-0.0732 0.09761-0.13421 0.061-0.061 0.140309-0.10371 0.07931-0.0427 0.14641-0.0549l2.043636 2.97089 1.305487-3.0136q0.0122-0.0305 0.08541-0.0366 0.0732-0.0122 0.15251 0.0122 0.08541 0.0183 0.14641 0.0854 0.0671 0.0671 0.0549 0.18911l-2.330355 6.18581q-0.061 0.12811-0.170811 0.16471-0.109808 0.0366-0.213514 0.0122-0.103707-0.0244-0.170812-0.0976-0.0671-0.0671-0.0488-0.14641l0.945563-2.62928z" style="font-feature-settings:normal;font-variant-caps:normal;font-variant-ligatures:normal;font-variant-numeric:normal"/>
  </g>
 </g>
</svg>
