<?xml version="1.0" encoding="UTF-8"?>
<!-- Created with Inkscape (http://www.inkscape.org/) -->
<svg width="512" height="512" version="1.1" viewBox="0 0 135.46667 135.46667" xmlns="http://www.w3.org/2000/svg" xmlns:cc="http://creativecommons.org/ns#" xmlns:dc="http://purl.org/dc/elements/1.1/" xmlns:rdf="http://www.w3.org/1999/02/22-rdf-syntax-ns#">
 <metadata>
  <rdf:RDF>
   <cc:Work rdf:about="">
    <dc:format>image/svg+xml</dc:format>
    <dc:type rdf:resource="http://purl.org/dc/dcmitype/StillImage"/>
    <dc:title/>
   </cc:Work>
  </rdf:RDF>
 </metadata>
 <g transform="translate(-307.14325,-525.52399)">
  <rect x="307.14325" y="525.52399" width="135.46667" height="135.46667" ry="2.061909" opacity="0" stroke-width=".82785952"/>
  <g transform="matrix(.44268775 0 0 .44268775 169.79831 522.82788)">
   <path d="m613.86476 188.27734c0.22271-0.919-0.33785-1.83813-1.25686-2.06084l-5.64956-1.36907c1.20063-5.64402 1.96157-9.9188 1.68959-10.32708-0.85361-1.28145-26.34996 13.61472-26.83825 15.68014-0.4883 2.06543 15.73052 26.41234 17.07242 25.62833 0.42694-0.24944 1.65879-4.40425 3.11043-9.97851l5.53254 1.34072c0.91901 0.22271 1.83815-0.33785 2.06085-1.25684z" fill="#00c853"/>
   <rect transform="matrix(.45103526 .89250613 -.88152989 .47212822 0 0)" x="444.59564" y="-453.02393" width="3.9317675" height="14.258574" ry="1.9595118" fill="#a0ffc7"/>
  </g>
  <g transform="matrix(.27509329 .34683732 -.34683732 .27509329 302.90632 390.24476)">
   <path transform="scale(.26458333)" d="m1729.8105 73.541016c-2.733 0-4.9335 2.200566-4.9335 4.933593v14.388672c-10.1526 0.470168-17.3718 1.077655-18.0118 1.783203-2.3979 2.643719 45.5084 51.537326 50.4278 51.466796 4.9194-0.0705 50.4804-50.301768 47.959-52.874999-0.6711-0.684879-7.8758-1.085882-18-1.265625v-13.498047c0-2.733027-2.1987-4.933593-4.9317-4.933593z" fill="#2196f3"/>
   <rect transform="rotate(-43.436588)" x="312.67651" y="335.33032" width="2.7792709" height="8.6303663" ry="1.3896354" fill="#c8e5fc"/>
  </g>
  <path d="m374.7148 550.46859a43.796699 43.796699 0 0 0 -14.96742 2.69486l3.41936 0.29625-2.09069 3.06637a40.164776 40.164776 0 0 1 13.63875 -2.42537 40.164776 40.164776 0 0 1 40.16477 40.16477 40.164776 40.164776 0 0 1 -40.16477 40.16477 40.164776 40.164776 0 0 1 -40.16476 -40.16477 40.164776 40.164776 0 0 1 18.89234 -34.04347l-1.5524-3.27158a43.796699 43.796699 0 0 0 -20.97182 37.31505 43.796699 43.796699 0 0 0 43.79664 43.79665 43.796699 43.796699 0 0 0 43.79642 -43.79665 43.796699 43.796699 0 0 0 -43.79642 -43.79688z" fill="#ff5252" stroke-width=".44268775"/>
  <path d="m347.32203 555.72986 12.79934-0.87794-8.10554 10.08312z" fill="#ff5252" stroke-width=".44268775"/>
  <ellipse cx="372.43835" cy="590.85486" rx="55.109818" ry="50.11874" opacity="0" stroke-width="2.342556"/>
  <g transform="matrix(.09541406 -.43228301 -.43228301 -.09541406 433.37631 666.33195)" fill="none" stroke="#ffc107" stroke-linecap="round" stroke-width="2.64583325">
   <g transform="rotate(-26.301235,280.87683,257.93987)">
    <path d="m311.01879 55.61079-10.7041-6.274815"/>
    <path d="m312.14537 43.254339-1.12658 12.356451"/>
   </g>
   <path d="m148.16068 32.100827s36.96218 2.270005 70.08762 31.100082"/>
  </g>
  <g fill="#1565c0" stroke="#fff" stroke-width=".11712779">
   <g style="font-feature-settings:normal;font-variant-caps:normal;font-variant-ligatures:normal;font-variant-numeric:normal" aria-label="Monday">
    <path d="m370.25114 545.55107 0.25621 4.02321-1.5556 0.13116-0.0824-2.05888-0.31417 1.41529-1.39699 0.19521-0.56734-1.46104 0.20437 1.73251-1.42445 0.29282 0.19521-4.27028 1.40005-0.18607 0.77475 2.44017 0.93946-2.36696z" style="font-feature-settings:normal;font-variant-caps:normal;font-variant-ligatures:normal;font-variant-numeric:normal"/>
    <path d="m373.15188 549.82135q-1.03097 0-1.75997-0.62529-0.72595-0.62529-0.72595-1.50985t0.72595-1.50985q0.729-0.62529 1.75997-0.62529 1.02792 0 1.75387 0.62529 0.72899 0.62529 0.72899 1.50985t-0.72899 1.50985q-0.72595 0.62529-1.75387 0.62529zm-0.17081-1.33294q0.43923 0 0.75035-0.26842 0.31417-0.26841 0.31417-0.64664 0-0.37822-0.31417-0.64664-0.31112-0.26842-0.75035-0.26842-0.44228 0-0.75645 0.26842-0.31112 0.26842-0.31112 0.64664 0 0.37823 0.31112 0.64664 0.31417 0.26842 0.75645 0.26842z" style="font-feature-settings:normal;font-variant-caps:normal;font-variant-ligatures:normal;font-variant-numeric:normal"/>
    <path d="m377.31846 547.68621 0.30197 1.74776-1.52205 0.38738-0.30807-4.00492 1.52815-0.26536 1.5068 1.99483 0.0183-1.99483 1.89112-0.19522-0.67104 4.4655-1.21093 0.17691z" style="font-feature-settings:normal;font-variant-caps:normal;font-variant-ligatures:normal;font-variant-numeric:normal"/>
    <path d="m381.08546 549.82135-0.19522-4.27028q4.16048 0 4.16048 2.13514t-3.96526 2.13514zm1.08587-3.13866 0.20436 1.4763q1.32074 6e-3 1.32074-0.7351 0-0.7412-1.5251-0.7412z" style="font-feature-settings:normal;font-variant-caps:normal;font-variant-ligatures:normal;font-variant-numeric:normal"/>
    <path d="m386.36841 549.21131-0.21352 0.61004-1.20178-0.72595 1.50681-3.54433 1.14687-0.0793 1.80267 3.66939-1.42444 0.6802-0.31417-0.85711zm1.04317-1.33599-0.34162-1.10417-0.40263 1.22008z" style="font-feature-settings:normal;font-variant-caps:normal;font-variant-ligatures:normal;font-variant-numeric:normal"/>
    <path d="m389.86699 547.99123-1.43664-1.44885 1.21398-0.99131 0.8327 1.22008 0.6924-1.519 1.61966 0.55513-1.70202 2.18395 0.13116 1.71421-1.48545-0.20131z" style="font-feature-settings:normal;font-variant-caps:normal;font-variant-ligatures:normal;font-variant-numeric:normal"/>
   </g>
   <g style="font-feature-settings:normal;font-variant-caps:normal;font-variant-ligatures:normal;font-variant-numeric:normal" aria-label="Tuesday">
    <path d="m394.18364 570.92632 0.14946 2.59877-1.65321 0.42703 0.28367-3.10511-1.24753-0.10675 0.0976-1.12858 3.57789-0.21351 0.13116 1.66846z" style="font-feature-settings:normal;font-variant-caps:normal;font-variant-ligatures:normal;font-variant-numeric:normal"/>
    <path d="m396.07172 569.84045 1.62575 0.31722q-0.81135 2.49201 0.23182 2.51947 1.23838-9e-3 0.7168-2.58048l1.4885-0.46973q0.68324 4.23368-2.2053 4.27029-2.91904-0.0275-1.85757-4.05677z" style="font-feature-settings:normal;font-variant-caps:normal;font-variant-ligatures:normal;font-variant-numeric:normal"/>
    <path d="m403.55081 569.0779 0.0793 1.6166-1.89723 0.20437 0.0244 0.36907 1.24449-0.11591 0.1098 1.10418-1.29938 0.0946 0.0213 0.29892 1.84232-0.14031 0.27452 1.38785-3.63279 0.12506 0.36907-4.40145z" style="font-feature-settings:normal;font-variant-caps:normal;font-variant-ligatures:normal;font-variant-numeric:normal"/>
    <path d="m404.89595 572.21045q-1.10112-0.15556-0.97301-1.36954t2.83059-1.43664l0.25621 1.37869q-1.33903-0.0305-1.43664 0.31722-0.0976 0.34772 1.02487 0.39958 1.12247 0.0518 1.09807 1.36649-0.0244 1.31464-2.95565 1.40309l-0.53988-1.44274q1.5007 0.16166 1.65016-0.14946 0.14946-0.31418-0.95472-0.46669z" style="font-feature-settings:normal;font-variant-caps:normal;font-variant-ligatures:normal;font-variant-numeric:normal"/>
    <path d="m408.06511 573.89722-0.19521-4.27029q4.16048 0 4.16048 2.13514 0 2.13515-3.96527 2.13515zm1.08588-3.13866 0.20436 1.4763q1.32074 6e-3 1.32074-0.7351 0-0.7412-1.5251-0.7412z" style="font-feature-settings:normal;font-variant-caps:normal;font-variant-ligatures:normal;font-variant-numeric:normal"/>
    <path d="m413.34807 573.28718-0.21352 0.61004-1.20178-0.72595 1.5068-3.54434 1.14688-0.0793 1.80267 3.66939-1.42445 0.6802-0.31417-0.85711zm1.04317-1.33599-0.34163-1.10418-0.40262 1.22008z" style="font-feature-settings:normal;font-variant-caps:normal;font-variant-ligatures:normal;font-variant-numeric:normal"/>
    <path d="m416.84665 572.06709-1.43665-1.44884 1.21398-0.99132 0.83271 1.22008 0.6924-1.519 1.61965 0.55514-1.70201 2.18394 0.13116 1.71422-1.48545-0.20131z" style="font-feature-settings:normal;font-variant-caps:normal;font-variant-ligatures:normal;font-variant-numeric:normal"/>
   </g>
   <g style="font-feature-settings:normal;font-variant-caps:normal;font-variant-ligatures:normal;font-variant-numeric:normal" aria-label="Wednesday">
    <path d="m389.45118 598.3734-0.61005 2.13514-1.20483 0.15862-1.81487-3.59009 1.4946-0.83881 0.91506 2.44016 0.7168-1.92773 1.22008 0.16777 0.50329 1.75996 0.73205-2.52862 1.65931 0.90897-1.78132 3.44977-1.36344-0.29281z" style="font-feature-settings:normal;font-variant-caps:normal;font-variant-ligatures:normal;font-variant-numeric:normal"/>
    <path d="m396.27753 595.68922 0.0793 1.61661-1.89723 0.20437 0.0244 0.36907 1.24448-0.11591 0.10981 1.10418-1.29939 0.0946 0.0214 0.29892 1.84232-0.14031 0.27452 1.38784-3.6328 0.12506 0.36908-4.40144z" style="font-feature-settings:normal;font-variant-caps:normal;font-variant-ligatures:normal;font-variant-numeric:normal"/>
    <path d="m397.02178 600.50854-0.19521-4.27028q4.16047 0 4.16047 2.13514t-3.96526 2.13514zm1.08587-3.13865 0.20437 1.47629q1.32073 6e-3 1.32073-0.73509 0-0.7412-1.5251-0.7412z" style="font-feature-settings:normal;font-variant-caps:normal;font-variant-ligatures:normal;font-variant-numeric:normal"/>
    <path d="m402.67381 598.3734 0.30197 1.74777-1.52206 0.38737-0.30807-4.00491 1.52816-0.26537 1.5068 1.99483 0.0183-1.99483 1.89112-0.19521-0.67104 4.46549-1.21093 0.17692z" style="font-feature-settings:normal;font-variant-caps:normal;font-variant-ligatures:normal;font-variant-numeric:normal"/>
    <path d="m409.21039 595.68922 0.0793 1.61661-1.89723 0.20437 0.0244 0.36907 1.24448-0.11591 0.10981 1.10418-1.29938 0.0946 0.0213 0.29892 1.84232-0.14031 0.27452 1.38784-3.63279 0.12506 0.36907-4.40144z" style="font-feature-settings:normal;font-variant-caps:normal;font-variant-ligatures:normal;font-variant-numeric:normal"/>
    <path d="m410.55553 598.82178q-1.10112-0.15556-0.97301-1.36954 0.1281-1.21398 2.83059-1.43664l0.25621 1.37869q-1.33904-0.0305-1.43664 0.31722t1.02486 0.39958q1.12248 0.0519 1.09808 1.36649-0.0244 1.31463-2.95565 1.40309l-0.53989-1.44275q1.5007 0.16166 1.65016-0.14946 0.14946-0.31417-0.95471-0.46668z" style="font-feature-settings:normal;font-variant-caps:normal;font-variant-ligatures:normal;font-variant-numeric:normal"/>
    <path d="m413.72469 600.50854-0.19521-4.27028q4.16048 0 4.16048 2.13514t-3.96527 2.13514zm1.08587-3.13865 0.20437 1.47629q1.32074 6e-3 1.32074-0.73509 0-0.7412-1.52511-0.7412z" style="font-feature-settings:normal;font-variant-caps:normal;font-variant-ligatures:normal;font-variant-numeric:normal"/>
    <path d="m419.00764 599.8985-0.21351 0.61004-1.20178-0.72594 1.5068-3.54434 1.14688-0.0793 1.80267 3.66939-1.42445 0.68019-0.31417-0.8571zm1.04317-1.33598-0.34162-1.10418-0.40263 1.22008z" style="font-feature-settings:normal;font-variant-caps:normal;font-variant-ligatures:normal;font-variant-numeric:normal"/>
    <path d="m422.50623 598.67842-1.43665-1.44884 1.21398-0.99132 0.83271 1.22008 0.6924-1.519 1.61965 0.55514-1.70201 2.18394 0.13116 1.71422-1.48545-0.20132z" style="font-feature-settings:normal;font-variant-caps:normal;font-variant-ligatures:normal;font-variant-numeric:normal"/>
   </g>
   <g style="font-feature-settings:normal;font-variant-caps:normal;font-variant-ligatures:normal;font-variant-numeric:normal" aria-label="Thursday">
    <path d="m378.89629 626.2257 0.14946 2.59877-1.65321 0.42703 0.28367-3.10511-1.24754-0.10676 0.0976-1.12857 3.57789-0.21352 0.13116 1.66847z" style="font-feature-settings:normal;font-variant-caps:normal;font-variant-ligatures:normal;font-variant-numeric:normal"/>
    <path d="m381.98309 627.90941 0.10981 1.03097-1.16823 0.20436-0.53073-3.37962 1.29938-0.55514 0.14641 1.4641 1.17128-0.13421 0.0183-1.33294 2.03449 0.20436-0.7778 3.7487-1.30854-0.38737 0.0152-0.97302z" style="font-feature-settings:normal;font-variant-caps:normal;font-variant-ligatures:normal;font-variant-numeric:normal"/>
    <path d="m385.50608 625.13982 1.62576 0.31723q-0.81136 2.49201 0.23181 2.51946 1.23838-9e-3 0.7168-2.58047l1.4885-0.46973q0.68324 4.23368-2.2053 4.27028-2.91904-0.0275-1.85757-4.05677z" style="font-feature-settings:normal;font-variant-caps:normal;font-variant-ligatures:normal;font-variant-numeric:normal"/>
    <path d="m391.34417 625.93288 0.0427 0.82355q1.5251 0 1.5251-0.30502t-1.5678-0.51853zm0.20436 3.01665-1.69896 0.23791 0.35382-4.55395q3.92866 0.29282 4.05982 1.57391 0.13421 1.27803-1.35124 1.76911l1.22008 0.6619-1.25058 1.10722-1.43055-1.76912z" style="font-feature-settings:normal;font-variant-caps:normal;font-variant-ligatures:normal;font-variant-numeric:normal"/>
    <path d="m395.648 627.50983q-1.10112-0.15556-0.97301-1.36954t2.83059-1.43665l0.25621 1.3787q-1.33904-0.0305-1.43664 0.31722t1.02486 0.39957q1.12248 0.0519 1.09808 1.3665-0.0244 1.31463-2.95565 1.40309l-0.53988-1.44275q1.5007 0.16166 1.65016-0.14946 0.14946-0.31417-0.95472-0.46668z" style="font-feature-settings:normal;font-variant-caps:normal;font-variant-ligatures:normal;font-variant-numeric:normal"/>
    <path d="m398.81716 629.19659-0.19521-4.27028q4.16048 0 4.16048 2.13514t-3.96527 2.13514zm1.08587-3.13865 0.20437 1.47629q1.32074 6e-3 1.32074-0.7351 0-0.74119-1.52511-0.74119z" style="font-feature-settings:normal;font-variant-caps:normal;font-variant-ligatures:normal;font-variant-numeric:normal"/>
    <path d="m404.10012 628.58655-0.21352 0.61004-1.20178-0.72594 1.5068-3.54434 1.14688-0.0793 1.80267 3.6694-1.42445 0.68019-0.31417-0.8571zm1.04317-1.33599-0.34163-1.10417-0.40262 1.22008z" style="font-feature-settings:normal;font-variant-caps:normal;font-variant-ligatures:normal;font-variant-numeric:normal"/>
    <path d="m407.5987 627.36647-1.43665-1.44884 1.21398-0.99132 0.83271 1.22008 0.69239-1.519 1.61966 0.55514-1.70201 2.18394 0.13116 1.71422-1.48545-0.20132z" style="font-feature-settings:normal;font-variant-caps:normal;font-variant-ligatures:normal;font-variant-numeric:normal"/>
   </g>
   <g style="font-feature-settings:normal;font-variant-caps:normal;font-variant-ligatures:normal;font-variant-numeric:normal" aria-label="Friday">
    <path d="m343.14838 624.54197-0.25927 1.76911-1.48545-0.0793 0.061 0.30502 1.18042 0.13421-0.16166 1.26888-0.8144-0.18301 0.27452 1.32379-1.4946 0.20131-0.33552-4.00491z" style="font-feature-settings:normal;font-variant-caps:normal;font-variant-ligatures:normal;font-variant-numeric:normal"/>
    <path d="m344.59722 626.01826 0.0427 0.82356q1.5251 0 1.5251-0.30502t-1.56781-0.51854zm0.20437 3.01666-1.69897 0.23791 0.35383-4.55395q3.92866 0.29282 4.05982 1.5739 0.13421 1.27804-1.35124 1.76912l1.22008 0.6619-1.25058 1.10722-1.43055-1.76912z" style="font-feature-settings:normal;font-variant-caps:normal;font-variant-ligatures:normal;font-variant-numeric:normal"/>
    <path d="m349.21523 625.0361 0.31112 4.11472-1.72641 0.32638 0.0793-4.33434z" style="font-feature-settings:normal;font-variant-caps:normal;font-variant-ligatures:normal;font-variant-numeric:normal"/>
    <path d="m349.87408 629.28198-0.19522-4.27028q4.16048 0 4.16048 2.13514t-3.96526 2.13514zm1.08587-3.13866 0.20436 1.4763q1.32074 6e-3 1.32074-0.7351 0-0.7412-1.5251-0.7412z" style="font-feature-settings:normal;font-variant-caps:normal;font-variant-ligatures:normal;font-variant-numeric:normal"/>
    <path d="m355.15703 628.67194-0.21352 0.61004-1.20178-0.72595 1.5068-3.54433 1.14688-0.0793 1.80267 3.6694-1.42445 0.68019-0.31417-0.8571zm1.04317-1.33599-0.34163-1.10417-0.40262 1.22008z" style="font-feature-settings:normal;font-variant-caps:normal;font-variant-ligatures:normal;font-variant-numeric:normal"/>
    <path d="m358.65561 627.45186-1.43665-1.44885 1.21399-0.99131 0.8327 1.22008 0.6924-1.519 1.61966 0.55514-1.70202 2.18394 0.13116 1.71421-1.48545-0.20131z" style="font-feature-settings:normal;font-variant-caps:normal;font-variant-ligatures:normal;font-variant-numeric:normal"/>
   </g>
   <g style="font-feature-settings:normal;font-variant-caps:normal;font-variant-ligatures:normal;font-variant-numeric:normal" aria-label="Saturday">
    <path d="m326.37373 598.60828q-1.10112-0.15556-0.97302-1.36954 0.12811-1.21398 2.83059-1.43665l0.25622 1.3787q-1.33904-0.0305-1.43665 0.31722-0.0976 0.34772 1.02487 0.39957 1.12248 0.0519 1.09808 1.3665-0.0244 1.31463-2.95565 1.40309l-0.53989-1.44275q1.5007 0.16166 1.65016-0.14946 0.14946-0.31417-0.95471-0.46668z" style="font-feature-settings:normal;font-variant-caps:normal;font-variant-ligatures:normal;font-variant-numeric:normal"/>
    <path d="m330.76297 599.685-0.21351 0.61004-1.20178-0.72594 1.5068-3.54434 1.14687-0.0793 1.80267 3.6694-1.42444 0.68019-0.31417-0.8571zm1.04317-1.33599-0.34162-1.10417-0.40263 1.22008z" style="font-feature-settings:normal;font-variant-caps:normal;font-variant-ligatures:normal;font-variant-numeric:normal"/>
    <path d="m335.48774 597.32415 0.14946 2.59877-1.65321 0.42703 0.28366-3.10511-1.24753-0.10676 0.0976-1.12857 3.57789-0.21352 0.13115 1.66847z" style="font-feature-settings:normal;font-variant-caps:normal;font-variant-ligatures:normal;font-variant-numeric:normal"/>
    <path d="m337.37581 596.23827 1.62576 0.31722q-0.81135 2.49202 0.23182 2.51947 1.23838-9e-3 0.71679-2.58047l1.4885-0.46973q0.68325 4.23368-2.20529 4.27028-2.91905-0.0274-1.85758-4.05677z" style="font-feature-settings:normal;font-variant-caps:normal;font-variant-ligatures:normal;font-variant-numeric:normal"/>
    <path d="m343.2139 597.03133 0.0427 0.82355q1.5251 0 1.5251-0.30502t-1.5678-0.51853zm0.20436 3.01665-1.69896 0.23791 0.35382-4.55395q3.92867 0.29282 4.05982 1.5739 0.13421 1.27804-1.35124 1.76912l1.22009 0.6619-1.25059 1.10722-1.43054-1.76912z" style="font-feature-settings:normal;font-variant-caps:normal;font-variant-ligatures:normal;font-variant-numeric:normal"/>
    <path d="m346.61183 600.29504-0.19522-4.27028q4.16048 0 4.16048 2.13514t-3.96526 2.13514zm1.08587-3.13866 0.20436 1.4763q1.32074 6e-3 1.32074-0.7351 0-0.7412-1.5251-0.7412z" style="font-feature-settings:normal;font-variant-caps:normal;font-variant-ligatures:normal;font-variant-numeric:normal"/>
    <path d="m351.89478 599.685-0.21352 0.61004-1.20178-0.72594 1.5068-3.54434 1.14688-0.0793 1.80267 3.6694-1.42444 0.68019-0.31418-0.8571zm1.04317-1.33599-0.34163-1.10417-0.40262 1.22008z" style="font-feature-settings:normal;font-variant-caps:normal;font-variant-ligatures:normal;font-variant-numeric:normal"/>
    <path d="m355.39336 598.46492-1.43664-1.44884 1.21398-0.99132 0.8327 1.22008 0.6924-1.519 1.61966 0.55514-1.70202 2.18394 0.13116 1.71422-1.48545-0.20132z" style="font-feature-settings:normal;font-variant-caps:normal;font-variant-ligatures:normal;font-variant-numeric:normal"/>
   </g>
   <g style="font-feature-settings:normal;font-variant-caps:normal;font-variant-ligatures:normal;font-variant-numeric:normal" aria-label="Sunday ">
    <path d="m329.08949 572.08539q-1.10113-0.15556-0.97302-1.36954t2.83059-1.43664l0.25622 1.37869q-1.33904-0.0305-1.43665 0.31722-0.0976 0.34772 1.02487 0.39958 1.12248 0.0519 1.09807 1.36649-0.0244 1.31463-2.95564 1.40309l-0.53989-1.44275q1.5007 0.16167 1.65016-0.14946 0.14946-0.31417-0.95471-0.46668z" style="font-feature-settings:normal;font-variant-caps:normal;font-variant-ligatures:normal;font-variant-numeric:normal"/>
    <path d="m332.42946 569.71539 1.62576 0.31722q-0.81136 2.49201 0.23181 2.51946 1.23839-9e-3 0.7168-2.58047l1.4885-0.46973q0.68325 4.23368-2.2053 4.27029-2.91904-0.0275-1.85757-4.05677z" style="font-feature-settings:normal;font-variant-caps:normal;font-variant-ligatures:normal;font-variant-numeric:normal"/>
    <path d="m338.39871 571.63701 0.30197 1.74777-1.52205 0.38738-0.30807-4.00492 1.52815-0.26537 1.5068 1.99483 0.0183-1.99483 1.89113-0.19521-0.67105 4.4655-1.21093 0.17691z" style="font-feature-settings:normal;font-variant-caps:normal;font-variant-ligatures:normal;font-variant-numeric:normal"/>
    <path d="m342.16571 573.77216-0.19521-4.27029q4.16047 0 4.16047 2.13514 0 2.13515-3.96526 2.13515zm1.08587-3.13866 0.20437 1.4763q1.32073 6e-3 1.32073-0.7351 0-0.7412-1.5251-0.7412z" style="font-feature-settings:normal;font-variant-caps:normal;font-variant-ligatures:normal;font-variant-numeric:normal"/>
    <path d="m347.44866 573.16212-0.21351 0.61004-1.20178-0.72595 1.5068-3.54434 1.14687-0.0793 1.80267 3.66939-1.42444 0.6802-0.31417-0.85711zm1.04317-1.33599-0.34162-1.10418-0.40263 1.22008z" style="font-feature-settings:normal;font-variant-caps:normal;font-variant-ligatures:normal;font-variant-numeric:normal"/>
    <path d="m350.94724 571.94203-1.43664-1.44884 1.21398-0.99132 0.8327 1.22008 0.6924-1.519 1.61966 0.55514-1.70201 2.18394 0.13115 1.71422-1.48544-0.20132z" style="font-feature-settings:normal;font-variant-caps:normal;font-variant-ligatures:normal;font-variant-numeric:normal"/>
   </g>
  </g>
  <g fill="#fff">
   <circle cx="375.63361" cy="552.30542" r="1.5675197"/>
   <circle cx="406.4613" cy="566.78113" r="1.5675197"/>
   <circle cx="415.70276" cy="603.1394" r="1.5675197"/>
   <circle cx="393.3501" cy="631.91705" r="1.5675197"/>
   <circle transform="scale(-1,1)" cx="-343.2395" cy="566.78113" r="1.5675197"/>
   <circle transform="scale(-1,1)" cx="-333.68896" cy="603.1394" r="1.5675197"/>
   <circle transform="scale(-1,1)" cx="-356.35077" cy="631.91705" r="1.5675197"/>
  </g>
  <g transform="rotate(81.441084)" fill="#616161" stroke-width=".11712779" style="font-feature-settings:normal;font-variant-caps:normal;font-variant-ligatures:normal;font-variant-numeric:normal" aria-label="yesterday">
   <path d="m622.95304-347.92188q-0.0183-0.0793 0.0122-0.15251 0.0366-0.0732 0.0976-0.1342t0.14031-0.10371q0.0793-0.0427 0.14641-0.0549l2.04364 2.9709 1.30549-3.0136q0.0122-0.0305 0.0854-0.0366 0.0732-0.0122 0.15251 0.0122 0.0854 0.0183 0.14641 0.0854 0.0671 0.0671 0.0549 0.18911l-2.33035 6.18581q-0.061 0.12811-0.17081 0.16471t-0.21352 0.0122q-0.1037-0.0244-0.17081-0.0976-0.0671-0.0671-0.0488-0.14641l0.94556-2.62928z" style="font-feature-settings:normal;font-variant-caps:normal;font-variant-ligatures:normal;font-variant-numeric:normal"/>
   <path d="m627.02811-345.75013q-0.0549-0.49413 0.0854-0.98217 0.14031-0.49413 0.43313-0.87845 0.29892-0.39043 0.71985-0.62225 0.42093-0.23791 0.92726-0.22571 0.20742-6e-3 0.47583 0.0915 0.26842 0.0976 0.49414 0.27452 0.22571 0.17081 0.35992 0.40263 0.14031 0.22571 0.0915 0.48193 6e-3 0.12811-0.12811 0.21352-0.13421 0.0793-0.35993 0.1281-0.21961 0.0488-0.51853 0.0732-0.29282 0.0183-0.62224 0.0305-0.32332 0.0122-0.65885 0.0244-0.33552 6e-3 -0.63444 0.0305-0.17081 0.46973-0.10371 0.77475 0.0732 0.29892 0.29892 0.45753 0.23182 0.15861 0.56734 0.18911 0.34163 0.0244 0.70765-0.0488t0.71985-0.23182q0.35382-0.16471 0.61004-0.39042 0.0366 0 0.0915 0.0244 0.061 0.0244 0.11591 0.0671 0.0549 0.0366 0.0915 0.0854 0.0427 0.0427 0.0427 0.0793-0.15251 0.26232-0.46363 0.46973-0.31112 0.20742-0.70155 0.33553-0.39042 0.1281-0.81745 0.15861-0.42093 0.0305-0.79305-0.061-0.37213-0.0915-0.65275-0.32332-0.28062-0.23181-0.37822-0.62834zm2.91599-1.62881q-0.0305-0.23181-0.18301-0.34772t-0.35992-0.14641q-0.20742-0.0366-0.43923 6e-3 -0.23182 0.0427-0.43313 0.12811-0.19522 0.0854-0.32942 0.20131-0.12811 0.11591-0.13421 0.23182z" style="font-feature-settings:normal;font-variant-caps:normal;font-variant-ligatures:normal;font-variant-numeric:normal"/>
   <path d="m631.3533-345.17669q0.54903-0.0427 0.99436-0.15251 0.45143-0.10981 0.75645-0.25012 0.31112-0.14641 0.46363-0.30502 0.15251-0.16471 0.10981-0.32332-0.0488-0.17081-0.48803-0.14641-0.43313 0.0244-1.28719 0.19521-0.25011-0.0183-0.43923-0.11591-0.18301-0.0976-0.29282-0.23181-0.1098-0.14031-0.14031-0.29282-0.0305-0.15251 0.0183-0.26842 0-0.20131 0.1159-0.39042 0.12201-0.19522 0.32332-0.35383 0.20742-0.16471 0.47584-0.29282 0.27451-0.13421 0.58564-0.20741 0.31112-0.0793 0.64054-0.0976t0.65274 0.0427q0.15861 0.0732 0.25622 0.17082 0.10371 0.0915 0.14031 0.18911 0.0366 0.0915 0 0.17691-0.0366 0.0854-0.15251 0.14641-0.25012-0.10981-0.53074-0.15861-0.27452-0.0549-0.54903-0.0427-0.27452 0.0122-0.53074 0.0854-0.25012 0.0671-0.44533 0.19522-0.18911 0.122-0.31112 0.30502-0.12201 0.18301-0.12811 0.41482 0 0.12811 0.0976 0.17081 0.1037 0.0366 0.23791 0.0366 0.14031-6e-3 0.28672-0.0305 0.15251-0.0305 0.24402-0.0305 0.60394-0.0854 0.99437-0.0488 0.39652 0.0366 0.60394 0.15861 0.20741 0.12201 0.24401 0.30502t-0.0732 0.39653q-0.10371 0.20741-0.34163 0.42093-0.23791 0.21351-0.57953 0.39042-0.34163 0.17691-0.77476 0.29892-0.42702 0.11591-0.91506 0.14031-0.1159 0.0427-0.19521-0.0122-0.0732-0.0549-0.10981-0.14641-0.0366-0.0915-0.0305-0.18911 0.0122-0.10371 0.0732-0.15251z" style="font-feature-settings:normal;font-variant-caps:normal;font-variant-ligatures:normal;font-variant-numeric:normal"/>
   <path d="m634.57431-347.33624q-0.14641-0.0366-0.18911-0.122-0.0488-0.0854-0.0305-0.17082 0.0183-0.0915 0.0793-0.15861 0.061-0.0671 0.12811-0.0732h1.14077l-0.0244-1.90333q0.0244-0.0732 0.10371-0.12201 0.0793-0.0488 0.17081-0.0549 0.0915-0.0122 0.18301 0.0244 0.0915 0.0305 0.14641 0.12201l0.0549 1.90333 1.07977-0.0244q0.10981 0.061 0.14641 0.15251 0.0427 0.0854 0.0366 0.17082-6e-3 0.0793-0.0488 0.14641-0.0366 0.061-0.0854 0.0732l-1.12857 0.0244q-6e-3 0.37823 6e-3 0.68325 0.0183 0.29892 0.0366 0.58564 0.0244 0.28062 0.0366 0.58564 0.0183 0.29892 0.0183 0.67104-0.17691 0.12201-0.35992 0.11591-0.18301-6e-3 -0.25012-0.15251l-0.0671-2.47677h-1.18348z" style="font-feature-settings:normal;font-variant-caps:normal;font-variant-ligatures:normal;font-variant-numeric:normal"/>
   <path d="m637.74042-345.75013q-0.0549-0.49413 0.0854-0.98217 0.14031-0.49413 0.43313-0.87845 0.29892-0.39043 0.71984-0.62225 0.42093-0.23791 0.92727-0.22571 0.20741-6e-3 0.47583 0.0915 0.26842 0.0976 0.49413 0.27452 0.22572 0.17081 0.35992 0.40263 0.14031 0.22571 0.0915 0.48193 6e-3 0.12811-0.12811 0.21352-0.13421 0.0793-0.35992 0.1281-0.21962 0.0488-0.51854 0.0732-0.29282 0.0183-0.62224 0.0305-0.32332 0.0122-0.65884 0.0244-0.33552 6e-3 -0.63444 0.0305-0.17082 0.46973-0.10371 0.77475 0.0732 0.29892 0.29892 0.45753 0.23181 0.15861 0.56734 0.18911 0.34162 0.0244 0.70764-0.0488 0.36603-0.0732 0.71985-0.23182 0.35383-0.16471 0.61004-0.39042 0.0366 0 0.0915 0.0244 0.061 0.0244 0.11591 0.0671 0.0549 0.0366 0.0915 0.0854 0.0427 0.0427 0.0427 0.0793-0.15251 0.26232-0.46363 0.46973-0.31112 0.20742-0.70154 0.33553-0.39043 0.1281-0.81746 0.15861-0.42093 0.0305-0.79305-0.061t-0.65274-0.32332q-0.28062-0.23181-0.37823-0.62834zm2.916-1.62881q-0.0305-0.23181-0.18302-0.34772-0.15251-0.11591-0.35992-0.14641-0.20741-0.0366-0.43923 6e-3 -0.23182 0.0427-0.43313 0.12811-0.19521 0.0854-0.32942 0.20131-0.12811 0.11591-0.13421 0.23182z" style="font-feature-settings:normal;font-variant-caps:normal;font-variant-ligatures:normal;font-variant-numeric:normal"/>
   <path d="m641.78499-348.37941q0.0122-0.1159 0.0976-0.14031 0.0854-0.0305 0.18301-0.0183 0.15861 0.0183 0.23792 0.16471 0.0793 0.14031 0.1098 0.31723 0.0305 0.17691 0.0305 0.34772 0 0.16471 6e-3 0.23791 0.17082-0.14641 0.37823-0.33552 0.21351-0.18911 0.51243-0.34162 0.30502-0.15861 0.72595-0.23792 0.42703-0.0854 1.02487-0.0122 0.14641 0.0366 0.21351 0.14031 0.0732 0.10371 0.0732 0.21962 6e-3 0.1098-0.061 0.20741-0.061 0.0915-0.17692 0.10371-0.14641-0.10981-0.39042-0.12811-0.24402-0.0183-0.53684 0.0427-0.28672 0.061-0.58564 0.19521t-0.55513 0.33553q-0.25012 0.20131-0.43313 0.46363-0.17691 0.26232-0.21962 0.57344v1.33599q-0.0122 0.0305-0.0976 0.0915-0.0854 0.0549-0.19522 0.0793-0.1037 0.0305-0.21351 0-0.10371-0.0305-0.15861-0.17081 0-0.0427 0-0.26842 0-0.23182 0-0.55514 6e-3 -0.32942 0.0122-0.71375 6e-3 -0.39042 6e-3 -0.76255 6e-3 -0.37212 6e-3 -0.68324 6e-3 -0.31112 6e-3 -0.48804z" style="font-feature-settings:normal;font-variant-caps:normal;font-variant-ligatures:normal;font-variant-numeric:normal"/>
   <path d="m647.9403-345.59152q-0.28062 0.21351-0.59174 0.38433-0.31112 0.17081-0.61614 0.28061-0.30502 0.10371-0.59784 0.14031-0.28672 0.0305-0.53074-0.0305-0.23791-0.061-0.42092-0.22571-0.18302-0.17082-0.26842-0.46974-0.0854-0.39652 0.0122-0.75035 0.0976-0.35382 0.32332-0.64664t0.54904-0.50633q0.32332-0.21962 0.68934-0.34162 0.36603-0.12201 0.75035-0.13421 0.39043-0.0122 0.74425 0.1037 0-0.13421 0-0.34772 6e-3 -0.21961 6e-3 -0.45143 6e-3 -0.23182 0.0122-0.44533 6e-3 -0.21351 0.0183-0.34772 0.0366-0.31112 0.14641-0.47583 0.10981-0.17082 0.38433-0.11591 0.0122 0.47583 6e-3 0.87236-6e-3 0.39042-0.0183 0.75035-0.0122 0.35382-0.0244 0.70154-0.0122 0.34163-0.0122 0.73205 0 0.38433 0.0122 0.83576 0.0183 0.45143 0.061 1.01266 0 0.17692-0.0671 0.25012-0.061 0.0732-0.21352 0.0732-0.14641 0-0.22571-0.0915-0.0732-0.0976-0.10371-0.22572-0.0244-0.1342-0.0244-0.28061t0-0.25012zm-2.49507-0.23792q0.0122 0.28062 0.15861 0.40263 0.15251 0.11591 0.42093 0.0671 0.12811 0 0.39043-0.0671 0.26842-0.0732 0.54903-0.18301 0.28672-0.11591 0.53684-0.25012 0.25012-0.14031 0.35382-0.28062v-1.01266q-0.15861-0.17082-0.40262-0.21352-0.24402-0.0488-0.51854 6e-3 -0.27452 0.0549-0.54903 0.20132-0.26842 0.1403-0.48194 0.34772-0.21351 0.20131-0.34162 0.45753-0.12811 0.25012-0.11591 0.52463z" style="font-feature-settings:normal;font-variant-caps:normal;font-variant-ligatures:normal;font-variant-numeric:normal"/>
   <path d="m652.02757-346.01245q-0.17691 0.27452-0.40872 0.50023-0.23182 0.21962-0.51244 0.37823-0.27452 0.15251-0.60394 0.22572-0.32332 0.0732-0.68324 0.0427-0.12811 0-0.27452-0.0305t-0.27452-0.0976q-0.12201-0.0671-0.20131-0.17691t-0.0793-0.27452q-0.0671-0.34162 0.0305-0.70765 0.10371-0.37212 0.31112-0.71985 0.21352-0.35382 0.51244-0.65884 0.30502-0.31112 0.64664-0.52463 0.34162-0.21962 0.69545-0.31723 0.35992-0.1037 0.68934-0.0427 0.25012 0 0.38433 0.16471 0.14031 0.16471 0.20741 0.44533 0.0732 0.27452 0.0854 0.64054 0.0183 0.35993 0.0183 0.75646 6e-3 0.39042 0.0183 0.78695 0.0122 0.39042 0.0671 0.72595-6e-3 0.0122-0.061 0.0732-0.0488 0.061-0.12811 0.0976-0.0793 0.0366-0.18301 0.0122-0.0976-0.0183-0.19521-0.17081-0.0366-0.061-0.0488-0.21352-6e-3 -0.15861-6e-3 -0.33552 6e-3 -0.17691 6e-3 -0.34162 6e-3 -0.16471-0.0122-0.23792zm-0.38432-1.85452q-0.23792-0.0183-0.49414 0.0732-0.25621 0.0915-0.50023 0.26232-0.23791 0.16471-0.45143 0.39043-0.21351 0.21961-0.37212 0.46363-0.15861 0.23791-0.25012 0.47583-0.0854 0.23791-0.0793 0.43923 0.0122 0.19521 0.12811 0.33552 0.12201 0.13421 0.37823 0.17691 0.35382 6e-3 0.67714-0.17691 0.32332-0.18911 0.58564-0.46973t0.43923-0.61004q0.18301-0.33552 0.24402-0.62834 0.0671-0.29282 0-0.49414-0.0671-0.20741-0.30502-0.23791z" style="font-feature-settings:normal;font-variant-caps:normal;font-variant-ligatures:normal;font-variant-numeric:normal"/>
   <path d="m652.85723-347.92188q-0.0183-0.0793 0.0122-0.15251 0.0366-0.0732 0.0976-0.1342t0.1403-0.10371q0.0793-0.0427 0.14641-0.0549l2.04364 2.9709 1.30549-3.0136q0.0122-0.0305 0.0854-0.0366 0.0732-0.0122 0.15251 0.0122 0.0854 0.0183 0.14641 0.0854 0.0671 0.0671 0.0549 0.18911l-2.33036 6.18581q-0.061 0.12811-0.17081 0.16471t-0.21351 0.0122q-0.10371-0.0244-0.17082-0.0976-0.0671-0.0671-0.0488-0.14641l0.94556-2.62928z" style="font-feature-settings:normal;font-variant-caps:normal;font-variant-ligatures:normal;font-variant-numeric:normal"/>
  </g>
 </g>
</svg>
