<?xml version="1.0" encoding="UTF-8"?>
<!-- Created with Inkscape (http://www.inkscape.org/) -->
<svg width="452.94138mm" height="218.28125mm" version="1.1" viewBox="0 0 452.94138 218.28125" xmlns="http://www.w3.org/2000/svg" xmlns:cc="http://creativecommons.org/ns#" xmlns:dc="http://purl.org/dc/elements/1.1/" xmlns:rdf="http://www.w3.org/1999/02/22-rdf-syntax-ns#" xmlns:xlink="http://www.w3.org/1999/xlink">
 <defs>
  <pattern id="pattern47715" patternTransform="matrix(.26458334 0 0 .26458334 1753.1625 856.08898)" xlink:href="#pattern4928-8"/>
  <pattern id="pattern47713" patternTransform="matrix(.26458334 0 0 .26458334 1744.9685 875.20828)" xlink:href="#pattern4928-8"/>
  <pattern id="pattern4928-8" width="779.99998" height="449.99995" patternTransform="matrix(.26458334 0 0 .26458334 1759.5356 749.56714)" patternUnits="userSpaceOnUse">
   <path d="m28.85518 0c-15.986267 0-28.85518 12.870992-28.85518 28.857486v89.875014c12.329575-23.690423 28.936818-53.351135 31.894299-52.36532 4.801511 1.600592 116.038301 56.81919 117.638931 52.0176 1.40409-4.21221 23.01203-93.828283 28.92963-118.38478zm225.37322 0-79.88673 192.80859-128.843718-75.22462-45.497952 71.16412v56.16397l59.103495 28.72271 26.407936-88.02728 32.011839 102.83388 128.04095-89.23038-60.01928 150.4492-8.00201-70.42193-92.031499 77.62503-64.82003-60.0195-20.691401 75.10159v49.1992c0 15.98638 12.868913 28.85537 28.85518 28.85537h61.166361l-27.716786-68.32807 188.062485 15.20508 67.2223-192.06448 139.2461 128.84379 197.66438-111.2383 105.33959 226.2559c11.71011-3.67299 20.16037-14.57681 20.16037-27.52929v-87.63681l-36.67011 20.9551 13.60555-31.21088-28.0097-73.62501 51.07426-33.16411v-102.16788l-43.87313 63.3086-60.82053-72.02351-136.04485 51.21679-43.21285-126.441406-90.42973 67.222713-45.20315-97.578177h-66.87307l-0.76157 147.1934 180.85946-56.818435 16.80453 110.437525 111.2383 5.6016-141.64649 76.82419-42.41574-124.8418-169.6543 9.60352 43.7246-168zm119.67194 0 50.12296 36.757794 48.31067-36.757794zm138.92749 0 80.05266 101.57816 105.63515-76.025379 28.80831 83.228479 52.67603-16.38867v-63.535104c0-15.986494-12.87118-28.857486-28.85745-28.857486zm267.17215 227.33986-27.06671 45.4961 27.06671 35.0273zm-421.59797 95.91213-53.19496 126.74796h435.2107l-106.72441-63.52728-166.4553 32.01169zm-211.26916 100.83397-30.80504 25.91399h101.58614z" fill="#606fcf" fill-opacity=".94117647"/>
  </pattern>
 </defs>
 <metadata>
  <rdf:RDF>
   <cc:Work rdf:about="">
    <dc:format>image/svg+xml</dc:format>
    <dc:type rdf:resource="http://purl.org/dc/dcmitype/StillImage"/>
    <dc:title/>
   </cc:Work>
  </rdf:RDF>
 </metadata>
 <g fill="#f9eab0">
  <polygon transform="matrix(3.4969519,0,0,3.4969519,454.53799,116.97428)" points=""/>
  <polygon transform="matrix(9.1061708,0,0,9.0930789,1282.4585,1088.9576)" points=""/>
  <polygon transform="matrix(3.4969519,0,0,3.4969519,828.57006,-535.68054)" points=""/>
  <polygon transform="matrix(3.4969519,0,0,3.4969519,-1847.954,290.9635)" points=""/>
 </g>
 <g transform="translate(-664.84965,-16.9212)" letter-spacing="0px" word-spacing="0px">
  <text x="-1222.3983" y="-173.37076" font-family="sans-serif" font-size="10.58333302px" stroke-width=".26458332" style="line-height:1.25" xml:space="preserve"><tspan x="-1222.3983" y="-164.00699" stroke-width=".26458332"/></text>
  <text x="-2245.1282" y="-126.3082" font-family="'SC Gum Kids'" font-size="266.9718323px" stroke-width=".80091542" style="font-feature-settings:normal;font-variant-caps:normal;font-variant-ligatures:normal;font-variant-numeric:normal;line-height:1.25" xml:space="preserve"><tspan x="-2245.1282" y="114.67583" font-family="'SC Gum Kids'" font-size="266.9718323px" stroke-width=".80091542" style="font-feature-settings:normal;font-variant-caps:normal;font-variant-ligatures:normal;font-variant-numeric:normal"/></text>
  <text x="912.07428" y="386.35889" font-family="sans-serif" font-size="10.58333302px" stroke-width=".26458332" style="line-height:1.25" xml:space="preserve"><tspan x="912.07428" y="395.72266" stroke-width=".26458332"/></text>
 </g>
 <polygon transform="matrix(3.4969519,0,0,3.4969519,-1844.8227,325.5531)" points="" fill="#f9eab0"/>
 <g fill="#000000" letter-spacing="0px" word-spacing="0px">
  <text x="-1884.1167" y="-155.70239" font-family="sans-serif" font-size="10.58333302px" stroke-width=".26458332" style="line-height:1.25" xml:space="preserve"><tspan x="-1884.1167" y="-146.33862" stroke-width=".26458332"/></text>
  <text x="-2906.8464" y="-108.63977" font-family="'SC Gum Kids'" font-size="266.9718323px" stroke-width=".80091542" style="font-feature-settings:normal;font-variant-caps:normal;font-variant-ligatures:normal;font-variant-numeric:normal;line-height:1.25" xml:space="preserve"><tspan x="-2906.8464" y="132.34424" font-family="'SC Gum Kids'" font-size="266.9718323px" stroke-width=".80091542" style="font-feature-settings:normal;font-variant-caps:normal;font-variant-ligatures:normal;font-variant-numeric:normal"/></text>
  <text x="250.35588" y="404.02722" font-family="sans-serif" font-size="10.58333302px" stroke-width=".26458332" style="line-height:1.25" xml:space="preserve"><tspan x="250.35588" y="413.39099" stroke-width=".26458332"/></text>
 </g>
 <polygon transform="matrix(3.4969519,0,0,3.4969519,-1995.5073,296.8216)" points="" fill="#f9eab0"/>
 <g fill="#000000" letter-spacing="0px" word-spacing="0px">
  <text x="-2034.8013" y="-184.43384" font-family="sans-serif" font-size="10.58333302px" stroke-width=".26458332" style="line-height:1.25" xml:space="preserve"><tspan x="-2034.8013" y="-175.07007" stroke-width=".26458332"/></text>
  <text x="-3057.531" y="-137.37134" font-family="'SC Gum Kids'" font-size="266.9718323px" stroke-width=".80091542" style="font-feature-settings:normal;font-variant-caps:normal;font-variant-ligatures:normal;font-variant-numeric:normal;line-height:1.25" xml:space="preserve"><tspan x="-3057.531" y="103.61267" font-family="'SC Gum Kids'" font-size="266.9718323px" stroke-width=".80091542" style="font-feature-settings:normal;font-variant-caps:normal;font-variant-ligatures:normal;font-variant-numeric:normal"/></text>
  <text x="99.671333" y="375.29578" font-family="sans-serif" font-size="10.58333302px" stroke-width=".26458332" style="line-height:1.25" xml:space="preserve"><tspan x="99.671333" y="384.65955" stroke-width=".26458332"/></text>
 </g>
 <polygon transform="matrix(3.4969519,0,0,3.4969519,-1995.2633,351.059)" points="" fill="#f9eab0"/>
 <g transform="translate(-11.898241,-382.70925)" letter-spacing="0px" word-spacing="0px">
  <text x="-2022.6592" y="252.51283" font-family="sans-serif" font-size="10.58333302px" stroke-width=".26458332" style="line-height:1.25" xml:space="preserve"><tspan x="-2022.6592" y="261.87659" stroke-width=".26458332"/></text>
  <text x="-3045.3889" y="299.57538" font-family="'SC Gum Kids'" font-size="266.9718323px" stroke-width=".80091542" style="font-feature-settings:normal;font-variant-caps:normal;font-variant-ligatures:normal;font-variant-numeric:normal;line-height:1.25" xml:space="preserve"><tspan x="-3045.3889" y="540.55945" font-family="'SC Gum Kids'" font-size="266.9718323px" stroke-width=".80091542" style="font-feature-settings:normal;font-variant-caps:normal;font-variant-ligatures:normal;font-variant-numeric:normal"/></text>
  <text x="111.81351" y="812.24249" font-family="sans-serif" font-size="10.58333302px" stroke-width=".26458332" style="line-height:1.25" xml:space="preserve"><tspan x="111.81351" y="821.60626" stroke-width=".26458332"/></text>
 </g>
 <polygon transform="matrix(3.4969519,0,0,3.4969519,-2146.4126,299.0589)" points="" fill="#f9eab0"/>
 <g fill="#000000" letter-spacing="0px" word-spacing="0px">
  <text x="-2185.7068" y="-182.19659" font-family="sans-serif" font-size="10.58333302px" stroke-width=".26458332" style="line-height:1.25" xml:space="preserve"><tspan x="-2185.7068" y="-172.83282" stroke-width=".26458332"/></text>
  <text x="-3208.4365" y="-135.13403" font-family="'SC Gum Kids'" font-size="266.9718323px" stroke-width=".80091542" style="font-feature-settings:normal;font-variant-caps:normal;font-variant-ligatures:normal;font-variant-numeric:normal;line-height:1.25" xml:space="preserve"><tspan x="-3208.4365" y="105.84998" font-family="'SC Gum Kids'" font-size="266.9718323px" stroke-width=".80091542" style="font-feature-settings:normal;font-variant-caps:normal;font-variant-ligatures:normal;font-variant-numeric:normal"/></text>
  <text x="-51.233967" y="377.53308" font-family="sans-serif" font-size="10.58333302px" stroke-width=".26458332" style="line-height:1.25" xml:space="preserve"><tspan x="-51.233967" y="386.89685" stroke-width=".26458332"/></text>
 </g>
 <polygon transform="matrix(3.4969519,0,0,3.4969519,-2141.5477,362.3612)" points="" fill="#f9eab0"/>
 <g fill="#000000" letter-spacing="0px" word-spacing="0px">
  <text x="-2180.8418" y="-118.89429" font-family="sans-serif" font-size="10.58333302px" stroke-width=".26458332" style="line-height:1.25" xml:space="preserve"><tspan x="-2180.8418" y="-109.53052" stroke-width=".26458332"/></text>
  <text x="-3203.5715" y="-71.831665" font-family="'SC Gum Kids'" font-size="266.9718323px" stroke-width=".80091542" style="font-feature-settings:normal;font-variant-caps:normal;font-variant-ligatures:normal;font-variant-numeric:normal;line-height:1.25" xml:space="preserve"><tspan x="-3203.5715" y="169.15234" font-family="'SC Gum Kids'" font-size="266.9718323px" stroke-width=".80091542" style="font-feature-settings:normal;font-variant-caps:normal;font-variant-ligatures:normal;font-variant-numeric:normal"/></text>
  <text x="-46.369076" y="440.83533" font-family="sans-serif" font-size="10.58333302px" stroke-width=".26458332" style="line-height:1.25" xml:space="preserve"><tspan x="-46.369076" y="450.1991" stroke-width=".26458332"/></text>
 </g>
 <polygon transform="matrix(3.4969519,0,0,3.4969519,-1847.954,1297.6458)" points="" fill="#f9eab0"/>
 <g fill="#000000" letter-spacing="0px" word-spacing="0px">
  <text x="-1887.2479" y="816.39038" font-family="sans-serif" font-size="10.58333302px" stroke-width=".26458332" style="line-height:1.25" xml:space="preserve"><tspan x="-1887.2479" y="825.75415" stroke-width=".26458332"/></text>
  <text x="-2909.9778" y="863.45288" font-family="'SC Gum Kids'" font-size="266.9718323px" stroke-width=".80091542" style="font-feature-settings:normal;font-variant-caps:normal;font-variant-ligatures:normal;font-variant-numeric:normal;line-height:1.25" xml:space="preserve"><tspan x="-2909.9778" y="1104.437" font-family="'SC Gum Kids'" font-size="266.9718323px" stroke-width=".80091542" style="font-feature-settings:normal;font-variant-caps:normal;font-variant-ligatures:normal;font-variant-numeric:normal"/></text>
  <text x="247.22462" y="1376.1199" font-family="sans-serif" font-size="10.58333302px" stroke-width=".26458332" style="line-height:1.25" xml:space="preserve"><tspan x="247.22462" y="1385.4836" stroke-width=".26458332"/></text>
 </g>
 <polygon transform="matrix(3.4969519,0,0,3.4969519,-1844.8227,1332.2354)" points="" fill="#f9eab0"/>
 <g fill="#000000" letter-spacing="0px" word-spacing="0px">
  <text x="-1884.1167" y="850.97998" font-family="sans-serif" font-size="10.58333302px" stroke-width=".26458332" style="line-height:1.25" xml:space="preserve"><tspan x="-1884.1167" y="860.34375" stroke-width=".26458332"/></text>
  <text x="-2906.8464" y="898.04248" font-family="'SC Gum Kids'" font-size="266.9718323px" stroke-width=".80091542" style="font-feature-settings:normal;font-variant-caps:normal;font-variant-ligatures:normal;font-variant-numeric:normal;line-height:1.25" xml:space="preserve"><tspan x="-2906.8464" y="1139.0266" font-family="'SC Gum Kids'" font-size="266.9718323px" stroke-width=".80091542" style="font-feature-settings:normal;font-variant-caps:normal;font-variant-ligatures:normal;font-variant-numeric:normal"/></text>
  <text x="250.35588" y="1410.7095" font-family="sans-serif" font-size="10.58333302px" stroke-width=".26458332" style="line-height:1.25" xml:space="preserve"><tspan x="250.35588" y="1420.0732" stroke-width=".26458332"/></text>
 </g>
 <polygon transform="matrix(3.4969519,0,0,3.4969519,-1995.5073,1303.5039)" points="" fill="#f9eab0"/>
 <g fill="#000000" letter-spacing="0px" word-spacing="0px">
  <text x="-2034.8013" y="822.24841" font-family="sans-serif" font-size="10.58333302px" stroke-width=".26458332" style="line-height:1.25" xml:space="preserve"><tspan x="-2034.8013" y="831.61218" stroke-width=".26458332"/></text>
  <text x="-3057.531" y="869.31104" font-family="'SC Gum Kids'" font-size="266.9718323px" stroke-width=".80091542" style="font-feature-settings:normal;font-variant-caps:normal;font-variant-ligatures:normal;font-variant-numeric:normal;line-height:1.25" xml:space="preserve"><tspan x="-3057.531" y="1110.2949" font-family="'SC Gum Kids'" font-size="266.9718323px" stroke-width=".80091542" style="font-feature-settings:normal;font-variant-caps:normal;font-variant-ligatures:normal;font-variant-numeric:normal"/></text>
  <text x="99.671333" y="1381.978" font-family="sans-serif" font-size="10.58333302px" stroke-width=".26458332" style="line-height:1.25" xml:space="preserve"><tspan x="99.671333" y="1391.3418" stroke-width=".26458332"/></text>
 </g>
 <polygon transform="matrix(3.4969519,0,0,3.4969519,-1995.2633,1357.7414)" points="" fill="#f9eab0"/>
 <g transform="translate(-11.898241,623.9731)" letter-spacing="0px" word-spacing="0px">
  <text x="-2022.6592" y="252.51283" font-family="sans-serif" font-size="10.58333302px" stroke-width=".26458332" style="line-height:1.25" xml:space="preserve"><tspan x="-2022.6592" y="261.87659" stroke-width=".26458332"/></text>
  <text x="-3045.3889" y="299.57538" font-family="'SC Gum Kids'" font-size="266.9718323px" stroke-width=".80091542" style="font-feature-settings:normal;font-variant-caps:normal;font-variant-ligatures:normal;font-variant-numeric:normal;line-height:1.25" xml:space="preserve"><tspan x="-3045.3889" y="540.55945" font-family="'SC Gum Kids'" font-size="266.9718323px" stroke-width=".80091542" style="font-feature-settings:normal;font-variant-caps:normal;font-variant-ligatures:normal;font-variant-numeric:normal"/></text>
  <text x="111.81351" y="812.24249" font-family="sans-serif" font-size="10.58333302px" stroke-width=".26458332" style="line-height:1.25" xml:space="preserve"><tspan x="111.81351" y="821.60626" stroke-width=".26458332"/></text>
 </g>
 <polygon transform="matrix(3.4969519,0,0,3.4969519,-2146.4126,1305.7412)" points="" fill="#f9eab0"/>
 <g fill="#000000" letter-spacing="0px" word-spacing="0px">
  <text x="-2185.7068" y="824.48572" font-family="sans-serif" font-size="10.58333302px" stroke-width=".26458332" style="line-height:1.25" xml:space="preserve"><tspan x="-2185.7068" y="833.84949" stroke-width=".26458332"/></text>
  <text x="-3208.4365" y="871.54834" font-family="'SC Gum Kids'" font-size="266.9718323px" stroke-width=".80091542" style="font-feature-settings:normal;font-variant-caps:normal;font-variant-ligatures:normal;font-variant-numeric:normal;line-height:1.25" xml:space="preserve"><tspan x="-3208.4365" y="1112.5322" font-family="'SC Gum Kids'" font-size="266.9718323px" stroke-width=".80091542" style="font-feature-settings:normal;font-variant-caps:normal;font-variant-ligatures:normal;font-variant-numeric:normal"/></text>
  <text x="-51.233967" y="1384.2153" font-family="sans-serif" font-size="10.58333302px" stroke-width=".26458332" style="line-height:1.25" xml:space="preserve"><tspan x="-51.233967" y="1393.5791" stroke-width=".26458332"/></text>
 </g>
 <polygon transform="matrix(3.4969519,0,0,3.4969519,-2141.5477,1369.0435)" points="" fill="#f9eab0"/>
 <g transform="translate(633.26801,637.1307)" letter-spacing="0px" word-spacing="0px">
  <text x="-2814.1099" y="250.65732" font-family="sans-serif" font-size="10.58333302px" stroke-width=".26458332" style="line-height:1.25" xml:space="preserve"><tspan x="-2814.1099" y="260.02109" stroke-width=".26458332"/></text>
  <text x="-3836.8396" y="297.71988" font-family="'SC Gum Kids'" font-size="266.9718323px" stroke-width=".80091542" style="font-feature-settings:normal;font-variant-caps:normal;font-variant-ligatures:normal;font-variant-numeric:normal;line-height:1.25" xml:space="preserve"><tspan x="-3836.8396" y="538.70392" font-family="'SC Gum Kids'" font-size="266.9718323px" stroke-width=".80091542" style="font-feature-settings:normal;font-variant-caps:normal;font-variant-ligatures:normal;font-variant-numeric:normal"/></text>
  <text x="-679.63708" y="810.38696" font-family="sans-serif" font-size="10.58333302px" stroke-width=".26458332" style="line-height:1.25" xml:space="preserve"><tspan x="-679.63708" y="819.75073" stroke-width=".26458332"/></text>
 </g>
 <polygon transform="matrix(3.4969519,0,0,3.4969519,628.29878,500.44081)" points="" fill="#f9eab0"/>
 <rect x="5.1217259e-5" y="4.280472e-9" width="452.94128" height="218.28125" opacity="0" stroke-width=".4087455"/>
 <path d="m111.13504 68.89296-89.448762-23.96772 6.25914 42.76465-26.80291 33.90571 89.44876 23.96772z" fill="#fff" stroke="#303f9f" stroke-linecap="round" stroke-width="1.32291675"/>
 <path d="m341.80635 68.89296 89.44876-23.96772-6.25914 42.76465 26.80291 33.90571-89.44876 23.96772z" fill="#fff" stroke="#303f9f" stroke-linecap="round" stroke-width="1.32291675"/>
 <g stroke="#303f9f" stroke-linecap="round" stroke-width="1.32291675">
  <path d="m391.83528 78.89429-50.02892-10.00133 20.54376 76.67037 29.48516 12.70596z" fill="#303f9f"/>
  <path d="m391.83528 78.89429-50.02892-10.00133 20.54376 76.67038 29.48516 12.70596z" fill="url(#pattern47713)"/>
  <path d="m61.106108 78.89429 50.028922-10.00133-20.543762 76.67037-29.48516 12.70596z" fill="#303f9f"/>
  <path d="m61.106121 78.89429 50.028919-10.00133-20.543759 76.67037-29.48516 12.70596z" fill="url(#pattern47715)"/>
 </g>
 <path d="m61.106108 78.89429s94.177372 18.67002 165.364592 18.67002 165.36458-18.67002 165.36458-18.67002v79.375s-92.48624 18.67002-165.36458 18.67002-165.364592-18.67002-165.364592-18.67002z" fill="#fff" stroke="#303f9f" stroke-linecap="round" stroke-width="1.32291675"/>
 <g fill="#fff" stroke-width=".26458335" aria-label="Ejercicio">
  <path d="m186.40072 191.70512h2.13596q2.41157 0 2.82498 0.89572 0.20671 0.25839 0.20671 0.62012h0.0689q0 0.89573-2.34267 0.89573-3.03168 0.17225-3.03168 0.48231-0.75792 3.03168-0.75792 7.1658 0 1.10243 0.89572 1.10243h0.62012l2.61827-0.0689q1.01631 0 1.72255 0.96462v0.20671q0 0.60289-4.75423 1.44694-1.10243 0.46509-1.10243 0.75792v2.75608l0.0689 0.75792-0.1378 0.41341q0.24115 0 0.41341 3.44509 0.25838 1.24024 1.24023 1.24024l4.27192 0.34451q0.46509 0.29283 0.96463 0.89572-0.7407 1.03353-2.75608 1.03353l-0.0689 0.0689q-5.09874-0.1378-5.09874-0.82682-0.34451-0.1378-0.55122-0.89572l0.0689-2.82498v-0.34451l-0.2067-9.64627v-3.03168q0-6.66626 1.65364-7.57921 0.39619-0.27561 1.03353-0.27561z" style="font-feature-settings:normal;font-variant-caps:normal;font-variant-ligatures:normal;font-variant-numeric:normal"/>
  <path d="m202.43764 189.70696q1.03353 0 1.03353 1.17134l0.0689 0.82682q-0.43063 0-0.49954 10.30083-0.0517 10.30084-1.49861 12.3679-1.22301 2.75607-2.96278 2.75607h-0.27561q-2.72163 0-4.47863-1.99815l-0.55121-2.20486v-0.27561q0.55121-1.72255 1.24023-1.72255h0.20671q0.39618 0 0.75792 2.34267 0.49954 1.17133 2.48047 1.17133h0.68902q0.18948-0.0344 0.75792-1.17133 0.53399-0.25839 0.96463-1.79145 0.1378 0 0.1378-0.20671 0.34451-3.03168 0.44786-12.05783t0.86128-9.02615q0.34451-0.48232 0.62011-0.48232z" style="font-feature-settings:normal;font-variant-caps:normal;font-variant-ligatures:normal;font-variant-numeric:normal"/>
  <path d="m209.12113 190.75772q1.51584 0 3.5829 1.65364 0.34451 0.62012 0.34451 1.24024 0 3.08336-1.99816 4.27192-2.29099 0.68901-3.7896 0.68901-0.34451 0.36174-0.34451 1.10244v1.17133q0 3.73793 0.96462 8.40603 0 2.51492 1.92926 4.89204 0.60289 0.48231 0.89572 0.48231h0.48231q0.68902-0.25838 1.72255-0.89572l0.41341-0.0689q0.49954 0 0.75792 0.82683 0 1.55029-2.41156 3.10058l-1.10243 0.20671q-0.98185 0-3.4451-2.68718-1.30913-2.04983-1.30913-4.96093-0.89573-4.37528-1.03353-11.16211 0-2.75608 1.92925-6.89019 1.6192-1.37804 2.41157-1.37804zm-1.58475 5.51215 0.34451 0.20671q2.17041 0 2.89388-1.17134 0.20671-0.36173 0.20671-0.68902v-0.2756q0-1.03353-1.30914-1.03353-1.8259 0-2.13596 2.89388z" style="font-feature-settings:normal;font-variant-caps:normal;font-variant-ligatures:normal;font-variant-numeric:normal"/>
  <path d="m222.36752 195.18466q1.65365 0.56845 2.27376 1.79145l0.0689 0.34451q-0.24115 1.30914-1.10243 1.30914-0.51676 0-1.79145-1.17133h-0.55121q-1.56752 0-3.04891 1.60197t-0.43064 9.74962q1.06798 8.14765-0.15503 7.51031l-1.24023 0.0344q-0.67179-0.32729-0.82682-8.21656-0.13781-7.90649-0.46509-12.23009 0-1.10243 1.44694-1.10243 0.89572 0 0.89572 0.82683l-0.0689 1.03353q0.1378 0.31005 0.27561 0.34451h0.27561q1.58474-1.82591 4.44417-1.82591z" style="font-feature-settings:normal;font-variant-caps:normal;font-variant-ligatures:normal;font-variant-numeric:normal"/>
  <path d="m233.2368 190.9472q3.16948 0 3.16948 1.58474v0.0689q0 0.68902-1.10243 0.96463l-2.68717-0.1378q-1.27469 0-1.99816 1.72254-0.72347 0.43064-1.86035 4.20302-0.68902 2.5666-0.68902 4.75423v0.55122q0 1.99815 1.10243 6.20117 0 1.61919 2.48047 3.5829 0.63735 0.34451 1.03353 0.34451h0.55122q0.36173 0 1.37803-0.62012l0.34451-0.0689q0.89573 0.34451 0.89573 1.30914v0.0689q-0.72347 1.92925-3.514 1.92925-0.96462 0-3.44509-2.06706-0.89573-0.96462-1.10243-1.86035-1.92926-5.80498-1.92926-8.81944 0-4.30637 1.79145-9.30176 1.25746-2.46324 2.48047-3.514 1.37804-0.89572 3.10059-0.89572z" style="font-feature-settings:normal;font-variant-caps:normal;font-variant-ligatures:normal;font-variant-numeric:normal"/>
  <path d="m239.21404 190.2065q0.75792 0 1.17133 1.37804-0.34451 1.24023-1.37804 1.24023h-0.2067q-0.75792 0-0.96463-1.17133 0-0.89572 1.30914-1.44694zm0.24116 5.09874q0.75792 0 0.75792 3.16949l0.0689 3.37619q-0.17226 14.64166-0.48232 14.64166-0.75792 0.82682-1.37803 0.82682-0.75792 0-1.03353-1.92925l0.0689-0.0689v-0.0689l0.68902-6.27008 0.1378-6.75238-0.2067-5.1332q0.24115-1.79145 1.37804-1.79145z" style="font-feature-settings:normal;font-variant-caps:normal;font-variant-ligatures:normal;font-variant-numeric:normal"/>
  <path d="m249.29094 190.9472q3.16949 0 3.16949 1.58474v0.0689q0 0.68902-1.10243 0.96463l-2.68717-0.1378q-1.27469 0-1.99816 1.72254-0.72347 0.43064-1.86035 4.20302-0.68902 2.5666-0.68902 4.75423v0.55122q0 1.99815 1.10243 6.20117 0 1.61919 2.48047 3.5829 0.63734 0.34451 1.03353 0.34451h0.55121q0.36174 0 1.37804-0.62012l0.34451-0.0689q0.89573 0.34451 0.89573 1.30914v0.0689q-0.72347 1.92925-3.514 1.92925-0.96463 0-3.4451-2.06706-0.89572-0.96462-1.10243-1.86035-1.92925-5.80498-1.92925-8.81944 0-4.30637 1.79145-9.30176 1.25746-2.46324 2.48047-3.514 1.37803-0.89572 3.10058-0.89572z" style="font-feature-settings:normal;font-variant-caps:normal;font-variant-ligatures:normal;font-variant-numeric:normal"/>
  <path d="m255.26818 190.2065q0.75793 0 1.17134 1.37804-0.34451 1.24023-1.37804 1.24023h-0.20671q-0.75792 0-0.96462-1.17133 0-0.89572 1.30913-1.44694zm0.24116 5.09874q0.75792 0 0.75792 3.16949l0.0689 3.37619q-0.17225 14.64166-0.48231 14.64166-0.75792 0.82682-1.37804 0.82682-0.75792 0-1.03353-1.92925l0.0689-0.0689v-0.0689l0.68901-6.27008 0.13781-6.75238-0.20671-5.1332q0.24116-1.79145 1.37804-1.79145z" style="font-feature-settings:normal;font-variant-caps:normal;font-variant-ligatures:normal;font-variant-numeric:normal"/>
  <path d="m264.58716 194.70235q2.89388 0.56844 2.89388 1.92925 3.01446 4.49585 0.82683 14.81392-1.37804 3.60012-2.48047 4.61642-1.53307 1.92926-3.03169 1.92926-2.32544 0-3.5829-3.03169l-1.17133-5.78776v-1.03353q0-3.47954 1.17133-8.47493 0.18948-0.27561 0.34451-1.24024 1.6192-3.58289 3.10059-3.58289zm-1.30913 2.54937h-0.13781q-0.80959 0-1.10243 1.30914-1.44694 2.65272-1.44694 5.51215-0.2067 0.51677-0.2067 1.79145v2.34267q0 3.04891 1.10243 6.27007 0.51676 1.03353 1.03353 1.03353 0.82682 0 2.34266-1.99816 0.44786 0 1.44694-2.13596 0.41341-1.49861 0.82682-5.71885 0-4.15134-1.10243-6.68349-0.55121-1.49862-0.89572-1.79145z" style="font-feature-settings:normal;font-variant-caps:normal;font-variant-ligatures:normal;font-variant-numeric:normal"/>
 </g>
 <path d="m291.52802 212.11847c-1.29147 1.29147-5.11475-2.63191-6.91868-2.34619-1.80393 0.28571-4.22769 5.19852-5.85504 4.36934-1.62734-0.82917 0.92255-5.67771 0.0934-7.30506-0.82918-1.62735-6.25052-2.41434-5.96481-4.21827 0.28572-1.80393 5.68491-0.87711 6.97638-2.16858s0.36466-6.69067 2.16859-6.97639c1.80393-0.28571 2.59092 5.13563 4.21827 5.96481 1.62735 0.82917 6.47589-1.72072 7.30506-0.0934 0.82918 1.62734-4.08363 4.0511-4.36934 5.85503-0.28572 1.80393 3.63766 5.62721 2.34619 6.91868z" fill="#303f9f"/>
 <path d="m161.41336 212.11847c1.29147 1.29147 5.11475-2.63191 6.91868-2.34619 1.80393 0.28571 4.22769 5.19852 5.85503 4.36934 1.62735-0.82917-0.92254-5.67771-0.0934-7.30506 0.82918-1.62735 6.25052-2.41434 5.96481-4.21827-0.28572-1.80393-5.68492-0.87711-6.97639-2.16858s-0.36465-6.69067-2.16858-6.97639c-1.80393-0.28571-2.59092 5.13563-4.21827 5.96481-1.62735 0.82917-6.47589-1.72072-7.30507-0.0934-0.82917 1.62734 4.08364 4.0511 4.36935 5.85503 0.28572 1.80393-3.63766 5.62721-2.34619 6.91868z" fill="#303f9f"/>
 <g fill="#303f9f" stroke-width=".26458332">
  <g transform="rotate(-2.9200205,-48.069752,-494.34712)" style="font-feature-settings:normal;font-variant-caps:normal;font-variant-ligatures:normal;font-variant-numeric:normal" aria-label="o perpendiculares">
   <path d="m70.557265 154.03956q-0.936635-0.23484-1.351704-0.61709-0.40284-0.36261-0.295244-0.82481 0.111305-0.47814 0.612127-0.68079 0.559766-0.23933 1.388545-0.0464 0.876593 0.20406 1.316117 0.62561 0.443234 0.40561 0.335638 0.86781-0.103885 0.44627-0.688107 0.6463-0.571994 0.21969-1.317372 0.0294zm2.10342-9.54099q-4.000452-0.93126-6.683484 1.28366-2.244448 1.84656-3.05327 5.32106-0.897867 3.85701 0.47646 6.10913 1.521063 2.48791 6.128258 3.62762 3.272109 0.81212 6.046641-1.14628 2.695939-1.90948 3.493631-5.33616 0.805112-3.45856-0.838229-6.14295-1.728936-2.82192-5.570007-3.71608z" style="font-feature-settings:normal;font-variant-caps:normal;font-variant-ligatures:normal;font-variant-numeric:normal"/>
   <path d="m96.91181 159.3316q-1.095785-0.19365-1.579148-0.56158-0.408487-0.32146-0.302213-0.73474 0.09773-0.36494 0.547132-0.65111 0.462668-0.2672 1.01723-0.30214 0.872128-0.0453 1.546017 0.37294 0.599013 0.37174 0.723064 0.8922 0.137318 0.53942-0.328198 0.82274-0.541366 0.33639-1.623884 0.16169zm2.015749-9.14913q-2.529974-0.44712-4.753226 0.75527l0.309449-1.65694-5.830666-0.76457-3.75069 21.22278 5.543383 0.97968 1.382064-7.35008q1.724868 1.61764 4.633046 2.18145 4.124331 0.8286 6.785741-1.16049 2.37127-1.75785 2.7522-4.94762 0.39135-3.15469-1.37783-5.74399-1.95491-2.85478-5.693471-3.51549z" style="font-feature-settings:normal;font-variant-caps:normal;font-variant-ligatures:normal;font-variant-numeric:normal"/>
   <path d="m115.67632 156.22032q1.46283-0.0494 2.0056 0.75826 0.269 0.42002 0.24182 0.82953l-4.4332-0.22231q-0.0195-0.31714 0.22958-0.66092 0.50957-0.65279 1.9562-0.70456zm-1.66677 6.71825q-0.77278-0.59339-0.95888-1.46434-0.10234-0.42857-0.0385-0.74998l11.05398 0.30339q-0.0507-2.24042-1.23765-4.51571-2.4038-4.57154-8.18125-4.87588-3.29943-0.17125-5.53432 1.86516-2.02107 1.81977-2.62848 4.82345-0.6093 2.90415 0.36091 5.52799 1.04114 2.81622 3.47764 4.01832 4.2216 2.10986 8.62735 0.60792 2.21097-0.74978 3.5558-1.90819l-2.94716-4.13875q-0.85622 0.53563-1.98003 0.86647-2.23382 0.68025-3.56941-0.35985z" style="font-feature-settings:normal;font-variant-caps:normal;font-variant-ligatures:normal;font-variant-numeric:normal"/>
   <path d="m130.60219 153.5846-5.21256-0.51748-1.66971 16.71145 5.32634 0.7955 0.64466-6.89525q1.14541-3.36983 4.39889-3.80552 1.62775-0.22597 3.02236 0.22812l0.72229-5.66527q-4.57722-0.45482-7.42223 1.20261z" style="font-feature-settings:normal;font-variant-caps:normal;font-variant-ligatures:normal;font-variant-numeric:normal"/>
   <path d="m147.08943 166.21287q-1.10698-0.11332-1.61586-0.44506-0.43082-0.29084-0.35493-0.71077 0.0709-0.37109 0.49825-0.68923 0.44197-0.3002 0.99251-0.37544 0.86652-0.10869 1.56908 0.25933 0.6245 0.32712 0.78613 0.83716 0.17625 0.52798-0.26739 0.84446-0.51542 0.37493-1.60779 0.27955zm1.34393-9.27166q-2.55582-0.26164-4.68558 1.09951l0.18793-1.67508-5.87087-0.33781-2.19477 21.43961 5.60002 0.57328 0.84298-7.43123q1.83812 1.4877 4.77964 1.83817 4.17374 0.52596 6.68318-1.65171 2.23692-1.92592 2.38448-5.13496 0.16051-3.17482-1.79258-5.62837-2.15767-2.70478-5.93443-3.09141z" style="font-feature-settings:normal;font-variant-caps:normal;font-variant-ligatures:normal;font-variant-numeric:normal"/>
   <path d="m165.62549 161.79329q1.45599-0.14967 2.05291 0.61882 0.2972 0.40056 0.29819 0.81097l-4.43801 0.0825q-0.0412-0.31505 0.18368-0.67511 0.46356-0.68623 1.90323-0.83717zm-1.20172 6.81681q-0.81169-0.53895-1.05714-1.39507-0.13151-0.42054-0.0899-0.74558l11.04874-0.45602q-0.2044-2.23166-1.54467-4.42012-2.71191-4.39577-8.49662-4.30284-3.3034 0.0556-5.39325 2.24061-1.89141 1.95419-2.29122 4.99248-0.40853 2.93913 0.73948 5.49018 1.23198 2.73812 3.74523 3.77015 4.35647 1.81513 8.64873 0.0143 2.15429-0.89976 3.41645-2.14776l-3.22428-3.92669q-0.81744 0.59312-1.91589 1.00032-2.18186 0.83196-3.58568-0.11401z" style="font-feature-settings:normal;font-variant-caps:normal;font-variant-ligatures:normal;font-variant-numeric:normal"/>
   <path d="m185.58352 158.29872q-3.02243-0.47538-5.20656 0.81549l0.093-1.10935-5.12283-0.42547-1.36343 17.57619 6.1439 0.33338 0.41686-6.17215q0.0766-5.33842 2.77896-5.3065 1.99793 0.0265 2.00694 5.59897 0.0206 2.63963-0.53948 5.41164l6.38103 0.49374q0.69907-4.12469 0.34617-8.19174-0.29071-3.70314-1.51356-5.93275-1.53674-2.78745-4.42097-3.09145z" style="font-feature-settings:normal;font-variant-caps:normal;font-variant-ligatures:normal;font-variant-numeric:normal"/>
   <path d="m201.58493 169.79856q-0.77416 0.15687-1.38689-0.1562-0.51557-0.27741-0.64905-0.73982-0.0998-0.49414 0.31945-0.82537 0.50199-0.36148 1.53345-0.36329 0.47435 0.0142 0.89227 0.27234 0.41743 0.27447 0.53749 0.63824 0.13593 0.38063-0.15195 0.69942-0.30522 0.35102-1.09477 0.47468zm-6.25635-7.01461q-1.70667 1.22579-2.5793 3.57349-0.5257 2.24351 0.17487 4.54017 1.04014 2.43782 2.81454 3.86626 2.01484 1.59936 4.78651 1.43693 2.22992-0.1132 3.41776-0.96163 1.18783-0.84844 1.53165-1.39476l-0.0766 2.55167 6.02587 0.50819 0.50878-21.87352-6.61422-0.54221-0.24875 8.29292q-1.26766-0.8566-3.12106-1.28874-3.70728-0.84793-6.6201 1.29123z" style="font-feature-settings:normal;font-variant-caps:normal;font-variant-ligatures:normal;font-variant-numeric:normal"/>
   <path d="m215.63447 159.33471q1.63692-0.0281 2.51634-0.96597 0.81292-0.85693 0.76324-2.08498-0.0499-1.2117-0.88962-2.08986-0.90413-0.96082-2.37636-1.01247-1.32476-0.0661-2.22097 0.9043-0.81334 0.88966-0.91135 2.14855-0.0821 1.29182 0.6597 2.15236 0.85483 0.97655 2.45902 0.94807zm2.4737 1.07918-5.17087-0.0501-0.27233 16.10021 5.31624 0.19923z" style="font-feature-settings:normal;font-variant-caps:normal;font-variant-ligatures:normal;font-variant-numeric:normal"/>
   <path d="m230.45159 166.78801q-0.59021-0.588-1.409-0.89739-1.62122-0.6188-2.68232 0.75779-0.60397 0.80298-0.38967 1.63715 0.16509 0.76881 0.93518 1.29102 0.78643 0.50582 1.78462 0.48758 1.09631-0.0511 2.04408-0.77295l4.09706 3.19971q-1.15861 1.73678-3.26741 2.90259-4.234 2.3153-9.00131-0.52314-2.50654-1.50081-3.02039-5.00179-0.48088-3.37013 1.13365-6.31872 1.72859-3.21063 5.00019-3.87134 3.81148-0.74353 8.5794 2.42219z" style="font-feature-settings:normal;font-variant-caps:normal;font-variant-ligatures:normal;font-variant-numeric:normal"/>
   <path d="m244.2246 161.10614q0.46267 2.33009 0.54756 4.60336 0.17016 4.56291-1.40753 4.28811-1.57768-0.27481-1.93289-4.34242-0.16106-2.026 0.0519-4.15879l-5.83163-0.19358q-0.63163 3.86109 0.0946 7.69102 1.41975 7.66063 8.14367 7.50637t7.29257-8.18787q0.26833-4.00007-0.78885-7.9861z" style="font-feature-settings:normal;font-variant-caps:normal;font-variant-ligatures:normal;font-variant-numeric:normal"/>
   <path d="m251.34732 154.35923 0.83103 21.66664 6.72074-0.25778-0.54797-21.97226z" style="font-feature-settings:normal;font-variant-caps:normal;font-variant-ligatures:normal;font-variant-numeric:normal"/>
   <path d="m266.32576 171.38195q-0.56004-0.0511-0.93301-0.27639-0.35663-0.22619-0.40461-0.50216-0.0325-0.29321 0.28525-0.4746 0.36591-0.20044 1.08754-0.19102 0.50923 0.0211 0.81684 0.25001 0.27493 0.2307 0.27479 0.5257 7.6e-4 0.31135-0.28435 0.49095-0.29965 0.21317-0.84245 0.17751zm3.86425-11.66876q-4.32233-0.51582-7.35351 0.0936-1.52331 0.31335-2.17252 0.72605l1.20958 4.70258q1.80212-0.60732 3.83091-0.6699 4.05758-0.12516 5.16186 2.6657-1.5863-0.83041-3.58947-1.19535-4.03903-0.72809-6.20415 1.62007-1.28327 1.39819-1.51826 3.08281-0.23589 1.66829 0.6231 2.98126 0.91341 1.40831 2.74585 1.94655 2.04845 0.5919 4.84907-0.0376 2.28136-0.53539 3.55218-2.45734l-0.16978 1.97603 5.57175-0.3069q0.80771-3.48618 0.3946-7.11817-0.35523-3.1763-1.79123-5.14583-1.77434-2.45895-5.13998-2.86357z" style="font-feature-settings:normal;font-variant-caps:normal;font-variant-ligatures:normal;font-variant-numeric:normal"/>
   <path d="m282.16341 157.39089-5.21165 0.5266 1.6778 16.71064 5.3783-0.27666-0.73566-6.88614q0.45433-3.53005 3.55677-4.60235 1.5506-0.5443 3.00757-0.37583l-0.41563-5.69598q-4.57651 0.46201-7.03629 2.65075z" style="font-feature-settings:normal;font-variant-caps:normal;font-variant-ligatures:normal;font-variant-numeric:normal"/>
   <path d="m299.05284 160.59361q1.40815-0.39928 2.12901 0.25437 0.362 0.34311 0.43397 0.74717l-4.35683 0.84894q-0.0951-0.30317 0.0641-0.69671 0.33787-0.75607 1.72973-1.15377zm-4e-3 6.92192q-0.89268-0.39042-1.28252-1.19118-0.20227-0.39144-0.2175-0.71878l10.8033-2.36038q-0.58735-2.16266-2.28598-4.08628-3.43142-3.8604-9.11285-2.76823-3.24398 0.6262-4.92436 3.13977-1.52485 2.25191-1.39307 5.31356 0.10604 2.96549 1.67803 5.2795 1.68705 2.48373 4.34094 3.06546 4.60478 1.03418 8.52083-1.48194 1.96618-1.25885 2.99343-2.70636l-3.85492-3.30976q-0.70252 0.72558-1.71398 1.31665-2.00505 1.19685-3.55135 0.50797z" style="font-feature-settings:normal;font-variant-caps:normal;font-variant-ligatures:normal;font-variant-numeric:normal"/>
   <path d="m311.23269 164.93581q1.57289 0.47015 2.81949 0.83119 3.47925 1.24633 4.05881 0.58328 0.18643-0.36854-5e-3 -0.59271-0.19177-0.22417-1.70615-0.61895-1.50008-0.41297-3.42259-0.77515-1.92251-0.36219-2.7508-1.6306-0.78993-1.22358-0.42765-2.73405 0.39735-1.63006 1.94516-2.73917 1.79213-1.27035 4.64063-1.43157 2.40591-0.14096 4.89131 0.51614 1.19529 0.48259 1.90122 1.00754l-1.66032 3.4631q-1.01658-0.50408-1.94338-0.67283-3.05343-0.72065-3.07915 0.43618 0.0209 0.31065 0.59806 0.58737 0.59147 0.25852 2.43727 0.53104 1.86009 0.25431 3.04562 0.65566 1.77309 0.62738 2.34934 2.40408 0.5964 1.80725-0.69639 3.94055-1.36756 2.05988-5.28117 2.54696-3.408 0.44276-9.48637-1.44699z" style="font-feature-settings:normal;font-variant-caps:normal;font-variant-ligatures:normal;font-variant-numeric:normal"/>
  </g>
  <g transform="rotate(-1.8789649,-1138.2764,-557.42065)" style="font-feature-settings:normal;font-variant-caps:normal;font-variant-ligatures:normal;font-variant-numeric:normal" aria-label="Paralelas, secantes">
   <path d="m71.173008 142.94346q1.010511 0.13372 2.018195 0.56917 2.011669 0.88683 1.964509 2.32061-0.03492 1.45342-2.328345 1.27395-1.152833-0.0995-2.274658-0.47749zm-9.516246 15.38017 6.270625 1.57286 1.686332-7.77301q2.411597 0.82846 5.042872 0.56556 5.278492-0.5221 6.465132-5.92481 1.042362-4.78102-6.807853-7.51002-3.917137-1.36265-8.056239-1.76886z" style="font-feature-settings:normal;font-variant-caps:normal;font-variant-ligatures:normal;font-variant-numeric:normal"/>
   <path d="m85.8377 159.60006q-0.531127-0.18482-0.838652-0.49351-0.291452-0.30562-0.271368-0.58501 0.03923-0.29239 0.391416-0.39167 0.40348-0.10614 1.101484 0.0773 0.489052 0.14346 0.732284 0.43986 0.211086 0.29026 0.139711 0.5765-0.07445 0.30232-0.394489 0.40775-0.342259 0.1345-0.860386-0.0312zm6.567703-10.39027q-4.069851-1.54432-7.158493-1.68487-1.553894-0.0638-2.283559 0.17994l0.03819 4.8555q1.895441-0.15417 3.879301 0.27502 3.967721 0.85838 4.365377 3.83332-1.338829-1.1889-3.194588-2.02678-3.743665-1.6819-6.411753 0.0739-1.582936 1.04692-2.21778 2.62494-0.631771 1.56195-0.115263 3.04349 0.546295 1.58721 2.194525 2.55202 1.844893 1.06905 4.714655 1.13444 2.34313 0.0314 4.040455-1.52682l-0.641926 1.87655 5.480962 1.04768q1.625658-3.18796 2.101841-6.81223 0.422302-3.16807-0.495583-5.42608-1.128034-2.81465-4.296363-4.02005z" style="font-feature-settings:normal;font-variant-caps:normal;font-variant-ligatures:normal;font-variant-numeric:normal"/>
   <path d="m104.50287 149.78708-5.188596-0.71904-2.315916 16.63421 5.291522 1.00127 0.91132-6.8651q1.27511-3.32292 4.54303-3.63223 1.63528-0.16274 3.01125 0.34504l0.94124-5.63303q-4.55617-0.63181-7.46325 0.91414z" style="font-feature-settings:normal;font-variant-caps:normal;font-variant-ligatures:normal;font-variant-numeric:normal"/>
   <path d="m117.0745 164.84291q-0.53962-0.15832-0.86204-0.45142-0.30622-0.29082-0.29998-0.57086 0.0247-0.29398 0.37156-0.41057 0.39773-0.12597 1.10396 0.0227 0.49555 0.1191 0.75315 0.4031 0.22518 0.27946 0.16806 0.56888-0.0594 0.30563-0.37383 0.42677-0.33519 0.15127-0.86088 0.0114zm6.0456-10.70249q-4.14128-1.34107-7.23309-1.32864-1.55515 0.0132-2.27186 0.2927l0.27837 4.84766q1.8855-0.24775 3.88816 0.0828 4.00533 0.66102 4.54969 3.61264-1.39601-1.12121-3.29095-1.86624-3.8223-1.49462-6.40025 0.39106-1.5292 1.12396-2.08519 2.73146-0.55372 1.59129 0.0355 3.04547 0.62415 1.55823 2.3181 2.44031 1.89552 0.97646 4.76501 0.89979 2.34181-0.0846 3.95996-1.72485l-0.54829 1.90601 5.52608 0.77522q1.46594-3.26449 1.76223-6.90787 0.26504-3.18509-0.76344-5.39492-1.26591-2.7554-4.48999-3.80256z" style="font-feature-settings:normal;font-variant-caps:normal;font-variant-ligatures:normal;font-variant-numeric:normal"/>
   <path d="m130.57185 148.85464-2.62554 21.52302 6.6762 0.81441 2.95359-21.77974z" style="font-feature-settings:normal;font-variant-caps:normal;font-variant-ligatures:normal;font-variant-numeric:normal"/>
   <path d="m145.42268 159.95395q1.45948-0.11055 2.03557 0.67369 0.28634 0.40839 0.27631 0.81868l-4.43862-0.0366q-0.0327-0.31604 0.20173-0.66994 0.48181-0.67354 1.92501-0.78579zm-1.38423 6.7821q-0.79693-0.56054-1.01931-1.42294-0.12018-0.42391-0.0699-0.74772l11.057-0.15934q-0.14443-2.23634-1.42549-4.45998-2.59296-4.46697-8.37808-4.52932-3.30371-0.0331-5.45144 2.09507-1.94317 1.90273-2.42438 4.92919-0.48726 2.9271 0.59187 5.50805 1.15806 2.77019 3.64271 3.8693 4.30618 1.93139 8.64523 0.24645 2.17766-0.84162 3.47286-2.05529l-3.11774-4.01182q-0.83306 0.57098-1.94205 0.94854-2.2034 0.77312-3.58133-0.21019z" style="font-feature-settings:normal;font-variant-caps:normal;font-variant-ligatures:normal;font-variant-numeric:normal"/>
   <path d="m155.34373 151.56685-1.89382 21.5997 6.69998 0.58745 2.21298-21.86741z" style="font-feature-settings:normal;font-variant-caps:normal;font-variant-ligatures:normal;font-variant-numeric:normal"/>
   <path d="m168.07165 170.33406q-0.5492-0.12096-0.89096-0.39127-0.32542-0.26915-0.3384-0.54896 5e-3 -0.29498 0.34255-0.43506 0.38816-0.15294 1.10291-0.053 0.50255 0.0848 0.77901 0.35052 0.24381 0.26337 0.20666 0.55603-0.0383 0.30898-0.3437 0.45138-0.32403 0.17389-0.85807 0.0704zm5.29782-11.09169q-4.22345-1.05407-7.30714-0.82976-1.55059 0.11975-2.24646 0.44773l0.60999 4.81718q1.86407-0.3764 3.88468-0.18393 4.04122 0.38494 4.7866 3.29231-1.46958-1.02289-3.41113-1.63629-3.91574-1.22912-6.35838 0.82882-1.44857 1.22613-1.89308 2.86795-0.44335 1.6255 0.24411 3.03588 0.72949 1.51179 2.47991 2.27569 1.958 0.84425 4.81548 0.57108 2.33051-0.2449 3.83243-1.99222l-0.41637 1.93912 5.56622 0.39463q1.23875-3.35729 1.28462-7.01241 0.0461-3.19576-1.13141-5.32991-1.45179-2.66215-4.74007-3.48587z" style="font-feature-settings:normal;font-variant-caps:normal;font-variant-ligatures:normal;font-variant-numeric:normal"/>
   <path d="m182.12195 168.48821q1.47214 0.7265 2.64084 1.29088 3.2219 1.81048 3.90415 1.25366 0.24543-0.33218 0.0938-0.58526-0.1516-0.25308-1.57866-0.89549-1.40992-0.65796-3.24482-1.33646-1.83489-0.67851-2.43945-2.06755-0.57425-1.33843 0.0355-2.76707 0.66428-1.54068 2.37573-2.37541 1.9793-0.95284 4.81466-0.63555 2.39562 0.26326 4.73617 1.32665 1.09779 0.67564 1.70601 1.31122l-2.21594 3.13677q-0.91799-0.66695-1.80354-0.98827-2.88997-1.22102-3.10873-0.0848-0.0314 0.30977 0.49143 0.67909 0.53993 0.35377 2.31419 0.93104 1.79139 0.56172 2.89313 1.15564 1.64324 0.91499 1.91434 2.76303 0.28585 1.88151-1.34541 3.76865-1.6927 1.80225-5.63266 1.62815-3.43405-0.13325-9.11093-3.01264z" style="font-feature-settings:normal;font-variant-caps:normal;font-variant-ligatures:normal;font-variant-numeric:normal"/>
   <path d="m196.89774 172.27802-0.96645 4.69838 2.7568 0.76764 1.47743-4.79516z" style="font-feature-settings:normal;font-variant-caps:normal;font-variant-ligatures:normal;font-variant-numeric:normal"/>
   <path d="m211.30173 169.56567q1.4982 0.67113 2.68712 1.19155 3.28715 1.68912 3.94817 1.10726 0.23287-0.3411 0.072-0.58835-0.16093-0.24725-1.61094-0.83602-1.43347-0.60495-3.29238-1.21459-1.85891-0.60963-2.51483-1.97518-0.62374-1.31609-0.0677-2.76646 0.60639-1.56438 2.28554-2.46232 1.9424-1.02596 4.78762-0.81458 2.40377 0.17379 4.78233 1.14919 1.12221 0.63425 1.7537 1.24672l-2.09748 3.21719q-0.94221-0.63227-1.83912-0.92036-2.93347-1.11244-3.10973 0.0312-0.0198 0.31072 0.51641 0.6603 0.55274 0.3334 2.34728 0.84414 1.81108 0.49455 2.93419 1.04698 1.67621 0.85311 2.016 2.68975 0.35579 1.86956-1.20399 3.81619-1.62434 1.86409-5.56806 1.83698-3.43663-5e-3 -9.21689-2.67094z" style="font-feature-settings:normal;font-variant-caps:normal;font-variant-ligatures:normal;font-variant-numeric:normal"/>
   <path d="m234.24269 164.06393q1.43703-0.27792 2.09961 0.43474 0.33147 0.37269 0.36877 0.78141l-4.4133 0.47485q-0.0689-0.31016 0.12322-0.68871 0.40103-0.72456 1.8217-1.00229zm-0.59384 6.8964q-0.85619-0.46501-1.17643-1.29606-0.16821-0.40725-0.1555-0.7347l10.96505-1.43186q-0.40106-2.20482-1.92972-4.2661-3.09022-4.13857-8.84402-3.53416-3.28552 0.34768-5.17384 2.70903-1.71107 2.11389-1.84048 5.17564-0.14687 2.96374 1.22237 5.40321 1.46942 2.61837 4.06414 3.42397 4.49998 1.42254 8.61607-0.75098 2.06623-1.08685 3.21301-2.44162l-3.55908-3.62601q-0.76175 0.66313-1.81987 1.16593-2.09968 1.02176-3.5817 0.20371z" style="font-feature-settings:normal;font-variant-caps:normal;font-variant-ligatures:normal;font-variant-numeric:normal"/>
   <path d="m254.81608 166.25361q-0.6084-0.56917-1.43651-0.85267-1.63987-0.56754-2.65718 0.84172-0.57843 0.82156-0.33802 1.64859 0.18916 0.76324 0.97529 1.26099 0.80195 0.48085 1.79906 0.43125 1.09416-0.0856 2.01878-0.83681l4.1956 3.06935q-1.10345 1.77234-3.17457 3.00386-4.15913 2.44722-9.0133-0.23998-2.55247-1.42129-3.17611-4.90439-0.58656-3.35335 0.9345-6.35123 1.62683-3.26337 4.87605-4.02657 3.78622-0.86297 8.65129 2.15134z" style="font-feature-settings:normal;font-variant-caps:normal;font-variant-ligatures:normal;font-variant-numeric:normal"/>
   <path d="m266.91056 171.35112q-0.56008-0.0507-0.93322-0.27568-0.3568-0.22592-0.40499-0.50185-0.0328-0.29319 0.28489-0.47483 0.36575-0.20071 1.0874-0.19184 0.50924 0.0207 0.81702 0.24939 0.27511 0.23048 0.27519 0.52549 1e-3 0.31135-0.28397 0.49116-0.29949 0.2134-0.84232 0.17816zm3.85535-11.67171q-4.32272-0.51252-7.35343 0.0993-1.52307 0.31451-2.17197 0.72771l1.21317 4.70165q1.80165-0.60869 3.83039-0.67282 4.05749-0.12826 5.1639 2.66176-1.58694-0.8292-3.59039-1.19261-4.03957-0.72501-6.2029 1.6248-1.28221 1.39917-1.51591 3.08397-0.23462 1.66847 0.62537 2.98078 0.91449 1.40762 2.74733 1.94446 2.0489 0.59033 4.84905-0.0414 2.28095-0.53712 3.5503-2.46004l-0.16827 1.97616 5.57151-0.31115q0.80505-3.4868 0.38917-7.11848-0.35765-3.17601-1.79515-5.14445-1.77622-2.4576-5.14217-2.85965z" style="font-feature-settings:normal;font-variant-caps:normal;font-variant-ligatures:normal;font-variant-numeric:normal"/>
   <path d="m287.92736 156.79337q-3.05883-0.068-5.05129 1.5026l-0.0558-1.11184-5.13381 0.26156 0.99287 17.60101 6.13348-0.48901-0.41004-6.1726q-0.63604-5.30095 2.04641-5.62973 1.98361-0.24023 2.73574 5.28129 0.37251 2.6133 0.18709 5.43524l6.38987-0.3617q0.14272-4.18107-0.74945-8.16473-0.78199-3.63128-2.29129-5.67788-1.89477-2.55759-4.79377-2.47421z" style="font-feature-settings:normal;font-variant-caps:normal;font-variant-ligatures:normal;font-variant-numeric:normal"/>
   <path d="m299.46197 150.19884 0.37251 5.27503-4.4042 0.20162 0.23896 5.25573 4.51484-0.24578 1.04792 12.3944 5.56506-0.27045-1.10339-12.45454 4.25241-0.4-0.42135-5.27006-4.24111 0.3495-0.40146-5.0747z" style="font-feature-settings:normal;font-variant-caps:normal;font-variant-ligatures:normal;font-variant-numeric:normal"/>
   <path d="m319.20808 158.36666q1.39669-0.43769 2.13518 0.19598 0.37126 0.33307 0.45427 0.735l-4.33195 0.96794q-0.10336-0.30046 0.045-0.69821 0.31704-0.76504 1.69748-1.20071zm0.18514 6.91945q-0.90304-0.36583-1.31466-1.15561-0.21292-0.38576-0.2371-0.71256l10.7346-2.65534q-0.64636-2.14576-2.39703-4.02215-3.53584-3.76498-9.18524-2.51763-3.22561 0.71481-4.83653 3.27345-1.46261 2.29283-1.24703 5.34971 0.18721 2.96148 1.82198 5.23157 1.75444 2.4366 4.42327 2.94543 4.63136 0.90769 8.47705-1.71473 1.93096-1.31222 2.91818-2.78732l-3.94411-3.20295q-0.68238 0.74455-1.67727 1.3631-1.97153 1.25131-3.53611 0.60503z" style="font-feature-settings:normal;font-variant-caps:normal;font-variant-ligatures:normal;font-variant-numeric:normal"/>
   <path d="m331.49962 162.37301q1.58532 0.42634 2.84146 0.75266 3.51249 1.14931 4.07342 0.47045 0.17614-0.37358-0.0218-0.59234-0.19792-0.21876-1.72267-0.57137-1.51096-0.3712-3.44278-0.67991-1.93181-0.3087-2.79497-1.55365-0.82358-1.20119-0.50334-2.72113 0.35197-1.64045 1.86841-2.79208 1.75619-1.31959 4.59912-1.55977 2.40108-0.20766 4.90375 0.38024 1.20822 0.44924 1.92844 0.9544l-1.5636 3.50783q-1.03017-0.47568-1.9613-0.61865-3.07225-0.63566-3.06586 0.52144 0.0295 0.30995 0.61412 0.57055 0.59842 0.24201 2.45107 0.46321 1.86643 0.20261 3.06264 0.57092 1.78982 0.57794 2.41513 2.33797 0.64632 1.79-0.5868 3.95835-1.30987 2.09703-5.20847 2.6925-3.3944 0.53715-9.52286-1.18324z" style="font-feature-settings:normal;font-variant-caps:normal;font-variant-ligatures:normal;font-variant-numeric:normal"/>
  </g>
 </g>
 <g fill="#fff" stroke-linecap="round" stroke-width="2.75218177">
  <path d="m149.33637 47.083478 63.91821-28.013537" stroke="#00c853"/>
  <path d="m149.33637 58.131061 63.91821-28.013529" stroke="#00c853"/>
  <path d="m261.78506 21.437282 41.82302 35.904674" stroke="#ef5350"/>
  <path d="m274.80544 15.913487 22.8843 61.945413" stroke="#ef5350"/>
  <path d="m231.40419 49.450818v41.033901" stroke="#ffc107"/>
  <path d="m189.58117 68.389539h72.59845" stroke="#ffc107"/>
 </g>
</svg>
