<?xml version="1.0" encoding="UTF-8"?>
<!-- Generator: Adobe Illustrator 19.0.0, SVG Export Plug-In . SVG Version: 6.00 Build 0)  -->
<svg width="512" height="512" version="1.1" viewBox="0 0 512.00003 512.00002" xml:space="preserve" xmlns="http://www.w3.org/2000/svg" xmlns:cc="http://creativecommons.org/ns#" xmlns:dc="http://purl.org/dc/elements/1.1/" xmlns:rdf="http://www.w3.org/1999/02/22-rdf-syntax-ns#"><defs><linearGradient id="linearGradient7824" x1="1452.4229" x2="772.341" y1="569.99146" y2="-115.36234" gradientTransform="matrix(.74994375 0 0 .74994375 -1585.125 632.8637)" gradientUnits="userSpaceOnUse"><stop stop-color="#b2ff59" offset="0"/><stop stop-color="#00acc1" offset="1"/></linearGradient></defs><metadata><rdf:RDF><cc:Work rdf:about=""><dc:format>image/svg+xml</dc:format><dc:type rdf:resource="http://purl.org/dc/dcmitype/StillImage"/><dc:title/></cc:Work></rdf:RDF></metadata><circle transform="scale(-1,1)" cx="397.328" cy="299.54181" r="0" fill="#9ed1fa" stroke-width=".74994367"/><g transform="translate(1007.8896,-546.34845)"><circle cx="-751.88965" cy="802.34845" r="256" fill="url(#linearGradient7824)" stroke-width=".74994373"/><g stroke-width="1.24360085"><rect x="-791.95349" y="859.01764" width="81.371094" height="129.19875" ry="37.418213" fill="#e2b495"/><rect x="-852.18243" y="616.17426" width="200.41327" height="236.01237" ry="68.35331" fill="#241c1c"/><circle cx="-662.06323" cy="774.12036" r="17.484118" fill="#e2b495"/><circle cx="-839.75897" cy="774.12036" r="17.484118" fill="#e2b495"/><circle cx="-839.75897" cy="774.12036" r="9.6341057" fill="#dda783"/><circle cx="-662.06323" cy="774.12036" r="9.6341057" fill="#dda783"/><rect x="-843.24329" y="654.35272" width="183.95081" height="292.07196" ry="84.589142" fill="#e9c6af"/><rect x="-817.05286" y="726.28333" width="52.06155" height="17.353849" ry="8.6769247" fill="#241c1c"/><rect x="-738.96045" y="726.28333" width="52.06155" height="17.353849" ry="8.6769247" fill="#241c1c"/></g><g transform="matrix(1.2436008,0,0,1.2436008,-175.82802,-202.58901)" fill="#1a1a1a"><rect x="-500.96722" y="769.3902" width="12.559067" height="25.118134" ry="6.2795334"/><rect x="-438.17188" y="769.3902" width="12.559067" height="25.118134" ry="6.2795334"/></g><g transform="matrix(1.2436008,0,0,1.2436008,-175.82802,-194.08785)" fill="#e2b495"><path d="m-515.32812 749.05664c-0.18689 0.63163-0.29102 1.30032-0.29102 1.99414 0 3.8654 3.11116 6.97656 6.97656 6.97656h27.91016c3.8654 0 6.97656-3.11116 6.97656-6.97656 0-0.69382-0.10413-1.36251-0.29102-1.99414-0.85426 2.88728-3.51396 4.98438-6.68554 4.98438h-27.91016c-3.17158 0-5.83128-2.0971-6.68554-4.98438z"/><path d="m-452.5332 749.05664c-0.18688 0.63163-0.29102 1.30032-0.29102 1.99414 0 3.8654 3.11116 6.97656 6.97656 6.97656h27.91016c3.8654 0 6.97656-3.11116 6.97656-6.97656 0-0.69382-0.10413-1.36251-0.29101-1.99414-0.85427 2.88728-3.51397 4.98438-6.68555 4.98438h-27.91016c-3.17158 0-5.83128-2.0971-6.68554-4.98438z"/><g transform="translate(0,-2)"><path d="m-447.32611 702.35938a44.654457 44.654457 0 0 1 -25.56445 8.1289 44.654457 44.654457 0 0 1 -12.67578 -1.87695v0.86328c0 3.47886-2.80044 6.2793-6.2793 6.2793h-0.64258a44.654457 44.654457 0 0 0 19.59766 4.56445 44.654457 44.654457 0 0 0 30.58398 -12.19141z"/><path d="m-489.10156 709.86523c-5.86995 5.16733-13.47081 8.03234-21.35352 8.04883-5.28573-7e-3 -10.48794-1.29559-15.14453-3.75195-1.39479 2.39881-2.14975 5.23942-3.87987 7.38802 5.65465 4.37018 11.82896 6.18947 19.0244 6.19206 11.79001-0.012 22.62421-6.37165 28.21875-16.56446z"/><path d="m-447.23047 701.50781c-0.32575 1.67192-1.30919 3.10011-2.67383 4.00977a34.886295 32.793118 0 0 0 33.28907 23.00586 34.886295 32.793118 0 0 0 20.64843 -6.40821c-1.22308-2.53239-2.27661-5.16002-3.18359-7.85742a34.886295 32.793118 0 0 1 -17.46484 4.43555 34.886295 32.793118 0 0 1 -30.61524 -17.18555z"/></g></g><g transform="matrix(1.2436008,0,0,1.2436008,-175.82802,-194.08785)" fill="#241c1c"><ellipse cx="-472.89145" cy="672.51343" rx="44.654457" ry="39.202904"/><ellipse cx="-432.59009" cy="666.85413" rx="34.886295" ry="28.789633"/><ellipse cx="-510.45462" cy="687.61896" rx="32.09539" ry="31.522259"/><ellipse cx="-416.61597" cy="687.12921" rx="34.886295" ry="32.793118"/><path d="m-526.37972 792.79492c-6.65957 0-12.02151 5.23801-12.02151 11.7461v44.54492c0 37.68282 31.04285 68.01953 69.60282 68.01953h12.15541c38.55997 0 69.60282-30.33671 69.60282-68.01953v-44.54492c0-6.50809-5.36193-11.7461-12.02151-11.7461h-47.2486c-1.51828 7.51308-8.26392 13.14649-16.41041 13.14649-8.1465 0-14.89214-5.63341-16.41041-13.14649z"/></g><g transform="matrix(.45237642 0 0 .45237642 -445.11499 457.69723)"><path d="m-750.72461 809.82617v20.32227c0 37.68282 30.33671 68.01953 68.01953 68.01953h11.87891c37.68282 0 68.01953-30.33671 68.01953-68.01953v-20.32227z" fill="#f2706e"/><rect x="-750.72491" y="801.21918" width="147.918" height="34.430862" ry="3.347445" fill="#f2f2f2"/><path d="m-750.72357 809.25402v22.37891c0 2.22538 2.73054 4.01758 6.12478 4.01758h135.66577c3.39423 0 6.12478-1.7922 6.12478-4.01758v-22.37891z" fill="#fff"/><path d="m-697.91992 855.34961c-14.92457 0.21231-29.00163 5.34036-40.36524 14.08203 12.29566 17.40245 32.55905 28.73633 55.58008 28.73633h11.87891c15.13062 0 29.0721-4.89777 40.3457-13.19141-9.82678-13.21805-24.47234-22.91548-42.00781-26.22656l-11.67383-2.20312c-4.62856-0.87398-9.23139-1.26166-13.75781-1.19727z" fill="#ef5350"/></g><rect x="-804.6037" y="954.58453" width="105.42915" height="37.042675" ry="6.4940948" stroke-width="1.24360085"/><path d="m-862.65234 981.17773c-18.25835 0-33.20557 13.64632-35.25977 31.33597a256 256 0 0 0 146.02149 45.834 256 256 0 0 0 145.99218 -46.0704c-2.15976-17.57417-17.05186-31.09957-35.22851-31.09957z" stroke-width="1.24360085"/><g transform="matrix(1.2436008,0,0,1.2436008,-175.82802,-194.08785)" fill="#3c2f2f"><circle cx="-476.24893" cy="672.64514" r="12.794747"/><circle cx="-428.97946" cy="660.20581" r="8.8852415"/><circle cx="-465.94205" cy="645.27863" r="5.3311453"/><circle cx="-517.12103" cy="670.8681" r="5.3311453"/><rect x="-407.29947" y="804.14673" width="7.1081934" height="42.649158" ry="3.5540967"/><rect x="-420.80502" y="804.14673" width="7.1081934" height="19.192122" ry="3.5540967"/></g><path d="m-766.76563 850.15643s16.97097-2.39335 24.80372 5.22183" fill="none" opacity=".67400004" stroke="#f8afae" stroke-linecap="round" stroke-width="6.21800423"/><g stroke-width="1.24360085"><rect transform="scale(-1,1)" x="824.3288" y="805.94965" width="8.8397551" height="53.038528" ry="4.4198775" fill="#3c2f2f"/><rect transform="scale(-1,1)" x="807.53333" y="805.94965" width="8.8397551" height="23.867338" ry="4.4198775" fill="#3c2f2f"/><path d="m-845.38318 839.20839v22.62771c0 46.86239 38.60335 84.58915 86.55656 84.58915h15.11752c47.95321 0 86.55656-37.72676 86.55656-84.58915v-22.62771c0 46.86238-38.60335 84.58915-86.55656 84.58915h-15.11752c-47.95321 0-86.55656-37.72677-86.55656-84.58915z" fill="#151010"/><rect x="-690.17871" y="994.40961" width="60.921402" height="12.18428" ry="4.4198818" fill="#2b2b2b" opacity=".67400004"/><rect x="-791.03632" y="728.96021" width="20.933689" height="4.498148" ry="2.249074" fill="#3c2f2f"/><rect x="-713.70276" y="728.96021" width="20.933689" height="4.498148" ry="2.249074" fill="#3c2f2f"/></g></g></svg>
