<?xml version="1.0" encoding="UTF-8"?>
<!-- Created with Inkscape (http://www.inkscape.org/) -->
<svg width="135.95567mm" height="135.95567mm" version="1.1" viewBox="0 0 135.95567 135.95567" xmlns="http://www.w3.org/2000/svg" xmlns:cc="http://creativecommons.org/ns#" xmlns:dc="http://purl.org/dc/elements/1.1/" xmlns:rdf="http://www.w3.org/1999/02/22-rdf-syntax-ns#">
 <defs>
  <linearGradient id="linearGradient7834" x1="1452.4229" x2="772.341" y1="569.99146" y2="-115.36234" gradientTransform="matrix(.61376328 0 0 .61376328 -6.1725265 -84.146448)" gradientUnits="userSpaceOnUse">
   <stop stop-color="#fbc02d" offset="0"/>
   <stop stop-color="#e91e63" offset="1"/>
  </linearGradient>
 </defs>
 <metadata>
  <rdf:RDF>
   <cc:Work rdf:about="">
    <dc:format>image/svg+xml</dc:format>
    <dc:type rdf:resource="http://purl.org/dc/dcmitype/StillImage"/>
    <dc:title/>
   </cc:Work>
  </rdf:RDF>
 </metadata>
 <g transform="translate(-466.24414,154.9516)">
  <g transform="matrix(.32445555 0 0 .32445555 314.96864 -104.67669)">
   <circle cx="675.75769" cy="54.561954" r="209.51355" fill="url(#linearGradient7834)" stroke-width=".61376327"/>
   <path d="M 675.758,-93.313701 A 147.87569,147.87569 0 0 0 527.88203,54.562266 147.87569,147.87569 0 0 0 675.758,202.43761 147.87569,147.87569 0 0 0 823.63334,54.562266 147.87569,147.87569 0 0 0 675.758,-93.313701 Z m 0,20.938034 A 126.93754,126.93754 0 0 1 802.69531,54.562266 126.93754,126.93754 0 0 1 675.758,181.49958 126.93754,126.93754 0 0 1 548.82007,54.562266 126.93754,126.93754 0 0 1 675.758,-72.375667 Z" fill="#e91e63"/>
   <g transform="matrix(.62054362 0 0 .62054362 859.77879 32.488653)">
    <g>
     <rect x="-460.30475" y="-134.08611" width="103.07207" height="174.82391" ry="14.900053" fill="#f2f2f2"/>
     <g transform="matrix(1.1799739,0,0,1.1799739,-205.74932,-5.2825618)">
      <circle cx="-205.10628" cy="-97.769272" r="3.378221" fill="#e91e63"/>
      <circle cx="-195.69553" cy="-97.769272" r="3.378221" fill="#ffc107"/>
      <circle cx="-186.28479" cy="-97.769272" r="3.378221" fill="#00c853"/>
     </g>
     <rect x="-460.30475" y="-107.96298" width="103.07207" height="122.57767" ry="0" fill="#309f51"/>
     <g transform="matrix(.81829608 0 0 1.1799739 -279.435 -214.89952)" fill="#f2f2f2">
      <rect x="-202.21066" y="108.78482" width="88.316353" height="5.3086329" ry="2.6543164"/>
      <rect x="-202.21066" y="120.36729" width="88.316353" height="5.3086329" ry="2.6543164"/>
      <rect x="-202.21066" y="131.46716" width="88.316353" height="5.3086329" ry="2.6543164"/>
      <rect x="-202.21066" y="142.08443" width="88.316353" height="5.3086329" ry="2.6543164"/>
     </g>
     <rect x="-445.49881" y="-24.465244" width="68.904533" height="17.653227" ry="7.6877089" fill="#b52dcc"/>
     <text x="-425.33038" y="-10.983047" fill="#000000" font-family="sans-serif" font-size="12.48805714px" letter-spacing="0px" stroke-width=".31220141" word-spacing="0px" style="line-height:1.25" xml:space="preserve"><tspan x="-425.33038" y="-10.983047" stroke-width=".31220141">click</tspan></text>
    </g>
   </g>
   <g transform="matrix(.76669128 0 0 .76669128 1015.7152 -174.30986)">
    <rect x="-531.05243" y="213.02708" width="192.076" height="125.95939" ry="10.735383" fill="#f2f2f2"/>
    <circle cx="-518.9873" cy="222.67914" r="3.378221" fill="#e91e63"/>
    <circle cx="-509.57657" cy="222.67914" r="3.378221" fill="#ffc107"/>
    <circle cx="-500.16583" cy="222.67914" r="3.378221" fill="#00c853"/>
    <rect x="-531.05243" y="231.84859" width="192.076" height="88.316353" ry="0" fill="#ffe180"/>
    <g transform="matrix(1.6994535,0,0,1,-168.58327,137.05926)" fill="#f2f2f2">
     <rect x="-202.21066" y="108.78482" width="88.316353" height="5.3086329" ry="2.6543164"/>
     <rect x="-202.21066" y="120.36729" width="88.316353" height="5.3086329" ry="2.6543164"/>
     <rect x="-202.21066" y="131.46716" width="88.316353" height="5.3086329" ry="2.6543164"/>
     <rect x="-202.21066" y="142.08443" width="88.316353" height="5.3086329" ry="2.6543164"/>
    </g>
    <rect x="-464.21188" y="298.44781" width="58.394966" height="14.960693" ry="6.5151515" fill="#2a7fff"/>
    <text x="-447.1196" y="309.87366" fill="#000000" font-family="sans-serif" font-size="10.58333302px" letter-spacing="0px" stroke-width=".26458332" word-spacing="0px" style="line-height:1.25" xml:space="preserve"><tspan x="-447.1196" y="309.87366" stroke-width=".26458332">click</tspan></text>
   </g>
   <g transform="matrix(.76669128 0 0 .76669128 820.26607 -129.25013)">
    <rect x="-221.03218" y="75.967819" width="125.95939" height="125.95939" ry="10.735383" fill="#f2f2f2"/>
    <circle cx="-208.9671" cy="85.619881" r="3.378221" fill="#e91e63"/>
    <circle cx="-199.55635" cy="85.619881" r="3.378221" fill="#ffc107"/>
    <circle cx="-190.14561" cy="85.619881" r="3.378221" fill="#00c853"/>
    <rect x="-221.03218" y="94.789337" width="125.95939" height="88.316353" ry="0" fill="#c44ed8"/>
    <g fill="#f2f2f2">
     <rect x="-202.21066" y="108.78482" width="88.316353" height="5.3086329" ry="2.6543164"/>
     <rect x="-202.21066" y="120.36729" width="88.316353" height="5.3086329" ry="2.6543164"/>
     <rect x="-202.21066" y="131.46716" width="88.316353" height="5.3086329" ry="2.6543164"/>
     <rect x="-202.21066" y="142.08443" width="88.316353" height="5.3086329" ry="2.6543164"/>
    </g>
    <rect x="-189.18037" y="161.38855" width="58.394966" height="14.960693" ry="6.5151515" fill="#ffc107"/>
    <text x="-172.08809" y="172.81439" fill="#000000" font-family="sans-serif" font-size="10.58333302px" letter-spacing="0px" stroke-width=".26458332" word-spacing="0px" style="line-height:1.25" xml:space="preserve"><tspan x="-172.08809" y="172.81439" stroke-width=".26458332">click</tspan></text>
   </g>
   <g transform="matrix(.76669128 0 0 .76669128 780.46224 -82.87464)">
    <rect x="-216.68875" y="213.02708" width="192.076" height="125.95939" ry="10.735383" fill="#f2f2f2"/>
    <circle cx="-204.62367" cy="222.67914" r="3.378221" fill="#e91e63"/>
    <circle cx="-195.21292" cy="222.67914" r="3.378221" fill="#ffc107"/>
    <circle cx="-185.80219" cy="222.67914" r="3.378221" fill="#00c853"/>
    <rect x="-216.68875" y="231.84859" width="192.076" height="88.316353" ry="0" fill="#ffb380"/>
    <g transform="matrix(1.6994535,0,0,1,145.78039,137.05926)" fill="#f2f2f2">
     <rect x="-202.21066" y="108.78482" width="88.316353" height="5.3086329" ry="2.6543164"/>
     <rect x="-202.21066" y="120.36729" width="88.316353" height="5.3086329" ry="2.6543164"/>
     <rect x="-202.21066" y="131.46716" width="88.316353" height="5.3086329" ry="2.6543164"/>
     <rect x="-202.21066" y="142.08443" width="88.316353" height="5.3086329" ry="2.6543164"/>
    </g>
    <rect x="-149.84824" y="298.44781" width="58.394966" height="14.960693" ry="6.5151515" fill="#00c853"/>
    <text x="-132.75595" y="309.87366" fill="#000000" font-family="sans-serif" font-size="10.58333302px" letter-spacing="0px" stroke-width=".26458332" word-spacing="0px" style="line-height:1.25" xml:space="preserve"><tspan x="-132.75595" y="309.87366" stroke-width=".26458332">click</tspan></text>
   </g>
   <g>
    <rect x="729.62268" y="10.700956" width="63.960712" height="108.48586" ry="9.2461329" fill="#f2f2f2"/>
    <g transform="matrix(.73222528 0 0 .73222528 887.58544 90.629174)">
     <circle cx="-205.10628" cy="-97.769272" r="3.378221" fill="#e91e63"/>
     <circle cx="-195.69553" cy="-97.769272" r="3.378221" fill="#ffc107"/>
     <circle cx="-186.28479" cy="-97.769272" r="3.378221" fill="#00c853"/>
    </g>
    <rect x="729.62268" y="26.911493" width="63.960712" height="76.064789" ry="0" fill="#303f9f"/>
    <rect x="738.81042" y="80.250389" width="42.75827" height="10.954597" ry="4.7705588" fill="#ef5350"/>
    <text x="748.57306" y="87.091774" fill="#000000" font-family="sans-serif" font-size="7.74938393px" letter-spacing="0px" stroke-width=".1937346" word-spacing="0px" style="line-height:1.25" xml:space="preserve"><tspan x="748.57306" y="87.091774" stroke-width=".1937346">pagar</tspan></text>
    <text x="750.7843" y="71.823578" fill="#f2f2f2" font-family="Bebas" font-size="35.07229614px" letter-spacing="0px" stroke-width=".87680739" word-spacing="0px" style="font-feature-settings:normal;font-variant-caps:normal;font-variant-ligatures:normal;font-variant-numeric:normal;line-height:1.25" xml:space="preserve"><tspan x="750.7843" y="71.823578" fill="#f2f2f2" font-family="Bebas" font-size="35.07229614px" stroke-width=".87680739" style="font-feature-settings:normal;font-variant-caps:normal;font-variant-ligatures:normal;font-variant-numeric:normal">$</tspan></text>
   </g>
   <g>
    <g transform="matrix(.76669128 0 0 .76669128 714.0069 -34.842493)">
     <rect x="-221.03218" y="75.967819" width="125.95939" height="125.95939" ry="10.735383" fill="#f2f2f2"/>
     <circle cx="-208.9671" cy="85.619881" r="3.378221" fill="#e91e63"/>
     <circle cx="-199.55635" cy="85.619881" r="3.378221" fill="#ffc107"/>
     <circle cx="-190.14561" cy="85.619881" r="3.378221" fill="#00c853"/>
    </g>
    <rect x="544.54346" y="37.831665" width="96.571968" height="67.71138" ry="0" fill="#4ed8ad"/>
    <rect x="569.87317" y="89.173943" width="44.770912" height="11.470233" ry="4.99511" fill="#e91e63"/>
    <text x="582.06848" y="97.652794" fill="#000000" font-family="sans-serif" font-size="8.11414909px" letter-spacing="0px" stroke-width=".20285372" word-spacing="0px" style="line-height:1.25" xml:space="preserve"><tspan x="582.06848" y="97.652794" stroke-width=".20285372">pagar</tspan></text>
    <text x="582.85333" y="81.689377" fill="#9c27b0" font-family="Bebas" font-size="35.07229614px" letter-spacing="0px" stroke-width=".87680739" word-spacing="0px" style="font-feature-settings:normal;font-variant-caps:normal;font-variant-ligatures:normal;font-variant-numeric:normal;line-height:1.25" xml:space="preserve"><tspan x="582.85333" y="81.689377" fill="#9c27b0" font-family="Bebas" font-size="35.07229614px" stroke-width=".87680739" style="font-feature-settings:normal;font-variant-caps:normal;font-variant-ligatures:normal;font-variant-numeric:normal">$</tspan></text>
   </g>
   <rect transform="rotate(45)" x="503.07877" y="-574.80658" width="23.555422" height="267.99472" ry="2.3824031" fill="#e91e63"/>
   <rect transform="rotate(45)" x="508.40619" y="-566.96332" width="5.9381547" height="134.2023" ry="5.3443394" fill="#f06292"/>
  </g>
 </g>
</svg>
