<?xml version="1.0" encoding="UTF-8"?>
<!-- Generator: Adobe Illustrator 19.0.0, SVG Export Plug-In . SVG Version: 6.00 Build 0)  -->
<svg width="512" height="512" version="1.1" viewBox="0 0 512.00003 512.00002" xml:space="preserve" xmlns="http://www.w3.org/2000/svg" xmlns:cc="http://creativecommons.org/ns#" xmlns:dc="http://purl.org/dc/elements/1.1/" xmlns:rdf="http://www.w3.org/1999/02/22-rdf-syntax-ns#"><defs><linearGradient id="linearGradient7614" x1="1452.4229" x2="772.341" y1="569.99146" y2="-115.36234" gradientTransform="matrix(.7499437 0 0 .7499437 238.28566 640.77212)" gradientUnits="userSpaceOnUse"><stop stop-color="#2196f3" offset="0"/><stop stop-color="#9c27b0" offset="1"/></linearGradient></defs><metadata><rdf:RDF><cc:Work rdf:about=""><dc:format>image/svg+xml</dc:format><dc:type rdf:resource="http://purl.org/dc/dcmitype/StillImage"/><dc:title/></cc:Work></rdf:RDF></metadata><circle transform="scale(-1,1)" cx="2220.7388" cy="291.63342" r="0" fill="#9ed1fa" stroke-width=".74994367"/><g transform="translate(-815.52124,-554.25684)"><circle cx="1071.5212" cy="810.25684" r="256" fill="url(#linearGradient7614)" stroke-width=".74994373"/><g stroke-width="1.32495892"><rect x="975.32977" y="618.41541" width="195.98512" height="436.36038" ry="88.147957" fill="#1a1a1a"/><path d="m988.25458 832.71361v19.53159c0 43.23495 37.93932 78.04092 85.06652 78.04092 47.1271 0 85.0691-34.80597 85.0691-78.04092v-19.53159c0 43.23495-37.942 78.0409-85.0691 78.0409-47.1272 0-85.06652-34.80595-85.06652-78.0409z"/><circle cx="989.29523" cy="766.54718" r="18.627953" fill="#e0af90"/><circle cx="1156.9355" cy="766.54718" r="18.627953" fill="#e0af90"/></g><g transform="matrix(1.3249589,0,0,1.3249589,456.90716,459.5049)" fill="#dba27e"><rect x="440.2522" y="308.35852" width="49.962406" height="86.255852" ry="24.981203"/><circle cx="401.81479" cy="231.7372" r="7.1730962"/><circle cx="528.33972" cy="231.7372" r="7.1730962"/></g><g stroke-width="1.32495892"><circle cx="982.52899" cy="786.41998" r="7.9536085" fill="#e91e63"/><circle cx="1164.104" cy="786.41998" r="7.9536085" fill="#e91e63"/><rect x="988.25525" y="640.73022" width="170.13409" height="269.46375" ry="78.041412" fill="#e6bea4"/></g><g transform="matrix(.6567372 0 0 .6567372 1517.9667 272.56238)"><path d="m-750.72461 809.82617v20.32227c0 37.68282 30.33671 68.01953 68.01953 68.01953h11.87891c37.68282 0 68.01953-30.33671 68.01953-68.01953v-20.32227z" fill="#f2706e"/><rect x="-750.72491" y="801.21918" width="147.918" height="34.430862" ry="3.347445" fill="#f2f2f2"/><path d="m-750.72357 809.25402v22.37891c0 2.22538 2.73054 4.01758 6.12478 4.01758h135.66577c3.39423 0 6.12478-1.7922 6.12478-4.01758v-22.37891z" fill="#fff"/><path d="m-697.91992 855.34961c-14.92457 0.21231-29.00163 5.34036-40.36524 14.08203 12.29566 17.40245 32.55905 28.73633 55.58008 28.73633h11.87891c15.13062 0 29.0721-4.89777 40.3457-13.19141-9.82678-13.21805-24.47234-22.91548-42.00781-26.22656l-11.67383-2.20312c-4.62856-0.87398-9.23139-1.26166-13.75781-1.19727z" fill="#ef5350"/></g><path d="m988.25458 815.19974v19.53159c0 43.23494 37.93932 78.04091 85.06652 78.04091 47.1271 0 85.0691-34.80597 85.0691-78.04091v-19.53159c0 43.23494-37.942 78.0409-85.0691 78.0409-47.1272 0-85.06652-34.80596-85.06652-78.0409z" fill="#e0af90" stroke-width="1.32495892"/><g transform="matrix(1.3249589,0,0,1.3249589,456.90716,459.5049)" fill="#1a1a1a"><rect x="431.8623" y="215.73921" width="12.559067" height="25.118134" ry="6.2795334"/><rect x="486.04544" y="215.73921" width="12.559067" height="25.118134" ry="6.2795334"/><rect x="422.56595" y="196.71376" width="31.151806" height="10.383935" ry="5.1919675"/></g><g transform="matrix(1.3249589,0,0,1.3249589,456.90716,459.5049)" fill="#e0af90"><path d="m422.78259 203.38927c-0.13907 0.47001-0.21655 0.9676-0.21655 1.48389 0 2.87635 2.31509 5.19145 5.19144 5.19145h20.76871c2.87635 0 5.19145-2.3151 5.19145-5.19145 0-0.51629-0.0775-1.01388-0.21656-1.48389-0.63568 2.1485-2.61483 3.70901-4.97489 3.70901h-20.76871c-2.36006 0-4.33921-1.56051-4.97489-3.70901z"/><path d="m476.96573 203.38927c-0.13907 0.47001-0.21655 0.9676-0.21655 1.48389 0 2.87635 2.31509 5.19145 5.19144 5.19145h20.76871c2.87635 0 5.19145-2.3151 5.19145-5.19145 0-0.51629-0.0775-1.01388-0.21656-1.48389-0.63568 2.1485-2.61483 3.70901-4.97489 3.70901h-20.76871c-2.36006 0-4.33921-1.56051-4.97489-3.70901z"/><path d="m471.17193 128.09902a63.123249 63.123249 0 0 1 -62.98242 59.14844 63.123249 63.123249 0 0 1 -6.99219 -0.4668v6.28321a63.123249 63.123249 0 0 0 6.99219 0.49609 63.123249 63.123249 0 0 0 63.12305 -63.12305 63.123249 63.123249 0 0 0 -0.14063 -2.33789z"/><path d="m442.19732 136.59902a69.148651 69.148651 0 0 0 -0.15039 3.30469 69.148651 69.148651 0 0 0 69.14844 69.15039 69.148651 69.148651 0 0 0 18.16992 -2.56836v-6.32422a69.148651 69.148651 0 0 1 -18.16992 2.58008 69.148651 69.148651 0 0 1 -68.99805 -66.14258z"/></g><g transform="matrix(1.3249589,0,0,1.3249589,456.90716,459.5049)" fill="#1a1a1a"><rect x="476.74908" y="196.71376" width="31.151806" height="10.383935" ry="5.1919675"/><path d="m465.23248 119.93691c-38.73587 0-70.31514 29.48548-73.65039 67.32617a63.123249 63.123249 0 0 0 16.60742 2.29688 63.123249 63.123249 0 0 0 63.12305 -63.12305 63.123249 63.123249 0 0 0 -0.37695 -6.26172c-1.88361-0.14248-3.78182-0.23828-5.70313-0.23828z"/><path d="m465.23248 119.93691c-7.65689 0-15.03289 1.15223-21.96875 3.29297a69.148651 69.148651 0 0 0 -1.2168 12.67383 69.148651 69.148651 0 0 0 69.14844 69.15039 69.148651 69.148651 0 0 0 27.99609 -6.01562v-5.14258c1e-5 -40.97326-32.98572-73.95899-73.95898-73.95899z"/></g><path d="m1007.1973 964.38477c-33.32086 0-60.14652 28.37724-60.14652 63.62503v5.8418a256 256 0 0 0 122.44142 32.3046h4.8906a256 256 0 0 0 121.6074 -32.539v-5.6074c0-35.24779-26.8237-63.62503-60.1445-63.62503z" fill="#e91e63" stroke-width="1.32495892"/><rect x="1023.4529" y="945.66229" width="96.135277" height="39.466061" ry="6.9189477" fill="#d81558" stroke-width="1.32495892"/><g transform="matrix(1.3249589,0,0,1.3249589,1366.3933,-262.50522)" fill="#dba27e"><circle cx="-227.09254" cy="795.74542" r="1.7571586"/><circle cx="-215.01009" cy="795.74542" r="1.7571586"/></g><rect transform="rotate(14.011684)" x="1333.5824" y="669.68481" width="38.94418" height="14.835878" ry="7.4179392" fill="#f7aec7" opacity=".67400004" stroke-width="1.32495892"/><path d="m1078.3859 635.91457s64.9069 12.05415 74.1794 64.90696" fill="none" opacity=".67400004" stroke="#646464" stroke-linecap="round" stroke-width="13.24958897"/><path d="m1059.3942 841.26271s18.2101-1.35128 26.0017 7.29505" fill="none" opacity=".67400004" stroke="#f8afae" stroke-linecap="round" stroke-width="6.62479448"/><rect x="1037.7415" y="722.82556" width="16.33205" height="3.1159832" ry="1.5579916" fill="#4b4b4b" stroke-width="1.32495892"/></g></svg>
