<?xml version="1.0" encoding="UTF-8"?>
<!-- Generator: Adobe Illustrator 19.0.0, SVG Export Plug-In . SVG Version: 6.00 Build 0)  -->
<svg width="512" height="512" version="1.1" viewBox="0 0 512.00003 512.00002" xml:space="preserve" xmlns="http://www.w3.org/2000/svg" xmlns:cc="http://creativecommons.org/ns#" xmlns:dc="http://purl.org/dc/elements/1.1/" xmlns:rdf="http://www.w3.org/1999/02/22-rdf-syntax-ns#"><defs><linearGradient id="linearGradient7834" x1="1452.4229" x2="772.341" y1="569.99146" y2="-115.36234" gradientTransform="matrix(.74994386 0 0 .74994386 -1089.2356 -425.48487)" gradientUnits="userSpaceOnUse"><stop stop-color="#fbc02d" offset="0"/><stop stop-color="#e91e63" offset="1"/></linearGradient></defs><metadata><rdf:RDF><cc:Work rdf:about=""><dc:format>image/svg+xml</dc:format><dc:type rdf:resource="http://purl.org/dc/dcmitype/StillImage"/><dc:title/></cc:Work></rdf:RDF></metadata><circle transform="scale(-1,1)" cx="1257.9071" cy="292.25073" r="0" fill="#9ed1fa" stroke-width=".74994367"/><circle transform="scale(-1)" cx="-256" cy="-255.99998" r="256" fill="url(#linearGradient7834)" stroke-width=".74994391"/><g transform="translate(-1408.7234,-548.35854)" fill="#844b24"><ellipse cx="1564.1914" cy="897.78717" rx="27.402765" ry="28.355904"/><ellipse cx="1544.885" cy="929.71704" rx="36.013905" ry="37.26656"/><ellipse cx="1611.715" cy="969.815" rx="26.192213" ry="27.103245"/><ellipse cx="1571.6171" cy="958.6767" rx="34.803352" ry="36.013901"/><g transform="matrix(-1,0,0,1,3329.4468,0)"><ellipse cx="1564.1914" cy="897.78717" rx="27.402765" ry="28.355904"/><ellipse cx="1544.885" cy="929.71704" rx="36.013905" ry="37.26656"/><ellipse cx="1611.715" cy="969.815" rx="26.192213" ry="27.103245"/><ellipse cx="1571.6171" cy="958.6767" rx="34.803352" ry="36.013901"/></g><rect x="1556.5715" y="699.73987" width="213.2942" height="273.8826" ry="118.20199"/></g><g transform="translate(147.31059,-553.63953)"><path d="m12.0363 846.67525v18.9668c0 52.71185 42.4366 95.14648 95.1485 95.14648 52.7118 0 95.1484-42.43463 95.1484-95.14648v-18.9668c0 52.71185-42.4366 95.14844-95.1484 95.14844-52.7119 0-95.1485-42.43659-95.1485-95.14844z" fill="#73411f"/><rect x="74.995667" y="907.82507" width="64.377914" height="118.8485" ry="34.420605" fill="#dfac8a" stroke-width="1.33244514"/><ellipse cx="10.557552" cy="831.15002" rx="20.231163" ry="19.371706" fill="#e4ba9e" stroke-width="1.40809393"/><ellipse cx="3.2090421" cy="851.81635" rx="8.638134" ry="8.2711697" fill="#f06292" stroke-width="1.40809393"/><ellipse cx="10.557552" cy="831.15002" rx="10.327717" ry="9.8889771" fill="#ffd5d5" stroke-width=".71881163"/><ellipse transform="scale(-1,1)" cx="-204.95355" cy="831.15002" rx="20.231163" ry="19.371706" fill="#e4ba9e" stroke-width="1.40809393"/><ellipse transform="scale(-1,1)" cx="-212.30206" cy="851.81635" rx="8.638134" ry="8.2711697" fill="#f06292" stroke-width="1.40809393"/><ellipse transform="scale(-1,1)" cx="-204.95355" cy="831.15002" rx="10.327717" ry="9.8889771" fill="#ffd5d5" stroke-width=".71881163"/><rect x="12.036922" y="729.10663" width="190.29547" height="220.46423" ry="95.147743" fill="#e9c6af"/><path d="m12.0363 835.45677v18.9668c0 52.71185 42.4366 95.14648 95.1485 95.14648 52.7118 0 95.1484-42.43463 95.1484-95.14648v-18.9668c0 52.71185-42.4366 95.14844-95.1484 95.14844-52.7119 0-95.1485-42.43659-95.1485-95.14844z" fill="#e4ba9e"/></g><g transform="matrix(.64915119 0 0 .62157406 695.76569 -195.89292)"><path d="m-750.72461 809.82617v20.32227c0 37.68282 30.33671 68.01953 68.01953 68.01953h11.87891c37.68282 0 68.01953-30.33671 68.01953-68.01953v-20.32227z" fill="#f2706e"/><rect x="-750.72491" y="801.21918" width="147.918" height="34.430862" ry="3.347445" fill="#f2f2f2"/><path d="m-750.72357 809.25402v22.37891c0 2.22538 2.73054 4.01758 6.12478 4.01758h135.66577c3.39423 0 6.12478-1.7922 6.12478-4.01758v-22.37891z" fill="#fff"/><path d="m-697.91992 855.34961c-14.92457 0.21231-29.00163 5.34036-40.36524 14.08203 12.29566 17.40245 32.55905 28.73633 55.58008 28.73633h11.87891c15.13062 0 29.0721-4.89777 40.3457-13.19141-9.82678-13.21805-24.47234-22.91548-42.00781-26.22656l-11.67383-2.20312c-4.62856-0.87398-9.23139-1.26166-13.75781-1.19727z" fill="#ef5350"/></g><path d="m242.49019 342.35795s17.9997-1.27893 25.7013 6.90446" fill="none" opacity=".67400004" stroke="#f8afae" stroke-linecap="round" stroke-width="6.4076705"/><g transform="matrix(1.0051971,0,0,1.3778601,478.64249,-801.20382)" fill="#dba27e"><circle cx="-227.09254" cy="795.74542" r="1.7571586"/><circle cx="-215.01009" cy="795.74542" r="1.7571586"/></g><rect x="223.64645" y="256.6651" width="15.465465" height="29.86791" ry="7.7327323" fill="#3d3d3d" stroke-width="1.21007299"/><g transform="translate(-1407.6311,-548.90477)" fill="#e0af90" stroke-width="1.33344591"><path d="m1662.6367 743.45508c-13.7386 25.40371-46.3781 38.96041-87.4414 50.24219-1.3326-5e-3 -2.4777 0.35546-3.5019 0.9375v5.42578c1.0247-0.58263 2.1686-0.94494 3.5019-0.93946 43.8945-12.05961 78.1642-26.71649 90.0117-55.66601z"/><path d="m1659.7266 743.45508c11.9461 28.77703 46.1436 43.38091 89.9062 55.4043 2.326-0.01 4.0819 1.09052 5.6133 2.55859v-5.42969c-1.5311-1.46725-3.2879-2.56229-5.6133-2.55273-40.9224-11.2431-73.4802-24.74474-87.3008-49.98047z"/></g><g transform="translate(147.31059,-553.63953)"><path d="m107.3332 710.30354c-52.4535 0-98.2232 48.48945-102.7394 98.17712 7.3246 1.97045 8.8734-9.7951 16.4745-9.76384 54.7251-15.03523 94.4979-34.10206 94.4981-79.8783-0.03-2.74721-0.1998-5.4913-0.5103-8.2221-2.5507-0.18709-5.1211-0.31288-7.7229-0.31288z" fill="#844b24" stroke-width="1.33344591"/><path d="m107.3332 710.30354c52.4535 0 98.2232 48.48945 102.7394 98.17712-7.3246 1.97045-8.8734-9.7951-16.4745-9.76384-54.7251-15.03523-94.4979-34.10206-94.4981-79.8783 0.03-2.74721 0.1998-5.4913 0.5103-8.2221 2.5507-0.18709 5.1211-0.31288 7.7229-0.31288z" fill="#844b24" stroke-width="1.33344591"/><circle cx="17.358212" cy="974.31744" r="13.555669" fill="#965529"/><circle transform="scale(-1,1)" cx="-201.99603" cy="974.31744" r="13.555669" fill="#965529"/><path d="m38.839844 971.12109c-23.4484 0-42.3261721 17.22179-42.3261721 38.61331v29.666a256 256 0 0 0 60.0996091 20.8262h24.552735v-50.4922c0-21.39152-18.877872-38.61331-42.326172-38.61331z" fill="#ee4880"/><path d="m175.5293 971.12109c-23.4484 0-42.32618 17.22179-42.32618 38.61331v50.4922h26.51758a256 256 0 0 0 58.13477 -19.3243v-31.1679c0-21.39152-18.87787-38.61331-42.32617-38.61331z" fill="#ee4880"/><path d="m74.994141 955.08203c-31.2609 12.66061-53.205078 28.39759-53.205079 64.30467v30.7129a256 256 0 0 0 86.900388 15.5391 256 256 0 0 0 83.88867 -14.4473v-31.8047c0-35.90678-21.94467-51.64383-53.20507-64.30467v12.03711c0 17.83268-14.3549 32.18945-32.1875 32.18945-17.832703 0-32.191409-14.35677-32.191409-32.18945z" fill="#f06292"/></g><path d="m209.10749 242.97192c-0.1824 0.64761-0.2841 1.33322-0.2841 2.04459 0 3.96321 3.0366 7.15309 6.8095 7.15309h27.2417c3.7727 0 6.8094-3.18988 6.8094-7.15309 0-0.71137-0.1017-1.39698-0.284-2.04459-0.8338 2.96033-3.4298 5.1105-6.5254 5.1105h-27.2417c-3.0956 0-5.6916-2.15017-6.5254-5.1105z" fill="#e0af90" stroke-width="1.34435654"/><rect x="209.22093" y="237.9682" width="40.316647" height="11.300592" ry="5.6502962" fill="#844b24" stroke-width="1.18677998"/><rect x="233.87645" y="240.43182" width="13.012074" height="3.2403941" ry="1.6201971" fill="#a55d2d" stroke-width="1.20602608"/><path d="m263.35939 242.97192c-0.1824 0.64761-0.2841 1.33322-0.2841 2.04459 0 3.96321 3.0366 7.15309 6.8095 7.15309h27.2417c3.7727 0 6.8094-3.18988 6.8094-7.15309 0-0.71137-0.1017-1.39698-0.284-2.04459-0.8338 2.96033-3.4298 5.1105-6.5254 5.1105h-27.2417c-3.0956 0-5.6916-2.15017-6.5254-5.1105z" fill="#e0af90" stroke-width="1.34435654"/><rect transform="scale(-1,1)" x="-303.66391" y="237.9682" width="40.316647" height="11.300592" ry="5.6502962" fill="#844b24" stroke-width="1.18677998"/><rect x="287.43307" y="240.43182" width="13.012074" height="3.2403941" ry="1.6201971" fill="#a55d2d" stroke-width="1.20602608"/><g transform="translate(147.31059,-553.63953)" fill="#965529"><circle cx="-13.492374" cy="932.24817" r="16.827726"/><circle cx="2.4003263" cy="898.59271" r="9.8161736"/><circle transform="scale(-1,1)" cx="-232.84662" cy="932.24817" r="16.827726"/><circle transform="scale(-1,1)" cx="-216.95392" cy="898.59271" r="9.8161736"/></g><path d="m271.24459 172.00154s34.1229 5.1418 55.625 35.05776" fill="none" stroke="#f6a6c1" stroke-linecap="round" stroke-linejoin="round" stroke-width="8"/><path d="m254.49539 186.48716c-39.8441 0-73.8111 24.24893-88.0235 58.85157 0.5935-0.16891 1.2238-0.26453 1.9063-0.26172 0.2895-0.0796 0.5726-0.16045 0.8613-0.24024 15.5411-31.31284 47.8013-52.74023 85.2559-52.74023 0.9018 0 1.7996 0.0144 2.6953 0.0391 0.8433-1.78363 1.6016-3.62226 2.2636-5.52148-1.6423-0.0836-3.2952-0.12696-4.9589-0.12696z" fill="#754320"/><rect transform="rotate(30)" x="237.34497" y="53.39719" width="68.588921" height="21.891712" ry="10.945856" fill="#ee4880" stroke-width="2.15448904"/><g transform="translate(147.31059,-553.63953)" fill="#754320"><path d="m107.1848 740.12669c-1.5651 0-3.1199 0.0393-4.6661 0.11328 0.6622 1.90119 1.4199 3.74198 2.2637 5.52735 0.7985-0.0196 1.599-0.0312 2.4024-0.0312 37.4158 0 69.6494 21.38249 85.2089 52.64258 0.4037 0.1118 0.7998 0.22654 1.2051 0.33789 0.5576-2e-3 1.079 0.0651 1.5762 0.17968-14.2324-34.55901-48.1777-58.76953-87.9902-58.76953z"/><g stroke-width="2.15448904"><path d="m44.8195 763.70677c-0.5503 0.37486-1.1138 0.72636-1.6875 1.0586v4.99218c0 6.06401 4.8813 10.94727 10.9453 10.94727 2.7915 0 5.3244-1.04382 7.2539-2.75195-1.6306 0.96263-3.5281 1.52343-5.5664 1.52343-6.064 0-10.9453-4.88131-10.9453-10.94531z"/><path d="m27.3098 748.45091c-5.2516 3.032-7.0379 9.70155-4.0059 14.95313 2.9943 5.18624 9.5316 6.98349 14.7519 4.10742-4.5858 1.0913-9.5068-0.88033-11.9902-5.18164-3.032-5.25158-1.2457-11.92112 4.0059-14.95313z"/><path d="m29.3 742.39037a14.728061 15.265021 0 0 1 -1.1016 1.71484c0.2116 0.14241 0.4222 0.28648 0.6465 0.41601l3.0117 1.73829a43.033554 23.702972 0 0 1 2.1973 -1.0625l-3.8281-2.20899c-0.3216-0.18566-0.6305-0.38587-0.9258-0.59765z"/></g></g><g transform="translate(147.31059,-553.63953)"><path d="m107.1848 717.10716c-52.7119 0-95.1485 42.43464-95.1485 95.14649v23.01953c0-52.71185 42.4366-95.14649 95.1485-95.14649 52.7118 0 95.1484 42.43464 95.1484 95.14649v-23.01953c0-52.71185-42.4366-95.14649-95.1484-95.14649z" fill="#f06292"/><g stroke-width="2.15448904"><path d="m41.9869 765.8307c-5.2516 3.032-12.8489 1.70767-15.8809-3.54392l-1.803 2.81728c3.032 5.25158 9.7575 6.45799 15.0091 3.42599z" fill="#ec2e6e"/><rect transform="rotate(-30)" x="-358.59189" y="662.28302" width="68.588921" height="21.891712" ry="10.945856" fill="#ee4880"/><path d="m65.6515 763.52904a33.521679 41.269253 0 0 1 -0.1 2.0957l3.8868 2.24414c5.2515 3.032 11.9191 1.24572 14.9511-4.00586 0-8e-3 0.01-0.0172 0.012-0.0254-3.3447 4.0509-9.1811 5.21591-13.8886 2.49805z" fill="#754320"/><rect transform="rotate(-90)" x="-779.47656" y="44.818783" width="68.588921" height="21.891712" ry="10.945856" fill="#ee4880"/></g><circle cx="55.764584" cy="745.18213" r="14.851094" fill="#00bcd4"/><path d="m50.0969 731.46849a14.851094 14.851094 0 0 0 -9.1836 13.71289 14.851094 14.851094 0 0 0 14.8515 14.85156 14.851094 14.851094 0 0 0 7.502 -2.05468 14.851094 14.851094 0 0 1 -5.668 1.13671 14.851094 14.851094 0 0 1 -14.8516 -14.8496 14.851094 14.851094 0 0 1 7.3497 -12.79688z" fill="#0092a5"/></g><g transform="translate(147.31059,-553.63953)" fill="none" stroke-linecap="round" stroke-linejoin="round"><path d="m55.7626 734.18939s9.8102 1.35674 11.3757 10.12331" stroke="#6aeeff" stroke-width="4"/><path d="m53.8841 714.36025s8.5579-0.20873 9.4971 6.88802" stroke="#f597b6" stroke-width="3"/><path d="m82.8284 735.82076s0.2405-8.55707-6.8527-9.52261" stroke="#f597b6" stroke-width="3"/><path d="m140.5061 731.58029s23.3776 4.17456 40.9107 32.97901" stroke="#f599b8" stroke-width="6"/></g><rect x="273.77292" y="256.6651" width="15.465465" height="29.86791" ry="7.7327323" fill="#3d3d3d" stroke-width="1.21007299"/></svg>
