<?xml version="1.0" encoding="UTF-8"?>
<!-- Created with Inkscape (http://www.inkscape.org/) -->
<svg width="149.80994mm" height="18.190104mm" version="1.1" viewBox="0 0 149.80994 18.190103" xmlns="http://www.w3.org/2000/svg" xmlns:cc="http://creativecommons.org/ns#" xmlns:dc="http://purl.org/dc/elements/1.1/" xmlns:rdf="http://www.w3.org/1999/02/22-rdf-syntax-ns#">
 <metadata>
  <rdf:RDF>
   <cc:Work rdf:about="">
    <dc:format>image/svg+xml</dc:format>
    <dc:type rdf:resource="http://purl.org/dc/dcmitype/StillImage"/>
    <dc:title/>
   </cc:Work>
  </rdf:RDF>
 </metadata>
 <g transform="translate(-29.441596,-53.052862)">
  <g stroke-width=".26458332" style="font-feature-settings:normal;font-variant-caps:normal;font-variant-ligatures:normal;font-variant-numeric:normal" aria-label="who we are">
   <g fill="#00c853">
    <path d="m41.740587 62.147914-2.067057 7.2347-4.082438 0.537435-6.149496-12.164632 5.064291-2.842203 3.100585 8.268228 2.428793-6.5319 4.134114 0.56844 1.705322 5.96346 2.480469-8.567952 5.622396 3.079916-6.035807 11.689208-4.619873-0.992187z"/>
    <path d="m59.879015 65.021123 0.37207 3.493327-3.958414 0.692464-1.79834-11.451497 4.402832-1.881022 0.496093 4.960937 3.96875-0.454752 0.06201-4.51652 6.893636 0.692464-2.635498 12.702067-4.433838-1.312582 0.05168-3.296956z"/>
    <path d="m79.247339 69.382614q-3.493327 0-5.96346-2.118734-2.459798-2.118733-2.459798-5.115966t2.459798-5.115967q2.470133-2.118733 5.96346-2.118733 3.482991 0 5.94279 2.118733 2.470133 2.118734 2.470133 5.115967t-2.470133 5.115966q-2.459799 2.118734-5.94279 2.118734zm-0.578776-4.51652q1.488281 0 2.54248-0.909505 1.064535-0.909505 1.064535-2.191081 0-1.281575-1.064535-2.19108-1.054199-0.909506-2.54248-0.909506-1.498617 0-2.563151 0.909506-1.054199 0.909505-1.054199 2.19108 0 1.281576 1.054199 2.191081 1.064534 0.909505 2.563151 0.909505z"/>
   </g>
   <path d="m105.73668 62.147914-2.06706 7.2347-4.082435 0.537435-6.149495-12.164632 5.06429-2.842203 3.10059 8.268228 2.42879-6.5319 4.13411 0.56844 1.70533 5.96346 2.48046-8.567952 5.6224 3.079916-6.03581 11.689208-4.61987-0.992187z" fill="#2196f3" stroke-width=".26458332" style="font-feature-settings:normal;font-variant-caps:normal;font-variant-ligatures:normal;font-variant-numeric:normal"/>
   <path d="m128.86705 53.052862 0.26871 5.477702-6.42854 0.692464 0.0827 1.250569 4.2168-0.39274 0.37207 3.741373-4.40284 0.320394 0.0724 1.012858 6.24251-0.475423 0.93018 4.702555-12.30933 0.423747 1.25057-14.913818z" fill="#2196f3" stroke-width=".26458332" style="font-feature-settings:normal;font-variant-caps:normal;font-variant-ligatures:normal;font-variant-numeric:normal"/>
   <g fill="#e91e63">
    <path d="m140.7733 67.315557-0.72347 2.067057-4.0721-2.459798 5.10563-12.009602 3.88607-0.268718 6.10815 12.433349-4.82658 2.304769-1.06453-2.904215zm3.53467-4.526855-1.15755-3.741374-1.36426 4.134114z"/>
    <path d="m156.66897 58.323858 0.1447 2.790527q5.16764 0 5.16764-1.033528 0-1.033529-5.31234-1.756999zm0.69247 10.221598-5.75676 0.806152 1.1989-15.430582q13.31184 0.992188 13.75626 5.333008 0.45475 4.330485-4.57853 5.994466l4.13411 2.242757-4.23746 3.751709-4.84725-5.994466z"/>
    <path d="m177.89764 53.052862 0.26872 5.477702-6.42855 0.692464 0.0827 1.250569 4.2168-0.39274 0.37207 3.741373-4.40283 0.320394 0.0723 1.012858 6.24252-0.475423 0.93017 4.702555-12.30932 0.423747 1.25057-14.913818z"/>
   </g>
  </g>
 </g>
</svg>
