<?xml version="1.0" encoding="UTF-8"?>
<!-- Created with Inkscape (http://www.inkscape.org/) -->
<svg width="893.74109" height="375.39963" version="1.1" viewBox="0 0 236.46899 99.324488" xmlns="http://www.w3.org/2000/svg" xmlns:cc="http://creativecommons.org/ns#" xmlns:dc="http://purl.org/dc/elements/1.1/" xmlns:rdf="http://www.w3.org/1999/02/22-rdf-syntax-ns#">
 <metadata>
  <rdf:RDF>
   <cc:Work rdf:about="">
    <dc:format>image/svg+xml</dc:format>
    <dc:type rdf:resource="http://purl.org/dc/dcmitype/StillImage"/>
    <dc:title/>
   </cc:Work>
  </rdf:RDF>
 </metadata>
 <g transform="translate(84.381841,-127.3395)">
  <g fill="none" stroke="#2196f3" stroke-linecap="round">
   <rect x="-83.967834" y="151.41309" width="78.546997" height="74.836899" ry=".91264534" stroke-width=".82800609"/>
   <path d="m-82.944627 127.75463h76.5005742c0.5662358 0 1.0220862 0.45585 1.0220862 1.02208v21.57891c0 0.56624-0.4558504 1.02209-1.0220862 1.02209h-76.5005742c-0.566235 0-1.022086-0.45585-1.022086-1.02209v-21.57891c0-0.56623 0.455851-1.02208 1.022086-1.02208z" stroke-width=".83025652"/>
   <rect x="-5.4208374" y="151.41309" width="78.546997" height="74.836899" ry=".91264534" stroke-width=".82800609"/>
   <path d="m-4.3976296 127.75463h76.5005736c0.566236 0 1.022087 0.45585 1.022087 1.02208v21.57891c0 0.56624-0.455851 1.02209-1.022087 1.02209h-76.5005736c-0.5662358 0-1.0220863-0.45585-1.0220863-1.02209v-21.57891c0-0.56623 0.4558505-1.02208 1.0220863-1.02208z" stroke-width=".83025652"/>
   <rect x="73.126152" y="151.41309" width="78.546997" height="74.836899" ry=".91264534" stroke-width=".82800609"/>
   <rect x="73.127274" y="127.75463" width="78.544746" height="23.623077" ry="1.0220863" stroke-width=".83025652"/>
  </g>
  <g transform="translate(140.5765 .37268848)" fill="#616161" stroke-width=".26458332">
   <g style="font-feature-settings:normal;font-variant-caps:normal;font-variant-ligatures:normal;font-variant-numeric:normal" aria-label="Parallel">
    <path d="m-195.68536 136.2639v1.7191h-1.16444v-5.01606h1.91547q0.89228 0 1.41593 0.45476 0.52366 0.45475 0.52366 1.19544 0 0.7407-0.52366 1.19545-0.52365 0.45131-1.41593 0.45131zm0-0.89573h0.75103q0.37896 0 0.57877-0.2067 0.19982-0.21015 0.19982-0.53744 0-0.33417-0.19982-0.54777-0.19637-0.21359-0.57877-0.21359h-0.75103z" style="font-feature-settings:normal;font-variant-caps:normal;font-variant-ligatures:normal;font-variant-numeric:normal"/>
    <path d="m-190.30068 137.97956q-0.0654-0.11714-0.11369-0.26528-0.0448-0.14813-0.0689-0.31005-0.15158 0.29627-0.37551 0.47542-0.22049 0.1757-0.57878 0.1757-0.58567 0-0.91295-0.29972-0.32384-0.30317-0.32384-0.82338 0-0.55466 0.41686-0.85439 0.41685-0.30316 1.26435-0.30316h0.47887v-0.26528q0-0.23771-0.11369-0.36518t-0.34796-0.12747q-0.20326 0-0.30316 0.0965-0.0965 0.093-0.0965 0.29283l-1.12999-3e-3 -7e-3 -0.0207q-0.0241-0.50987 0.42375-0.85093 0.45131-0.34451 1.18856-0.34451 0.69246 0 1.11965 0.34451 0.43064 0.34451 0.43064 0.98529v1.4056q0 0.29628 0.0482 0.55122 0.0517 0.25493 0.15158 0.50987zm-0.81993-0.75448q0.2136 0 0.37551-0.0999 0.16537-0.0999 0.23083-0.23771v-0.49265h-0.46854q-0.27905 0-0.40307 0.13436-0.12403 0.13436-0.12403 0.34107 0 0.15847 0.1068 0.25838 0.11024 0.0965 0.2825 0.0965z" style="font-feature-settings:normal;font-variant-caps:normal;font-variant-ligatures:normal;font-variant-numeric:normal"/>
    <path d="m-186.64543 135.2476-0.37896-3e-3q-0.19982 0-0.32729 0.0758-0.12746 0.0724-0.18948 0.20671v2.45635h-1.16444v-3.72759h1.09554l0.0413 0.54777q0.11714-0.29283 0.31006-0.45475 0.19293-0.16192 0.45131-0.16192 0.0792 0 0.14125 0.0103 0.062 0.0103 0.13091 0.031z" style="font-feature-settings:normal;font-variant-caps:normal;font-variant-ligatures:normal;font-variant-numeric:normal"/>
    <path d="m-184.05817 137.97956q-0.0654-0.11714-0.11368-0.26528-0.0448-0.14813-0.0689-0.31005-0.15158 0.29627-0.37551 0.47542-0.22049 0.1757-0.57878 0.1757-0.58566 0-0.91295-0.29972-0.32384-0.30317-0.32384-0.82338 0-0.55466 0.41686-0.85439 0.41686-0.30316 1.26435-0.30316h0.47887v-0.26528q0-0.23771-0.11369-0.36518t-0.34795-0.12747q-0.20326 0-0.30317 0.0965-0.0965 0.093-0.0965 0.29283l-1.13-3e-3 -7e-3 -0.0207q-0.0241-0.50987 0.42375-0.85093 0.45131-0.34451 1.18856-0.34451 0.69246 0 1.11965 0.34451 0.43064 0.34451 0.43064 0.98529v1.4056q0 0.29628 0.0482 0.55122 0.0517 0.25493 0.15159 0.50987zm-0.81993-0.75448q0.2136 0 0.37552-0.0999 0.16536-0.0999 0.23082-0.23771v-0.49265h-0.46853q-0.27906 0-0.40308 0.13436t-0.12402 0.34107q0 0.15847 0.10679 0.25838 0.11025 0.0965 0.2825 0.0965z" style="font-feature-settings:normal;font-variant-caps:normal;font-variant-ligatures:normal;font-variant-numeric:normal"/>
    <path d="m-181.24352 137.983h-1.16789v-5.37435h1.16789z" style="font-feature-settings:normal;font-variant-caps:normal;font-variant-ligatures:normal;font-variant-numeric:normal"/>
    <path d="m-179.31427 137.983h-1.16789v-5.37435h1.16789z" style="font-feature-settings:normal;font-variant-caps:normal;font-variant-ligatures:normal;font-variant-numeric:normal"/>
    <path d="m-176.95093 138.05535q-0.8475 0-1.32981-0.51332-0.47887-0.51332-0.47887-1.2988v-0.13092q0-0.85438 0.45131-1.39181 0.45475-0.53744 1.31258-0.53399 0.75448 0 1.16789 0.4513 0.41685 0.45131 0.41685 1.23679v0.60979h-2.13596l-7e-3 0.0207q0.0276 0.29283 0.21705 0.47542 0.18948 0.17914 0.54432 0.17914 0.33418 0 0.55466-0.0551 0.22393-0.0551 0.50988-0.1757l0.27905 0.70969q-0.24116 0.1757-0.64768 0.29628t-0.85438 0.12058zm-0.0448-2.97312q-0.27905 0-0.41341 0.17915-0.13091 0.1757-0.15159 0.47886l7e-3 0.0172h1.00597v-0.0896q0-0.28939-0.10335-0.43753-0.0999-0.14814-0.34451-0.14814z" style="font-feature-settings:normal;font-variant-caps:normal;font-variant-ligatures:normal;font-variant-numeric:normal"/>
    <path d="m-173.69187 137.983h-1.16789v-5.37435h1.16789z" style="font-feature-settings:normal;font-variant-caps:normal;font-variant-ligatures:normal;font-variant-numeric:normal"/>
   </g>
   <g style="font-feature-settings:normal;font-variant-caps:normal;font-variant-ligatures:normal;font-variant-numeric:normal" aria-label="lines">
    <path d="m-191.36865 145.70596h-1.16789v-5.37435h1.16789z" style="font-feature-settings:normal;font-variant-caps:normal;font-variant-ligatures:normal;font-variant-numeric:normal"/>
    <path d="m-189.4394 145.70596h-1.16789v-3.72759h1.16789zm0-4.59231h-1.16789v-0.78204h1.16789z" style="font-feature-settings:normal;font-variant-caps:normal;font-variant-ligatures:normal;font-variant-numeric:normal"/>
    <path d="m-187.65828 141.97837 0.0448 0.52365q0.18259-0.27905 0.45131-0.43408 0.26872-0.15847 0.59945-0.15847 0.54777 0 0.85438 0.37207 0.31006 0.37207 0.31006 1.18167v2.24275h-1.16444v-2.2462q0-0.35484-0.11369-0.50298-0.11369-0.15159-0.33073-0.15159-0.18604 0-0.33418 0.0655-0.14813 0.0655-0.24804 0.18603v2.64928h-1.161v-3.72759z" style="font-feature-settings:normal;font-variant-caps:normal;font-variant-ligatures:normal;font-variant-numeric:normal"/>
    <path d="m-183.10731 145.77831q-0.8475 0-1.32981-0.51332-0.47887-0.51332-0.47887-1.2988v-0.13091q0-0.85439 0.45131-1.39182 0.45475-0.53744 1.31258-0.53399 0.75448 0 1.16789 0.45131 0.41685 0.4513 0.41685 1.23678v0.60979h-2.13595l-7e-3 0.0207q0.0276 0.29283 0.21704 0.47542 0.18948 0.17915 0.54432 0.17915 0.33418 0 0.55466-0.0551 0.22393-0.0551 0.50988-0.1757l0.27905 0.70969q-0.24116 0.1757-0.64768 0.29628t-0.85438 0.12058zm-0.0448-2.97312q-0.27905 0-0.41341 0.17915-0.13091 0.1757-0.15159 0.47887l7e-3 0.0172h1.00596v-0.0896q0-0.28939-0.10335-0.43753-0.0999-0.14814-0.34451-0.14814z" style="font-feature-settings:normal;font-variant-caps:normal;font-variant-ligatures:normal;font-variant-numeric:normal"/>
    <path d="m-179.12478 144.65865q0-0.1378-0.15848-0.2446-0.15503-0.11024-0.56844-0.19637-0.65112-0.12747-0.98185-0.39274-0.33073-0.26872-0.33073-0.73725 0-0.49265 0.41341-0.83371 0.41341-0.34451 1.11966-0.34451 0.74414 0 1.18511 0.33417 0.44097 0.33073 0.4203 0.85783l-7e-3 0.0207h-1.12999q0-0.22048-0.11024-0.33417-0.11025-0.11369-0.36174-0.11369-0.18259 0-0.30661 0.0999t-0.12402 0.25493q0 0.14814 0.14124 0.2515 0.1447 0.10335 0.57878 0.18603 0.68557 0.13436 1.01286 0.40308 0.32728 0.26527 0.32728 0.75447 0 0.50299-0.44786 0.83027-0.44442 0.32384-1.17822 0.32384-0.76137 0-1.20579-0.38585-0.44097-0.38585-0.4203-0.86127l7e-3 -0.0207h1.0542q7e-3 0.26527 0.15848 0.3824 0.15503 0.11713 0.43752 0.11713 0.23427 0 0.35485-0.0896 0.12058-0.093 0.12058-0.26183z" style="font-feature-settings:normal;font-variant-caps:normal;font-variant-ligatures:normal;font-variant-numeric:normal"/>
   </g>
  </g>
  <g transform="matrix(.28584646 0 0 .28584646 137.62737 -58.162068)" fill="none" stroke="#e91e63" stroke-linecap="round" stroke-width="5.29166651">
   <path d="m-572.07326 805.38669v114.8254"/>
   <path d="m-550.24094 805.38669v114.8254"/>
  </g>
  <g transform="matrix(-.25625349 -.06866292 .06866292 -.25625349 -237.25023 282.09383)" fill="none" stroke="#303f9f" stroke-linecap="round" stroke-width="6.00578833">
   <path d="m-574.94986 540.37973 65.43906-65.43907"/>
   <path d="m-624.01845 555.37355 97.47027-97.47027"/>
  </g>
  <g transform="matrix(.21337516 0 0 -.21337516 24.421354 735.24212)" fill="none" stroke="#cddc39" stroke-linecap="round" stroke-width="6.6317482">
   <path d="m507.48799 2599.2822 60.48731-102.798"/>
   <path d="m438.40461 2614.0533 107.58702-51.4895"/>
  </g>
  <g transform="matrix(-.22358218 0 0 .22358218 -99.60436 -381.4109)" fill="none" stroke="#f57c00" stroke-linecap="round" stroke-width="5.29166651">
   <path d="m-891.14247 2613.4592v-119.2734"/>
   <path d="m-912.91665 2599.6902 98.07332-67.8806"/>
  </g>
  <rect transform="rotate(-29.999999)" x="-100.37801" y="159.00394" width="35.102146" height="35.102146" opacity="0" stroke-width=".89962238"/>
  <g transform="matrix(.84724591 0 0 .84724591 7.5142738 15.699587)">
   <g transform="matrix(.14371673 -.24892468 .24892468 .14371673 -314.02098 39.892679)" fill="#a80" stroke="#9c27b0" stroke-linecap="round" stroke-width="5.29166651">
    <path d="m96.7294 1410.4243h111.6775"/>
    <path d="m120.74932 1466.263v-111.6775"/>
   </g>
   <rect transform="rotate(30)" x="149.69003" y="152.98108" width="7.3365073" height="7.3365073" ry="0" fill="none" stroke="#9c27b0" stroke-linecap="round" stroke-width=".26458332"/>
   <g transform="rotate(30,-180.41999,165.10851)" fill="#9c27b0">
    <path d="m52.180459 84.098717q0.385851 0 0.614949-0.255626 0.229099-0.255626 0.229099-0.713824v-0.511252q-0.127813 0.214629-0.342442 0.330385-0.212218 0.115755-0.470256 0.115755-0.47749 0-0.766878-0.315916-0.286977-0.318326-0.286977-0.827167 0-0.513664 0.301446-0.851283 0.301446-0.340031 0.754821-0.340031 0.496783 0 0.803052 0.325562 0.306269 0.325561 0.306269 0.926041v1.143083q0 0.571541-0.318327 0.894691-0.315916 0.32315-0.824756 0.32315-0.180868 0-0.366558-0.03858-0.183279-0.03859-0.356912-0.113344l0.05305-0.233922q0.159164 0.07717 0.311092 0.110933 0.154341 0.03135 0.359324 0.03135zm0.03135-1.278131q0.306269 0 0.516075-0.15434 0.209807-0.15434 0.296623-0.381027v-0.335208q0-0.467844-0.217041-0.721059-0.217041-0.253214-0.581187-0.253214-0.340031 0-0.554661 0.272507-0.214629 0.272507-0.214629 0.672827 0 0.385851 0.20016 0.643888 0.202571 0.255626 0.55466 0.255626z" style="font-feature-settings:normal;font-variant-caps:normal;font-variant-ligatures:normal;font-variant-numeric:normal"/>
    <path d="m56.130605 83.052097q0 0.60048-0.291799 0.945334-0.289388 0.344854-0.795817 0.344854t-0.80064-0.344854q-0.294212-0.347266-0.294212-0.945334v-1.032151q0-0.595657 0.2918-0.942922 0.2918-0.347266 0.798229-0.347266t0.798228 0.347266q0.294211 0.347265 0.294211 0.942922zm-0.289388-1.077971q0-0.460609-0.209806-0.728293-0.207395-0.270095-0.593245-0.270095-0.385851 0-0.595657 0.270095-0.207395 0.270096-0.207395 0.728293v1.121379q0 0.455786 0.209806 0.730705 0.212218 0.272507 0.598069 0.272507 0.383439 0 0.590834-0.272507 0.207394-0.272507 0.207394-0.730705z" style="font-feature-settings:normal;font-variant-caps:normal;font-variant-ligatures:normal;font-variant-numeric:normal"/>
    <path d="m56.735909 81.537633q0-0.356912 0.209806-0.581188 0.212218-0.226687 0.56913-0.226687t0.56913 0.226687q0.212218 0.224276 0.212218 0.581188v0.282153q0 0.359324-0.212218 0.583599-0.209807 0.221865-0.564307 0.221865-0.359323 0-0.571541-0.221865-0.212218-0.224275-0.212218-0.583599zm0.260449 0.282153q0 0.258038 0.130225 0.417201 0.132636 0.159164 0.393085 0.159164 0.248392 0 0.381028-0.159164 0.135047-0.161575 0.135047-0.417201v-0.282153q0-0.250803-0.135047-0.412378-0.135048-0.161575-0.385851-0.161575t-0.385851 0.161575q-0.132636 0.161575-0.132636 0.412378z" style="font-feature-settings:normal;font-variant-caps:normal;font-variant-ligatures:normal;font-variant-numeric:normal"/>
   </g>
  </g>
  <g transform="matrix(.88014071 0 0 .88014071 .11918132 113.98917)">
   <g transform="matrix(.26576111 0 0 .26576111 -342.85798 -218.35242)" fill="#a80" stroke="#00c853" stroke-linecap="round" stroke-width="5.29166651">
    <path d="m1296.5234 1147.9411h111.6775"/>
    <path d="m1352.3621 1203.7798v-111.6775"/>
   </g>
   <rect x="12.879032" y="83.057411" width="7.3365073" height="7.3365073" ry="0" fill="none" stroke="#00c853" stroke-linecap="round" stroke-width=".26458332"/>
   <g transform="translate(-13.117824,1.2311509)" fill="#00c853">
    <path d="m35.408446 80.344057q0.385851 0 0.614949-0.255626 0.229099-0.255626 0.229099-0.713824v-0.511252q-0.127813 0.214629-0.342442 0.330385-0.212218 0.115755-0.470256 0.115755-0.47749 0-0.766878-0.315916-0.286977-0.318326-0.286977-0.827167 0-0.513664 0.301446-0.851283 0.301446-0.340031 0.754821-0.340031 0.496783 0 0.803052 0.325562 0.306269 0.325561 0.306269 0.926041v1.143083q0 0.571541-0.318327 0.894691-0.315916 0.32315-0.824756 0.32315-0.180868 0-0.366558-0.03858-0.183279-0.03859-0.356912-0.113344l0.05305-0.233922q0.159164 0.07717 0.311092 0.110933 0.154341 0.03135 0.359324 0.03135zm0.03135-1.278131q0.306269 0 0.516075-0.15434 0.209807-0.15434 0.296623-0.381027v-0.335208q0-0.467844-0.217041-0.721059-0.217041-0.253214-0.581187-0.253214-0.340031 0-0.554661 0.272507-0.214629 0.272507-0.214629 0.672827 0 0.385851 0.20016 0.643888 0.202571 0.255626 0.55466 0.255626z" style="font-feature-settings:normal;font-variant-caps:normal;font-variant-ligatures:normal;font-variant-numeric:normal"/>
    <path d="m39.358592 79.297437q0 0.60048-0.291799 0.945334-0.289388 0.344854-0.795817 0.344854t-0.80064-0.344854q-0.294212-0.347266-0.294212-0.945334v-1.032151q0-0.595657 0.2918-0.942922 0.2918-0.347266 0.798229-0.347266t0.798228 0.347266q0.294211 0.347265 0.294211 0.942922zm-0.289388-1.077971q0-0.460609-0.209806-0.728293-0.207395-0.270095-0.593245-0.270095-0.385851 0-0.595657 0.270095-0.207395 0.270096-0.207395 0.728293v1.121379q0 0.455786 0.209806 0.730705 0.212218 0.272507 0.598069 0.272507 0.383439 0 0.590834-0.272507 0.207394-0.272507 0.207394-0.730705z" style="font-feature-settings:normal;font-variant-caps:normal;font-variant-ligatures:normal;font-variant-numeric:normal"/>
    <path d="m39.963896 77.782973q0-0.356912 0.209806-0.581188 0.212218-0.226687 0.56913-0.226687t0.56913 0.226687q0.212218 0.224276 0.212218 0.581188v0.282153q0 0.359324-0.212218 0.583599-0.209807 0.221865-0.564307 0.221865-0.359323 0-0.571541-0.221865-0.212218-0.224275-0.212218-0.583599zm0.260449 0.282153q0 0.258038 0.130225 0.417201 0.132636 0.159164 0.393085 0.159164 0.248392 0 0.381028-0.159164 0.135047-0.161575 0.135047-0.417201v-0.282153q0-0.250803-0.135047-0.412378-0.135048-0.161575-0.385851-0.161575t-0.385851 0.161575q-0.132636 0.161575-0.132636 0.412378z" style="font-feature-settings:normal;font-variant-caps:normal;font-variant-ligatures:normal;font-variant-numeric:normal"/>
   </g>
  </g>
  <g transform="translate(181.30757 .37268848)" fill="#616161" stroke-width=".26458332">
   <g style="font-feature-settings:normal;font-variant-caps:normal;font-variant-ligatures:normal;font-variant-numeric:normal" aria-label="Perpendicular">
    <path d="m-168.06003 136.2639v1.7191h-1.16444v-5.01606h1.91547q0.89228 0 1.41594 0.45476 0.52365 0.45475 0.52365 1.19544 0 0.7407-0.52365 1.19545-0.52366 0.45131-1.41594 0.45131zm0-0.89573h0.75103q0.37896 0 0.57878-0.2067 0.19982-0.21015 0.19982-0.53744 0-0.33417-0.19982-0.54777-0.19637-0.21359-0.57878-0.21359h-0.75103z" style="font-feature-settings:normal;font-variant-caps:normal;font-variant-ligatures:normal;font-variant-numeric:normal"/>
    <path d="m-163.17488 138.05535q-0.84749 0-1.32981-0.51332-0.47887-0.51332-0.47887-1.2988v-0.13092q0-0.85438 0.45131-1.39181 0.45475-0.53744 1.31258-0.53399 0.75448 0 1.16789 0.4513 0.41686 0.45131 0.41686 1.23679v0.60979h-2.13596l-7e-3 0.0207q0.0276 0.29283 0.21704 0.47542 0.18948 0.17914 0.54432 0.17914 0.33418 0 0.55466-0.0551 0.22393-0.0551 0.50988-0.1757l0.27905 0.70969q-0.24116 0.1757-0.64768 0.29628t-0.85438 0.12058zm-0.0448-2.97312q-0.27905 0-0.41341 0.17915-0.13091 0.1757-0.15158 0.47886l7e-3 0.0172h1.00597v-0.0896q0-0.28939-0.10336-0.43753-0.0999-0.14814-0.34451-0.14814z" style="font-feature-settings:normal;font-variant-caps:normal;font-variant-ligatures:normal;font-variant-numeric:normal"/>
    <path d="m-159.07522 135.2476-0.37896-3e-3q-0.19981 0-0.32728 0.0758-0.12747 0.0724-0.18948 0.20671v2.45635h-1.16444v-3.72759h1.09554l0.0413 0.54777q0.11713-0.29283 0.31006-0.45475 0.19292-0.16192 0.4513-0.16192 0.0792 0 0.14125 0.0103 0.062 0.0103 0.13092 0.031z" style="font-feature-settings:normal;font-variant-caps:normal;font-variant-ligatures:normal;font-variant-numeric:normal"/>
    <path d="m-155.18915 136.19844q0 0.84061-0.37896 1.35048-0.37896 0.50643-1.06798 0.50643-0.26872 0-0.47887-0.10335-0.2067-0.10336-0.36173-0.29973v1.76389h-1.16445v-5.16075h1.09899l0.0344 0.40652q0.15503-0.22738 0.36863-0.3514 0.21704-0.12402 0.49609-0.12402 0.69246 0 1.07142 0.53399 0.38241 0.53399 0.38241 1.4056zm-1.161-0.0723q0-0.47198-0.1378-0.75793-0.1378-0.28594-0.44097-0.28594-0.19637 0-0.33418 0.0724-0.13436 0.0724-0.21359 0.21015v1.55718q0.0827 0.12058 0.21704 0.17915 0.1378 0.0586 0.33762 0.0586 0.30661 0 0.43752-0.25149 0.13436-0.25494 0.13436-0.70969z" style="font-feature-settings:normal;font-variant-caps:normal;font-variant-ligatures:normal;font-variant-numeric:normal"/>
    <path d="m-153.01874 138.05535q-0.84749 0-1.32981-0.51332-0.47886-0.51332-0.47886-1.2988v-0.13092q0-0.85438 0.4513-1.39181 0.45476-0.53744 1.31258-0.53399 0.75448 0 1.16789 0.4513 0.41686 0.45131 0.41686 1.23679v0.60979h-2.13596l-7e-3 0.0207q0.0276 0.29283 0.21704 0.47542 0.18948 0.17914 0.54432 0.17914 0.33418 0 0.55466-0.0551 0.22394-0.0551 0.50988-0.1757l0.27905 0.70969q-0.24115 0.1757-0.64768 0.29628-0.40652 0.12058-0.85438 0.12058zm-0.0448-2.97312q-0.27905 0-0.41341 0.17915-0.13091 0.1757-0.15158 0.47886l7e-3 0.0172h1.00597v-0.0896q0-0.28939-0.10336-0.43753-0.0999-0.14814-0.34451-0.14814z" style="font-feature-settings:normal;font-variant-caps:normal;font-variant-ligatures:normal;font-variant-numeric:normal"/>
    <path d="m-149.90782 134.25541 0.0448 0.52365q0.18259-0.27905 0.4513-0.43408 0.26872-0.15847 0.59945-0.15847 0.54777 0 0.85439 0.37207 0.31005 0.37207 0.31005 1.18166v2.24276h-1.16444v-2.2462q0-0.35485-0.11369-0.50298-0.11368-0.15159-0.33073-0.15159-0.18603 0-0.33417 0.0655t-0.24805 0.18603v2.64928h-1.16099v-3.72759z" style="font-feature-settings:normal;font-variant-caps:normal;font-variant-ligatures:normal;font-variant-numeric:normal"/>
    <path d="m-147.16552 136.1261q0-0.87161 0.37896-1.4056 0.3824-0.53399 1.07487-0.53399 0.25838 0 0.46509 0.12057 0.21015 0.11714 0.37551 0.33762v-2.03605h1.16444v5.37435h-1.01975l-0.0792-0.45475q-0.16881 0.25494-0.39619 0.39274-0.22393 0.13436-0.51676 0.13436-0.68902 0-1.06798-0.50988-0.37896-0.50987-0.37896-1.34703zm1.16444 0.0723q0 0.45475 0.13091 0.70969 0.13436 0.25149 0.44787 0.25149 0.18259 0 0.32039-0.0654 0.14125-0.0689 0.23082-0.19982v-1.50551q-0.0896-0.14813-0.22738-0.22737-0.1378-0.0792-0.31694-0.0792-0.31006 0-0.44787 0.28594-0.1378 0.28595-0.1378 0.75793z" style="font-feature-settings:normal;font-variant-caps:normal;font-variant-ligatures:normal;font-variant-numeric:normal"/>
    <path d="m-141.82218 137.983h-1.16789v-3.72759h1.16789zm0-4.59231h-1.16789v-0.78204h1.16789z" style="font-feature-settings:normal;font-variant-caps:normal;font-variant-ligatures:normal;font-variant-numeric:normal"/>
    <path d="m-139.51741 137.15962q0.23771 0 0.35484-0.12746 0.11714-0.13092 0.11714-0.37552h1.06109l7e-3 0.0207q0.0138 0.60978-0.42375 0.99563-0.43408 0.38241-1.11621 0.38241-0.85094 0-1.31258-0.52366-0.4582-0.5271-0.4582-1.37114v-0.0792q0-0.8406 0.4582-1.3677t1.30569-0.5271q0.70969 0 1.13344 0.39618 0.42719 0.39274 0.41341 1.07832l-7e-3 0.0207h-1.06109q0-0.26527-0.12058-0.43064-0.12058-0.16881-0.35829-0.16881-0.33762 0-0.47198 0.27216-0.13091 0.26872-0.13091 0.72692v0.0792q0 0.46853 0.13091 0.7338 0.13436 0.26527 0.47887 0.26527z" style="font-feature-settings:normal;font-variant-caps:normal;font-variant-ligatures:normal;font-variant-numeric:normal"/>
    <path d="m-135.25583 137.4249q-0.16536 0.30316-0.43064 0.46853-0.26182 0.16192-0.60633 0.16192-0.57878 0-0.90951-0.40652-0.32728-0.40652-0.32728-1.25746v-2.13596h1.161v2.14285q0 0.43752 0.11024 0.59944 0.11369 0.16192 0.34795 0.16192 0.18604 0 0.32729-0.0517t0.24115-0.15503v-2.69751h1.16445v3.72759h-0.93707z" style="font-feature-settings:normal;font-variant-caps:normal;font-variant-ligatures:normal;font-variant-numeric:normal"/>
    <path d="m-132.31372 137.983h-1.16788v-5.37435h1.16788z" style="font-feature-settings:normal;font-variant-caps:normal;font-variant-ligatures:normal;font-variant-numeric:normal"/>
    <path d="m-129.45084 137.97956q-0.0655-0.11714-0.11369-0.26528-0.0448-0.14813-0.0689-0.31005-0.15159 0.29627-0.37552 0.47542-0.22049 0.1757-0.57877 0.1757-0.58567 0-0.91296-0.29972-0.32383-0.30317-0.32383-0.82338 0-0.55466 0.41685-0.85439 0.41686-0.30316 1.26435-0.30316h0.47887v-0.26528q0-0.23771-0.11369-0.36518t-0.34795-0.12747q-0.20326 0-0.30317 0.0965-0.0965 0.093-0.0965 0.29283l-1.12999-3e-3 -7e-3 -0.0207q-0.0241-0.50987 0.42374-0.85093 0.45131-0.34451 1.18856-0.34451 0.69246 0 1.11966 0.34451 0.43063 0.34451 0.43063 0.98529v1.4056q0 0.29628 0.0482 0.55122 0.0517 0.25493 0.15159 0.50987zm-0.81994-0.75448q0.2136 0 0.37552-0.0999 0.16536-0.0999 0.23082-0.23771v-0.49265h-0.46853q-0.27906 0-0.40308 0.13436t-0.12402 0.34107q0 0.15847 0.1068 0.25838 0.11024 0.0965 0.28249 0.0965z" style="font-feature-settings:normal;font-variant-caps:normal;font-variant-ligatures:normal;font-variant-numeric:normal"/>
    <path d="m-125.7956 135.2476-0.37896-3e-3q-0.19981 0-0.32728 0.0758-0.12747 0.0724-0.18948 0.20671v2.45635h-1.16444v-3.72759h1.09554l0.0413 0.54777q0.11713-0.29283 0.31006-0.45475 0.19292-0.16192 0.4513-0.16192 0.0792 0 0.14125 0.0103 0.062 0.0103 0.13092 0.031z" style="font-feature-settings:normal;font-variant-caps:normal;font-variant-ligatures:normal;font-variant-numeric:normal"/>
   </g>
   <g style="font-feature-settings:normal;font-variant-caps:normal;font-variant-ligatures:normal;font-variant-numeric:normal" aria-label="lines">
    <path d="m-153.55273 145.70596h-1.16789v-5.37435h1.16789z" style="font-feature-settings:normal;font-variant-caps:normal;font-variant-ligatures:normal;font-variant-numeric:normal"/>
    <path d="m-151.62348 145.70596h-1.16789v-3.72759h1.16789zm0-4.59231h-1.16789v-0.78204h1.16789z" style="font-feature-settings:normal;font-variant-caps:normal;font-variant-ligatures:normal;font-variant-numeric:normal"/>
    <path d="m-149.84237 141.97837 0.0448 0.52365q0.18259-0.27905 0.45131-0.43408 0.26871-0.15847 0.59944-0.15847 0.54777 0 0.85439 0.37207 0.31006 0.37207 0.31006 1.18167v2.24275h-1.16445v-2.2462q0-0.35484-0.11368-0.50298-0.11369-0.15159-0.33073-0.15159-0.18604 0-0.33418 0.0655t-0.24804 0.18603v2.64928h-1.161v-3.72759z" style="font-feature-settings:normal;font-variant-caps:normal;font-variant-ligatures:normal;font-variant-numeric:normal"/>
    <path d="m-145.2914 145.77831q-0.84749 0-1.3298-0.51332-0.47887-0.51332-0.47887-1.2988v-0.13091q0-0.85439 0.45131-1.39182 0.45475-0.53744 1.31258-0.53399 0.75447 0 1.16789 0.45131 0.41685 0.4513 0.41685 1.23678v0.60979h-2.13596l-7e-3 0.0207q0.0276 0.29283 0.21704 0.47542 0.18948 0.17915 0.54433 0.17915 0.33417 0 0.55466-0.0551 0.22393-0.0551 0.50987-0.1757l0.27906 0.70969q-0.24116 0.1757-0.64768 0.29628t-0.85439 0.12058zm-0.0448-2.97312q-0.27905 0-0.41341 0.17915-0.13092 0.1757-0.15159 0.47887l7e-3 0.0172h1.00597v-0.0896q0-0.28939-0.10335-0.43753-0.0999-0.14814-0.34451-0.14814z" style="font-feature-settings:normal;font-variant-caps:normal;font-variant-ligatures:normal;font-variant-numeric:normal"/>
    <path d="m-141.30887 144.65865q0-0.1378-0.15847-0.2446-0.15503-0.11024-0.56844-0.19637-0.65112-0.12747-0.98185-0.39274-0.33073-0.26872-0.33073-0.73725 0-0.49265 0.41341-0.83371 0.41341-0.34451 1.11966-0.34451 0.74414 0 1.18511 0.33417 0.44097 0.33073 0.4203 0.85783l-7e-3 0.0207h-1.12999q0-0.22048-0.11024-0.33417-0.11025-0.11369-0.36174-0.11369-0.18259 0-0.30661 0.0999-0.12403 0.0999-0.12403 0.25493 0 0.14814 0.14125 0.2515 0.1447 0.10335 0.57878 0.18603 0.68557 0.13436 1.01286 0.40308 0.32728 0.26527 0.32728 0.75447 0 0.50299-0.44786 0.83027-0.44442 0.32384-1.17822 0.32384-0.76137 0-1.20579-0.38585-0.44097-0.38585-0.4203-0.86127l7e-3 -0.0207h1.0542q7e-3 0.26527 0.15847 0.3824 0.15503 0.11713 0.43753 0.11713 0.23427 0 0.35485-0.0896 0.12057-0.093 0.12057-0.26183z" style="font-feature-settings:normal;font-variant-caps:normal;font-variant-ligatures:normal;font-variant-numeric:normal"/>
   </g>
  </g>
  <g transform="translate(219.10925 .22971676)" fill="#616161" stroke-width=".26458332">
   <g style="font-feature-settings:normal;font-variant-caps:normal;font-variant-ligatures:normal;font-variant-numeric:normal" aria-label="Secant">
    <path d="m-114.71059 136.65319q0-0.26871-0.1757-0.40996-0.1757-0.1447-0.63734-0.30661-0.93362-0.30317-1.38838-0.64424-0.4513-0.34451-0.4513-0.98874 0-0.63045 0.5271-1.01975 0.5271-0.38929 1.34014-0.38929 0.85783 0 1.38148 0.40307 0.52366 0.39963 0.50643 1.12999l-7e-3 0.0207h-1.12999q0-0.35484-0.19293-0.51332-0.19292-0.16191-0.58222-0.16191-0.31695 0-0.49954 0.15502-0.18259 0.15503-0.18259 0.38241 0 0.22049 0.18604 0.35484 0.18948 0.13092 0.7028 0.33073 0.87161 0.25839 1.31947 0.63046t0.44786 1.01974q0 0.66146-0.51676 1.03698-0.51677 0.37207-1.37115 0.37207-0.85094 0-1.44349-0.39963-0.58912-0.40308-0.57189-1.26435l7e-3 -0.0207h1.13344q0 0.43752 0.21359 0.62356 0.21704 0.18259 0.66146 0.18259 0.36518 0 0.54433-0.14469 0.17914-0.1447 0.17914-0.37897z" style="font-feature-settings:normal;font-variant-caps:normal;font-variant-ligatures:normal;font-variant-numeric:normal"/>
    <path d="m-111.33095 138.05535q-0.84749 0-1.32981-0.51332-0.47887-0.51332-0.47887-1.2988v-0.13092q0-0.85438 0.45131-1.39181 0.45475-0.53744 1.31258-0.53399 0.75448 0 1.16789 0.4513 0.41686 0.45131 0.41686 1.23679v0.60979h-2.13596l-7e-3 0.0207q0.0276 0.29283 0.21704 0.47542 0.18948 0.17914 0.54432 0.17914 0.33418 0 0.55466-0.0551 0.22394-0.0551 0.50988-0.1757l0.27905 0.70969q-0.24116 0.1757-0.64768 0.29628t-0.85438 0.12058zm-0.0448-2.97312q-0.27905 0-0.41341 0.17915-0.13091 0.1757-0.15158 0.47886l7e-3 0.0172h1.00597v-0.0896q0-0.28939-0.10336-0.43753-0.0999-0.14814-0.34451-0.14814z" style="font-feature-settings:normal;font-variant-caps:normal;font-variant-ligatures:normal;font-variant-numeric:normal"/>
    <path d="m-107.69638 137.15962q0.23772 0 0.35485-0.12746 0.11713-0.13092 0.11713-0.37552h1.06109l7e-3 0.0207q0.0138 0.60978-0.42374 0.99563-0.43409 0.38241-1.11622 0.38241-0.85093 0-1.31258-0.52366-0.45819-0.5271-0.45819-1.37114v-0.0792q0-0.8406 0.45819-1.3677 0.4582-0.5271 1.30569-0.5271 0.70969 0 1.13344 0.39618 0.42719 0.39274 0.41341 1.07832l-7e-3 0.0207h-1.06109q0-0.26527-0.12058-0.43064-0.12057-0.16881-0.35829-0.16881-0.33762 0-0.47197 0.27216-0.13092 0.26872-0.13092 0.72692v0.0792q0 0.46853 0.13092 0.7338 0.13435 0.26527 0.47886 0.26527z" style="font-feature-settings:normal;font-variant-caps:normal;font-variant-ligatures:normal;font-variant-numeric:normal"/>
    <path d="m-103.52781 137.97956q-0.0655-0.11714-0.11369-0.26528-0.0448-0.14813-0.0689-0.31005-0.15158 0.29627-0.37552 0.47542-0.22048 0.1757-0.57877 0.1757-0.58567 0-0.91295-0.29972-0.32384-0.30317-0.32384-0.82338 0-0.55466 0.41686-0.85439 0.41685-0.30316 1.26435-0.30316h0.47886v-0.26528q0-0.23771-0.11368-0.36518-0.11369-0.12747-0.34796-0.12747-0.20326 0-0.30317 0.0965-0.0965 0.093-0.0965 0.29283l-1.12999-3e-3 -7e-3 -0.0207q-0.0241-0.50987 0.42375-0.85093 0.4513-0.34451 1.18855-0.34451 0.69247 0 1.11966 0.34451 0.43064 0.34451 0.43064 0.98529v1.4056q0 0.29628 0.0482 0.55122 0.0517 0.25493 0.15158 0.50987zm-0.81993-0.75448q0.21359 0 0.37551-0.0999 0.16537-0.0999 0.23082-0.23771v-0.49265h-0.46853q-0.27905 0-0.40307 0.13436-0.12403 0.13436-0.12403 0.34107 0 0.15847 0.1068 0.25838 0.11024 0.0965 0.2825 0.0965z" style="font-feature-settings:normal;font-variant-caps:normal;font-variant-ligatures:normal;font-variant-numeric:normal"/>
    <path d="m-100.86131 134.25541 0.0448 0.52365q0.18259-0.27905 0.45131-0.43408 0.26871-0.15847 0.599444-0.15847 0.54777 0 0.854384 0.37207 0.310058 0.37207 0.310058 1.18166v2.24276h-1.164442v-2.2462q0-0.35485-0.113688-0.50298-0.113688-0.15159-0.330726-0.15159-0.18604 0-0.33418 0.0655t-0.24804 0.18603v2.64928h-1.161v-3.72759z" style="font-feature-settings:normal;font-variant-caps:normal;font-variant-ligatures:normal;font-variant-numeric:normal"/>
    <path d="m-96.627284 133.32868v0.92673h0.589111v0.80615h-0.589111v1.70877q0 0.19981 0.07924 0.28939 0.08268 0.0861 0.220486 0.0861 0.08957 0 0.141249-7e-3 0.05512-7e-3 0.137804-0.0276l0.07924 0.86128q-0.1757 0.0448-0.316949 0.062-0.141248 0.0207-0.334174 0.0207-0.575331 0-0.875054-0.30661-0.296278-0.30662-0.296278-0.97152v-1.71566h-0.52021v-0.80615h0.52021v-0.92673z" style="font-feature-settings:normal;font-variant-caps:normal;font-variant-ligatures:normal;font-variant-numeric:normal"/>
   </g>
   <g style="font-feature-settings:normal;font-variant-caps:normal;font-variant-ligatures:normal;font-variant-numeric:normal" aria-label="lines">
    <path d="m-112.80743 145.70596h-1.16788v-5.37435h1.16788z" style="font-feature-settings:normal;font-variant-caps:normal;font-variant-ligatures:normal;font-variant-numeric:normal"/>
    <path d="m-110.87817 145.70596h-1.16789v-3.72759h1.16789zm0-4.59231h-1.16789v-0.78204h1.16789z" style="font-feature-settings:normal;font-variant-caps:normal;font-variant-ligatures:normal;font-variant-numeric:normal"/>
    <path d="m-109.09706 141.97837 0.0448 0.52365q0.18259-0.27905 0.45131-0.43408 0.26871-0.15847 0.59944-0.15847 0.54777 0 0.85439 0.37207 0.31005 0.37207 0.31005 1.18167v2.24275h-1.16444v-2.2462q0-0.35484-0.11369-0.50298-0.11368-0.15159-0.33073-0.15159-0.18603 0-0.33417 0.0655t-0.24805 0.18603v2.64928h-1.16099v-3.72759z" style="font-feature-settings:normal;font-variant-caps:normal;font-variant-ligatures:normal;font-variant-numeric:normal"/>
    <path d="m-104.54609 145.77831q-0.84749 0-1.3298-0.51332-0.47887-0.51332-0.47887-1.2988v-0.13091q0-0.85439 0.45131-1.39182 0.45475-0.53744 1.31258-0.53399 0.75447 0 1.16788 0.45131 0.41686 0.4513 0.41686 1.23678v0.60979h-2.13596l-7e-3 0.0207q0.0276 0.29283 0.21704 0.47542 0.18948 0.17915 0.54433 0.17915 0.33417 0 0.55466-0.0551 0.22393-0.0551 0.50987-0.1757l0.27905 0.70969q-0.24115 0.1757-0.64767 0.29628t-0.85439 0.12058zm-0.0448-2.97312q-0.27906 0-0.41342 0.17915-0.13091 0.1757-0.15158 0.47887l7e-3 0.0172h1.00597v-0.0896q0-0.28939-0.10335-0.43753-0.0999-0.14814-0.34451-0.14814z" style="font-feature-settings:normal;font-variant-caps:normal;font-variant-ligatures:normal;font-variant-numeric:normal"/>
    <path d="m-100.56356 144.65865q0-0.1378-0.15847-0.2446-0.15503-0.11024-0.56844-0.19637-0.65113-0.12747-0.98185-0.39274-0.33073-0.26872-0.33073-0.73725 0-0.49265 0.41341-0.83371 0.41341-0.34451 1.11965-0.34451 0.74414 0 1.185116 0.33417 0.440973 0.33073 0.420302 0.85783l-0.0069 0.0207h-1.129988q0-0.22048-0.11025-0.33417-0.11024-0.11369-0.36173-0.11369-0.18259 0-0.30661 0.0999-0.12403 0.0999-0.12403 0.25493 0 0.14814 0.14125 0.2515 0.14469 0.10335 0.57878 0.18603 0.68557 0.13436 1.012855 0.40308 0.327284 0.26527 0.327284 0.75447 0 0.50299-0.447863 0.83027-0.444416 0.32384-1.178226 0.32384-0.76136 0-1.20578-0.38585-0.44097-0.38585-0.4203-0.86127l7e-3 -0.0207h1.0542q7e-3 0.26527 0.15847 0.3824 0.15503 0.11713 0.43753 0.11713 0.23427 0 0.35484-0.0896 0.12058-0.093 0.12058-0.26183z" style="font-feature-settings:normal;font-variant-caps:normal;font-variant-ligatures:normal;font-variant-numeric:normal"/>
   </g>
  </g>
  <g transform="translate(79.95541 .96044616)" stroke-width=".26458332">
   <g style="font-feature-settings:normal;font-variant-caps:normal;font-variant-ligatures:normal;font-variant-numeric:normal" aria-label="The lines never">
    <path d="m-141.98668 158.01895h-1.53789v4.1982h-0.36897v-4.1982h-1.5906v-0.31626h3.49746z" style="font-feature-settings:normal;font-variant-caps:normal;font-variant-ligatures:normal;font-variant-numeric:normal"/>
    <path d="m-140.97589 159.43282q0.17054-0.30076 0.44649-0.46509 0.27905-0.16743 0.65112-0.16743 0.5302 0 0.81236 0.32866 0.28525 0.32867 0.28525 1.0201v2.06809h-0.37207v-2.07429q0-0.54571-0.21704-0.78135-0.21394-0.23875-0.59221-0.23875-0.39068 0-0.64493 0.19224-0.25114 0.18914-0.36897 0.5085v2.39365h-0.37207v-4.83692h0.37207z" style="font-feature-settings:normal;font-variant-caps:normal;font-variant-ligatures:normal;font-variant-numeric:normal"/>
    <path d="m-136.53895 162.28226q-0.65112 0-1.0573-0.45889-0.40617-0.46198-0.40617-1.18442v-0.17053q0-0.72554 0.40927-1.19683 0.41238-0.47129 1.0201-0.47129 0.61081 0 0.94258 0.39378 0.33486 0.39067 0.33486 1.0542v0.28835h-2.33474v0.10232q0 0.57361 0.28835 0.95188 0.29146 0.37827 0.80305 0.37827 0.30696 0 0.56431-0.0992 0.25735-0.10232 0.42788-0.27285l0.15813 0.25425q-0.17673 0.18603-0.46509 0.31006-0.28525 0.12092-0.68523 0.12092zm-0.0341-3.1657q-0.42788 0-0.70384 0.30696-0.27595 0.30696-0.32246 0.77825l9e-3 0.0186h1.92236v-0.0775q0-0.44649-0.23565-0.73484-0.23254-0.29146-0.66972-0.29146z" style="font-feature-settings:normal;font-variant-caps:normal;font-variant-ligatures:normal;font-variant-numeric:normal"/>
    <path d="m-132.5733 162.21715h-0.36897v-4.83692h0.36897z" style="font-feature-settings:normal;font-variant-caps:normal;font-variant-ligatures:normal;font-variant-numeric:normal"/>
    <path d="m-131.13463 162.21715h-0.36896v-3.35484h0.36896zm0-4.31602h-0.36896v-0.5209h0.36896z" style="font-feature-settings:normal;font-variant-caps:normal;font-variant-ligatures:normal;font-variant-numeric:normal"/>
    <path d="m-129.78277 158.86231 0.0341 0.58291q0.16433-0.30695 0.43718-0.47439 0.27285-0.17053 0.64802-0.17053 0.54571 0 0.83096 0.33487 0.28525 0.33176 0.28525 1.03869v2.04329h-0.37207v-2.04019q0-0.57671-0.21704-0.81545-0.21394-0.23875-0.61081-0.23875-0.39688 0-0.64182 0.19534-0.24185 0.19534-0.35037 0.524v2.37505h-0.37207v-3.35484z" style="font-feature-settings:normal;font-variant-caps:normal;font-variant-ligatures:normal;font-variant-numeric:normal"/>
    <path d="m-125.30242 162.28226q-0.65113 0-1.0573-0.45889-0.40618-0.46198-0.40618-1.18442v-0.17053q0-0.72554 0.40928-1.19683 0.41238-0.47129 1.02009-0.47129 0.61082 0 0.94258 0.39378 0.33486 0.39067 0.33486 1.0542v0.28835h-2.33474v0.10232q0 0.57361 0.28836 0.95188 0.29145 0.37827 0.80305 0.37827 0.30696 0 0.5643-0.0992 0.25735-0.10232 0.42788-0.27285l0.15813 0.25425q-0.17673 0.18603-0.46508 0.31006-0.28526 0.12092-0.68523 0.12092zm-0.0341-3.1657q-0.42788 0-0.70383 0.30696t-0.32246 0.77825l9e-3 0.0186h1.92236v-0.0775q0-0.44649-0.23564-0.73484-0.23255-0.29146-0.66973-0.29146z" style="font-feature-settings:normal;font-variant-caps:normal;font-variant-ligatures:normal;font-variant-numeric:normal"/>
    <path d="m-121.29337 161.35829q0-0.23565-0.19533-0.40928-0.19224-0.17674-0.69764-0.28836-0.59531-0.12402-0.88676-0.33796-0.28836-0.21704-0.28836-0.60461 0-0.38448 0.32246-0.65113 0.32557-0.26665 0.85887-0.26665 0.5612 0 0.89607 0.28526 0.33486 0.28215 0.31936 0.69763l-6e-3 0.0186h-0.34416q0-0.27595-0.23875-0.48059-0.23564-0.20464-0.62631-0.20464-0.40308 0-0.60772 0.17674-0.20464 0.17673-0.20464 0.41237 0 0.22945 0.17364 0.38138 0.17673 0.14882 0.70073 0.26355 0.58911 0.13022 0.88987 0.36276 0.30385 0.23255 0.30385 0.62632 0 0.41858-0.34106 0.68213-0.33796 0.26045-0.89607 0.26045-0.61082 0-0.96118-0.29145-0.34727-0.29146-0.32866-0.69454l6e-3 -0.0186h0.34106q0.0217 0.36277 0.29456 0.5271 0.27595 0.16433 0.64802 0.16433 0.40308 0 0.63562-0.17983 0.23254-0.17984 0.23254-0.43098z" style="font-feature-settings:normal;font-variant-caps:normal;font-variant-ligatures:normal;font-variant-numeric:normal"/>
    <path d="m-118.18658 158.86231 0.0341 0.58291q0.16433-0.30695 0.43718-0.47439 0.27285-0.17053 0.64802-0.17053 0.54571 0 0.83096 0.33487 0.28525 0.33176 0.28525 1.03869v2.04329h-0.37207v-2.04019q0-0.57671-0.21704-0.81545-0.21394-0.23875-0.61081-0.23875-0.39688 0-0.64182 0.19534-0.24185 0.19534-0.35037 0.524v2.37505h-0.37207v-3.35484z" style="font-feature-settings:normal;font-variant-caps:normal;font-variant-ligatures:normal;font-variant-numeric:normal"/>
    <path d="m-113.70623 162.28226q-0.65112 0-1.0573-0.45889-0.40618-0.46198-0.40618-1.18442v-0.17053q0-0.72554 0.40928-1.19683 0.41238-0.47129 1.02009-0.47129 0.61082 0 0.94258 0.39378 0.33486 0.39067 0.33486 1.0542v0.28835h-2.33474v0.10232q0 0.57361 0.28836 0.95188 0.29145 0.37827 0.80305 0.37827 0.30696 0 0.56431-0.0992 0.25734-0.10232 0.42788-0.27285l0.15813 0.25425q-0.17674 0.18603-0.46509 0.31006-0.28526 0.12092-0.68523 0.12092zm-0.0341-3.1657q-0.42788 0-0.70383 0.30696t-0.32246 0.77825l9e-3 0.0186h1.92236v-0.0775q0-0.44649-0.23564-0.73484-0.23255-0.29146-0.66973-0.29146z" style="font-feature-settings:normal;font-variant-caps:normal;font-variant-ligatures:normal;font-variant-numeric:normal"/>
    <path d="m-110.78858 161.37689 0.10852 0.39377h0.0186l0.11782-0.39377 0.91157-2.51458h0.38447l-1.27434 3.35484h-0.29765l-1.27745-3.35484h0.38448z" style="font-feature-settings:normal;font-variant-caps:normal;font-variant-ligatures:normal;font-variant-numeric:normal"/>
    <path d="m-107.39344 162.28226q-0.65112 0-1.0573-0.45889-0.40618-0.46198-0.40618-1.18442v-0.17053q0-0.72554 0.40928-1.19683 0.41238-0.47129 1.02009-0.47129 0.61082 0 0.94258 0.39378 0.33487 0.39067 0.33487 1.0542v0.28835h-2.33475v0.10232q0 0.57361 0.28836 0.95188 0.29145 0.37827 0.80305 0.37827 0.30696 0 0.56431-0.0992 0.25735-0.10232 0.42788-0.27285l0.15813 0.25425q-0.17674 0.18603-0.46509 0.31006-0.28525 0.12092-0.68523 0.12092zm-0.0341-3.1657q-0.42788 0-0.70383 0.30696t-0.32246 0.77825l9e-3 0.0186h1.92237v-0.0775q0-0.44649-0.23565-0.73484-0.23254-0.29146-0.66973-0.29146z" style="font-feature-settings:normal;font-variant-caps:normal;font-variant-ligatures:normal;font-variant-numeric:normal"/>
    <path d="m-103.86187 159.18167-0.26355-0.0186q-0.35037 0-0.57671 0.19844-0.22324 0.19534-0.31936 0.5395v2.31614h-0.37207v-3.35484h0.32556l0.0465 0.55811v0.0372q0.14573-0.31006 0.39067-0.4837 0.24495-0.17363 0.58291-0.17363 0.0682 0 0.13023 0.0124 0.062 9e-3 0.10232 0.0217z" style="font-feature-settings:normal;font-variant-caps:normal;font-variant-ligatures:normal;font-variant-numeric:normal"/>
   </g>
   <g style="font-feature-settings:normal;font-variant-caps:normal;font-variant-ligatures:normal;font-variant-numeric:normal" aria-label="intersect.">
    <path d="m-136.63197 168.87488h-0.36897v-3.35484h0.36897zm0-4.31602h-0.36897v-0.5209h0.36897z" style="font-feature-settings:normal;font-variant-caps:normal;font-variant-ligatures:normal;font-variant-numeric:normal"/>
    <path d="m-135.28011 165.52004 0.0341 0.58291q0.16434-0.30695 0.43719-0.47439 0.27285-0.17053 0.64802-0.17053 0.5457 0 0.83096 0.33487 0.28525 0.33176 0.28525 1.03869v2.04329h-0.37207v-2.04019q0-0.57671-0.21704-0.81545-0.21394-0.23875-0.61082-0.23875-0.39687 0-0.64182 0.19534-0.24184 0.19534-0.35036 0.524v2.37505h-0.37207v-3.35484z" style="font-feature-settings:normal;font-variant-caps:normal;font-variant-ligatures:normal;font-variant-numeric:normal"/>
    <path d="m-131.4943 164.66118v0.85886h0.73794v0.30386h-0.73794v2.18591q0 0.32867 0.11783 0.46819 0.12092 0.13643 0.31936 0.13643 0.0682 0 0.13022-6e-3 0.0651-9e-3 0.15193-0.0279l0.0558 0.27595q-0.0744 0.0372-0.18603 0.0589-0.10853 0.0248-0.21705 0.0248-0.35346 0-0.5519-0.22324-0.19534-0.22324-0.19534-0.70694v-2.18591h-0.57981v-0.30386h0.57981v-0.85886z" style="font-feature-settings:normal;font-variant-caps:normal;font-variant-ligatures:normal;font-variant-numeric:normal"/>
    <path d="m-128.75338 168.93999q-0.65112 0-1.0573-0.45889-0.40617-0.46198-0.40617-1.18442v-0.17053q0-0.72554 0.40927-1.19683 0.41238-0.47129 1.0201-0.47129 0.61081 0 0.94257 0.39378 0.33487 0.39067 0.33487 1.0542v0.28835h-2.33474v0.10232q0 0.57361 0.28835 0.95188 0.29146 0.37827 0.80305 0.37827 0.30696 0 0.56431-0.0992 0.25735-0.10232 0.42788-0.27285l0.15813 0.25425q-0.17673 0.18603-0.46509 0.31006-0.28525 0.12092-0.68523 0.12092zm-0.0341-3.1657q-0.42789 0-0.70384 0.30696t-0.32246 0.77825l9e-3 0.0186h1.92237v-0.0775q0-0.44649-0.23565-0.73484-0.23254-0.29146-0.66972-0.29146z" style="font-feature-settings:normal;font-variant-caps:normal;font-variant-ligatures:normal;font-variant-numeric:normal"/>
    <path d="m-125.22181 165.8394-0.26355-0.0186q-0.35037 0-0.57671 0.19844-0.22324 0.19534-0.31936 0.5395v2.31614h-0.37207v-3.35484h0.32556l0.0465 0.55811v0.0372q0.14573-0.31006 0.39067-0.48369 0.24495-0.17364 0.58291-0.17364 0.0682 0 0.13023 0.0124 0.062 9e-3 0.10232 0.0217z" style="font-feature-settings:normal;font-variant-caps:normal;font-variant-ligatures:normal;font-variant-numeric:normal"/>
    <path d="m-122.57391 168.01602q0-0.23565-0.19534-0.40928-0.19223-0.17674-0.69763-0.28836-0.59531-0.12402-0.88677-0.33796-0.28835-0.21704-0.28835-0.60461 0-0.38448 0.32246-0.65113 0.32556-0.26665 0.85886-0.26665 0.56121 0 0.89607 0.28526 0.33486 0.28215 0.31936 0.69763l-6e-3 0.0186h-0.34416q0-0.27595-0.23875-0.48059-0.23564-0.20464-0.62632-0.20464-0.40307 0-0.60771 0.17674-0.20464 0.17673-0.20464 0.41237 0 0.22945 0.17363 0.38138 0.17673 0.14882 0.70073 0.26355 0.58911 0.13022 0.88987 0.36276 0.30386 0.23255 0.30386 0.62632 0 0.41858-0.34107 0.68213-0.33796 0.26045-0.89606 0.26045-0.61082 0-0.96119-0.29145-0.34726-0.29146-0.32866-0.69454l6e-3 -0.0186h0.34107q0.0217 0.36277 0.29455 0.5271 0.27596 0.16433 0.64803 0.16433 0.40307 0 0.63562-0.17983 0.23254-0.17984 0.23254-0.43098z" style="font-feature-settings:normal;font-variant-caps:normal;font-variant-ligatures:normal;font-variant-numeric:normal"/>
    <path d="m-120.07174 168.93999q-0.65112 0-1.0573-0.45889-0.40617-0.46198-0.40617-1.18442v-0.17053q0-0.72554 0.40927-1.19683 0.41238-0.47129 1.0201-0.47129 0.61081 0 0.94257 0.39378 0.33487 0.39067 0.33487 1.0542v0.28835h-2.33474v0.10232q0 0.57361 0.28835 0.95188 0.29146 0.37827 0.80305 0.37827 0.30696 0 0.56431-0.0992 0.25735-0.10232 0.42788-0.27285l0.15813 0.25425q-0.17673 0.18603-0.46509 0.31006-0.28525 0.12092-0.68523 0.12092zm-0.0341-3.1657q-0.42788 0-0.70384 0.30696-0.27595 0.30696-0.32246 0.77825l9e-3 0.0186h1.92237v-0.0775q0-0.44649-0.23565-0.73484-0.23254-0.29146-0.66972-0.29146z" style="font-feature-settings:normal;font-variant-caps:normal;font-variant-ligatures:normal;font-variant-numeric:normal"/>
    <path d="m-116.84403 168.62683q0.35657 0 0.62942-0.21084 0.27595-0.21084 0.27595-0.58601h0.33177l6e-3 0.0186q0.0124 0.46509-0.36587 0.77825t-0.87747 0.31316q-0.66972 0-1.0449-0.47129-0.37207-0.47129-0.37207-1.20613v-0.13022q0-0.73174 0.37207-1.20303 0.37208-0.47129 1.0418-0.47129 0.5395 0 0.89917 0.32556 0.35967 0.32557 0.34727 0.85577l-6e-3 0.0186h-0.33177q0-0.40308-0.26355-0.64182-0.26355-0.24185-0.64492-0.24185-0.5271 0-0.78445 0.38758-0.25735 0.38757-0.25735 0.97048v0.13022q0 0.59222 0.25735 0.97979 0.25735 0.38447 0.78755 0.38447z" style="font-feature-settings:normal;font-variant-caps:normal;font-variant-ligatures:normal;font-variant-numeric:normal"/>
    <path d="m-114.21783 164.66118v0.85886h0.73794v0.30386h-0.73794v2.18591q0 0.32867 0.11782 0.46819 0.12092 0.13643 0.31936 0.13643 0.0682 0 0.13023-6e-3 0.0651-9e-3 0.15193-0.0279l0.0558 0.27595q-0.0744 0.0372-0.18604 0.0589-0.10852 0.0248-0.21704 0.0248-0.35347 0-0.5519-0.22324-0.19534-0.22324-0.19534-0.70694v-2.18591h-0.57981v-0.30386h0.57981v-0.85886z" style="font-feature-settings:normal;font-variant-caps:normal;font-variant-ligatures:normal;font-variant-numeric:normal"/>
    <path d="m-112.29857 168.87488h-0.42478v-0.5085h0.42478z" style="font-feature-settings:normal;font-variant-caps:normal;font-variant-ligatures:normal;font-variant-numeric:normal"/>
   </g>
  </g>
  <g transform="translate(208.4438 .96044616)" stroke-width=".26458332">
   <g style="font-feature-settings:normal;font-variant-caps:normal;font-variant-ligatures:normal;font-variant-numeric:normal" aria-label="The lines intersect ">
    <path d="m-196.48127 158.01895h-1.5379v4.1982h-0.36896v-4.1982h-1.59061v-0.31626h3.49747z" style="font-feature-settings:normal;font-variant-caps:normal;font-variant-ligatures:normal;font-variant-numeric:normal"/>
    <path d="m-195.47048 159.43282q0.17053-0.30076 0.44648-0.46509 0.27905-0.16743 0.65112-0.16743 0.5302 0 0.81236 0.32866 0.28525 0.32867 0.28525 1.0201v2.06809h-0.37207v-2.07429q0-0.54571-0.21704-0.78135-0.21394-0.23875-0.59221-0.23875-0.39068 0-0.64492 0.19224-0.25115 0.18914-0.36897 0.5085v2.39365h-0.37207v-4.83692h0.37207z" style="font-feature-settings:normal;font-variant-caps:normal;font-variant-ligatures:normal;font-variant-numeric:normal"/>
    <path d="m-191.03354 162.28226q-0.65113 0-1.0573-0.45889-0.40618-0.46198-0.40618-1.18442v-0.17053q0-0.72554 0.40928-1.19683 0.41237-0.47129 1.02009-0.47129 0.61081 0 0.94258 0.39378 0.33486 0.39067 0.33486 1.0542v0.28835h-2.33474v0.10232q0 0.57361 0.28835 0.95188 0.29146 0.37827 0.80306 0.37827 0.30695 0 0.5643-0.0992 0.25735-0.10232 0.42788-0.27285l0.15813 0.25425q-0.17673 0.18603-0.46509 0.31006-0.28525 0.12092-0.68522 0.12092zm-0.0341-3.1657q-0.42788 0-0.70383 0.30696-0.27596 0.30696-0.32247 0.77825l9e-3 0.0186h1.92236v-0.0775q0-0.44649-0.23564-0.73484-0.23255-0.29146-0.66973-0.29146z" style="font-feature-settings:normal;font-variant-caps:normal;font-variant-ligatures:normal;font-variant-numeric:normal"/>
    <path d="m-187.0679 162.21715h-0.36897v-4.83692h0.36897z" style="font-feature-settings:normal;font-variant-caps:normal;font-variant-ligatures:normal;font-variant-numeric:normal"/>
    <path d="m-185.62922 162.21715h-0.36897v-3.35484h0.36897zm0-4.31602h-0.36897v-0.5209h0.36897z" style="font-feature-settings:normal;font-variant-caps:normal;font-variant-ligatures:normal;font-variant-numeric:normal"/>
    <path d="m-184.27737 158.86231 0.0341 0.58291q0.16433-0.30695 0.43718-0.47439 0.27285-0.17053 0.64802-0.17053 0.54571 0 0.83096 0.33487 0.28525 0.33176 0.28525 1.03869v2.04329h-0.37207v-2.04019q0-0.57671-0.21704-0.81545-0.21394-0.23875-0.61081-0.23875-0.39688 0-0.64182 0.19534-0.24185 0.19534-0.35037 0.524v2.37505h-0.37207v-3.35484z" style="font-feature-settings:normal;font-variant-caps:normal;font-variant-ligatures:normal;font-variant-numeric:normal"/>
    <path d="m-179.79702 162.28226q-0.65112 0-1.0573-0.45889-0.40618-0.46198-0.40618-1.18442v-0.17053q0-0.72554 0.40928-1.19683 0.41238-0.47129 1.02009-0.47129 0.61082 0 0.94258 0.39378 0.33486 0.39067 0.33486 1.0542v0.28835h-2.33474v0.10232q0 0.57361 0.28836 0.95188 0.29145 0.37827 0.80305 0.37827 0.30696 0 0.56431-0.0992 0.25734-0.10232 0.42788-0.27285l0.15813 0.25425q-0.17674 0.18603-0.46509 0.31006-0.28526 0.12092-0.68523 0.12092zm-0.0341-3.1657q-0.42788 0-0.70383 0.30696t-0.32246 0.77825l9e-3 0.0186h1.92236v-0.0775q0-0.44649-0.23564-0.73484-0.23254-0.29146-0.66973-0.29146z" style="font-feature-settings:normal;font-variant-caps:normal;font-variant-ligatures:normal;font-variant-numeric:normal"/>
    <path d="m-175.78796 161.35829q0-0.23565-0.19534-0.40928-0.19224-0.17674-0.69763-0.28836-0.59532-0.12402-0.88677-0.33796-0.28836-0.21704-0.28836-0.60461 0-0.38448 0.32247-0.65113 0.32556-0.26665 0.85886-0.26665 0.5612 0 0.89607 0.28526 0.33486 0.28215 0.31936 0.69763l-6e-3 0.0186h-0.34417q0-0.27595-0.23874-0.48059-0.23565-0.20464-0.62632-0.20464-0.40308 0-0.60772 0.17674-0.20464 0.17673-0.20464 0.41237 0 0.22945 0.17364 0.38138 0.17673 0.14882 0.70073 0.26355 0.58911 0.13022 0.88987 0.36276 0.30386 0.23255 0.30386 0.62632 0 0.41858-0.34107 0.68213-0.33796 0.26045-0.89607 0.26045-0.61081 0-0.96118-0.29145-0.34727-0.29146-0.32866-0.69454l6e-3 -0.0186h0.34106q0.0217 0.36277 0.29456 0.5271 0.27595 0.16433 0.64802 0.16433 0.40308 0 0.63562-0.17983 0.23255-0.17984 0.23255-0.43098z" style="font-feature-settings:normal;font-variant-caps:normal;font-variant-ligatures:normal;font-variant-numeric:normal"/>
    <path d="m-172.59436 162.21715h-0.36897v-3.35484h0.36897zm0-4.31602h-0.36897v-0.5209h0.36897z" style="font-feature-settings:normal;font-variant-caps:normal;font-variant-ligatures:normal;font-variant-numeric:normal"/>
    <path d="m-171.24251 158.86231 0.0341 0.58291q0.16433-0.30695 0.43718-0.47439 0.27286-0.17053 0.64803-0.17053 0.5457 0 0.83095 0.33487 0.28526 0.33176 0.28526 1.03869v2.04329h-0.37207v-2.04019q0-0.57671-0.21704-0.81545-0.21394-0.23875-0.61082-0.23875-0.39687 0-0.64182 0.19534-0.24185 0.19534-0.35037 0.524v2.37505h-0.37207v-3.35484z" style="font-feature-settings:normal;font-variant-caps:normal;font-variant-ligatures:normal;font-variant-numeric:normal"/>
    <path d="m-167.45669 158.00345v0.85886h0.73794v0.30386h-0.73794v2.18591q0 0.32867 0.11782 0.46819 0.12093 0.13643 0.31936 0.13643 0.0682 0 0.13023-6e-3 0.0651-9e-3 0.15193-0.0279l0.0558 0.27595q-0.0744 0.0372-0.18604 0.0589-0.10852 0.0248-0.21704 0.0248-0.35347 0-0.5519-0.22324-0.19534-0.22324-0.19534-0.70694v-2.18591h-0.57981v-0.30386h0.57981v-0.85886z" style="font-feature-settings:normal;font-variant-caps:normal;font-variant-ligatures:normal;font-variant-numeric:normal"/>
    <path d="m-164.71577 162.28226q-0.65112 0-1.0573-0.45889-0.40618-0.46198-0.40618-1.18442v-0.17053q0-0.72554 0.40928-1.19683 0.41238-0.47129 1.02009-0.47129 0.61082 0 0.94258 0.39378 0.33486 0.39067 0.33486 1.0542v0.28835h-2.33474v0.10232q0 0.57361 0.28836 0.95188 0.29145 0.37827 0.80305 0.37827 0.30696 0 0.56431-0.0992 0.25735-0.10232 0.42788-0.27285l0.15813 0.25425q-0.17674 0.18603-0.46509 0.31006-0.28525 0.12092-0.68523 0.12092zm-0.0341-3.1657q-0.42788 0-0.70383 0.30696t-0.32246 0.77825l9e-3 0.0186h1.92236v-0.0775q0-0.44649-0.23564-0.73484-0.23254-0.29146-0.66973-0.29146z" style="font-feature-settings:normal;font-variant-caps:normal;font-variant-ligatures:normal;font-variant-numeric:normal"/>
    <path d="m-161.18421 159.18167-0.26355-0.0186q-0.35036 0-0.5767 0.19844-0.22325 0.19534-0.31936 0.5395v2.31614h-0.37208v-3.35484h0.32557l0.0465 0.55811v0.0372q0.14572-0.31006 0.39067-0.4837 0.24495-0.17363 0.58291-0.17363 0.0682 0 0.13022 0.0124 0.062 9e-3 0.10232 0.0217z" style="font-feature-settings:normal;font-variant-caps:normal;font-variant-ligatures:normal;font-variant-numeric:normal"/>
    <path d="m-158.53631 161.35829q0-0.23565-0.19533-0.40928-0.19224-0.17674-0.69763-0.28836-0.59532-0.12402-0.88677-0.33796-0.28836-0.21704-0.28836-0.60461 0-0.38448 0.32246-0.65113 0.32557-0.26665 0.85887-0.26665 0.5612 0 0.89607 0.28526 0.33486 0.28215 0.31936 0.69763l-6e-3 0.0186h-0.34417q0-0.27595-0.23874-0.48059-0.23565-0.20464-0.62632-0.20464-0.40308 0-0.60772 0.17674-0.20464 0.17673-0.20464 0.41237 0 0.22945 0.17364 0.38138 0.17673 0.14882 0.70073 0.26355 0.58911 0.13022 0.88987 0.36276 0.30385 0.23255 0.30385 0.62632 0 0.41858-0.34106 0.68213-0.33796 0.26045-0.89607 0.26045-0.61081 0-0.96118-0.29145-0.34727-0.29146-0.32866-0.69454l6e-3 -0.0186h0.34106q0.0217 0.36277 0.29456 0.5271 0.27595 0.16433 0.64802 0.16433 0.40308 0 0.63562-0.17983 0.23254-0.17984 0.23254-0.43098z" style="font-feature-settings:normal;font-variant-caps:normal;font-variant-ligatures:normal;font-variant-numeric:normal"/>
    <path d="m-156.03413 162.28226q-0.65112 0-1.0573-0.45889-0.40618-0.46198-0.40618-1.18442v-0.17053q0-0.72554 0.40928-1.19683 0.41238-0.47129 1.02009-0.47129 0.61082 0 0.94258 0.39378 0.33487 0.39067 0.33487 1.0542v0.28835h-2.33475v0.10232q0 0.57361 0.28836 0.95188 0.29145 0.37827 0.80305 0.37827 0.30696 0 0.56431-0.0992 0.25735-0.10232 0.42788-0.27285l0.15813 0.25425q-0.17674 0.18603-0.46509 0.31006-0.28525 0.12092-0.68523 0.12092zm-0.0341-3.1657q-0.42788 0-0.70383 0.30696t-0.32246 0.77825l9e-3 0.0186h1.92237v-0.0775q0-0.44649-0.23565-0.73484-0.23254-0.29146-0.66973-0.29146z" style="font-feature-settings:normal;font-variant-caps:normal;font-variant-ligatures:normal;font-variant-numeric:normal"/>
    <path d="m-152.80642 161.9691q0.35656 0 0.62942-0.21084 0.27595-0.21084 0.27595-0.58601h0.33176l6e-3 0.0186q0.0124 0.46509-0.36587 0.77825t-0.87746 0.31316q-0.66973 0-1.0449-0.47129-0.37207-0.47129-0.37207-1.20613v-0.13022q0-0.73174 0.37207-1.20303t1.0418-0.47129q0.5395 0 0.89917 0.32556 0.35966 0.32557 0.34726 0.85577l-6e-3 0.0186h-0.33176q0-0.40308-0.26355-0.64182-0.26355-0.24185-0.64492-0.24185-0.5271 0-0.78445 0.38758-0.25735 0.38757-0.25735 0.97048v0.13022q0 0.59222 0.25735 0.97979 0.25735 0.38447 0.78755 0.38447z" style="font-feature-settings:normal;font-variant-caps:normal;font-variant-ligatures:normal;font-variant-numeric:normal"/>
    <path d="m-150.18023 158.00345v0.85886h0.73794v0.30386h-0.73794v2.18591q0 0.32867 0.11783 0.46819 0.12092 0.13643 0.31936 0.13643 0.0682 0 0.13022-6e-3 0.0651-9e-3 0.15193-0.0279l0.0558 0.27595q-0.0744 0.0372-0.18603 0.0589-0.10852 0.0248-0.21705 0.0248-0.35346 0-0.5519-0.22324-0.19534-0.22324-0.19534-0.70694v-2.18591h-0.57981v-0.30386h0.57981v-0.85886z" style="font-feature-settings:normal;font-variant-caps:normal;font-variant-ligatures:normal;font-variant-numeric:normal"/>
   </g>
   <g style="font-feature-settings:normal;font-variant-caps:normal;font-variant-ligatures:normal;font-variant-numeric:normal" aria-label="at right angles (90)">
    <path d="m-199.47954 168.87488q-0.0341-0.17674-0.0527-0.30386-0.0155-0.12712-0.0155-0.26045-0.17363 0.27285-0.48679 0.45269-0.31316 0.17673-0.71933 0.17673-0.493 0-0.76585-0.26045-0.26975-0.26355-0.26975-0.71313 0-0.44959 0.39377-0.72864 0.39378-0.27905 1.0232-0.27905h0.82475v-0.41548q0-0.35967-0.22944-0.56431-0.22634-0.20464-0.64182-0.20464-0.38137 0-0.61702 0.18604-0.23254 0.18603-0.23254 0.46819h-0.34417l-6e-3 -0.0186q-0.0186-0.37827 0.32246-0.66352 0.34417-0.28836 0.89607-0.28836 0.55191 0 0.88677 0.28216 0.33486 0.28215 0.33486 0.80925v1.64951q0 0.17673 0.0186 0.34417 0.0217 0.16743 0.0682 0.33176zm-1.23404-0.26355q0.42788 0 0.74104-0.20154 0.31316-0.20464 0.42478-0.524v-0.64182h-0.82785q-0.45269 0-0.74724 0.21704-0.29456 0.21394-0.29456 0.5178 0 0.28525 0.18603 0.45889 0.18914 0.17363 0.5178 0.17363z" style="font-feature-settings:normal;font-variant-caps:normal;font-variant-ligatures:normal;font-variant-numeric:normal"/>
    <path d="m-197.61299 164.66118v0.85886h0.73794v0.30386h-0.73794v2.18591q0 0.32867 0.11782 0.46819 0.12092 0.13643 0.31936 0.13643 0.0682 0 0.13023-6e-3 0.0651-9e-3 0.15192-0.0279l0.0558 0.27595q-0.0744 0.0372-0.18604 0.0589-0.10852 0.0248-0.21704 0.0248-0.35347 0-0.55191-0.22324-0.19533-0.22324-0.19533-0.70694v-2.18591h-0.57981v-0.30386h0.57981v-0.85886z" style="font-feature-settings:normal;font-variant-caps:normal;font-variant-ligatures:normal;font-variant-numeric:normal"/>
    <path d="m-193.06443 165.8394-0.26355-0.0186q-0.35037 0-0.57671 0.19844-0.22324 0.19534-0.31936 0.5395v2.31614h-0.37207v-3.35484h0.32556l0.0465 0.55811v0.0372q0.14573-0.31006 0.39067-0.48369 0.24495-0.17364 0.58291-0.17364 0.0682 0 0.13023 0.0124 0.062 9e-3 0.10232 0.0217z" style="font-feature-settings:normal;font-variant-caps:normal;font-variant-ligatures:normal;font-variant-numeric:normal"/>
    <path d="m-192.01023 168.87488h-0.36897v-3.35484h0.36897zm0-4.31602h-0.36897v-0.5209h0.36897z" style="font-feature-settings:normal;font-variant-caps:normal;font-variant-ligatures:normal;font-variant-numeric:normal"/>
    <path d="m-191.12036 167.22537q0-0.80306 0.33796-1.28365 0.34106-0.48369 0.94878-0.48369 0.35657 0 0.62012 0.15503 0.26355 0.15193 0.43408 0.43408l0.0527-0.5271h0.30075v3.37344q0 0.64182-0.35346 0.98909-0.35347 0.34726-1.00149 0.34726-0.24185 0-0.5178-0.0589-0.27285-0.0589-0.47749-0.16123l0.0713-0.31316q0.20154 0.0992 0.42789 0.14883 0.22944 0.0527 0.48989 0.0527 0.49609 0 0.74104-0.25425 0.24494-0.25424 0.24494-0.75034v-0.47439q-0.17053 0.25115-0.43408 0.38758-0.26045 0.13332-0.60461 0.13332-0.60152 0-0.94258-0.44958-0.33796-0.44959-0.33796-1.19993zm0.37207 0.0651q0 0.60771 0.24494 0.96738 0.24495 0.35967 0.73484 0.35967 0.35347 0 0.59221-0.15813 0.24185-0.16123 0.37517-0.44028v-1.59991q-0.12712-0.28215-0.36276-0.45888-0.23255-0.17984-0.59842-0.17984-0.48989 0-0.73794 0.40308-0.24804 0.40308-0.24804 1.0418z" style="font-feature-settings:normal;font-variant-caps:normal;font-variant-ligatures:normal;font-variant-numeric:normal"/>
    <path d="m-187.0803 166.09055q0.17053-0.30076 0.44648-0.46509 0.27906-0.16743 0.65113-0.16743 0.5302 0 0.81235 0.32866 0.28525 0.32867 0.28525 1.0201v2.06809h-0.37207v-2.07429q0-0.54571-0.21704-0.78135-0.21394-0.23875-0.59221-0.23875-0.39067 0-0.64492 0.19224-0.25115 0.18914-0.36897 0.5085v2.39365h-0.37207v-4.83692h0.37207z" style="font-feature-settings:normal;font-variant-caps:normal;font-variant-ligatures:normal;font-variant-numeric:normal"/>
    <path d="m-183.33789 164.66118v0.85886h0.73793v0.30386h-0.73793v2.18591q0 0.32867 0.11782 0.46819 0.12092 0.13643 0.31936 0.13643 0.0682 0 0.13022-6e-3 0.0651-9e-3 0.15193-0.0279l0.0558 0.27595q-0.0744 0.0372-0.18603 0.0589-0.10852 0.0248-0.21704 0.0248-0.35347 0-0.55191-0.22324-0.19534-0.22324-0.19534-0.70694v-2.18591h-0.5798v-0.30386h0.5798v-0.85886z" style="font-feature-settings:normal;font-variant-caps:normal;font-variant-ligatures:normal;font-variant-numeric:normal"/>
    <path d="m-178.19712 168.87488q-0.0341-0.17674-0.0527-0.30386-0.0155-0.12712-0.0155-0.26045-0.17363 0.27285-0.48679 0.45269-0.31316 0.17673-0.71933 0.17673-0.493 0-0.76585-0.26045-0.26975-0.26355-0.26975-0.71313 0-0.44959 0.39377-0.72864 0.39378-0.27905 1.0232-0.27905h0.82475v-0.41548q0-0.35967-0.22944-0.56431-0.22634-0.20464-0.64182-0.20464-0.38137 0-0.61702 0.18604-0.23254 0.18603-0.23254 0.46819h-0.34417l-6e-3 -0.0186q-0.0186-0.37827 0.32246-0.66352 0.34417-0.28836 0.89607-0.28836 0.55191 0 0.88677 0.28216 0.33486 0.28215 0.33486 0.80925v1.64951q0 0.17673 0.0186 0.34417 0.0217 0.16743 0.0682 0.33176zm-1.23404-0.26355q0.42788 0 0.74104-0.20154 0.31316-0.20464 0.42478-0.524v-0.64182h-0.82785q-0.45269 0-0.74724 0.21704-0.29456 0.21394-0.29456 0.5178 0 0.28525 0.18604 0.45889 0.18913 0.17363 0.51779 0.17363z" style="font-feature-settings:normal;font-variant-caps:normal;font-variant-ligatures:normal;font-variant-numeric:normal"/>
    <path d="m-176.58172 165.52004 0.0341 0.58291q0.16433-0.30695 0.43718-0.47439 0.27285-0.17053 0.64802-0.17053 0.54571 0 0.83096 0.33487 0.28525 0.33176 0.28525 1.03869v2.04329h-0.37207v-2.04019q0-0.57671-0.21704-0.81545-0.21394-0.23875-0.61081-0.23875-0.39688 0-0.64182 0.19534-0.24185 0.19534-0.35037 0.524v2.37505h-0.37207v-3.35484z" style="font-feature-settings:normal;font-variant-caps:normal;font-variant-ligatures:normal;font-variant-numeric:normal"/>
    <path d="m-173.50904 167.22537q0-0.80306 0.33797-1.28365 0.34106-0.48369 0.94878-0.48369 0.35656 0 0.62011 0.15503 0.26355 0.15193 0.43409 0.43408l0.0527-0.5271h0.30075v3.37344q0 0.64182-0.35346 0.98909-0.35347 0.34726-1.00149 0.34726-0.24185 0-0.5178-0.0589-0.27285-0.0589-0.47749-0.16123l0.0713-0.31316q0.20154 0.0992 0.42788 0.14883 0.22945 0.0527 0.48989 0.0527 0.4961 0 0.74104-0.25425 0.24495-0.25424 0.24495-0.75034v-0.47439q-0.17053 0.25115-0.43408 0.38758-0.26045 0.13332-0.60462 0.13332-0.60151 0-0.94257-0.44958-0.33797-0.44959-0.33797-1.19993zm0.37207 0.0651q0 0.60771 0.24495 0.96738t0.73484 0.35967q0.35347 0 0.59221-0.15813 0.24185-0.16123 0.37517-0.44028v-1.59991q-0.12712-0.28215-0.36277-0.45888-0.23254-0.17984-0.59841-0.17984-0.48989 0-0.73794 0.40308t-0.24805 1.0418z" style="font-feature-settings:normal;font-variant-caps:normal;font-variant-ligatures:normal;font-variant-numeric:normal"/>
    <path d="m-169.42557 168.87488h-0.36897v-4.83692h0.36897z" style="font-feature-settings:normal;font-variant-caps:normal;font-variant-ligatures:normal;font-variant-numeric:normal"/>
    <path d="m-167.12803 168.93999q-0.65112 0-1.0573-0.45889-0.40618-0.46198-0.40618-1.18442v-0.17053q0-0.72554 0.40928-1.19683 0.41238-0.47129 1.02009-0.47129 0.61082 0 0.94258 0.39378 0.33486 0.39067 0.33486 1.0542v0.28835h-2.33474v0.10232q0 0.57361 0.28836 0.95188 0.29145 0.37827 0.80305 0.37827 0.30696 0 0.5643-0.0992 0.25735-0.10232 0.42789-0.27285l0.15813 0.25425q-0.17674 0.18603-0.46509 0.31006-0.28526 0.12092-0.68523 0.12092zm-0.0341-3.1657q-0.42788 0-0.70383 0.30696t-0.32246 0.77825l9e-3 0.0186h1.92236v-0.0775q0-0.44649-0.23564-0.73484-0.23255-0.29146-0.66973-0.29146z" style="font-feature-settings:normal;font-variant-caps:normal;font-variant-ligatures:normal;font-variant-numeric:normal"/>
    <path d="m-163.11897 168.01602q0-0.23565-0.19534-0.40928-0.19224-0.17674-0.69763-0.28836-0.59531-0.12402-0.88677-0.33796-0.28835-0.21704-0.28835-0.60461 0-0.38448 0.32246-0.65113 0.32556-0.26665 0.85886-0.26665 0.5612 0 0.89607 0.28526 0.33486 0.28215 0.31936 0.69763l-6e-3 0.0186h-0.34417q0-0.27595-0.23874-0.48059-0.23565-0.20464-0.62632-0.20464-0.40308 0-0.60772 0.17674-0.20463 0.17673-0.20463 0.41237 0 0.22945 0.17363 0.38138 0.17673 0.14882 0.70073 0.26355 0.58911 0.13022 0.88987 0.36276 0.30386 0.23255 0.30386 0.62632 0 0.41858-0.34107 0.68213-0.33796 0.26045-0.89607 0.26045-0.61081 0-0.96118-0.29145-0.34726-0.29146-0.32866-0.69454l6e-3 -0.0186h0.34106q0.0217 0.36277 0.29456 0.5271 0.27595 0.16433 0.64802 0.16433 0.40308 0 0.63562-0.17983 0.23255-0.17984 0.23255-0.43098z" style="font-feature-settings:normal;font-variant-caps:normal;font-variant-ligatures:normal;font-variant-numeric:normal"/>
    <path d="m-160.39666 167.05173q0-1.12551 0.43098-2.01848t0.96118-1.19682l0.0186 3e-3 0.0806 0.22634q-0.44958 0.31936-0.78445 1.13481-0.33486 0.81546-0.33486 1.84175v0.062q0 1.0263 0.33486 1.84175 0.33487 0.81546 0.78445 1.14722l-0.0806 0.21704h-0.0186q-0.5364-0.31006-0.96428-1.18442-0.42788-0.87437-0.42788-2.02779z" style="font-feature-settings:normal;font-variant-caps:normal;font-variant-ligatures:normal;font-variant-numeric:normal"/>
    <path d="m-157.24026 168.62683q0.49609 0 0.79065-0.32866 0.29455-0.32866 0.29455-0.91777v-0.65733q-0.16433 0.27595-0.44028 0.42478-0.27285 0.14883-0.60462 0.14883-0.61391 0-0.98598-0.40618-0.36897-0.40927-0.36897-1.0635 0-0.66042 0.38757-1.0945 0.38757-0.43719 0.97048-0.43719 0.63873 0 1.0325 0.41858t0.39377 1.19063v1.46967q0 0.73484-0.40927 1.15032-0.40618 0.41548-1.0604 0.41548-0.23255 0-0.47129-0.0496-0.23565-0.0496-0.45889-0.14573l0.0682-0.30075q0.20464 0.0992 0.39998 0.14262 0.19844 0.0403 0.46199 0.0403zm0.0403-1.64331q0.39378 0 0.66353-0.19844 0.26975-0.19843 0.38137-0.48989v-0.43098q0-0.60151-0.27905-0.92708-0.27905-0.32556-0.74724-0.32556-0.43718 0-0.71314 0.35037-0.27595 0.35036-0.27595 0.86506 0 0.4961 0.25735 0.82786 0.26045 0.32866 0.71313 0.32866z" style="font-feature-settings:normal;font-variant-caps:normal;font-variant-ligatures:normal;font-variant-numeric:normal"/>
    <path d="m-152.1615 167.28118q0 0.77204-0.37517 1.21543-0.37207 0.44338-1.0232 0.44338-0.65112 0-1.02939-0.44338-0.37827-0.44649-0.37827-1.21543v-1.32705q0-0.76585 0.37517-1.21233 0.37517-0.44649 1.02629-0.44649t1.0263 0.44649q0.37827 0.44648 0.37827 1.21233zm-0.37207-1.38597q0-0.59221-0.26975-0.93637-0.26665-0.34727-0.76275-0.34727-0.49609 0-0.76584 0.34727-0.26665 0.34726-0.26665 0.93637v1.44178q0 0.58601 0.26975 0.93947 0.27285 0.35037 0.76894 0.35037 0.493 0 0.75965-0.35037 0.26665-0.35036 0.26665-0.93947z" style="font-feature-settings:normal;font-variant-caps:normal;font-variant-ligatures:normal;font-variant-numeric:normal"/>
    <path d="m-151.38326 165.33401q0-0.45889 0.26976-0.74724 0.27285-0.29146 0.73173-0.29146 0.45889 0 0.73174 0.29146 0.27285 0.28835 0.27285 0.74724v0.36277q0 0.46198-0.27285 0.75034-0.26975 0.28525-0.72553 0.28525-0.46199 0-0.73484-0.28525-0.27286-0.28836-0.27286-0.75034zm0.33487 0.36277q0 0.33176 0.16743 0.5364 0.17053 0.20464 0.5054 0.20464 0.31936 0 0.48989-0.20464 0.17363-0.20774 0.17363-0.5364v-0.36277q0-0.32246-0.17363-0.5302t-0.4961-0.20774q-0.32246 0-0.49609 0.20774-0.17053 0.20774-0.17053 0.5302z" style="font-feature-settings:normal;font-variant-caps:normal;font-variant-ligatures:normal;font-variant-numeric:normal"/>
    <path d="m-147.3928 167.09824q0 1.15342-0.42788 2.02779-0.42788 0.87436-0.96118 1.18442h-0.0186l-0.0806-0.21704q0.44648-0.31626 0.78134-1.13792 0.33797-0.82165 0.33797-1.85105v-0.062q0-1.02009-0.34417-1.84485-0.34106-0.82785-0.77514-1.14411l0.0806-0.21704h0.0186q0.5271 0.30385 0.95808 1.19682t0.43098 2.01848z" style="font-feature-settings:normal;font-variant-caps:normal;font-variant-ligatures:normal;font-variant-numeric:normal"/>
   </g>
  </g>
  <g transform="translate(354.89463 .96044616)" stroke-width=".26458332">
   <g style="font-feature-settings:normal;font-variant-caps:normal;font-variant-ligatures:normal;font-variant-numeric:normal" aria-label="The lines intersect ">
    <path d="m-264.38511 158.01895h-1.53789v4.1982h-0.36897v-4.1982h-1.5906v-0.31626h3.49746z" style="font-feature-settings:normal;font-variant-caps:normal;font-variant-ligatures:normal;font-variant-numeric:normal"/>
    <path d="m-263.37432 159.43282q0.17053-0.30076 0.44648-0.46509 0.27905-0.16743 0.65112-0.16743 0.53021 0 0.81236 0.32866 0.28525 0.32867 0.28525 1.0201v2.06809h-0.37207v-2.07429q0-0.54571-0.21704-0.78135-0.21394-0.23875-0.59221-0.23875-0.39067 0-0.64492 0.19224-0.25115 0.18914-0.36897 0.5085v2.39365h-0.37207v-4.83692h0.37207z" style="font-feature-settings:normal;font-variant-caps:normal;font-variant-ligatures:normal;font-variant-numeric:normal"/>
    <path d="m-258.93738 162.28226q-0.65113 0-1.0573-0.45889-0.40618-0.46198-0.40618-1.18442v-0.17053q0-0.72554 0.40928-1.19683 0.41237-0.47129 1.02009-0.47129 0.61082 0 0.94258 0.39378 0.33486 0.39067 0.33486 1.0542v0.28835h-2.33474v0.10232q0 0.57361 0.28835 0.95188 0.29146 0.37827 0.80306 0.37827 0.30695 0 0.5643-0.0992 0.25735-0.10232 0.42788-0.27285l0.15813 0.25425q-0.17673 0.18603-0.46508 0.31006-0.28526 0.12092-0.68523 0.12092zm-0.0341-3.1657q-0.42788 0-0.70383 0.30696-0.27596 0.30696-0.32246 0.77825l9e-3 0.0186h1.92236v-0.0775q0-0.44649-0.23564-0.73484-0.23255-0.29146-0.66973-0.29146z" style="font-feature-settings:normal;font-variant-caps:normal;font-variant-ligatures:normal;font-variant-numeric:normal"/>
    <path d="m-254.97173 162.21715h-0.36897v-4.83692h0.36897z" style="font-feature-settings:normal;font-variant-caps:normal;font-variant-ligatures:normal;font-variant-numeric:normal"/>
    <path d="m-253.53306 162.21715h-0.36897v-3.35484h0.36897zm0-4.31602h-0.36897v-0.5209h0.36897z" style="font-feature-settings:normal;font-variant-caps:normal;font-variant-ligatures:normal;font-variant-numeric:normal"/>
    <path d="m-252.18121 158.86231 0.0341 0.58291q0.16433-0.30695 0.43718-0.47439 0.27285-0.17053 0.64802-0.17053 0.54571 0 0.83096 0.33487 0.28526 0.33176 0.28526 1.03869v2.04329h-0.37207v-2.04019q0-0.57671-0.21705-0.81545-0.21394-0.23875-0.61081-0.23875-0.39688 0-0.64182 0.19534-0.24185 0.19534-0.35037 0.524v2.37505h-0.37207v-3.35484z" style="font-feature-settings:normal;font-variant-caps:normal;font-variant-ligatures:normal;font-variant-numeric:normal"/>
    <path d="m-247.70086 162.28226q-0.65112 0-1.0573-0.45889-0.40618-0.46198-0.40618-1.18442v-0.17053q0-0.72554 0.40928-1.19683 0.41238-0.47129 1.02009-0.47129 0.61082 0 0.94258 0.39378 0.33486 0.39067 0.33486 1.0542v0.28835h-2.33474v0.10232q0 0.57361 0.28836 0.95188 0.29145 0.37827 0.80305 0.37827 0.30696 0 0.56431-0.0992 0.25735-0.10232 0.42788-0.27285l0.15813 0.25425q-0.17674 0.18603-0.46509 0.31006-0.28525 0.12092-0.68523 0.12092zm-0.0341-3.1657q-0.42788 0-0.70383 0.30696t-0.32246 0.77825l9e-3 0.0186h1.92236v-0.0775q0-0.44649-0.23564-0.73484-0.23254-0.29146-0.66973-0.29146z" style="font-feature-settings:normal;font-variant-caps:normal;font-variant-ligatures:normal;font-variant-numeric:normal"/>
    <path d="m-243.6918 161.35829q0-0.23565-0.19534-0.40928-0.19224-0.17674-0.69763-0.28836-0.59532-0.12402-0.88677-0.33796-0.28835-0.21704-0.28835-0.60461 0-0.38448 0.32246-0.65113 0.32556-0.26665 0.85886-0.26665 0.5612 0 0.89607 0.28526 0.33486 0.28215 0.31936 0.69763l-6e-3 0.0186h-0.34417q0-0.27595-0.23874-0.48059-0.23565-0.20464-0.62632-0.20464-0.40308 0-0.60772 0.17674-0.20463 0.17673-0.20463 0.41237 0 0.22945 0.17363 0.38138 0.17673 0.14882 0.70073 0.26355 0.58911 0.13022 0.88987 0.36276 0.30386 0.23255 0.30386 0.62632 0 0.41858-0.34107 0.68213-0.33796 0.26045-0.89607 0.26045-0.61081 0-0.96118-0.29145-0.34727-0.29146-0.32866-0.69454l6e-3 -0.0186h0.34106q0.0217 0.36277 0.29456 0.5271 0.27595 0.16433 0.64802 0.16433 0.40308 0 0.63562-0.17983 0.23255-0.17984 0.23255-0.43098z" style="font-feature-settings:normal;font-variant-caps:normal;font-variant-ligatures:normal;font-variant-numeric:normal"/>
    <path d="m-240.4982 162.21715h-0.36897v-3.35484h0.36897zm0-4.31602h-0.36897v-0.5209h0.36897z" style="font-feature-settings:normal;font-variant-caps:normal;font-variant-ligatures:normal;font-variant-numeric:normal"/>
    <path d="m-239.14634 158.86231 0.0341 0.58291q0.16433-0.30695 0.43718-0.47439 0.27286-0.17053 0.64803-0.17053 0.5457 0 0.83095 0.33487 0.28526 0.33176 0.28526 1.03869v2.04329h-0.37207v-2.04019q0-0.57671-0.21704-0.81545-0.21394-0.23875-0.61082-0.23875-0.39687 0-0.64182 0.19534-0.24185 0.19534-0.35037 0.524v2.37505h-0.37207v-3.35484z" style="font-feature-settings:normal;font-variant-caps:normal;font-variant-ligatures:normal;font-variant-numeric:normal"/>
    <path d="m-235.36053 158.00345v0.85886h0.73794v0.30386h-0.73794v2.18591q0 0.32867 0.11782 0.46819 0.12093 0.13643 0.31936 0.13643 0.0682 0 0.13023-6e-3 0.0651-9e-3 0.15193-0.0279l0.0558 0.27595q-0.0744 0.0372-0.18604 0.0589-0.10852 0.0248-0.21704 0.0248-0.35347 0-0.5519-0.22324-0.19534-0.22324-0.19534-0.70694v-2.18591h-0.57981v-0.30386h0.57981v-0.85886z" style="font-feature-settings:normal;font-variant-caps:normal;font-variant-ligatures:normal;font-variant-numeric:normal"/>
    <path d="m-232.61961 162.28226q-0.65112 0-1.0573-0.45889-0.40618-0.46198-0.40618-1.18442v-0.17053q0-0.72554 0.40928-1.19683 0.41238-0.47129 1.02009-0.47129 0.61082 0 0.94258 0.39378 0.33487 0.39067 0.33487 1.0542v0.28835h-2.33475v0.10232q0 0.57361 0.28836 0.95188 0.29145 0.37827 0.80305 0.37827 0.30696 0 0.56431-0.0992 0.25735-0.10232 0.42788-0.27285l0.15813 0.25425q-0.17674 0.18603-0.46509 0.31006-0.28525 0.12092-0.68523 0.12092zm-0.0341-3.1657q-0.42788 0-0.70383 0.30696t-0.32246 0.77825l9e-3 0.0186h1.92237v-0.0775q0-0.44649-0.23565-0.73484-0.23254-0.29146-0.66973-0.29146z" style="font-feature-settings:normal;font-variant-caps:normal;font-variant-ligatures:normal;font-variant-numeric:normal"/>
    <path d="m-229.08804 159.18167-0.26355-0.0186q-0.35037 0-0.57671 0.19844-0.22325 0.19534-0.31936 0.5395v2.31614h-0.37207v-3.35484h0.32556l0.0465 0.55811v0.0372q0.14572-0.31006 0.39067-0.4837 0.24495-0.17363 0.58291-0.17363 0.0682 0 0.13022 0.0124 0.062 9e-3 0.10232 0.0217z" style="font-feature-settings:normal;font-variant-caps:normal;font-variant-ligatures:normal;font-variant-numeric:normal"/>
    <path d="m-226.44014 161.35829q0-0.23565-0.19534-0.40928-0.19224-0.17674-0.69763-0.28836-0.59532-0.12402-0.88677-0.33796-0.28836-0.21704-0.28836-0.60461 0-0.38448 0.32247-0.65113 0.32556-0.26665 0.85886-0.26665 0.5612 0 0.89607 0.28526 0.33486 0.28215 0.31936 0.69763l-6e-3 0.0186h-0.34417q0-0.27595-0.23874-0.48059-0.23565-0.20464-0.62632-0.20464-0.40308 0-0.60772 0.17674-0.20464 0.17673-0.20464 0.41237 0 0.22945 0.17364 0.38138 0.17673 0.14882 0.70073 0.26355 0.58911 0.13022 0.88987 0.36276 0.30386 0.23255 0.30386 0.62632 0 0.41858-0.34107 0.68213-0.33796 0.26045-0.89607 0.26045-0.61081 0-0.96118-0.29145-0.34727-0.29146-0.32866-0.69454l6e-3 -0.0186h0.34106q0.0217 0.36277 0.29456 0.5271 0.27595 0.16433 0.64802 0.16433 0.40308 0 0.63562-0.17983 0.23255-0.17984 0.23255-0.43098z" style="font-feature-settings:normal;font-variant-caps:normal;font-variant-ligatures:normal;font-variant-numeric:normal"/>
    <path d="m-223.93797 162.28226q-0.65112 0-1.0573-0.45889-0.40618-0.46198-0.40618-1.18442v-0.17053q0-0.72554 0.40928-1.19683 0.41238-0.47129 1.0201-0.47129 0.61081 0 0.94257 0.39378 0.33487 0.39067 0.33487 1.0542v0.28835h-2.33474v0.10232q0 0.57361 0.28835 0.95188 0.29145 0.37827 0.80305 0.37827 0.30696 0 0.56431-0.0992 0.25735-0.10232 0.42788-0.27285l0.15813 0.25425q-0.17673 0.18603-0.46509 0.31006-0.28525 0.12092-0.68523 0.12092zm-0.0341-3.1657q-0.42789 0-0.70384 0.30696t-0.32246 0.77825l9e-3 0.0186h1.92237v-0.0775q0-0.44649-0.23565-0.73484-0.23254-0.29146-0.66972-0.29146z" style="font-feature-settings:normal;font-variant-caps:normal;font-variant-ligatures:normal;font-variant-numeric:normal"/>
    <path d="m-220.71026 161.9691q0.35657 0 0.62942-0.21084 0.27595-0.21084 0.27595-0.58601h0.33176l6e-3 0.0186q0.0124 0.46509-0.36587 0.77825t-0.87746 0.31316q-0.66973 0-1.0449-0.47129-0.37207-0.47129-0.37207-1.20613v-0.13022q0-0.73174 0.37207-1.20303t1.0418-0.47129q0.5395 0 0.89917 0.32556 0.35967 0.32557 0.34726 0.85577l-6e-3 0.0186h-0.33176q0-0.40308-0.26355-0.64182-0.26355-0.24185-0.64492-0.24185-0.5271 0-0.78445 0.38758-0.25735 0.38757-0.25735 0.97048v0.13022q0 0.59222 0.25735 0.97979 0.25735 0.38447 0.78755 0.38447z" style="font-feature-settings:normal;font-variant-caps:normal;font-variant-ligatures:normal;font-variant-numeric:normal"/>
    <path d="m-218.08406 158.00345v0.85886h0.73793v0.30386h-0.73793v2.18591q0 0.32867 0.11782 0.46819 0.12092 0.13643 0.31936 0.13643 0.0682 0 0.13022-6e-3 0.0651-9e-3 0.15193-0.0279l0.0558 0.27595q-0.0744 0.0372-0.18603 0.0589-0.10852 0.0248-0.21704 0.0248-0.35347 0-0.55191-0.22324-0.19534-0.22324-0.19534-0.70694v-2.18591h-0.5798v-0.30386h0.5798v-0.85886z" style="font-feature-settings:normal;font-variant-caps:normal;font-variant-ligatures:normal;font-variant-numeric:normal"/>
   </g>
   <g style="font-feature-settings:normal;font-variant-caps:normal;font-variant-ligatures:normal;font-variant-numeric:normal" aria-label="at one point.">
    <path d="m-256.99952 168.87488q-0.0341-0.17674-0.0527-0.30386-0.0155-0.12712-0.0155-0.26045-0.17363 0.27285-0.48679 0.45269-0.31316 0.17673-0.71934 0.17673-0.49299 0-0.76584-0.26045-0.26975-0.26355-0.26975-0.71313 0-0.44959 0.39377-0.72864t1.02319-0.27905h0.82476v-0.41548q0-0.35967-0.22944-0.56431-0.22635-0.20464-0.64183-0.20464-0.38137 0-0.61701 0.18604-0.23255 0.18603-0.23255 0.46819h-0.34416l-6e-3 -0.0186q-0.0186-0.37827 0.32246-0.66352 0.34416-0.28836 0.89607-0.28836 0.5519 0 0.88677 0.28216 0.33486 0.28215 0.33486 0.80925v1.64951q0 0.17673 0.0186 0.34417 0.0217 0.16743 0.0682 0.33176zm-1.23403-0.26355q0.42788 0 0.74104-0.20154 0.31316-0.20464 0.42478-0.524v-0.64182h-0.82786q-0.45268 0-0.74724 0.21704-0.29455 0.21394-0.29455 0.5178 0 0.28525 0.18603 0.45889 0.18914 0.17363 0.5178 0.17363z" style="font-feature-settings:normal;font-variant-caps:normal;font-variant-ligatures:normal;font-variant-numeric:normal"/>
    <path d="m-255.13297 164.66118v0.85886h0.73794v0.30386h-0.73794v2.18591q0 0.32867 0.11783 0.46819 0.12092 0.13643 0.31936 0.13643 0.0682 0 0.13022-6e-3 0.0651-9e-3 0.15193-0.0279l0.0558 0.27595q-0.0744 0.0372-0.18603 0.0589-0.10852 0.0248-0.21704 0.0248-0.35347 0-0.55191-0.22324-0.19534-0.22324-0.19534-0.70694v-2.18591h-0.57981v-0.30386h0.57981v-0.85886z" style="font-feature-settings:normal;font-variant-caps:normal;font-variant-ligatures:normal;font-variant-numeric:normal"/>
    <path d="m-252.32383 167.14785q0-0.74104 0.40617-1.21543 0.40618-0.47439 1.07591-0.47439 0.67282 0 1.079 0.47439t0.40618 1.21543v0.10232q0 0.74414-0.40618 1.21853-0.40308 0.47129-1.0728 0.47129-0.67593 0-1.08211-0.47129-0.40617-0.47439-0.40617-1.21853zm0.37207 0.10232q0 0.58291 0.29455 0.97979 0.29456 0.39687 0.82166 0.39687 0.51779 0 0.81235-0.39687 0.29766-0.39688 0.29766-0.97979v-0.10232q0-0.57361-0.29766-0.97358-0.29766-0.39998-0.81855-0.39998-0.5209 0-0.81546 0.39998-0.29455 0.39997-0.29455 0.97358z" style="font-feature-settings:normal;font-variant-caps:normal;font-variant-ligatures:normal;font-variant-numeric:normal"/>
    <path d="m-248.25276 165.52004 0.0341 0.58291q0.16433-0.30695 0.43718-0.47439 0.27286-0.17053 0.64803-0.17053 0.5457 0 0.83095 0.33487 0.28526 0.33176 0.28526 1.03869v2.04329h-0.37207v-2.04019q0-0.57671-0.21704-0.81545-0.21394-0.23875-0.61082-0.23875-0.39687 0-0.64182 0.19534-0.24185 0.19534-0.35037 0.524v2.37505h-0.37207v-3.35484z" style="font-feature-settings:normal;font-variant-caps:normal;font-variant-ligatures:normal;font-variant-numeric:normal"/>
    <path d="m-243.77242 168.93999q-0.65112 0-1.0573-0.45889-0.40617-0.46198-0.40617-1.18442v-0.17053q0-0.72554 0.40927-1.19683 0.41238-0.47129 1.0201-0.47129 0.61081 0 0.94257 0.39378 0.33487 0.39067 0.33487 1.0542v0.28835h-2.33474v0.10232q0 0.57361 0.28835 0.95188 0.29146 0.37827 0.80305 0.37827 0.30696 0 0.56431-0.0992 0.25735-0.10232 0.42788-0.27285l0.15813 0.25425q-0.17673 0.18603-0.46509 0.31006-0.28525 0.12092-0.68523 0.12092zm-0.0341-3.1657q-0.42789 0-0.70384 0.30696t-0.32246 0.77825l9e-3 0.0186h1.92237v-0.0775q0-0.44649-0.23565-0.73484-0.23254-0.29146-0.66972-0.29146z" style="font-feature-settings:normal;font-variant-caps:normal;font-variant-ligatures:normal;font-variant-numeric:normal"/>
    <path d="m-237.52164 167.29048q0 0.75344-0.34106 1.20303-0.34107 0.44648-0.93948 0.44648-0.35036 0-0.61701-0.13332-0.26355-0.13333-0.43099-0.37828v1.73633h-0.37207v-4.64468h0.28526l0.0682 0.524q0.16743-0.27905 0.43408-0.43098 0.26665-0.15503 0.62632-0.15503 0.60461 0 0.94568 0.48369 0.34106 0.48059 0.34106 1.28365zm-0.37207-0.0651q0-0.63872-0.25424-1.0418-0.25425-0.40308-0.74415-0.40308-0.36896 0-0.60461 0.17674-0.23254 0.17673-0.35347 0.45888v1.62471q0.13023 0.27285 0.36897 0.43098 0.23875 0.15503 0.59532 0.15503 0.48679 0 0.73794-0.36587 0.25424-0.36587 0.25424-0.97048z" style="font-feature-settings:normal;font-variant-caps:normal;font-variant-ligatures:normal;font-variant-numeric:normal"/>
    <path d="m-236.89532 167.14785q0-0.74104 0.40618-1.21543t1.0759-0.47439q0.67283 0 1.07901 0.47439 0.40617 0.47439 0.40617 1.21543v0.10232q0 0.74414-0.40617 1.21853-0.40308 0.47129-1.07281 0.47129-0.67592 0-1.0821-0.47129-0.40618-0.47439-0.40618-1.21853zm0.37207 0.10232q0 0.58291 0.29456 0.97979 0.29455 0.39687 0.82165 0.39687 0.5178 0 0.81236-0.39687 0.29765-0.39688 0.29765-0.97979v-0.10232q0-0.57361-0.29765-0.97358-0.29766-0.39998-0.81856-0.39998t-0.81545 0.39998q-0.29456 0.39997-0.29456 0.97358z" style="font-feature-settings:normal;font-variant-caps:normal;font-variant-ligatures:normal;font-variant-numeric:normal"/>
    <path d="m-232.73743 168.87488h-0.36897v-3.35484h0.36897zm0-4.31602h-0.36897v-0.5209h0.36897z" style="font-feature-settings:normal;font-variant-caps:normal;font-variant-ligatures:normal;font-variant-numeric:normal"/>
    <path d="m-231.38558 165.52004 0.0341 0.58291q0.16433-0.30695 0.43718-0.47439 0.27285-0.17053 0.64802-0.17053 0.54571 0 0.83096 0.33487 0.28526 0.33176 0.28526 1.03869v2.04329h-0.37208v-2.04019q0-0.57671-0.21704-0.81545-0.21394-0.23875-0.61081-0.23875-0.39688 0-0.64182 0.19534-0.24185 0.19534-0.35037 0.524v2.37505h-0.37207v-3.35484z" style="font-feature-settings:normal;font-variant-caps:normal;font-variant-ligatures:normal;font-variant-numeric:normal"/>
    <path d="m-227.59976 164.66118v0.85886h0.73794v0.30386h-0.73794v2.18591q0 0.32867 0.11782 0.46819 0.12092 0.13643 0.31936 0.13643 0.0682 0 0.13023-6e-3 0.0651-9e-3 0.15192-0.0279l0.0558 0.27595q-0.0744 0.0372-0.18603 0.0589-0.10852 0.0248-0.21704 0.0248-0.35347 0-0.55191-0.22324-0.19533-0.22324-0.19533-0.70694v-2.18591h-0.57981v-0.30386h0.57981v-0.85886z" style="font-feature-settings:normal;font-variant-caps:normal;font-variant-ligatures:normal;font-variant-numeric:normal"/>
    <path d="m-225.6805 168.87488h-0.42478v-0.5085h0.42478z" style="font-feature-settings:normal;font-variant-caps:normal;font-variant-ligatures:normal;font-variant-numeric:normal"/>
   </g>
  </g>
  <g transform="matrix(0 -.30319033 .15234619 0 -185.05988 44.42697)" fill="none" stroke="#ffc107" stroke-linecap="round" stroke-width="5.29166651">
   <path d="m-572.07326 805.38669v114.8254"/>
   <path d="m-550.24094 805.38669v114.8254"/>
  </g>
  <g transform="matrix(0 -.30319033 .15234619 0 -167.21716 44.42697)" fill="none" stroke="#ffc107" stroke-dasharray="15.87364681, 15.87364681" stroke-linecap="round" stroke-width="5.29121542">
   <path d="m-572.07326 805.38669v114.8254"/>
   <path d="m-550.24094 805.38669v114.8254"/>
  </g>
  <g transform="matrix(.87942836 0 0 .87942836 5.7565957 27.077907)" stroke="#2196f3">
   <g stroke-linecap="round">
    <path d="m16.008357 211.09209h13.06176" fill="#a80" stroke-width="1.23377097"/>
    <path d="m32.525822 207.66451v-12.85175" fill="#a80" stroke-width="1.36076331"/>
    <rect x="29.29726" y="207.86349" width="6.4571586" height="6.4571586" ry="0" fill="none" stroke-width=".23287055"/>
   </g>
   <g transform="matrix(.88014071 0 0 .88014071 6.4163691 135.84488)" fill="#00c853" stroke-width=".26458332">
    <path d="m35.408446 80.344057q0.385851 0 0.614949-0.255626 0.229099-0.255626 0.229099-0.713824v-0.511252q-0.127813 0.214629-0.342442 0.330385-0.212218 0.115755-0.470256 0.115755-0.47749 0-0.766878-0.315916-0.286977-0.318326-0.286977-0.827167 0-0.513664 0.301446-0.851283 0.301446-0.340031 0.754821-0.340031 0.496783 0 0.803052 0.325562 0.306269 0.325561 0.306269 0.926041v1.143083q0 0.571541-0.318327 0.894691-0.315916 0.32315-0.824756 0.32315-0.180868 0-0.366558-0.03858-0.183279-0.03859-0.356912-0.113344l0.05305-0.233922q0.159164 0.07717 0.311092 0.110933 0.154341 0.03135 0.359324 0.03135zm0.03135-1.278131q0.306269 0 0.516075-0.15434 0.209807-0.15434 0.296623-0.381027v-0.335208q0-0.467844-0.217041-0.721059-0.217041-0.253214-0.581187-0.253214-0.340031 0-0.554661 0.272507-0.214629 0.272507-0.214629 0.672827 0 0.385851 0.20016 0.643888 0.202571 0.255626 0.55466 0.255626z" style="font-feature-settings:normal;font-variant-caps:normal;font-variant-ligatures:normal;font-variant-numeric:normal"/>
    <path d="m39.358592 79.297437q0 0.60048-0.291799 0.945334-0.289388 0.344854-0.795817 0.344854t-0.80064-0.344854q-0.294212-0.347266-0.294212-0.945334v-1.032151q0-0.595657 0.2918-0.942922 0.2918-0.347266 0.798229-0.347266t0.798228 0.347266q0.294211 0.347265 0.294211 0.942922zm-0.289388-1.077971q0-0.460609-0.209806-0.728293-0.207395-0.270095-0.593245-0.270095-0.385851 0-0.595657 0.270095-0.207395 0.270096-0.207395 0.728293v1.121379q0 0.455786 0.209806 0.730705 0.212218 0.272507 0.598069 0.272507 0.383439 0 0.590834-0.272507 0.207394-0.272507 0.207394-0.730705z" style="font-feature-settings:normal;font-variant-caps:normal;font-variant-ligatures:normal;font-variant-numeric:normal"/>
    <path d="m39.963896 77.782973q0-0.356912 0.209806-0.581188 0.212218-0.226687 0.56913-0.226687t0.56913 0.226687q0.212218 0.224276 0.212218 0.581188v0.282153q0 0.359324-0.212218 0.583599-0.209807 0.221865-0.564307 0.221865-0.359323 0-0.571541-0.221865-0.212218-0.224275-0.212218-0.583599zm0.260449 0.282153q0 0.258038 0.130225 0.417201 0.132636 0.159164 0.393085 0.159164 0.248392 0 0.381028-0.159164 0.135047-0.161575 0.135047-0.417201v-0.282153q0-0.250803-0.135047-0.412378-0.135048-0.161575-0.385851-0.161575t-0.385851 0.161575q-0.132636 0.161575-0.132636 0.412378z" style="font-feature-settings:normal;font-variant-caps:normal;font-variant-ligatures:normal;font-variant-numeric:normal"/>
   </g>
   <path d="m31.088667 211.09209h16.722414" fill="#a80" stroke-dasharray="2.77028028, 2.77028028" stroke-linecap="round" stroke-width="1.38514006"/>
   <path d="m32.259513 223.86366v-13.82553" fill="#a80" stroke-dasharray="2.82275006, 2.82275006" stroke-linecap="round" stroke-width="1.41137493"/>
  </g>
  <g transform="matrix(.11775401 -.17405613 .17405613 .11775401 46.506319 220.03748)" fill="none" stroke="#ef5350" stroke-linecap="round" stroke-width="5.29166651">
   <path d="m203.47594 243.59358-52.60553-73.73886"/>
   <path d="m256.11264 276.03417-87.18368-30.1002"/>
   <path d="m261.53135 324.55159-52.60553-73.73886" stroke-dasharray="10.58333336, 10.58333336"/>
  </g>
 </g>
</svg>
