<?xml version="1.0" encoding="UTF-8"?>
<!-- Created with Inkscape (http://www.inkscape.org/) -->
<svg width="187.325mm" height="66.145836mm" version="1.1" viewBox="0 0 187.325 66.145837" xmlns="http://www.w3.org/2000/svg" xmlns:cc="http://creativecommons.org/ns#" xmlns:dc="http://purl.org/dc/elements/1.1/" xmlns:rdf="http://www.w3.org/1999/02/22-rdf-syntax-ns#" xmlns:xlink="http://www.w3.org/1999/xlink">
 <defs>
  <linearGradient id="linearGradient70941" x1="80.036751" x2="179.13971" y1="-58.026459" y2="83.426445" gradientTransform="translate(-2.5476959e-4,2.6245117e-6)" gradientUnits="userSpaceOnUse">
   <stop stop-color="#9c27b0" offset="0"/>
   <stop stop-color="#2196f3" offset="1"/>
  </linearGradient>
 </defs>
 <metadata>
  <rdf:RDF>
   <cc:Work rdf:about="">
    <dc:format>image/svg+xml</dc:format>
    <dc:type rdf:resource="http://purl.org/dc/dcmitype/StillImage"/>
    <dc:title/>
   </cc:Work>
  </rdf:RDF>
 </metadata>
 <polygon transform="matrix(3.4969519,0,0,3.4969519,110.31782,748.67566)" points="" fill="#f9eab0"/>
 <polygon transform="matrix(1.7446123,0,0,1.7416956,118.51707,115.07015)" points="" fill="#f9eab0"/>
 <rect y="-1.4210855e-14" width="187.325" height="66.145836" fill="url(#linearGradient70941)"/>
 <g fill="none" stroke="#ffc107" stroke-linecap="round" stroke-linejoin="round" stroke-width="2.64583325">
  <g transform="matrix(.47431711 0 0 .47431711 -6.3083649 24.143941)">
   <path d="m56.57125-16.80094v5.275133"/>
   <path d="m59.208816-14.163374h-5.275133"/>
  </g>
  <g transform="matrix(.47431711 0 0 .47431711 87.987961 59.961578)">
   <path d="m56.57125-16.80094v5.275133"/>
   <path d="m59.208816-14.163374h-5.275133"/>
  </g>
  <g transform="matrix(.38140616 0 0 .38140616 116.56049 17.493438)">
   <path d="m56.57125-16.80094v5.275133"/>
   <path d="m59.208816-14.163374h-5.275133"/>
  </g>
  <g transform="matrix(.38140616 0 0 .38140616 58.5907 25.470268)">
   <path d="m56.57125-16.80094v5.275133"/>
   <path d="m59.208816-14.163374h-5.275133"/>
  </g>
  <g transform="matrix(.41418467 0 0 .41418467 -7.6413331 60.447798)">
   <path d="m56.57125-16.80094v5.275133"/>
   <path d="m59.208816-14.163374h-5.275133"/>
  </g>
  <g transform="matrix(.32565959 0 0 .32565959 153.45076 55.361278)">
   <path d="m56.57125-16.80094v5.275133"/>
   <path d="m59.208816-14.163374h-5.275133"/>
  </g>
  <g transform="matrix(.23274864 0 0 .23274864 161.52365 17.76611)">
   <path d="m56.57125-16.80094v5.275133"/>
   <path d="m59.208816-14.163374h-5.275133"/>
  </g>
  <g transform="matrix(.28849521 0 0 .28849521 163.56216 27.861208)">
   <path d="m56.57125-16.80094v5.275133"/>
   <path d="m59.208816-14.163374h-5.275133"/>
  </g>
  <g transform="matrix(.32565959 0 0 .32565959 -8.0267276 13.214707)">
   <path d="m56.57125-16.80094v5.275133"/>
   <path d="m59.208816-14.163374h-5.275133"/>
  </g>
 </g>
 <g transform="matrix(.49548229 0 0 .49548251 28.114321 11.403505)">
  <g fill="#73ffad" style="font-feature-settings:normal;font-variant-caps:normal;font-variant-ligatures:normal;font-variant-numeric:normal" aria-label="1">
   <path d="m252.80249 30.509766-13.95264 0.387573-3.83267 3.14365v13.220553l3.4451-1.593356 0.38757 41.685654h15.0723z" fill="#73ffad" stroke-width=".26458335" style="font-feature-settings:normal;font-variant-caps:normal;font-variant-ligatures:normal;font-variant-numeric:normal"/>
  </g>
  <g transform="matrix(1.6230488,0,0,1.6230488,78.368628,-244.13509)" fill="#fff" stroke="#00c853" stroke-width=".48904875" style="font-feature-settings:normal;font-variant-caps:normal;font-variant-ligatures:normal;font-variant-numeric:normal" aria-label="MIXED">
   <path d="m43.436659 161.89177 0.72347 11.3602-4.392497 0.37035-0.232544-5.8136-0.887112 3.99631-3.944634 0.55121-1.60197-4.1255 0.577054 4.89204-4.02215 0.82682 0.551216-12.05783 3.953247-0.52538 2.187636 6.89019 2.652723-6.68349z" style="font-feature-settings:normal;font-variant-caps:normal;font-variant-ligatures:normal;font-variant-numeric:normal"/>
   <path d="m48.604302 161.96067 0.878499 11.61858-4.87481 0.92157 0.223931-12.23871z" style="font-feature-settings:normal;font-variant-caps:normal;font-variant-ligatures:normal;font-variant-numeric:normal"/>
   <path d="m53.642755 167.92068-3.600125-3.95324 3.402032-2.07567 2.101508 3.13503 2.144572-3.13503 4.108276 2.44601-4.24608 3.60874 4.047987 4.47863-3.832669 1.52445-2.247924-3.11781-2.041219 3.11781-3.565674-1.32636z" style="font-feature-settings:normal;font-variant-caps:normal;font-variant-ligatures:normal;font-variant-numeric:normal"/>
   <path d="m71.376383 160.34147 0.223931 4.56475-5.357124 0.57706 0.0689 1.04214 3.513998-0.32728 0.310058 3.11781-3.669027 0.26699 0.06029 0.84405 5.202094-0.39619 0.775146 3.9188-10.257772 0.35312 1.042142-12.42818z" style="font-feature-settings:normal;font-variant-caps:normal;font-variant-ligatures:normal;font-variant-numeric:normal"/>
   <path d="m73.477893 173.9496-0.551216-12.05783q11.747776 0 11.747776 6.02891 0 6.02892-11.19656 6.02892zm3.066135-8.86251 0.577053 4.16857q3.729316 0.0172 3.729316-2.07567 0-2.0929-4.306369-2.0929z" style="font-feature-settings:normal;font-variant-caps:normal;font-variant-ligatures:normal;font-variant-numeric:normal"/>
  </g>
  <g transform="matrix(1.1597822,0,0,1.6146295,127.52095,-235.97057)" fill="#fff" stroke="#00c853" stroke-width=".58004153" style="font-feature-settings:normal;font-variant-caps:normal;font-variant-ligatures:normal;font-variant-numeric:normal" aria-label="operations">
   <path d="m6.1212353 189.50299q-2.9111058 0-4.9695504-1.76561-2.04983186-1.76561-2.04983186-4.26331 0-2.49769 2.04983186-4.2633 2.0584446-1.76561 4.9695504-1.76561 2.902493 0 4.9523247 1.76561 2.058445 1.76561 2.058445 4.2633 0 2.4977-2.058445 4.26331-2.0498317 1.76561-4.9523247 1.76561zm-0.4823134-3.76377q1.2402344 0 2.1187338-0.75792 0.8871121-0.75792 0.8871121-1.8259t-0.8871121-1.8259q-0.8784994-0.75792-2.1187338-0.75792-1.2488472 0-2.1359593 0.75792-0.8784993 0.75792-0.8784993 1.8259t0.8784993 1.8259q0.8871121 0.75792 2.1359593 0.75792z" style="font-feature-settings:normal;font-variant-caps:normal;font-variant-ligatures:normal;font-variant-numeric:normal"/>
   <path d="m18.222133 186.03206 0.697632 2.57521-4.495849 0.89572-0.852662-11.53246q11.472169-1.85174 12.049222 3.781 0 4.30637-7.398343 4.28053zm-1.179945-5.09874 0.482314 1.67948q4.650879 0 4.375271-1.22301t-4.857585-0.45647z" style="font-feature-settings:normal;font-variant-caps:normal;font-variant-ligatures:normal;font-variant-numeric:normal"/>
   <path d="m35.172003 175.89486 0.223932 4.56475-5.357124 0.57706 0.0689 1.04214 3.513997-0.32728 0.310059 3.11781-3.669027 0.26699 0.06029 0.84405 5.202095-0.39619 0.775146 3.9188-10.257772 0.35312 1.042142-12.42818z" style="font-feature-settings:normal;font-variant-caps:normal;font-variant-ligatures:normal;font-variant-numeric:normal"/>
   <path d="m40.94254 180.28736 0.120579 2.32544q4.306369 0 4.306369-0.86127 0-0.86128-4.426948-1.46417zm0.577054 8.518-4.797296 0.67179 0.999078-12.85882q11.093208 0.82683 11.463556 4.44418 0.37896 3.60873-3.815444 4.99539l3.445096 1.86896-3.531223 3.12642-4.039375-4.99538z" style="font-feature-settings:normal;font-variant-caps:normal;font-variant-ligatures:normal;font-variant-numeric:normal"/>
   <path d="m52.983147 187.78044-0.602892 1.72255-3.393419-2.04983 4.254693-10.008 3.23839-0.22393 5.090129 10.36112-4.022149 1.92064-0.887113-2.42018zm2.945557-3.77238-0.964627-3.11781-1.136882 3.4451z" style="font-feature-settings:normal;font-variant-caps:normal;font-variant-ligatures:normal;font-variant-numeric:normal"/>
   <path d="m66.324281 181.11418 0.422025 7.33806-4.668105 1.20578 0.800985-8.76777-3.52261-0.30144 0.275607-3.18672 10.102743-0.60289 0.370348 4.71117z" style="font-feature-settings:normal;font-variant-caps:normal;font-variant-ligatures:normal;font-variant-numeric:normal"/>
   <path d="m74.549443 177.51406 0.878499 11.61858-4.87481 0.92157 0.223931-12.23871z" style="font-feature-settings:normal;font-variant-caps:normal;font-variant-ligatures:normal;font-variant-numeric:normal"/>
   <path d="m82.877964 189.50299q-2.911105 0-4.96955-1.76561-2.049832-1.76561-2.049832-4.26331 0-2.49769 2.049832-4.2633 2.058445-1.76561 4.96955-1.76561 2.902493 0 4.952325 1.76561 2.058445 1.76561 2.058445 4.2633 0 2.4977-2.058445 4.26331-2.049832 1.76561-4.952325 1.76561zm-0.482313-3.76377q1.240234 0 2.118734-0.75792 0.887112-0.75792 0.887112-1.8259t-0.887112-1.8259q-0.8785-0.75792-2.118734-0.75792-1.248847 0-2.135959 0.75792-0.8785 0.75792-0.8785 1.8259t0.8785 1.8259q0.887112 0.75792 2.135959 0.75792z" style="font-feature-settings:normal;font-variant-caps:normal;font-variant-ligatures:normal;font-variant-numeric:normal"/>
   <path d="m94.642963 183.47407 0.852661 4.9351-4.297757 1.09382-0.869886-11.30853 4.314982-0.7493 4.254693 5.63273 0.05168-5.63273 5.339894-0.55122-1.8948 12.60905-3.419255 0.49954z" style="font-feature-settings:normal;font-variant-caps:normal;font-variant-ligatures:normal;font-variant-numeric:normal"/>
   <path d="m107.32092 184.74015q-3.1092-0.43925-2.74747-3.86712 0.36174-3.42787 7.99262-4.0566l0.72347 3.89295q-3.78099-0.0861-4.0566 0.89573-0.2756 0.98185 2.89388 1.12827 3.16949 0.14641 3.10059 3.8585-0.0689 3.7121-8.34574 3.96186l-1.52446-4.07382q4.23747 0.45647 4.65949-0.42202 0.42203-0.88712-2.69578-1.31775z" style="font-feature-settings:normal;font-variant-caps:normal;font-variant-ligatures:normal;font-variant-numeric:normal"/>
  </g>
  <rect x=".11408447" y=".11408447" width="264.35516" height="87.084328" ry="3.035013" opacity="0" stroke-width=".22816895"/>
  <g transform="translate(20.914614,124.12956)" fill="#f9eab0">
   <g transform="translate(-4.3209865,-13.021881)">
    <polygon transform="matrix(3.4969519,0,0,3.4969519,113.27756,365.73105)" points=""/>
    <polygon transform="matrix(3.4969519,0,0,3.4969519,342.59567,411.52488)" points=""/>
    <polygon transform="matrix(3.4969519,0,0,3.4969519,289.53119,373.17891)" points=""/>
    <polygon transform="matrix(3.4969519,0,0,3.4969519,300.01292,440.20544)" points=""/>
   </g>
   <polygon transform="matrix(3.4969519,0,0,3.4969519,287.00033,421.65347)" points=""/>
   <polygon transform="matrix(3.4969519,0,0,3.4969519,303.01547,430.5806)" points=""/>
   <polygon transform="matrix(3.4969519,0,0,3.4969519,329.47079,438.07209)" points=""/>
   <polygon transform="matrix(3.4969519,0,0,3.4969519,294.31957,398.16563)" points=""/>
   <g transform="translate(300.0781,58.644218)">
    <polygon transform="matrix(3.4969519,0,0,3.4969519,454.53799,116.97428)" points=""/>
    <polygon transform="matrix(9.1061708,0,0,9.0930789,1282.4585,1088.9576)" points=""/>
    <polygon transform="matrix(3.4969519,0,0,3.4969519,828.57006,-535.68054)" points=""/>
    <polygon transform="matrix(3.4969519,0,0,3.4969519,-1847.954,290.9635)" points=""/>
   </g>
  </g>
  <g transform="translate(-343.85694,165.85258)" letter-spacing="0px" word-spacing="0px">
   <text x="-1222.3983" y="-173.37076" font-family="sans-serif" font-size="10.58333302px" stroke-width=".26458332" style="line-height:1.25" xml:space="preserve"><tspan x="-1222.3983" y="-164.00699" stroke-width=".26458332"/></text>
   <text x="-2245.1282" y="-126.3082" font-family="'SC Gum Kids'" font-size="266.9718323px" stroke-width=".80091542" style="font-feature-settings:normal;font-variant-caps:normal;font-variant-ligatures:normal;font-variant-numeric:normal;line-height:1.25" xml:space="preserve"><tspan x="-2245.1282" y="114.67583" font-family="'SC Gum Kids'" font-size="266.9718323px" stroke-width=".80091542" style="font-feature-settings:normal;font-variant-caps:normal;font-variant-ligatures:normal;font-variant-numeric:normal"/></text>
   <text x="912.07428" y="386.35889" font-family="sans-serif" font-size="10.58333302px" stroke-width=".26458332" style="line-height:1.25" xml:space="preserve"><tspan x="912.07428" y="395.72266" stroke-width=".26458332"/></text>
  </g>
  <polygon transform="matrix(3.4969519,0,0,3.4969519,-1523.83,508.32688)" points="" fill="#f9eab0"/>
  <g transform="translate(320.99271,182.77378)" letter-spacing="0px" word-spacing="0px">
   <text x="-1884.1167" y="-155.70239" font-family="sans-serif" font-size="10.58333302px" stroke-width=".26458332" style="line-height:1.25" xml:space="preserve"><tspan x="-1884.1167" y="-146.33862" stroke-width=".26458332"/></text>
   <text x="-2906.8464" y="-108.63977" font-family="'SC Gum Kids'" font-size="266.9718323px" stroke-width=".80091542" style="font-feature-settings:normal;font-variant-caps:normal;font-variant-ligatures:normal;font-variant-numeric:normal;line-height:1.25" xml:space="preserve"><tspan x="-2906.8464" y="132.34424" font-family="'SC Gum Kids'" font-size="266.9718323px" stroke-width=".80091542" style="font-feature-settings:normal;font-variant-caps:normal;font-variant-ligatures:normal;font-variant-numeric:normal"/></text>
   <text x="250.35588" y="404.02722" font-family="sans-serif" font-size="10.58333302px" stroke-width=".26458332" style="line-height:1.25" xml:space="preserve"><tspan x="250.35588" y="413.39099" stroke-width=".26458332"/></text>
  </g>
  <polygon transform="matrix(3.4969519,0,0,3.4969519,-1674.5146,479.59538)" points="" fill="#f9eab0"/>
  <g transform="translate(320.99271,182.77378)" letter-spacing="0px" word-spacing="0px">
   <text x="-2034.8013" y="-184.43384" font-family="sans-serif" font-size="10.58333302px" stroke-width=".26458332" style="line-height:1.25" xml:space="preserve"><tspan x="-2034.8013" y="-175.07007" stroke-width=".26458332"/></text>
   <text x="-3057.531" y="-137.37134" font-family="'SC Gum Kids'" font-size="266.9718323px" stroke-width=".80091542" style="font-feature-settings:normal;font-variant-caps:normal;font-variant-ligatures:normal;font-variant-numeric:normal;line-height:1.25" xml:space="preserve"><tspan x="-3057.531" y="103.61267" font-family="'SC Gum Kids'" font-size="266.9718323px" stroke-width=".80091542" style="font-feature-settings:normal;font-variant-caps:normal;font-variant-ligatures:normal;font-variant-numeric:normal"/></text>
   <text x="99.671333" y="375.29578" font-family="sans-serif" font-size="10.58333302px" stroke-width=".26458332" style="line-height:1.25" xml:space="preserve"><tspan x="99.671333" y="384.65955" stroke-width=".26458332"/></text>
  </g>
  <polygon transform="matrix(3.4969519,0,0,3.4969519,-1674.2706,533.83278)" points="" fill="#f9eab0"/>
  <g transform="translate(309.09447,-199.93547)" letter-spacing="0px" word-spacing="0px">
   <text x="-2022.6592" y="252.51283" font-family="sans-serif" font-size="10.58333302px" stroke-width=".26458332" style="line-height:1.25" xml:space="preserve"><tspan x="-2022.6592" y="261.87659" stroke-width=".26458332"/></text>
   <text x="-3045.3889" y="299.57538" font-family="'SC Gum Kids'" font-size="266.9718323px" stroke-width=".80091542" style="font-feature-settings:normal;font-variant-caps:normal;font-variant-ligatures:normal;font-variant-numeric:normal;line-height:1.25" xml:space="preserve"><tspan x="-3045.3889" y="540.55945" font-family="'SC Gum Kids'" font-size="266.9718323px" stroke-width=".80091542" style="font-feature-settings:normal;font-variant-caps:normal;font-variant-ligatures:normal;font-variant-numeric:normal"/></text>
   <text x="111.81351" y="812.24249" font-family="sans-serif" font-size="10.58333302px" stroke-width=".26458332" style="line-height:1.25" xml:space="preserve"><tspan x="111.81351" y="821.60626" stroke-width=".26458332"/></text>
  </g>
  <polygon transform="matrix(3.4969519,0,0,3.4969519,-1825.4199,481.83268)" points="" fill="#f9eab0"/>
  <g transform="translate(320.99271,182.77378)" letter-spacing="0px" word-spacing="0px">
   <text x="-2185.7068" y="-182.19659" font-family="sans-serif" font-size="10.58333302px" stroke-width=".26458332" style="line-height:1.25" xml:space="preserve"><tspan x="-2185.7068" y="-172.83282" stroke-width=".26458332"/></text>
   <text x="-3208.4365" y="-135.13403" font-family="'SC Gum Kids'" font-size="266.9718323px" stroke-width=".80091542" style="font-feature-settings:normal;font-variant-caps:normal;font-variant-ligatures:normal;font-variant-numeric:normal;line-height:1.25" xml:space="preserve"><tspan x="-3208.4365" y="105.84998" font-family="'SC Gum Kids'" font-size="266.9718323px" stroke-width=".80091542" style="font-feature-settings:normal;font-variant-caps:normal;font-variant-ligatures:normal;font-variant-numeric:normal"/></text>
   <text x="-51.233967" y="377.53308" font-family="sans-serif" font-size="10.58333302px" stroke-width=".26458332" style="line-height:1.25" xml:space="preserve"><tspan x="-51.233967" y="386.89685" stroke-width=".26458332"/></text>
  </g>
  <polygon transform="matrix(3.4969519,0,0,3.4969519,-1820.555,545.13498)" points="" fill="#f9eab0"/>
  <g transform="translate(320.99271,182.77378)" letter-spacing="0px" word-spacing="0px">
   <text x="-2180.8418" y="-118.89429" font-family="sans-serif" font-size="10.58333302px" stroke-width=".26458332" style="line-height:1.25" xml:space="preserve"><tspan x="-2180.8418" y="-109.53052" stroke-width=".26458332"/></text>
   <text x="-3203.5715" y="-71.831665" font-family="'SC Gum Kids'" font-size="266.9718323px" stroke-width=".80091542" style="font-feature-settings:normal;font-variant-caps:normal;font-variant-ligatures:normal;font-variant-numeric:normal;line-height:1.25" xml:space="preserve"><tspan x="-3203.5715" y="169.15234" font-family="'SC Gum Kids'" font-size="266.9718323px" stroke-width=".80091542" style="font-feature-settings:normal;font-variant-caps:normal;font-variant-ligatures:normal;font-variant-numeric:normal"/></text>
   <text x="-46.369076" y="440.83533" font-family="sans-serif" font-size="10.58333302px" stroke-width=".26458332" style="line-height:1.25" xml:space="preserve"><tspan x="-46.369076" y="450.1991" stroke-width=".26458332"/></text>
  </g>
  <polygon transform="matrix(3.4969519,0,0,3.4969519,-1526.9613,1480.4196)" points="" fill="#f9eab0"/>
  <g transform="translate(320.99271,182.77378)" letter-spacing="0px" word-spacing="0px">
   <text x="-1887.2479" y="816.39038" font-family="sans-serif" font-size="10.58333302px" stroke-width=".26458332" style="line-height:1.25" xml:space="preserve"><tspan x="-1887.2479" y="825.75415" stroke-width=".26458332"/></text>
   <text x="-2909.9778" y="863.45288" font-family="'SC Gum Kids'" font-size="266.9718323px" stroke-width=".80091542" style="font-feature-settings:normal;font-variant-caps:normal;font-variant-ligatures:normal;font-variant-numeric:normal;line-height:1.25" xml:space="preserve"><tspan x="-2909.9778" y="1104.437" font-family="'SC Gum Kids'" font-size="266.9718323px" stroke-width=".80091542" style="font-feature-settings:normal;font-variant-caps:normal;font-variant-ligatures:normal;font-variant-numeric:normal"/></text>
   <text x="247.22462" y="1376.1199" font-family="sans-serif" font-size="10.58333302px" stroke-width=".26458332" style="line-height:1.25" xml:space="preserve"><tspan x="247.22462" y="1385.4836" stroke-width=".26458332"/></text>
  </g>
  <polygon transform="matrix(3.4969519,0,0,3.4969519,-1523.83,1515.0092)" points="" fill="#f9eab0"/>
  <g transform="translate(320.99271,182.77378)" letter-spacing="0px" word-spacing="0px">
   <text x="-1884.1167" y="850.97998" font-family="sans-serif" font-size="10.58333302px" stroke-width=".26458332" style="line-height:1.25" xml:space="preserve"><tspan x="-1884.1167" y="860.34375" stroke-width=".26458332"/></text>
   <text x="-2906.8464" y="898.04248" font-family="'SC Gum Kids'" font-size="266.9718323px" stroke-width=".80091542" style="font-feature-settings:normal;font-variant-caps:normal;font-variant-ligatures:normal;font-variant-numeric:normal;line-height:1.25" xml:space="preserve"><tspan x="-2906.8464" y="1139.0266" font-family="'SC Gum Kids'" font-size="266.9718323px" stroke-width=".80091542" style="font-feature-settings:normal;font-variant-caps:normal;font-variant-ligatures:normal;font-variant-numeric:normal"/></text>
   <text x="250.35588" y="1410.7095" font-family="sans-serif" font-size="10.58333302px" stroke-width=".26458332" style="line-height:1.25" xml:space="preserve"><tspan x="250.35588" y="1420.0732" stroke-width=".26458332"/></text>
  </g>
  <polygon transform="matrix(3.4969519,0,0,3.4969519,-1674.5146,1486.2777)" points="" fill="#f9eab0"/>
  <g transform="translate(320.99271,182.77378)" letter-spacing="0px" word-spacing="0px">
   <text x="-2034.8013" y="822.24841" font-family="sans-serif" font-size="10.58333302px" stroke-width=".26458332" style="line-height:1.25" xml:space="preserve"><tspan x="-2034.8013" y="831.61218" stroke-width=".26458332"/></text>
   <text x="-3057.531" y="869.31104" font-family="'SC Gum Kids'" font-size="266.9718323px" stroke-width=".80091542" style="font-feature-settings:normal;font-variant-caps:normal;font-variant-ligatures:normal;font-variant-numeric:normal;line-height:1.25" xml:space="preserve"><tspan x="-3057.531" y="1110.2949" font-family="'SC Gum Kids'" font-size="266.9718323px" stroke-width=".80091542" style="font-feature-settings:normal;font-variant-caps:normal;font-variant-ligatures:normal;font-variant-numeric:normal"/></text>
   <text x="99.671333" y="1381.978" font-family="sans-serif" font-size="10.58333302px" stroke-width=".26458332" style="line-height:1.25" xml:space="preserve"><tspan x="99.671333" y="1391.3418" stroke-width=".26458332"/></text>
  </g>
  <polygon transform="matrix(3.4969519,0,0,3.4969519,-1674.2706,1540.5152)" points="" fill="#f9eab0"/>
  <g transform="translate(309.09447,806.74688)" letter-spacing="0px" word-spacing="0px">
   <text x="-2022.6592" y="252.51283" font-family="sans-serif" font-size="10.58333302px" stroke-width=".26458332" style="line-height:1.25" xml:space="preserve"><tspan x="-2022.6592" y="261.87659" stroke-width=".26458332"/></text>
   <text x="-3045.3889" y="299.57538" font-family="'SC Gum Kids'" font-size="266.9718323px" stroke-width=".80091542" style="font-feature-settings:normal;font-variant-caps:normal;font-variant-ligatures:normal;font-variant-numeric:normal;line-height:1.25" xml:space="preserve"><tspan x="-3045.3889" y="540.55945" font-family="'SC Gum Kids'" font-size="266.9718323px" stroke-width=".80091542" style="font-feature-settings:normal;font-variant-caps:normal;font-variant-ligatures:normal;font-variant-numeric:normal"/></text>
   <text x="111.81351" y="812.24249" font-family="sans-serif" font-size="10.58333302px" stroke-width=".26458332" style="line-height:1.25" xml:space="preserve"><tspan x="111.81351" y="821.60626" stroke-width=".26458332"/></text>
  </g>
  <polygon transform="matrix(3.4969519,0,0,3.4969519,-1825.4199,1488.515)" points="" fill="#f9eab0"/>
  <g transform="translate(320.99271,182.77378)" letter-spacing="0px" word-spacing="0px">
   <text x="-2185.7068" y="824.48572" font-family="sans-serif" font-size="10.58333302px" stroke-width=".26458332" style="line-height:1.25" xml:space="preserve"><tspan x="-2185.7068" y="833.84949" stroke-width=".26458332"/></text>
   <text x="-3208.4365" y="871.54834" font-family="'SC Gum Kids'" font-size="266.9718323px" stroke-width=".80091542" style="font-feature-settings:normal;font-variant-caps:normal;font-variant-ligatures:normal;font-variant-numeric:normal;line-height:1.25" xml:space="preserve"><tspan x="-3208.4365" y="1112.5322" font-family="'SC Gum Kids'" font-size="266.9718323px" stroke-width=".80091542" style="font-feature-settings:normal;font-variant-caps:normal;font-variant-ligatures:normal;font-variant-numeric:normal"/></text>
   <text x="-51.233967" y="1384.2153" font-family="sans-serif" font-size="10.58333302px" stroke-width=".26458332" style="line-height:1.25" xml:space="preserve"><tspan x="-51.233967" y="1393.5791" stroke-width=".26458332"/></text>
  </g>
  <polygon transform="matrix(3.4969519,0,0,3.4969519,-1820.555,1551.8173)" points="" fill="#f9eab0"/>
  <g transform="translate(954.26072,819.90448)" letter-spacing="0px" word-spacing="0px">
   <text x="-2814.1099" y="250.65732" font-family="sans-serif" font-size="10.58333302px" stroke-width=".26458332" style="line-height:1.25" xml:space="preserve"><tspan x="-2814.1099" y="260.02109" stroke-width=".26458332"/></text>
   <text x="-3836.8396" y="297.71988" font-family="'SC Gum Kids'" font-size="266.9718323px" stroke-width=".80091542" style="font-feature-settings:normal;font-variant-caps:normal;font-variant-ligatures:normal;font-variant-numeric:normal;line-height:1.25" xml:space="preserve"><tspan x="-3836.8396" y="538.70392" font-family="'SC Gum Kids'" font-size="266.9718323px" stroke-width=".80091542" style="font-feature-settings:normal;font-variant-caps:normal;font-variant-ligatures:normal;font-variant-numeric:normal"/></text>
   <text x="-679.63708" y="810.38696" font-family="sans-serif" font-size="10.58333302px" stroke-width=".26458332" style="line-height:1.25" xml:space="preserve"><tspan x="-679.63708" y="819.75073" stroke-width=".26458332"/></text>
  </g>
  <polygon transform="matrix(3.4969519,0,0,3.4969519,949.29149,683.21459)" points="" fill="#f9eab0"/>
  <polygon transform="matrix(3.4969519,0,0,3.4969519,178.88033,501.99496)" points="" fill="#f9eab0"/>
  <g transform="matrix(.84201031 0 0 .84201031 -10.23719 -67.508701)">
   <g transform="matrix(.1190174 0 0 .1190174 15.359821 101.59062)" fill="#00c853">
    <g fill="#00c853">
     <g fill="#00c853">
      <path d="m477.549 182.379h-148.531v-148.532c0-18.69-15.154-33.844-33.844-33.844h-78.954c-18.69 0-33.844 15.153-33.844 33.844v148.526h-148.532c-18.691 0-33.844 15.153-33.844 33.843v78.966c0 18.691 15.153 33.844 33.844 33.844h148.532v148.527c0 18.689 15.153 33.842 33.844 33.842h78.96c18.691 0 33.844-15.152 33.844-33.842v-148.527h148.533c18.689 0 33.842-15.152 33.842-33.844v-78.966c-6e-3 -18.69-15.153-33.837-33.85-33.837z" fill="#00c853"/>
     </g>
    </g>
   </g>
   <rect x="64.53038" y="144.757" width="60.882935" height="17.698526" ry="3.3627203" fill="#e91e63"/>
   <rect x="47.358662" y="105.38378" width="3.6059895" height="14.423959" ry="1.8029947" fill="#a9ffcd"/>
   <rect x="118.27647" y="147.83669" width="4.0867882" height="11.539167" ry="2.0433941" fill="#f9bfd3"/>
  </g>
 </g>
</svg>
