<?xml version="1.0" encoding="UTF-8"?>
<!-- Created with Inkscape (http://www.inkscape.org/) -->
<svg width="187.325mm" height="66.145836mm" version="1.1" viewBox="0 0 187.325 66.145837" xmlns="http://www.w3.org/2000/svg" xmlns:cc="http://creativecommons.org/ns#" xmlns:dc="http://purl.org/dc/elements/1.1/" xmlns:rdf="http://www.w3.org/1999/02/22-rdf-syntax-ns#">
 <defs>
  <linearGradient id="linearGradient70941" x1="80.036751" x2="179.13971" y1="-58.026459" y2="83.426445" gradientTransform="translate(-2.5476959e-4,2.6245117e-6)" gradientUnits="userSpaceOnUse">
   <stop stop-color="#9c27b0" offset="0"/>
   <stop stop-color="#2196f3" offset="1"/>
  </linearGradient>
 </defs>
 <metadata>
  <rdf:RDF>
   <cc:Work rdf:about="">
    <dc:format>image/svg+xml</dc:format>
    <dc:type rdf:resource="http://purl.org/dc/dcmitype/StillImage"/>
    <dc:title/>
   </cc:Work>
  </rdf:RDF>
 </metadata>
 <polygon transform="matrix(3.4969519,0,0,3.4969519,110.31782,748.67566)" points="" fill="#f9eab0"/>
 <polygon transform="matrix(1.7446123,0,0,1.7416956,118.51707,115.07015)" points="" fill="#f9eab0"/>
 <rect y="-1.4210855e-14" width="187.325" height="66.145836" fill="url(#linearGradient70941)"/>
 <g fill="none" stroke="#ffc107" stroke-linecap="round" stroke-linejoin="round" stroke-width="2.64583325">
  <g transform="matrix(.47431711 0 0 .47431711 -6.3083649 24.143941)">
   <path d="m56.57125-16.80094v5.275133"/>
   <path d="m59.208816-14.163374h-5.275133"/>
  </g>
  <g transform="matrix(.47431711 0 0 .47431711 87.987961 59.961578)">
   <path d="m56.57125-16.80094v5.275133"/>
   <path d="m59.208816-14.163374h-5.275133"/>
  </g>
  <g transform="matrix(.38140616 0 0 .38140616 116.56049 17.493438)">
   <path d="m56.57125-16.80094v5.275133"/>
   <path d="m59.208816-14.163374h-5.275133"/>
  </g>
  <g transform="matrix(.38140616 0 0 .38140616 58.5907 25.470268)">
   <path d="m56.57125-16.80094v5.275133"/>
   <path d="m59.208816-14.163374h-5.275133"/>
  </g>
  <g transform="matrix(.41418467 0 0 .41418467 -7.6413331 60.447798)">
   <path d="m56.57125-16.80094v5.275133"/>
   <path d="m59.208816-14.163374h-5.275133"/>
  </g>
  <g transform="matrix(.32565959 0 0 .32565959 153.45076 55.361278)">
   <path d="m56.57125-16.80094v5.275133"/>
   <path d="m59.208816-14.163374h-5.275133"/>
  </g>
  <g transform="matrix(.23274864 0 0 .23274864 161.52365 17.76611)">
   <path d="m56.57125-16.80094v5.275133"/>
   <path d="m59.208816-14.163374h-5.275133"/>
  </g>
  <g transform="matrix(.28849521 0 0 .28849521 163.56216 27.861208)">
   <path d="m56.57125-16.80094v5.275133"/>
   <path d="m59.208816-14.163374h-5.275133"/>
  </g>
  <g transform="matrix(.32565959 0 0 .32565959 -8.0267276 13.214707)">
   <path d="m56.57125-16.80094v5.275133"/>
   <path d="m59.208816-14.163374h-5.275133"/>
  </g>
 </g>
 <g transform="matrix(.42499998 0 0 .42424242 37.438541 14.552086)">
  <g transform="translate(13.388688,243.42177)" fill="#f9eab0">
   <g transform="translate(-4.3209865,-13.021881)">
    <polygon transform="matrix(3.4969519,0,0,3.4969519,113.27756,365.73105)" points=""/>
    <polygon transform="matrix(3.4969519,0,0,3.4969519,342.59567,411.52488)" points=""/>
    <polygon transform="matrix(3.4969519,0,0,3.4969519,289.53119,373.17891)" points=""/>
    <polygon transform="matrix(3.4969519,0,0,3.4969519,300.01292,440.20544)" points=""/>
   </g>
   <polygon transform="matrix(3.4969519,0,0,3.4969519,287.00033,421.65347)" points=""/>
   <polygon transform="matrix(3.4969519,0,0,3.4969519,303.01547,430.5806)" points=""/>
   <polygon transform="matrix(3.4969519,0,0,3.4969519,329.47079,438.07209)" points=""/>
   <polygon transform="matrix(3.4969519,0,0,3.4969519,294.31957,398.16563)" points=""/>
   <g transform="translate(300.0781,58.644218)">
    <polygon transform="matrix(3.4969519,0,0,3.4969519,454.53799,116.97428)" points=""/>
    <polygon transform="matrix(9.1061708,0,0,9.0930789,1282.4585,1088.9576)" points=""/>
    <polygon transform="matrix(3.4969519,0,0,3.4969519,828.57006,-535.68054)" points=""/>
    <polygon transform="matrix(3.4969519,0,0,3.4969519,-1847.954,290.9635)" points=""/>
   </g>
  </g>
  <g transform="translate(-351.38287,285.14479)" letter-spacing="0px" word-spacing="0px">
   <text x="-1222.3983" y="-173.37076" font-family="sans-serif" font-size="10.58333302px" stroke-width=".26458332" style="line-height:1.25" xml:space="preserve"><tspan x="-1222.3983" y="-164.00699" stroke-width=".26458332"/></text>
   <text x="-2245.1282" y="-126.3082" font-family="'SC Gum Kids'" font-size="266.9718323px" stroke-width=".80091542" style="font-feature-settings:normal;font-variant-caps:normal;font-variant-ligatures:normal;font-variant-numeric:normal;line-height:1.25" xml:space="preserve"><tspan x="-2245.1282" y="114.67583" font-family="'SC Gum Kids'" font-size="266.9718323px" stroke-width=".80091542" style="font-feature-settings:normal;font-variant-caps:normal;font-variant-ligatures:normal;font-variant-numeric:normal"/></text>
   <text x="912.07428" y="386.35889" font-family="sans-serif" font-size="10.58333302px" stroke-width=".26458332" style="line-height:1.25" xml:space="preserve"><tspan x="912.07428" y="395.72266" stroke-width=".26458332"/></text>
  </g>
  <polygon transform="matrix(3.4969519,0,0,3.4969519,-1531.3559,627.61909)" points="" fill="#f9eab0"/>
  <g transform="translate(313.46678,302.06599)" letter-spacing="0px" word-spacing="0px">
   <text x="-1884.1167" y="-155.70239" font-family="sans-serif" font-size="10.58333302px" stroke-width=".26458332" style="line-height:1.25" xml:space="preserve"><tspan x="-1884.1167" y="-146.33862" stroke-width=".26458332"/></text>
   <text x="-2906.8464" y="-108.63977" font-family="'SC Gum Kids'" font-size="266.9718323px" stroke-width=".80091542" style="font-feature-settings:normal;font-variant-caps:normal;font-variant-ligatures:normal;font-variant-numeric:normal;line-height:1.25" xml:space="preserve"><tspan x="-2906.8464" y="132.34424" font-family="'SC Gum Kids'" font-size="266.9718323px" stroke-width=".80091542" style="font-feature-settings:normal;font-variant-caps:normal;font-variant-ligatures:normal;font-variant-numeric:normal"/></text>
   <text x="250.35588" y="404.02722" font-family="sans-serif" font-size="10.58333302px" stroke-width=".26458332" style="line-height:1.25" xml:space="preserve"><tspan x="250.35588" y="413.39099" stroke-width=".26458332"/></text>
  </g>
  <polygon transform="matrix(3.4969519,0,0,3.4969519,-1682.0405,598.88759)" points="" fill="#f9eab0"/>
  <g transform="translate(313.46678,302.06599)" letter-spacing="0px" word-spacing="0px">
   <text x="-2034.8013" y="-184.43384" font-family="sans-serif" font-size="10.58333302px" stroke-width=".26458332" style="line-height:1.25" xml:space="preserve"><tspan x="-2034.8013" y="-175.07007" stroke-width=".26458332"/></text>
   <text x="-3057.531" y="-137.37134" font-family="'SC Gum Kids'" font-size="266.9718323px" stroke-width=".80091542" style="font-feature-settings:normal;font-variant-caps:normal;font-variant-ligatures:normal;font-variant-numeric:normal;line-height:1.25" xml:space="preserve"><tspan x="-3057.531" y="103.61267" font-family="'SC Gum Kids'" font-size="266.9718323px" stroke-width=".80091542" style="font-feature-settings:normal;font-variant-caps:normal;font-variant-ligatures:normal;font-variant-numeric:normal"/></text>
   <text x="99.671333" y="375.29578" font-family="sans-serif" font-size="10.58333302px" stroke-width=".26458332" style="line-height:1.25" xml:space="preserve"><tspan x="99.671333" y="384.65955" stroke-width=".26458332"/></text>
  </g>
  <polygon transform="matrix(3.4969519,0,0,3.4969519,-1681.7965,653.12499)" points="" fill="#f9eab0"/>
  <g transform="translate(301.56854,-80.643254)" letter-spacing="0px" word-spacing="0px">
   <text x="-2022.6592" y="252.51283" font-family="sans-serif" font-size="10.58333302px" stroke-width=".26458332" style="line-height:1.25" xml:space="preserve"><tspan x="-2022.6592" y="261.87659" stroke-width=".26458332"/></text>
   <text x="-3045.3889" y="299.57538" font-family="'SC Gum Kids'" font-size="266.9718323px" stroke-width=".80091542" style="font-feature-settings:normal;font-variant-caps:normal;font-variant-ligatures:normal;font-variant-numeric:normal;line-height:1.25" xml:space="preserve"><tspan x="-3045.3889" y="540.55945" font-family="'SC Gum Kids'" font-size="266.9718323px" stroke-width=".80091542" style="font-feature-settings:normal;font-variant-caps:normal;font-variant-ligatures:normal;font-variant-numeric:normal"/></text>
   <text x="111.81351" y="812.24249" font-family="sans-serif" font-size="10.58333302px" stroke-width=".26458332" style="line-height:1.25" xml:space="preserve"><tspan x="111.81351" y="821.60626" stroke-width=".26458332"/></text>
  </g>
  <polygon transform="matrix(3.4969519,0,0,3.4969519,-1832.9458,601.12489)" points="" fill="#f9eab0"/>
  <g transform="translate(313.46678,302.06599)" letter-spacing="0px" word-spacing="0px">
   <text x="-2185.7068" y="-182.19659" font-family="sans-serif" font-size="10.58333302px" stroke-width=".26458332" style="line-height:1.25" xml:space="preserve"><tspan x="-2185.7068" y="-172.83282" stroke-width=".26458332"/></text>
   <text x="-3208.4365" y="-135.13403" font-family="'SC Gum Kids'" font-size="266.9718323px" stroke-width=".80091542" style="font-feature-settings:normal;font-variant-caps:normal;font-variant-ligatures:normal;font-variant-numeric:normal;line-height:1.25" xml:space="preserve"><tspan x="-3208.4365" y="105.84998" font-family="'SC Gum Kids'" font-size="266.9718323px" stroke-width=".80091542" style="font-feature-settings:normal;font-variant-caps:normal;font-variant-ligatures:normal;font-variant-numeric:normal"/></text>
   <text x="-51.233967" y="377.53308" font-family="sans-serif" font-size="10.58333302px" stroke-width=".26458332" style="line-height:1.25" xml:space="preserve"><tspan x="-51.233967" y="386.89685" stroke-width=".26458332"/></text>
  </g>
  <polygon transform="matrix(3.4969519,0,0,3.4969519,-1828.0809,664.42719)" points="" fill="#f9eab0"/>
  <g transform="translate(313.46678,302.06599)" letter-spacing="0px" word-spacing="0px">
   <text x="-2180.8418" y="-118.89429" font-family="sans-serif" font-size="10.58333302px" stroke-width=".26458332" style="line-height:1.25" xml:space="preserve"><tspan x="-2180.8418" y="-109.53052" stroke-width=".26458332"/></text>
   <text x="-3203.5715" y="-71.831665" font-family="'SC Gum Kids'" font-size="266.9718323px" stroke-width=".80091542" style="font-feature-settings:normal;font-variant-caps:normal;font-variant-ligatures:normal;font-variant-numeric:normal;line-height:1.25" xml:space="preserve"><tspan x="-3203.5715" y="169.15234" font-family="'SC Gum Kids'" font-size="266.9718323px" stroke-width=".80091542" style="font-feature-settings:normal;font-variant-caps:normal;font-variant-ligatures:normal;font-variant-numeric:normal"/></text>
   <text x="-46.369076" y="440.83533" font-family="sans-serif" font-size="10.58333302px" stroke-width=".26458332" style="line-height:1.25" xml:space="preserve"><tspan x="-46.369076" y="450.1991" stroke-width=".26458332"/></text>
  </g>
  <polygon transform="matrix(3.4969519,0,0,3.4969519,-1534.4872,1599.7118)" points="" fill="#f9eab0"/>
  <g transform="translate(313.46678,302.06599)" letter-spacing="0px" word-spacing="0px">
   <text x="-1887.2479" y="816.39038" font-family="sans-serif" font-size="10.58333302px" stroke-width=".26458332" style="line-height:1.25" xml:space="preserve"><tspan x="-1887.2479" y="825.75415" stroke-width=".26458332"/></text>
   <text x="-2909.9778" y="863.45288" font-family="'SC Gum Kids'" font-size="266.9718323px" stroke-width=".80091542" style="font-feature-settings:normal;font-variant-caps:normal;font-variant-ligatures:normal;font-variant-numeric:normal;line-height:1.25" xml:space="preserve"><tspan x="-2909.9778" y="1104.437" font-family="'SC Gum Kids'" font-size="266.9718323px" stroke-width=".80091542" style="font-feature-settings:normal;font-variant-caps:normal;font-variant-ligatures:normal;font-variant-numeric:normal"/></text>
   <text x="247.22462" y="1376.1199" font-family="sans-serif" font-size="10.58333302px" stroke-width=".26458332" style="line-height:1.25" xml:space="preserve"><tspan x="247.22462" y="1385.4836" stroke-width=".26458332"/></text>
  </g>
  <polygon transform="matrix(3.4969519,0,0,3.4969519,-1531.3559,1634.3014)" points="" fill="#f9eab0"/>
  <g transform="translate(313.46678,302.06599)" letter-spacing="0px" word-spacing="0px">
   <text x="-1884.1167" y="850.97998" font-family="sans-serif" font-size="10.58333302px" stroke-width=".26458332" style="line-height:1.25" xml:space="preserve"><tspan x="-1884.1167" y="860.34375" stroke-width=".26458332"/></text>
   <text x="-2906.8464" y="898.04248" font-family="'SC Gum Kids'" font-size="266.9718323px" stroke-width=".80091542" style="font-feature-settings:normal;font-variant-caps:normal;font-variant-ligatures:normal;font-variant-numeric:normal;line-height:1.25" xml:space="preserve"><tspan x="-2906.8464" y="1139.0266" font-family="'SC Gum Kids'" font-size="266.9718323px" stroke-width=".80091542" style="font-feature-settings:normal;font-variant-caps:normal;font-variant-ligatures:normal;font-variant-numeric:normal"/></text>
   <text x="250.35588" y="1410.7095" font-family="sans-serif" font-size="10.58333302px" stroke-width=".26458332" style="line-height:1.25" xml:space="preserve"><tspan x="250.35588" y="1420.0732" stroke-width=".26458332"/></text>
  </g>
  <polygon transform="matrix(3.4969519,0,0,3.4969519,-1682.0405,1605.5699)" points="" fill="#f9eab0"/>
  <g transform="translate(313.46678,302.06599)" letter-spacing="0px" word-spacing="0px">
   <text x="-2034.8013" y="822.24841" font-family="sans-serif" font-size="10.58333302px" stroke-width=".26458332" style="line-height:1.25" xml:space="preserve"><tspan x="-2034.8013" y="831.61218" stroke-width=".26458332"/></text>
   <text x="-3057.531" y="869.31104" font-family="'SC Gum Kids'" font-size="266.9718323px" stroke-width=".80091542" style="font-feature-settings:normal;font-variant-caps:normal;font-variant-ligatures:normal;font-variant-numeric:normal;line-height:1.25" xml:space="preserve"><tspan x="-3057.531" y="1110.2949" font-family="'SC Gum Kids'" font-size="266.9718323px" stroke-width=".80091542" style="font-feature-settings:normal;font-variant-caps:normal;font-variant-ligatures:normal;font-variant-numeric:normal"/></text>
   <text x="99.671333" y="1381.978" font-family="sans-serif" font-size="10.58333302px" stroke-width=".26458332" style="line-height:1.25" xml:space="preserve"><tspan x="99.671333" y="1391.3418" stroke-width=".26458332"/></text>
  </g>
  <polygon transform="matrix(3.4969519,0,0,3.4969519,-1681.7965,1659.8074)" points="" fill="#f9eab0"/>
  <g transform="translate(301.56854,926.03909)" letter-spacing="0px" word-spacing="0px">
   <text x="-2022.6592" y="252.51283" font-family="sans-serif" font-size="10.58333302px" stroke-width=".26458332" style="line-height:1.25" xml:space="preserve"><tspan x="-2022.6592" y="261.87659" stroke-width=".26458332"/></text>
   <text x="-3045.3889" y="299.57538" font-family="'SC Gum Kids'" font-size="266.9718323px" stroke-width=".80091542" style="font-feature-settings:normal;font-variant-caps:normal;font-variant-ligatures:normal;font-variant-numeric:normal;line-height:1.25" xml:space="preserve"><tspan x="-3045.3889" y="540.55945" font-family="'SC Gum Kids'" font-size="266.9718323px" stroke-width=".80091542" style="font-feature-settings:normal;font-variant-caps:normal;font-variant-ligatures:normal;font-variant-numeric:normal"/></text>
   <text x="111.81351" y="812.24249" font-family="sans-serif" font-size="10.58333302px" stroke-width=".26458332" style="line-height:1.25" xml:space="preserve"><tspan x="111.81351" y="821.60626" stroke-width=".26458332"/></text>
  </g>
  <polygon transform="matrix(3.4969519,0,0,3.4969519,-1832.9458,1607.8072)" points="" fill="#f9eab0"/>
  <g transform="translate(313.46678,302.06599)" letter-spacing="0px" word-spacing="0px">
   <text x="-2185.7068" y="824.48572" font-family="sans-serif" font-size="10.58333302px" stroke-width=".26458332" style="line-height:1.25" xml:space="preserve"><tspan x="-2185.7068" y="833.84949" stroke-width=".26458332"/></text>
   <text x="-3208.4365" y="871.54834" font-family="'SC Gum Kids'" font-size="266.9718323px" stroke-width=".80091542" style="font-feature-settings:normal;font-variant-caps:normal;font-variant-ligatures:normal;font-variant-numeric:normal;line-height:1.25" xml:space="preserve"><tspan x="-3208.4365" y="1112.5322" font-family="'SC Gum Kids'" font-size="266.9718323px" stroke-width=".80091542" style="font-feature-settings:normal;font-variant-caps:normal;font-variant-ligatures:normal;font-variant-numeric:normal"/></text>
   <text x="-51.233967" y="1384.2153" font-family="sans-serif" font-size="10.58333302px" stroke-width=".26458332" style="line-height:1.25" xml:space="preserve"><tspan x="-51.233967" y="1393.5791" stroke-width=".26458332"/></text>
  </g>
  <polygon transform="matrix(3.4969519,0,0,3.4969519,-1828.0809,1671.1095)" points="" fill="#f9eab0"/>
  <g transform="translate(946.73479,939.19669)" letter-spacing="0px" word-spacing="0px">
   <text x="-2814.1099" y="250.65732" font-family="sans-serif" font-size="10.58333302px" stroke-width=".26458332" style="line-height:1.25" xml:space="preserve"><tspan x="-2814.1099" y="260.02109" stroke-width=".26458332"/></text>
   <text x="-3836.8396" y="297.71988" font-family="'SC Gum Kids'" font-size="266.9718323px" stroke-width=".80091542" style="font-feature-settings:normal;font-variant-caps:normal;font-variant-ligatures:normal;font-variant-numeric:normal;line-height:1.25" xml:space="preserve"><tspan x="-3836.8396" y="538.70392" font-family="'SC Gum Kids'" font-size="266.9718323px" stroke-width=".80091542" style="font-feature-settings:normal;font-variant-caps:normal;font-variant-ligatures:normal;font-variant-numeric:normal"/></text>
   <text x="-679.63708" y="810.38696" font-family="sans-serif" font-size="10.58333302px" stroke-width=".26458332" style="line-height:1.25" xml:space="preserve"><tspan x="-679.63708" y="819.75073" stroke-width=".26458332"/></text>
  </g>
  <g fill="#f9eab0">
   <polygon transform="matrix(3.4969519,0,0,3.4969519,941.76556,802.5068)" points=""/>
   <polygon transform="matrix(3.4969519,0,0,3.4969519,171.3544,621.28717)" points=""/>
   <polygon transform="matrix(3.4969519,0,0,3.4969519,141.39369,855.44423)" points=""/>
  </g>
  <g transform="translate(-7.5259261,119.29221)">
   <rect x="7.5259261" y="-119.29221" width="264.58334" height="87.3125" opacity="0" stroke-width="6.81303024"/>
   <g fill="#fff" stroke="#00c853" stroke-width=".79374999" style="font-feature-settings:normal;font-variant-caps:normal;font-variant-ligatures:normal;font-variant-numeric:normal" aria-label="numbers">
    <path d="m134.30085-75.63596 1.36426 7.896159-6.87641 1.750108-1.39182-18.093642 6.90397-1.198893 6.80751 9.01237 0.0827-9.01237 8.54384-0.881945-3.03169 20.17448-5.47081 0.799262z" style="font-feature-settings:normal;font-variant-caps:normal;font-variant-ligatures:normal;font-variant-numeric:normal"/>
    <path d="m151.37474-84.317601 7.34495 1.433159q-3.66558 11.258573 1.04731 11.382596 5.59483-0.04134 3.23839-11.658203l6.72482-2.122179q3.08681 19.127171-9.96321 19.292535-13.18783-0.124023-8.39226-18.327908z" style="font-feature-settings:normal;font-variant-caps:normal;font-variant-ligatures:normal;font-variant-numeric:normal"/>
    <path d="m193.04662-85.282228 1.15755 18.176324-7.02799 0.592557-0.37207-9.301758-1.41938 6.394097-6.31142 0.881945-2.56315-6.600804 0.92329 7.827258-6.43544 1.322916 0.88194-19.292535 6.3252-0.840603 3.50022 11.024306 4.24435-10.693577z" style="font-feature-settings:normal;font-variant-caps:normal;font-variant-ligatures:normal;font-variant-numeric:normal"/>
    <path d="m200.25377-78.51606q4.27191-0.799263 4.18923-2.425348-0.0827-1.626085-4.36838-0.509874zm0.66145 8.185547q6.24252-0.248047 6.2563-2.177301 0.0276-1.929253-6.463-1.846571zm-5.99446 4.34082 0.50987-17.845595q9.85298-4.010091 13.54612-0.385851 3.69314 3.624241-0.93707 7.303603 7.028 2.16352 4.53375 7.069336-2.48047 4.892036-17.65267 3.858507z" style="font-feature-settings:normal;font-variant-caps:normal;font-variant-ligatures:normal;font-variant-numeric:normal"/>
    <path d="m228.71025-87.762697 0.35829 7.303603-8.5714 0.923285 0.11025 1.667427 5.62239-0.523655 0.4961 4.988499-5.87045 0.427191 0.0965 1.350478 8.32335-0.633898 1.24023 6.270074-16.41243 0.564996 1.66742-19.885092z" style="font-feature-settings:normal;font-variant-caps:normal;font-variant-ligatures:normal;font-variant-numeric:normal"/>
    <path d="m237.94311-80.734702 0.19293 3.720703q6.89019 0 6.89019-1.378038t-7.08312-2.342665zm0.92329 13.628798-7.67568 1.07487 1.59853-20.574111q17.74913 1.322917 18.34169 7.110677 0.60633 5.773981-6.10471 7.992622l5.51215 2.990343-5.64996 5.002279-6.463-7.992622z" style="font-feature-settings:normal;font-variant-caps:normal;font-variant-ligatures:normal;font-variant-numeric:normal"/>
    <path d="m257.38723-73.610244q-4.97472-0.7028-4.39594-6.187392 0.57877-5.484592 12.78819-6.49056l1.15755 6.228733q-6.04958-0.137804-6.49056 1.43316-0.44097 1.570963 4.63021 1.80523 5.07118 0.234266 4.96094 6.173611t-13.35319 6.338976l-2.43913-6.518121q6.77995 0.73036 7.45519-0.675239 0.67524-1.419379-4.31326-2.108398z" style="font-feature-settings:normal;font-variant-caps:normal;font-variant-ligatures:normal;font-variant-numeric:normal"/>
   </g>
   <g transform="translate(-8.9772933,-226.52412)">
    <path d="m64.198514 109.36556a20.539663 20.539663 0 0 0 -20.539826 20.53979 20.539663 20.539663 0 0 0 6.627341 15.07561l-6.730859 6.73086a20.539663 20.539663 0 0 0 -3.886248 -0.38005 20.539663 20.539663 0 0 0 -20.539189 20.53916 20.539663 20.539663 0 0 0 20.539189 20.53983 20.539663 20.539663 0 0 0 20.539793 -20.53983 20.539663 20.539663 0 0 0 -11.641378 -18.48381l5.581385-5.58135a20.539663 20.539663 0 0 0 10.049792 2.63937 20.539663 20.539663 0 0 0 10.509208 -2.91901l5.795881 5.79588a20.539663 20.539663 0 0 0 -11.132959 18.25382 20.539663 20.539663 0 0 0 20.539191 20.53916 20.539663 20.539663 0 0 0 20.539785 -20.53916 20.539663 20.539663 0 0 0 -20.539785 -20.53982 20.539663 20.539663 0 0 0 -4.483301 0.52144l-6.918125-6.91812a20.539663 20.539663 0 0 0 6.229896 -14.73398 20.539663 20.539663 0 0 0 -20.539791 -20.53979z" fill="#00c853" stroke-width="1.19979894"/>
    <g fill="#fff" stroke-width=".54055142">
     <circle cx="39.669144" cy="171.87122" r="15.000125"/>
     <circle cx="64.198532" cy="129.9053" r="15.000125"/>
     <circle cx="89.910065" cy="171.57565" r="15.000125"/>
    </g>
    <g transform="matrix(1.199799,0,0,1.199799,-841.04264,-225.14465)" fill="#2196f3">
     <path d="m736.60132 322.19803-4.27285 0.11869-1.17372 0.96271v4.04866l1.05503-0.48795 0.11869 12.7658h4.61573z" stroke-width=".13504311" style="font-feature-settings:normal;font-variant-caps:normal;font-variant-ligatures:normal;font-variant-numeric:normal"/>
     <path d="m749.36321 287.46965 0.11869 4.02228 5.0773-0.11869-4.27285 3.09914q1.17372-0.17144 2.30787 0.13187 2.29468 0.60665 2.22874 2.99364-0.0791 2.40018-2.30787 2.36061-1.12096-0.0264-2.22874-0.52751l-1.04183 4.29923q1.89904 0.60664 4.14097 0.6462 4.44429 0.0923 6.07958-2.7035 2.24192-3.85084-0.0396-6.51478-1.14733-1.33197-2.62437-2.03092l4.56298-5.60481z" stroke-width=".19405742" style="font-feature-settings:normal;font-variant-caps:normal;font-variant-ligatures:normal;font-variant-numeric:normal"/>
     <path d="m780.2356 322.65894q-3.96953-2.41336-7.38517-0.0396-1.71442 1.25284-3.02001 3.09913l2.66394 3.37608q0.34288-0.55388 0.96271-1.02865 1.37153-1.37153 2.75625-1.0814 0.77808 0.17144 0.63301 1.05502-0.11869 0.75171-0.88358 1.96499-1.43747 2.25511-3.50796 3.62665-0.89677 0.76488-1.66166 1.34515l-0.31651 4.66848 10.72169 0.22419 0.0131-4.47066-5.42019 0.25057q2.57162-2.3738 4.40472-5.16962 1.60892-2.43975 1.79355-4.28604 0.25057-2.30786-1.75398-3.53433z" stroke-width=".13504311" style="font-feature-settings:normal;font-variant-caps:normal;font-variant-ligatures:normal;font-variant-numeric:normal"/>
    </g>
    <g fill="none" stroke="#b9ffd6" stroke-linecap="round" stroke-width="2.50637579">
     <path d="m69.253519 113.00561s11.697937 2.29237 12.70864 16.49027"/>
     <path d="m95.049253 155.07722s11.697937 2.29237 12.708637 16.49027"/>
     <path d="m44.671176 155.07722s11.697937 2.29237 12.708637 16.49027"/>
    </g>
   </g>
  </g>
 </g>
</svg>
