<?xml version="1.0" encoding="UTF-8"?>
<!-- Created with Inkscape (http://www.inkscape.org/) -->
<svg width="1e3" height="330" version="1.1" viewBox="0 0 264.58333 87.312503" xmlns="http://www.w3.org/2000/svg" xmlns:cc="http://creativecommons.org/ns#" xmlns:dc="http://purl.org/dc/elements/1.1/" xmlns:rdf="http://www.w3.org/1999/02/22-rdf-syntax-ns#">
 <metadata>
  <rdf:RDF>
   <cc:Work rdf:about="">
    <dc:format>image/svg+xml</dc:format>
    <dc:type rdf:resource="http://purl.org/dc/dcmitype/StillImage"/>
    <dc:title/>
   </cc:Work>
  </rdf:RDF>
 </metadata>
 <g transform="translate(13.388688,123.36572)" fill="#f9eab0">
  <g transform="translate(-4.3209865,-13.021881)">
   <polygon transform="matrix(3.4969519,0,0,3.4969519,113.27756,365.73105)" points=""/>
   <polygon transform="matrix(3.4969519,0,0,3.4969519,342.59567,411.52488)" points=""/>
   <polygon transform="matrix(3.4969519,0,0,3.4969519,289.53119,373.17891)" points=""/>
   <polygon transform="matrix(3.4969519,0,0,3.4969519,300.01292,440.20544)" points=""/>
  </g>
  <polygon transform="matrix(3.4969519,0,0,3.4969519,287.00033,421.65347)" points=""/>
  <polygon transform="matrix(3.4969519,0,0,3.4969519,303.01547,430.5806)" points=""/>
  <polygon transform="matrix(3.4969519,0,0,3.4969519,329.47079,438.07209)" points=""/>
  <polygon transform="matrix(3.4969519,0,0,3.4969519,294.31957,398.16563)" points=""/>
  <g transform="translate(300.0781,58.644218)">
   <polygon transform="matrix(3.4969519,0,0,3.4969519,454.53799,116.97428)" points=""/>
   <polygon transform="matrix(9.1061708,0,0,9.0930789,1282.4585,1088.9576)" points=""/>
   <polygon transform="matrix(3.4969519,0,0,3.4969519,828.57006,-535.68054)" points=""/>
   <polygon transform="matrix(3.4969519,0,0,3.4969519,-1847.954,290.9635)" points=""/>
  </g>
 </g>
 <g transform="translate(-351.38287,165.08874)" letter-spacing="0px" word-spacing="0px">
  <text x="-1222.3983" y="-173.37076" font-family="sans-serif" font-size="10.58333302px" stroke-width=".26458332" style="line-height:1.25" xml:space="preserve"><tspan x="-1222.3983" y="-164.00699" stroke-width=".26458332"/></text>
  <text x="-2245.1282" y="-126.3082" font-family="'SC Gum Kids'" font-size="266.9718323px" stroke-width=".80091542" style="font-feature-settings:normal;font-variant-caps:normal;font-variant-ligatures:normal;font-variant-numeric:normal;line-height:1.25" xml:space="preserve"><tspan x="-2245.1282" y="114.67583" font-family="'SC Gum Kids'" font-size="266.9718323px" stroke-width=".80091542" style="font-feature-settings:normal;font-variant-caps:normal;font-variant-ligatures:normal;font-variant-numeric:normal"/></text>
  <text x="912.07428" y="386.35889" font-family="sans-serif" font-size="10.58333302px" stroke-width=".26458332" style="line-height:1.25" xml:space="preserve"><tspan x="912.07428" y="395.72266" stroke-width=".26458332"/></text>
 </g>
 <polygon transform="matrix(3.4969519,0,0,3.4969519,-1531.3559,507.56304)" points="" fill="#f9eab0"/>
 <g transform="translate(313.46678,182.00994)" letter-spacing="0px" word-spacing="0px">
  <text x="-1884.1167" y="-155.70239" font-family="sans-serif" font-size="10.58333302px" stroke-width=".26458332" style="line-height:1.25" xml:space="preserve"><tspan x="-1884.1167" y="-146.33862" stroke-width=".26458332"/></text>
  <text x="-2906.8464" y="-108.63977" font-family="'SC Gum Kids'" font-size="266.9718323px" stroke-width=".80091542" style="font-feature-settings:normal;font-variant-caps:normal;font-variant-ligatures:normal;font-variant-numeric:normal;line-height:1.25" xml:space="preserve"><tspan x="-2906.8464" y="132.34424" font-family="'SC Gum Kids'" font-size="266.9718323px" stroke-width=".80091542" style="font-feature-settings:normal;font-variant-caps:normal;font-variant-ligatures:normal;font-variant-numeric:normal"/></text>
  <text x="250.35588" y="404.02722" font-family="sans-serif" font-size="10.58333302px" stroke-width=".26458332" style="line-height:1.25" xml:space="preserve"><tspan x="250.35588" y="413.39099" stroke-width=".26458332"/></text>
 </g>
 <polygon transform="matrix(3.4969519,0,0,3.4969519,-1682.0405,478.83154)" points="" fill="#f9eab0"/>
 <g transform="translate(313.46678,182.00994)" letter-spacing="0px" word-spacing="0px">
  <text x="-2034.8013" y="-184.43384" font-family="sans-serif" font-size="10.58333302px" stroke-width=".26458332" style="line-height:1.25" xml:space="preserve"><tspan x="-2034.8013" y="-175.07007" stroke-width=".26458332"/></text>
  <text x="-3057.531" y="-137.37134" font-family="'SC Gum Kids'" font-size="266.9718323px" stroke-width=".80091542" style="font-feature-settings:normal;font-variant-caps:normal;font-variant-ligatures:normal;font-variant-numeric:normal;line-height:1.25" xml:space="preserve"><tspan x="-3057.531" y="103.61267" font-family="'SC Gum Kids'" font-size="266.9718323px" stroke-width=".80091542" style="font-feature-settings:normal;font-variant-caps:normal;font-variant-ligatures:normal;font-variant-numeric:normal"/></text>
  <text x="99.671333" y="375.29578" font-family="sans-serif" font-size="10.58333302px" stroke-width=".26458332" style="line-height:1.25" xml:space="preserve"><tspan x="99.671333" y="384.65955" stroke-width=".26458332"/></text>
 </g>
 <polygon transform="matrix(3.4969519,0,0,3.4969519,-1681.7965,533.06894)" points="" fill="#f9eab0"/>
 <g transform="translate(301.56854,-200.69931)" letter-spacing="0px" word-spacing="0px">
  <text x="-2022.6592" y="252.51283" font-family="sans-serif" font-size="10.58333302px" stroke-width=".26458332" style="line-height:1.25" xml:space="preserve"><tspan x="-2022.6592" y="261.87659" stroke-width=".26458332"/></text>
  <text x="-3045.3889" y="299.57538" font-family="'SC Gum Kids'" font-size="266.9718323px" stroke-width=".80091542" style="font-feature-settings:normal;font-variant-caps:normal;font-variant-ligatures:normal;font-variant-numeric:normal;line-height:1.25" xml:space="preserve"><tspan x="-3045.3889" y="540.55945" font-family="'SC Gum Kids'" font-size="266.9718323px" stroke-width=".80091542" style="font-feature-settings:normal;font-variant-caps:normal;font-variant-ligatures:normal;font-variant-numeric:normal"/></text>
  <text x="111.81351" y="812.24249" font-family="sans-serif" font-size="10.58333302px" stroke-width=".26458332" style="line-height:1.25" xml:space="preserve"><tspan x="111.81351" y="821.60626" stroke-width=".26458332"/></text>
 </g>
 <polygon transform="matrix(3.4969519,0,0,3.4969519,-1832.9458,481.06884)" points="" fill="#f9eab0"/>
 <g transform="translate(313.46678,182.00994)" letter-spacing="0px" word-spacing="0px">
  <text x="-2185.7068" y="-182.19659" font-family="sans-serif" font-size="10.58333302px" stroke-width=".26458332" style="line-height:1.25" xml:space="preserve"><tspan x="-2185.7068" y="-172.83282" stroke-width=".26458332"/></text>
  <text x="-3208.4365" y="-135.13403" font-family="'SC Gum Kids'" font-size="266.9718323px" stroke-width=".80091542" style="font-feature-settings:normal;font-variant-caps:normal;font-variant-ligatures:normal;font-variant-numeric:normal;line-height:1.25" xml:space="preserve"><tspan x="-3208.4365" y="105.84998" font-family="'SC Gum Kids'" font-size="266.9718323px" stroke-width=".80091542" style="font-feature-settings:normal;font-variant-caps:normal;font-variant-ligatures:normal;font-variant-numeric:normal"/></text>
  <text x="-51.233967" y="377.53308" font-family="sans-serif" font-size="10.58333302px" stroke-width=".26458332" style="line-height:1.25" xml:space="preserve"><tspan x="-51.233967" y="386.89685" stroke-width=".26458332"/></text>
 </g>
 <polygon transform="matrix(3.4969519,0,0,3.4969519,-1828.0809,544.37114)" points="" fill="#f9eab0"/>
 <g transform="translate(313.46678,182.00994)" letter-spacing="0px" word-spacing="0px">
  <text x="-2180.8418" y="-118.89429" font-family="sans-serif" font-size="10.58333302px" stroke-width=".26458332" style="line-height:1.25" xml:space="preserve"><tspan x="-2180.8418" y="-109.53052" stroke-width=".26458332"/></text>
  <text x="-3203.5715" y="-71.831665" font-family="'SC Gum Kids'" font-size="266.9718323px" stroke-width=".80091542" style="font-feature-settings:normal;font-variant-caps:normal;font-variant-ligatures:normal;font-variant-numeric:normal;line-height:1.25" xml:space="preserve"><tspan x="-3203.5715" y="169.15234" font-family="'SC Gum Kids'" font-size="266.9718323px" stroke-width=".80091542" style="font-feature-settings:normal;font-variant-caps:normal;font-variant-ligatures:normal;font-variant-numeric:normal"/></text>
  <text x="-46.369076" y="440.83533" font-family="sans-serif" font-size="10.58333302px" stroke-width=".26458332" style="line-height:1.25" xml:space="preserve"><tspan x="-46.369076" y="450.1991" stroke-width=".26458332"/></text>
 </g>
 <polygon transform="matrix(3.4969519,0,0,3.4969519,-1534.4872,1479.6558)" points="" fill="#f9eab0"/>
 <g transform="translate(313.46678,182.00994)" letter-spacing="0px" word-spacing="0px">
  <text x="-1887.2479" y="816.39038" font-family="sans-serif" font-size="10.58333302px" stroke-width=".26458332" style="line-height:1.25" xml:space="preserve"><tspan x="-1887.2479" y="825.75415" stroke-width=".26458332"/></text>
  <text x="-2909.9778" y="863.45288" font-family="'SC Gum Kids'" font-size="266.9718323px" stroke-width=".80091542" style="font-feature-settings:normal;font-variant-caps:normal;font-variant-ligatures:normal;font-variant-numeric:normal;line-height:1.25" xml:space="preserve"><tspan x="-2909.9778" y="1104.437" font-family="'SC Gum Kids'" font-size="266.9718323px" stroke-width=".80091542" style="font-feature-settings:normal;font-variant-caps:normal;font-variant-ligatures:normal;font-variant-numeric:normal"/></text>
  <text x="247.22462" y="1376.1199" font-family="sans-serif" font-size="10.58333302px" stroke-width=".26458332" style="line-height:1.25" xml:space="preserve"><tspan x="247.22462" y="1385.4836" stroke-width=".26458332"/></text>
 </g>
 <polygon transform="matrix(3.4969519,0,0,3.4969519,-1531.3559,1514.2454)" points="" fill="#f9eab0"/>
 <g transform="translate(313.46678,182.00994)" letter-spacing="0px" word-spacing="0px">
  <text x="-1884.1167" y="850.97998" font-family="sans-serif" font-size="10.58333302px" stroke-width=".26458332" style="line-height:1.25" xml:space="preserve"><tspan x="-1884.1167" y="860.34375" stroke-width=".26458332"/></text>
  <text x="-2906.8464" y="898.04248" font-family="'SC Gum Kids'" font-size="266.9718323px" stroke-width=".80091542" style="font-feature-settings:normal;font-variant-caps:normal;font-variant-ligatures:normal;font-variant-numeric:normal;line-height:1.25" xml:space="preserve"><tspan x="-2906.8464" y="1139.0266" font-family="'SC Gum Kids'" font-size="266.9718323px" stroke-width=".80091542" style="font-feature-settings:normal;font-variant-caps:normal;font-variant-ligatures:normal;font-variant-numeric:normal"/></text>
  <text x="250.35588" y="1410.7095" font-family="sans-serif" font-size="10.58333302px" stroke-width=".26458332" style="line-height:1.25" xml:space="preserve"><tspan x="250.35588" y="1420.0732" stroke-width=".26458332"/></text>
 </g>
 <polygon transform="matrix(3.4969519,0,0,3.4969519,-1682.0405,1485.5139)" points="" fill="#f9eab0"/>
 <g transform="translate(313.46678,182.00994)" letter-spacing="0px" word-spacing="0px">
  <text x="-2034.8013" y="822.24841" font-family="sans-serif" font-size="10.58333302px" stroke-width=".26458332" style="line-height:1.25" xml:space="preserve"><tspan x="-2034.8013" y="831.61218" stroke-width=".26458332"/></text>
  <text x="-3057.531" y="869.31104" font-family="'SC Gum Kids'" font-size="266.9718323px" stroke-width=".80091542" style="font-feature-settings:normal;font-variant-caps:normal;font-variant-ligatures:normal;font-variant-numeric:normal;line-height:1.25" xml:space="preserve"><tspan x="-3057.531" y="1110.2949" font-family="'SC Gum Kids'" font-size="266.9718323px" stroke-width=".80091542" style="font-feature-settings:normal;font-variant-caps:normal;font-variant-ligatures:normal;font-variant-numeric:normal"/></text>
  <text x="99.671333" y="1381.978" font-family="sans-serif" font-size="10.58333302px" stroke-width=".26458332" style="line-height:1.25" xml:space="preserve"><tspan x="99.671333" y="1391.3418" stroke-width=".26458332"/></text>
 </g>
 <polygon transform="matrix(3.4969519,0,0,3.4969519,-1681.7965,1539.7514)" points="" fill="#f9eab0"/>
 <g transform="translate(301.56854,805.98304)" letter-spacing="0px" word-spacing="0px">
  <text x="-2022.6592" y="252.51283" font-family="sans-serif" font-size="10.58333302px" stroke-width=".26458332" style="line-height:1.25" xml:space="preserve"><tspan x="-2022.6592" y="261.87659" stroke-width=".26458332"/></text>
  <text x="-3045.3889" y="299.57538" font-family="'SC Gum Kids'" font-size="266.9718323px" stroke-width=".80091542" style="font-feature-settings:normal;font-variant-caps:normal;font-variant-ligatures:normal;font-variant-numeric:normal;line-height:1.25" xml:space="preserve"><tspan x="-3045.3889" y="540.55945" font-family="'SC Gum Kids'" font-size="266.9718323px" stroke-width=".80091542" style="font-feature-settings:normal;font-variant-caps:normal;font-variant-ligatures:normal;font-variant-numeric:normal"/></text>
  <text x="111.81351" y="812.24249" font-family="sans-serif" font-size="10.58333302px" stroke-width=".26458332" style="line-height:1.25" xml:space="preserve"><tspan x="111.81351" y="821.60626" stroke-width=".26458332"/></text>
 </g>
 <polygon transform="matrix(3.4969519,0,0,3.4969519,-1832.9458,1487.7512)" points="" fill="#f9eab0"/>
 <g transform="translate(313.46678,182.00994)" letter-spacing="0px" word-spacing="0px">
  <text x="-2185.7068" y="824.48572" font-family="sans-serif" font-size="10.58333302px" stroke-width=".26458332" style="line-height:1.25" xml:space="preserve"><tspan x="-2185.7068" y="833.84949" stroke-width=".26458332"/></text>
  <text x="-3208.4365" y="871.54834" font-family="'SC Gum Kids'" font-size="266.9718323px" stroke-width=".80091542" style="font-feature-settings:normal;font-variant-caps:normal;font-variant-ligatures:normal;font-variant-numeric:normal;line-height:1.25" xml:space="preserve"><tspan x="-3208.4365" y="1112.5322" font-family="'SC Gum Kids'" font-size="266.9718323px" stroke-width=".80091542" style="font-feature-settings:normal;font-variant-caps:normal;font-variant-ligatures:normal;font-variant-numeric:normal"/></text>
  <text x="-51.233967" y="1384.2153" font-family="sans-serif" font-size="10.58333302px" stroke-width=".26458332" style="line-height:1.25" xml:space="preserve"><tspan x="-51.233967" y="1393.5791" stroke-width=".26458332"/></text>
 </g>
 <polygon transform="matrix(3.4969519,0,0,3.4969519,-1828.0809,1551.0535)" points="" fill="#f9eab0"/>
 <g transform="translate(946.73479,819.14064)" letter-spacing="0px" word-spacing="0px">
  <text x="-2814.1099" y="250.65732" font-family="sans-serif" font-size="10.58333302px" stroke-width=".26458332" style="line-height:1.25" xml:space="preserve"><tspan x="-2814.1099" y="260.02109" stroke-width=".26458332"/></text>
  <text x="-3836.8396" y="297.71988" font-family="'SC Gum Kids'" font-size="266.9718323px" stroke-width=".80091542" style="font-feature-settings:normal;font-variant-caps:normal;font-variant-ligatures:normal;font-variant-numeric:normal;line-height:1.25" xml:space="preserve"><tspan x="-3836.8396" y="538.70392" font-family="'SC Gum Kids'" font-size="266.9718323px" stroke-width=".80091542" style="font-feature-settings:normal;font-variant-caps:normal;font-variant-ligatures:normal;font-variant-numeric:normal"/></text>
  <text x="-679.63708" y="810.38696" font-family="sans-serif" font-size="10.58333302px" stroke-width=".26458332" style="line-height:1.25" xml:space="preserve"><tspan x="-679.63708" y="819.75073" stroke-width=".26458332"/></text>
 </g>
 <g fill="#f9eab0">
  <polygon transform="matrix(3.4969519,0,0,3.4969519,941.76556,682.45075)" points=""/>
  <polygon transform="matrix(3.4969519,0,0,3.4969519,171.3544,501.23112)" points=""/>
  <g transform="translate(19.647629,266.29684)">
   <g transform="translate(48.817115,74.298015)">
    <polygon transform="matrix(3.4969519,0,0,3.4969519,113.27756,365.73105)" points=""/>
    <polygon transform="matrix(3.4969519,0,0,3.4969519,342.59567,411.52488)" points=""/>
    <polygon transform="matrix(3.4969519,0,0,3.4969519,289.53119,373.17891)" points=""/>
    <polygon transform="matrix(3.4969519,0,0,3.4969519,300.01292,440.20544)" points=""/>
   </g>
   <polygon transform="matrix(3.4969519,0,0,3.4969519,340.13844,508.97336)" points=""/>
   <polygon transform="matrix(3.4969519,0,0,3.4969519,148.51691,449.56802)" points=""/>
   <polygon transform="matrix(3.4969519,0,0,3.4969519,377.83502,495.36185)" points=""/>
   <polygon transform="matrix(3.4969519,0,0,3.4969519,324.77054,457.01588)" points=""/>
  </g>
 </g>
 <g transform="translate(-7.5259261 -.76384228)">
  <rect x="7.5259261" y=".76384228" width="264.58334" height="87.3125" opacity="0" stroke-width="6.81303024"/>
  <g transform="translate(-247.4594,-146.62246)" fill="#fff" stroke="#ef5350" stroke-width=".79374999" style="font-feature-settings:normal;font-variant-caps:normal;font-variant-ligatures:normal;font-variant-numeric:normal" aria-label="numbers">
   <path d="m381.78675 190.99384 1.36426 7.89616-6.87641 1.75011-1.39182-18.09365 6.90397-1.19889 6.80751 9.01237 0.0827-9.01237 8.54384-0.88194-3.03169 20.17448-5.47081 0.79926z" style="font-feature-settings:normal;font-variant-caps:normal;font-variant-ligatures:normal;font-variant-numeric:normal"/>
   <path d="m398.86064 182.3122 7.34495 1.43316q-3.66558 11.25857 1.04731 11.38259 5.59483-0.0413 3.23839-11.6582l6.72482-2.12218q3.08681 19.12717-9.96321 19.29254-13.18783-0.12403-8.39226-18.32791z" style="font-feature-settings:normal;font-variant-caps:normal;font-variant-ligatures:normal;font-variant-numeric:normal"/>
   <path d="m440.53252 181.34757 1.15755 18.17633-7.02799 0.59255-0.37207-9.30176-1.41938 6.3941-6.31142 0.88195-2.56315-6.60081 0.92329 7.82726-6.43544 1.32292 0.88194-19.29254 6.3252-0.8406 3.50022 11.0243 4.24436-10.69357z" style="font-feature-settings:normal;font-variant-caps:normal;font-variant-ligatures:normal;font-variant-numeric:normal"/>
   <path d="m447.73967 188.11374q4.27192-0.79926 4.18923-2.42535-0.0827-1.62608-4.36838-0.50987zm0.66145 8.18555q6.24252-0.24805 6.2563-2.1773 0.0276-1.92926-6.463-1.84658zm-5.99446 4.34082 0.50987-17.8456q9.85298-4.01009 13.54612-0.38585t-0.93707 7.3036q7.028 2.16352 4.53375 7.06934-2.48047 4.89203-17.65267 3.85851z" style="font-feature-settings:normal;font-variant-caps:normal;font-variant-ligatures:normal;font-variant-numeric:normal"/>
   <path d="m476.19615 178.8671 0.35829 7.3036-8.57139 0.92329 0.11024 1.66743 5.62239-0.52366 0.4961 4.9885-5.87044 0.42719 0.0965 1.35048 8.32335-0.6339 1.24023 6.27008-16.41243 0.56499 1.66742-19.88509z" style="font-feature-settings:normal;font-variant-caps:normal;font-variant-ligatures:normal;font-variant-numeric:normal"/>
   <path d="m485.42901 185.8951 0.19293 3.7207q6.89019 0 6.89019-1.37804t-7.08312-2.34266zm0.92329 13.6288-7.67568 1.07487 1.59853-20.57412q17.74913 1.32292 18.34169 7.11068 0.60633 5.77398-6.10471 7.99262l5.51215 2.99035-5.64996 5.00228-6.46299-7.99263z" style="font-feature-settings:normal;font-variant-caps:normal;font-variant-ligatures:normal;font-variant-numeric:normal"/>
   <path d="m504.87313 193.01955q-4.97472-0.70279-4.39594-6.18739 0.57877-5.48459 12.78819-6.49056l1.15755 6.22874q-6.04958-0.13781-6.49056 1.43316-0.44097 1.57096 4.63021 1.80523 5.07118 0.23426 4.96094 6.17361-0.11024 5.93934-13.35319 6.33897l-2.43913-6.51812q6.77995 0.73036 7.45519-0.67524 0.67524-1.41938-4.31326-2.1084z" style="font-feature-settings:normal;font-variant-caps:normal;font-variant-ligatures:normal;font-variant-numeric:normal"/>
  </g>
  <g transform="translate(0,-1.1855628)">
   <g transform="matrix(.57244419 0 0 .57244419 19.634668 -157.59961)">
    <g transform="matrix(.04462289 0 0 .04462289 41.109135 320.46698)" fill="#00c853">
     <g fill="#00c853">
      <g fill="#00c853">
       <path d="m477.549 182.379h-148.531v-148.532c0-18.69-15.154-33.844-33.844-33.844h-78.954c-18.69 0-33.844 15.153-33.844 33.844v148.526h-148.532c-18.691 0-33.844 15.153-33.844 33.843v78.966c0 18.691 15.153 33.844 33.844 33.844h148.532v148.527c0 18.689 15.153 33.842 33.844 33.842h78.96c18.691 0 33.844-15.152 33.844-33.842v-148.527h148.533c18.689 0 33.842-15.152 33.842-33.844v-78.966c-6e-3 -18.69-15.153-33.837-33.85-33.837z" fill="#00c853"/>
      </g>
     </g>
    </g>
    <rect x="52.508518" y="322.03833" width="2.2243004" height="5.560751" ry="1.1121502" fill="#8fffbe" stroke-width="1.24531746"/>
   </g>
   <g fill="#fff" stroke="#ef5350" stroke-width=".56984192">
    <g style="font-feature-settings:normal;font-variant-caps:normal;font-variant-ligatures:normal;font-variant-numeric:normal" aria-label="900">
     <path d="m15.125044 31.404951q-0.563906 0.08904-0.840912-0.09893-0.247327-0.168183-0.217648-0.484762 0.01979-0.296793 0.267113-0.554013 0.257221-0.25722 0.613372-0.296793 0.346258-0.02968 0.534227 0.178076 0.168182 0.168183 0.168182 0.464975 0 0.277007-0.138503 0.504548-0.15829 0.247327-0.385831 0.286899zm0.336365-4.847613q-2.097335-0.336365-3.512046 0.831019-1.276209 1.058561-1.424605 2.760172-0.148397 1.731291 0.979416 2.948141 1.276208 1.375139 3.680229 1.394925 0.118717 0.405617-0.118717 0.761768-0.494655 0.70241-2.314983 0.375938l-0.524334 3.086644q0.455082 0.227541 1.266316 0.286899 1.632359 0.09893 3.413116-0.771661 0.92995-0.455082 1.770863-2.166586 0.860698-1.770863 1.009095-3.690123 0.178075-2.216052-0.732089-3.690122-1.068454-1.731291-3.492261-2.127014z" style="font-feature-settings:normal;font-variant-caps:normal;font-variant-ligatures:normal;font-variant-numeric:normal"/>
     <path d="m25.364392 34.550954q-0.316579 0.05936-0.504548-0.464975-0.168182-0.474869-0.178075-1.206957-0.0099-0.722196 0.138503-1.21685 0.168183-0.554013 0.455082-0.514441 0.534227 0.05936 0.781554 0.573799 0.217648 0.455082 0.168183 1.127812-0.04947 0.623265-0.2869 1.11792-0.247327 0.51444-0.573799 0.583692zm-0.623265-8.953246q-1.444391 0.08904-2.730492 2.107228-1.236637 1.958832-1.573002 4.471676-0.366044 2.730493 0.613372 4.580501 1.147598 2.156693 3.868198 2.4337 2.730493 0.286899 4.155098-1.830222 1.256422-1.869794 1.078346-4.798148-0.168182-2.859103-1.582894-4.877293-1.543322-2.206159-3.828626-2.087442z" style="font-feature-settings:normal;font-variant-caps:normal;font-variant-ligatures:normal;font-variant-numeric:normal"/>
     <path d="m35.811494 34.550954q-0.316578 0.05936-0.504547-0.464975-0.168183-0.474869-0.178076-1.206957-0.0099-0.722196 0.138504-1.21685 0.168182-0.554013 0.455082-0.514441 0.534227 0.05936 0.781554 0.573799 0.217648 0.455082 0.168182 1.127812-0.04946 0.623265-0.286899 1.11792-0.247328 0.51444-0.5738 0.583692zm-0.623264-8.953246q-1.444391 0.08904-2.730493 2.107228-1.236636 1.958832-1.573001 4.471676-0.366044 2.730493 0.613371 4.580501 1.147599 2.156693 3.868198 2.4337 2.730493 0.286899 4.155098-1.830222 1.256422-1.869794 1.078347-4.798148-0.168183-2.859103-1.582894-4.877293-1.543322-2.206159-3.828626-2.087442z" style="font-feature-settings:normal;font-variant-caps:normal;font-variant-ligatures:normal;font-variant-numeric:normal"/>
    </g>
    <g style="font-feature-settings:normal;font-variant-caps:normal;font-variant-ligatures:normal;font-variant-numeric:normal" aria-label="80">
     <path d="m63.639469 35.004536q-0.326472 0-0.534227-0.187968-0.178075-0.15829-0.207754-0.405617-0.01979-0.237434 0.138503-0.395724 0.158289-0.187968 0.484761-0.197861 0.445189-0.0099 0.682623 0.178075 0.197862 0.15829 0.187969 0.405617-0.0099 0.237434-0.207755 0.41551-0.217648 0.187968-0.54412 0.187968zm-0.395723-6.489866q0.316579-0.06925 0.504547 0.04947 0.168183 0.118717 0.178076 0.336365 0.0099 0.217648-0.12861 0.366044-0.168183 0.187969-0.455082 0.187969-0.2869 0-0.455083-0.12861-0.168182-0.108824-0.178075-0.277007-0.04947-0.395723 0.534227-0.534226zm2.394127 2.69092q0.732089-1.375139 0.83102-2.779958 0.227541-2.799745-2.928355-2.918462-1.21685-0.04946-2.136907 0.603479-0.840913 0.593585-1.206957 1.582894-0.346258 0.979416-0.09893 1.91926 0.267114 1.009095 1.147599 1.592787-0.801341 0.643051-1.483964 1.592787-1.375139 1.88958-0.831019 3.432902 0.474868 1.355354 1.60268 2.206159 1.058561 0.781554 2.404021 0.939844 1.325674 0.158289 2.522738-0.356151 1.266315-0.554013 1.988511-1.721398 1.295994-2.087442-0.12861-4.303494-0.712303-1.108026-1.681827-1.790649z" style="font-feature-settings:normal;font-variant-caps:normal;font-variant-ligatures:normal;font-variant-numeric:normal"/>
     <path d="m73.809565 34.361486q-0.316579 0.05936-0.504547-0.464976-0.168183-0.474868-0.178076-1.206957-0.0099-0.722195 0.138503-1.21685 0.168183-0.554013 0.455082-0.51444 0.534227 0.05936 0.781554 0.573799 0.217648 0.455082 0.168183 1.127812-0.04946 0.623265-0.2869 1.117919-0.247327 0.514441-0.573799 0.583693zm-0.623264-8.953247q-1.444391 0.08904-2.730493 2.107229-1.236636 1.958831-1.573001 4.471676-0.366045 2.730493 0.613371 4.5805 1.147599 2.156694 3.868198 2.433701 2.730493 0.286899 4.155098-1.830222 1.256422-1.869794 1.078347-4.798148-0.168183-2.859103-1.582895-4.877294-1.543322-2.206159-3.828625-2.087442z" style="font-feature-settings:normal;font-variant-caps:normal;font-variant-ligatures:normal;font-variant-numeric:normal"/>
    </g>
    <g style="font-feature-settings:normal;font-variant-caps:normal;font-variant-ligatures:normal;font-variant-numeric:normal" aria-label="1">
     <path d="m100.86003 25.878909-3.205357 0.08904-0.880485 0.722195v3.037179l0.791448-0.366044 0.08904 9.57651h3.462574z" fill="#fff" stroke="#ef5350" stroke-width=".56984192" style="font-feature-settings:normal;font-variant-caps:normal;font-variant-ligatures:normal;font-variant-numeric:normal"/>
    </g>
   </g>
   <g transform="matrix(.57244419 0 0 .57244419 57.632756 -157.59961)">
    <g transform="matrix(.04462289 0 0 .04462289 41.109135 320.46698)" fill="#00c853">
     <g fill="#00c853">
      <g fill="#00c853">
       <path d="m477.549 182.379h-148.531v-148.532c0-18.69-15.154-33.844-33.844-33.844h-78.954c-18.69 0-33.844 15.153-33.844 33.844v148.526h-148.532c-18.691 0-33.844 15.153-33.844 33.843v78.966c0 18.691 15.153 33.844 33.844 33.844h148.532v148.527c0 18.689 15.153 33.842 33.844 33.842h78.96c18.691 0 33.844-15.152 33.844-33.842v-148.527h148.533c18.689 0 33.842-15.152 33.842-33.844v-78.966c-6e-3 -18.69-15.153-33.837-33.85-33.837z" fill="#00c853"/>
      </g>
     </g>
    </g>
    <rect x="52.508518" y="322.03833" width="2.2243004" height="5.560751" ry="1.1121502" fill="#8fffbe" stroke-width="1.24531746"/>
   </g>
   <g fill="#fff" stroke="#ef5350" stroke-width=".75646681" style="font-feature-settings:normal;font-variant-caps:normal;font-variant-ligatures:normal;font-variant-numeric:normal" aria-label="981">
    <path d="m56.02912 54.831688q-0.748587 0.118198-1.116314-0.131331-0.328327-0.223263-0.288928-0.643522 0.02627-0.393993 0.354594-0.735454 0.341461-0.341461 0.814252-0.393993 0.459659-0.0394 0.709188 0.236396 0.223263 0.223262 0.223263 0.617255 0 0.367727-0.183864 0.669789-0.210129 0.328327-0.512191 0.38086zm0.446526-6.435222q-2.784219-0.446525-4.662253 1.103181-1.69417 1.405243-1.891167 3.664137-0.196996 2.298293 1.300178 3.913665 1.69417 1.825501 4.885515 1.851768 0.157597 0.538457-0.157597 1.011249-0.656656 0.93245-3.073147 0.499058l-0.696055 4.097528q0.604123 0.302062 1.681038 0.38086 2.166962 0.131331 4.530921-1.024382 1.234512-0.604123 2.350826-2.87615 1.14258-2.350826 1.339577-4.898648 0.236395-2.941815-0.97185-4.898648-1.418376-2.298293-4.635986-2.823618z" style="font-feature-settings:normal;font-variant-caps:normal;font-variant-ligatures:normal;font-variant-numeric:normal"/>
    <path d="m69.411754 59.861667q-0.433393 0-0.709188-0.249529-0.236396-0.21013-0.275795-0.538457-0.02627-0.315195 0.183863-0.525324 0.21013-0.249529 0.643522-0.262663 0.59099-0.01313 0.906185 0.236396 0.262662 0.21013 0.249529 0.538458-0.01313 0.315194-0.275796 0.55159-0.288928 0.249529-0.72232 0.249529zm-0.525325-8.615317q0.42026-0.09193 0.669789 0.06567 0.223263 0.157597 0.236396 0.446525 0.01313 0.288929-0.170731 0.485925-0.223262 0.249529-0.604122 0.249529-0.380861 0-0.604123-0.17073-0.223263-0.144464-0.236396-0.367727-0.06567-0.525324 0.709187-0.709188zm3.178212 3.572205q0.97185-1.825502 1.103181-3.690403 0.302061-3.716668-3.887399-3.874266-1.615372-0.06567-2.836751 0.80112-1.116314 0.787986-1.602239 2.101297-0.459659 1.300177-0.131331 2.547822 0.354594 1.339577 1.52344 2.11443-1.063781 0.853652-1.969965 2.11443-1.825502 2.508423-1.103181 4.557187 0.630389 1.799235 2.127563 2.928682 1.405242 1.037516 3.191344 1.247645 1.759836 0.21013 3.348942-0.472791 1.681037-0.735454 2.639754-2.285161 1.720437-2.771085-0.17073-5.7129-0.945584-1.470908-2.232628-2.377092z" style="font-feature-settings:normal;font-variant-caps:normal;font-variant-ligatures:normal;font-variant-numeric:normal"/>
    <path d="m81.428544 47.700412-4.255126 0.118198-1.168846 0.958717v4.031863l1.050648-0.485925 0.118198 12.712845h4.596587z" style="font-feature-settings:normal;font-variant-caps:normal;font-variant-ligatures:normal;font-variant-numeric:normal"/>
   </g>
   <g transform="matrix(.3123798 0 0 .3123798 -91.949727 -55.365721)" stroke-width=".85711741">
    <rect x="388.71353" y="338.90762" width="52.183823" height="15.169715" ry="2.882246" fill="#2196f3"/>
    <rect x="434.78024" y="341.54727" width="3.5028572" height="9.8904209" ry="1.7514286" fill="#99cffa"/>
    <rect x="388.71353" y="362.02728" width="52.183823" height="15.169715" ry="2.882246" fill="#2196f3"/>
    <rect x="434.78024" y="364.66693" width="3.5028572" height="9.8904209" ry="1.7514286" fill="#99cffa"/>
   </g>
  </g>
 </g>
</svg>
