<?xml version="1.0" encoding="UTF-8" standalone="no"?>
<!-- Generator: Adobe Illustrator 19.0.0, SVG Export Plug-In . SVG Version: 6.00 Build 0)  -->

<svg
   xmlns:dc="http://purl.org/dc/elements/1.1/"
   xmlns:cc="http://creativecommons.org/ns#"
   xmlns:rdf="http://www.w3.org/1999/02/22-rdf-syntax-ns#"
   xmlns:svg="http://www.w3.org/2000/svg"
   xmlns="http://www.w3.org/2000/svg"
   xmlns:sodipodi="http://sodipodi.sourceforge.net/DTD/sodipodi-0.dtd"
   xmlns:inkscape="http://www.inkscape.org/namespaces/inkscape"
   version="1.1"
   id="Capa_1"
   x="0px"
   y="0px"
   viewBox="0 0 512 512"
   style="enable-background:new 0 0 512 512;"
   xml:space="preserve"
   sodipodi:docname="wrench.svg"
   inkscape:version="0.92.2 5c3e80d, 2017-08-06"><metadata
     id="metadata9629"><rdf:RDF><cc:Work
         rdf:about=""><dc:format>image/svg+xml</dc:format><dc:type
           rdf:resource="http://purl.org/dc/dcmitype/StillImage" /><dc:title /></cc:Work></rdf:RDF></metadata><defs
     id="defs9627" /><sodipodi:namedview
     pagecolor="#ffffff"
     bordercolor="#666666"
     borderopacity="1"
     objecttolerance="10"
     gridtolerance="10"
     guidetolerance="10"
     inkscape:pageopacity="0"
     inkscape:pageshadow="2"
     inkscape:window-width="1919"
     inkscape:window-height="1035"
     id="namedview9625"
     showgrid="false"
     inkscape:zoom="0.57113951"
     inkscape:cx="-16.946728"
     inkscape:cy="251.80544"
     inkscape:window-x="0"
     inkscape:window-y="0"
     inkscape:window-maximized="0"
     inkscape:current-layer="Capa_1" /><path
     style="fill:#90a4ae;fill-opacity:1"
     d="M26.195,153.288C4.569,131.661-3.911,100.709,2.025,71.451c1.059-4.453,4.24-8.057,8.48-9.329  c4.665-1.272,9.118-0.212,12.509,3.179L42.944,85.23c2.968,2.968,6.572,4.453,10.812,4.453h21.201  c4.03,0.212,7.634-1.696,10.39-4.453s4.665-6.36,4.452-10.388V53.64c0-4.24-1.483-7.845-4.452-10.813L62.449,19.929  c-5.513-5.513-2.968-14.84,4.453-16.749C74.535,1.061,82.379,0,90.011,0c28.41,0.001,54.276,12.722,71.662,35.619  c18.869,24.805,21.626,58.517,11.236,87.986l-1.695,5.088l212.499,212.499c44.522-15.689,77.81-6.995,102.615,17.81  c18.87,18.87,29.962,53.851,23.39,85.018c-1.907,8.268-11.872,11.024-17.808,5.088l-22.543-22.262  c-2.756-2.757-6.573-4.452-10.602-4.241h-18.233c-4.876,0.212-9.329,2.121-12.508,5.3c-3.393,3.393-5.1,7.845-5.313,12.72  l0.211,18.022c-0.211,4.029,1.285,7.845,4.042,10.601l17.808,17.808c7.845,7.845,3.604,21.415-7.209,23.322  c-35.194,6.361-67.207-7.845-86.713-33.709c-17.174-22.686-23.533-54.065-9.541-93.077L128.811,171.097l-9.118,3.18  c-9.752,3.393-19.928,5.088-30.104,5.088C65.418,179.365,42.944,170.036,26.195,153.288z"
     id="path9570" /><path
     style="fill:#b0bec5;fill-opacity:1"
     d="M480.209,4.551l27.137,27.654c4.665,4.665,5.725,11.662,2.968,17.386l-33.287,66.784  c-2.544,5.088-7.845,8.268-13.78,8.267h-33.075L252.445,302.372l-24.594-17.808l-24.805-17.597L387.77,82.241l0.001-33.075  c0.211-5.724,3.392-11.024,8.479-13.568l66.784-33.803C468.759-0.961,475.757,0.099,480.209,4.551z"
     id="path9574" /><path
     style="fill:#2196f3;fill-opacity:1"
     d="M145.377,263.998L37.674,344.564c-45.161,34.135-49.825,100.284-9.967,140.142  c40.071,40.071,106.22,35.408,140.143-9.966l80.777-107.492c4.453-6.148,3.816-14.417-1.484-19.717l-82.262-82.262  C159.582,259.97,151.313,259.334,145.377,263.998z"
     id="path9578" /><g
     id="g9584"
     style="fill:#64dd17;fill-opacity:1"><path
       style="fill:#64dd17;fill-opacity:1"
       d="M154.704,357.709c5.937,5.937,5.937,15.265,0,21.201l-63.605,63.605   c-5.724,5.724-15.265,5.937-21.201,0c-5.724-5.724-5.724-15.478,0-21.201l63.605-63.605   C139.44,351.772,148.981,351.986,154.704,357.709z"
       id="path9580" /><path
       style="fill:#64dd17;fill-opacity:1"
       d="M280.251,359.267c-5.697,5.697-13.193,8.995-21.289,8.995c-7.796,0-15.592-3.298-21.287-8.995   l-84.553-84.553c-11.694-11.694-11.694-30.884,0-42.577c5.397-5.697,12.893-8.696,20.987-8.696c8.097,0,15.592,2.999,21.289,8.696   l42.576,42.577l42.278,42.276C291.945,328.683,291.945,347.573,280.251,359.267z"
       id="path9582" /></g><g
     id="g9594" /><g
     id="g9596" /><g
     id="g9598" /><g
     id="g9600" /><g
     id="g9602" /><g
     id="g9604" /><g
     id="g9606" /><g
     id="g9608" /><g
     id="g9610" /><g
     id="g9612" /><g
     id="g9614" /><g
     id="g9616" /><g
     id="g9618" /><g
     id="g9620" /><g
     id="g9622" /></svg>