<?xml version="1.0" encoding="UTF-8"?>
<!-- Generator: Adobe Illustrator 19.0.0, SVG Export Plug-In . SVG Version: 6.00 Build 0)  -->
<svg width="512" height="512" enable-background="new 0 0 512 512" version="1.1" viewBox="0 0 512 512" xml:space="preserve" xmlns="http://www.w3.org/2000/svg" xmlns:cc="http://creativecommons.org/ns#" xmlns:dc="http://purl.org/dc/elements/1.1/" xmlns:rdf="http://www.w3.org/1999/02/22-rdf-syntax-ns#"><metadata><rdf:RDF><cc:Work rdf:about=""><dc:format>image/svg+xml</dc:format><dc:type rdf:resource="http://purl.org/dc/dcmitype/StillImage"/><dc:title/></cc:Work></rdf:RDF></metadata><path d="m321.858 297.058 61.378-23.196c5.94-1.271 10.607-5.938 11.879-11.879l8.484-43.274 43.276-8.486c5.94-1.271 10.607-5.938 11.879-11.879l8.062-40.344 30.122-1e-3c8.273 0.212 15.062-7.385 14.849-15.659l0.213-121.127-46.882 25.668 25.669-46.881-78.7 0.212c-4.032-0.212-7.85 1.485-10.608 4.243l-185.9 185.9c-58.549-19.092-123.461-3.818-167.372 40.093-64.275 64.275-64.277 169.069 0 233.345s169.07 64.275 233.345 0c43.699-43.699 58.974-108.187 40.306-166.735zm-231.225 124.309c-17.607-17.607-17.606-46.034 0-63.64 17.607-17.607 46.032-17.607 63.64 0 17.607 17.607 17.607 46.032 0 63.64-17.606 17.606-46.032 17.607-63.64 0z" fill="#fbc02d"/><path d="m512 21.213-230.448 230.448c-5.939 5.939-15.273 5.94-21.213 0s-5.939-15.274 0-21.213l230.448-230.448 6.153 0.212c4.029-0.212 7.847 1.485 10.605 4.243s4.455 6.576 4.243 10.605z" fill="#ffca42"/><path d="m512 21.213-230.448 230.448c-5.939 5.939-15.273 5.94-21.213 0l247.206-247.206c2.758 2.758 4.455 6.576 4.243 10.605z" fill="#ffaf3e"/></svg>
