<?xml version="1.0" encoding="UTF-8"?>
<!-- Generator: Adobe Illustrator 19.0.0, SVG Export Plug-In . SVG Version: 6.00 Build 0)  -->
<svg width="1e3" height="330" version="1.1" viewBox="0 0 1000 330.00001" xml:space="preserve" xmlns="http://www.w3.org/2000/svg" xmlns:cc="http://creativecommons.org/ns#" xmlns:dc="http://purl.org/dc/elements/1.1/" xmlns:rdf="http://www.w3.org/1999/02/22-rdf-syntax-ns#"><metadata><rdf:RDF><cc:Work rdf:about=""><dc:format>image/svg+xml</dc:format><dc:type rdf:resource="http://purl.org/dc/dcmitype/StillImage"/><dc:title/></cc:Work></rdf:RDF></metadata><circle transform="scale(-1,1)" cx="553.82446" cy="1511.3765" r="0" fill="#9ed1fa" stroke-width=".74994367"/><rect x="-4.5190305e-14" y="-4.84375e-6" width="1e3" height="330" ry="0" opacity="0" stroke-width="6.24300003"/><g transform="matrix(.64062454 0 0 .64062546 -41.366295 -307.85954)"><g transform="matrix(3.7795277,0,0,3.7795277,-1946.6859,463.7671)" stroke-width=".26458332"><path d="m617.71657 83.452958 16.2396-6.137274c1.57162-0.336286 2.80643-1.571096 3.14298-3.142986l2.24473-11.449579 11.45011-2.245254c1.57162-0.336285 2.80643-1.571096 3.14298-3.142985l2.13307-10.67435 7.96978-2.65e-4c2.1889 0.05609 3.98515-1.953948 3.9288-4.14311l0.0564-32.048185-12.40419 6.791325 6.79159-12.4039314-20.82271 0.056092c-1.0668-0.056092-2.07698 0.3929062-2.8067 1.122627l-49.18609 49.1860404c-15.49109-5.051425-32.66572-1.010179-44.28384 10.60794-17.00609 17.006093-17.00662 44.732837 0 61.739197s44.7331 17.00609 61.7392 0c11.56202-11.56203 15.60353-28.624477 10.66429-44.115302zm-61.17828 32.890092c-4.65852-4.65852-4.65825-12.17983 0-16.838086 4.65852-4.658518 12.1793-4.658518 16.83808 0 4.65852 4.658516 4.65852 12.179296 0 16.838086-4.65825 4.65825-12.1793 4.65852-16.83808 0z" fill="#fbc02d"/><path d="m668.02497 10.46897-60.97269 60.972699c-1.57136 1.57136-4.04099 1.571625-5.61261 0-1.57163-1.571625-1.57136-4.041246 0-5.612606l60.9727-60.9726994 1.62798 0.056092c1.06601-0.056092 2.07619 0.3929062 2.80591 1.122627 0.72972 0.7297209 1.17871 1.7399 1.12262 2.8059062z" fill="#ffca42"/><path d="m668.02497 10.46897-60.97269 60.972699c-1.57136 1.57136-4.04099 1.571625-5.61261 0l65.40659-65.4065867c0.72972 0.7297209 1.17871 1.7399 1.12262 2.8059062z" fill="#ffaf3e"/></g><path d="m556.9199 482.12257-78.6993 0.21094c-4.032-0.212-7.8513 1.48614-10.6093 4.24414l-179.293 179.29297c9.7688 1.31039 19.4881 3.49166 29.0371 6.60547l185.9004-185.89844c2.758-2.758 6.5754-4.45614 10.6074-4.24414l43.0039-0.11523zm21.2031 26.37305-11.2285 20.50781 11.2031-6.13476zm-346.7129 155.90039c-43.0989-0.15403-85.5093 16.6128-117.0703 48.17383-64.275 64.275-64.277 169.0697 0 233.3457 36.6632 36.66265 86.5072 52.40005 134.4961 47.23828-36.1448-3.88714-71.2373-19.62443-98.8516-47.23828-64.277-64.276-64.275-169.0707 0-233.3457 27.0618-27.06181 62.1015-43.22778 98.7109-47.19531-5.758-0.62964-11.5274-0.95794-17.2851-0.97852z" fill="#fab70e" stroke-width=".99999994"/><path d="m294.12713 753.36842s85.50195 46.21506 41.44544 146.49797" fill="none" opacity=".681" stroke="#fff" stroke-linecap="round" stroke-linejoin="round" stroke-width="25.00000191"/></g><g transform="scale(.98629289 1.0138976)" fill="#fff" stroke="#9c27b0" stroke-width="2.96022677" style="font-feature-settings:normal;font-variant-caps:normal;font-variant-ligatures:normal;font-variant-numeric:normal" aria-label="password"><path d="m424.29595 230.04095 4.16282 15.36645-26.82706 5.34486-5.08789-68.815q68.45525-11.04946 71.89857 22.56145 0 25.69642-44.14644 25.54224zm-7.04082-30.42455 2.878 10.0216q27.75213 0 26.10756-7.29778-1.64457-7.29779-28.98556-2.72382z"/><path d="m485.35063 240.47369-3.5975 10.27857-20.24877-12.23149 25.38805-59.71847 19.32371-1.33621 30.37316 61.82557-24.00045 11.4606-5.29346-14.44139zm17.57635-22.51006-5.756-18.6042-6.78385 20.55713z"/><path d="m549.9514 222.33202q-18.55281-2.62103-16.39431-23.07537 2.1585-20.45435 47.69254-24.20603l4.317 23.22956q-22.56145-0.51393-24.20602 5.34486-1.64457 5.85878 17.26799 6.73246 18.91256 0.87367 18.50142 23.02398-0.41115 22.15031-49.79965 23.6407l-9.09653-24.3088q25.28527 2.72382 27.80352-2.51825 2.51824-5.29346-16.08596-7.86311z"/><path d="m613.26738 222.33202q-18.55281-2.62103-16.39431-23.07537 2.1585-20.45435 47.69254-24.20603l4.317 23.22956q-22.56145-0.51393-24.20602 5.34486-1.64457 5.85878 17.26799 6.73246 18.91256 0.87367 18.50142 23.02398-0.41115 22.15031-49.79965 23.6407l-9.09653-24.3088q25.28527 2.72382 27.80351-2.51825 2.51825-5.29346-16.08595-7.86311z"/><path d="m714.45983 214.77728-10.27856 35.97498-20.30017 2.67243-30.57873-60.48936 25.18248-14.13303 15.41785 41.11426 12.07732-32.48026 20.55713 2.8266 8.47981 29.65366 12.33428-42.60465 27.9577 15.31506-30.01341 58.12529-22.97259-4.93371z"/><path d="m815.24117 250.75226q-17.37077 0-29.65366-10.53553-12.23149-10.53553-12.23149-25.43945t12.23149-25.43945q12.28289-10.53553 29.65366-10.53553 17.31939 0 29.55088 10.53553 12.28288 10.53553 12.28288 25.43945t-12.28288 25.43945q-12.23149 10.53553-29.55088 10.53553zm-2.878-22.45867q7.40057 0 12.64264-4.52257 5.29346-4.52256 5.29346-10.89528 0-6.37271-5.29346-10.89527-5.24207-4.52257-12.64264-4.52257-7.45196 0-12.74542 4.52257-5.24207 4.52256-5.24207 10.89527 0 6.37272 5.24207 10.89528 5.29346 4.52257 12.74542 4.52257z"/><path d="m884.87847 195.76193 0.7195 13.87607q25.69641 0 25.69641-5.13929 0-5.13928-26.41591-8.73678zm3.44332 50.82751-28.62581 4.00864 5.96157-76.72949q66.19396 4.93371 68.40385 26.5187 2.26129 21.53359-22.76702 29.80784l20.55713 11.15224-21.07106 18.6556-24.10323-29.80784z"/><path d="m942.13008 250.75226-3.28914-71.94996q70.09986 0 70.09986 35.97498t-66.81072 35.97498zm18.29585-52.88322 3.44332 24.87413q22.25309 0.10278 22.25309-12.38567 0-12.48846-25.69641-12.48846z"/></g><g transform="translate(-40.526759,-315.52137)" fill="#fff" stroke="#9c27b0" stroke-width="3" style="font-feature-settings:normal;font-variant-caps:normal;font-variant-ligatures:normal;font-variant-numeric:normal" aria-label="edit"><path d="m486.99915 385.50497 1.35417 27.60416-32.39583 3.48959 0.41667 6.30208 21.24999-1.97917 1.875 18.85417-22.18749 1.61458 0.36458 5.10417 31.45833-2.39584 4.6875 23.69792-62.03125 2.13542 6.30209-75.15625z"/><path d="m499.70748 467.79663-3.33333-72.91666q71.04167 0 71.04167 36.45833t-67.70834 36.45833zm18.54167-53.59375 3.48958 25.20833q22.55209 0.10417 22.55209-12.55208t-26.04167-12.65625z"/><path d="m594.29082 395.29663 5.3125 70.26042-29.47917 5.57291 1.35417-74.01041z"/><path d="m644.34289 417.06747 2.55209 44.37499-28.22917 7.29167 4.84375-53.02083-21.30208-1.82292 1.66667-19.27083 61.09374-3.64583 2.23959 28.48958z"/></g></svg>
