<?xml version="1.0" encoding="UTF-8"?>
<!-- Generator: Adobe Illustrator 19.0.0, SVG Export Plug-In . SVG Version: 6.00 Build 0)  -->
<svg width="1e3" height="330" version="1.1" viewBox="0 0 1000 330.00001" xml:space="preserve" xmlns="http://www.w3.org/2000/svg" xmlns:cc="http://creativecommons.org/ns#" xmlns:dc="http://purl.org/dc/elements/1.1/" xmlns:rdf="http://www.w3.org/1999/02/22-rdf-syntax-ns#"><metadata><rdf:RDF><cc:Work rdf:about=""><dc:format>image/svg+xml</dc:format><dc:type rdf:resource="http://purl.org/dc/dcmitype/StillImage"/><dc:title/></cc:Work></rdf:RDF></metadata><circle transform="scale(-1,1)" cx="553.82446" cy="1103.1562" r="0" fill="#9ed1fa" stroke-width=".74994367"/><rect x="-1.3232421e-6" y="3.3593751e-6" width="1e3" height="330" ry="0" opacity="0" stroke-width="6.24300003"/><g transform="matrix(3.4862461,0,0,3.4862461,373.37756,-1011.1089)"><g transform="translate(355.16982,220.13586)" fill="#f19920" font-family="sans-serif" font-size="8.0679245px" letter-spacing="0px" stroke-width=".20169811" word-spacing="0px"><text x="-364.577" y="49.223103" style="line-height:1.25" xml:space="preserve"><tspan x="-364.577" y="56.361324" fill="#f19920" stroke-width=".20169811"/></text>
<text x="-206.83694" y="109.26702" style="line-height:1.25" xml:space="preserve"><tspan x="-206.83694" y="116.40524" fill="#f19920" stroke-width=".20169811"/></text>
</g><g font-family="sans-serif" font-size="2.49758148px" letter-spacing="0px" stroke-width=".06243953" word-spacing="0px"><text x="-30.920223" y="356.01434" style="line-height:1.25" xml:space="preserve"><tspan x="-30.920223" y="358.22412" stroke-width=".06243953"/></text>
<text x="17.911249" y="374.60208" style="line-height:1.25" xml:space="preserve"><tspan x="17.911249" y="376.81186" stroke-width=".06243953"/></text>
<text x="-36.402061" y="356.01434" style="line-height:1.25" xml:space="preserve"><tspan x="-36.402061" y="358.22412" stroke-width=".06243953"/></text>
<text x="12.42941" y="374.60208" style="line-height:1.25" xml:space="preserve"><tspan x="12.42941" y="376.81186" stroke-width=".06243953"/></text>
</g><g fill="#fca"><rect transform="rotate(107.87509)" x="319.42426" y="-68.02858" width="28.04217" height="28.04217" ry="12.98249"/><rect transform="rotate(107.87509)" x="319.2681" y="-63.428654" width="21.797363" height="46.210415" ry="10.898682"/><rect transform="matrix(-.7873942 .61644982 -.64887125 -.76089822 0 0)" x="241.11252" y="-255.35286" width="9.8896608" height="26.143642" ry="6.1659532"/></g><rect transform="rotate(16.551296)" x="-9.7855825" y="316.90088" width="35.063076" height="25.92692" ry="1.9753848" fill="#2196f3"/><rect transform="rotate(-72.147272)" x="-323.09338" y="1.7316567" width="3.856673" height="19.580032" ry="1.5997237" fill="#c6e4fc"/><path d="m-52.252897 336.1797c-0.81876 0.51404-1.641334 1.17887-2.458518 2.02384-2.417072 2.4993-3.552609 5.22125-3.748113 7.96452 1.615106 1.16681 3.512587 1.96583 5.594276 2.27428-0.707026-3.74004 0.08816-7.59281 3.272201-11.04221-0.978961-0.18107-1.888715-0.60582-2.659846-1.22043z" fill="#ffbf94"/><g transform="matrix(.23599196 0 0 .23599196 -60.06016 332.48507)"><text x="123.47852" y="100.3698" fill="#000000" font-family="sans-serif" font-size="10.58333302px" letter-spacing="0px" stroke-width=".26458332" word-spacing="0px" style="line-height:1.25" xml:space="preserve"><tspan x="123.47852" y="109.73357" stroke-width=".26458332"/></text>
<text x="330.39859" y="179.13414" fill="#000000" font-family="sans-serif" font-size="10.58333302px" letter-spacing="0px" stroke-width=".26458332" word-spacing="0px" style="line-height:1.25" xml:space="preserve"><tspan x="330.39859" y="188.49791" stroke-width=".26458332"/></text>
<path d="m64.06885 11.174618c-7.95292 0.0042-16.761523 2.439374-26.204571 8.794997-40.290313 27.117332-22.524338 75.958167 5.654699 105.687675 22.864815 24.1229 63.377142 46.42115 63.377142 46.42115s40.51237-22.29825 63.37717-46.42115c28.17906-29.729508 45.94502-78.570343 5.65471-105.687675-40.29029-27.1173472-69.03188 17.130585-69.03188 17.130585s-16.847764-25.937444-42.82727-25.925582z" fill="#e91e63"/></g><path d="m-26.785531 338.32995s11.329888-0.22515 10.08825 12.98405" fill="none" stroke="#f9bfd3" stroke-linecap="round" stroke-width="1.77511668"/><path d="m-44.940443 334.96496c-1.876825 9.9e-4 -3.955592 0.57575-6.184075 2.07562-9.508189 6.39947-5.315502 17.9255 1.334523 24.94143 5.395911 5.69281 14.956461 10.95497 14.956461 10.95497s-1.17967 0.70752 0 0c-2.909244-2.48574-7.837017-6.43963-11.735203-10.55232-6.650026-7.01592-10.198329-18.94461-0.69014-25.34408 1.48971-1.00264 2.912297-1.59145 4.252596-1.87221-0.617299-0.13048-1.262789-0.20372-1.934162-0.20341z" fill="#d21555" stroke-width=".06243953"/><g transform="translate(.51897435 -.25948718)" fill="#ffdbc2"><rect transform="matrix(.78231262 -.622886 -.622886 -.78231262 0 0)" x="-251.38657" y="-243.72937" width="8.5772934" height="18.183865" ry="4.2886467"/><rect transform="rotate(-91.47994)" x="-335.67429" y="-64.120239" width="13.279578" height="13.279578" ry="6.1479549"/></g><path transform="matrix(.26458333 0 0 .26458333 -106.56296 301.46222)" d="m151.31641 40.927734-21.57032 72.580076c-1.17828 3.9648-5.31841 6.20759-9.2832 5.0293l-112.7187494-33.498048c-3.2397495-0.962813-5.3265486-3.904824-5.3398437-7.111328l-2.08984378 7.033204c-1.17828749 3.964793 1.06450318 8.104915 5.02929688 9.283203l112.7168 33.498049c3.96479 1.17828 8.10491-1.06451 9.2832-5.0293l23.66211-79.617187c0.21491-0.723134 0.31297-1.452186 0.31055-2.167969z" fill="#0d88ea"/><path transform="matrix(.26458333 0 0 .26458333 -106.56296 301.46222)" d="m128.14453 120.01758-0.80078 2.69531c-0.34269 1.15311-0.94042 2.15651-1.70703 2.97656l35.01953 11.29493 0.42578-6.34571z" fill="#ffbf94"/><path d="m-65.337541 335.69837a14.509279 14.509279 0 0 0 7.536493 10.93835 11.173205 11.755694 0 0 1 0.48369 -2.03243 14.509279 14.509279 0 0 1 -6.013069 -8.21604z" fill="#ffbf94"/><rect transform="rotate(16.551296)" x="16.388273" y="313.93781" width="12.346154" height="31.853073" ry="2.4269013" fill="#303f9f"/><path transform="matrix(.26458333 0 0 .26458333 -106.56296 301.46222)" d="m166.59375 35.640625-27.42773 92.289065c-1.44761 4.87103-6.53522 7.6273-11.40625 6.17969l-27.14454-8.06836c-4.176377-1.24117-6.788675-5.15838-6.539058-9.32032l-1.640625 5.52149c-1.44761 4.87103 1.308655 9.95668 6.179687 11.40429l27.144536 8.06836c4.87103 1.44761 9.95668-1.30865 11.40429-6.17968l29.07032-97.81641c0.20566-0.692029 0.31741-1.388438 0.35937-2.078125z" fill="#2a378a"/></g><g fill="#fff" stroke="#9c27b0" stroke-width="3" style="font-feature-settings:normal;font-variant-caps:normal;font-variant-ligatures:normal;font-variant-numeric:normal" aria-label="donate"><path d="m394.46156 204.63544-3.33334-72.91667q71.04167 0 71.04167 36.45833 0 36.45834-67.70833 36.45834zm18.54166-53.59375 3.48959 25.20833q22.55208 0.10417 22.55208-12.55208t-26.04167-12.65625z" style=""/><path d="m507.32614 204.63544q-17.60417 0-30.05208-10.67709-12.39584-10.67708-12.39584-25.78125 0-15.10416 12.39584-25.78124 12.44791-10.67709 30.05208-10.67709 17.55208 0 29.94792 10.67709 12.44791 10.67708 12.44791 25.78124 0 15.10417-12.44791 25.78125-12.39584 10.67709-29.94792 10.67709zm-2.91667-22.76042q7.5 0 12.8125-4.58333 5.36459-4.58334 5.36459-11.04167t-5.36459-11.04167q-5.3125-4.58333-12.8125-4.58333-7.55208 0-12.91666 4.58333-5.3125 4.58334-5.3125 11.04167t5.3125 11.04167q5.36458 4.58333 12.91666 4.58333z" style=""/><path d="m578.47197 168.1771 5.15625 29.84375-25.98958 6.61459-5.26042-68.38542 26.09375-4.53125 25.72917 34.0625 0.3125-34.0625 32.29167-3.33333-11.45834 76.25-20.67708 3.02083z" style=""/><path d="m655.71155 194.21877-3.64584 10.41667-20.52083-12.39584 25.72917-60.52083 19.58333-1.35416 30.78125 62.65624-24.32292 11.61459-5.36458-14.63542zm17.8125-22.8125-5.83334-18.85417-6.875 20.83334z" style=""/><path d="m736.38864 153.90627 2.55208 44.375-28.22916 7.29167 4.84375-53.02084-21.30209-1.82291 1.66667-19.27083 61.09375-3.64584 2.23958 28.48958z" style=""/><path d="m813.83656 122.34377 1.35416 27.60417-32.39583 3.48958 0.41667 6.30208 21.25-1.97916 1.875 18.85416-22.1875 1.61459 0.36458 5.10416 31.45833-2.39583 4.6875 23.69792-62.03125 2.13541 6.30209-75.15624z" style=""/></g></svg>
